<?xml version='1.0' encoding='utf-8'?>
<svg xmlns:xlink="http://www.w3.org/1999/xlink" class="pygal-chart" id="chart-ffe3f22a-6acd-4be3-b8d8-69954f800be0" viewBox="0 0 1024 768" xmlns="http://www.w3.org/2000/svg"><!--Generated with pygal 1.7.0 (etree) ©Kozea 2011-2014 on 2015-11-12--><!--http://pygal.org--><!--http://github.com/Kozea/pygal--><defs><style type="text/css">#chart-ffe3f22a-6acd-4be3-b8d8-69954f800be0 .title{font-family:"monospace";font-size:16px}#chart-ffe3f22a-6acd-4be3-b8d8-69954f800be0 .legends .legend text{font-family:"monospace";font-size:14px}#chart-ffe3f22a-6acd-4be3-b8d8-69954f800be0 .axis text{font-family:"monospace";font-size:10px}#chart-ffe3f22a-6acd-4be3-b8d8-69954f800be0 .axis text.major{font-family:"monospace";font-size:10px}#chart-ffe3f22a-6acd-4be3-b8d8-69954f800be0 .series text{font-family:"monospace";font-size:8px}#chart-ffe3f22a-6acd-4be3-b8d8-69954f800be0 .tooltip text{font-family:"monospace";font-size:16px}#chart-ffe3f22a-6acd-4be3-b8d8-69954f800be0 text.no_data{font-size:64px}
#chart-ffe3f22a-6acd-4be3-b8d8-69954f800be0{background-color:black}#chart-ffe3f22a-6acd-4be3-b8d8-69954f800be0 path,#chart-ffe3f22a-6acd-4be3-b8d8-69954f800be0 line,#chart-ffe3f22a-6acd-4be3-b8d8-69954f800be0 rect,#chart-ffe3f22a-6acd-4be3-b8d8-69954f800be0 circle{-webkit-transition:250ms;-moz-transition:250ms;transition:250ms}#chart-ffe3f22a-6acd-4be3-b8d8-69954f800be0 .graph &gt; .background{fill:black}#chart-ffe3f22a-6acd-4be3-b8d8-69954f800be0 .plot &gt; .background{fill:#111}#chart-ffe3f22a-6acd-4be3-b8d8-69954f800be0 .graph{fill:#999}#chart-ffe3f22a-6acd-4be3-b8d8-69954f800be0 text.no_data{fill:#eee}#chart-ffe3f22a-6acd-4be3-b8d8-69954f800be0 .title{fill:#eee}#chart-ffe3f22a-6acd-4be3-b8d8-69954f800be0 .legends .legend text{fill:#999}#chart-ffe3f22a-6acd-4be3-b8d8-69954f800be0 .legends .legend:hover text{fill:#eee}#chart-ffe3f22a-6acd-4be3-b8d8-69954f800be0 .axis .line{stroke:#eee}#chart-ffe3f22a-6acd-4be3-b8d8-69954f800be0 .axis .guide.line{stroke:#555}#chart-ffe3f22a-6acd-4be3-b8d8-69954f800be0 .axis .major.line{stroke:#999}#chart-ffe3f22a-6acd-4be3-b8d8-69954f800be0 .axis text.major{stroke:#eee;fill:#eee}#chart-ffe3f22a-6acd-4be3-b8d8-69954f800be0 .axis.y .guides:hover .guide.line,#chart-ffe3f22a-6acd-4be3-b8d8-69954f800be0 .line-graph .axis.x .guides:hover .guide.line,#chart-ffe3f22a-6acd-4be3-b8d8-69954f800be0 .stackedline-graph .axis.x .guides:hover .guide.line,#chart-ffe3f22a-6acd-4be3-b8d8-69954f800be0 .xy-graph .axis.x .guides:hover .guide.line{stroke:#eee}#chart-ffe3f22a-6acd-4be3-b8d8-69954f800be0 .axis .guides:hover text{fill:#eee}#chart-ffe3f22a-6acd-4be3-b8d8-69954f800be0 .reactive{fill-opacity:.8}#chart-ffe3f22a-6acd-4be3-b8d8-69954f800be0 .reactive.active,#chart-ffe3f22a-6acd-4be3-b8d8-69954f800be0 .active .reactive{fill-opacity:.4}#chart-ffe3f22a-6acd-4be3-b8d8-69954f800be0 .series{stroke-width:1.0;stroke-linejoin:round;stroke-linecap:round;stroke-dasharray:0,0}#chart-ffe3f22a-6acd-4be3-b8d8-69954f800be0 .series text{fill:#eee}#chart-ffe3f22a-6acd-4be3-b8d8-69954f800be0 .tooltip rect{fill:#111;stroke:#eee}#chart-ffe3f22a-6acd-4be3-b8d8-69954f800be0 .tooltip text{fill:#eee}#chart-ffe3f22a-6acd-4be3-b8d8-69954f800be0 .map-element{fill:#999;stroke:#555 !important;opacity:.9;stroke-width:3;-webkit-transition:250ms;-moz-transition:250ms;-o-transition:250ms;transition:250ms}#chart-ffe3f22a-6acd-4be3-b8d8-69954f800be0 .map-element:hover{opacity:1;stroke-width:10}#chart-ffe3f22a-6acd-4be3-b8d8-69954f800be0 .color-0,#chart-ffe3f22a-6acd-4be3-b8d8-69954f800be0 .color-0 a:visited{stroke:#ff5995;fill:#ff5995}#chart-ffe3f22a-6acd-4be3-b8d8-69954f800be0 .color-1,#chart-ffe3f22a-6acd-4be3-b8d8-69954f800be0 .color-1 a:visited{stroke:#b6e354;fill:#b6e354}#chart-ffe3f22a-6acd-4be3-b8d8-69954f800be0 .color-2,#chart-ffe3f22a-6acd-4be3-b8d8-69954f800be0 .color-2 a:visited{stroke:#feed6c;fill:#feed6c}#chart-ffe3f22a-6acd-4be3-b8d8-69954f800be0 .color-3,#chart-ffe3f22a-6acd-4be3-b8d8-69954f800be0 .color-3 a:visited{stroke:#8cedff;fill:#8cedff}#chart-ffe3f22a-6acd-4be3-b8d8-69954f800be0 .color-4,#chart-ffe3f22a-6acd-4be3-b8d8-69954f800be0 .color-4 a:visited{stroke:#9e6ffe;fill:#9e6ffe}#chart-ffe3f22a-6acd-4be3-b8d8-69954f800be0 .color-5,#chart-ffe3f22a-6acd-4be3-b8d8-69954f800be0 .color-5 a:visited{stroke:#899ca1;fill:#899ca1}#chart-ffe3f22a-6acd-4be3-b8d8-69954f800be0 .color-6,#chart-ffe3f22a-6acd-4be3-b8d8-69954f800be0 .color-6 a:visited{stroke:#f8f8f2;fill:#f8f8f2}#chart-ffe3f22a-6acd-4be3-b8d8-69954f800be0 .color-7,#chart-ffe3f22a-6acd-4be3-b8d8-69954f800be0 .color-7 a:visited{stroke:#bf4646;fill:#bf4646}#chart-ffe3f22a-6acd-4be3-b8d8-69954f800be0 .color-8,#chart-ffe3f22a-6acd-4be3-b8d8-69954f800be0 .color-8 a:visited{stroke:#516083;fill:#516083}#chart-ffe3f22a-6acd-4be3-b8d8-69954f800be0 .color-9,#chart-ffe3f22a-6acd-4be3-b8d8-69954f800be0 .color-9 a:visited{stroke:#f92672;fill:#f92672}#chart-ffe3f22a-6acd-4be3-b8d8-69954f800be0 .color-10,#chart-ffe3f22a-6acd-4be3-b8d8-69954f800be0 .color-10 a:visited{stroke:#82b414;fill:#82b414}#chart-ffe3f22a-6acd-4be3-b8d8-69954f800be0 .color-11,#chart-ffe3f22a-6acd-4be3-b8d8-69954f800be0 .color-11 a:visited{stroke:#fd971f;fill:#fd971f}#chart-ffe3f22a-6acd-4be3-b8d8-69954f800be0 .color-12,#chart-ffe3f22a-6acd-4be3-b8d8-69954f800be0 .color-12 a:visited{stroke:#56c2d6;fill:#56c2d6}#chart-ffe3f22a-6acd-4be3-b8d8-69954f800be0 .color-13,#chart-ffe3f22a-6acd-4be3-b8d8-69954f800be0 .color-13 a:visited{stroke:#808384;fill:#808384}#chart-ffe3f22a-6acd-4be3-b8d8-69954f800be0 .color-14,#chart-ffe3f22a-6acd-4be3-b8d8-69954f800be0 .color-14 a:visited{stroke:#8c54fe;fill:#8c54fe}#chart-ffe3f22a-6acd-4be3-b8d8-69954f800be0 .color-15,#chart-ffe3f22a-6acd-4be3-b8d8-69954f800be0 .color-15 a:visited{stroke:#465457;fill:#465457}
#chart-ffe3f22a-6acd-4be3-b8d8-69954f800be0 text.no_data{text-anchor:middle}#chart-ffe3f22a-6acd-4be3-b8d8-69954f800be0 .guide.line{fill-opacity:0}#chart-ffe3f22a-6acd-4be3-b8d8-69954f800be0 .centered{text-anchor:middle}#chart-ffe3f22a-6acd-4be3-b8d8-69954f800be0 .title{text-anchor:middle}#chart-ffe3f22a-6acd-4be3-b8d8-69954f800be0 .legends .legend text{fill-opacity:1}#chart-ffe3f22a-6acd-4be3-b8d8-69954f800be0 .axis.x text{text-anchor:middle}#chart-ffe3f22a-6acd-4be3-b8d8-69954f800be0 .axis.x:not(.web) text[transform]{text-anchor:start}#chart-ffe3f22a-6acd-4be3-b8d8-69954f800be0 .axis.y text{text-anchor:end}#chart-ffe3f22a-6acd-4be3-b8d8-69954f800be0 .axis.y2 text{text-anchor:start}#chart-ffe3f22a-6acd-4be3-b8d8-69954f800be0 .axis.y .logarithmic text:not(.major),#chart-ffe3f22a-6acd-4be3-b8d8-69954f800be0 .axis.y2 .logarithmic text:not(.major){font-size:50%}#chart-ffe3f22a-6acd-4be3-b8d8-69954f800be0 .axis .guide.line{stroke-dasharray:4,4}#chart-ffe3f22a-6acd-4be3-b8d8-69954f800be0 .axis .major.guide.line{stroke-dasharray:6,6}#chart-ffe3f22a-6acd-4be3-b8d8-69954f800be0 .axis text.major{stroke-width:0.5px}#chart-ffe3f22a-6acd-4be3-b8d8-69954f800be0 .horizontal .axis.y .guide.line,#chart-ffe3f22a-6acd-4be3-b8d8-69954f800be0 .horizontal .axis.y2 .guide.line,#chart-ffe3f22a-6acd-4be3-b8d8-69954f800be0 .vertical .axis.x .guide.line{opacity:0}#chart-ffe3f22a-6acd-4be3-b8d8-69954f800be0 .horizontal .axis.always_show .guide.line,#chart-ffe3f22a-6acd-4be3-b8d8-69954f800be0 .vertical .axis.always_show .guide.line{opacity:1 !important}#chart-ffe3f22a-6acd-4be3-b8d8-69954f800be0 .axis.y .guides:hover .guide.line,#chart-ffe3f22a-6acd-4be3-b8d8-69954f800be0 .axis.y2 .guides:hover .guide.line,#chart-ffe3f22a-6acd-4be3-b8d8-69954f800be0 .axis.x .guides:hover .guide.line{opacity:1}#chart-ffe3f22a-6acd-4be3-b8d8-69954f800be0 .axis .guides:hover text{opacity:1}#chart-ffe3f22a-6acd-4be3-b8d8-69954f800be0 .nofill{fill:none}#chart-ffe3f22a-6acd-4be3-b8d8-69954f800be0 .subtle-fill{fill-opacity:.2}#chart-ffe3f22a-6acd-4be3-b8d8-69954f800be0 .dot{stroke-width:1px;fill-opacity:1}#chart-ffe3f22a-6acd-4be3-b8d8-69954f800be0 .dot.active{stroke-width:5px}#chart-ffe3f22a-6acd-4be3-b8d8-69954f800be0 .series text{stroke:none}#chart-ffe3f22a-6acd-4be3-b8d8-69954f800be0 .series text.active{opacity:1}#chart-ffe3f22a-6acd-4be3-b8d8-69954f800be0 .tooltip rect{fill-opacity:0.8}#chart-ffe3f22a-6acd-4be3-b8d8-69954f800be0 .tooltip text{fill-opacity:1}#chart-ffe3f22a-6acd-4be3-b8d8-69954f800be0 .tooltip text tspan.label{fill-opacity:.8}</style><script type="text/javascript">window.config = {"width": 1024, "margin_top": null, "x_labels_major_count": null, "stroke": true, "y_labels": null, "x_title": null, "show_legend": true, "height": 768, "legend_box_size": 12, "margin": 20, "zero": 0, "include_x_axis": false, "truncate_legend": null, "stack_from_top": false, "pretty_print": false, "css": ["style.css", "graph.css"], "human_readable": false, "print_zeroes": false, "range": [0, 1000], "mode": null, "disable_xml_declaration": false, "y_labels_major_count": null, "style": {"stroke_width": 1.0, "transition": "250ms", "plot_background": "#111", "foreground_light": "#eee", "foreground_dark": "#555", "opacity_hover": ".4", "background": "black", "opacity": ".8", "stroke_style": "round", "foreground": "#999", "colors": ["#ff5995", "#b6e354", "#feed6c", "#8cedff", "#9e6ffe", "#899ca1", "#f8f8f2", "#bf4646", "#516083", "#f92672", "#82b414", "#fd971f", "#56c2d6", "#808384", "#8c54fe", "#465457"], "stroke_dasharray": "0,0", "font_family": "monospace"}, "title": "Election stackoverflow.com-3 Constituents Per Hour", "x_labels": null, "interpolation_parameters": {}, "legend_at_bottom_columns": null, "tooltip_font_size": 16, "y_label_rotation": 0, "major_label_font_size": 10, "show_minor_y_labels": true, "y_title": "Users", "show_minor_x_labels": true, "rounded_bars": null, "x_value_formatter": null, "no_data_font_size": 64, "missing_value_fill_truncation": "x", "show_x_guides": false, "x_labels_major_every": null, "inner_radius": 0, "no_data_text": "No data", "x_label_rotation": 0, "xrange": null, "margin_right": null, "half_pie": false, "x_label_format": "%Y-%m-%d %H:%M:%S.%f", "dots_size": 2.5, "value_font_size": 8, "truncate_label": null, "title_font_size": 16, "tooltip_border_radius": 0, "explicit_size": false, "legend_font_size": 14, "show_x_labels": true, "y_labels_major": null, "show_only_major_dots": false, "margin_left": null, "show_dots": false, "label_font_size": 10, "order_min": null, "x_labels_major": null, "strict": false, "js": ["http://kozea.github.io/pygal.js/javascripts/svg.jquery.js", "http://kozea.github.io/pygal.js/javascripts/pygal-tooltips.js"], "interpolation_precision": 250, "logarithmic": false, "y_labels_major_every": null, "show_y_labels": true, "legend_at_bottom": true, "fill": false, "no_prefix": false, "interpolate": null, "print_values": false, "spacing": 10, "show_y_guides": true, "margin_bottom": null}</script><script type="text/javascript" xlink:href="http://kozea.github.io/pygal.js/javascripts/svg.jquery.js" /><script type="text/javascript" xlink:href="http://kozea.github.io/pygal.js/javascripts/pygal-tooltips.js" /></defs><title>Election stackoverflow.com-3 Constituents Per Hour</title><g class="graph line-graph vertical"><rect class="background" height="768" width="1024" x="0" y="0" /><g class="plot" transform="translate(80, 46)"><rect class="background" height="678.0" width="924.0" x="0" y="0" /><g class="axis y"><g class="guides"><path class="axis major line" d="M0.000000 664.961538 h924.000000" /><text class="major" x="-5" y="668.4615384615385">0</text></g><g class="guides"><path class="guide line" d="M0.000000 599.769231 h924.000000" /><text class="" x="-5" y="603.2692307692307">100</text></g><g class="guides"><path class="guide line" d="M0.000000 534.576923 h924.000000" /><text class="" x="-5" y="538.0769230769231">200</text></g><g class="guides"><path class="guide line" d="M0.000000 469.384615 h924.000000" /><text class="" x="-5" y="472.88461538461536">300</text></g><g class="guides"><path class="guide line" d="M0.000000 404.192308 h924.000000" /><text class="" x="-5" y="407.6923076923077">400</text></g><g class="guides"><path class="major guide line" d="M0.000000 339.000000 h924.000000" /><text class="major" x="-5" y="342.5">500</text></g><g class="guides"><path class="guide line" d="M0.000000 273.807692 h924.000000" /><text class="" x="-5" y="277.3076923076923">600</text></g><g class="guides"><path class="guide line" d="M0.000000 208.615385 h924.000000" /><text class="" x="-5" y="212.11538461538464">700</text></g><g class="guides"><path class="guide line" d="M0.000000 143.423077 h924.000000" /><text class="" x="-5" y="146.9230769230769">800</text></g><g class="guides"><path class="guide line" d="M0.000000 78.230769 h924.000000" /><text class="" x="-5" y="81.73076923076928">900</text></g><g class="guides"><path class="major guide line" d="M0.000000 13.038462 h924.000000" /><text class="major" x="-5" y="16.538461538461547">1000</text></g></g><g class="series serie-0 color-0"><path class="line reactive nofill" d="M17.769231 607.592308 L22.302198 439.396154 26.835165 569.128846 31.368132 612.807692 35.901099 629.105769 40.434066 640.840385 44.967033 638.884615 49.500000 644.100000 54.032967 642.144231 58.565934 636.928846 63.098901 643.448077 67.631868 633.017308 72.164835 632.365385 76.697802 636.276923 81.230769 628.453846 85.763736 630.409615 90.296703 640.188462 94.829670 630.409615 99.362637 633.669231 103.895604 640.840385 108.428571 633.017308 112.961538 635.625000 117.494505 636.276923 122.027473 647.359615 126.560440 635.625000 131.093407 641.492308 135.626374 642.144231 140.159341 640.188462 144.692308 654.530769 149.225275 653.226923 153.758242 659.094231 158.291209 655.834615 162.824176 649.967308 167.357143 655.182692 171.890110 650.619231 176.423077 649.967308 180.956044 646.055769 185.489011 647.359615 190.021978 644.100000 194.554945 646.707692 199.087912 651.271154 203.620879 648.663462 208.153846 642.796154 212.686813 646.707692 217.219780 647.359615 221.752747 639.536538 226.285714 644.100000 230.818681 651.271154 235.351648 651.271154 239.884615 651.271154 244.417582 642.796154 248.950549 653.226923 253.483516 652.575000 258.016484 653.878846 262.549451 652.575000 267.082418 652.575000 271.615385 650.619231 276.148352 646.055769 280.681319 630.409615 285.214286 631.713462 289.747253 629.105769 294.280220 608.896154 298.813187 619.978846 303.346154 614.111538 307.879121 612.155769 312.412088 608.244231 316.945055 609.548077 321.478022 606.288462 326.010989 628.453846 330.543956 625.194231 335.076923 632.365385 339.609890 640.188462 344.142857 636.276923 348.675824 631.713462 353.208791 636.928846 357.741758 645.403846 362.274725 646.055769 366.807692 654.530769 371.340659 656.486538 375.873626 656.486538 380.406593 654.530769 384.939560 649.967308 389.472527 648.663462 394.005495 635.625000 398.538462 642.796154 403.071429 631.713462 407.604396 625.846154 412.137363 633.669231 416.670330 635.625000 421.203297 631.061538 425.736264 629.757692 430.269231 634.973077 434.802198 628.453846 439.335165 630.409615 443.868132 628.453846 448.401099 624.542308 452.934066 621.934615 457.467033 664.961538 462.000000 664.961538 466.532967 664.961538 471.065934 664.961538 475.598901 664.961538 480.131868 664.961538 484.664835 664.961538 489.197802 664.961538 493.730769 664.961538 498.263736 664.961538 502.796703 664.961538 507.329670 664.961538 511.862637 664.961538 516.395604 664.961538 520.928571 664.961538 525.461538 664.961538 529.994505 664.961538 534.527473 664.961538 539.060440 664.961538 543.593407 664.961538 548.126374 664.961538 552.659341 664.961538 557.192308 664.961538 561.725275 664.961538 566.258242 664.961538 570.791209 664.961538 575.324176 664.961538 579.857143 664.961538 584.390110 664.961538 588.923077 664.961538 593.456044 664.961538 597.989011 664.961538 602.521978 664.961538 607.054945 664.961538 611.587912 664.961538 616.120879 664.961538 620.653846 664.961538 625.186813 664.961538 629.719780 664.961538 634.252747 664.961538 638.785714 664.961538 643.318681 664.961538 647.851648 664.961538 652.384615 664.961538 656.917582 664.961538 661.450549 664.961538 665.983516 664.961538 670.516484 664.961538 675.049451 664.961538 679.582418 664.961538 684.115385 664.961538 688.648352 664.961538 693.181319 664.961538 697.714286 664.961538 702.247253 664.961538 706.780220 664.961538 711.313187 664.961538 715.846154 664.961538 720.379121 664.961538 724.912088 664.961538 729.445055 664.961538 733.978022 664.961538 738.510989 664.961538 743.043956 664.961538 747.576923 664.961538 752.109890 664.961538 756.642857 664.961538 761.175824 664.961538 765.708791 664.961538 770.241758 664.961538 774.774725 664.961538 779.307692 664.961538 783.840659 664.961538 788.373626 664.961538 792.906593 664.961538 797.439560 664.961538 801.972527 664.961538 806.505495 664.961538 811.038462 664.961538 815.571429 664.961538 820.104396 664.961538 824.637363 664.961538 829.170330 664.961538 833.703297 664.961538 838.236264 664.961538 842.769231 664.961538 847.302198 664.961538 851.835165 664.961538 856.368132 664.961538 860.901099 664.961538 865.434066 664.961538 869.967033 664.961538 874.500000 664.961538 879.032967 664.961538 883.565934 664.961538 888.098901 664.961538 892.631868 664.961538 897.164835 664.961538 901.697802 664.961538 906.230769 664.961538" /></g></g><g class="titles"><text class="title plot_title" x="512.0" y="26">Election stackoverflow.com-3 Constituents Per Hour</text><text class="title" transform="rotate(-90 0.000000 385.000000)" x="0" y="411.0">Users</text></g><g class="plot overlay" transform="translate(80, 46)"><g class="series serie-0 color-0" /></g><g class="plot text-overlay" transform="translate(80, 46)"><g class="series serie-0 color-0" /></g><g class="plot tooltip-overlay" transform="translate(80, 46)"><g class="tooltip" style="opacity: 0" transform="translate(0 0)"><a><rect class="tooltip-box" height="0" rx="0" ry="0" width="0" /><text class="text"><tspan class="label" /><tspan class="value" /></text></a></g></g><g class="legends" transform="translate(90, 734)"><g class="legend reactive activate-serie" id="activate-serie-0"><rect class="color-0 reactive" height="12" width="12" x="0.0" y="1.0" /><text x="17.0" y="11.2">constituents</text></g></g></g></svg>