<?xml version='1.0' encoding='utf-8'?>
<svg xmlns:xlink="http://www.w3.org/1999/xlink" class="pygal-chart" id="chart-c6bea247-a54b-4923-9b37-b5e5689ddb91" viewBox="0 0 1024 768" xmlns="http://www.w3.org/2000/svg"><!--Generated with pygal 1.7.0 (etree) ©Kozea 2011-2014 on 2018-03-26--><!--http://pygal.org--><!--http://github.com/Kozea/pygal--><defs><style type="text/css">#chart-c6bea247-a54b-4923-9b37-b5e5689ddb91 .title{font-family:"monospace";font-size:16px}#chart-c6bea247-a54b-4923-9b37-b5e5689ddb91 .legends .legend text{font-family:"monospace";font-size:14px}#chart-c6bea247-a54b-4923-9b37-b5e5689ddb91 .axis text{font-family:"monospace";font-size:10px}#chart-c6bea247-a54b-4923-9b37-b5e5689ddb91 .axis text.major{font-family:"monospace";font-size:10px}#chart-c6bea247-a54b-4923-9b37-b5e5689ddb91 .series text{font-family:"monospace";font-size:8px}#chart-c6bea247-a54b-4923-9b37-b5e5689ddb91 .tooltip text{font-family:"monospace";font-size:16px}#chart-c6bea247-a54b-4923-9b37-b5e5689ddb91 text.no_data{font-size:64px}
#chart-c6bea247-a54b-4923-9b37-b5e5689ddb91{background-color:black}#chart-c6bea247-a54b-4923-9b37-b5e5689ddb91 path,#chart-c6bea247-a54b-4923-9b37-b5e5689ddb91 line,#chart-c6bea247-a54b-4923-9b37-b5e5689ddb91 rect,#chart-c6bea247-a54b-4923-9b37-b5e5689ddb91 circle{-webkit-transition:250ms;-moz-transition:250ms;transition:250ms}#chart-c6bea247-a54b-4923-9b37-b5e5689ddb91 .graph &gt; .background{fill:black}#chart-c6bea247-a54b-4923-9b37-b5e5689ddb91 .plot &gt; .background{fill:#111}#chart-c6bea247-a54b-4923-9b37-b5e5689ddb91 .graph{fill:#999}#chart-c6bea247-a54b-4923-9b37-b5e5689ddb91 text.no_data{fill:#eee}#chart-c6bea247-a54b-4923-9b37-b5e5689ddb91 .title{fill:#eee}#chart-c6bea247-a54b-4923-9b37-b5e5689ddb91 .legends .legend text{fill:#999}#chart-c6bea247-a54b-4923-9b37-b5e5689ddb91 .legends .legend:hover text{fill:#eee}#chart-c6bea247-a54b-4923-9b37-b5e5689ddb91 .axis .line{stroke:#eee}#chart-c6bea247-a54b-4923-9b37-b5e5689ddb91 .axis .guide.line{stroke:#555}#chart-c6bea247-a54b-4923-9b37-b5e5689ddb91 .axis .major.line{stroke:#999}#chart-c6bea247-a54b-4923-9b37-b5e5689ddb91 .axis text.major{stroke:#eee;fill:#eee}#chart-c6bea247-a54b-4923-9b37-b5e5689ddb91 .axis.y .guides:hover .guide.line,#chart-c6bea247-a54b-4923-9b37-b5e5689ddb91 .line-graph .axis.x .guides:hover .guide.line,#chart-c6bea247-a54b-4923-9b37-b5e5689ddb91 .stackedline-graph .axis.x .guides:hover .guide.line,#chart-c6bea247-a54b-4923-9b37-b5e5689ddb91 .xy-graph .axis.x .guides:hover .guide.line{stroke:#eee}#chart-c6bea247-a54b-4923-9b37-b5e5689ddb91 .axis .guides:hover text{fill:#eee}#chart-c6bea247-a54b-4923-9b37-b5e5689ddb91 .reactive{fill-opacity:.8}#chart-c6bea247-a54b-4923-9b37-b5e5689ddb91 .reactive.active,#chart-c6bea247-a54b-4923-9b37-b5e5689ddb91 .active .reactive{fill-opacity:.4}#chart-c6bea247-a54b-4923-9b37-b5e5689ddb91 .series{stroke-width:1.0;stroke-linejoin:round;stroke-linecap:round;stroke-dasharray:0,0}#chart-c6bea247-a54b-4923-9b37-b5e5689ddb91 .series text{fill:#eee}#chart-c6bea247-a54b-4923-9b37-b5e5689ddb91 .tooltip rect{fill:#111;stroke:#eee}#chart-c6bea247-a54b-4923-9b37-b5e5689ddb91 .tooltip text{fill:#eee}#chart-c6bea247-a54b-4923-9b37-b5e5689ddb91 .map-element{fill:#999;stroke:#555 !important;opacity:.9;stroke-width:3;-webkit-transition:250ms;-moz-transition:250ms;-o-transition:250ms;transition:250ms}#chart-c6bea247-a54b-4923-9b37-b5e5689ddb91 .map-element:hover{opacity:1;stroke-width:10}#chart-c6bea247-a54b-4923-9b37-b5e5689ddb91 .color-0,#chart-c6bea247-a54b-4923-9b37-b5e5689ddb91 .color-0 a:visited{stroke:#ff5995;fill:#ff5995}#chart-c6bea247-a54b-4923-9b37-b5e5689ddb91 .color-1,#chart-c6bea247-a54b-4923-9b37-b5e5689ddb91 .color-1 a:visited{stroke:#b6e354;fill:#b6e354}#chart-c6bea247-a54b-4923-9b37-b5e5689ddb91 .color-2,#chart-c6bea247-a54b-4923-9b37-b5e5689ddb91 .color-2 a:visited{stroke:#feed6c;fill:#feed6c}#chart-c6bea247-a54b-4923-9b37-b5e5689ddb91 .color-3,#chart-c6bea247-a54b-4923-9b37-b5e5689ddb91 .color-3 a:visited{stroke:#8cedff;fill:#8cedff}#chart-c6bea247-a54b-4923-9b37-b5e5689ddb91 .color-4,#chart-c6bea247-a54b-4923-9b37-b5e5689ddb91 .color-4 a:visited{stroke:#9e6ffe;fill:#9e6ffe}#chart-c6bea247-a54b-4923-9b37-b5e5689ddb91 .color-5,#chart-c6bea247-a54b-4923-9b37-b5e5689ddb91 .color-5 a:visited{stroke:#899ca1;fill:#899ca1}#chart-c6bea247-a54b-4923-9b37-b5e5689ddb91 .color-6,#chart-c6bea247-a54b-4923-9b37-b5e5689ddb91 .color-6 a:visited{stroke:#f8f8f2;fill:#f8f8f2}#chart-c6bea247-a54b-4923-9b37-b5e5689ddb91 .color-7,#chart-c6bea247-a54b-4923-9b37-b5e5689ddb91 .color-7 a:visited{stroke:#bf4646;fill:#bf4646}#chart-c6bea247-a54b-4923-9b37-b5e5689ddb91 .color-8,#chart-c6bea247-a54b-4923-9b37-b5e5689ddb91 .color-8 a:visited{stroke:#516083;fill:#516083}#chart-c6bea247-a54b-4923-9b37-b5e5689ddb91 .color-9,#chart-c6bea247-a54b-4923-9b37-b5e5689ddb91 .color-9 a:visited{stroke:#f92672;fill:#f92672}#chart-c6bea247-a54b-4923-9b37-b5e5689ddb91 .color-10,#chart-c6bea247-a54b-4923-9b37-b5e5689ddb91 .color-10 a:visited{stroke:#82b414;fill:#82b414}#chart-c6bea247-a54b-4923-9b37-b5e5689ddb91 .color-11,#chart-c6bea247-a54b-4923-9b37-b5e5689ddb91 .color-11 a:visited{stroke:#fd971f;fill:#fd971f}#chart-c6bea247-a54b-4923-9b37-b5e5689ddb91 .color-12,#chart-c6bea247-a54b-4923-9b37-b5e5689ddb91 .color-12 a:visited{stroke:#56c2d6;fill:#56c2d6}#chart-c6bea247-a54b-4923-9b37-b5e5689ddb91 .color-13,#chart-c6bea247-a54b-4923-9b37-b5e5689ddb91 .color-13 a:visited{stroke:#808384;fill:#808384}#chart-c6bea247-a54b-4923-9b37-b5e5689ddb91 .color-14,#chart-c6bea247-a54b-4923-9b37-b5e5689ddb91 .color-14 a:visited{stroke:#8c54fe;fill:#8c54fe}#chart-c6bea247-a54b-4923-9b37-b5e5689ddb91 .color-15,#chart-c6bea247-a54b-4923-9b37-b5e5689ddb91 .color-15 a:visited{stroke:#465457;fill:#465457}
#chart-c6bea247-a54b-4923-9b37-b5e5689ddb91 text.no_data{text-anchor:middle}#chart-c6bea247-a54b-4923-9b37-b5e5689ddb91 .guide.line{fill-opacity:0}#chart-c6bea247-a54b-4923-9b37-b5e5689ddb91 .centered{text-anchor:middle}#chart-c6bea247-a54b-4923-9b37-b5e5689ddb91 .title{text-anchor:middle}#chart-c6bea247-a54b-4923-9b37-b5e5689ddb91 .legends .legend text{fill-opacity:1}#chart-c6bea247-a54b-4923-9b37-b5e5689ddb91 .axis.x text{text-anchor:middle}#chart-c6bea247-a54b-4923-9b37-b5e5689ddb91 .axis.x:not(.web) text[transform]{text-anchor:start}#chart-c6bea247-a54b-4923-9b37-b5e5689ddb91 .axis.y text{text-anchor:end}#chart-c6bea247-a54b-4923-9b37-b5e5689ddb91 .axis.y2 text{text-anchor:start}#chart-c6bea247-a54b-4923-9b37-b5e5689ddb91 .axis.y .logarithmic text:not(.major),#chart-c6bea247-a54b-4923-9b37-b5e5689ddb91 .axis.y2 .logarithmic text:not(.major){font-size:50%}#chart-c6bea247-a54b-4923-9b37-b5e5689ddb91 .axis .guide.line{stroke-dasharray:4,4}#chart-c6bea247-a54b-4923-9b37-b5e5689ddb91 .axis .major.guide.line{stroke-dasharray:6,6}#chart-c6bea247-a54b-4923-9b37-b5e5689ddb91 .axis text.major{stroke-width:0.5px}#chart-c6bea247-a54b-4923-9b37-b5e5689ddb91 .horizontal .axis.y .guide.line,#chart-c6bea247-a54b-4923-9b37-b5e5689ddb91 .horizontal .axis.y2 .guide.line,#chart-c6bea247-a54b-4923-9b37-b5e5689ddb91 .vertical .axis.x .guide.line{opacity:0}#chart-c6bea247-a54b-4923-9b37-b5e5689ddb91 .horizontal .axis.always_show .guide.line,#chart-c6bea247-a54b-4923-9b37-b5e5689ddb91 .vertical .axis.always_show .guide.line{opacity:1 !important}#chart-c6bea247-a54b-4923-9b37-b5e5689ddb91 .axis.y .guides:hover .guide.line,#chart-c6bea247-a54b-4923-9b37-b5e5689ddb91 .axis.y2 .guides:hover .guide.line,#chart-c6bea247-a54b-4923-9b37-b5e5689ddb91 .axis.x .guides:hover .guide.line{opacity:1}#chart-c6bea247-a54b-4923-9b37-b5e5689ddb91 .axis .guides:hover text{opacity:1}#chart-c6bea247-a54b-4923-9b37-b5e5689ddb91 .nofill{fill:none}#chart-c6bea247-a54b-4923-9b37-b5e5689ddb91 .subtle-fill{fill-opacity:.2}#chart-c6bea247-a54b-4923-9b37-b5e5689ddb91 .dot{stroke-width:1px;fill-opacity:1}#chart-c6bea247-a54b-4923-9b37-b5e5689ddb91 .dot.active{stroke-width:5px}#chart-c6bea247-a54b-4923-9b37-b5e5689ddb91 .series text{stroke:none}#chart-c6bea247-a54b-4923-9b37-b5e5689ddb91 .series text.active{opacity:1}#chart-c6bea247-a54b-4923-9b37-b5e5689ddb91 .tooltip rect{fill-opacity:0.8}#chart-c6bea247-a54b-4923-9b37-b5e5689ddb91 .tooltip text{fill-opacity:1}#chart-c6bea247-a54b-4923-9b37-b5e5689ddb91 .tooltip text tspan.label{fill-opacity:.8}</style><script type="text/javascript">window.config = {"css": ["style.css", "graph.css"], "disable_xml_declaration": false, "dots_size": 2.5, "explicit_size": false, "fill": false, "half_pie": false, "height": 768, "human_readable": false, "include_x_axis": false, "inner_radius": 0, "interpolate": null, "interpolation_parameters": {}, "interpolation_precision": 250, "js": ["http://kozea.github.io/pygal.js/javascripts/svg.jquery.js", "http://kozea.github.io/pygal.js/javascripts/pygal-tooltips.js"], "label_font_size": 10, "legend_at_bottom": true, "legend_at_bottom_columns": null, "legend_box_size": 12, "legend_font_size": 14, "logarithmic": false, "major_label_font_size": 10, "margin": 20, "margin_bottom": null, "margin_left": null, "margin_right": null, "margin_top": null, "missing_value_fill_truncation": "x", "mode": null, "no_data_font_size": 64, "no_data_text": "No data", "no_prefix": false, "order_min": null, "pretty_print": false, "print_values": false, "print_zeroes": false, "range": null, "rounded_bars": null, "show_dots": false, "show_legend": true, "show_minor_x_labels": true, "show_minor_y_labels": true, "show_only_major_dots": false, "show_x_guides": false, "show_x_labels": true, "show_y_guides": true, "show_y_labels": true, "spacing": 10, "stack_from_top": false, "strict": false, "stroke": true, "style": {"background": "black", "colors": ["#ff5995", "#b6e354", "#feed6c", "#8cedff", "#9e6ffe", "#899ca1", "#f8f8f2", "#bf4646", "#516083", "#f92672", "#82b414", "#fd971f", "#56c2d6", "#808384", "#8c54fe", "#465457"], "font_family": "monospace", "foreground": "#999", "foreground_dark": "#555", "foreground_light": "#eee", "opacity": ".8", "opacity_hover": ".4", "plot_background": "#111", "stroke_dasharray": "0,0", "stroke_style": "round", "stroke_width": 1.0, "transition": "250ms"}, "title": "Election 8 and 9 and 10 Caucus", "title_font_size": 16, "tooltip_border_radius": 0, "tooltip_font_size": 16, "truncate_label": null, "truncate_legend": null, "value_font_size": 8, "width": 1024, "x_label_format": "%Y-%m-%d %H:%M:%S.%f", "x_label_rotation": 0, "x_labels": null, "x_labels_major": null, "x_labels_major_count": null, "x_labels_major_every": null, "x_title": null, "x_value_formatter": null, "xrange": null, "y_label_rotation": 0, "y_labels": null, "y_labels_major": null, "y_labels_major_count": null, "y_labels_major_every": null, "y_title": "Users", "zero": 0}</script><script type="text/javascript" xlink:href="http://kozea.github.io/pygal.js/javascripts/svg.jquery.js" /><script type="text/javascript" xlink:href="http://kozea.github.io/pygal.js/javascripts/pygal-tooltips.js" /></defs><title>Election 8 and 9 and 10 Caucus</title><g class="graph line-graph vertical"><rect class="background" height="768" width="1024" x="0" y="0" /><g class="plot" transform="translate(86, 46)"><rect class="background" height="657.0" width="918.0" x="0" y="0" /><g class="axis y"><path class="line" d="M0.000000 657.000000 h918.000000" /><g class="guides"><path class="guide line" d="M0.000000 586.160669 h918.000000" /><text class="" x="-5" y="589.660668600667">10000</text></g><g class="guides"><path class="guide line" d="M0.000000 514.009043 h918.000000" /><text class="" x="-5" y="517.5090434429658">20000</text></g><g class="guides"><path class="guide line" d="M0.000000 441.857418 h918.000000" /><text class="" x="-5" y="445.35741828526443">30000</text></g><g class="guides"><path class="guide line" d="M0.000000 369.705793 h918.000000" /><text class="" x="-5" y="373.20579312756314">40000</text></g><g class="guides"><path class="major guide line" d="M0.000000 297.554168 h918.000000" /><text class="major" x="-5" y="301.05416796986185">50000</text></g><g class="guides"><path class="guide line" d="M0.000000 225.402543 h918.000000" /><text class="" x="-5" y="228.90254281216056">60000</text></g><g class="guides"><path class="guide line" d="M0.000000 153.250918 h918.000000" /><text class="" x="-5" y="156.75091765445939">70000</text></g><g class="guides"><path class="guide line" d="M0.000000 81.099292 h918.000000" /><text class="" x="-5" y="84.59929249675815">80000</text></g></g><g class="series serie-0 color-0"><path class="line reactive nofill" d="M17.653846 643.001719 L20.105769 637.373892 22.557692 633.088086 25.009615 630.808094 27.461538 629.249619 29.913462 627.640638 32.365385 626.442921 34.817308 624.985458 37.269231 622.856985 39.721154 619.754465 42.173077 617.193083 44.625000 613.679298 47.076923 609.920199 49.528846 606.384769 51.980769 603.563641 54.432692 601.319725 56.884615 599.342771 59.336538 597.409107 61.788462 595.583671 64.240385 594.046841 66.692308 592.582163 69.144231 591.175207 71.596154 590.316602 74.048077 589.436352 76.500000 588.729266 78.951923 588.130408 81.403846 587.639777 83.855769 587.242943 86.307692 586.860539 88.759615 586.528642 91.211538 586.333833 93.663462 586.102947 96.115385 585.872062 98.567308 585.395861 101.019231 584.905230 103.471154 584.573333 105.923077 583.555995 108.375000 582.589163 110.826923 581.817141 113.278846 581.232713 115.730769 580.489551 118.182692 579.587656 120.634615 578.822848 123.086538 578.094117 125.538462 577.495258 127.990385 577.047918 130.442308 576.542857 132.894231 576.066656 135.346154 575.626531 137.798077 575.200837 140.250000 574.962736 142.701923 574.710206 145.153846 574.551472 147.605769 574.407169 150.057692 574.241220 152.509615 574.068056 154.961538 573.822741 157.413462 573.599071 159.865385 573.223882 162.317308 572.863124 164.769231 572.379708 167.221154 571.860216 169.673077 571.268573 172.125000 570.792372 174.576923 570.215159 177.028846 569.717313 179.480769 569.269973 181.932692 568.764912 184.384615 568.288711 186.836538 567.841371 189.288462 567.552764 191.740385 567.220867 194.192308 566.917830 196.644231 566.650869 199.096154 566.419984 201.548077 566.167453 204.000000 566.044796 206.451923 565.914923 208.903846 565.785050 211.355769 565.684037 213.807692 565.474798 216.259615 565.272773 218.711538 565.049103 221.163462 564.767712 223.615385 564.507966 226.067308 564.168853 228.519231 563.844171 230.971154 563.476198 233.423077 563.165946 235.875000 562.848479 238.326923 562.415569 240.778846 562.083671 243.230769 561.657977 245.682692 561.419876 248.134615 561.246712 250.586538 560.972536 253.038462 560.777727 255.490385 560.575702 257.942308 560.395323 260.394231 560.243805 262.846154 560.113932 265.298077 560.070641 267.750000 560.020135 270.201923 559.940768 272.653846 559.854186 275.105769 559.774819 277.557692 559.702668 280.009615 559.587225 282.461538 559.457352 284.913462 559.305834 287.365385 559.161530 289.817308 559.038873 292.269231 558.909000 294.721154 558.743051 297.173077 558.642039 299.625000 558.512166 302.076923 558.331787 304.528846 558.194699 306.980769 558.086471 309.432692 557.898877 311.884615 557.776219 314.336538 557.595840 316.788462 557.509258 319.240385 557.429891 321.692308 557.343310 324.144231 557.271158 326.596154 557.191791 329.048077 557.112424 331.500000 557.033058 333.951923 556.960906 336.403846 556.881539 338.855769 556.751666 341.307692 556.614578 343.759615 556.506351 346.211538 556.304326 348.663462 556.174453 351.115385 556.022935 353.567308 555.864201 356.019231 555.770404 358.471154 555.590025 360.923077 555.409646 363.375000 555.207621 365.826923 555.113824 368.278846 554.940660 370.730769 554.818003 373.182692 554.623193 375.634615 554.522181 378.086538 554.370663 380.538462 554.262435 382.990385 554.154208 385.442308 554.009904 387.894231 553.858386 390.346154 553.706868 392.798077 553.533704 395.250000 553.288388 397.701923 552.949276 400.153846 552.602948 402.605769 552.083456 405.057692 551.708268 407.509615 551.203206 409.961538 550.806372 412.413462 550.330172 414.865385 549.796250 417.317308 549.363340 419.769231 548.966506 422.221154 548.591317 424.673077 548.273850 427.125000 548.086256 429.576923 510.538550 432.028846 491.259636 434.480769 477.319942 436.932692 468.690608 439.384615 461.893925 441.836538 455.847618 444.288462 449.779667 446.740385 443.083996 449.192308 433.422893 451.644231 421.142687 454.096154 407.383372 456.548077 391.769760 459.000000 372.014645 461.451923 353.421171 463.903846 338.218824 466.355769 325.996339 468.807692 314.906634 471.259615 305.570214 473.711538 296.168857 476.163462 287.575598 478.615385 280.511954 481.067308 274.682103 483.519231 270.049968 485.971154 265.049861 488.423077 261.391773 490.875000 257.675965 493.326923 254.934203 495.778846 252.964464 498.230769 251.196749 500.682692 250.085614 503.134615 248.527139 505.586538 247.141827 508.038462 245.489555 510.490385 243.223994 512.942308 240.215271 515.394231 237.127182 517.846154 233.404158 520.298077 229.002909 522.750000 224.204826 525.201923 220.618890 527.653846 217.191688 530.105769 213.158412 532.557692 209.781716 535.009615 206.491602 537.461538 203.829207 539.913462 201.736810 542.365385 199.651628 544.817308 197.833407 547.269231 196.029616 549.721154 194.334053 552.173077 193.114691 554.625000 192.147859 557.076923 191.318115 559.528846 190.675966 561.980769 189.961665 564.432692 189.196857 566.884615 188.244456 569.336538 187.378636 571.788462 185.849022 574.240385 184.283332 576.692308 182.674350 579.144231 180.430435 581.596154 178.338038 584.048077 176.353868 586.500000 174.499571 588.951923 172.674135 591.403846 170.661105 593.855769 168.842884 596.307692 167.024663 598.759615 165.754794 601.211538 164.311762 603.663462 162.991387 606.115385 162.118352 608.567308 160.978357 611.019231 160.206334 613.471154 159.621906 615.923077 159.095199 618.375000 158.727226 620.826923 158.164443 623.278846 157.702673 625.730769 157.147105 628.182692 156.634829 630.634615 155.761794 633.086538 154.910405 635.538462 153.972434 637.990385 152.724211 640.442308 151.555354 642.894231 150.393713 645.346154 149.484603 647.798077 148.243595 650.250000 147.139675 652.701923 146.021325 655.153846 145.162720 657.605769 144.275255 660.057692 143.546524 662.509615 142.774502 664.961538 134.166813 667.413462 129.339869 669.865385 125.898237 672.317308 123.719257 674.769231 122.326731 677.221154 120.963065 679.673077 120.025094 682.125000 119.000541 684.576923 117.810039 687.028846 116.792701 689.480769 115.602200 691.932692 114.404483 694.384615 112.903729 696.836538 111.215381 699.288462 109.599184 701.740385 108.127291 704.192308 106.713119 706.644231 105.291732 709.096154 103.884776 711.548077 102.521110 714.000000 101.013141 716.451923 99.894791 718.903846 98.798086 721.355769 97.593154 723.807692 96.597462 726.259615 95.681136 728.711538 95.046202 731.163462 94.476204 733.615385 94.007218 736.067308 93.617599 738.519231 93.300132 740.971154 92.939374 743.423077 92.455958 745.875000 91.986973 748.326923 91.474696 750.778846 90.825332 753.230769 90.118246 755.682692 89.274072 758.134615 88.343316 760.586538 87.549648 763.038462 86.878638 765.490385 85.919021 767.942308 85.096493 770.394231 84.338900 772.846154 83.487511 775.298077 82.628907 777.750000 81.813594 780.201923 81.048786 782.653846 80.377776 785.105769 79.634615 787.557692 78.877022 790.009615 78.314240 792.461538 77.643230 794.913462 77.008295 797.365385 76.315640 799.817308 75.687921 802.269231 74.778810 804.721154 73.379069 807.173077 71.438190 809.625000 69.259211 812.076923 66.394791 814.528846 63.054171 816.980769 60.023803 819.432692 57.722166 821.884615 55.218505 824.336538 52.967374 826.788462 50.254473 829.240385 48.234227 831.692308 46.632461 834.144231 45.283226 836.596154 44.092724 839.048077 43.097032 841.500000 42.065263 843.951923 40.982989 846.403846 40.225397 848.855769 39.677044 851.307692 39.193629 853.759615 38.789580 856.211538 38.335024 858.663462 37.981481 861.115385 37.591863 863.567308 37.014650 866.019231 36.141615 868.471154 35.420099 870.923077 34.402761 873.375000 32.865931 875.826923 31.870239 878.278846 30.694167 880.730769 29.453159 883.182692 28.356455 885.634615 26.747473 888.086538 25.564187 890.538462 24.626215 892.990385 23.515080 895.442308 22.750273 897.894231 22.072048 900.346154 22.028757" /></g><g class="series serie-1 color-1"><path class="line reactive nofill" d="M17.653846 644.365385 L20.105769 639.596162 22.557692 636.544148 25.009615 634.747573 27.461538 633.124161 29.913462 631.666699 32.365385 630.209236 34.817308 628.347724 37.269231 626.053302 39.721154 622.835340 42.173077 618.744343 44.625000 614.227651 47.076923 610.295387 49.528846 607.459828 51.980769 604.516042 54.432692 602.322633 56.884615 600.129223 59.336538 597.892523 61.788462 595.735189 64.240385 594.118993 66.692308 592.892415 69.144231 591.940014 71.596154 590.749512 74.048077 589.825971 76.500000 589.061164 78.951923 588.281926 81.403846 587.820156 83.855769 587.416107 86.307692 587.134716 88.759615 586.867755 91.211538 586.615224 93.663462 586.276111 96.115385 585.799910 98.567308 585.121685 101.019231 584.385739 103.471154 583.519919 105.923077 582.632454 108.375000 581.579040 110.826923 580.626639 113.278846 579.681453 115.730769 578.750697 118.182692 577.971459 120.634615 576.997412 123.086538 576.081087 125.538462 575.475013 127.990385 574.969952 130.442308 574.464890 132.894231 573.894892 135.346154 573.447552 137.798077 573.187806 140.250000 572.841479 142.701923 572.653884 145.153846 572.473505 147.605769 572.242620 150.057692 572.018950 152.509615 571.838571 154.961538 571.564395 157.413462 571.254143 159.865385 570.842879 162.317308 570.301741 164.769231 569.789465 167.221154 569.580225 169.673077 569.039088 172.125000 568.433014 174.576923 567.762004 177.028846 567.220867 179.480769 566.535427 181.932692 565.979859 184.384615 565.655177 186.836538 565.272773 189.288462 564.854294 191.740385 564.493536 194.192308 564.103917 196.644231 563.822525 199.096154 563.591640 201.548077 563.476198 204.000000 563.353540 206.451923 563.295819 208.903846 563.158731 211.355769 563.050503 213.807692 562.819618 216.259615 562.624808 218.711538 562.191899 221.163462 561.802280 223.615385 561.297219 226.067308 560.864309 228.519231 560.554057 230.971154 560.157223 233.423077 559.760389 235.875000 559.356340 238.326923 559.053303 240.778846 558.786342 243.230769 558.555457 245.682692 558.339002 248.134615 558.086471 250.586538 557.862801 253.038462 557.581410 255.490385 557.422676 257.942308 557.235082 260.394231 557.105209 262.846154 557.083564 265.298077 557.083564 267.750000 557.083564 270.201923 557.083564 272.653846 557.083564 275.105769 557.083564 277.557692 557.083564 280.009615 557.083564 282.461538 557.083564 284.913462 557.083564 287.365385 557.083564 289.817308 557.083564 292.269231 557.083564 294.721154 557.083564 297.173077 557.083564 299.625000 557.083564 302.076923 557.083564 304.528846 557.083564 306.980769 557.083564 309.432692 554.846863 311.884615 554.709775 314.336538 554.579902 316.788462 554.464460 319.240385 554.413954 321.692308 554.370663 324.144231 554.284081 326.596154 554.183068 329.048077 554.082056 331.500000 553.988259 333.951923 553.894462 336.403846 553.779019 338.855769 553.706868 341.307692 553.584210 343.759615 553.439907 346.211538 553.360540 348.663462 553.216237 351.115385 553.043073 353.567308 552.898769 356.019231 552.761681 358.471154 552.581302 360.923077 552.408138 363.375000 552.206114 365.826923 552.025735 368.278846 551.859786 370.730769 551.780419 373.182692 551.621686 375.634615 551.477382 378.086538 551.390800 380.538462 551.333079 382.990385 551.260928 385.442308 551.102194 387.894231 551.030042 390.346154 550.871309 392.798077 550.647639 395.250000 550.409538 397.701923 550.019920 400.153846 549.579795 402.605769 549.074733 405.057692 548.504735 407.509615 548.014104 409.961538 547.415246 412.413462 546.953475 414.865385 546.477275 417.317308 546.001074 419.769231 545.705252 422.221154 545.351709 424.673077 545.027027 427.125000 543.786019 429.576923 511.750698 432.028846 494.997090 434.480769 486.728514 436.932692 480.602841 439.384615 475.025520 441.836538 469.448200 444.288462 463.401894 446.740385 455.797112 449.192308 444.252852 451.644231 428.927847 454.096154 410.673486 456.548077 388.602304 459.000000 370.939586 461.451923 354.553952 463.903846 341.393495 466.355769 329.401895 468.807692 317.980293 471.259615 307.229701 473.711538 297.590244 476.163462 289.487616 478.615385 284.011308 481.067308 278.361836 483.519231 274.068814 485.971154 269.667565 488.423077 265.735301 490.875000 263.044046 493.326923 261.132028 495.778846 259.414819 498.230769 258.130520 500.682692 256.766854 503.134615 255.518631 505.586538 253.916865 508.038462 252.076999 510.490385 249.486755 512.942308 245.821453 515.394231 241.456279 517.846154 236.420096 520.298077 232.184796 522.750000 227.992786 525.201923 224.248117 527.653846 219.969525 530.105769 216.094983 532.557692 212.191580 535.009615 208.973618 537.461538 206.159704 539.913462 204.009586 542.365385 201.974910 544.817308 199.680488 547.269231 197.912774 549.721154 196.448096 552.173077 195.373036 554.625000 194.514432 557.076923 193.663043 559.528846 192.963172 561.980769 192.227226 564.432692 191.498494 566.884615 190.459511 569.336538 189.225718 571.788462 187.414712 574.240385 185.358391 576.692308 183.063969 579.144231 180.639675 581.596154 178.467911 584.048077 176.433235 586.500000 174.362483 588.951923 172.132998 591.403846 170.228195 593.855769 168.337822 596.307692 166.952511 598.759615 165.394036 601.211538 164.008725 603.663462 162.789363 606.115385 161.634936 608.567308 160.704181 611.019231 160.040386 613.471154 159.499248 615.923077 159.181781 618.375000 158.720011 620.826923 158.287101 623.278846 157.774825 625.730769 157.276978 628.182692 156.476095 630.634615 155.494833 633.086538 154.325977 635.538462 153.070539 637.990385 151.432697 640.442308 150.155613 642.894231 148.625998 645.346154 147.464357 647.798077 145.898667 650.250000 144.693735 652.701923 143.633106 655.153846 142.666274 657.605769 141.634506 660.057692 140.797547 662.509615 139.643121 664.961538 131.468342 667.413462 127.225826 669.865385 124.852038 672.317308 123.185335 674.769231 122.117491 677.221154 121.352684 679.673077 120.176613 682.125000 119.000541 684.576923 117.680166 687.028846 116.172197 689.480769 114.476634 691.932692 112.571831 694.384615 110.825762 696.836538 109.303363 699.288462 107.990203 701.740385 106.359576 704.192308 105.003126 706.644231 103.466296 709.096154 101.958327 711.548077 100.681244 714.000000 99.065047 716.451923 97.845685 718.903846 96.958220 721.355769 95.854300 723.807692 94.952405 726.259615 94.223673 728.711538 93.559878 731.163462 92.997095 733.615385 92.520895 736.067308 92.174567 738.519231 91.748872 740.971154 91.431405 743.423077 90.933559 745.875000 90.248119 748.326923 89.519387 750.778846 88.639137 753.230769 87.932051 755.682692 86.972435 758.134615 86.128261 760.586538 85.356238 763.038462 84.504849 765.490385 83.581308 767.942308 82.758780 770.394231 81.849669 772.846154 81.092077 775.298077 80.262334 777.750000 79.475881 780.201923 78.833731 782.653846 78.018418 785.105769 77.426775 787.557692 76.849562 790.009615 76.301209 792.461538 75.810578 794.913462 75.276656 797.365385 74.468558 799.817308 73.775903 802.269231 72.441097 804.721154 70.702243 807.173077 68.133645 809.625000 64.655937 812.076923 61.012280 814.528846 57.989127 816.980769 55.009265 819.432692 52.512819 821.884615 49.662829 824.336538 46.769549 826.788462 44.215382 829.240385 42.223997 831.692308 40.463497 834.144231 38.912237 836.596154 37.476420 839.048077 36.206551 841.500000 35.001619 843.951923 34.150230 846.403846 33.356562 848.855769 32.873146 851.307692 32.396946 853.759615 32.137200 856.211538 31.740366 858.663462 31.350747 861.115385 30.903407 863.567308 30.239612 866.019231 29.063540 868.471154 27.562787 870.923077 26.242412 873.375000 24.756088 875.826923 23.377992 878.278846 22.043187 880.730769 20.592940 883.182692 19.142692 885.634615 17.735735 888.086538 16.263842 890.538462 15.224859 892.990385 14.279672 895.442308 13.514865 897.894231 12.634615 900.346154 12.634615" /></g><g class="series serie-2 color-2"><path class="line reactive nofill" d="M17.653846 644.257157 L20.105769 639.112746 22.557692 635.375292 25.009615 633.412768 27.461538 631.962520 29.913462 630.454551 32.365385 629.199113 34.817308 627.965320 37.269231 625.844062 39.721154 623.080655 42.173077 620.043072 44.625000 616.211820 47.076923 612.936137 49.528846 610.100578 51.980769 607.632992 54.432692 605.850847 56.884615 604.010981 59.336538 602.005165 61.788462 600.331248 64.240385 598.772773 66.692308 597.553410 69.144231 596.702021 71.596154 595.785695 74.048077 595.049749 76.500000 594.393169 78.951923 593.888108 81.403846 593.476843 83.855769 593.108870 86.307692 592.863555 88.759615 592.603809 91.211538 592.336848 93.663462 592.098747 96.115385 591.694698 98.567308 591.305079 101.019231 590.850524 103.471154 590.287742 105.923077 589.515719 108.375000 588.685975 110.826923 587.899523 113.278846 587.242943 115.730769 586.506996 118.182692 585.749404 120.634615 585.042318 123.086538 584.414599 125.538462 583.887892 127.990385 583.418907 130.442308 582.884985 132.894231 582.545872 135.346154 582.235620 137.798077 581.874862 140.250000 581.680053 142.701923 581.398661 145.153846 581.283219 147.605769 581.153346 150.057692 581.052334 152.509615 580.886385 154.961538 580.684360 157.413462 580.366893 159.865385 580.063856 162.317308 579.688668 164.769231 579.169176 167.221154 578.757912 169.673077 578.281711 172.125000 577.740574 174.576923 577.235513 177.028846 576.773742 179.480769 576.369693 181.932692 575.922353 184.384615 575.597671 186.836538 575.280204 189.288462 575.013243 191.740385 574.731851 194.192308 574.479320 196.644231 574.183499 199.096154 574.089702 201.548077 573.981474 204.000000 573.873247 206.451923 573.772235 208.903846 573.700083 211.355769 573.599071 213.807692 573.469198 216.259615 573.288819 218.711538 573.079579 221.163462 572.877554 223.615385 572.668315 226.067308 572.307557 228.519231 572.004520 230.971154 571.701483 233.423077 571.369585 235.875000 571.008827 238.326923 570.713006 240.778846 570.431614 243.230769 570.251235 245.682692 570.027565 248.134615 569.818326 250.586538 569.666807 253.038462 569.450352 255.490385 569.262758 257.942308 569.125670 260.394231 568.938076 262.846154 568.887570 265.298077 568.793772 267.750000 568.699975 270.201923 568.642254 272.653846 568.591748 275.105769 568.548457 277.557692 568.461875 280.009615 568.368078 282.461538 568.245420 284.913462 568.144408 287.365385 568.036180 289.817308 567.942383 292.269231 567.834156 294.721154 567.740359 297.173077 567.588840 299.625000 567.422892 302.076923 567.307449 304.528846 567.206437 306.980769 567.090994 309.432692 566.997197 311.884615 566.896185 314.336538 566.795172 316.788462 566.744666 319.240385 566.636439 321.692308 566.578718 324.144231 566.528211 326.596154 566.463275 329.048077 566.376693 331.500000 566.340617 333.951923 566.275681 336.403846 566.181884 338.855769 566.088086 341.307692 565.943783 343.759615 565.777834 346.211538 565.575810 348.663462 565.359355 351.115385 565.186191 353.567308 564.969736 356.019231 564.803788 358.471154 564.630624 360.923077 564.414169 363.375000 564.262650 365.826923 564.060626 368.278846 563.974044 370.730769 563.822525 373.182692 563.699868 375.634615 563.569995 378.086538 563.440122 380.538462 563.324679 382.990385 563.216452 385.442308 563.101009 387.894231 562.971136 390.346154 562.819618 392.798077 562.559872 395.250000 562.235190 397.701923 561.881647 400.153846 561.427091 402.605769 560.914815 405.057692 560.366463 407.509615 559.883047 409.961538 559.450137 412.413462 558.995582 414.865385 558.331787 417.317308 557.884447 419.769231 557.516473 422.221154 557.256728 424.673077 556.989767 427.125000 554.442814 429.576923 522.587872 432.028846 506.238313 434.480769 495.769113 436.932692 488.734329 439.384615 483.337388 441.836538 477.622979 444.288462 472.038443 446.740385 465.104672 449.192308 455.631164 451.644231 443.892094 454.096154 430.284298 456.548077 413.523475 459.000000 394.756837 461.451923 375.687163 463.903846 361.754684 466.355769 349.229162 468.807692 336.638703 471.259615 324.769761 473.711538 313.752208 476.163462 305.519707 478.615385 297.453156 481.067308 291.327483 483.519231 285.887250 485.971154 281.890050 488.423077 277.820698 490.875000 274.855267 493.326923 272.560845 495.778846 270.901358 498.230769 269.602628 500.682692 268.159596 503.134615 266.622766 505.586538 264.891127 508.038462 262.899742 510.490385 260.720763 512.942308 257.538877 515.394231 253.902435 517.846154 249.847513 520.298077 245.143227 522.750000 240.590460 525.201923 236.016047 527.653846 231.845683 530.105769 227.430003 532.557692 223.324576 535.009615 219.399528 537.461538 216.318653 539.913462 213.786131 542.365385 211.304115 544.817308 209.038554 547.269231 206.953372 549.721154 205.380467 552.173077 204.038447 554.625000 203.143766 557.076923 202.270732 559.528846 201.469849 561.980769 200.806054 564.432692 199.882513 566.884615 198.843530 569.336538 197.631382 571.788462 196.022401 574.240385 193.973295 576.692308 191.534570 579.144231 188.929896 581.596154 186.253071 584.048077 183.937004 586.500000 181.779670 588.951923 179.499679 591.403846 176.895005 593.855769 174.600584 596.307692 172.746287 598.759615 170.993002 601.211538 169.477818 603.663462 168.114152 606.115385 167.017448 608.567308 165.855807 611.019231 164.888975 613.471154 164.167459 615.923077 163.727334 618.375000 163.114045 620.826923 162.652274 623.278846 162.125568 625.730769 161.606076 628.182692 160.906205 630.634615 160.040386 633.086538 158.914820 635.538462 157.709888 637.990385 156.122552 640.442308 154.484710 642.894231 153.128260 645.346154 151.793455 647.798077 150.119537 650.250000 148.517771 652.701923 147.154105 655.153846 145.927528 657.605769 144.881329 660.057692 143.943358 662.509615 142.565262 664.961538 134.794532 667.413462 130.602523 669.865385 127.839115 672.317308 125.775579 674.769231 124.534571 677.221154 123.257487 679.673077 122.175213 682.125000 121.085723 684.576923 119.786994 687.028846 118.610922 689.480769 117.146244 691.932692 115.472327 694.384615 113.942712 696.836538 112.470819 699.288462 110.695889 701.740385 109.058047 704.192308 107.449066 706.644231 105.739072 709.096154 104.303255 711.548077 102.788071 714.000000 101.258457 716.451923 99.829854 718.903846 98.588846 721.355769 97.535433 723.807692 96.619107 726.259615 95.666706 728.711538 94.909114 731.163462 94.324685 733.615385 93.826839 736.067308 93.300132 738.519231 92.852792 740.971154 92.318870 743.423077 91.770518 745.875000 91.171659 748.326923 90.551155 750.778846 89.721412 753.230769 88.754580 755.682692 87.845469 758.134615 86.965220 760.586538 86.005603 763.038462 85.067632 765.490385 84.245103 767.942308 83.328778 770.394231 82.412452 772.846154 81.568278 775.298077 80.832331 777.750000 79.901576 780.201923 79.035756 782.653846 78.263734 785.105769 77.614369 787.557692 76.950574 790.009615 76.337285 792.461538 75.853869 794.913462 75.269441 797.365385 74.490204 799.817308 73.718181 802.269231 72.563755 804.721154 70.954774 807.173077 68.328455 809.625000 65.009480 812.076923 61.380253 814.528846 57.967481 816.980769 55.167998 819.432692 52.707628 821.884615 49.814348 824.336538 47.188029 826.788462 44.518419 829.240385 42.447667 831.692308 40.918052 834.144231 39.662614 836.596154 38.573125 839.048077 37.173383 841.500000 35.881869 843.951923 35.109847 846.403846 34.489343 848.855769 34.042003 851.307692 33.565802 853.759615 33.212259 856.211538 33.176183 858.663462 33.176183 861.115385 33.176183 863.567308 33.176183 866.019231 33.176183 868.471154 33.176183 870.923077 33.176183 873.375000 33.176183 875.826923 33.176183 878.278846 33.176183 880.730769 33.176183 883.182692 33.176183 885.634615 33.176183 888.086538 33.176183 890.538462 33.176183 892.990385 33.176183 895.442308 33.176183 897.894231 33.176183 900.346154 33.176183" /></g></g><g class="titles"><text class="title plot_title" x="512.0" y="26">Election 8 and 9 and 10 Caucus</text><text class="title" transform="rotate(-90 0.000000 374.500000)" x="0" y="400.5">Users</text></g><g class="plot overlay" transform="translate(86, 46)"><g class="series serie-0 color-0" /><g class="series serie-1 color-1" /><g class="series serie-2 color-2" /></g><g class="plot text-overlay" transform="translate(86, 46)"><g class="series serie-0 color-0" /><g class="series serie-1 color-1" /><g class="series serie-2 color-2" /></g><g class="plot tooltip-overlay" transform="translate(86, 46)"><g class="tooltip" style="opacity: 0" transform="translate(0 0)"><a><rect class="tooltip-box" height="0" rx="0" ry="0" width="0" /><text class="text"><tspan class="label" /><tspan class="value" /></text></a></g></g><g class="legends" transform="translate(96, 713)"><g class="legend reactive activate-serie" id="activate-serie-0"><rect class="color-0 reactive" height="12" width="12" x="0.0" y="1.0" /><text x="17.0" y="11.2">8 caucus</text></g><g class="legend reactive activate-serie" id="activate-serie-1"><rect class="color-1 reactive" height="12" width="12" x="459.0" y="1.0" /><text x="476.0" y="11.2">9 caucus</text></g><g class="legend reactive activate-serie" id="activate-serie-2"><rect class="color-2 reactive" height="12" width="12" x="0.0" y="22.0" /><text x="17.0" y="32.2">10 caucus</text></g></g></g></svg>