<?xml version='1.0' encoding='utf-8'?>
<svg xmlns:xlink="http://www.w3.org/1999/xlink" class="pygal-chart" id="chart-261fc66e-f553-4f64-8474-22ca62ed04ef" viewBox="0 0 1024 768" xmlns="http://www.w3.org/2000/svg"><!--Generated with pygal 1.7.0 (etree) ©Kozea 2011-2014 on 2015-11-17--><!--http://pygal.org--><!--http://github.com/Kozea/pygal--><defs><style type="text/css">#chart-261fc66e-f553-4f64-8474-22ca62ed04ef .title{font-family:"monospace";font-size:16px}#chart-261fc66e-f553-4f64-8474-22ca62ed04ef .legends .legend text{font-family:"monospace";font-size:14px}#chart-261fc66e-f553-4f64-8474-22ca62ed04ef .axis text{font-family:"monospace";font-size:10px}#chart-261fc66e-f553-4f64-8474-22ca62ed04ef .axis text.major{font-family:"monospace";font-size:10px}#chart-261fc66e-f553-4f64-8474-22ca62ed04ef .series text{font-family:"monospace";font-size:8px}#chart-261fc66e-f553-4f64-8474-22ca62ed04ef .tooltip text{font-family:"monospace";font-size:16px}#chart-261fc66e-f553-4f64-8474-22ca62ed04ef text.no_data{font-size:64px}
#chart-261fc66e-f553-4f64-8474-22ca62ed04ef{background-color:black}#chart-261fc66e-f553-4f64-8474-22ca62ed04ef path,#chart-261fc66e-f553-4f64-8474-22ca62ed04ef line,#chart-261fc66e-f553-4f64-8474-22ca62ed04ef rect,#chart-261fc66e-f553-4f64-8474-22ca62ed04ef circle{-webkit-transition:250ms;-moz-transition:250ms;transition:250ms}#chart-261fc66e-f553-4f64-8474-22ca62ed04ef .graph &gt; .background{fill:black}#chart-261fc66e-f553-4f64-8474-22ca62ed04ef .plot &gt; .background{fill:#111}#chart-261fc66e-f553-4f64-8474-22ca62ed04ef .graph{fill:#999}#chart-261fc66e-f553-4f64-8474-22ca62ed04ef text.no_data{fill:#eee}#chart-261fc66e-f553-4f64-8474-22ca62ed04ef .title{fill:#eee}#chart-261fc66e-f553-4f64-8474-22ca62ed04ef .legends .legend text{fill:#999}#chart-261fc66e-f553-4f64-8474-22ca62ed04ef .legends .legend:hover text{fill:#eee}#chart-261fc66e-f553-4f64-8474-22ca62ed04ef .axis .line{stroke:#eee}#chart-261fc66e-f553-4f64-8474-22ca62ed04ef .axis .guide.line{stroke:#555}#chart-261fc66e-f553-4f64-8474-22ca62ed04ef .axis .major.line{stroke:#999}#chart-261fc66e-f553-4f64-8474-22ca62ed04ef .axis text.major{stroke:#eee;fill:#eee}#chart-261fc66e-f553-4f64-8474-22ca62ed04ef .axis.y .guides:hover .guide.line,#chart-261fc66e-f553-4f64-8474-22ca62ed04ef .line-graph .axis.x .guides:hover .guide.line,#chart-261fc66e-f553-4f64-8474-22ca62ed04ef .stackedline-graph .axis.x .guides:hover .guide.line,#chart-261fc66e-f553-4f64-8474-22ca62ed04ef .xy-graph .axis.x .guides:hover .guide.line{stroke:#eee}#chart-261fc66e-f553-4f64-8474-22ca62ed04ef .axis .guides:hover text{fill:#eee}#chart-261fc66e-f553-4f64-8474-22ca62ed04ef .reactive{fill-opacity:.8}#chart-261fc66e-f553-4f64-8474-22ca62ed04ef .reactive.active,#chart-261fc66e-f553-4f64-8474-22ca62ed04ef .active .reactive{fill-opacity:.4}#chart-261fc66e-f553-4f64-8474-22ca62ed04ef .series{stroke-width:1.0;stroke-linejoin:round;stroke-linecap:round;stroke-dasharray:0,0}#chart-261fc66e-f553-4f64-8474-22ca62ed04ef .series text{fill:#eee}#chart-261fc66e-f553-4f64-8474-22ca62ed04ef .tooltip rect{fill:#111;stroke:#eee}#chart-261fc66e-f553-4f64-8474-22ca62ed04ef .tooltip text{fill:#eee}#chart-261fc66e-f553-4f64-8474-22ca62ed04ef .map-element{fill:#999;stroke:#555 !important;opacity:.9;stroke-width:3;-webkit-transition:250ms;-moz-transition:250ms;-o-transition:250ms;transition:250ms}#chart-261fc66e-f553-4f64-8474-22ca62ed04ef .map-element:hover{opacity:1;stroke-width:10}#chart-261fc66e-f553-4f64-8474-22ca62ed04ef .color-0,#chart-261fc66e-f553-4f64-8474-22ca62ed04ef .color-0 a:visited{stroke:#ff5995;fill:#ff5995}#chart-261fc66e-f553-4f64-8474-22ca62ed04ef .color-1,#chart-261fc66e-f553-4f64-8474-22ca62ed04ef .color-1 a:visited{stroke:#b6e354;fill:#b6e354}#chart-261fc66e-f553-4f64-8474-22ca62ed04ef .color-2,#chart-261fc66e-f553-4f64-8474-22ca62ed04ef .color-2 a:visited{stroke:#feed6c;fill:#feed6c}#chart-261fc66e-f553-4f64-8474-22ca62ed04ef .color-3,#chart-261fc66e-f553-4f64-8474-22ca62ed04ef .color-3 a:visited{stroke:#8cedff;fill:#8cedff}#chart-261fc66e-f553-4f64-8474-22ca62ed04ef .color-4,#chart-261fc66e-f553-4f64-8474-22ca62ed04ef .color-4 a:visited{stroke:#9e6ffe;fill:#9e6ffe}#chart-261fc66e-f553-4f64-8474-22ca62ed04ef .color-5,#chart-261fc66e-f553-4f64-8474-22ca62ed04ef .color-5 a:visited{stroke:#899ca1;fill:#899ca1}#chart-261fc66e-f553-4f64-8474-22ca62ed04ef .color-6,#chart-261fc66e-f553-4f64-8474-22ca62ed04ef .color-6 a:visited{stroke:#f8f8f2;fill:#f8f8f2}#chart-261fc66e-f553-4f64-8474-22ca62ed04ef .color-7,#chart-261fc66e-f553-4f64-8474-22ca62ed04ef .color-7 a:visited{stroke:#bf4646;fill:#bf4646}#chart-261fc66e-f553-4f64-8474-22ca62ed04ef .color-8,#chart-261fc66e-f553-4f64-8474-22ca62ed04ef .color-8 a:visited{stroke:#516083;fill:#516083}#chart-261fc66e-f553-4f64-8474-22ca62ed04ef .color-9,#chart-261fc66e-f553-4f64-8474-22ca62ed04ef .color-9 a:visited{stroke:#f92672;fill:#f92672}#chart-261fc66e-f553-4f64-8474-22ca62ed04ef .color-10,#chart-261fc66e-f553-4f64-8474-22ca62ed04ef .color-10 a:visited{stroke:#82b414;fill:#82b414}#chart-261fc66e-f553-4f64-8474-22ca62ed04ef .color-11,#chart-261fc66e-f553-4f64-8474-22ca62ed04ef .color-11 a:visited{stroke:#fd971f;fill:#fd971f}#chart-261fc66e-f553-4f64-8474-22ca62ed04ef .color-12,#chart-261fc66e-f553-4f64-8474-22ca62ed04ef .color-12 a:visited{stroke:#56c2d6;fill:#56c2d6}#chart-261fc66e-f553-4f64-8474-22ca62ed04ef .color-13,#chart-261fc66e-f553-4f64-8474-22ca62ed04ef .color-13 a:visited{stroke:#808384;fill:#808384}#chart-261fc66e-f553-4f64-8474-22ca62ed04ef .color-14,#chart-261fc66e-f553-4f64-8474-22ca62ed04ef .color-14 a:visited{stroke:#8c54fe;fill:#8c54fe}#chart-261fc66e-f553-4f64-8474-22ca62ed04ef .color-15,#chart-261fc66e-f553-4f64-8474-22ca62ed04ef .color-15 a:visited{stroke:#465457;fill:#465457}
#chart-261fc66e-f553-4f64-8474-22ca62ed04ef text.no_data{text-anchor:middle}#chart-261fc66e-f553-4f64-8474-22ca62ed04ef .guide.line{fill-opacity:0}#chart-261fc66e-f553-4f64-8474-22ca62ed04ef .centered{text-anchor:middle}#chart-261fc66e-f553-4f64-8474-22ca62ed04ef .title{text-anchor:middle}#chart-261fc66e-f553-4f64-8474-22ca62ed04ef .legends .legend text{fill-opacity:1}#chart-261fc66e-f553-4f64-8474-22ca62ed04ef .axis.x text{text-anchor:middle}#chart-261fc66e-f553-4f64-8474-22ca62ed04ef .axis.x:not(.web) text[transform]{text-anchor:start}#chart-261fc66e-f553-4f64-8474-22ca62ed04ef .axis.y text{text-anchor:end}#chart-261fc66e-f553-4f64-8474-22ca62ed04ef .axis.y2 text{text-anchor:start}#chart-261fc66e-f553-4f64-8474-22ca62ed04ef .axis.y .logarithmic text:not(.major),#chart-261fc66e-f553-4f64-8474-22ca62ed04ef .axis.y2 .logarithmic text:not(.major){font-size:50%}#chart-261fc66e-f553-4f64-8474-22ca62ed04ef .axis .guide.line{stroke-dasharray:4,4}#chart-261fc66e-f553-4f64-8474-22ca62ed04ef .axis .major.guide.line{stroke-dasharray:6,6}#chart-261fc66e-f553-4f64-8474-22ca62ed04ef .axis text.major{stroke-width:0.5px}#chart-261fc66e-f553-4f64-8474-22ca62ed04ef .horizontal .axis.y .guide.line,#chart-261fc66e-f553-4f64-8474-22ca62ed04ef .horizontal .axis.y2 .guide.line,#chart-261fc66e-f553-4f64-8474-22ca62ed04ef .vertical .axis.x .guide.line{opacity:0}#chart-261fc66e-f553-4f64-8474-22ca62ed04ef .horizontal .axis.always_show .guide.line,#chart-261fc66e-f553-4f64-8474-22ca62ed04ef .vertical .axis.always_show .guide.line{opacity:1 !important}#chart-261fc66e-f553-4f64-8474-22ca62ed04ef .axis.y .guides:hover .guide.line,#chart-261fc66e-f553-4f64-8474-22ca62ed04ef .axis.y2 .guides:hover .guide.line,#chart-261fc66e-f553-4f64-8474-22ca62ed04ef .axis.x .guides:hover .guide.line{opacity:1}#chart-261fc66e-f553-4f64-8474-22ca62ed04ef .axis .guides:hover text{opacity:1}#chart-261fc66e-f553-4f64-8474-22ca62ed04ef .nofill{fill:none}#chart-261fc66e-f553-4f64-8474-22ca62ed04ef .subtle-fill{fill-opacity:.2}#chart-261fc66e-f553-4f64-8474-22ca62ed04ef .dot{stroke-width:1px;fill-opacity:1}#chart-261fc66e-f553-4f64-8474-22ca62ed04ef .dot.active{stroke-width:5px}#chart-261fc66e-f553-4f64-8474-22ca62ed04ef .series text{stroke:none}#chart-261fc66e-f553-4f64-8474-22ca62ed04ef .series text.active{opacity:1}#chart-261fc66e-f553-4f64-8474-22ca62ed04ef .tooltip rect{fill-opacity:0.8}#chart-261fc66e-f553-4f64-8474-22ca62ed04ef .tooltip text{fill-opacity:1}#chart-261fc66e-f553-4f64-8474-22ca62ed04ef .tooltip text tspan.label{fill-opacity:.8}</style><script type="text/javascript">window.config = {"no_prefix": false, "legend_at_bottom": true, "interpolate": null, "y_labels": null, "x_value_formatter": null, "title": "Election math.stackexchange.com-5 Participation Per Hour", "x_label_rotation": 0, "y_title": "Users", "include_x_axis": false, "y_labels_major_every": null, "x_title": null, "range": [0, 1000], "y_labels_major": null, "margin_bottom": null, "y_labels_major_count": null, "missing_value_fill_truncation": "x", "x_labels_major": null, "rounded_bars": null, "no_data_text": "No data", "height": 768, "x_labels": null, "major_label_font_size": 10, "x_labels_major_every": null, "x_labels_major_count": null, "legend_box_size": 12, "margin_left": null, "margin_top": null, "dots_size": 2.5, "explicit_size": false, "print_values": false, "no_data_font_size": 64, "show_x_labels": true, "xrange": null, "margin": 20, "logarithmic": false, "width": 1024, "disable_xml_declaration": false, "title_font_size": 16, "css": ["style.css", "graph.css"], "show_minor_x_labels": true, "fill": false, "strict": false, "style": {"foreground": "#999", "opacity": ".8", "plot_background": "#111", "foreground_dark": "#555", "font_family": "monospace", "stroke_style": "round", "opacity_hover": ".4", "stroke_dasharray": "0,0", "colors": ["#ff5995", "#b6e354", "#feed6c", "#8cedff", "#9e6ffe", "#899ca1", "#f8f8f2", "#bf4646", "#516083", "#f92672", "#82b414", "#fd971f", "#56c2d6", "#808384", "#8c54fe", "#465457"], "stroke_width": 1.0, "transition": "250ms", "background": "black", "foreground_light": "#eee"}, "print_zeroes": false, "show_legend": true, "show_x_guides": false, "human_readable": false, "order_min": null, "y_label_rotation": 0, "label_font_size": 10, "legend_at_bottom_columns": null, "truncate_legend": null, "show_dots": false, "interpolation_parameters": {}, "tooltip_font_size": 16, "js": ["http://kozea.github.io/pygal.js/javascripts/svg.jquery.js", "http://kozea.github.io/pygal.js/javascripts/pygal-tooltips.js"], "margin_right": null, "show_y_labels": true, "stack_from_top": false, "legend_font_size": 14, "x_label_format": "%Y-%m-%d %H:%M:%S.%f", "value_font_size": 8, "truncate_label": null, "show_y_guides": true, "interpolation_precision": 250, "show_minor_y_labels": true, "stroke": true, "show_only_major_dots": false, "pretty_print": false, "spacing": 10, "zero": 0, "inner_radius": 0, "mode": null, "half_pie": false, "tooltip_border_radius": 0}</script><script type="text/javascript" xlink:href="http://kozea.github.io/pygal.js/javascripts/svg.jquery.js" /><script type="text/javascript" xlink:href="http://kozea.github.io/pygal.js/javascripts/pygal-tooltips.js" /></defs><title>Election math.stackexchange.com-5 Participation Per Hour</title><g class="graph line-graph vertical"><rect class="background" height="768" width="1024" x="0" y="0" /><g class="plot" transform="translate(80, 46)"><rect class="background" height="657.0" width="924.0" x="0" y="0" /><g class="axis y"><g class="guides"><path class="axis major line" d="M0.000000 644.365385 h924.000000" /><text class="major" x="-5" y="647.8653846153846">0</text></g><g class="guides"><path class="guide line" d="M0.000000 581.192308 h924.000000" /><text class="" x="-5" y="584.6923076923077">100</text></g><g class="guides"><path class="guide line" d="M0.000000 518.019231 h924.000000" /><text class="" x="-5" y="521.5192307692307">200</text></g><g class="guides"><path class="guide line" d="M0.000000 454.846154 h924.000000" /><text class="" x="-5" y="458.3461538461538">300</text></g><g class="guides"><path class="guide line" d="M0.000000 391.673077 h924.000000" /><text class="" x="-5" y="395.1730769230769">400</text></g><g class="guides"><path class="major guide line" d="M0.000000 328.500000 h924.000000" /><text class="major" x="-5" y="332.0">500</text></g><g class="guides"><path class="guide line" d="M0.000000 265.326923 h924.000000" /><text class="" x="-5" y="268.8269230769231">600</text></g><g class="guides"><path class="guide line" d="M0.000000 202.153846 h924.000000" /><text class="" x="-5" y="205.65384615384613">700</text></g><g class="guides"><path class="guide line" d="M0.000000 138.980769 h924.000000" /><text class="" x="-5" y="142.48076923076928">800</text></g><g class="guides"><path class="guide line" d="M0.000000 75.807692 h924.000000" /><text class="" x="-5" y="79.30769230769226">900</text></g><g class="guides"><path class="major guide line" d="M0.000000 12.634615 h924.000000" /><text class="major" x="-5" y="16.13461538461536">1000</text></g></g><g class="series serie-0 color-0"><path class="line reactive nofill" d="M17.769231 644.365385 L20.237179 644.365385 22.705128 644.365385 25.173077 644.365385 27.641026 644.365385 30.108974 644.365385 32.576923 644.365385 35.044872 644.365385 37.512821 644.365385 39.980769 644.365385 42.448718 644.365385 44.916667 644.365385 47.384615 644.365385 49.852564 644.365385 52.320513 644.365385 54.788462 644.365385 57.256410 644.365385 59.724359 644.365385 62.192308 644.365385 64.660256 644.365385 67.128205 644.365385 69.596154 644.365385 72.064103 644.365385 74.532051 644.365385 77.000000 644.365385 79.467949 644.365385 81.935897 644.365385 84.403846 644.365385 86.871795 644.365385 89.339744 644.365385 91.807692 644.365385 94.275641 644.365385 96.743590 644.365385 99.211538 644.365385 101.679487 644.365385 104.147436 644.365385 106.615385 644.365385 109.083333 644.365385 111.551282 644.365385 114.019231 644.365385 116.487179 644.365385 118.955128 644.365385 121.423077 644.365385 123.891026 644.365385 126.358974 644.365385 128.826923 644.365385 131.294872 644.365385 133.762821 644.365385 136.230769 644.365385 138.698718 644.365385 141.166667 644.365385 143.634615 644.365385 146.102564 644.365385 148.570513 644.365385 151.038462 644.365385 153.506410 644.365385 155.974359 644.365385 158.442308 644.365385 160.910256 644.365385 163.378205 644.365385 165.846154 644.365385 168.314103 644.365385 170.782051 644.365385 173.250000 644.365385 175.717949 644.365385 178.185897 644.365385 180.653846 644.365385 183.121795 644.365385 185.589744 644.365385 188.057692 644.365385 190.525641 644.365385 192.993590 644.365385 195.461538 644.365385 197.929487 644.365385 200.397436 644.365385 202.865385 644.365385 205.333333 644.365385 207.801282 644.365385 210.269231 644.365385 212.737179 644.365385 215.205128 644.365385 217.673077 644.365385 220.141026 644.365385 222.608974 644.365385 225.076923 644.365385 227.544872 644.365385 230.012821 644.365385 232.480769 644.365385 234.948718 644.365385 237.416667 644.365385 239.884615 644.365385 242.352564 644.365385 244.820513 644.365385 247.288462 644.365385 249.756410 644.365385 252.224359 644.365385 254.692308 644.365385 257.160256 644.365385 259.628205 644.365385 262.096154 644.365385 264.564103 644.365385 267.032051 644.365385 269.500000 644.365385 271.967949 644.365385 274.435897 644.365385 276.903846 644.365385 279.371795 644.365385 281.839744 644.365385 284.307692 644.365385 286.775641 644.365385 289.243590 644.365385 291.711538 644.365385 294.179487 644.365385 296.647436 644.365385 299.115385 644.365385 301.583333 644.365385 304.051282 644.365385 306.519231 644.365385 308.987179 644.365385 311.455128 644.365385 313.923077 644.365385 316.391026 644.365385 318.858974 644.365385 321.326923 644.365385 323.794872 644.365385 326.262821 644.365385 328.730769 644.365385 331.198718 644.365385 333.666667 644.365385 336.134615 644.365385 338.602564 644.365385 341.070513 644.365385 343.538462 644.365385 346.006410 644.365385 348.474359 644.365385 350.942308 644.365385 353.410256 644.365385 355.878205 644.365385 358.346154 644.365385 360.814103 644.365385 363.282051 644.365385 365.750000 644.365385 368.217949 644.365385 370.685897 644.365385 373.153846 644.365385 375.621795 644.365385 378.089744 644.365385 380.557692 644.365385 383.025641 644.365385 385.493590 644.365385 387.961538 644.365385 390.429487 644.365385 392.897436 644.365385 395.365385 644.365385 397.833333 644.365385 400.301282 644.365385 402.769231 644.365385 405.237179 644.365385 407.705128 644.365385 410.173077 644.365385 412.641026 644.365385 415.108974 644.365385 417.576923 644.365385 420.044872 644.365385 422.512821 644.365385 424.980769 644.365385 427.448718 644.365385 429.916667 644.365385 432.384615 644.365385 434.852564 644.365385 437.320513 644.365385 439.788462 644.365385 442.256410 644.365385 444.724359 644.365385 447.192308 644.365385 449.660256 644.365385 452.128205 644.365385 454.596154 644.365385 457.064103 644.365385 459.532051 644.365385 462.000000 644.365385 464.467949 644.365385 466.935897 644.365385 469.403846 644.365385 471.871795 644.365385 474.339744 644.365385 476.807692 644.365385 479.275641 644.365385 481.743590 644.365385 484.211538 644.365385 486.679487 644.365385 489.147436 644.365385 491.615385 644.365385 494.083333 644.365385 496.551282 644.365385 499.019231 644.365385 501.487179 644.365385 503.955128 644.365385 506.423077 644.365385 508.891026 644.365385 511.358974 644.365385 513.826923 644.365385 516.294872 644.365385 518.762821 644.365385 521.230769 644.365385 523.698718 644.365385 526.166667 644.365385 528.634615 644.365385 531.102564 644.365385 533.570513 644.365385 536.038462 644.365385 538.506410 644.365385 540.974359 644.365385 543.442308 644.365385 545.910256 644.365385 548.378205 644.365385 550.846154 644.365385 553.314103 644.365385 555.782051 644.365385 558.250000 644.365385 560.717949 644.365385 563.185897 644.365385 565.653846 644.365385 568.121795 644.365385 570.589744 644.365385 573.057692 644.365385 575.525641 644.365385 577.993590 644.365385 580.461538 644.365385 582.929487 644.365385 585.397436 644.365385 587.865385 644.365385 590.333333 644.365385 592.801282 644.365385 595.269231 644.365385 597.737179 644.365385 600.205128 644.365385 602.673077 644.365385 605.141026 644.365385 607.608974 644.365385 610.076923 644.365385 612.544872 644.365385 615.012821 644.365385 617.480769 644.365385 619.948718 644.365385 622.416667 644.365385 624.884615 644.365385 627.352564 644.365385 629.820513 644.365385 632.288462 644.365385 634.756410 644.365385 637.224359 644.365385 639.692308 644.365385 642.160256 644.365385 644.628205 644.365385 647.096154 644.365385 649.564103 644.365385 652.032051 644.365385 654.500000 644.365385 656.967949 644.365385 659.435897 644.365385 661.903846 644.365385 664.371795 644.365385 666.839744 606.461538 669.307692 483.905769 671.775641 572.348077 674.243590 588.773077 676.711538 600.775962 679.179487 622.254808 681.647436 617.832692 684.115385 626.045192 686.583333 629.203846 689.051282 629.835577 691.519231 631.099038 693.987179 632.994231 696.455128 632.994231 698.923077 629.203846 701.391026 623.518269 703.858974 629.835577 706.326923 635.521154 708.794872 631.099038 711.262821 628.572115 713.730769 628.572115 716.198718 631.099038 718.666667 638.048077 721.134615 636.152885 723.602564 636.152885 726.070513 636.784615 728.538462 636.784615 731.006410 636.152885 733.474359 639.943269 735.942308 639.311538 738.410256 638.679808 740.878205 640.575000 743.346154 639.311538 745.814103 642.470192 748.282051 639.943269 750.750000 640.575000 753.217949 638.679808 755.685897 638.679808 758.153846 639.943269 760.621795 639.943269 763.089744 641.838462 765.557692 641.838462 768.025641 641.838462 770.493590 639.311538 772.961538 636.784615 775.429487 642.470192 777.897436 637.416346 780.365385 640.575000 782.833333 638.048077 785.301282 639.943269 787.769231 639.311538 790.237179 641.838462 792.705128 639.311538 795.173077 641.206731 797.641026 642.470192 800.108974 643.733654 802.576923 639.943269 805.044872 642.470192 807.512821 641.206731 809.980769 642.470192 812.448718 643.101923 814.916667 641.206731 817.384615 641.206731 819.852564 639.311538 822.320513 639.311538 824.788462 639.943269 827.256410 641.838462 829.724359 641.838462 832.192308 642.470192 834.660256 641.206731 837.128205 642.470192 839.596154 641.838462 842.064103 639.943269 844.532051 643.101923 847.000000 640.575000 849.467949 642.470192 851.935897 641.206731 854.403846 642.470192 856.871795 643.101923 859.339744 640.575000 861.807692 643.733654 864.275641 643.101923 866.743590 641.206731 869.211538 643.101923 871.679487 643.733654 874.147436 644.365385 876.615385 642.470192 879.083333 642.470192 881.551282 641.206731 884.019231 643.733654 886.487179 644.365385 888.955128 639.943269 891.423077 642.470192 893.891026 638.048077 896.358974 641.838462 898.826923 640.575000 901.294872 640.575000 903.762821 638.679808 906.230769 644.365385" /></g><g class="series serie-1 color-1"><path class="line reactive nofill" d="M17.769231 341.134615 L20.237179 524.336538 22.705128 564.135577 25.173077 602.039423 27.641026 601.407692 30.108974 616.569231 32.576923 613.410577 35.044872 618.464423 37.512821 616.569231 39.980769 621.623077 42.448718 626.676923 44.916667 622.886538 47.384615 618.464423 49.852564 618.464423 52.320513 617.832692 54.788462 629.203846 57.256410 624.781731 59.724359 624.781731 62.192308 629.203846 64.660256 624.781731 67.128205 627.308654 69.596154 630.467308 72.064103 631.099038 74.532051 634.257692 77.000000 628.572115 79.467949 636.152885 81.935897 637.416346 84.403846 638.048077 86.871795 634.889423 89.339744 638.679808 91.807692 640.575000 94.275641 639.311538 96.743590 638.048077 99.211538 639.943269 101.679487 638.679808 104.147436 641.206731 106.615385 636.784615 109.083333 638.679808 111.551282 637.416346 114.019231 640.575000 116.487179 640.575000 118.955128 637.416346 121.423077 634.889423 123.891026 639.311538 126.358974 641.206731 128.826923 638.048077 131.294872 639.943269 133.762821 638.048077 136.230769 641.206731 138.698718 640.575000 141.166667 639.311538 143.634615 640.575000 146.102564 641.206731 148.570513 641.206731 151.038462 638.679808 153.506410 641.206731 155.974359 643.101923 158.442308 641.838462 160.910256 641.838462 163.378205 643.733654 165.846154 641.206731 168.314103 643.733654 170.782051 642.470192 173.250000 643.101923 175.717949 639.943269 178.185897 641.206731 180.653846 640.575000 183.121795 639.311538 185.589744 639.311538 188.057692 641.206731 190.525641 641.206731 192.993590 643.101923 195.461538 640.575000 197.929487 641.206731 200.397436 643.733654 202.865385 642.470192 205.333333 640.575000 207.801282 643.733654 210.269231 644.365385 212.737179 643.101923 215.205128 643.101923 217.673077 642.470192 220.141026 642.470192 222.608974 644.365385 225.076923 644.365385 227.544872 643.101923 230.012821 642.470192 232.480769 643.733654 234.948718 643.101923 237.416667 641.838462 239.884615 643.101923 242.352564 643.101923 244.820513 642.470192 247.288462 642.470192 249.756410 642.470192 252.224359 643.101923 254.692308 643.101923 257.160256 643.101923 259.628205 643.101923 262.096154 643.101923 264.564103 643.101923 267.032051 642.470192 269.500000 643.733654 271.967949 643.733654 274.435897 643.101923 276.903846 643.733654 279.371795 644.365385 281.839744 643.733654 284.307692 643.733654 286.775641 643.733654 289.243590 642.470192 291.711538 644.365385 294.179487 643.733654 296.647436 642.470192 299.115385 644.365385 301.583333 641.206731 304.051282 643.733654 306.519231 642.470192 308.987179 642.470192 311.455128 643.101923 313.923077 641.838462 316.391026 642.470192 318.858974 643.101923 321.326923 643.733654 323.794872 643.101923 326.262821 642.470192 328.730769 644.365385 331.198718 643.733654 333.666667 644.365385 336.134615 643.733654 338.602564 644.365385 341.070513 644.365385 343.538462 643.733654 346.006410 643.101923 348.474359 643.733654 350.942308 644.365385 353.410256 644.365385 355.878205 644.365385 358.346154 641.838462 360.814103 643.101923 363.282051 642.470192 365.750000 641.206731 368.217949 643.733654 370.685897 643.733654 373.153846 643.733654 375.621795 642.470192 378.089744 642.470192 380.557692 644.365385 383.025641 643.733654 385.493590 643.101923 387.961538 643.101923 390.429487 643.101923 392.897436 643.733654 395.365385 643.733654 397.833333 643.101923 400.301282 644.365385 402.769231 643.733654 405.237179 643.101923 407.705128 643.101923 410.173077 643.733654 412.641026 643.733654 415.108974 644.365385 417.576923 643.101923 420.044872 643.733654 422.512821 643.101923 424.980769 643.101923 427.448718 643.733654 429.916667 605.198077 432.384615 537.602885 434.852564 576.770192 437.320513 600.144231 439.788462 617.200962 442.256410 621.623077 444.724359 626.045192 447.192308 634.889423 449.660256 629.835577 452.128205 634.257692 454.596154 634.889423 457.064103 626.676923 459.532051 627.940385 462.000000 619.096154 464.467949 625.413462 466.935897 629.203846 469.403846 631.099038 471.871795 635.521154 474.339744 635.521154 476.807692 623.518269 479.275641 634.889423 481.743590 634.889423 484.211538 632.994231 486.679487 635.521154 489.147436 637.416346 491.615385 639.943269 494.083333 638.679808 496.551282 637.416346 499.019231 640.575000 501.487179 639.311538 503.955128 640.575000 506.423077 644.365385 508.891026 642.470192 511.358974 642.470192 513.826923 639.943269 516.294872 641.206731 518.762821 640.575000 521.230769 638.048077 523.698718 641.206731 526.166667 636.152885 528.634615 642.470192 531.102564 640.575000 533.570513 641.838462 536.038462 640.575000 538.506410 640.575000 540.974359 638.048077 543.442308 638.679808 545.910256 641.206731 548.378205 641.206731 550.846154 639.311538 553.314103 641.206731 555.782051 642.470192 558.250000 640.575000 560.717949 641.838462 563.185897 640.575000 565.653846 642.470192 568.121795 642.470192 570.589744 643.101923 573.057692 643.733654 575.525641 640.575000 577.993590 643.101923 580.461538 641.206731 582.929487 641.206731 585.397436 643.101923 587.865385 643.101923 590.333333 643.733654 592.801282 643.733654 595.269231 640.575000 597.737179 643.101923 600.205128 642.470192 602.673077 642.470192 605.141026 643.101923 607.608974 641.206731 610.076923 640.575000 612.544872 642.470192 615.012821 641.206731 617.480769 643.101923 619.948718 643.733654 622.416667 643.733654 624.884615 642.470192 627.352564 643.733654 629.820513 642.470192 632.288462 643.101923 634.756410 643.101923 637.224359 642.470192 639.692308 644.365385 642.160256 643.101923 644.628205 643.101923 647.096154 642.470192 649.564103 644.365385 652.032051 641.206731 654.500000 641.206731 656.967949 641.206731 659.435897 641.838462 661.903846 643.101923 664.371795 642.470192 666.839744 635.521154 669.307692 608.356731 671.775641 627.308654 674.243590 632.362500 676.711538 635.521154 679.179487 637.416346 681.647436 636.784615 684.115385 641.206731 686.583333 640.575000 689.051282 638.679808 691.519231 643.101923 693.987179 641.206731 696.455128 641.206731 698.923077 639.943269 701.391026 638.679808 703.858974 639.943269 706.326923 639.943269 708.794872 641.206731 711.262821 638.679808 713.730769 639.311538 716.198718 641.206731 718.666667 643.101923 721.134615 641.206731 723.602564 641.838462 726.070513 639.943269 728.538462 641.838462 731.006410 643.101923 733.474359 641.838462 735.942308 641.838462 738.410256 642.470192 740.878205 643.733654 743.346154 641.838462 745.814103 642.470192 748.282051 643.101923 750.750000 642.470192 753.217949 643.101923 755.685897 641.838462 758.153846 643.101923 760.621795 643.733654 763.089744 643.733654 765.557692 641.838462 768.025641 643.733654 770.493590 643.101923 772.961538 642.470192 775.429487 641.206731 777.897436 642.470192 780.365385 643.101923 782.833333 643.101923 785.301282 644.365385 787.769231 639.943269 790.237179 639.943269 792.705128 641.838462 795.173077 643.733654 797.641026 643.101923 800.108974 643.733654 802.576923 642.470192 805.044872 643.101923 807.512821 643.101923 809.980769 642.470192 812.448718 643.733654 814.916667 641.206731 817.384615 642.470192 819.852564 640.575000 822.320513 640.575000 824.788462 643.733654 827.256410 641.838462 829.724359 642.470192 832.192308 643.101923 834.660256 642.470192 837.128205 643.101923 839.596154 643.733654 842.064103 641.838462 844.532051 642.470192 847.000000 643.101923 849.467949 643.733654 851.935897 643.733654 854.403846 643.733654 856.871795 643.733654 859.339744 641.838462 861.807692 643.733654 864.275641 643.101923 866.743590 643.733654 869.211538 644.365385 871.679487 643.101923 874.147436 644.365385 876.615385 642.470192 879.083333 643.101923 881.551282 643.733654 884.019231 643.101923 886.487179 644.365385 888.955128 643.733654 891.423077 644.365385 893.891026 643.733654 896.358974 642.470192 898.826923 642.470192 901.294872 643.101923 903.762821 641.838462 906.230769 644.365385" /></g></g><g class="titles"><text class="title plot_title" x="512.0" y="26">Election math.stackexchange.com-5 Participation Per Hour</text><text class="title" transform="rotate(-90 0.000000 374.500000)" x="0" y="400.5">Users</text></g><g class="plot overlay" transform="translate(80, 46)"><g class="series serie-0 color-0" /><g class="series serie-1 color-1" /></g><g class="plot text-overlay" transform="translate(80, 46)"><g class="series serie-0 color-0" /><g class="series serie-1 color-1" /></g><g class="plot tooltip-overlay" transform="translate(80, 46)"><g class="tooltip" style="opacity: 0" transform="translate(0 0)"><a><rect class="tooltip-box" height="0" rx="0" ry="0" width="0" /><text class="text"><tspan class="label" /><tspan class="value" /></text></a></g></g><g class="legends" transform="translate(90, 713)"><g class="legend reactive activate-serie" id="activate-serie-0"><rect class="color-0 reactive" height="12" width="12" x="0.0" y="1.0" /><text x="17.0" y="11.2">constituents</text></g><g class="legend reactive activate-serie" id="activate-serie-1"><rect class="color-1 reactive" height="12" width="12" x="462.0" y="1.0" /><text x="479.0" y="11.2">caucus</text></g></g></g></svg>