<?xml version='1.0' encoding='utf-8'?>
<svg xmlns:xlink="http://www.w3.org/1999/xlink" class="pygal-chart" id="chart-5783d994-f450-449e-b595-ccab4d4295fa" viewBox="0 0 1024 768" xmlns="http://www.w3.org/2000/svg"><!--Generated with pygal 1.7.0 (etree) ©Kozea 2011-2014 on 2015-04-20--><!--http://pygal.org--><!--http://github.com/Kozea/pygal--><defs><style type="text/css">#chart-5783d994-f450-449e-b595-ccab4d4295fa .title{font-family:"monospace";font-size:16px}#chart-5783d994-f450-449e-b595-ccab4d4295fa .legends .legend text{font-family:"monospace";font-size:14px}#chart-5783d994-f450-449e-b595-ccab4d4295fa .axis text{font-family:"monospace";font-size:10px}#chart-5783d994-f450-449e-b595-ccab4d4295fa .axis text.major{font-family:"monospace";font-size:10px}#chart-5783d994-f450-449e-b595-ccab4d4295fa .series text{font-family:"monospace";font-size:8px}#chart-5783d994-f450-449e-b595-ccab4d4295fa .tooltip text{font-family:"monospace";font-size:16px}#chart-5783d994-f450-449e-b595-ccab4d4295fa text.no_data{font-size:64px}
#chart-5783d994-f450-449e-b595-ccab4d4295fa{background-color:black}#chart-5783d994-f450-449e-b595-ccab4d4295fa path,#chart-5783d994-f450-449e-b595-ccab4d4295fa line,#chart-5783d994-f450-449e-b595-ccab4d4295fa rect,#chart-5783d994-f450-449e-b595-ccab4d4295fa circle{-webkit-transition:250ms;-moz-transition:250ms;transition:250ms}#chart-5783d994-f450-449e-b595-ccab4d4295fa .graph &gt; .background{fill:black}#chart-5783d994-f450-449e-b595-ccab4d4295fa .plot &gt; .background{fill:#111}#chart-5783d994-f450-449e-b595-ccab4d4295fa .graph{fill:#999}#chart-5783d994-f450-449e-b595-ccab4d4295fa text.no_data{fill:#eee}#chart-5783d994-f450-449e-b595-ccab4d4295fa .title{fill:#eee}#chart-5783d994-f450-449e-b595-ccab4d4295fa .legends .legend text{fill:#999}#chart-5783d994-f450-449e-b595-ccab4d4295fa .legends .legend:hover text{fill:#eee}#chart-5783d994-f450-449e-b595-ccab4d4295fa .axis .line{stroke:#eee}#chart-5783d994-f450-449e-b595-ccab4d4295fa .axis .guide.line{stroke:#555}#chart-5783d994-f450-449e-b595-ccab4d4295fa .axis .major.line{stroke:#999}#chart-5783d994-f450-449e-b595-ccab4d4295fa .axis text.major{stroke:#eee;fill:#eee}#chart-5783d994-f450-449e-b595-ccab4d4295fa .axis.y .guides:hover .guide.line,#chart-5783d994-f450-449e-b595-ccab4d4295fa .line-graph .axis.x .guides:hover .guide.line,#chart-5783d994-f450-449e-b595-ccab4d4295fa .stackedline-graph .axis.x .guides:hover .guide.line,#chart-5783d994-f450-449e-b595-ccab4d4295fa .xy-graph .axis.x .guides:hover .guide.line{stroke:#eee}#chart-5783d994-f450-449e-b595-ccab4d4295fa .axis .guides:hover text{fill:#eee}#chart-5783d994-f450-449e-b595-ccab4d4295fa .reactive{fill-opacity:.8}#chart-5783d994-f450-449e-b595-ccab4d4295fa .reactive.active,#chart-5783d994-f450-449e-b595-ccab4d4295fa .active .reactive{fill-opacity:.4}#chart-5783d994-f450-449e-b595-ccab4d4295fa .series{stroke-width:1.0;stroke-linejoin:round;stroke-linecap:round;stroke-dasharray:0,0}#chart-5783d994-f450-449e-b595-ccab4d4295fa .series text{fill:#eee}#chart-5783d994-f450-449e-b595-ccab4d4295fa .tooltip rect{fill:#111;stroke:#eee}#chart-5783d994-f450-449e-b595-ccab4d4295fa .tooltip text{fill:#eee}#chart-5783d994-f450-449e-b595-ccab4d4295fa .map-element{fill:#999;stroke:#555 !important;opacity:.9;stroke-width:3;-webkit-transition:250ms;-moz-transition:250ms;-o-transition:250ms;transition:250ms}#chart-5783d994-f450-449e-b595-ccab4d4295fa .map-element:hover{opacity:1;stroke-width:10}#chart-5783d994-f450-449e-b595-ccab4d4295fa .color-0,#chart-5783d994-f450-449e-b595-ccab4d4295fa .color-0 a:visited{stroke:#ff5995;fill:#ff5995}#chart-5783d994-f450-449e-b595-ccab4d4295fa .color-1,#chart-5783d994-f450-449e-b595-ccab4d4295fa .color-1 a:visited{stroke:#b6e354;fill:#b6e354}#chart-5783d994-f450-449e-b595-ccab4d4295fa .color-2,#chart-5783d994-f450-449e-b595-ccab4d4295fa .color-2 a:visited{stroke:#feed6c;fill:#feed6c}#chart-5783d994-f450-449e-b595-ccab4d4295fa .color-3,#chart-5783d994-f450-449e-b595-ccab4d4295fa .color-3 a:visited{stroke:#8cedff;fill:#8cedff}#chart-5783d994-f450-449e-b595-ccab4d4295fa .color-4,#chart-5783d994-f450-449e-b595-ccab4d4295fa .color-4 a:visited{stroke:#9e6ffe;fill:#9e6ffe}#chart-5783d994-f450-449e-b595-ccab4d4295fa .color-5,#chart-5783d994-f450-449e-b595-ccab4d4295fa .color-5 a:visited{stroke:#899ca1;fill:#899ca1}#chart-5783d994-f450-449e-b595-ccab4d4295fa .color-6,#chart-5783d994-f450-449e-b595-ccab4d4295fa .color-6 a:visited{stroke:#f8f8f2;fill:#f8f8f2}#chart-5783d994-f450-449e-b595-ccab4d4295fa .color-7,#chart-5783d994-f450-449e-b595-ccab4d4295fa .color-7 a:visited{stroke:#bf4646;fill:#bf4646}#chart-5783d994-f450-449e-b595-ccab4d4295fa .color-8,#chart-5783d994-f450-449e-b595-ccab4d4295fa .color-8 a:visited{stroke:#516083;fill:#516083}#chart-5783d994-f450-449e-b595-ccab4d4295fa .color-9,#chart-5783d994-f450-449e-b595-ccab4d4295fa .color-9 a:visited{stroke:#f92672;fill:#f92672}#chart-5783d994-f450-449e-b595-ccab4d4295fa .color-10,#chart-5783d994-f450-449e-b595-ccab4d4295fa .color-10 a:visited{stroke:#82b414;fill:#82b414}#chart-5783d994-f450-449e-b595-ccab4d4295fa .color-11,#chart-5783d994-f450-449e-b595-ccab4d4295fa .color-11 a:visited{stroke:#fd971f;fill:#fd971f}#chart-5783d994-f450-449e-b595-ccab4d4295fa .color-12,#chart-5783d994-f450-449e-b595-ccab4d4295fa .color-12 a:visited{stroke:#56c2d6;fill:#56c2d6}#chart-5783d994-f450-449e-b595-ccab4d4295fa .color-13,#chart-5783d994-f450-449e-b595-ccab4d4295fa .color-13 a:visited{stroke:#808384;fill:#808384}#chart-5783d994-f450-449e-b595-ccab4d4295fa .color-14,#chart-5783d994-f450-449e-b595-ccab4d4295fa .color-14 a:visited{stroke:#8c54fe;fill:#8c54fe}#chart-5783d994-f450-449e-b595-ccab4d4295fa .color-15,#chart-5783d994-f450-449e-b595-ccab4d4295fa .color-15 a:visited{stroke:#465457;fill:#465457}
#chart-5783d994-f450-449e-b595-ccab4d4295fa text.no_data{text-anchor:middle}#chart-5783d994-f450-449e-b595-ccab4d4295fa .guide.line{fill-opacity:0}#chart-5783d994-f450-449e-b595-ccab4d4295fa .centered{text-anchor:middle}#chart-5783d994-f450-449e-b595-ccab4d4295fa .title{text-anchor:middle}#chart-5783d994-f450-449e-b595-ccab4d4295fa .legends .legend text{fill-opacity:1}#chart-5783d994-f450-449e-b595-ccab4d4295fa .axis.x text{text-anchor:middle}#chart-5783d994-f450-449e-b595-ccab4d4295fa .axis.x:not(.web) text[transform]{text-anchor:start}#chart-5783d994-f450-449e-b595-ccab4d4295fa .axis.y text{text-anchor:end}#chart-5783d994-f450-449e-b595-ccab4d4295fa .axis.y2 text{text-anchor:start}#chart-5783d994-f450-449e-b595-ccab4d4295fa .axis.y .logarithmic text:not(.major),#chart-5783d994-f450-449e-b595-ccab4d4295fa .axis.y2 .logarithmic text:not(.major){font-size:50%}#chart-5783d994-f450-449e-b595-ccab4d4295fa .axis .guide.line{stroke-dasharray:4,4}#chart-5783d994-f450-449e-b595-ccab4d4295fa .axis .major.guide.line{stroke-dasharray:6,6}#chart-5783d994-f450-449e-b595-ccab4d4295fa .axis text.major{stroke-width:0.5px}#chart-5783d994-f450-449e-b595-ccab4d4295fa .horizontal .axis.y .guide.line,#chart-5783d994-f450-449e-b595-ccab4d4295fa .horizontal .axis.y2 .guide.line,#chart-5783d994-f450-449e-b595-ccab4d4295fa .vertical .axis.x .guide.line{opacity:0}#chart-5783d994-f450-449e-b595-ccab4d4295fa .horizontal .axis.always_show .guide.line,#chart-5783d994-f450-449e-b595-ccab4d4295fa .vertical .axis.always_show .guide.line{opacity:1 !important}#chart-5783d994-f450-449e-b595-ccab4d4295fa .axis.y .guides:hover .guide.line,#chart-5783d994-f450-449e-b595-ccab4d4295fa .axis.y2 .guides:hover .guide.line,#chart-5783d994-f450-449e-b595-ccab4d4295fa .axis.x .guides:hover .guide.line{opacity:1}#chart-5783d994-f450-449e-b595-ccab4d4295fa .axis .guides:hover text{opacity:1}#chart-5783d994-f450-449e-b595-ccab4d4295fa .nofill{fill:none}#chart-5783d994-f450-449e-b595-ccab4d4295fa .subtle-fill{fill-opacity:.2}#chart-5783d994-f450-449e-b595-ccab4d4295fa .dot{stroke-width:1px;fill-opacity:1}#chart-5783d994-f450-449e-b595-ccab4d4295fa .dot.active{stroke-width:5px}#chart-5783d994-f450-449e-b595-ccab4d4295fa .series text{stroke:none}#chart-5783d994-f450-449e-b595-ccab4d4295fa .series text.active{opacity:1}#chart-5783d994-f450-449e-b595-ccab4d4295fa .tooltip rect{fill-opacity:0.8}#chart-5783d994-f450-449e-b595-ccab4d4295fa .tooltip text{fill-opacity:1}#chart-5783d994-f450-449e-b595-ccab4d4295fa .tooltip text tspan.label{fill-opacity:.8}</style><script type="text/javascript">window.config = {"title_font_size": 16, "x_labels_major_count": null, "major_label_font_size": 10, "show_minor_y_labels": true, "css": ["style.css", "graph.css"], "mode": null, "tooltip_border_radius": 0, "margin_left": null, "order_min": null, "show_only_major_dots": false, "margin_bottom": null, "inner_radius": 0, "y_labels_major_count": null, "margin_top": null, "label_font_size": 10, "x_title": null, "range": null, "truncate_label": null, "include_x_axis": false, "x_labels": null, "interpolation_parameters": {}, "spacing": 10, "logarithmic": false, "stroke": true, "interpolate": null, "x_label_rotation": 0, "width": 1024, "style": {"stroke_dasharray": "0,0", "opacity_hover": ".4", "opacity": ".8", "stroke_width": 1.0, "foreground": "#999", "background": "black", "font_family": "monospace", "colors": ["#ff5995", "#b6e354", "#feed6c", "#8cedff", "#9e6ffe", "#899ca1", "#f8f8f2", "#bf4646", "#516083", "#f92672", "#82b414", "#fd971f", "#56c2d6", "#808384", "#8c54fe", "#465457"], "foreground_dark": "#555", "foreground_light": "#eee", "transition": "250ms", "plot_background": "#111", "stroke_style": "round"}, "stack_from_top": false, "x_labels_major": null, "no_data_font_size": 64, "y_label_rotation": 0, "xrange": null, "dots_size": 2.5, "show_minor_x_labels": true, "height": 768, "margin_right": null, "margin": 20, "show_y_guides": true, "no_data_text": "No data", "pretty_print": false, "js": ["http://kozea.github.io/pygal.js/javascripts/svg.jquery.js", "http://kozea.github.io/pygal.js/javascripts/pygal-tooltips.js"], "zero": 0, "y_labels_major_every": null, "show_x_guides": false, "truncate_legend": null, "show_x_labels": true, "rounded_bars": null, "y_title": "Users", "legend_at_bottom": true, "explicit_size": false, "interpolation_precision": 250, "value_font_size": 8, "x_label_format": "%Y-%m-%d %H:%M:%S.%f", "x_labels_major_every": null, "no_prefix": false, "half_pie": false, "y_labels": null, "print_values": false, "x_value_formatter": null, "missing_value_fill_truncation": "x", "show_y_labels": true, "y_labels_major": null, "strict": false, "disable_xml_declaration": false, "title": "Election 6 Participation", "human_readable": false, "fill": false, "legend_at_bottom_columns": null, "tooltip_font_size": 16, "print_zeroes": false, "show_legend": true, "legend_box_size": 12, "show_dots": false, "legend_font_size": 14}</script><script type="text/javascript" xlink:href="http://kozea.github.io/pygal.js/javascripts/svg.jquery.js" /><script type="text/javascript" xlink:href="http://kozea.github.io/pygal.js/javascripts/pygal-tooltips.js" /></defs><title>Election 6 Participation</title><g class="graph line-graph vertical"><rect class="background" height="768" width="1024" x="0" y="0" /><g class="plot" transform="translate(86, 46)"><rect class="background" height="657.0" width="918.0" x="0" y="0" /><g class="axis y"><g class="guides"><path class="axis major line" d="M0.000000 644.365385 h918.000000" /><text class="major" x="-5" y="647.8653846153846">0</text></g><g class="guides"><path class="guide line" d="M0.000000 561.977898 h918.000000" /><text class="" x="-5" y="565.4778980832933">10000</text></g><g class="guides"><path class="guide line" d="M0.000000 479.590412 h918.000000" /><text class="" x="-5" y="483.0904115512021">20000</text></g><g class="guides"><path class="guide line" d="M0.000000 397.202925 h918.000000" /><text class="" x="-5" y="400.70292501911086">30000</text></g><g class="guides"><path class="guide line" d="M0.000000 314.815438 h918.000000" /><text class="" x="-5" y="318.31543848701966">40000</text></g><g class="guides"><path class="major guide line" d="M0.000000 232.427952 h918.000000" /><text class="major" x="-5" y="235.92795195492835">50000</text></g><g class="guides"><path class="guide line" d="M0.000000 150.040465 h918.000000" /><text class="" x="-5" y="153.5404654228371">60000</text></g><g class="guides"><path class="guide line" d="M0.000000 67.652979 h918.000000" /><text class="" x="-5" y="71.15297889074589">70000</text></g></g><g class="series serie-0 color-0"><path class="line reactive nofill" d="M17.653846 644.365385 L20.280907 644.365385 22.907967 644.365385 25.535027 644.365385 28.162088 644.365385 30.789148 644.365385 33.416209 644.365385 36.043269 644.365385 38.670330 644.365385 41.297390 644.365385 43.924451 644.365385 46.551511 644.365385 49.178571 644.365385 51.805632 644.365385 54.432692 644.365385 57.059753 644.365385 59.686813 644.365385 62.313874 644.365385 64.940934 644.365385 67.567995 644.365385 70.195055 644.365385 72.822115 644.365385 75.449176 644.365385 78.076236 644.365385 80.703297 644.365385 83.330357 644.365385 85.957418 644.365385 88.584478 644.365385 91.211538 644.365385 93.838599 644.365385 96.465659 644.365385 99.092720 644.365385 101.719780 644.365385 104.346841 644.365385 106.973901 644.365385 109.600962 644.365385 112.228022 644.365385 114.855082 644.365385 117.482143 644.365385 120.109203 644.365385 122.736264 644.365385 125.363324 644.365385 127.990385 644.365385 130.617445 644.365385 133.244505 644.365385 135.871566 644.365385 138.498626 644.365385 141.125687 644.365385 143.752747 644.365385 146.379808 644.365385 149.006868 644.365385 151.633929 644.365385 154.260989 644.365385 156.888049 644.365385 159.515110 644.365385 162.142170 644.365385 164.769231 644.365385 167.396291 644.365385 170.023352 644.365385 172.650412 644.365385 175.277473 644.365385 177.904533 644.365385 180.531593 644.365385 183.158654 644.365385 185.785714 644.365385 188.412775 644.365385 191.039835 644.365385 193.666896 644.365385 196.293956 644.365385 198.921016 644.365385 201.548077 644.365385 204.175137 644.365385 206.802198 644.365385 209.429258 644.365385 212.056319 644.365385 214.683379 644.365385 217.310440 644.365385 219.937500 644.365385 222.564560 644.365385 225.191621 644.365385 227.818681 644.365385 230.445742 644.365385 233.072802 644.365385 235.699863 644.365385 238.326923 644.365385 240.953984 644.365385 243.581044 644.365385 246.208104 644.365385 248.835165 644.365385 251.462225 644.365385 254.089286 644.365385 256.716346 644.365385 259.343407 644.365385 261.970467 644.365385 264.597527 644.365385 267.224588 644.365385 269.851648 644.365385 272.478709 644.365385 275.105769 644.365385 277.732830 644.365385 280.359890 644.365385 282.986951 644.365385 285.614011 644.365385 288.241071 644.365385 290.868132 644.365385 293.495192 644.365385 296.122253 644.365385 298.749313 644.365385 301.376374 644.365385 304.003434 644.365385 306.630495 644.365385 309.257555 644.365385 311.884615 644.365385 314.511676 644.365385 317.138736 644.365385 319.765797 644.365385 322.392857 644.365385 325.019918 644.365385 327.646978 644.365385 330.274038 644.365385 332.901099 644.365385 335.528159 644.365385 338.155220 644.365385 340.782280 644.365385 343.409341 644.365385 346.036401 644.365385 348.663462 644.365385 351.290522 644.365385 353.917582 644.365385 356.544643 644.365385 359.171703 644.365385 361.798764 644.365385 364.425824 644.365385 367.052885 644.365385 369.679945 644.365385 372.307005 644.365385 374.934066 644.365385 377.561126 644.365385 380.188187 644.365385 382.815247 644.365385 385.442308 644.365385 388.069368 644.365385 390.696429 644.365385 393.323489 644.365385 395.950549 644.365385 398.577610 644.365385 401.204670 644.365385 403.831731 644.365385 406.458791 644.365385 409.085852 644.365385 411.712912 644.365385 414.339973 644.365385 416.967033 644.365385 419.594093 644.365385 422.221154 644.365385 424.848214 644.365385 427.475275 644.365385 430.102335 644.365385 432.729396 644.365385 435.356456 644.365385 437.983516 644.365385 440.610577 644.365385 443.237637 644.365385 445.864698 644.365385 448.491758 644.365385 451.118819 644.365385 453.745879 644.365385 456.372940 644.365385 459.000000 644.365385 461.627060 644.365385 464.254121 644.365385 466.881181 644.365385 469.508242 644.365385 472.135302 644.365385 474.762363 644.365385 477.389423 644.365385 480.016484 644.365385 482.643544 644.365385 485.270604 644.365385 487.897665 644.365385 490.524725 644.365385 493.151786 644.365385 495.778846 644.365385 498.405907 644.365385 501.032967 644.365385 503.660027 644.365385 506.287088 644.365385 508.914148 644.365385 511.541209 644.365385 514.168269 644.365385 516.795330 644.365385 519.422390 644.365385 522.049451 644.365385 524.676511 644.365385 527.303571 644.365385 529.930632 644.365385 532.557692 644.365385 535.184753 644.365385 537.811813 644.365385 540.438874 644.365385 543.065934 644.365385 545.692995 644.365385 548.320055 644.365385 550.947115 644.365385 553.574176 644.365385 556.201236 644.365385 558.828297 644.365385 561.455357 644.365385 564.082418 644.365385 566.709478 644.365385 569.336538 644.365385 571.963599 644.365385 574.590659 644.365385 577.217720 644.365385 579.844780 644.365385 582.471841 644.365385 585.098901 644.365385 587.725962 644.365385 590.353022 644.365385 592.980082 644.365385 595.607143 644.365385 598.234203 644.365385 600.861264 644.365385 603.488324 644.365385 606.115385 644.365385 608.742445 644.365385 611.369505 644.365385 613.996566 644.365385 616.623626 644.365385 619.250687 644.365385 621.877747 644.365385 624.504808 644.365385 627.131868 644.365385 629.758929 644.365385 632.385989 644.365385 635.013049 644.365385 637.640110 644.365385 640.267170 644.365385 642.894231 644.365385 645.521291 644.365385 648.148352 644.365385 650.775412 644.365385 653.402473 644.365385 656.029533 644.365385 658.656593 644.365385 661.283654 644.365385 663.910714 644.365385 666.537775 644.365385 669.164835 644.365385 671.791896 644.365385 674.418956 644.365385 677.046016 644.365385 679.673077 644.365385 682.300137 644.365385 684.927198 644.365385 687.554258 644.365385 690.181319 644.365385 692.808379 644.365385 695.435440 644.365385 698.062500 644.365385 700.689560 644.365385 703.316621 644.365385 705.943681 644.365385 708.570742 644.365385 711.197802 617.968434 713.824863 605.816280 716.451923 599.076983 719.078984 595.089429 721.706044 591.983421 724.333104 589.239917 726.960165 586.768293 729.587225 583.909447 732.214286 580.111384 734.841346 576.387469 737.468407 572.704749 740.095467 568.478271 742.722527 564.762595 745.349588 560.552595 747.976648 556.738054 750.603709 553.656762 753.230769 550.707290 755.857830 547.815489 758.484890 545.063747 761.111951 542.534451 763.739011 540.367660 766.366071 537.896036 768.993132 535.992885 771.620192 533.751945 774.247253 532.219538 776.874313 530.959009 779.501374 529.978598 782.128434 529.146485 784.755495 528.545056 787.382555 527.885956 790.009615 527.276289 792.636676 526.724293 795.263736 526.131103 797.890797 525.266034 800.517857 524.063177 803.144918 522.959184 805.771978 521.509165 808.399038 520.339262 811.026099 518.946914 813.653159 517.562804 816.280220 516.343469 818.907280 515.091179 821.534341 514.069575 824.161401 512.776091 826.788462 511.515563 829.415522 510.296228 832.042582 509.101609 834.669643 507.981139 837.296703 507.008967 839.923764 505.987362 842.550824 505.237636 845.177885 504.306658 847.804945 503.408634 850.432005 502.387029 853.059066 501.283037 855.686126 500.080179 858.313187 497.707420 860.940247 494.362488 863.567308 489.674640 866.194368 483.569727 868.821429 477.983856 871.448489 472.735773 874.075549 469.324931 876.702610 466.317787 879.329670 462.668022 881.956731 458.902914 884.583791 455.360252 887.210852 452.641465 889.837912 450.738314 892.464973 449.378920 895.092033 447.879468 897.719093 446.462403 900.346154 445.383127" /></g><g class="series serie-1 color-1"><path class="line reactive nofill" d="M17.653846 627.830216 L20.280907 621.642916 22.907967 618.190880 25.535027 615.892269 28.162088 613.725478 30.789148 612.283697 33.416209 610.833678 36.043269 609.144734 38.670330 606.623677 41.297390 603.377610 43.924451 599.983246 46.551511 595.336591 49.178571 591.085397 51.805632 588.193596 54.432692 585.532480 57.059753 583.324496 59.686813 581.034124 62.313874 578.793184 64.940934 576.535767 67.567995 574.566706 70.195055 573.017821 72.822115 571.641950 75.449176 570.422615 78.076236 569.269191 80.703297 568.362928 83.330357 567.250697 85.957418 566.723417 88.584478 566.344435 91.211538 565.883065 93.838599 565.446411 96.465659 565.158055 99.092720 564.886176 101.719780 564.334180 104.346841 563.691558 106.973901 562.991264 109.600962 562.043808 112.228022 561.096352 114.855082 560.165373 117.482143 559.283827 120.109203 558.550579 122.736264 557.710226 125.363324 556.845158 127.990385 556.095432 130.617445 555.444570 133.244505 554.900813 135.871566 554.249952 138.498626 553.665001 141.125687 553.178915 143.752747 552.684590 146.379808 552.289130 149.006868 551.901908 151.633929 551.753611 154.260989 551.580597 156.888049 551.399345 159.515110 551.168660 162.142170 550.987407 164.769231 550.641380 167.396291 550.204726 170.023352 549.833983 172.650412 549.257270 175.277473 548.672319 177.904533 548.177994 180.531593 547.675430 183.158654 547.098718 185.785714 546.612632 188.412775 546.011203 191.039835 545.393297 193.666896 544.808346 196.293956 544.355215 198.921016 544.042142 201.548077 543.679637 204.175137 543.300655 206.802198 542.831046 209.429258 542.534451 212.056319 542.344960 214.683379 542.163708 217.310440 542.040126 219.937500 541.900068 222.564560 541.743531 225.191621 541.628189 227.818681 541.381026 230.445742 541.092670 233.072802 540.721927 235.699863 540.392377 238.326923 540.046349 240.953984 539.601457 243.581044 539.164803 246.208104 538.818776 248.835165 538.398599 251.462225 538.011378 254.089286 537.599441 256.716346 537.278130 259.343407 537.063922 261.970467 536.808521 264.597527 536.577836 267.224588 536.363629 269.851648 536.075272 272.478709 535.902259 275.105769 535.753961 277.732830 535.638619 280.359890 535.498560 282.986951 535.391456 285.614011 535.325546 288.241071 535.259636 290.868132 535.127816 293.495192 535.053667 296.122253 534.913609 298.749313 534.773550 301.376374 534.691163 304.003434 534.592298 306.630495 534.518149 309.257555 534.345135 311.884615 534.188599 314.511676 534.089734 317.138736 533.892004 319.765797 533.727229 322.392857 533.578931 325.019918 533.405918 327.646978 533.191710 330.274038 533.059890 332.901099 532.961025 335.528159 532.886877 338.155220 532.730340 340.782280 532.614998 343.409341 532.524372 346.036401 532.417268 348.663462 532.326642 351.290522 532.260732 353.917582 532.145389 356.544643 532.038285 359.171703 531.931182 361.798764 531.840556 364.425824 531.758168 367.052885 531.568677 369.679945 531.428618 372.307005 531.263843 374.934066 531.123784 377.561126 530.991964 380.188187 530.860144 382.815247 530.720086 385.442308 530.621221 388.069368 530.497639 390.696429 530.357581 393.323489 530.159851 395.950549 530.019792 398.577610 529.863256 401.204670 529.772630 403.831731 529.682003 406.458791 529.591377 409.085852 529.484273 411.712912 529.335976 414.339973 529.261827 416.967033 529.154723 419.594093 528.948755 422.221154 528.742786 424.848214 528.355565 427.475275 527.927150 430.102335 527.432825 432.729396 527.037365 435.356456 526.584234 437.983516 526.180535 440.610577 525.579107 443.237637 525.093020 445.864698 524.829380 448.491758 524.532785 451.118819 524.211474 453.745879 523.865447 456.372940 523.494703 459.000000 482.465735 461.627060 462.972856 464.254121 452.435496 466.881181 444.658117 469.508242 437.984731 472.135302 432.390621 474.762363 426.079739 477.389423 419.908916 480.016484 410.969874 482.643544 397.944412 485.270604 380.799576 487.897665 358.975131 490.524725 340.223739 493.151786 323.705048 495.778846 310.951465 498.405907 299.730290 501.032967 288.253713 503.660027 277.427997 506.287088 267.096606 508.914148 258.775470 511.541209 252.439872 514.168269 246.936388 516.795330 241.844842 519.422390 237.222904 522.049451 233.309498 524.676511 229.865701 527.303571 227.575329 529.930632 226.108832 532.557692 224.897736 535.184753 223.563058 537.811813 222.294291 540.438874 220.704213 543.065934 218.570377 545.692995 215.785680 548.320055 212.053527 550.947115 207.827048 553.574176 203.592332 556.201236 199.143407 558.828297 195.197047 561.455357 191.382506 564.082418 187.576204 566.709478 183.679276 569.336538 179.675244 571.963599 176.503326 574.590659 173.504422 577.217720 171.181094 579.844780 168.783619 582.471841 166.682738 585.098901 164.614812 587.725962 163.205986 590.353022 161.978412 592.980082 160.989762 595.607143 160.272991 598.234203 159.333774 600.861264 158.617003 603.488324 157.702502 606.115385 156.614987 608.742445 155.486278 611.369505 153.443069 613.996566 151.358665 616.623626 149.233068 619.250687 146.852070 621.877747 144.701756 624.504808 142.666785 627.131868 140.252832 629.758929 138.061325 632.385989 135.985160 635.013049 134.452753 637.640110 132.664945 640.267170 131.091344 642.894231 129.921441 645.521291 128.759778 648.148352 127.532204 650.775412 126.527077 653.402473 125.826783 656.029533 125.291264 658.656593 124.805178 661.283654 124.417957 663.910714 123.907155 666.537775 123.379875 669.164835 122.794924 671.791896 122.053436 674.418956 121.204845 677.046016 120.191479 679.673077 118.865041 682.300137 117.513886 684.927198 116.459326 687.554258 115.454199 690.181319 114.012418 692.808379 112.603592 695.435440 111.104139 698.062500 110.008386 700.689560 109.217466 703.316621 108.245294 705.943681 107.306076 708.570742 106.548111 711.197802 97.996290 713.824863 93.415546 716.451923 90.507268 719.078984 88.653549 721.706044 87.475408 724.333104 86.429087 726.960165 85.621690 729.587225 84.665995 732.214286 83.479615 734.841346 82.120222 737.468407 80.752589 740.095467 79.220182 742.722527 77.901982 745.349588 76.188322 747.976648 74.787735 750.603709 73.601355 753.230769 72.068948 755.857830 70.816658 758.484890 69.531414 761.111951 68.262646 763.739011 67.257519 766.366071 66.120572 768.993132 65.164877 771.620192 63.945542 774.247253 63.055757 776.874313 62.240121 779.501374 61.729319 782.128434 61.119651 784.755495 60.748908 787.382555 60.369925 790.009615 60.073330 792.636676 59.743780 795.263736 59.405991 797.890797 59.010532 800.517857 58.450297 803.144918 57.857107 805.771978 56.959083 808.399038 56.110492 811.026099 55.253662 813.653159 54.652234 816.280220 53.828359 818.907280 53.144543 821.534341 52.501920 824.161401 51.669807 826.788462 50.928319 829.415522 50.129161 832.042582 49.577164 834.669643 48.959258 837.296703 48.250726 839.923764 47.649297 842.550824 47.229121 845.177885 46.767751 847.804945 46.314620 850.432005 45.688475 853.059066 45.120001 855.686126 44.436185 858.313187 43.472252 860.940247 42.038709 863.567308 39.987261 866.194368 37.490920 868.821429 34.607358 871.448489 31.526066 874.075549 29.491095 876.702610 27.505557 879.329670 25.190468 881.956731 22.858902 884.583791 20.634440 887.210852 18.690096 889.837912 17.371896 892.464973 16.136084 895.092033 14.916749 897.719093 13.631504 900.346154 12.634615" /></g></g><g class="titles"><text class="title plot_title" x="512.0" y="26">Election 6 Participation</text><text class="title" transform="rotate(-90 0.000000 374.500000)" x="0" y="400.5">Users</text></g><g class="plot overlay" transform="translate(86, 46)"><g class="series serie-0 color-0" /><g class="series serie-1 color-1" /></g><g class="plot text-overlay" transform="translate(86, 46)"><g class="series serie-0 color-0" /><g class="series serie-1 color-1" /></g><g class="plot tooltip-overlay" transform="translate(86, 46)"><g class="tooltip" style="opacity: 0" transform="translate(0 0)"><a><rect class="tooltip-box" height="0" rx="0" ry="0" width="0" /><text class="text"><tspan class="label" /><tspan class="value" /></text></a></g></g><g class="legends" transform="translate(96, 713)"><g class="legend reactive activate-serie" id="activate-serie-0"><rect class="color-0 reactive" height="12" width="12" x="0.0" y="1.0" /><text x="17.0" y="11.2">constituents</text></g><g class="legend reactive activate-serie" id="activate-serie-1"><rect class="color-1 reactive" height="12" width="12" x="459.0" y="1.0" /><text x="476.0" y="11.2">caucus</text></g></g></g></svg>