<?xml version='1.0' encoding='utf-8'?>
<svg xmlns:xlink="http://www.w3.org/1999/xlink" class="pygal-chart" id="chart-d6380432-b8ed-4400-a042-2126816a2aba" viewBox="0 0 1024 768" xmlns="http://www.w3.org/2000/svg"><!--Generated with pygal 1.7.0 (etree) ©Kozea 2011-2014 on 2015-04-20--><!--http://pygal.org--><!--http://github.com/Kozea/pygal--><defs><style type="text/css">#chart-d6380432-b8ed-4400-a042-2126816a2aba .title{font-family:"monospace";font-size:16px}#chart-d6380432-b8ed-4400-a042-2126816a2aba .legends .legend text{font-family:"monospace";font-size:14px}#chart-d6380432-b8ed-4400-a042-2126816a2aba .axis text{font-family:"monospace";font-size:10px}#chart-d6380432-b8ed-4400-a042-2126816a2aba .axis text.major{font-family:"monospace";font-size:10px}#chart-d6380432-b8ed-4400-a042-2126816a2aba .series text{font-family:"monospace";font-size:8px}#chart-d6380432-b8ed-4400-a042-2126816a2aba .tooltip text{font-family:"monospace";font-size:16px}#chart-d6380432-b8ed-4400-a042-2126816a2aba text.no_data{font-size:64px}
#chart-d6380432-b8ed-4400-a042-2126816a2aba{background-color:black}#chart-d6380432-b8ed-4400-a042-2126816a2aba path,#chart-d6380432-b8ed-4400-a042-2126816a2aba line,#chart-d6380432-b8ed-4400-a042-2126816a2aba rect,#chart-d6380432-b8ed-4400-a042-2126816a2aba circle{-webkit-transition:250ms;-moz-transition:250ms;transition:250ms}#chart-d6380432-b8ed-4400-a042-2126816a2aba .graph &gt; .background{fill:black}#chart-d6380432-b8ed-4400-a042-2126816a2aba .plot &gt; .background{fill:#111}#chart-d6380432-b8ed-4400-a042-2126816a2aba .graph{fill:#999}#chart-d6380432-b8ed-4400-a042-2126816a2aba text.no_data{fill:#eee}#chart-d6380432-b8ed-4400-a042-2126816a2aba .title{fill:#eee}#chart-d6380432-b8ed-4400-a042-2126816a2aba .legends .legend text{fill:#999}#chart-d6380432-b8ed-4400-a042-2126816a2aba .legends .legend:hover text{fill:#eee}#chart-d6380432-b8ed-4400-a042-2126816a2aba .axis .line{stroke:#eee}#chart-d6380432-b8ed-4400-a042-2126816a2aba .axis .guide.line{stroke:#555}#chart-d6380432-b8ed-4400-a042-2126816a2aba .axis .major.line{stroke:#999}#chart-d6380432-b8ed-4400-a042-2126816a2aba .axis text.major{stroke:#eee;fill:#eee}#chart-d6380432-b8ed-4400-a042-2126816a2aba .axis.y .guides:hover .guide.line,#chart-d6380432-b8ed-4400-a042-2126816a2aba .line-graph .axis.x .guides:hover .guide.line,#chart-d6380432-b8ed-4400-a042-2126816a2aba .stackedline-graph .axis.x .guides:hover .guide.line,#chart-d6380432-b8ed-4400-a042-2126816a2aba .xy-graph .axis.x .guides:hover .guide.line{stroke:#eee}#chart-d6380432-b8ed-4400-a042-2126816a2aba .axis .guides:hover text{fill:#eee}#chart-d6380432-b8ed-4400-a042-2126816a2aba .reactive{fill-opacity:.8}#chart-d6380432-b8ed-4400-a042-2126816a2aba .reactive.active,#chart-d6380432-b8ed-4400-a042-2126816a2aba .active .reactive{fill-opacity:.4}#chart-d6380432-b8ed-4400-a042-2126816a2aba .series{stroke-width:1.0;stroke-linejoin:round;stroke-linecap:round;stroke-dasharray:0,0}#chart-d6380432-b8ed-4400-a042-2126816a2aba .series text{fill:#eee}#chart-d6380432-b8ed-4400-a042-2126816a2aba .tooltip rect{fill:#111;stroke:#eee}#chart-d6380432-b8ed-4400-a042-2126816a2aba .tooltip text{fill:#eee}#chart-d6380432-b8ed-4400-a042-2126816a2aba .map-element{fill:#999;stroke:#555 !important;opacity:.9;stroke-width:3;-webkit-transition:250ms;-moz-transition:250ms;-o-transition:250ms;transition:250ms}#chart-d6380432-b8ed-4400-a042-2126816a2aba .map-element:hover{opacity:1;stroke-width:10}#chart-d6380432-b8ed-4400-a042-2126816a2aba .color-0,#chart-d6380432-b8ed-4400-a042-2126816a2aba .color-0 a:visited{stroke:#ff5995;fill:#ff5995}#chart-d6380432-b8ed-4400-a042-2126816a2aba .color-1,#chart-d6380432-b8ed-4400-a042-2126816a2aba .color-1 a:visited{stroke:#b6e354;fill:#b6e354}#chart-d6380432-b8ed-4400-a042-2126816a2aba .color-2,#chart-d6380432-b8ed-4400-a042-2126816a2aba .color-2 a:visited{stroke:#feed6c;fill:#feed6c}#chart-d6380432-b8ed-4400-a042-2126816a2aba .color-3,#chart-d6380432-b8ed-4400-a042-2126816a2aba .color-3 a:visited{stroke:#8cedff;fill:#8cedff}#chart-d6380432-b8ed-4400-a042-2126816a2aba .color-4,#chart-d6380432-b8ed-4400-a042-2126816a2aba .color-4 a:visited{stroke:#9e6ffe;fill:#9e6ffe}#chart-d6380432-b8ed-4400-a042-2126816a2aba .color-5,#chart-d6380432-b8ed-4400-a042-2126816a2aba .color-5 a:visited{stroke:#899ca1;fill:#899ca1}#chart-d6380432-b8ed-4400-a042-2126816a2aba .color-6,#chart-d6380432-b8ed-4400-a042-2126816a2aba .color-6 a:visited{stroke:#f8f8f2;fill:#f8f8f2}#chart-d6380432-b8ed-4400-a042-2126816a2aba .color-7,#chart-d6380432-b8ed-4400-a042-2126816a2aba .color-7 a:visited{stroke:#bf4646;fill:#bf4646}#chart-d6380432-b8ed-4400-a042-2126816a2aba .color-8,#chart-d6380432-b8ed-4400-a042-2126816a2aba .color-8 a:visited{stroke:#516083;fill:#516083}#chart-d6380432-b8ed-4400-a042-2126816a2aba .color-9,#chart-d6380432-b8ed-4400-a042-2126816a2aba .color-9 a:visited{stroke:#f92672;fill:#f92672}#chart-d6380432-b8ed-4400-a042-2126816a2aba .color-10,#chart-d6380432-b8ed-4400-a042-2126816a2aba .color-10 a:visited{stroke:#82b414;fill:#82b414}#chart-d6380432-b8ed-4400-a042-2126816a2aba .color-11,#chart-d6380432-b8ed-4400-a042-2126816a2aba .color-11 a:visited{stroke:#fd971f;fill:#fd971f}#chart-d6380432-b8ed-4400-a042-2126816a2aba .color-12,#chart-d6380432-b8ed-4400-a042-2126816a2aba .color-12 a:visited{stroke:#56c2d6;fill:#56c2d6}#chart-d6380432-b8ed-4400-a042-2126816a2aba .color-13,#chart-d6380432-b8ed-4400-a042-2126816a2aba .color-13 a:visited{stroke:#808384;fill:#808384}#chart-d6380432-b8ed-4400-a042-2126816a2aba .color-14,#chart-d6380432-b8ed-4400-a042-2126816a2aba .color-14 a:visited{stroke:#8c54fe;fill:#8c54fe}#chart-d6380432-b8ed-4400-a042-2126816a2aba .color-15,#chart-d6380432-b8ed-4400-a042-2126816a2aba .color-15 a:visited{stroke:#465457;fill:#465457}
#chart-d6380432-b8ed-4400-a042-2126816a2aba text.no_data{text-anchor:middle}#chart-d6380432-b8ed-4400-a042-2126816a2aba .guide.line{fill-opacity:0}#chart-d6380432-b8ed-4400-a042-2126816a2aba .centered{text-anchor:middle}#chart-d6380432-b8ed-4400-a042-2126816a2aba .title{text-anchor:middle}#chart-d6380432-b8ed-4400-a042-2126816a2aba .legends .legend text{fill-opacity:1}#chart-d6380432-b8ed-4400-a042-2126816a2aba .axis.x text{text-anchor:middle}#chart-d6380432-b8ed-4400-a042-2126816a2aba .axis.x:not(.web) text[transform]{text-anchor:start}#chart-d6380432-b8ed-4400-a042-2126816a2aba .axis.y text{text-anchor:end}#chart-d6380432-b8ed-4400-a042-2126816a2aba .axis.y2 text{text-anchor:start}#chart-d6380432-b8ed-4400-a042-2126816a2aba .axis.y .logarithmic text:not(.major),#chart-d6380432-b8ed-4400-a042-2126816a2aba .axis.y2 .logarithmic text:not(.major){font-size:50%}#chart-d6380432-b8ed-4400-a042-2126816a2aba .axis .guide.line{stroke-dasharray:4,4}#chart-d6380432-b8ed-4400-a042-2126816a2aba .axis .major.guide.line{stroke-dasharray:6,6}#chart-d6380432-b8ed-4400-a042-2126816a2aba .axis text.major{stroke-width:0.5px}#chart-d6380432-b8ed-4400-a042-2126816a2aba .horizontal .axis.y .guide.line,#chart-d6380432-b8ed-4400-a042-2126816a2aba .horizontal .axis.y2 .guide.line,#chart-d6380432-b8ed-4400-a042-2126816a2aba .vertical .axis.x .guide.line{opacity:0}#chart-d6380432-b8ed-4400-a042-2126816a2aba .horizontal .axis.always_show .guide.line,#chart-d6380432-b8ed-4400-a042-2126816a2aba .vertical .axis.always_show .guide.line{opacity:1 !important}#chart-d6380432-b8ed-4400-a042-2126816a2aba .axis.y .guides:hover .guide.line,#chart-d6380432-b8ed-4400-a042-2126816a2aba .axis.y2 .guides:hover .guide.line,#chart-d6380432-b8ed-4400-a042-2126816a2aba .axis.x .guides:hover .guide.line{opacity:1}#chart-d6380432-b8ed-4400-a042-2126816a2aba .axis .guides:hover text{opacity:1}#chart-d6380432-b8ed-4400-a042-2126816a2aba .nofill{fill:none}#chart-d6380432-b8ed-4400-a042-2126816a2aba .subtle-fill{fill-opacity:.2}#chart-d6380432-b8ed-4400-a042-2126816a2aba .dot{stroke-width:1px;fill-opacity:1}#chart-d6380432-b8ed-4400-a042-2126816a2aba .dot.active{stroke-width:5px}#chart-d6380432-b8ed-4400-a042-2126816a2aba .series text{stroke:none}#chart-d6380432-b8ed-4400-a042-2126816a2aba .series text.active{opacity:1}#chart-d6380432-b8ed-4400-a042-2126816a2aba .tooltip rect{fill-opacity:0.8}#chart-d6380432-b8ed-4400-a042-2126816a2aba .tooltip text{fill-opacity:1}#chart-d6380432-b8ed-4400-a042-2126816a2aba .tooltip text tspan.label{fill-opacity:.8}</style><script type="text/javascript">window.config = {"x_label_format": "%Y-%m-%d %H:%M:%S.%f", "interpolation_parameters": {}, "mode": null, "strict": false, "no_data_font_size": 64, "disable_xml_declaration": false, "title_font_size": 16, "order_min": null, "tooltip_font_size": 16, "truncate_label": null, "y_labels_major_count": null, "xrange": null, "y_labels_major": null, "fill": false, "zero": 0, "dots_size": 2.5, "label_font_size": 10, "tooltip_border_radius": 0, "x_labels_major_every": null, "legend_at_bottom_columns": null, "style": {"plot_background": "#111", "foreground": "#999", "stroke_dasharray": "0,0", "transition": "250ms", "stroke_width": 1.0, "colors": ["#ff5995", "#b6e354", "#feed6c", "#8cedff", "#9e6ffe", "#899ca1", "#f8f8f2", "#bf4646", "#516083", "#f92672", "#82b414", "#fd971f", "#56c2d6", "#808384", "#8c54fe", "#465457"], "opacity": ".8", "background": "black", "stroke_style": "round", "opacity_hover": ".4", "foreground_light": "#eee", "foreground_dark": "#555", "font_family": "monospace"}, "major_label_font_size": 10, "y_labels_major_every": null, "show_minor_x_labels": true, "stroke": true, "margin_bottom": null, "range": null, "half_pie": false, "include_x_axis": false, "rounded_bars": null, "x_labels_major_count": null, "show_dots": false, "x_label_rotation": 0, "x_title": null, "no_data_text": "No data", "explicit_size": false, "show_y_guides": true, "margin_right": null, "margin": 20, "show_legend": true, "y_label_rotation": 0, "show_minor_y_labels": true, "x_value_formatter": null, "title": "Election 5 Participation", "legend_font_size": 14, "truncate_legend": null, "show_x_labels": true, "pretty_print": false, "no_prefix": false, "interpolation_precision": 250, "js": ["http://kozea.github.io/pygal.js/javascripts/svg.jquery.js", "http://kozea.github.io/pygal.js/javascripts/pygal-tooltips.js"], "print_values": false, "spacing": 10, "show_x_guides": false, "margin_left": null, "show_only_major_dots": false, "height": 768, "inner_radius": 0, "y_labels": null, "value_font_size": 8, "missing_value_fill_truncation": "x", "x_labels_major": null, "x_labels": null, "css": ["style.css", "graph.css"], "logarithmic": false, "interpolate": null, "legend_at_bottom": true, "legend_box_size": 12, "stack_from_top": false, "human_readable": false, "y_title": "Users", "show_y_labels": true, "margin_top": null, "print_zeroes": false, "width": 1024}</script><script type="text/javascript" xlink:href="http://kozea.github.io/pygal.js/javascripts/svg.jquery.js" /><script type="text/javascript" xlink:href="http://kozea.github.io/pygal.js/javascripts/pygal-tooltips.js" /></defs><title>Election 5 Participation</title><g class="graph line-graph vertical"><rect class="background" height="768" width="1024" x="0" y="0" /><g class="plot" transform="translate(86, 46)"><rect class="background" height="657.0" width="918.0" x="0" y="0" /><g class="axis y"><g class="guides"><path class="axis major line" d="M0.000000 644.365385 h918.000000" /><text class="major" x="-5" y="647.8653846153846">0</text></g><g class="guides"><path class="guide line" d="M0.000000 546.975262 h918.000000" /><text class="" x="-5" y="550.4752620194531">10000</text></g><g class="guides"><path class="guide line" d="M0.000000 449.585139 h918.000000" /><text class="" x="-5" y="453.0851394235217">20000</text></g><g class="guides"><path class="guide line" d="M0.000000 352.195017 h918.000000" /><text class="" x="-5" y="355.6950168275902">30000</text></g><g class="guides"><path class="guide line" d="M0.000000 254.804894 h918.000000" /><text class="" x="-5" y="258.30489423165875">40000</text></g><g class="guides"><path class="major guide line" d="M0.000000 157.414772 h918.000000" /><text class="major" x="-5" y="160.91477163572722">50000</text></g><g class="guides"><path class="guide line" d="M0.000000 60.024649 h918.000000" /><text class="" x="-5" y="63.52464903979569">60000</text></g></g><g class="series serie-0 color-0"><path class="line reactive nofill" d="M17.653846 644.365385 L20.105769 644.365385 22.557692 644.365385 25.009615 644.365385 27.461538 644.365385 29.913462 644.365385 32.365385 644.365385 34.817308 644.365385 37.269231 644.365385 39.721154 644.365385 42.173077 644.365385 44.625000 644.365385 47.076923 644.365385 49.528846 644.365385 51.980769 644.365385 54.432692 644.365385 56.884615 644.365385 59.336538 644.365385 61.788462 644.365385 64.240385 644.365385 66.692308 644.365385 69.144231 644.365385 71.596154 644.365385 74.048077 644.365385 76.500000 644.365385 78.951923 644.365385 81.403846 644.365385 83.855769 644.365385 86.307692 644.365385 88.759615 644.365385 91.211538 644.365385 93.663462 644.365385 96.115385 644.365385 98.567308 644.365385 101.019231 644.365385 103.471154 644.365385 105.923077 644.365385 108.375000 644.365385 110.826923 644.365385 113.278846 644.365385 115.730769 644.365385 118.182692 644.365385 120.634615 644.365385 123.086538 644.365385 125.538462 644.365385 127.990385 644.365385 130.442308 644.365385 132.894231 644.365385 135.346154 644.365385 137.798077 644.365385 140.250000 644.365385 142.701923 644.365385 145.153846 644.365385 147.605769 644.365385 150.057692 644.365385 152.509615 644.365385 154.961538 644.365385 157.413462 644.365385 159.865385 644.365385 162.317308 644.365385 164.769231 644.365385 167.221154 644.365385 169.673077 644.365385 172.125000 644.365385 174.576923 644.365385 177.028846 644.365385 179.480769 644.365385 181.932692 644.365385 184.384615 644.365385 186.836538 644.365385 189.288462 644.365385 191.740385 644.365385 194.192308 644.365385 196.644231 644.365385 199.096154 644.365385 201.548077 644.365385 204.000000 644.365385 206.451923 644.365385 208.903846 644.365385 211.355769 644.365385 213.807692 644.365385 216.259615 644.365385 218.711538 644.365385 221.163462 644.365385 223.615385 644.365385 226.067308 644.365385 228.519231 644.365385 230.971154 644.365385 233.423077 644.365385 235.875000 644.365385 238.326923 644.365385 240.778846 644.365385 243.230769 644.365385 245.682692 644.365385 248.134615 644.365385 250.586538 644.365385 253.038462 644.365385 255.490385 644.365385 257.942308 644.365385 260.394231 644.365385 262.846154 644.365385 265.298077 644.365385 267.750000 644.365385 270.201923 644.365385 272.653846 644.365385 275.105769 644.365385 277.557692 644.365385 280.009615 644.365385 282.461538 644.365385 284.913462 644.365385 287.365385 644.365385 289.817308 644.365385 292.269231 644.365385 294.721154 644.365385 297.173077 644.365385 299.625000 644.365385 302.076923 644.365385 304.528846 644.365385 306.980769 644.365385 309.432692 644.365385 311.884615 644.365385 314.336538 644.365385 316.788462 644.365385 319.240385 644.365385 321.692308 644.365385 324.144231 644.365385 326.596154 644.365385 329.048077 644.365385 331.500000 644.365385 333.951923 644.365385 336.403846 644.365385 338.855769 644.365385 341.307692 644.365385 343.759615 644.365385 346.211538 644.365385 348.663462 644.365385 351.115385 644.365385 353.567308 644.365385 356.019231 644.365385 358.471154 644.365385 360.923077 644.365385 363.375000 644.365385 365.826923 644.365385 368.278846 644.365385 370.730769 644.365385 373.182692 644.365385 375.634615 644.365385 378.086538 644.365385 380.538462 644.365385 382.990385 644.365385 385.442308 644.365385 387.894231 644.365385 390.346154 644.365385 392.798077 644.365385 395.250000 644.365385 397.701923 644.365385 400.153846 644.365385 402.605769 644.365385 405.057692 644.365385 407.509615 644.365385 409.961538 644.365385 412.413462 644.365385 414.865385 644.365385 417.317308 644.365385 419.769231 644.365385 422.221154 644.365385 424.673077 644.365385 427.125000 644.365385 429.576923 644.365385 432.028846 644.365385 434.480769 644.365385 436.932692 644.365385 439.384615 644.365385 441.836538 644.365385 444.288462 644.365385 446.740385 644.365385 449.192308 644.365385 451.644231 644.365385 454.096154 644.365385 456.548077 644.365385 459.000000 644.365385 461.451923 644.365385 463.903846 644.365385 466.355769 644.365385 468.807692 644.365385 471.259615 644.365385 473.711538 644.365385 476.163462 644.365385 478.615385 644.365385 481.067308 644.365385 483.519231 644.365385 485.971154 644.365385 488.423077 644.365385 490.875000 644.365385 493.326923 644.365385 495.778846 644.365385 498.230769 644.365385 500.682692 644.365385 503.134615 644.365385 505.586538 644.365385 508.038462 644.365385 510.490385 644.365385 512.942308 644.365385 515.394231 644.365385 517.846154 644.365385 520.298077 644.365385 522.750000 644.365385 525.201923 644.365385 527.653846 644.365385 530.105769 644.365385 532.557692 644.365385 535.009615 644.365385 537.461538 644.365385 539.913462 644.365385 542.365385 644.365385 544.817308 644.365385 547.269231 644.365385 549.721154 644.365385 552.173077 644.365385 554.625000 644.365385 557.076923 644.365385 559.528846 644.365385 561.980769 644.365385 564.432692 644.365385 566.884615 644.365385 569.336538 644.365385 571.788462 644.365385 574.240385 644.365385 576.692308 644.365385 579.144231 644.365385 581.596154 644.365385 584.048077 644.365385 586.500000 644.365385 588.951923 644.365385 591.403846 644.365385 593.855769 644.365385 596.307692 644.365385 598.759615 644.365385 601.211538 644.365385 603.663462 644.365385 606.115385 644.365385 608.567308 644.365385 611.019231 644.365385 613.471154 644.365385 615.923077 644.365385 618.375000 644.365385 620.826923 644.365385 623.278846 644.365385 625.730769 644.365385 628.182692 644.365385 630.634615 644.365385 633.086538 644.365385 635.538462 644.365385 637.990385 644.365385 640.442308 644.365385 642.894231 644.365385 645.346154 644.365385 647.798077 644.365385 650.250000 644.365385 652.701923 644.365385 655.153846 644.365385 657.605769 644.365385 660.057692 644.365385 662.509615 643.391483 664.961538 613.560889 667.413462 600.160008 669.865385 591.911065 672.317308 586.476696 674.769231 582.746654 677.221154 580.058687 679.673077 577.701846 682.125000 575.062573 684.576923 571.498095 687.028846 568.547174 689.480769 565.576775 691.932692 562.314206 694.384615 558.720511 696.836538 555.272900 699.288462 551.698683 701.740385 548.669850 704.192308 545.592322 706.644231 543.001745 709.096154 540.440385 711.548077 538.073805 714.000000 535.697486 716.451923 533.350384 718.903846 531.568145 721.355769 529.766427 723.807692 527.964710 726.259615 526.640204 728.711538 525.491001 731.163462 524.361276 733.615385 523.552938 736.067308 522.939380 738.519231 522.228432 740.971154 521.692786 743.423077 521.030533 745.875000 520.241673 748.326923 519.452813 750.778846 518.644475 753.230769 517.563445 755.682692 516.589544 758.134615 515.440340 760.586538 514.281398 763.038462 513.112716 765.490385 512.158293 767.942308 511.223348 770.394231 510.054667 772.846154 508.954158 775.298077 507.804955 777.750000 506.558361 780.201923 505.623416 782.653846 504.698210 785.105769 503.480833 787.557692 502.623800 790.009615 501.903113 792.461538 501.279816 794.913462 500.432522 797.365385 499.653401 799.817308 498.504198 802.269231 496.157096 804.721154 493.644431 807.173077 491.170722 809.625000 487.567287 812.076923 483.009429 814.528846 477.867231 816.980769 474.224840 819.432692 471.273920 821.884615 468.663864 824.336538 465.985636 826.788462 463.317147 829.240385 460.814221 831.692308 459.109893 834.144231 457.726954 836.596154 456.568011 839.048077 455.506459 841.500000 454.678643 843.951923 453.724220 846.403846 453.042489 848.855769 452.506843 851.307692 452.068588 853.759615 451.542681 856.211538 451.075208 858.663462 450.705126 861.115385 450.091568 863.567308 449.614356 866.019231 448.776801 868.471154 447.871073 870.923077 446.439438 873.375000 445.144150 875.826923 443.897556 878.278846 442.845743 880.730769 441.852364 883.182692 440.634987 885.634615 439.349438 888.086538 438.268407 890.538462 437.148421 892.990385 436.388778 895.442308 435.707047 897.894231 435.171401 900.346154 435.171401" /></g><g class="series serie-1 color-1"><path class="line reactive nofill" d="M17.653846 620.806714 L20.105769 612.362990 22.557692 606.529322 25.009615 603.821877 27.461538 601.611121 29.913462 599.994445 32.365385 598.406986 34.817308 596.829266 37.269231 594.238689 39.721154 591.872109 42.173077 589.447094 44.625000 586.369567 47.076923 582.727176 49.528846 579.114002 51.980769 576.270211 54.432692 574.400321 56.884615 572.530430 59.336538 570.339152 61.788462 568.634825 64.240385 567.037627 66.692308 565.528080 69.144231 564.447050 71.596154 563.200456 74.048077 562.431074 76.500000 561.496129 78.951923 560.609879 81.403846 559.937887 83.855769 559.460676 86.307692 559.012681 88.759615 558.769206 91.211538 558.477035 93.663462 558.097214 96.115385 557.902434 98.567308 557.512873 101.019231 557.016184 103.471154 556.480538 105.923077 555.691678 108.375000 554.980730 110.826923 554.347694 113.278846 553.627007 115.730769 552.896581 118.182692 552.351197 120.634615 551.640249 123.086538 550.919562 125.538462 550.422872 127.990385 549.994356 130.442308 549.536622 132.894231 549.127584 135.346154 548.679589 137.798077 548.309507 140.250000 548.095248 142.701923 547.880990 145.153846 547.686210 147.605769 547.520647 150.057692 547.345344 152.509615 547.140825 154.961538 546.965523 157.413462 546.614919 159.865385 546.439616 162.317308 546.147446 164.769231 545.777364 167.221154 545.397542 169.673077 545.027460 172.125000 544.637899 174.576923 544.326251 177.028846 543.946429 179.480769 543.566608 181.932692 543.128352 184.384615 542.806965 186.836538 542.466099 189.288462 542.212885 191.740385 541.891498 194.192308 541.706456 196.644231 541.482459 199.096154 541.277940 201.548077 541.083160 204.000000 540.937074 206.451923 540.820206 208.903846 540.732555 211.355769 540.625426 213.807692 540.489080 216.259615 540.362473 218.711538 540.187170 221.163462 539.953434 223.615385 539.748915 226.067308 539.466484 228.519231 539.242486 230.971154 539.076923 233.423077 538.852926 235.875000 538.648407 238.326923 538.395192 240.778846 538.171195 243.230769 537.908242 245.682692 537.645288 248.134615 537.440769 250.586538 537.236250 253.038462 537.090165 255.490385 536.934340 257.942308 536.788255 260.394231 536.690865 262.846154 536.622692 265.298077 536.544780 267.750000 536.496085 270.201923 536.427912 272.653846 536.359739 275.105769 536.203914 277.557692 536.116263 280.009615 535.970178 282.461538 535.872788 284.913462 535.814354 287.365385 535.736442 289.817308 535.678008 292.269231 535.600096 294.721154 535.502706 297.173077 535.473489 299.625000 535.385837 302.076923 535.200796 304.528846 535.035233 306.980769 534.928104 309.432692 534.840453 311.884615 534.743063 314.336538 534.665151 316.788462 534.587238 319.240385 534.489848 321.692308 534.402197 324.144231 534.324285 326.596154 534.285329 329.048077 534.265851 331.500000 534.168461 333.951923 534.129505 336.403846 534.090549 338.855769 534.032115 341.307692 533.963942 343.759615 533.866552 346.211538 533.710727 348.663462 533.623076 351.115385 533.525686 353.567308 533.447774 356.019231 533.350384 358.471154 533.291950 360.923077 533.194560 363.375000 533.067953 365.826923 532.892650 368.278846 532.853694 370.730769 532.619958 373.182692 532.454395 375.634615 532.347266 378.086538 532.269354 380.538462 532.162224 382.990385 532.103790 385.442308 531.996661 387.894231 531.889532 390.346154 531.792142 392.798077 531.685013 395.250000 531.568145 397.701923 531.451276 400.153846 531.149367 402.605769 530.876675 405.057692 530.565026 407.509615 530.253378 409.961538 529.854078 412.413462 529.513213 414.865385 529.162609 417.317308 528.909394 419.769231 528.636702 422.221154 528.471139 424.673077 528.247141 427.125000 522.364778 429.576923 481.616751 432.028846 458.915113 434.480769 445.650578 436.932692 435.074011 439.384615 427.555494 441.836538 421.020616 444.288462 414.534434 446.740385 407.025656 449.192308 396.215352 451.644231 384.031848 454.096154 370.621228 456.548077 355.068025 459.000000 337.323545 461.451923 318.936290 463.903846 303.675258 466.355769 292.319569 468.807692 282.161780 471.259615 271.955295 473.711538 261.768288 476.163462 253.110306 478.615385 245.036665 481.067308 238.511527 483.519231 233.301155 485.971154 228.158957 488.423077 223.805618 490.875000 220.221662 493.326923 216.890920 495.778846 214.621730 498.230769 212.858968 500.682692 211.398117 503.134615 209.947004 505.586538 208.603020 508.038462 206.781825 510.490385 204.493157 512.942308 202.223967 515.394231 199.224351 517.846154 196.039694 520.298077 192.601823 522.750000 189.008127 525.201923 185.872165 527.653846 182.989418 530.105769 179.795022 532.557692 176.639582 535.009615 173.464664 537.461538 170.679306 539.913462 168.341943 542.365385 166.004580 544.817308 163.900954 547.269231 162.031063 549.721154 160.346214 552.173077 159.060665 554.625000 157.950417 557.076923 157.064167 559.528846 156.421392 561.980769 155.613054 564.432692 154.804716 566.884615 154.084029 569.336538 152.964043 571.788462 151.970664 574.240385 150.607202 576.692308 149.341130 579.144231 147.675759 581.596154 145.679262 584.048077 144.198932 586.500000 142.465388 588.951923 140.741583 591.403846 139.134646 593.855769 137.615360 596.307692 136.076596 598.759615 134.752090 601.211538 133.680799 603.663462 132.414727 606.115385 131.070743 608.567308 130.145537 611.019231 129.259287 613.471154 128.626251 615.923077 128.071128 618.375000 127.642611 620.826923 127.165400 623.278846 126.668710 625.730769 126.181759 628.182692 125.694809 630.634615 125.198119 633.086538 124.477432 635.538462 123.708050 637.990385 122.393284 640.442308 121.399904 642.894231 120.523393 645.346154 119.646882 647.798077 118.624286 650.250000 117.679602 652.701923 116.598571 655.153846 115.644148 657.605769 114.942939 660.057692 114.183296 662.509615 112.965920 664.961538 103.548295 667.413462 98.688528 669.865385 95.620739 672.317308 93.497634 674.769231 92.075738 677.221154 91.062881 679.673077 90.059763 682.125000 89.134557 684.576923 88.053526 687.028846 86.972496 689.480769 86.018073 691.932692 84.829913 694.384615 83.612537 696.836538 82.414638 699.288462 81.060916 701.740385 79.716932 704.192308 78.548250 706.644231 77.311396 709.096154 76.142714 711.548077 75.129857 714.000000 74.000132 716.451923 72.948318 718.903846 72.120502 721.355769 71.049211 723.807692 70.124005 726.259615 69.393579 728.711538 68.643675 731.163462 68.000900 733.615385 67.582123 736.067308 67.231518 738.519231 66.890653 740.971154 66.530309 743.423077 66.082315 745.875000 65.799883 748.326923 65.381106 750.778846 64.942850 753.230769 64.387727 755.682692 63.774169 758.134615 63.160611 760.586538 62.595748 763.038462 61.962712 765.490385 61.397850 767.942308 60.716119 770.394231 60.044127 772.846154 59.420830 775.298077 58.670926 777.750000 58.008674 780.201923 57.365899 782.653846 56.820514 785.105769 56.206956 787.557692 55.534964 790.009615 55.009058 792.461538 54.502629 794.913462 54.025417 797.365385 53.528728 799.817308 52.876214 802.269231 52.038659 804.721154 51.298494 807.173077 50.139552 809.625000 48.659222 812.076923 46.925678 814.528846 44.393534 816.980769 42.367820 819.432692 40.673232 821.884615 39.114990 824.336538 37.508053 826.788462 35.657640 829.240385 33.690360 831.692308 32.258725 834.144231 31.167956 836.596154 30.184315 839.048077 29.142241 841.500000 28.353381 843.951923 27.486609 846.403846 26.970441 848.855769 26.493230 851.307692 26.006279 853.759615 25.548546 856.211538 25.129768 858.663462 24.759686 861.115385 24.409081 863.567308 24.029260 866.019231 23.425441 868.471154 22.860578 870.923077 21.925633 873.375000 20.990688 875.826923 20.075221 878.278846 19.140276 880.730769 18.146896 883.182692 17.192473 885.634615 16.286745 888.086538 15.137542 890.538462 14.426594 892.990385 13.813036 895.442308 13.189739 897.894231 12.634615 900.346154 12.634615" /></g></g><g class="titles"><text class="title plot_title" x="512.0" y="26">Election 5 Participation</text><text class="title" transform="rotate(-90 0.000000 374.500000)" x="0" y="400.5">Users</text></g><g class="plot overlay" transform="translate(86, 46)"><g class="series serie-0 color-0" /><g class="series serie-1 color-1" /></g><g class="plot text-overlay" transform="translate(86, 46)"><g class="series serie-0 color-0" /><g class="series serie-1 color-1" /></g><g class="plot tooltip-overlay" transform="translate(86, 46)"><g class="tooltip" style="opacity: 0" transform="translate(0 0)"><a><rect class="tooltip-box" height="0" rx="0" ry="0" width="0" /><text class="text"><tspan class="label" /><tspan class="value" /></text></a></g></g><g class="legends" transform="translate(96, 713)"><g class="legend reactive activate-serie" id="activate-serie-0"><rect class="color-0 reactive" height="12" width="12" x="0.0" y="1.0" /><text x="17.0" y="11.2">constituents</text></g><g class="legend reactive activate-serie" id="activate-serie-1"><rect class="color-1 reactive" height="12" width="12" x="459.0" y="1.0" /><text x="476.0" y="11.2">caucus</text></g></g></g></svg>