<?xml version='1.0' encoding='utf-8'?>
<svg xmlns:xlink="http://www.w3.org/1999/xlink" class="pygal-chart" id="chart-eb26d9c0-6f9c-4698-b1bc-c470eb9ee270" viewBox="0 0 1024 768" xmlns="http://www.w3.org/2000/svg"><!--Generated with pygal 1.7.0 (etree) ©Kozea 2011-2014 on 2018-03-26--><!--http://pygal.org--><!--http://github.com/Kozea/pygal--><defs><style type="text/css">#chart-eb26d9c0-6f9c-4698-b1bc-c470eb9ee270 .title{font-family:"monospace";font-size:16px}#chart-eb26d9c0-6f9c-4698-b1bc-c470eb9ee270 .legends .legend text{font-family:"monospace";font-size:14px}#chart-eb26d9c0-6f9c-4698-b1bc-c470eb9ee270 .axis text{font-family:"monospace";font-size:10px}#chart-eb26d9c0-6f9c-4698-b1bc-c470eb9ee270 .axis text.major{font-family:"monospace";font-size:10px}#chart-eb26d9c0-6f9c-4698-b1bc-c470eb9ee270 .series text{font-family:"monospace";font-size:8px}#chart-eb26d9c0-6f9c-4698-b1bc-c470eb9ee270 .tooltip text{font-family:"monospace";font-size:16px}#chart-eb26d9c0-6f9c-4698-b1bc-c470eb9ee270 text.no_data{font-size:64px}
#chart-eb26d9c0-6f9c-4698-b1bc-c470eb9ee270{background-color:black}#chart-eb26d9c0-6f9c-4698-b1bc-c470eb9ee270 path,#chart-eb26d9c0-6f9c-4698-b1bc-c470eb9ee270 line,#chart-eb26d9c0-6f9c-4698-b1bc-c470eb9ee270 rect,#chart-eb26d9c0-6f9c-4698-b1bc-c470eb9ee270 circle{-webkit-transition:250ms;-moz-transition:250ms;transition:250ms}#chart-eb26d9c0-6f9c-4698-b1bc-c470eb9ee270 .graph &gt; .background{fill:black}#chart-eb26d9c0-6f9c-4698-b1bc-c470eb9ee270 .plot &gt; .background{fill:#111}#chart-eb26d9c0-6f9c-4698-b1bc-c470eb9ee270 .graph{fill:#999}#chart-eb26d9c0-6f9c-4698-b1bc-c470eb9ee270 text.no_data{fill:#eee}#chart-eb26d9c0-6f9c-4698-b1bc-c470eb9ee270 .title{fill:#eee}#chart-eb26d9c0-6f9c-4698-b1bc-c470eb9ee270 .legends .legend text{fill:#999}#chart-eb26d9c0-6f9c-4698-b1bc-c470eb9ee270 .legends .legend:hover text{fill:#eee}#chart-eb26d9c0-6f9c-4698-b1bc-c470eb9ee270 .axis .line{stroke:#eee}#chart-eb26d9c0-6f9c-4698-b1bc-c470eb9ee270 .axis .guide.line{stroke:#555}#chart-eb26d9c0-6f9c-4698-b1bc-c470eb9ee270 .axis .major.line{stroke:#999}#chart-eb26d9c0-6f9c-4698-b1bc-c470eb9ee270 .axis text.major{stroke:#eee;fill:#eee}#chart-eb26d9c0-6f9c-4698-b1bc-c470eb9ee270 .axis.y .guides:hover .guide.line,#chart-eb26d9c0-6f9c-4698-b1bc-c470eb9ee270 .line-graph .axis.x .guides:hover .guide.line,#chart-eb26d9c0-6f9c-4698-b1bc-c470eb9ee270 .stackedline-graph .axis.x .guides:hover .guide.line,#chart-eb26d9c0-6f9c-4698-b1bc-c470eb9ee270 .xy-graph .axis.x .guides:hover .guide.line{stroke:#eee}#chart-eb26d9c0-6f9c-4698-b1bc-c470eb9ee270 .axis .guides:hover text{fill:#eee}#chart-eb26d9c0-6f9c-4698-b1bc-c470eb9ee270 .reactive{fill-opacity:.8}#chart-eb26d9c0-6f9c-4698-b1bc-c470eb9ee270 .reactive.active,#chart-eb26d9c0-6f9c-4698-b1bc-c470eb9ee270 .active .reactive{fill-opacity:.4}#chart-eb26d9c0-6f9c-4698-b1bc-c470eb9ee270 .series{stroke-width:1.0;stroke-linejoin:round;stroke-linecap:round;stroke-dasharray:0,0}#chart-eb26d9c0-6f9c-4698-b1bc-c470eb9ee270 .series text{fill:#eee}#chart-eb26d9c0-6f9c-4698-b1bc-c470eb9ee270 .tooltip rect{fill:#111;stroke:#eee}#chart-eb26d9c0-6f9c-4698-b1bc-c470eb9ee270 .tooltip text{fill:#eee}#chart-eb26d9c0-6f9c-4698-b1bc-c470eb9ee270 .map-element{fill:#999;stroke:#555 !important;opacity:.9;stroke-width:3;-webkit-transition:250ms;-moz-transition:250ms;-o-transition:250ms;transition:250ms}#chart-eb26d9c0-6f9c-4698-b1bc-c470eb9ee270 .map-element:hover{opacity:1;stroke-width:10}#chart-eb26d9c0-6f9c-4698-b1bc-c470eb9ee270 .color-0,#chart-eb26d9c0-6f9c-4698-b1bc-c470eb9ee270 .color-0 a:visited{stroke:#ff5995;fill:#ff5995}#chart-eb26d9c0-6f9c-4698-b1bc-c470eb9ee270 .color-1,#chart-eb26d9c0-6f9c-4698-b1bc-c470eb9ee270 .color-1 a:visited{stroke:#b6e354;fill:#b6e354}#chart-eb26d9c0-6f9c-4698-b1bc-c470eb9ee270 .color-2,#chart-eb26d9c0-6f9c-4698-b1bc-c470eb9ee270 .color-2 a:visited{stroke:#feed6c;fill:#feed6c}#chart-eb26d9c0-6f9c-4698-b1bc-c470eb9ee270 .color-3,#chart-eb26d9c0-6f9c-4698-b1bc-c470eb9ee270 .color-3 a:visited{stroke:#8cedff;fill:#8cedff}#chart-eb26d9c0-6f9c-4698-b1bc-c470eb9ee270 .color-4,#chart-eb26d9c0-6f9c-4698-b1bc-c470eb9ee270 .color-4 a:visited{stroke:#9e6ffe;fill:#9e6ffe}#chart-eb26d9c0-6f9c-4698-b1bc-c470eb9ee270 .color-5,#chart-eb26d9c0-6f9c-4698-b1bc-c470eb9ee270 .color-5 a:visited{stroke:#899ca1;fill:#899ca1}#chart-eb26d9c0-6f9c-4698-b1bc-c470eb9ee270 .color-6,#chart-eb26d9c0-6f9c-4698-b1bc-c470eb9ee270 .color-6 a:visited{stroke:#f8f8f2;fill:#f8f8f2}#chart-eb26d9c0-6f9c-4698-b1bc-c470eb9ee270 .color-7,#chart-eb26d9c0-6f9c-4698-b1bc-c470eb9ee270 .color-7 a:visited{stroke:#bf4646;fill:#bf4646}#chart-eb26d9c0-6f9c-4698-b1bc-c470eb9ee270 .color-8,#chart-eb26d9c0-6f9c-4698-b1bc-c470eb9ee270 .color-8 a:visited{stroke:#516083;fill:#516083}#chart-eb26d9c0-6f9c-4698-b1bc-c470eb9ee270 .color-9,#chart-eb26d9c0-6f9c-4698-b1bc-c470eb9ee270 .color-9 a:visited{stroke:#f92672;fill:#f92672}#chart-eb26d9c0-6f9c-4698-b1bc-c470eb9ee270 .color-10,#chart-eb26d9c0-6f9c-4698-b1bc-c470eb9ee270 .color-10 a:visited{stroke:#82b414;fill:#82b414}#chart-eb26d9c0-6f9c-4698-b1bc-c470eb9ee270 .color-11,#chart-eb26d9c0-6f9c-4698-b1bc-c470eb9ee270 .color-11 a:visited{stroke:#fd971f;fill:#fd971f}#chart-eb26d9c0-6f9c-4698-b1bc-c470eb9ee270 .color-12,#chart-eb26d9c0-6f9c-4698-b1bc-c470eb9ee270 .color-12 a:visited{stroke:#56c2d6;fill:#56c2d6}#chart-eb26d9c0-6f9c-4698-b1bc-c470eb9ee270 .color-13,#chart-eb26d9c0-6f9c-4698-b1bc-c470eb9ee270 .color-13 a:visited{stroke:#808384;fill:#808384}#chart-eb26d9c0-6f9c-4698-b1bc-c470eb9ee270 .color-14,#chart-eb26d9c0-6f9c-4698-b1bc-c470eb9ee270 .color-14 a:visited{stroke:#8c54fe;fill:#8c54fe}#chart-eb26d9c0-6f9c-4698-b1bc-c470eb9ee270 .color-15,#chart-eb26d9c0-6f9c-4698-b1bc-c470eb9ee270 .color-15 a:visited{stroke:#465457;fill:#465457}
#chart-eb26d9c0-6f9c-4698-b1bc-c470eb9ee270 text.no_data{text-anchor:middle}#chart-eb26d9c0-6f9c-4698-b1bc-c470eb9ee270 .guide.line{fill-opacity:0}#chart-eb26d9c0-6f9c-4698-b1bc-c470eb9ee270 .centered{text-anchor:middle}#chart-eb26d9c0-6f9c-4698-b1bc-c470eb9ee270 .title{text-anchor:middle}#chart-eb26d9c0-6f9c-4698-b1bc-c470eb9ee270 .legends .legend text{fill-opacity:1}#chart-eb26d9c0-6f9c-4698-b1bc-c470eb9ee270 .axis.x text{text-anchor:middle}#chart-eb26d9c0-6f9c-4698-b1bc-c470eb9ee270 .axis.x:not(.web) text[transform]{text-anchor:start}#chart-eb26d9c0-6f9c-4698-b1bc-c470eb9ee270 .axis.y text{text-anchor:end}#chart-eb26d9c0-6f9c-4698-b1bc-c470eb9ee270 .axis.y2 text{text-anchor:start}#chart-eb26d9c0-6f9c-4698-b1bc-c470eb9ee270 .axis.y .logarithmic text:not(.major),#chart-eb26d9c0-6f9c-4698-b1bc-c470eb9ee270 .axis.y2 .logarithmic text:not(.major){font-size:50%}#chart-eb26d9c0-6f9c-4698-b1bc-c470eb9ee270 .axis .guide.line{stroke-dasharray:4,4}#chart-eb26d9c0-6f9c-4698-b1bc-c470eb9ee270 .axis .major.guide.line{stroke-dasharray:6,6}#chart-eb26d9c0-6f9c-4698-b1bc-c470eb9ee270 .axis text.major{stroke-width:0.5px}#chart-eb26d9c0-6f9c-4698-b1bc-c470eb9ee270 .horizontal .axis.y .guide.line,#chart-eb26d9c0-6f9c-4698-b1bc-c470eb9ee270 .horizontal .axis.y2 .guide.line,#chart-eb26d9c0-6f9c-4698-b1bc-c470eb9ee270 .vertical .axis.x .guide.line{opacity:0}#chart-eb26d9c0-6f9c-4698-b1bc-c470eb9ee270 .horizontal .axis.always_show .guide.line,#chart-eb26d9c0-6f9c-4698-b1bc-c470eb9ee270 .vertical .axis.always_show .guide.line{opacity:1 !important}#chart-eb26d9c0-6f9c-4698-b1bc-c470eb9ee270 .axis.y .guides:hover .guide.line,#chart-eb26d9c0-6f9c-4698-b1bc-c470eb9ee270 .axis.y2 .guides:hover .guide.line,#chart-eb26d9c0-6f9c-4698-b1bc-c470eb9ee270 .axis.x .guides:hover .guide.line{opacity:1}#chart-eb26d9c0-6f9c-4698-b1bc-c470eb9ee270 .axis .guides:hover text{opacity:1}#chart-eb26d9c0-6f9c-4698-b1bc-c470eb9ee270 .nofill{fill:none}#chart-eb26d9c0-6f9c-4698-b1bc-c470eb9ee270 .subtle-fill{fill-opacity:.2}#chart-eb26d9c0-6f9c-4698-b1bc-c470eb9ee270 .dot{stroke-width:1px;fill-opacity:1}#chart-eb26d9c0-6f9c-4698-b1bc-c470eb9ee270 .dot.active{stroke-width:5px}#chart-eb26d9c0-6f9c-4698-b1bc-c470eb9ee270 .series text{stroke:none}#chart-eb26d9c0-6f9c-4698-b1bc-c470eb9ee270 .series text.active{opacity:1}#chart-eb26d9c0-6f9c-4698-b1bc-c470eb9ee270 .tooltip rect{fill-opacity:0.8}#chart-eb26d9c0-6f9c-4698-b1bc-c470eb9ee270 .tooltip text{fill-opacity:1}#chart-eb26d9c0-6f9c-4698-b1bc-c470eb9ee270 .tooltip text tspan.label{fill-opacity:.8}</style><script type="text/javascript">window.config = {"css": ["style.css", "graph.css"], "disable_xml_declaration": false, "dots_size": 2.5, "explicit_size": false, "fill": false, "half_pie": false, "height": 768, "human_readable": false, "include_x_axis": false, "inner_radius": 0, "interpolate": null, "interpolation_parameters": {}, "interpolation_precision": 250, "js": ["http://kozea.github.io/pygal.js/javascripts/svg.jquery.js", "http://kozea.github.io/pygal.js/javascripts/pygal-tooltips.js"], "label_font_size": 10, "legend_at_bottom": true, "legend_at_bottom_columns": null, "legend_box_size": 12, "legend_font_size": 14, "logarithmic": false, "major_label_font_size": 10, "margin": 20, "margin_bottom": null, "margin_left": null, "margin_right": null, "margin_top": null, "missing_value_fill_truncation": "x", "mode": null, "no_data_font_size": 64, "no_data_text": "No data", "no_prefix": false, "order_min": null, "pretty_print": false, "print_values": false, "print_zeroes": false, "range": [0, 1000], "rounded_bars": null, "show_dots": false, "show_legend": true, "show_minor_x_labels": true, "show_minor_y_labels": true, "show_only_major_dots": false, "show_x_guides": false, "show_x_labels": true, "show_y_guides": true, "show_y_labels": true, "spacing": 10, "stack_from_top": false, "strict": false, "stroke": true, "style": {"background": "black", "colors": ["#ff5995", "#b6e354", "#feed6c", "#8cedff", "#9e6ffe", "#899ca1", "#f8f8f2", "#bf4646", "#516083", "#f92672", "#82b414", "#fd971f", "#56c2d6", "#808384", "#8c54fe", "#465457"], "font_family": "monospace", "foreground": "#999", "foreground_dark": "#555", "foreground_light": "#eee", "opacity": ".8", "opacity_hover": ".4", "plot_background": "#111", "stroke_dasharray": "0,0", "stroke_style": "round", "stroke_width": 1.0, "transition": "250ms"}, "title": "Election math.stackexchange.com-6 Constituents Per Hour", "title_font_size": 16, "tooltip_border_radius": 0, "tooltip_font_size": 16, "truncate_label": null, "truncate_legend": null, "value_font_size": 8, "width": 1024, "x_label_format": "%Y-%m-%d %H:%M:%S.%f", "x_label_rotation": 0, "x_labels": null, "x_labels_major": null, "x_labels_major_count": null, "x_labels_major_every": null, "x_title": null, "x_value_formatter": null, "xrange": null, "y_label_rotation": 0, "y_labels": null, "y_labels_major": null, "y_labels_major_count": null, "y_labels_major_every": null, "y_title": "Users", "zero": 0}</script><script type="text/javascript" xlink:href="http://kozea.github.io/pygal.js/javascripts/svg.jquery.js" /><script type="text/javascript" xlink:href="http://kozea.github.io/pygal.js/javascripts/pygal-tooltips.js" /></defs><title>Election math.stackexchange.com-6 Constituents Per Hour</title><g class="graph line-graph vertical"><rect class="background" height="768" width="1024" x="0" y="0" /><g class="plot" transform="translate(80, 46)"><rect class="background" height="678.0" width="924.0" x="0" y="0" /><g class="axis y"><g class="guides"><path class="axis major line" d="M0.000000 664.961538 h924.000000" /><text class="major" x="-5" y="668.4615384615385">0</text></g><g class="guides"><path class="guide line" d="M0.000000 599.769231 h924.000000" /><text class="" x="-5" y="603.2692307692307">100</text></g><g class="guides"><path class="guide line" d="M0.000000 534.576923 h924.000000" /><text class="" x="-5" y="538.0769230769231">200</text></g><g class="guides"><path class="guide line" d="M0.000000 469.384615 h924.000000" /><text class="" x="-5" y="472.88461538461536">300</text></g><g class="guides"><path class="guide line" d="M0.000000 404.192308 h924.000000" /><text class="" x="-5" y="407.6923076923077">400</text></g><g class="guides"><path class="major guide line" d="M0.000000 339.000000 h924.000000" /><text class="major" x="-5" y="342.5">500</text></g><g class="guides"><path class="guide line" d="M0.000000 273.807692 h924.000000" /><text class="" x="-5" y="277.3076923076923">600</text></g><g class="guides"><path class="guide line" d="M0.000000 208.615385 h924.000000" /><text class="" x="-5" y="212.11538461538464">700</text></g><g class="guides"><path class="guide line" d="M0.000000 143.423077 h924.000000" /><text class="" x="-5" y="146.9230769230769">800</text></g><g class="guides"><path class="guide line" d="M0.000000 78.230769 h924.000000" /><text class="" x="-5" y="81.73076923076928">900</text></g><g class="guides"><path class="major guide line" d="M0.000000 13.038462 h924.000000" /><text class="major" x="-5" y="16.538461538461547">1000</text></g></g><g class="series serie-0 color-0"><path class="line reactive nofill" d="M17.769231 427.661538 L22.396635 565.869231 27.024038 608.896154 31.651442 626.498077 36.278846 640.188462 40.906250 638.884615 45.533654 636.276923 50.161058 642.796154 54.788462 638.884615 59.415865 639.536538 64.043269 636.928846 68.670673 631.713462 73.298077 628.453846 77.925481 633.017308 82.552885 644.100000 87.180288 644.751923 91.807692 636.928846 96.435096 640.840385 101.062500 644.751923 105.689904 642.796154 110.317308 651.923077 114.944712 646.055769 119.572115 647.359615 124.199519 644.751923 128.826923 653.226923 133.454327 654.530769 138.081731 657.790385 142.709135 654.530769 147.336538 661.050000 151.963942 661.701923 156.591346 659.094231 161.218750 657.790385 165.846154 661.050000 170.473558 660.398077 175.100962 657.138462 179.728365 659.746154 184.355769 658.442308 188.983173 656.486538 193.610577 658.442308 198.237981 659.746154 202.865385 654.530769 207.492788 657.138462 212.120192 654.530769 216.747596 659.094231 221.375000 656.486538 226.002404 658.442308 230.629808 658.442308 235.257212 657.790385 239.884615 657.138462 244.512019 661.701923 249.139423 659.094231 253.766827 663.657692 258.394231 664.309615 263.021635 662.353846 267.649038 659.746154 272.276442 661.701923 276.903846 662.353846 281.531250 663.657692 286.158654 659.094231 290.786058 663.657692 295.413462 660.398077 300.040865 661.701923 304.668269 661.701923 309.295673 661.050000 313.923077 663.005769 318.550481 662.353846 323.177885 663.005769 327.805288 659.094231 332.432692 659.094231 337.060096 658.442308 341.687500 661.701923 346.314904 662.353846 350.942308 663.005769 355.569712 660.398077 360.197115 663.657692 364.824519 664.961538 369.451923 664.309615 374.079327 663.005769 378.706731 664.961538 383.334135 664.961538 387.961538 663.005769 392.588942 663.657692 397.216346 661.701923 401.843750 662.353846 406.471154 663.005769 411.098558 662.353846 415.725962 661.701923 420.353365 663.657692 424.980769 663.657692 429.608173 661.701923 434.235577 660.398077 438.862981 663.005769 443.490385 659.746154 448.117788 662.353846 452.745192 659.746154 457.372596 663.005769 462.000000 663.005769 466.627404 664.309615 471.254808 663.657692 475.882212 661.701923 480.509615 664.309615 485.137019 664.309615 489.764423 663.005769 494.391827 664.309615 499.019231 663.005769 503.646635 663.005769 508.274038 662.353846 512.901442 664.961538 517.528846 664.309615 522.156250 663.657692 526.783654 663.005769 531.411058 663.005769 536.038462 663.657692 540.665865 663.657692 545.293269 661.701923 549.920673 663.005769 554.548077 662.353846 559.175481 664.309615 563.802885 663.005769 568.430288 663.005769 573.057692 662.353846 577.685096 664.961538 582.312500 664.309615 586.939904 664.961538 591.567308 664.961538 596.194712 662.353846 600.822115 664.309615 605.449519 662.353846 610.076923 663.005769 614.704327 661.701923 619.331731 663.657692 623.959135 664.309615 628.586538 662.353846 633.213942 663.005769 637.841346 663.005769 642.468750 663.657692 647.096154 662.353846 651.723558 664.961538 656.350962 663.005769 660.978365 662.353846 665.605769 663.657692 670.233173 663.005769 674.860577 663.657692 679.487981 664.309615 684.115385 663.657692 688.742788 664.961538 693.370192 664.309615 697.997596 663.657692 702.625000 664.309615 707.252404 662.353846 711.879808 663.005769 716.507212 664.961538 721.134615 662.353846 725.762019 663.657692 730.389423 663.657692 735.016827 663.657692 739.644231 660.398077 744.271635 661.701923 748.899038 662.353846 753.526442 663.005769 758.153846 662.353846 762.781250 662.353846 767.408654 661.050000 772.036058 658.442308 776.663462 663.657692 781.290865 661.050000 785.918269 663.657692 790.545673 663.005769 795.173077 661.701923 799.800481 662.353846 804.427885 664.309615 809.055288 663.657692 813.682692 664.309615 818.310096 664.961538 822.937500 664.309615 827.564904 664.309615 832.192308 664.309615 836.819712 663.657692 841.447115 663.657692 846.074519 660.398077 850.701923 664.309615 855.329327 663.005769 859.956731 662.353846 864.584135 663.657692 869.211538 663.657692 873.838942 663.005769 878.466346 664.309615 883.093750 663.657692 887.721154 661.701923 892.348558 662.353846 896.975962 663.657692 901.603365 661.050000 906.230769 664.961538" /></g></g><g class="titles"><text class="title plot_title" x="512.0" y="26">Election math.stackexchange.com-6 Constituents Per Hour</text><text class="title" transform="rotate(-90 0.000000 385.000000)" x="0" y="411.0">Users</text></g><g class="plot overlay" transform="translate(80, 46)"><g class="series serie-0 color-0" /></g><g class="plot text-overlay" transform="translate(80, 46)"><g class="series serie-0 color-0" /></g><g class="plot tooltip-overlay" transform="translate(80, 46)"><g class="tooltip" style="opacity: 0" transform="translate(0 0)"><a><rect class="tooltip-box" height="0" rx="0" ry="0" width="0" /><text class="text"><tspan class="label" /><tspan class="value" /></text></a></g></g><g class="legends" transform="translate(90, 734)"><g class="legend reactive activate-serie" id="activate-serie-0"><rect class="color-0 reactive" height="12" width="12" x="0.0" y="1.0" /><text x="17.0" y="11.2">constituents</text></g></g></g></svg>