<?xml version='1.0' encoding='utf-8'?>
<svg xmlns:xlink="http://www.w3.org/1999/xlink" class="pygal-chart" id="chart-c1d61b9b-d1e5-4a44-b22a-5b712c0fc095" viewBox="0 0 1024 768" xmlns="http://www.w3.org/2000/svg"><!--Generated with pygal 1.7.0 (etree) ©Kozea 2011-2014 on 2015-11-15--><!--http://pygal.org--><!--http://github.com/Kozea/pygal--><defs><style type="text/css">#chart-c1d61b9b-d1e5-4a44-b22a-5b712c0fc095 .title{font-family:"monospace";font-size:16px}#chart-c1d61b9b-d1e5-4a44-b22a-5b712c0fc095 .legends .legend text{font-family:"monospace";font-size:14px}#chart-c1d61b9b-d1e5-4a44-b22a-5b712c0fc095 .axis text{font-family:"monospace";font-size:10px}#chart-c1d61b9b-d1e5-4a44-b22a-5b712c0fc095 .axis text.major{font-family:"monospace";font-size:10px}#chart-c1d61b9b-d1e5-4a44-b22a-5b712c0fc095 .series text{font-family:"monospace";font-size:8px}#chart-c1d61b9b-d1e5-4a44-b22a-5b712c0fc095 .tooltip text{font-family:"monospace";font-size:16px}#chart-c1d61b9b-d1e5-4a44-b22a-5b712c0fc095 text.no_data{font-size:64px}
#chart-c1d61b9b-d1e5-4a44-b22a-5b712c0fc095{background-color:black}#chart-c1d61b9b-d1e5-4a44-b22a-5b712c0fc095 path,#chart-c1d61b9b-d1e5-4a44-b22a-5b712c0fc095 line,#chart-c1d61b9b-d1e5-4a44-b22a-5b712c0fc095 rect,#chart-c1d61b9b-d1e5-4a44-b22a-5b712c0fc095 circle{-webkit-transition:250ms;-moz-transition:250ms;transition:250ms}#chart-c1d61b9b-d1e5-4a44-b22a-5b712c0fc095 .graph &gt; .background{fill:black}#chart-c1d61b9b-d1e5-4a44-b22a-5b712c0fc095 .plot &gt; .background{fill:#111}#chart-c1d61b9b-d1e5-4a44-b22a-5b712c0fc095 .graph{fill:#999}#chart-c1d61b9b-d1e5-4a44-b22a-5b712c0fc095 text.no_data{fill:#eee}#chart-c1d61b9b-d1e5-4a44-b22a-5b712c0fc095 .title{fill:#eee}#chart-c1d61b9b-d1e5-4a44-b22a-5b712c0fc095 .legends .legend text{fill:#999}#chart-c1d61b9b-d1e5-4a44-b22a-5b712c0fc095 .legends .legend:hover text{fill:#eee}#chart-c1d61b9b-d1e5-4a44-b22a-5b712c0fc095 .axis .line{stroke:#eee}#chart-c1d61b9b-d1e5-4a44-b22a-5b712c0fc095 .axis .guide.line{stroke:#555}#chart-c1d61b9b-d1e5-4a44-b22a-5b712c0fc095 .axis .major.line{stroke:#999}#chart-c1d61b9b-d1e5-4a44-b22a-5b712c0fc095 .axis text.major{stroke:#eee;fill:#eee}#chart-c1d61b9b-d1e5-4a44-b22a-5b712c0fc095 .axis.y .guides:hover .guide.line,#chart-c1d61b9b-d1e5-4a44-b22a-5b712c0fc095 .line-graph .axis.x .guides:hover .guide.line,#chart-c1d61b9b-d1e5-4a44-b22a-5b712c0fc095 .stackedline-graph .axis.x .guides:hover .guide.line,#chart-c1d61b9b-d1e5-4a44-b22a-5b712c0fc095 .xy-graph .axis.x .guides:hover .guide.line{stroke:#eee}#chart-c1d61b9b-d1e5-4a44-b22a-5b712c0fc095 .axis .guides:hover text{fill:#eee}#chart-c1d61b9b-d1e5-4a44-b22a-5b712c0fc095 .reactive{fill-opacity:.8}#chart-c1d61b9b-d1e5-4a44-b22a-5b712c0fc095 .reactive.active,#chart-c1d61b9b-d1e5-4a44-b22a-5b712c0fc095 .active .reactive{fill-opacity:.4}#chart-c1d61b9b-d1e5-4a44-b22a-5b712c0fc095 .series{stroke-width:1.0;stroke-linejoin:round;stroke-linecap:round;stroke-dasharray:0,0}#chart-c1d61b9b-d1e5-4a44-b22a-5b712c0fc095 .series text{fill:#eee}#chart-c1d61b9b-d1e5-4a44-b22a-5b712c0fc095 .tooltip rect{fill:#111;stroke:#eee}#chart-c1d61b9b-d1e5-4a44-b22a-5b712c0fc095 .tooltip text{fill:#eee}#chart-c1d61b9b-d1e5-4a44-b22a-5b712c0fc095 .map-element{fill:#999;stroke:#555 !important;opacity:.9;stroke-width:3;-webkit-transition:250ms;-moz-transition:250ms;-o-transition:250ms;transition:250ms}#chart-c1d61b9b-d1e5-4a44-b22a-5b712c0fc095 .map-element:hover{opacity:1;stroke-width:10}#chart-c1d61b9b-d1e5-4a44-b22a-5b712c0fc095 .color-0,#chart-c1d61b9b-d1e5-4a44-b22a-5b712c0fc095 .color-0 a:visited{stroke:#ff5995;fill:#ff5995}#chart-c1d61b9b-d1e5-4a44-b22a-5b712c0fc095 .color-1,#chart-c1d61b9b-d1e5-4a44-b22a-5b712c0fc095 .color-1 a:visited{stroke:#b6e354;fill:#b6e354}#chart-c1d61b9b-d1e5-4a44-b22a-5b712c0fc095 .color-2,#chart-c1d61b9b-d1e5-4a44-b22a-5b712c0fc095 .color-2 a:visited{stroke:#feed6c;fill:#feed6c}#chart-c1d61b9b-d1e5-4a44-b22a-5b712c0fc095 .color-3,#chart-c1d61b9b-d1e5-4a44-b22a-5b712c0fc095 .color-3 a:visited{stroke:#8cedff;fill:#8cedff}#chart-c1d61b9b-d1e5-4a44-b22a-5b712c0fc095 .color-4,#chart-c1d61b9b-d1e5-4a44-b22a-5b712c0fc095 .color-4 a:visited{stroke:#9e6ffe;fill:#9e6ffe}#chart-c1d61b9b-d1e5-4a44-b22a-5b712c0fc095 .color-5,#chart-c1d61b9b-d1e5-4a44-b22a-5b712c0fc095 .color-5 a:visited{stroke:#899ca1;fill:#899ca1}#chart-c1d61b9b-d1e5-4a44-b22a-5b712c0fc095 .color-6,#chart-c1d61b9b-d1e5-4a44-b22a-5b712c0fc095 .color-6 a:visited{stroke:#f8f8f2;fill:#f8f8f2}#chart-c1d61b9b-d1e5-4a44-b22a-5b712c0fc095 .color-7,#chart-c1d61b9b-d1e5-4a44-b22a-5b712c0fc095 .color-7 a:visited{stroke:#bf4646;fill:#bf4646}#chart-c1d61b9b-d1e5-4a44-b22a-5b712c0fc095 .color-8,#chart-c1d61b9b-d1e5-4a44-b22a-5b712c0fc095 .color-8 a:visited{stroke:#516083;fill:#516083}#chart-c1d61b9b-d1e5-4a44-b22a-5b712c0fc095 .color-9,#chart-c1d61b9b-d1e5-4a44-b22a-5b712c0fc095 .color-9 a:visited{stroke:#f92672;fill:#f92672}#chart-c1d61b9b-d1e5-4a44-b22a-5b712c0fc095 .color-10,#chart-c1d61b9b-d1e5-4a44-b22a-5b712c0fc095 .color-10 a:visited{stroke:#82b414;fill:#82b414}#chart-c1d61b9b-d1e5-4a44-b22a-5b712c0fc095 .color-11,#chart-c1d61b9b-d1e5-4a44-b22a-5b712c0fc095 .color-11 a:visited{stroke:#fd971f;fill:#fd971f}#chart-c1d61b9b-d1e5-4a44-b22a-5b712c0fc095 .color-12,#chart-c1d61b9b-d1e5-4a44-b22a-5b712c0fc095 .color-12 a:visited{stroke:#56c2d6;fill:#56c2d6}#chart-c1d61b9b-d1e5-4a44-b22a-5b712c0fc095 .color-13,#chart-c1d61b9b-d1e5-4a44-b22a-5b712c0fc095 .color-13 a:visited{stroke:#808384;fill:#808384}#chart-c1d61b9b-d1e5-4a44-b22a-5b712c0fc095 .color-14,#chart-c1d61b9b-d1e5-4a44-b22a-5b712c0fc095 .color-14 a:visited{stroke:#8c54fe;fill:#8c54fe}#chart-c1d61b9b-d1e5-4a44-b22a-5b712c0fc095 .color-15,#chart-c1d61b9b-d1e5-4a44-b22a-5b712c0fc095 .color-15 a:visited{stroke:#465457;fill:#465457}
#chart-c1d61b9b-d1e5-4a44-b22a-5b712c0fc095 text.no_data{text-anchor:middle}#chart-c1d61b9b-d1e5-4a44-b22a-5b712c0fc095 .guide.line{fill-opacity:0}#chart-c1d61b9b-d1e5-4a44-b22a-5b712c0fc095 .centered{text-anchor:middle}#chart-c1d61b9b-d1e5-4a44-b22a-5b712c0fc095 .title{text-anchor:middle}#chart-c1d61b9b-d1e5-4a44-b22a-5b712c0fc095 .legends .legend text{fill-opacity:1}#chart-c1d61b9b-d1e5-4a44-b22a-5b712c0fc095 .axis.x text{text-anchor:middle}#chart-c1d61b9b-d1e5-4a44-b22a-5b712c0fc095 .axis.x:not(.web) text[transform]{text-anchor:start}#chart-c1d61b9b-d1e5-4a44-b22a-5b712c0fc095 .axis.y text{text-anchor:end}#chart-c1d61b9b-d1e5-4a44-b22a-5b712c0fc095 .axis.y2 text{text-anchor:start}#chart-c1d61b9b-d1e5-4a44-b22a-5b712c0fc095 .axis.y .logarithmic text:not(.major),#chart-c1d61b9b-d1e5-4a44-b22a-5b712c0fc095 .axis.y2 .logarithmic text:not(.major){font-size:50%}#chart-c1d61b9b-d1e5-4a44-b22a-5b712c0fc095 .axis .guide.line{stroke-dasharray:4,4}#chart-c1d61b9b-d1e5-4a44-b22a-5b712c0fc095 .axis .major.guide.line{stroke-dasharray:6,6}#chart-c1d61b9b-d1e5-4a44-b22a-5b712c0fc095 .axis text.major{stroke-width:0.5px}#chart-c1d61b9b-d1e5-4a44-b22a-5b712c0fc095 .horizontal .axis.y .guide.line,#chart-c1d61b9b-d1e5-4a44-b22a-5b712c0fc095 .horizontal .axis.y2 .guide.line,#chart-c1d61b9b-d1e5-4a44-b22a-5b712c0fc095 .vertical .axis.x .guide.line{opacity:0}#chart-c1d61b9b-d1e5-4a44-b22a-5b712c0fc095 .horizontal .axis.always_show .guide.line,#chart-c1d61b9b-d1e5-4a44-b22a-5b712c0fc095 .vertical .axis.always_show .guide.line{opacity:1 !important}#chart-c1d61b9b-d1e5-4a44-b22a-5b712c0fc095 .axis.y .guides:hover .guide.line,#chart-c1d61b9b-d1e5-4a44-b22a-5b712c0fc095 .axis.y2 .guides:hover .guide.line,#chart-c1d61b9b-d1e5-4a44-b22a-5b712c0fc095 .axis.x .guides:hover .guide.line{opacity:1}#chart-c1d61b9b-d1e5-4a44-b22a-5b712c0fc095 .axis .guides:hover text{opacity:1}#chart-c1d61b9b-d1e5-4a44-b22a-5b712c0fc095 .nofill{fill:none}#chart-c1d61b9b-d1e5-4a44-b22a-5b712c0fc095 .subtle-fill{fill-opacity:.2}#chart-c1d61b9b-d1e5-4a44-b22a-5b712c0fc095 .dot{stroke-width:1px;fill-opacity:1}#chart-c1d61b9b-d1e5-4a44-b22a-5b712c0fc095 .dot.active{stroke-width:5px}#chart-c1d61b9b-d1e5-4a44-b22a-5b712c0fc095 .series text{stroke:none}#chart-c1d61b9b-d1e5-4a44-b22a-5b712c0fc095 .series text.active{opacity:1}#chart-c1d61b9b-d1e5-4a44-b22a-5b712c0fc095 .tooltip rect{fill-opacity:0.8}#chart-c1d61b9b-d1e5-4a44-b22a-5b712c0fc095 .tooltip text{fill-opacity:1}#chart-c1d61b9b-d1e5-4a44-b22a-5b712c0fc095 .tooltip text tspan.label{fill-opacity:.8}</style><script type="text/javascript">window.config = {"show_legend": true, "interpolation_parameters": {}, "margin": 20, "strict": false, "y_labels_major": null, "xrange": null, "legend_box_size": 12, "show_only_major_dots": false, "height": 768, "logarithmic": false, "tooltip_border_radius": 0, "stack_from_top": false, "x_label_rotation": 0, "y_label_rotation": 0, "js": ["http://kozea.github.io/pygal.js/javascripts/svg.jquery.js", "http://kozea.github.io/pygal.js/javascripts/pygal-tooltips.js"], "no_data_text": "No data", "mode": null, "x_labels_major_every": null, "legend_at_bottom": true, "show_minor_x_labels": true, "explicit_size": false, "show_dots": false, "interpolation_precision": 250, "include_x_axis": false, "spacing": 10, "no_prefix": false, "major_label_font_size": 10, "dots_size": 2.5, "value_font_size": 8, "legend_at_bottom_columns": null, "truncate_legend": null, "y_labels_major_count": null, "show_minor_y_labels": true, "legend_font_size": 14, "x_value_formatter": null, "margin_right": null, "truncate_label": null, "inner_radius": 0, "rounded_bars": null, "stroke": true, "x_labels_major_count": null, "show_y_labels": true, "y_title": "Users", "show_x_guides": false, "x_label_format": "%Y-%m-%d %H:%M:%S.%f", "show_y_guides": true, "margin_left": null, "tooltip_font_size": 16, "label_font_size": 10, "human_readable": false, "range": null, "width": 1024, "zero": 0, "margin_bottom": null, "style": {"font_family": "monospace", "foreground_dark": "#555", "plot_background": "#111", "stroke_width": 1.0, "stroke_dasharray": "0,0", "opacity": ".8", "opacity_hover": ".4", "stroke_style": "round", "colors": ["#ff5995", "#b6e354", "#feed6c", "#8cedff", "#9e6ffe", "#899ca1", "#f8f8f2", "#bf4646", "#516083", "#f92672", "#82b414", "#fd971f", "#56c2d6", "#808384", "#8c54fe", "#465457"], "foreground_light": "#eee", "foreground": "#999", "transition": "250ms", "background": "black"}, "pretty_print": false, "title_font_size": 16, "margin_top": null, "show_x_labels": true, "x_title": null, "x_labels": null, "missing_value_fill_truncation": "x", "css": ["style.css", "graph.css"], "no_data_font_size": 64, "interpolate": null, "title": "Election 7 Participation", "order_min": null, "print_zeroes": false, "half_pie": false, "fill": false, "y_labels_major_every": null, "print_values": false, "y_labels": null, "disable_xml_declaration": false, "x_labels_major": null}</script><script type="text/javascript" xlink:href="http://kozea.github.io/pygal.js/javascripts/svg.jquery.js" /><script type="text/javascript" xlink:href="http://kozea.github.io/pygal.js/javascripts/pygal-tooltips.js" /></defs><title>Election 7 Participation</title><g class="graph line-graph vertical"><rect class="background" height="768" width="1024" x="0" y="0" /><g class="plot" transform="translate(86, 46)"><rect class="background" height="657.0" width="918.0" x="0" y="0" /><g class="axis y"><g class="guides"><path class="axis major line" d="M0.000000 644.365385 h918.000000" /><text class="major" x="-5" y="647.8653846153846">0</text></g><g class="guides"><path class="guide line" d="M0.000000 596.372467 h918.000000" /><text class="" x="-5" y="599.8724674057235">1000</text></g><g class="guides"><path class="guide line" d="M0.000000 548.379550 h918.000000" /><text class="" x="-5" y="551.8795501960624">2000</text></g><g class="guides"><path class="guide line" d="M0.000000 500.386633 h918.000000" /><text class="" x="-5" y="503.88663298640125">3000</text></g><g class="guides"><path class="guide line" d="M0.000000 452.393716 h918.000000" /><text class="" x="-5" y="455.8937157767401">4000</text></g><g class="guides"><path class="major guide line" d="M0.000000 404.400799 h918.000000" /><text class="major" x="-5" y="407.90079856707905">5000</text></g><g class="guides"><path class="guide line" d="M0.000000 356.407881 h918.000000" /><text class="" x="-5" y="359.9078813574179">6000</text></g><g class="guides"><path class="guide line" d="M0.000000 308.414964 h918.000000" /><text class="" x="-5" y="311.9149641477568">7000</text></g><g class="guides"><path class="guide line" d="M0.000000 260.422047 h918.000000" /><text class="" x="-5" y="263.9220469380957">8000</text></g><g class="guides"><path class="guide line" d="M0.000000 212.429130 h918.000000" /><text class="" x="-5" y="215.9291297284346">9000</text></g><g class="guides"><path class="major guide line" d="M0.000000 164.436213 h918.000000" /><text class="major" x="-5" y="167.93621251877346">10000</text></g><g class="guides"><path class="guide line" d="M0.000000 116.443295 h918.000000" /><text class="" x="-5" y="119.94329530911239">11000</text></g><g class="guides"><path class="guide line" d="M0.000000 68.450378 h918.000000" /><text class="" x="-5" y="71.9503780994512">12000</text></g><g class="guides"><path class="guide line" d="M0.000000 20.457461 h918.000000" /><text class="" x="-5" y="23.957460889790127">13000</text></g></g><g class="series serie-0 color-0"><path class="line reactive nofill" d="M17.653846 644.365385 L20.105769 644.365385 22.557692 644.365385 25.009615 644.365385 27.461538 644.365385 29.913462 644.365385 32.365385 644.365385 34.817308 644.365385 37.269231 644.365385 39.721154 644.365385 42.173077 644.365385 44.625000 644.365385 47.076923 644.365385 49.528846 644.365385 51.980769 644.365385 54.432692 644.365385 56.884615 644.365385 59.336538 644.365385 61.788462 644.365385 64.240385 644.365385 66.692308 644.365385 69.144231 644.365385 71.596154 644.365385 74.048077 644.365385 76.500000 644.365385 78.951923 644.365385 81.403846 644.365385 83.855769 644.365385 86.307692 644.365385 88.759615 644.365385 91.211538 644.365385 93.663462 644.365385 96.115385 644.365385 98.567308 644.365385 101.019231 644.365385 103.471154 644.365385 105.923077 644.365385 108.375000 644.365385 110.826923 644.365385 113.278846 644.365385 115.730769 644.365385 118.182692 644.365385 120.634615 644.365385 123.086538 644.365385 125.538462 644.365385 127.990385 644.365385 130.442308 644.365385 132.894231 644.365385 135.346154 644.365385 137.798077 644.365385 140.250000 644.365385 142.701923 644.365385 145.153846 644.365385 147.605769 644.365385 150.057692 644.365385 152.509615 644.365385 154.961538 644.365385 157.413462 644.365385 159.865385 644.365385 162.317308 644.365385 164.769231 644.365385 167.221154 644.365385 169.673077 644.365385 172.125000 644.365385 174.576923 644.365385 177.028846 644.365385 179.480769 644.365385 181.932692 644.365385 184.384615 644.365385 186.836538 644.365385 189.288462 644.365385 191.740385 644.365385 194.192308 644.365385 196.644231 644.365385 199.096154 644.365385 201.548077 644.365385 204.000000 644.365385 206.451923 644.365385 208.903846 644.365385 211.355769 644.365385 213.807692 644.365385 216.259615 644.365385 218.711538 644.365385 221.163462 644.365385 223.615385 644.365385 226.067308 644.365385 228.519231 644.365385 230.971154 644.365385 233.423077 644.365385 235.875000 644.365385 238.326923 644.365385 240.778846 644.365385 243.230769 644.365385 245.682692 644.365385 248.134615 644.365385 250.586538 644.365385 253.038462 644.365385 255.490385 644.365385 257.942308 644.365385 260.394231 644.365385 262.846154 644.365385 265.298077 644.365385 267.750000 644.365385 270.201923 644.365385 272.653846 644.365385 275.105769 644.365385 277.557692 644.365385 280.009615 644.365385 282.461538 644.365385 284.913462 644.365385 287.365385 644.365385 289.817308 644.365385 292.269231 644.365385 294.721154 644.365385 297.173077 644.365385 299.625000 644.365385 302.076923 644.365385 304.528846 644.365385 306.980769 644.365385 309.432692 644.365385 311.884615 644.365385 314.336538 644.365385 316.788462 644.365385 319.240385 644.365385 321.692308 644.365385 324.144231 644.365385 326.596154 644.365385 329.048077 644.365385 331.500000 644.365385 333.951923 644.365385 336.403846 644.365385 338.855769 644.365385 341.307692 644.365385 343.759615 644.365385 346.211538 644.365385 348.663462 644.365385 351.115385 644.365385 353.567308 644.365385 356.019231 644.365385 358.471154 644.365385 360.923077 644.365385 363.375000 644.365385 365.826923 644.365385 368.278846 644.365385 370.730769 644.365385 373.182692 644.365385 375.634615 644.365385 378.086538 644.365385 380.538462 644.365385 382.990385 644.365385 385.442308 644.365385 387.894231 644.365385 390.346154 644.365385 392.798077 644.365385 395.250000 644.365385 397.701923 644.365385 400.153846 644.365385 402.605769 644.365385 405.057692 644.365385 407.509615 644.365385 409.961538 644.365385 412.413462 644.365385 414.865385 644.365385 417.317308 644.365385 419.769231 644.365385 422.221154 644.365385 424.673077 644.365385 427.125000 644.365385 429.576923 644.365385 432.028846 644.365385 434.480769 644.365385 436.932692 644.365385 439.384615 644.365385 441.836538 644.365385 444.288462 644.365385 446.740385 644.365385 449.192308 644.365385 451.644231 644.365385 454.096154 644.365385 456.548077 644.365385 459.000000 644.365385 461.451923 644.365385 463.903846 644.365385 466.355769 644.365385 468.807692 644.365385 471.259615 644.365385 473.711538 644.365385 476.163462 644.365385 478.615385 644.365385 481.067308 644.365385 483.519231 644.365385 485.971154 644.365385 488.423077 644.365385 490.875000 644.365385 493.326923 644.365385 495.778846 644.365385 498.230769 644.365385 500.682692 644.365385 503.134615 644.365385 505.586538 644.365385 508.038462 644.365385 510.490385 644.365385 512.942308 644.365385 515.394231 644.365385 517.846154 644.365385 520.298077 644.365385 522.750000 644.365385 525.201923 644.365385 527.653846 644.365385 530.105769 644.365385 532.557692 644.365385 535.009615 644.365385 537.461538 644.365385 539.913462 644.365385 542.365385 644.365385 544.817308 644.365385 547.269231 644.365385 549.721154 644.365385 552.173077 644.365385 554.625000 644.365385 557.076923 644.365385 559.528846 644.365385 561.980769 644.365385 564.432692 644.365385 566.884615 644.365385 569.336538 644.365385 571.788462 644.365385 574.240385 644.365385 576.692308 644.365385 579.144231 644.365385 581.596154 644.365385 584.048077 644.365385 586.500000 644.365385 588.951923 644.365385 591.403846 644.365385 593.855769 644.365385 596.307692 644.365385 598.759615 644.365385 601.211538 644.365385 603.663462 644.365385 606.115385 644.365385 608.567308 644.365385 611.019231 644.365385 613.471154 644.365385 615.923077 644.365385 618.375000 644.365385 620.826923 644.365385 623.278846 644.365385 625.730769 644.365385 628.182692 644.365385 630.634615 644.365385 633.086538 644.365385 635.538462 644.365385 637.990385 644.365385 640.442308 644.365385 642.894231 644.365385 645.346154 644.365385 647.798077 644.365385 650.250000 644.365385 652.701923 644.365385 655.153846 644.365385 657.605769 644.365385 660.057692 644.365385 662.509615 644.365385 664.961538 644.365385 667.413462 644.365385 669.865385 644.365385 672.317308 644.365385 674.769231 644.365385 677.221154 644.365385 679.673077 644.365385 682.125000 644.365385 684.576923 644.365385 687.028846 644.365385 689.480769 644.365385 691.932692 644.365385 694.384615 644.365385 696.836538 644.365385 699.288462 644.365385 701.740385 644.365385 704.192308 644.365385 706.644231 644.365385 709.096154 644.365385 711.548077 644.365385 714.000000 644.365385 716.451923 644.365385 718.903846 644.365385 721.355769 644.365385 723.807692 644.365385 726.259615 644.365385 728.711538 644.365385 731.163462 644.365385 733.615385 644.365385 736.067308 644.365385 738.519231 644.365385 740.971154 644.365385 743.423077 644.365385 745.875000 644.365385 748.326923 644.365385 750.778846 644.365385 753.230769 644.365385 755.682692 644.365385 758.134615 644.365385 760.586538 644.365385 763.038462 644.365385 765.490385 644.365385 767.942308 644.365385 770.394231 644.365385 772.846154 644.365385 775.298077 644.365385 777.750000 644.365385 780.201923 644.365385 782.653846 644.365385 785.105769 644.365385 787.557692 644.365385 790.009615 644.365385 792.461538 644.365385 794.913462 644.365385 797.365385 644.365385 799.817308 644.365385 802.269231 644.365385 804.721154 644.365385 807.173077 644.365385 809.625000 644.365385 812.076923 644.365385 814.528846 644.365385 816.980769 644.365385 819.432692 644.365385 821.884615 644.365385 824.336538 644.365385 826.788462 644.365385 829.240385 644.365385 831.692308 644.365385 834.144231 644.365385 836.596154 644.365385 839.048077 644.365385 841.500000 644.365385 843.951923 644.365385 846.403846 644.365385 848.855769 644.365385 851.307692 644.365385 853.759615 644.365385 856.211538 644.365385 858.663462 644.365385 861.115385 644.365385 863.567308 644.365385 866.019231 644.365385 868.471154 644.365385 870.923077 644.365385 873.375000 644.365385 875.826923 644.365385 878.278846 644.365385 880.730769 644.365385 883.182692 644.365385 885.634615 644.365385 888.086538 644.365385 890.538462 644.365385 892.990385 644.365385 895.442308 644.365385 897.894231 644.365385 900.346154 644.365385" /></g><g class="series serie-1 color-1"><path class="line reactive nofill" d="M17.653846 546.459834 L20.105769 501.826421 22.557692 476.198203 25.009615 461.224413 27.461538 449.898084 29.913462 440.443479 32.365385 432.236691 34.817308 421.822228 37.269231 413.087517 39.721154 399.745486 42.173077 383.811837 44.625000 366.390408 47.076923 343.785744 49.528846 319.981257 51.980769 303.423701 54.432692 292.385330 56.884615 281.538931 59.336538 270.692531 61.788462 258.694302 64.240385 248.231846 66.692308 238.777241 69.144231 232.250205 71.596154 226.635033 74.048077 220.875883 76.500000 215.308705 78.951923 210.701385 81.403846 206.190050 83.855769 203.934383 86.307692 201.918681 88.759615 199.759000 91.211538 197.839283 93.663462 195.535623 96.115385 193.471927 98.567308 190.832317 101.019231 188.384678 103.471154 184.785209 105.923077 179.793946 108.375000 175.138633 110.826923 171.347193 113.278846 168.083674 115.730769 163.428361 118.182692 158.869034 120.634615 155.269565 123.086538 150.614252 125.538462 147.542706 127.990385 143.799258 130.442308 141.015669 132.894231 138.280073 135.346154 135.112540 137.798077 132.088986 140.250000 129.449376 142.701923 127.913603 145.153846 126.761773 147.605769 125.657935 150.057692 124.602091 152.509615 123.402268 154.961538 122.346424 157.413462 120.666672 159.865385 118.219033 162.317308 116.059352 164.769231 113.227770 167.221154 109.292351 169.673077 106.364783 172.125000 103.101264 174.576923 99.693767 177.028846 96.238277 179.480769 93.022752 181.932692 90.095184 184.384615 87.023637 186.836538 84.288041 189.288462 82.176352 191.740385 79.680721 194.192308 77.473047 196.644231 75.505337 199.096154 73.297663 201.548077 71.713896 204.000000 70.514074 206.451923 69.506222 208.903846 68.642350 211.355769 67.922456 213.807692 67.250555 216.259615 65.906753 218.711538 64.850909 221.163462 63.459115 223.615385 62.403271 226.067308 59.379717 228.519231 57.124050 230.971154 54.964368 233.423077 52.852680 235.875000 50.357048 238.326923 48.005395 240.778846 46.085679 243.230769 44.021983 245.682692 42.054274 248.134615 40.326529 250.586538 38.502798 253.038462 37.302975 255.490385 35.863187 257.942308 35.143294 260.394231 34.375407 262.846154 33.703506 265.298077 33.223577 267.750000 32.455690 270.201923 32.263719 272.653846 31.975761 275.105769 31.543825 277.557692 30.823931 280.009615 29.864073 282.461538 29.144179 284.913462 28.568264 287.365385 27.560413 289.817308 26.744533 292.269231 26.360590 294.721154 25.592703 297.173077 24.728831 299.625000 24.104923 302.076923 23.145064 304.528846 22.089220 306.980769 21.561298 309.432692 20.985383 311.884615 19.929539 314.336538 19.257638 316.788462 18.393765 319.240385 17.529893 321.692308 17.049964 324.144231 16.426056 326.596154 15.754155 329.048077 15.418205 331.500000 15.082254 333.951923 14.314367 336.403846 13.594474 338.855769 13.114545 341.307692 12.634615 343.759615 12.634615 346.211538 12.634615 348.663462 12.634615 351.115385 12.634615 353.567308 12.634615 356.019231 12.634615 358.471154 12.634615 360.923077 12.634615 363.375000 12.634615 365.826923 12.634615 368.278846 12.634615 370.730769 12.634615 373.182692 12.634615 375.634615 12.634615 378.086538 12.634615 380.538462 12.634615 382.990385 12.634615 385.442308 12.634615 387.894231 12.634615 390.346154 12.634615 392.798077 12.634615 395.250000 12.634615 397.701923 12.634615 400.153846 12.634615 402.605769 12.634615 405.057692 12.634615 407.509615 12.634615 409.961538 12.634615 412.413462 12.634615 414.865385 12.634615 417.317308 12.634615 419.769231 12.634615 422.221154 12.634615 424.673077 12.634615 427.125000 12.634615 429.576923 12.634615 432.028846 12.634615 434.480769 12.634615 436.932692 12.634615 439.384615 12.634615 441.836538 12.634615 444.288462 12.634615 446.740385 12.634615 449.192308 12.634615 451.644231 12.634615 454.096154 12.634615 456.548077 12.634615 459.000000 12.634615 461.451923 12.634615 463.903846 12.634615 466.355769 12.634615 468.807692 12.634615 471.259615 12.634615 473.711538 12.634615 476.163462 12.634615 478.615385 12.634615 481.067308 12.634615 483.519231 12.634615 485.971154 12.634615 488.423077 12.634615 490.875000 12.634615 493.326923 12.634615 495.778846 12.634615 498.230769 12.634615 500.682692 12.634615 503.134615 12.634615 505.586538 12.634615 508.038462 12.634615 510.490385 12.634615 512.942308 12.634615 515.394231 12.634615 517.846154 12.634615 520.298077 12.634615 522.750000 12.634615 525.201923 12.634615 527.653846 12.634615 530.105769 12.634615 532.557692 12.634615 535.009615 12.634615 537.461538 12.634615 539.913462 12.634615 542.365385 12.634615 544.817308 12.634615 547.269231 12.634615 549.721154 12.634615 552.173077 12.634615 554.625000 12.634615 557.076923 12.634615 559.528846 12.634615 561.980769 12.634615 564.432692 12.634615 566.884615 12.634615 569.336538 12.634615 571.788462 12.634615 574.240385 12.634615 576.692308 12.634615 579.144231 12.634615 581.596154 12.634615 584.048077 12.634615 586.500000 12.634615 588.951923 12.634615 591.403846 12.634615 593.855769 12.634615 596.307692 12.634615 598.759615 12.634615 601.211538 12.634615 603.663462 12.634615 606.115385 12.634615 608.567308 12.634615 611.019231 12.634615 613.471154 12.634615 615.923077 12.634615 618.375000 12.634615 620.826923 12.634615 623.278846 12.634615 625.730769 12.634615 628.182692 12.634615 630.634615 12.634615 633.086538 12.634615 635.538462 12.634615 637.990385 12.634615 640.442308 12.634615 642.894231 12.634615 645.346154 12.634615 647.798077 12.634615 650.250000 12.634615 652.701923 12.634615 655.153846 12.634615 657.605769 12.634615 660.057692 12.634615 662.509615 12.634615 664.961538 12.634615 667.413462 12.634615 669.865385 12.634615 672.317308 12.634615 674.769231 12.634615 677.221154 12.634615 679.673077 12.634615 682.125000 12.634615 684.576923 12.634615 687.028846 12.634615 689.480769 12.634615 691.932692 12.634615 694.384615 12.634615 696.836538 12.634615 699.288462 12.634615 701.740385 12.634615 704.192308 12.634615 706.644231 12.634615 709.096154 12.634615 711.548077 12.634615 714.000000 12.634615 716.451923 12.634615 718.903846 12.634615 721.355769 12.634615 723.807692 12.634615 726.259615 12.634615 728.711538 12.634615 731.163462 12.634615 733.615385 12.634615 736.067308 12.634615 738.519231 12.634615 740.971154 12.634615 743.423077 12.634615 745.875000 12.634615 748.326923 12.634615 750.778846 12.634615 753.230769 12.634615 755.682692 12.634615 758.134615 12.634615 760.586538 12.634615 763.038462 12.634615 765.490385 12.634615 767.942308 12.634615 770.394231 12.634615 772.846154 12.634615 775.298077 12.634615 777.750000 12.634615 780.201923 12.634615 782.653846 12.634615 785.105769 12.634615 787.557692 12.634615 790.009615 12.634615 792.461538 12.634615 794.913462 12.634615 797.365385 12.634615 799.817308 12.634615 802.269231 12.634615 804.721154 12.634615 807.173077 12.634615 809.625000 12.634615 812.076923 12.634615 814.528846 12.634615 816.980769 12.634615 819.432692 12.634615 821.884615 12.634615 824.336538 12.634615 826.788462 12.634615 829.240385 12.634615 831.692308 12.634615 834.144231 12.634615 836.596154 12.634615 839.048077 12.634615 841.500000 12.634615 843.951923 12.634615 846.403846 12.634615 848.855769 12.634615 851.307692 12.634615 853.759615 12.634615 856.211538 12.634615 858.663462 12.634615 861.115385 12.634615 863.567308 12.634615 866.019231 12.634615 868.471154 12.634615 870.923077 12.634615 873.375000 12.634615 875.826923 12.634615 878.278846 12.634615 880.730769 12.634615 883.182692 12.634615 885.634615 12.634615 888.086538 12.634615 890.538462 12.634615 892.990385 12.634615 895.442308 12.634615 897.894231 12.634615 900.346154 12.634615" /></g></g><g class="titles"><text class="title plot_title" x="512.0" y="26">Election 7 Participation</text><text class="title" transform="rotate(-90 0.000000 374.500000)" x="0" y="400.5">Users</text></g><g class="plot overlay" transform="translate(86, 46)"><g class="series serie-0 color-0" /><g class="series serie-1 color-1" /></g><g class="plot text-overlay" transform="translate(86, 46)"><g class="series serie-0 color-0" /><g class="series serie-1 color-1" /></g><g class="plot tooltip-overlay" transform="translate(86, 46)"><g class="tooltip" style="opacity: 0" transform="translate(0 0)"><a><rect class="tooltip-box" height="0" rx="0" ry="0" width="0" /><text class="text"><tspan class="label" /><tspan class="value" /></text></a></g></g><g class="legends" transform="translate(96, 713)"><g class="legend reactive activate-serie" id="activate-serie-0"><rect class="color-0 reactive" height="12" width="12" x="0.0" y="1.0" /><text x="17.0" y="11.2">constituents</text></g><g class="legend reactive activate-serie" id="activate-serie-1"><rect class="color-1 reactive" height="12" width="12" x="459.0" y="1.0" /><text x="476.0" y="11.2">caucus</text></g></g></g></svg>