<?xml version='1.0' encoding='utf-8'?>
<svg xmlns:xlink="http://www.w3.org/1999/xlink" class="pygal-chart" id="chart-a32b73c3-f87e-43a6-9331-05b336643402" viewBox="0 0 1024 768" xmlns="http://www.w3.org/2000/svg"><!--Generated with pygal 1.7.0 (etree) ©Kozea 2011-2014 on 2018-03-25--><!--http://pygal.org--><!--http://github.com/Kozea/pygal--><defs><style type="text/css">#chart-a32b73c3-f87e-43a6-9331-05b336643402 .title{font-family:"monospace";font-size:16px}#chart-a32b73c3-f87e-43a6-9331-05b336643402 .legends .legend text{font-family:"monospace";font-size:14px}#chart-a32b73c3-f87e-43a6-9331-05b336643402 .axis text{font-family:"monospace";font-size:10px}#chart-a32b73c3-f87e-43a6-9331-05b336643402 .axis text.major{font-family:"monospace";font-size:10px}#chart-a32b73c3-f87e-43a6-9331-05b336643402 .series text{font-family:"monospace";font-size:8px}#chart-a32b73c3-f87e-43a6-9331-05b336643402 .tooltip text{font-family:"monospace";font-size:16px}#chart-a32b73c3-f87e-43a6-9331-05b336643402 text.no_data{font-size:64px}
#chart-a32b73c3-f87e-43a6-9331-05b336643402{background-color:black}#chart-a32b73c3-f87e-43a6-9331-05b336643402 path,#chart-a32b73c3-f87e-43a6-9331-05b336643402 line,#chart-a32b73c3-f87e-43a6-9331-05b336643402 rect,#chart-a32b73c3-f87e-43a6-9331-05b336643402 circle{-webkit-transition:250ms;-moz-transition:250ms;transition:250ms}#chart-a32b73c3-f87e-43a6-9331-05b336643402 .graph &gt; .background{fill:black}#chart-a32b73c3-f87e-43a6-9331-05b336643402 .plot &gt; .background{fill:#111}#chart-a32b73c3-f87e-43a6-9331-05b336643402 .graph{fill:#999}#chart-a32b73c3-f87e-43a6-9331-05b336643402 text.no_data{fill:#eee}#chart-a32b73c3-f87e-43a6-9331-05b336643402 .title{fill:#eee}#chart-a32b73c3-f87e-43a6-9331-05b336643402 .legends .legend text{fill:#999}#chart-a32b73c3-f87e-43a6-9331-05b336643402 .legends .legend:hover text{fill:#eee}#chart-a32b73c3-f87e-43a6-9331-05b336643402 .axis .line{stroke:#eee}#chart-a32b73c3-f87e-43a6-9331-05b336643402 .axis .guide.line{stroke:#555}#chart-a32b73c3-f87e-43a6-9331-05b336643402 .axis .major.line{stroke:#999}#chart-a32b73c3-f87e-43a6-9331-05b336643402 .axis text.major{stroke:#eee;fill:#eee}#chart-a32b73c3-f87e-43a6-9331-05b336643402 .axis.y .guides:hover .guide.line,#chart-a32b73c3-f87e-43a6-9331-05b336643402 .line-graph .axis.x .guides:hover .guide.line,#chart-a32b73c3-f87e-43a6-9331-05b336643402 .stackedline-graph .axis.x .guides:hover .guide.line,#chart-a32b73c3-f87e-43a6-9331-05b336643402 .xy-graph .axis.x .guides:hover .guide.line{stroke:#eee}#chart-a32b73c3-f87e-43a6-9331-05b336643402 .axis .guides:hover text{fill:#eee}#chart-a32b73c3-f87e-43a6-9331-05b336643402 .reactive{fill-opacity:.8}#chart-a32b73c3-f87e-43a6-9331-05b336643402 .reactive.active,#chart-a32b73c3-f87e-43a6-9331-05b336643402 .active .reactive{fill-opacity:.4}#chart-a32b73c3-f87e-43a6-9331-05b336643402 .series{stroke-width:1.0;stroke-linejoin:round;stroke-linecap:round;stroke-dasharray:0,0}#chart-a32b73c3-f87e-43a6-9331-05b336643402 .series text{fill:#eee}#chart-a32b73c3-f87e-43a6-9331-05b336643402 .tooltip rect{fill:#111;stroke:#eee}#chart-a32b73c3-f87e-43a6-9331-05b336643402 .tooltip text{fill:#eee}#chart-a32b73c3-f87e-43a6-9331-05b336643402 .map-element{fill:#999;stroke:#555 !important;opacity:.9;stroke-width:3;-webkit-transition:250ms;-moz-transition:250ms;-o-transition:250ms;transition:250ms}#chart-a32b73c3-f87e-43a6-9331-05b336643402 .map-element:hover{opacity:1;stroke-width:10}#chart-a32b73c3-f87e-43a6-9331-05b336643402 .color-0,#chart-a32b73c3-f87e-43a6-9331-05b336643402 .color-0 a:visited{stroke:#ff5995;fill:#ff5995}#chart-a32b73c3-f87e-43a6-9331-05b336643402 .color-1,#chart-a32b73c3-f87e-43a6-9331-05b336643402 .color-1 a:visited{stroke:#b6e354;fill:#b6e354}#chart-a32b73c3-f87e-43a6-9331-05b336643402 .color-2,#chart-a32b73c3-f87e-43a6-9331-05b336643402 .color-2 a:visited{stroke:#feed6c;fill:#feed6c}#chart-a32b73c3-f87e-43a6-9331-05b336643402 .color-3,#chart-a32b73c3-f87e-43a6-9331-05b336643402 .color-3 a:visited{stroke:#8cedff;fill:#8cedff}#chart-a32b73c3-f87e-43a6-9331-05b336643402 .color-4,#chart-a32b73c3-f87e-43a6-9331-05b336643402 .color-4 a:visited{stroke:#9e6ffe;fill:#9e6ffe}#chart-a32b73c3-f87e-43a6-9331-05b336643402 .color-5,#chart-a32b73c3-f87e-43a6-9331-05b336643402 .color-5 a:visited{stroke:#899ca1;fill:#899ca1}#chart-a32b73c3-f87e-43a6-9331-05b336643402 .color-6,#chart-a32b73c3-f87e-43a6-9331-05b336643402 .color-6 a:visited{stroke:#f8f8f2;fill:#f8f8f2}#chart-a32b73c3-f87e-43a6-9331-05b336643402 .color-7,#chart-a32b73c3-f87e-43a6-9331-05b336643402 .color-7 a:visited{stroke:#bf4646;fill:#bf4646}#chart-a32b73c3-f87e-43a6-9331-05b336643402 .color-8,#chart-a32b73c3-f87e-43a6-9331-05b336643402 .color-8 a:visited{stroke:#516083;fill:#516083}#chart-a32b73c3-f87e-43a6-9331-05b336643402 .color-9,#chart-a32b73c3-f87e-43a6-9331-05b336643402 .color-9 a:visited{stroke:#f92672;fill:#f92672}#chart-a32b73c3-f87e-43a6-9331-05b336643402 .color-10,#chart-a32b73c3-f87e-43a6-9331-05b336643402 .color-10 a:visited{stroke:#82b414;fill:#82b414}#chart-a32b73c3-f87e-43a6-9331-05b336643402 .color-11,#chart-a32b73c3-f87e-43a6-9331-05b336643402 .color-11 a:visited{stroke:#fd971f;fill:#fd971f}#chart-a32b73c3-f87e-43a6-9331-05b336643402 .color-12,#chart-a32b73c3-f87e-43a6-9331-05b336643402 .color-12 a:visited{stroke:#56c2d6;fill:#56c2d6}#chart-a32b73c3-f87e-43a6-9331-05b336643402 .color-13,#chart-a32b73c3-f87e-43a6-9331-05b336643402 .color-13 a:visited{stroke:#808384;fill:#808384}#chart-a32b73c3-f87e-43a6-9331-05b336643402 .color-14,#chart-a32b73c3-f87e-43a6-9331-05b336643402 .color-14 a:visited{stroke:#8c54fe;fill:#8c54fe}#chart-a32b73c3-f87e-43a6-9331-05b336643402 .color-15,#chart-a32b73c3-f87e-43a6-9331-05b336643402 .color-15 a:visited{stroke:#465457;fill:#465457}
#chart-a32b73c3-f87e-43a6-9331-05b336643402 text.no_data{text-anchor:middle}#chart-a32b73c3-f87e-43a6-9331-05b336643402 .guide.line{fill-opacity:0}#chart-a32b73c3-f87e-43a6-9331-05b336643402 .centered{text-anchor:middle}#chart-a32b73c3-f87e-43a6-9331-05b336643402 .title{text-anchor:middle}#chart-a32b73c3-f87e-43a6-9331-05b336643402 .legends .legend text{fill-opacity:1}#chart-a32b73c3-f87e-43a6-9331-05b336643402 .axis.x text{text-anchor:middle}#chart-a32b73c3-f87e-43a6-9331-05b336643402 .axis.x:not(.web) text[transform]{text-anchor:start}#chart-a32b73c3-f87e-43a6-9331-05b336643402 .axis.y text{text-anchor:end}#chart-a32b73c3-f87e-43a6-9331-05b336643402 .axis.y2 text{text-anchor:start}#chart-a32b73c3-f87e-43a6-9331-05b336643402 .axis.y .logarithmic text:not(.major),#chart-a32b73c3-f87e-43a6-9331-05b336643402 .axis.y2 .logarithmic text:not(.major){font-size:50%}#chart-a32b73c3-f87e-43a6-9331-05b336643402 .axis .guide.line{stroke-dasharray:4,4}#chart-a32b73c3-f87e-43a6-9331-05b336643402 .axis .major.guide.line{stroke-dasharray:6,6}#chart-a32b73c3-f87e-43a6-9331-05b336643402 .axis text.major{stroke-width:0.5px}#chart-a32b73c3-f87e-43a6-9331-05b336643402 .horizontal .axis.y .guide.line,#chart-a32b73c3-f87e-43a6-9331-05b336643402 .horizontal .axis.y2 .guide.line,#chart-a32b73c3-f87e-43a6-9331-05b336643402 .vertical .axis.x .guide.line{opacity:0}#chart-a32b73c3-f87e-43a6-9331-05b336643402 .horizontal .axis.always_show .guide.line,#chart-a32b73c3-f87e-43a6-9331-05b336643402 .vertical .axis.always_show .guide.line{opacity:1 !important}#chart-a32b73c3-f87e-43a6-9331-05b336643402 .axis.y .guides:hover .guide.line,#chart-a32b73c3-f87e-43a6-9331-05b336643402 .axis.y2 .guides:hover .guide.line,#chart-a32b73c3-f87e-43a6-9331-05b336643402 .axis.x .guides:hover .guide.line{opacity:1}#chart-a32b73c3-f87e-43a6-9331-05b336643402 .axis .guides:hover text{opacity:1}#chart-a32b73c3-f87e-43a6-9331-05b336643402 .nofill{fill:none}#chart-a32b73c3-f87e-43a6-9331-05b336643402 .subtle-fill{fill-opacity:.2}#chart-a32b73c3-f87e-43a6-9331-05b336643402 .dot{stroke-width:1px;fill-opacity:1}#chart-a32b73c3-f87e-43a6-9331-05b336643402 .dot.active{stroke-width:5px}#chart-a32b73c3-f87e-43a6-9331-05b336643402 .series text{stroke:none}#chart-a32b73c3-f87e-43a6-9331-05b336643402 .series text.active{opacity:1}#chart-a32b73c3-f87e-43a6-9331-05b336643402 .tooltip rect{fill-opacity:0.8}#chart-a32b73c3-f87e-43a6-9331-05b336643402 .tooltip text{fill-opacity:1}#chart-a32b73c3-f87e-43a6-9331-05b336643402 .tooltip text tspan.label{fill-opacity:.8}</style><script type="text/javascript">window.config = {"css": ["style.css", "graph.css"], "disable_xml_declaration": false, "dots_size": 2.5, "explicit_size": false, "fill": false, "half_pie": false, "height": 768, "human_readable": false, "include_x_axis": false, "inner_radius": 0, "interpolate": null, "interpolation_parameters": {}, "interpolation_precision": 250, "js": ["http://kozea.github.io/pygal.js/javascripts/svg.jquery.js", "http://kozea.github.io/pygal.js/javascripts/pygal-tooltips.js"], "label_font_size": 10, "legend_at_bottom": true, "legend_at_bottom_columns": null, "legend_box_size": 12, "legend_font_size": 14, "logarithmic": false, "major_label_font_size": 10, "margin": 20, "margin_bottom": null, "margin_left": null, "margin_right": null, "margin_top": null, "missing_value_fill_truncation": "x", "mode": null, "no_data_font_size": 64, "no_data_text": "No data", "no_prefix": false, "order_min": null, "pretty_print": false, "print_values": false, "print_zeroes": false, "range": null, "rounded_bars": null, "show_dots": false, "show_legend": true, "show_minor_x_labels": true, "show_minor_y_labels": true, "show_only_major_dots": false, "show_x_guides": false, "show_x_labels": true, "show_y_guides": true, "show_y_labels": true, "spacing": 10, "stack_from_top": false, "strict": false, "stroke": true, "style": {"background": "black", "colors": ["#ff5995", "#b6e354", "#feed6c", "#8cedff", "#9e6ffe", "#899ca1", "#f8f8f2", "#bf4646", "#516083", "#f92672", "#82b414", "#fd971f", "#56c2d6", "#808384", "#8c54fe", "#465457"], "font_family": "monospace", "foreground": "#999", "foreground_dark": "#555", "foreground_light": "#eee", "opacity": ".8", "opacity_hover": ".4", "plot_background": "#111", "stroke_dasharray": "0,0", "stroke_style": "round", "stroke_width": 1.0, "transition": "250ms"}, "title": "Election 6 Participation", "title_font_size": 16, "tooltip_border_radius": 0, "tooltip_font_size": 16, "truncate_label": null, "truncate_legend": null, "value_font_size": 8, "width": 1024, "x_label_format": "%Y-%m-%d %H:%M:%S.%f", "x_label_rotation": 0, "x_labels": null, "x_labels_major": null, "x_labels_major_count": null, "x_labels_major_every": null, "x_title": null, "x_value_formatter": null, "xrange": null, "y_label_rotation": 0, "y_labels": null, "y_labels_major": null, "y_labels_major_count": null, "y_labels_major_every": null, "y_title": "Users", "zero": 0}</script><script type="text/javascript" xlink:href="http://kozea.github.io/pygal.js/javascripts/svg.jquery.js" /><script type="text/javascript" xlink:href="http://kozea.github.io/pygal.js/javascripts/pygal-tooltips.js" /></defs><title>Election 6 Participation</title><g class="graph line-graph vertical"><rect class="background" height="768" width="1024" x="0" y="0" /><g class="plot" transform="translate(80, 46)"><rect class="background" height="657.0" width="924.0" x="0" y="0" /><g class="axis y"><g class="guides"><path class="axis major line" d="M0.000000 644.365385 h924.000000" /><text class="major" x="-5" y="647.8653846153846">0</text></g><g class="guides"><path class="guide line" d="M0.000000 507.567903 h924.000000" /><text class="" x="-5" y="511.0679031881933">1000</text></g><g class="guides"><path class="guide line" d="M0.000000 370.770422 h924.000000" /><text class="" x="-5" y="374.27042176100207">2000</text></g><g class="guides"><path class="guide line" d="M0.000000 233.972940 h924.000000" /><text class="" x="-5" y="237.47294033381075">3000</text></g><g class="guides"><path class="guide line" d="M0.000000 97.175459 h924.000000" /><text class="" x="-5" y="100.6754589066195">4000</text></g></g><g class="series serie-0 color-0"><path class="line reactive nofill" d="M17.769231 644.365385 L20.237179 644.365385 22.705128 644.365385 25.173077 644.365385 27.641026 644.365385 30.108974 644.365385 32.576923 644.365385 35.044872 644.365385 37.512821 644.365385 39.980769 644.365385 42.448718 644.365385 44.916667 644.365385 47.384615 644.365385 49.852564 644.365385 52.320513 644.365385 54.788462 644.365385 57.256410 644.365385 59.724359 644.365385 62.192308 644.365385 64.660256 644.365385 67.128205 644.365385 69.596154 644.365385 72.064103 644.365385 74.532051 644.365385 77.000000 644.365385 79.467949 644.365385 81.935897 644.365385 84.403846 644.365385 86.871795 644.365385 89.339744 644.365385 91.807692 644.365385 94.275641 644.365385 96.743590 644.365385 99.211538 644.365385 101.679487 644.365385 104.147436 644.365385 106.615385 644.365385 109.083333 644.365385 111.551282 644.365385 114.019231 644.365385 116.487179 644.365385 118.955128 644.365385 121.423077 644.365385 123.891026 644.365385 126.358974 644.365385 128.826923 644.365385 131.294872 644.365385 133.762821 644.365385 136.230769 644.365385 138.698718 644.365385 141.166667 644.365385 143.634615 644.365385 146.102564 644.365385 148.570513 644.365385 151.038462 644.365385 153.506410 644.365385 155.974359 644.365385 158.442308 644.365385 160.910256 644.365385 163.378205 644.365385 165.846154 644.365385 168.314103 644.365385 170.782051 644.365385 173.250000 644.365385 175.717949 644.365385 178.185897 644.365385 180.653846 644.365385 183.121795 644.365385 185.589744 644.365385 188.057692 644.365385 190.525641 644.365385 192.993590 644.365385 195.461538 644.365385 197.929487 644.365385 200.397436 644.365385 202.865385 644.365385 205.333333 644.365385 207.801282 644.365385 210.269231 644.365385 212.737179 644.365385 215.205128 644.365385 217.673077 644.365385 220.141026 644.365385 222.608974 644.365385 225.076923 644.365385 227.544872 644.365385 230.012821 644.365385 232.480769 644.365385 234.948718 644.365385 237.416667 644.365385 239.884615 644.365385 242.352564 644.365385 244.820513 644.365385 247.288462 644.365385 249.756410 644.365385 252.224359 644.365385 254.692308 644.365385 257.160256 644.365385 259.628205 644.365385 262.096154 644.365385 264.564103 644.365385 267.032051 644.365385 269.500000 644.365385 271.967949 644.365385 274.435897 644.365385 276.903846 644.365385 279.371795 644.365385 281.839744 644.365385 284.307692 644.365385 286.775641 644.365385 289.243590 644.365385 291.711538 644.365385 294.179487 644.365385 296.647436 644.365385 299.115385 644.365385 301.583333 644.365385 304.051282 644.365385 306.519231 644.365385 308.987179 644.365385 311.455128 644.365385 313.923077 644.365385 316.391026 644.365385 318.858974 644.365385 321.326923 644.365385 323.794872 644.365385 326.262821 644.365385 328.730769 644.365385 331.198718 644.365385 333.666667 644.365385 336.134615 644.365385 338.602564 644.365385 341.070513 644.365385 343.538462 644.365385 346.006410 644.365385 348.474359 644.365385 350.942308 644.365385 353.410256 644.365385 355.878205 644.365385 358.346154 644.365385 360.814103 644.365385 363.282051 644.365385 365.750000 644.365385 368.217949 644.365385 370.685897 644.365385 373.153846 644.365385 375.621795 644.365385 378.089744 644.365385 380.557692 644.365385 383.025641 644.365385 385.493590 644.365385 387.961538 644.365385 390.429487 644.365385 392.897436 644.365385 395.365385 644.365385 397.833333 644.365385 400.301282 644.365385 402.769231 644.365385 405.237179 644.365385 407.705128 644.365385 410.173077 644.365385 412.641026 644.365385 415.108974 644.365385 417.576923 644.365385 420.044872 644.365385 422.512821 644.365385 424.980769 644.365385 427.448718 644.365385 429.916667 644.365385 432.384615 594.571101 434.852564 573.777884 437.320513 562.013301 439.788462 553.942249 442.256410 548.743945 444.724359 543.272046 447.192308 537.252957 449.660256 532.601842 452.128205 527.129943 454.596154 521.794841 457.064103 515.912550 459.532051 508.935878 462.000000 501.275219 464.467949 494.572142 466.935897 490.194623 469.403846 485.953901 471.871795 480.071609 474.339744 475.010103 476.807692 470.769381 479.275641 466.118266 481.743590 463.382317 484.211538 459.415190 486.679487 455.721658 489.147436 451.480936 491.615385 449.018581 494.083333 446.829821 496.551282 445.325049 499.019231 443.136289 501.487179 442.315505 503.955128 441.631517 506.423077 440.400340 508.891026 438.895568 511.358974 438.074783 513.826923 437.117200 516.294872 435.475630 518.762821 434.381251 521.230769 433.013276 523.698718 431.234909 526.166667 429.866934 528.634615 428.772554 531.102564 426.583794 533.570513 424.942224 536.038462 422.753465 538.506410 421.522287 540.974359 419.743920 543.442308 418.375945 545.910256 417.007970 548.378205 415.503198 550.846154 413.861628 553.314103 413.177641 555.782051 411.946464 558.250000 411.672869 560.717949 411.536071 563.185897 410.988881 565.653846 409.894501 568.121795 409.210514 570.589744 408.663324 573.057692 408.389729 575.525641 407.158552 577.993590 406.884957 580.461538 405.927374 582.929487 405.243387 585.397436 404.559400 587.865385 403.738615 590.333333 403.328222 592.801282 402.781032 595.269231 402.370640 597.737179 401.139463 600.205128 399.908285 602.673077 398.540310 605.141026 397.856323 607.608974 397.309133 610.076923 396.898741 612.544872 395.941158 615.012821 395.667563 617.480769 395.667563 619.948718 395.530766 622.416667 395.120373 624.884615 395.120373 627.352564 395.120373 629.820513 394.709981 632.288462 394.436386 634.756410 393.752399 637.224359 393.205209 639.692308 392.794816 642.160256 392.247626 644.628205 391.563639 647.096154 391.290044 649.564103 391.016449 652.032051 390.332462 654.500000 389.374879 656.967949 388.964487 659.435897 387.870107 661.903846 387.322917 664.371795 386.228537 666.839744 385.818145 669.307692 385.407752 671.775641 385.270955 674.243590 384.997360 676.711538 384.313372 679.179487 384.176575 681.647436 384.039777 684.115385 383.629385 686.583333 383.492588 689.051282 383.082195 691.519231 382.671803 693.987179 382.124613 696.455128 382.124613 698.923077 381.987815 701.391026 381.714220 703.858974 381.303828 706.326923 380.893435 708.794872 380.619840 711.262821 380.346245 713.730769 379.662258 716.198718 379.251866 718.666667 378.704676 721.134615 378.567878 723.602564 378.157486 726.070513 377.747093 728.538462 377.199903 731.006410 377.199903 733.474359 377.063106 735.942308 377.063106 738.410256 377.063106 740.878205 376.515916 743.346154 376.379118 745.814103 375.831929 748.282051 375.421536 750.750000 374.737549 753.217949 374.463954 755.685897 374.327156 758.153846 373.779966 760.621795 373.369574 763.089744 372.959181 765.557692 372.685587 768.025641 372.138397 770.493590 372.138397 772.961538 371.728004 775.429487 371.180814 777.897436 370.907219 780.365385 370.496827 782.833333 370.223232 785.301282 370.086434 787.769231 369.812839 790.237179 369.812839 792.705128 369.676042 795.173077 369.402447 797.641026 369.265649 800.108974 368.718460 802.576923 368.308067 805.044872 368.308067 807.512821 367.760877 809.980769 367.487282 812.448718 367.213687 814.916667 366.940092 817.384615 365.982510 819.852564 365.298523 822.320513 364.751333 824.788462 364.340940 827.256410 363.793750 829.724359 363.246560 832.192308 362.425775 834.660256 361.057801 837.128205 360.784206 839.596154 359.963421 842.064103 359.689826 844.532051 359.279433 847.000000 358.595446 849.467949 358.048256 851.935897 357.911459 854.403846 357.637864 856.871795 357.501066 859.339744 357.501066 861.807692 357.364269 864.275641 357.227471 866.743590 357.090674 869.211538 356.817079 871.679487 356.543484 874.147436 355.585901 876.615385 355.449104 879.083333 355.038711 881.551282 354.491521 884.019231 354.217927 886.487179 353.944332 888.955128 353.533939 891.423077 353.397142 893.891026 353.123547 896.358974 352.439559 898.826923 351.892369 901.294872 351.618774 903.762821 350.797989 906.230769 350.797989" /></g><g class="series serie-1 color-1"><path class="line reactive nofill" d="M17.769231 600.043001 L20.237179 584.995278 22.705128 576.650631 25.173077 568.579580 27.641026 562.834086 30.108974 559.414149 32.576923 554.626237 35.044872 549.564730 37.512821 546.828780 39.980769 543.682438 42.448718 538.757729 44.916667 533.012235 47.384615 528.361120 49.852564 524.393993 52.320513 521.521246 54.788462 518.101309 57.256410 513.860587 59.724359 510.167055 62.192308 506.883916 64.660256 504.421561 67.128205 500.317637 69.596154 497.992079 72.064103 495.529725 74.532051 493.614560 77.000000 491.289003 79.467949 489.921028 81.935897 488.826648 84.403846 487.869066 86.871795 487.595471 89.339744 486.501091 91.807692 485.680306 94.275641 484.038736 96.743590 482.670762 99.211538 482.260369 101.679487 481.849977 104.147436 479.798014 106.615385 479.250825 109.083333 478.977230 111.551282 477.609255 114.019231 476.651672 116.487179 475.146900 118.955128 473.915723 121.423077 472.274153 123.891026 471.042976 126.358974 469.675001 128.826923 469.127811 131.294872 468.854216 133.762821 467.623039 136.230769 467.212646 138.698718 466.665456 141.166667 466.391861 143.634615 465.707874 146.102564 465.297481 148.570513 464.339899 151.038462 463.929507 153.506410 463.382317 155.974359 463.108722 158.442308 462.561532 160.910256 462.424734 163.378205 461.877544 165.846154 461.467152 168.314103 460.919962 170.782051 460.509570 173.250000 459.962380 175.717949 459.415190 178.185897 458.594405 180.653846 457.500025 183.121795 457.089633 185.589744 456.268848 188.057692 455.858455 190.525641 455.448063 192.993590 455.037670 195.461538 454.764075 197.929487 454.627278 200.397436 454.216885 202.865385 454.080088 205.333333 453.943290 207.801282 453.806493 210.269231 453.396101 212.737179 453.122506 215.205128 452.985708 217.673077 452.848911 220.141026 452.712113 222.608974 452.301721 225.076923 451.891328 227.544872 451.754531 230.012821 451.344138 232.480769 450.933746 234.948718 450.660151 237.416667 450.523353 239.884615 449.976164 242.352564 449.428974 244.820513 448.881784 247.288462 448.744986 249.756410 448.471391 252.224359 448.334594 254.692308 447.787404 257.160256 447.513809 259.628205 447.377011 262.096154 447.103416 264.564103 446.693024 267.032051 446.419429 269.500000 446.419429 271.967949 446.145834 274.435897 446.009037 276.903846 445.735442 279.371795 445.598644 281.839744 445.598644 284.307692 445.188252 286.775641 444.641062 289.243590 444.230669 291.711538 443.957074 294.179487 443.546682 296.647436 443.136289 299.115385 442.862694 301.583333 442.725897 304.051282 442.315505 306.519231 441.768315 308.987179 441.357922 311.455128 441.084327 313.923077 440.537137 316.391026 440.400340 318.858974 439.989947 321.326923 439.853150 323.794872 439.442757 326.262821 439.442757 328.730769 439.169162 331.198718 439.032365 333.666667 439.032365 336.134615 439.032365 338.602564 438.895568 341.070513 438.895568 343.538462 438.758770 346.006410 438.348378 348.474359 438.074783 350.942308 437.801188 353.410256 437.664390 355.878205 437.117200 358.346154 436.843605 360.814103 436.706808 363.282051 436.296415 365.750000 436.296415 368.217949 436.022820 370.685897 435.749225 373.153846 435.475630 375.621795 435.202036 378.089744 434.928441 380.557692 434.518048 383.025641 434.381251 385.493590 434.381251 387.961538 434.244453 390.429487 434.107656 392.897436 433.560466 395.365385 433.423668 397.833333 433.150073 400.301282 432.739681 402.769231 432.739681 405.237179 432.739681 407.705128 432.602883 410.173077 432.329288 412.641026 432.192491 415.108974 431.782098 417.576923 431.234909 420.044872 430.687719 422.512821 430.550921 424.980769 430.277326 427.448718 429.866934 429.916667 429.730136 432.384615 369.265649 434.852564 343.000533 437.320513 325.627253 439.788462 313.999467 442.256410 304.150048 444.724359 296.626187 447.192308 288.555135 449.660256 282.399249 452.128205 275.285780 454.596154 266.257146 457.064103 256.134132 459.532051 246.011119 462.000000 233.972940 464.467949 224.807509 466.935897 219.335610 469.403846 212.495736 471.871795 203.193507 474.339744 194.164873 476.807692 188.008987 479.275641 181.305910 481.743590 177.612378 484.211538 172.824466 486.679487 168.310149 489.147436 162.701453 491.615385 158.871123 494.083333 155.861578 496.551282 154.220009 499.019231 151.210464 501.487179 149.432097 503.955128 148.611312 506.423077 147.106540 508.891026 145.738565 511.358974 144.507387 513.826923 142.729020 516.294872 140.813855 518.762821 137.804311 521.230769 135.205159 523.698718 132.469209 526.166667 130.827639 528.634615 129.322867 531.102564 126.997310 533.570513 125.218943 536.038462 121.525411 538.506410 119.747043 540.974359 117.421486 543.442308 115.643119 545.910256 113.317562 548.378205 111.128802 550.846154 108.803245 553.314103 106.340890 555.782051 104.699320 558.250000 103.604941 560.717949 102.510561 563.185897 100.732193 565.653846 98.680231 568.121795 97.722649 570.589744 96.628269 573.057692 95.944282 575.525641 95.123497 577.993590 94.576307 580.461538 93.345129 582.929487 92.661142 585.397436 91.566762 587.865385 89.925192 590.333333 87.873230 592.801282 86.505255 595.269231 85.547673 597.737179 84.726888 600.205128 82.674926 602.673077 80.622964 605.141026 79.665381 607.608974 78.844596 610.076923 77.339824 612.544872 76.245444 615.012821 75.561457 617.480769 75.287862 619.948718 74.877469 622.416667 74.330280 624.884615 74.056685 627.352564 73.783090 629.820513 73.372697 632.288462 72.688710 634.756410 72.004722 637.224359 70.773545 639.692308 70.089558 642.160256 68.995178 644.628205 67.900798 647.096154 67.353608 649.564103 66.259228 652.032051 65.438443 654.500000 63.933671 656.967949 63.112886 659.435897 61.881709 661.903846 61.060924 664.371795 59.419354 666.839744 58.735367 669.307692 58.051379 671.775641 57.504189 674.243590 56.546607 676.711538 55.999417 679.179487 55.589025 681.647436 55.315430 684.115385 55.178632 686.583333 55.041835 689.051282 54.631442 691.519231 54.221050 693.987179 53.673860 696.455128 53.537062 698.923077 53.400265 701.391026 53.126670 703.858974 52.989872 706.326923 52.579480 708.794872 52.305885 711.262821 51.895493 713.730769 51.348303 716.198718 50.937910 718.666667 50.664315 721.134615 50.527518 723.602564 49.706733 726.070513 49.569935 728.538462 48.749150 731.006410 48.338758 733.474359 48.338758 735.942308 48.065163 738.410256 47.928366 740.878205 47.244378 743.346154 47.107581 745.814103 46.560391 748.282051 46.286796 750.750000 45.739606 753.217949 45.329213 755.685897 45.055618 758.153846 44.645226 760.621795 43.824441 763.089744 43.140454 765.557692 42.593264 768.025641 41.909276 770.493590 41.362086 772.961538 40.814897 775.429487 40.267707 777.897436 39.994112 780.365385 39.036529 782.833333 38.626137 785.301282 38.489339 787.769231 37.668554 790.237179 37.531757 792.705128 37.394960 795.173077 37.394960 797.641026 36.847770 800.108974 35.890187 802.576923 34.932605 805.044872 34.795807 807.512821 34.522212 809.980769 34.111820 812.448718 33.564630 814.916667 33.154238 817.384615 32.059858 819.852564 31.375870 822.320513 30.281490 824.788462 29.734301 827.256410 29.323908 829.724359 28.639921 832.192308 28.092731 834.660256 27.135148 837.128205 26.724756 839.596154 25.630376 842.064103 25.083186 844.532051 24.809591 847.000000 23.578414 849.467949 23.168021 851.935897 22.757629 854.403846 22.620832 856.871795 22.210439 859.339744 21.936844 861.807692 21.800047 864.275641 21.526452 866.743590 21.389654 869.211538 20.842464 871.679487 20.705667 874.147436 19.748084 876.615385 19.474489 879.083333 18.927300 881.551282 18.380110 884.019231 18.106515 886.487179 17.832920 888.955128 16.875337 891.423077 16.464945 893.891026 15.644160 896.358974 14.412983 898.826923 13.592198 901.294872 13.455400 903.762821 12.634615 906.230769 12.634615" /></g></g><g class="titles"><text class="title plot_title" x="512.0" y="26">Election 6 Participation</text><text class="title" transform="rotate(-90 0.000000 374.500000)" x="0" y="400.5">Users</text></g><g class="plot overlay" transform="translate(80, 46)"><g class="series serie-0 color-0" /><g class="series serie-1 color-1" /></g><g class="plot text-overlay" transform="translate(80, 46)"><g class="series serie-0 color-0" /><g class="series serie-1 color-1" /></g><g class="plot tooltip-overlay" transform="translate(80, 46)"><g class="tooltip" style="opacity: 0" transform="translate(0 0)"><a><rect class="tooltip-box" height="0" rx="0" ry="0" width="0" /><text class="text"><tspan class="label" /><tspan class="value" /></text></a></g></g><g class="legends" transform="translate(90, 713)"><g class="legend reactive activate-serie" id="activate-serie-0"><rect class="color-0 reactive" height="12" width="12" x="0.0" y="1.0" /><text x="17.0" y="11.2">constituents</text></g><g class="legend reactive activate-serie" id="activate-serie-1"><rect class="color-1 reactive" height="12" width="12" x="462.0" y="1.0" /><text x="479.0" y="11.2">caucus</text></g></g></g></svg>