<?xml version='1.0' encoding='utf-8'?>
<svg xmlns:xlink="http://www.w3.org/1999/xlink" class="pygal-chart" id="chart-f2b21b15-7e94-49db-acb2-8724bd9d390c" viewBox="0 0 1024 768" xmlns="http://www.w3.org/2000/svg"><!--Generated with pygal 1.7.0 (etree) ©Kozea 2011-2014 on 2018-03-26--><!--http://pygal.org--><!--http://github.com/Kozea/pygal--><defs><style type="text/css">#chart-f2b21b15-7e94-49db-acb2-8724bd9d390c .title{font-family:"monospace";font-size:16px}#chart-f2b21b15-7e94-49db-acb2-8724bd9d390c .legends .legend text{font-family:"monospace";font-size:14px}#chart-f2b21b15-7e94-49db-acb2-8724bd9d390c .axis text{font-family:"monospace";font-size:10px}#chart-f2b21b15-7e94-49db-acb2-8724bd9d390c .axis text.major{font-family:"monospace";font-size:10px}#chart-f2b21b15-7e94-49db-acb2-8724bd9d390c .series text{font-family:"monospace";font-size:8px}#chart-f2b21b15-7e94-49db-acb2-8724bd9d390c .tooltip text{font-family:"monospace";font-size:16px}#chart-f2b21b15-7e94-49db-acb2-8724bd9d390c text.no_data{font-size:64px}
#chart-f2b21b15-7e94-49db-acb2-8724bd9d390c{background-color:black}#chart-f2b21b15-7e94-49db-acb2-8724bd9d390c path,#chart-f2b21b15-7e94-49db-acb2-8724bd9d390c line,#chart-f2b21b15-7e94-49db-acb2-8724bd9d390c rect,#chart-f2b21b15-7e94-49db-acb2-8724bd9d390c circle{-webkit-transition:250ms;-moz-transition:250ms;transition:250ms}#chart-f2b21b15-7e94-49db-acb2-8724bd9d390c .graph &gt; .background{fill:black}#chart-f2b21b15-7e94-49db-acb2-8724bd9d390c .plot &gt; .background{fill:#111}#chart-f2b21b15-7e94-49db-acb2-8724bd9d390c .graph{fill:#999}#chart-f2b21b15-7e94-49db-acb2-8724bd9d390c text.no_data{fill:#eee}#chart-f2b21b15-7e94-49db-acb2-8724bd9d390c .title{fill:#eee}#chart-f2b21b15-7e94-49db-acb2-8724bd9d390c .legends .legend text{fill:#999}#chart-f2b21b15-7e94-49db-acb2-8724bd9d390c .legends .legend:hover text{fill:#eee}#chart-f2b21b15-7e94-49db-acb2-8724bd9d390c .axis .line{stroke:#eee}#chart-f2b21b15-7e94-49db-acb2-8724bd9d390c .axis .guide.line{stroke:#555}#chart-f2b21b15-7e94-49db-acb2-8724bd9d390c .axis .major.line{stroke:#999}#chart-f2b21b15-7e94-49db-acb2-8724bd9d390c .axis text.major{stroke:#eee;fill:#eee}#chart-f2b21b15-7e94-49db-acb2-8724bd9d390c .axis.y .guides:hover .guide.line,#chart-f2b21b15-7e94-49db-acb2-8724bd9d390c .line-graph .axis.x .guides:hover .guide.line,#chart-f2b21b15-7e94-49db-acb2-8724bd9d390c .stackedline-graph .axis.x .guides:hover .guide.line,#chart-f2b21b15-7e94-49db-acb2-8724bd9d390c .xy-graph .axis.x .guides:hover .guide.line{stroke:#eee}#chart-f2b21b15-7e94-49db-acb2-8724bd9d390c .axis .guides:hover text{fill:#eee}#chart-f2b21b15-7e94-49db-acb2-8724bd9d390c .reactive{fill-opacity:.8}#chart-f2b21b15-7e94-49db-acb2-8724bd9d390c .reactive.active,#chart-f2b21b15-7e94-49db-acb2-8724bd9d390c .active .reactive{fill-opacity:.4}#chart-f2b21b15-7e94-49db-acb2-8724bd9d390c .series{stroke-width:1.0;stroke-linejoin:round;stroke-linecap:round;stroke-dasharray:0,0}#chart-f2b21b15-7e94-49db-acb2-8724bd9d390c .series text{fill:#eee}#chart-f2b21b15-7e94-49db-acb2-8724bd9d390c .tooltip rect{fill:#111;stroke:#eee}#chart-f2b21b15-7e94-49db-acb2-8724bd9d390c .tooltip text{fill:#eee}#chart-f2b21b15-7e94-49db-acb2-8724bd9d390c .map-element{fill:#999;stroke:#555 !important;opacity:.9;stroke-width:3;-webkit-transition:250ms;-moz-transition:250ms;-o-transition:250ms;transition:250ms}#chart-f2b21b15-7e94-49db-acb2-8724bd9d390c .map-element:hover{opacity:1;stroke-width:10}#chart-f2b21b15-7e94-49db-acb2-8724bd9d390c .color-0,#chart-f2b21b15-7e94-49db-acb2-8724bd9d390c .color-0 a:visited{stroke:#ff5995;fill:#ff5995}#chart-f2b21b15-7e94-49db-acb2-8724bd9d390c .color-1,#chart-f2b21b15-7e94-49db-acb2-8724bd9d390c .color-1 a:visited{stroke:#b6e354;fill:#b6e354}#chart-f2b21b15-7e94-49db-acb2-8724bd9d390c .color-2,#chart-f2b21b15-7e94-49db-acb2-8724bd9d390c .color-2 a:visited{stroke:#feed6c;fill:#feed6c}#chart-f2b21b15-7e94-49db-acb2-8724bd9d390c .color-3,#chart-f2b21b15-7e94-49db-acb2-8724bd9d390c .color-3 a:visited{stroke:#8cedff;fill:#8cedff}#chart-f2b21b15-7e94-49db-acb2-8724bd9d390c .color-4,#chart-f2b21b15-7e94-49db-acb2-8724bd9d390c .color-4 a:visited{stroke:#9e6ffe;fill:#9e6ffe}#chart-f2b21b15-7e94-49db-acb2-8724bd9d390c .color-5,#chart-f2b21b15-7e94-49db-acb2-8724bd9d390c .color-5 a:visited{stroke:#899ca1;fill:#899ca1}#chart-f2b21b15-7e94-49db-acb2-8724bd9d390c .color-6,#chart-f2b21b15-7e94-49db-acb2-8724bd9d390c .color-6 a:visited{stroke:#f8f8f2;fill:#f8f8f2}#chart-f2b21b15-7e94-49db-acb2-8724bd9d390c .color-7,#chart-f2b21b15-7e94-49db-acb2-8724bd9d390c .color-7 a:visited{stroke:#bf4646;fill:#bf4646}#chart-f2b21b15-7e94-49db-acb2-8724bd9d390c .color-8,#chart-f2b21b15-7e94-49db-acb2-8724bd9d390c .color-8 a:visited{stroke:#516083;fill:#516083}#chart-f2b21b15-7e94-49db-acb2-8724bd9d390c .color-9,#chart-f2b21b15-7e94-49db-acb2-8724bd9d390c .color-9 a:visited{stroke:#f92672;fill:#f92672}#chart-f2b21b15-7e94-49db-acb2-8724bd9d390c .color-10,#chart-f2b21b15-7e94-49db-acb2-8724bd9d390c .color-10 a:visited{stroke:#82b414;fill:#82b414}#chart-f2b21b15-7e94-49db-acb2-8724bd9d390c .color-11,#chart-f2b21b15-7e94-49db-acb2-8724bd9d390c .color-11 a:visited{stroke:#fd971f;fill:#fd971f}#chart-f2b21b15-7e94-49db-acb2-8724bd9d390c .color-12,#chart-f2b21b15-7e94-49db-acb2-8724bd9d390c .color-12 a:visited{stroke:#56c2d6;fill:#56c2d6}#chart-f2b21b15-7e94-49db-acb2-8724bd9d390c .color-13,#chart-f2b21b15-7e94-49db-acb2-8724bd9d390c .color-13 a:visited{stroke:#808384;fill:#808384}#chart-f2b21b15-7e94-49db-acb2-8724bd9d390c .color-14,#chart-f2b21b15-7e94-49db-acb2-8724bd9d390c .color-14 a:visited{stroke:#8c54fe;fill:#8c54fe}#chart-f2b21b15-7e94-49db-acb2-8724bd9d390c .color-15,#chart-f2b21b15-7e94-49db-acb2-8724bd9d390c .color-15 a:visited{stroke:#465457;fill:#465457}
#chart-f2b21b15-7e94-49db-acb2-8724bd9d390c text.no_data{text-anchor:middle}#chart-f2b21b15-7e94-49db-acb2-8724bd9d390c .guide.line{fill-opacity:0}#chart-f2b21b15-7e94-49db-acb2-8724bd9d390c .centered{text-anchor:middle}#chart-f2b21b15-7e94-49db-acb2-8724bd9d390c .title{text-anchor:middle}#chart-f2b21b15-7e94-49db-acb2-8724bd9d390c .legends .legend text{fill-opacity:1}#chart-f2b21b15-7e94-49db-acb2-8724bd9d390c .axis.x text{text-anchor:middle}#chart-f2b21b15-7e94-49db-acb2-8724bd9d390c .axis.x:not(.web) text[transform]{text-anchor:start}#chart-f2b21b15-7e94-49db-acb2-8724bd9d390c .axis.y text{text-anchor:end}#chart-f2b21b15-7e94-49db-acb2-8724bd9d390c .axis.y2 text{text-anchor:start}#chart-f2b21b15-7e94-49db-acb2-8724bd9d390c .axis.y .logarithmic text:not(.major),#chart-f2b21b15-7e94-49db-acb2-8724bd9d390c .axis.y2 .logarithmic text:not(.major){font-size:50%}#chart-f2b21b15-7e94-49db-acb2-8724bd9d390c .axis .guide.line{stroke-dasharray:4,4}#chart-f2b21b15-7e94-49db-acb2-8724bd9d390c .axis .major.guide.line{stroke-dasharray:6,6}#chart-f2b21b15-7e94-49db-acb2-8724bd9d390c .axis text.major{stroke-width:0.5px}#chart-f2b21b15-7e94-49db-acb2-8724bd9d390c .horizontal .axis.y .guide.line,#chart-f2b21b15-7e94-49db-acb2-8724bd9d390c .horizontal .axis.y2 .guide.line,#chart-f2b21b15-7e94-49db-acb2-8724bd9d390c .vertical .axis.x .guide.line{opacity:0}#chart-f2b21b15-7e94-49db-acb2-8724bd9d390c .horizontal .axis.always_show .guide.line,#chart-f2b21b15-7e94-49db-acb2-8724bd9d390c .vertical .axis.always_show .guide.line{opacity:1 !important}#chart-f2b21b15-7e94-49db-acb2-8724bd9d390c .axis.y .guides:hover .guide.line,#chart-f2b21b15-7e94-49db-acb2-8724bd9d390c .axis.y2 .guides:hover .guide.line,#chart-f2b21b15-7e94-49db-acb2-8724bd9d390c .axis.x .guides:hover .guide.line{opacity:1}#chart-f2b21b15-7e94-49db-acb2-8724bd9d390c .axis .guides:hover text{opacity:1}#chart-f2b21b15-7e94-49db-acb2-8724bd9d390c .nofill{fill:none}#chart-f2b21b15-7e94-49db-acb2-8724bd9d390c .subtle-fill{fill-opacity:.2}#chart-f2b21b15-7e94-49db-acb2-8724bd9d390c .dot{stroke-width:1px;fill-opacity:1}#chart-f2b21b15-7e94-49db-acb2-8724bd9d390c .dot.active{stroke-width:5px}#chart-f2b21b15-7e94-49db-acb2-8724bd9d390c .series text{stroke:none}#chart-f2b21b15-7e94-49db-acb2-8724bd9d390c .series text.active{opacity:1}#chart-f2b21b15-7e94-49db-acb2-8724bd9d390c .tooltip rect{fill-opacity:0.8}#chart-f2b21b15-7e94-49db-acb2-8724bd9d390c .tooltip text{fill-opacity:1}#chart-f2b21b15-7e94-49db-acb2-8724bd9d390c .tooltip text tspan.label{fill-opacity:.8}</style><script type="text/javascript">window.config = {"css": ["style.css", "graph.css"], "disable_xml_declaration": false, "dots_size": 2.5, "explicit_size": false, "fill": false, "half_pie": false, "height": 768, "human_readable": false, "include_x_axis": false, "inner_radius": 0, "interpolate": null, "interpolation_parameters": {}, "interpolation_precision": 250, "js": ["http://kozea.github.io/pygal.js/javascripts/svg.jquery.js", "http://kozea.github.io/pygal.js/javascripts/pygal-tooltips.js"], "label_font_size": 10, "legend_at_bottom": true, "legend_at_bottom_columns": null, "legend_box_size": 12, "legend_font_size": 14, "logarithmic": false, "major_label_font_size": 10, "margin": 20, "margin_bottom": null, "margin_left": null, "margin_right": null, "margin_top": null, "missing_value_fill_truncation": "x", "mode": null, "no_data_font_size": 64, "no_data_text": "No data", "no_prefix": false, "order_min": null, "pretty_print": false, "print_values": false, "print_zeroes": false, "range": null, "rounded_bars": null, "show_dots": false, "show_legend": true, "show_minor_x_labels": true, "show_minor_y_labels": true, "show_only_major_dots": false, "show_x_guides": false, "show_x_labels": true, "show_y_guides": true, "show_y_labels": true, "spacing": 10, "stack_from_top": false, "strict": false, "stroke": true, "style": {"background": "black", "colors": ["#ff5995", "#b6e354", "#feed6c", "#8cedff", "#9e6ffe", "#899ca1", "#f8f8f2", "#bf4646", "#516083", "#f92672", "#82b414", "#fd971f", "#56c2d6", "#808384", "#8c54fe", "#465457"], "font_family": "monospace", "foreground": "#999", "foreground_dark": "#555", "foreground_light": "#eee", "opacity": ".8", "opacity_hover": ".4", "plot_background": "#111", "stroke_dasharray": "0,0", "stroke_style": "round", "stroke_width": 1.0, "transition": "250ms"}, "title": "Election 4 Participation", "title_font_size": 16, "tooltip_border_radius": 0, "tooltip_font_size": 16, "truncate_label": null, "truncate_legend": null, "value_font_size": 8, "width": 1024, "x_label_format": "%Y-%m-%d %H:%M:%S.%f", "x_label_rotation": 0, "x_labels": null, "x_labels_major": null, "x_labels_major_count": null, "x_labels_major_every": null, "x_title": null, "x_value_formatter": null, "xrange": null, "y_label_rotation": 0, "y_labels": null, "y_labels_major": null, "y_labels_major_count": null, "y_labels_major_every": null, "y_title": "Users", "zero": 0}</script><script type="text/javascript" xlink:href="http://kozea.github.io/pygal.js/javascripts/svg.jquery.js" /><script type="text/javascript" xlink:href="http://kozea.github.io/pygal.js/javascripts/pygal-tooltips.js" /></defs><title>Election 4 Participation</title><g class="graph line-graph vertical"><rect class="background" height="768" width="1024" x="0" y="0" /><g class="plot" transform="translate(80, 46)"><rect class="background" height="657.0" width="924.0" x="0" y="0" /><g class="axis y"><g class="guides"><path class="axis major line" d="M0.000000 644.365385 h924.000000" /><text class="major" x="-5" y="647.8653846153846">0</text></g><g class="guides"><path class="guide line" d="M0.000000 565.507468 h924.000000" /><text class="" x="-5" y="569.0074680967516">1000</text></g><g class="guides"><path class="guide line" d="M0.000000 486.649552 h924.000000" /><text class="" x="-5" y="490.1495515781186">2000</text></g><g class="guides"><path class="guide line" d="M0.000000 407.791635 h924.000000" /><text class="" x="-5" y="411.29163505948554">3000</text></g><g class="guides"><path class="guide line" d="M0.000000 328.933719 h924.000000" /><text class="" x="-5" y="332.4337185408525">4000</text></g><g class="guides"><path class="major guide line" d="M0.000000 250.075802 h924.000000" /><text class="major" x="-5" y="253.57580202221948">5000</text></g><g class="guides"><path class="guide line" d="M0.000000 171.217886 h924.000000" /><text class="" x="-5" y="174.71788550358644">6000</text></g><g class="guides"><path class="guide line" d="M0.000000 92.359969 h924.000000" /><text class="" x="-5" y="95.85996898495341">7000</text></g><g class="guides"><path class="guide line" d="M0.000000 13.502052 h924.000000" /><text class="" x="-5" y="17.00205246632038">8000</text></g></g><g class="series serie-0 color-0"><path class="line reactive nofill" d="M17.769231 644.365385 L20.237179 644.365385 22.705128 644.365385 25.173077 644.365385 27.641026 644.365385 30.108974 644.365385 32.576923 644.365385 35.044872 644.365385 37.512821 644.365385 39.980769 644.365385 42.448718 644.365385 44.916667 644.365385 47.384615 644.365385 49.852564 644.365385 52.320513 644.365385 54.788462 644.365385 57.256410 644.365385 59.724359 644.365385 62.192308 644.365385 64.660256 644.365385 67.128205 644.365385 69.596154 644.365385 72.064103 644.365385 74.532051 644.365385 77.000000 644.365385 79.467949 644.365385 81.935897 644.365385 84.403846 644.365385 86.871795 644.365385 89.339744 644.365385 91.807692 644.365385 94.275641 644.365385 96.743590 644.365385 99.211538 644.365385 101.679487 644.365385 104.147436 644.365385 106.615385 644.365385 109.083333 644.365385 111.551282 644.365385 114.019231 644.365385 116.487179 644.365385 118.955128 644.365385 121.423077 644.365385 123.891026 644.365385 126.358974 644.365385 128.826923 644.365385 131.294872 644.365385 133.762821 644.365385 136.230769 644.365385 138.698718 644.365385 141.166667 644.365385 143.634615 644.365385 146.102564 644.365385 148.570513 644.365385 151.038462 644.365385 153.506410 644.365385 155.974359 644.365385 158.442308 644.365385 160.910256 644.365385 163.378205 644.365385 165.846154 644.365385 168.314103 644.365385 170.782051 644.365385 173.250000 644.365385 175.717949 644.365385 178.185897 644.365385 180.653846 644.365385 183.121795 644.365385 185.589744 644.365385 188.057692 644.365385 190.525641 644.365385 192.993590 644.365385 195.461538 644.365385 197.929487 644.365385 200.397436 644.365385 202.865385 644.365385 205.333333 644.365385 207.801282 644.365385 210.269231 644.365385 212.737179 644.365385 215.205128 644.365385 217.673077 644.365385 220.141026 644.365385 222.608974 644.365385 225.076923 644.365385 227.544872 644.365385 230.012821 644.365385 232.480769 644.365385 234.948718 644.365385 237.416667 644.365385 239.884615 644.365385 242.352564 644.365385 244.820513 644.365385 247.288462 644.365385 249.756410 644.365385 252.224359 644.365385 254.692308 644.365385 257.160256 644.365385 259.628205 644.365385 262.096154 644.365385 264.564103 644.365385 267.032051 644.365385 269.500000 644.365385 271.967949 644.365385 274.435897 644.365385 276.903846 644.365385 279.371795 644.365385 281.839744 644.365385 284.307692 644.365385 286.775641 644.365385 289.243590 644.365385 291.711538 644.365385 294.179487 644.365385 296.647436 644.365385 299.115385 644.365385 301.583333 644.365385 304.051282 644.365385 306.519231 644.365385 308.987179 644.365385 311.455128 644.365385 313.923077 644.365385 316.391026 644.365385 318.858974 644.365385 321.326923 644.365385 323.794872 644.365385 326.262821 644.365385 328.730769 644.365385 331.198718 644.365385 333.666667 644.365385 336.134615 644.365385 338.602564 644.365385 341.070513 644.365385 343.538462 644.365385 346.006410 644.365385 348.474359 644.365385 350.942308 644.365385 353.410256 644.365385 355.878205 644.365385 358.346154 644.365385 360.814103 644.365385 363.282051 644.365385 365.750000 644.365385 368.217949 644.365385 370.685897 644.365385 373.153846 644.365385 375.621795 644.365385 378.089744 644.365385 380.557692 644.365385 383.025641 644.365385 385.493590 644.365385 387.961538 644.365385 390.429487 644.365385 392.897436 644.365385 395.365385 644.365385 397.833333 644.365385 400.301282 644.365385 402.769231 644.365385 405.237179 644.365385 407.705128 644.365385 410.173077 644.365385 412.641026 644.365385 415.108974 644.365385 417.576923 644.365385 420.044872 644.365385 422.512821 644.365385 424.980769 644.365385 427.448718 644.365385 429.916667 644.365385 432.384615 644.365385 434.852564 644.365385 437.320513 644.365385 439.788462 644.365385 442.256410 644.365385 444.724359 644.365385 447.192308 644.365385 449.660256 644.365385 452.128205 644.365385 454.596154 644.365385 457.064103 644.365385 459.532051 644.365385 462.000000 644.365385 464.467949 644.365385 466.935897 644.365385 469.403846 644.365385 471.871795 644.365385 474.339744 644.365385 476.807692 644.365385 479.275641 644.365385 481.743590 644.365385 484.211538 644.365385 486.679487 644.365385 489.147436 644.365385 491.615385 644.365385 494.083333 644.365385 496.551282 644.365385 499.019231 644.365385 501.487179 644.365385 503.955128 644.365385 506.423077 644.365385 508.891026 644.365385 511.358974 644.365385 513.826923 644.365385 516.294872 644.365385 518.762821 644.365385 521.230769 644.365385 523.698718 644.365385 526.166667 644.365385 528.634615 644.365385 531.102564 644.365385 533.570513 644.365385 536.038462 644.365385 538.506410 644.365385 540.974359 644.365385 543.442308 644.365385 545.910256 644.365385 548.378205 644.365385 550.846154 644.365385 553.314103 644.365385 555.782051 644.365385 558.250000 644.365385 560.717949 644.365385 563.185897 644.365385 565.653846 644.365385 568.121795 644.365385 570.589744 644.365385 573.057692 644.365385 575.525641 644.365385 577.993590 644.365385 580.461538 644.365385 582.929487 644.365385 585.397436 644.365385 587.865385 644.365385 590.333333 644.365385 592.801282 644.365385 595.269231 644.365385 597.737179 644.365385 600.205128 644.365385 602.673077 644.365385 605.141026 644.365385 607.608974 644.365385 610.076923 644.365385 612.544872 644.365385 615.012821 644.365385 617.480769 644.365385 619.948718 644.365385 622.416667 644.365385 624.884615 644.365385 627.352564 644.365385 629.820513 644.365385 632.288462 644.365385 634.756410 644.365385 637.224359 644.365385 639.692308 644.365385 642.160256 644.365385 644.628205 644.365385 647.096154 644.365385 649.564103 644.365385 652.032051 644.365385 654.500000 644.365385 656.967949 644.365385 659.435897 644.365385 661.903846 644.365385 664.371795 644.365385 666.839744 644.365385 669.307692 644.365385 671.775641 644.365385 674.243590 644.365385 676.711538 644.365385 679.179487 644.365385 681.647436 644.365385 684.115385 644.365385 686.583333 644.365385 689.051282 644.365385 691.519231 644.365385 693.987179 644.365385 696.455128 644.365385 698.923077 644.365385 701.391026 644.365385 703.858974 644.365385 706.326923 644.365385 708.794872 644.365385 711.262821 644.365385 713.730769 644.365385 716.198718 644.365385 718.666667 644.365385 721.134615 644.365385 723.602564 644.365385 726.070513 644.365385 728.538462 644.365385 731.006410 644.365385 733.474359 644.365385 735.942308 644.365385 738.410256 644.365385 740.878205 644.365385 743.346154 644.365385 745.814103 644.365385 748.282051 644.365385 750.750000 644.365385 753.217949 644.365385 755.685897 644.365385 758.153846 644.365385 760.621795 644.365385 763.089744 644.365385 765.557692 644.365385 768.025641 644.365385 770.493590 644.365385 772.961538 644.365385 775.429487 644.365385 777.897436 644.365385 780.365385 644.365385 782.833333 644.365385 785.301282 644.365385 787.769231 644.365385 790.237179 644.365385 792.705128 644.365385 795.173077 644.365385 797.641026 644.365385 800.108974 644.365385 802.576923 644.365385 805.044872 644.365385 807.512821 644.365385 809.980769 644.365385 812.448718 644.365385 814.916667 644.365385 817.384615 644.365385 819.852564 644.365385 822.320513 644.365385 824.788462 644.365385 827.256410 644.365385 829.724359 644.365385 832.192308 644.365385 834.660256 644.365385 837.128205 644.365385 839.596154 644.365385 842.064103 644.365385 844.532051 644.365385 847.000000 644.365385 849.467949 644.365385 851.935897 644.365385 854.403846 644.365385 856.871795 644.365385 859.339744 644.365385 861.807692 644.365385 864.275641 644.365385 866.743590 644.365385 869.211538 644.365385 871.679487 644.365385 874.147436 644.365385 876.615385 644.365385 879.083333 644.365385 881.551282 644.365385 884.019231 644.365385 886.487179 644.365385 888.955128 644.365385 891.423077 644.365385 893.891026 644.365385 896.358974 644.365385 898.826923 644.365385 901.294872 644.365385 903.762821 644.365385 906.230769 644.365385" /></g><g class="series serie-1 color-1"><path class="line reactive nofill" d="M17.769231 644.286527 L20.237179 644.286527 22.705128 644.286527 25.173077 644.286527 27.641026 644.286527 30.108974 644.286527 32.576923 644.286527 35.044872 644.286527 37.512821 644.286527 39.980769 644.286527 42.448718 644.286527 44.916667 644.286527 47.384615 644.286527 49.852564 644.286527 52.320513 644.286527 54.788462 644.286527 57.256410 644.286527 59.724359 644.286527 62.192308 644.286527 64.660256 644.286527 67.128205 644.286527 69.596154 644.286527 72.064103 644.286527 74.532051 644.286527 77.000000 644.286527 79.467949 644.286527 81.935897 644.286527 84.403846 644.286527 86.871795 644.286527 89.339744 644.286527 91.807692 644.286527 94.275641 644.286527 96.743590 644.286527 99.211538 644.207669 101.679487 644.207669 104.147436 644.207669 106.615385 644.207669 109.083333 644.207669 111.551282 644.207669 114.019231 644.207669 116.487179 644.207669 118.955128 644.207669 121.423077 644.207669 123.891026 644.207669 126.358974 644.207669 128.826923 644.207669 131.294872 644.207669 133.762821 644.207669 136.230769 644.207669 138.698718 644.207669 141.166667 644.207669 143.634615 644.128811 146.102564 644.128811 148.570513 644.128811 151.038462 644.128811 153.506410 644.128811 155.974359 644.128811 158.442308 644.128811 160.910256 644.128811 163.378205 644.128811 165.846154 644.128811 168.314103 644.128811 170.782051 644.128811 173.250000 644.049953 175.717949 644.049953 178.185897 644.049953 180.653846 644.049953 183.121795 644.049953 185.589744 644.049953 188.057692 644.049953 190.525641 644.049953 192.993590 644.049953 195.461538 644.049953 197.929487 644.049953 200.397436 644.049953 202.865385 644.049953 205.333333 644.049953 207.801282 644.049953 210.269231 644.049953 212.737179 644.049953 215.205128 644.049953 217.673077 644.049953 220.141026 644.049953 222.608974 644.049953 225.076923 644.049953 227.544872 644.049953 230.012821 644.049953 232.480769 644.049953 234.948718 644.049953 237.416667 644.049953 239.884615 644.049953 242.352564 644.049953 244.820513 644.049953 247.288462 644.049953 249.756410 644.049953 252.224359 644.049953 254.692308 644.049953 257.160256 644.049953 259.628205 644.049953 262.096154 644.049953 264.564103 644.049953 267.032051 644.049953 269.500000 644.049953 271.967949 644.049953 274.435897 644.049953 276.903846 644.049953 279.371795 644.049953 281.839744 644.049953 284.307692 644.049953 286.775641 644.049953 289.243590 644.049953 291.711538 644.049953 294.179487 644.049953 296.647436 644.049953 299.115385 644.049953 301.583333 644.049953 304.051282 644.049953 306.519231 644.049953 308.987179 644.049953 311.455128 644.049953 313.923077 644.049953 316.391026 644.049953 318.858974 644.049953 321.326923 644.049953 323.794872 644.049953 326.262821 644.049953 328.730769 644.049953 331.198718 644.049953 333.666667 644.049953 336.134615 644.049953 338.602564 644.049953 341.070513 644.049953 343.538462 644.049953 346.006410 644.049953 348.474359 644.049953 350.942308 644.049953 353.410256 644.049953 355.878205 644.049953 358.346154 644.049953 360.814103 644.049953 363.282051 644.049953 365.750000 644.049953 368.217949 644.049953 370.685897 644.049953 373.153846 644.049953 375.621795 644.049953 378.089744 644.049953 380.557692 644.049953 383.025641 644.049953 385.493590 644.049953 387.961538 644.049953 390.429487 644.049953 392.897436 644.049953 395.365385 644.049953 397.833333 644.049953 400.301282 644.049953 402.769231 644.049953 405.237179 644.049953 407.705128 644.049953 410.173077 643.261374 412.641026 641.447642 415.108974 641.053352 417.576923 640.580205 420.044872 640.343631 422.512821 640.264773 424.980769 640.028199 427.448718 640.028199 429.916667 640.028199 432.384615 639.949341 434.852564 639.949341 437.320513 639.949341 439.788462 639.949341 442.256410 639.949341 444.724359 639.949341 447.192308 639.949341 449.660256 639.633910 452.128205 639.318478 454.596154 639.318478 457.064103 639.318478 459.532051 639.003046 462.000000 638.924188 464.467949 638.924188 466.935897 638.845330 469.403846 638.766473 471.871795 638.766473 474.339744 638.766473 476.807692 638.687615 479.275641 638.687615 481.743590 638.608757 484.211538 638.529899 486.679487 638.529899 489.147436 638.529899 491.615385 638.529899 494.083333 638.529899 496.551282 638.451041 499.019231 638.451041 501.487179 638.451041 503.955128 638.451041 506.423077 638.451041 508.891026 638.451041 511.358974 638.451041 513.826923 638.451041 516.294872 638.451041 518.762821 638.451041 521.230769 638.451041 523.698718 638.451041 526.166667 638.451041 528.634615 638.451041 531.102564 638.451041 533.570513 638.451041 536.038462 638.451041 538.506410 638.451041 540.974359 638.451041 543.442308 638.451041 545.910256 638.451041 548.378205 638.451041 550.846154 638.451041 553.314103 638.451041 555.782051 638.451041 558.250000 638.451041 560.717949 638.451041 563.185897 638.451041 565.653846 638.451041 568.121795 638.451041 570.589744 638.451041 573.057692 638.451041 575.525641 638.451041 577.993590 638.451041 580.461538 638.451041 582.929487 638.451041 585.397436 638.451041 587.865385 638.451041 590.333333 638.451041 592.801282 638.451041 595.269231 638.451041 597.737179 638.451041 600.205128 638.451041 602.673077 638.451041 605.141026 603.674700 607.608974 542.165525 610.076923 508.808626 612.544872 484.441530 615.012821 468.591089 617.480769 458.181844 619.948718 447.457167 622.416667 438.309649 624.884615 429.162130 627.352564 417.254585 629.820513 405.110466 632.288462 391.389188 634.756410 375.065600 637.224359 356.139700 639.692308 339.737253 642.160256 326.567981 644.628205 314.739294 647.096154 303.778043 649.564103 291.791640 652.032051 279.726379 654.500000 269.632565 656.967949 259.538752 659.435897 250.943239 661.903846 243.924885 664.371795 237.458535 666.839744 231.544192 669.307692 225.472132 671.775641 221.213805 674.243590 218.453777 676.711538 216.718903 679.179487 215.062887 681.647436 213.801160 684.115385 210.567986 686.583333 208.202248 689.051282 206.151943 691.519231 202.524478 693.987179 198.502725 696.455128 194.796403 698.923077 189.907212 701.391026 185.491168 703.858974 180.207688 706.326923 176.107076 708.794872 171.139028 711.262821 167.038416 713.730769 162.306941 716.198718 158.206329 718.666667 154.184576 721.134615 150.714827 723.602564 147.875942 726.070513 144.642768 728.538462 142.040456 731.006410 140.621014 733.474359 139.359287 735.942308 137.703271 738.410256 136.362686 740.878205 135.022102 743.346154 134.391238 745.814103 132.498648 748.282051 131.315780 750.750000 129.423190 753.217949 127.767174 755.685897 125.322578 758.153846 123.351130 760.621795 120.354529 763.089744 117.436786 765.557692 114.519044 768.025641 111.837874 770.493590 108.683558 772.961538 106.160104 775.429487 103.321219 777.897436 100.718908 780.365385 98.589744 782.833333 95.593144 785.301282 92.675401 787.769231 90.309663 790.237179 87.943926 792.705128 85.972478 795.173077 85.420472 797.641026 84.001030 800.108974 82.345014 802.576923 81.162145 805.044872 80.452424 807.512821 79.032981 809.980769 77.298107 812.448718 75.247801 814.916667 72.487774 817.384615 69.648889 819.852564 67.362009 822.320513 64.444267 824.788462 61.289950 827.256410 58.372207 829.724359 55.691038 832.192308 52.615579 834.660256 50.565273 837.128205 47.726388 839.596154 45.597224 842.064103 43.231487 844.532051 41.496613 847.000000 39.288591 849.467949 37.711433 851.935897 36.134275 854.403846 35.424553 856.871795 34.399400 859.339744 33.768537 861.807692 33.295390 864.275641 32.585668 866.743590 31.718231 869.211538 31.245084 871.679487 30.456505 874.147436 29.589067 876.615385 28.642772 879.083333 27.538762 881.551282 26.198177 884.019231 24.936450 886.487179 23.280434 888.955128 21.703276 891.423077 20.441549 893.891026 19.022107 896.358974 17.681522 898.826923 16.735227 901.294872 15.788932 903.762821 14.211774 906.230769 12.634615" /></g></g><g class="titles"><text class="title plot_title" x="512.0" y="26">Election 4 Participation</text><text class="title" transform="rotate(-90 0.000000 374.500000)" x="0" y="400.5">Users</text></g><g class="plot overlay" transform="translate(80, 46)"><g class="series serie-0 color-0" /><g class="series serie-1 color-1" /></g><g class="plot text-overlay" transform="translate(80, 46)"><g class="series serie-0 color-0" /><g class="series serie-1 color-1" /></g><g class="plot tooltip-overlay" transform="translate(80, 46)"><g class="tooltip" style="opacity: 0" transform="translate(0 0)"><a><rect class="tooltip-box" height="0" rx="0" ry="0" width="0" /><text class="text"><tspan class="label" /><tspan class="value" /></text></a></g></g><g class="legends" transform="translate(90, 713)"><g class="legend reactive activate-serie" id="activate-serie-0"><rect class="color-0 reactive" height="12" width="12" x="0.0" y="1.0" /><text x="17.0" y="11.2">constituents</text></g><g class="legend reactive activate-serie" id="activate-serie-1"><rect class="color-1 reactive" height="12" width="12" x="462.0" y="1.0" /><text x="479.0" y="11.2">caucus</text></g></g></g></svg>