<?xml version='1.0' encoding='utf-8'?>
<svg xmlns:xlink="http://www.w3.org/1999/xlink" class="pygal-chart" id="chart-573e6cf4-3c46-4706-b30f-d44ecd245506" viewBox="0 0 1024 768" xmlns="http://www.w3.org/2000/svg"><!--Generated with pygal 1.7.0 (etree) ©Kozea 2011-2014 on 2018-03-25--><!--http://pygal.org--><!--http://github.com/Kozea/pygal--><defs><style type="text/css">#chart-573e6cf4-3c46-4706-b30f-d44ecd245506 .title{font-family:"monospace";font-size:16px}#chart-573e6cf4-3c46-4706-b30f-d44ecd245506 .legends .legend text{font-family:"monospace";font-size:14px}#chart-573e6cf4-3c46-4706-b30f-d44ecd245506 .axis text{font-family:"monospace";font-size:10px}#chart-573e6cf4-3c46-4706-b30f-d44ecd245506 .axis text.major{font-family:"monospace";font-size:10px}#chart-573e6cf4-3c46-4706-b30f-d44ecd245506 .series text{font-family:"monospace";font-size:8px}#chart-573e6cf4-3c46-4706-b30f-d44ecd245506 .tooltip text{font-family:"monospace";font-size:16px}#chart-573e6cf4-3c46-4706-b30f-d44ecd245506 text.no_data{font-size:64px}
#chart-573e6cf4-3c46-4706-b30f-d44ecd245506{background-color:black}#chart-573e6cf4-3c46-4706-b30f-d44ecd245506 path,#chart-573e6cf4-3c46-4706-b30f-d44ecd245506 line,#chart-573e6cf4-3c46-4706-b30f-d44ecd245506 rect,#chart-573e6cf4-3c46-4706-b30f-d44ecd245506 circle{-webkit-transition:250ms;-moz-transition:250ms;transition:250ms}#chart-573e6cf4-3c46-4706-b30f-d44ecd245506 .graph &gt; .background{fill:black}#chart-573e6cf4-3c46-4706-b30f-d44ecd245506 .plot &gt; .background{fill:#111}#chart-573e6cf4-3c46-4706-b30f-d44ecd245506 .graph{fill:#999}#chart-573e6cf4-3c46-4706-b30f-d44ecd245506 text.no_data{fill:#eee}#chart-573e6cf4-3c46-4706-b30f-d44ecd245506 .title{fill:#eee}#chart-573e6cf4-3c46-4706-b30f-d44ecd245506 .legends .legend text{fill:#999}#chart-573e6cf4-3c46-4706-b30f-d44ecd245506 .legends .legend:hover text{fill:#eee}#chart-573e6cf4-3c46-4706-b30f-d44ecd245506 .axis .line{stroke:#eee}#chart-573e6cf4-3c46-4706-b30f-d44ecd245506 .axis .guide.line{stroke:#555}#chart-573e6cf4-3c46-4706-b30f-d44ecd245506 .axis .major.line{stroke:#999}#chart-573e6cf4-3c46-4706-b30f-d44ecd245506 .axis text.major{stroke:#eee;fill:#eee}#chart-573e6cf4-3c46-4706-b30f-d44ecd245506 .axis.y .guides:hover .guide.line,#chart-573e6cf4-3c46-4706-b30f-d44ecd245506 .line-graph .axis.x .guides:hover .guide.line,#chart-573e6cf4-3c46-4706-b30f-d44ecd245506 .stackedline-graph .axis.x .guides:hover .guide.line,#chart-573e6cf4-3c46-4706-b30f-d44ecd245506 .xy-graph .axis.x .guides:hover .guide.line{stroke:#eee}#chart-573e6cf4-3c46-4706-b30f-d44ecd245506 .axis .guides:hover text{fill:#eee}#chart-573e6cf4-3c46-4706-b30f-d44ecd245506 .reactive{fill-opacity:.8}#chart-573e6cf4-3c46-4706-b30f-d44ecd245506 .reactive.active,#chart-573e6cf4-3c46-4706-b30f-d44ecd245506 .active .reactive{fill-opacity:.4}#chart-573e6cf4-3c46-4706-b30f-d44ecd245506 .series{stroke-width:1.0;stroke-linejoin:round;stroke-linecap:round;stroke-dasharray:0,0}#chart-573e6cf4-3c46-4706-b30f-d44ecd245506 .series text{fill:#eee}#chart-573e6cf4-3c46-4706-b30f-d44ecd245506 .tooltip rect{fill:#111;stroke:#eee}#chart-573e6cf4-3c46-4706-b30f-d44ecd245506 .tooltip text{fill:#eee}#chart-573e6cf4-3c46-4706-b30f-d44ecd245506 .map-element{fill:#999;stroke:#555 !important;opacity:.9;stroke-width:3;-webkit-transition:250ms;-moz-transition:250ms;-o-transition:250ms;transition:250ms}#chart-573e6cf4-3c46-4706-b30f-d44ecd245506 .map-element:hover{opacity:1;stroke-width:10}#chart-573e6cf4-3c46-4706-b30f-d44ecd245506 .color-0,#chart-573e6cf4-3c46-4706-b30f-d44ecd245506 .color-0 a:visited{stroke:#ff5995;fill:#ff5995}#chart-573e6cf4-3c46-4706-b30f-d44ecd245506 .color-1,#chart-573e6cf4-3c46-4706-b30f-d44ecd245506 .color-1 a:visited{stroke:#b6e354;fill:#b6e354}#chart-573e6cf4-3c46-4706-b30f-d44ecd245506 .color-2,#chart-573e6cf4-3c46-4706-b30f-d44ecd245506 .color-2 a:visited{stroke:#feed6c;fill:#feed6c}#chart-573e6cf4-3c46-4706-b30f-d44ecd245506 .color-3,#chart-573e6cf4-3c46-4706-b30f-d44ecd245506 .color-3 a:visited{stroke:#8cedff;fill:#8cedff}#chart-573e6cf4-3c46-4706-b30f-d44ecd245506 .color-4,#chart-573e6cf4-3c46-4706-b30f-d44ecd245506 .color-4 a:visited{stroke:#9e6ffe;fill:#9e6ffe}#chart-573e6cf4-3c46-4706-b30f-d44ecd245506 .color-5,#chart-573e6cf4-3c46-4706-b30f-d44ecd245506 .color-5 a:visited{stroke:#899ca1;fill:#899ca1}#chart-573e6cf4-3c46-4706-b30f-d44ecd245506 .color-6,#chart-573e6cf4-3c46-4706-b30f-d44ecd245506 .color-6 a:visited{stroke:#f8f8f2;fill:#f8f8f2}#chart-573e6cf4-3c46-4706-b30f-d44ecd245506 .color-7,#chart-573e6cf4-3c46-4706-b30f-d44ecd245506 .color-7 a:visited{stroke:#bf4646;fill:#bf4646}#chart-573e6cf4-3c46-4706-b30f-d44ecd245506 .color-8,#chart-573e6cf4-3c46-4706-b30f-d44ecd245506 .color-8 a:visited{stroke:#516083;fill:#516083}#chart-573e6cf4-3c46-4706-b30f-d44ecd245506 .color-9,#chart-573e6cf4-3c46-4706-b30f-d44ecd245506 .color-9 a:visited{stroke:#f92672;fill:#f92672}#chart-573e6cf4-3c46-4706-b30f-d44ecd245506 .color-10,#chart-573e6cf4-3c46-4706-b30f-d44ecd245506 .color-10 a:visited{stroke:#82b414;fill:#82b414}#chart-573e6cf4-3c46-4706-b30f-d44ecd245506 .color-11,#chart-573e6cf4-3c46-4706-b30f-d44ecd245506 .color-11 a:visited{stroke:#fd971f;fill:#fd971f}#chart-573e6cf4-3c46-4706-b30f-d44ecd245506 .color-12,#chart-573e6cf4-3c46-4706-b30f-d44ecd245506 .color-12 a:visited{stroke:#56c2d6;fill:#56c2d6}#chart-573e6cf4-3c46-4706-b30f-d44ecd245506 .color-13,#chart-573e6cf4-3c46-4706-b30f-d44ecd245506 .color-13 a:visited{stroke:#808384;fill:#808384}#chart-573e6cf4-3c46-4706-b30f-d44ecd245506 .color-14,#chart-573e6cf4-3c46-4706-b30f-d44ecd245506 .color-14 a:visited{stroke:#8c54fe;fill:#8c54fe}#chart-573e6cf4-3c46-4706-b30f-d44ecd245506 .color-15,#chart-573e6cf4-3c46-4706-b30f-d44ecd245506 .color-15 a:visited{stroke:#465457;fill:#465457}
#chart-573e6cf4-3c46-4706-b30f-d44ecd245506 text.no_data{text-anchor:middle}#chart-573e6cf4-3c46-4706-b30f-d44ecd245506 .guide.line{fill-opacity:0}#chart-573e6cf4-3c46-4706-b30f-d44ecd245506 .centered{text-anchor:middle}#chart-573e6cf4-3c46-4706-b30f-d44ecd245506 .title{text-anchor:middle}#chart-573e6cf4-3c46-4706-b30f-d44ecd245506 .legends .legend text{fill-opacity:1}#chart-573e6cf4-3c46-4706-b30f-d44ecd245506 .axis.x text{text-anchor:middle}#chart-573e6cf4-3c46-4706-b30f-d44ecd245506 .axis.x:not(.web) text[transform]{text-anchor:start}#chart-573e6cf4-3c46-4706-b30f-d44ecd245506 .axis.y text{text-anchor:end}#chart-573e6cf4-3c46-4706-b30f-d44ecd245506 .axis.y2 text{text-anchor:start}#chart-573e6cf4-3c46-4706-b30f-d44ecd245506 .axis.y .logarithmic text:not(.major),#chart-573e6cf4-3c46-4706-b30f-d44ecd245506 .axis.y2 .logarithmic text:not(.major){font-size:50%}#chart-573e6cf4-3c46-4706-b30f-d44ecd245506 .axis .guide.line{stroke-dasharray:4,4}#chart-573e6cf4-3c46-4706-b30f-d44ecd245506 .axis .major.guide.line{stroke-dasharray:6,6}#chart-573e6cf4-3c46-4706-b30f-d44ecd245506 .axis text.major{stroke-width:0.5px}#chart-573e6cf4-3c46-4706-b30f-d44ecd245506 .horizontal .axis.y .guide.line,#chart-573e6cf4-3c46-4706-b30f-d44ecd245506 .horizontal .axis.y2 .guide.line,#chart-573e6cf4-3c46-4706-b30f-d44ecd245506 .vertical .axis.x .guide.line{opacity:0}#chart-573e6cf4-3c46-4706-b30f-d44ecd245506 .horizontal .axis.always_show .guide.line,#chart-573e6cf4-3c46-4706-b30f-d44ecd245506 .vertical .axis.always_show .guide.line{opacity:1 !important}#chart-573e6cf4-3c46-4706-b30f-d44ecd245506 .axis.y .guides:hover .guide.line,#chart-573e6cf4-3c46-4706-b30f-d44ecd245506 .axis.y2 .guides:hover .guide.line,#chart-573e6cf4-3c46-4706-b30f-d44ecd245506 .axis.x .guides:hover .guide.line{opacity:1}#chart-573e6cf4-3c46-4706-b30f-d44ecd245506 .axis .guides:hover text{opacity:1}#chart-573e6cf4-3c46-4706-b30f-d44ecd245506 .nofill{fill:none}#chart-573e6cf4-3c46-4706-b30f-d44ecd245506 .subtle-fill{fill-opacity:.2}#chart-573e6cf4-3c46-4706-b30f-d44ecd245506 .dot{stroke-width:1px;fill-opacity:1}#chart-573e6cf4-3c46-4706-b30f-d44ecd245506 .dot.active{stroke-width:5px}#chart-573e6cf4-3c46-4706-b30f-d44ecd245506 .series text{stroke:none}#chart-573e6cf4-3c46-4706-b30f-d44ecd245506 .series text.active{opacity:1}#chart-573e6cf4-3c46-4706-b30f-d44ecd245506 .tooltip rect{fill-opacity:0.8}#chart-573e6cf4-3c46-4706-b30f-d44ecd245506 .tooltip text{fill-opacity:1}#chart-573e6cf4-3c46-4706-b30f-d44ecd245506 .tooltip text tspan.label{fill-opacity:.8}</style><script type="text/javascript">window.config = {"css": ["style.css", "graph.css"], "disable_xml_declaration": false, "dots_size": 2.5, "explicit_size": false, "fill": false, "half_pie": false, "height": 768, "human_readable": false, "include_x_axis": false, "inner_radius": 0, "interpolate": null, "interpolation_parameters": {}, "interpolation_precision": 250, "js": ["http://kozea.github.io/pygal.js/javascripts/svg.jquery.js", "http://kozea.github.io/pygal.js/javascripts/pygal-tooltips.js"], "label_font_size": 10, "legend_at_bottom": true, "legend_at_bottom_columns": null, "legend_box_size": 12, "legend_font_size": 14, "logarithmic": false, "major_label_font_size": 10, "margin": 20, "margin_bottom": null, "margin_left": null, "margin_right": null, "margin_top": null, "missing_value_fill_truncation": "x", "mode": null, "no_data_font_size": 64, "no_data_text": "No data", "no_prefix": false, "order_min": null, "pretty_print": false, "print_values": false, "print_zeroes": false, "range": null, "rounded_bars": null, "show_dots": false, "show_legend": true, "show_minor_x_labels": true, "show_minor_y_labels": true, "show_only_major_dots": false, "show_x_guides": false, "show_x_labels": true, "show_y_guides": true, "show_y_labels": true, "spacing": 10, "stack_from_top": false, "strict": false, "stroke": true, "style": {"background": "black", "colors": ["#ff5995", "#b6e354", "#feed6c", "#8cedff", "#9e6ffe", "#899ca1", "#f8f8f2", "#bf4646", "#516083", "#f92672", "#82b414", "#fd971f", "#56c2d6", "#808384", "#8c54fe", "#465457"], "font_family": "monospace", "foreground": "#999", "foreground_dark": "#555", "foreground_light": "#eee", "opacity": ".8", "opacity_hover": ".4", "plot_background": "#111", "stroke_dasharray": "0,0", "stroke_style": "round", "stroke_width": 1.0, "transition": "250ms"}, "title": "Election 10 Participation", "title_font_size": 16, "tooltip_border_radius": 0, "tooltip_font_size": 16, "truncate_label": null, "truncate_legend": null, "value_font_size": 8, "width": 1024, "x_label_format": "%Y-%m-%d %H:%M:%S.%f", "x_label_rotation": 0, "x_labels": null, "x_labels_major": null, "x_labels_major_count": null, "x_labels_major_every": null, "x_title": null, "x_value_formatter": null, "xrange": null, "y_label_rotation": 0, "y_labels": null, "y_labels_major": null, "y_labels_major_count": null, "y_labels_major_every": null, "y_title": "Users", "zero": 0}</script><script type="text/javascript" xlink:href="http://kozea.github.io/pygal.js/javascripts/svg.jquery.js" /><script type="text/javascript" xlink:href="http://kozea.github.io/pygal.js/javascripts/pygal-tooltips.js" /></defs><title>Election 10 Participation</title><g class="graph line-graph vertical"><rect class="background" height="768" width="1024" x="0" y="0" /><g class="plot" transform="translate(86, 46)"><rect class="background" height="657.0" width="918.0" x="0" y="0" /><g class="axis y"><g class="guides"><path class="axis major line" d="M0.000000 644.365385 h918.000000" /><text class="major" x="-5" y="647.8653846153846">0</text></g><g class="guides"><path class="guide line" d="M0.000000 566.265942 h918.000000" /><text class="" x="-5" y="569.765942271555">10000</text></g><g class="guides"><path class="guide line" d="M0.000000 488.166500 h918.000000" /><text class="" x="-5" y="491.66649992772534">20000</text></g><g class="guides"><path class="guide line" d="M0.000000 410.067058 h918.000000" /><text class="" x="-5" y="413.5670575838957">30000</text></g><g class="guides"><path class="guide line" d="M0.000000 331.967615 h918.000000" /><text class="" x="-5" y="335.467615240066">40000</text></g><g class="guides"><path class="major guide line" d="M0.000000 253.868173 h918.000000" /><text class="major" x="-5" y="257.36817289623633">50000</text></g><g class="guides"><path class="guide line" d="M0.000000 175.768731 h918.000000" /><text class="" x="-5" y="179.26873055240668">60000</text></g><g class="guides"><path class="guide line" d="M0.000000 97.669288 h918.000000" /><text class="" x="-5" y="101.16928820857709">70000</text></g><g class="guides"><path class="guide line" d="M0.000000 19.569846 h918.000000" /><text class="" x="-5" y="23.069845864747435">80000</text></g></g><g class="series serie-0 color-0"><path class="line reactive nofill" d="M17.653846 644.365385 L20.105769 644.365385 22.557692 644.365385 25.009615 644.365385 27.461538 644.365385 29.913462 644.365385 32.365385 644.365385 34.817308 644.365385 37.269231 644.365385 39.721154 644.365385 42.173077 644.365385 44.625000 644.365385 47.076923 644.365385 49.528846 644.365385 51.980769 644.365385 54.432692 644.365385 56.884615 644.365385 59.336538 644.365385 61.788462 644.365385 64.240385 644.365385 66.692308 644.365385 69.144231 644.365385 71.596154 644.365385 74.048077 644.365385 76.500000 644.365385 78.951923 644.365385 81.403846 644.365385 83.855769 644.365385 86.307692 644.365385 88.759615 644.365385 91.211538 644.365385 93.663462 644.365385 96.115385 644.365385 98.567308 644.365385 101.019231 644.365385 103.471154 644.365385 105.923077 644.365385 108.375000 644.365385 110.826923 644.365385 113.278846 644.365385 115.730769 644.365385 118.182692 644.365385 120.634615 644.365385 123.086538 644.365385 125.538462 644.365385 127.990385 644.365385 130.442308 644.365385 132.894231 644.365385 135.346154 644.365385 137.798077 644.365385 140.250000 644.365385 142.701923 644.365385 145.153846 644.365385 147.605769 644.365385 150.057692 644.365385 152.509615 644.365385 154.961538 644.365385 157.413462 644.365385 159.865385 644.365385 162.317308 644.365385 164.769231 644.365385 167.221154 644.365385 169.673077 644.365385 172.125000 644.365385 174.576923 644.365385 177.028846 644.365385 179.480769 644.365385 181.932692 644.365385 184.384615 644.365385 186.836538 644.365385 189.288462 644.365385 191.740385 644.365385 194.192308 644.365385 196.644231 644.365385 199.096154 644.365385 201.548077 644.365385 204.000000 644.365385 206.451923 644.365385 208.903846 644.365385 211.355769 644.365385 213.807692 644.365385 216.259615 644.365385 218.711538 644.365385 221.163462 644.365385 223.615385 644.365385 226.067308 644.365385 228.519231 644.365385 230.971154 644.365385 233.423077 644.365385 235.875000 644.365385 238.326923 644.365385 240.778846 644.365385 243.230769 644.365385 245.682692 644.365385 248.134615 644.365385 250.586538 644.365385 253.038462 644.365385 255.490385 644.365385 257.942308 644.365385 260.394231 644.365385 262.846154 644.365385 265.298077 644.365385 267.750000 644.365385 270.201923 644.365385 272.653846 644.365385 275.105769 644.365385 277.557692 644.365385 280.009615 644.365385 282.461538 644.365385 284.913462 644.365385 287.365385 644.365385 289.817308 644.365385 292.269231 644.365385 294.721154 644.365385 297.173077 644.365385 299.625000 644.365385 302.076923 644.365385 304.528846 644.365385 306.980769 644.365385 309.432692 644.365385 311.884615 644.365385 314.336538 644.365385 316.788462 644.365385 319.240385 644.365385 321.692308 644.365385 324.144231 644.365385 326.596154 644.365385 329.048077 644.365385 331.500000 644.365385 333.951923 644.365385 336.403846 644.365385 338.855769 644.365385 341.307692 644.365385 343.759615 644.365385 346.211538 644.365385 348.663462 644.365385 351.115385 644.365385 353.567308 644.365385 356.019231 644.365385 358.471154 644.365385 360.923077 644.365385 363.375000 644.365385 365.826923 644.365385 368.278846 644.365385 370.730769 644.365385 373.182692 644.365385 375.634615 644.365385 378.086538 644.365385 380.538462 644.365385 382.990385 644.365385 385.442308 644.365385 387.894231 644.365385 390.346154 644.365385 392.798077 644.365385 395.250000 644.365385 397.701923 644.365385 400.153846 644.365385 402.605769 644.365385 405.057692 644.365385 407.509615 644.365385 409.961538 644.365385 412.413462 644.365385 414.865385 644.365385 417.317308 644.365385 419.769231 644.365385 422.221154 644.365385 424.673077 644.365385 427.125000 644.365385 429.576923 644.365385 432.028846 644.365385 434.480769 644.365385 436.932692 644.365385 439.384615 644.365385 441.836538 644.365385 444.288462 644.365385 446.740385 644.365385 449.192308 644.365385 451.644231 644.365385 454.096154 644.365385 456.548077 644.365385 459.000000 644.365385 461.451923 644.365385 463.903846 644.365385 466.355769 644.365385 468.807692 644.365385 471.259615 644.365385 473.711538 644.365385 476.163462 644.365385 478.615385 644.365385 481.067308 644.365385 483.519231 644.365385 485.971154 644.365385 488.423077 644.365385 490.875000 644.365385 493.326923 644.365385 495.778846 644.365385 498.230769 644.365385 500.682692 644.365385 503.134615 644.365385 505.586538 644.365385 508.038462 644.365385 510.490385 644.365385 512.942308 644.365385 515.394231 644.365385 517.846154 644.365385 520.298077 644.365385 522.750000 644.365385 525.201923 644.365385 527.653846 644.365385 530.105769 644.365385 532.557692 644.365385 535.009615 644.365385 537.461538 644.365385 539.913462 644.365385 542.365385 644.365385 544.817308 644.365385 547.269231 644.365385 549.721154 644.365385 552.173077 644.365385 554.625000 644.365385 557.076923 644.365385 559.528846 644.365385 561.980769 644.365385 564.432692 644.365385 566.884615 644.365385 569.336538 644.365385 571.788462 644.365385 574.240385 644.365385 576.692308 644.365385 579.144231 644.365385 581.596154 644.365385 584.048077 644.365385 586.500000 644.365385 588.951923 644.365385 591.403846 644.365385 593.855769 644.365385 596.307692 644.365385 598.759615 644.365385 601.211538 644.365385 603.663462 644.365385 606.115385 644.365385 608.567308 644.365385 611.019231 644.365385 613.471154 644.365385 615.923077 644.365385 618.375000 644.365385 620.826923 644.365385 623.278846 644.365385 625.730769 644.365385 628.182692 644.365385 630.634615 644.365385 633.086538 644.365385 635.538462 644.365385 637.990385 644.365385 640.442308 644.365385 642.894231 644.365385 645.346154 644.365385 647.798077 644.365385 650.250000 644.365385 652.701923 644.365385 655.153846 644.365385 657.605769 644.365385 660.057692 644.365385 662.509615 643.553150 664.961538 622.271052 667.413462 612.149365 669.865385 605.385953 672.317308 601.160773 674.769231 598.232044 677.221154 595.639143 679.673077 593.272729 682.125000 590.554869 684.576923 587.298122 687.028846 584.002326 689.480769 580.620620 691.932692 576.668788 694.384615 572.920015 696.836538 569.311821 699.288462 565.266269 701.740385 561.822084 704.192308 558.549717 706.644231 555.480409 709.096154 552.520440 711.548077 549.638571 714.000000 546.920710 716.451923 544.546487 718.903846 542.328463 721.355769 540.258828 723.807692 538.579690 726.259615 537.064561 728.711538 535.893069 731.163462 534.963686 733.615385 534.143642 736.067308 533.479796 738.519231 532.808141 740.971154 532.050577 743.423077 531.238342 745.875000 530.316769 748.326923 529.153087 750.778846 527.926926 753.230769 526.544566 755.682692 525.091916 758.134615 523.647077 760.586538 522.077278 763.038462 520.671488 765.490385 519.523426 767.942308 517.992677 770.394231 516.641557 772.846154 515.188907 775.298077 513.970556 777.750000 512.478856 780.201923 511.104306 782.653846 509.925005 785.105769 508.901902 787.557692 507.870989 790.009615 507.082185 792.461538 506.184041 794.913462 505.075029 797.365385 504.309655 799.817308 504.309655 802.269231 504.309655 804.721154 504.309655 807.173077 504.309655 809.625000 504.309655 812.076923 504.309655 814.528846 504.309655 816.980769 504.309655 819.432692 504.309655 821.884615 504.309655 824.336538 504.309655 826.788462 504.309655 829.240385 504.309655 831.692308 504.309655 834.144231 504.309655 836.596154 504.309655 839.048077 504.309655 841.500000 504.309655 843.951923 504.309655 846.403846 504.309655 848.855769 504.309655 851.307692 504.309655 853.759615 504.309655 856.211538 504.309655 858.663462 504.309655 861.115385 504.309655 863.567308 504.309655 866.019231 504.309655 868.471154 504.309655 870.923077 504.309655 873.375000 504.309655 875.826923 504.309655 878.278846 504.309655 880.730769 504.309655 883.182692 504.309655 885.634615 504.309655 888.086538 504.309655 890.538462 504.309655 892.990385 504.309655 895.442308 504.309655 897.894231 504.309655 900.346154 504.309655" /></g><g class="series serie-1 color-1"><path class="line reactive nofill" d="M17.653846 629.151613 L20.105769 623.583123 22.557692 619.537572 25.009615 617.413267 27.461538 615.843468 29.913462 614.211190 32.365385 612.852260 34.817308 611.516759 37.269231 609.220636 39.721154 606.229427 42.173077 602.941440 44.625000 598.794360 47.076923 595.248645 49.528846 592.179337 51.980769 589.508336 54.432692 587.579280 56.884615 585.587744 59.336538 583.416580 61.788462 581.604673 64.240385 579.917725 66.692308 578.597844 69.144231 577.676271 71.596154 576.684408 74.048077 575.887794 76.500000 575.177089 78.951923 574.630393 81.403846 574.185226 83.855769 573.786919 86.307692 573.521380 88.759615 573.240222 91.211538 572.951255 93.663462 572.693526 96.115385 572.256169 98.567308 571.834433 101.019231 571.342406 103.471154 570.733230 105.923077 569.897566 108.375000 568.999423 110.826923 568.148139 113.278846 567.437434 115.730769 566.640820 118.182692 565.820775 120.634615 565.055401 123.086538 564.375936 125.538462 563.805810 127.990385 563.298163 130.442308 562.720228 132.894231 562.353160 135.346154 562.017333 137.798077 561.626835 140.250000 561.415967 142.701923 561.111379 145.153846 560.986420 147.605769 560.845841 150.057692 560.736502 152.509615 560.556873 154.961538 560.338195 157.413462 559.994557 159.865385 559.666539 162.317308 559.260422 164.769231 558.698106 167.221154 558.252939 169.673077 557.737483 172.125000 557.151737 174.576923 556.605041 177.028846 556.105205 179.480769 555.667848 181.932692 555.183631 184.384615 554.832184 186.836538 554.488546 189.288462 554.199578 191.740385 553.894991 194.192308 553.621643 196.644231 553.301435 199.096154 553.199906 201.548077 553.082756 204.000000 552.965607 206.451923 552.856268 208.903846 552.778169 211.355769 552.668829 213.807692 552.528250 216.259615 552.333002 218.711538 552.106513 221.163462 551.887835 223.615385 551.661347 226.067308 551.270849 228.519231 550.942832 230.971154 550.614814 233.423077 550.255557 235.875000 549.865059 238.326923 549.544852 240.778846 549.240264 243.230769 549.045015 245.682692 548.802907 248.134615 548.576419 250.586538 548.412410 253.038462 548.178111 255.490385 547.975053 257.942308 547.826664 260.394231 547.623605 262.846154 547.568936 265.298077 547.467406 267.750000 547.365877 270.201923 547.303398 272.653846 547.248728 275.105769 547.201868 277.557692 547.108149 280.009615 547.006620 282.461538 546.873851 284.913462 546.764512 287.365385 546.647362 289.817308 546.545833 292.269231 546.428684 294.721154 546.327155 297.173077 546.163146 299.625000 545.983517 302.076923 545.858558 304.528846 545.749219 306.980769 545.624260 309.432692 545.522730 311.884615 545.413391 314.336538 545.304052 316.788462 545.249382 319.240385 545.132233 321.692308 545.069754 324.144231 545.015084 326.596154 544.944795 329.048077 544.851075 331.500000 544.812025 333.951923 544.741736 336.403846 544.640207 338.855769 544.538677 341.307692 544.382479 343.759615 544.202850 346.211538 543.984171 348.663462 543.749873 351.115385 543.562434 353.567308 543.328136 356.019231 543.148507 358.471154 542.961069 360.923077 542.726770 363.375000 542.562762 365.826923 542.344083 368.278846 542.250364 370.730769 542.086355 373.182692 541.953586 375.634615 541.813007 378.086538 541.672428 380.538462 541.547469 382.990385 541.430320 385.442308 541.305360 387.894231 541.164782 390.346154 541.000773 392.798077 540.719615 395.250000 540.368167 397.701923 539.985480 400.153846 539.493453 402.605769 538.938947 405.057692 538.345392 407.509615 537.822125 409.961538 537.353529 412.413462 536.861502 414.865385 536.142987 417.317308 535.658771 419.769231 535.260464 422.221154 534.979306 424.673077 534.690338 427.125000 531.933427 429.576923 497.452524 432.028846 479.755190 434.480769 468.422961 436.932692 460.808265 439.384615 454.966427 441.836538 448.780951 444.288462 442.736054 446.740385 435.230698 449.192308 424.976241 451.644231 412.269462 454.096154 397.539907 456.548077 379.397407 459.000000 359.083742 461.451923 338.442059 463.903846 323.361057 466.355769 309.802994 468.807692 296.174641 471.259615 283.327283 473.711538 271.401498 476.163462 262.490351 478.615385 253.758834 481.067308 247.128191 483.519231 241.239493 485.971154 236.912784 488.423077 232.507975 490.875000 229.298088 493.326923 226.814526 495.778846 225.018239 498.230769 223.612449 500.682692 222.050460 503.134615 220.386942 505.586538 218.512555 508.038462 216.357011 510.490385 213.998408 512.942308 210.554222 515.394231 206.618010 517.846154 202.228822 520.298077 197.136738 522.750000 192.208663 525.201923 187.257159 527.653846 182.743011 530.105769 177.963325 532.557692 173.519467 535.009615 169.270857 537.461538 165.936011 539.913462 163.194720 542.365385 160.508100 544.817308 158.055777 547.269231 155.798703 549.721154 154.096135 552.173077 152.643486 554.625000 151.675053 557.076923 150.730049 559.528846 149.863146 561.980769 149.144631 564.432692 148.144958 566.884615 147.020326 569.336538 145.708255 571.788462 143.966638 574.240385 141.748613 576.692308 139.108852 579.144231 136.289462 581.596154 133.391973 584.048077 130.884981 586.500000 128.549808 588.951923 126.081865 591.403846 123.262475 593.855769 120.778913 596.307692 118.771758 598.759615 116.873941 601.211538 115.233853 603.663462 113.757773 606.115385 112.570662 608.567308 111.313261 611.019231 110.266728 613.471154 109.485734 615.923077 109.009327 618.375000 108.345482 620.826923 107.845646 623.278846 107.275520 625.730769 106.713204 628.182692 105.955639 630.634615 105.018446 633.086538 103.800094 635.538462 102.495834 637.990385 100.777646 640.442308 99.004789 642.894231 97.536519 645.346154 96.091679 647.798077 94.279772 650.250000 92.545965 652.701923 91.069885 655.153846 89.742195 657.605769 88.609753 660.057692 87.594460 662.509615 86.102761 664.961538 77.691451 667.413462 73.153873 669.865385 70.162665 672.317308 67.929021 674.769231 66.585710 677.221154 65.203350 679.673077 64.031858 682.125000 62.852557 684.576923 61.446767 687.028846 60.173746 689.480769 58.588327 691.932692 56.776420 694.384615 55.120712 696.836538 53.527483 699.288462 51.606237 701.740385 49.833380 704.192308 48.091762 706.644231 46.240805 709.096154 44.686627 711.548077 43.046538 714.000000 41.390830 716.451923 39.844461 718.903846 38.501151 721.355769 37.360899 723.807692 36.369036 726.259615 35.338123 728.711538 34.518079 731.163462 33.885474 733.615385 33.346587 736.067308 32.776462 738.519231 32.292245 740.971154 31.714309 743.423077 31.120753 745.875000 30.472528 748.326923 29.800873 750.778846 28.902729 753.230769 27.856197 755.682692 26.872144 758.134615 25.919331 760.586538 24.880608 763.038462 23.865315 765.490385 22.974982 767.942308 21.983119 770.394231 20.991256 772.846154 20.077492 775.298077 19.280878 777.750000 18.273395 780.201923 17.336202 782.653846 16.500538 785.105769 15.797643 787.557692 15.079128 790.009615 14.415283 792.461538 13.892016 794.913462 13.259411 797.365385 12.634615 799.817308 12.634615 802.269231 12.634615 804.721154 12.634615 807.173077 12.634615 809.625000 12.634615 812.076923 12.634615 814.528846 12.634615 816.980769 12.634615 819.432692 12.634615 821.884615 12.634615 824.336538 12.634615 826.788462 12.634615 829.240385 12.634615 831.692308 12.634615 834.144231 12.634615 836.596154 12.634615 839.048077 12.634615 841.500000 12.634615 843.951923 12.634615 846.403846 12.634615 848.855769 12.634615 851.307692 12.634615 853.759615 12.634615 856.211538 12.634615 858.663462 12.634615 861.115385 12.634615 863.567308 12.634615 866.019231 12.634615 868.471154 12.634615 870.923077 12.634615 873.375000 12.634615 875.826923 12.634615 878.278846 12.634615 880.730769 12.634615 883.182692 12.634615 885.634615 12.634615 888.086538 12.634615 890.538462 12.634615 892.990385 12.634615 895.442308 12.634615 897.894231 12.634615 900.346154 12.634615" /></g></g><g class="titles"><text class="title plot_title" x="512.0" y="26">Election 10 Participation</text><text class="title" transform="rotate(-90 0.000000 374.500000)" x="0" y="400.5">Users</text></g><g class="plot overlay" transform="translate(86, 46)"><g class="series serie-0 color-0" /><g class="series serie-1 color-1" /></g><g class="plot text-overlay" transform="translate(86, 46)"><g class="series serie-0 color-0" /><g class="series serie-1 color-1" /></g><g class="plot tooltip-overlay" transform="translate(86, 46)"><g class="tooltip" style="opacity: 0" transform="translate(0 0)"><a><rect class="tooltip-box" height="0" rx="0" ry="0" width="0" /><text class="text"><tspan class="label" /><tspan class="value" /></text></a></g></g><g class="legends" transform="translate(96, 713)"><g class="legend reactive activate-serie" id="activate-serie-0"><rect class="color-0 reactive" height="12" width="12" x="0.0" y="1.0" /><text x="17.0" y="11.2">constituents</text></g><g class="legend reactive activate-serie" id="activate-serie-1"><rect class="color-1 reactive" height="12" width="12" x="459.0" y="1.0" /><text x="476.0" y="11.2">caucus</text></g></g></g></svg>