<?xml version='1.0' encoding='utf-8'?>
<svg xmlns:xlink="http://www.w3.org/1999/xlink" class="pygal-chart" id="chart-cb4274b3-396a-45af-b152-473c91c7685c" viewBox="0 0 1024 768" xmlns="http://www.w3.org/2000/svg"><!--Generated with pygal 1.7.0 (etree) ©Kozea 2011-2014 on 2018-03-25--><!--http://pygal.org--><!--http://github.com/Kozea/pygal--><defs><style type="text/css">#chart-cb4274b3-396a-45af-b152-473c91c7685c .title{font-family:"monospace";font-size:16px}#chart-cb4274b3-396a-45af-b152-473c91c7685c .legends .legend text{font-family:"monospace";font-size:14px}#chart-cb4274b3-396a-45af-b152-473c91c7685c .axis text{font-family:"monospace";font-size:10px}#chart-cb4274b3-396a-45af-b152-473c91c7685c .axis text.major{font-family:"monospace";font-size:10px}#chart-cb4274b3-396a-45af-b152-473c91c7685c .series text{font-family:"monospace";font-size:8px}#chart-cb4274b3-396a-45af-b152-473c91c7685c .tooltip text{font-family:"monospace";font-size:16px}#chart-cb4274b3-396a-45af-b152-473c91c7685c text.no_data{font-size:64px}
#chart-cb4274b3-396a-45af-b152-473c91c7685c{background-color:black}#chart-cb4274b3-396a-45af-b152-473c91c7685c path,#chart-cb4274b3-396a-45af-b152-473c91c7685c line,#chart-cb4274b3-396a-45af-b152-473c91c7685c rect,#chart-cb4274b3-396a-45af-b152-473c91c7685c circle{-webkit-transition:250ms;-moz-transition:250ms;transition:250ms}#chart-cb4274b3-396a-45af-b152-473c91c7685c .graph &gt; .background{fill:black}#chart-cb4274b3-396a-45af-b152-473c91c7685c .plot &gt; .background{fill:#111}#chart-cb4274b3-396a-45af-b152-473c91c7685c .graph{fill:#999}#chart-cb4274b3-396a-45af-b152-473c91c7685c text.no_data{fill:#eee}#chart-cb4274b3-396a-45af-b152-473c91c7685c .title{fill:#eee}#chart-cb4274b3-396a-45af-b152-473c91c7685c .legends .legend text{fill:#999}#chart-cb4274b3-396a-45af-b152-473c91c7685c .legends .legend:hover text{fill:#eee}#chart-cb4274b3-396a-45af-b152-473c91c7685c .axis .line{stroke:#eee}#chart-cb4274b3-396a-45af-b152-473c91c7685c .axis .guide.line{stroke:#555}#chart-cb4274b3-396a-45af-b152-473c91c7685c .axis .major.line{stroke:#999}#chart-cb4274b3-396a-45af-b152-473c91c7685c .axis text.major{stroke:#eee;fill:#eee}#chart-cb4274b3-396a-45af-b152-473c91c7685c .axis.y .guides:hover .guide.line,#chart-cb4274b3-396a-45af-b152-473c91c7685c .line-graph .axis.x .guides:hover .guide.line,#chart-cb4274b3-396a-45af-b152-473c91c7685c .stackedline-graph .axis.x .guides:hover .guide.line,#chart-cb4274b3-396a-45af-b152-473c91c7685c .xy-graph .axis.x .guides:hover .guide.line{stroke:#eee}#chart-cb4274b3-396a-45af-b152-473c91c7685c .axis .guides:hover text{fill:#eee}#chart-cb4274b3-396a-45af-b152-473c91c7685c .reactive{fill-opacity:.8}#chart-cb4274b3-396a-45af-b152-473c91c7685c .reactive.active,#chart-cb4274b3-396a-45af-b152-473c91c7685c .active .reactive{fill-opacity:.4}#chart-cb4274b3-396a-45af-b152-473c91c7685c .series{stroke-width:1.0;stroke-linejoin:round;stroke-linecap:round;stroke-dasharray:0,0}#chart-cb4274b3-396a-45af-b152-473c91c7685c .series text{fill:#eee}#chart-cb4274b3-396a-45af-b152-473c91c7685c .tooltip rect{fill:#111;stroke:#eee}#chart-cb4274b3-396a-45af-b152-473c91c7685c .tooltip text{fill:#eee}#chart-cb4274b3-396a-45af-b152-473c91c7685c .map-element{fill:#999;stroke:#555 !important;opacity:.9;stroke-width:3;-webkit-transition:250ms;-moz-transition:250ms;-o-transition:250ms;transition:250ms}#chart-cb4274b3-396a-45af-b152-473c91c7685c .map-element:hover{opacity:1;stroke-width:10}#chart-cb4274b3-396a-45af-b152-473c91c7685c .color-0,#chart-cb4274b3-396a-45af-b152-473c91c7685c .color-0 a:visited{stroke:#ff5995;fill:#ff5995}#chart-cb4274b3-396a-45af-b152-473c91c7685c .color-1,#chart-cb4274b3-396a-45af-b152-473c91c7685c .color-1 a:visited{stroke:#b6e354;fill:#b6e354}#chart-cb4274b3-396a-45af-b152-473c91c7685c .color-2,#chart-cb4274b3-396a-45af-b152-473c91c7685c .color-2 a:visited{stroke:#feed6c;fill:#feed6c}#chart-cb4274b3-396a-45af-b152-473c91c7685c .color-3,#chart-cb4274b3-396a-45af-b152-473c91c7685c .color-3 a:visited{stroke:#8cedff;fill:#8cedff}#chart-cb4274b3-396a-45af-b152-473c91c7685c .color-4,#chart-cb4274b3-396a-45af-b152-473c91c7685c .color-4 a:visited{stroke:#9e6ffe;fill:#9e6ffe}#chart-cb4274b3-396a-45af-b152-473c91c7685c .color-5,#chart-cb4274b3-396a-45af-b152-473c91c7685c .color-5 a:visited{stroke:#899ca1;fill:#899ca1}#chart-cb4274b3-396a-45af-b152-473c91c7685c .color-6,#chart-cb4274b3-396a-45af-b152-473c91c7685c .color-6 a:visited{stroke:#f8f8f2;fill:#f8f8f2}#chart-cb4274b3-396a-45af-b152-473c91c7685c .color-7,#chart-cb4274b3-396a-45af-b152-473c91c7685c .color-7 a:visited{stroke:#bf4646;fill:#bf4646}#chart-cb4274b3-396a-45af-b152-473c91c7685c .color-8,#chart-cb4274b3-396a-45af-b152-473c91c7685c .color-8 a:visited{stroke:#516083;fill:#516083}#chart-cb4274b3-396a-45af-b152-473c91c7685c .color-9,#chart-cb4274b3-396a-45af-b152-473c91c7685c .color-9 a:visited{stroke:#f92672;fill:#f92672}#chart-cb4274b3-396a-45af-b152-473c91c7685c .color-10,#chart-cb4274b3-396a-45af-b152-473c91c7685c .color-10 a:visited{stroke:#82b414;fill:#82b414}#chart-cb4274b3-396a-45af-b152-473c91c7685c .color-11,#chart-cb4274b3-396a-45af-b152-473c91c7685c .color-11 a:visited{stroke:#fd971f;fill:#fd971f}#chart-cb4274b3-396a-45af-b152-473c91c7685c .color-12,#chart-cb4274b3-396a-45af-b152-473c91c7685c .color-12 a:visited{stroke:#56c2d6;fill:#56c2d6}#chart-cb4274b3-396a-45af-b152-473c91c7685c .color-13,#chart-cb4274b3-396a-45af-b152-473c91c7685c .color-13 a:visited{stroke:#808384;fill:#808384}#chart-cb4274b3-396a-45af-b152-473c91c7685c .color-14,#chart-cb4274b3-396a-45af-b152-473c91c7685c .color-14 a:visited{stroke:#8c54fe;fill:#8c54fe}#chart-cb4274b3-396a-45af-b152-473c91c7685c .color-15,#chart-cb4274b3-396a-45af-b152-473c91c7685c .color-15 a:visited{stroke:#465457;fill:#465457}
#chart-cb4274b3-396a-45af-b152-473c91c7685c text.no_data{text-anchor:middle}#chart-cb4274b3-396a-45af-b152-473c91c7685c .guide.line{fill-opacity:0}#chart-cb4274b3-396a-45af-b152-473c91c7685c .centered{text-anchor:middle}#chart-cb4274b3-396a-45af-b152-473c91c7685c .title{text-anchor:middle}#chart-cb4274b3-396a-45af-b152-473c91c7685c .legends .legend text{fill-opacity:1}#chart-cb4274b3-396a-45af-b152-473c91c7685c .axis.x text{text-anchor:middle}#chart-cb4274b3-396a-45af-b152-473c91c7685c .axis.x:not(.web) text[transform]{text-anchor:start}#chart-cb4274b3-396a-45af-b152-473c91c7685c .axis.y text{text-anchor:end}#chart-cb4274b3-396a-45af-b152-473c91c7685c .axis.y2 text{text-anchor:start}#chart-cb4274b3-396a-45af-b152-473c91c7685c .axis.y .logarithmic text:not(.major),#chart-cb4274b3-396a-45af-b152-473c91c7685c .axis.y2 .logarithmic text:not(.major){font-size:50%}#chart-cb4274b3-396a-45af-b152-473c91c7685c .axis .guide.line{stroke-dasharray:4,4}#chart-cb4274b3-396a-45af-b152-473c91c7685c .axis .major.guide.line{stroke-dasharray:6,6}#chart-cb4274b3-396a-45af-b152-473c91c7685c .axis text.major{stroke-width:0.5px}#chart-cb4274b3-396a-45af-b152-473c91c7685c .horizontal .axis.y .guide.line,#chart-cb4274b3-396a-45af-b152-473c91c7685c .horizontal .axis.y2 .guide.line,#chart-cb4274b3-396a-45af-b152-473c91c7685c .vertical .axis.x .guide.line{opacity:0}#chart-cb4274b3-396a-45af-b152-473c91c7685c .horizontal .axis.always_show .guide.line,#chart-cb4274b3-396a-45af-b152-473c91c7685c .vertical .axis.always_show .guide.line{opacity:1 !important}#chart-cb4274b3-396a-45af-b152-473c91c7685c .axis.y .guides:hover .guide.line,#chart-cb4274b3-396a-45af-b152-473c91c7685c .axis.y2 .guides:hover .guide.line,#chart-cb4274b3-396a-45af-b152-473c91c7685c .axis.x .guides:hover .guide.line{opacity:1}#chart-cb4274b3-396a-45af-b152-473c91c7685c .axis .guides:hover text{opacity:1}#chart-cb4274b3-396a-45af-b152-473c91c7685c .nofill{fill:none}#chart-cb4274b3-396a-45af-b152-473c91c7685c .subtle-fill{fill-opacity:.2}#chart-cb4274b3-396a-45af-b152-473c91c7685c .dot{stroke-width:1px;fill-opacity:1}#chart-cb4274b3-396a-45af-b152-473c91c7685c .dot.active{stroke-width:5px}#chart-cb4274b3-396a-45af-b152-473c91c7685c .series text{stroke:none}#chart-cb4274b3-396a-45af-b152-473c91c7685c .series text.active{opacity:1}#chart-cb4274b3-396a-45af-b152-473c91c7685c .tooltip rect{fill-opacity:0.8}#chart-cb4274b3-396a-45af-b152-473c91c7685c .tooltip text{fill-opacity:1}#chart-cb4274b3-396a-45af-b152-473c91c7685c .tooltip text tspan.label{fill-opacity:.8}</style><script type="text/javascript">window.config = {"css": ["style.css", "graph.css"], "disable_xml_declaration": false, "dots_size": 2.5, "explicit_size": false, "fill": false, "half_pie": false, "height": 768, "human_readable": false, "include_x_axis": false, "inner_radius": 0, "interpolate": null, "interpolation_parameters": {}, "interpolation_precision": 250, "js": ["http://kozea.github.io/pygal.js/javascripts/svg.jquery.js", "http://kozea.github.io/pygal.js/javascripts/pygal-tooltips.js"], "label_font_size": 10, "legend_at_bottom": true, "legend_at_bottom_columns": null, "legend_box_size": 12, "legend_font_size": 14, "logarithmic": false, "major_label_font_size": 10, "margin": 20, "margin_bottom": null, "margin_left": null, "margin_right": null, "margin_top": null, "missing_value_fill_truncation": "x", "mode": null, "no_data_font_size": 64, "no_data_text": "No data", "no_prefix": false, "order_min": null, "pretty_print": false, "print_values": false, "print_zeroes": false, "range": null, "rounded_bars": null, "show_dots": false, "show_legend": true, "show_minor_x_labels": true, "show_minor_y_labels": true, "show_only_major_dots": false, "show_x_guides": false, "show_x_labels": true, "show_y_guides": true, "show_y_labels": true, "spacing": 10, "stack_from_top": false, "strict": false, "stroke": true, "style": {"background": "black", "colors": ["#ff5995", "#b6e354", "#feed6c", "#8cedff", "#9e6ffe", "#899ca1", "#f8f8f2", "#bf4646", "#516083", "#f92672", "#82b414", "#fd971f", "#56c2d6", "#808384", "#8c54fe", "#465457"], "font_family": "monospace", "foreground": "#999", "foreground_dark": "#555", "foreground_light": "#eee", "opacity": ".8", "opacity_hover": ".4", "plot_background": "#111", "stroke_dasharray": "0,0", "stroke_style": "round", "stroke_width": 1.0, "transition": "250ms"}, "title": "Election Constituents", "title_font_size": 16, "tooltip_border_radius": 0, "tooltip_font_size": 16, "truncate_label": null, "truncate_legend": null, "value_font_size": 8, "width": 1024, "x_label_format": "%Y-%m-%d %H:%M:%S.%f", "x_label_rotation": 0, "x_labels": null, "x_labels_major": null, "x_labels_major_count": null, "x_labels_major_every": null, "x_title": null, "x_value_formatter": null, "xrange": null, "y_label_rotation": 0, "y_labels": null, "y_labels_major": null, "y_labels_major_count": null, "y_labels_major_every": null, "y_title": "Users", "zero": 0}</script><script type="text/javascript" xlink:href="http://kozea.github.io/pygal.js/javascripts/svg.jquery.js" /><script type="text/javascript" xlink:href="http://kozea.github.io/pygal.js/javascripts/pygal-tooltips.js" /></defs><title>Election Constituents</title><g class="graph line-graph vertical"><rect class="background" height="768" width="1024" x="0" y="0" /><g class="plot" transform="translate(86, 46)"><rect class="background" height="615.0" width="918.0" x="0" y="0" /><g class="axis y"><path class="line" d="M0.000000 615.000000 h918.000000" /><g class="guides"><path class="guide line" d="M0.000000 537.098629 h918.000000" /><text class="" x="-5" y="540.5986290383584">10000</text></g><g class="guides"><path class="guide line" d="M0.000000 471.017573 h918.000000" /><text class="" x="-5" y="474.51757304804084">20000</text></g><g class="guides"><path class="guide line" d="M0.000000 404.936517 h918.000000" /><text class="" x="-5" y="408.4365170577232">30000</text></g><g class="guides"><path class="guide line" d="M0.000000 338.855461 h918.000000" /><text class="" x="-5" y="342.35546106740566">40000</text></g><g class="guides"><path class="major guide line" d="M0.000000 272.774405 h918.000000" /><text class="major" x="-5" y="276.27440507708803">50000</text></g><g class="guides"><path class="guide line" d="M0.000000 206.693349 h918.000000" /><text class="" x="-5" y="210.19334908677052">60000</text></g><g class="guides"><path class="guide line" d="M0.000000 140.612293 h918.000000" /><text class="" x="-5" y="144.11229309645296">70000</text></g><g class="guides"><path class="guide line" d="M0.000000 74.531237 h918.000000" /><text class="" x="-5" y="78.03123710613534">80000</text></g></g><g class="series serie-0 color-0"><path class="line reactive nofill" d="M17.653846 511.346842 L20.105769 511.346842 22.557692 511.346842 25.009615 511.346842 27.461538 511.346842 29.913462 511.346842 32.365385 511.346842 34.817308 511.346842 37.269231 511.346842 39.721154 511.346842 42.173077 511.346842 44.625000 511.346842 47.076923 511.346842 49.528846 511.346842 51.980769 511.346842 54.432692 511.346842 56.884615 511.346842 59.336538 511.346842 61.788462 511.346842 64.240385 511.346842 66.692308 511.346842 69.144231 511.346842 71.596154 511.346842 74.048077 511.340233 76.500000 511.340233 78.951923 511.340233 81.403846 511.340233 83.855769 511.340233 86.307692 511.340233 88.759615 511.340233 91.211538 511.340233 93.663462 511.340233 96.115385 511.340233 98.567308 511.340233 101.019231 511.340233 103.471154 511.340233 105.923077 511.340233 108.375000 511.340233 110.826923 511.340233 113.278846 511.340233 115.730769 511.340233 118.182692 511.340233 120.634615 511.340233 123.086538 511.340233 125.538462 511.340233 127.990385 511.340233 130.442308 511.340233 132.894231 511.340233 135.346154 511.340233 137.798077 511.340233 140.250000 511.340233 142.701923 511.340233 145.153846 511.340233 147.605769 511.340233 150.057692 511.340233 152.509615 511.340233 154.961538 511.340233 157.413462 511.340233 159.865385 511.340233 162.317308 511.340233 164.769231 511.340233 167.221154 511.340233 169.673077 511.340233 172.125000 511.340233 174.576923 511.340233 177.028846 511.340233 179.480769 511.340233 181.932692 511.340233 184.384615 511.340233 186.836538 511.340233 189.288462 511.340233 191.740385 511.340233 194.192308 511.340233 196.644231 511.340233 199.096154 511.340233 201.548077 511.340233 204.000000 511.340233 206.451923 511.340233 208.903846 511.340233 211.355769 511.340233 213.807692 511.340233 216.259615 511.340233 218.711538 511.340233 221.163462 511.340233 223.615385 511.340233 226.067308 511.333625 228.519231 511.333625 230.971154 511.333625 233.423077 511.333625 235.875000 511.333625 238.326923 511.333625 240.778846 511.333625 243.230769 511.333625 245.682692 511.333625 248.134615 511.333625 250.586538 511.333625 253.038462 511.333625 255.490385 511.333625 257.942308 511.333625 260.394231 511.333625 262.846154 511.333625 265.298077 511.333625 267.750000 511.333625 270.201923 511.333625 272.653846 511.333625 275.105769 511.333625 277.557692 511.333625 280.009615 511.333625 282.461538 511.333625 284.913462 511.333625 287.365385 511.333625 289.817308 511.333625 292.269231 511.333625 294.721154 511.333625 297.173077 511.333625 299.625000 511.333625 302.076923 511.333625 304.528846 511.333625 306.980769 511.333625 309.432692 511.333625 311.884615 511.333625 314.336538 511.333625 316.788462 511.333625 319.240385 511.333625 321.692308 511.333625 324.144231 511.333625 326.596154 511.333625 329.048077 511.333625 331.500000 511.333625 333.951923 511.333625 336.403846 511.333625 338.855769 511.333625 341.307692 511.333625 343.759615 511.333625 346.211538 511.333625 348.663462 511.333625 351.115385 511.333625 353.567308 511.333625 356.019231 511.333625 358.471154 511.333625 360.923077 511.333625 363.375000 511.333625 365.826923 511.333625 368.278846 511.333625 370.730769 511.333625 373.182692 511.333625 375.634615 511.333625 378.086538 511.333625 380.538462 511.333625 382.990385 511.333625 385.442308 511.333625 387.894231 511.333625 390.346154 511.333625 392.798077 511.333625 395.250000 511.333625 397.701923 511.333625 400.153846 511.333625 402.605769 511.333625 405.057692 511.333625 407.509615 511.333625 409.961538 511.333625 412.413462 511.333625 414.865385 511.333625 417.317308 511.333625 419.769231 511.333625 422.221154 511.333625 424.673077 511.333625 427.125000 511.333625 429.576923 511.333625 432.028846 511.333625 434.480769 511.333625 436.932692 511.333625 439.384615 511.333625 441.836538 511.333625 444.288462 511.333625 446.740385 511.333625 449.192308 511.333625 451.644231 511.333625 454.096154 511.333625 456.548077 511.333625 459.000000 511.333625 461.451923 511.333625 463.903846 511.333625 466.355769 511.333625 468.807692 511.333625 471.259615 511.333625 473.711538 511.333625 476.163462 511.333625 478.615385 511.333625 481.067308 511.333625 483.519231 511.333625 485.971154 511.333625 488.423077 511.333625 490.875000 511.333625 493.326923 511.333625 495.778846 511.333625 498.230769 511.333625 500.682692 511.333625 503.134615 511.333625 505.586538 511.333625 508.038462 511.333625 510.490385 511.333625 512.942308 511.333625 515.394231 511.333625 517.846154 511.333625 520.298077 511.333625 522.750000 511.333625 525.201923 511.333625 527.653846 511.333625 530.105769 511.333625 532.557692 511.333625 535.009615 511.333625 537.461538 511.333625 539.913462 511.333625 542.365385 511.333625 544.817308 511.333625 547.269231 511.333625 549.721154 511.333625 552.173077 511.333625 554.625000 511.333625 557.076923 511.333625 559.528846 511.333625 561.980769 511.333625 564.432692 511.333625 566.884615 511.333625 569.336538 511.333625 571.788462 511.333625 574.240385 511.333625 576.692308 511.327017 579.144231 511.327017 581.596154 511.327017 584.048077 511.327017 586.500000 511.327017 588.951923 511.327017 591.403846 511.327017 593.855769 511.327017 596.307692 511.327017 598.759615 511.327017 601.211538 511.327017 603.663462 511.327017 606.115385 511.327017 608.567308 511.327017 611.019231 511.327017 613.471154 511.327017 615.923077 511.327017 618.375000 511.327017 620.826923 511.327017 623.278846 511.327017 625.730769 511.327017 628.182692 511.327017 630.634615 511.327017 633.086538 511.327017 635.538462 511.327017 637.990385 511.327017 640.442308 511.327017 642.894231 511.327017 645.346154 511.327017 647.798077 511.327017 650.250000 511.327017 652.701923 511.327017 655.153846 511.327017 657.605769 511.327017 660.057692 511.327017 662.509615 511.327017 664.961538 511.327017 667.413462 511.327017 669.865385 511.327017 672.317308 511.327017 674.769231 511.327017 677.221154 511.327017 679.673077 511.327017 682.125000 511.327017 684.576923 511.327017 687.028846 511.327017 689.480769 511.327017 691.932692 511.327017 694.384615 511.327017 696.836538 511.327017 699.288462 511.327017 701.740385 511.327017 704.192308 511.327017 706.644231 511.327017 709.096154 511.327017 711.548077 511.327017 714.000000 511.327017 716.451923 511.327017 718.903846 511.327017 721.355769 511.327017 723.807692 511.327017 726.259615 511.327017 728.711538 511.327017 731.163462 511.327017 733.615385 511.327017 736.067308 511.327017 738.519231 511.327017 740.971154 511.327017 743.423077 511.327017 745.875000 511.327017 748.326923 511.327017 750.778846 511.327017 753.230769 511.327017 755.682692 511.327017 758.134615 511.327017 760.586538 511.327017 763.038462 511.327017 765.490385 511.327017 767.942308 511.327017 770.394231 511.327017 772.846154 511.320409 775.298077 511.320409 777.750000 511.320409 780.201923 511.320409 782.653846 511.320409 785.105769 511.320409 787.557692 511.320409 790.009615 511.320409 792.461538 511.320409 794.913462 511.320409 797.365385 511.320409 799.817308 511.320409 802.269231 511.320409 804.721154 511.320409 807.173077 511.320409 809.625000 511.320409 812.076923 511.320409 814.528846 511.320409 816.980769 511.320409 819.432692 511.320409 821.884615 511.320409 824.336538 511.320409 826.788462 511.320409 829.240385 511.320409 831.692308 511.320409 834.144231 511.320409 836.596154 511.320409 839.048077 511.320409 841.500000 511.320409 843.951923 511.320409 846.403846 511.320409 848.855769 511.320409 851.307692 511.320409 853.759615 511.320409 856.211538 511.320409 858.663462 511.320409 861.115385 511.320409 863.567308 511.320409 866.019231 511.320409 868.471154 511.320409 870.923077 511.320409 873.375000 511.320409 875.826923 511.320409 878.278846 511.320409 880.730769 511.320409 883.182692 511.320409 885.634615 511.320409 888.086538 511.320409 890.538462 511.320409 892.990385 511.320409 895.442308 511.320409 897.894231 511.320409 900.346154 511.320409" /></g><g class="series serie-1 color-1"><path class="line reactive nofill" d="M17.653846 487.147959 L20.105769 487.147959 22.557692 487.147959 25.009615 487.147959 27.461538 487.147959 29.913462 487.147959 32.365385 487.147959 34.817308 487.147959 37.269231 487.147959 39.721154 487.147959 42.173077 487.147959 44.625000 487.147959 47.076923 487.147959 49.528846 487.147959 51.980769 487.147959 54.432692 487.147959 56.884615 487.147959 59.336538 487.147959 61.788462 487.147959 64.240385 487.147959 66.692308 487.147959 69.144231 487.147959 71.596154 487.147959 74.048077 487.147959 76.500000 487.147959 78.951923 487.147959 81.403846 487.147959 83.855769 487.147959 86.307692 487.147959 88.759615 487.147959 91.211538 487.147959 93.663462 487.147959 96.115385 487.147959 98.567308 487.147959 101.019231 487.147959 103.471154 487.147959 105.923077 487.147959 108.375000 487.147959 110.826923 487.147959 113.278846 487.147959 115.730769 487.147959 118.182692 487.147959 120.634615 487.147959 123.086538 487.147959 125.538462 487.147959 127.990385 487.147959 130.442308 487.147959 132.894231 487.147959 135.346154 487.147959 137.798077 487.147959 140.250000 487.147959 142.701923 487.147959 145.153846 487.147959 147.605769 487.147959 150.057692 487.147959 152.509615 487.147959 154.961538 487.147959 157.413462 487.147959 159.865385 487.147959 162.317308 487.147959 164.769231 487.147959 167.221154 487.147959 169.673077 487.147959 172.125000 487.147959 174.576923 487.147959 177.028846 487.147959 179.480769 487.147959 181.932692 487.147959 184.384615 487.147959 186.836538 487.147959 189.288462 487.147959 191.740385 487.141351 194.192308 487.141351 196.644231 487.141351 199.096154 487.141351 201.548077 487.141351 204.000000 487.141351 206.451923 487.141351 208.903846 487.141351 211.355769 487.141351 213.807692 487.141351 216.259615 487.141351 218.711538 487.141351 221.163462 487.141351 223.615385 487.141351 226.067308 487.141351 228.519231 487.141351 230.971154 487.141351 233.423077 487.141351 235.875000 487.141351 238.326923 487.141351 240.778846 487.141351 243.230769 487.141351 245.682692 487.141351 248.134615 487.141351 250.586538 487.141351 253.038462 487.141351 255.490385 487.141351 257.942308 487.141351 260.394231 487.141351 262.846154 487.141351 265.298077 487.141351 267.750000 487.141351 270.201923 487.141351 272.653846 487.141351 275.105769 487.141351 277.557692 487.141351 280.009615 487.141351 282.461538 487.141351 284.913462 487.141351 287.365385 487.141351 289.817308 487.141351 292.269231 487.141351 294.721154 487.141351 297.173077 487.141351 299.625000 487.141351 302.076923 487.141351 304.528846 487.141351 306.980769 487.141351 309.432692 487.141351 311.884615 487.141351 314.336538 487.141351 316.788462 487.141351 319.240385 487.141351 321.692308 487.141351 324.144231 487.141351 326.596154 487.141351 329.048077 487.141351 331.500000 487.141351 333.951923 487.141351 336.403846 487.141351 338.855769 487.141351 341.307692 487.141351 343.759615 487.141351 346.211538 487.141351 348.663462 487.141351 351.115385 487.141351 353.567308 487.141351 356.019231 487.141351 358.471154 487.141351 360.923077 487.141351 363.375000 487.141351 365.826923 487.141351 368.278846 487.141351 370.730769 487.141351 373.182692 487.141351 375.634615 487.141351 378.086538 487.141351 380.538462 487.141351 382.990385 487.141351 385.442308 487.141351 387.894231 487.141351 390.346154 487.141351 392.798077 487.141351 395.250000 487.141351 397.701923 487.141351 400.153846 487.141351 402.605769 487.141351 405.057692 487.141351 407.509615 487.141351 409.961538 487.141351 412.413462 487.141351 414.865385 487.141351 417.317308 487.141351 419.769231 487.141351 422.221154 487.141351 424.673077 487.141351 427.125000 487.141351 429.576923 487.141351 432.028846 487.141351 434.480769 487.141351 436.932692 487.141351 439.384615 487.141351 441.836538 487.141351 444.288462 487.141351 446.740385 487.141351 449.192308 487.141351 451.644231 487.141351 454.096154 487.141351 456.548077 487.141351 459.000000 487.141351 461.451923 487.141351 463.903846 487.141351 466.355769 487.141351 468.807692 487.141351 471.259615 487.141351 473.711538 487.141351 476.163462 487.141351 478.615385 487.141351 481.067308 487.141351 483.519231 487.141351 485.971154 487.141351 488.423077 487.141351 490.875000 487.141351 493.326923 487.141351 495.778846 487.141351 498.230769 487.141351 500.682692 487.141351 503.134615 487.141351 505.586538 487.141351 508.038462 487.141351 510.490385 487.141351 512.942308 487.141351 515.394231 487.141351 517.846154 487.141351 520.298077 487.141351 522.750000 487.141351 525.201923 487.141351 527.653846 487.141351 530.105769 487.141351 532.557692 487.141351 535.009615 487.141351 537.461538 487.141351 539.913462 487.141351 542.365385 487.141351 544.817308 487.141351 547.269231 487.141351 549.721154 487.141351 552.173077 487.141351 554.625000 487.141351 557.076923 487.141351 559.528846 487.141351 561.980769 487.141351 564.432692 487.141351 566.884615 487.141351 569.336538 487.141351 571.788462 487.141351 574.240385 487.141351 576.692308 487.134743 579.144231 487.134743 581.596154 487.134743 584.048077 487.134743 586.500000 487.134743 588.951923 487.134743 591.403846 487.134743 593.855769 487.134743 596.307692 487.134743 598.759615 487.134743 601.211538 487.134743 603.663462 487.134743 606.115385 487.134743 608.567308 487.134743 611.019231 487.134743 613.471154 487.134743 615.923077 487.134743 618.375000 487.134743 620.826923 487.134743 623.278846 487.134743 625.730769 487.134743 628.182692 487.134743 630.634615 487.134743 633.086538 487.134743 635.538462 487.134743 637.990385 487.134743 640.442308 487.134743 642.894231 487.134743 645.346154 487.134743 647.798077 487.134743 650.250000 487.134743 652.701923 487.134743 655.153846 487.134743 657.605769 487.134743 660.057692 487.134743 662.509615 487.134743 664.961538 487.134743 667.413462 487.134743 669.865385 487.134743 672.317308 487.134743 674.769231 487.134743 677.221154 487.134743 679.673077 487.134743 682.125000 487.134743 684.576923 487.134743 687.028846 487.134743 689.480769 487.134743 691.932692 487.134743 694.384615 487.134743 696.836538 487.134743 699.288462 487.134743 701.740385 487.134743 704.192308 487.134743 706.644231 487.134743 709.096154 487.134743 711.548077 487.134743 714.000000 487.134743 716.451923 487.134743 718.903846 487.134743 721.355769 487.134743 723.807692 487.134743 726.259615 487.134743 728.711538 487.134743 731.163462 487.134743 733.615385 487.134743 736.067308 487.134743 738.519231 487.134743 740.971154 487.134743 743.423077 487.134743 745.875000 487.134743 748.326923 487.134743 750.778846 487.134743 753.230769 487.134743 755.682692 487.134743 758.134615 487.134743 760.586538 487.134743 763.038462 487.134743 765.490385 487.134743 767.942308 487.134743 770.394231 487.134743 772.846154 487.134743 775.298077 487.134743 777.750000 487.134743 780.201923 487.134743 782.653846 487.134743 785.105769 487.134743 787.557692 487.134743 790.009615 487.134743 792.461538 487.134743 794.913462 487.134743 797.365385 487.134743 799.817308 487.134743 802.269231 487.134743 804.721154 487.134743 807.173077 487.134743 809.625000 487.134743 812.076923 487.134743 814.528846 487.134743 816.980769 487.134743 819.432692 487.134743 821.884615 487.134743 824.336538 487.134743 826.788462 487.134743 829.240385 487.134743 831.692308 487.134743 834.144231 487.134743 836.596154 487.134743 839.048077 487.134743 841.500000 487.134743 843.951923 487.134743 846.403846 487.134743 848.855769 487.134743 851.307692 487.134743 853.759615 487.134743 856.211538 487.134743 858.663462 487.134743 861.115385 487.134743 863.567308 487.134743 866.019231 487.134743 868.471154 487.134743 870.923077 487.134743 873.375000 487.134743 875.826923 487.134743 878.278846 487.134743 880.730769 487.134743 883.182692 487.134743 885.634615 487.134743 888.086538 487.134743 890.538462 487.134743 892.990385 487.134743 895.442308 487.134743 897.894231 487.134743 900.346154 487.134743" /></g><g class="series serie-2 color-2"><path class="line reactive nofill" d="M17.653846 577.341992 L20.105769 576.892641 22.557692 576.568844 25.009615 576.311128 27.461538 575.974114 29.913462 575.683358 32.365385 575.412425 34.817308 575.174533 37.269231 574.811088 39.721154 574.441034 42.173077 574.104020 44.625000 573.628237 47.076923 573.238359 49.528846 572.921169 51.980769 572.584156 54.432692 572.253751 56.884615 571.870481 59.336538 571.480602 61.788462 571.176630 64.240385 570.892481 66.692308 570.628157 69.144231 570.357225 71.596154 570.079684 74.048077 569.855008 76.500000 569.650157 78.951923 569.511387 81.403846 569.399049 83.855769 569.233847 86.307692 569.088468 88.759615 568.923266 91.211538 568.824144 93.663462 568.625901 96.115385 568.394617 98.567308 568.183158 101.019231 567.991523 103.471154 567.773455 105.923077 567.548780 108.375000 567.337320 110.826923 567.119253 113.278846 566.894577 115.730769 566.669902 118.182692 566.471658 120.634615 566.207334 123.086538 565.916578 125.538462 565.691902 127.990385 565.414362 130.442308 565.103781 132.894231 564.898929 135.346154 564.727119 137.798077 564.535483 140.250000 564.416538 142.701923 564.244727 145.153846 564.020051 147.605769 563.835024 150.057692 563.564092 152.509615 563.306376 154.961538 562.837200 157.413462 562.354809 159.865385 561.991363 162.317308 561.581660 164.769231 561.046404 167.221154 560.537580 169.673077 559.870161 172.125000 559.242391 174.576923 558.660878 177.028846 558.251175 179.480769 557.854689 181.932692 557.530892 184.384615 556.929554 186.836538 550.744367 189.288462 547.612125 191.740385 546.026180 194.192308 544.929234 196.644231 543.924802 199.096154 543.131829 201.548077 542.312424 204.000000 541.479803 206.451923 540.039236 208.903846 538.519372 211.355769 536.404778 213.807692 534.336441 216.259615 532.215239 218.711538 530.417834 221.163462 528.752592 223.615385 527.358281 226.067308 525.706255 228.519231 524.041012 230.971154 522.673135 233.423077 521.404378 235.875000 520.393338 238.326923 519.322825 240.778846 518.424123 243.230769 517.631150 245.682692 516.884434 248.134615 516.223623 250.586538 515.747840 253.038462 515.463691 255.490385 515.159718 257.942308 514.908610 260.394231 514.644286 262.846154 514.333705 265.298077 513.976868 267.750000 513.507692 270.201923 512.860098 272.653846 512.153030 275.105769 511.360058 277.557692 510.672815 280.009615 510.031829 282.461538 509.404058 284.913462 508.525180 287.365385 507.771856 289.817308 507.137478 292.269231 506.516316 294.721154 506.126438 297.173077 505.683695 299.625000 505.128614 302.076923 504.586749 304.528846 504.137398 306.980769 503.714480 309.432692 503.390682 311.884615 503.139574 314.336538 503.000804 316.788462 502.842210 319.240385 502.716656 321.692308 502.577885 324.144231 502.320169 326.596154 501.976548 329.048077 501.606494 331.500000 501.203399 333.951923 500.853170 336.403846 500.344346 338.855769 499.941251 341.307692 499.518332 343.759615 499.035941 346.211538 498.626238 348.663462 498.044725 351.115385 497.681279 353.567308 497.278185 356.019231 496.960996 358.471154 496.690063 360.923077 496.366266 363.375000 496.088726 365.826923 495.824401 368.278846 495.586510 370.730769 495.460956 373.182692 495.388266 375.634615 495.269321 378.086538 495.190023 380.538462 495.077686 382.990385 494.945523 385.442308 494.753888 387.894231 494.463132 390.346154 494.212024 392.798077 493.941091 395.250000 493.630510 397.701923 493.346362 400.153846 493.088646 402.605769 492.725200 405.057692 492.467484 407.509615 492.150295 409.961538 491.852930 412.413462 491.628254 414.865385 491.330890 417.317308 491.205336 419.769231 490.848498 422.221154 489.870498 424.673077 489.474012 427.125000 489.255945 429.576923 489.130390 432.028846 489.011445 434.480769 488.892499 436.932692 488.747120 439.384615 488.614958 441.836538 488.542269 444.288462 488.449756 446.740385 488.317594 449.192308 488.218472 451.644231 488.092918 454.096154 487.987188 456.548077 487.828594 459.000000 487.709648 461.451923 487.524621 463.903846 487.405675 466.355769 487.260297 468.807692 487.154567 471.259615 487.035621 473.711538 486.910067 476.163462 486.771297 478.615385 486.645743 481.067308 486.540013 483.519231 486.381419 485.971154 486.282297 488.423077 486.203000 490.875000 486.136919 493.326923 486.077446 495.778846 486.024581 498.230769 485.965108 500.682692 485.905635 503.134615 485.859378 505.586538 485.799905 508.038462 485.720608 510.490385 485.661135 512.942308 485.555405 515.394231 485.456284 517.846154 485.383595 520.298077 485.271257 522.750000 485.152311 525.201923 485.066406 527.653846 484.940852 530.105769 484.775649 532.557692 484.683135 535.009615 484.597230 537.461538 484.491500 539.913462 484.405595 542.365385 484.319690 544.817308 484.247000 547.269231 484.207352 549.721154 484.108230 552.173077 484.035541 554.625000 483.956244 557.076923 483.876947 559.528846 483.777825 561.980769 483.599406 564.432692 483.447420 566.884615 483.209528 569.336538 482.912163 571.788462 482.694096 574.240385 482.429771 576.692308 482.145623 579.144231 481.815218 581.596154 481.511245 584.048077 481.253529 586.500000 480.995813 588.951923 480.790961 591.403846 480.586110 593.855769 480.387867 596.307692 480.202840 598.759615 480.004597 601.211538 479.865826 603.663462 479.727056 606.115385 479.641151 608.567308 479.581678 611.019231 479.508989 613.471154 479.475948 615.923077 479.390043 618.375000 479.290921 620.826923 479.211624 623.278846 479.006773 625.730769 478.868002 628.182692 478.676367 630.634615 478.464908 633.086538 478.286489 635.538462 478.055206 637.990385 477.797489 640.442308 477.592638 642.894231 477.341530 645.346154 477.097030 647.798077 476.859138 650.250000 476.654287 652.701923 476.436220 655.153846 476.211544 657.605769 476.211544 660.057692 476.211544 662.509615 476.211544 664.961538 476.211544 667.413462 476.211544 669.865385 476.211544 672.317308 476.211544 674.769231 476.211544 677.221154 476.211544 679.673077 476.211544 682.125000 476.211544 684.576923 476.211544 687.028846 476.211544 689.480769 476.211544 691.932692 476.211544 694.384615 476.211544 696.836538 476.211544 699.288462 476.211544 701.740385 476.211544 704.192308 476.211544 706.644231 476.211544 709.096154 476.211544 711.548077 476.211544 714.000000 476.211544 716.451923 476.211544 718.903846 476.211544 721.355769 476.211544 723.807692 476.211544 726.259615 476.211544 728.711538 476.211544 731.163462 476.211544 733.615385 476.211544 736.067308 476.211544 738.519231 476.211544 740.971154 476.211544 743.423077 476.211544 745.875000 476.211544 748.326923 476.211544 750.778846 476.211544 753.230769 476.211544 755.682692 476.211544 758.134615 476.211544 760.586538 476.211544 763.038462 476.211544 765.490385 476.211544 767.942308 476.211544 770.394231 476.211544 772.846154 476.204936 775.298077 476.204936 777.750000 476.204936 780.201923 476.204936 782.653846 476.204936 785.105769 476.204936 787.557692 476.204936 790.009615 476.204936 792.461538 476.204936 794.913462 476.204936 797.365385 476.204936 799.817308 476.204936 802.269231 476.204936 804.721154 476.204936 807.173077 476.204936 809.625000 476.204936 812.076923 476.204936 814.528846 476.198328 816.980769 476.198328 819.432692 476.198328 821.884615 476.198328 824.336538 476.198328 826.788462 476.198328 829.240385 476.198328 831.692308 476.198328 834.144231 476.198328 836.596154 476.198328 839.048077 476.198328 841.500000 476.198328 843.951923 476.198328 846.403846 476.198328 848.855769 476.198328 851.307692 476.198328 853.759615 476.198328 856.211538 476.198328 858.663462 476.198328 861.115385 476.198328 863.567308 476.198328 866.019231 476.198328 868.471154 476.198328 870.923077 476.198328 873.375000 476.198328 875.826923 476.198328 878.278846 476.198328 880.730769 476.198328 883.182692 476.198328 885.634615 476.198328 888.086538 476.198328 890.538462 476.198328 892.990385 476.198328 895.442308 476.198328 897.894231 476.198328 900.346154 476.198328" /></g><g class="series serie-3 color-3"><path class="line reactive nofill" d="M17.653846 603.173077 L20.105769 603.173077 22.557692 603.173077 25.009615 603.173077 27.461538 603.173077 29.913462 603.173077 32.365385 603.173077 34.817308 603.173077 37.269231 603.173077 39.721154 603.173077 42.173077 603.173077 44.625000 603.173077 47.076923 603.173077 49.528846 603.173077 51.980769 603.173077 54.432692 603.173077 56.884615 603.173077 59.336538 603.173077 61.788462 603.173077 64.240385 603.173077 66.692308 603.173077 69.144231 603.173077 71.596154 603.173077 74.048077 603.173077 76.500000 603.173077 78.951923 603.173077 81.403846 603.173077 83.855769 603.173077 86.307692 603.173077 88.759615 603.173077 91.211538 603.173077 93.663462 603.173077 96.115385 603.173077 98.567308 603.166469 101.019231 603.166469 103.471154 603.166469 105.923077 603.166469 108.375000 603.166469 110.826923 603.166469 113.278846 603.166469 115.730769 603.166469 118.182692 603.166469 120.634615 603.166469 123.086538 603.166469 125.538462 603.166469 127.990385 603.166469 130.442308 603.166469 132.894231 603.166469 135.346154 603.166469 137.798077 603.166469 140.250000 603.166469 142.701923 603.159861 145.153846 603.159861 147.605769 603.159861 150.057692 603.159861 152.509615 603.159861 154.961538 603.159861 157.413462 603.159861 159.865385 603.159861 162.317308 603.159861 164.769231 603.159861 167.221154 603.159861 169.673077 603.159861 172.125000 603.153253 174.576923 603.153253 177.028846 603.153253 179.480769 603.153253 181.932692 603.153253 184.384615 603.153253 186.836538 603.153253 189.288462 603.153253 191.740385 603.153253 194.192308 603.153253 196.644231 603.153253 199.096154 603.153253 201.548077 603.153253 204.000000 603.153253 206.451923 603.153253 208.903846 603.153253 211.355769 603.153253 213.807692 603.153253 216.259615 603.153253 218.711538 603.153253 221.163462 603.153253 223.615385 603.153253 226.067308 603.153253 228.519231 603.153253 230.971154 603.153253 233.423077 603.153253 235.875000 603.153253 238.326923 603.153253 240.778846 603.153253 243.230769 603.153253 245.682692 603.153253 248.134615 603.153253 250.586538 603.153253 253.038462 603.153253 255.490385 603.153253 257.942308 603.153253 260.394231 603.153253 262.846154 603.153253 265.298077 603.153253 267.750000 603.153253 270.201923 603.153253 272.653846 603.153253 275.105769 603.153253 277.557692 603.153253 280.009615 603.153253 282.461538 603.153253 284.913462 603.153253 287.365385 603.153253 289.817308 603.153253 292.269231 603.153253 294.721154 603.153253 297.173077 603.153253 299.625000 603.153253 302.076923 603.153253 304.528846 603.153253 306.980769 603.153253 309.432692 603.153253 311.884615 603.153253 314.336538 603.153253 316.788462 603.153253 319.240385 603.153253 321.692308 603.153253 324.144231 603.153253 326.596154 603.153253 329.048077 603.153253 331.500000 603.153253 333.951923 603.153253 336.403846 603.153253 338.855769 603.153253 341.307692 603.153253 343.759615 603.153253 346.211538 603.153253 348.663462 603.153253 351.115385 603.153253 353.567308 603.153253 356.019231 603.153253 358.471154 603.153253 360.923077 603.153253 363.375000 603.153253 365.826923 603.153253 368.278846 603.153253 370.730769 603.153253 373.182692 603.153253 375.634615 603.153253 378.086538 603.153253 380.538462 603.153253 382.990385 603.153253 385.442308 603.153253 387.894231 603.153253 390.346154 603.153253 392.798077 603.153253 395.250000 603.153253 397.701923 603.153253 400.153846 603.153253 402.605769 603.153253 405.057692 603.153253 407.509615 603.087172 409.961538 602.935185 412.413462 602.902145 414.865385 602.862496 417.317308 602.842672 419.769231 602.836064 422.221154 602.816239 424.673077 602.816239 427.125000 602.816239 429.576923 602.809631 432.028846 602.809631 434.480769 602.809631 436.932692 602.809631 439.384615 602.809631 441.836538 602.809631 444.288462 602.809631 446.740385 602.783199 449.192308 602.756766 451.644231 602.756766 454.096154 602.756766 456.548077 602.730334 459.000000 602.723726 461.451923 602.723726 463.903846 602.717118 466.355769 602.710510 468.807692 602.710510 471.259615 602.710510 473.711538 602.703901 476.163462 602.703901 478.615385 602.697293 481.067308 602.690685 483.519231 602.690685 485.971154 602.690685 488.423077 602.690685 490.875000 602.690685 493.326923 602.684077 495.778846 602.684077 498.230769 602.684077 500.682692 602.684077 503.134615 602.684077 505.586538 602.684077 508.038462 602.684077 510.490385 602.684077 512.942308 602.684077 515.394231 602.684077 517.846154 602.684077 520.298077 602.684077 522.750000 602.684077 525.201923 602.684077 527.653846 602.684077 530.105769 602.684077 532.557692 602.684077 535.009615 602.684077 537.461538 602.684077 539.913462 602.684077 542.365385 602.684077 544.817308 602.684077 547.269231 602.684077 549.721154 602.684077 552.173077 602.684077 554.625000 602.684077 557.076923 602.684077 559.528846 602.684077 561.980769 602.684077 564.432692 602.684077 566.884615 602.684077 569.336538 602.684077 571.788462 602.684077 574.240385 602.684077 576.692308 602.684077 579.144231 602.684077 581.596154 602.684077 584.048077 602.684077 586.500000 602.684077 588.951923 602.684077 591.403846 602.684077 593.855769 602.684077 596.307692 602.684077 598.759615 602.684077 601.211538 599.769903 603.663462 594.615580 606.115385 591.820352 608.567308 589.778447 611.019231 588.450218 613.471154 587.577948 615.923077 586.679245 618.375000 585.912705 620.826923 585.146165 623.278846 584.148341 625.730769 583.130693 628.182692 581.980882 630.634615 580.613004 633.086538 579.027059 635.538462 577.652573 637.990385 576.549019 640.442308 575.557804 642.894231 574.639277 645.346154 573.634845 647.798077 572.623805 650.250000 571.777967 652.701923 570.932130 655.153846 570.211846 657.605769 569.623725 660.057692 569.081860 662.509615 568.586252 664.961538 568.077428 667.413462 567.720590 669.865385 567.489307 672.317308 567.343928 674.769231 567.205158 677.221154 567.099428 679.673077 566.828496 682.125000 566.630253 684.576923 566.458442 687.028846 566.154469 689.480769 565.817456 691.932692 565.506875 694.384615 565.097172 696.836538 564.727119 699.288462 564.284375 701.740385 563.940754 704.192308 563.524443 706.644231 563.180822 709.096154 562.784336 711.548077 562.440714 714.000000 562.103701 716.451923 561.812944 718.903846 561.575052 721.355769 561.304120 723.807692 561.086052 726.259615 560.967106 728.711538 560.861377 731.163462 560.722607 733.615385 560.610269 736.067308 560.497931 738.519231 560.445066 740.971154 560.286472 743.423077 560.187350 745.875000 560.028755 748.326923 559.889985 750.778846 559.685134 753.230769 559.519931 755.682692 559.268823 758.134615 559.024323 760.586538 558.779824 763.038462 558.555148 765.490385 558.290824 767.942308 558.079364 770.394231 557.841473 772.846154 557.623405 775.298077 557.444986 777.750000 557.193878 780.201923 556.949378 782.653846 556.751135 785.105769 556.552892 787.557692 556.387689 790.009615 556.341433 792.461538 556.222487 794.913462 556.083716 797.365385 555.984595 799.817308 555.925122 802.269231 555.806176 804.721154 555.660798 807.173077 555.488987 809.625000 555.257703 812.076923 555.019811 814.528846 554.828176 816.980769 554.583676 819.432692 554.319352 821.884615 554.074852 824.336538 553.850177 826.788462 553.592461 829.240385 553.420650 831.692308 553.182758 834.144231 553.004339 836.596154 552.806096 839.048077 552.660718 841.500000 552.475691 843.951923 552.343529 846.403846 552.211367 848.855769 552.151894 851.307692 552.065988 853.759615 552.013123 856.211538 551.973475 858.663462 551.914002 861.115385 551.841313 863.567308 551.801664 866.019231 551.735583 868.471154 551.662894 870.923077 551.583597 873.375000 551.491083 875.826923 551.378745 878.278846 551.273016 880.730769 551.134245 883.182692 551.002083 885.634615 550.896354 888.086538 550.777408 890.538462 550.665070 892.990385 550.585773 895.442308 550.506475 897.894231 550.374313 900.346154 550.242151" /></g><g class="series serie-4 color-4"><path class="line reactive nofill" d="M17.653846 587.194678 L20.105769 581.465450 22.557692 577.507195 25.009615 575.670141 27.461538 574.170101 29.913462 573.073156 32.365385 571.996035 34.817308 570.925522 37.269231 569.167766 39.721154 567.561996 42.173077 565.916578 44.625000 563.828416 47.076923 561.356985 49.528846 558.905378 51.980769 556.975811 54.432692 555.707054 56.884615 554.438298 59.336538 552.951474 61.788462 551.795056 64.240385 550.711327 66.692308 549.687070 69.144231 548.953570 71.596154 548.107733 74.048077 547.585693 76.500000 546.951314 78.951923 546.349977 81.403846 545.894018 83.855769 545.570220 86.307692 545.266248 88.759615 545.101045 91.211538 544.902802 93.663462 544.645086 96.115385 544.512924 98.567308 544.248599 101.019231 543.911586 103.471154 543.548140 105.923077 543.012884 108.375000 542.530492 110.826923 542.100965 113.278846 541.611965 115.730769 541.116357 118.182692 540.746303 120.634615 540.263912 123.086538 539.774912 125.538462 539.437898 127.990385 539.147142 130.442308 538.836561 132.894231 538.559020 135.346154 538.255048 137.798077 538.003940 140.250000 537.858561 142.701923 537.713183 145.153846 537.581021 147.605769 537.468683 150.057692 537.349737 152.509615 537.210967 154.961538 537.092021 157.413462 536.854129 159.865385 536.735183 162.317308 536.536940 164.769231 536.285832 167.221154 536.028116 169.673077 535.777008 172.125000 535.512684 174.576923 535.301224 177.028846 535.043508 179.480769 534.785792 181.932692 534.488427 184.384615 534.270360 186.836538 534.039076 189.288462 533.867265 191.740385 533.649198 194.192308 533.523644 196.644231 533.371657 199.096154 533.232887 201.548077 533.100725 204.000000 533.001604 206.451923 532.922306 208.903846 532.862833 211.355769 532.790144 213.807692 532.697631 216.259615 532.611725 218.711538 532.492779 221.163462 532.334185 223.615385 532.195415 226.067308 532.003780 228.519231 531.851793 230.971154 531.739455 233.423077 531.587469 235.875000 531.448699 238.326923 531.276888 240.778846 531.124902 243.230769 530.946483 245.682692 530.768064 248.134615 530.629294 250.586538 530.490523 253.038462 530.391402 255.490385 530.285672 257.942308 530.186551 260.394231 530.120470 262.846154 530.074213 265.298077 530.021348 267.750000 529.988307 270.201923 529.942051 272.653846 529.895794 275.105769 529.790064 277.557692 529.730591 280.009615 529.631470 282.461538 529.565389 284.913462 529.525740 287.365385 529.472875 289.817308 529.433227 292.269231 529.380362 294.721154 529.314281 297.173077 529.294456 299.625000 529.234983 302.076923 529.109429 304.528846 528.997092 306.980769 528.924402 309.432692 528.864929 311.884615 528.798848 314.336538 528.745984 316.788462 528.693119 319.240385 528.627038 321.692308 528.567565 324.144231 528.514700 326.596154 528.488267 329.048077 528.475051 331.500000 528.408970 333.951923 528.382538 336.403846 528.356105 338.855769 528.316457 341.307692 528.270200 343.759615 528.204119 346.211538 528.098389 348.663462 528.038916 351.115385 527.972835 353.567308 527.919970 356.019231 527.853889 358.471154 527.814241 360.923077 527.748160 363.375000 527.662254 365.826923 527.543308 368.278846 527.516876 370.730769 527.358281 373.182692 527.245944 375.634615 527.173254 378.086538 527.120390 380.538462 527.047700 382.990385 527.008052 385.442308 526.935363 387.894231 526.862673 390.346154 526.796592 392.798077 526.723903 395.250000 526.644606 397.701923 526.565309 400.153846 526.360457 402.605769 526.175430 405.057692 525.963971 407.509615 525.752512 409.961538 525.481579 412.413462 525.250296 414.865385 525.012404 417.317308 524.840593 419.769231 524.655566 422.221154 524.543228 424.673077 524.391242 427.125000 520.399946 429.576923 492.751632 432.028846 477.348138 434.480769 468.347898 436.932692 461.171496 439.384615 456.070038 441.836538 451.635999 444.288462 447.235001 446.740385 442.140152 449.192308 434.805154 451.644231 426.538414 454.096154 417.439053 456.548077 406.885908 459.000000 394.845940 461.451923 382.369836 463.903846 372.014935 466.355769 364.309884 468.807692 357.417630 471.259615 350.492335 473.711538 343.580257 476.163462 337.705651 478.615385 332.227531 481.067308 327.800100 483.519231 324.264764 485.971154 320.775684 488.423077 317.821861 490.875000 315.390078 493.326923 313.130106 495.778846 311.590417 498.230769 310.394350 500.682692 309.403134 503.134615 308.418527 505.586538 307.506608 508.038462 306.270892 510.490385 304.717988 512.942308 303.178299 515.394231 301.143002 517.846154 298.982152 520.298077 296.649491 522.750000 294.211100 525.201923 292.083290 527.653846 290.127290 530.105769 287.959832 532.557692 285.818806 535.009615 283.664563 537.461538 281.774645 539.913462 280.188700 542.365385 278.602754 544.817308 277.175403 547.269231 275.906647 549.721154 274.763445 552.173077 273.891175 554.625000 273.137851 557.076923 272.536513 559.528846 272.100378 561.980769 271.551906 564.432692 271.003433 566.884615 270.514433 569.336538 269.754501 571.788462 269.080474 574.240385 268.155339 576.692308 267.296286 579.144231 266.166299 581.596154 264.811638 584.048077 263.807206 586.500000 262.630963 588.951923 261.461328 591.403846 260.370991 593.855769 259.340126 596.307692 258.296046 598.759615 257.397343 601.211538 256.670452 603.663462 255.811398 606.115385 254.899479 608.567308 254.271709 611.019231 253.670372 613.471154 253.240845 615.923077 252.864183 618.375000 252.573426 620.826923 252.249629 623.278846 251.912616 625.730769 251.582210 628.182692 251.251805 630.634615 250.914792 633.086538 250.425792 635.538462 249.903752 637.990385 249.011657 640.442308 248.337631 642.894231 247.742901 645.346154 247.148172 647.798077 246.454320 650.250000 245.813334 652.701923 245.079835 655.153846 244.432240 657.605769 243.956457 660.057692 243.441024 662.509615 242.615011 664.961538 236.224973 667.413462 232.927528 669.865385 230.845975 672.317308 229.405408 674.769231 228.440625 677.221154 227.753382 679.673077 227.072747 682.125000 226.444977 684.576923 225.711477 687.028846 224.977977 689.480769 224.330383 691.932692 223.524194 694.384615 222.698181 696.836538 221.885384 699.288462 220.966857 701.740385 220.054939 704.192308 219.261966 706.644231 218.422737 709.096154 217.629764 711.548077 216.942521 714.000000 216.175981 716.451923 215.462305 718.903846 214.900616 721.355769 214.173725 723.807692 213.545955 726.259615 213.050347 728.711538 212.541523 731.163462 212.105388 733.615385 211.821239 736.067308 211.583347 738.519231 211.352064 740.971154 211.107564 743.423077 210.803591 745.875000 210.611956 748.326923 210.327807 750.778846 210.030442 753.230769 209.653780 755.682692 209.237470 758.134615 208.821159 760.586538 208.437889 763.038462 208.008362 765.490385 207.625092 767.942308 207.162525 770.394231 206.706565 772.846154 206.283647 775.298077 205.774822 777.750000 205.325471 780.201923 204.889336 782.653846 204.519282 785.105769 204.102972 787.557692 203.647012 790.009615 203.290175 792.461538 202.946553 794.913462 202.622756 797.365385 202.285743 799.817308 201.843000 802.269231 201.274702 804.721154 200.772486 807.173077 199.986122 809.625000 198.981690 812.076923 197.805447 814.528846 196.087340 816.980769 194.712854 819.432692 193.563043 821.884615 192.505746 824.336538 191.415409 826.788462 190.159869 829.240385 188.825032 831.692308 187.853640 834.144231 187.113532 836.596154 186.446114 839.048077 185.739046 841.500000 185.203790 843.951923 184.615668 846.403846 184.265439 848.855769 183.941642 851.307692 183.611236 853.759615 183.300655 856.211538 183.016507 858.663462 182.765399 861.115385 182.527507 863.567308 182.269791 866.019231 181.860088 868.471154 181.476818 870.923077 180.842440 873.375000 180.208062 875.826923 179.586900 878.278846 178.952522 880.730769 178.278495 883.182692 177.630901 885.634615 177.016347 888.086538 176.236590 890.538462 175.754199 892.990385 175.337888 895.442308 174.914969 897.894231 174.538307 900.346154 174.538307" /></g><g class="series serie-5 color-5"><path class="line reactive nofill" d="M17.653846 589.917217 L20.105769 584.954530 22.557692 582.185734 25.009615 580.342072 27.461538 578.604140 29.913462 577.447722 32.365385 576.284695 34.817308 574.930034 37.269231 572.907953 39.721154 570.304360 42.173077 567.581820 44.625000 563.854849 47.076923 560.445066 49.528846 558.125621 51.980769 555.991203 54.432692 554.220231 56.884615 552.383177 59.336538 550.585773 61.788462 548.775152 64.240385 547.195814 66.692308 545.953491 69.144231 544.849937 71.596154 543.871937 74.048077 542.946802 76.500000 542.219911 78.951923 541.327817 81.403846 540.904898 83.855769 540.600925 86.307692 540.230871 88.759615 539.880641 91.211538 539.649358 93.663462 539.431290 96.115385 538.988547 98.567308 538.473115 101.019231 537.911426 103.471154 537.151494 105.923077 536.391562 108.375000 535.644846 110.826923 534.937779 113.278846 534.349657 115.730769 533.675630 118.182692 532.981779 120.634615 532.380442 123.086538 531.858401 125.538462 531.422266 127.990385 530.900226 130.442308 530.431050 132.894231 530.041172 135.346154 529.644686 137.798077 529.327497 140.250000 529.016916 142.701923 528.897970 145.153846 528.759200 147.605769 528.613821 150.057692 528.428794 152.509615 528.283416 154.961538 528.005876 157.413462 527.655646 159.865385 527.358281 162.317308 526.895714 164.769231 526.426538 167.221154 526.030052 169.673077 525.626958 172.125000 525.164390 174.576923 524.774512 177.028846 524.292120 179.480769 523.796512 181.932692 523.327337 184.384615 522.963891 186.836538 522.712783 189.288462 522.422027 191.740385 522.118054 194.192308 521.741392 196.644231 521.503500 199.096154 521.351513 201.548077 521.206135 204.000000 521.107013 206.451923 520.994676 208.903846 520.869122 211.355769 520.776608 213.807692 520.578365 216.259615 520.347081 218.711538 520.049717 221.163462 519.785392 223.615385 519.507852 226.067308 519.151014 228.519231 518.800785 230.971154 518.523244 233.423077 518.186231 235.875000 517.875650 238.326923 517.545245 240.778846 517.287528 243.230769 517.115718 245.682692 516.910866 248.134615 516.725839 250.586538 516.554029 253.038462 516.322745 255.490385 516.183975 257.942308 516.065029 260.394231 515.972515 262.846154 515.860178 265.298077 515.774272 267.750000 515.721407 270.201923 515.668543 272.653846 515.562813 275.105769 515.503340 277.557692 515.391002 280.009615 515.278664 282.461538 515.212583 284.913462 515.133286 287.365385 515.073813 289.817308 514.935043 292.269231 514.809489 294.721154 514.730192 297.173077 514.571597 299.625000 514.439435 302.076923 514.320489 304.528846 514.181719 306.980769 514.009908 309.432692 513.904178 311.884615 513.824881 314.336538 513.765408 316.788462 513.639854 319.240385 513.547341 321.692308 513.474652 324.144231 513.388746 326.596154 513.316057 329.048077 513.263192 331.500000 513.170679 333.951923 513.084773 336.403846 512.998868 338.855769 512.926179 341.307692 512.860098 343.759615 512.708111 346.211538 512.595773 348.663462 512.463611 351.115385 512.351274 353.567308 512.245544 356.019231 512.139814 358.471154 512.027476 360.923077 511.948179 363.375000 511.849058 365.826923 511.736720 368.278846 511.578125 370.730769 511.465787 373.182692 511.340233 375.634615 511.267544 378.086538 511.194855 380.538462 511.122166 382.990385 511.036261 385.442308 510.917315 387.894231 510.857842 390.346154 510.771936 392.798077 510.606734 395.250000 510.441531 397.701923 510.130950 400.153846 509.787329 402.605769 509.390842 405.057692 509.073653 407.509615 508.710207 409.961538 508.386410 412.413462 507.904019 414.865385 507.514140 417.317308 507.302681 419.769231 507.064789 422.221154 506.807073 424.673077 506.529533 427.125000 506.232168 429.576923 473.323802 432.028846 457.689024 434.480769 449.237257 436.932692 442.999205 439.384615 437.646640 441.836538 433.159736 444.288462 428.097927 446.740385 423.148456 449.192308 415.978662 451.644231 405.531247 454.096154 391.779779 456.548077 374.274907 459.000000 359.234859 461.451923 345.985607 463.903846 335.756260 466.355769 326.756020 468.807692 317.550929 471.259615 308.867878 473.711538 300.581313 476.163462 293.907127 478.615385 288.825494 481.067308 284.411279 483.519231 280.327470 485.971154 276.620323 488.423077 273.481472 490.875000 270.719284 493.326923 268.882231 495.778846 267.705988 498.230769 266.734597 500.682692 265.664083 503.134615 264.646435 505.586538 263.371071 508.038462 261.659571 510.490385 259.426032 512.942308 256.432560 515.394231 253.042602 517.846154 249.646035 520.298077 246.077658 522.750000 242.912376 525.201923 239.852823 527.653846 236.799878 530.105769 233.674244 532.557692 230.462705 535.009615 227.918584 537.461538 225.513234 539.913462 223.649748 542.365385 221.726789 544.817308 220.041722 547.269231 218.383088 549.721154 217.253102 552.173077 216.268494 554.625000 215.475521 557.076923 214.900616 559.528846 214.147292 561.980769 213.572387 564.432692 212.838887 566.884615 211.966617 569.336538 211.061307 571.788462 209.422497 574.240385 207.750646 576.692308 206.045755 579.144231 204.136012 581.596154 202.411297 584.048077 200.779095 586.500000 198.842920 588.951923 197.085164 591.403846 195.419921 593.855769 194.190813 596.307692 192.756854 598.759615 191.494706 601.211538 190.556355 603.663462 189.624612 606.115385 188.640005 608.567308 187.833816 611.019231 187.272127 613.471154 186.842600 615.923077 186.452722 618.375000 186.142141 620.826923 185.732438 623.278846 185.309519 625.730769 184.840344 628.182692 184.245614 630.634615 183.564979 633.086538 182.752183 635.538462 181.688278 637.990385 180.604548 640.442308 179.758711 642.894231 178.952522 645.346154 177.796103 647.798077 176.666117 650.250000 175.463442 652.701923 174.584564 655.153846 173.950186 657.605769 173.170429 660.057692 172.417105 662.509615 171.809160 664.961538 164.949946 667.413462 161.275839 669.865385 158.943178 672.317308 157.456354 674.769231 156.511395 677.221154 155.672166 679.673077 155.024571 682.125000 154.258031 684.576923 153.306464 687.028846 152.216127 689.480769 151.119181 691.932692 149.890073 694.384615 148.832776 696.836538 147.458290 699.288462 146.334913 701.740385 145.383345 704.192308 144.154238 706.644231 143.149806 709.096154 142.118941 711.548077 141.101293 714.000000 140.295104 716.451923 139.383185 718.903846 138.616645 721.355769 137.638646 723.807692 136.924970 726.259615 136.270768 728.711538 135.861065 731.163462 135.372065 733.615385 135.074701 736.067308 134.770728 738.519231 134.532836 740.971154 134.268512 743.423077 133.997579 745.875000 133.680390 748.326923 133.231039 750.778846 132.755256 753.230769 132.034972 755.682692 131.354337 758.134615 130.667094 760.586538 130.184702 763.038462 129.523892 765.490385 128.975419 767.942308 128.459987 770.394231 127.792568 772.846154 127.197839 775.298077 126.556852 777.750000 126.114109 780.201923 125.618501 782.653846 125.050204 785.105769 124.567813 787.557692 124.230799 790.009615 123.860745 792.461538 123.497300 794.913462 122.995084 797.365385 122.539124 799.817308 121.990652 802.269231 121.217503 804.721154 120.067693 807.173077 118.422274 809.625000 116.420018 812.076923 114.107182 814.528846 111.635750 816.980769 110.003548 819.432692 108.410995 821.884615 106.554117 824.336538 104.684023 826.788462 102.899834 829.240385 101.340322 831.692308 100.283025 834.144231 99.291809 836.596154 98.313809 839.048077 97.282945 841.500000 96.483364 843.951923 95.829161 846.403846 95.274081 848.855769 94.930459 851.307692 94.666135 853.759615 94.322513 856.211538 94.025149 858.663462 93.734392 861.115385 93.397379 863.567308 92.987676 866.019231 92.128622 868.471154 91.243136 870.923077 90.265137 873.375000 89.392867 875.826923 88.494164 878.278846 87.826746 880.730769 87.073422 883.182692 86.128462 885.634615 85.355314 888.086538 84.410355 890.538462 83.775977 892.990385 83.234112 895.442308 82.606342 897.894231 81.978572 900.346154 81.978572" /></g><g class="series serie-6 color-6"><path class="line reactive nofill" d="M17.653846 589.699150 L20.105769 583.553611 22.557692 580.024883 25.009615 577.963154 27.461538 576.403641 29.913462 575.101844 32.365385 573.971858 34.817308 572.537899 37.269231 571.335224 39.721154 569.498171 42.173077 567.304280 44.625000 564.905537 47.076923 561.793120 49.528846 558.515499 51.980769 556.235703 54.432692 554.715839 56.884615 553.222407 59.336538 551.728975 61.788462 550.076948 64.240385 548.636381 66.692308 547.334585 69.144231 546.435882 71.596154 545.662734 74.048077 544.869761 76.500000 544.103221 78.951923 543.468843 81.403846 542.847681 83.855769 542.537100 86.307692 542.259560 88.759615 541.962195 91.211538 541.697871 93.663462 541.380681 96.115385 541.096533 98.567308 540.733087 101.019231 540.396074 103.471154 539.900466 105.923077 539.213223 108.375000 538.572237 110.826923 538.050196 113.278846 537.600845 115.730769 536.959859 118.182692 536.332089 120.634615 535.836481 123.086538 535.195495 125.538462 534.772576 127.990385 534.257144 130.442308 533.873874 132.894231 533.497211 135.346154 533.061077 137.798077 532.644766 140.250000 532.281320 142.701923 532.069861 145.153846 531.911266 147.605769 531.759280 150.057692 531.613901 152.509615 531.448699 154.961538 531.303320 157.413462 531.072037 159.865385 530.735023 162.317308 530.437659 164.769231 530.047780 167.221154 529.505916 169.673077 529.102821 172.125000 528.653470 174.576923 528.184295 177.028846 527.708511 179.480769 527.265768 181.932692 526.862673 184.384615 526.439755 186.836538 526.063093 189.288462 525.772336 191.740385 525.428715 194.192308 525.124742 196.644231 524.853809 199.096154 524.549837 201.548077 524.331769 204.000000 524.166566 206.451923 524.027796 208.903846 523.908850 211.355769 523.809729 213.807692 523.717215 216.259615 523.532188 218.711538 523.386810 221.163462 523.195175 223.615385 523.049797 226.067308 522.633486 228.519231 522.322905 230.971154 522.025540 233.423077 521.734784 235.875000 521.391162 238.326923 521.067365 240.778846 520.803041 243.230769 520.518892 245.682692 520.247960 248.134615 520.010068 250.586538 519.758960 253.038462 519.593757 255.490385 519.395514 257.942308 519.296393 260.394231 519.190663 262.846154 519.098149 265.298077 519.032068 267.750000 518.926339 270.201923 518.899906 272.653846 518.860258 275.105769 518.800785 277.557692 518.701663 280.009615 518.569501 282.461538 518.470379 284.913462 518.391082 287.365385 518.252312 289.817308 518.139974 292.269231 518.087109 294.721154 517.981380 297.173077 517.862434 299.625000 517.776528 302.076923 517.644366 304.528846 517.498988 306.980769 517.426299 309.432692 517.347001 311.884615 517.201623 314.336538 517.109110 316.788462 516.990164 319.240385 516.871218 321.692308 516.805137 324.144231 516.719231 326.596154 516.626718 329.048077 516.580461 331.500000 516.534204 333.951923 516.428475 336.403846 516.329353 338.855769 516.263272 341.307692 516.104678 343.759615 515.985732 346.211538 515.880002 348.663462 515.767664 351.115385 515.642110 353.567308 515.516556 356.019231 515.331529 358.471154 515.252232 360.923077 515.133286 363.375000 514.968083 365.826923 514.750016 368.278846 514.611246 370.730769 514.479084 373.182692 514.313881 375.634615 514.208151 378.086538 514.089205 380.538462 514.042949 382.990385 513.963651 385.442308 513.857922 387.894231 513.745584 390.346154 513.461435 392.798077 513.117814 395.250000 512.780800 397.701923 512.357882 400.153846 511.981220 402.605769 511.518652 405.057692 511.009828 407.509615 510.586909 409.961538 510.230072 412.413462 509.820369 414.865385 509.324761 417.317308 508.987748 419.769231 508.630910 422.221154 508.439275 424.673077 508.155127 427.125000 507.785073 429.576923 476.812882 432.028846 458.911524 434.480769 448.265865 436.932692 439.278842 439.384615 433.985749 441.836538 428.732305 444.288462 424.324699 446.740385 418.602079 449.192308 410.599664 451.644231 401.592816 454.096154 391.839252 456.548077 379.158297 459.000000 363.820884 461.451923 348.390957 463.903846 335.445679 466.355769 326.901398 468.807692 318.086185 471.259615 310.182891 473.711538 302.213516 476.163462 295.816869 478.615385 288.779237 481.067308 284.087482 483.519231 280.175483 485.971154 276.607106 488.423077 273.283229 490.875000 270.322798 493.326923 268.102474 495.778846 266.291853 498.230769 265.234557 500.682692 264.104571 503.134615 263.073706 505.586538 261.837990 508.038462 260.390815 510.490385 258.818086 512.942308 256.624195 515.394231 254.258493 517.846154 251.568994 520.298077 247.927928 522.750000 244.841943 525.201923 242.357295 527.653846 239.324175 530.105769 236.429824 532.557692 233.813014 535.009615 231.328367 537.461538 229.081611 539.913462 227.310639 542.365385 225.671828 544.817308 224.270910 547.269231 222.638708 549.721154 221.284046 552.173077 220.180493 554.625000 219.460209 557.076923 218.845655 559.528846 218.264142 561.980769 217.861048 564.432692 217.299359 566.884615 216.631940 569.336538 215.680373 571.788462 214.768454 574.240385 213.506306 576.692308 212.072347 579.144231 210.486402 581.596154 208.563443 584.048077 207.215389 586.500000 205.523714 588.951923 203.937769 591.403846 202.305567 593.855769 200.917865 596.307692 200.065419 598.759615 198.565379 601.211538 197.646853 603.663462 196.642420 606.115385 195.763542 608.567308 194.878056 611.019231 194.085084 613.471154 193.536611 615.923077 193.192989 618.375000 192.869192 620.826923 192.525571 623.278846 192.115868 625.730769 191.679733 628.182692 191.256814 630.634615 190.642261 633.086538 189.895545 635.538462 189.181869 637.990385 188.309599 640.442308 187.252302 642.894231 186.261087 645.346154 185.540803 647.798077 184.734614 650.250000 183.716966 652.701923 183.062763 655.153846 182.276399 657.605769 181.675061 660.057692 181.119980 662.509615 180.584724 664.961538 173.362064 667.413462 169.053580 669.865385 166.357473 672.317308 164.533635 674.769231 163.423474 677.221154 162.372785 679.673077 161.546772 682.125000 160.687718 684.576923 159.762583 687.028846 158.929962 689.480769 157.872665 691.932692 156.894665 694.384615 155.764679 696.836538 154.700774 699.288462 153.504707 701.740385 152.315248 704.192308 151.086140 706.644231 149.956154 709.096154 148.951722 711.548077 147.696182 714.000000 146.863561 716.451923 145.938426 718.903846 145.033116 721.355769 144.193886 723.807692 143.328224 726.259615 142.568292 728.711538 142.079293 731.163462 141.577077 733.615385 141.160766 736.067308 140.856793 738.519231 140.519780 740.971154 140.255455 743.423077 140.010955 745.875000 139.667334 748.326923 139.237807 750.778846 138.755415 753.230769 138.246591 755.682692 137.632037 758.134615 136.984443 760.586538 136.297200 763.038462 135.649606 765.490385 134.909498 767.942308 134.261904 770.394231 133.435890 772.846154 132.775080 775.298077 132.120877 777.750000 131.519540 780.201923 130.931418 782.653846 130.310256 785.105769 129.768392 787.557692 129.186879 790.009615 128.830041 792.461538 128.380690 794.913462 127.951163 797.365385 127.415906 799.817308 127.019420 802.269231 126.285920 804.721154 125.294704 807.173077 124.032556 809.625000 122.664678 812.076923 120.477395 814.528846 118.078653 816.980769 115.712951 819.432692 113.710695 821.884615 112.065277 824.336538 110.029980 826.788462 108.596021 829.240385 106.943995 831.692308 105.576117 834.144231 104.558469 836.596154 103.587077 839.048077 102.794105 841.500000 101.862362 843.951923 101.148686 846.403846 100.494484 848.855769 100.084781 851.307692 99.734552 853.759615 99.364498 856.211538 99.047309 858.663462 98.703687 861.115385 98.399715 863.567308 97.904107 866.019231 97.481188 868.471154 96.747688 870.923077 95.730040 873.375000 94.771865 875.826923 93.800473 878.278846 93.073581 880.730769 92.095582 883.182692 91.097758 885.634615 90.311393 888.086538 89.293745 890.538462 88.474340 892.990385 87.839962 895.442308 87.238624 897.894231 86.670327 900.346154 86.643895" /></g><g class="series serie-7 color-7"><path class="line reactive nofill" d="M17.653846 589.157285 L20.105769 584.002963 22.557692 580.077748 25.009615 577.989586 27.461538 576.562236 29.913462 575.088628 32.365385 573.991683 34.817308 572.656845 37.269231 570.707454 39.721154 567.865969 42.173077 565.520091 44.625000 562.301944 47.076923 558.859121 49.528846 555.621149 51.980769 553.037380 54.432692 550.982259 56.884615 549.171638 59.336538 547.400666 61.788462 545.728815 64.240385 544.321288 66.692308 542.979843 69.144231 541.691262 71.596154 540.904898 74.048077 540.098709 76.500000 539.451115 78.951923 538.902642 81.403846 538.453291 83.855769 538.089845 86.307692 537.739615 88.759615 537.435642 91.211538 537.257224 93.663462 537.045764 96.115385 536.834305 98.567308 536.398170 101.019231 535.948819 103.471154 535.644846 105.923077 534.713103 108.375000 533.827617 110.826923 533.120549 113.278846 532.585293 115.730769 531.904658 118.182692 531.078645 120.634615 530.378186 123.086538 529.710767 125.538462 529.162294 127.990385 528.752592 130.442308 528.290024 132.894231 527.853889 135.346154 527.450795 137.798077 527.060917 140.250000 526.842849 142.701923 526.611565 145.153846 526.466187 147.605769 526.334025 150.057692 526.182039 152.509615 526.023444 154.961538 525.798768 157.413462 525.593917 159.865385 525.250296 162.317308 524.919890 164.769231 524.477147 167.221154 524.001364 169.673077 523.459499 172.125000 523.023364 174.576923 522.494716 177.028846 522.038756 179.480769 521.629054 181.932692 521.166486 184.384615 520.730351 186.836538 520.320649 189.288462 520.056325 191.740385 519.752352 194.192308 519.474811 196.644231 519.230311 199.096154 519.018852 201.548077 518.787568 204.000000 518.675231 206.451923 518.556285 208.903846 518.437339 211.355769 518.344825 213.807692 518.153190 216.259615 517.968163 218.711538 517.763312 221.163462 517.505596 223.615385 517.267704 226.067308 516.957123 228.519231 516.659758 230.971154 516.322745 233.423077 516.038596 235.875000 515.747840 238.326923 515.351354 240.778846 515.047381 243.230769 514.657502 245.682692 514.439435 248.134615 514.280840 250.586538 514.029732 253.038462 513.851314 255.490385 513.666287 257.942308 513.501084 260.394231 513.362314 262.846154 513.243368 265.298077 513.203719 267.750000 513.157462 270.201923 513.084773 272.653846 513.005476 275.105769 512.932787 277.557692 512.866706 280.009615 512.760976 282.461538 512.642030 284.913462 512.503260 287.365385 512.371098 289.817308 512.258760 292.269231 512.139814 294.721154 511.987828 297.173077 511.895314 299.625000 511.776368 302.076923 511.611166 304.528846 511.485612 306.980769 511.386490 309.432692 511.214679 311.884615 511.102342 314.336538 510.937139 316.788462 510.857842 319.240385 510.785153 321.692308 510.705855 324.144231 510.639774 326.596154 510.567085 329.048077 510.494396 331.500000 510.421707 333.951923 510.355626 336.403846 510.282937 338.855769 510.163991 341.307692 510.038437 343.759615 509.939315 346.211538 509.754288 348.663462 509.635342 351.115385 509.496572 353.567308 509.351194 356.019231 509.265288 358.471154 509.100086 360.923077 508.934883 363.375000 508.749856 365.826923 508.663951 368.278846 508.505356 370.730769 508.393018 373.182692 508.214599 375.634615 508.122086 378.086538 507.983316 380.538462 507.884194 382.990385 507.785073 385.442308 507.652910 387.894231 507.514140 390.346154 507.375370 392.798077 507.216776 395.250000 506.992100 397.701923 506.681519 400.153846 506.364330 402.605769 505.888546 405.057692 505.544925 407.509615 505.082357 409.961538 504.718912 412.413462 504.282777 414.865385 503.793777 417.317308 503.397290 419.769231 503.033845 422.221154 502.690223 424.673077 502.399467 427.125000 502.227656 429.576923 467.839074 432.028846 450.182216 434.480769 437.415356 436.932692 429.512062 439.384615 423.287226 441.836538 417.749634 444.288462 412.192217 446.740385 406.059895 449.192308 397.211642 451.644231 385.964646 454.096154 373.362989 456.548077 359.063048 459.000000 340.970055 461.451923 323.940967 463.903846 310.017688 466.355769 298.823557 468.807692 288.666899 471.259615 280.116010 473.711538 271.505649 476.163462 263.635395 478.615385 257.166060 481.067308 251.826710 483.519231 247.584307 485.971154 243.004889 488.423077 239.654580 490.875000 236.251405 493.326923 233.740325 495.778846 231.936312 498.230769 230.317327 500.682692 229.299678 503.134615 227.872328 505.586538 226.603571 508.038462 225.090315 510.490385 223.015370 512.942308 220.259790 515.394231 217.431521 517.846154 214.021738 520.298077 209.990794 522.750000 205.596404 525.201923 202.312175 527.653846 199.173325 530.105769 195.479394 532.557692 192.386800 535.009615 189.373504 537.461538 186.935113 539.913462 185.018763 542.365385 183.109020 544.817308 181.443778 547.269231 179.791751 549.721154 178.238846 552.173077 177.122077 554.625000 176.236590 557.076923 175.476658 559.528846 174.888537 561.980769 174.234334 564.432692 173.533875 566.884615 172.661605 569.336538 171.868633 571.788462 170.467714 574.240385 169.033755 576.692308 167.560148 579.144231 165.505027 581.596154 163.588676 584.048077 161.771447 586.500000 160.073164 588.951923 158.401313 591.403846 156.557652 593.855769 154.892409 596.307692 153.227167 598.759615 152.064140 601.211538 150.742519 603.663462 149.533236 606.115385 148.733655 608.567308 147.689574 611.019231 146.982507 613.471154 146.447250 615.923077 145.964859 618.375000 145.627845 620.826923 145.112413 623.278846 144.689494 625.730769 144.180670 628.182692 143.711495 630.634615 142.911914 633.086538 142.132157 635.538462 141.273104 637.990385 140.129901 640.442308 139.059388 642.894231 137.995483 645.346154 137.162862 647.798077 136.026268 650.250000 135.015228 652.701923 133.990971 655.153846 133.204607 657.605769 132.391810 660.057692 131.724391 662.509615 131.017324 664.961538 123.133854 667.413462 118.713031 669.865385 115.560965 672.317308 113.565317 674.769231 112.289952 677.221154 111.041021 679.673077 110.181967 682.125000 109.243616 684.576923 108.153278 687.028846 107.221536 689.480769 106.131198 691.932692 105.034253 694.384615 103.659767 696.836538 102.113470 699.288462 100.633254 701.740385 99.285201 704.192308 97.990012 706.644231 96.688215 709.096154 95.399635 711.548077 94.150703 714.000000 92.769609 716.451923 91.745352 718.903846 90.740920 721.355769 89.637367 723.807692 88.725448 726.259615 87.886219 728.711538 87.304705 731.163462 86.782665 733.615385 86.353138 736.067308 85.996300 738.519231 85.705544 740.971154 85.375138 743.423077 84.932395 745.875000 84.502868 748.326923 84.033693 750.778846 83.438963 753.230769 82.791369 755.682692 82.018221 758.134615 81.165775 760.586538 80.438884 763.038462 79.824330 765.490385 78.945452 767.942308 78.192128 770.394231 77.498277 772.846154 76.718520 775.298077 75.932155 777.750000 75.185440 780.201923 74.484980 782.653846 73.870427 785.105769 73.189792 787.557692 72.495941 790.009615 71.980508 792.461538 71.365955 794.913462 70.784441 797.365385 70.150063 799.817308 69.575158 802.269231 68.742537 804.721154 67.460564 807.173077 65.682984 809.625000 63.687336 812.076923 61.063918 814.528846 58.004365 816.980769 55.228961 819.432692 53.120975 821.884615 50.827962 824.336538 48.766233 826.788462 46.281586 829.240385 44.431316 831.692308 42.964317 834.144231 41.728601 836.596154 40.638263 839.048077 39.726345 841.500000 38.781386 843.951923 37.790170 846.403846 37.096319 848.855769 36.594103 851.307692 36.151360 853.759615 35.781306 856.211538 35.364995 858.663462 35.041198 861.115385 34.684360 863.567308 34.155712 866.019231 33.356131 868.471154 32.695321 870.923077 31.763578 873.375000 30.356051 875.826923 29.444133 878.278846 28.367011 880.730769 27.230417 883.182692 26.225985 885.634615 24.752378 888.086538 23.668648 890.538462 22.809595 892.990385 21.791946 895.442308 21.091487 897.894231 20.470325 900.346154 20.430677" /></g><g class="series serie-8 color-8"><path class="line reactive nofill" d="M17.653846 590.406217 L20.105769 586.038259 22.557692 583.243030 25.009615 581.597612 27.461538 580.110788 29.913462 578.775951 32.365385 577.441114 34.817308 575.736222 37.269231 573.634845 39.721154 570.687630 42.173077 566.940834 44.625000 562.804160 47.076923 559.202742 49.528846 556.605757 51.980769 553.909650 54.432692 551.900786 56.884615 549.891921 59.336538 547.843409 61.788462 545.867585 64.240385 544.387370 66.692308 543.263992 69.144231 542.391722 71.596154 541.301384 74.048077 540.455547 76.500000 539.755087 78.951923 539.041412 81.403846 538.618493 83.855769 538.248439 86.307692 537.990723 88.759615 537.746223 91.211538 537.514940 93.663462 537.204359 96.115385 536.768224 98.567308 536.147062 101.019231 535.473035 103.471154 534.680062 105.923077 533.867265 108.375000 532.902482 110.826923 532.030212 113.278846 531.164550 115.730769 530.312105 118.182692 529.598429 120.634615 528.706335 123.086538 527.867106 125.538462 527.312025 127.990385 526.849457 130.442308 526.386890 132.894231 525.864850 135.346154 525.455147 137.798077 525.217255 140.250000 524.900066 142.701923 524.728255 145.153846 524.563053 147.605769 524.351593 150.057692 524.146742 152.509615 523.981539 154.961538 523.730431 157.413462 523.446283 159.865385 523.069621 162.317308 522.574013 164.769231 522.104837 167.221154 521.913202 169.673077 521.417594 172.125000 520.862514 174.576923 520.247960 177.028846 519.752352 179.480769 519.124582 181.932692 518.615758 184.384615 518.318393 186.836538 517.968163 189.288462 517.584893 191.740385 517.254488 194.192308 516.897650 196.644231 516.639934 199.096154 516.428475 201.548077 516.322745 204.000000 516.210407 206.451923 516.157542 208.903846 516.031988 211.355769 515.932867 213.807692 515.721407 216.259615 515.542989 218.711538 515.146502 221.163462 514.789665 223.615385 514.327097 226.067308 513.930611 228.519231 513.646462 230.971154 513.283016 233.423077 512.919571 235.875000 512.549517 238.326923 512.271976 240.778846 512.027476 243.230769 511.816017 245.682692 511.617774 248.134615 511.386490 250.586538 511.181639 253.038462 510.923923 255.490385 510.778544 257.942308 510.606734 260.394231 510.487788 262.846154 510.467963 265.298077 510.467963 267.750000 510.467963 270.201923 510.467963 272.653846 510.467963 275.105769 510.467963 277.557692 510.467963 280.009615 510.467963 282.461538 510.467963 284.913462 510.467963 287.365385 510.467963 289.817308 510.467963 292.269231 510.467963 294.721154 510.467963 297.173077 510.467963 299.625000 510.467963 302.076923 510.467963 304.528846 510.467963 306.980769 510.467963 309.432692 508.419451 311.884615 508.293897 314.336538 508.174951 316.788462 508.069221 319.240385 508.022964 321.692308 507.983316 324.144231 507.904019 326.596154 507.811505 329.048077 507.718992 331.500000 507.633086 333.951923 507.547181 336.403846 507.441451 338.855769 507.375370 341.307692 507.263032 343.759615 507.130870 346.211538 507.058181 348.663462 506.926019 351.115385 506.767424 353.567308 506.635262 356.019231 506.509708 358.471154 506.344506 360.923077 506.185911 363.375000 506.000884 365.826923 505.835681 368.278846 505.683695 370.730769 505.611006 373.182692 505.465628 375.634615 505.333465 378.086538 505.254168 380.538462 505.201303 382.990385 505.135222 385.442308 504.989844 387.894231 504.923763 390.346154 504.778385 392.798077 504.573533 395.250000 504.355466 397.701923 503.998628 400.153846 503.595534 402.605769 503.132966 405.057692 502.610926 407.509615 502.161575 409.961538 501.613102 412.413462 501.190183 414.865385 500.754048 417.317308 500.317913 419.769231 500.046981 422.221154 499.723184 424.673077 499.425819 427.125000 498.289225 429.576923 468.949236 432.028846 453.605215 434.480769 446.032326 436.932692 440.422044 439.384615 435.313978 441.836538 430.205913 444.288462 424.668320 446.740385 417.703377 449.192308 407.130408 451.644231 393.094792 454.096154 376.376285 456.548077 356.162090 459.000000 339.985447 461.451923 324.978439 463.903846 312.925255 466.355769 301.942583 468.807692 291.481952 471.259615 281.635875 473.711538 272.807446 476.163462 265.386543 478.615385 260.370991 481.067308 255.196844 483.519231 251.265021 485.971154 247.234077 488.423077 243.632659 490.875000 241.167836 493.326923 239.416688 495.778846 237.843959 498.230769 236.667716 500.682692 235.418784 503.134615 234.275582 505.586538 232.808582 508.038462 231.123515 510.490385 228.751206 512.942308 225.394288 515.394231 221.396384 517.846154 216.783926 520.298077 212.904968 522.750000 209.065659 525.201923 205.636052 527.653846 201.717446 530.105769 198.168893 532.557692 194.593908 535.009615 191.646693 537.461538 189.069531 539.913462 187.100316 542.365385 185.236830 544.817308 183.135453 547.269231 181.516467 549.721154 180.175021 552.173077 179.190414 554.625000 178.404049 557.076923 177.624293 559.528846 176.983306 561.980769 176.309280 564.432692 175.641861 566.884615 174.690294 569.336538 173.560308 571.788462 171.901673 574.240385 170.018363 576.692308 167.916985 579.144231 165.696662 581.596154 163.707622 584.048077 161.844136 586.500000 159.947610 588.951923 157.905705 591.403846 156.161166 593.855769 154.429842 596.307692 153.161086 598.759615 151.733735 601.211538 150.464979 603.663462 149.348209 606.115385 148.290912 608.567308 147.438466 611.019231 146.830520 613.471154 146.334913 615.923077 146.044156 618.375000 145.621237 620.826923 145.224751 623.278846 144.755575 625.730769 144.299616 628.182692 143.566116 630.634615 142.667414 633.086538 141.596901 635.538462 140.447090 637.990385 138.947050 640.442308 137.777416 642.894231 136.376497 645.346154 135.312592 647.798077 133.878633 650.250000 132.775080 652.701923 131.803688 655.153846 130.918202 657.605769 129.973243 660.057692 129.206703 662.509615 128.149406 664.961538 120.662422 667.413462 116.776856 669.865385 114.602789 672.317308 113.076317 674.769231 112.098317 677.221154 111.397858 679.673077 110.320737 682.125000 109.243616 684.576923 108.034332 687.028846 106.653238 689.480769 105.100334 691.932692 103.355794 694.384615 101.756632 696.836538 100.362322 699.288462 99.159647 701.740385 97.666215 704.192308 96.423891 706.644231 95.016364 709.096154 93.635270 711.548077 92.465636 714.000000 90.985420 716.451923 89.868650 718.903846 89.055853 721.355769 88.044813 723.807692 87.218800 726.259615 86.551381 728.711538 85.943435 731.163462 85.428003 733.615385 84.991868 736.067308 84.674679 738.519231 84.284801 740.971154 83.994044 743.423077 83.538085 745.875000 82.910315 748.326923 82.242896 750.778846 81.436707 753.230769 80.789113 755.682692 79.910235 758.134615 79.137087 760.586538 78.430019 763.038462 77.650263 765.490385 76.804425 767.942308 76.051101 770.394231 75.218480 772.846154 74.524629 775.298077 73.764697 777.750000 73.044413 780.201923 72.456292 782.653846 71.709576 785.105769 71.167711 787.557692 70.639063 790.009615 70.136847 792.461538 69.687496 794.913462 69.198496 797.365385 68.458388 799.817308 67.824010 802.269231 66.601510 804.721154 65.008957 807.173077 62.656471 809.625000 59.471364 812.076923 56.134271 814.528846 53.365475 816.980769 50.636327 819.432692 48.349923 821.884615 45.739721 824.336538 43.089871 826.788462 40.750601 829.240385 38.926764 831.692308 37.314386 834.144231 35.893644 836.596154 34.578631 839.048077 33.415604 841.500000 32.312050 843.951923 31.532294 846.403846 30.805402 848.855769 30.362659 851.307692 29.926524 853.759615 29.688633 856.211538 29.325187 858.663462 28.968349 861.115385 28.558646 863.567308 27.950701 866.019231 26.873580 868.471154 25.499094 870.923077 24.289810 873.375000 22.928540 875.826923 21.666392 878.278846 20.443893 880.730769 19.115664 883.182692 17.787434 885.634615 16.498854 888.086538 15.150800 890.538462 14.199233 892.990385 13.333571 895.442308 12.633112 897.894231 11.826923 900.346154 11.826923" /></g><g class="series serie-9 color-9"><path class="line reactive nofill" d="M17.653846 590.307095 L20.105769 585.595516 22.557692 582.172517 25.009615 580.375113 27.461538 579.046883 29.913462 577.665789 32.365385 576.515979 34.817308 575.385993 37.269231 573.443210 39.721154 570.912305 42.173077 568.130293 44.625000 564.621389 47.076923 561.621309 49.528846 559.024323 51.980769 556.764351 54.432692 555.132149 56.884615 553.447082 59.336538 551.610029 61.788462 550.076948 64.240385 548.649598 66.692308 547.532828 69.144231 546.753071 71.596154 545.913842 74.048077 545.239815 76.500000 544.638478 78.951923 544.175910 81.403846 543.799248 83.855769 543.462235 86.307692 543.237559 88.759615 542.999667 91.211538 542.755167 93.663462 542.537100 96.115385 542.167046 98.567308 541.810208 101.019231 541.393898 103.471154 540.878465 105.923077 540.171398 108.375000 539.411466 110.826923 538.691182 113.278846 538.089845 115.730769 537.415818 118.182692 536.721967 120.634615 536.074373 123.086538 535.499467 125.538462 535.017076 127.990385 534.587549 130.442308 534.098549 132.894231 533.787968 135.346154 533.503820 137.798077 533.173414 140.250000 532.994995 142.701923 532.737279 145.153846 532.631550 147.605769 532.512604 150.057692 532.420090 152.509615 532.268104 154.961538 532.083077 157.413462 531.792320 159.865385 531.514780 162.317308 531.171158 164.769231 530.695375 167.221154 530.318713 169.673077 529.882578 172.125000 529.386970 174.576923 528.924402 177.028846 528.501484 179.480769 528.131430 181.932692 527.721727 184.384615 527.424362 186.836538 527.133606 189.288462 526.889106 191.740385 526.631390 194.192308 526.400106 196.644231 526.129174 199.096154 526.043268 201.548077 525.944147 204.000000 525.845025 206.451923 525.752512 208.903846 525.686431 211.355769 525.593917 213.807692 525.474971 216.259615 525.309769 218.711538 525.118134 221.163462 524.933107 223.615385 524.741472 226.067308 524.411066 228.519231 524.133526 230.971154 523.855985 233.423077 523.552013 235.875000 523.221607 238.326923 522.950675 240.778846 522.692959 243.230769 522.527756 245.682692 522.322905 248.134615 522.131270 250.586538 521.992500 253.038462 521.794256 255.490385 521.622446 257.942308 521.496892 260.394231 521.325081 262.846154 521.278824 265.298077 521.192919 267.750000 521.107013 270.201923 521.054149 272.653846 521.007892 275.105769 520.968243 277.557692 520.888946 280.009615 520.803041 282.461538 520.690703 284.913462 520.598189 287.365385 520.499068 289.817308 520.413162 292.269231 520.314041 294.721154 520.228135 297.173077 520.089365 299.625000 519.937379 302.076923 519.831649 304.528846 519.739136 306.980769 519.633406 309.432692 519.547501 311.884615 519.454987 314.336538 519.362474 316.788462 519.316217 319.240385 519.217095 321.692308 519.164230 324.144231 519.117974 326.596154 519.058501 329.048077 518.979203 331.500000 518.946163 333.951923 518.886690 336.403846 518.800785 338.855769 518.714879 341.307692 518.582717 343.759615 518.430731 346.211538 518.245704 348.663462 518.047461 351.115385 517.888866 353.567308 517.690623 356.019231 517.538636 358.471154 517.380042 360.923077 517.181799 363.375000 517.043029 365.826923 516.858002 368.278846 516.778704 370.730769 516.639934 373.182692 516.527596 375.634615 516.408650 378.086538 516.289705 380.538462 516.183975 382.990385 516.084853 385.442308 515.979124 387.894231 515.860178 390.346154 515.721407 392.798077 515.483516 395.250000 515.186151 397.701923 514.862354 400.153846 514.446043 402.605769 513.976868 405.057692 513.474652 407.509615 513.031908 409.961538 512.635422 412.413462 512.219111 414.865385 511.611166 417.317308 511.201463 419.769231 510.864450 422.221154 510.626558 424.673077 510.382058 427.125000 508.049397 429.576923 478.874611 432.028846 463.900643 434.480769 454.312282 436.932692 447.869379 439.384615 442.926516 441.836538 437.692897 444.288462 432.578223 446.740385 426.227833 449.192308 417.551391 451.644231 406.800003 454.096154 394.337116 456.548077 378.986486 459.000000 361.798804 461.451923 344.333581 463.903846 331.573329 466.355769 320.101657 468.807692 308.570513 471.259615 297.700179 473.711538 287.609602 476.163462 280.069754 478.615385 272.681892 481.067308 267.071610 483.519231 262.089098 485.971154 258.428208 488.423077 254.701236 490.875000 251.985305 493.326923 249.883927 495.778846 248.364063 498.230769 247.174604 500.682692 245.852983 503.134615 244.445456 505.586538 242.859511 508.038462 241.035674 510.490385 239.040026 512.942308 236.125851 515.394231 232.795366 517.846154 229.081611 520.298077 224.773126 522.750000 220.603411 525.201923 216.413872 527.653846 212.594387 530.105769 208.550227 532.557692 204.790215 535.009615 201.195405 537.461538 198.373744 539.913462 196.054299 542.365385 193.781111 544.817308 191.706166 547.269231 189.796423 549.721154 188.355856 552.173077 187.126748 554.625000 186.307343 557.076923 185.507763 559.528846 184.774263 561.980769 184.166317 564.432692 183.320480 566.884615 182.368912 569.336538 181.258751 571.788462 179.785143 574.240385 177.908441 576.692308 175.674901 579.144231 173.289375 581.596154 170.837768 584.048077 168.716566 586.500000 166.740743 588.951923 164.652581 591.403846 162.267055 593.855769 160.165678 596.307692 158.467394 598.759615 156.861625 601.211538 155.473923 603.663462 154.224991 606.115385 153.220559 608.567308 152.156654 611.019231 151.271167 613.471154 150.610357 615.923077 150.207262 618.375000 149.645573 620.826923 149.222655 623.278846 148.740263 625.730769 148.264479 628.182692 147.623493 630.634615 146.830520 633.086538 145.799656 635.538462 144.696102 637.990385 143.242319 640.442308 141.742279 642.894231 140.499955 645.346154 139.277456 647.798077 137.744375 650.250000 136.277376 652.701923 135.028444 655.153846 133.905066 657.605769 132.946891 660.057692 132.087837 662.509615 130.825689 664.961538 123.708759 667.413462 119.869450 669.865385 117.338545 672.317308 115.448627 674.769231 114.312033 677.221154 113.142398 679.673077 112.151182 682.125000 111.153358 684.576923 109.963899 687.028846 108.886778 689.480769 107.545333 691.932692 106.012252 694.384615 104.611334 696.836538 103.263280 699.288462 101.637686 701.740385 100.137646 704.192308 98.664039 706.644231 97.097918 709.096154 95.782905 711.548077 94.395203 714.000000 92.994284 716.451923 91.685879 718.903846 90.549285 721.355769 89.584502 723.807692 88.745272 726.259615 87.873002 728.711538 87.179151 731.163462 86.643895 733.615385 86.187935 736.067308 85.705544 738.519231 85.295841 740.971154 84.806841 743.423077 84.304625 745.875000 83.756153 748.326923 83.187855 750.778846 82.427923 753.230769 81.542437 755.682692 80.709816 758.134615 79.903627 760.586538 79.024749 763.038462 78.165695 765.490385 77.412371 767.942308 76.573142 770.394231 75.733912 772.846154 74.960764 775.298077 74.286737 777.750000 73.434292 780.201923 72.641319 782.653846 71.934252 785.105769 71.339522 787.557692 70.784441 790.009615 70.784441 792.461538 70.784441 794.913462 70.784441 797.365385 70.784441 799.817308 70.784441 802.269231 70.784441 804.721154 70.784441 807.173077 70.784441 809.625000 70.784441 812.076923 70.784441 814.528846 70.784441 816.980769 70.784441 819.432692 70.784441 821.884615 70.784441 824.336538 70.784441 826.788462 70.784441 829.240385 70.784441 831.692308 70.784441 834.144231 70.784441 836.596154 70.784441 839.048077 70.784441 841.500000 70.784441 843.951923 70.784441 846.403846 70.784441 848.855769 70.784441 851.307692 70.784441 853.759615 70.784441 856.211538 70.784441 858.663462 70.784441 861.115385 70.784441 863.567308 70.784441 866.019231 70.784441 868.471154 70.784441 870.923077 70.784441 873.375000 70.784441 875.826923 70.784441 878.278846 70.784441 880.730769 70.784441 883.182692 70.784441 885.634615 70.784441 888.086538 70.784441 890.538462 70.784441 892.990385 70.784441 895.442308 70.784441 897.894231 70.784441 900.346154 70.784441" /></g></g><g class="titles"><text class="title plot_title" x="512.0" y="26">Election Constituents</text><text class="title" transform="rotate(-90 0.000000 353.500000)" x="0" y="379.5">Users</text></g><g class="plot overlay" transform="translate(86, 46)"><g class="series serie-0 color-0" /><g class="series serie-1 color-1" /><g class="series serie-2 color-2" /><g class="series serie-3 color-3" /><g class="series serie-4 color-4" /><g class="series serie-5 color-5" /><g class="series serie-6 color-6" /><g class="series serie-7 color-7" /><g class="series serie-8 color-8" /><g class="series serie-9 color-9" /></g><g class="plot text-overlay" transform="translate(86, 46)"><g class="series serie-0 color-0" /><g class="series serie-1 color-1" /><g class="series serie-2 color-2" /><g class="series serie-3 color-3" /><g class="series serie-4 color-4" /><g class="series serie-5 color-5" /><g class="series serie-6 color-6" /><g class="series serie-7 color-7" /><g class="series serie-8 color-8" /><g class="series serie-9 color-9" /></g><g class="plot tooltip-overlay" transform="translate(86, 46)"><g class="tooltip" style="opacity: 0" transform="translate(0 0)"><a><rect class="tooltip-box" height="0" rx="0" ry="0" width="0" /><text class="text"><tspan class="label" /><tspan class="value" /></text></a></g></g><g class="legends" transform="translate(96, 671)"><g class="legend reactive activate-serie" id="activate-serie-0"><rect class="color-0 reactive" height="12" width="12" x="0.0" y="1.0" /><text x="17.0" y="11.2">1 caucus</text></g><g class="legend reactive activate-serie" id="activate-serie-1"><rect class="color-1 reactive" height="12" width="12" x="229.5" y="1.0" /><text x="246.5" y="11.2">2 caucus</text></g><g class="legend reactive activate-serie" id="activate-serie-2"><rect class="color-2 reactive" height="12" width="12" x="459.0" y="1.0" /><text x="476.0" y="11.2">3 caucus</text></g><g class="legend reactive activate-serie" id="activate-serie-3"><rect class="color-3 reactive" height="12" width="12" x="688.5" y="1.0" /><text x="705.5" y="11.2">4 caucus</text></g><g class="legend reactive activate-serie" id="activate-serie-4"><rect class="color-4 reactive" height="12" width="12" x="0.0" y="22.0" /><text x="17.0" y="32.2">5 caucus</text></g><g class="legend reactive activate-serie" id="activate-serie-5"><rect class="color-5 reactive" height="12" width="12" x="229.5" y="22.0" /><text x="246.5" y="32.2">6 caucus</text></g><g class="legend reactive activate-serie" id="activate-serie-6"><rect class="color-6 reactive" height="12" width="12" x="459.0" y="22.0" /><text x="476.0" y="32.2">7 caucus</text></g><g class="legend reactive activate-serie" id="activate-serie-7"><rect class="color-7 reactive" height="12" width="12" x="688.5" y="22.0" /><text x="705.5" y="32.2">8 caucus</text></g><g class="legend reactive activate-serie" id="activate-serie-8"><rect class="color-8 reactive" height="12" width="12" x="0.0" y="43.0" /><text x="17.0" y="53.2">9 caucus</text></g><g class="legend reactive activate-serie" id="activate-serie-9"><rect class="color-9 reactive" height="12" width="12" x="229.5" y="43.0" /><text x="246.5" y="53.2">10 caucus</text></g></g></g></svg>