<?xml version='1.0' encoding='utf-8'?>
<svg xmlns:xlink="http://www.w3.org/1999/xlink" class="pygal-chart" id="chart-d3e05f04-f301-45a5-8c6a-07f71dcb5014" viewBox="0 0 1024 768" xmlns="http://www.w3.org/2000/svg"><!--Generated with pygal 1.7.0 (etree) ©Kozea 2011-2014 on 2018-03-25--><!--http://pygal.org--><!--http://github.com/Kozea/pygal--><defs><style type="text/css">#chart-d3e05f04-f301-45a5-8c6a-07f71dcb5014 .title{font-family:"monospace";font-size:16px}#chart-d3e05f04-f301-45a5-8c6a-07f71dcb5014 .legends .legend text{font-family:"monospace";font-size:14px}#chart-d3e05f04-f301-45a5-8c6a-07f71dcb5014 .axis text{font-family:"monospace";font-size:10px}#chart-d3e05f04-f301-45a5-8c6a-07f71dcb5014 .axis text.major{font-family:"monospace";font-size:10px}#chart-d3e05f04-f301-45a5-8c6a-07f71dcb5014 .series text{font-family:"monospace";font-size:8px}#chart-d3e05f04-f301-45a5-8c6a-07f71dcb5014 .tooltip text{font-family:"monospace";font-size:16px}#chart-d3e05f04-f301-45a5-8c6a-07f71dcb5014 text.no_data{font-size:64px}
#chart-d3e05f04-f301-45a5-8c6a-07f71dcb5014{background-color:black}#chart-d3e05f04-f301-45a5-8c6a-07f71dcb5014 path,#chart-d3e05f04-f301-45a5-8c6a-07f71dcb5014 line,#chart-d3e05f04-f301-45a5-8c6a-07f71dcb5014 rect,#chart-d3e05f04-f301-45a5-8c6a-07f71dcb5014 circle{-webkit-transition:250ms;-moz-transition:250ms;transition:250ms}#chart-d3e05f04-f301-45a5-8c6a-07f71dcb5014 .graph &gt; .background{fill:black}#chart-d3e05f04-f301-45a5-8c6a-07f71dcb5014 .plot &gt; .background{fill:#111}#chart-d3e05f04-f301-45a5-8c6a-07f71dcb5014 .graph{fill:#999}#chart-d3e05f04-f301-45a5-8c6a-07f71dcb5014 text.no_data{fill:#eee}#chart-d3e05f04-f301-45a5-8c6a-07f71dcb5014 .title{fill:#eee}#chart-d3e05f04-f301-45a5-8c6a-07f71dcb5014 .legends .legend text{fill:#999}#chart-d3e05f04-f301-45a5-8c6a-07f71dcb5014 .legends .legend:hover text{fill:#eee}#chart-d3e05f04-f301-45a5-8c6a-07f71dcb5014 .axis .line{stroke:#eee}#chart-d3e05f04-f301-45a5-8c6a-07f71dcb5014 .axis .guide.line{stroke:#555}#chart-d3e05f04-f301-45a5-8c6a-07f71dcb5014 .axis .major.line{stroke:#999}#chart-d3e05f04-f301-45a5-8c6a-07f71dcb5014 .axis text.major{stroke:#eee;fill:#eee}#chart-d3e05f04-f301-45a5-8c6a-07f71dcb5014 .axis.y .guides:hover .guide.line,#chart-d3e05f04-f301-45a5-8c6a-07f71dcb5014 .line-graph .axis.x .guides:hover .guide.line,#chart-d3e05f04-f301-45a5-8c6a-07f71dcb5014 .stackedline-graph .axis.x .guides:hover .guide.line,#chart-d3e05f04-f301-45a5-8c6a-07f71dcb5014 .xy-graph .axis.x .guides:hover .guide.line{stroke:#eee}#chart-d3e05f04-f301-45a5-8c6a-07f71dcb5014 .axis .guides:hover text{fill:#eee}#chart-d3e05f04-f301-45a5-8c6a-07f71dcb5014 .reactive{fill-opacity:.8}#chart-d3e05f04-f301-45a5-8c6a-07f71dcb5014 .reactive.active,#chart-d3e05f04-f301-45a5-8c6a-07f71dcb5014 .active .reactive{fill-opacity:.4}#chart-d3e05f04-f301-45a5-8c6a-07f71dcb5014 .series{stroke-width:1.0;stroke-linejoin:round;stroke-linecap:round;stroke-dasharray:0,0}#chart-d3e05f04-f301-45a5-8c6a-07f71dcb5014 .series text{fill:#eee}#chart-d3e05f04-f301-45a5-8c6a-07f71dcb5014 .tooltip rect{fill:#111;stroke:#eee}#chart-d3e05f04-f301-45a5-8c6a-07f71dcb5014 .tooltip text{fill:#eee}#chart-d3e05f04-f301-45a5-8c6a-07f71dcb5014 .map-element{fill:#999;stroke:#555 !important;opacity:.9;stroke-width:3;-webkit-transition:250ms;-moz-transition:250ms;-o-transition:250ms;transition:250ms}#chart-d3e05f04-f301-45a5-8c6a-07f71dcb5014 .map-element:hover{opacity:1;stroke-width:10}#chart-d3e05f04-f301-45a5-8c6a-07f71dcb5014 .color-0,#chart-d3e05f04-f301-45a5-8c6a-07f71dcb5014 .color-0 a:visited{stroke:#ff5995;fill:#ff5995}#chart-d3e05f04-f301-45a5-8c6a-07f71dcb5014 .color-1,#chart-d3e05f04-f301-45a5-8c6a-07f71dcb5014 .color-1 a:visited{stroke:#b6e354;fill:#b6e354}#chart-d3e05f04-f301-45a5-8c6a-07f71dcb5014 .color-2,#chart-d3e05f04-f301-45a5-8c6a-07f71dcb5014 .color-2 a:visited{stroke:#feed6c;fill:#feed6c}#chart-d3e05f04-f301-45a5-8c6a-07f71dcb5014 .color-3,#chart-d3e05f04-f301-45a5-8c6a-07f71dcb5014 .color-3 a:visited{stroke:#8cedff;fill:#8cedff}#chart-d3e05f04-f301-45a5-8c6a-07f71dcb5014 .color-4,#chart-d3e05f04-f301-45a5-8c6a-07f71dcb5014 .color-4 a:visited{stroke:#9e6ffe;fill:#9e6ffe}#chart-d3e05f04-f301-45a5-8c6a-07f71dcb5014 .color-5,#chart-d3e05f04-f301-45a5-8c6a-07f71dcb5014 .color-5 a:visited{stroke:#899ca1;fill:#899ca1}#chart-d3e05f04-f301-45a5-8c6a-07f71dcb5014 .color-6,#chart-d3e05f04-f301-45a5-8c6a-07f71dcb5014 .color-6 a:visited{stroke:#f8f8f2;fill:#f8f8f2}#chart-d3e05f04-f301-45a5-8c6a-07f71dcb5014 .color-7,#chart-d3e05f04-f301-45a5-8c6a-07f71dcb5014 .color-7 a:visited{stroke:#bf4646;fill:#bf4646}#chart-d3e05f04-f301-45a5-8c6a-07f71dcb5014 .color-8,#chart-d3e05f04-f301-45a5-8c6a-07f71dcb5014 .color-8 a:visited{stroke:#516083;fill:#516083}#chart-d3e05f04-f301-45a5-8c6a-07f71dcb5014 .color-9,#chart-d3e05f04-f301-45a5-8c6a-07f71dcb5014 .color-9 a:visited{stroke:#f92672;fill:#f92672}#chart-d3e05f04-f301-45a5-8c6a-07f71dcb5014 .color-10,#chart-d3e05f04-f301-45a5-8c6a-07f71dcb5014 .color-10 a:visited{stroke:#82b414;fill:#82b414}#chart-d3e05f04-f301-45a5-8c6a-07f71dcb5014 .color-11,#chart-d3e05f04-f301-45a5-8c6a-07f71dcb5014 .color-11 a:visited{stroke:#fd971f;fill:#fd971f}#chart-d3e05f04-f301-45a5-8c6a-07f71dcb5014 .color-12,#chart-d3e05f04-f301-45a5-8c6a-07f71dcb5014 .color-12 a:visited{stroke:#56c2d6;fill:#56c2d6}#chart-d3e05f04-f301-45a5-8c6a-07f71dcb5014 .color-13,#chart-d3e05f04-f301-45a5-8c6a-07f71dcb5014 .color-13 a:visited{stroke:#808384;fill:#808384}#chart-d3e05f04-f301-45a5-8c6a-07f71dcb5014 .color-14,#chart-d3e05f04-f301-45a5-8c6a-07f71dcb5014 .color-14 a:visited{stroke:#8c54fe;fill:#8c54fe}#chart-d3e05f04-f301-45a5-8c6a-07f71dcb5014 .color-15,#chart-d3e05f04-f301-45a5-8c6a-07f71dcb5014 .color-15 a:visited{stroke:#465457;fill:#465457}
#chart-d3e05f04-f301-45a5-8c6a-07f71dcb5014 text.no_data{text-anchor:middle}#chart-d3e05f04-f301-45a5-8c6a-07f71dcb5014 .guide.line{fill-opacity:0}#chart-d3e05f04-f301-45a5-8c6a-07f71dcb5014 .centered{text-anchor:middle}#chart-d3e05f04-f301-45a5-8c6a-07f71dcb5014 .title{text-anchor:middle}#chart-d3e05f04-f301-45a5-8c6a-07f71dcb5014 .legends .legend text{fill-opacity:1}#chart-d3e05f04-f301-45a5-8c6a-07f71dcb5014 .axis.x text{text-anchor:middle}#chart-d3e05f04-f301-45a5-8c6a-07f71dcb5014 .axis.x:not(.web) text[transform]{text-anchor:start}#chart-d3e05f04-f301-45a5-8c6a-07f71dcb5014 .axis.y text{text-anchor:end}#chart-d3e05f04-f301-45a5-8c6a-07f71dcb5014 .axis.y2 text{text-anchor:start}#chart-d3e05f04-f301-45a5-8c6a-07f71dcb5014 .axis.y .logarithmic text:not(.major),#chart-d3e05f04-f301-45a5-8c6a-07f71dcb5014 .axis.y2 .logarithmic text:not(.major){font-size:50%}#chart-d3e05f04-f301-45a5-8c6a-07f71dcb5014 .axis .guide.line{stroke-dasharray:4,4}#chart-d3e05f04-f301-45a5-8c6a-07f71dcb5014 .axis .major.guide.line{stroke-dasharray:6,6}#chart-d3e05f04-f301-45a5-8c6a-07f71dcb5014 .axis text.major{stroke-width:0.5px}#chart-d3e05f04-f301-45a5-8c6a-07f71dcb5014 .horizontal .axis.y .guide.line,#chart-d3e05f04-f301-45a5-8c6a-07f71dcb5014 .horizontal .axis.y2 .guide.line,#chart-d3e05f04-f301-45a5-8c6a-07f71dcb5014 .vertical .axis.x .guide.line{opacity:0}#chart-d3e05f04-f301-45a5-8c6a-07f71dcb5014 .horizontal .axis.always_show .guide.line,#chart-d3e05f04-f301-45a5-8c6a-07f71dcb5014 .vertical .axis.always_show .guide.line{opacity:1 !important}#chart-d3e05f04-f301-45a5-8c6a-07f71dcb5014 .axis.y .guides:hover .guide.line,#chart-d3e05f04-f301-45a5-8c6a-07f71dcb5014 .axis.y2 .guides:hover .guide.line,#chart-d3e05f04-f301-45a5-8c6a-07f71dcb5014 .axis.x .guides:hover .guide.line{opacity:1}#chart-d3e05f04-f301-45a5-8c6a-07f71dcb5014 .axis .guides:hover text{opacity:1}#chart-d3e05f04-f301-45a5-8c6a-07f71dcb5014 .nofill{fill:none}#chart-d3e05f04-f301-45a5-8c6a-07f71dcb5014 .subtle-fill{fill-opacity:.2}#chart-d3e05f04-f301-45a5-8c6a-07f71dcb5014 .dot{stroke-width:1px;fill-opacity:1}#chart-d3e05f04-f301-45a5-8c6a-07f71dcb5014 .dot.active{stroke-width:5px}#chart-d3e05f04-f301-45a5-8c6a-07f71dcb5014 .series text{stroke:none}#chart-d3e05f04-f301-45a5-8c6a-07f71dcb5014 .series text.active{opacity:1}#chart-d3e05f04-f301-45a5-8c6a-07f71dcb5014 .tooltip rect{fill-opacity:0.8}#chart-d3e05f04-f301-45a5-8c6a-07f71dcb5014 .tooltip text{fill-opacity:1}#chart-d3e05f04-f301-45a5-8c6a-07f71dcb5014 .tooltip text tspan.label{fill-opacity:.8}</style><script type="text/javascript">window.config = {"css": ["style.css", "graph.css"], "disable_xml_declaration": false, "dots_size": 2.5, "explicit_size": false, "fill": false, "half_pie": false, "height": 768, "human_readable": false, "include_x_axis": false, "inner_radius": 0, "interpolate": null, "interpolation_parameters": {}, "interpolation_precision": 250, "js": ["http://kozea.github.io/pygal.js/javascripts/svg.jquery.js", "http://kozea.github.io/pygal.js/javascripts/pygal-tooltips.js"], "label_font_size": 10, "legend_at_bottom": true, "legend_at_bottom_columns": null, "legend_box_size": 12, "legend_font_size": 14, "logarithmic": false, "major_label_font_size": 10, "margin": 20, "margin_bottom": null, "margin_left": null, "margin_right": null, "margin_top": null, "missing_value_fill_truncation": "x", "mode": null, "no_data_font_size": 64, "no_data_text": "No data", "no_prefix": false, "order_min": null, "pretty_print": false, "print_values": false, "print_zeroes": false, "range": null, "rounded_bars": null, "show_dots": false, "show_legend": true, "show_minor_x_labels": true, "show_minor_y_labels": true, "show_only_major_dots": false, "show_x_guides": false, "show_x_labels": true, "show_y_guides": true, "show_y_labels": true, "spacing": 10, "stack_from_top": false, "strict": false, "stroke": true, "style": {"background": "black", "colors": ["#ff5995", "#b6e354", "#feed6c", "#8cedff", "#9e6ffe", "#899ca1", "#f8f8f2", "#bf4646", "#516083", "#f92672", "#82b414", "#fd971f", "#56c2d6", "#808384", "#8c54fe", "#465457"], "font_family": "monospace", "foreground": "#999", "foreground_dark": "#555", "foreground_light": "#eee", "opacity": ".8", "opacity_hover": ".4", "plot_background": "#111", "stroke_dasharray": "0,0", "stroke_style": "round", "stroke_width": 1.0, "transition": "250ms"}, "title": "Election 5 Participation", "title_font_size": 16, "tooltip_border_radius": 0, "tooltip_font_size": 16, "truncate_label": null, "truncate_legend": null, "value_font_size": 8, "width": 1024, "x_label_format": "%Y-%m-%d %H:%M:%S.%f", "x_label_rotation": 0, "x_labels": null, "x_labels_major": null, "x_labels_major_count": null, "x_labels_major_every": null, "x_title": null, "x_value_formatter": null, "xrange": null, "y_label_rotation": 0, "y_labels": null, "y_labels_major": null, "y_labels_major_count": null, "y_labels_major_every": null, "y_title": "Users", "zero": 0}</script><script type="text/javascript" xlink:href="http://kozea.github.io/pygal.js/javascripts/svg.jquery.js" /><script type="text/javascript" xlink:href="http://kozea.github.io/pygal.js/javascripts/pygal-tooltips.js" /></defs><title>Election 5 Participation</title><g class="graph line-graph vertical"><rect class="background" height="768" width="1024" x="0" y="0" /><g class="plot" transform="translate(80, 46)"><rect class="background" height="657.0" width="924.0" x="0" y="0" /><g class="axis y"><g class="guides"><path class="axis major line" d="M0.000000 644.365385 h924.000000" /><text class="major" x="-5" y="647.8653846153846">0</text></g><g class="guides"><path class="guide line" d="M0.000000 610.328166 h924.000000" /><text class="" x="-5" y="613.8281664456233">200</text></g><g class="guides"><path class="guide line" d="M0.000000 576.290948 h924.000000" /><text class="" x="-5" y="579.7909482758621">400</text></g><g class="guides"><path class="guide line" d="M0.000000 542.253730 h924.000000" /><text class="" x="-5" y="545.7537301061008">600</text></g><g class="guides"><path class="guide line" d="M0.000000 508.216512 h924.000000" /><text class="" x="-5" y="511.7165119363395">800</text></g><g class="guides"><path class="major guide line" d="M0.000000 474.179294 h924.000000" /><text class="major" x="-5" y="477.6792937665782">1000</text></g><g class="guides"><path class="guide line" d="M0.000000 440.142076 h924.000000" /><text class="" x="-5" y="443.64207559681694">1200</text></g><g class="guides"><path class="guide line" d="M0.000000 406.104857 h924.000000" /><text class="" x="-5" y="409.60485742705566">1400</text></g><g class="guides"><path class="guide line" d="M0.000000 372.067639 h924.000000" /><text class="" x="-5" y="375.5676392572944">1600</text></g><g class="guides"><path class="guide line" d="M0.000000 338.030421 h924.000000" /><text class="" x="-5" y="341.5304210875331">1800</text></g><g class="guides"><path class="major guide line" d="M0.000000 303.993203 h924.000000" /><text class="major" x="-5" y="307.49320291777184">2000</text></g><g class="guides"><path class="guide line" d="M0.000000 269.955985 h924.000000" /><text class="" x="-5" y="273.45598474801056">2200</text></g><g class="guides"><path class="guide line" d="M0.000000 235.918767 h924.000000" /><text class="" x="-5" y="239.4187665782493">2400</text></g><g class="guides"><path class="guide line" d="M0.000000 201.881548 h924.000000" /><text class="" x="-5" y="205.38154840848802">2600</text></g><g class="guides"><path class="guide line" d="M0.000000 167.844330 h924.000000" /><text class="" x="-5" y="171.34433023872674">2800</text></g><g class="guides"><path class="major guide line" d="M0.000000 133.807112 h924.000000" /><text class="major" x="-5" y="137.30711206896547">3000</text></g><g class="guides"><path class="guide line" d="M0.000000 99.769894 h924.000000" /><text class="" x="-5" y="103.26989389920425">3200</text></g><g class="guides"><path class="guide line" d="M0.000000 65.732676 h924.000000" /><text class="" x="-5" y="69.23267572944303">3400</text></g><g class="guides"><path class="guide line" d="M0.000000 31.695458 h924.000000" /><text class="" x="-5" y="35.1954575596817">3600</text></g></g><g class="series serie-0 color-0"><path class="line reactive nofill" d="M17.769231 644.365385 L20.237179 644.365385 22.705128 644.365385 25.173077 644.365385 27.641026 644.365385 30.108974 644.365385 32.576923 644.365385 35.044872 644.365385 37.512821 644.365385 39.980769 644.365385 42.448718 644.365385 44.916667 644.365385 47.384615 644.365385 49.852564 644.365385 52.320513 644.365385 54.788462 644.365385 57.256410 644.365385 59.724359 644.365385 62.192308 644.365385 64.660256 644.365385 67.128205 644.365385 69.596154 644.365385 72.064103 644.365385 74.532051 644.365385 77.000000 644.365385 79.467949 644.365385 81.935897 644.365385 84.403846 644.365385 86.871795 644.365385 89.339744 644.365385 91.807692 644.365385 94.275641 644.365385 96.743590 644.365385 99.211538 644.365385 101.679487 644.365385 104.147436 644.365385 106.615385 644.365385 109.083333 644.365385 111.551282 644.365385 114.019231 644.365385 116.487179 644.365385 118.955128 644.365385 121.423077 644.365385 123.891026 644.365385 126.358974 644.365385 128.826923 644.365385 131.294872 644.365385 133.762821 644.365385 136.230769 644.365385 138.698718 644.365385 141.166667 644.365385 143.634615 644.365385 146.102564 644.365385 148.570513 644.365385 151.038462 644.365385 153.506410 644.365385 155.974359 644.365385 158.442308 644.365385 160.910256 644.365385 163.378205 644.365385 165.846154 644.365385 168.314103 644.365385 170.782051 644.365385 173.250000 644.365385 175.717949 644.365385 178.185897 644.365385 180.653846 644.365385 183.121795 644.365385 185.589744 644.365385 188.057692 644.365385 190.525641 644.365385 192.993590 644.365385 195.461538 644.365385 197.929487 644.365385 200.397436 644.365385 202.865385 644.365385 205.333333 644.365385 207.801282 644.365385 210.269231 644.365385 212.737179 644.365385 215.205128 644.365385 217.673077 644.365385 220.141026 644.365385 222.608974 644.365385 225.076923 644.365385 227.544872 644.365385 230.012821 644.365385 232.480769 644.365385 234.948718 644.365385 237.416667 644.365385 239.884615 644.365385 242.352564 644.365385 244.820513 644.365385 247.288462 644.365385 249.756410 644.365385 252.224359 644.365385 254.692308 644.365385 257.160256 644.365385 259.628205 644.365385 262.096154 644.365385 264.564103 644.365385 267.032051 644.365385 269.500000 644.365385 271.967949 644.365385 274.435897 644.365385 276.903846 644.365385 279.371795 644.365385 281.839744 644.365385 284.307692 644.365385 286.775641 644.365385 289.243590 644.365385 291.711538 644.365385 294.179487 644.365385 296.647436 644.365385 299.115385 644.365385 301.583333 644.365385 304.051282 644.365385 306.519231 644.365385 308.987179 644.365385 311.455128 644.365385 313.923077 644.365385 316.391026 644.365385 318.858974 644.365385 321.326923 644.365385 323.794872 644.365385 326.262821 644.365385 328.730769 644.365385 331.198718 644.365385 333.666667 644.365385 336.134615 644.365385 338.602564 644.365385 341.070513 644.365385 343.538462 644.365385 346.006410 644.365385 348.474359 644.365385 350.942308 644.365385 353.410256 644.365385 355.878205 644.365385 358.346154 644.365385 360.814103 644.365385 363.282051 644.365385 365.750000 644.365385 368.217949 644.365385 370.685897 644.365385 373.153846 644.365385 375.621795 644.365385 378.089744 644.365385 380.557692 644.365385 383.025641 644.365385 385.493590 644.365385 387.961538 644.365385 390.429487 644.365385 392.897436 644.365385 395.365385 644.365385 397.833333 644.365385 400.301282 644.365385 402.769231 644.365385 405.237179 644.365385 407.705128 644.365385 410.173077 644.365385 412.641026 644.365385 415.108974 644.365385 417.576923 644.365385 420.044872 644.365385 422.512821 644.365385 424.980769 644.365385 427.448718 644.365385 429.916667 644.365385 432.384615 644.365385 434.852564 644.365385 437.320513 644.365385 439.788462 644.365385 442.256410 644.365385 444.724359 644.365385 447.192308 644.365385 449.660256 644.365385 452.128205 644.365385 454.596154 644.365385 457.064103 644.365385 459.532051 644.365385 462.000000 644.365385 464.467949 644.365385 466.935897 644.365385 469.403846 644.365385 471.871795 644.365385 474.339744 644.365385 476.807692 644.365385 479.275641 644.365385 481.743590 644.365385 484.211538 644.365385 486.679487 644.365385 489.147436 644.365385 491.615385 644.365385 494.083333 644.365385 496.551282 644.365385 499.019231 644.365385 501.487179 644.365385 503.955128 644.365385 506.423077 644.365385 508.891026 644.365385 511.358974 644.365385 513.826923 644.365385 516.294872 644.365385 518.762821 644.365385 521.230769 644.365385 523.698718 644.365385 526.166667 644.365385 528.634615 644.365385 531.102564 644.365385 533.570513 644.365385 536.038462 644.365385 538.506410 644.365385 540.974359 644.365385 543.442308 644.365385 545.910256 644.365385 548.378205 644.365385 550.846154 644.365385 553.314103 644.365385 555.782051 644.365385 558.250000 644.365385 560.717949 644.365385 563.185897 644.365385 565.653846 644.365385 568.121795 644.365385 570.589744 644.365385 573.057692 644.365385 575.525641 644.365385 577.993590 644.365385 580.461538 644.365385 582.929487 644.365385 585.397436 644.365385 587.865385 644.365385 590.333333 644.365385 592.801282 644.365385 595.269231 644.365385 597.737179 644.365385 600.205128 644.365385 602.673077 644.365385 605.141026 644.365385 607.608974 644.365385 610.076923 644.365385 612.544872 644.365385 615.012821 644.365385 617.480769 644.365385 619.948718 644.365385 622.416667 644.365385 624.884615 644.365385 627.352564 644.365385 629.820513 644.365385 632.288462 644.365385 634.756410 644.365385 637.224359 644.365385 639.692308 644.365385 642.160256 644.365385 644.628205 644.365385 647.096154 644.365385 649.564103 644.365385 652.032051 644.365385 654.500000 644.365385 656.967949 644.365385 659.435897 644.365385 661.903846 644.365385 664.371795 644.365385 666.839744 634.154219 669.307692 590.926952 671.775641 571.525738 674.243590 556.549362 676.711538 544.806521 679.179487 538.850008 681.647436 531.702192 684.115385 526.766796 686.583333 522.682330 689.051282 518.768050 691.519231 515.194142 693.987179 512.130792 696.455128 509.067442 698.923077 504.982976 701.391026 499.366835 703.858974 495.452555 706.326923 493.069950 708.794872 489.496042 711.262821 485.241390 713.730769 480.986737 716.198718 477.412829 718.666667 475.710969 721.134615 473.498549 723.602564 471.286130 726.070513 469.243897 728.538462 467.201664 731.006410 464.989245 733.474359 463.797942 735.942308 462.436453 738.410256 460.904779 740.878205 459.883662 743.346154 458.522173 745.814103 458.011615 748.282051 456.820312 750.750000 455.799196 753.217949 454.267521 755.685897 452.735846 758.153846 451.544544 760.621795 450.353241 763.089744 449.672497 765.557692 448.991752 768.025641 448.311008 770.493590 446.949519 772.961538 444.907286 775.429487 444.396728 777.897436 442.524681 780.365385 441.503564 782.833333 439.801703 785.301282 438.610401 787.769231 437.248912 790.237179 436.568168 792.705128 435.206679 795.173077 434.355749 797.641026 433.845190 800.108974 433.675004 802.576923 432.483702 805.044872 431.973143 807.512821 431.122213 809.980769 430.611655 812.448718 430.271282 814.916667 429.420352 817.384615 428.569421 819.852564 427.207933 822.320513 425.846444 824.788462 424.655141 827.256410 423.974397 829.724359 423.293653 832.192308 422.783094 834.660256 421.932164 837.128205 421.421606 839.596154 420.740861 842.064103 419.549559 844.532051 419.209186 847.000000 418.188070 849.467949 417.677512 851.935897 416.826581 854.403846 416.316023 856.871795 415.975651 859.339744 414.954534 861.807692 414.784348 864.275641 414.443976 866.743590 413.593045 869.211538 413.252673 871.679487 413.082487 874.147436 413.082487 876.615385 412.571929 879.083333 412.061371 881.551282 411.210440 884.019231 411.040254 886.487179 411.040254 888.955128 409.848951 891.423077 409.338393 893.891026 407.636532 896.358974 406.955788 898.826923 405.934671 901.294872 404.913555 903.762821 403.381880 906.230769 403.381880" /></g><g class="series serie-1 color-1"><path class="line reactive nofill" d="M17.769231 562.676061 L20.237179 530.340704 22.705128 508.727070 25.173077 497.324602 27.641026 485.751948 30.108974 478.263760 32.576923 469.924641 35.044872 462.947012 37.512821 455.458824 39.980769 449.332125 42.448718 444.566914 44.916667 438.780587 47.384615 431.802957 49.852564 424.825327 52.320513 417.677512 54.788462 413.593045 57.256410 408.317277 59.724359 403.041508 62.192308 398.957042 64.660256 393.681273 67.128205 389.086248 69.596154 385.342154 72.064103 381.768246 74.532051 379.045269 77.000000 374.790617 79.467949 372.578198 81.935897 370.706151 84.403846 369.004290 86.871795 366.451498 89.339744 364.919823 91.807692 363.898707 94.275641 362.537218 96.743590 360.835357 99.211538 359.644055 101.679487 358.112380 104.147436 357.261449 106.615385 355.219216 109.083333 353.687541 111.551282 351.815494 114.019231 350.794378 116.487179 349.773261 118.955128 347.901214 121.423077 345.348423 123.891026 343.986934 126.358974 343.136004 128.826923 341.434143 131.294872 340.242840 133.762821 338.540979 136.230769 337.690049 138.698718 336.668932 141.166667 335.307444 143.634615 334.286327 146.102564 333.435397 148.570513 332.584466 151.038462 331.052791 153.506410 330.201861 155.974359 329.861489 158.442308 329.180744 160.910256 328.500000 163.378205 328.329814 165.846154 327.478883 168.314103 327.308697 170.782051 326.798139 173.250000 326.457767 175.717949 325.266464 178.185897 324.415534 180.653846 323.394417 183.121795 322.032929 185.589744 320.671440 188.057692 319.820509 190.525641 318.969579 192.993590 318.629207 195.461538 317.608090 197.929487 316.757160 200.397436 316.586974 202.865385 316.076415 205.333333 315.055299 207.801282 314.885113 210.269231 314.885113 212.737179 314.544741 215.205128 314.204368 217.673077 313.693810 220.141026 313.183252 222.608974 313.183252 225.076923 313.183252 227.544872 312.842880 230.012821 312.332321 232.480769 312.162135 234.948718 311.821763 237.416667 311.141019 239.884615 310.800647 242.352564 310.460274 244.820513 309.949716 247.288462 309.439158 249.756410 308.928600 252.224359 308.588227 254.692308 308.247855 257.160256 307.907483 259.628205 307.567111 262.096154 307.226739 264.564103 306.886366 267.032051 306.375808 269.500000 306.205622 271.967949 306.035436 274.435897 305.695064 276.903846 305.524878 279.371795 305.524878 281.839744 305.354692 284.307692 305.184506 286.775641 305.014319 289.243590 304.503761 291.711538 304.503761 294.179487 304.333575 296.647436 303.823017 299.115385 303.823017 301.583333 302.972086 304.051282 302.801900 306.519231 302.291342 308.987179 301.780784 311.455128 301.440412 313.923077 300.759667 316.391026 300.249109 318.858974 299.908737 321.326923 299.738551 323.794872 299.398178 326.262821 298.887620 328.730769 298.887620 331.198718 298.717434 333.666667 298.717434 336.134615 298.547248 338.602564 298.547248 341.070513 298.547248 343.538462 298.377062 346.006410 298.036690 348.474359 297.866504 350.942308 297.866504 353.410256 297.866504 355.878205 297.866504 358.346154 297.185759 360.814103 296.845387 363.282051 296.334829 365.750000 295.483898 368.217949 295.313712 370.685897 295.143526 373.153846 294.973340 375.621795 294.462782 378.089744 293.952224 380.557692 293.952224 383.025641 293.782037 385.493590 293.441665 387.961538 293.101293 390.429487 292.760921 392.897436 292.590735 395.365385 292.420549 397.833333 292.080177 400.301282 292.080177 402.769231 291.909990 405.237179 291.569618 407.705128 291.229246 410.173077 291.059060 412.641026 290.888874 415.108974 290.888874 417.576923 290.548502 420.044872 290.378316 422.512821 290.037943 424.980769 289.697571 427.448718 289.527385 429.916667 278.975848 432.384615 250.214398 434.852564 232.004486 437.320513 220.091460 439.788462 212.773458 442.256410 206.646759 444.724359 201.711362 447.192308 199.158571 449.660256 195.244291 452.128205 192.521313 454.596154 189.968522 457.064103 185.203312 459.532051 180.778473 462.000000 173.971030 464.467949 168.865447 466.935897 164.780981 469.403846 161.207073 471.871795 158.824467 474.339744 156.441862 476.807692 150.825721 479.275641 148.272930 481.743590 145.720138 484.211538 142.656789 486.679487 140.274184 489.147436 138.402137 491.615385 137.210834 494.083333 135.679159 496.551282 133.807112 499.019231 132.785996 501.487179 131.424507 503.955128 130.403390 506.423077 130.403390 508.891026 129.892832 511.358974 129.382274 513.826923 128.190971 516.294872 127.340041 518.762821 126.318924 521.230769 124.617063 523.698718 123.766133 526.166667 121.553714 528.634615 121.043155 531.102564 120.022039 533.570513 119.341294 536.038462 118.320178 538.506410 117.299061 540.974359 115.597200 543.442308 114.065526 545.910256 113.214595 548.378205 112.363665 550.846154 111.002176 553.314103 110.151245 555.782051 109.640687 558.250000 108.619571 560.717949 107.938826 563.185897 106.917710 565.653846 106.407151 568.121795 105.896593 570.589744 105.556221 573.057692 105.386035 575.525641 104.364918 577.993590 104.024546 580.461538 103.173616 582.929487 102.322685 585.397436 101.982313 587.865385 101.641941 590.333333 101.471755 592.801282 101.301569 595.269231 100.280452 597.737179 99.940080 600.205128 99.429522 602.673077 98.918963 605.141026 98.578591 607.608974 97.727661 610.076923 96.706544 612.544872 96.195986 615.012821 95.345056 617.480769 95.004683 619.948718 94.834497 622.416667 94.664311 624.884615 94.153753 627.352564 93.983567 629.820513 93.473009 632.288462 93.132636 634.756410 92.792264 637.224359 92.281706 639.692308 92.281706 642.160256 91.941334 644.628205 91.600962 647.096154 91.090403 649.564103 91.090403 652.032051 90.239473 654.500000 89.388542 656.967949 88.537612 659.435897 87.856868 661.903846 87.516495 664.371795 87.005937 666.839744 84.623332 669.307692 74.922725 671.775641 70.327700 674.243590 67.094164 676.711538 64.711559 679.179487 62.839512 681.647436 60.797279 684.115385 59.946349 686.583333 58.925232 689.051282 57.393557 691.519231 57.053185 693.987179 56.202255 696.455128 55.351324 698.923077 54.160022 701.391026 52.628347 703.858974 51.437044 706.326923 50.245741 708.794872 49.394811 711.262821 47.863136 713.730769 46.501647 716.198718 45.650717 718.666667 45.310345 721.134615 44.459414 723.602564 43.778670 726.070513 42.587367 728.538462 41.906623 731.006410 41.566251 733.474359 40.885506 735.942308 40.204762 738.410256 39.694204 740.878205 39.524018 743.346154 38.843273 745.814103 38.332715 748.282051 37.992343 750.750000 37.481785 753.217949 37.141412 755.685897 36.460668 758.153846 36.120296 760.621795 35.950110 763.089744 35.779924 765.557692 35.099179 768.025641 34.928993 770.493590 34.588621 772.961538 34.078063 775.429487 33.227132 777.897436 32.716574 780.365385 32.376202 782.833333 32.035830 785.301282 32.035830 787.769231 30.844527 790.237179 29.653224 792.705128 28.972480 795.173077 28.802294 797.641026 28.461922 800.108974 28.291736 802.576923 27.781177 805.044872 27.440805 807.512821 27.100433 809.980769 26.589875 812.448718 26.419689 814.916667 25.568758 817.384615 25.058200 819.852564 24.037083 822.320513 23.015967 824.788462 22.845781 827.256410 22.165036 829.724359 21.654478 832.192308 21.314106 834.660256 20.803548 837.128205 20.463176 839.596154 20.292989 842.064103 19.612245 844.532051 19.101687 847.000000 18.761315 849.467949 18.591129 851.935897 18.420942 854.403846 18.250756 856.871795 18.080570 859.339744 17.399826 861.807692 17.229640 864.275641 16.889268 866.743590 16.719082 869.211538 16.719082 871.679487 16.378709 874.147436 16.378709 876.615385 15.868151 879.083333 15.527779 881.551282 15.357593 884.019231 15.017221 886.487179 15.017221 888.955128 14.847035 891.423077 14.847035 893.891026 14.676848 896.358974 14.166290 898.826923 13.655732 901.294872 13.315360 903.762821 12.634615 906.230769 12.634615" /></g></g><g class="titles"><text class="title plot_title" x="512.0" y="26">Election 5 Participation</text><text class="title" transform="rotate(-90 0.000000 374.500000)" x="0" y="400.5">Users</text></g><g class="plot overlay" transform="translate(80, 46)"><g class="series serie-0 color-0" /><g class="series serie-1 color-1" /></g><g class="plot text-overlay" transform="translate(80, 46)"><g class="series serie-0 color-0" /><g class="series serie-1 color-1" /></g><g class="plot tooltip-overlay" transform="translate(80, 46)"><g class="tooltip" style="opacity: 0" transform="translate(0 0)"><a><rect class="tooltip-box" height="0" rx="0" ry="0" width="0" /><text class="text"><tspan class="label" /><tspan class="value" /></text></a></g></g><g class="legends" transform="translate(90, 713)"><g class="legend reactive activate-serie" id="activate-serie-0"><rect class="color-0 reactive" height="12" width="12" x="0.0" y="1.0" /><text x="17.0" y="11.2">constituents</text></g><g class="legend reactive activate-serie" id="activate-serie-1"><rect class="color-1 reactive" height="12" width="12" x="462.0" y="1.0" /><text x="479.0" y="11.2">caucus</text></g></g></g></svg>