<?xml version='1.0' encoding='utf-8'?>
<svg xmlns:xlink="http://www.w3.org/1999/xlink" class="pygal-chart" id="chart-0c8abf4a-701a-4d63-bb40-d0081d18f186" viewBox="0 0 1024 768" xmlns="http://www.w3.org/2000/svg"><!--Generated with pygal 1.7.0 (etree) ©Kozea 2011-2014 on 2015-11-21--><!--http://pygal.org--><!--http://github.com/Kozea/pygal--><defs><style type="text/css">#chart-0c8abf4a-701a-4d63-bb40-d0081d18f186 .title{font-family:"monospace";font-size:16px}#chart-0c8abf4a-701a-4d63-bb40-d0081d18f186 .legends .legend text{font-family:"monospace";font-size:14px}#chart-0c8abf4a-701a-4d63-bb40-d0081d18f186 .axis text{font-family:"monospace";font-size:10px}#chart-0c8abf4a-701a-4d63-bb40-d0081d18f186 .axis text.major{font-family:"monospace";font-size:10px}#chart-0c8abf4a-701a-4d63-bb40-d0081d18f186 .series text{font-family:"monospace";font-size:8px}#chart-0c8abf4a-701a-4d63-bb40-d0081d18f186 .tooltip text{font-family:"monospace";font-size:16px}#chart-0c8abf4a-701a-4d63-bb40-d0081d18f186 text.no_data{font-size:64px}
#chart-0c8abf4a-701a-4d63-bb40-d0081d18f186{background-color:black}#chart-0c8abf4a-701a-4d63-bb40-d0081d18f186 path,#chart-0c8abf4a-701a-4d63-bb40-d0081d18f186 line,#chart-0c8abf4a-701a-4d63-bb40-d0081d18f186 rect,#chart-0c8abf4a-701a-4d63-bb40-d0081d18f186 circle{-webkit-transition:250ms;-moz-transition:250ms;transition:250ms}#chart-0c8abf4a-701a-4d63-bb40-d0081d18f186 .graph &gt; .background{fill:black}#chart-0c8abf4a-701a-4d63-bb40-d0081d18f186 .plot &gt; .background{fill:#111}#chart-0c8abf4a-701a-4d63-bb40-d0081d18f186 .graph{fill:#999}#chart-0c8abf4a-701a-4d63-bb40-d0081d18f186 text.no_data{fill:#eee}#chart-0c8abf4a-701a-4d63-bb40-d0081d18f186 .title{fill:#eee}#chart-0c8abf4a-701a-4d63-bb40-d0081d18f186 .legends .legend text{fill:#999}#chart-0c8abf4a-701a-4d63-bb40-d0081d18f186 .legends .legend:hover text{fill:#eee}#chart-0c8abf4a-701a-4d63-bb40-d0081d18f186 .axis .line{stroke:#eee}#chart-0c8abf4a-701a-4d63-bb40-d0081d18f186 .axis .guide.line{stroke:#555}#chart-0c8abf4a-701a-4d63-bb40-d0081d18f186 .axis .major.line{stroke:#999}#chart-0c8abf4a-701a-4d63-bb40-d0081d18f186 .axis text.major{stroke:#eee;fill:#eee}#chart-0c8abf4a-701a-4d63-bb40-d0081d18f186 .axis.y .guides:hover .guide.line,#chart-0c8abf4a-701a-4d63-bb40-d0081d18f186 .line-graph .axis.x .guides:hover .guide.line,#chart-0c8abf4a-701a-4d63-bb40-d0081d18f186 .stackedline-graph .axis.x .guides:hover .guide.line,#chart-0c8abf4a-701a-4d63-bb40-d0081d18f186 .xy-graph .axis.x .guides:hover .guide.line{stroke:#eee}#chart-0c8abf4a-701a-4d63-bb40-d0081d18f186 .axis .guides:hover text{fill:#eee}#chart-0c8abf4a-701a-4d63-bb40-d0081d18f186 .reactive{fill-opacity:.8}#chart-0c8abf4a-701a-4d63-bb40-d0081d18f186 .reactive.active,#chart-0c8abf4a-701a-4d63-bb40-d0081d18f186 .active .reactive{fill-opacity:.4}#chart-0c8abf4a-701a-4d63-bb40-d0081d18f186 .series{stroke-width:1.0;stroke-linejoin:round;stroke-linecap:round;stroke-dasharray:0,0}#chart-0c8abf4a-701a-4d63-bb40-d0081d18f186 .series text{fill:#eee}#chart-0c8abf4a-701a-4d63-bb40-d0081d18f186 .tooltip rect{fill:#111;stroke:#eee}#chart-0c8abf4a-701a-4d63-bb40-d0081d18f186 .tooltip text{fill:#eee}#chart-0c8abf4a-701a-4d63-bb40-d0081d18f186 .map-element{fill:#999;stroke:#555 !important;opacity:.9;stroke-width:3;-webkit-transition:250ms;-moz-transition:250ms;-o-transition:250ms;transition:250ms}#chart-0c8abf4a-701a-4d63-bb40-d0081d18f186 .map-element:hover{opacity:1;stroke-width:10}#chart-0c8abf4a-701a-4d63-bb40-d0081d18f186 .color-0,#chart-0c8abf4a-701a-4d63-bb40-d0081d18f186 .color-0 a:visited{stroke:#ff5995;fill:#ff5995}#chart-0c8abf4a-701a-4d63-bb40-d0081d18f186 .color-1,#chart-0c8abf4a-701a-4d63-bb40-d0081d18f186 .color-1 a:visited{stroke:#b6e354;fill:#b6e354}#chart-0c8abf4a-701a-4d63-bb40-d0081d18f186 .color-2,#chart-0c8abf4a-701a-4d63-bb40-d0081d18f186 .color-2 a:visited{stroke:#feed6c;fill:#feed6c}#chart-0c8abf4a-701a-4d63-bb40-d0081d18f186 .color-3,#chart-0c8abf4a-701a-4d63-bb40-d0081d18f186 .color-3 a:visited{stroke:#8cedff;fill:#8cedff}#chart-0c8abf4a-701a-4d63-bb40-d0081d18f186 .color-4,#chart-0c8abf4a-701a-4d63-bb40-d0081d18f186 .color-4 a:visited{stroke:#9e6ffe;fill:#9e6ffe}#chart-0c8abf4a-701a-4d63-bb40-d0081d18f186 .color-5,#chart-0c8abf4a-701a-4d63-bb40-d0081d18f186 .color-5 a:visited{stroke:#899ca1;fill:#899ca1}#chart-0c8abf4a-701a-4d63-bb40-d0081d18f186 .color-6,#chart-0c8abf4a-701a-4d63-bb40-d0081d18f186 .color-6 a:visited{stroke:#f8f8f2;fill:#f8f8f2}#chart-0c8abf4a-701a-4d63-bb40-d0081d18f186 .color-7,#chart-0c8abf4a-701a-4d63-bb40-d0081d18f186 .color-7 a:visited{stroke:#bf4646;fill:#bf4646}#chart-0c8abf4a-701a-4d63-bb40-d0081d18f186 .color-8,#chart-0c8abf4a-701a-4d63-bb40-d0081d18f186 .color-8 a:visited{stroke:#516083;fill:#516083}#chart-0c8abf4a-701a-4d63-bb40-d0081d18f186 .color-9,#chart-0c8abf4a-701a-4d63-bb40-d0081d18f186 .color-9 a:visited{stroke:#f92672;fill:#f92672}#chart-0c8abf4a-701a-4d63-bb40-d0081d18f186 .color-10,#chart-0c8abf4a-701a-4d63-bb40-d0081d18f186 .color-10 a:visited{stroke:#82b414;fill:#82b414}#chart-0c8abf4a-701a-4d63-bb40-d0081d18f186 .color-11,#chart-0c8abf4a-701a-4d63-bb40-d0081d18f186 .color-11 a:visited{stroke:#fd971f;fill:#fd971f}#chart-0c8abf4a-701a-4d63-bb40-d0081d18f186 .color-12,#chart-0c8abf4a-701a-4d63-bb40-d0081d18f186 .color-12 a:visited{stroke:#56c2d6;fill:#56c2d6}#chart-0c8abf4a-701a-4d63-bb40-d0081d18f186 .color-13,#chart-0c8abf4a-701a-4d63-bb40-d0081d18f186 .color-13 a:visited{stroke:#808384;fill:#808384}#chart-0c8abf4a-701a-4d63-bb40-d0081d18f186 .color-14,#chart-0c8abf4a-701a-4d63-bb40-d0081d18f186 .color-14 a:visited{stroke:#8c54fe;fill:#8c54fe}#chart-0c8abf4a-701a-4d63-bb40-d0081d18f186 .color-15,#chart-0c8abf4a-701a-4d63-bb40-d0081d18f186 .color-15 a:visited{stroke:#465457;fill:#465457}
#chart-0c8abf4a-701a-4d63-bb40-d0081d18f186 text.no_data{text-anchor:middle}#chart-0c8abf4a-701a-4d63-bb40-d0081d18f186 .guide.line{fill-opacity:0}#chart-0c8abf4a-701a-4d63-bb40-d0081d18f186 .centered{text-anchor:middle}#chart-0c8abf4a-701a-4d63-bb40-d0081d18f186 .title{text-anchor:middle}#chart-0c8abf4a-701a-4d63-bb40-d0081d18f186 .legends .legend text{fill-opacity:1}#chart-0c8abf4a-701a-4d63-bb40-d0081d18f186 .axis.x text{text-anchor:middle}#chart-0c8abf4a-701a-4d63-bb40-d0081d18f186 .axis.x:not(.web) text[transform]{text-anchor:start}#chart-0c8abf4a-701a-4d63-bb40-d0081d18f186 .axis.y text{text-anchor:end}#chart-0c8abf4a-701a-4d63-bb40-d0081d18f186 .axis.y2 text{text-anchor:start}#chart-0c8abf4a-701a-4d63-bb40-d0081d18f186 .axis.y .logarithmic text:not(.major),#chart-0c8abf4a-701a-4d63-bb40-d0081d18f186 .axis.y2 .logarithmic text:not(.major){font-size:50%}#chart-0c8abf4a-701a-4d63-bb40-d0081d18f186 .axis .guide.line{stroke-dasharray:4,4}#chart-0c8abf4a-701a-4d63-bb40-d0081d18f186 .axis .major.guide.line{stroke-dasharray:6,6}#chart-0c8abf4a-701a-4d63-bb40-d0081d18f186 .axis text.major{stroke-width:0.5px}#chart-0c8abf4a-701a-4d63-bb40-d0081d18f186 .horizontal .axis.y .guide.line,#chart-0c8abf4a-701a-4d63-bb40-d0081d18f186 .horizontal .axis.y2 .guide.line,#chart-0c8abf4a-701a-4d63-bb40-d0081d18f186 .vertical .axis.x .guide.line{opacity:0}#chart-0c8abf4a-701a-4d63-bb40-d0081d18f186 .horizontal .axis.always_show .guide.line,#chart-0c8abf4a-701a-4d63-bb40-d0081d18f186 .vertical .axis.always_show .guide.line{opacity:1 !important}#chart-0c8abf4a-701a-4d63-bb40-d0081d18f186 .axis.y .guides:hover .guide.line,#chart-0c8abf4a-701a-4d63-bb40-d0081d18f186 .axis.y2 .guides:hover .guide.line,#chart-0c8abf4a-701a-4d63-bb40-d0081d18f186 .axis.x .guides:hover .guide.line{opacity:1}#chart-0c8abf4a-701a-4d63-bb40-d0081d18f186 .axis .guides:hover text{opacity:1}#chart-0c8abf4a-701a-4d63-bb40-d0081d18f186 .nofill{fill:none}#chart-0c8abf4a-701a-4d63-bb40-d0081d18f186 .subtle-fill{fill-opacity:.2}#chart-0c8abf4a-701a-4d63-bb40-d0081d18f186 .dot{stroke-width:1px;fill-opacity:1}#chart-0c8abf4a-701a-4d63-bb40-d0081d18f186 .dot.active{stroke-width:5px}#chart-0c8abf4a-701a-4d63-bb40-d0081d18f186 .series text{stroke:none}#chart-0c8abf4a-701a-4d63-bb40-d0081d18f186 .series text.active{opacity:1}#chart-0c8abf4a-701a-4d63-bb40-d0081d18f186 .tooltip rect{fill-opacity:0.8}#chart-0c8abf4a-701a-4d63-bb40-d0081d18f186 .tooltip text{fill-opacity:1}#chart-0c8abf4a-701a-4d63-bb40-d0081d18f186 .tooltip text tspan.label{fill-opacity:.8}</style><script type="text/javascript">window.config = {"tooltip_font_size": 16, "xrange": null, "no_data_font_size": 64, "label_font_size": 10, "stack_from_top": false, "show_dots": false, "mode": null, "legend_at_bottom_columns": null, "x_value_formatter": null, "tooltip_border_radius": 0, "show_x_labels": true, "value_font_size": 8, "margin": 20, "fill": false, "show_only_major_dots": false, "major_label_font_size": 10, "range": [0, 1000], "x_label_rotation": 0, "margin_top": null, "interpolate": null, "legend_box_size": 12, "x_labels": null, "height": 768, "y_labels_major_count": null, "show_x_guides": false, "include_x_axis": false, "print_values": false, "y_labels_major": null, "x_label_format": "%Y-%m-%d %H:%M:%S.%f", "human_readable": false, "y_labels": null, "strict": false, "show_y_labels": true, "js": ["http://kozea.github.io/pygal.js/javascripts/svg.jquery.js", "http://kozea.github.io/pygal.js/javascripts/pygal-tooltips.js"], "order_min": null, "disable_xml_declaration": false, "truncate_label": null, "show_legend": true, "pretty_print": false, "rounded_bars": null, "margin_bottom": null, "x_title": null, "title": "Election stackoverflow.com-4 Participation Per Hour", "dots_size": 2.5, "x_labels_major_every": null, "show_minor_y_labels": true, "legend_font_size": 14, "y_label_rotation": 0, "explicit_size": false, "y_labels_major_every": null, "no_prefix": false, "css": ["style.css", "graph.css"], "x_labels_major": null, "x_labels_major_count": null, "half_pie": false, "stroke": true, "zero": 0, "margin_right": null, "show_y_guides": true, "title_font_size": 16, "print_zeroes": false, "interpolation_precision": 250, "logarithmic": false, "legend_at_bottom": true, "margin_left": null, "spacing": 10, "truncate_legend": null, "inner_radius": 0, "interpolation_parameters": {}, "width": 1024, "y_title": "Users", "missing_value_fill_truncation": "x", "show_minor_x_labels": true, "style": {"font_family": "monospace", "colors": ["#ff5995", "#b6e354", "#feed6c", "#8cedff", "#9e6ffe", "#899ca1", "#f8f8f2", "#bf4646", "#516083", "#f92672", "#82b414", "#fd971f", "#56c2d6", "#808384", "#8c54fe", "#465457"], "plot_background": "#111", "stroke_width": 1.0, "foreground_light": "#eee", "foreground": "#999", "stroke_dasharray": "0,0", "stroke_style": "round", "foreground_dark": "#555", "opacity": ".8", "background": "black", "transition": "250ms", "opacity_hover": ".4"}, "no_data_text": "No data"}</script><script type="text/javascript" xlink:href="http://kozea.github.io/pygal.js/javascripts/svg.jquery.js" /><script type="text/javascript" xlink:href="http://kozea.github.io/pygal.js/javascripts/pygal-tooltips.js" /></defs><title>Election stackoverflow.com-4 Participation Per Hour</title><g class="graph line-graph vertical"><rect class="background" height="768" width="1024" x="0" y="0" /><g class="plot" transform="translate(80, 46)"><rect class="background" height="657.0" width="924.0" x="0" y="0" /><g class="axis y"><g class="guides"><path class="axis major line" d="M0.000000 644.365385 h924.000000" /><text class="major" x="-5" y="647.8653846153846">0</text></g><g class="guides"><path class="guide line" d="M0.000000 581.192308 h924.000000" /><text class="" x="-5" y="584.6923076923077">100</text></g><g class="guides"><path class="guide line" d="M0.000000 518.019231 h924.000000" /><text class="" x="-5" y="521.5192307692307">200</text></g><g class="guides"><path class="guide line" d="M0.000000 454.846154 h924.000000" /><text class="" x="-5" y="458.3461538461538">300</text></g><g class="guides"><path class="guide line" d="M0.000000 391.673077 h924.000000" /><text class="" x="-5" y="395.1730769230769">400</text></g><g class="guides"><path class="major guide line" d="M0.000000 328.500000 h924.000000" /><text class="major" x="-5" y="332.0">500</text></g><g class="guides"><path class="guide line" d="M0.000000 265.326923 h924.000000" /><text class="" x="-5" y="268.8269230769231">600</text></g><g class="guides"><path class="guide line" d="M0.000000 202.153846 h924.000000" /><text class="" x="-5" y="205.65384615384613">700</text></g><g class="guides"><path class="guide line" d="M0.000000 138.980769 h924.000000" /><text class="" x="-5" y="142.48076923076928">800</text></g><g class="guides"><path class="guide line" d="M0.000000 75.807692 h924.000000" /><text class="" x="-5" y="79.30769230769226">900</text></g><g class="guides"><path class="major guide line" d="M0.000000 12.634615 h924.000000" /><text class="major" x="-5" y="16.13461538461536">1000</text></g></g><g class="series serie-0 color-0"><path class="line reactive nofill" d="M17.769231 644.365385 L20.237179 644.365385 22.705128 644.365385 25.173077 644.365385 27.641026 644.365385 30.108974 644.365385 32.576923 644.365385 35.044872 644.365385 37.512821 644.365385 39.980769 644.365385 42.448718 644.365385 44.916667 644.365385 47.384615 644.365385 49.852564 644.365385 52.320513 644.365385 54.788462 644.365385 57.256410 644.365385 59.724359 644.365385 62.192308 644.365385 64.660256 644.365385 67.128205 644.365385 69.596154 644.365385 72.064103 644.365385 74.532051 644.365385 77.000000 644.365385 79.467949 644.365385 81.935897 644.365385 84.403846 644.365385 86.871795 644.365385 89.339744 644.365385 91.807692 644.365385 94.275641 644.365385 96.743590 644.365385 99.211538 644.365385 101.679487 644.365385 104.147436 644.365385 106.615385 644.365385 109.083333 644.365385 111.551282 644.365385 114.019231 644.365385 116.487179 644.365385 118.955128 644.365385 121.423077 644.365385 123.891026 644.365385 126.358974 644.365385 128.826923 644.365385 131.294872 644.365385 133.762821 644.365385 136.230769 644.365385 138.698718 644.365385 141.166667 644.365385 143.634615 644.365385 146.102564 644.365385 148.570513 644.365385 151.038462 644.365385 153.506410 644.365385 155.974359 644.365385 158.442308 644.365385 160.910256 644.365385 163.378205 644.365385 165.846154 644.365385 168.314103 644.365385 170.782051 644.365385 173.250000 644.365385 175.717949 644.365385 178.185897 644.365385 180.653846 644.365385 183.121795 644.365385 185.589744 644.365385 188.057692 644.365385 190.525641 644.365385 192.993590 644.365385 195.461538 644.365385 197.929487 644.365385 200.397436 644.365385 202.865385 644.365385 205.333333 644.365385 207.801282 644.365385 210.269231 644.365385 212.737179 644.365385 215.205128 644.365385 217.673077 644.365385 220.141026 644.365385 222.608974 644.365385 225.076923 644.365385 227.544872 644.365385 230.012821 644.365385 232.480769 644.365385 234.948718 644.365385 237.416667 644.365385 239.884615 644.365385 242.352564 644.365385 244.820513 644.365385 247.288462 644.365385 249.756410 644.365385 252.224359 644.365385 254.692308 644.365385 257.160256 644.365385 259.628205 644.365385 262.096154 644.365385 264.564103 644.365385 267.032051 644.365385 269.500000 644.365385 271.967949 644.365385 274.435897 644.365385 276.903846 644.365385 279.371795 644.365385 281.839744 644.365385 284.307692 644.365385 286.775641 644.365385 289.243590 644.365385 291.711538 644.365385 294.179487 644.365385 296.647436 644.365385 299.115385 644.365385 301.583333 644.365385 304.051282 644.365385 306.519231 644.365385 308.987179 644.365385 311.455128 644.365385 313.923077 644.365385 316.391026 644.365385 318.858974 644.365385 321.326923 644.365385 323.794872 644.365385 326.262821 644.365385 328.730769 644.365385 331.198718 644.365385 333.666667 644.365385 336.134615 644.365385 338.602564 644.365385 341.070513 644.365385 343.538462 644.365385 346.006410 644.365385 348.474359 644.365385 350.942308 644.365385 353.410256 644.365385 355.878205 644.365385 358.346154 644.365385 360.814103 644.365385 363.282051 644.365385 365.750000 644.365385 368.217949 644.365385 370.685897 644.365385 373.153846 644.365385 375.621795 644.365385 378.089744 644.365385 380.557692 644.365385 383.025641 644.365385 385.493590 644.365385 387.961538 644.365385 390.429487 644.365385 392.897436 644.365385 395.365385 644.365385 397.833333 644.365385 400.301282 644.365385 402.769231 644.365385 405.237179 644.365385 407.705128 644.365385 410.173077 644.365385 412.641026 644.365385 415.108974 644.365385 417.576923 644.365385 420.044872 644.365385 422.512821 644.365385 424.980769 644.365385 427.448718 644.365385 429.916667 644.365385 432.384615 644.365385 434.852564 644.365385 437.320513 644.365385 439.788462 644.365385 442.256410 644.365385 444.724359 644.365385 447.192308 644.365385 449.660256 644.365385 452.128205 644.365385 454.596154 644.365385 457.064103 644.365385 459.532051 644.365385 462.000000 644.365385 464.467949 644.365385 466.935897 644.365385 469.403846 644.365385 471.871795 644.365385 474.339744 644.365385 476.807692 644.365385 479.275641 644.365385 481.743590 644.365385 484.211538 644.365385 486.679487 644.365385 489.147436 644.365385 491.615385 644.365385 494.083333 644.365385 496.551282 644.365385 499.019231 644.365385 501.487179 644.365385 503.955128 644.365385 506.423077 644.365385 508.891026 644.365385 511.358974 644.365385 513.826923 644.365385 516.294872 644.365385 518.762821 644.365385 521.230769 644.365385 523.698718 644.365385 526.166667 644.365385 528.634615 644.365385 531.102564 644.365385 533.570513 644.365385 536.038462 644.365385 538.506410 644.365385 540.974359 644.365385 543.442308 644.365385 545.910256 644.365385 548.378205 644.365385 550.846154 644.365385 553.314103 644.365385 555.782051 644.365385 558.250000 644.365385 560.717949 644.365385 563.185897 644.365385 565.653846 644.365385 568.121795 644.365385 570.589744 644.365385 573.057692 644.365385 575.525641 644.365385 577.993590 644.365385 580.461538 644.365385 582.929487 644.365385 585.397436 644.365385 587.865385 644.365385 590.333333 644.365385 592.801282 644.365385 595.269231 644.365385 597.737179 644.365385 600.205128 644.365385 602.673077 644.365385 605.141026 644.365385 607.608974 644.365385 610.076923 644.365385 612.544872 644.365385 615.012821 644.365385 617.480769 644.365385 619.948718 644.365385 622.416667 644.365385 624.884615 644.365385 627.352564 644.365385 629.820513 644.365385 632.288462 644.365385 634.756410 644.365385 637.224359 644.365385 639.692308 644.365385 642.160256 644.365385 644.628205 644.365385 647.096154 644.365385 649.564103 644.365385 652.032051 644.365385 654.500000 644.365385 656.967949 644.365385 659.435897 644.365385 661.903846 644.365385 664.371795 644.365385 666.839744 644.365385 669.307692 644.365385 671.775641 644.365385 674.243590 644.365385 676.711538 644.365385 679.179487 644.365385 681.647436 644.365385 684.115385 644.365385 686.583333 644.365385 689.051282 644.365385 691.519231 644.365385 693.987179 644.365385 696.455128 644.365385 698.923077 644.365385 701.391026 644.365385 703.858974 644.365385 706.326923 644.365385 708.794872 644.365385 711.262821 644.365385 713.730769 644.365385 716.198718 644.365385 718.666667 644.365385 721.134615 644.365385 723.602564 644.365385 726.070513 644.365385 728.538462 644.365385 731.006410 644.365385 733.474359 644.365385 735.942308 644.365385 738.410256 644.365385 740.878205 644.365385 743.346154 644.365385 745.814103 644.365385 748.282051 644.365385 750.750000 644.365385 753.217949 644.365385 755.685897 644.365385 758.153846 644.365385 760.621795 644.365385 763.089744 644.365385 765.557692 644.365385 768.025641 644.365385 770.493590 644.365385 772.961538 644.365385 775.429487 644.365385 777.897436 644.365385 780.365385 644.365385 782.833333 644.365385 785.301282 644.365385 787.769231 644.365385 790.237179 644.365385 792.705128 644.365385 795.173077 644.365385 797.641026 644.365385 800.108974 644.365385 802.576923 644.365385 805.044872 644.365385 807.512821 644.365385 809.980769 644.365385 812.448718 644.365385 814.916667 644.365385 817.384615 644.365385 819.852564 644.365385 822.320513 644.365385 824.788462 644.365385 827.256410 644.365385 829.724359 644.365385 832.192308 644.365385 834.660256 644.365385 837.128205 644.365385 839.596154 644.365385 842.064103 644.365385 844.532051 644.365385 847.000000 644.365385 849.467949 644.365385 851.935897 644.365385 854.403846 644.365385 856.871795 644.365385 859.339744 644.365385 861.807692 644.365385 864.275641 644.365385 866.743590 644.365385 869.211538 644.365385 871.679487 644.365385 874.147436 644.365385 876.615385 644.365385 879.083333 644.365385 881.551282 644.365385 884.019231 644.365385 886.487179 644.365385 888.955128 644.365385 891.423077 644.365385 893.891026 644.365385 896.358974 644.365385 898.826923 644.365385 901.294872 644.365385 903.762821 644.365385 906.230769 644.365385" /></g><g class="series serie-1 color-1"><path class="line reactive nofill" d="M17.769231 643.733654 L20.237179 644.365385 22.705128 644.365385 25.173077 644.365385 27.641026 644.365385 30.108974 644.365385 32.576923 644.365385 35.044872 644.365385 37.512821 644.365385 39.980769 644.365385 42.448718 644.365385 44.916667 644.365385 47.384615 644.365385 49.852564 644.365385 52.320513 644.365385 54.788462 644.365385 57.256410 644.365385 59.724359 644.365385 62.192308 644.365385 64.660256 644.365385 67.128205 644.365385 69.596154 644.365385 72.064103 644.365385 74.532051 644.365385 77.000000 644.365385 79.467949 644.365385 81.935897 644.365385 84.403846 644.365385 86.871795 644.365385 89.339744 644.365385 91.807692 644.365385 94.275641 644.365385 96.743590 644.365385 99.211538 643.733654 101.679487 644.365385 104.147436 644.365385 106.615385 644.365385 109.083333 644.365385 111.551282 644.365385 114.019231 644.365385 116.487179 644.365385 118.955128 644.365385 121.423077 644.365385 123.891026 644.365385 126.358974 644.365385 128.826923 644.365385 131.294872 644.365385 133.762821 644.365385 136.230769 644.365385 138.698718 644.365385 141.166667 644.365385 143.634615 643.733654 146.102564 644.365385 148.570513 644.365385 151.038462 644.365385 153.506410 644.365385 155.974359 644.365385 158.442308 644.365385 160.910256 644.365385 163.378205 644.365385 165.846154 644.365385 168.314103 644.365385 170.782051 644.365385 173.250000 643.733654 175.717949 644.365385 178.185897 644.365385 180.653846 644.365385 183.121795 644.365385 185.589744 644.365385 188.057692 644.365385 190.525641 644.365385 192.993590 644.365385 195.461538 644.365385 197.929487 644.365385 200.397436 644.365385 202.865385 644.365385 205.333333 644.365385 207.801282 644.365385 210.269231 644.365385 212.737179 644.365385 215.205128 644.365385 217.673077 644.365385 220.141026 644.365385 222.608974 644.365385 225.076923 644.365385 227.544872 644.365385 230.012821 644.365385 232.480769 644.365385 234.948718 644.365385 237.416667 644.365385 239.884615 644.365385 242.352564 644.365385 244.820513 644.365385 247.288462 644.365385 249.756410 644.365385 252.224359 644.365385 254.692308 644.365385 257.160256 644.365385 259.628205 644.365385 262.096154 644.365385 264.564103 644.365385 267.032051 644.365385 269.500000 644.365385 271.967949 644.365385 274.435897 644.365385 276.903846 644.365385 279.371795 644.365385 281.839744 644.365385 284.307692 644.365385 286.775641 644.365385 289.243590 644.365385 291.711538 644.365385 294.179487 644.365385 296.647436 644.365385 299.115385 644.365385 301.583333 644.365385 304.051282 644.365385 306.519231 644.365385 308.987179 644.365385 311.455128 644.365385 313.923077 644.365385 316.391026 644.365385 318.858974 644.365385 321.326923 644.365385 323.794872 644.365385 326.262821 644.365385 328.730769 644.365385 331.198718 644.365385 333.666667 644.365385 336.134615 644.365385 338.602564 644.365385 341.070513 644.365385 343.538462 644.365385 346.006410 644.365385 348.474359 644.365385 350.942308 644.365385 353.410256 644.365385 355.878205 644.365385 358.346154 644.365385 360.814103 644.365385 363.282051 644.365385 365.750000 644.365385 368.217949 644.365385 370.685897 644.365385 373.153846 644.365385 375.621795 644.365385 378.089744 644.365385 380.557692 644.365385 383.025641 644.365385 385.493590 644.365385 387.961538 644.365385 390.429487 644.365385 392.897436 644.365385 395.365385 644.365385 397.833333 644.365385 400.301282 644.365385 402.769231 644.365385 405.237179 644.365385 407.705128 644.365385 410.173077 638.048077 412.641026 629.835577 415.108974 641.206731 417.576923 640.575000 420.044872 642.470192 422.512821 643.733654 424.980769 642.470192 427.448718 644.365385 429.916667 644.365385 432.384615 643.733654 434.852564 644.365385 437.320513 644.365385 439.788462 644.365385 442.256410 644.365385 444.724359 644.365385 447.192308 644.365385 449.660256 641.838462 452.128205 641.838462 454.596154 644.365385 457.064103 644.365385 459.532051 641.838462 462.000000 643.733654 464.467949 644.365385 466.935897 643.733654 469.403846 643.733654 471.871795 644.365385 474.339744 644.365385 476.807692 643.733654 479.275641 644.365385 481.743590 643.733654 484.211538 643.733654 486.679487 644.365385 489.147436 644.365385 491.615385 644.365385 494.083333 644.365385 496.551282 643.733654 499.019231 644.365385 501.487179 644.365385 503.955128 644.365385 506.423077 644.365385 508.891026 644.365385 511.358974 644.365385 513.826923 644.365385 516.294872 644.365385 518.762821 644.365385 521.230769 644.365385 523.698718 644.365385 526.166667 644.365385 528.634615 644.365385 531.102564 644.365385 533.570513 644.365385 536.038462 644.365385 538.506410 644.365385 540.974359 644.365385 543.442308 644.365385 545.910256 644.365385 548.378205 644.365385 550.846154 644.365385 553.314103 644.365385 555.782051 644.365385 558.250000 644.365385 560.717949 644.365385 563.185897 644.365385 565.653846 644.365385 568.121795 644.365385 570.589744 644.365385 573.057692 644.365385 575.525641 644.365385 577.993590 644.365385 580.461538 644.365385 582.929487 644.365385 585.397436 644.365385 587.865385 644.365385 590.333333 644.365385 592.801282 644.365385 595.269231 644.365385 597.737179 644.365385 600.205128 644.365385 602.673077 644.365385 605.141026 365.772115 607.608974 151.615385 610.076923 377.143269 612.544872 449.160577 615.012821 517.387500 617.480769 560.976923 619.948718 558.450000 622.416667 571.084615 624.884615 571.084615 627.352564 548.974038 629.820513 547.078846 632.288462 534.444231 634.756410 513.597115 637.224359 492.750000 639.692308 512.965385 642.160256 538.866346 644.628205 549.605769 647.096154 556.554808 649.564103 548.342308 652.032051 547.710577 654.500000 563.503846 656.967949 563.503846 659.435897 575.506731 661.903846 588.141346 664.371795 592.563462 666.839744 596.985577 669.307692 595.722115 671.775641 610.251923 674.243590 622.254808 676.711538 630.467308 679.179487 631.099038 681.647436 634.257692 684.115385 618.464423 686.583333 625.413462 689.051282 627.940385 691.519231 615.305769 693.987179 612.147115 696.455128 614.674038 698.923077 605.198077 701.391026 608.988462 703.858974 602.039423 706.326923 611.515385 708.794872 604.566346 711.262821 611.515385 713.730769 606.461538 716.198718 611.515385 718.666667 612.147115 721.134615 616.569231 723.602564 621.623077 726.070513 618.464423 728.538462 623.518269 731.006410 632.994231 733.474359 634.257692 735.942308 631.099038 738.410256 633.625962 740.878205 633.625962 743.346154 639.311538 745.814103 629.203846 748.282051 634.889423 750.750000 629.203846 753.217949 631.099038 755.685897 624.781731 758.153846 628.572115 760.621795 620.359615 763.089744 620.991346 765.557692 620.991346 768.025641 622.886538 770.493590 619.096154 772.961538 624.150000 775.429487 621.623077 777.897436 623.518269 780.365385 627.308654 782.833333 620.359615 785.301282 620.991346 787.769231 625.413462 790.237179 625.413462 792.705128 628.572115 795.173077 639.943269 797.641026 632.994231 800.108974 631.099038 802.576923 634.889423 805.044872 638.679808 807.512821 632.994231 809.980769 630.467308 812.448718 627.940385 814.916667 622.254808 817.384615 621.623077 819.852564 626.045192 822.320513 620.991346 824.788462 619.096154 827.256410 620.991346 829.724359 622.886538 832.192308 619.727885 834.660256 627.940385 837.128205 621.623077 839.596154 627.308654 842.064103 625.413462 844.532051 630.467308 847.000000 626.676923 849.467949 631.730769 851.935897 631.730769 854.403846 638.679808 856.871795 636.152885 859.339744 639.311538 861.807692 640.575000 864.275641 638.679808 866.743590 637.416346 869.211538 640.575000 871.679487 638.048077 874.147436 637.416346 876.615385 636.784615 879.083333 635.521154 881.551282 633.625962 884.019231 634.257692 886.487179 631.099038 888.955128 631.730769 891.423077 634.257692 893.891026 632.994231 896.358974 633.625962 898.826923 636.784615 901.294872 636.784615 903.762821 631.730769 906.230769 631.730769" /></g></g><g class="titles"><text class="title plot_title" x="512.0" y="26">Election stackoverflow.com-4 Participation Per Hour</text><text class="title" transform="rotate(-90 0.000000 374.500000)" x="0" y="400.5">Users</text></g><g class="plot overlay" transform="translate(80, 46)"><g class="series serie-0 color-0" /><g class="series serie-1 color-1" /></g><g class="plot text-overlay" transform="translate(80, 46)"><g class="series serie-0 color-0" /><g class="series serie-1 color-1" /></g><g class="plot tooltip-overlay" transform="translate(80, 46)"><g class="tooltip" style="opacity: 0" transform="translate(0 0)"><a><rect class="tooltip-box" height="0" rx="0" ry="0" width="0" /><text class="text"><tspan class="label" /><tspan class="value" /></text></a></g></g><g class="legends" transform="translate(90, 713)"><g class="legend reactive activate-serie" id="activate-serie-0"><rect class="color-0 reactive" height="12" width="12" x="0.0" y="1.0" /><text x="17.0" y="11.2">constituents</text></g><g class="legend reactive activate-serie" id="activate-serie-1"><rect class="color-1 reactive" height="12" width="12" x="462.0" y="1.0" /><text x="479.0" y="11.2">caucus</text></g></g></g></svg>