<?xml version='1.0' encoding='utf-8'?>
<svg xmlns:xlink="http://www.w3.org/1999/xlink" class="pygal-chart" id="chart-6178bf52-1dd9-4db1-9b0d-c9ea5b51ff16" viewBox="0 0 1024 768" xmlns="http://www.w3.org/2000/svg"><!--Generated with pygal 1.7.0 (etree) ©Kozea 2011-2014 on 2015-04-20--><!--http://pygal.org--><!--http://github.com/Kozea/pygal--><defs><style type="text/css">#chart-6178bf52-1dd9-4db1-9b0d-c9ea5b51ff16 .title{font-family:"monospace";font-size:16px}#chart-6178bf52-1dd9-4db1-9b0d-c9ea5b51ff16 .legends .legend text{font-family:"monospace";font-size:14px}#chart-6178bf52-1dd9-4db1-9b0d-c9ea5b51ff16 .axis text{font-family:"monospace";font-size:10px}#chart-6178bf52-1dd9-4db1-9b0d-c9ea5b51ff16 .axis text.major{font-family:"monospace";font-size:10px}#chart-6178bf52-1dd9-4db1-9b0d-c9ea5b51ff16 .series text{font-family:"monospace";font-size:8px}#chart-6178bf52-1dd9-4db1-9b0d-c9ea5b51ff16 .tooltip text{font-family:"monospace";font-size:16px}#chart-6178bf52-1dd9-4db1-9b0d-c9ea5b51ff16 text.no_data{font-size:64px}
#chart-6178bf52-1dd9-4db1-9b0d-c9ea5b51ff16{background-color:black}#chart-6178bf52-1dd9-4db1-9b0d-c9ea5b51ff16 path,#chart-6178bf52-1dd9-4db1-9b0d-c9ea5b51ff16 line,#chart-6178bf52-1dd9-4db1-9b0d-c9ea5b51ff16 rect,#chart-6178bf52-1dd9-4db1-9b0d-c9ea5b51ff16 circle{-webkit-transition:250ms;-moz-transition:250ms;transition:250ms}#chart-6178bf52-1dd9-4db1-9b0d-c9ea5b51ff16 .graph &gt; .background{fill:black}#chart-6178bf52-1dd9-4db1-9b0d-c9ea5b51ff16 .plot &gt; .background{fill:#111}#chart-6178bf52-1dd9-4db1-9b0d-c9ea5b51ff16 .graph{fill:#999}#chart-6178bf52-1dd9-4db1-9b0d-c9ea5b51ff16 text.no_data{fill:#eee}#chart-6178bf52-1dd9-4db1-9b0d-c9ea5b51ff16 .title{fill:#eee}#chart-6178bf52-1dd9-4db1-9b0d-c9ea5b51ff16 .legends .legend text{fill:#999}#chart-6178bf52-1dd9-4db1-9b0d-c9ea5b51ff16 .legends .legend:hover text{fill:#eee}#chart-6178bf52-1dd9-4db1-9b0d-c9ea5b51ff16 .axis .line{stroke:#eee}#chart-6178bf52-1dd9-4db1-9b0d-c9ea5b51ff16 .axis .guide.line{stroke:#555}#chart-6178bf52-1dd9-4db1-9b0d-c9ea5b51ff16 .axis .major.line{stroke:#999}#chart-6178bf52-1dd9-4db1-9b0d-c9ea5b51ff16 .axis text.major{stroke:#eee;fill:#eee}#chart-6178bf52-1dd9-4db1-9b0d-c9ea5b51ff16 .axis.y .guides:hover .guide.line,#chart-6178bf52-1dd9-4db1-9b0d-c9ea5b51ff16 .line-graph .axis.x .guides:hover .guide.line,#chart-6178bf52-1dd9-4db1-9b0d-c9ea5b51ff16 .stackedline-graph .axis.x .guides:hover .guide.line,#chart-6178bf52-1dd9-4db1-9b0d-c9ea5b51ff16 .xy-graph .axis.x .guides:hover .guide.line{stroke:#eee}#chart-6178bf52-1dd9-4db1-9b0d-c9ea5b51ff16 .axis .guides:hover text{fill:#eee}#chart-6178bf52-1dd9-4db1-9b0d-c9ea5b51ff16 .reactive{fill-opacity:.8}#chart-6178bf52-1dd9-4db1-9b0d-c9ea5b51ff16 .reactive.active,#chart-6178bf52-1dd9-4db1-9b0d-c9ea5b51ff16 .active .reactive{fill-opacity:.4}#chart-6178bf52-1dd9-4db1-9b0d-c9ea5b51ff16 .series{stroke-width:1.0;stroke-linejoin:round;stroke-linecap:round;stroke-dasharray:0,0}#chart-6178bf52-1dd9-4db1-9b0d-c9ea5b51ff16 .series text{fill:#eee}#chart-6178bf52-1dd9-4db1-9b0d-c9ea5b51ff16 .tooltip rect{fill:#111;stroke:#eee}#chart-6178bf52-1dd9-4db1-9b0d-c9ea5b51ff16 .tooltip text{fill:#eee}#chart-6178bf52-1dd9-4db1-9b0d-c9ea5b51ff16 .map-element{fill:#999;stroke:#555 !important;opacity:.9;stroke-width:3;-webkit-transition:250ms;-moz-transition:250ms;-o-transition:250ms;transition:250ms}#chart-6178bf52-1dd9-4db1-9b0d-c9ea5b51ff16 .map-element:hover{opacity:1;stroke-width:10}#chart-6178bf52-1dd9-4db1-9b0d-c9ea5b51ff16 .color-0,#chart-6178bf52-1dd9-4db1-9b0d-c9ea5b51ff16 .color-0 a:visited{stroke:#ff5995;fill:#ff5995}#chart-6178bf52-1dd9-4db1-9b0d-c9ea5b51ff16 .color-1,#chart-6178bf52-1dd9-4db1-9b0d-c9ea5b51ff16 .color-1 a:visited{stroke:#b6e354;fill:#b6e354}#chart-6178bf52-1dd9-4db1-9b0d-c9ea5b51ff16 .color-2,#chart-6178bf52-1dd9-4db1-9b0d-c9ea5b51ff16 .color-2 a:visited{stroke:#feed6c;fill:#feed6c}#chart-6178bf52-1dd9-4db1-9b0d-c9ea5b51ff16 .color-3,#chart-6178bf52-1dd9-4db1-9b0d-c9ea5b51ff16 .color-3 a:visited{stroke:#8cedff;fill:#8cedff}#chart-6178bf52-1dd9-4db1-9b0d-c9ea5b51ff16 .color-4,#chart-6178bf52-1dd9-4db1-9b0d-c9ea5b51ff16 .color-4 a:visited{stroke:#9e6ffe;fill:#9e6ffe}#chart-6178bf52-1dd9-4db1-9b0d-c9ea5b51ff16 .color-5,#chart-6178bf52-1dd9-4db1-9b0d-c9ea5b51ff16 .color-5 a:visited{stroke:#899ca1;fill:#899ca1}#chart-6178bf52-1dd9-4db1-9b0d-c9ea5b51ff16 .color-6,#chart-6178bf52-1dd9-4db1-9b0d-c9ea5b51ff16 .color-6 a:visited{stroke:#f8f8f2;fill:#f8f8f2}#chart-6178bf52-1dd9-4db1-9b0d-c9ea5b51ff16 .color-7,#chart-6178bf52-1dd9-4db1-9b0d-c9ea5b51ff16 .color-7 a:visited{stroke:#bf4646;fill:#bf4646}#chart-6178bf52-1dd9-4db1-9b0d-c9ea5b51ff16 .color-8,#chart-6178bf52-1dd9-4db1-9b0d-c9ea5b51ff16 .color-8 a:visited{stroke:#516083;fill:#516083}#chart-6178bf52-1dd9-4db1-9b0d-c9ea5b51ff16 .color-9,#chart-6178bf52-1dd9-4db1-9b0d-c9ea5b51ff16 .color-9 a:visited{stroke:#f92672;fill:#f92672}#chart-6178bf52-1dd9-4db1-9b0d-c9ea5b51ff16 .color-10,#chart-6178bf52-1dd9-4db1-9b0d-c9ea5b51ff16 .color-10 a:visited{stroke:#82b414;fill:#82b414}#chart-6178bf52-1dd9-4db1-9b0d-c9ea5b51ff16 .color-11,#chart-6178bf52-1dd9-4db1-9b0d-c9ea5b51ff16 .color-11 a:visited{stroke:#fd971f;fill:#fd971f}#chart-6178bf52-1dd9-4db1-9b0d-c9ea5b51ff16 .color-12,#chart-6178bf52-1dd9-4db1-9b0d-c9ea5b51ff16 .color-12 a:visited{stroke:#56c2d6;fill:#56c2d6}#chart-6178bf52-1dd9-4db1-9b0d-c9ea5b51ff16 .color-13,#chart-6178bf52-1dd9-4db1-9b0d-c9ea5b51ff16 .color-13 a:visited{stroke:#808384;fill:#808384}#chart-6178bf52-1dd9-4db1-9b0d-c9ea5b51ff16 .color-14,#chart-6178bf52-1dd9-4db1-9b0d-c9ea5b51ff16 .color-14 a:visited{stroke:#8c54fe;fill:#8c54fe}#chart-6178bf52-1dd9-4db1-9b0d-c9ea5b51ff16 .color-15,#chart-6178bf52-1dd9-4db1-9b0d-c9ea5b51ff16 .color-15 a:visited{stroke:#465457;fill:#465457}
#chart-6178bf52-1dd9-4db1-9b0d-c9ea5b51ff16 text.no_data{text-anchor:middle}#chart-6178bf52-1dd9-4db1-9b0d-c9ea5b51ff16 .guide.line{fill-opacity:0}#chart-6178bf52-1dd9-4db1-9b0d-c9ea5b51ff16 .centered{text-anchor:middle}#chart-6178bf52-1dd9-4db1-9b0d-c9ea5b51ff16 .title{text-anchor:middle}#chart-6178bf52-1dd9-4db1-9b0d-c9ea5b51ff16 .legends .legend text{fill-opacity:1}#chart-6178bf52-1dd9-4db1-9b0d-c9ea5b51ff16 .axis.x text{text-anchor:middle}#chart-6178bf52-1dd9-4db1-9b0d-c9ea5b51ff16 .axis.x:not(.web) text[transform]{text-anchor:start}#chart-6178bf52-1dd9-4db1-9b0d-c9ea5b51ff16 .axis.y text{text-anchor:end}#chart-6178bf52-1dd9-4db1-9b0d-c9ea5b51ff16 .axis.y2 text{text-anchor:start}#chart-6178bf52-1dd9-4db1-9b0d-c9ea5b51ff16 .axis.y .logarithmic text:not(.major),#chart-6178bf52-1dd9-4db1-9b0d-c9ea5b51ff16 .axis.y2 .logarithmic text:not(.major){font-size:50%}#chart-6178bf52-1dd9-4db1-9b0d-c9ea5b51ff16 .axis .guide.line{stroke-dasharray:4,4}#chart-6178bf52-1dd9-4db1-9b0d-c9ea5b51ff16 .axis .major.guide.line{stroke-dasharray:6,6}#chart-6178bf52-1dd9-4db1-9b0d-c9ea5b51ff16 .axis text.major{stroke-width:0.5px}#chart-6178bf52-1dd9-4db1-9b0d-c9ea5b51ff16 .horizontal .axis.y .guide.line,#chart-6178bf52-1dd9-4db1-9b0d-c9ea5b51ff16 .horizontal .axis.y2 .guide.line,#chart-6178bf52-1dd9-4db1-9b0d-c9ea5b51ff16 .vertical .axis.x .guide.line{opacity:0}#chart-6178bf52-1dd9-4db1-9b0d-c9ea5b51ff16 .horizontal .axis.always_show .guide.line,#chart-6178bf52-1dd9-4db1-9b0d-c9ea5b51ff16 .vertical .axis.always_show .guide.line{opacity:1 !important}#chart-6178bf52-1dd9-4db1-9b0d-c9ea5b51ff16 .axis.y .guides:hover .guide.line,#chart-6178bf52-1dd9-4db1-9b0d-c9ea5b51ff16 .axis.y2 .guides:hover .guide.line,#chart-6178bf52-1dd9-4db1-9b0d-c9ea5b51ff16 .axis.x .guides:hover .guide.line{opacity:1}#chart-6178bf52-1dd9-4db1-9b0d-c9ea5b51ff16 .axis .guides:hover text{opacity:1}#chart-6178bf52-1dd9-4db1-9b0d-c9ea5b51ff16 .nofill{fill:none}#chart-6178bf52-1dd9-4db1-9b0d-c9ea5b51ff16 .subtle-fill{fill-opacity:.2}#chart-6178bf52-1dd9-4db1-9b0d-c9ea5b51ff16 .dot{stroke-width:1px;fill-opacity:1}#chart-6178bf52-1dd9-4db1-9b0d-c9ea5b51ff16 .dot.active{stroke-width:5px}#chart-6178bf52-1dd9-4db1-9b0d-c9ea5b51ff16 .series text{stroke:none}#chart-6178bf52-1dd9-4db1-9b0d-c9ea5b51ff16 .series text.active{opacity:1}#chart-6178bf52-1dd9-4db1-9b0d-c9ea5b51ff16 .tooltip rect{fill-opacity:0.8}#chart-6178bf52-1dd9-4db1-9b0d-c9ea5b51ff16 .tooltip text{fill-opacity:1}#chart-6178bf52-1dd9-4db1-9b0d-c9ea5b51ff16 .tooltip text tspan.label{fill-opacity:.8}</style><script type="text/javascript">window.config = {"no_prefix": false, "tooltip_font_size": 16, "no_data_text": "No data", "x_labels_major": null, "label_font_size": 10, "stack_from_top": false, "x_labels_major_every": null, "legend_font_size": 14, "legend_box_size": 12, "interpolation_parameters": {}, "value_font_size": 8, "strict": false, "print_zeroes": false, "no_data_font_size": 64, "range": null, "js": ["http://kozea.github.io/pygal.js/javascripts/svg.jquery.js", "http://kozea.github.io/pygal.js/javascripts/pygal-tooltips.js"], "height": 768, "dots_size": 2.5, "spacing": 10, "major_label_font_size": 10, "pretty_print": false, "half_pie": false, "human_readable": false, "legend_at_bottom": true, "show_x_labels": true, "show_y_labels": true, "margin_bottom": null, "truncate_label": null, "style": {"foreground_light": "#eee", "transition": "250ms", "colors": ["#ff5995", "#b6e354", "#feed6c", "#8cedff", "#9e6ffe", "#899ca1", "#f8f8f2", "#bf4646", "#516083", "#f92672", "#82b414", "#fd971f", "#56c2d6", "#808384", "#8c54fe", "#465457"], "stroke_width": 1.0, "opacity": ".8", "foreground": "#999", "stroke_style": "round", "opacity_hover": ".4", "font_family": "monospace", "foreground_dark": "#555", "stroke_dasharray": "0,0", "plot_background": "#111", "background": "black"}, "x_title": null, "interpolation_precision": 250, "margin_right": null, "y_label_rotation": 0, "logarithmic": false, "y_labels_major_every": null, "truncate_legend": null, "stroke": true, "explicit_size": false, "title_font_size": 16, "y_title": "Users", "show_x_guides": false, "rounded_bars": null, "show_minor_x_labels": true, "x_label_rotation": 0, "y_labels_major": null, "x_labels_major_count": null, "margin_top": null, "include_x_axis": false, "margin": 20, "inner_radius": 0, "show_legend": true, "show_minor_y_labels": true, "tooltip_border_radius": 0, "interpolate": null, "show_y_guides": true, "print_values": false, "css": ["style.css", "graph.css"], "title": "Election 6 Participation", "legend_at_bottom_columns": null, "margin_left": null, "y_labels": null, "x_labels": null, "zero": 0, "width": 1024, "y_labels_major_count": null, "show_dots": false, "disable_xml_declaration": false, "x_label_format": "%Y-%m-%d %H:%M:%S.%f", "order_min": null, "xrange": null, "show_only_major_dots": false, "x_value_formatter": null, "missing_value_fill_truncation": "x", "fill": false, "mode": null}</script><script type="text/javascript" xlink:href="http://kozea.github.io/pygal.js/javascripts/svg.jquery.js" /><script type="text/javascript" xlink:href="http://kozea.github.io/pygal.js/javascripts/pygal-tooltips.js" /></defs><title>Election 6 Participation</title><g class="graph line-graph vertical"><rect class="background" height="768" width="1024" x="0" y="0" /><g class="plot" transform="translate(86, 46)"><rect class="background" height="657.0" width="918.0" x="0" y="0" /><g class="axis y"><g class="guides"><path class="axis major line" d="M0.000000 644.365385 h918.000000" /><text class="major" x="-5" y="647.8653846153846">0</text></g><g class="guides"><path class="guide line" d="M0.000000 562.547692 h918.000000" /><text class="" x="-5" y="566.0476918693388">10000</text></g><g class="guides"><path class="guide line" d="M0.000000 480.729999 h918.000000" /><text class="" x="-5" y="484.22999912329294">20000</text></g><g class="guides"><path class="guide line" d="M0.000000 398.912306 h918.000000" /><text class="" x="-5" y="402.4123063772471">30000</text></g><g class="guides"><path class="guide line" d="M0.000000 317.094614 h918.000000" /><text class="" x="-5" y="320.59461363120124">40000</text></g><g class="guides"><path class="major guide line" d="M0.000000 235.276921 h918.000000" /><text class="major" x="-5" y="238.7769208851554">50000</text></g><g class="guides"><path class="guide line" d="M0.000000 153.459228 h918.000000" /><text class="" x="-5" y="156.9592281391096">60000</text></g><g class="guides"><path class="guide line" d="M0.000000 71.641535 h918.000000" /><text class="" x="-5" y="75.14153539306369">70000</text></g></g><g class="series serie-0 color-0"><path class="line reactive nofill" d="M17.653846 644.365385 L20.105769 644.365385 22.557692 644.365385 25.009615 644.365385 27.461538 644.365385 29.913462 644.365385 32.365385 644.365385 34.817308 644.365385 37.269231 644.365385 39.721154 644.365385 42.173077 644.365385 44.625000 644.365385 47.076923 644.365385 49.528846 644.365385 51.980769 644.365385 54.432692 644.365385 56.884615 644.365385 59.336538 644.365385 61.788462 644.365385 64.240385 644.365385 66.692308 644.365385 69.144231 644.365385 71.596154 644.365385 74.048077 644.365385 76.500000 644.365385 78.951923 644.365385 81.403846 644.365385 83.855769 644.365385 86.307692 644.365385 88.759615 644.365385 91.211538 644.365385 93.663462 644.365385 96.115385 644.365385 98.567308 644.365385 101.019231 644.365385 103.471154 644.365385 105.923077 644.365385 108.375000 644.365385 110.826923 644.365385 113.278846 644.365385 115.730769 644.365385 118.182692 644.365385 120.634615 644.365385 123.086538 644.365385 125.538462 644.365385 127.990385 644.365385 130.442308 644.365385 132.894231 644.365385 135.346154 644.365385 137.798077 644.365385 140.250000 644.365385 142.701923 644.365385 145.153846 644.365385 147.605769 644.365385 150.057692 644.365385 152.509615 644.365385 154.961538 644.365385 157.413462 644.365385 159.865385 644.365385 162.317308 644.365385 164.769231 644.365385 167.221154 644.365385 169.673077 644.365385 172.125000 644.365385 174.576923 644.365385 177.028846 644.365385 179.480769 644.365385 181.932692 644.365385 184.384615 644.365385 186.836538 644.365385 189.288462 644.365385 191.740385 644.365385 194.192308 644.365385 196.644231 644.365385 199.096154 644.365385 201.548077 644.365385 204.000000 644.365385 206.451923 644.365385 208.903846 644.365385 211.355769 644.365385 213.807692 644.365385 216.259615 644.365385 218.711538 644.365385 221.163462 644.365385 223.615385 644.365385 226.067308 644.365385 228.519231 644.365385 230.971154 644.365385 233.423077 644.365385 235.875000 644.365385 238.326923 644.365385 240.778846 644.365385 243.230769 644.365385 245.682692 644.365385 248.134615 644.365385 250.586538 644.365385 253.038462 644.365385 255.490385 644.365385 257.942308 644.365385 260.394231 644.365385 262.846154 644.365385 265.298077 644.365385 267.750000 644.365385 270.201923 644.365385 272.653846 644.365385 275.105769 644.365385 277.557692 644.365385 280.009615 644.365385 282.461538 644.365385 284.913462 644.365385 287.365385 644.365385 289.817308 644.365385 292.269231 644.365385 294.721154 644.365385 297.173077 644.365385 299.625000 644.365385 302.076923 644.365385 304.528846 644.365385 306.980769 644.365385 309.432692 644.365385 311.884615 644.365385 314.336538 644.365385 316.788462 644.365385 319.240385 644.365385 321.692308 644.365385 324.144231 644.365385 326.596154 644.365385 329.048077 644.365385 331.500000 644.365385 333.951923 644.365385 336.403846 644.365385 338.855769 644.365385 341.307692 644.365385 343.759615 644.365385 346.211538 644.365385 348.663462 644.365385 351.115385 644.365385 353.567308 644.365385 356.019231 644.365385 358.471154 644.365385 360.923077 644.365385 363.375000 644.365385 365.826923 644.365385 368.278846 644.365385 370.730769 644.365385 373.182692 644.365385 375.634615 644.365385 378.086538 644.365385 380.538462 644.365385 382.990385 644.365385 385.442308 644.365385 387.894231 644.365385 390.346154 644.365385 392.798077 644.365385 395.250000 644.365385 397.701923 644.365385 400.153846 644.365385 402.605769 644.365385 405.057692 644.365385 407.509615 644.365385 409.961538 644.365385 412.413462 644.365385 414.865385 644.365385 417.317308 644.365385 419.769231 644.365385 422.221154 644.365385 424.673077 644.365385 427.125000 644.365385 429.576923 644.365385 432.028846 644.365385 434.480769 644.365385 436.932692 644.365385 439.384615 644.365385 441.836538 644.365385 444.288462 644.365385 446.740385 644.365385 449.192308 644.365385 451.644231 644.365385 454.096154 644.365385 456.548077 644.365385 459.000000 644.365385 461.451923 644.365385 463.903846 644.365385 466.355769 644.365385 468.807692 644.365385 471.259615 644.365385 473.711538 644.365385 476.163462 644.365385 478.615385 644.365385 481.067308 644.365385 483.519231 644.365385 485.971154 644.365385 488.423077 644.365385 490.875000 644.365385 493.326923 644.365385 495.778846 644.365385 498.230769 644.365385 500.682692 644.365385 503.134615 644.365385 505.586538 644.365385 508.038462 644.365385 510.490385 644.365385 512.942308 644.365385 515.394231 644.365385 517.846154 644.365385 520.298077 644.365385 522.750000 644.365385 525.201923 644.365385 527.653846 644.365385 530.105769 644.365385 532.557692 644.365385 535.009615 644.365385 537.461538 644.365385 539.913462 644.365385 542.365385 644.365385 544.817308 644.365385 547.269231 644.365385 549.721154 644.365385 552.173077 644.365385 554.625000 644.365385 557.076923 644.365385 559.528846 644.365385 561.980769 644.365385 564.432692 644.365385 566.884615 644.365385 569.336538 644.365385 571.788462 644.365385 574.240385 644.365385 576.692308 644.365385 579.144231 644.365385 581.596154 644.365385 584.048077 644.365385 586.500000 644.365385 588.951923 644.365385 591.403846 644.365385 593.855769 644.365385 596.307692 644.365385 598.759615 644.365385 601.211538 644.365385 603.663462 644.365385 606.115385 644.365385 608.567308 644.365385 611.019231 644.365385 613.471154 644.365385 615.923077 644.365385 618.375000 644.365385 620.826923 644.365385 623.278846 644.365385 625.730769 644.365385 628.182692 644.365385 630.634615 644.365385 633.086538 644.365385 635.538462 644.365385 637.990385 644.365385 640.442308 644.365385 642.894231 644.365385 645.346154 644.365385 647.798077 644.365385 650.250000 644.365385 652.701923 644.365385 655.153846 644.365385 657.605769 644.365385 660.057692 644.365385 662.509615 644.365385 664.961538 618.150996 667.413462 606.082886 669.865385 599.390199 672.317308 595.430223 674.769231 592.345696 677.221154 589.621166 679.673077 587.166636 682.125000 584.327562 684.576923 580.555766 687.028846 576.857606 689.480769 573.200355 691.932692 569.003108 694.384615 565.313130 696.836538 561.132246 699.288462 557.344087 701.740385 554.284105 704.192308 551.355032 706.644231 548.483230 709.096154 545.750520 711.548077 543.238716 714.000000 541.086911 716.451923 538.632380 718.903846 536.742392 721.355769 534.516950 723.807692 532.995141 726.259615 531.743331 728.711538 530.769700 731.163462 529.943341 733.615385 529.346072 736.067308 528.691531 738.519231 528.086080 740.971154 527.537901 743.423077 526.948814 745.875000 526.089728 748.326923 524.895190 750.778846 523.798833 753.230769 522.358841 755.682692 521.197030 758.134615 519.814311 760.586538 518.439774 763.038462 517.228872 765.490385 515.985243 767.942308 514.970704 770.394231 513.686166 772.846154 512.434355 775.298077 511.223453 777.750000 510.037097 780.201923 508.924376 782.653846 507.958927 785.105769 506.944388 787.557692 506.199847 790.009615 505.275307 792.461538 504.383494 794.913462 503.368955 797.365385 502.272598 799.817308 501.078059 802.269231 498.721710 804.721154 495.399911 807.173077 490.744485 809.625000 484.681794 812.076923 479.134554 814.528846 473.922767 816.980769 470.535515 819.432692 467.549169 821.884615 463.924645 824.336538 460.185576 826.788462 456.667416 829.240385 453.967432 831.692308 452.077443 834.144231 450.727451 836.596154 449.238369 839.048077 447.831105 841.500000 446.759293 843.951923 445.646572 846.403846 445.073849 848.855769 444.656578 851.307692 444.092036 853.759615 443.699311 856.211538 443.298405 858.663462 442.840226 861.115385 442.218411 863.567308 441.375689 866.019231 441.310235 868.471154 441.310235 870.923077 441.310235 873.375000 441.310235 875.826923 441.310235 878.278846 441.310235 880.730769 441.310235 883.182692 441.310235 885.634615 441.310235 888.086538 441.310235 890.538462 441.310235 892.990385 441.310235 895.442308 441.310235 897.894231 441.310235 900.346154 441.310235" /></g><g class="series serie-1 color-1"><path class="line reactive nofill" d="M17.653846 627.944574 L20.105769 621.800065 22.557692 618.371904 25.009615 616.089190 27.461538 613.937385 29.913462 612.505575 32.365385 611.065584 34.817308 609.388321 37.269231 606.884700 39.721154 603.661082 42.173077 600.290194 44.625000 595.675676 47.076923 591.453883 49.528846 588.582082 51.980769 585.939370 54.432692 583.746656 56.884615 581.472124 59.336538 579.246683 61.788462 577.004878 64.240385 575.049435 66.692308 573.511263 69.144231 572.144907 71.596154 570.934005 74.048077 569.788558 76.500000 568.888563 78.951923 567.784024 81.403846 567.260391 83.855769 566.884030 86.307692 566.425851 88.759615 565.992217 91.211538 565.705855 93.663462 565.435856 96.115385 564.887678 98.567308 564.249500 101.019231 563.554049 103.471154 562.613146 105.923077 561.672243 108.375000 560.747703 110.826923 559.872253 113.278846 559.144076 115.730769 558.309535 118.182692 557.450450 120.634615 556.705909 123.086538 556.059549 125.538462 555.519552 127.990385 554.873192 130.442308 554.292287 132.894231 553.809562 135.346154 553.318656 137.798077 552.925931 140.250000 552.541388 142.701923 552.394116 145.153846 552.222299 147.605769 552.042300 150.057692 551.813211 152.509615 551.633212 154.961538 551.289577 157.413462 550.855944 159.865385 550.487764 162.317308 549.915040 164.769231 549.334134 167.221154 548.843228 169.673077 548.344140 172.125000 547.771417 174.576923 547.288692 177.028846 546.691423 179.480769 546.077790 181.932692 545.496885 184.384615 545.046887 186.836538 544.735980 189.288462 544.375982 191.740385 543.999621 194.192308 543.533260 196.644231 543.238716 199.096154 543.050536 201.548077 542.870537 204.000000 542.747810 206.451923 542.608720 208.903846 542.453267 211.355769 542.338722 213.807692 542.093269 216.259615 541.806907 218.711538 541.438727 221.163462 541.111456 223.615385 540.767822 226.067308 540.326007 228.519231 539.892373 230.971154 539.548738 233.423077 539.131468 235.875000 538.746925 238.326923 538.337837 240.778846 538.018748 243.230769 537.806022 245.682692 537.552387 248.134615 537.323297 250.586538 537.110571 253.038462 536.824209 255.490385 536.652392 257.942308 536.505120 260.394231 536.390575 262.846154 536.251485 265.298077 536.145122 267.750000 536.079668 270.201923 536.014214 272.653846 535.883306 275.105769 535.809670 277.557692 535.670580 280.009615 535.531490 282.461538 535.449672 284.913462 535.351491 287.365385 535.277855 289.817308 535.106038 292.269231 534.950584 294.721154 534.852403 297.173077 534.656040 299.625000 534.492405 302.076923 534.345133 304.528846 534.173316 306.980769 533.960590 309.432692 533.829682 311.884615 533.731500 314.336538 533.657865 316.788462 533.502411 319.240385 533.387866 321.692308 533.297867 324.144231 533.191504 326.596154 533.101504 329.048077 533.036050 331.500000 532.921505 333.951923 532.815142 336.403846 532.708779 338.855769 532.618780 341.307692 532.536962 343.759615 532.348781 346.211538 532.209691 348.663462 532.046056 351.115385 531.906966 353.567308 531.776058 356.019231 531.645149 358.471154 531.506059 360.923077 531.407878 363.375000 531.285151 365.826923 531.146061 368.278846 530.949699 370.730769 530.810609 373.182692 530.655155 375.634615 530.565156 378.086538 530.475156 380.538462 530.385157 382.990385 530.278794 385.442308 530.131522 387.894231 530.057886 390.346154 529.951523 392.798077 529.746979 395.250000 529.542435 397.701923 529.157891 400.153846 528.732439 402.605769 528.241533 405.057692 527.848808 407.509615 527.398811 409.961538 526.997904 412.413462 526.400635 414.865385 525.917911 417.317308 525.656094 419.769231 525.361551 422.221154 525.042462 424.673077 524.698827 427.125000 524.330648 429.576923 483.585437 432.028846 464.227370 434.480769 453.762888 436.932692 446.039297 439.384615 439.412064 441.836538 433.856643 444.288462 427.589408 446.740385 421.461262 449.192308 412.584043 451.644231 399.648666 454.096154 382.622404 456.548077 360.948897 459.000000 342.327190 461.451923 325.922743 463.903846 313.257364 466.355769 302.113794 468.807692 290.716589 471.259615 279.965745 473.711538 269.705806 476.163462 261.442219 478.615385 255.150438 481.067308 249.685017 483.519231 244.628683 485.971154 240.038711 488.423077 236.152370 490.875000 232.732391 493.326923 230.457859 495.778846 229.001504 498.230769 227.798784 500.682692 226.473337 503.134615 225.213345 505.586538 223.634263 508.038462 221.515185 510.490385 218.749747 512.942308 215.043405 515.394231 210.846158 517.846154 206.640728 520.298077 202.222573 522.750000 198.303506 525.201923 194.515346 527.653846 190.735369 530.105769 186.865392 532.557692 182.889052 535.009615 179.739071 537.461538 176.760907 539.913462 174.453648 542.365385 172.072753 544.817308 169.986402 547.269231 167.932778 549.721154 166.533695 552.173077 165.314612 554.625000 164.332800 557.076923 163.620986 559.528846 162.688264 561.980769 161.976450 564.432692 161.068274 566.884615 159.988280 569.336538 158.867378 571.788462 156.838299 574.240385 154.768311 576.692308 152.657415 579.144231 150.292883 581.596154 148.157442 584.048077 146.136545 586.500000 143.739286 588.951923 141.562936 591.403846 139.501130 593.855769 137.979321 596.307692 136.203877 598.759615 134.641159 601.211538 133.479348 603.663462 132.325718 606.115385 131.106634 608.567308 130.108459 611.019231 129.413008 613.471154 128.881193 615.923077 128.398469 618.375000 128.013926 620.826923 127.506656 623.278846 126.983023 625.730769 126.402117 628.182692 125.665758 630.634615 124.823036 633.086538 123.816678 635.538462 122.499413 637.990385 121.157603 640.442308 120.110337 642.894231 119.112161 645.346154 117.680351 647.798077 116.281269 650.250000 114.792187 652.701923 113.704011 655.153846 112.918561 657.605769 111.953113 660.057692 111.020391 662.509615 110.267668 664.961538 101.774992 667.413462 97.225928 669.865385 94.337763 672.317308 92.496865 674.769231 91.326872 677.221154 90.287788 679.673077 89.485974 682.125000 88.536889 684.576923 87.358714 687.028846 86.008722 689.480769 84.650549 691.932692 83.128739 694.384615 81.819656 696.836538 80.117848 699.288462 78.726948 701.740385 77.548773 704.192308 76.026964 706.644231 74.783335 709.096154 73.506979 711.548077 72.246986 714.000000 71.248810 716.451923 70.119726 718.903846 69.170641 721.355769 67.959739 723.807692 67.076108 726.259615 66.266113 728.711538 65.758843 731.163462 65.153392 733.615385 64.785213 736.067308 64.408851 738.519231 64.114308 740.971154 63.787037 743.423077 63.451584 745.875000 63.058859 748.326923 62.502499 750.778846 61.913412 753.230769 61.021599 755.682692 60.178877 758.134615 59.327973 760.586538 58.730703 763.038462 57.912527 765.490385 57.233440 767.942308 56.595262 770.394231 55.768903 772.846154 55.032544 775.298077 54.238912 777.750000 53.690734 780.201923 53.077101 782.653846 52.373469 785.105769 51.776200 787.557692 51.358929 790.009615 50.900750 792.461538 50.450753 794.913462 49.828939 797.365385 49.264396 799.817308 48.585310 802.269231 47.628043 804.721154 46.204415 807.173077 44.167154 809.625000 41.688078 812.076923 38.824459 814.528846 35.764477 816.980769 33.743580 819.432692 31.771774 821.884615 29.472697 824.336538 27.157256 826.788462 24.948178 829.240385 23.017281 831.692308 21.708198 834.144231 20.480932 836.596154 19.270030 839.048077 17.993674 841.500000 17.003680 843.951923 16.193685 846.403846 15.506416 848.855769 15.080964 851.307692 14.753694 853.759615 14.328242 856.211538 13.960062 858.663462 13.600064 861.115385 13.182794 863.567308 12.675524 866.019231 12.634615 868.471154 12.634615 870.923077 12.634615 873.375000 12.634615 875.826923 12.634615 878.278846 12.634615 880.730769 12.634615 883.182692 12.634615 885.634615 12.634615 888.086538 12.634615 890.538462 12.634615 892.990385 12.634615 895.442308 12.634615 897.894231 12.634615 900.346154 12.634615" /></g></g><g class="titles"><text class="title plot_title" x="512.0" y="26">Election 6 Participation</text><text class="title" transform="rotate(-90 0.000000 374.500000)" x="0" y="400.5">Users</text></g><g class="plot overlay" transform="translate(86, 46)"><g class="series serie-0 color-0" /><g class="series serie-1 color-1" /></g><g class="plot text-overlay" transform="translate(86, 46)"><g class="series serie-0 color-0" /><g class="series serie-1 color-1" /></g><g class="plot tooltip-overlay" transform="translate(86, 46)"><g class="tooltip" style="opacity: 0" transform="translate(0 0)"><a><rect class="tooltip-box" height="0" rx="0" ry="0" width="0" /><text class="text"><tspan class="label" /><tspan class="value" /></text></a></g></g><g class="legends" transform="translate(96, 713)"><g class="legend reactive activate-serie" id="activate-serie-0"><rect class="color-0 reactive" height="12" width="12" x="0.0" y="1.0" /><text x="17.0" y="11.2">constituents</text></g><g class="legend reactive activate-serie" id="activate-serie-1"><rect class="color-1 reactive" height="12" width="12" x="459.0" y="1.0" /><text x="476.0" y="11.2">caucus</text></g></g></g></svg>