<?xml version='1.0' encoding='utf-8'?>
<svg xmlns:xlink="http://www.w3.org/1999/xlink" class="pygal-chart" id="chart-c31b7313-79e4-430f-8025-07566e78c2f6" viewBox="0 0 1024 768" xmlns="http://www.w3.org/2000/svg"><!--Generated with pygal 1.7.0 (etree) ©Kozea 2011-2014 on 2015-04-20--><!--http://pygal.org--><!--http://github.com/Kozea/pygal--><defs><style type="text/css">#chart-c31b7313-79e4-430f-8025-07566e78c2f6 .title{font-family:"monospace";font-size:16px}#chart-c31b7313-79e4-430f-8025-07566e78c2f6 .legends .legend text{font-family:"monospace";font-size:14px}#chart-c31b7313-79e4-430f-8025-07566e78c2f6 .axis text{font-family:"monospace";font-size:10px}#chart-c31b7313-79e4-430f-8025-07566e78c2f6 .axis text.major{font-family:"monospace";font-size:10px}#chart-c31b7313-79e4-430f-8025-07566e78c2f6 .series text{font-family:"monospace";font-size:8px}#chart-c31b7313-79e4-430f-8025-07566e78c2f6 .tooltip text{font-family:"monospace";font-size:16px}#chart-c31b7313-79e4-430f-8025-07566e78c2f6 text.no_data{font-size:64px}
#chart-c31b7313-79e4-430f-8025-07566e78c2f6{background-color:black}#chart-c31b7313-79e4-430f-8025-07566e78c2f6 path,#chart-c31b7313-79e4-430f-8025-07566e78c2f6 line,#chart-c31b7313-79e4-430f-8025-07566e78c2f6 rect,#chart-c31b7313-79e4-430f-8025-07566e78c2f6 circle{-webkit-transition:250ms;-moz-transition:250ms;transition:250ms}#chart-c31b7313-79e4-430f-8025-07566e78c2f6 .graph &gt; .background{fill:black}#chart-c31b7313-79e4-430f-8025-07566e78c2f6 .plot &gt; .background{fill:#111}#chart-c31b7313-79e4-430f-8025-07566e78c2f6 .graph{fill:#999}#chart-c31b7313-79e4-430f-8025-07566e78c2f6 text.no_data{fill:#eee}#chart-c31b7313-79e4-430f-8025-07566e78c2f6 .title{fill:#eee}#chart-c31b7313-79e4-430f-8025-07566e78c2f6 .legends .legend text{fill:#999}#chart-c31b7313-79e4-430f-8025-07566e78c2f6 .legends .legend:hover text{fill:#eee}#chart-c31b7313-79e4-430f-8025-07566e78c2f6 .axis .line{stroke:#eee}#chart-c31b7313-79e4-430f-8025-07566e78c2f6 .axis .guide.line{stroke:#555}#chart-c31b7313-79e4-430f-8025-07566e78c2f6 .axis .major.line{stroke:#999}#chart-c31b7313-79e4-430f-8025-07566e78c2f6 .axis text.major{stroke:#eee;fill:#eee}#chart-c31b7313-79e4-430f-8025-07566e78c2f6 .axis.y .guides:hover .guide.line,#chart-c31b7313-79e4-430f-8025-07566e78c2f6 .line-graph .axis.x .guides:hover .guide.line,#chart-c31b7313-79e4-430f-8025-07566e78c2f6 .stackedline-graph .axis.x .guides:hover .guide.line,#chart-c31b7313-79e4-430f-8025-07566e78c2f6 .xy-graph .axis.x .guides:hover .guide.line{stroke:#eee}#chart-c31b7313-79e4-430f-8025-07566e78c2f6 .axis .guides:hover text{fill:#eee}#chart-c31b7313-79e4-430f-8025-07566e78c2f6 .reactive{fill-opacity:.8}#chart-c31b7313-79e4-430f-8025-07566e78c2f6 .reactive.active,#chart-c31b7313-79e4-430f-8025-07566e78c2f6 .active .reactive{fill-opacity:.4}#chart-c31b7313-79e4-430f-8025-07566e78c2f6 .series{stroke-width:1.0;stroke-linejoin:round;stroke-linecap:round;stroke-dasharray:0,0}#chart-c31b7313-79e4-430f-8025-07566e78c2f6 .series text{fill:#eee}#chart-c31b7313-79e4-430f-8025-07566e78c2f6 .tooltip rect{fill:#111;stroke:#eee}#chart-c31b7313-79e4-430f-8025-07566e78c2f6 .tooltip text{fill:#eee}#chart-c31b7313-79e4-430f-8025-07566e78c2f6 .map-element{fill:#999;stroke:#555 !important;opacity:.9;stroke-width:3;-webkit-transition:250ms;-moz-transition:250ms;-o-transition:250ms;transition:250ms}#chart-c31b7313-79e4-430f-8025-07566e78c2f6 .map-element:hover{opacity:1;stroke-width:10}#chart-c31b7313-79e4-430f-8025-07566e78c2f6 .color-0,#chart-c31b7313-79e4-430f-8025-07566e78c2f6 .color-0 a:visited{stroke:#ff5995;fill:#ff5995}#chart-c31b7313-79e4-430f-8025-07566e78c2f6 .color-1,#chart-c31b7313-79e4-430f-8025-07566e78c2f6 .color-1 a:visited{stroke:#b6e354;fill:#b6e354}#chart-c31b7313-79e4-430f-8025-07566e78c2f6 .color-2,#chart-c31b7313-79e4-430f-8025-07566e78c2f6 .color-2 a:visited{stroke:#feed6c;fill:#feed6c}#chart-c31b7313-79e4-430f-8025-07566e78c2f6 .color-3,#chart-c31b7313-79e4-430f-8025-07566e78c2f6 .color-3 a:visited{stroke:#8cedff;fill:#8cedff}#chart-c31b7313-79e4-430f-8025-07566e78c2f6 .color-4,#chart-c31b7313-79e4-430f-8025-07566e78c2f6 .color-4 a:visited{stroke:#9e6ffe;fill:#9e6ffe}#chart-c31b7313-79e4-430f-8025-07566e78c2f6 .color-5,#chart-c31b7313-79e4-430f-8025-07566e78c2f6 .color-5 a:visited{stroke:#899ca1;fill:#899ca1}#chart-c31b7313-79e4-430f-8025-07566e78c2f6 .color-6,#chart-c31b7313-79e4-430f-8025-07566e78c2f6 .color-6 a:visited{stroke:#f8f8f2;fill:#f8f8f2}#chart-c31b7313-79e4-430f-8025-07566e78c2f6 .color-7,#chart-c31b7313-79e4-430f-8025-07566e78c2f6 .color-7 a:visited{stroke:#bf4646;fill:#bf4646}#chart-c31b7313-79e4-430f-8025-07566e78c2f6 .color-8,#chart-c31b7313-79e4-430f-8025-07566e78c2f6 .color-8 a:visited{stroke:#516083;fill:#516083}#chart-c31b7313-79e4-430f-8025-07566e78c2f6 .color-9,#chart-c31b7313-79e4-430f-8025-07566e78c2f6 .color-9 a:visited{stroke:#f92672;fill:#f92672}#chart-c31b7313-79e4-430f-8025-07566e78c2f6 .color-10,#chart-c31b7313-79e4-430f-8025-07566e78c2f6 .color-10 a:visited{stroke:#82b414;fill:#82b414}#chart-c31b7313-79e4-430f-8025-07566e78c2f6 .color-11,#chart-c31b7313-79e4-430f-8025-07566e78c2f6 .color-11 a:visited{stroke:#fd971f;fill:#fd971f}#chart-c31b7313-79e4-430f-8025-07566e78c2f6 .color-12,#chart-c31b7313-79e4-430f-8025-07566e78c2f6 .color-12 a:visited{stroke:#56c2d6;fill:#56c2d6}#chart-c31b7313-79e4-430f-8025-07566e78c2f6 .color-13,#chart-c31b7313-79e4-430f-8025-07566e78c2f6 .color-13 a:visited{stroke:#808384;fill:#808384}#chart-c31b7313-79e4-430f-8025-07566e78c2f6 .color-14,#chart-c31b7313-79e4-430f-8025-07566e78c2f6 .color-14 a:visited{stroke:#8c54fe;fill:#8c54fe}#chart-c31b7313-79e4-430f-8025-07566e78c2f6 .color-15,#chart-c31b7313-79e4-430f-8025-07566e78c2f6 .color-15 a:visited{stroke:#465457;fill:#465457}
#chart-c31b7313-79e4-430f-8025-07566e78c2f6 text.no_data{text-anchor:middle}#chart-c31b7313-79e4-430f-8025-07566e78c2f6 .guide.line{fill-opacity:0}#chart-c31b7313-79e4-430f-8025-07566e78c2f6 .centered{text-anchor:middle}#chart-c31b7313-79e4-430f-8025-07566e78c2f6 .title{text-anchor:middle}#chart-c31b7313-79e4-430f-8025-07566e78c2f6 .legends .legend text{fill-opacity:1}#chart-c31b7313-79e4-430f-8025-07566e78c2f6 .axis.x text{text-anchor:middle}#chart-c31b7313-79e4-430f-8025-07566e78c2f6 .axis.x:not(.web) text[transform]{text-anchor:start}#chart-c31b7313-79e4-430f-8025-07566e78c2f6 .axis.y text{text-anchor:end}#chart-c31b7313-79e4-430f-8025-07566e78c2f6 .axis.y2 text{text-anchor:start}#chart-c31b7313-79e4-430f-8025-07566e78c2f6 .axis.y .logarithmic text:not(.major),#chart-c31b7313-79e4-430f-8025-07566e78c2f6 .axis.y2 .logarithmic text:not(.major){font-size:50%}#chart-c31b7313-79e4-430f-8025-07566e78c2f6 .axis .guide.line{stroke-dasharray:4,4}#chart-c31b7313-79e4-430f-8025-07566e78c2f6 .axis .major.guide.line{stroke-dasharray:6,6}#chart-c31b7313-79e4-430f-8025-07566e78c2f6 .axis text.major{stroke-width:0.5px}#chart-c31b7313-79e4-430f-8025-07566e78c2f6 .horizontal .axis.y .guide.line,#chart-c31b7313-79e4-430f-8025-07566e78c2f6 .horizontal .axis.y2 .guide.line,#chart-c31b7313-79e4-430f-8025-07566e78c2f6 .vertical .axis.x .guide.line{opacity:0}#chart-c31b7313-79e4-430f-8025-07566e78c2f6 .horizontal .axis.always_show .guide.line,#chart-c31b7313-79e4-430f-8025-07566e78c2f6 .vertical .axis.always_show .guide.line{opacity:1 !important}#chart-c31b7313-79e4-430f-8025-07566e78c2f6 .axis.y .guides:hover .guide.line,#chart-c31b7313-79e4-430f-8025-07566e78c2f6 .axis.y2 .guides:hover .guide.line,#chart-c31b7313-79e4-430f-8025-07566e78c2f6 .axis.x .guides:hover .guide.line{opacity:1}#chart-c31b7313-79e4-430f-8025-07566e78c2f6 .axis .guides:hover text{opacity:1}#chart-c31b7313-79e4-430f-8025-07566e78c2f6 .nofill{fill:none}#chart-c31b7313-79e4-430f-8025-07566e78c2f6 .subtle-fill{fill-opacity:.2}#chart-c31b7313-79e4-430f-8025-07566e78c2f6 .dot{stroke-width:1px;fill-opacity:1}#chart-c31b7313-79e4-430f-8025-07566e78c2f6 .dot.active{stroke-width:5px}#chart-c31b7313-79e4-430f-8025-07566e78c2f6 .series text{stroke:none}#chart-c31b7313-79e4-430f-8025-07566e78c2f6 .series text.active{opacity:1}#chart-c31b7313-79e4-430f-8025-07566e78c2f6 .tooltip rect{fill-opacity:0.8}#chart-c31b7313-79e4-430f-8025-07566e78c2f6 .tooltip text{fill-opacity:1}#chart-c31b7313-79e4-430f-8025-07566e78c2f6 .tooltip text tspan.label{fill-opacity:.8}</style><script type="text/javascript">window.config = {"include_x_axis": false, "pretty_print": false, "show_y_labels": true, "stack_from_top": false, "order_min": null, "human_readable": false, "rounded_bars": null, "disable_xml_declaration": false, "no_data_text": "No data", "height": 768, "title_font_size": 16, "show_y_guides": true, "interpolation_parameters": {}, "truncate_label": null, "tooltip_border_radius": 0, "x_label_format": "%Y-%m-%d %H:%M:%S.%f", "no_prefix": false, "y_labels_major_every": null, "show_only_major_dots": false, "show_minor_y_labels": true, "interpolate": null, "title": "Election 3 Participation", "legend_at_bottom": true, "xrange": null, "y_labels_major": null, "x_labels_major": null, "zero": 0, "x_labels_major_every": null, "print_values": false, "explicit_size": false, "y_title": "Users", "x_title": null, "interpolation_precision": 250, "x_value_formatter": null, "width": 1024, "half_pie": false, "no_data_font_size": 64, "fill": false, "show_legend": true, "x_label_rotation": 0, "legend_box_size": 12, "js": ["http://kozea.github.io/pygal.js/javascripts/svg.jquery.js", "http://kozea.github.io/pygal.js/javascripts/pygal-tooltips.js"], "logarithmic": false, "show_dots": false, "show_x_labels": true, "print_zeroes": false, "truncate_legend": null, "missing_value_fill_truncation": "x", "tooltip_font_size": 16, "margin_right": null, "style": {"stroke_style": "round", "transition": "250ms", "colors": ["#ff5995", "#b6e354", "#feed6c", "#8cedff", "#9e6ffe", "#899ca1", "#f8f8f2", "#bf4646", "#516083", "#f92672", "#82b414", "#fd971f", "#56c2d6", "#808384", "#8c54fe", "#465457"], "stroke_dasharray": "0,0", "foreground": "#999", "foreground_light": "#eee", "font_family": "monospace", "opacity": ".8", "opacity_hover": ".4", "background": "black", "plot_background": "#111", "foreground_dark": "#555", "stroke_width": 1.0}, "value_font_size": 8, "legend_at_bottom_columns": null, "margin_bottom": null, "margin_left": null, "mode": null, "spacing": 10, "legend_font_size": 14, "css": ["style.css", "graph.css"], "y_labels_major_count": null, "y_label_rotation": 0, "label_font_size": 10, "range": null, "show_x_guides": false, "inner_radius": 0, "major_label_font_size": 10, "stroke": true, "margin_top": null, "show_minor_x_labels": true, "x_labels": null, "margin": 20, "x_labels_major_count": null, "strict": false, "y_labels": null, "dots_size": 2.5}</script><script type="text/javascript" xlink:href="http://kozea.github.io/pygal.js/javascripts/svg.jquery.js" /><script type="text/javascript" xlink:href="http://kozea.github.io/pygal.js/javascripts/pygal-tooltips.js" /></defs><title>Election 3 Participation</title><g class="graph line-graph vertical"><rect class="background" height="768" width="1024" x="0" y="0" /><g class="plot" transform="translate(86, 46)"><rect class="background" height="657.0" width="918.0" x="0" y="0" /><g class="axis y"><g class="guides"><path class="axis major line" d="M0.000000 644.365385 h918.000000" /><text class="major" x="-5" y="647.8653846153846">0</text></g><g class="guides"><path class="guide line" d="M0.000000 611.490136 h918.000000" /><text class="" x="-5" y="614.9901364247743">1000</text></g><g class="guides"><path class="guide line" d="M0.000000 578.614888 h918.000000" /><text class="" x="-5" y="582.1148882341638">2000</text></g><g class="guides"><path class="guide line" d="M0.000000 545.739640 h918.000000" /><text class="" x="-5" y="549.2396400435534">3000</text></g><g class="guides"><path class="guide line" d="M0.000000 512.864392 h918.000000" /><text class="" x="-5" y="516.3643918529431">4000</text></g><g class="guides"><path class="major guide line" d="M0.000000 479.989144 h918.000000" /><text class="major" x="-5" y="483.4891436623327">5000</text></g><g class="guides"><path class="guide line" d="M0.000000 447.113895 h918.000000" /><text class="" x="-5" y="450.61389547172223">6000</text></g><g class="guides"><path class="guide line" d="M0.000000 414.238647 h918.000000" /><text class="" x="-5" y="417.73864728111187">7000</text></g><g class="guides"><path class="guide line" d="M0.000000 381.363399 h918.000000" /><text class="" x="-5" y="384.8633990905015">8000</text></g><g class="guides"><path class="guide line" d="M0.000000 348.488151 h918.000000" /><text class="" x="-5" y="351.9881508998911">9000</text></g><g class="guides"><path class="major guide line" d="M0.000000 315.612903 h918.000000" /><text class="major" x="-5" y="319.1129027092807">10000</text></g><g class="guides"><path class="guide line" d="M0.000000 282.737655 h918.000000" /><text class="" x="-5" y="286.2376545186703">11000</text></g><g class="guides"><path class="guide line" d="M0.000000 249.862406 h918.000000" /><text class="" x="-5" y="253.36240632805993">12000</text></g><g class="guides"><path class="guide line" d="M0.000000 216.987158 h918.000000" /><text class="" x="-5" y="220.4871581374495">13000</text></g><g class="guides"><path class="guide line" d="M0.000000 184.111910 h918.000000" /><text class="" x="-5" y="187.61190994683915">14000</text></g><g class="guides"><path class="major guide line" d="M0.000000 151.236662 h918.000000" /><text class="major" x="-5" y="154.73666175622878">15000</text></g><g class="guides"><path class="guide line" d="M0.000000 118.361414 h918.000000" /><text class="" x="-5" y="121.86141356561836">16000</text></g><g class="guides"><path class="guide line" d="M0.000000 85.486165 h918.000000" /><text class="" x="-5" y="88.986165375008">17000</text></g><g class="guides"><path class="guide line" d="M0.000000 52.610917 h918.000000" /><text class="" x="-5" y="56.110917184397636">18000</text></g><g class="guides"><path class="guide line" d="M0.000000 19.735669 h918.000000" /><text class="" x="-5" y="23.235668993787158">19000</text></g></g><g class="series serie-0 color-0"><path class="line reactive nofill" d="M17.653846 644.365385 L20.280907 644.365385 22.907967 644.365385 25.535027 644.365385 28.162088 644.365385 30.789148 644.365385 33.416209 644.365385 36.043269 644.365385 38.670330 644.365385 41.297390 644.365385 43.924451 644.365385 46.551511 644.365385 49.178571 644.365385 51.805632 644.365385 54.432692 644.365385 57.059753 644.365385 59.686813 644.365385 62.313874 644.365385 64.940934 644.365385 67.567995 644.365385 70.195055 644.365385 72.822115 644.365385 75.449176 644.365385 78.076236 644.365385 80.703297 644.365385 83.330357 644.365385 85.957418 644.365385 88.584478 644.365385 91.211538 644.365385 93.838599 644.365385 96.465659 644.365385 99.092720 644.365385 101.719780 644.365385 104.346841 644.365385 106.973901 644.365385 109.600962 644.365385 112.228022 644.365385 114.855082 644.365385 117.482143 644.365385 120.109203 644.365385 122.736264 644.365385 125.363324 644.365385 127.990385 644.365385 130.617445 644.365385 133.244505 644.365385 135.871566 644.365385 138.498626 644.365385 141.125687 644.365385 143.752747 644.365385 146.379808 644.365385 149.006868 644.365385 151.633929 644.365385 154.260989 644.365385 156.888049 644.365385 159.515110 644.365385 162.142170 644.365385 164.769231 644.365385 167.396291 644.365385 170.023352 644.365385 172.650412 644.365385 175.277473 644.365385 177.904533 644.365385 180.531593 644.365385 183.158654 644.365385 185.785714 644.365385 188.412775 644.365385 191.039835 644.365385 193.666896 644.365385 196.293956 644.365385 198.921016 644.365385 201.548077 644.365385 204.175137 644.365385 206.802198 644.365385 209.429258 644.365385 212.056319 644.365385 214.683379 644.365385 217.310440 644.365385 219.937500 644.365385 222.564560 644.365385 225.191621 644.365385 227.818681 644.365385 230.445742 644.365385 233.072802 644.365385 235.699863 644.365385 238.326923 644.365385 240.953984 644.365385 243.581044 644.365385 246.208104 644.365385 248.835165 644.365385 251.462225 644.365385 254.089286 644.365385 256.716346 644.365385 259.343407 644.365385 261.970467 644.365385 264.597527 644.365385 267.224588 644.365385 269.851648 644.365385 272.478709 644.365385 275.105769 644.365385 277.732830 644.365385 280.359890 644.365385 282.986951 644.365385 285.614011 644.365385 288.241071 644.365385 290.868132 644.365385 293.495192 644.365385 296.122253 644.365385 298.749313 644.365385 301.376374 644.365385 304.003434 644.365385 306.630495 644.365385 309.257555 644.365385 311.884615 644.365385 314.511676 644.365385 317.138736 644.365385 319.765797 644.365385 322.392857 644.365385 325.019918 644.365385 327.646978 644.365385 330.274038 644.365385 332.901099 644.365385 335.528159 644.365385 338.155220 644.365385 340.782280 644.365385 343.409341 644.365385 346.036401 644.365385 348.663462 644.365385 351.290522 644.365385 353.917582 644.365385 356.544643 644.365385 359.171703 644.365385 361.798764 644.365385 364.425824 644.365385 367.052885 644.365385 369.679945 644.365385 372.307005 644.365385 374.934066 644.365385 377.561126 644.365385 380.188187 644.365385 382.815247 644.365385 385.442308 644.365385 388.069368 644.365385 390.696429 644.365385 393.323489 644.365385 395.950549 644.365385 398.577610 644.365385 401.204670 644.365385 403.831731 644.365385 406.458791 644.365385 409.085852 644.365385 411.712912 644.365385 414.339973 644.365385 416.967033 644.365385 419.594093 644.365385 422.221154 644.365385 424.848214 644.365385 427.475275 644.365385 430.102335 644.365385 432.729396 644.365385 435.356456 644.365385 437.983516 644.365385 440.610577 644.365385 443.237637 644.365385 445.864698 644.365385 448.491758 641.472363 451.118819 630.097527 453.745879 625.264865 456.372940 622.634846 459.000000 620.826707 461.627060 619.610323 464.254121 618.295313 466.881181 617.243305 469.508242 616.092671 472.135302 614.679035 474.762363 613.594152 477.389423 611.983265 480.016484 610.339503 482.643544 608.892992 485.270604 607.051978 487.897665 605.309590 490.524725 604.060330 493.151786 602.317942 495.778846 600.739930 498.405907 599.523546 501.032967 597.912659 503.660027 596.433273 506.287088 594.986762 508.914148 594.099130 511.541209 592.619744 514.168269 591.436235 516.795330 590.285601 519.422390 589.036342 522.049451 588.510338 524.676511 587.918583 527.303571 587.622706 529.930632 587.162453 532.557692 586.406322 535.184753 585.913193 537.811813 585.189938 540.438874 584.433807 543.065934 583.480425 545.692995 582.592793 548.320055 581.540785 550.947115 580.620278 553.574176 579.929898 556.201236 579.108017 558.828297 577.990259 561.455357 577.069752 564.082418 576.182120 566.709478 574.899985 569.336538 573.847977 571.963599 573.157597 574.590659 572.467217 577.217720 571.776837 579.844780 570.659078 582.471841 570.067324 585.098901 569.442694 587.725962 568.883815 590.353022 568.259185 592.980082 567.634555 595.607143 566.911300 598.234203 565.957918 600.861264 564.215530 603.488324 562.538892 606.115385 560.730753 608.742445 557.903482 611.369505 555.635090 613.996566 553.070820 616.623626 550.407925 619.250687 547.547779 621.877747 544.753383 624.504808 541.794610 627.131868 539.953596 629.758929 537.948206 632.385989 536.304444 635.013049 535.055184 637.640110 533.608673 640.267170 531.932036 642.894231 530.518400 645.521291 529.532143 648.148352 528.578760 650.775412 528.052757 653.402473 527.625378 656.029533 527.198000 658.656593 526.671996 661.283654 525.915865 663.910714 525.093984 666.537775 523.614598 669.164835 522.496840 671.791896 520.820202 674.418956 518.847687 677.046016 517.269675 679.673077 515.790289 682.300137 514.080776 684.927198 512.305513 687.554258 510.793251 690.181319 508.952237 692.808379 507.209849 695.435440 505.368835 698.062500 503.330570 700.689560 501.160803 703.316621 501.160803 705.943681 501.160803 708.570742 501.160803 711.197802 501.160803 713.824863 501.160803 716.451923 501.160803 719.078984 501.160803 721.706044 501.160803 724.333104 501.160803 726.960165 501.160803 729.587225 501.160803 732.214286 501.160803 734.841346 501.160803 737.468407 501.160803 740.095467 501.160803 742.722527 501.160803 745.349588 501.160803 747.976648 501.160803 750.603709 501.160803 753.230769 501.160803 755.857830 501.160803 758.484890 501.160803 761.111951 501.160803 763.739011 501.160803 766.366071 501.160803 768.993132 501.160803 771.620192 501.160803 774.247253 501.160803 776.874313 501.160803 779.501374 501.160803 782.128434 501.160803 784.755495 501.160803 787.382555 501.160803 790.009615 501.160803 792.636676 501.160803 795.263736 501.160803 797.890797 501.160803 800.517857 501.160803 803.144918 501.160803 805.771978 501.160803 808.399038 501.160803 811.026099 501.160803 813.653159 501.160803 816.280220 501.160803 818.907280 501.160803 821.534341 501.160803 824.161401 501.160803 826.788462 501.160803 829.415522 501.160803 832.042582 501.160803 834.669643 501.160803 837.296703 501.160803 839.923764 501.160803 842.550824 501.160803 845.177885 501.160803 847.804945 501.160803 850.432005 501.160803 853.059066 501.160803 855.686126 501.160803 858.313187 501.160803 860.940247 501.160803 863.567308 501.160803 866.194368 501.160803 868.821429 501.160803 871.448489 501.160803 874.075549 501.160803 876.702610 501.160803 879.329670 501.160803 881.956731 501.160803 884.583791 501.160803 887.210852 501.160803 889.837912 501.160803 892.464973 501.160803 895.092033 501.160803 897.719093 501.160803 900.346154 501.160803" /></g><g class="series serie-1 color-1"><path class="line reactive nofill" d="M17.653846 515.823164 L20.280907 513.587647 22.907967 511.976760 25.535027 510.694625 28.162088 509.017988 30.789148 507.571477 33.416209 506.223592 36.043269 505.040083 38.670330 503.231944 41.297390 501.390930 43.924451 499.714293 46.551511 497.347275 49.178571 495.407635 51.805632 493.829623 54.432692 492.152985 57.059753 490.509223 59.686813 488.602459 62.313874 486.662819 64.940934 485.150558 67.567995 483.736922 70.195055 482.421912 72.822115 481.074027 75.449176 479.693266 78.076236 478.575508 80.703297 477.556375 83.330357 476.865995 85.957418 476.307116 88.584478 475.485235 91.211538 474.761979 93.838599 473.940098 96.465659 473.446969 99.092720 472.460712 101.719780 471.310078 104.346841 470.258070 106.973901 469.304688 109.600962 468.219805 112.228022 467.102046 114.855082 466.050038 117.482143 464.965155 120.109203 463.847397 122.736264 462.729638 125.363324 461.743381 127.990385 460.428371 130.617445 458.981860 133.244505 457.864102 135.871566 456.483341 138.498626 454.938205 141.125687 453.919072 143.752747 453.064315 146.379808 452.110933 149.006868 451.519179 151.633929 450.664422 154.260989 449.546664 156.888049 448.626157 159.515110 447.278272 162.142170 445.996137 164.769231 443.661994 167.396291 441.262101 170.023352 439.453963 172.650412 437.415697 175.277473 434.752802 177.904533 432.221408 180.531593 428.901008 183.158654 425.777859 185.785714 422.884838 188.412775 420.846572 191.039835 418.874057 193.666896 417.263170 196.293956 414.271523 198.921016 383.500290 201.548077 367.917423 204.175137 360.027363 206.802198 354.570072 209.429258 349.573034 212.056319 345.628004 214.683379 341.551474 217.310440 337.409192 219.937500 330.242388 222.564560 322.681081 225.191621 312.161002 227.818681 301.871049 230.445742 291.318094 233.072802 282.376027 235.699863 274.091464 238.326923 267.154787 240.953984 258.935975 243.581044 250.651412 246.208104 243.846236 248.835165 237.534188 251.462225 232.504275 254.089286 227.178485 256.716346 222.707451 259.343407 218.762422 261.970467 215.047518 264.597527 211.759994 267.224588 209.392976 269.851648 207.979340 272.478709 206.467079 275.105769 205.217819 277.732830 203.902809 280.359890 202.357673 282.986951 200.582409 285.614011 198.248267 288.241071 195.026492 290.868132 191.508841 293.495192 187.563811 296.122253 184.144785 298.749313 180.955886 301.376374 177.832738 304.003434 173.460330 306.630495 169.712551 309.257555 166.556527 311.884615 163.466254 314.511676 161.526614 317.138736 159.323973 319.765797 156.562452 322.392857 153.866682 325.019918 151.631165 327.646978 149.527149 330.274038 147.916262 332.901099 146.667002 335.528159 145.976622 338.155220 145.187616 340.782280 144.562986 343.409341 143.872606 346.036401 142.590471 348.663462 140.880959 351.290522 139.039945 353.917582 137.034555 356.544643 135.292166 359.171703 132.760772 361.798764 130.755382 364.425824 128.651366 367.052885 126.251473 369.679945 124.213208 372.307005 121.320186 374.934066 119.512047 377.561126 117.506657 380.188187 115.928645 382.815247 114.580760 385.442308 112.969873 388.069368 111.589112 390.696429 110.274103 393.323489 109.090594 395.950549 108.465964 398.577610 108.104336 401.204670 107.512582 403.831731 107.118079 406.458791 106.559199 409.085852 105.901695 411.712912 104.948312 414.339973 103.501801 416.967033 102.252542 419.594093 100.904657 422.221154 99.359520 424.848214 97.945884 427.475275 96.663750 430.102335 94.855611 432.729396 93.573476 435.356456 91.995465 437.983516 90.516078 440.610577 89.398320 443.237637 87.918934 445.864698 87.294304 448.491758 85.519041 451.118819 80.653504 453.745879 78.680989 456.372940 77.596106 459.000000 76.971476 461.627060 76.379722 464.254121 75.787967 466.881181 75.064712 469.508242 74.407207 472.135302 74.045579 474.762363 73.585326 477.389423 72.927821 480.016484 72.434692 482.643544 71.810062 485.270604 71.284058 487.897665 70.495052 490.524725 69.903298 493.151786 68.982791 495.778846 68.391036 498.405907 67.667781 501.032967 67.141777 503.660027 66.550022 506.287088 65.925393 508.914148 65.235012 511.541209 64.610383 514.168269 64.084379 516.795330 63.295373 519.422390 62.802244 522.049451 62.407741 524.676511 62.078989 527.303571 61.783111 529.930632 61.520109 532.557692 61.224232 535.184753 60.928355 537.811813 60.698228 540.438874 60.402351 543.065934 60.007848 545.692995 59.711971 548.320055 59.185967 550.947115 58.692838 553.574176 58.331210 556.201236 57.772331 558.828297 57.180577 561.455357 56.753198 564.082418 56.128569 566.709478 55.306688 569.336538 54.846434 571.963599 54.419056 574.590659 53.893052 577.217720 53.465674 579.844780 53.038295 582.471841 52.676668 585.098901 52.479416 587.725962 51.986287 590.353022 51.624660 592.980082 51.230157 595.607143 50.835654 598.234203 50.342525 600.861264 49.454893 603.488324 48.698763 606.115385 47.515254 608.742445 46.035868 611.369505 44.950984 613.996566 43.635974 616.623626 42.222339 619.250687 40.578576 621.877747 39.066315 624.504808 37.784180 627.131868 36.502046 629.758929 35.482913 632.385989 34.463780 635.013049 33.477523 637.640110 32.557016 640.267170 31.570758 642.894231 30.880378 645.521291 30.189998 648.148352 29.762620 650.775412 29.466742 653.402473 29.105115 656.029533 28.940738 658.656593 28.513360 661.283654 28.020232 663.910714 27.625729 666.537775 26.606596 669.164835 25.916216 671.791896 24.962833 674.418956 23.910826 677.046016 23.023194 679.673077 21.872560 682.300137 20.590425 684.927198 19.571293 687.554258 18.322033 690.181319 17.105649 692.808379 15.922140 695.435440 14.903008 698.062500 13.818124 700.689560 12.700366 703.316621 12.700366 705.943681 12.700366 708.570742 12.700366 711.197802 12.700366 713.824863 12.700366 716.451923 12.700366 719.078984 12.700366 721.706044 12.700366 724.333104 12.700366 726.960165 12.700366 729.587225 12.700366 732.214286 12.700366 734.841346 12.700366 737.468407 12.700366 740.095467 12.700366 742.722527 12.700366 745.349588 12.700366 747.976648 12.700366 750.603709 12.700366 753.230769 12.700366 755.857830 12.700366 758.484890 12.700366 761.111951 12.700366 763.739011 12.700366 766.366071 12.700366 768.993132 12.700366 771.620192 12.700366 774.247253 12.700366 776.874313 12.700366 779.501374 12.700366 782.128434 12.700366 784.755495 12.700366 787.382555 12.700366 790.009615 12.700366 792.636676 12.700366 795.263736 12.700366 797.890797 12.700366 800.517857 12.700366 803.144918 12.700366 805.771978 12.700366 808.399038 12.700366 811.026099 12.700366 813.653159 12.700366 816.280220 12.700366 818.907280 12.700366 821.534341 12.700366 824.161401 12.700366 826.788462 12.667491 829.415522 12.667491 832.042582 12.667491 834.669643 12.667491 837.296703 12.667491 839.923764 12.667491 842.550824 12.667491 845.177885 12.667491 847.804945 12.667491 850.432005 12.667491 853.059066 12.667491 855.686126 12.667491 858.313187 12.667491 860.940247 12.667491 863.567308 12.667491 866.194368 12.667491 868.821429 12.667491 871.448489 12.634615 874.075549 12.634615 876.702610 12.634615 879.329670 12.634615 881.956731 12.634615 884.583791 12.634615 887.210852 12.634615 889.837912 12.634615 892.464973 12.634615 895.092033 12.634615 897.719093 12.634615 900.346154 12.634615" /></g></g><g class="titles"><text class="title plot_title" x="512.0" y="26">Election 3 Participation</text><text class="title" transform="rotate(-90 0.000000 374.500000)" x="0" y="400.5">Users</text></g><g class="plot overlay" transform="translate(86, 46)"><g class="series serie-0 color-0" /><g class="series serie-1 color-1" /></g><g class="plot text-overlay" transform="translate(86, 46)"><g class="series serie-0 color-0" /><g class="series serie-1 color-1" /></g><g class="plot tooltip-overlay" transform="translate(86, 46)"><g class="tooltip" style="opacity: 0" transform="translate(0 0)"><a><rect class="tooltip-box" height="0" rx="0" ry="0" width="0" /><text class="text"><tspan class="label" /><tspan class="value" /></text></a></g></g><g class="legends" transform="translate(96, 713)"><g class="legend reactive activate-serie" id="activate-serie-0"><rect class="color-0 reactive" height="12" width="12" x="0.0" y="1.0" /><text x="17.0" y="11.2">constituents</text></g><g class="legend reactive activate-serie" id="activate-serie-1"><rect class="color-1 reactive" height="12" width="12" x="459.0" y="1.0" /><text x="476.0" y="11.2">caucus</text></g></g></g></svg>