<?xml version='1.0' encoding='utf-8'?>
<svg xmlns:xlink="http://www.w3.org/1999/xlink" class="pygal-chart" id="chart-dccdbf2e-af68-4fe6-bc57-3f53dab7d579" viewBox="0 0 1024 768" xmlns="http://www.w3.org/2000/svg"><!--Generated with pygal 1.7.0 (etree) ©Kozea 2011-2014 on 2015-04-21--><!--http://pygal.org--><!--http://github.com/Kozea/pygal--><defs><style type="text/css">#chart-dccdbf2e-af68-4fe6-bc57-3f53dab7d579 .title{font-family:"monospace";font-size:16px}#chart-dccdbf2e-af68-4fe6-bc57-3f53dab7d579 .legends .legend text{font-family:"monospace";font-size:14px}#chart-dccdbf2e-af68-4fe6-bc57-3f53dab7d579 .axis text{font-family:"monospace";font-size:10px}#chart-dccdbf2e-af68-4fe6-bc57-3f53dab7d579 .axis text.major{font-family:"monospace";font-size:10px}#chart-dccdbf2e-af68-4fe6-bc57-3f53dab7d579 .series text{font-family:"monospace";font-size:8px}#chart-dccdbf2e-af68-4fe6-bc57-3f53dab7d579 .tooltip text{font-family:"monospace";font-size:16px}#chart-dccdbf2e-af68-4fe6-bc57-3f53dab7d579 text.no_data{font-size:64px}
#chart-dccdbf2e-af68-4fe6-bc57-3f53dab7d579{background-color:black}#chart-dccdbf2e-af68-4fe6-bc57-3f53dab7d579 path,#chart-dccdbf2e-af68-4fe6-bc57-3f53dab7d579 line,#chart-dccdbf2e-af68-4fe6-bc57-3f53dab7d579 rect,#chart-dccdbf2e-af68-4fe6-bc57-3f53dab7d579 circle{-webkit-transition:250ms;-moz-transition:250ms;transition:250ms}#chart-dccdbf2e-af68-4fe6-bc57-3f53dab7d579 .graph &gt; .background{fill:black}#chart-dccdbf2e-af68-4fe6-bc57-3f53dab7d579 .plot &gt; .background{fill:#111}#chart-dccdbf2e-af68-4fe6-bc57-3f53dab7d579 .graph{fill:#999}#chart-dccdbf2e-af68-4fe6-bc57-3f53dab7d579 text.no_data{fill:#eee}#chart-dccdbf2e-af68-4fe6-bc57-3f53dab7d579 .title{fill:#eee}#chart-dccdbf2e-af68-4fe6-bc57-3f53dab7d579 .legends .legend text{fill:#999}#chart-dccdbf2e-af68-4fe6-bc57-3f53dab7d579 .legends .legend:hover text{fill:#eee}#chart-dccdbf2e-af68-4fe6-bc57-3f53dab7d579 .axis .line{stroke:#eee}#chart-dccdbf2e-af68-4fe6-bc57-3f53dab7d579 .axis .guide.line{stroke:#555}#chart-dccdbf2e-af68-4fe6-bc57-3f53dab7d579 .axis .major.line{stroke:#999}#chart-dccdbf2e-af68-4fe6-bc57-3f53dab7d579 .axis text.major{stroke:#eee;fill:#eee}#chart-dccdbf2e-af68-4fe6-bc57-3f53dab7d579 .axis.y .guides:hover .guide.line,#chart-dccdbf2e-af68-4fe6-bc57-3f53dab7d579 .line-graph .axis.x .guides:hover .guide.line,#chart-dccdbf2e-af68-4fe6-bc57-3f53dab7d579 .stackedline-graph .axis.x .guides:hover .guide.line,#chart-dccdbf2e-af68-4fe6-bc57-3f53dab7d579 .xy-graph .axis.x .guides:hover .guide.line{stroke:#eee}#chart-dccdbf2e-af68-4fe6-bc57-3f53dab7d579 .axis .guides:hover text{fill:#eee}#chart-dccdbf2e-af68-4fe6-bc57-3f53dab7d579 .reactive{fill-opacity:.8}#chart-dccdbf2e-af68-4fe6-bc57-3f53dab7d579 .reactive.active,#chart-dccdbf2e-af68-4fe6-bc57-3f53dab7d579 .active .reactive{fill-opacity:.4}#chart-dccdbf2e-af68-4fe6-bc57-3f53dab7d579 .series{stroke-width:1.0;stroke-linejoin:round;stroke-linecap:round;stroke-dasharray:0,0}#chart-dccdbf2e-af68-4fe6-bc57-3f53dab7d579 .series text{fill:#eee}#chart-dccdbf2e-af68-4fe6-bc57-3f53dab7d579 .tooltip rect{fill:#111;stroke:#eee}#chart-dccdbf2e-af68-4fe6-bc57-3f53dab7d579 .tooltip text{fill:#eee}#chart-dccdbf2e-af68-4fe6-bc57-3f53dab7d579 .map-element{fill:#999;stroke:#555 !important;opacity:.9;stroke-width:3;-webkit-transition:250ms;-moz-transition:250ms;-o-transition:250ms;transition:250ms}#chart-dccdbf2e-af68-4fe6-bc57-3f53dab7d579 .map-element:hover{opacity:1;stroke-width:10}#chart-dccdbf2e-af68-4fe6-bc57-3f53dab7d579 .color-0,#chart-dccdbf2e-af68-4fe6-bc57-3f53dab7d579 .color-0 a:visited{stroke:#ff5995;fill:#ff5995}#chart-dccdbf2e-af68-4fe6-bc57-3f53dab7d579 .color-1,#chart-dccdbf2e-af68-4fe6-bc57-3f53dab7d579 .color-1 a:visited{stroke:#b6e354;fill:#b6e354}#chart-dccdbf2e-af68-4fe6-bc57-3f53dab7d579 .color-2,#chart-dccdbf2e-af68-4fe6-bc57-3f53dab7d579 .color-2 a:visited{stroke:#feed6c;fill:#feed6c}#chart-dccdbf2e-af68-4fe6-bc57-3f53dab7d579 .color-3,#chart-dccdbf2e-af68-4fe6-bc57-3f53dab7d579 .color-3 a:visited{stroke:#8cedff;fill:#8cedff}#chart-dccdbf2e-af68-4fe6-bc57-3f53dab7d579 .color-4,#chart-dccdbf2e-af68-4fe6-bc57-3f53dab7d579 .color-4 a:visited{stroke:#9e6ffe;fill:#9e6ffe}#chart-dccdbf2e-af68-4fe6-bc57-3f53dab7d579 .color-5,#chart-dccdbf2e-af68-4fe6-bc57-3f53dab7d579 .color-5 a:visited{stroke:#899ca1;fill:#899ca1}#chart-dccdbf2e-af68-4fe6-bc57-3f53dab7d579 .color-6,#chart-dccdbf2e-af68-4fe6-bc57-3f53dab7d579 .color-6 a:visited{stroke:#f8f8f2;fill:#f8f8f2}#chart-dccdbf2e-af68-4fe6-bc57-3f53dab7d579 .color-7,#chart-dccdbf2e-af68-4fe6-bc57-3f53dab7d579 .color-7 a:visited{stroke:#bf4646;fill:#bf4646}#chart-dccdbf2e-af68-4fe6-bc57-3f53dab7d579 .color-8,#chart-dccdbf2e-af68-4fe6-bc57-3f53dab7d579 .color-8 a:visited{stroke:#516083;fill:#516083}#chart-dccdbf2e-af68-4fe6-bc57-3f53dab7d579 .color-9,#chart-dccdbf2e-af68-4fe6-bc57-3f53dab7d579 .color-9 a:visited{stroke:#f92672;fill:#f92672}#chart-dccdbf2e-af68-4fe6-bc57-3f53dab7d579 .color-10,#chart-dccdbf2e-af68-4fe6-bc57-3f53dab7d579 .color-10 a:visited{stroke:#82b414;fill:#82b414}#chart-dccdbf2e-af68-4fe6-bc57-3f53dab7d579 .color-11,#chart-dccdbf2e-af68-4fe6-bc57-3f53dab7d579 .color-11 a:visited{stroke:#fd971f;fill:#fd971f}#chart-dccdbf2e-af68-4fe6-bc57-3f53dab7d579 .color-12,#chart-dccdbf2e-af68-4fe6-bc57-3f53dab7d579 .color-12 a:visited{stroke:#56c2d6;fill:#56c2d6}#chart-dccdbf2e-af68-4fe6-bc57-3f53dab7d579 .color-13,#chart-dccdbf2e-af68-4fe6-bc57-3f53dab7d579 .color-13 a:visited{stroke:#808384;fill:#808384}#chart-dccdbf2e-af68-4fe6-bc57-3f53dab7d579 .color-14,#chart-dccdbf2e-af68-4fe6-bc57-3f53dab7d579 .color-14 a:visited{stroke:#8c54fe;fill:#8c54fe}#chart-dccdbf2e-af68-4fe6-bc57-3f53dab7d579 .color-15,#chart-dccdbf2e-af68-4fe6-bc57-3f53dab7d579 .color-15 a:visited{stroke:#465457;fill:#465457}
#chart-dccdbf2e-af68-4fe6-bc57-3f53dab7d579 text.no_data{text-anchor:middle}#chart-dccdbf2e-af68-4fe6-bc57-3f53dab7d579 .guide.line{fill-opacity:0}#chart-dccdbf2e-af68-4fe6-bc57-3f53dab7d579 .centered{text-anchor:middle}#chart-dccdbf2e-af68-4fe6-bc57-3f53dab7d579 .title{text-anchor:middle}#chart-dccdbf2e-af68-4fe6-bc57-3f53dab7d579 .legends .legend text{fill-opacity:1}#chart-dccdbf2e-af68-4fe6-bc57-3f53dab7d579 .axis.x text{text-anchor:middle}#chart-dccdbf2e-af68-4fe6-bc57-3f53dab7d579 .axis.x:not(.web) text[transform]{text-anchor:start}#chart-dccdbf2e-af68-4fe6-bc57-3f53dab7d579 .axis.y text{text-anchor:end}#chart-dccdbf2e-af68-4fe6-bc57-3f53dab7d579 .axis.y2 text{text-anchor:start}#chart-dccdbf2e-af68-4fe6-bc57-3f53dab7d579 .axis.y .logarithmic text:not(.major),#chart-dccdbf2e-af68-4fe6-bc57-3f53dab7d579 .axis.y2 .logarithmic text:not(.major){font-size:50%}#chart-dccdbf2e-af68-4fe6-bc57-3f53dab7d579 .axis .guide.line{stroke-dasharray:4,4}#chart-dccdbf2e-af68-4fe6-bc57-3f53dab7d579 .axis .major.guide.line{stroke-dasharray:6,6}#chart-dccdbf2e-af68-4fe6-bc57-3f53dab7d579 .axis text.major{stroke-width:0.5px}#chart-dccdbf2e-af68-4fe6-bc57-3f53dab7d579 .horizontal .axis.y .guide.line,#chart-dccdbf2e-af68-4fe6-bc57-3f53dab7d579 .horizontal .axis.y2 .guide.line,#chart-dccdbf2e-af68-4fe6-bc57-3f53dab7d579 .vertical .axis.x .guide.line{opacity:0}#chart-dccdbf2e-af68-4fe6-bc57-3f53dab7d579 .horizontal .axis.always_show .guide.line,#chart-dccdbf2e-af68-4fe6-bc57-3f53dab7d579 .vertical .axis.always_show .guide.line{opacity:1 !important}#chart-dccdbf2e-af68-4fe6-bc57-3f53dab7d579 .axis.y .guides:hover .guide.line,#chart-dccdbf2e-af68-4fe6-bc57-3f53dab7d579 .axis.y2 .guides:hover .guide.line,#chart-dccdbf2e-af68-4fe6-bc57-3f53dab7d579 .axis.x .guides:hover .guide.line{opacity:1}#chart-dccdbf2e-af68-4fe6-bc57-3f53dab7d579 .axis .guides:hover text{opacity:1}#chart-dccdbf2e-af68-4fe6-bc57-3f53dab7d579 .nofill{fill:none}#chart-dccdbf2e-af68-4fe6-bc57-3f53dab7d579 .subtle-fill{fill-opacity:.2}#chart-dccdbf2e-af68-4fe6-bc57-3f53dab7d579 .dot{stroke-width:1px;fill-opacity:1}#chart-dccdbf2e-af68-4fe6-bc57-3f53dab7d579 .dot.active{stroke-width:5px}#chart-dccdbf2e-af68-4fe6-bc57-3f53dab7d579 .series text{stroke:none}#chart-dccdbf2e-af68-4fe6-bc57-3f53dab7d579 .series text.active{opacity:1}#chart-dccdbf2e-af68-4fe6-bc57-3f53dab7d579 .tooltip rect{fill-opacity:0.8}#chart-dccdbf2e-af68-4fe6-bc57-3f53dab7d579 .tooltip text{fill-opacity:1}#chart-dccdbf2e-af68-4fe6-bc57-3f53dab7d579 .tooltip text tspan.label{fill-opacity:.8}</style><script type="text/javascript">window.config = {"half_pie": false, "logarithmic": false, "order_min": null, "show_y_labels": true, "js": ["http://kozea.github.io/pygal.js/javascripts/svg.jquery.js", "http://kozea.github.io/pygal.js/javascripts/pygal-tooltips.js"], "interpolation_parameters": {}, "margin_left": null, "range": null, "x_labels_major_count": null, "x_labels_major": null, "show_x_labels": true, "x_labels": null, "margin_right": null, "value_font_size": 8, "y_labels": null, "legend_at_bottom_columns": null, "spacing": 10, "zero": 0, "title_font_size": 16, "no_data_font_size": 64, "xrange": null, "x_value_formatter": null, "x_title": null, "pretty_print": false, "x_labels_major_every": null, "dots_size": 2.5, "legend_at_bottom": true, "show_legend": true, "y_labels_major": null, "y_title": "Users", "show_dots": false, "margin_top": null, "no_data_text": "No data", "y_labels_major_every": null, "mode": null, "width": 1024, "rounded_bars": null, "margin_bottom": null, "disable_xml_declaration": false, "no_prefix": false, "truncate_label": null, "human_readable": false, "title": "Election 6 Participation", "stroke": true, "stack_from_top": false, "margin": 20, "interpolate": null, "x_label_rotation": 0, "missing_value_fill_truncation": "x", "legend_font_size": 14, "fill": false, "include_x_axis": false, "x_label_format": "%Y-%m-%d %H:%M:%S.%f", "style": {"font_family": "monospace", "stroke_dasharray": "0,0", "background": "black", "foreground_light": "#eee", "stroke_width": 1.0, "plot_background": "#111", "stroke_style": "round", "colors": ["#ff5995", "#b6e354", "#feed6c", "#8cedff", "#9e6ffe", "#899ca1", "#f8f8f2", "#bf4646", "#516083", "#f92672", "#82b414", "#fd971f", "#56c2d6", "#808384", "#8c54fe", "#465457"], "opacity": ".8", "foreground_dark": "#555", "transition": "250ms", "opacity_hover": ".4", "foreground": "#999"}, "interpolation_precision": 250, "show_y_guides": true, "show_only_major_dots": false, "show_minor_y_labels": true, "height": 768, "legend_box_size": 12, "explicit_size": false, "print_zeroes": false, "truncate_legend": null, "strict": false, "label_font_size": 10, "show_minor_x_labels": true, "y_labels_major_count": null, "tooltip_font_size": 16, "print_values": false, "show_x_guides": false, "major_label_font_size": 10, "css": ["style.css", "graph.css"], "inner_radius": 0, "tooltip_border_radius": 0, "y_label_rotation": 0}</script><script type="text/javascript" xlink:href="http://kozea.github.io/pygal.js/javascripts/svg.jquery.js" /><script type="text/javascript" xlink:href="http://kozea.github.io/pygal.js/javascripts/pygal-tooltips.js" /></defs><title>Election 6 Participation</title><g class="graph line-graph vertical"><rect class="background" height="768" width="1024" x="0" y="0" /><g class="plot" transform="translate(86, 46)"><rect class="background" height="657.0" width="918.0" x="0" y="0" /><g class="axis y"><g class="guides"><path class="axis major line" d="M0.000000 644.365385 h918.000000" /><text class="major" x="-5" y="647.8653846153846">0</text></g><g class="guides"><path class="guide line" d="M0.000000 563.844995 h918.000000" /><text class="" x="-5" y="567.3449949408193">10000</text></g><g class="guides"><path class="guide line" d="M0.000000 483.324605 h918.000000" /><text class="" x="-5" y="486.8246052662541">20000</text></g><g class="guides"><path class="guide line" d="M0.000000 402.804216 h918.000000" /><text class="" x="-5" y="406.30421559168883">30000</text></g><g class="guides"><path class="guide line" d="M0.000000 322.283826 h918.000000" /><text class="" x="-5" y="325.78382591712347">40000</text></g><g class="guides"><path class="major guide line" d="M0.000000 241.763436 h918.000000" /><text class="major" x="-5" y="245.2634362425582">50000</text></g><g class="guides"><path class="guide line" d="M0.000000 161.243047 h918.000000" /><text class="" x="-5" y="164.74304656799296">60000</text></g><g class="guides"><path class="guide line" d="M0.000000 80.722657 h918.000000" /><text class="" x="-5" y="84.22265689342771">70000</text></g></g><g class="series serie-0 color-0"><path class="line reactive nofill" d="M17.653846 644.365385 L20.105769 644.365385 22.557692 644.365385 25.009615 644.365385 27.461538 644.365385 29.913462 644.365385 32.365385 644.365385 34.817308 644.365385 37.269231 644.365385 39.721154 644.365385 42.173077 644.365385 44.625000 644.365385 47.076923 644.365385 49.528846 644.365385 51.980769 644.365385 54.432692 644.365385 56.884615 644.365385 59.336538 644.365385 61.788462 644.365385 64.240385 644.365385 66.692308 644.365385 69.144231 644.365385 71.596154 644.365385 74.048077 644.365385 76.500000 644.365385 78.951923 644.365385 81.403846 644.365385 83.855769 644.365385 86.307692 644.365385 88.759615 644.365385 91.211538 644.365385 93.663462 644.365385 96.115385 644.365385 98.567308 644.365385 101.019231 644.365385 103.471154 644.365385 105.923077 644.365385 108.375000 644.365385 110.826923 644.365385 113.278846 644.365385 115.730769 644.365385 118.182692 644.365385 120.634615 644.365385 123.086538 644.365385 125.538462 644.365385 127.990385 644.365385 130.442308 644.365385 132.894231 644.365385 135.346154 644.365385 137.798077 644.365385 140.250000 644.365385 142.701923 644.365385 145.153846 644.365385 147.605769 644.365385 150.057692 644.365385 152.509615 644.365385 154.961538 644.365385 157.413462 644.365385 159.865385 644.365385 162.317308 644.365385 164.769231 644.365385 167.221154 644.365385 169.673077 644.365385 172.125000 644.365385 174.576923 644.365385 177.028846 644.365385 179.480769 644.365385 181.932692 644.365385 184.384615 644.365385 186.836538 644.365385 189.288462 644.365385 191.740385 644.365385 194.192308 644.365385 196.644231 644.365385 199.096154 644.365385 201.548077 644.365385 204.000000 644.365385 206.451923 644.365385 208.903846 644.365385 211.355769 644.365385 213.807692 644.365385 216.259615 644.365385 218.711538 644.365385 221.163462 644.365385 223.615385 644.365385 226.067308 644.365385 228.519231 644.365385 230.971154 644.365385 233.423077 644.365385 235.875000 644.365385 238.326923 644.365385 240.778846 644.365385 243.230769 644.365385 245.682692 644.365385 248.134615 644.365385 250.586538 644.365385 253.038462 644.365385 255.490385 644.365385 257.942308 644.365385 260.394231 644.365385 262.846154 644.365385 265.298077 644.365385 267.750000 644.365385 270.201923 644.365385 272.653846 644.365385 275.105769 644.365385 277.557692 644.365385 280.009615 644.365385 282.461538 644.365385 284.913462 644.365385 287.365385 644.365385 289.817308 644.365385 292.269231 644.365385 294.721154 644.365385 297.173077 644.365385 299.625000 644.365385 302.076923 644.365385 304.528846 644.365385 306.980769 644.365385 309.432692 644.365385 311.884615 644.365385 314.336538 644.365385 316.788462 644.365385 319.240385 644.365385 321.692308 644.365385 324.144231 644.365385 326.596154 644.365385 329.048077 644.365385 331.500000 644.365385 333.951923 644.365385 336.403846 644.365385 338.855769 644.365385 341.307692 644.365385 343.759615 644.365385 346.211538 644.365385 348.663462 644.365385 351.115385 644.365385 353.567308 644.365385 356.019231 644.365385 358.471154 644.365385 360.923077 644.365385 363.375000 644.365385 365.826923 644.365385 368.278846 644.365385 370.730769 644.365385 373.182692 644.365385 375.634615 644.365385 378.086538 644.365385 380.538462 644.365385 382.990385 644.365385 385.442308 644.365385 387.894231 644.365385 390.346154 644.365385 392.798077 644.365385 395.250000 644.365385 397.701923 644.365385 400.153846 644.365385 402.605769 644.365385 405.057692 644.365385 407.509615 644.365385 409.961538 644.365385 412.413462 644.365385 414.865385 644.365385 417.317308 644.365385 419.769231 644.365385 422.221154 644.365385 424.673077 644.365385 427.125000 644.365385 429.576923 644.365385 432.028846 644.365385 434.480769 644.365385 436.932692 644.365385 439.384615 644.365385 441.836538 644.365385 444.288462 644.365385 446.740385 644.365385 449.192308 644.365385 451.644231 644.365385 454.096154 644.365385 456.548077 644.365385 459.000000 644.365385 461.451923 644.365385 463.903846 644.365385 466.355769 644.365385 468.807692 644.365385 471.259615 644.365385 473.711538 644.365385 476.163462 644.365385 478.615385 644.365385 481.067308 644.365385 483.519231 644.365385 485.971154 644.365385 488.423077 644.365385 490.875000 644.365385 493.326923 644.365385 495.778846 644.365385 498.230769 644.365385 500.682692 644.365385 503.134615 644.365385 505.586538 644.365385 508.038462 644.365385 510.490385 644.365385 512.942308 644.365385 515.394231 644.365385 517.846154 644.365385 520.298077 644.365385 522.750000 644.365385 525.201923 644.365385 527.653846 644.365385 530.105769 644.365385 532.557692 644.365385 535.009615 644.365385 537.461538 644.365385 539.913462 644.365385 542.365385 644.365385 544.817308 644.365385 547.269231 644.365385 549.721154 644.365385 552.173077 644.365385 554.625000 644.365385 557.076923 644.365385 559.528846 644.365385 561.980769 644.365385 564.432692 644.365385 566.884615 644.365385 569.336538 644.365385 571.788462 644.365385 574.240385 644.365385 576.692308 644.365385 579.144231 644.365385 581.596154 644.365385 584.048077 644.365385 586.500000 644.365385 588.951923 644.365385 591.403846 644.365385 593.855769 644.365385 596.307692 644.365385 598.759615 644.365385 601.211538 644.365385 603.663462 644.365385 606.115385 644.365385 608.567308 644.365385 611.019231 644.365385 613.471154 644.365385 615.923077 644.365385 618.375000 644.365385 620.826923 644.365385 623.278846 644.365385 625.730769 644.365385 628.182692 644.365385 630.634615 644.365385 633.086538 644.365385 635.538462 644.365385 637.990385 644.365385 640.442308 644.365385 642.894231 644.365385 645.346154 644.365385 647.798077 644.365385 650.250000 644.365385 652.701923 644.365385 655.153846 644.365385 657.605769 644.365385 660.057692 644.365385 662.509615 644.365385 664.961538 618.566652 667.413462 606.689894 669.865385 600.103326 672.317308 596.206140 674.769231 593.170521 677.221154 590.489192 679.673077 588.073580 682.125000 585.279523 684.576923 581.567533 687.028846 577.928011 689.480769 574.328750 691.932692 570.198054 694.384615 566.566584 696.836538 562.451992 699.288462 558.723898 701.740385 555.712436 704.192308 552.829806 706.644231 550.003540 709.096154 547.314159 711.548077 544.842183 714.000000 542.724497 716.451923 540.308885 718.903846 538.448864 721.355769 536.258709 723.807692 534.761030 726.259615 533.529068 728.711538 532.570876 731.163462 531.757620 733.615385 531.169821 736.067308 530.525658 738.519231 529.929807 740.971154 529.390320 743.423077 528.810573 745.875000 527.965109 748.326923 526.789512 750.778846 525.710538 753.230769 524.293380 755.682692 523.149990 758.134615 521.789195 760.586538 520.436453 763.038462 519.244751 765.490385 518.020841 767.942308 517.022388 770.394231 515.758218 772.846154 514.526256 775.298077 513.334554 777.750000 512.167009 780.201923 511.071932 782.653846 510.121791 785.105769 509.123338 787.557692 508.390603 790.009615 507.480722 792.461538 506.603050 794.913462 505.604597 797.365385 504.525624 799.817308 503.350026 802.269231 501.031039 804.721154 497.761911 807.173077 493.180301 809.625000 487.213740 812.076923 481.754458 814.528846 476.625309 816.980769 473.291765 819.432692 470.352770 821.884615 466.785717 824.336538 463.105935 826.788462 459.643559 829.240385 456.986386 831.692308 455.126365 834.144231 453.797778 836.596154 452.332307 839.048077 450.947357 841.500000 449.892539 843.951923 448.797462 846.403846 448.233819 848.855769 447.823165 851.307692 447.267575 853.759615 446.881077 856.211538 446.486527 858.663462 446.035613 861.115385 445.423658 863.567308 444.594298 866.019231 443.297920 868.471154 441.615043 870.923077 440.028792 873.375000 438.555269 875.826923 437.194474 878.278846 435.906148 880.730769 434.633926 883.182692 433.079882 885.634615 431.791556 888.086538 430.881675 890.538462 430.881675 892.990385 430.881675 895.442308 430.881675 897.894231 430.881675 900.346154 430.881675" /></g><g class="series serie-1 color-1"><path class="line reactive nofill" d="M17.653846 628.204942 L20.105769 622.157861 22.557692 618.784057 25.009615 616.537538 27.461538 614.419852 29.913462 613.010745 32.365385 611.593586 34.817308 609.942918 37.269231 607.478994 39.721154 604.306491 42.173077 600.989051 44.625000 596.447701 47.076923 592.292849 49.528846 589.466583 51.980769 586.865774 54.432692 584.707828 56.884615 582.469361 59.336538 580.279206 61.788462 578.072948 64.240385 576.148510 66.692308 574.634727 69.144231 573.290037 71.596154 572.098335 74.048077 570.971049 76.500000 570.085325 78.951923 568.998300 81.403846 568.482969 83.855769 568.112576 86.307692 567.661661 88.759615 567.234903 91.211538 566.953082 93.663462 566.687365 96.115385 566.147878 98.567308 565.519819 101.019231 564.835396 103.471154 563.909411 105.923077 562.983427 108.375000 562.073546 110.826923 561.211978 113.278846 560.495347 115.730769 559.674039 118.182692 558.828575 120.634615 558.095839 123.086538 557.459728 125.538462 556.928293 127.990385 556.292182 130.442308 555.720488 132.894231 555.245417 135.346154 554.762295 137.798077 554.375797 140.250000 553.997351 142.701923 553.852415 145.153846 553.683322 147.605769 553.506177 150.057692 553.280720 152.509615 553.103575 154.961538 552.765389 157.413462 552.338631 159.865385 551.976290 162.317308 551.412647 164.769231 550.840952 167.221154 550.357830 169.673077 549.866655 172.125000 549.303013 174.576923 548.827942 177.028846 548.240143 179.480769 547.636240 181.932692 547.064546 184.384615 546.621684 186.836538 546.315706 189.288462 545.961416 191.740385 545.591023 194.192308 545.132056 196.644231 544.842183 199.096154 544.656986 201.548077 544.479841 204.000000 544.359061 206.451923 544.222176 208.903846 544.069187 211.355769 543.956459 213.807692 543.714898 216.259615 543.433076 218.711538 543.070734 221.163462 542.748653 223.615385 542.410467 226.067308 541.975657 228.519231 541.548899 230.971154 541.210713 233.423077 540.800059 235.875000 540.421614 238.326923 540.019012 240.778846 539.704982 243.230769 539.495629 245.682692 539.246016 248.134615 539.020559 250.586538 538.811206 253.038462 538.529384 255.490385 538.360292 257.942308 538.215355 260.394231 538.102626 262.846154 537.965742 265.298077 537.861065 267.750000 537.796649 270.201923 537.732233 272.653846 537.603400 275.105769 537.530932 277.557692 537.394047 280.009615 537.257162 282.461538 537.176642 284.913462 537.080017 287.365385 537.007549 289.817308 536.838456 292.269231 536.685468 294.721154 536.588843 297.173077 536.395594 299.625000 536.234553 302.076923 536.089617 304.528846 535.920524 306.980769 535.711171 309.432692 535.582338 311.884615 535.485714 314.336538 535.413245 316.788462 535.260257 319.240385 535.147528 321.692308 535.058956 324.144231 534.954279 326.596154 534.865707 329.048077 534.801290 331.500000 534.688562 333.951923 534.583885 336.403846 534.479209 338.855769 534.390636 341.307692 534.310116 343.759615 534.124919 346.211538 533.988034 348.663462 533.826994 351.115385 533.690109 353.567308 533.561276 356.019231 533.432444 358.471154 533.295559 360.923077 533.198935 363.375000 533.078154 365.826923 532.941269 368.278846 532.748020 370.730769 532.611136 373.182692 532.458147 375.634615 532.369575 378.086538 532.281002 380.538462 532.192430 382.990385 532.087753 385.442308 531.942817 387.894231 531.870348 390.346154 531.765672 392.798077 531.564371 395.250000 531.363070 397.701923 530.984624 400.153846 530.565918 402.605769 530.082796 405.057692 529.696298 407.509615 529.253436 409.961538 528.858886 412.413462 528.271087 414.865385 527.796016 417.317308 527.538351 419.769231 527.248478 422.221154 526.934448 424.673077 526.596263 427.125000 526.233921 429.576923 486.134767 432.028846 467.083643 434.480769 456.785085 436.932692 449.183960 439.384615 442.661808 441.836538 437.194474 444.288462 431.026612 446.740385 424.995635 449.192308 416.259173 451.644231 403.528899 454.096154 386.772606 456.548077 365.442755 459.000000 347.116314 461.451923 330.971976 463.903846 318.507420 466.355769 307.540543 468.807692 296.324052 471.259615 285.743673 473.711538 275.646416 476.163462 267.513857 478.615385 261.321839 481.067308 255.943077 483.519231 250.966917 485.971154 246.449723 488.423077 242.625004 490.875000 239.259252 493.326923 237.020785 495.778846 235.587522 498.230769 234.403873 500.682692 233.099442 503.134615 231.859428 505.586538 230.305385 508.038462 228.219907 510.490385 225.498318 512.942308 221.850744 515.394231 217.720048 517.846154 213.581300 520.298077 209.233199 522.750000 205.376272 525.201923 201.648178 527.653846 197.928136 530.105769 194.119522 532.557692 190.206231 535.009615 187.106196 537.461538 184.175254 539.913462 181.904579 542.365385 179.561435 544.817308 177.508165 547.269231 175.487104 549.721154 174.110205 552.173077 172.910451 554.625000 171.944206 557.076923 171.243679 559.528846 170.325747 561.980769 169.625219 564.432692 168.731443 566.884615 167.668574 569.336538 166.565444 571.788462 164.568539 574.240385 162.531373 576.692308 160.453947 579.144231 158.126907 581.596154 156.025325 584.048077 154.036472 586.500000 151.677224 588.951923 149.535382 591.403846 147.506268 593.855769 146.008589 596.307692 144.261296 598.759615 142.723357 601.211538 141.579967 603.663462 140.444630 606.115385 139.244876 608.567308 138.262527 611.019231 137.578104 613.471154 137.054722 615.923077 136.579651 618.375000 136.201205 620.826923 135.701979 623.278846 135.186648 625.730769 134.614954 628.182692 133.890270 630.634615 133.060910 633.086538 132.070509 635.538462 130.774131 637.990385 129.453597 640.442308 128.422936 642.894231 127.440587 645.346154 126.031480 647.798077 124.654581 650.250000 123.189110 652.701923 122.118189 655.153846 121.345193 657.605769 120.395053 660.057692 119.477120 662.509615 118.736333 664.961538 110.378316 667.413462 105.901383 669.865385 103.059013 672.317308 101.247304 674.769231 100.095863 677.221154 99.073254 679.673077 98.284154 682.125000 97.350117 684.576923 96.190624 687.028846 94.862037 689.480769 93.525399 691.932692 92.027720 694.384615 90.739393 696.836538 89.064569 699.288462 87.695723 701.740385 86.536229 704.192308 85.038550 706.644231 83.814640 709.096154 82.558522 711.548077 81.318508 714.000000 80.336159 716.451923 79.224978 718.903846 78.290941 721.355769 77.099239 723.807692 76.229619 726.259615 75.432467 728.711538 74.933241 731.163462 74.337390 733.615385 73.975048 736.067308 73.604654 738.519231 73.314781 740.971154 72.992699 743.423077 72.662566 745.875000 72.276068 748.326923 71.728529 750.778846 71.148783 753.230769 70.271110 755.682692 69.441750 758.134615 68.604338 760.586538 68.016539 763.038462 67.211336 765.490385 66.543016 767.942308 65.914957 770.394231 65.101701 772.846154 64.377018 775.298077 63.595970 777.750000 63.056483 780.201923 62.452580 782.653846 61.760105 785.105769 61.172306 787.557692 60.761652 790.009615 60.310738 792.461538 59.867876 794.913462 59.255921 797.365385 58.700330 799.817308 58.032011 802.269231 57.089923 804.721154 55.688868 807.173077 53.683910 809.625000 51.244142 812.076923 48.425929 814.528846 45.414466 816.980769 43.425612 819.432692 41.485071 821.884615 39.222448 824.336538 36.943721 826.788462 34.769671 829.240385 32.869389 831.692308 31.581063 834.144231 30.373257 836.596154 29.181555 839.048077 27.925437 841.500000 26.951141 843.951923 26.153989 846.403846 25.477618 848.855769 25.058912 851.307692 24.736830 853.759615 24.318124 856.211538 23.955782 858.663462 23.601492 861.115385 23.190838 863.567308 22.691612 866.019231 21.644847 868.471154 20.565874 870.923077 19.374172 873.375000 18.311303 875.826923 17.216226 878.278846 16.402970 880.730769 15.485037 883.182692 14.333596 885.634615 13.391507 888.086538 12.634615 890.538462 12.634615 892.990385 12.634615 895.442308 12.634615 897.894231 12.634615 900.346154 12.634615" /></g></g><g class="titles"><text class="title plot_title" x="512.0" y="26">Election 6 Participation</text><text class="title" transform="rotate(-90 0.000000 374.500000)" x="0" y="400.5">Users</text></g><g class="plot overlay" transform="translate(86, 46)"><g class="series serie-0 color-0" /><g class="series serie-1 color-1" /></g><g class="plot text-overlay" transform="translate(86, 46)"><g class="series serie-0 color-0" /><g class="series serie-1 color-1" /></g><g class="plot tooltip-overlay" transform="translate(86, 46)"><g class="tooltip" style="opacity: 0" transform="translate(0 0)"><a><rect class="tooltip-box" height="0" rx="0" ry="0" width="0" /><text class="text"><tspan class="label" /><tspan class="value" /></text></a></g></g><g class="legends" transform="translate(96, 713)"><g class="legend reactive activate-serie" id="activate-serie-0"><rect class="color-0 reactive" height="12" width="12" x="0.0" y="1.0" /><text x="17.0" y="11.2">constituents</text></g><g class="legend reactive activate-serie" id="activate-serie-1"><rect class="color-1 reactive" height="12" width="12" x="459.0" y="1.0" /><text x="476.0" y="11.2">caucus</text></g></g></g></svg>