<?xml version='1.0' encoding='utf-8'?>
<svg xmlns:xlink="http://www.w3.org/1999/xlink" class="pygal-chart" id="chart-f335eb9c-e20a-4c22-8b80-b34878c293d2" viewBox="0 0 1024 768" xmlns="http://www.w3.org/2000/svg"><!--Generated with pygal 1.7.0 (etree) ©Kozea 2011-2014 on 2015-11-20--><!--http://pygal.org--><!--http://github.com/Kozea/pygal--><defs><style type="text/css">#chart-f335eb9c-e20a-4c22-8b80-b34878c293d2 .title{font-family:"monospace";font-size:16px}#chart-f335eb9c-e20a-4c22-8b80-b34878c293d2 .legends .legend text{font-family:"monospace";font-size:14px}#chart-f335eb9c-e20a-4c22-8b80-b34878c293d2 .axis text{font-family:"monospace";font-size:10px}#chart-f335eb9c-e20a-4c22-8b80-b34878c293d2 .axis text.major{font-family:"monospace";font-size:10px}#chart-f335eb9c-e20a-4c22-8b80-b34878c293d2 .series text{font-family:"monospace";font-size:8px}#chart-f335eb9c-e20a-4c22-8b80-b34878c293d2 .tooltip text{font-family:"monospace";font-size:16px}#chart-f335eb9c-e20a-4c22-8b80-b34878c293d2 text.no_data{font-size:64px}
#chart-f335eb9c-e20a-4c22-8b80-b34878c293d2{background-color:black}#chart-f335eb9c-e20a-4c22-8b80-b34878c293d2 path,#chart-f335eb9c-e20a-4c22-8b80-b34878c293d2 line,#chart-f335eb9c-e20a-4c22-8b80-b34878c293d2 rect,#chart-f335eb9c-e20a-4c22-8b80-b34878c293d2 circle{-webkit-transition:250ms;-moz-transition:250ms;transition:250ms}#chart-f335eb9c-e20a-4c22-8b80-b34878c293d2 .graph &gt; .background{fill:black}#chart-f335eb9c-e20a-4c22-8b80-b34878c293d2 .plot &gt; .background{fill:#111}#chart-f335eb9c-e20a-4c22-8b80-b34878c293d2 .graph{fill:#999}#chart-f335eb9c-e20a-4c22-8b80-b34878c293d2 text.no_data{fill:#eee}#chart-f335eb9c-e20a-4c22-8b80-b34878c293d2 .title{fill:#eee}#chart-f335eb9c-e20a-4c22-8b80-b34878c293d2 .legends .legend text{fill:#999}#chart-f335eb9c-e20a-4c22-8b80-b34878c293d2 .legends .legend:hover text{fill:#eee}#chart-f335eb9c-e20a-4c22-8b80-b34878c293d2 .axis .line{stroke:#eee}#chart-f335eb9c-e20a-4c22-8b80-b34878c293d2 .axis .guide.line{stroke:#555}#chart-f335eb9c-e20a-4c22-8b80-b34878c293d2 .axis .major.line{stroke:#999}#chart-f335eb9c-e20a-4c22-8b80-b34878c293d2 .axis text.major{stroke:#eee;fill:#eee}#chart-f335eb9c-e20a-4c22-8b80-b34878c293d2 .axis.y .guides:hover .guide.line,#chart-f335eb9c-e20a-4c22-8b80-b34878c293d2 .line-graph .axis.x .guides:hover .guide.line,#chart-f335eb9c-e20a-4c22-8b80-b34878c293d2 .stackedline-graph .axis.x .guides:hover .guide.line,#chart-f335eb9c-e20a-4c22-8b80-b34878c293d2 .xy-graph .axis.x .guides:hover .guide.line{stroke:#eee}#chart-f335eb9c-e20a-4c22-8b80-b34878c293d2 .axis .guides:hover text{fill:#eee}#chart-f335eb9c-e20a-4c22-8b80-b34878c293d2 .reactive{fill-opacity:.8}#chart-f335eb9c-e20a-4c22-8b80-b34878c293d2 .reactive.active,#chart-f335eb9c-e20a-4c22-8b80-b34878c293d2 .active .reactive{fill-opacity:.4}#chart-f335eb9c-e20a-4c22-8b80-b34878c293d2 .series{stroke-width:1.0;stroke-linejoin:round;stroke-linecap:round;stroke-dasharray:0,0}#chart-f335eb9c-e20a-4c22-8b80-b34878c293d2 .series text{fill:#eee}#chart-f335eb9c-e20a-4c22-8b80-b34878c293d2 .tooltip rect{fill:#111;stroke:#eee}#chart-f335eb9c-e20a-4c22-8b80-b34878c293d2 .tooltip text{fill:#eee}#chart-f335eb9c-e20a-4c22-8b80-b34878c293d2 .map-element{fill:#999;stroke:#555 !important;opacity:.9;stroke-width:3;-webkit-transition:250ms;-moz-transition:250ms;-o-transition:250ms;transition:250ms}#chart-f335eb9c-e20a-4c22-8b80-b34878c293d2 .map-element:hover{opacity:1;stroke-width:10}#chart-f335eb9c-e20a-4c22-8b80-b34878c293d2 .color-0,#chart-f335eb9c-e20a-4c22-8b80-b34878c293d2 .color-0 a:visited{stroke:#ff5995;fill:#ff5995}#chart-f335eb9c-e20a-4c22-8b80-b34878c293d2 .color-1,#chart-f335eb9c-e20a-4c22-8b80-b34878c293d2 .color-1 a:visited{stroke:#b6e354;fill:#b6e354}#chart-f335eb9c-e20a-4c22-8b80-b34878c293d2 .color-2,#chart-f335eb9c-e20a-4c22-8b80-b34878c293d2 .color-2 a:visited{stroke:#feed6c;fill:#feed6c}#chart-f335eb9c-e20a-4c22-8b80-b34878c293d2 .color-3,#chart-f335eb9c-e20a-4c22-8b80-b34878c293d2 .color-3 a:visited{stroke:#8cedff;fill:#8cedff}#chart-f335eb9c-e20a-4c22-8b80-b34878c293d2 .color-4,#chart-f335eb9c-e20a-4c22-8b80-b34878c293d2 .color-4 a:visited{stroke:#9e6ffe;fill:#9e6ffe}#chart-f335eb9c-e20a-4c22-8b80-b34878c293d2 .color-5,#chart-f335eb9c-e20a-4c22-8b80-b34878c293d2 .color-5 a:visited{stroke:#899ca1;fill:#899ca1}#chart-f335eb9c-e20a-4c22-8b80-b34878c293d2 .color-6,#chart-f335eb9c-e20a-4c22-8b80-b34878c293d2 .color-6 a:visited{stroke:#f8f8f2;fill:#f8f8f2}#chart-f335eb9c-e20a-4c22-8b80-b34878c293d2 .color-7,#chart-f335eb9c-e20a-4c22-8b80-b34878c293d2 .color-7 a:visited{stroke:#bf4646;fill:#bf4646}#chart-f335eb9c-e20a-4c22-8b80-b34878c293d2 .color-8,#chart-f335eb9c-e20a-4c22-8b80-b34878c293d2 .color-8 a:visited{stroke:#516083;fill:#516083}#chart-f335eb9c-e20a-4c22-8b80-b34878c293d2 .color-9,#chart-f335eb9c-e20a-4c22-8b80-b34878c293d2 .color-9 a:visited{stroke:#f92672;fill:#f92672}#chart-f335eb9c-e20a-4c22-8b80-b34878c293d2 .color-10,#chart-f335eb9c-e20a-4c22-8b80-b34878c293d2 .color-10 a:visited{stroke:#82b414;fill:#82b414}#chart-f335eb9c-e20a-4c22-8b80-b34878c293d2 .color-11,#chart-f335eb9c-e20a-4c22-8b80-b34878c293d2 .color-11 a:visited{stroke:#fd971f;fill:#fd971f}#chart-f335eb9c-e20a-4c22-8b80-b34878c293d2 .color-12,#chart-f335eb9c-e20a-4c22-8b80-b34878c293d2 .color-12 a:visited{stroke:#56c2d6;fill:#56c2d6}#chart-f335eb9c-e20a-4c22-8b80-b34878c293d2 .color-13,#chart-f335eb9c-e20a-4c22-8b80-b34878c293d2 .color-13 a:visited{stroke:#808384;fill:#808384}#chart-f335eb9c-e20a-4c22-8b80-b34878c293d2 .color-14,#chart-f335eb9c-e20a-4c22-8b80-b34878c293d2 .color-14 a:visited{stroke:#8c54fe;fill:#8c54fe}#chart-f335eb9c-e20a-4c22-8b80-b34878c293d2 .color-15,#chart-f335eb9c-e20a-4c22-8b80-b34878c293d2 .color-15 a:visited{stroke:#465457;fill:#465457}
#chart-f335eb9c-e20a-4c22-8b80-b34878c293d2 text.no_data{text-anchor:middle}#chart-f335eb9c-e20a-4c22-8b80-b34878c293d2 .guide.line{fill-opacity:0}#chart-f335eb9c-e20a-4c22-8b80-b34878c293d2 .centered{text-anchor:middle}#chart-f335eb9c-e20a-4c22-8b80-b34878c293d2 .title{text-anchor:middle}#chart-f335eb9c-e20a-4c22-8b80-b34878c293d2 .legends .legend text{fill-opacity:1}#chart-f335eb9c-e20a-4c22-8b80-b34878c293d2 .axis.x text{text-anchor:middle}#chart-f335eb9c-e20a-4c22-8b80-b34878c293d2 .axis.x:not(.web) text[transform]{text-anchor:start}#chart-f335eb9c-e20a-4c22-8b80-b34878c293d2 .axis.y text{text-anchor:end}#chart-f335eb9c-e20a-4c22-8b80-b34878c293d2 .axis.y2 text{text-anchor:start}#chart-f335eb9c-e20a-4c22-8b80-b34878c293d2 .axis.y .logarithmic text:not(.major),#chart-f335eb9c-e20a-4c22-8b80-b34878c293d2 .axis.y2 .logarithmic text:not(.major){font-size:50%}#chart-f335eb9c-e20a-4c22-8b80-b34878c293d2 .axis .guide.line{stroke-dasharray:4,4}#chart-f335eb9c-e20a-4c22-8b80-b34878c293d2 .axis .major.guide.line{stroke-dasharray:6,6}#chart-f335eb9c-e20a-4c22-8b80-b34878c293d2 .axis text.major{stroke-width:0.5px}#chart-f335eb9c-e20a-4c22-8b80-b34878c293d2 .horizontal .axis.y .guide.line,#chart-f335eb9c-e20a-4c22-8b80-b34878c293d2 .horizontal .axis.y2 .guide.line,#chart-f335eb9c-e20a-4c22-8b80-b34878c293d2 .vertical .axis.x .guide.line{opacity:0}#chart-f335eb9c-e20a-4c22-8b80-b34878c293d2 .horizontal .axis.always_show .guide.line,#chart-f335eb9c-e20a-4c22-8b80-b34878c293d2 .vertical .axis.always_show .guide.line{opacity:1 !important}#chart-f335eb9c-e20a-4c22-8b80-b34878c293d2 .axis.y .guides:hover .guide.line,#chart-f335eb9c-e20a-4c22-8b80-b34878c293d2 .axis.y2 .guides:hover .guide.line,#chart-f335eb9c-e20a-4c22-8b80-b34878c293d2 .axis.x .guides:hover .guide.line{opacity:1}#chart-f335eb9c-e20a-4c22-8b80-b34878c293d2 .axis .guides:hover text{opacity:1}#chart-f335eb9c-e20a-4c22-8b80-b34878c293d2 .nofill{fill:none}#chart-f335eb9c-e20a-4c22-8b80-b34878c293d2 .subtle-fill{fill-opacity:.2}#chart-f335eb9c-e20a-4c22-8b80-b34878c293d2 .dot{stroke-width:1px;fill-opacity:1}#chart-f335eb9c-e20a-4c22-8b80-b34878c293d2 .dot.active{stroke-width:5px}#chart-f335eb9c-e20a-4c22-8b80-b34878c293d2 .series text{stroke:none}#chart-f335eb9c-e20a-4c22-8b80-b34878c293d2 .series text.active{opacity:1}#chart-f335eb9c-e20a-4c22-8b80-b34878c293d2 .tooltip rect{fill-opacity:0.8}#chart-f335eb9c-e20a-4c22-8b80-b34878c293d2 .tooltip text{fill-opacity:1}#chart-f335eb9c-e20a-4c22-8b80-b34878c293d2 .tooltip text tspan.label{fill-opacity:.8}</style><script type="text/javascript">window.config = {"legend_font_size": 14, "tooltip_font_size": 16, "tooltip_border_radius": 0, "no_data_font_size": 64, "style": {"foreground_dark": "#555", "colors": ["#ff5995", "#b6e354", "#feed6c", "#8cedff", "#9e6ffe", "#899ca1", "#f8f8f2", "#bf4646", "#516083", "#f92672", "#82b414", "#fd971f", "#56c2d6", "#808384", "#8c54fe", "#465457"], "stroke_width": 1.0, "stroke_dasharray": "0,0", "foreground_light": "#eee", "opacity_hover": ".4", "font_family": "monospace", "stroke_style": "round", "transition": "250ms", "foreground": "#999", "opacity": ".8", "background": "black", "plot_background": "#111"}, "order_min": null, "x_label_rotation": 0, "logarithmic": false, "show_x_labels": true, "x_title": null, "x_label_format": "%Y-%m-%d %H:%M:%S.%f", "show_y_guides": true, "margin_bottom": null, "title": "Election 1 Participation", "fill": false, "pretty_print": false, "height": 768, "major_label_font_size": 10, "y_labels_major": null, "margin": 20, "width": 1024, "title_font_size": 16, "inner_radius": 0, "show_dots": false, "x_labels": null, "range": null, "js": ["http://kozea.github.io/pygal.js/javascripts/svg.jquery.js", "http://kozea.github.io/pygal.js/javascripts/pygal-tooltips.js"], "missing_value_fill_truncation": "x", "interpolation_precision": 250, "y_title": "Users", "half_pie": false, "spacing": 10, "y_labels": null, "show_minor_x_labels": true, "css": ["style.css", "graph.css"], "stroke": true, "show_legend": true, "y_labels_major_every": null, "no_prefix": false, "y_label_rotation": 0, "zero": 0, "print_values": false, "show_x_guides": false, "human_readable": false, "value_font_size": 8, "strict": false, "rounded_bars": null, "label_font_size": 10, "no_data_text": "No data", "print_zeroes": false, "legend_box_size": 12, "margin_right": null, "dots_size": 2.5, "x_labels_major": null, "legend_at_bottom_columns": null, "truncate_label": null, "stack_from_top": false, "x_labels_major_every": null, "interpolation_parameters": {}, "show_minor_y_labels": true, "x_labels_major_count": null, "y_labels_major_count": null, "truncate_legend": null, "legend_at_bottom": true, "show_only_major_dots": false, "margin_left": null, "xrange": null, "explicit_size": false, "interpolate": null, "x_value_formatter": null, "mode": null, "disable_xml_declaration": false, "margin_top": null, "include_x_axis": false, "show_y_labels": true}</script><script type="text/javascript" xlink:href="http://kozea.github.io/pygal.js/javascripts/svg.jquery.js" /><script type="text/javascript" xlink:href="http://kozea.github.io/pygal.js/javascripts/pygal-tooltips.js" /></defs><title>Election 1 Participation</title><g class="graph line-graph vertical"><rect class="background" height="768" width="1024" x="0" y="0" /><g class="plot" transform="translate(86, 46)"><rect class="background" height="657.0" width="918.0" x="0" y="0" /><g class="axis y"><path class="line" d="M0.000000 657.000000 h918.000000" /><g class="guides"><path class="major guide line" d="M0.000000 632.252861 h918.000000" /><text class="major" x="-5" y="635.752860775588">5000</text></g><g class="guides"><path class="guide line" d="M0.000000 562.640655 h918.000000" /><text class="" x="-5" y="566.1406547997457">6000</text></g><g class="guides"><path class="guide line" d="M0.000000 493.028449 h918.000000" /><text class="" x="-5" y="496.5284488239034">7000</text></g><g class="guides"><path class="guide line" d="M0.000000 423.416243 h918.000000" /><text class="" x="-5" y="426.916242848061">8000</text></g><g class="guides"><path class="guide line" d="M0.000000 353.804037 h918.000000" /><text class="" x="-5" y="357.3040368722187">9000</text></g><g class="guides"><path class="major guide line" d="M0.000000 284.191831 h918.000000" /><text class="major" x="-5" y="287.69183089637636">10000</text></g><g class="guides"><path class="guide line" d="M0.000000 214.579625 h918.000000" /><text class="" x="-5" y="218.079624920534">11000</text></g><g class="guides"><path class="guide line" d="M0.000000 144.967419 h918.000000" /><text class="" x="-5" y="148.46741894469164">12000</text></g><g class="guides"><path class="guide line" d="M0.000000 75.355213 h918.000000" /><text class="" x="-5" y="78.85521296884929">13000</text></g></g><g class="series serie-0 color-0"><path class="line reactive nofill" d="M17.653846 644.365385 L20.105769 644.365385 22.557692 644.365385 25.009615 644.365385 27.461538 644.365385 29.913462 644.365385 32.365385 644.365385 34.817308 644.365385 37.269231 644.365385 39.721154 644.365385 42.173077 644.365385 44.625000 644.365385 47.076923 644.365385 49.528846 644.365385 51.980769 644.365385 54.432692 644.365385 56.884615 644.365385 59.336538 644.365385 61.788462 644.365385 64.240385 644.365385 66.692308 644.365385 69.144231 644.365385 71.596154 644.365385 74.048077 644.365385 76.500000 644.365385 78.951923 644.365385 81.403846 644.365385 83.855769 644.365385 86.307692 644.365385 88.759615 644.365385 91.211538 644.365385 93.663462 644.365385 96.115385 644.365385 98.567308 644.365385 101.019231 644.365385 103.471154 644.365385 105.923077 644.365385 108.375000 644.365385 110.826923 644.365385 113.278846 644.365385 115.730769 644.365385 118.182692 644.365385 120.634615 644.365385 123.086538 644.365385 125.538462 644.365385 127.990385 644.365385 130.442308 644.365385 132.894231 644.365385 135.346154 644.365385 137.798077 644.365385 140.250000 644.365385 142.701923 644.365385 145.153846 644.365385 147.605769 644.365385 150.057692 644.365385 152.509615 644.365385 154.961538 644.365385 157.413462 644.365385 159.865385 644.365385 162.317308 644.365385 164.769231 644.365385 167.221154 644.365385 169.673077 644.365385 172.125000 644.365385 174.576923 644.365385 177.028846 644.365385 179.480769 644.365385 181.932692 644.365385 184.384615 644.365385 186.836538 644.365385 189.288462 644.365385 191.740385 644.365385 194.192308 644.365385 196.644231 644.365385 199.096154 644.365385 201.548077 644.365385 204.000000 644.365385 206.451923 644.365385 208.903846 644.365385 211.355769 644.365385 213.807692 644.365385 216.259615 644.365385 218.711538 644.365385 221.163462 644.365385 223.615385 644.365385 226.067308 644.365385 228.519231 644.365385 230.971154 644.365385 233.423077 644.365385 235.875000 644.365385 238.326923 644.365385 240.778846 644.365385 243.230769 644.365385 245.682692 644.365385 248.134615 644.365385 250.586538 644.365385 253.038462 644.365385 255.490385 644.365385 257.942308 644.365385 260.394231 644.365385 262.846154 644.365385 265.298077 644.365385 267.750000 644.365385 270.201923 644.365385 272.653846 644.365385 275.105769 644.365385 277.557692 644.365385 280.009615 644.365385 282.461538 644.365385 284.913462 644.365385 287.365385 644.365385 289.817308 644.365385 292.269231 644.365385 294.721154 644.365385 297.173077 644.365385 299.625000 644.365385 302.076923 644.365385 304.528846 644.365385 306.980769 644.365385 309.432692 644.365385 311.884615 644.365385 314.336538 644.365385 316.788462 644.365385 319.240385 644.365385 321.692308 644.365385 324.144231 644.365385 326.596154 644.365385 329.048077 644.365385 331.500000 644.365385 333.951923 644.365385 336.403846 644.365385 338.855769 644.365385 341.307692 644.365385 343.759615 644.365385 346.211538 644.365385 348.663462 644.365385 351.115385 644.365385 353.567308 644.365385 356.019231 644.365385 358.471154 644.365385 360.923077 644.365385 363.375000 644.365385 365.826923 644.365385 368.278846 644.365385 370.730769 644.365385 373.182692 644.365385 375.634615 644.365385 378.086538 644.365385 380.538462 644.365385 382.990385 644.365385 385.442308 644.365385 387.894231 644.365385 390.346154 644.365385 392.798077 644.365385 395.250000 644.365385 397.701923 644.365385 400.153846 644.365385 402.605769 644.365385 405.057692 644.365385 407.509615 644.365385 409.961538 644.365385 412.413462 644.365385 414.865385 644.365385 417.317308 644.365385 419.769231 644.365385 422.221154 644.365385 424.673077 644.365385 427.125000 644.365385 429.576923 644.365385 432.028846 644.365385 434.480769 644.365385 436.932692 644.365385 439.384615 644.365385 441.836538 644.365385 444.288462 644.365385 446.740385 644.365385 449.192308 644.365385 451.644231 644.365385 454.096154 644.365385 456.548077 644.365385 459.000000 644.365385 461.451923 644.365385 463.903846 644.365385 466.355769 644.365385 468.807692 644.365385 471.259615 644.365385 473.711538 644.365385 476.163462 644.365385 478.615385 644.365385 481.067308 644.365385 483.519231 644.365385 485.971154 644.365385 488.423077 644.365385 490.875000 644.365385 493.326923 644.365385 495.778846 644.365385 498.230769 644.365385 500.682692 644.365385 503.134615 644.365385 505.586538 644.365385 508.038462 644.365385 510.490385 644.365385 512.942308 644.365385 515.394231 644.365385 517.846154 644.365385 520.298077 644.365385 522.750000 644.365385 525.201923 644.365385 527.653846 644.365385 530.105769 644.365385 532.557692 644.365385 535.009615 644.365385 537.461538 644.365385 539.913462 644.365385 542.365385 644.365385 544.817308 644.365385 547.269231 644.365385 549.721154 644.365385 552.173077 644.365385 554.625000 644.365385 557.076923 644.365385 559.528846 644.365385 561.980769 644.365385 564.432692 644.365385 566.884615 644.365385 569.336538 644.365385 571.788462 644.365385 574.240385 644.365385 576.692308 644.365385 579.144231 644.365385 581.596154 644.365385 584.048077 644.365385 586.500000 644.365385 588.951923 644.365385 591.403846 644.365385 593.855769 644.365385 596.307692 644.365385 598.759615 644.365385 601.211538 644.365385 603.663462 644.365385 606.115385 644.365385 608.567308 644.365385 611.019231 644.365385 613.471154 644.365385 615.923077 644.365385 618.375000 644.365385 620.826923 644.365385 623.278846 644.365385 625.730769 644.365385 628.182692 644.365385 630.634615 644.365385 633.086538 644.365385 635.538462 644.365385 637.990385 644.365385 640.442308 644.365385 642.894231 644.365385 645.346154 644.365385 647.798077 644.365385 650.250000 644.365385 652.701923 644.365385 655.153846 644.365385 657.605769 644.365385 660.057692 644.365385 662.509615 644.365385 664.961538 644.365385 667.413462 644.365385 669.865385 644.365385 672.317308 644.365385 674.769231 644.365385 677.221154 644.365385 679.673077 644.365385 682.125000 644.365385 684.576923 644.365385 687.028846 644.365385 689.480769 644.365385 691.932692 644.365385 694.384615 644.365385 696.836538 644.365385 699.288462 644.365385 701.740385 644.365385 704.192308 644.365385 706.644231 644.365385 709.096154 644.365385 711.548077 644.365385 714.000000 644.365385 716.451923 644.365385 718.903846 644.365385 721.355769 644.365385 723.807692 644.365385 726.259615 644.365385 728.711538 644.365385 731.163462 644.365385 733.615385 644.365385 736.067308 644.365385 738.519231 644.365385 740.971154 644.365385 743.423077 644.365385 745.875000 644.365385 748.326923 644.365385 750.778846 644.365385 753.230769 644.365385 755.682692 644.365385 758.134615 644.365385 760.586538 644.365385 763.038462 644.365385 765.490385 644.365385 767.942308 644.365385 770.394231 644.365385 772.846154 644.365385 775.298077 644.365385 777.750000 644.365385 780.201923 644.365385 782.653846 644.365385 785.105769 644.365385 787.557692 644.365385 790.009615 644.365385 792.461538 644.365385 794.913462 644.365385 797.365385 644.365385 799.817308 644.365385 802.269231 644.365385 804.721154 644.365385 807.173077 644.365385 809.625000 644.365385 812.076923 644.365385 814.528846 644.365385 816.980769 644.365385 819.432692 644.365385 821.884615 644.365385 824.336538 644.365385 826.788462 644.365385 829.240385 644.365385 831.692308 644.365385 834.144231 644.365385 836.596154 644.365385 839.048077 644.365385 841.500000 644.365385 843.951923 644.365385 846.403846 644.365385 848.855769 644.365385 851.307692 644.365385 853.759615 644.365385 856.211538 644.365385 858.663462 644.365385 861.115385 644.365385 863.567308 644.365385 866.019231 644.365385 868.471154 644.365385 870.923077 644.365385 873.375000 644.365385 875.826923 644.365385 878.278846 644.365385 880.730769 644.365385 883.182692 644.365385 885.634615 644.365385 888.086538 644.365385 890.538462 644.365385 892.990385 644.365385 895.442308 644.365385 897.894231 644.365385 900.346154 644.365385" /></g><g class="series serie-1 color-1"><path class="line reactive nofill" d="M17.653846 12.913064 L20.105769 12.913064 22.557692 12.913064 25.009615 12.913064 27.461538 12.913064 29.913462 12.913064 32.365385 12.913064 34.817308 12.913064 37.269231 12.913064 39.721154 12.913064 42.173077 12.913064 44.625000 12.913064 47.076923 12.913064 49.528846 12.913064 51.980769 12.913064 54.432692 12.913064 56.884615 12.913064 59.336538 12.913064 61.788462 12.913064 64.240385 12.913064 66.692308 12.913064 69.144231 12.913064 71.596154 12.913064 74.048077 12.843452 76.500000 12.843452 78.951923 12.843452 81.403846 12.843452 83.855769 12.843452 86.307692 12.843452 88.759615 12.843452 91.211538 12.843452 93.663462 12.843452 96.115385 12.843452 98.567308 12.843452 101.019231 12.843452 103.471154 12.843452 105.923077 12.843452 108.375000 12.843452 110.826923 12.843452 113.278846 12.843452 115.730769 12.843452 118.182692 12.843452 120.634615 12.843452 123.086538 12.843452 125.538462 12.843452 127.990385 12.843452 130.442308 12.843452 132.894231 12.843452 135.346154 12.843452 137.798077 12.843452 140.250000 12.843452 142.701923 12.843452 145.153846 12.843452 147.605769 12.843452 150.057692 12.843452 152.509615 12.843452 154.961538 12.843452 157.413462 12.843452 159.865385 12.843452 162.317308 12.843452 164.769231 12.843452 167.221154 12.843452 169.673077 12.843452 172.125000 12.843452 174.576923 12.843452 177.028846 12.843452 179.480769 12.843452 181.932692 12.843452 184.384615 12.843452 186.836538 12.843452 189.288462 12.843452 191.740385 12.843452 194.192308 12.843452 196.644231 12.843452 199.096154 12.843452 201.548077 12.843452 204.000000 12.843452 206.451923 12.843452 208.903846 12.843452 211.355769 12.843452 213.807692 12.843452 216.259615 12.843452 218.711538 12.843452 221.163462 12.843452 223.615385 12.843452 226.067308 12.773840 228.519231 12.773840 230.971154 12.773840 233.423077 12.773840 235.875000 12.773840 238.326923 12.773840 240.778846 12.773840 243.230769 12.773840 245.682692 12.773840 248.134615 12.773840 250.586538 12.773840 253.038462 12.773840 255.490385 12.773840 257.942308 12.773840 260.394231 12.773840 262.846154 12.773840 265.298077 12.773840 267.750000 12.773840 270.201923 12.773840 272.653846 12.773840 275.105769 12.773840 277.557692 12.773840 280.009615 12.773840 282.461538 12.773840 284.913462 12.773840 287.365385 12.773840 289.817308 12.773840 292.269231 12.773840 294.721154 12.773840 297.173077 12.773840 299.625000 12.773840 302.076923 12.773840 304.528846 12.773840 306.980769 12.773840 309.432692 12.773840 311.884615 12.773840 314.336538 12.773840 316.788462 12.773840 319.240385 12.773840 321.692308 12.773840 324.144231 12.773840 326.596154 12.773840 329.048077 12.773840 331.500000 12.773840 333.951923 12.773840 336.403846 12.773840 338.855769 12.773840 341.307692 12.773840 343.759615 12.773840 346.211538 12.773840 348.663462 12.773840 351.115385 12.773840 353.567308 12.773840 356.019231 12.773840 358.471154 12.773840 360.923077 12.773840 363.375000 12.773840 365.826923 12.773840 368.278846 12.773840 370.730769 12.773840 373.182692 12.773840 375.634615 12.773840 378.086538 12.773840 380.538462 12.773840 382.990385 12.773840 385.442308 12.773840 387.894231 12.773840 390.346154 12.773840 392.798077 12.773840 395.250000 12.773840 397.701923 12.773840 400.153846 12.773840 402.605769 12.773840 405.057692 12.773840 407.509615 12.773840 409.961538 12.773840 412.413462 12.773840 414.865385 12.773840 417.317308 12.773840 419.769231 12.773840 422.221154 12.773840 424.673077 12.773840 427.125000 12.773840 429.576923 12.773840 432.028846 12.773840 434.480769 12.773840 436.932692 12.773840 439.384615 12.773840 441.836538 12.773840 444.288462 12.773840 446.740385 12.773840 449.192308 12.773840 451.644231 12.773840 454.096154 12.773840 456.548077 12.773840 459.000000 12.773840 461.451923 12.773840 463.903846 12.773840 466.355769 12.773840 468.807692 12.773840 471.259615 12.773840 473.711538 12.773840 476.163462 12.773840 478.615385 12.773840 481.067308 12.773840 483.519231 12.773840 485.971154 12.773840 488.423077 12.773840 490.875000 12.773840 493.326923 12.773840 495.778846 12.773840 498.230769 12.773840 500.682692 12.773840 503.134615 12.773840 505.586538 12.773840 508.038462 12.773840 510.490385 12.773840 512.942308 12.773840 515.394231 12.773840 517.846154 12.773840 520.298077 12.773840 522.750000 12.773840 525.201923 12.773840 527.653846 12.773840 530.105769 12.773840 532.557692 12.773840 535.009615 12.773840 537.461538 12.773840 539.913462 12.773840 542.365385 12.773840 544.817308 12.773840 547.269231 12.773840 549.721154 12.773840 552.173077 12.773840 554.625000 12.773840 557.076923 12.773840 559.528846 12.773840 561.980769 12.773840 564.432692 12.773840 566.884615 12.773840 569.336538 12.773840 571.788462 12.773840 574.240385 12.773840 576.692308 12.704228 579.144231 12.704228 581.596154 12.704228 584.048077 12.704228 586.500000 12.704228 588.951923 12.704228 591.403846 12.704228 593.855769 12.704228 596.307692 12.704228 598.759615 12.704228 601.211538 12.704228 603.663462 12.704228 606.115385 12.704228 608.567308 12.704228 611.019231 12.704228 613.471154 12.704228 615.923077 12.704228 618.375000 12.704228 620.826923 12.704228 623.278846 12.704228 625.730769 12.704228 628.182692 12.704228 630.634615 12.704228 633.086538 12.704228 635.538462 12.704228 637.990385 12.704228 640.442308 12.704228 642.894231 12.704228 645.346154 12.704228 647.798077 12.704228 650.250000 12.704228 652.701923 12.704228 655.153846 12.704228 657.605769 12.704228 660.057692 12.704228 662.509615 12.704228 664.961538 12.704228 667.413462 12.704228 669.865385 12.704228 672.317308 12.704228 674.769231 12.704228 677.221154 12.704228 679.673077 12.704228 682.125000 12.704228 684.576923 12.704228 687.028846 12.704228 689.480769 12.704228 691.932692 12.704228 694.384615 12.704228 696.836538 12.704228 699.288462 12.704228 701.740385 12.704228 704.192308 12.704228 706.644231 12.704228 709.096154 12.704228 711.548077 12.704228 714.000000 12.704228 716.451923 12.704228 718.903846 12.704228 721.355769 12.704228 723.807692 12.704228 726.259615 12.704228 728.711538 12.704228 731.163462 12.704228 733.615385 12.704228 736.067308 12.704228 738.519231 12.704228 740.971154 12.704228 743.423077 12.704228 745.875000 12.704228 748.326923 12.704228 750.778846 12.704228 753.230769 12.704228 755.682692 12.704228 758.134615 12.704228 760.586538 12.704228 763.038462 12.704228 765.490385 12.704228 767.942308 12.704228 770.394231 12.704228 772.846154 12.634615 775.298077 12.634615 777.750000 12.634615 780.201923 12.634615 782.653846 12.634615 785.105769 12.634615 787.557692 12.634615 790.009615 12.634615 792.461538 12.634615 794.913462 12.634615 797.365385 12.634615 799.817308 12.634615 802.269231 12.634615 804.721154 12.634615 807.173077 12.634615 809.625000 12.634615 812.076923 12.634615 814.528846 12.634615 816.980769 12.634615 819.432692 12.634615 821.884615 12.634615 824.336538 12.634615 826.788462 12.634615 829.240385 12.634615 831.692308 12.634615 834.144231 12.634615 836.596154 12.634615 839.048077 12.634615 841.500000 12.634615 843.951923 12.634615 846.403846 12.634615 848.855769 12.634615 851.307692 12.634615 853.759615 12.634615 856.211538 12.634615 858.663462 12.634615 861.115385 12.634615 863.567308 12.634615 866.019231 12.634615 868.471154 12.634615 870.923077 12.634615 873.375000 12.634615 875.826923 12.634615 878.278846 12.634615 880.730769 12.634615 883.182692 12.634615 885.634615 12.634615 888.086538 12.634615 890.538462 12.634615 892.990385 12.634615 895.442308 12.634615 897.894231 12.634615 900.346154 12.634615" /></g></g><g class="titles"><text class="title plot_title" x="512.0" y="26">Election 1 Participation</text><text class="title" transform="rotate(-90 0.000000 374.500000)" x="0" y="400.5">Users</text></g><g class="plot overlay" transform="translate(86, 46)"><g class="series serie-0 color-0" /><g class="series serie-1 color-1" /></g><g class="plot text-overlay" transform="translate(86, 46)"><g class="series serie-0 color-0" /><g class="series serie-1 color-1" /></g><g class="plot tooltip-overlay" transform="translate(86, 46)"><g class="tooltip" style="opacity: 0" transform="translate(0 0)"><a><rect class="tooltip-box" height="0" rx="0" ry="0" width="0" /><text class="text"><tspan class="label" /><tspan class="value" /></text></a></g></g><g class="legends" transform="translate(96, 713)"><g class="legend reactive activate-serie" id="activate-serie-0"><rect class="color-0 reactive" height="12" width="12" x="0.0" y="1.0" /><text x="17.0" y="11.2">constituents</text></g><g class="legend reactive activate-serie" id="activate-serie-1"><rect class="color-1 reactive" height="12" width="12" x="459.0" y="1.0" /><text x="476.0" y="11.2">caucus</text></g></g></g></svg>