<?xml version='1.0' encoding='utf-8'?>
<svg xmlns:xlink="http://www.w3.org/1999/xlink" class="pygal-chart" id="chart-09da9325-74fe-4568-8cda-32d81c4cd14b" viewBox="0 0 1024 768" xmlns="http://www.w3.org/2000/svg"><!--Generated with pygal 1.7.0 (etree) ©Kozea 2011-2014 on 2018-03-26--><!--http://pygal.org--><!--http://github.com/Kozea/pygal--><defs><style type="text/css">#chart-09da9325-74fe-4568-8cda-32d81c4cd14b .title{font-family:"monospace";font-size:16px}#chart-09da9325-74fe-4568-8cda-32d81c4cd14b .legends .legend text{font-family:"monospace";font-size:14px}#chart-09da9325-74fe-4568-8cda-32d81c4cd14b .axis text{font-family:"monospace";font-size:10px}#chart-09da9325-74fe-4568-8cda-32d81c4cd14b .axis text.major{font-family:"monospace";font-size:10px}#chart-09da9325-74fe-4568-8cda-32d81c4cd14b .series text{font-family:"monospace";font-size:8px}#chart-09da9325-74fe-4568-8cda-32d81c4cd14b .tooltip text{font-family:"monospace";font-size:16px}#chart-09da9325-74fe-4568-8cda-32d81c4cd14b text.no_data{font-size:64px}
#chart-09da9325-74fe-4568-8cda-32d81c4cd14b{background-color:black}#chart-09da9325-74fe-4568-8cda-32d81c4cd14b path,#chart-09da9325-74fe-4568-8cda-32d81c4cd14b line,#chart-09da9325-74fe-4568-8cda-32d81c4cd14b rect,#chart-09da9325-74fe-4568-8cda-32d81c4cd14b circle{-webkit-transition:250ms;-moz-transition:250ms;transition:250ms}#chart-09da9325-74fe-4568-8cda-32d81c4cd14b .graph &gt; .background{fill:black}#chart-09da9325-74fe-4568-8cda-32d81c4cd14b .plot &gt; .background{fill:#111}#chart-09da9325-74fe-4568-8cda-32d81c4cd14b .graph{fill:#999}#chart-09da9325-74fe-4568-8cda-32d81c4cd14b text.no_data{fill:#eee}#chart-09da9325-74fe-4568-8cda-32d81c4cd14b .title{fill:#eee}#chart-09da9325-74fe-4568-8cda-32d81c4cd14b .legends .legend text{fill:#999}#chart-09da9325-74fe-4568-8cda-32d81c4cd14b .legends .legend:hover text{fill:#eee}#chart-09da9325-74fe-4568-8cda-32d81c4cd14b .axis .line{stroke:#eee}#chart-09da9325-74fe-4568-8cda-32d81c4cd14b .axis .guide.line{stroke:#555}#chart-09da9325-74fe-4568-8cda-32d81c4cd14b .axis .major.line{stroke:#999}#chart-09da9325-74fe-4568-8cda-32d81c4cd14b .axis text.major{stroke:#eee;fill:#eee}#chart-09da9325-74fe-4568-8cda-32d81c4cd14b .axis.y .guides:hover .guide.line,#chart-09da9325-74fe-4568-8cda-32d81c4cd14b .line-graph .axis.x .guides:hover .guide.line,#chart-09da9325-74fe-4568-8cda-32d81c4cd14b .stackedline-graph .axis.x .guides:hover .guide.line,#chart-09da9325-74fe-4568-8cda-32d81c4cd14b .xy-graph .axis.x .guides:hover .guide.line{stroke:#eee}#chart-09da9325-74fe-4568-8cda-32d81c4cd14b .axis .guides:hover text{fill:#eee}#chart-09da9325-74fe-4568-8cda-32d81c4cd14b .reactive{fill-opacity:.8}#chart-09da9325-74fe-4568-8cda-32d81c4cd14b .reactive.active,#chart-09da9325-74fe-4568-8cda-32d81c4cd14b .active .reactive{fill-opacity:.4}#chart-09da9325-74fe-4568-8cda-32d81c4cd14b .series{stroke-width:1.0;stroke-linejoin:round;stroke-linecap:round;stroke-dasharray:0,0}#chart-09da9325-74fe-4568-8cda-32d81c4cd14b .series text{fill:#eee}#chart-09da9325-74fe-4568-8cda-32d81c4cd14b .tooltip rect{fill:#111;stroke:#eee}#chart-09da9325-74fe-4568-8cda-32d81c4cd14b .tooltip text{fill:#eee}#chart-09da9325-74fe-4568-8cda-32d81c4cd14b .map-element{fill:#999;stroke:#555 !important;opacity:.9;stroke-width:3;-webkit-transition:250ms;-moz-transition:250ms;-o-transition:250ms;transition:250ms}#chart-09da9325-74fe-4568-8cda-32d81c4cd14b .map-element:hover{opacity:1;stroke-width:10}#chart-09da9325-74fe-4568-8cda-32d81c4cd14b .color-0,#chart-09da9325-74fe-4568-8cda-32d81c4cd14b .color-0 a:visited{stroke:#ff5995;fill:#ff5995}#chart-09da9325-74fe-4568-8cda-32d81c4cd14b .color-1,#chart-09da9325-74fe-4568-8cda-32d81c4cd14b .color-1 a:visited{stroke:#b6e354;fill:#b6e354}#chart-09da9325-74fe-4568-8cda-32d81c4cd14b .color-2,#chart-09da9325-74fe-4568-8cda-32d81c4cd14b .color-2 a:visited{stroke:#feed6c;fill:#feed6c}#chart-09da9325-74fe-4568-8cda-32d81c4cd14b .color-3,#chart-09da9325-74fe-4568-8cda-32d81c4cd14b .color-3 a:visited{stroke:#8cedff;fill:#8cedff}#chart-09da9325-74fe-4568-8cda-32d81c4cd14b .color-4,#chart-09da9325-74fe-4568-8cda-32d81c4cd14b .color-4 a:visited{stroke:#9e6ffe;fill:#9e6ffe}#chart-09da9325-74fe-4568-8cda-32d81c4cd14b .color-5,#chart-09da9325-74fe-4568-8cda-32d81c4cd14b .color-5 a:visited{stroke:#899ca1;fill:#899ca1}#chart-09da9325-74fe-4568-8cda-32d81c4cd14b .color-6,#chart-09da9325-74fe-4568-8cda-32d81c4cd14b .color-6 a:visited{stroke:#f8f8f2;fill:#f8f8f2}#chart-09da9325-74fe-4568-8cda-32d81c4cd14b .color-7,#chart-09da9325-74fe-4568-8cda-32d81c4cd14b .color-7 a:visited{stroke:#bf4646;fill:#bf4646}#chart-09da9325-74fe-4568-8cda-32d81c4cd14b .color-8,#chart-09da9325-74fe-4568-8cda-32d81c4cd14b .color-8 a:visited{stroke:#516083;fill:#516083}#chart-09da9325-74fe-4568-8cda-32d81c4cd14b .color-9,#chart-09da9325-74fe-4568-8cda-32d81c4cd14b .color-9 a:visited{stroke:#f92672;fill:#f92672}#chart-09da9325-74fe-4568-8cda-32d81c4cd14b .color-10,#chart-09da9325-74fe-4568-8cda-32d81c4cd14b .color-10 a:visited{stroke:#82b414;fill:#82b414}#chart-09da9325-74fe-4568-8cda-32d81c4cd14b .color-11,#chart-09da9325-74fe-4568-8cda-32d81c4cd14b .color-11 a:visited{stroke:#fd971f;fill:#fd971f}#chart-09da9325-74fe-4568-8cda-32d81c4cd14b .color-12,#chart-09da9325-74fe-4568-8cda-32d81c4cd14b .color-12 a:visited{stroke:#56c2d6;fill:#56c2d6}#chart-09da9325-74fe-4568-8cda-32d81c4cd14b .color-13,#chart-09da9325-74fe-4568-8cda-32d81c4cd14b .color-13 a:visited{stroke:#808384;fill:#808384}#chart-09da9325-74fe-4568-8cda-32d81c4cd14b .color-14,#chart-09da9325-74fe-4568-8cda-32d81c4cd14b .color-14 a:visited{stroke:#8c54fe;fill:#8c54fe}#chart-09da9325-74fe-4568-8cda-32d81c4cd14b .color-15,#chart-09da9325-74fe-4568-8cda-32d81c4cd14b .color-15 a:visited{stroke:#465457;fill:#465457}
#chart-09da9325-74fe-4568-8cda-32d81c4cd14b text.no_data{text-anchor:middle}#chart-09da9325-74fe-4568-8cda-32d81c4cd14b .guide.line{fill-opacity:0}#chart-09da9325-74fe-4568-8cda-32d81c4cd14b .centered{text-anchor:middle}#chart-09da9325-74fe-4568-8cda-32d81c4cd14b .title{text-anchor:middle}#chart-09da9325-74fe-4568-8cda-32d81c4cd14b .legends .legend text{fill-opacity:1}#chart-09da9325-74fe-4568-8cda-32d81c4cd14b .axis.x text{text-anchor:middle}#chart-09da9325-74fe-4568-8cda-32d81c4cd14b .axis.x:not(.web) text[transform]{text-anchor:start}#chart-09da9325-74fe-4568-8cda-32d81c4cd14b .axis.y text{text-anchor:end}#chart-09da9325-74fe-4568-8cda-32d81c4cd14b .axis.y2 text{text-anchor:start}#chart-09da9325-74fe-4568-8cda-32d81c4cd14b .axis.y .logarithmic text:not(.major),#chart-09da9325-74fe-4568-8cda-32d81c4cd14b .axis.y2 .logarithmic text:not(.major){font-size:50%}#chart-09da9325-74fe-4568-8cda-32d81c4cd14b .axis .guide.line{stroke-dasharray:4,4}#chart-09da9325-74fe-4568-8cda-32d81c4cd14b .axis .major.guide.line{stroke-dasharray:6,6}#chart-09da9325-74fe-4568-8cda-32d81c4cd14b .axis text.major{stroke-width:0.5px}#chart-09da9325-74fe-4568-8cda-32d81c4cd14b .horizontal .axis.y .guide.line,#chart-09da9325-74fe-4568-8cda-32d81c4cd14b .horizontal .axis.y2 .guide.line,#chart-09da9325-74fe-4568-8cda-32d81c4cd14b .vertical .axis.x .guide.line{opacity:0}#chart-09da9325-74fe-4568-8cda-32d81c4cd14b .horizontal .axis.always_show .guide.line,#chart-09da9325-74fe-4568-8cda-32d81c4cd14b .vertical .axis.always_show .guide.line{opacity:1 !important}#chart-09da9325-74fe-4568-8cda-32d81c4cd14b .axis.y .guides:hover .guide.line,#chart-09da9325-74fe-4568-8cda-32d81c4cd14b .axis.y2 .guides:hover .guide.line,#chart-09da9325-74fe-4568-8cda-32d81c4cd14b .axis.x .guides:hover .guide.line{opacity:1}#chart-09da9325-74fe-4568-8cda-32d81c4cd14b .axis .guides:hover text{opacity:1}#chart-09da9325-74fe-4568-8cda-32d81c4cd14b .nofill{fill:none}#chart-09da9325-74fe-4568-8cda-32d81c4cd14b .subtle-fill{fill-opacity:.2}#chart-09da9325-74fe-4568-8cda-32d81c4cd14b .dot{stroke-width:1px;fill-opacity:1}#chart-09da9325-74fe-4568-8cda-32d81c4cd14b .dot.active{stroke-width:5px}#chart-09da9325-74fe-4568-8cda-32d81c4cd14b .series text{stroke:none}#chart-09da9325-74fe-4568-8cda-32d81c4cd14b .series text.active{opacity:1}#chart-09da9325-74fe-4568-8cda-32d81c4cd14b .tooltip rect{fill-opacity:0.8}#chart-09da9325-74fe-4568-8cda-32d81c4cd14b .tooltip text{fill-opacity:1}#chart-09da9325-74fe-4568-8cda-32d81c4cd14b .tooltip text tspan.label{fill-opacity:.8}</style><script type="text/javascript">window.config = {"css": ["style.css", "graph.css"], "disable_xml_declaration": false, "dots_size": 2.5, "explicit_size": false, "fill": false, "half_pie": false, "height": 768, "human_readable": false, "include_x_axis": false, "inner_radius": 0, "interpolate": null, "interpolation_parameters": {}, "interpolation_precision": 250, "js": ["http://kozea.github.io/pygal.js/javascripts/svg.jquery.js", "http://kozea.github.io/pygal.js/javascripts/pygal-tooltips.js"], "label_font_size": 10, "legend_at_bottom": true, "legend_at_bottom_columns": null, "legend_box_size": 12, "legend_font_size": 14, "logarithmic": false, "major_label_font_size": 10, "margin": 20, "margin_bottom": null, "margin_left": null, "margin_right": null, "margin_top": null, "missing_value_fill_truncation": "x", "mode": null, "no_data_font_size": 64, "no_data_text": "No data", "no_prefix": false, "order_min": null, "pretty_print": false, "print_values": false, "print_zeroes": false, "range": null, "rounded_bars": null, "show_dots": false, "show_legend": true, "show_minor_x_labels": true, "show_minor_y_labels": true, "show_only_major_dots": false, "show_x_guides": false, "show_x_labels": true, "show_y_guides": true, "show_y_labels": true, "spacing": 10, "stack_from_top": false, "strict": false, "stroke": true, "style": {"background": "black", "colors": ["#ff5995", "#b6e354", "#feed6c", "#8cedff", "#9e6ffe", "#899ca1", "#f8f8f2", "#bf4646", "#516083", "#f92672", "#82b414", "#fd971f", "#56c2d6", "#808384", "#8c54fe", "#465457"], "font_family": "monospace", "foreground": "#999", "foreground_dark": "#555", "foreground_light": "#eee", "opacity": ".8", "opacity_hover": ".4", "plot_background": "#111", "stroke_dasharray": "0,0", "stroke_style": "round", "stroke_width": 1.0, "transition": "250ms"}, "title": "Election 10 Participation", "title_font_size": 16, "tooltip_border_radius": 0, "tooltip_font_size": 16, "truncate_label": null, "truncate_legend": null, "value_font_size": 8, "width": 1024, "x_label_format": "%Y-%m-%d %H:%M:%S.%f", "x_label_rotation": 0, "x_labels": null, "x_labels_major": null, "x_labels_major_count": null, "x_labels_major_every": null, "x_title": null, "x_value_formatter": null, "xrange": null, "y_label_rotation": 0, "y_labels": null, "y_labels_major": null, "y_labels_major_count": null, "y_labels_major_every": null, "y_title": "Users", "zero": 0}</script><script type="text/javascript" xlink:href="http://kozea.github.io/pygal.js/javascripts/svg.jquery.js" /><script type="text/javascript" xlink:href="http://kozea.github.io/pygal.js/javascripts/pygal-tooltips.js" /></defs><title>Election 10 Participation</title><g class="graph line-graph vertical"><rect class="background" height="768" width="1024" x="0" y="0" /><g class="plot" transform="translate(86, 46)"><rect class="background" height="657.0" width="918.0" x="0" y="0" /><g class="axis y"><g class="guides"><path class="axis major line" d="M0.000000 644.365385 h918.000000" /><text class="major" x="-5" y="647.8653846153846">0</text></g><g class="guides"><path class="guide line" d="M0.000000 571.452621 h918.000000" /><text class="" x="-5" y="574.9526206867162">10000</text></g><g class="guides"><path class="guide line" d="M0.000000 498.539857 h918.000000" /><text class="" x="-5" y="502.0398567580477">20000</text></g><g class="guides"><path class="guide line" d="M0.000000 425.627093 h918.000000" /><text class="" x="-5" y="429.12709282937925">30000</text></g><g class="guides"><path class="guide line" d="M0.000000 352.714329 h918.000000" /><text class="" x="-5" y="356.21432890071077">40000</text></g><g class="guides"><path class="major guide line" d="M0.000000 279.801565 h918.000000" /><text class="major" x="-5" y="283.30156497204234">50000</text></g><g class="guides"><path class="guide line" d="M0.000000 206.888801 h918.000000" /><text class="" x="-5" y="210.38880104337392">60000</text></g><g class="guides"><path class="guide line" d="M0.000000 133.976037 h918.000000" /><text class="" x="-5" y="137.4760371147055">70000</text></g><g class="guides"><path class="guide line" d="M0.000000 61.063273 h918.000000" /><text class="" x="-5" y="64.56327318603701">80000</text></g></g><g class="series serie-0 color-0"><path class="line reactive nofill" d="M17.653846 644.365385 L20.105769 644.365385 22.557692 644.365385 25.009615 644.365385 27.461538 644.365385 29.913462 644.365385 32.365385 644.365385 34.817308 644.365385 37.269231 644.365385 39.721154 644.365385 42.173077 644.365385 44.625000 644.365385 47.076923 644.365385 49.528846 644.365385 51.980769 644.365385 54.432692 644.365385 56.884615 644.365385 59.336538 644.365385 61.788462 644.365385 64.240385 644.365385 66.692308 644.365385 69.144231 644.365385 71.596154 644.365385 74.048077 644.365385 76.500000 644.365385 78.951923 644.365385 81.403846 644.365385 83.855769 644.365385 86.307692 644.365385 88.759615 644.365385 91.211538 644.365385 93.663462 644.365385 96.115385 644.365385 98.567308 644.365385 101.019231 644.365385 103.471154 644.365385 105.923077 644.365385 108.375000 644.365385 110.826923 644.365385 113.278846 644.365385 115.730769 644.365385 118.182692 644.365385 120.634615 644.365385 123.086538 644.365385 125.538462 644.365385 127.990385 644.365385 130.442308 644.365385 132.894231 644.365385 135.346154 644.365385 137.798077 644.365385 140.250000 644.365385 142.701923 644.365385 145.153846 644.365385 147.605769 644.365385 150.057692 644.365385 152.509615 644.365385 154.961538 644.365385 157.413462 644.365385 159.865385 644.365385 162.317308 644.365385 164.769231 644.365385 167.221154 644.365385 169.673077 644.365385 172.125000 644.365385 174.576923 644.365385 177.028846 644.365385 179.480769 644.365385 181.932692 644.365385 184.384615 644.365385 186.836538 644.365385 189.288462 644.365385 191.740385 644.365385 194.192308 644.365385 196.644231 644.365385 199.096154 644.365385 201.548077 644.365385 204.000000 644.365385 206.451923 644.365385 208.903846 644.365385 211.355769 644.365385 213.807692 644.365385 216.259615 644.365385 218.711538 644.365385 221.163462 644.365385 223.615385 644.365385 226.067308 644.365385 228.519231 644.365385 230.971154 644.365385 233.423077 644.365385 235.875000 644.365385 238.326923 644.365385 240.778846 644.365385 243.230769 644.365385 245.682692 644.365385 248.134615 644.365385 250.586538 644.365385 253.038462 644.365385 255.490385 644.365385 257.942308 644.365385 260.394231 644.365385 262.846154 644.365385 265.298077 644.365385 267.750000 644.365385 270.201923 644.365385 272.653846 644.365385 275.105769 644.365385 277.557692 644.365385 280.009615 644.365385 282.461538 644.365385 284.913462 644.365385 287.365385 644.365385 289.817308 644.365385 292.269231 644.365385 294.721154 644.365385 297.173077 644.365385 299.625000 644.365385 302.076923 644.365385 304.528846 644.365385 306.980769 644.365385 309.432692 644.365385 311.884615 644.365385 314.336538 644.365385 316.788462 644.365385 319.240385 644.365385 321.692308 644.365385 324.144231 644.365385 326.596154 644.365385 329.048077 644.365385 331.500000 644.365385 333.951923 644.365385 336.403846 644.365385 338.855769 644.365385 341.307692 644.365385 343.759615 644.365385 346.211538 644.365385 348.663462 644.365385 351.115385 644.365385 353.567308 644.365385 356.019231 644.365385 358.471154 644.365385 360.923077 644.365385 363.375000 644.365385 365.826923 644.365385 368.278846 644.365385 370.730769 644.365385 373.182692 644.365385 375.634615 644.365385 378.086538 644.365385 380.538462 644.365385 382.990385 644.365385 385.442308 644.365385 387.894231 644.365385 390.346154 644.365385 392.798077 644.365385 395.250000 644.365385 397.701923 644.365385 400.153846 644.365385 402.605769 644.365385 405.057692 644.365385 407.509615 644.365385 409.961538 644.365385 412.413462 644.365385 414.865385 644.365385 417.317308 644.365385 419.769231 644.365385 422.221154 644.365385 424.673077 644.365385 427.125000 644.365385 429.576923 644.365385 432.028846 644.365385 434.480769 644.365385 436.932692 644.365385 439.384615 644.365385 441.836538 644.365385 444.288462 644.365385 446.740385 644.365385 449.192308 644.365385 451.644231 644.365385 454.096154 644.365385 456.548077 644.365385 459.000000 644.365385 461.451923 644.365385 463.903846 644.365385 466.355769 644.365385 468.807692 644.365385 471.259615 644.365385 473.711538 644.365385 476.163462 644.365385 478.615385 644.365385 481.067308 644.365385 483.519231 644.365385 485.971154 644.365385 488.423077 644.365385 490.875000 644.365385 493.326923 644.365385 495.778846 644.365385 498.230769 644.365385 500.682692 644.365385 503.134615 644.365385 505.586538 644.365385 508.038462 644.365385 510.490385 644.365385 512.942308 644.365385 515.394231 644.365385 517.846154 644.365385 520.298077 644.365385 522.750000 644.365385 525.201923 644.365385 527.653846 644.365385 530.105769 644.365385 532.557692 644.365385 535.009615 644.365385 537.461538 644.365385 539.913462 644.365385 542.365385 644.365385 544.817308 644.365385 547.269231 644.365385 549.721154 644.365385 552.173077 644.365385 554.625000 644.365385 557.076923 644.365385 559.528846 644.365385 561.980769 644.365385 564.432692 644.365385 566.884615 644.365385 569.336538 644.365385 571.788462 644.365385 574.240385 644.365385 576.692308 644.365385 579.144231 644.365385 581.596154 644.365385 584.048077 644.365385 586.500000 644.365385 588.951923 644.365385 591.403846 644.365385 593.855769 644.365385 596.307692 644.365385 598.759615 644.365385 601.211538 644.365385 603.663462 644.365385 606.115385 644.365385 608.567308 644.365385 611.019231 644.365385 613.471154 644.365385 615.923077 644.365385 618.375000 644.365385 620.826923 644.365385 623.278846 644.365385 625.730769 644.365385 628.182692 644.365385 630.634615 644.365385 633.086538 644.365385 635.538462 644.365385 637.990385 644.365385 640.442308 644.365385 642.894231 644.365385 645.346154 644.365385 647.798077 644.365385 650.250000 644.365385 652.701923 644.365385 655.153846 644.365385 657.605769 644.365385 660.057692 644.365385 662.509615 643.607092 664.961538 623.738364 667.413462 614.288869 669.865385 607.974624 672.317308 604.030044 674.769231 601.295815 677.221154 598.875111 679.673077 596.665854 682.125000 594.128490 684.576923 591.088028 687.028846 588.011109 689.480769 584.853987 691.932692 581.164601 694.384615 577.664788 696.836538 574.296218 699.288462 570.519337 701.740385 567.303884 704.192308 564.248840 706.644231 561.383368 709.096154 558.619974 711.548077 555.929493 714.000000 553.392129 716.451923 551.175581 718.903846 549.104859 721.355769 547.172670 723.807692 545.605046 726.259615 544.190538 728.711538 543.096847 731.163462 542.229185 733.615385 541.463601 736.067308 540.843842 738.519231 540.216793 740.971154 539.509539 743.423077 538.751246 745.875000 537.890875 748.326923 536.804475 750.778846 535.659745 753.230769 534.369189 755.682692 533.013012 758.134615 531.664125 760.586538 530.198579 763.038462 528.886149 765.490385 527.814331 767.942308 526.385241 770.394231 525.123850 772.846154 523.767673 775.298077 522.630234 777.750000 521.237600 780.201923 519.954336 782.653846 518.853353 785.105769 517.898196 787.557692 516.935747 790.009615 516.199328 792.461538 515.360831 794.913462 514.325470 797.365385 513.202614 799.817308 511.861019 802.269231 509.214285 804.721154 505.663434 807.173077 500.231433 809.625000 493.931770 812.076923 487.901885 814.528846 482.739661 816.980769 478.700294 819.432692 475.091112 821.884615 470.978832 824.336538 467.107164 826.788462 463.600060 829.240385 460.771045 831.692308 458.860731 834.144231 457.234776 836.596154 455.747356 839.048077 454.340139 841.500000 452.743350 843.951923 451.802775 846.403846 451.073647 848.855769 450.563258 851.307692 450.147655 853.759615 449.790383 856.211538 449.739344 858.663462 449.739344 861.115385 449.739344 863.567308 449.739344 866.019231 449.739344 868.471154 449.739344 870.923077 449.739344 873.375000 449.739344 875.826923 449.739344 878.278846 449.739344 880.730769 449.739344 883.182692 449.739344 885.634615 449.739344 888.086538 449.739344 890.538462 449.739344 892.990385 449.739344 895.442308 449.739344 897.894231 449.739344 900.346154 449.739344" /></g><g class="series serie-1 color-1"><path class="line reactive nofill" d="M17.653846 630.161978 L20.105769 624.963298 22.557692 621.186417 25.009615 619.203190 27.461538 617.737643 29.913462 616.213766 32.365385 614.945084 34.817308 613.698276 37.269231 611.554641 39.721154 608.762082 42.173077 605.692455 44.625000 601.820787 47.076923 598.510547 49.528846 595.645076 51.980769 593.151459 54.432692 591.350514 56.884615 589.491238 59.336538 587.464264 61.788462 585.772688 64.240385 584.197772 66.692308 582.965546 69.144231 582.105175 71.596154 581.179183 74.048077 580.435473 76.500000 579.771967 78.951923 579.261578 81.403846 578.845975 83.855769 578.474120 86.307692 578.226216 88.759615 577.963731 91.211538 577.693953 93.663462 577.453341 96.115385 577.045030 98.567308 576.651301 101.019231 576.191950 103.471154 575.623231 105.923077 574.843064 108.375000 574.004567 110.826923 573.209818 113.278846 572.546312 115.730769 571.802602 118.182692 571.037018 120.634615 570.322473 123.086538 569.688132 125.538462 569.155869 127.990385 568.681936 130.442308 568.142381 132.894231 567.799691 135.346154 567.486166 137.798077 567.121603 140.250000 566.924738 142.701923 566.640378 145.153846 566.523718 147.605769 566.392475 150.057692 566.290397 152.509615 566.122698 154.961538 565.918542 157.413462 565.597726 159.865385 565.291492 162.317308 564.912346 164.769231 564.387374 167.221154 563.971771 169.673077 563.490547 172.125000 562.943701 174.576923 562.433312 177.028846 561.966670 179.480769 561.558359 181.932692 561.106299 184.384615 560.778192 186.836538 560.457376 189.288462 560.187599 191.740385 559.903239 194.192308 559.648044 196.644231 559.349102 199.096154 559.254315 201.548077 559.144946 204.000000 559.035577 206.451923 558.933499 208.903846 558.860586 211.355769 558.758508 213.807692 558.627266 216.259615 558.444984 218.711538 558.233537 221.163462 558.029381 223.615385 557.817934 226.067308 557.453370 228.519231 557.147136 230.971154 556.840903 233.423077 556.505504 235.875000 556.140940 238.326923 555.841998 240.778846 555.557638 243.230769 555.375356 245.682692 555.149327 248.134615 554.937880 250.586538 554.784763 253.038462 554.566025 255.490385 554.376451 257.942308 554.237917 260.394231 554.048344 262.846154 553.997305 265.298077 553.902518 267.750000 553.807732 270.201923 553.749402 272.653846 553.698363 275.105769 553.654615 277.557692 553.567120 280.009615 553.472333 282.461538 553.348381 284.913462 553.246304 287.365385 553.136934 289.817308 553.042148 292.269231 552.932779 294.721154 552.837992 297.173077 552.684875 299.625000 552.517176 302.076923 552.400515 304.528846 552.298438 306.980769 552.181777 309.432692 552.086991 311.884615 551.984913 314.336538 551.882835 316.788462 551.831796 319.240385 551.722427 321.692308 551.664097 324.144231 551.613058 326.596154 551.547436 329.048077 551.459941 331.500000 551.423484 333.951923 551.357863 336.403846 551.263076 338.855769 551.168290 341.307692 551.022464 343.759615 550.854765 346.211538 550.650609 348.663462 550.431871 351.115385 550.256880 353.567308 550.038142 356.019231 549.870443 358.471154 549.695452 360.923077 549.476714 363.375000 549.323597 365.826923 549.119441 368.278846 549.031946 370.730769 548.878829 373.182692 548.754877 375.634615 548.623634 378.086538 548.492391 380.538462 548.375731 382.990385 548.266362 385.442308 548.149701 387.894231 548.018458 390.346154 547.865342 392.798077 547.602856 395.250000 547.274748 397.701923 546.917476 400.153846 546.458125 402.605769 545.940445 405.057692 545.386308 407.509615 544.897792 409.961538 544.460315 412.413462 544.000965 414.865385 543.330168 417.317308 542.878109 419.769231 542.506253 422.221154 542.243767 424.673077 541.973990 427.125000 539.400170 429.576923 507.209184 432.028846 490.687152 434.480769 480.107510 436.932692 472.998516 439.384615 467.544641 441.836538 461.769950 444.288462 456.126502 446.740385 449.119585 449.192308 439.546139 451.644231 427.683233 454.096154 413.931885 456.548077 396.994250 459.000000 378.029641 461.451923 358.758797 463.903846 344.679342 466.355769 332.021686 468.807692 319.298409 471.259615 307.304260 473.711538 296.170480 476.163462 287.851134 478.615385 279.699487 481.067308 273.509193 483.519231 268.011571 485.971154 263.972204 488.423077 259.859924 490.875000 256.863209 493.326923 254.544584 495.778846 252.867590 498.230769 251.555160 500.682692 250.096905 503.134615 248.543863 505.586538 246.793957 508.038462 244.781564 510.490385 242.579599 512.942308 239.364146 515.394231 235.689343 517.846154 231.591645 520.298077 226.837733 522.750000 222.236938 525.201923 217.614269 527.653846 213.399911 530.105769 208.937650 532.557692 204.788913 535.009615 200.822459 537.461538 197.709084 539.913462 195.149846 542.365385 192.641647 544.817308 190.352186 547.269231 188.245007 549.721154 186.655509 552.173077 185.299332 554.625000 184.395213 557.076923 183.512969 559.528846 182.703637 561.980769 182.032840 564.432692 181.099556 566.884615 180.049613 569.336538 178.824678 571.788462 177.198724 574.240385 175.128001 576.692308 172.663550 579.144231 170.031399 581.596154 167.326335 584.048077 164.985836 586.500000 162.805744 588.951923 160.501701 591.403846 157.869550 593.855769 155.550924 596.307692 153.677066 598.759615 151.905286 601.211538 150.374118 603.663462 148.996066 606.115385 147.887792 608.567308 146.713897 611.019231 145.736866 613.471154 145.007738 615.923077 144.562970 618.375000 143.943212 620.826923 143.476570 623.278846 142.944307 625.730769 142.419335 628.182692 141.712081 630.634615 140.837128 633.086538 139.699689 635.538462 138.482046 637.990385 136.877965 640.442308 135.222845 642.894231 133.852085 645.346154 132.503199 647.798077 130.811623 650.250000 129.192960 652.701923 127.814909 655.153846 126.575392 657.605769 125.518156 660.057692 124.570291 662.509615 123.177657 664.961538 115.324952 667.413462 111.088721 669.865385 108.296162 672.317308 106.210857 674.769231 104.956757 677.221154 103.666201 679.673077 102.572510 682.125000 101.471527 684.576923 100.159097 687.028846 98.970619 689.480769 97.490490 691.932692 95.798914 694.384615 94.253163 696.836538 92.765743 699.288462 90.972089 701.740385 89.316969 704.192308 87.691015 706.644231 85.962982 709.096154 84.512018 711.548077 82.980850 714.000000 81.435099 716.451923 79.991427 718.903846 78.737327 721.355769 77.672801 723.807692 76.746809 726.259615 75.784360 728.711538 75.018776 731.163462 74.428183 733.615385 73.925085 736.067308 73.392822 738.519231 72.940762 740.971154 72.401208 743.423077 71.847071 745.875000 71.241895 748.326923 70.614845 750.778846 69.776348 753.230769 68.799317 755.682692 67.880617 758.134615 66.991081 760.586538 66.021341 763.038462 65.073475 765.490385 64.242270 767.942308 63.316278 770.394231 62.390285 772.846154 61.537206 775.298077 60.793496 777.750000 59.852921 780.201923 58.977968 782.653846 58.197802 785.105769 57.541587 787.557692 56.870789 790.009615 56.251031 792.461538 55.762515 794.913462 55.171922 797.365385 54.384464 799.817308 53.604297 802.269231 52.437693 804.721154 50.811739 807.173077 48.157714 809.625000 44.803727 812.076923 41.136215 814.528846 37.687441 816.980769 34.858426 819.432692 32.372101 821.884615 29.448299 824.336538 26.794274 826.788462 24.096502 829.240385 22.003906 831.692308 20.458155 834.144231 19.189473 836.596154 18.088490 839.048077 16.673983 841.500000 15.368844 843.951923 14.588677 846.403846 13.961628 848.855769 13.509569 851.307692 13.028344 853.759615 12.671072 856.211538 12.634615 858.663462 12.634615 861.115385 12.634615 863.567308 12.634615 866.019231 12.634615 868.471154 12.634615 870.923077 12.634615 873.375000 12.634615 875.826923 12.634615 878.278846 12.634615 880.730769 12.634615 883.182692 12.634615 885.634615 12.634615 888.086538 12.634615 890.538462 12.634615 892.990385 12.634615 895.442308 12.634615 897.894231 12.634615 900.346154 12.634615" /></g></g><g class="titles"><text class="title plot_title" x="512.0" y="26">Election 10 Participation</text><text class="title" transform="rotate(-90 0.000000 374.500000)" x="0" y="400.5">Users</text></g><g class="plot overlay" transform="translate(86, 46)"><g class="series serie-0 color-0" /><g class="series serie-1 color-1" /></g><g class="plot text-overlay" transform="translate(86, 46)"><g class="series serie-0 color-0" /><g class="series serie-1 color-1" /></g><g class="plot tooltip-overlay" transform="translate(86, 46)"><g class="tooltip" style="opacity: 0" transform="translate(0 0)"><a><rect class="tooltip-box" height="0" rx="0" ry="0" width="0" /><text class="text"><tspan class="label" /><tspan class="value" /></text></a></g></g><g class="legends" transform="translate(96, 713)"><g class="legend reactive activate-serie" id="activate-serie-0"><rect class="color-0 reactive" height="12" width="12" x="0.0" y="1.0" /><text x="17.0" y="11.2">constituents</text></g><g class="legend reactive activate-serie" id="activate-serie-1"><rect class="color-1 reactive" height="12" width="12" x="459.0" y="1.0" /><text x="476.0" y="11.2">caucus</text></g></g></g></svg>