<?xml version='1.0' encoding='utf-8'?>
<svg xmlns:xlink="http://www.w3.org/1999/xlink" class="pygal-chart" id="chart-794db1f5-1a3e-4a4b-9f6e-aa56281e4650" viewBox="0 0 1024 768" xmlns="http://www.w3.org/2000/svg"><!--Generated with pygal 1.7.0 (etree) ©Kozea 2011-2014 on 2015-04-20--><!--http://pygal.org--><!--http://github.com/Kozea/pygal--><defs><style type="text/css">#chart-794db1f5-1a3e-4a4b-9f6e-aa56281e4650 .title{font-family:"monospace";font-size:16px}#chart-794db1f5-1a3e-4a4b-9f6e-aa56281e4650 .legends .legend text{font-family:"monospace";font-size:14px}#chart-794db1f5-1a3e-4a4b-9f6e-aa56281e4650 .axis text{font-family:"monospace";font-size:10px}#chart-794db1f5-1a3e-4a4b-9f6e-aa56281e4650 .axis text.major{font-family:"monospace";font-size:10px}#chart-794db1f5-1a3e-4a4b-9f6e-aa56281e4650 .series text{font-family:"monospace";font-size:8px}#chart-794db1f5-1a3e-4a4b-9f6e-aa56281e4650 .tooltip text{font-family:"monospace";font-size:16px}#chart-794db1f5-1a3e-4a4b-9f6e-aa56281e4650 text.no_data{font-size:64px}
#chart-794db1f5-1a3e-4a4b-9f6e-aa56281e4650{background-color:black}#chart-794db1f5-1a3e-4a4b-9f6e-aa56281e4650 path,#chart-794db1f5-1a3e-4a4b-9f6e-aa56281e4650 line,#chart-794db1f5-1a3e-4a4b-9f6e-aa56281e4650 rect,#chart-794db1f5-1a3e-4a4b-9f6e-aa56281e4650 circle{-webkit-transition:250ms;-moz-transition:250ms;transition:250ms}#chart-794db1f5-1a3e-4a4b-9f6e-aa56281e4650 .graph &gt; .background{fill:black}#chart-794db1f5-1a3e-4a4b-9f6e-aa56281e4650 .plot &gt; .background{fill:#111}#chart-794db1f5-1a3e-4a4b-9f6e-aa56281e4650 .graph{fill:#999}#chart-794db1f5-1a3e-4a4b-9f6e-aa56281e4650 text.no_data{fill:#eee}#chart-794db1f5-1a3e-4a4b-9f6e-aa56281e4650 .title{fill:#eee}#chart-794db1f5-1a3e-4a4b-9f6e-aa56281e4650 .legends .legend text{fill:#999}#chart-794db1f5-1a3e-4a4b-9f6e-aa56281e4650 .legends .legend:hover text{fill:#eee}#chart-794db1f5-1a3e-4a4b-9f6e-aa56281e4650 .axis .line{stroke:#eee}#chart-794db1f5-1a3e-4a4b-9f6e-aa56281e4650 .axis .guide.line{stroke:#555}#chart-794db1f5-1a3e-4a4b-9f6e-aa56281e4650 .axis .major.line{stroke:#999}#chart-794db1f5-1a3e-4a4b-9f6e-aa56281e4650 .axis text.major{stroke:#eee;fill:#eee}#chart-794db1f5-1a3e-4a4b-9f6e-aa56281e4650 .axis.y .guides:hover .guide.line,#chart-794db1f5-1a3e-4a4b-9f6e-aa56281e4650 .line-graph .axis.x .guides:hover .guide.line,#chart-794db1f5-1a3e-4a4b-9f6e-aa56281e4650 .stackedline-graph .axis.x .guides:hover .guide.line,#chart-794db1f5-1a3e-4a4b-9f6e-aa56281e4650 .xy-graph .axis.x .guides:hover .guide.line{stroke:#eee}#chart-794db1f5-1a3e-4a4b-9f6e-aa56281e4650 .axis .guides:hover text{fill:#eee}#chart-794db1f5-1a3e-4a4b-9f6e-aa56281e4650 .reactive{fill-opacity:.8}#chart-794db1f5-1a3e-4a4b-9f6e-aa56281e4650 .reactive.active,#chart-794db1f5-1a3e-4a4b-9f6e-aa56281e4650 .active .reactive{fill-opacity:.4}#chart-794db1f5-1a3e-4a4b-9f6e-aa56281e4650 .series{stroke-width:1.0;stroke-linejoin:round;stroke-linecap:round;stroke-dasharray:0,0}#chart-794db1f5-1a3e-4a4b-9f6e-aa56281e4650 .series text{fill:#eee}#chart-794db1f5-1a3e-4a4b-9f6e-aa56281e4650 .tooltip rect{fill:#111;stroke:#eee}#chart-794db1f5-1a3e-4a4b-9f6e-aa56281e4650 .tooltip text{fill:#eee}#chart-794db1f5-1a3e-4a4b-9f6e-aa56281e4650 .map-element{fill:#999;stroke:#555 !important;opacity:.9;stroke-width:3;-webkit-transition:250ms;-moz-transition:250ms;-o-transition:250ms;transition:250ms}#chart-794db1f5-1a3e-4a4b-9f6e-aa56281e4650 .map-element:hover{opacity:1;stroke-width:10}#chart-794db1f5-1a3e-4a4b-9f6e-aa56281e4650 .color-0,#chart-794db1f5-1a3e-4a4b-9f6e-aa56281e4650 .color-0 a:visited{stroke:#ff5995;fill:#ff5995}#chart-794db1f5-1a3e-4a4b-9f6e-aa56281e4650 .color-1,#chart-794db1f5-1a3e-4a4b-9f6e-aa56281e4650 .color-1 a:visited{stroke:#b6e354;fill:#b6e354}#chart-794db1f5-1a3e-4a4b-9f6e-aa56281e4650 .color-2,#chart-794db1f5-1a3e-4a4b-9f6e-aa56281e4650 .color-2 a:visited{stroke:#feed6c;fill:#feed6c}#chart-794db1f5-1a3e-4a4b-9f6e-aa56281e4650 .color-3,#chart-794db1f5-1a3e-4a4b-9f6e-aa56281e4650 .color-3 a:visited{stroke:#8cedff;fill:#8cedff}#chart-794db1f5-1a3e-4a4b-9f6e-aa56281e4650 .color-4,#chart-794db1f5-1a3e-4a4b-9f6e-aa56281e4650 .color-4 a:visited{stroke:#9e6ffe;fill:#9e6ffe}#chart-794db1f5-1a3e-4a4b-9f6e-aa56281e4650 .color-5,#chart-794db1f5-1a3e-4a4b-9f6e-aa56281e4650 .color-5 a:visited{stroke:#899ca1;fill:#899ca1}#chart-794db1f5-1a3e-4a4b-9f6e-aa56281e4650 .color-6,#chart-794db1f5-1a3e-4a4b-9f6e-aa56281e4650 .color-6 a:visited{stroke:#f8f8f2;fill:#f8f8f2}#chart-794db1f5-1a3e-4a4b-9f6e-aa56281e4650 .color-7,#chart-794db1f5-1a3e-4a4b-9f6e-aa56281e4650 .color-7 a:visited{stroke:#bf4646;fill:#bf4646}#chart-794db1f5-1a3e-4a4b-9f6e-aa56281e4650 .color-8,#chart-794db1f5-1a3e-4a4b-9f6e-aa56281e4650 .color-8 a:visited{stroke:#516083;fill:#516083}#chart-794db1f5-1a3e-4a4b-9f6e-aa56281e4650 .color-9,#chart-794db1f5-1a3e-4a4b-9f6e-aa56281e4650 .color-9 a:visited{stroke:#f92672;fill:#f92672}#chart-794db1f5-1a3e-4a4b-9f6e-aa56281e4650 .color-10,#chart-794db1f5-1a3e-4a4b-9f6e-aa56281e4650 .color-10 a:visited{stroke:#82b414;fill:#82b414}#chart-794db1f5-1a3e-4a4b-9f6e-aa56281e4650 .color-11,#chart-794db1f5-1a3e-4a4b-9f6e-aa56281e4650 .color-11 a:visited{stroke:#fd971f;fill:#fd971f}#chart-794db1f5-1a3e-4a4b-9f6e-aa56281e4650 .color-12,#chart-794db1f5-1a3e-4a4b-9f6e-aa56281e4650 .color-12 a:visited{stroke:#56c2d6;fill:#56c2d6}#chart-794db1f5-1a3e-4a4b-9f6e-aa56281e4650 .color-13,#chart-794db1f5-1a3e-4a4b-9f6e-aa56281e4650 .color-13 a:visited{stroke:#808384;fill:#808384}#chart-794db1f5-1a3e-4a4b-9f6e-aa56281e4650 .color-14,#chart-794db1f5-1a3e-4a4b-9f6e-aa56281e4650 .color-14 a:visited{stroke:#8c54fe;fill:#8c54fe}#chart-794db1f5-1a3e-4a4b-9f6e-aa56281e4650 .color-15,#chart-794db1f5-1a3e-4a4b-9f6e-aa56281e4650 .color-15 a:visited{stroke:#465457;fill:#465457}
#chart-794db1f5-1a3e-4a4b-9f6e-aa56281e4650 text.no_data{text-anchor:middle}#chart-794db1f5-1a3e-4a4b-9f6e-aa56281e4650 .guide.line{fill-opacity:0}#chart-794db1f5-1a3e-4a4b-9f6e-aa56281e4650 .centered{text-anchor:middle}#chart-794db1f5-1a3e-4a4b-9f6e-aa56281e4650 .title{text-anchor:middle}#chart-794db1f5-1a3e-4a4b-9f6e-aa56281e4650 .legends .legend text{fill-opacity:1}#chart-794db1f5-1a3e-4a4b-9f6e-aa56281e4650 .axis.x text{text-anchor:middle}#chart-794db1f5-1a3e-4a4b-9f6e-aa56281e4650 .axis.x:not(.web) text[transform]{text-anchor:start}#chart-794db1f5-1a3e-4a4b-9f6e-aa56281e4650 .axis.y text{text-anchor:end}#chart-794db1f5-1a3e-4a4b-9f6e-aa56281e4650 .axis.y2 text{text-anchor:start}#chart-794db1f5-1a3e-4a4b-9f6e-aa56281e4650 .axis.y .logarithmic text:not(.major),#chart-794db1f5-1a3e-4a4b-9f6e-aa56281e4650 .axis.y2 .logarithmic text:not(.major){font-size:50%}#chart-794db1f5-1a3e-4a4b-9f6e-aa56281e4650 .axis .guide.line{stroke-dasharray:4,4}#chart-794db1f5-1a3e-4a4b-9f6e-aa56281e4650 .axis .major.guide.line{stroke-dasharray:6,6}#chart-794db1f5-1a3e-4a4b-9f6e-aa56281e4650 .axis text.major{stroke-width:0.5px}#chart-794db1f5-1a3e-4a4b-9f6e-aa56281e4650 .horizontal .axis.y .guide.line,#chart-794db1f5-1a3e-4a4b-9f6e-aa56281e4650 .horizontal .axis.y2 .guide.line,#chart-794db1f5-1a3e-4a4b-9f6e-aa56281e4650 .vertical .axis.x .guide.line{opacity:0}#chart-794db1f5-1a3e-4a4b-9f6e-aa56281e4650 .horizontal .axis.always_show .guide.line,#chart-794db1f5-1a3e-4a4b-9f6e-aa56281e4650 .vertical .axis.always_show .guide.line{opacity:1 !important}#chart-794db1f5-1a3e-4a4b-9f6e-aa56281e4650 .axis.y .guides:hover .guide.line,#chart-794db1f5-1a3e-4a4b-9f6e-aa56281e4650 .axis.y2 .guides:hover .guide.line,#chart-794db1f5-1a3e-4a4b-9f6e-aa56281e4650 .axis.x .guides:hover .guide.line{opacity:1}#chart-794db1f5-1a3e-4a4b-9f6e-aa56281e4650 .axis .guides:hover text{opacity:1}#chart-794db1f5-1a3e-4a4b-9f6e-aa56281e4650 .nofill{fill:none}#chart-794db1f5-1a3e-4a4b-9f6e-aa56281e4650 .subtle-fill{fill-opacity:.2}#chart-794db1f5-1a3e-4a4b-9f6e-aa56281e4650 .dot{stroke-width:1px;fill-opacity:1}#chart-794db1f5-1a3e-4a4b-9f6e-aa56281e4650 .dot.active{stroke-width:5px}#chart-794db1f5-1a3e-4a4b-9f6e-aa56281e4650 .series text{stroke:none}#chart-794db1f5-1a3e-4a4b-9f6e-aa56281e4650 .series text.active{opacity:1}#chart-794db1f5-1a3e-4a4b-9f6e-aa56281e4650 .tooltip rect{fill-opacity:0.8}#chart-794db1f5-1a3e-4a4b-9f6e-aa56281e4650 .tooltip text{fill-opacity:1}#chart-794db1f5-1a3e-4a4b-9f6e-aa56281e4650 .tooltip text tspan.label{fill-opacity:.8}</style><script type="text/javascript">window.config = {"include_x_axis": false, "pretty_print": false, "show_y_labels": true, "stack_from_top": false, "order_min": null, "human_readable": false, "rounded_bars": null, "disable_xml_declaration": false, "no_data_text": "No data", "height": 768, "title_font_size": 16, "show_y_guides": true, "interpolation_parameters": {}, "truncate_label": null, "tooltip_border_radius": 0, "x_label_format": "%Y-%m-%d %H:%M:%S.%f", "no_prefix": false, "y_labels_major_every": null, "show_only_major_dots": false, "show_minor_y_labels": true, "interpolate": null, "title": "Election 5 Participation Per Hour", "legend_at_bottom": true, "xrange": null, "y_labels_major": null, "x_labels_major": null, "zero": 0, "x_labels_major_every": null, "print_values": false, "explicit_size": false, "y_title": "Users", "x_title": null, "interpolation_precision": 250, "x_value_formatter": null, "width": 1024, "half_pie": false, "no_data_font_size": 64, "fill": false, "show_legend": true, "x_label_rotation": 0, "legend_box_size": 12, "js": ["http://kozea.github.io/pygal.js/javascripts/svg.jquery.js", "http://kozea.github.io/pygal.js/javascripts/pygal-tooltips.js"], "logarithmic": false, "show_dots": false, "show_x_labels": true, "print_zeroes": false, "truncate_legend": null, "missing_value_fill_truncation": "x", "tooltip_font_size": 16, "margin_right": null, "style": {"stroke_style": "round", "transition": "250ms", "colors": ["#ff5995", "#b6e354", "#feed6c", "#8cedff", "#9e6ffe", "#899ca1", "#f8f8f2", "#bf4646", "#516083", "#f92672", "#82b414", "#fd971f", "#56c2d6", "#808384", "#8c54fe", "#465457"], "stroke_dasharray": "0,0", "foreground": "#999", "foreground_light": "#eee", "font_family": "monospace", "opacity": ".8", "opacity_hover": ".4", "background": "black", "plot_background": "#111", "foreground_dark": "#555", "stroke_width": 1.0}, "value_font_size": 8, "legend_at_bottom_columns": null, "margin_bottom": null, "margin_left": null, "mode": null, "spacing": 10, "legend_font_size": 14, "css": ["style.css", "graph.css"], "y_labels_major_count": null, "y_label_rotation": 0, "label_font_size": 10, "range": [0, 1000], "show_x_guides": false, "inner_radius": 0, "major_label_font_size": 10, "stroke": true, "margin_top": null, "show_minor_x_labels": true, "x_labels": null, "margin": 20, "x_labels_major_count": null, "strict": false, "y_labels": null, "dots_size": 2.5}</script><script type="text/javascript" xlink:href="http://kozea.github.io/pygal.js/javascripts/svg.jquery.js" /><script type="text/javascript" xlink:href="http://kozea.github.io/pygal.js/javascripts/pygal-tooltips.js" /></defs><title>Election 5 Participation Per Hour</title><g class="graph line-graph vertical"><rect class="background" height="768" width="1024" x="0" y="0" /><g class="plot" transform="translate(80, 46)"><rect class="background" height="657.0" width="924.0" x="0" y="0" /><g class="axis y"><g class="guides"><path class="axis major line" d="M0.000000 644.365385 h924.000000" /><text class="major" x="-5" y="647.8653846153846">0</text></g><g class="guides"><path class="guide line" d="M0.000000 581.192308 h924.000000" /><text class="" x="-5" y="584.6923076923077">100</text></g><g class="guides"><path class="guide line" d="M0.000000 518.019231 h924.000000" /><text class="" x="-5" y="521.5192307692307">200</text></g><g class="guides"><path class="guide line" d="M0.000000 454.846154 h924.000000" /><text class="" x="-5" y="458.3461538461538">300</text></g><g class="guides"><path class="guide line" d="M0.000000 391.673077 h924.000000" /><text class="" x="-5" y="395.1730769230769">400</text></g><g class="guides"><path class="major guide line" d="M0.000000 328.500000 h924.000000" /><text class="major" x="-5" y="332.0">500</text></g><g class="guides"><path class="guide line" d="M0.000000 265.326923 h924.000000" /><text class="" x="-5" y="268.8269230769231">600</text></g><g class="guides"><path class="guide line" d="M0.000000 202.153846 h924.000000" /><text class="" x="-5" y="205.65384615384613">700</text></g><g class="guides"><path class="guide line" d="M0.000000 138.980769 h924.000000" /><text class="" x="-5" y="142.48076923076928">800</text></g><g class="guides"><path class="guide line" d="M0.000000 75.807692 h924.000000" /><text class="" x="-5" y="79.30769230769226">900</text></g><g class="guides"><path class="major guide line" d="M0.000000 12.634615 h924.000000" /><text class="major" x="-5" y="16.13461538461536">1000</text></g></g><g class="series serie-0 color-0"><path class="line reactive nofill" d="M17.769231 644.365385 L20.413462 644.365385 23.057692 644.365385 25.701923 644.365385 28.346154 644.365385 30.990385 644.365385 33.634615 644.365385 36.278846 644.365385 38.923077 644.365385 41.567308 644.365385 44.211538 644.365385 46.855769 644.365385 49.500000 644.365385 52.144231 644.365385 54.788462 644.365385 57.432692 644.365385 60.076923 644.365385 62.721154 644.365385 65.365385 644.365385 68.009615 644.365385 70.653846 644.365385 73.298077 644.365385 75.942308 644.365385 78.586538 644.365385 81.230769 644.365385 83.875000 644.365385 86.519231 644.365385 89.163462 644.365385 91.807692 644.365385 94.451923 644.365385 97.096154 644.365385 99.740385 644.365385 102.384615 644.365385 105.028846 644.365385 107.673077 644.365385 110.317308 644.365385 112.961538 644.365385 115.605769 644.365385 118.250000 644.365385 120.894231 644.365385 123.538462 644.365385 126.182692 644.365385 128.826923 644.365385 131.471154 644.365385 134.115385 644.365385 136.759615 644.365385 139.403846 644.365385 142.048077 644.365385 144.692308 644.365385 147.336538 644.365385 149.980769 644.365385 152.625000 644.365385 155.269231 644.365385 157.913462 644.365385 160.557692 644.365385 163.201923 644.365385 165.846154 644.365385 168.490385 644.365385 171.134615 644.365385 173.778846 644.365385 176.423077 644.365385 179.067308 644.365385 181.711538 644.365385 184.355769 644.365385 187.000000 644.365385 189.644231 644.365385 192.288462 644.365385 194.932692 644.365385 197.576923 644.365385 200.221154 644.365385 202.865385 644.365385 205.509615 644.365385 208.153846 644.365385 210.798077 644.365385 213.442308 644.365385 216.086538 644.365385 218.730769 644.365385 221.375000 644.365385 224.019231 644.365385 226.663462 644.365385 229.307692 644.365385 231.951923 644.365385 234.596154 644.365385 237.240385 644.365385 239.884615 644.365385 242.528846 644.365385 245.173077 644.365385 247.817308 644.365385 250.461538 644.365385 253.105769 644.365385 255.750000 644.365385 258.394231 644.365385 261.038462 644.365385 263.682692 644.365385 266.326923 644.365385 268.971154 644.365385 271.615385 644.365385 274.259615 644.365385 276.903846 644.365385 279.548077 644.365385 282.192308 644.365385 284.836538 644.365385 287.480769 644.365385 290.125000 644.365385 292.769231 644.365385 295.413462 644.365385 298.057692 644.365385 300.701923 644.365385 303.346154 644.365385 305.990385 644.365385 308.634615 644.365385 311.278846 644.365385 313.923077 644.365385 316.567308 644.365385 319.211538 644.365385 321.855769 644.365385 324.500000 644.365385 327.144231 644.365385 329.788462 644.365385 332.432692 644.365385 335.076923 644.365385 337.721154 644.365385 340.365385 644.365385 343.009615 644.365385 345.653846 644.365385 348.298077 644.365385 350.942308 644.365385 353.586538 644.365385 356.230769 644.365385 358.875000 644.365385 361.519231 644.365385 364.163462 644.365385 366.807692 644.365385 369.451923 644.365385 372.096154 644.365385 374.740385 644.365385 377.384615 644.365385 380.028846 644.365385 382.673077 644.365385 385.317308 644.365385 387.961538 644.365385 390.605769 644.365385 393.250000 644.365385 395.894231 644.365385 398.538462 644.365385 401.182692 644.365385 403.826923 644.365385 406.471154 644.365385 409.115385 644.365385 411.759615 644.365385 414.403846 644.365385 417.048077 644.365385 419.692308 644.365385 422.336538 644.365385 424.980769 644.365385 427.625000 644.365385 430.269231 644.365385 432.913462 644.365385 435.557692 644.365385 438.201923 644.365385 440.846154 644.365385 443.490385 644.365385 446.134615 644.365385 448.778846 644.365385 451.423077 644.365385 454.067308 644.365385 456.711538 644.365385 459.355769 644.365385 462.000000 644.365385 464.644231 644.365385 467.288462 644.365385 469.932692 644.365385 472.576923 644.365385 475.221154 644.365385 477.865385 644.365385 480.509615 644.365385 483.153846 644.365385 485.798077 644.365385 488.442308 644.365385 491.086538 644.365385 493.730769 644.365385 496.375000 644.365385 499.019231 644.365385 501.663462 644.365385 504.307692 644.365385 506.951923 644.365385 509.596154 644.365385 512.240385 644.365385 514.884615 644.365385 517.528846 644.365385 520.173077 644.365385 522.817308 644.365385 525.461538 644.365385 528.105769 644.365385 530.750000 644.365385 533.394231 644.365385 536.038462 644.365385 538.682692 644.365385 541.326923 644.365385 543.971154 644.365385 546.615385 644.365385 549.259615 644.365385 551.903846 644.365385 554.548077 644.365385 557.192308 644.365385 559.836538 644.365385 562.480769 644.365385 565.125000 644.365385 567.769231 644.365385 570.413462 644.365385 573.057692 644.365385 575.701923 644.365385 578.346154 644.365385 580.990385 644.365385 583.634615 644.365385 586.278846 644.365385 588.923077 644.365385 591.567308 644.365385 594.211538 644.365385 596.855769 644.365385 599.500000 644.365385 602.144231 644.365385 604.788462 644.365385 607.432692 644.365385 610.076923 644.365385 612.721154 644.365385 615.365385 644.365385 618.009615 644.365385 620.653846 644.365385 623.298077 644.365385 625.942308 644.365385 628.586538 644.365385 631.230769 644.365385 633.875000 644.365385 636.519231 644.365385 639.163462 644.365385 641.807692 644.365385 644.451923 644.365385 647.096154 644.365385 649.740385 644.365385 652.384615 644.365385 655.028846 644.365385 657.673077 644.365385 660.317308 644.365385 662.961538 644.365385 665.605769 644.365385 668.250000 644.365385 670.894231 644.365385 673.538462 644.365385 676.182692 644.365385 678.826923 644.365385 681.471154 644.365385 684.115385 644.365385 686.759615 644.365385 689.403846 644.365385 692.048077 644.365385 694.692308 644.365385 697.336538 644.365385 699.980769 644.365385 702.625000 644.365385 705.269231 644.365385 707.913462 644.365385 710.557692 644.365385 713.201923 581.192308 715.846154 -1290.625962 718.490385 -224.896154 721.134615 109.289423 723.778846 291.859615 726.423077 402.412500 729.067308 470.007692 731.711538 491.486538 734.355769 473.166346 737.000000 413.151923 739.644231 452.950962 742.288462 451.687500 744.932692 432.735577 747.576923 411.256731 750.221154 420.732692 752.865385 412.520192 755.509615 447.897115 758.153846 444.738462 760.798077 476.325000 763.442308 478.220192 766.086538 490.854808 768.730769 490.223077 771.375000 492.118269 774.019231 528.758654 776.663462 527.495192 779.307692 527.495192 781.951923 558.450000 784.596154 569.821154 787.240385 571.084615 789.884615 591.931731 792.528846 604.566346 795.173077 598.249038 797.817308 609.620192 800.461538 601.407692 803.105769 593.195192 805.750000 593.195192 808.394231 591.931731 811.038462 574.243269 813.682692 581.192308 816.326923 569.821154 818.971154 569.189423 821.615385 568.557692 824.259615 582.455769 826.903846 583.719231 829.548077 568.557692 832.192308 572.979808 834.836538 569.821154 837.480769 563.503846 840.125000 583.719231 842.769231 584.350962 845.413462 565.399038 848.057692 588.773077 850.701923 597.617308 853.346154 603.934615 855.990385 589.404808 858.634615 593.826923 861.278846 569.821154 863.923077 492.118269 866.567308 481.378846 869.211538 483.905769 871.855769 410.625000 874.500000 348.715385 877.144231 310.811538 879.788462 408.098077 882.432692 452.950962 885.076923 475.061538 887.721154 470.639423 890.365385 471.271154 893.009615 482.010577 895.653846 533.812500 898.298077 554.659615 900.942308 569.189423 903.586538 575.506731 906.230769 590.668269" /></g><g class="series serie-1 color-1"><path class="line reactive nofill" d="M17.769231 -883.791346 L20.413462 96.654808 23.057692 265.958654 25.701923 468.744231 28.346154 500.962500 30.990385 539.498077 33.634615 541.393269 36.278846 542.025000 38.923077 476.325000 41.567308 490.854808 44.211538 487.064423 46.855769 444.738462 49.500000 408.098077 52.144231 409.993269 54.788462 459.900000 57.432692 523.073077 60.076923 523.073077 62.721154 502.225962 65.365385 533.812500 68.009615 540.761538 70.653846 546.447115 73.298077 574.243269 75.942308 563.503846 78.586538 594.458654 81.230769 583.719231 83.875000 586.877885 86.519231 600.775962 89.163462 613.410577 91.807692 615.305769 94.451923 628.572115 97.096154 625.413462 99.740385 619.727885 102.384615 631.730769 105.028846 619.096154 107.673077 612.147115 110.317308 609.620192 112.961538 593.195192 115.605769 598.249038 118.250000 603.302885 120.894231 597.617308 123.538462 596.985577 126.182692 608.988462 128.826923 598.249038 131.471154 597.617308 134.115385 612.147115 136.759615 616.569231 139.403846 614.674038 142.048077 617.832692 144.692308 615.305769 147.336538 620.359615 149.980769 630.467308 152.625000 630.467308 155.269231 631.730769 157.913462 633.625962 160.557692 632.994231 163.201923 631.099038 165.846154 632.994231 168.490385 621.623077 171.134615 632.994231 173.778846 625.413462 176.423077 620.359615 179.067308 619.727885 181.711538 620.359615 184.355769 619.096154 187.000000 624.150000 189.644231 619.727885 192.288462 619.727885 194.932692 615.937500 197.576923 623.518269 200.221154 622.254808 202.865385 627.940385 205.509615 623.518269 208.153846 632.362500 210.798077 629.835577 213.442308 631.099038 216.086538 631.730769 218.730769 634.889423 221.375000 636.784615 224.019231 638.679808 226.663462 637.416346 229.307692 635.521154 231.951923 636.152885 234.596154 632.994231 237.240385 629.203846 239.884615 631.099038 242.528846 626.045192 245.173077 629.835577 247.817308 633.625962 250.461538 629.835577 253.105769 631.099038 255.750000 627.940385 258.394231 629.835577 261.038462 627.308654 263.682692 627.308654 266.326923 631.099038 268.971154 631.099038 271.615385 634.889423 274.259615 634.257692 276.903846 634.889423 279.548077 638.048077 282.192308 639.943269 284.836538 639.311538 287.480769 641.206731 290.125000 639.943269 292.769231 639.943269 295.413462 634.257692 298.057692 638.679808 300.701923 634.889423 303.346154 638.048077 305.990385 640.575000 308.634615 639.311538 311.278846 640.575000 313.923077 639.311538 316.567308 638.048077 319.211538 642.470192 321.855769 638.679808 324.500000 632.362500 327.144231 633.625962 329.788462 637.416346 332.432692 638.679808 335.076923 638.048077 337.721154 639.311538 340.365385 639.311538 343.009615 638.048077 345.653846 638.679808 348.298077 639.311538 350.942308 641.838462 353.586538 643.101923 356.230769 638.048077 358.875000 641.838462 361.519231 641.838462 364.163462 640.575000 366.807692 639.943269 369.451923 638.048077 372.096154 634.257692 374.740385 638.679808 377.384615 638.048077 380.028846 639.311538 382.673077 638.048077 385.317308 640.575000 387.961538 638.048077 390.605769 636.152885 393.250000 632.994231 395.894231 641.838462 398.538462 629.203846 401.182692 633.625962 403.826923 637.416346 406.471154 639.311538 409.115385 637.416346 411.759615 640.575000 414.403846 637.416346 417.048077 637.416346 419.692308 638.048077 422.336538 637.416346 424.980769 636.784615 427.625000 636.784615 430.269231 624.781731 432.913462 626.676923 435.557692 624.150000 438.201923 624.150000 440.846154 618.464423 443.490385 622.254808 446.134615 621.623077 448.778846 627.940385 451.423077 626.676923 454.067308 633.625962 456.711538 629.835577 459.355769 262.800000 462.000000 -1998.796154 464.644231 -828.199038 467.288462 -216.051923 469.932692 -41.694231 472.576923 156.669231 475.221154 220.474038 477.865385 223.632692 480.509615 157.300962 483.153846 -56.855769 485.798077 -145.929808 488.442308 -225.527885 491.086538 -364.508654 493.730769 -506.648077 496.375000 -548.342308 499.019231 -345.556731 501.663462 -92.232692 504.307692 -14.529808 506.951923 -17.688462 509.596154 -16.425000 512.240385 82.756731 514.884615 120.660577 517.528846 221.105769 520.173077 306.389423 522.817308 310.811538 525.461538 361.981731 528.105769 411.888462 530.750000 428.313462 533.394231 497.172115 536.038462 530.022115 538.682692 549.605769 541.326923 550.237500 543.971154 557.186538 546.615385 526.231731 549.259615 495.908654 551.903846 497.172115 554.548077 449.792308 557.192308 437.789423 559.836538 421.364423 562.480769 411.256731 565.125000 440.948077 567.769231 457.373077 570.413462 437.157692 573.057692 439.684615 575.701923 438.421154 578.346154 463.690385 580.990385 492.750000 583.634615 492.750000 586.278846 507.911538 588.923077 523.073077 591.567308 535.075962 594.211538 560.976923 596.855769 572.348077 599.500000 586.877885 602.144231 602.671154 604.788462 591.931731 607.432692 591.931731 610.076923 597.617308 612.721154 571.716346 615.365385 579.928846 618.009615 555.923077 620.653846 562.240385 623.298077 536.339423 625.942308 514.860577 628.586538 548.342308 631.230769 531.917308 633.875000 532.549038 636.519231 540.129808 639.163462 545.815385 641.807692 544.551923 644.451923 558.450000 647.096154 574.875000 649.740385 562.240385 652.384615 557.186538 655.028846 584.350962 657.673077 586.877885 660.317308 603.302885 662.961538 608.356731 665.605769 616.569231 668.250000 613.410577 670.894231 612.147115 673.538462 612.778846 676.182692 612.778846 678.826923 612.147115 681.471154 597.617308 684.115385 594.458654 686.759615 559.081731 689.403846 579.928846 692.048077 587.509615 694.692308 587.509615 697.336538 578.033654 699.980769 583.087500 702.625000 574.243269 705.269231 582.455769 707.913462 598.880769 710.557692 595.090385 713.201923 565.399038 715.846154 33.481731 718.490385 329.131731 721.134615 445.370192 723.778846 506.648077 726.423077 552.132692 729.067308 578.665385 731.711538 579.297115 734.355769 584.350962 737.000000 574.243269 739.644231 574.243269 742.288462 582.455769 744.932692 567.294231 747.576923 565.399038 750.221154 566.662500 752.865385 556.554808 755.509615 557.186538 758.153846 568.557692 760.798077 564.135577 763.442308 568.557692 766.086538 578.665385 768.730769 571.084615 771.375000 576.138462 774.019231 590.668269 776.663462 574.875000 779.307692 584.350962 781.951923 596.985577 784.596154 595.722115 787.240385 602.671154 789.884615 617.200962 792.528846 621.623077 795.173077 622.254808 797.817308 620.991346 800.461538 615.305769 803.105769 626.045192 805.750000 617.200962 808.394231 615.937500 811.038462 608.356731 813.682692 604.566346 816.326923 604.566346 818.971154 607.725000 821.615385 603.302885 824.259615 607.725000 826.903846 600.144231 829.548077 600.775962 832.192308 603.934615 834.836538 595.722115 837.480769 601.407692 840.125000 602.671154 842.769231 608.988462 845.413462 604.566346 848.057692 600.775962 850.701923 610.251923 853.346154 611.515385 855.990385 613.410577 858.634615 612.147115 861.278846 602.039423 863.923077 590.036538 866.567308 596.353846 869.211538 569.189423 871.855769 548.342308 874.500000 531.917308 877.144231 480.115385 879.788462 512.965385 882.432692 534.444231 885.076923 543.288462 887.721154 540.129808 890.365385 524.336538 893.009615 516.755769 895.653846 551.500962 898.298077 573.611538 900.942308 580.560577 903.586538 576.770192 906.230769 593.195192" /></g></g><g class="titles"><text class="title plot_title" x="512.0" y="26">Election 5 Participation Per Hour</text><text class="title" transform="rotate(-90 0.000000 374.500000)" x="0" y="400.5">Users</text></g><g class="plot overlay" transform="translate(80, 46)"><g class="series serie-0 color-0" /><g class="series serie-1 color-1" /></g><g class="plot text-overlay" transform="translate(80, 46)"><g class="series serie-0 color-0" /><g class="series serie-1 color-1" /></g><g class="plot tooltip-overlay" transform="translate(80, 46)"><g class="tooltip" style="opacity: 0" transform="translate(0 0)"><a><rect class="tooltip-box" height="0" rx="0" ry="0" width="0" /><text class="text"><tspan class="label" /><tspan class="value" /></text></a></g></g><g class="legends" transform="translate(90, 713)"><g class="legend reactive activate-serie" id="activate-serie-0"><rect class="color-0 reactive" height="12" width="12" x="0.0" y="1.0" /><text x="17.0" y="11.2">constituents</text></g><g class="legend reactive activate-serie" id="activate-serie-1"><rect class="color-1 reactive" height="12" width="12" x="462.0" y="1.0" /><text x="479.0" y="11.2">caucus</text></g></g></g></svg>