<?xml version='1.0' encoding='utf-8'?>
<svg xmlns:xlink="http://www.w3.org/1999/xlink" class="pygal-chart" id="chart-1566005c-476b-4323-9160-c71a1c325a27" viewBox="0 0 1024 768" xmlns="http://www.w3.org/2000/svg"><!--Generated with pygal 1.7.0 (etree) ©Kozea 2011-2014 on 2015-04-20--><!--http://pygal.org--><!--http://github.com/Kozea/pygal--><defs><style type="text/css">#chart-1566005c-476b-4323-9160-c71a1c325a27 .title{font-family:"monospace";font-size:16px}#chart-1566005c-476b-4323-9160-c71a1c325a27 .legends .legend text{font-family:"monospace";font-size:14px}#chart-1566005c-476b-4323-9160-c71a1c325a27 .axis text{font-family:"monospace";font-size:10px}#chart-1566005c-476b-4323-9160-c71a1c325a27 .axis text.major{font-family:"monospace";font-size:10px}#chart-1566005c-476b-4323-9160-c71a1c325a27 .series text{font-family:"monospace";font-size:8px}#chart-1566005c-476b-4323-9160-c71a1c325a27 .tooltip text{font-family:"monospace";font-size:16px}#chart-1566005c-476b-4323-9160-c71a1c325a27 text.no_data{font-size:64px}
#chart-1566005c-476b-4323-9160-c71a1c325a27{background-color:black}#chart-1566005c-476b-4323-9160-c71a1c325a27 path,#chart-1566005c-476b-4323-9160-c71a1c325a27 line,#chart-1566005c-476b-4323-9160-c71a1c325a27 rect,#chart-1566005c-476b-4323-9160-c71a1c325a27 circle{-webkit-transition:250ms;-moz-transition:250ms;transition:250ms}#chart-1566005c-476b-4323-9160-c71a1c325a27 .graph &gt; .background{fill:black}#chart-1566005c-476b-4323-9160-c71a1c325a27 .plot &gt; .background{fill:#111}#chart-1566005c-476b-4323-9160-c71a1c325a27 .graph{fill:#999}#chart-1566005c-476b-4323-9160-c71a1c325a27 text.no_data{fill:#eee}#chart-1566005c-476b-4323-9160-c71a1c325a27 .title{fill:#eee}#chart-1566005c-476b-4323-9160-c71a1c325a27 .legends .legend text{fill:#999}#chart-1566005c-476b-4323-9160-c71a1c325a27 .legends .legend:hover text{fill:#eee}#chart-1566005c-476b-4323-9160-c71a1c325a27 .axis .line{stroke:#eee}#chart-1566005c-476b-4323-9160-c71a1c325a27 .axis .guide.line{stroke:#555}#chart-1566005c-476b-4323-9160-c71a1c325a27 .axis .major.line{stroke:#999}#chart-1566005c-476b-4323-9160-c71a1c325a27 .axis text.major{stroke:#eee;fill:#eee}#chart-1566005c-476b-4323-9160-c71a1c325a27 .axis.y .guides:hover .guide.line,#chart-1566005c-476b-4323-9160-c71a1c325a27 .line-graph .axis.x .guides:hover .guide.line,#chart-1566005c-476b-4323-9160-c71a1c325a27 .stackedline-graph .axis.x .guides:hover .guide.line,#chart-1566005c-476b-4323-9160-c71a1c325a27 .xy-graph .axis.x .guides:hover .guide.line{stroke:#eee}#chart-1566005c-476b-4323-9160-c71a1c325a27 .axis .guides:hover text{fill:#eee}#chart-1566005c-476b-4323-9160-c71a1c325a27 .reactive{fill-opacity:.8}#chart-1566005c-476b-4323-9160-c71a1c325a27 .reactive.active,#chart-1566005c-476b-4323-9160-c71a1c325a27 .active .reactive{fill-opacity:.4}#chart-1566005c-476b-4323-9160-c71a1c325a27 .series{stroke-width:1.0;stroke-linejoin:round;stroke-linecap:round;stroke-dasharray:0,0}#chart-1566005c-476b-4323-9160-c71a1c325a27 .series text{fill:#eee}#chart-1566005c-476b-4323-9160-c71a1c325a27 .tooltip rect{fill:#111;stroke:#eee}#chart-1566005c-476b-4323-9160-c71a1c325a27 .tooltip text{fill:#eee}#chart-1566005c-476b-4323-9160-c71a1c325a27 .map-element{fill:#999;stroke:#555 !important;opacity:.9;stroke-width:3;-webkit-transition:250ms;-moz-transition:250ms;-o-transition:250ms;transition:250ms}#chart-1566005c-476b-4323-9160-c71a1c325a27 .map-element:hover{opacity:1;stroke-width:10}#chart-1566005c-476b-4323-9160-c71a1c325a27 .color-0,#chart-1566005c-476b-4323-9160-c71a1c325a27 .color-0 a:visited{stroke:#ff5995;fill:#ff5995}#chart-1566005c-476b-4323-9160-c71a1c325a27 .color-1,#chart-1566005c-476b-4323-9160-c71a1c325a27 .color-1 a:visited{stroke:#b6e354;fill:#b6e354}#chart-1566005c-476b-4323-9160-c71a1c325a27 .color-2,#chart-1566005c-476b-4323-9160-c71a1c325a27 .color-2 a:visited{stroke:#feed6c;fill:#feed6c}#chart-1566005c-476b-4323-9160-c71a1c325a27 .color-3,#chart-1566005c-476b-4323-9160-c71a1c325a27 .color-3 a:visited{stroke:#8cedff;fill:#8cedff}#chart-1566005c-476b-4323-9160-c71a1c325a27 .color-4,#chart-1566005c-476b-4323-9160-c71a1c325a27 .color-4 a:visited{stroke:#9e6ffe;fill:#9e6ffe}#chart-1566005c-476b-4323-9160-c71a1c325a27 .color-5,#chart-1566005c-476b-4323-9160-c71a1c325a27 .color-5 a:visited{stroke:#899ca1;fill:#899ca1}#chart-1566005c-476b-4323-9160-c71a1c325a27 .color-6,#chart-1566005c-476b-4323-9160-c71a1c325a27 .color-6 a:visited{stroke:#f8f8f2;fill:#f8f8f2}#chart-1566005c-476b-4323-9160-c71a1c325a27 .color-7,#chart-1566005c-476b-4323-9160-c71a1c325a27 .color-7 a:visited{stroke:#bf4646;fill:#bf4646}#chart-1566005c-476b-4323-9160-c71a1c325a27 .color-8,#chart-1566005c-476b-4323-9160-c71a1c325a27 .color-8 a:visited{stroke:#516083;fill:#516083}#chart-1566005c-476b-4323-9160-c71a1c325a27 .color-9,#chart-1566005c-476b-4323-9160-c71a1c325a27 .color-9 a:visited{stroke:#f92672;fill:#f92672}#chart-1566005c-476b-4323-9160-c71a1c325a27 .color-10,#chart-1566005c-476b-4323-9160-c71a1c325a27 .color-10 a:visited{stroke:#82b414;fill:#82b414}#chart-1566005c-476b-4323-9160-c71a1c325a27 .color-11,#chart-1566005c-476b-4323-9160-c71a1c325a27 .color-11 a:visited{stroke:#fd971f;fill:#fd971f}#chart-1566005c-476b-4323-9160-c71a1c325a27 .color-12,#chart-1566005c-476b-4323-9160-c71a1c325a27 .color-12 a:visited{stroke:#56c2d6;fill:#56c2d6}#chart-1566005c-476b-4323-9160-c71a1c325a27 .color-13,#chart-1566005c-476b-4323-9160-c71a1c325a27 .color-13 a:visited{stroke:#808384;fill:#808384}#chart-1566005c-476b-4323-9160-c71a1c325a27 .color-14,#chart-1566005c-476b-4323-9160-c71a1c325a27 .color-14 a:visited{stroke:#8c54fe;fill:#8c54fe}#chart-1566005c-476b-4323-9160-c71a1c325a27 .color-15,#chart-1566005c-476b-4323-9160-c71a1c325a27 .color-15 a:visited{stroke:#465457;fill:#465457}
#chart-1566005c-476b-4323-9160-c71a1c325a27 text.no_data{text-anchor:middle}#chart-1566005c-476b-4323-9160-c71a1c325a27 .guide.line{fill-opacity:0}#chart-1566005c-476b-4323-9160-c71a1c325a27 .centered{text-anchor:middle}#chart-1566005c-476b-4323-9160-c71a1c325a27 .title{text-anchor:middle}#chart-1566005c-476b-4323-9160-c71a1c325a27 .legends .legend text{fill-opacity:1}#chart-1566005c-476b-4323-9160-c71a1c325a27 .axis.x text{text-anchor:middle}#chart-1566005c-476b-4323-9160-c71a1c325a27 .axis.x:not(.web) text[transform]{text-anchor:start}#chart-1566005c-476b-4323-9160-c71a1c325a27 .axis.y text{text-anchor:end}#chart-1566005c-476b-4323-9160-c71a1c325a27 .axis.y2 text{text-anchor:start}#chart-1566005c-476b-4323-9160-c71a1c325a27 .axis.y .logarithmic text:not(.major),#chart-1566005c-476b-4323-9160-c71a1c325a27 .axis.y2 .logarithmic text:not(.major){font-size:50%}#chart-1566005c-476b-4323-9160-c71a1c325a27 .axis .guide.line{stroke-dasharray:4,4}#chart-1566005c-476b-4323-9160-c71a1c325a27 .axis .major.guide.line{stroke-dasharray:6,6}#chart-1566005c-476b-4323-9160-c71a1c325a27 .axis text.major{stroke-width:0.5px}#chart-1566005c-476b-4323-9160-c71a1c325a27 .horizontal .axis.y .guide.line,#chart-1566005c-476b-4323-9160-c71a1c325a27 .horizontal .axis.y2 .guide.line,#chart-1566005c-476b-4323-9160-c71a1c325a27 .vertical .axis.x .guide.line{opacity:0}#chart-1566005c-476b-4323-9160-c71a1c325a27 .horizontal .axis.always_show .guide.line,#chart-1566005c-476b-4323-9160-c71a1c325a27 .vertical .axis.always_show .guide.line{opacity:1 !important}#chart-1566005c-476b-4323-9160-c71a1c325a27 .axis.y .guides:hover .guide.line,#chart-1566005c-476b-4323-9160-c71a1c325a27 .axis.y2 .guides:hover .guide.line,#chart-1566005c-476b-4323-9160-c71a1c325a27 .axis.x .guides:hover .guide.line{opacity:1}#chart-1566005c-476b-4323-9160-c71a1c325a27 .axis .guides:hover text{opacity:1}#chart-1566005c-476b-4323-9160-c71a1c325a27 .nofill{fill:none}#chart-1566005c-476b-4323-9160-c71a1c325a27 .subtle-fill{fill-opacity:.2}#chart-1566005c-476b-4323-9160-c71a1c325a27 .dot{stroke-width:1px;fill-opacity:1}#chart-1566005c-476b-4323-9160-c71a1c325a27 .dot.active{stroke-width:5px}#chart-1566005c-476b-4323-9160-c71a1c325a27 .series text{stroke:none}#chart-1566005c-476b-4323-9160-c71a1c325a27 .series text.active{opacity:1}#chart-1566005c-476b-4323-9160-c71a1c325a27 .tooltip rect{fill-opacity:0.8}#chart-1566005c-476b-4323-9160-c71a1c325a27 .tooltip text{fill-opacity:1}#chart-1566005c-476b-4323-9160-c71a1c325a27 .tooltip text tspan.label{fill-opacity:.8}</style><script type="text/javascript">window.config = {"include_x_axis": false, "pretty_print": false, "show_y_labels": true, "stack_from_top": false, "order_min": null, "human_readable": false, "rounded_bars": null, "disable_xml_declaration": false, "no_data_text": "No data", "height": 768, "title_font_size": 16, "show_y_guides": true, "interpolation_parameters": {}, "truncate_label": null, "tooltip_border_radius": 0, "x_label_format": "%Y-%m-%d %H:%M:%S.%f", "no_prefix": false, "y_labels_major_every": null, "show_only_major_dots": false, "show_minor_y_labels": true, "interpolate": null, "title": "Election 4 Participation", "legend_at_bottom": true, "xrange": null, "y_labels_major": null, "x_labels_major": null, "zero": 0, "x_labels_major_every": null, "print_values": false, "explicit_size": false, "y_title": "Users", "x_title": null, "interpolation_precision": 250, "x_value_formatter": null, "width": 1024, "half_pie": false, "no_data_font_size": 64, "fill": false, "show_legend": true, "x_label_rotation": 0, "legend_box_size": 12, "js": ["http://kozea.github.io/pygal.js/javascripts/svg.jquery.js", "http://kozea.github.io/pygal.js/javascripts/pygal-tooltips.js"], "logarithmic": false, "show_dots": false, "show_x_labels": true, "print_zeroes": false, "truncate_legend": null, "missing_value_fill_truncation": "x", "tooltip_font_size": 16, "margin_right": null, "style": {"stroke_style": "round", "transition": "250ms", "colors": ["#ff5995", "#b6e354", "#feed6c", "#8cedff", "#9e6ffe", "#899ca1", "#f8f8f2", "#bf4646", "#516083", "#f92672", "#82b414", "#fd971f", "#56c2d6", "#808384", "#8c54fe", "#465457"], "stroke_dasharray": "0,0", "foreground": "#999", "foreground_light": "#eee", "font_family": "monospace", "opacity": ".8", "opacity_hover": ".4", "background": "black", "plot_background": "#111", "foreground_dark": "#555", "stroke_width": 1.0}, "value_font_size": 8, "legend_at_bottom_columns": null, "margin_bottom": null, "margin_left": null, "mode": null, "spacing": 10, "legend_font_size": 14, "css": ["style.css", "graph.css"], "y_labels_major_count": null, "y_label_rotation": 0, "label_font_size": 10, "range": null, "show_x_guides": false, "inner_radius": 0, "major_label_font_size": 10, "stroke": true, "margin_top": null, "show_minor_x_labels": true, "x_labels": null, "margin": 20, "x_labels_major_count": null, "strict": false, "y_labels": null, "dots_size": 2.5}</script><script type="text/javascript" xlink:href="http://kozea.github.io/pygal.js/javascripts/svg.jquery.js" /><script type="text/javascript" xlink:href="http://kozea.github.io/pygal.js/javascripts/pygal-tooltips.js" /></defs><title>Election 4 Participation</title><g class="graph line-graph vertical"><rect class="background" height="768" width="1024" x="0" y="0" /><g class="plot" transform="translate(80, 46)"><rect class="background" height="657.0" width="924.0" x="0" y="0" /><g class="axis y"><g class="guides"><path class="axis major line" d="M0.000000 644.365385 h924.000000" /><text class="major" x="-5" y="647.8653846153846">0</text></g><g class="guides"><path class="guide line" d="M0.000000 562.033732 h924.000000" /><text class="" x="-5" y="565.533732167741">1000</text></g><g class="guides"><path class="guide line" d="M0.000000 479.702080 h924.000000" /><text class="" x="-5" y="483.20207972009746">2000</text></g><g class="guides"><path class="guide line" d="M0.000000 397.370427 h924.000000" /><text class="" x="-5" y="400.87042727245387">3000</text></g><g class="guides"><path class="guide line" d="M0.000000 315.038775 h924.000000" /><text class="" x="-5" y="318.5387748248103">4000</text></g><g class="guides"><path class="major guide line" d="M0.000000 232.707122 h924.000000" /><text class="major" x="-5" y="236.20712237716668">5000</text></g><g class="guides"><path class="guide line" d="M0.000000 150.375470 h924.000000" /><text class="" x="-5" y="153.8754699295231">6000</text></g><g class="guides"><path class="guide line" d="M0.000000 68.043817 h924.000000" /><text class="" x="-5" y="71.5438174818795">7000</text></g></g><g class="series serie-0 color-0"><path class="line reactive nofill" d="M17.769231 644.365385 L20.413462 644.365385 23.057692 644.365385 25.701923 644.365385 28.346154 644.365385 30.990385 644.365385 33.634615 644.365385 36.278846 644.365385 38.923077 644.365385 41.567308 644.365385 44.211538 644.365385 46.855769 644.365385 49.500000 644.365385 52.144231 644.365385 54.788462 644.365385 57.432692 644.365385 60.076923 644.365385 62.721154 644.365385 65.365385 644.365385 68.009615 644.365385 70.653846 644.365385 73.298077 644.365385 75.942308 644.365385 78.586538 644.365385 81.230769 644.365385 83.875000 644.365385 86.519231 644.365385 89.163462 644.365385 91.807692 644.365385 94.451923 644.365385 97.096154 644.365385 99.740385 644.365385 102.384615 644.365385 105.028846 644.365385 107.673077 644.365385 110.317308 644.365385 112.961538 644.365385 115.605769 644.365385 118.250000 644.365385 120.894231 644.365385 123.538462 644.365385 126.182692 644.365385 128.826923 644.365385 131.471154 644.365385 134.115385 644.365385 136.759615 644.365385 139.403846 644.365385 142.048077 644.365385 144.692308 644.365385 147.336538 644.365385 149.980769 644.365385 152.625000 644.365385 155.269231 644.365385 157.913462 644.365385 160.557692 644.365385 163.201923 644.365385 165.846154 644.365385 168.490385 644.365385 171.134615 644.365385 173.778846 644.365385 176.423077 644.365385 179.067308 644.365385 181.711538 644.365385 184.355769 644.365385 187.000000 644.365385 189.644231 644.365385 192.288462 644.365385 194.932692 644.365385 197.576923 644.365385 200.221154 644.365385 202.865385 644.365385 205.509615 644.365385 208.153846 644.365385 210.798077 644.365385 213.442308 644.365385 216.086538 644.365385 218.730769 644.365385 221.375000 644.365385 224.019231 644.365385 226.663462 644.365385 229.307692 644.365385 231.951923 644.365385 234.596154 644.365385 237.240385 644.365385 239.884615 644.365385 242.528846 644.365385 245.173077 644.365385 247.817308 644.365385 250.461538 644.365385 253.105769 644.365385 255.750000 644.365385 258.394231 644.365385 261.038462 644.365385 263.682692 644.365385 266.326923 644.365385 268.971154 644.365385 271.615385 644.365385 274.259615 644.365385 276.903846 644.365385 279.548077 644.365385 282.192308 644.365385 284.836538 644.365385 287.480769 644.365385 290.125000 644.365385 292.769231 644.365385 295.413462 644.365385 298.057692 644.365385 300.701923 644.365385 303.346154 644.365385 305.990385 644.365385 308.634615 644.365385 311.278846 644.365385 313.923077 644.365385 316.567308 644.365385 319.211538 644.365385 321.855769 644.365385 324.500000 644.365385 327.144231 644.365385 329.788462 644.365385 332.432692 644.365385 335.076923 644.365385 337.721154 644.365385 340.365385 644.365385 343.009615 644.365385 345.653846 644.365385 348.298077 644.365385 350.942308 644.365385 353.586538 644.365385 356.230769 644.365385 358.875000 644.365385 361.519231 644.365385 364.163462 644.365385 366.807692 644.365385 369.451923 644.365385 372.096154 644.365385 374.740385 644.365385 377.384615 644.365385 380.028846 644.365385 382.673077 644.365385 385.317308 644.365385 387.961538 644.365385 390.605769 644.365385 393.250000 644.365385 395.894231 644.365385 398.538462 644.365385 401.182692 644.365385 403.826923 644.365385 406.471154 644.365385 409.115385 644.365385 411.759615 644.365385 414.403846 644.365385 417.048077 644.365385 419.692308 644.365385 422.336538 644.365385 424.980769 644.365385 427.625000 644.365385 430.269231 644.365385 432.913462 644.365385 435.557692 644.365385 438.201923 644.365385 440.846154 644.365385 443.490385 644.365385 446.134615 644.365385 448.778846 644.365385 451.423077 644.365385 454.067308 644.365385 456.711538 644.365385 459.355769 644.365385 462.000000 644.365385 464.644231 644.365385 467.288462 644.365385 469.932692 644.365385 472.576923 644.365385 475.221154 644.365385 477.865385 644.365385 480.509615 644.365385 483.153846 644.365385 485.798077 644.365385 488.442308 644.365385 491.086538 644.365385 493.730769 644.365385 496.375000 644.365385 499.019231 644.365385 501.663462 644.365385 504.307692 644.365385 506.951923 644.365385 509.596154 644.365385 512.240385 644.365385 514.884615 644.365385 517.528846 644.365385 520.173077 644.365385 522.817308 644.365385 525.461538 644.365385 528.105769 644.365385 530.750000 644.365385 533.394231 644.365385 536.038462 644.365385 538.682692 644.365385 541.326923 644.365385 543.971154 644.365385 546.615385 644.365385 549.259615 644.365385 551.903846 644.365385 554.548077 644.365385 557.192308 644.365385 559.836538 644.365385 562.480769 644.365385 565.125000 644.365385 567.769231 644.365385 570.413462 644.365385 573.057692 644.365385 575.701923 644.365385 578.346154 644.365385 580.990385 644.365385 583.634615 644.365385 586.278846 644.365385 588.923077 644.365385 591.567308 644.365385 594.211538 644.365385 596.855769 644.365385 599.500000 644.365385 602.144231 644.365385 604.788462 644.365385 607.432692 644.365385 610.076923 644.365385 612.721154 644.365385 615.365385 644.365385 618.009615 644.365385 620.653846 644.365385 623.298077 644.365385 625.942308 644.365385 628.586538 644.365385 631.230769 644.365385 633.875000 644.365385 636.519231 644.365385 639.163462 644.365385 641.807692 644.365385 644.451923 644.365385 647.096154 644.365385 649.740385 644.365385 652.384615 644.365385 655.028846 644.365385 657.673077 644.365385 660.317308 644.365385 662.961538 644.365385 665.605769 644.365385 668.250000 644.365385 670.894231 644.365385 673.538462 644.365385 676.182692 644.365385 678.826923 644.365385 681.471154 644.365385 684.115385 644.365385 686.759615 644.365385 689.403846 644.365385 692.048077 644.365385 694.692308 644.365385 697.336538 644.365385 699.980769 644.365385 702.625000 644.365385 705.269231 644.365385 707.913462 644.365385 710.557692 644.365385 713.201923 644.365385 715.846154 644.365385 718.490385 644.365385 721.134615 644.365385 723.778846 644.365385 726.423077 644.365385 729.067308 644.365385 731.711538 644.365385 734.355769 644.365385 737.000000 644.365385 739.644231 644.365385 742.288462 644.365385 744.932692 644.365385 747.576923 644.365385 750.221154 644.365385 752.865385 644.365385 755.509615 644.365385 758.153846 644.365385 760.798077 644.365385 763.442308 644.365385 766.086538 644.365385 768.730769 644.365385 771.375000 644.365385 774.019231 644.365385 776.663462 644.365385 779.307692 644.365385 781.951923 644.365385 784.596154 644.365385 787.240385 644.365385 789.884615 644.365385 792.528846 644.365385 795.173077 644.365385 797.817308 644.365385 800.461538 644.365385 803.105769 644.365385 805.750000 644.365385 808.394231 644.365385 811.038462 644.365385 813.682692 644.365385 816.326923 644.365385 818.971154 644.365385 821.615385 644.365385 824.259615 644.365385 826.903846 644.365385 829.548077 644.365385 832.192308 644.365385 834.836538 644.365385 837.480769 644.365385 840.125000 644.365385 842.769231 644.365385 845.413462 644.365385 848.057692 644.365385 850.701923 644.365385 853.346154 644.365385 855.990385 644.365385 858.634615 644.365385 861.278846 644.365385 863.923077 644.365385 866.567308 644.365385 869.211538 644.365385 871.855769 644.365385 874.500000 644.365385 877.144231 644.365385 879.788462 644.365385 882.432692 644.365385 885.076923 644.365385 887.721154 644.365385 890.365385 644.365385 893.009615 644.365385 895.653846 644.365385 898.298077 644.365385 900.942308 644.365385 903.586538 644.365385 906.230769 644.365385" /></g><g class="series serie-1 color-1"><path class="line reactive nofill" d="M17.769231 644.283053 L20.413462 644.283053 23.057692 644.283053 25.701923 644.283053 28.346154 644.283053 30.990385 644.283053 33.634615 644.283053 36.278846 644.283053 38.923077 644.283053 41.567308 644.283053 44.211538 644.283053 46.855769 644.283053 49.500000 644.283053 52.144231 644.283053 54.788462 644.283053 57.432692 644.283053 60.076923 644.283053 62.721154 644.283053 65.365385 644.283053 68.009615 644.283053 70.653846 644.283053 73.298077 644.283053 75.942308 644.283053 78.586538 644.283053 81.230769 644.283053 83.875000 644.283053 86.519231 644.283053 89.163462 644.283053 91.807692 644.283053 94.451923 644.283053 97.096154 644.283053 99.740385 644.283053 102.384615 644.283053 105.028846 644.200721 107.673077 644.200721 110.317308 644.200721 112.961538 644.200721 115.605769 644.200721 118.250000 644.200721 120.894231 644.200721 123.538462 644.200721 126.182692 644.200721 128.826923 644.200721 131.471154 644.200721 134.115385 644.200721 136.759615 644.200721 139.403846 644.200721 142.048077 644.200721 144.692308 644.200721 147.336538 644.200721 149.980769 644.200721 152.625000 644.118390 155.269231 644.118390 157.913462 644.118390 160.557692 644.118390 163.201923 644.118390 165.846154 644.118390 168.490385 644.118390 171.134615 644.118390 173.778846 644.118390 176.423077 644.118390 179.067308 644.118390 181.711538 644.118390 184.355769 644.036058 187.000000 644.036058 189.644231 644.036058 192.288462 644.036058 194.932692 644.036058 197.576923 644.036058 200.221154 644.036058 202.865385 644.036058 205.509615 644.036058 208.153846 644.036058 210.798077 644.036058 213.442308 644.036058 216.086538 644.036058 218.730769 644.036058 221.375000 644.036058 224.019231 644.036058 226.663462 644.036058 229.307692 644.036058 231.951923 644.036058 234.596154 644.036058 237.240385 644.036058 239.884615 644.036058 242.528846 644.036058 245.173077 644.036058 247.817308 644.036058 250.461538 644.036058 253.105769 644.036058 255.750000 644.036058 258.394231 644.036058 261.038462 644.036058 263.682692 644.036058 266.326923 644.036058 268.971154 644.036058 271.615385 644.036058 274.259615 644.036058 276.903846 644.036058 279.548077 644.036058 282.192308 644.036058 284.836538 644.036058 287.480769 644.036058 290.125000 644.036058 292.769231 644.036058 295.413462 644.036058 298.057692 644.036058 300.701923 644.036058 303.346154 644.036058 305.990385 644.036058 308.634615 644.036058 311.278846 644.036058 313.923077 644.036058 316.567308 644.036058 319.211538 644.036058 321.855769 644.036058 324.500000 644.036058 327.144231 644.036058 329.788462 644.036058 332.432692 644.036058 335.076923 644.036058 337.721154 644.036058 340.365385 644.036058 343.009615 644.036058 345.653846 644.036058 348.298077 644.036058 350.942308 644.036058 353.586538 644.036058 356.230769 644.036058 358.875000 644.036058 361.519231 644.036058 364.163462 644.036058 366.807692 644.036058 369.451923 644.036058 372.096154 644.036058 374.740385 644.036058 377.384615 644.036058 380.028846 644.036058 382.673077 644.036058 385.317308 644.036058 387.961538 644.036058 390.605769 644.036058 393.250000 644.036058 395.894231 644.036058 398.538462 644.036058 401.182692 644.036058 403.826923 644.036058 406.471154 644.036058 409.115385 644.036058 411.759615 644.036058 414.403846 644.036058 417.048077 644.036058 419.692308 644.036058 422.336538 644.036058 424.980769 644.036058 427.625000 644.036058 430.269231 644.036058 432.913462 644.036058 435.557692 644.036058 438.201923 643.212741 440.846154 641.319113 443.490385 640.907455 446.134615 640.413465 448.778846 640.166470 451.423077 640.084139 454.067308 639.837144 456.711538 639.837144 459.355769 639.837144 462.000000 639.754812 464.644231 639.754812 467.288462 639.754812 469.932692 639.754812 472.576923 639.754812 475.221154 639.754812 477.865385 639.754812 480.509615 639.425485 483.153846 639.096159 485.798077 639.096159 488.442308 639.096159 491.086538 638.766832 493.730769 638.684501 496.375000 638.684501 499.019231 638.602169 501.663462 638.519837 504.307692 638.519837 506.951923 638.519837 509.596154 638.437506 512.240385 638.437506 514.884615 638.355174 517.528846 638.272842 520.173077 638.272842 522.817308 638.272842 525.461538 638.272842 528.105769 638.272842 530.750000 638.190511 533.394231 638.190511 536.038462 638.190511 538.682692 638.190511 541.326923 638.190511 543.971154 638.190511 546.615385 638.190511 549.259615 638.190511 551.903846 638.190511 554.548077 638.190511 557.192308 638.190511 559.836538 638.190511 562.480769 638.190511 565.125000 638.190511 567.769231 638.190511 570.413462 638.190511 573.057692 638.190511 575.701923 638.190511 578.346154 638.190511 580.990385 638.190511 583.634615 638.190511 586.278846 638.190511 588.923077 638.190511 591.567308 638.190511 594.211538 638.190511 596.855769 638.190511 599.500000 638.190511 602.144231 638.190511 604.788462 638.190511 607.432692 638.190511 610.076923 638.190511 612.721154 638.190511 615.365385 638.190511 618.009615 638.190511 620.653846 638.190511 623.298077 638.190511 625.942308 638.190511 628.586538 638.190511 631.230769 638.190511 633.875000 638.190511 636.519231 638.190511 639.163462 638.190511 641.807692 638.190511 644.451923 638.190511 647.096154 601.882252 649.740385 537.663563 652.384615 502.837274 655.028846 477.396793 657.673077 460.848131 660.317308 449.980353 662.961538 438.783248 665.605769 429.232777 668.250000 419.682305 670.894231 407.250226 673.538462 394.571151 676.182692 380.245444 678.826923 363.202792 681.471154 343.443195 684.115385 326.318211 686.759615 312.568825 689.403846 300.219077 692.048077 288.774978 694.692308 276.260567 697.336538 263.663824 699.980769 253.125372 702.625000 242.586921 705.269231 233.612771 707.913462 226.285253 710.557692 219.534058 713.201923 213.359184 715.846154 207.019647 718.490385 202.573738 721.134615 199.692130 723.778846 197.880833 726.423077 196.151869 729.067308 194.834562 731.711538 191.458965 734.355769 188.989015 737.000000 186.848392 739.644231 183.061136 742.288462 178.862222 744.932692 174.992634 747.576923 169.888072 750.221154 165.277499 752.865385 159.761278 755.509615 155.480032 758.153846 150.293138 760.798077 146.011892 763.442308 141.071993 766.086538 136.790747 768.730769 132.591833 771.375000 128.969240 774.019231 126.005301 776.663462 122.629703 779.307692 119.912759 781.951923 118.430789 784.596154 117.113482 787.240385 115.384518 789.884615 113.984880 792.528846 112.585241 795.173077 111.926588 797.817308 109.950629 800.461538 108.715654 803.105769 106.739694 805.750000 105.010729 808.394231 102.458448 811.038462 100.400157 813.682692 97.271554 816.326923 94.225283 818.971154 91.179012 821.615385 88.379736 824.259615 85.086470 826.903846 82.451857 829.548077 79.487917 832.192308 76.770973 834.836538 74.548018 837.480769 71.419415 840.125000 68.373144 842.769231 65.903195 845.413462 63.433245 848.057692 61.374954 850.701923 60.798632 853.346154 59.316662 855.990385 57.587698 858.634615 56.352723 861.278846 55.611738 863.923077 54.129768 866.567308 52.318472 869.211538 50.177849 871.855769 47.296241 874.500000 44.332302 877.144231 41.944684 879.788462 38.898413 882.432692 35.605146 885.076923 32.558875 887.721154 29.759599 890.365385 26.548665 893.009615 24.408042 895.653846 21.444102 898.298077 19.221148 900.942308 16.751198 903.586538 14.939902 906.230769 12.634615" /></g></g><g class="titles"><text class="title plot_title" x="512.0" y="26">Election 4 Participation</text><text class="title" transform="rotate(-90 0.000000 374.500000)" x="0" y="400.5">Users</text></g><g class="plot overlay" transform="translate(80, 46)"><g class="series serie-0 color-0" /><g class="series serie-1 color-1" /></g><g class="plot text-overlay" transform="translate(80, 46)"><g class="series serie-0 color-0" /><g class="series serie-1 color-1" /></g><g class="plot tooltip-overlay" transform="translate(80, 46)"><g class="tooltip" style="opacity: 0" transform="translate(0 0)"><a><rect class="tooltip-box" height="0" rx="0" ry="0" width="0" /><text class="text"><tspan class="label" /><tspan class="value" /></text></a></g></g><g class="legends" transform="translate(90, 713)"><g class="legend reactive activate-serie" id="activate-serie-0"><rect class="color-0 reactive" height="12" width="12" x="0.0" y="1.0" /><text x="17.0" y="11.2">constituents</text></g><g class="legend reactive activate-serie" id="activate-serie-1"><rect class="color-1 reactive" height="12" width="12" x="462.0" y="1.0" /><text x="479.0" y="11.2">caucus</text></g></g></g></svg>