<?xml version='1.0' encoding='utf-8'?>
<svg xmlns:xlink="http://www.w3.org/1999/xlink" class="pygal-chart" id="chart-31b33ab0-6b0c-4199-ae4f-2fdb4b8f97c2" viewBox="0 0 1024 768" xmlns="http://www.w3.org/2000/svg"><!--Generated with pygal 1.7.0 (etree) ©Kozea 2011-2014 on 2018-03-25--><!--http://pygal.org--><!--http://github.com/Kozea/pygal--><defs><style type="text/css">#chart-31b33ab0-6b0c-4199-ae4f-2fdb4b8f97c2 .title{font-family:"monospace";font-size:16px}#chart-31b33ab0-6b0c-4199-ae4f-2fdb4b8f97c2 .legends .legend text{font-family:"monospace";font-size:14px}#chart-31b33ab0-6b0c-4199-ae4f-2fdb4b8f97c2 .axis text{font-family:"monospace";font-size:10px}#chart-31b33ab0-6b0c-4199-ae4f-2fdb4b8f97c2 .axis text.major{font-family:"monospace";font-size:10px}#chart-31b33ab0-6b0c-4199-ae4f-2fdb4b8f97c2 .series text{font-family:"monospace";font-size:8px}#chart-31b33ab0-6b0c-4199-ae4f-2fdb4b8f97c2 .tooltip text{font-family:"monospace";font-size:16px}#chart-31b33ab0-6b0c-4199-ae4f-2fdb4b8f97c2 text.no_data{font-size:64px}
#chart-31b33ab0-6b0c-4199-ae4f-2fdb4b8f97c2{background-color:black}#chart-31b33ab0-6b0c-4199-ae4f-2fdb4b8f97c2 path,#chart-31b33ab0-6b0c-4199-ae4f-2fdb4b8f97c2 line,#chart-31b33ab0-6b0c-4199-ae4f-2fdb4b8f97c2 rect,#chart-31b33ab0-6b0c-4199-ae4f-2fdb4b8f97c2 circle{-webkit-transition:250ms;-moz-transition:250ms;transition:250ms}#chart-31b33ab0-6b0c-4199-ae4f-2fdb4b8f97c2 .graph &gt; .background{fill:black}#chart-31b33ab0-6b0c-4199-ae4f-2fdb4b8f97c2 .plot &gt; .background{fill:#111}#chart-31b33ab0-6b0c-4199-ae4f-2fdb4b8f97c2 .graph{fill:#999}#chart-31b33ab0-6b0c-4199-ae4f-2fdb4b8f97c2 text.no_data{fill:#eee}#chart-31b33ab0-6b0c-4199-ae4f-2fdb4b8f97c2 .title{fill:#eee}#chart-31b33ab0-6b0c-4199-ae4f-2fdb4b8f97c2 .legends .legend text{fill:#999}#chart-31b33ab0-6b0c-4199-ae4f-2fdb4b8f97c2 .legends .legend:hover text{fill:#eee}#chart-31b33ab0-6b0c-4199-ae4f-2fdb4b8f97c2 .axis .line{stroke:#eee}#chart-31b33ab0-6b0c-4199-ae4f-2fdb4b8f97c2 .axis .guide.line{stroke:#555}#chart-31b33ab0-6b0c-4199-ae4f-2fdb4b8f97c2 .axis .major.line{stroke:#999}#chart-31b33ab0-6b0c-4199-ae4f-2fdb4b8f97c2 .axis text.major{stroke:#eee;fill:#eee}#chart-31b33ab0-6b0c-4199-ae4f-2fdb4b8f97c2 .axis.y .guides:hover .guide.line,#chart-31b33ab0-6b0c-4199-ae4f-2fdb4b8f97c2 .line-graph .axis.x .guides:hover .guide.line,#chart-31b33ab0-6b0c-4199-ae4f-2fdb4b8f97c2 .stackedline-graph .axis.x .guides:hover .guide.line,#chart-31b33ab0-6b0c-4199-ae4f-2fdb4b8f97c2 .xy-graph .axis.x .guides:hover .guide.line{stroke:#eee}#chart-31b33ab0-6b0c-4199-ae4f-2fdb4b8f97c2 .axis .guides:hover text{fill:#eee}#chart-31b33ab0-6b0c-4199-ae4f-2fdb4b8f97c2 .reactive{fill-opacity:.8}#chart-31b33ab0-6b0c-4199-ae4f-2fdb4b8f97c2 .reactive.active,#chart-31b33ab0-6b0c-4199-ae4f-2fdb4b8f97c2 .active .reactive{fill-opacity:.4}#chart-31b33ab0-6b0c-4199-ae4f-2fdb4b8f97c2 .series{stroke-width:1.0;stroke-linejoin:round;stroke-linecap:round;stroke-dasharray:0,0}#chart-31b33ab0-6b0c-4199-ae4f-2fdb4b8f97c2 .series text{fill:#eee}#chart-31b33ab0-6b0c-4199-ae4f-2fdb4b8f97c2 .tooltip rect{fill:#111;stroke:#eee}#chart-31b33ab0-6b0c-4199-ae4f-2fdb4b8f97c2 .tooltip text{fill:#eee}#chart-31b33ab0-6b0c-4199-ae4f-2fdb4b8f97c2 .map-element{fill:#999;stroke:#555 !important;opacity:.9;stroke-width:3;-webkit-transition:250ms;-moz-transition:250ms;-o-transition:250ms;transition:250ms}#chart-31b33ab0-6b0c-4199-ae4f-2fdb4b8f97c2 .map-element:hover{opacity:1;stroke-width:10}#chart-31b33ab0-6b0c-4199-ae4f-2fdb4b8f97c2 .color-0,#chart-31b33ab0-6b0c-4199-ae4f-2fdb4b8f97c2 .color-0 a:visited{stroke:#ff5995;fill:#ff5995}#chart-31b33ab0-6b0c-4199-ae4f-2fdb4b8f97c2 .color-1,#chart-31b33ab0-6b0c-4199-ae4f-2fdb4b8f97c2 .color-1 a:visited{stroke:#b6e354;fill:#b6e354}#chart-31b33ab0-6b0c-4199-ae4f-2fdb4b8f97c2 .color-2,#chart-31b33ab0-6b0c-4199-ae4f-2fdb4b8f97c2 .color-2 a:visited{stroke:#feed6c;fill:#feed6c}#chart-31b33ab0-6b0c-4199-ae4f-2fdb4b8f97c2 .color-3,#chart-31b33ab0-6b0c-4199-ae4f-2fdb4b8f97c2 .color-3 a:visited{stroke:#8cedff;fill:#8cedff}#chart-31b33ab0-6b0c-4199-ae4f-2fdb4b8f97c2 .color-4,#chart-31b33ab0-6b0c-4199-ae4f-2fdb4b8f97c2 .color-4 a:visited{stroke:#9e6ffe;fill:#9e6ffe}#chart-31b33ab0-6b0c-4199-ae4f-2fdb4b8f97c2 .color-5,#chart-31b33ab0-6b0c-4199-ae4f-2fdb4b8f97c2 .color-5 a:visited{stroke:#899ca1;fill:#899ca1}#chart-31b33ab0-6b0c-4199-ae4f-2fdb4b8f97c2 .color-6,#chart-31b33ab0-6b0c-4199-ae4f-2fdb4b8f97c2 .color-6 a:visited{stroke:#f8f8f2;fill:#f8f8f2}#chart-31b33ab0-6b0c-4199-ae4f-2fdb4b8f97c2 .color-7,#chart-31b33ab0-6b0c-4199-ae4f-2fdb4b8f97c2 .color-7 a:visited{stroke:#bf4646;fill:#bf4646}#chart-31b33ab0-6b0c-4199-ae4f-2fdb4b8f97c2 .color-8,#chart-31b33ab0-6b0c-4199-ae4f-2fdb4b8f97c2 .color-8 a:visited{stroke:#516083;fill:#516083}#chart-31b33ab0-6b0c-4199-ae4f-2fdb4b8f97c2 .color-9,#chart-31b33ab0-6b0c-4199-ae4f-2fdb4b8f97c2 .color-9 a:visited{stroke:#f92672;fill:#f92672}#chart-31b33ab0-6b0c-4199-ae4f-2fdb4b8f97c2 .color-10,#chart-31b33ab0-6b0c-4199-ae4f-2fdb4b8f97c2 .color-10 a:visited{stroke:#82b414;fill:#82b414}#chart-31b33ab0-6b0c-4199-ae4f-2fdb4b8f97c2 .color-11,#chart-31b33ab0-6b0c-4199-ae4f-2fdb4b8f97c2 .color-11 a:visited{stroke:#fd971f;fill:#fd971f}#chart-31b33ab0-6b0c-4199-ae4f-2fdb4b8f97c2 .color-12,#chart-31b33ab0-6b0c-4199-ae4f-2fdb4b8f97c2 .color-12 a:visited{stroke:#56c2d6;fill:#56c2d6}#chart-31b33ab0-6b0c-4199-ae4f-2fdb4b8f97c2 .color-13,#chart-31b33ab0-6b0c-4199-ae4f-2fdb4b8f97c2 .color-13 a:visited{stroke:#808384;fill:#808384}#chart-31b33ab0-6b0c-4199-ae4f-2fdb4b8f97c2 .color-14,#chart-31b33ab0-6b0c-4199-ae4f-2fdb4b8f97c2 .color-14 a:visited{stroke:#8c54fe;fill:#8c54fe}#chart-31b33ab0-6b0c-4199-ae4f-2fdb4b8f97c2 .color-15,#chart-31b33ab0-6b0c-4199-ae4f-2fdb4b8f97c2 .color-15 a:visited{stroke:#465457;fill:#465457}
#chart-31b33ab0-6b0c-4199-ae4f-2fdb4b8f97c2 text.no_data{text-anchor:middle}#chart-31b33ab0-6b0c-4199-ae4f-2fdb4b8f97c2 .guide.line{fill-opacity:0}#chart-31b33ab0-6b0c-4199-ae4f-2fdb4b8f97c2 .centered{text-anchor:middle}#chart-31b33ab0-6b0c-4199-ae4f-2fdb4b8f97c2 .title{text-anchor:middle}#chart-31b33ab0-6b0c-4199-ae4f-2fdb4b8f97c2 .legends .legend text{fill-opacity:1}#chart-31b33ab0-6b0c-4199-ae4f-2fdb4b8f97c2 .axis.x text{text-anchor:middle}#chart-31b33ab0-6b0c-4199-ae4f-2fdb4b8f97c2 .axis.x:not(.web) text[transform]{text-anchor:start}#chart-31b33ab0-6b0c-4199-ae4f-2fdb4b8f97c2 .axis.y text{text-anchor:end}#chart-31b33ab0-6b0c-4199-ae4f-2fdb4b8f97c2 .axis.y2 text{text-anchor:start}#chart-31b33ab0-6b0c-4199-ae4f-2fdb4b8f97c2 .axis.y .logarithmic text:not(.major),#chart-31b33ab0-6b0c-4199-ae4f-2fdb4b8f97c2 .axis.y2 .logarithmic text:not(.major){font-size:50%}#chart-31b33ab0-6b0c-4199-ae4f-2fdb4b8f97c2 .axis .guide.line{stroke-dasharray:4,4}#chart-31b33ab0-6b0c-4199-ae4f-2fdb4b8f97c2 .axis .major.guide.line{stroke-dasharray:6,6}#chart-31b33ab0-6b0c-4199-ae4f-2fdb4b8f97c2 .axis text.major{stroke-width:0.5px}#chart-31b33ab0-6b0c-4199-ae4f-2fdb4b8f97c2 .horizontal .axis.y .guide.line,#chart-31b33ab0-6b0c-4199-ae4f-2fdb4b8f97c2 .horizontal .axis.y2 .guide.line,#chart-31b33ab0-6b0c-4199-ae4f-2fdb4b8f97c2 .vertical .axis.x .guide.line{opacity:0}#chart-31b33ab0-6b0c-4199-ae4f-2fdb4b8f97c2 .horizontal .axis.always_show .guide.line,#chart-31b33ab0-6b0c-4199-ae4f-2fdb4b8f97c2 .vertical .axis.always_show .guide.line{opacity:1 !important}#chart-31b33ab0-6b0c-4199-ae4f-2fdb4b8f97c2 .axis.y .guides:hover .guide.line,#chart-31b33ab0-6b0c-4199-ae4f-2fdb4b8f97c2 .axis.y2 .guides:hover .guide.line,#chart-31b33ab0-6b0c-4199-ae4f-2fdb4b8f97c2 .axis.x .guides:hover .guide.line{opacity:1}#chart-31b33ab0-6b0c-4199-ae4f-2fdb4b8f97c2 .axis .guides:hover text{opacity:1}#chart-31b33ab0-6b0c-4199-ae4f-2fdb4b8f97c2 .nofill{fill:none}#chart-31b33ab0-6b0c-4199-ae4f-2fdb4b8f97c2 .subtle-fill{fill-opacity:.2}#chart-31b33ab0-6b0c-4199-ae4f-2fdb4b8f97c2 .dot{stroke-width:1px;fill-opacity:1}#chart-31b33ab0-6b0c-4199-ae4f-2fdb4b8f97c2 .dot.active{stroke-width:5px}#chart-31b33ab0-6b0c-4199-ae4f-2fdb4b8f97c2 .series text{stroke:none}#chart-31b33ab0-6b0c-4199-ae4f-2fdb4b8f97c2 .series text.active{opacity:1}#chart-31b33ab0-6b0c-4199-ae4f-2fdb4b8f97c2 .tooltip rect{fill-opacity:0.8}#chart-31b33ab0-6b0c-4199-ae4f-2fdb4b8f97c2 .tooltip text{fill-opacity:1}#chart-31b33ab0-6b0c-4199-ae4f-2fdb4b8f97c2 .tooltip text tspan.label{fill-opacity:.8}</style><script type="text/javascript">window.config = {"css": ["style.css", "graph.css"], "disable_xml_declaration": false, "dots_size": 2.5, "explicit_size": false, "fill": false, "half_pie": false, "height": 768, "human_readable": false, "include_x_axis": false, "inner_radius": 0, "interpolate": null, "interpolation_parameters": {}, "interpolation_precision": 250, "js": ["http://kozea.github.io/pygal.js/javascripts/svg.jquery.js", "http://kozea.github.io/pygal.js/javascripts/pygal-tooltips.js"], "label_font_size": 10, "legend_at_bottom": true, "legend_at_bottom_columns": null, "legend_box_size": 12, "legend_font_size": 14, "logarithmic": false, "major_label_font_size": 10, "margin": 20, "margin_bottom": null, "margin_left": null, "margin_right": null, "margin_top": null, "missing_value_fill_truncation": "x", "mode": null, "no_data_font_size": 64, "no_data_text": "No data", "no_prefix": false, "order_min": null, "pretty_print": false, "print_values": false, "print_zeroes": false, "range": null, "rounded_bars": null, "show_dots": false, "show_legend": true, "show_minor_x_labels": true, "show_minor_y_labels": true, "show_only_major_dots": false, "show_x_guides": false, "show_x_labels": true, "show_y_guides": true, "show_y_labels": true, "spacing": 10, "stack_from_top": false, "strict": false, "stroke": true, "style": {"background": "black", "colors": ["#ff5995", "#b6e354", "#feed6c", "#8cedff", "#9e6ffe", "#899ca1", "#f8f8f2", "#bf4646", "#516083", "#f92672", "#82b414", "#fd971f", "#56c2d6", "#808384", "#8c54fe", "#465457"], "font_family": "monospace", "foreground": "#999", "foreground_dark": "#555", "foreground_light": "#eee", "opacity": ".8", "opacity_hover": ".4", "plot_background": "#111", "stroke_dasharray": "0,0", "stroke_style": "round", "stroke_width": 1.0, "transition": "250ms"}, "title": "Election 10 Participation", "title_font_size": 16, "tooltip_border_radius": 0, "tooltip_font_size": 16, "truncate_label": null, "truncate_legend": null, "value_font_size": 8, "width": 1024, "x_label_format": "%Y-%m-%d %H:%M:%S.%f", "x_label_rotation": 0, "x_labels": null, "x_labels_major": null, "x_labels_major_count": null, "x_labels_major_every": null, "x_title": null, "x_value_formatter": null, "xrange": null, "y_label_rotation": 0, "y_labels": null, "y_labels_major": null, "y_labels_major_count": null, "y_labels_major_every": null, "y_title": "Users", "zero": 0}</script><script type="text/javascript" xlink:href="http://kozea.github.io/pygal.js/javascripts/svg.jquery.js" /><script type="text/javascript" xlink:href="http://kozea.github.io/pygal.js/javascripts/pygal-tooltips.js" /></defs><title>Election 10 Participation</title><g class="graph line-graph vertical"><rect class="background" height="768" width="1024" x="0" y="0" /><g class="plot" transform="translate(86, 46)"><rect class="background" height="657.0" width="918.0" x="0" y="0" /><g class="axis y"><g class="guides"><path class="axis major line" d="M0.000000 644.365385 h918.000000" /><text class="major" x="-5" y="647.8653846153846">0</text></g><g class="guides"><path class="guide line" d="M0.000000 565.957693 h918.000000" /><text class="" x="-5" y="569.4576932624283">10000</text></g><g class="guides"><path class="guide line" d="M0.000000 487.550002 h918.000000" /><text class="" x="-5" y="491.0500019094719">20000</text></g><g class="guides"><path class="guide line" d="M0.000000 409.142311 h918.000000" /><text class="" x="-5" y="412.64231055651555">30000</text></g><g class="guides"><path class="guide line" d="M0.000000 330.734619 h918.000000" /><text class="" x="-5" y="334.2346192035592">40000</text></g><g class="guides"><path class="major guide line" d="M0.000000 252.326928 h918.000000" /><text class="major" x="-5" y="255.82692785060283">50000</text></g><g class="guides"><path class="guide line" d="M0.000000 173.919236 h918.000000" /><text class="" x="-5" y="177.41923649764647">60000</text></g><g class="guides"><path class="guide line" d="M0.000000 95.511545 h918.000000" /><text class="" x="-5" y="99.01154514469022">70000</text></g><g class="guides"><path class="guide line" d="M0.000000 17.103854 h918.000000" /><text class="" x="-5" y="20.603853791733854">80000</text></g></g><g class="series serie-0 color-0"><path class="line reactive nofill" d="M17.653846 644.365385 L20.105769 644.365385 22.557692 644.365385 25.009615 644.365385 27.461538 644.365385 29.913462 644.365385 32.365385 644.365385 34.817308 644.365385 37.269231 644.365385 39.721154 644.365385 42.173077 644.365385 44.625000 644.365385 47.076923 644.365385 49.528846 644.365385 51.980769 644.365385 54.432692 644.365385 56.884615 644.365385 59.336538 644.365385 61.788462 644.365385 64.240385 644.365385 66.692308 644.365385 69.144231 644.365385 71.596154 644.365385 74.048077 644.365385 76.500000 644.365385 78.951923 644.365385 81.403846 644.365385 83.855769 644.365385 86.307692 644.365385 88.759615 644.365385 91.211538 644.365385 93.663462 644.365385 96.115385 644.365385 98.567308 644.365385 101.019231 644.365385 103.471154 644.365385 105.923077 644.365385 108.375000 644.365385 110.826923 644.365385 113.278846 644.365385 115.730769 644.365385 118.182692 644.365385 120.634615 644.365385 123.086538 644.365385 125.538462 644.365385 127.990385 644.365385 130.442308 644.365385 132.894231 644.365385 135.346154 644.365385 137.798077 644.365385 140.250000 644.365385 142.701923 644.365385 145.153846 644.365385 147.605769 644.365385 150.057692 644.365385 152.509615 644.365385 154.961538 644.365385 157.413462 644.365385 159.865385 644.365385 162.317308 644.365385 164.769231 644.365385 167.221154 644.365385 169.673077 644.365385 172.125000 644.365385 174.576923 644.365385 177.028846 644.365385 179.480769 644.365385 181.932692 644.365385 184.384615 644.365385 186.836538 644.365385 189.288462 644.365385 191.740385 644.365385 194.192308 644.365385 196.644231 644.365385 199.096154 644.365385 201.548077 644.365385 204.000000 644.365385 206.451923 644.365385 208.903846 644.365385 211.355769 644.365385 213.807692 644.365385 216.259615 644.365385 218.711538 644.365385 221.163462 644.365385 223.615385 644.365385 226.067308 644.365385 228.519231 644.365385 230.971154 644.365385 233.423077 644.365385 235.875000 644.365385 238.326923 644.365385 240.778846 644.365385 243.230769 644.365385 245.682692 644.365385 248.134615 644.365385 250.586538 644.365385 253.038462 644.365385 255.490385 644.365385 257.942308 644.365385 260.394231 644.365385 262.846154 644.365385 265.298077 644.365385 267.750000 644.365385 270.201923 644.365385 272.653846 644.365385 275.105769 644.365385 277.557692 644.365385 280.009615 644.365385 282.461538 644.365385 284.913462 644.365385 287.365385 644.365385 289.817308 644.365385 292.269231 644.365385 294.721154 644.365385 297.173077 644.365385 299.625000 644.365385 302.076923 644.365385 304.528846 644.365385 306.980769 644.365385 309.432692 644.365385 311.884615 644.365385 314.336538 644.365385 316.788462 644.365385 319.240385 644.365385 321.692308 644.365385 324.144231 644.365385 326.596154 644.365385 329.048077 644.365385 331.500000 644.365385 333.951923 644.365385 336.403846 644.365385 338.855769 644.365385 341.307692 644.365385 343.759615 644.365385 346.211538 644.365385 348.663462 644.365385 351.115385 644.365385 353.567308 644.365385 356.019231 644.365385 358.471154 644.365385 360.923077 644.365385 363.375000 644.365385 365.826923 644.365385 368.278846 644.365385 370.730769 644.365385 373.182692 644.365385 375.634615 644.365385 378.086538 644.365385 380.538462 644.365385 382.990385 644.365385 385.442308 644.365385 387.894231 644.365385 390.346154 644.365385 392.798077 644.365385 395.250000 644.365385 397.701923 644.365385 400.153846 644.365385 402.605769 644.365385 405.057692 644.365385 407.509615 644.365385 409.961538 644.365385 412.413462 644.365385 414.865385 644.365385 417.317308 644.365385 419.769231 644.365385 422.221154 644.365385 424.673077 644.365385 427.125000 644.365385 429.576923 644.365385 432.028846 644.365385 434.480769 644.365385 436.932692 644.365385 439.384615 644.365385 441.836538 644.365385 444.288462 644.365385 446.740385 644.365385 449.192308 644.365385 451.644231 644.365385 454.096154 644.365385 456.548077 644.365385 459.000000 644.365385 461.451923 644.365385 463.903846 644.365385 466.355769 644.365385 468.807692 644.365385 471.259615 644.365385 473.711538 644.365385 476.163462 644.365385 478.615385 644.365385 481.067308 644.365385 483.519231 644.365385 485.971154 644.365385 488.423077 644.365385 490.875000 644.365385 493.326923 644.365385 495.778846 644.365385 498.230769 644.365385 500.682692 644.365385 503.134615 644.365385 505.586538 644.365385 508.038462 644.365385 510.490385 644.365385 512.942308 644.365385 515.394231 644.365385 517.846154 644.365385 520.298077 644.365385 522.750000 644.365385 525.201923 644.365385 527.653846 644.365385 530.105769 644.365385 532.557692 644.365385 535.009615 644.365385 537.461538 644.365385 539.913462 644.365385 542.365385 644.365385 544.817308 644.365385 547.269231 644.365385 549.721154 644.365385 552.173077 644.365385 554.625000 644.365385 557.076923 644.365385 559.528846 644.365385 561.980769 644.365385 564.432692 644.365385 566.884615 644.365385 569.336538 644.365385 571.788462 644.365385 574.240385 644.365385 576.692308 644.365385 579.144231 644.365385 581.596154 644.365385 584.048077 644.365385 586.500000 644.365385 588.951923 644.365385 591.403846 644.365385 593.855769 644.365385 596.307692 644.365385 598.759615 644.365385 601.211538 644.365385 603.663462 644.365385 606.115385 644.365385 608.567308 644.365385 611.019231 644.365385 613.471154 644.365385 615.923077 644.365385 618.375000 644.365385 620.826923 644.365385 623.278846 644.365385 625.730769 644.365385 628.182692 644.365385 630.634615 644.365385 633.086538 644.365385 635.538462 644.365385 637.990385 644.365385 640.442308 644.365385 642.894231 644.365385 645.346154 644.365385 647.798077 644.365385 650.250000 644.365385 652.701923 644.365385 655.153846 644.365385 657.605769 644.365385 660.057692 644.365385 662.509615 643.549945 664.961538 622.183849 667.413462 612.022212 669.865385 605.232106 672.317308 600.990250 674.769231 598.049961 677.221154 595.446826 679.673077 593.071073 682.125000 590.342485 684.576923 587.072885 687.028846 583.764080 689.480769 580.369027 691.932692 576.401598 694.384615 572.638029 696.836538 569.015593 699.288462 564.954075 701.740385 561.496296 704.192308 558.211013 706.644231 555.129591 709.096154 552.157940 711.548077 549.264696 714.000000 546.536108 716.451923 544.152514 718.903846 541.925736 721.355769 539.847932 723.807692 538.162167 726.259615 536.641057 728.711538 535.464942 731.163462 534.531891 733.615385 533.708610 736.067308 533.042144 738.519231 532.367838 740.971154 531.607284 743.423077 530.791844 745.875000 529.866633 748.326923 528.698358 750.778846 527.467358 753.230769 526.079541 755.682692 524.621158 758.134615 523.170616 760.586538 521.594621 763.038462 520.183283 765.490385 519.030690 767.942308 517.493899 770.394231 516.137446 772.846154 514.679063 775.298077 513.455903 777.750000 511.958316 780.201923 510.578341 782.653846 509.394385 785.105769 508.367244 787.557692 507.394989 790.009615 507.394989 792.461538 507.394989 794.913462 507.394989 797.365385 507.394989 799.817308 507.394989 802.269231 507.394989 804.721154 507.394989 807.173077 507.394989 809.625000 507.394989 812.076923 507.394989 814.528846 507.394989 816.980769 507.394989 819.432692 507.394989 821.884615 507.394989 824.336538 507.394989 826.788462 507.394989 829.240385 507.394989 831.692308 507.394989 834.144231 507.394989 836.596154 507.394989 839.048077 507.394989 841.500000 507.394989 843.951923 507.394989 846.403846 507.394989 848.855769 507.394989 851.307692 507.394989 853.759615 507.394989 856.211538 507.394989 858.663462 507.394989 861.115385 507.394989 863.567308 507.394989 866.019231 507.394989 868.471154 507.394989 870.923077 507.394989 873.375000 507.394989 875.826923 507.394989 878.278846 507.394989 880.730769 507.394989 883.182692 507.394989 885.634615 507.394989 888.086538 507.394989 890.538462 507.394989 892.990385 507.394989 895.442308 507.394989 897.894231 507.394989 900.346154 507.394989" /></g><g class="series serie-1 color-1"><path class="line reactive nofill" d="M17.653846 629.091566 L20.105769 623.501098 22.557692 619.439580 25.009615 617.306890 27.461538 615.730896 29.913462 614.092175 32.365385 612.727881 34.817308 611.387110 37.269231 609.081924 39.721154 606.078909 42.173077 602.777945 44.625000 598.614497 47.076923 595.054788 49.528846 591.973365 51.980769 589.291822 54.432692 587.355152 56.884615 585.355756 59.336538 583.176022 61.788462 581.356964 64.240385 579.663358 66.692308 578.338268 69.144231 577.413057 71.596154 576.417279 74.048077 575.617521 76.500000 574.904011 78.951923 574.355157 81.403846 573.908233 83.855769 573.508354 86.307692 573.241768 88.759615 572.959500 91.211538 572.669392 93.663462 572.410646 96.115385 571.971563 98.567308 571.548162 101.019231 571.054193 103.471154 570.442613 105.923077 569.603651 108.375000 568.701962 110.826923 567.847319 113.278846 567.133809 115.730769 566.334050 118.182692 565.510769 120.634615 564.742374 123.086538 564.060227 125.538462 563.487851 127.990385 562.978201 130.442308 562.397984 132.894231 562.029468 135.346154 561.692315 137.798077 561.300276 140.250000 561.088576 142.701923 560.782786 145.153846 560.657333 147.605769 560.516199 150.057692 560.406429 152.509615 560.226091 154.961538 560.006549 157.413462 559.661556 159.865385 559.332243 162.317308 558.924523 164.769231 558.359988 167.221154 557.913064 169.673077 557.395573 172.125000 556.807516 174.576923 556.258662 177.028846 555.756853 179.480769 555.317770 181.932692 554.831642 184.384615 554.478807 186.836538 554.133813 189.288462 553.843705 191.740385 553.537915 194.192308 553.263488 196.644231 552.942016 199.096154 552.840086 201.548077 552.722475 204.000000 552.604863 206.451923 552.495093 208.903846 552.416685 211.355769 552.306914 213.807692 552.165780 216.259615 551.969761 218.711538 551.742379 221.163462 551.522837 223.615385 551.295455 226.067308 550.903417 228.519231 550.574104 230.971154 550.244792 233.423077 549.884117 235.875000 549.492078 238.326923 549.170607 240.778846 548.864817 243.230769 548.668797 245.682692 548.425733 248.134615 548.198351 250.586538 548.033695 253.038462 547.798472 255.490385 547.594612 257.942308 547.445637 260.394231 547.241777 262.846154 547.186892 265.298077 547.084962 267.750000 546.983032 270.201923 546.920306 272.653846 546.865420 275.105769 546.818376 277.557692 546.724287 280.009615 546.622357 282.461538 546.489063 284.913462 546.379293 287.365385 546.261681 289.817308 546.159751 292.269231 546.042140 294.721154 545.940210 297.173077 545.775554 299.625000 545.595216 302.076923 545.469764 304.528846 545.359993 306.980769 545.234540 309.432692 545.132610 311.884615 545.022840 314.336538 544.913069 316.788462 544.858184 319.240385 544.740572 321.692308 544.677846 324.144231 544.622960 326.596154 544.552394 329.048077 544.458304 331.500000 544.419100 333.951923 544.348534 336.403846 544.246604 338.855769 544.144674 341.307692 543.987858 343.759615 543.807520 346.211538 543.587979 348.663462 543.352756 351.115385 543.164577 353.567308 542.929354 356.019231 542.749017 358.471154 542.560838 360.923077 542.325615 363.375000 542.160959 365.826923 541.941417 368.278846 541.847328 370.730769 541.682672 373.182692 541.549379 375.634615 541.408245 378.086538 541.267111 380.538462 541.141659 382.990385 541.024047 385.442308 540.898595 387.894231 540.757461 390.346154 540.592805 392.798077 540.310537 395.250000 539.957703 397.701923 539.573505 400.153846 539.079537 402.605769 538.522842 405.057692 537.926944 407.509615 537.401612 409.961538 536.931166 412.413462 536.437197 414.865385 535.715847 417.317308 535.229719 419.769231 534.829840 422.221154 534.547572 424.673077 534.257464 427.125000 531.489672 429.576923 496.872676 432.028846 479.105494 434.480769 467.728538 436.932692 460.083788 439.384615 454.218892 441.836538 448.009003 444.288462 441.940248 446.740385 434.405269 449.192308 424.110339 451.644231 411.353407 454.096154 396.565717 456.548077 378.351610 459.000000 357.957770 461.451923 337.234617 463.903846 322.094092 466.355769 308.482516 468.807692 294.800374 471.259615 281.902309 473.711538 269.929455 476.163462 260.983137 478.615385 252.217157 481.067308 245.560344 483.519231 239.648404 485.971154 235.304618 488.423077 230.882424 490.875000 227.659868 493.326923 225.166504 495.778846 223.363127 498.230769 221.951788 500.682692 220.383634 503.134615 218.713551 505.586538 216.831766 508.038462 214.667714 510.490385 212.299801 512.942308 208.842022 515.394231 204.890275 517.846154 200.483762 520.298077 195.371581 522.750000 190.424056 525.201923 185.453008 527.653846 180.921043 530.105769 176.122493 532.557692 171.661095 535.009615 167.395717 537.461538 164.047708 539.913462 161.295598 542.365385 158.598374 544.817308 156.136372 547.269231 153.870390 549.721154 152.161102 552.173077 150.702719 554.625000 149.730464 557.076923 148.781731 559.528846 147.911405 561.980769 147.190055 564.432692 146.186436 566.884615 145.057365 569.336538 143.740116 571.788462 141.991625 574.240385 139.764846 576.692308 137.114666 579.144231 134.284149 581.596154 131.375223 584.048077 128.858336 586.500000 126.513946 588.951923 124.036263 591.403846 121.205746 593.855769 118.712381 596.307692 116.697303 598.759615 114.791996 601.211538 113.145435 603.663462 111.663530 606.115385 110.471733 608.567308 109.209369 611.019231 108.158706 613.471154 107.374629 615.923077 106.896342 618.375000 106.229877 620.826923 105.728067 623.278846 105.155691 625.730769 104.591156 628.182692 103.830601 630.634615 102.889709 633.086538 101.666549 635.538462 100.357140 637.990385 98.632171 640.442308 96.852317 642.894231 95.378252 645.346154 93.927710 647.798077 92.108651 650.250000 90.368001 652.701923 88.886095 655.153846 87.553164 657.605769 86.416253 660.057692 85.396953 662.509615 83.899366 664.961538 75.454858 667.413462 70.899371 669.865385 67.896356 672.317308 65.653896 674.769231 64.305284 677.221154 62.917468 679.673077 61.741352 682.125000 60.557396 684.576923 59.146058 687.028846 57.868013 689.480769 56.276336 691.932692 54.457278 694.384615 52.795035 696.836538 51.195518 699.288462 49.266689 701.740385 47.486834 704.192308 45.738343 706.644231 43.880080 709.096154 42.319767 711.548077 40.673206 714.000000 39.010963 716.451923 37.458490 718.903846 36.109878 721.355769 34.965126 723.807692 33.969348 726.259615 32.934367 728.711538 32.111086 731.163462 31.475984 733.615385 30.934971 736.067308 30.362594 738.519231 29.876467 740.971154 29.296250 743.423077 28.700351 745.875000 28.049568 748.326923 27.375261 750.778846 26.473573 753.230769 25.422910 755.682692 24.434973 758.134615 23.478399 760.586538 22.435577 763.038462 21.416277 765.490385 20.522429 767.942308 19.526651 770.394231 18.530874 772.846154 17.613504 775.298077 16.813745 777.750000 15.802286 780.201923 14.861394 782.653846 14.022432 785.105769 13.316762 787.557692 12.634615 790.009615 12.634615 792.461538 12.634615 794.913462 12.634615 797.365385 12.634615 799.817308 12.634615 802.269231 12.634615 804.721154 12.634615 807.173077 12.634615 809.625000 12.634615 812.076923 12.634615 814.528846 12.634615 816.980769 12.634615 819.432692 12.634615 821.884615 12.634615 824.336538 12.634615 826.788462 12.634615 829.240385 12.634615 831.692308 12.634615 834.144231 12.634615 836.596154 12.634615 839.048077 12.634615 841.500000 12.634615 843.951923 12.634615 846.403846 12.634615 848.855769 12.634615 851.307692 12.634615 853.759615 12.634615 856.211538 12.634615 858.663462 12.634615 861.115385 12.634615 863.567308 12.634615 866.019231 12.634615 868.471154 12.634615 870.923077 12.634615 873.375000 12.634615 875.826923 12.634615 878.278846 12.634615 880.730769 12.634615 883.182692 12.634615 885.634615 12.634615 888.086538 12.634615 890.538462 12.634615 892.990385 12.634615 895.442308 12.634615 897.894231 12.634615 900.346154 12.634615" /></g></g><g class="titles"><text class="title plot_title" x="512.0" y="26">Election 10 Participation</text><text class="title" transform="rotate(-90 0.000000 374.500000)" x="0" y="400.5">Users</text></g><g class="plot overlay" transform="translate(86, 46)"><g class="series serie-0 color-0" /><g class="series serie-1 color-1" /></g><g class="plot text-overlay" transform="translate(86, 46)"><g class="series serie-0 color-0" /><g class="series serie-1 color-1" /></g><g class="plot tooltip-overlay" transform="translate(86, 46)"><g class="tooltip" style="opacity: 0" transform="translate(0 0)"><a><rect class="tooltip-box" height="0" rx="0" ry="0" width="0" /><text class="text"><tspan class="label" /><tspan class="value" /></text></a></g></g><g class="legends" transform="translate(96, 713)"><g class="legend reactive activate-serie" id="activate-serie-0"><rect class="color-0 reactive" height="12" width="12" x="0.0" y="1.0" /><text x="17.0" y="11.2">constituents</text></g><g class="legend reactive activate-serie" id="activate-serie-1"><rect class="color-1 reactive" height="12" width="12" x="459.0" y="1.0" /><text x="476.0" y="11.2">caucus</text></g></g></g></svg>