<?xml version='1.0' encoding='utf-8'?>
<svg xmlns:xlink="http://www.w3.org/1999/xlink" class="pygal-chart" id="chart-860fc408-a758-4b13-8694-8d638ab6148c" viewBox="0 0 1024 768" xmlns="http://www.w3.org/2000/svg"><!--Generated with pygal 1.7.0 (etree) ©Kozea 2011-2014 on 2015-04-20--><!--http://pygal.org--><!--http://github.com/Kozea/pygal--><defs><style type="text/css">#chart-860fc408-a758-4b13-8694-8d638ab6148c .title{font-family:"monospace";font-size:16px}#chart-860fc408-a758-4b13-8694-8d638ab6148c .legends .legend text{font-family:"monospace";font-size:14px}#chart-860fc408-a758-4b13-8694-8d638ab6148c .axis text{font-family:"monospace";font-size:10px}#chart-860fc408-a758-4b13-8694-8d638ab6148c .axis text.major{font-family:"monospace";font-size:10px}#chart-860fc408-a758-4b13-8694-8d638ab6148c .series text{font-family:"monospace";font-size:8px}#chart-860fc408-a758-4b13-8694-8d638ab6148c .tooltip text{font-family:"monospace";font-size:16px}#chart-860fc408-a758-4b13-8694-8d638ab6148c text.no_data{font-size:64px}
#chart-860fc408-a758-4b13-8694-8d638ab6148c{background-color:black}#chart-860fc408-a758-4b13-8694-8d638ab6148c path,#chart-860fc408-a758-4b13-8694-8d638ab6148c line,#chart-860fc408-a758-4b13-8694-8d638ab6148c rect,#chart-860fc408-a758-4b13-8694-8d638ab6148c circle{-webkit-transition:250ms;-moz-transition:250ms;transition:250ms}#chart-860fc408-a758-4b13-8694-8d638ab6148c .graph &gt; .background{fill:black}#chart-860fc408-a758-4b13-8694-8d638ab6148c .plot &gt; .background{fill:#111}#chart-860fc408-a758-4b13-8694-8d638ab6148c .graph{fill:#999}#chart-860fc408-a758-4b13-8694-8d638ab6148c text.no_data{fill:#eee}#chart-860fc408-a758-4b13-8694-8d638ab6148c .title{fill:#eee}#chart-860fc408-a758-4b13-8694-8d638ab6148c .legends .legend text{fill:#999}#chart-860fc408-a758-4b13-8694-8d638ab6148c .legends .legend:hover text{fill:#eee}#chart-860fc408-a758-4b13-8694-8d638ab6148c .axis .line{stroke:#eee}#chart-860fc408-a758-4b13-8694-8d638ab6148c .axis .guide.line{stroke:#555}#chart-860fc408-a758-4b13-8694-8d638ab6148c .axis .major.line{stroke:#999}#chart-860fc408-a758-4b13-8694-8d638ab6148c .axis text.major{stroke:#eee;fill:#eee}#chart-860fc408-a758-4b13-8694-8d638ab6148c .axis.y .guides:hover .guide.line,#chart-860fc408-a758-4b13-8694-8d638ab6148c .line-graph .axis.x .guides:hover .guide.line,#chart-860fc408-a758-4b13-8694-8d638ab6148c .stackedline-graph .axis.x .guides:hover .guide.line,#chart-860fc408-a758-4b13-8694-8d638ab6148c .xy-graph .axis.x .guides:hover .guide.line{stroke:#eee}#chart-860fc408-a758-4b13-8694-8d638ab6148c .axis .guides:hover text{fill:#eee}#chart-860fc408-a758-4b13-8694-8d638ab6148c .reactive{fill-opacity:.8}#chart-860fc408-a758-4b13-8694-8d638ab6148c .reactive.active,#chart-860fc408-a758-4b13-8694-8d638ab6148c .active .reactive{fill-opacity:.4}#chart-860fc408-a758-4b13-8694-8d638ab6148c .series{stroke-width:1.0;stroke-linejoin:round;stroke-linecap:round;stroke-dasharray:0,0}#chart-860fc408-a758-4b13-8694-8d638ab6148c .series text{fill:#eee}#chart-860fc408-a758-4b13-8694-8d638ab6148c .tooltip rect{fill:#111;stroke:#eee}#chart-860fc408-a758-4b13-8694-8d638ab6148c .tooltip text{fill:#eee}#chart-860fc408-a758-4b13-8694-8d638ab6148c .map-element{fill:#999;stroke:#555 !important;opacity:.9;stroke-width:3;-webkit-transition:250ms;-moz-transition:250ms;-o-transition:250ms;transition:250ms}#chart-860fc408-a758-4b13-8694-8d638ab6148c .map-element:hover{opacity:1;stroke-width:10}#chart-860fc408-a758-4b13-8694-8d638ab6148c .color-0,#chart-860fc408-a758-4b13-8694-8d638ab6148c .color-0 a:visited{stroke:#ff5995;fill:#ff5995}#chart-860fc408-a758-4b13-8694-8d638ab6148c .color-1,#chart-860fc408-a758-4b13-8694-8d638ab6148c .color-1 a:visited{stroke:#b6e354;fill:#b6e354}#chart-860fc408-a758-4b13-8694-8d638ab6148c .color-2,#chart-860fc408-a758-4b13-8694-8d638ab6148c .color-2 a:visited{stroke:#feed6c;fill:#feed6c}#chart-860fc408-a758-4b13-8694-8d638ab6148c .color-3,#chart-860fc408-a758-4b13-8694-8d638ab6148c .color-3 a:visited{stroke:#8cedff;fill:#8cedff}#chart-860fc408-a758-4b13-8694-8d638ab6148c .color-4,#chart-860fc408-a758-4b13-8694-8d638ab6148c .color-4 a:visited{stroke:#9e6ffe;fill:#9e6ffe}#chart-860fc408-a758-4b13-8694-8d638ab6148c .color-5,#chart-860fc408-a758-4b13-8694-8d638ab6148c .color-5 a:visited{stroke:#899ca1;fill:#899ca1}#chart-860fc408-a758-4b13-8694-8d638ab6148c .color-6,#chart-860fc408-a758-4b13-8694-8d638ab6148c .color-6 a:visited{stroke:#f8f8f2;fill:#f8f8f2}#chart-860fc408-a758-4b13-8694-8d638ab6148c .color-7,#chart-860fc408-a758-4b13-8694-8d638ab6148c .color-7 a:visited{stroke:#bf4646;fill:#bf4646}#chart-860fc408-a758-4b13-8694-8d638ab6148c .color-8,#chart-860fc408-a758-4b13-8694-8d638ab6148c .color-8 a:visited{stroke:#516083;fill:#516083}#chart-860fc408-a758-4b13-8694-8d638ab6148c .color-9,#chart-860fc408-a758-4b13-8694-8d638ab6148c .color-9 a:visited{stroke:#f92672;fill:#f92672}#chart-860fc408-a758-4b13-8694-8d638ab6148c .color-10,#chart-860fc408-a758-4b13-8694-8d638ab6148c .color-10 a:visited{stroke:#82b414;fill:#82b414}#chart-860fc408-a758-4b13-8694-8d638ab6148c .color-11,#chart-860fc408-a758-4b13-8694-8d638ab6148c .color-11 a:visited{stroke:#fd971f;fill:#fd971f}#chart-860fc408-a758-4b13-8694-8d638ab6148c .color-12,#chart-860fc408-a758-4b13-8694-8d638ab6148c .color-12 a:visited{stroke:#56c2d6;fill:#56c2d6}#chart-860fc408-a758-4b13-8694-8d638ab6148c .color-13,#chart-860fc408-a758-4b13-8694-8d638ab6148c .color-13 a:visited{stroke:#808384;fill:#808384}#chart-860fc408-a758-4b13-8694-8d638ab6148c .color-14,#chart-860fc408-a758-4b13-8694-8d638ab6148c .color-14 a:visited{stroke:#8c54fe;fill:#8c54fe}#chart-860fc408-a758-4b13-8694-8d638ab6148c .color-15,#chart-860fc408-a758-4b13-8694-8d638ab6148c .color-15 a:visited{stroke:#465457;fill:#465457}
#chart-860fc408-a758-4b13-8694-8d638ab6148c text.no_data{text-anchor:middle}#chart-860fc408-a758-4b13-8694-8d638ab6148c .guide.line{fill-opacity:0}#chart-860fc408-a758-4b13-8694-8d638ab6148c .centered{text-anchor:middle}#chart-860fc408-a758-4b13-8694-8d638ab6148c .title{text-anchor:middle}#chart-860fc408-a758-4b13-8694-8d638ab6148c .legends .legend text{fill-opacity:1}#chart-860fc408-a758-4b13-8694-8d638ab6148c .axis.x text{text-anchor:middle}#chart-860fc408-a758-4b13-8694-8d638ab6148c .axis.x:not(.web) text[transform]{text-anchor:start}#chart-860fc408-a758-4b13-8694-8d638ab6148c .axis.y text{text-anchor:end}#chart-860fc408-a758-4b13-8694-8d638ab6148c .axis.y2 text{text-anchor:start}#chart-860fc408-a758-4b13-8694-8d638ab6148c .axis.y .logarithmic text:not(.major),#chart-860fc408-a758-4b13-8694-8d638ab6148c .axis.y2 .logarithmic text:not(.major){font-size:50%}#chart-860fc408-a758-4b13-8694-8d638ab6148c .axis .guide.line{stroke-dasharray:4,4}#chart-860fc408-a758-4b13-8694-8d638ab6148c .axis .major.guide.line{stroke-dasharray:6,6}#chart-860fc408-a758-4b13-8694-8d638ab6148c .axis text.major{stroke-width:0.5px}#chart-860fc408-a758-4b13-8694-8d638ab6148c .horizontal .axis.y .guide.line,#chart-860fc408-a758-4b13-8694-8d638ab6148c .horizontal .axis.y2 .guide.line,#chart-860fc408-a758-4b13-8694-8d638ab6148c .vertical .axis.x .guide.line{opacity:0}#chart-860fc408-a758-4b13-8694-8d638ab6148c .horizontal .axis.always_show .guide.line,#chart-860fc408-a758-4b13-8694-8d638ab6148c .vertical .axis.always_show .guide.line{opacity:1 !important}#chart-860fc408-a758-4b13-8694-8d638ab6148c .axis.y .guides:hover .guide.line,#chart-860fc408-a758-4b13-8694-8d638ab6148c .axis.y2 .guides:hover .guide.line,#chart-860fc408-a758-4b13-8694-8d638ab6148c .axis.x .guides:hover .guide.line{opacity:1}#chart-860fc408-a758-4b13-8694-8d638ab6148c .axis .guides:hover text{opacity:1}#chart-860fc408-a758-4b13-8694-8d638ab6148c .nofill{fill:none}#chart-860fc408-a758-4b13-8694-8d638ab6148c .subtle-fill{fill-opacity:.2}#chart-860fc408-a758-4b13-8694-8d638ab6148c .dot{stroke-width:1px;fill-opacity:1}#chart-860fc408-a758-4b13-8694-8d638ab6148c .dot.active{stroke-width:5px}#chart-860fc408-a758-4b13-8694-8d638ab6148c .series text{stroke:none}#chart-860fc408-a758-4b13-8694-8d638ab6148c .series text.active{opacity:1}#chart-860fc408-a758-4b13-8694-8d638ab6148c .tooltip rect{fill-opacity:0.8}#chart-860fc408-a758-4b13-8694-8d638ab6148c .tooltip text{fill-opacity:1}#chart-860fc408-a758-4b13-8694-8d638ab6148c .tooltip text tspan.label{fill-opacity:.8}</style><script type="text/javascript">window.config = {"value_font_size": 8, "x_labels_major": null, "show_y_guides": true, "explicit_size": false, "x_title": null, "zero": 0, "mode": null, "include_x_axis": false, "strict": false, "y_title": "Users", "truncate_label": null, "show_x_guides": false, "no_data_font_size": 64, "tooltip_font_size": 16, "major_label_font_size": 10, "height": 768, "range": null, "x_label_format": "%Y-%m-%d %H:%M:%S.%f", "xrange": null, "stack_from_top": false, "y_labels_major": null, "stroke": true, "title_font_size": 16, "margin_bottom": null, "y_labels_major_count": null, "print_values": false, "x_value_formatter": null, "css": ["style.css", "graph.css"], "human_readable": false, "x_labels_major_every": null, "show_minor_y_labels": true, "x_labels": null, "show_y_labels": true, "no_data_text": "No data", "tooltip_border_radius": 0, "disable_xml_declaration": false, "rounded_bars": null, "truncate_legend": null, "interpolation_precision": 250, "inner_radius": 0, "y_labels_major_every": null, "margin_right": null, "spacing": 10, "x_labels_major_count": null, "logarithmic": false, "interpolate": null, "label_font_size": 10, "margin": 20, "y_label_rotation": 0, "legend_box_size": 12, "title": "Election 5 and 6 Participation", "show_legend": true, "fill": false, "print_zeroes": false, "show_dots": false, "pretty_print": false, "interpolation_parameters": {}, "legend_at_bottom": true, "style": {"foreground_light": "#eee", "transition": "250ms", "foreground_dark": "#555", "stroke_width": 1.0, "stroke_style": "round", "font_family": "monospace", "plot_background": "#111", "background": "black", "opacity_hover": ".4", "foreground": "#999", "stroke_dasharray": "0,0", "colors": ["#ff5995", "#b6e354", "#feed6c", "#8cedff", "#9e6ffe", "#899ca1", "#f8f8f2", "#bf4646", "#516083", "#f92672", "#82b414", "#fd971f", "#56c2d6", "#808384", "#8c54fe", "#465457"], "opacity": ".8"}, "show_only_major_dots": false, "y_labels": null, "legend_font_size": 14, "show_x_labels": true, "js": ["http://kozea.github.io/pygal.js/javascripts/svg.jquery.js", "http://kozea.github.io/pygal.js/javascripts/pygal-tooltips.js"], "missing_value_fill_truncation": "x", "legend_at_bottom_columns": null, "half_pie": false, "width": 1024, "margin_left": null, "show_minor_x_labels": true, "order_min": null, "dots_size": 2.5, "no_prefix": false, "x_label_rotation": 0, "margin_top": null}</script><script type="text/javascript" xlink:href="http://kozea.github.io/pygal.js/javascripts/svg.jquery.js" /><script type="text/javascript" xlink:href="http://kozea.github.io/pygal.js/javascripts/pygal-tooltips.js" /></defs><title>Election 5 and 6 Participation</title><g class="graph line-graph vertical"><rect class="background" height="768" width="1024" x="0" y="0" /><g class="plot" transform="translate(86, 46)"><rect class="background" height="657.0" width="918.0" x="0" y="0" /><g class="axis y"><g class="guides"><path class="axis major line" d="M0.000000 644.365385 h918.000000" /><text class="major" x="-5" y="647.8653846153846">0</text></g><g class="guides"><path class="guide line" d="M0.000000 562.463894 h918.000000" /><text class="" x="-5" y="565.9638937838638">10000</text></g><g class="guides"><path class="guide line" d="M0.000000 480.562403 h918.000000" /><text class="" x="-5" y="484.06240295234306">20000</text></g><g class="guides"><path class="guide line" d="M0.000000 398.660912 h918.000000" /><text class="" x="-5" y="402.1609121208223">30000</text></g><g class="guides"><path class="guide line" d="M0.000000 316.759421 h918.000000" /><text class="" x="-5" y="320.2594212893015">40000</text></g><g class="guides"><path class="major guide line" d="M0.000000 234.857930 h918.000000" /><text class="major" x="-5" y="238.3579304577807">50000</text></g><g class="guides"><path class="guide line" d="M0.000000 152.956440 h918.000000" /><text class="" x="-5" y="156.4564396262599">60000</text></g><g class="guides"><path class="guide line" d="M0.000000 71.054949 h918.000000" /><text class="" x="-5" y="74.55494879473918">70000</text></g></g><g class="series serie-0 color-0"><path class="line reactive nofill" d="M17.653846 644.365385 L20.105769 644.365385 22.557692 644.365385 25.009615 644.365385 27.461538 644.365385 29.913462 644.365385 32.365385 644.365385 34.817308 644.365385 37.269231 644.365385 39.721154 644.365385 42.173077 644.365385 44.625000 644.365385 47.076923 644.365385 49.528846 644.365385 51.980769 644.365385 54.432692 644.365385 56.884615 644.365385 59.336538 644.365385 61.788462 644.365385 64.240385 644.365385 66.692308 644.365385 69.144231 644.365385 71.596154 644.365385 74.048077 644.365385 76.500000 644.365385 78.951923 644.365385 81.403846 644.365385 83.855769 644.365385 86.307692 644.365385 88.759615 644.365385 91.211538 644.365385 93.663462 644.365385 96.115385 644.365385 98.567308 644.365385 101.019231 644.365385 103.471154 644.365385 105.923077 644.365385 108.375000 644.365385 110.826923 644.365385 113.278846 644.365385 115.730769 644.365385 118.182692 644.365385 120.634615 644.365385 123.086538 644.365385 125.538462 644.365385 127.990385 644.365385 130.442308 644.365385 132.894231 644.365385 135.346154 644.365385 137.798077 644.365385 140.250000 644.365385 142.701923 644.365385 145.153846 644.365385 147.605769 644.365385 150.057692 644.365385 152.509615 644.365385 154.961538 644.365385 157.413462 644.365385 159.865385 644.365385 162.317308 644.365385 164.769231 644.365385 167.221154 644.365385 169.673077 644.365385 172.125000 644.365385 174.576923 644.365385 177.028846 644.365385 179.480769 644.365385 181.932692 644.365385 184.384615 644.365385 186.836538 644.365385 189.288462 644.365385 191.740385 644.365385 194.192308 644.365385 196.644231 644.365385 199.096154 644.365385 201.548077 644.365385 204.000000 644.365385 206.451923 644.365385 208.903846 644.365385 211.355769 644.365385 213.807692 644.365385 216.259615 644.365385 218.711538 644.365385 221.163462 644.365385 223.615385 644.365385 226.067308 644.365385 228.519231 644.365385 230.971154 644.365385 233.423077 644.365385 235.875000 644.365385 238.326923 644.365385 240.778846 644.365385 243.230769 644.365385 245.682692 644.365385 248.134615 644.365385 250.586538 644.365385 253.038462 644.365385 255.490385 644.365385 257.942308 644.365385 260.394231 644.365385 262.846154 644.365385 265.298077 644.365385 267.750000 644.365385 270.201923 644.365385 272.653846 644.365385 275.105769 644.365385 277.557692 644.365385 280.009615 644.365385 282.461538 644.365385 284.913462 644.365385 287.365385 644.365385 289.817308 644.365385 292.269231 644.365385 294.721154 644.365385 297.173077 644.365385 299.625000 644.365385 302.076923 644.365385 304.528846 644.365385 306.980769 644.365385 309.432692 644.365385 311.884615 644.365385 314.336538 644.365385 316.788462 644.365385 319.240385 644.365385 321.692308 644.365385 324.144231 644.365385 326.596154 644.365385 329.048077 644.365385 331.500000 644.365385 333.951923 644.365385 336.403846 644.365385 338.855769 644.365385 341.307692 644.365385 343.759615 644.365385 346.211538 644.365385 348.663462 644.365385 351.115385 644.365385 353.567308 644.365385 356.019231 644.365385 358.471154 644.365385 360.923077 644.365385 363.375000 644.365385 365.826923 644.365385 368.278846 644.365385 370.730769 644.365385 373.182692 644.365385 375.634615 644.365385 378.086538 644.365385 380.538462 644.365385 382.990385 644.365385 385.442308 644.365385 387.894231 644.365385 390.346154 644.365385 392.798077 644.365385 395.250000 644.365385 397.701923 644.365385 400.153846 644.365385 402.605769 644.365385 405.057692 644.365385 407.509615 644.365385 409.961538 644.365385 412.413462 644.365385 414.865385 644.365385 417.317308 644.365385 419.769231 644.365385 422.221154 644.365385 424.673077 644.365385 427.125000 644.365385 429.576923 644.365385 432.028846 644.365385 434.480769 644.365385 436.932692 644.365385 439.384615 644.365385 441.836538 644.365385 444.288462 644.365385 446.740385 644.365385 449.192308 644.365385 451.644231 644.365385 454.096154 644.365385 456.548077 644.365385 459.000000 644.365385 461.451923 644.365385 463.903846 644.365385 466.355769 644.365385 468.807692 644.365385 471.259615 644.365385 473.711538 644.365385 476.163462 644.365385 478.615385 644.365385 481.067308 644.365385 483.519231 644.365385 485.971154 644.365385 488.423077 644.365385 490.875000 644.365385 493.326923 644.365385 495.778846 644.365385 498.230769 644.365385 500.682692 644.365385 503.134615 644.365385 505.586538 644.365385 508.038462 644.365385 510.490385 644.365385 512.942308 644.365385 515.394231 644.365385 517.846154 644.365385 520.298077 644.365385 522.750000 644.365385 525.201923 644.365385 527.653846 644.365385 530.105769 644.365385 532.557692 644.365385 535.009615 644.365385 537.461538 644.365385 539.913462 644.365385 542.365385 644.365385 544.817308 644.365385 547.269231 644.365385 549.721154 644.365385 552.173077 644.365385 554.625000 644.365385 557.076923 644.365385 559.528846 644.365385 561.980769 644.365385 564.432692 644.365385 566.884615 644.365385 569.336538 644.365385 571.788462 644.365385 574.240385 644.365385 576.692308 644.365385 579.144231 644.365385 581.596154 644.365385 584.048077 644.365385 586.500000 644.365385 588.951923 644.365385 591.403846 644.365385 593.855769 644.365385 596.307692 644.365385 598.759615 644.365385 601.211538 644.365385 603.663462 644.365385 606.115385 644.365385 608.567308 644.365385 611.019231 644.365385 613.471154 644.365385 615.923077 644.365385 618.375000 644.365385 620.826923 644.365385 623.278846 644.365385 625.730769 644.365385 628.182692 644.365385 630.634615 644.365385 633.086538 644.365385 635.538462 644.365385 637.990385 644.365385 640.442308 644.365385 642.894231 644.365385 645.346154 644.365385 647.798077 644.365385 650.250000 644.365385 652.701923 644.365385 655.153846 644.365385 657.605769 644.365385 660.057692 644.365385 662.509615 643.546370 664.961538 618.459943 667.413462 607.190298 669.865385 600.253242 672.317308 595.683138 674.769231 592.546311 677.221154 590.285830 679.673077 588.303814 682.125000 586.084284 684.576923 583.086689 687.028846 580.605074 689.480769 578.107079 691.932692 575.363379 694.384615 572.341214 696.836538 569.441901 699.288462 566.436116 701.740385 563.888980 704.192308 561.300893 706.644231 559.122313 709.096154 556.968304 711.548077 554.978098 714.000000 552.979701 716.451923 551.005875 718.903846 549.507078 721.355769 547.991900 723.807692 546.476723 726.259615 545.362862 728.711538 544.396425 731.163462 543.446368 733.615385 542.766585 736.067308 542.250606 738.519231 541.652725 740.971154 541.202267 743.423077 540.645337 745.875000 539.981935 748.326923 539.318532 750.778846 538.638750 753.230769 537.729644 755.682692 536.910629 758.134615 535.944191 760.586538 534.969563 763.038462 533.986745 765.490385 533.184111 767.942308 532.397856 770.394231 531.415039 772.846154 530.489552 775.298077 529.523114 777.750000 528.474775 780.201923 527.688521 782.653846 526.910457 785.105769 525.886688 787.557692 525.165955 790.009615 524.559884 792.461538 524.035714 794.913462 523.323171 797.365385 522.667959 799.817308 521.701522 802.269231 519.727696 804.721154 517.614637 807.173077 515.534340 809.625000 512.503984 812.076923 508.670995 814.528846 504.346596 816.980769 501.283480 819.432692 498.801865 821.884615 496.606905 824.336538 494.354614 826.788462 492.110513 829.240385 490.005645 831.692308 488.572369 834.144231 487.409368 836.596154 486.434740 839.048077 485.542014 841.500000 484.845851 843.951923 484.043216 846.403846 483.469906 848.855769 483.019448 851.307692 482.650891 853.759615 482.208623 856.211538 481.815496 858.663462 481.504270 861.115385 480.988291 863.567308 480.586973 866.019231 479.882621 868.471154 479.120937 870.923077 477.916985 873.375000 476.827695 875.826923 475.779356 878.278846 474.894820 880.730769 474.059425 883.182692 473.035656 885.634615 471.954556 888.086538 471.045450 890.538462 470.103583 892.990385 469.464751 895.442308 468.891441 897.894231 468.440982 900.346154 468.440982" /></g><g class="series serie-1 color-1"><path class="line reactive nofill" d="M17.653846 624.553414 L20.105769 617.452555 22.557692 612.546655 25.009615 610.269794 27.461538 608.410630 29.913462 607.051065 32.365385 605.716071 34.817308 604.389267 37.269231 602.210687 39.721154 600.220481 42.173077 598.181134 44.625000 595.593047 47.076923 592.529931 49.528846 589.491386 51.980769 587.099862 54.432692 585.527354 56.884615 583.954845 59.336538 582.112061 61.788462 580.678785 64.240385 579.335601 66.692308 578.066128 69.144231 577.157021 71.596154 576.108682 74.048077 575.461660 76.500000 574.675406 78.951923 573.930103 81.403846 573.364982 83.855769 572.963665 86.307692 572.586918 88.759615 572.382164 91.211538 572.136460 93.663462 571.817044 96.115385 571.653241 98.567308 571.325635 101.019231 570.907937 103.471154 570.457479 105.923077 569.794077 108.375000 569.196196 110.826923 568.663837 113.278846 568.057766 115.730769 567.443504 118.182692 566.984856 120.634615 566.386975 123.086538 565.780904 125.538462 565.363207 127.990385 565.002840 130.442308 564.617903 132.894231 564.273917 135.346154 563.897170 137.798077 563.585944 140.250000 563.405761 142.701923 563.225578 145.153846 563.061775 147.605769 562.922542 150.057692 562.775119 152.509615 562.603126 154.961538 562.455704 157.413462 562.160858 159.865385 562.013436 162.317308 561.767731 164.769231 561.456505 167.221154 561.137090 169.673077 560.825864 172.125000 560.498258 174.576923 560.236173 177.028846 559.916757 179.480769 559.597342 181.932692 559.228785 184.384615 558.958510 186.836538 558.671855 189.288462 558.458911 191.740385 558.188636 194.192308 558.033023 196.644231 557.844650 199.096154 557.672657 201.548077 557.508854 204.000000 557.386001 206.451923 557.287720 208.903846 557.214008 211.355769 557.123917 213.807692 557.009254 216.259615 556.902783 218.711538 556.755360 221.163462 556.558796 223.615385 556.386803 226.067308 556.149289 228.519231 555.960915 230.971154 555.821683 233.423077 555.633309 235.875000 555.461316 238.326923 555.248372 240.778846 555.059999 243.230769 554.838865 245.682692 554.617731 248.134615 554.445738 250.586538 554.273745 253.038462 554.150892 255.490385 554.019850 257.942308 553.896998 260.394231 553.815096 262.846154 553.757765 265.298077 553.692244 267.750000 553.651293 270.201923 553.593962 272.653846 553.536631 275.105769 553.405589 277.557692 553.331878 280.009615 553.209025 282.461538 553.127124 284.913462 553.077983 287.365385 553.012462 289.817308 552.963321 292.269231 552.897800 294.721154 552.815898 297.173077 552.791328 299.625000 552.717616 302.076923 552.562004 304.528846 552.422771 306.980769 552.332679 309.432692 552.258968 311.884615 552.177067 314.336538 552.111545 316.788462 552.046024 319.240385 551.964123 321.692308 551.890411 324.144231 551.824890 326.596154 551.792130 329.048077 551.775749 331.500000 551.693848 333.951923 551.661087 336.403846 551.628327 338.855769 551.579186 341.307692 551.521855 343.759615 551.439953 346.211538 551.308911 348.663462 551.235199 351.115385 551.153298 353.567308 551.087777 356.019231 551.005875 358.471154 550.956734 360.923077 550.874833 363.375000 550.768361 365.826923 550.620938 368.278846 550.588178 370.730769 550.391614 373.182692 550.252382 375.634615 550.162290 378.086538 550.096769 380.538462 550.006677 382.990385 549.957536 385.442308 549.867444 387.894231 549.777353 390.346154 549.695451 392.798077 549.605360 395.250000 549.507078 397.701923 549.408796 400.153846 549.154902 402.605769 548.925577 405.057692 548.663493 407.509615 548.401408 409.961538 548.065612 412.413462 547.778956 414.865385 547.484111 417.317308 547.271167 419.769231 547.041843 422.221154 546.902611 424.673077 546.714237 427.125000 541.767387 429.576923 507.499803 432.028846 488.408566 434.480769 477.253583 436.932692 468.359081 439.384615 462.036286 441.836538 456.540696 444.288462 451.086056 446.740385 444.771451 449.192308 435.680386 451.644231 425.434509 454.096154 414.156674 456.548077 401.077006 459.000000 386.154554 461.451923 370.691553 463.903846 357.857589 466.355769 348.307876 468.807692 339.765550 471.259615 331.182274 473.711538 322.615378 476.163462 315.334335 478.615385 308.544702 481.067308 303.057302 483.519231 298.675572 485.971154 294.351173 488.423077 290.690177 490.875000 287.676202 493.326923 284.875171 495.778846 282.966866 498.230769 281.484449 500.682692 280.255927 503.134615 279.035595 505.586538 277.905354 508.038462 276.373796 510.490385 274.449111 512.942308 272.540806 515.394231 270.018240 517.846154 267.340062 520.298077 264.448939 522.750000 261.426774 525.201923 258.789546 527.653846 256.365262 530.105769 253.678893 532.557692 251.025285 535.009615 248.355296 537.461538 246.012914 539.913462 244.047278 542.365385 242.081642 544.817308 240.312570 547.269231 238.740061 549.721154 237.323165 552.173077 236.242066 554.625000 235.308389 557.076923 234.563085 559.528846 234.022535 561.980769 233.342753 564.432692 232.662971 566.884615 232.056899 569.336538 231.115032 571.788462 230.279637 574.240385 229.133016 576.692308 228.068297 579.144231 226.667781 581.596154 224.988801 584.048077 223.743898 586.500000 222.286052 588.951923 220.836395 591.403846 219.485021 593.855769 218.207357 596.307692 216.913314 598.759615 215.799454 601.211538 214.898537 603.663462 213.833818 606.115385 212.703577 608.567308 211.925513 611.019231 211.180209 613.471154 210.647850 615.923077 210.181011 618.375000 209.820645 620.826923 209.419327 623.278846 209.001630 625.730769 208.592122 628.182692 208.182615 630.634615 207.764917 633.086538 207.158846 635.538462 206.511824 637.990385 205.406154 640.442308 204.570759 642.894231 203.833646 645.346154 203.096532 647.798077 202.236567 650.250000 201.442122 652.701923 200.533016 655.153846 199.730381 657.605769 199.140690 660.057692 198.501859 662.509615 197.478090 664.961538 189.558216 667.413462 185.471331 669.865385 182.891435 672.317308 181.105982 674.769231 179.910220 677.221154 179.058445 679.673077 178.214859 682.125000 177.436795 684.576923 176.527689 687.028846 175.618582 689.480769 174.815948 691.932692 173.816749 694.384615 172.792981 696.836538 171.785592 699.288462 170.647162 701.740385 169.516921 704.192308 168.534103 706.644231 167.493954 709.096154 166.511136 711.548077 165.659361 714.000000 164.709304 716.451923 163.824767 718.903846 163.128605 721.355769 162.227688 723.807692 161.449624 726.259615 160.835363 728.711538 160.204722 731.163462 159.664172 733.615385 159.311995 736.067308 159.017150 738.519231 158.730495 740.971154 158.427459 743.423077 158.050712 745.875000 157.813198 748.326923 157.461022 750.778846 157.092465 753.230769 156.625626 755.682692 156.109647 758.134615 155.593668 760.586538 155.118639 763.038462 154.586279 765.490385 154.111251 767.942308 153.537940 770.394231 152.972820 772.846154 152.448650 775.298077 151.818009 777.750000 151.261079 780.201923 150.720529 782.653846 150.261881 785.105769 149.745901 787.557692 149.180781 790.009615 148.738513 792.461538 148.312625 794.913462 147.911308 797.365385 147.493610 799.817308 146.944870 802.269231 146.240517 804.721154 145.618066 807.173077 144.643438 809.625000 143.398536 812.076923 141.940689 814.528846 139.811250 816.980769 138.107699 819.432692 136.682613 821.884615 135.372190 824.336538 134.020815 826.788462 132.464687 829.240385 130.810277 831.692308 129.606325 834.144231 128.689028 836.596154 127.861823 839.048077 126.985477 841.500000 126.322075 843.951923 125.593152 846.403846 125.159074 848.855769 124.757756 851.307692 124.348249 853.759615 123.963312 856.211538 123.611135 858.663462 123.299910 861.115385 123.005064 863.567308 122.685649 866.019231 122.177859 868.471154 121.702831 870.923077 120.916576 873.375000 120.130322 875.826923 119.360448 878.278846 118.574194 880.730769 117.738799 883.182692 116.936164 885.634615 116.174480 888.086538 115.208043 890.538462 114.610162 892.990385 114.094182 895.442308 113.570013 897.894231 113.103174 900.346154 113.103174" /></g><g class="series serie-2 color-2"><path class="line reactive nofill" d="M17.653846 644.365385 L20.105769 644.365385 22.557692 644.365385 25.009615 644.365385 27.461538 644.365385 29.913462 644.365385 32.365385 644.365385 34.817308 644.365385 37.269231 644.365385 39.721154 644.365385 42.173077 644.365385 44.625000 644.365385 47.076923 644.365385 49.528846 644.365385 51.980769 644.365385 54.432692 644.365385 56.884615 644.365385 59.336538 644.365385 61.788462 644.365385 64.240385 644.365385 66.692308 644.365385 69.144231 644.365385 71.596154 644.365385 74.048077 644.365385 76.500000 644.365385 78.951923 644.365385 81.403846 644.365385 83.855769 644.365385 86.307692 644.365385 88.759615 644.365385 91.211538 644.365385 93.663462 644.365385 96.115385 644.365385 98.567308 644.365385 101.019231 644.365385 103.471154 644.365385 105.923077 644.365385 108.375000 644.365385 110.826923 644.365385 113.278846 644.365385 115.730769 644.365385 118.182692 644.365385 120.634615 644.365385 123.086538 644.365385 125.538462 644.365385 127.990385 644.365385 130.442308 644.365385 132.894231 644.365385 135.346154 644.365385 137.798077 644.365385 140.250000 644.365385 142.701923 644.365385 145.153846 644.365385 147.605769 644.365385 150.057692 644.365385 152.509615 644.365385 154.961538 644.365385 157.413462 644.365385 159.865385 644.365385 162.317308 644.365385 164.769231 644.365385 167.221154 644.365385 169.673077 644.365385 172.125000 644.365385 174.576923 644.365385 177.028846 644.365385 179.480769 644.365385 181.932692 644.365385 184.384615 644.365385 186.836538 644.365385 189.288462 644.365385 191.740385 644.365385 194.192308 644.365385 196.644231 644.365385 199.096154 644.365385 201.548077 644.365385 204.000000 644.365385 206.451923 644.365385 208.903846 644.365385 211.355769 644.365385 213.807692 644.365385 216.259615 644.365385 218.711538 644.365385 221.163462 644.365385 223.615385 644.365385 226.067308 644.365385 228.519231 644.365385 230.971154 644.365385 233.423077 644.365385 235.875000 644.365385 238.326923 644.365385 240.778846 644.365385 243.230769 644.365385 245.682692 644.365385 248.134615 644.365385 250.586538 644.365385 253.038462 644.365385 255.490385 644.365385 257.942308 644.365385 260.394231 644.365385 262.846154 644.365385 265.298077 644.365385 267.750000 644.365385 270.201923 644.365385 272.653846 644.365385 275.105769 644.365385 277.557692 644.365385 280.009615 644.365385 282.461538 644.365385 284.913462 644.365385 287.365385 644.365385 289.817308 644.365385 292.269231 644.365385 294.721154 644.365385 297.173077 644.365385 299.625000 644.365385 302.076923 644.365385 304.528846 644.365385 306.980769 644.365385 309.432692 644.365385 311.884615 644.365385 314.336538 644.365385 316.788462 644.365385 319.240385 644.365385 321.692308 644.365385 324.144231 644.365385 326.596154 644.365385 329.048077 644.365385 331.500000 644.365385 333.951923 644.365385 336.403846 644.365385 338.855769 644.365385 341.307692 644.365385 343.759615 644.365385 346.211538 644.365385 348.663462 644.365385 351.115385 644.365385 353.567308 644.365385 356.019231 644.365385 358.471154 644.365385 360.923077 644.365385 363.375000 644.365385 365.826923 644.365385 368.278846 644.365385 370.730769 644.365385 373.182692 644.365385 375.634615 644.365385 378.086538 644.365385 380.538462 644.365385 382.990385 644.365385 385.442308 644.365385 387.894231 644.365385 390.346154 644.365385 392.798077 644.365385 395.250000 644.365385 397.701923 644.365385 400.153846 644.365385 402.605769 644.365385 405.057692 644.365385 407.509615 644.365385 409.961538 644.365385 412.413462 644.365385 414.865385 644.365385 417.317308 644.365385 419.769231 644.365385 422.221154 644.365385 424.673077 644.365385 427.125000 644.365385 429.576923 644.365385 432.028846 644.365385 434.480769 644.365385 436.932692 644.365385 439.384615 644.365385 441.836538 644.365385 444.288462 644.365385 446.740385 644.365385 449.192308 644.365385 451.644231 644.365385 454.096154 644.365385 456.548077 644.365385 459.000000 644.365385 461.451923 644.365385 463.903846 644.365385 466.355769 644.365385 468.807692 644.365385 471.259615 644.365385 473.711538 644.365385 476.163462 644.365385 478.615385 644.365385 481.067308 644.365385 483.519231 644.365385 485.971154 644.365385 488.423077 644.365385 490.875000 644.365385 493.326923 644.365385 495.778846 644.365385 498.230769 644.365385 500.682692 644.365385 503.134615 644.365385 505.586538 644.365385 508.038462 644.365385 510.490385 644.365385 512.942308 644.365385 515.394231 644.365385 517.846154 644.365385 520.298077 644.365385 522.750000 644.365385 525.201923 644.365385 527.653846 644.365385 530.105769 644.365385 532.557692 644.365385 535.009615 644.365385 537.461538 644.365385 539.913462 644.365385 542.365385 644.365385 544.817308 644.365385 547.269231 644.365385 549.721154 644.365385 552.173077 644.365385 554.625000 644.365385 557.076923 644.365385 559.528846 644.365385 561.980769 644.365385 564.432692 644.365385 566.884615 644.365385 569.336538 644.365385 571.788462 644.365385 574.240385 644.365385 576.692308 644.365385 579.144231 644.365385 581.596154 644.365385 584.048077 644.365385 586.500000 644.365385 588.951923 644.365385 591.403846 644.365385 593.855769 644.365385 596.307692 644.365385 598.759615 644.365385 601.211538 644.365385 603.663462 644.365385 606.115385 644.365385 608.567308 644.365385 611.019231 644.365385 613.471154 644.365385 615.923077 644.365385 618.375000 644.365385 620.826923 644.365385 623.278846 644.365385 625.730769 644.365385 628.182692 644.365385 630.634615 644.365385 633.086538 644.365385 635.538462 644.365385 637.990385 644.365385 640.442308 644.365385 642.894231 644.365385 645.346154 644.365385 647.798077 644.365385 650.250000 644.365385 652.701923 644.365385 655.153846 644.365385 657.605769 644.365385 660.057692 644.365385 662.509615 644.365385 664.961538 618.124147 667.413462 606.043677 669.865385 599.344135 672.317308 595.380103 674.769231 592.292417 677.221154 589.565097 679.673077 587.108052 682.125000 584.266071 684.576923 580.490412 687.028846 576.788465 689.480769 573.127468 691.932692 568.925921 694.384615 565.232164 696.836538 561.046998 699.288462 557.254959 701.740385 554.191843 704.192308 551.259770 706.644231 548.385028 709.096154 545.649518 711.548077 543.135142 714.000000 540.981133 716.451923 538.524088 718.903846 536.632164 721.355769 534.404443 723.807692 532.881075 726.259615 531.627982 728.711538 530.653355 731.163462 529.826150 733.615385 529.228269 736.067308 528.573057 738.519231 527.966986 740.971154 527.418246 743.423077 526.828555 745.875000 525.968589 748.326923 524.772828 750.778846 523.675348 753.230769 522.233881 755.682692 521.070880 758.134615 519.686745 760.586538 518.310800 763.038462 517.098658 765.490385 515.853755 767.942308 514.838177 770.394231 513.552323 772.846154 512.299231 775.298077 511.087089 777.750000 509.899517 780.201923 508.785657 782.653846 507.819219 785.105769 506.803641 787.557692 506.058337 790.009615 505.132850 792.461538 504.240124 794.913462 503.224545 797.365385 502.127065 799.817308 500.931304 802.269231 498.572541 804.721154 495.247340 807.173077 490.587145 809.625000 484.518245 812.076923 478.965324 814.528846 473.748199 816.980769 470.357477 819.432692 467.368073 821.884615 463.739837 824.336538 459.996939 826.788462 456.475174 829.240385 453.772425 831.692308 451.880501 834.144231 450.529126 836.596154 449.038519 839.048077 447.629813 841.500000 446.556904 843.951923 445.443044 846.403846 444.869733 848.855769 444.452036 851.307692 443.886915 853.759615 443.493788 856.211538 443.092471 858.663462 442.633823 861.115385 442.207935 863.567308 442.207935 866.019231 442.207935 868.471154 442.207935 870.923077 442.207935 873.375000 442.207935 875.826923 442.207935 878.278846 442.207935 880.730769 442.207935 883.182692 442.207935 885.634615 442.207935 888.086538 442.207935 890.538462 442.207935 892.990385 442.207935 895.442308 442.207935 897.894231 442.207935 900.346154 442.207935" /></g><g class="series serie-3 color-3"><path class="line reactive nofill" d="M17.653846 627.927755 L20.105769 621.776953 22.557692 618.345281 25.009615 616.060229 27.461538 613.906220 29.913462 612.472944 32.365385 611.031478 34.817308 609.352497 37.269231 606.846312 39.721154 603.619393 42.173077 600.245052 44.625000 595.625807 47.076923 591.399690 49.528846 588.524948 51.980769 585.879530 54.432692 583.684570 56.884615 581.407709 59.336538 579.179988 61.788462 576.935887 64.240385 574.978442 66.692308 573.438694 69.144231 572.070939 71.596154 570.858797 74.048077 569.712176 76.500000 568.811259 78.951923 567.705589 81.403846 567.181420 83.855769 566.804673 86.307692 566.346024 88.759615 565.911947 91.211538 565.625291 93.663462 565.355016 96.115385 564.806276 98.567308 564.167445 101.019231 563.471282 103.471154 562.529415 105.923077 561.587548 108.375000 560.662061 110.826923 559.785715 113.278846 559.056792 115.730769 558.221397 118.182692 557.361431 120.634615 556.616127 123.086538 555.969106 125.538462 555.428556 127.990385 554.781534 130.442308 554.200033 132.894231 553.716815 135.346154 553.225406 137.798077 552.832278 140.250000 552.447341 142.701923 552.299919 145.153846 552.127926 147.605769 551.947742 150.057692 551.718418 152.509615 551.538235 154.961538 551.194249 157.413462 550.760171 159.865385 550.391614 162.317308 549.818304 164.769231 549.236803 167.221154 548.745394 169.673077 548.245795 172.125000 547.672485 174.576923 547.189266 177.028846 546.591385 179.480769 545.977124 181.932692 545.395623 184.384615 544.945165 186.836538 544.633939 189.288462 544.273573 191.740385 543.896826 194.192308 543.429987 196.644231 543.135142 199.096154 542.946769 201.548077 542.766585 204.000000 542.643733 206.451923 542.504500 208.903846 542.348888 211.355769 542.234226 213.807692 541.988521 216.259615 541.701866 218.711538 541.333309 221.163462 541.005703 223.615385 540.661717 226.067308 540.219449 228.519231 539.785371 230.971154 539.441385 233.423077 539.023687 235.875000 538.638750 238.326923 538.229243 240.778846 537.909827 243.230769 537.696883 245.682692 537.442988 248.134615 537.213664 250.586538 537.000720 253.038462 536.714065 255.490385 536.542072 257.942308 536.394649 260.394231 536.279987 262.846154 536.140755 265.298077 536.034283 267.750000 535.968761 270.201923 535.903240 272.653846 535.772198 275.105769 535.698487 277.557692 535.559254 280.009615 535.420022 282.461538 535.338120 284.913462 535.239838 287.365385 535.166127 289.817308 534.994134 292.269231 534.838521 294.721154 534.740239 297.173077 534.543676 299.625000 534.379873 302.076923 534.232450 304.528846 534.060457 306.980769 533.847513 309.432692 533.716471 311.884615 533.618189 314.336538 533.544477 316.788462 533.388865 319.240385 533.274202 321.692308 533.184111 324.144231 533.077639 326.596154 532.987547 329.048077 532.922026 331.500000 532.807364 333.951923 532.700892 336.403846 532.594420 338.855769 532.504328 341.307692 532.422427 343.759615 532.234054 346.211538 532.094821 348.663462 531.931018 351.115385 531.791785 353.567308 531.660743 356.019231 531.529701 358.471154 531.390468 360.923077 531.292186 363.375000 531.169334 365.826923 531.030102 368.278846 530.833538 370.730769 530.694305 373.182692 530.538693 375.634615 530.448601 378.086538 530.358509 380.538462 530.268418 382.990385 530.161946 385.442308 530.014523 387.894231 529.940812 390.346154 529.834340 392.798077 529.629586 395.250000 529.424832 397.701923 529.039895 400.153846 528.614008 402.605769 528.122599 405.057692 527.729472 407.509615 527.279013 409.961538 526.877696 412.413462 526.279815 414.865385 525.796596 417.317308 525.534512 419.769231 525.239666 422.221154 524.920250 424.673077 524.576264 427.125000 524.207707 429.576923 483.420765 432.028846 464.042872 434.480769 453.567672 436.932692 445.836171 439.384615 439.202150 441.836538 433.641039 444.288462 427.367385 446.740385 421.232963 449.192308 412.346651 451.644231 399.398026 454.096154 382.354325 456.548077 360.658620 459.000000 342.017841 461.451923 325.596592 463.903846 312.918241 466.355769 301.763258 468.807692 290.354381 471.259615 279.592525 473.711538 269.322078 476.163462 261.050027 478.615385 254.751803 481.067308 249.280783 483.519231 244.219271 485.971154 239.624597 488.423077 235.734276 490.875000 232.310794 493.326923 230.033933 495.778846 228.576086 498.230769 227.372134 500.682692 226.045330 503.134615 224.784047 505.586538 223.203348 508.038462 221.082100 510.490385 218.313829 512.942308 214.603692 515.394231 210.402145 517.846154 206.192409 520.298077 201.769728 522.750000 197.846647 525.201923 194.054608 527.653846 190.270759 530.105769 186.396818 532.557692 182.416406 535.009615 179.263198 537.461538 176.281984 539.913462 173.972362 542.365385 171.589029 544.817308 169.500541 547.269231 167.444813 549.721154 166.044298 552.173077 164.823966 554.625000 163.841148 557.076923 163.128605 559.528846 162.194928 561.980769 161.482385 564.432692 160.573278 566.884615 159.492179 569.336538 158.370128 571.788462 156.338971 574.240385 154.266863 576.692308 152.153805 579.144231 149.786852 581.596154 147.649223 584.048077 145.626256 586.500000 143.226543 588.951923 141.047963 591.403846 138.984045 593.855769 137.460678 596.307692 135.683415 598.759615 134.119097 601.211538 132.956096 603.663462 131.801285 606.115385 130.580952 608.567308 129.581754 611.019231 128.885591 613.471154 128.353232 615.923077 127.870013 618.375000 127.485076 620.826923 126.977287 623.278846 126.453117 625.730769 125.871617 628.182692 125.134503 630.634615 124.290918 633.086538 123.283529 635.538462 121.964915 637.990385 120.621731 640.442308 119.573392 642.894231 118.574194 645.346154 117.140918 647.798077 115.740402 650.250000 114.249795 652.701923 113.160505 655.153846 112.374251 657.605769 111.407813 660.057692 110.474136 662.509615 109.720643 664.961538 101.219268 667.413462 96.665545 669.865385 93.774422 672.317308 91.931639 674.769231 90.760447 677.221154 89.720299 679.673077 88.917664 682.125000 87.967607 684.576923 86.788225 687.028846 85.436851 689.480769 84.077286 691.932692 82.553918 694.384615 81.243494 696.836538 79.539943 699.288462 78.147618 701.740385 76.968236 704.192308 75.444869 706.644231 74.199966 709.096154 72.922303 711.548077 71.661020 714.000000 70.661822 716.451923 69.531581 718.903846 68.581524 721.355769 67.369382 723.807692 66.484846 726.259615 65.674021 728.711538 65.166232 731.163462 64.560161 733.615385 64.191604 736.067308 63.814857 738.519231 63.520012 740.971154 63.192406 743.423077 62.856610 745.875000 62.463482 748.326923 61.906552 750.778846 61.316862 753.230769 60.424135 755.682692 59.580550 758.134615 58.728774 760.586538 58.130894 763.038462 57.311879 765.490385 56.632096 767.942308 55.993265 770.394231 55.166060 772.846154 54.428946 775.298077 53.634502 777.750000 53.085762 780.201923 52.471501 782.653846 51.767148 785.105769 51.169267 787.557692 50.751569 790.009615 50.292921 792.461538 49.842463 794.913462 49.220011 797.365385 48.654891 799.817308 47.975109 802.269231 47.016861 804.721154 45.591775 807.173077 43.552428 809.625000 41.070813 812.076923 38.204261 814.528846 35.141145 816.980769 33.118178 819.432692 31.144352 821.884615 28.842920 824.336538 26.525108 826.788462 24.313768 829.240385 22.380893 831.692308 21.070469 834.144231 19.841947 836.596154 18.629805 839.048077 17.352141 841.500000 16.361133 843.951923 15.550308 846.403846 14.862336 848.855769 14.436448 851.307692 14.108842 853.759615 13.682954 856.211538 13.314398 858.663462 12.954031 861.115385 12.634615 863.567308 12.634615 866.019231 12.634615 868.471154 12.634615 870.923077 12.634615 873.375000 12.634615 875.826923 12.634615 878.278846 12.634615 880.730769 12.634615 883.182692 12.634615 885.634615 12.634615 888.086538 12.634615 890.538462 12.634615 892.990385 12.634615 895.442308 12.634615 897.894231 12.634615 900.346154 12.634615" /></g></g><g class="titles"><text class="title plot_title" x="512.0" y="26">Election 5 and 6 Participation</text><text class="title" transform="rotate(-90 0.000000 374.500000)" x="0" y="400.5">Users</text></g><g class="plot overlay" transform="translate(86, 46)"><g class="series serie-0 color-0" /><g class="series serie-1 color-1" /><g class="series serie-2 color-2" /><g class="series serie-3 color-3" /></g><g class="plot text-overlay" transform="translate(86, 46)"><g class="series serie-0 color-0" /><g class="series serie-1 color-1" /><g class="series serie-2 color-2" /><g class="series serie-3 color-3" /></g><g class="plot tooltip-overlay" transform="translate(86, 46)"><g class="tooltip" style="opacity: 0" transform="translate(0 0)"><a><rect class="tooltip-box" height="0" rx="0" ry="0" width="0" /><text class="text"><tspan class="label" /><tspan class="value" /></text></a></g></g><g class="legends" transform="translate(96, 713)"><g class="legend reactive activate-serie" id="activate-serie-0"><rect class="color-0 reactive" height="12" width="12" x="0.0" y="1.0" /><text x="17.0" y="11.2">5 constituents</text></g><g class="legend reactive activate-serie" id="activate-serie-1"><rect class="color-1 reactive" height="12" width="12" x="459.0" y="1.0" /><text x="476.0" y="11.2">5 caucus</text></g><g class="legend reactive activate-serie" id="activate-serie-2"><rect class="color-2 reactive" height="12" width="12" x="0.0" y="22.0" /><text x="17.0" y="32.2">6 constituents</text></g><g class="legend reactive activate-serie" id="activate-serie-3"><rect class="color-3 reactive" height="12" width="12" x="459.0" y="22.0" /><text x="476.0" y="32.2">6 caucus</text></g></g></g></svg>