<?xml version='1.0' encoding='utf-8'?>
<svg xmlns:xlink="http://www.w3.org/1999/xlink" class="pygal-chart" id="chart-2d58ac6f-c282-4bd9-b5d6-911b5fff325b" viewBox="0 0 1024 768" xmlns="http://www.w3.org/2000/svg"><!--Generated with pygal 1.7.0 (etree) ©Kozea 2011-2014 on 2018-03-25--><!--http://pygal.org--><!--http://github.com/Kozea/pygal--><defs><style type="text/css">#chart-2d58ac6f-c282-4bd9-b5d6-911b5fff325b .title{font-family:"monospace";font-size:16px}#chart-2d58ac6f-c282-4bd9-b5d6-911b5fff325b .legends .legend text{font-family:"monospace";font-size:14px}#chart-2d58ac6f-c282-4bd9-b5d6-911b5fff325b .axis text{font-family:"monospace";font-size:10px}#chart-2d58ac6f-c282-4bd9-b5d6-911b5fff325b .axis text.major{font-family:"monospace";font-size:10px}#chart-2d58ac6f-c282-4bd9-b5d6-911b5fff325b .series text{font-family:"monospace";font-size:8px}#chart-2d58ac6f-c282-4bd9-b5d6-911b5fff325b .tooltip text{font-family:"monospace";font-size:16px}#chart-2d58ac6f-c282-4bd9-b5d6-911b5fff325b text.no_data{font-size:64px}
#chart-2d58ac6f-c282-4bd9-b5d6-911b5fff325b{background-color:black}#chart-2d58ac6f-c282-4bd9-b5d6-911b5fff325b path,#chart-2d58ac6f-c282-4bd9-b5d6-911b5fff325b line,#chart-2d58ac6f-c282-4bd9-b5d6-911b5fff325b rect,#chart-2d58ac6f-c282-4bd9-b5d6-911b5fff325b circle{-webkit-transition:250ms;-moz-transition:250ms;transition:250ms}#chart-2d58ac6f-c282-4bd9-b5d6-911b5fff325b .graph &gt; .background{fill:black}#chart-2d58ac6f-c282-4bd9-b5d6-911b5fff325b .plot &gt; .background{fill:#111}#chart-2d58ac6f-c282-4bd9-b5d6-911b5fff325b .graph{fill:#999}#chart-2d58ac6f-c282-4bd9-b5d6-911b5fff325b text.no_data{fill:#eee}#chart-2d58ac6f-c282-4bd9-b5d6-911b5fff325b .title{fill:#eee}#chart-2d58ac6f-c282-4bd9-b5d6-911b5fff325b .legends .legend text{fill:#999}#chart-2d58ac6f-c282-4bd9-b5d6-911b5fff325b .legends .legend:hover text{fill:#eee}#chart-2d58ac6f-c282-4bd9-b5d6-911b5fff325b .axis .line{stroke:#eee}#chart-2d58ac6f-c282-4bd9-b5d6-911b5fff325b .axis .guide.line{stroke:#555}#chart-2d58ac6f-c282-4bd9-b5d6-911b5fff325b .axis .major.line{stroke:#999}#chart-2d58ac6f-c282-4bd9-b5d6-911b5fff325b .axis text.major{stroke:#eee;fill:#eee}#chart-2d58ac6f-c282-4bd9-b5d6-911b5fff325b .axis.y .guides:hover .guide.line,#chart-2d58ac6f-c282-4bd9-b5d6-911b5fff325b .line-graph .axis.x .guides:hover .guide.line,#chart-2d58ac6f-c282-4bd9-b5d6-911b5fff325b .stackedline-graph .axis.x .guides:hover .guide.line,#chart-2d58ac6f-c282-4bd9-b5d6-911b5fff325b .xy-graph .axis.x .guides:hover .guide.line{stroke:#eee}#chart-2d58ac6f-c282-4bd9-b5d6-911b5fff325b .axis .guides:hover text{fill:#eee}#chart-2d58ac6f-c282-4bd9-b5d6-911b5fff325b .reactive{fill-opacity:.8}#chart-2d58ac6f-c282-4bd9-b5d6-911b5fff325b .reactive.active,#chart-2d58ac6f-c282-4bd9-b5d6-911b5fff325b .active .reactive{fill-opacity:.4}#chart-2d58ac6f-c282-4bd9-b5d6-911b5fff325b .series{stroke-width:1.0;stroke-linejoin:round;stroke-linecap:round;stroke-dasharray:0,0}#chart-2d58ac6f-c282-4bd9-b5d6-911b5fff325b .series text{fill:#eee}#chart-2d58ac6f-c282-4bd9-b5d6-911b5fff325b .tooltip rect{fill:#111;stroke:#eee}#chart-2d58ac6f-c282-4bd9-b5d6-911b5fff325b .tooltip text{fill:#eee}#chart-2d58ac6f-c282-4bd9-b5d6-911b5fff325b .map-element{fill:#999;stroke:#555 !important;opacity:.9;stroke-width:3;-webkit-transition:250ms;-moz-transition:250ms;-o-transition:250ms;transition:250ms}#chart-2d58ac6f-c282-4bd9-b5d6-911b5fff325b .map-element:hover{opacity:1;stroke-width:10}#chart-2d58ac6f-c282-4bd9-b5d6-911b5fff325b .color-0,#chart-2d58ac6f-c282-4bd9-b5d6-911b5fff325b .color-0 a:visited{stroke:#ff5995;fill:#ff5995}#chart-2d58ac6f-c282-4bd9-b5d6-911b5fff325b .color-1,#chart-2d58ac6f-c282-4bd9-b5d6-911b5fff325b .color-1 a:visited{stroke:#b6e354;fill:#b6e354}#chart-2d58ac6f-c282-4bd9-b5d6-911b5fff325b .color-2,#chart-2d58ac6f-c282-4bd9-b5d6-911b5fff325b .color-2 a:visited{stroke:#feed6c;fill:#feed6c}#chart-2d58ac6f-c282-4bd9-b5d6-911b5fff325b .color-3,#chart-2d58ac6f-c282-4bd9-b5d6-911b5fff325b .color-3 a:visited{stroke:#8cedff;fill:#8cedff}#chart-2d58ac6f-c282-4bd9-b5d6-911b5fff325b .color-4,#chart-2d58ac6f-c282-4bd9-b5d6-911b5fff325b .color-4 a:visited{stroke:#9e6ffe;fill:#9e6ffe}#chart-2d58ac6f-c282-4bd9-b5d6-911b5fff325b .color-5,#chart-2d58ac6f-c282-4bd9-b5d6-911b5fff325b .color-5 a:visited{stroke:#899ca1;fill:#899ca1}#chart-2d58ac6f-c282-4bd9-b5d6-911b5fff325b .color-6,#chart-2d58ac6f-c282-4bd9-b5d6-911b5fff325b .color-6 a:visited{stroke:#f8f8f2;fill:#f8f8f2}#chart-2d58ac6f-c282-4bd9-b5d6-911b5fff325b .color-7,#chart-2d58ac6f-c282-4bd9-b5d6-911b5fff325b .color-7 a:visited{stroke:#bf4646;fill:#bf4646}#chart-2d58ac6f-c282-4bd9-b5d6-911b5fff325b .color-8,#chart-2d58ac6f-c282-4bd9-b5d6-911b5fff325b .color-8 a:visited{stroke:#516083;fill:#516083}#chart-2d58ac6f-c282-4bd9-b5d6-911b5fff325b .color-9,#chart-2d58ac6f-c282-4bd9-b5d6-911b5fff325b .color-9 a:visited{stroke:#f92672;fill:#f92672}#chart-2d58ac6f-c282-4bd9-b5d6-911b5fff325b .color-10,#chart-2d58ac6f-c282-4bd9-b5d6-911b5fff325b .color-10 a:visited{stroke:#82b414;fill:#82b414}#chart-2d58ac6f-c282-4bd9-b5d6-911b5fff325b .color-11,#chart-2d58ac6f-c282-4bd9-b5d6-911b5fff325b .color-11 a:visited{stroke:#fd971f;fill:#fd971f}#chart-2d58ac6f-c282-4bd9-b5d6-911b5fff325b .color-12,#chart-2d58ac6f-c282-4bd9-b5d6-911b5fff325b .color-12 a:visited{stroke:#56c2d6;fill:#56c2d6}#chart-2d58ac6f-c282-4bd9-b5d6-911b5fff325b .color-13,#chart-2d58ac6f-c282-4bd9-b5d6-911b5fff325b .color-13 a:visited{stroke:#808384;fill:#808384}#chart-2d58ac6f-c282-4bd9-b5d6-911b5fff325b .color-14,#chart-2d58ac6f-c282-4bd9-b5d6-911b5fff325b .color-14 a:visited{stroke:#8c54fe;fill:#8c54fe}#chart-2d58ac6f-c282-4bd9-b5d6-911b5fff325b .color-15,#chart-2d58ac6f-c282-4bd9-b5d6-911b5fff325b .color-15 a:visited{stroke:#465457;fill:#465457}
#chart-2d58ac6f-c282-4bd9-b5d6-911b5fff325b text.no_data{text-anchor:middle}#chart-2d58ac6f-c282-4bd9-b5d6-911b5fff325b .guide.line{fill-opacity:0}#chart-2d58ac6f-c282-4bd9-b5d6-911b5fff325b .centered{text-anchor:middle}#chart-2d58ac6f-c282-4bd9-b5d6-911b5fff325b .title{text-anchor:middle}#chart-2d58ac6f-c282-4bd9-b5d6-911b5fff325b .legends .legend text{fill-opacity:1}#chart-2d58ac6f-c282-4bd9-b5d6-911b5fff325b .axis.x text{text-anchor:middle}#chart-2d58ac6f-c282-4bd9-b5d6-911b5fff325b .axis.x:not(.web) text[transform]{text-anchor:start}#chart-2d58ac6f-c282-4bd9-b5d6-911b5fff325b .axis.y text{text-anchor:end}#chart-2d58ac6f-c282-4bd9-b5d6-911b5fff325b .axis.y2 text{text-anchor:start}#chart-2d58ac6f-c282-4bd9-b5d6-911b5fff325b .axis.y .logarithmic text:not(.major),#chart-2d58ac6f-c282-4bd9-b5d6-911b5fff325b .axis.y2 .logarithmic text:not(.major){font-size:50%}#chart-2d58ac6f-c282-4bd9-b5d6-911b5fff325b .axis .guide.line{stroke-dasharray:4,4}#chart-2d58ac6f-c282-4bd9-b5d6-911b5fff325b .axis .major.guide.line{stroke-dasharray:6,6}#chart-2d58ac6f-c282-4bd9-b5d6-911b5fff325b .axis text.major{stroke-width:0.5px}#chart-2d58ac6f-c282-4bd9-b5d6-911b5fff325b .horizontal .axis.y .guide.line,#chart-2d58ac6f-c282-4bd9-b5d6-911b5fff325b .horizontal .axis.y2 .guide.line,#chart-2d58ac6f-c282-4bd9-b5d6-911b5fff325b .vertical .axis.x .guide.line{opacity:0}#chart-2d58ac6f-c282-4bd9-b5d6-911b5fff325b .horizontal .axis.always_show .guide.line,#chart-2d58ac6f-c282-4bd9-b5d6-911b5fff325b .vertical .axis.always_show .guide.line{opacity:1 !important}#chart-2d58ac6f-c282-4bd9-b5d6-911b5fff325b .axis.y .guides:hover .guide.line,#chart-2d58ac6f-c282-4bd9-b5d6-911b5fff325b .axis.y2 .guides:hover .guide.line,#chart-2d58ac6f-c282-4bd9-b5d6-911b5fff325b .axis.x .guides:hover .guide.line{opacity:1}#chart-2d58ac6f-c282-4bd9-b5d6-911b5fff325b .axis .guides:hover text{opacity:1}#chart-2d58ac6f-c282-4bd9-b5d6-911b5fff325b .nofill{fill:none}#chart-2d58ac6f-c282-4bd9-b5d6-911b5fff325b .subtle-fill{fill-opacity:.2}#chart-2d58ac6f-c282-4bd9-b5d6-911b5fff325b .dot{stroke-width:1px;fill-opacity:1}#chart-2d58ac6f-c282-4bd9-b5d6-911b5fff325b .dot.active{stroke-width:5px}#chart-2d58ac6f-c282-4bd9-b5d6-911b5fff325b .series text{stroke:none}#chart-2d58ac6f-c282-4bd9-b5d6-911b5fff325b .series text.active{opacity:1}#chart-2d58ac6f-c282-4bd9-b5d6-911b5fff325b .tooltip rect{fill-opacity:0.8}#chart-2d58ac6f-c282-4bd9-b5d6-911b5fff325b .tooltip text{fill-opacity:1}#chart-2d58ac6f-c282-4bd9-b5d6-911b5fff325b .tooltip text tspan.label{fill-opacity:.8}</style><script type="text/javascript">window.config = {"css": ["style.css", "graph.css"], "disable_xml_declaration": false, "dots_size": 2.5, "explicit_size": false, "fill": false, "half_pie": false, "height": 768, "human_readable": false, "include_x_axis": false, "inner_radius": 0, "interpolate": null, "interpolation_parameters": {}, "interpolation_precision": 250, "js": ["http://kozea.github.io/pygal.js/javascripts/svg.jquery.js", "http://kozea.github.io/pygal.js/javascripts/pygal-tooltips.js"], "label_font_size": 10, "legend_at_bottom": true, "legend_at_bottom_columns": null, "legend_box_size": 12, "legend_font_size": 14, "logarithmic": false, "major_label_font_size": 10, "margin": 20, "margin_bottom": null, "margin_left": null, "margin_right": null, "margin_top": null, "missing_value_fill_truncation": "x", "mode": null, "no_data_font_size": 64, "no_data_text": "No data", "no_prefix": false, "order_min": null, "pretty_print": false, "print_values": false, "print_zeroes": false, "range": null, "rounded_bars": null, "show_dots": false, "show_legend": true, "show_minor_x_labels": true, "show_minor_y_labels": true, "show_only_major_dots": false, "show_x_guides": false, "show_x_labels": true, "show_y_guides": true, "show_y_labels": true, "spacing": 10, "stack_from_top": false, "strict": false, "stroke": true, "style": {"background": "black", "colors": ["#ff5995", "#b6e354", "#feed6c", "#8cedff", "#9e6ffe", "#899ca1", "#f8f8f2", "#bf4646", "#516083", "#f92672", "#82b414", "#fd971f", "#56c2d6", "#808384", "#8c54fe", "#465457"], "font_family": "monospace", "foreground": "#999", "foreground_dark": "#555", "foreground_light": "#eee", "opacity": ".8", "opacity_hover": ".4", "plot_background": "#111", "stroke_dasharray": "0,0", "stroke_style": "round", "stroke_width": 1.0, "transition": "250ms"}, "title": "Election 9 Participation", "title_font_size": 16, "tooltip_border_radius": 0, "tooltip_font_size": 16, "truncate_label": null, "truncate_legend": null, "value_font_size": 8, "width": 1024, "x_label_format": "%Y-%m-%d %H:%M:%S.%f", "x_label_rotation": 0, "x_labels": null, "x_labels_major": null, "x_labels_major_count": null, "x_labels_major_every": null, "x_title": null, "x_value_formatter": null, "xrange": null, "y_label_rotation": 0, "y_labels": null, "y_labels_major": null, "y_labels_major_count": null, "y_labels_major_every": null, "y_title": "Users", "zero": 0}</script><script type="text/javascript" xlink:href="http://kozea.github.io/pygal.js/javascripts/svg.jquery.js" /><script type="text/javascript" xlink:href="http://kozea.github.io/pygal.js/javascripts/pygal-tooltips.js" /></defs><title>Election 9 Participation</title><g class="graph line-graph vertical"><rect class="background" height="768" width="1024" x="0" y="0" /><g class="plot" transform="translate(86, 46)"><rect class="background" height="657.0" width="918.0" x="0" y="0" /><g class="axis y"><g class="guides"><path class="axis major line" d="M0.000000 644.365385 h918.000000" /><text class="major" x="-5" y="647.8653846153846">0</text></g><g class="guides"><path class="guide line" d="M0.000000 573.772265 h918.000000" /><text class="" x="-5" y="577.2722648765598">10000</text></g><g class="guides"><path class="guide line" d="M0.000000 503.179145 h918.000000" /><text class="" x="-5" y="506.679145137735">20000</text></g><g class="guides"><path class="guide line" d="M0.000000 432.586025 h918.000000" /><text class="" x="-5" y="436.08602539891024">30000</text></g><g class="guides"><path class="guide line" d="M0.000000 361.992906 h918.000000" /><text class="" x="-5" y="365.4929056600854">40000</text></g><g class="guides"><path class="major guide line" d="M0.000000 291.399786 h918.000000" /><text class="major" x="-5" y="294.8997859212606">50000</text></g><g class="guides"><path class="guide line" d="M0.000000 220.806666 h918.000000" /><text class="" x="-5" y="224.30666618243583">60000</text></g><g class="guides"><path class="guide line" d="M0.000000 150.213546 h918.000000" /><text class="" x="-5" y="153.713546443611">70000</text></g><g class="guides"><path class="guide line" d="M0.000000 79.620427 h918.000000" /><text class="" x="-5" y="83.12042670478615">80000</text></g></g><g class="series serie-0 color-0"><path class="line reactive nofill" d="M17.653846 644.365385 L20.105769 644.365385 22.557692 644.365385 25.009615 644.365385 27.461538 644.365385 29.913462 644.365385 32.365385 644.365385 34.817308 644.365385 37.269231 644.365385 39.721154 644.365385 42.173077 644.365385 44.625000 644.365385 47.076923 644.365385 49.528846 644.365385 51.980769 644.365385 54.432692 644.365385 56.884615 644.365385 59.336538 644.365385 61.788462 644.365385 64.240385 644.365385 66.692308 644.365385 69.144231 644.365385 71.596154 644.365385 74.048077 644.365385 76.500000 644.365385 78.951923 644.365385 81.403846 644.365385 83.855769 644.365385 86.307692 644.365385 88.759615 644.365385 91.211538 644.365385 93.663462 644.365385 96.115385 644.365385 98.567308 644.365385 101.019231 644.365385 103.471154 644.365385 105.923077 644.365385 108.375000 644.365385 110.826923 644.365385 113.278846 644.365385 115.730769 644.365385 118.182692 644.365385 120.634615 644.365385 123.086538 644.365385 125.538462 644.365385 127.990385 644.365385 130.442308 644.365385 132.894231 644.365385 135.346154 644.365385 137.798077 644.365385 140.250000 644.365385 142.701923 644.365385 145.153846 644.365385 147.605769 644.365385 150.057692 644.365385 152.509615 644.365385 154.961538 644.365385 157.413462 644.365385 159.865385 644.365385 162.317308 644.365385 164.769231 644.365385 167.221154 644.365385 169.673077 644.365385 172.125000 644.365385 174.576923 644.365385 177.028846 644.365385 179.480769 644.365385 181.932692 644.365385 184.384615 644.365385 186.836538 644.365385 189.288462 644.365385 191.740385 644.365385 194.192308 644.365385 196.644231 644.365385 199.096154 644.365385 201.548077 644.365385 204.000000 644.365385 206.451923 644.365385 208.903846 644.365385 211.355769 644.365385 213.807692 644.365385 216.259615 644.365385 218.711538 644.365385 221.163462 644.365385 223.615385 644.365385 226.067308 644.365385 228.519231 644.365385 230.971154 644.365385 233.423077 644.365385 235.875000 644.365385 238.326923 644.365385 240.778846 644.365385 243.230769 644.365385 245.682692 644.365385 248.134615 644.365385 250.586538 644.365385 253.038462 644.365385 255.490385 644.365385 257.942308 644.365385 260.394231 644.365385 262.846154 644.365385 265.298077 644.365385 267.750000 644.365385 270.201923 644.365385 272.653846 644.365385 275.105769 644.365385 277.557692 644.365385 280.009615 644.365385 282.461538 644.365385 284.913462 644.365385 287.365385 644.365385 289.817308 644.365385 292.269231 644.365385 294.721154 644.365385 297.173077 644.365385 299.625000 644.365385 302.076923 644.365385 304.528846 644.365385 306.980769 644.365385 309.432692 644.365385 311.884615 644.365385 314.336538 644.365385 316.788462 644.365385 319.240385 644.365385 321.692308 644.365385 324.144231 644.365385 326.596154 644.365385 329.048077 644.365385 331.500000 644.365385 333.951923 644.365385 336.403846 644.365385 338.855769 644.365385 341.307692 644.365385 343.759615 644.365385 346.211538 644.365385 348.663462 644.365385 351.115385 644.365385 353.567308 644.365385 356.019231 644.365385 358.471154 644.365385 360.923077 644.365385 363.375000 644.365385 365.826923 644.365385 368.278846 644.365385 370.730769 644.365385 373.182692 644.365385 375.634615 644.365385 378.086538 644.365385 380.538462 644.365385 382.990385 644.365385 385.442308 644.365385 387.894231 644.365385 390.346154 644.365385 392.798077 644.365385 395.250000 644.365385 397.701923 644.365385 400.153846 644.365385 402.605769 644.365385 405.057692 644.365385 407.509615 644.365385 409.961538 644.365385 412.413462 644.365385 414.865385 644.365385 417.317308 644.365385 419.769231 644.365385 422.221154 644.365385 424.673077 644.365385 427.125000 644.365385 429.576923 644.365385 432.028846 644.365385 434.480769 644.365385 436.932692 644.365385 439.384615 644.365385 441.836538 644.365385 444.288462 644.365385 446.740385 644.365385 449.192308 644.365385 451.644231 644.365385 454.096154 644.365385 456.548077 644.365385 459.000000 644.365385 461.451923 644.365385 463.903846 644.365385 466.355769 644.365385 468.807692 644.365385 471.259615 644.365385 473.711538 644.365385 476.163462 644.365385 478.615385 644.365385 481.067308 644.365385 483.519231 644.365385 485.971154 644.365385 488.423077 644.365385 490.875000 644.365385 493.326923 644.365385 495.778846 644.365385 498.230769 644.365385 500.682692 644.365385 503.134615 644.365385 505.586538 644.365385 508.038462 644.365385 510.490385 644.365385 512.942308 644.365385 515.394231 644.365385 517.846154 644.365385 520.298077 644.365385 522.750000 644.365385 525.201923 644.365385 527.653846 644.365385 530.105769 644.365385 532.557692 644.365385 535.009615 644.365385 537.461538 644.365385 539.913462 644.365385 542.365385 644.365385 544.817308 644.365385 547.269231 644.365385 549.721154 644.365385 552.173077 644.365385 554.625000 644.365385 557.076923 644.365385 559.528846 644.365385 561.980769 644.365385 564.432692 644.365385 566.884615 644.365385 569.336538 644.365385 571.788462 644.365385 574.240385 644.365385 576.692308 644.365385 579.144231 644.365385 581.596154 644.365385 584.048077 644.365385 586.500000 644.365385 588.951923 644.365385 591.403846 644.365385 593.855769 644.365385 596.307692 644.365385 598.759615 644.365385 601.211538 644.365385 603.663462 644.365385 606.115385 644.365385 608.567308 644.365385 611.019231 644.365385 613.471154 644.365385 615.923077 644.365385 618.375000 644.365385 620.826923 644.365385 623.278846 644.365385 625.730769 644.365385 628.182692 644.365385 630.634615 644.365385 633.086538 644.365385 635.538462 644.365385 637.990385 644.365385 640.442308 644.365385 642.894231 644.365385 645.346154 644.365385 647.798077 644.365385 650.250000 644.365385 652.701923 644.365385 655.153846 644.365385 657.605769 644.365385 660.057692 644.365385 662.509615 643.525326 664.961538 623.286279 667.413462 614.398605 669.865385 608.906461 672.317308 605.489754 674.769231 603.110765 677.221154 601.247107 679.673077 598.599865 682.125000 595.684369 684.576923 591.851163 687.028846 587.403796 689.480769 583.365870 691.932692 579.349121 694.384615 575.593567 696.836538 572.113327 699.288462 569.155475 701.740385 565.936429 704.192308 563.268009 706.644231 560.521936 709.096154 557.832338 711.548077 555.996917 714.000000 553.469684 716.451923 551.231882 718.903846 549.565884 721.355769 547.610455 723.807692 546.163296 726.259615 545.012628 728.711538 544.080799 731.163462 543.346630 733.615385 542.732470 736.067308 542.224200 738.519231 541.779463 740.971154 541.193540 743.423077 540.360541 745.875000 539.372238 748.326923 538.306282 750.778846 537.000309 753.230769 535.659040 755.682692 534.176584 758.134615 532.708247 760.586538 531.614054 763.038462 530.526920 765.490385 529.164473 767.942308 528.063220 770.394231 526.856077 772.846154 525.825418 775.298077 524.604157 777.750000 523.566438 780.201923 522.401652 782.653846 521.385111 785.105769 520.523875 787.557692 519.584986 790.009615 518.871996 792.461538 517.996641 794.913462 516.994219 797.365385 515.822373 799.817308 514.608171 802.269231 512.102115 804.721154 508.501866 807.173077 502.812061 809.625000 496.077477 812.076923 490.154715 814.528846 485.544984 816.980769 480.483457 819.432692 477.017335 821.884615 473.035883 824.336538 469.096787 826.788462 465.623605 829.240385 462.990482 831.692308 461.027993 834.144231 459.114920 836.596154 457.554812 839.048077 456.185305 841.500000 454.801680 843.951923 453.926325 846.403846 453.185098 848.855769 452.648590 851.307692 452.260328 853.759615 451.808532 856.211538 451.314380 858.663462 450.721398 861.115385 450.142534 863.567308 449.041282 866.019231 447.587063 868.471154 445.737524 870.923077 444.085645 873.375000 442.116097 875.826923 440.478336 878.278846 439.052355 880.730769 437.513425 883.182692 435.790953 885.634615 434.322616 888.086538 432.875457 890.538462 432.028340 892.990385 431.054155 895.442308 430.143503 897.894231 429.232852 900.346154 429.232852" /></g><g class="series serie-1 color-1"><path class="line reactive nofill" d="M17.653846 630.719735 L20.105769 626.053529 22.557692 623.067440 25.009615 621.309672 27.461538 619.721327 29.913462 618.295345 32.365385 616.869364 34.817308 615.048062 37.269231 612.803201 39.721154 609.654748 42.173077 605.652118 44.625000 601.232988 47.076923 597.385663 49.528846 594.611354 51.980769 591.731155 54.432692 589.585124 56.884615 587.439093 59.336538 585.250706 61.788462 583.139972 64.240385 581.558686 66.692308 580.358603 69.144231 579.426774 71.596154 578.261987 74.048077 577.358395 76.500000 576.610108 78.951923 575.847703 81.403846 575.395907 83.855769 575.000585 86.307692 574.725272 88.759615 574.464077 91.211538 574.217002 93.663462 573.885214 96.115385 573.419299 98.567308 572.755724 101.019231 572.035674 103.471154 571.188557 105.923077 570.320261 108.375000 569.289602 110.826923 568.357773 113.278846 567.433003 115.730769 566.522351 118.182692 565.759946 120.634615 564.806939 123.086538 563.910406 125.538462 563.317424 127.990385 562.823272 130.442308 562.329120 132.894231 561.771435 135.346154 561.333757 137.798077 561.079622 140.250000 560.740775 142.701923 560.557233 145.153846 560.380750 147.605769 560.154852 150.057692 559.936013 152.509615 559.759531 154.961538 559.491277 157.413462 559.187726 159.865385 558.785346 162.317308 558.255897 164.769231 557.754686 167.221154 557.549966 169.673077 557.020518 172.125000 556.427535 174.576923 555.771019 177.028846 555.241571 179.480769 554.570936 181.932692 554.027369 184.384615 553.709700 186.836538 553.335557 189.288462 552.926117 191.740385 552.573151 194.192308 552.191948 196.644231 551.916635 199.096154 551.690737 201.548077 551.577788 204.000000 551.457780 206.451923 551.401305 208.903846 551.267178 211.355769 551.161289 213.807692 550.935391 216.259615 550.744789 218.711538 550.321230 221.163462 549.940028 223.615385 549.445876 226.067308 549.022317 228.519231 548.718767 230.971154 548.330505 233.423077 547.942242 235.875000 547.546921 238.326923 547.250430 240.778846 546.989235 243.230769 546.763337 245.682692 546.551558 248.134615 546.304482 250.586538 546.085643 253.038462 545.810330 255.490385 545.655025 257.942308 545.471483 260.394231 545.344416 262.846154 545.323238 265.298077 545.323238 267.750000 545.323238 270.201923 545.323238 272.653846 545.323238 275.105769 545.323238 277.557692 545.323238 280.009615 545.323238 282.461538 545.323238 284.913462 545.323238 287.365385 545.323238 289.817308 545.323238 292.269231 545.323238 294.721154 545.323238 297.173077 545.323238 299.625000 545.323238 302.076923 545.323238 304.528846 545.323238 306.980769 545.323238 309.432692 543.134851 311.884615 543.000724 314.336538 542.873656 316.788462 542.760707 319.240385 542.711292 321.692308 542.668936 324.144231 542.584225 326.596154 542.485394 329.048077 542.386564 331.500000 542.294793 333.951923 542.203022 336.403846 542.090073 338.855769 542.019480 341.307692 541.899471 343.759615 541.758285 346.211538 541.680633 348.663462 541.539446 351.115385 541.370023 353.567308 541.228837 356.019231 541.094710 358.471154 540.918227 360.923077 540.748803 363.375000 540.551143 365.826923 540.374660 368.278846 540.212296 370.730769 540.134643 373.182692 539.979338 375.634615 539.838152 378.086538 539.753440 380.538462 539.696966 382.990385 539.626373 385.442308 539.471068 387.894231 539.400475 390.346154 539.245170 392.798077 539.026331 395.250000 538.793374 397.701923 538.412171 400.153846 537.981553 402.605769 537.487401 405.057692 536.929716 407.509615 536.449682 409.961538 535.863760 412.413462 535.411964 414.865385 534.946049 417.317308 534.480134 419.769231 534.190703 422.221154 533.844796 424.673077 533.527127 427.125000 532.312926 429.576923 500.969580 432.028846 484.577858 434.480769 476.487887 436.932692 470.494531 439.384615 465.037683 441.836538 459.580834 444.288462 453.665131 446.740385 446.224616 449.192308 434.929717 451.644231 419.935738 454.096154 402.075679 456.548077 380.481244 459.000000 363.200048 461.451923 347.168351 463.903846 334.292165 466.355769 322.559589 468.807692 311.384698 471.259615 300.866323 473.711538 291.435082 476.163462 283.507475 478.615385 278.149457 481.067308 272.622016 483.519231 268.421725 485.971154 264.115545 488.423077 260.268220 490.875000 257.635097 493.326923 255.764379 495.778846 254.084263 498.230769 252.827705 500.682692 251.493495 503.134615 250.272234 505.586538 248.705067 508.038462 246.904943 510.490385 244.370650 512.942308 240.784519 515.394231 236.513635 517.846154 231.586236 520.298077 227.442419 522.750000 223.340959 525.201923 219.677176 527.653846 215.491004 530.105769 211.700154 532.557692 207.881066 535.009615 204.732613 537.461538 201.979481 539.913462 199.875806 542.365385 197.885080 544.817308 195.640219 547.269231 193.910688 549.721154 192.477647 552.173077 191.425810 554.625000 190.585752 557.076923 189.752753 559.528846 189.068000 561.980769 188.347950 564.432692 187.634959 566.884615 186.618418 569.336538 185.411276 571.788462 183.639389 574.240385 181.627485 576.692308 179.382624 579.144231 177.010695 581.596154 174.885842 584.048077 172.895116 586.500000 170.869093 588.951923 168.687766 591.403846 166.824108 593.855769 164.974568 596.307692 163.619180 598.759615 162.094368 601.211538 160.738981 603.663462 159.545957 606.115385 158.416467 608.567308 157.505816 611.019231 156.856359 613.471154 156.326911 615.923077 156.016301 618.375000 155.564505 620.826923 155.140946 623.278846 154.639735 625.730769 154.152643 628.182692 153.369059 630.634615 152.408992 633.086538 151.265384 635.538462 150.037064 637.990385 148.434600 640.442308 147.185102 642.894231 145.688527 645.346154 144.551978 647.798077 143.020108 650.250000 141.841202 652.701923 140.803484 655.153846 139.857536 657.605769 138.848054 660.057692 138.029174 662.509615 136.899684 664.961538 128.901484 667.413462 124.750608 669.865385 122.428095 672.317308 120.797393 674.769231 119.752615 677.221154 119.004328 679.673077 117.853660 682.125000 116.702993 684.576923 115.411138 687.028846 113.935742 689.480769 112.276804 691.932692 110.413146 694.384615 108.704792 696.836538 107.215277 699.288462 105.930482 701.740385 104.335078 704.192308 103.007927 706.644231 101.504294 709.096154 100.028898 711.548077 98.779399 714.000000 97.198114 716.451923 96.005090 718.903846 95.136794 721.355769 94.056720 723.807692 93.174306 726.259615 92.461315 728.711538 91.811858 731.163462 91.261232 733.615385 90.795318 736.067308 90.456471 738.519231 90.039971 740.971154 89.729361 743.423077 89.242269 745.875000 88.571634 748.326923 87.858644 750.778846 86.997408 753.230769 86.305595 755.682692 85.366707 758.134615 84.540767 760.586538 83.785421 763.038462 82.952422 765.490385 82.048830 767.942308 81.244068 770.394231 80.354595 772.846154 79.613367 775.298077 78.801547 777.750000 78.032082 780.201923 77.403803 782.653846 76.606100 785.105769 76.027237 787.557692 75.462492 790.009615 74.925984 792.461538 74.445951 794.913462 73.923562 797.365385 73.132919 799.817308 72.455225 802.269231 71.149252 804.721154 69.447958 807.173077 66.934843 809.625000 63.532255 812.076923 59.967302 814.528846 57.009450 816.980769 54.093955 819.432692 51.651433 821.884615 48.863004 824.336538 46.032220 826.788462 43.533224 829.240385 41.584854 831.692308 39.862382 834.144231 38.344630 836.596154 36.939827 839.048077 35.697388 841.500000 34.518483 843.951923 33.685484 846.403846 32.908959 848.855769 32.435985 851.307692 31.970071 853.759615 31.715936 856.211538 31.327673 858.663462 30.946471 861.115385 30.508793 863.567308 29.859337 866.019231 28.708669 868.471154 27.240332 870.923077 25.948478 873.375000 24.494260 875.826923 23.145931 878.278846 21.839958 880.730769 20.421036 883.182692 19.002115 885.634615 17.625549 888.086538 16.185449 890.538462 15.168908 892.990385 14.244139 895.442308 13.495851 897.894231 12.634615 900.346154 12.634615" /></g></g><g class="titles"><text class="title plot_title" x="512.0" y="26">Election 9 Participation</text><text class="title" transform="rotate(-90 0.000000 374.500000)" x="0" y="400.5">Users</text></g><g class="plot overlay" transform="translate(86, 46)"><g class="series serie-0 color-0" /><g class="series serie-1 color-1" /></g><g class="plot text-overlay" transform="translate(86, 46)"><g class="series serie-0 color-0" /><g class="series serie-1 color-1" /></g><g class="plot tooltip-overlay" transform="translate(86, 46)"><g class="tooltip" style="opacity: 0" transform="translate(0 0)"><a><rect class="tooltip-box" height="0" rx="0" ry="0" width="0" /><text class="text"><tspan class="label" /><tspan class="value" /></text></a></g></g><g class="legends" transform="translate(96, 713)"><g class="legend reactive activate-serie" id="activate-serie-0"><rect class="color-0 reactive" height="12" width="12" x="0.0" y="1.0" /><text x="17.0" y="11.2">constituents</text></g><g class="legend reactive activate-serie" id="activate-serie-1"><rect class="color-1 reactive" height="12" width="12" x="459.0" y="1.0" /><text x="476.0" y="11.2">caucus</text></g></g></g></svg>