<?xml version='1.0' encoding='utf-8'?>
<svg xmlns:xlink="http://www.w3.org/1999/xlink" class="pygal-chart" id="chart-cfb10b3b-c25e-40f9-8d1f-20b7bea09931" viewBox="0 0 1024 768" xmlns="http://www.w3.org/2000/svg"><!--Generated with pygal 1.7.0 (etree) ©Kozea 2011-2014 on 2015-11-17--><!--http://pygal.org--><!--http://github.com/Kozea/pygal--><defs><style type="text/css">#chart-cfb10b3b-c25e-40f9-8d1f-20b7bea09931 .title{font-family:"monospace";font-size:16px}#chart-cfb10b3b-c25e-40f9-8d1f-20b7bea09931 .legends .legend text{font-family:"monospace";font-size:14px}#chart-cfb10b3b-c25e-40f9-8d1f-20b7bea09931 .axis text{font-family:"monospace";font-size:10px}#chart-cfb10b3b-c25e-40f9-8d1f-20b7bea09931 .axis text.major{font-family:"monospace";font-size:10px}#chart-cfb10b3b-c25e-40f9-8d1f-20b7bea09931 .series text{font-family:"monospace";font-size:8px}#chart-cfb10b3b-c25e-40f9-8d1f-20b7bea09931 .tooltip text{font-family:"monospace";font-size:16px}#chart-cfb10b3b-c25e-40f9-8d1f-20b7bea09931 text.no_data{font-size:64px}
#chart-cfb10b3b-c25e-40f9-8d1f-20b7bea09931{background-color:black}#chart-cfb10b3b-c25e-40f9-8d1f-20b7bea09931 path,#chart-cfb10b3b-c25e-40f9-8d1f-20b7bea09931 line,#chart-cfb10b3b-c25e-40f9-8d1f-20b7bea09931 rect,#chart-cfb10b3b-c25e-40f9-8d1f-20b7bea09931 circle{-webkit-transition:250ms;-moz-transition:250ms;transition:250ms}#chart-cfb10b3b-c25e-40f9-8d1f-20b7bea09931 .graph &gt; .background{fill:black}#chart-cfb10b3b-c25e-40f9-8d1f-20b7bea09931 .plot &gt; .background{fill:#111}#chart-cfb10b3b-c25e-40f9-8d1f-20b7bea09931 .graph{fill:#999}#chart-cfb10b3b-c25e-40f9-8d1f-20b7bea09931 text.no_data{fill:#eee}#chart-cfb10b3b-c25e-40f9-8d1f-20b7bea09931 .title{fill:#eee}#chart-cfb10b3b-c25e-40f9-8d1f-20b7bea09931 .legends .legend text{fill:#999}#chart-cfb10b3b-c25e-40f9-8d1f-20b7bea09931 .legends .legend:hover text{fill:#eee}#chart-cfb10b3b-c25e-40f9-8d1f-20b7bea09931 .axis .line{stroke:#eee}#chart-cfb10b3b-c25e-40f9-8d1f-20b7bea09931 .axis .guide.line{stroke:#555}#chart-cfb10b3b-c25e-40f9-8d1f-20b7bea09931 .axis .major.line{stroke:#999}#chart-cfb10b3b-c25e-40f9-8d1f-20b7bea09931 .axis text.major{stroke:#eee;fill:#eee}#chart-cfb10b3b-c25e-40f9-8d1f-20b7bea09931 .axis.y .guides:hover .guide.line,#chart-cfb10b3b-c25e-40f9-8d1f-20b7bea09931 .line-graph .axis.x .guides:hover .guide.line,#chart-cfb10b3b-c25e-40f9-8d1f-20b7bea09931 .stackedline-graph .axis.x .guides:hover .guide.line,#chart-cfb10b3b-c25e-40f9-8d1f-20b7bea09931 .xy-graph .axis.x .guides:hover .guide.line{stroke:#eee}#chart-cfb10b3b-c25e-40f9-8d1f-20b7bea09931 .axis .guides:hover text{fill:#eee}#chart-cfb10b3b-c25e-40f9-8d1f-20b7bea09931 .reactive{fill-opacity:.8}#chart-cfb10b3b-c25e-40f9-8d1f-20b7bea09931 .reactive.active,#chart-cfb10b3b-c25e-40f9-8d1f-20b7bea09931 .active .reactive{fill-opacity:.4}#chart-cfb10b3b-c25e-40f9-8d1f-20b7bea09931 .series{stroke-width:1.0;stroke-linejoin:round;stroke-linecap:round;stroke-dasharray:0,0}#chart-cfb10b3b-c25e-40f9-8d1f-20b7bea09931 .series text{fill:#eee}#chart-cfb10b3b-c25e-40f9-8d1f-20b7bea09931 .tooltip rect{fill:#111;stroke:#eee}#chart-cfb10b3b-c25e-40f9-8d1f-20b7bea09931 .tooltip text{fill:#eee}#chart-cfb10b3b-c25e-40f9-8d1f-20b7bea09931 .map-element{fill:#999;stroke:#555 !important;opacity:.9;stroke-width:3;-webkit-transition:250ms;-moz-transition:250ms;-o-transition:250ms;transition:250ms}#chart-cfb10b3b-c25e-40f9-8d1f-20b7bea09931 .map-element:hover{opacity:1;stroke-width:10}#chart-cfb10b3b-c25e-40f9-8d1f-20b7bea09931 .color-0,#chart-cfb10b3b-c25e-40f9-8d1f-20b7bea09931 .color-0 a:visited{stroke:#ff5995;fill:#ff5995}#chart-cfb10b3b-c25e-40f9-8d1f-20b7bea09931 .color-1,#chart-cfb10b3b-c25e-40f9-8d1f-20b7bea09931 .color-1 a:visited{stroke:#b6e354;fill:#b6e354}#chart-cfb10b3b-c25e-40f9-8d1f-20b7bea09931 .color-2,#chart-cfb10b3b-c25e-40f9-8d1f-20b7bea09931 .color-2 a:visited{stroke:#feed6c;fill:#feed6c}#chart-cfb10b3b-c25e-40f9-8d1f-20b7bea09931 .color-3,#chart-cfb10b3b-c25e-40f9-8d1f-20b7bea09931 .color-3 a:visited{stroke:#8cedff;fill:#8cedff}#chart-cfb10b3b-c25e-40f9-8d1f-20b7bea09931 .color-4,#chart-cfb10b3b-c25e-40f9-8d1f-20b7bea09931 .color-4 a:visited{stroke:#9e6ffe;fill:#9e6ffe}#chart-cfb10b3b-c25e-40f9-8d1f-20b7bea09931 .color-5,#chart-cfb10b3b-c25e-40f9-8d1f-20b7bea09931 .color-5 a:visited{stroke:#899ca1;fill:#899ca1}#chart-cfb10b3b-c25e-40f9-8d1f-20b7bea09931 .color-6,#chart-cfb10b3b-c25e-40f9-8d1f-20b7bea09931 .color-6 a:visited{stroke:#f8f8f2;fill:#f8f8f2}#chart-cfb10b3b-c25e-40f9-8d1f-20b7bea09931 .color-7,#chart-cfb10b3b-c25e-40f9-8d1f-20b7bea09931 .color-7 a:visited{stroke:#bf4646;fill:#bf4646}#chart-cfb10b3b-c25e-40f9-8d1f-20b7bea09931 .color-8,#chart-cfb10b3b-c25e-40f9-8d1f-20b7bea09931 .color-8 a:visited{stroke:#516083;fill:#516083}#chart-cfb10b3b-c25e-40f9-8d1f-20b7bea09931 .color-9,#chart-cfb10b3b-c25e-40f9-8d1f-20b7bea09931 .color-9 a:visited{stroke:#f92672;fill:#f92672}#chart-cfb10b3b-c25e-40f9-8d1f-20b7bea09931 .color-10,#chart-cfb10b3b-c25e-40f9-8d1f-20b7bea09931 .color-10 a:visited{stroke:#82b414;fill:#82b414}#chart-cfb10b3b-c25e-40f9-8d1f-20b7bea09931 .color-11,#chart-cfb10b3b-c25e-40f9-8d1f-20b7bea09931 .color-11 a:visited{stroke:#fd971f;fill:#fd971f}#chart-cfb10b3b-c25e-40f9-8d1f-20b7bea09931 .color-12,#chart-cfb10b3b-c25e-40f9-8d1f-20b7bea09931 .color-12 a:visited{stroke:#56c2d6;fill:#56c2d6}#chart-cfb10b3b-c25e-40f9-8d1f-20b7bea09931 .color-13,#chart-cfb10b3b-c25e-40f9-8d1f-20b7bea09931 .color-13 a:visited{stroke:#808384;fill:#808384}#chart-cfb10b3b-c25e-40f9-8d1f-20b7bea09931 .color-14,#chart-cfb10b3b-c25e-40f9-8d1f-20b7bea09931 .color-14 a:visited{stroke:#8c54fe;fill:#8c54fe}#chart-cfb10b3b-c25e-40f9-8d1f-20b7bea09931 .color-15,#chart-cfb10b3b-c25e-40f9-8d1f-20b7bea09931 .color-15 a:visited{stroke:#465457;fill:#465457}
#chart-cfb10b3b-c25e-40f9-8d1f-20b7bea09931 text.no_data{text-anchor:middle}#chart-cfb10b3b-c25e-40f9-8d1f-20b7bea09931 .guide.line{fill-opacity:0}#chart-cfb10b3b-c25e-40f9-8d1f-20b7bea09931 .centered{text-anchor:middle}#chart-cfb10b3b-c25e-40f9-8d1f-20b7bea09931 .title{text-anchor:middle}#chart-cfb10b3b-c25e-40f9-8d1f-20b7bea09931 .legends .legend text{fill-opacity:1}#chart-cfb10b3b-c25e-40f9-8d1f-20b7bea09931 .axis.x text{text-anchor:middle}#chart-cfb10b3b-c25e-40f9-8d1f-20b7bea09931 .axis.x:not(.web) text[transform]{text-anchor:start}#chart-cfb10b3b-c25e-40f9-8d1f-20b7bea09931 .axis.y text{text-anchor:end}#chart-cfb10b3b-c25e-40f9-8d1f-20b7bea09931 .axis.y2 text{text-anchor:start}#chart-cfb10b3b-c25e-40f9-8d1f-20b7bea09931 .axis.y .logarithmic text:not(.major),#chart-cfb10b3b-c25e-40f9-8d1f-20b7bea09931 .axis.y2 .logarithmic text:not(.major){font-size:50%}#chart-cfb10b3b-c25e-40f9-8d1f-20b7bea09931 .axis .guide.line{stroke-dasharray:4,4}#chart-cfb10b3b-c25e-40f9-8d1f-20b7bea09931 .axis .major.guide.line{stroke-dasharray:6,6}#chart-cfb10b3b-c25e-40f9-8d1f-20b7bea09931 .axis text.major{stroke-width:0.5px}#chart-cfb10b3b-c25e-40f9-8d1f-20b7bea09931 .horizontal .axis.y .guide.line,#chart-cfb10b3b-c25e-40f9-8d1f-20b7bea09931 .horizontal .axis.y2 .guide.line,#chart-cfb10b3b-c25e-40f9-8d1f-20b7bea09931 .vertical .axis.x .guide.line{opacity:0}#chart-cfb10b3b-c25e-40f9-8d1f-20b7bea09931 .horizontal .axis.always_show .guide.line,#chart-cfb10b3b-c25e-40f9-8d1f-20b7bea09931 .vertical .axis.always_show .guide.line{opacity:1 !important}#chart-cfb10b3b-c25e-40f9-8d1f-20b7bea09931 .axis.y .guides:hover .guide.line,#chart-cfb10b3b-c25e-40f9-8d1f-20b7bea09931 .axis.y2 .guides:hover .guide.line,#chart-cfb10b3b-c25e-40f9-8d1f-20b7bea09931 .axis.x .guides:hover .guide.line{opacity:1}#chart-cfb10b3b-c25e-40f9-8d1f-20b7bea09931 .axis .guides:hover text{opacity:1}#chart-cfb10b3b-c25e-40f9-8d1f-20b7bea09931 .nofill{fill:none}#chart-cfb10b3b-c25e-40f9-8d1f-20b7bea09931 .subtle-fill{fill-opacity:.2}#chart-cfb10b3b-c25e-40f9-8d1f-20b7bea09931 .dot{stroke-width:1px;fill-opacity:1}#chart-cfb10b3b-c25e-40f9-8d1f-20b7bea09931 .dot.active{stroke-width:5px}#chart-cfb10b3b-c25e-40f9-8d1f-20b7bea09931 .series text{stroke:none}#chart-cfb10b3b-c25e-40f9-8d1f-20b7bea09931 .series text.active{opacity:1}#chart-cfb10b3b-c25e-40f9-8d1f-20b7bea09931 .tooltip rect{fill-opacity:0.8}#chart-cfb10b3b-c25e-40f9-8d1f-20b7bea09931 .tooltip text{fill-opacity:1}#chart-cfb10b3b-c25e-40f9-8d1f-20b7bea09931 .tooltip text tspan.label{fill-opacity:.8}</style><script type="text/javascript">window.config = {"title": "Election math.stackexchange.com-3 Participation Per Hour", "rounded_bars": null, "style": {"foreground_light": "#eee", "stroke_width": 1.0, "plot_background": "#111", "background": "black", "font_family": "monospace", "transition": "250ms", "opacity": ".8", "stroke_dasharray": "0,0", "foreground": "#999", "stroke_style": "round", "opacity_hover": ".4", "colors": ["#ff5995", "#b6e354", "#feed6c", "#8cedff", "#9e6ffe", "#899ca1", "#f8f8f2", "#bf4646", "#516083", "#f92672", "#82b414", "#fd971f", "#56c2d6", "#808384", "#8c54fe", "#465457"], "foreground_dark": "#555"}, "value_font_size": 8, "x_labels_major": null, "width": 1024, "show_y_labels": true, "show_legend": true, "legend_at_bottom_columns": null, "xrange": null, "pretty_print": false, "mode": null, "dots_size": 2.5, "legend_box_size": 12, "explicit_size": false, "show_only_major_dots": false, "interpolation_precision": 250, "print_values": false, "order_min": null, "major_label_font_size": 10, "no_prefix": false, "title_font_size": 16, "truncate_legend": null, "x_label_format": "%Y-%m-%d %H:%M:%S.%f", "show_dots": false, "x_title": null, "show_y_guides": true, "logarithmic": false, "x_labels_major_every": null, "legend_font_size": 14, "disable_xml_declaration": false, "interpolate": null, "margin_left": null, "show_x_labels": true, "missing_value_fill_truncation": "x", "y_title": "Users", "range": [0, 1000], "no_data_font_size": 64, "margin_right": null, "zero": 0, "x_value_formatter": null, "human_readable": false, "stroke": true, "x_label_rotation": 0, "x_labels_major_count": null, "js": ["http://kozea.github.io/pygal.js/javascripts/svg.jquery.js", "http://kozea.github.io/pygal.js/javascripts/pygal-tooltips.js"], "y_labels": null, "label_font_size": 10, "y_labels_major": null, "stack_from_top": false, "y_labels_major_every": null, "margin_top": null, "css": ["style.css", "graph.css"], "interpolation_parameters": {}, "show_minor_x_labels": true, "y_labels_major_count": null, "margin_bottom": null, "half_pie": false, "tooltip_font_size": 16, "tooltip_border_radius": 0, "no_data_text": "No data", "x_labels": null, "y_label_rotation": 0, "margin": 20, "height": 768, "show_minor_y_labels": true, "show_x_guides": false, "truncate_label": null, "strict": false, "include_x_axis": false, "inner_radius": 0, "print_zeroes": false, "legend_at_bottom": true, "fill": false, "spacing": 10}</script><script type="text/javascript" xlink:href="http://kozea.github.io/pygal.js/javascripts/svg.jquery.js" /><script type="text/javascript" xlink:href="http://kozea.github.io/pygal.js/javascripts/pygal-tooltips.js" /></defs><title>Election math.stackexchange.com-3 Participation Per Hour</title><g class="graph line-graph vertical"><rect class="background" height="768" width="1024" x="0" y="0" /><g class="plot" transform="translate(80, 46)"><rect class="background" height="657.0" width="924.0" x="0" y="0" /><g class="axis y"><g class="guides"><path class="axis major line" d="M0.000000 644.365385 h924.000000" /><text class="major" x="-5" y="647.8653846153846">0</text></g><g class="guides"><path class="guide line" d="M0.000000 581.192308 h924.000000" /><text class="" x="-5" y="584.6923076923077">100</text></g><g class="guides"><path class="guide line" d="M0.000000 518.019231 h924.000000" /><text class="" x="-5" y="521.5192307692307">200</text></g><g class="guides"><path class="guide line" d="M0.000000 454.846154 h924.000000" /><text class="" x="-5" y="458.3461538461538">300</text></g><g class="guides"><path class="guide line" d="M0.000000 391.673077 h924.000000" /><text class="" x="-5" y="395.1730769230769">400</text></g><g class="guides"><path class="major guide line" d="M0.000000 328.500000 h924.000000" /><text class="major" x="-5" y="332.0">500</text></g><g class="guides"><path class="guide line" d="M0.000000 265.326923 h924.000000" /><text class="" x="-5" y="268.8269230769231">600</text></g><g class="guides"><path class="guide line" d="M0.000000 202.153846 h924.000000" /><text class="" x="-5" y="205.65384615384613">700</text></g><g class="guides"><path class="guide line" d="M0.000000 138.980769 h924.000000" /><text class="" x="-5" y="142.48076923076928">800</text></g><g class="guides"><path class="guide line" d="M0.000000 75.807692 h924.000000" /><text class="" x="-5" y="79.30769230769226">900</text></g><g class="guides"><path class="major guide line" d="M0.000000 12.634615 h924.000000" /><text class="major" x="-5" y="16.13461538461536">1000</text></g></g><g class="series serie-0 color-0"><path class="line reactive nofill" d="M17.769231 409.993269 L20.237179 644.365385 22.705128 644.365385 25.173077 644.365385 27.641026 644.365385 30.108974 644.365385 32.576923 644.365385 35.044872 644.365385 37.512821 644.365385 39.980769 644.365385 42.448718 644.365385 44.916667 644.365385 47.384615 644.365385 49.852564 644.365385 52.320513 644.365385 54.788462 644.365385 57.256410 644.365385 59.724359 644.365385 62.192308 644.365385 64.660256 644.365385 67.128205 644.365385 69.596154 644.365385 72.064103 644.365385 74.532051 644.365385 77.000000 644.365385 79.467949 644.365385 81.935897 644.365385 84.403846 644.365385 86.871795 644.365385 89.339744 644.365385 91.807692 644.365385 94.275641 644.365385 96.743590 644.365385 99.211538 644.365385 101.679487 644.365385 104.147436 644.365385 106.615385 644.365385 109.083333 644.365385 111.551282 644.365385 114.019231 644.365385 116.487179 644.365385 118.955128 644.365385 121.423077 644.365385 123.891026 644.365385 126.358974 644.365385 128.826923 644.365385 131.294872 644.365385 133.762821 644.365385 136.230769 644.365385 138.698718 644.365385 141.166667 644.365385 143.634615 644.365385 146.102564 644.365385 148.570513 644.365385 151.038462 644.365385 153.506410 644.365385 155.974359 644.365385 158.442308 644.365385 160.910256 644.365385 163.378205 644.365385 165.846154 644.365385 168.314103 644.365385 170.782051 644.365385 173.250000 644.365385 175.717949 644.365385 178.185897 644.365385 180.653846 644.365385 183.121795 644.365385 185.589744 644.365385 188.057692 644.365385 190.525641 644.365385 192.993590 644.365385 195.461538 644.365385 197.929487 644.365385 200.397436 644.365385 202.865385 644.365385 205.333333 644.365385 207.801282 644.365385 210.269231 644.365385 212.737179 644.365385 215.205128 644.365385 217.673077 644.365385 220.141026 644.365385 222.608974 644.365385 225.076923 644.365385 227.544872 644.365385 230.012821 644.365385 232.480769 644.365385 234.948718 644.365385 237.416667 644.365385 239.884615 644.365385 242.352564 644.365385 244.820513 644.365385 247.288462 644.365385 249.756410 644.365385 252.224359 644.365385 254.692308 644.365385 257.160256 644.365385 259.628205 644.365385 262.096154 644.365385 264.564103 644.365385 267.032051 644.365385 269.500000 644.365385 271.967949 644.365385 274.435897 644.365385 276.903846 644.365385 279.371795 644.365385 281.839744 644.365385 284.307692 644.365385 286.775641 644.365385 289.243590 644.365385 291.711538 644.365385 294.179487 644.365385 296.647436 644.365385 299.115385 644.365385 301.583333 644.365385 304.051282 644.365385 306.519231 644.365385 308.987179 644.365385 311.455128 644.365385 313.923077 644.365385 316.391026 644.365385 318.858974 644.365385 321.326923 644.365385 323.794872 644.365385 326.262821 644.365385 328.730769 644.365385 331.198718 644.365385 333.666667 644.365385 336.134615 644.365385 338.602564 644.365385 341.070513 644.365385 343.538462 644.365385 346.006410 644.365385 348.474359 644.365385 350.942308 644.365385 353.410256 644.365385 355.878205 644.365385 358.346154 644.365385 360.814103 644.365385 363.282051 644.365385 365.750000 644.365385 368.217949 644.365385 370.685897 644.365385 373.153846 644.365385 375.621795 644.365385 378.089744 644.365385 380.557692 644.365385 383.025641 644.365385 385.493590 644.365385 387.961538 644.365385 390.429487 644.365385 392.897436 644.365385 395.365385 644.365385 397.833333 644.365385 400.301282 644.365385 402.769231 644.365385 405.237179 644.365385 407.705128 644.365385 410.173077 644.365385 412.641026 644.365385 415.108974 644.365385 417.576923 644.365385 420.044872 644.365385 422.512821 644.365385 424.980769 644.365385 427.448718 644.365385 429.916667 644.365385 432.384615 644.365385 434.852564 644.365385 437.320513 644.365385 439.788462 644.365385 442.256410 644.365385 444.724359 644.365385 447.192308 644.365385 449.660256 644.365385 452.128205 644.365385 454.596154 644.365385 457.064103 644.365385 459.532051 644.365385 462.000000 644.365385 464.467949 644.365385 466.935897 644.365385 469.403846 644.365385 471.871795 644.365385 474.339744 644.365385 476.807692 644.365385 479.275641 644.365385 481.743590 644.365385 484.211538 644.365385 486.679487 644.365385 489.147436 644.365385 491.615385 644.365385 494.083333 644.365385 496.551282 644.365385 499.019231 644.365385 501.487179 644.365385 503.955128 644.365385 506.423077 644.365385 508.891026 644.365385 511.358974 644.365385 513.826923 644.365385 516.294872 644.365385 518.762821 644.365385 521.230769 644.365385 523.698718 644.365385 526.166667 644.365385 528.634615 644.365385 531.102564 644.365385 533.570513 644.365385 536.038462 644.365385 538.506410 644.365385 540.974359 644.365385 543.442308 644.365385 545.910256 644.365385 548.378205 644.365385 550.846154 644.365385 553.314103 644.365385 555.782051 644.365385 558.250000 644.365385 560.717949 644.365385 563.185897 644.365385 565.653846 644.365385 568.121795 644.365385 570.589744 644.365385 573.057692 644.365385 575.525641 644.365385 577.993590 644.365385 580.461538 644.365385 582.929487 644.365385 585.397436 644.365385 587.865385 644.365385 590.333333 644.365385 592.801282 644.365385 595.269231 644.365385 597.737179 644.365385 600.205128 644.365385 602.673077 644.365385 605.141026 644.365385 607.608974 644.365385 610.076923 644.365385 612.544872 644.365385 615.012821 644.365385 617.480769 644.365385 619.948718 644.365385 622.416667 644.365385 624.884615 644.365385 627.352564 644.365385 629.820513 644.365385 632.288462 644.365385 634.756410 644.365385 637.224359 644.365385 639.692308 644.365385 642.160256 644.365385 644.628205 644.365385 647.096154 644.365385 649.564103 644.365385 652.032051 644.365385 654.500000 644.365385 656.967949 644.365385 659.435897 644.365385 661.903846 644.365385 664.371795 644.365385 666.839744 644.365385 669.307692 644.365385 671.775641 644.365385 674.243590 644.365385 676.711538 644.365385 679.179487 644.365385 681.647436 644.365385 684.115385 644.365385 686.583333 644.365385 689.051282 644.365385 691.519231 644.365385 693.987179 644.365385 696.455128 644.365385 698.923077 644.365385 701.391026 644.365385 703.858974 644.365385 706.326923 644.365385 708.794872 644.365385 711.262821 644.365385 713.730769 644.365385 716.198718 644.365385 718.666667 644.365385 721.134615 644.365385 723.602564 644.365385 726.070513 644.365385 728.538462 644.365385 731.006410 644.365385 733.474359 644.365385 735.942308 644.365385 738.410256 644.365385 740.878205 644.365385 743.346154 644.365385 745.814103 644.365385 748.282051 644.365385 750.750000 644.365385 753.217949 644.365385 755.685897 644.365385 758.153846 644.365385 760.621795 644.365385 763.089744 644.365385 765.557692 644.365385 768.025641 644.365385 770.493590 644.365385 772.961538 644.365385 775.429487 644.365385 777.897436 644.365385 780.365385 644.365385 782.833333 644.365385 785.301282 644.365385 787.769231 644.365385 790.237179 644.365385 792.705128 644.365385 795.173077 644.365385 797.641026 644.365385 800.108974 644.365385 802.576923 644.365385 805.044872 644.365385 807.512821 644.365385 809.980769 644.365385 812.448718 644.365385 814.916667 644.365385 817.384615 644.365385 819.852564 644.365385 822.320513 644.365385 824.788462 644.365385 827.256410 644.365385 829.724359 644.365385 832.192308 644.365385 834.660256 644.365385 837.128205 644.365385 839.596154 644.365385 842.064103 644.365385 844.532051 644.365385 847.000000 644.365385 849.467949 644.365385 851.935897 644.365385 854.403846 644.365385 856.871795 644.365385 859.339744 644.365385 861.807692 644.365385 864.275641 644.365385 866.743590 644.365385 869.211538 644.365385 871.679487 644.365385 874.147436 644.365385 876.615385 644.365385 879.083333 644.365385 881.551282 644.365385 884.019231 644.365385 886.487179 644.365385 888.955128 644.365385 891.423077 644.365385 893.891026 644.365385 896.358974 644.365385 898.826923 644.365385 901.294872 644.365385 903.762821 644.365385 906.230769 644.365385" /></g><g class="series serie-1 color-1"><path class="line reactive nofill" d="M17.769231 235.003846 L20.237179 644.365385 22.705128 644.365385 25.173077 644.365385 27.641026 644.365385 30.108974 644.365385 32.576923 644.365385 35.044872 644.365385 37.512821 644.365385 39.980769 644.365385 42.448718 644.365385 44.916667 644.365385 47.384615 644.365385 49.852564 644.365385 52.320513 644.365385 54.788462 644.365385 57.256410 644.365385 59.724359 644.365385 62.192308 644.365385 64.660256 644.365385 67.128205 644.365385 69.596154 644.365385 72.064103 644.365385 74.532051 644.365385 77.000000 644.365385 79.467949 644.365385 81.935897 644.365385 84.403846 644.365385 86.871795 644.365385 89.339744 644.365385 91.807692 644.365385 94.275641 644.365385 96.743590 644.365385 99.211538 644.365385 101.679487 644.365385 104.147436 644.365385 106.615385 644.365385 109.083333 644.365385 111.551282 644.365385 114.019231 644.365385 116.487179 644.365385 118.955128 644.365385 121.423077 644.365385 123.891026 644.365385 126.358974 644.365385 128.826923 644.365385 131.294872 644.365385 133.762821 644.365385 136.230769 644.365385 138.698718 644.365385 141.166667 644.365385 143.634615 644.365385 146.102564 644.365385 148.570513 644.365385 151.038462 644.365385 153.506410 644.365385 155.974359 644.365385 158.442308 644.365385 160.910256 644.365385 163.378205 644.365385 165.846154 644.365385 168.314103 644.365385 170.782051 644.365385 173.250000 644.365385 175.717949 644.365385 178.185897 644.365385 180.653846 644.365385 183.121795 644.365385 185.589744 644.365385 188.057692 644.365385 190.525641 644.365385 192.993590 644.365385 195.461538 644.365385 197.929487 644.365385 200.397436 644.365385 202.865385 644.365385 205.333333 644.365385 207.801282 644.365385 210.269231 644.365385 212.737179 644.365385 215.205128 644.365385 217.673077 644.365385 220.141026 644.365385 222.608974 644.365385 225.076923 644.365385 227.544872 644.365385 230.012821 644.365385 232.480769 644.365385 234.948718 644.365385 237.416667 644.365385 239.884615 644.365385 242.352564 644.365385 244.820513 644.365385 247.288462 644.365385 249.756410 644.365385 252.224359 644.365385 254.692308 644.365385 257.160256 644.365385 259.628205 644.365385 262.096154 644.365385 264.564103 644.365385 267.032051 644.365385 269.500000 644.365385 271.967949 644.365385 274.435897 644.365385 276.903846 644.365385 279.371795 644.365385 281.839744 644.365385 284.307692 644.365385 286.775641 644.365385 289.243590 644.365385 291.711538 644.365385 294.179487 644.365385 296.647436 644.365385 299.115385 644.365385 301.583333 644.365385 304.051282 644.365385 306.519231 644.365385 308.987179 644.365385 311.455128 644.365385 313.923077 644.365385 316.391026 644.365385 318.858974 644.365385 321.326923 644.365385 323.794872 644.365385 326.262821 644.365385 328.730769 644.365385 331.198718 644.365385 333.666667 644.365385 336.134615 644.365385 338.602564 644.365385 341.070513 644.365385 343.538462 644.365385 346.006410 644.365385 348.474359 644.365385 350.942308 644.365385 353.410256 644.365385 355.878205 644.365385 358.346154 644.365385 360.814103 644.365385 363.282051 644.365385 365.750000 644.365385 368.217949 644.365385 370.685897 644.365385 373.153846 644.365385 375.621795 644.365385 378.089744 644.365385 380.557692 644.365385 383.025641 644.365385 385.493590 644.365385 387.961538 644.365385 390.429487 644.365385 392.897436 644.365385 395.365385 644.365385 397.833333 644.365385 400.301282 644.365385 402.769231 644.365385 405.237179 644.365385 407.705128 644.365385 410.173077 644.365385 412.641026 644.365385 415.108974 644.365385 417.576923 644.365385 420.044872 644.365385 422.512821 644.365385 424.980769 644.365385 427.448718 644.365385 429.916667 644.365385 432.384615 644.365385 434.852564 644.365385 437.320513 644.365385 439.788462 644.365385 442.256410 644.365385 444.724359 644.365385 447.192308 644.365385 449.660256 644.365385 452.128205 644.365385 454.596154 644.365385 457.064103 644.365385 459.532051 644.365385 462.000000 644.365385 464.467949 644.365385 466.935897 644.365385 469.403846 644.365385 471.871795 644.365385 474.339744 644.365385 476.807692 644.365385 479.275641 644.365385 481.743590 644.365385 484.211538 644.365385 486.679487 644.365385 489.147436 644.365385 491.615385 644.365385 494.083333 644.365385 496.551282 644.365385 499.019231 644.365385 501.487179 644.365385 503.955128 644.365385 506.423077 644.365385 508.891026 644.365385 511.358974 644.365385 513.826923 644.365385 516.294872 644.365385 518.762821 644.365385 521.230769 644.365385 523.698718 644.365385 526.166667 644.365385 528.634615 644.365385 531.102564 644.365385 533.570513 644.365385 536.038462 644.365385 538.506410 644.365385 540.974359 644.365385 543.442308 644.365385 545.910256 644.365385 548.378205 644.365385 550.846154 644.365385 553.314103 644.365385 555.782051 644.365385 558.250000 644.365385 560.717949 644.365385 563.185897 644.365385 565.653846 644.365385 568.121795 644.365385 570.589744 644.365385 573.057692 644.365385 575.525641 644.365385 577.993590 644.365385 580.461538 644.365385 582.929487 644.365385 585.397436 644.365385 587.865385 644.365385 590.333333 644.365385 592.801282 644.365385 595.269231 644.365385 597.737179 644.365385 600.205128 644.365385 602.673077 644.365385 605.141026 644.365385 607.608974 644.365385 610.076923 644.365385 612.544872 644.365385 615.012821 644.365385 617.480769 644.365385 619.948718 644.365385 622.416667 644.365385 624.884615 644.365385 627.352564 644.365385 629.820513 644.365385 632.288462 644.365385 634.756410 644.365385 637.224359 644.365385 639.692308 644.365385 642.160256 644.365385 644.628205 644.365385 647.096154 644.365385 649.564103 644.365385 652.032051 644.365385 654.500000 644.365385 656.967949 644.365385 659.435897 644.365385 661.903846 644.365385 664.371795 644.365385 666.839744 644.365385 669.307692 644.365385 671.775641 644.365385 674.243590 644.365385 676.711538 644.365385 679.179487 644.365385 681.647436 644.365385 684.115385 644.365385 686.583333 644.365385 689.051282 644.365385 691.519231 644.365385 693.987179 644.365385 696.455128 644.365385 698.923077 644.365385 701.391026 644.365385 703.858974 644.365385 706.326923 644.365385 708.794872 644.365385 711.262821 644.365385 713.730769 644.365385 716.198718 644.365385 718.666667 644.365385 721.134615 644.365385 723.602564 644.365385 726.070513 644.365385 728.538462 644.365385 731.006410 644.365385 733.474359 644.365385 735.942308 644.365385 738.410256 644.365385 740.878205 644.365385 743.346154 644.365385 745.814103 644.365385 748.282051 644.365385 750.750000 644.365385 753.217949 644.365385 755.685897 644.365385 758.153846 644.365385 760.621795 644.365385 763.089744 644.365385 765.557692 644.365385 768.025641 644.365385 770.493590 644.365385 772.961538 644.365385 775.429487 644.365385 777.897436 644.365385 780.365385 644.365385 782.833333 644.365385 785.301282 644.365385 787.769231 644.365385 790.237179 644.365385 792.705128 644.365385 795.173077 644.365385 797.641026 644.365385 800.108974 644.365385 802.576923 644.365385 805.044872 644.365385 807.512821 644.365385 809.980769 644.365385 812.448718 644.365385 814.916667 644.365385 817.384615 644.365385 819.852564 644.365385 822.320513 644.365385 824.788462 644.365385 827.256410 644.365385 829.724359 644.365385 832.192308 644.365385 834.660256 644.365385 837.128205 644.365385 839.596154 644.365385 842.064103 644.365385 844.532051 644.365385 847.000000 644.365385 849.467949 644.365385 851.935897 644.365385 854.403846 644.365385 856.871795 644.365385 859.339744 644.365385 861.807692 644.365385 864.275641 644.365385 866.743590 644.365385 869.211538 644.365385 871.679487 644.365385 874.147436 644.365385 876.615385 644.365385 879.083333 644.365385 881.551282 644.365385 884.019231 644.365385 886.487179 644.365385 888.955128 644.365385 891.423077 644.365385 893.891026 644.365385 896.358974 644.365385 898.826923 644.365385 901.294872 644.365385 903.762821 644.365385 906.230769 644.365385" /></g></g><g class="titles"><text class="title plot_title" x="512.0" y="26">Election math.stackexchange.com-3 Participation Per Hour</text><text class="title" transform="rotate(-90 0.000000 374.500000)" x="0" y="400.5">Users</text></g><g class="plot overlay" transform="translate(80, 46)"><g class="series serie-0 color-0" /><g class="series serie-1 color-1" /></g><g class="plot text-overlay" transform="translate(80, 46)"><g class="series serie-0 color-0" /><g class="series serie-1 color-1" /></g><g class="plot tooltip-overlay" transform="translate(80, 46)"><g class="tooltip" style="opacity: 0" transform="translate(0 0)"><a><rect class="tooltip-box" height="0" rx="0" ry="0" width="0" /><text class="text"><tspan class="label" /><tspan class="value" /></text></a></g></g><g class="legends" transform="translate(90, 713)"><g class="legend reactive activate-serie" id="activate-serie-0"><rect class="color-0 reactive" height="12" width="12" x="0.0" y="1.0" /><text x="17.0" y="11.2">constituents</text></g><g class="legend reactive activate-serie" id="activate-serie-1"><rect class="color-1 reactive" height="12" width="12" x="462.0" y="1.0" /><text x="479.0" y="11.2">caucus</text></g></g></g></svg>