<?xml version='1.0' encoding='utf-8'?>
<svg xmlns:xlink="http://www.w3.org/1999/xlink" class="pygal-chart" id="chart-9f72e1a9-3a1e-48ad-97ce-8aa5a6b79149" viewBox="0 0 1024 768" xmlns="http://www.w3.org/2000/svg"><!--Generated with pygal 1.7.0 (etree) ©Kozea 2011-2014 on 2018-03-25--><!--http://pygal.org--><!--http://github.com/Kozea/pygal--><defs><style type="text/css">#chart-9f72e1a9-3a1e-48ad-97ce-8aa5a6b79149 .title{font-family:"monospace";font-size:16px}#chart-9f72e1a9-3a1e-48ad-97ce-8aa5a6b79149 .legends .legend text{font-family:"monospace";font-size:14px}#chart-9f72e1a9-3a1e-48ad-97ce-8aa5a6b79149 .axis text{font-family:"monospace";font-size:10px}#chart-9f72e1a9-3a1e-48ad-97ce-8aa5a6b79149 .axis text.major{font-family:"monospace";font-size:10px}#chart-9f72e1a9-3a1e-48ad-97ce-8aa5a6b79149 .series text{font-family:"monospace";font-size:8px}#chart-9f72e1a9-3a1e-48ad-97ce-8aa5a6b79149 .tooltip text{font-family:"monospace";font-size:16px}#chart-9f72e1a9-3a1e-48ad-97ce-8aa5a6b79149 text.no_data{font-size:64px}
#chart-9f72e1a9-3a1e-48ad-97ce-8aa5a6b79149{background-color:black}#chart-9f72e1a9-3a1e-48ad-97ce-8aa5a6b79149 path,#chart-9f72e1a9-3a1e-48ad-97ce-8aa5a6b79149 line,#chart-9f72e1a9-3a1e-48ad-97ce-8aa5a6b79149 rect,#chart-9f72e1a9-3a1e-48ad-97ce-8aa5a6b79149 circle{-webkit-transition:250ms;-moz-transition:250ms;transition:250ms}#chart-9f72e1a9-3a1e-48ad-97ce-8aa5a6b79149 .graph &gt; .background{fill:black}#chart-9f72e1a9-3a1e-48ad-97ce-8aa5a6b79149 .plot &gt; .background{fill:#111}#chart-9f72e1a9-3a1e-48ad-97ce-8aa5a6b79149 .graph{fill:#999}#chart-9f72e1a9-3a1e-48ad-97ce-8aa5a6b79149 text.no_data{fill:#eee}#chart-9f72e1a9-3a1e-48ad-97ce-8aa5a6b79149 .title{fill:#eee}#chart-9f72e1a9-3a1e-48ad-97ce-8aa5a6b79149 .legends .legend text{fill:#999}#chart-9f72e1a9-3a1e-48ad-97ce-8aa5a6b79149 .legends .legend:hover text{fill:#eee}#chart-9f72e1a9-3a1e-48ad-97ce-8aa5a6b79149 .axis .line{stroke:#eee}#chart-9f72e1a9-3a1e-48ad-97ce-8aa5a6b79149 .axis .guide.line{stroke:#555}#chart-9f72e1a9-3a1e-48ad-97ce-8aa5a6b79149 .axis .major.line{stroke:#999}#chart-9f72e1a9-3a1e-48ad-97ce-8aa5a6b79149 .axis text.major{stroke:#eee;fill:#eee}#chart-9f72e1a9-3a1e-48ad-97ce-8aa5a6b79149 .axis.y .guides:hover .guide.line,#chart-9f72e1a9-3a1e-48ad-97ce-8aa5a6b79149 .line-graph .axis.x .guides:hover .guide.line,#chart-9f72e1a9-3a1e-48ad-97ce-8aa5a6b79149 .stackedline-graph .axis.x .guides:hover .guide.line,#chart-9f72e1a9-3a1e-48ad-97ce-8aa5a6b79149 .xy-graph .axis.x .guides:hover .guide.line{stroke:#eee}#chart-9f72e1a9-3a1e-48ad-97ce-8aa5a6b79149 .axis .guides:hover text{fill:#eee}#chart-9f72e1a9-3a1e-48ad-97ce-8aa5a6b79149 .reactive{fill-opacity:.8}#chart-9f72e1a9-3a1e-48ad-97ce-8aa5a6b79149 .reactive.active,#chart-9f72e1a9-3a1e-48ad-97ce-8aa5a6b79149 .active .reactive{fill-opacity:.4}#chart-9f72e1a9-3a1e-48ad-97ce-8aa5a6b79149 .series{stroke-width:1.0;stroke-linejoin:round;stroke-linecap:round;stroke-dasharray:0,0}#chart-9f72e1a9-3a1e-48ad-97ce-8aa5a6b79149 .series text{fill:#eee}#chart-9f72e1a9-3a1e-48ad-97ce-8aa5a6b79149 .tooltip rect{fill:#111;stroke:#eee}#chart-9f72e1a9-3a1e-48ad-97ce-8aa5a6b79149 .tooltip text{fill:#eee}#chart-9f72e1a9-3a1e-48ad-97ce-8aa5a6b79149 .map-element{fill:#999;stroke:#555 !important;opacity:.9;stroke-width:3;-webkit-transition:250ms;-moz-transition:250ms;-o-transition:250ms;transition:250ms}#chart-9f72e1a9-3a1e-48ad-97ce-8aa5a6b79149 .map-element:hover{opacity:1;stroke-width:10}#chart-9f72e1a9-3a1e-48ad-97ce-8aa5a6b79149 .color-0,#chart-9f72e1a9-3a1e-48ad-97ce-8aa5a6b79149 .color-0 a:visited{stroke:#ff5995;fill:#ff5995}#chart-9f72e1a9-3a1e-48ad-97ce-8aa5a6b79149 .color-1,#chart-9f72e1a9-3a1e-48ad-97ce-8aa5a6b79149 .color-1 a:visited{stroke:#b6e354;fill:#b6e354}#chart-9f72e1a9-3a1e-48ad-97ce-8aa5a6b79149 .color-2,#chart-9f72e1a9-3a1e-48ad-97ce-8aa5a6b79149 .color-2 a:visited{stroke:#feed6c;fill:#feed6c}#chart-9f72e1a9-3a1e-48ad-97ce-8aa5a6b79149 .color-3,#chart-9f72e1a9-3a1e-48ad-97ce-8aa5a6b79149 .color-3 a:visited{stroke:#8cedff;fill:#8cedff}#chart-9f72e1a9-3a1e-48ad-97ce-8aa5a6b79149 .color-4,#chart-9f72e1a9-3a1e-48ad-97ce-8aa5a6b79149 .color-4 a:visited{stroke:#9e6ffe;fill:#9e6ffe}#chart-9f72e1a9-3a1e-48ad-97ce-8aa5a6b79149 .color-5,#chart-9f72e1a9-3a1e-48ad-97ce-8aa5a6b79149 .color-5 a:visited{stroke:#899ca1;fill:#899ca1}#chart-9f72e1a9-3a1e-48ad-97ce-8aa5a6b79149 .color-6,#chart-9f72e1a9-3a1e-48ad-97ce-8aa5a6b79149 .color-6 a:visited{stroke:#f8f8f2;fill:#f8f8f2}#chart-9f72e1a9-3a1e-48ad-97ce-8aa5a6b79149 .color-7,#chart-9f72e1a9-3a1e-48ad-97ce-8aa5a6b79149 .color-7 a:visited{stroke:#bf4646;fill:#bf4646}#chart-9f72e1a9-3a1e-48ad-97ce-8aa5a6b79149 .color-8,#chart-9f72e1a9-3a1e-48ad-97ce-8aa5a6b79149 .color-8 a:visited{stroke:#516083;fill:#516083}#chart-9f72e1a9-3a1e-48ad-97ce-8aa5a6b79149 .color-9,#chart-9f72e1a9-3a1e-48ad-97ce-8aa5a6b79149 .color-9 a:visited{stroke:#f92672;fill:#f92672}#chart-9f72e1a9-3a1e-48ad-97ce-8aa5a6b79149 .color-10,#chart-9f72e1a9-3a1e-48ad-97ce-8aa5a6b79149 .color-10 a:visited{stroke:#82b414;fill:#82b414}#chart-9f72e1a9-3a1e-48ad-97ce-8aa5a6b79149 .color-11,#chart-9f72e1a9-3a1e-48ad-97ce-8aa5a6b79149 .color-11 a:visited{stroke:#fd971f;fill:#fd971f}#chart-9f72e1a9-3a1e-48ad-97ce-8aa5a6b79149 .color-12,#chart-9f72e1a9-3a1e-48ad-97ce-8aa5a6b79149 .color-12 a:visited{stroke:#56c2d6;fill:#56c2d6}#chart-9f72e1a9-3a1e-48ad-97ce-8aa5a6b79149 .color-13,#chart-9f72e1a9-3a1e-48ad-97ce-8aa5a6b79149 .color-13 a:visited{stroke:#808384;fill:#808384}#chart-9f72e1a9-3a1e-48ad-97ce-8aa5a6b79149 .color-14,#chart-9f72e1a9-3a1e-48ad-97ce-8aa5a6b79149 .color-14 a:visited{stroke:#8c54fe;fill:#8c54fe}#chart-9f72e1a9-3a1e-48ad-97ce-8aa5a6b79149 .color-15,#chart-9f72e1a9-3a1e-48ad-97ce-8aa5a6b79149 .color-15 a:visited{stroke:#465457;fill:#465457}
#chart-9f72e1a9-3a1e-48ad-97ce-8aa5a6b79149 text.no_data{text-anchor:middle}#chart-9f72e1a9-3a1e-48ad-97ce-8aa5a6b79149 .guide.line{fill-opacity:0}#chart-9f72e1a9-3a1e-48ad-97ce-8aa5a6b79149 .centered{text-anchor:middle}#chart-9f72e1a9-3a1e-48ad-97ce-8aa5a6b79149 .title{text-anchor:middle}#chart-9f72e1a9-3a1e-48ad-97ce-8aa5a6b79149 .legends .legend text{fill-opacity:1}#chart-9f72e1a9-3a1e-48ad-97ce-8aa5a6b79149 .axis.x text{text-anchor:middle}#chart-9f72e1a9-3a1e-48ad-97ce-8aa5a6b79149 .axis.x:not(.web) text[transform]{text-anchor:start}#chart-9f72e1a9-3a1e-48ad-97ce-8aa5a6b79149 .axis.y text{text-anchor:end}#chart-9f72e1a9-3a1e-48ad-97ce-8aa5a6b79149 .axis.y2 text{text-anchor:start}#chart-9f72e1a9-3a1e-48ad-97ce-8aa5a6b79149 .axis.y .logarithmic text:not(.major),#chart-9f72e1a9-3a1e-48ad-97ce-8aa5a6b79149 .axis.y2 .logarithmic text:not(.major){font-size:50%}#chart-9f72e1a9-3a1e-48ad-97ce-8aa5a6b79149 .axis .guide.line{stroke-dasharray:4,4}#chart-9f72e1a9-3a1e-48ad-97ce-8aa5a6b79149 .axis .major.guide.line{stroke-dasharray:6,6}#chart-9f72e1a9-3a1e-48ad-97ce-8aa5a6b79149 .axis text.major{stroke-width:0.5px}#chart-9f72e1a9-3a1e-48ad-97ce-8aa5a6b79149 .horizontal .axis.y .guide.line,#chart-9f72e1a9-3a1e-48ad-97ce-8aa5a6b79149 .horizontal .axis.y2 .guide.line,#chart-9f72e1a9-3a1e-48ad-97ce-8aa5a6b79149 .vertical .axis.x .guide.line{opacity:0}#chart-9f72e1a9-3a1e-48ad-97ce-8aa5a6b79149 .horizontal .axis.always_show .guide.line,#chart-9f72e1a9-3a1e-48ad-97ce-8aa5a6b79149 .vertical .axis.always_show .guide.line{opacity:1 !important}#chart-9f72e1a9-3a1e-48ad-97ce-8aa5a6b79149 .axis.y .guides:hover .guide.line,#chart-9f72e1a9-3a1e-48ad-97ce-8aa5a6b79149 .axis.y2 .guides:hover .guide.line,#chart-9f72e1a9-3a1e-48ad-97ce-8aa5a6b79149 .axis.x .guides:hover .guide.line{opacity:1}#chart-9f72e1a9-3a1e-48ad-97ce-8aa5a6b79149 .axis .guides:hover text{opacity:1}#chart-9f72e1a9-3a1e-48ad-97ce-8aa5a6b79149 .nofill{fill:none}#chart-9f72e1a9-3a1e-48ad-97ce-8aa5a6b79149 .subtle-fill{fill-opacity:.2}#chart-9f72e1a9-3a1e-48ad-97ce-8aa5a6b79149 .dot{stroke-width:1px;fill-opacity:1}#chart-9f72e1a9-3a1e-48ad-97ce-8aa5a6b79149 .dot.active{stroke-width:5px}#chart-9f72e1a9-3a1e-48ad-97ce-8aa5a6b79149 .series text{stroke:none}#chart-9f72e1a9-3a1e-48ad-97ce-8aa5a6b79149 .series text.active{opacity:1}#chart-9f72e1a9-3a1e-48ad-97ce-8aa5a6b79149 .tooltip rect{fill-opacity:0.8}#chart-9f72e1a9-3a1e-48ad-97ce-8aa5a6b79149 .tooltip text{fill-opacity:1}#chart-9f72e1a9-3a1e-48ad-97ce-8aa5a6b79149 .tooltip text tspan.label{fill-opacity:.8}</style><script type="text/javascript">window.config = {"css": ["style.css", "graph.css"], "disable_xml_declaration": false, "dots_size": 2.5, "explicit_size": false, "fill": false, "half_pie": false, "height": 768, "human_readable": false, "include_x_axis": false, "inner_radius": 0, "interpolate": null, "interpolation_parameters": {}, "interpolation_precision": 250, "js": ["http://kozea.github.io/pygal.js/javascripts/svg.jquery.js", "http://kozea.github.io/pygal.js/javascripts/pygal-tooltips.js"], "label_font_size": 10, "legend_at_bottom": true, "legend_at_bottom_columns": null, "legend_box_size": 12, "legend_font_size": 14, "logarithmic": false, "major_label_font_size": 10, "margin": 20, "margin_bottom": null, "margin_left": null, "margin_right": null, "margin_top": null, "missing_value_fill_truncation": "x", "mode": null, "no_data_font_size": 64, "no_data_text": "No data", "no_prefix": false, "order_min": null, "pretty_print": false, "print_values": false, "print_zeroes": false, "range": [0, 1000], "rounded_bars": null, "show_dots": false, "show_legend": true, "show_minor_x_labels": true, "show_minor_y_labels": true, "show_only_major_dots": false, "show_x_guides": false, "show_x_labels": true, "show_y_guides": true, "show_y_labels": true, "spacing": 10, "stack_from_top": false, "strict": false, "stroke": true, "style": {"background": "black", "colors": ["#ff5995", "#b6e354", "#feed6c", "#8cedff", "#9e6ffe", "#899ca1", "#f8f8f2", "#bf4646", "#516083", "#f92672", "#82b414", "#fd971f", "#56c2d6", "#808384", "#8c54fe", "#465457"], "font_family": "monospace", "foreground": "#999", "foreground_dark": "#555", "foreground_light": "#eee", "opacity": ".8", "opacity_hover": ".4", "plot_background": "#111", "stroke_dasharray": "0,0", "stroke_style": "round", "stroke_width": 1.0, "transition": "250ms"}, "title": "Election stackoverflow.com-8 Participation Per Hour", "title_font_size": 16, "tooltip_border_radius": 0, "tooltip_font_size": 16, "truncate_label": null, "truncate_legend": null, "value_font_size": 8, "width": 1024, "x_label_format": "%Y-%m-%d %H:%M:%S.%f", "x_label_rotation": 0, "x_labels": null, "x_labels_major": null, "x_labels_major_count": null, "x_labels_major_every": null, "x_title": null, "x_value_formatter": null, "xrange": null, "y_label_rotation": 0, "y_labels": null, "y_labels_major": null, "y_labels_major_count": null, "y_labels_major_every": null, "y_title": "Users", "zero": 0}</script><script type="text/javascript" xlink:href="http://kozea.github.io/pygal.js/javascripts/svg.jquery.js" /><script type="text/javascript" xlink:href="http://kozea.github.io/pygal.js/javascripts/pygal-tooltips.js" /></defs><title>Election stackoverflow.com-8 Participation Per Hour</title><g class="graph line-graph vertical"><rect class="background" height="768" width="1024" x="0" y="0" /><g class="plot" transform="translate(80, 46)"><rect class="background" height="657.0" width="924.0" x="0" y="0" /><g class="axis y"><g class="guides"><path class="axis major line" d="M0.000000 644.365385 h924.000000" /><text class="major" x="-5" y="647.8653846153846">0</text></g><g class="guides"><path class="guide line" d="M0.000000 581.192308 h924.000000" /><text class="" x="-5" y="584.6923076923077">100</text></g><g class="guides"><path class="guide line" d="M0.000000 518.019231 h924.000000" /><text class="" x="-5" y="521.5192307692307">200</text></g><g class="guides"><path class="guide line" d="M0.000000 454.846154 h924.000000" /><text class="" x="-5" y="458.3461538461538">300</text></g><g class="guides"><path class="guide line" d="M0.000000 391.673077 h924.000000" /><text class="" x="-5" y="395.1730769230769">400</text></g><g class="guides"><path class="major guide line" d="M0.000000 328.500000 h924.000000" /><text class="major" x="-5" y="332.0">500</text></g><g class="guides"><path class="guide line" d="M0.000000 265.326923 h924.000000" /><text class="" x="-5" y="268.8269230769231">600</text></g><g class="guides"><path class="guide line" d="M0.000000 202.153846 h924.000000" /><text class="" x="-5" y="205.65384615384613">700</text></g><g class="guides"><path class="guide line" d="M0.000000 138.980769 h924.000000" /><text class="" x="-5" y="142.48076923076928">800</text></g><g class="guides"><path class="guide line" d="M0.000000 75.807692 h924.000000" /><text class="" x="-5" y="79.30769230769226">900</text></g><g class="guides"><path class="major guide line" d="M0.000000 12.634615 h924.000000" /><text class="major" x="-5" y="16.13461538461536">1000</text></g></g><g class="series serie-0 color-0"><path class="line reactive nofill" d="M17.769231 644.365385 L20.237179 644.365385 22.705128 644.365385 25.173077 644.365385 27.641026 644.365385 30.108974 644.365385 32.576923 644.365385 35.044872 644.365385 37.512821 644.365385 39.980769 644.365385 42.448718 644.365385 44.916667 644.365385 47.384615 644.365385 49.852564 644.365385 52.320513 644.365385 54.788462 644.365385 57.256410 644.365385 59.724359 644.365385 62.192308 644.365385 64.660256 644.365385 67.128205 644.365385 69.596154 644.365385 72.064103 644.365385 74.532051 644.365385 77.000000 644.365385 79.467949 644.365385 81.935897 644.365385 84.403846 644.365385 86.871795 644.365385 89.339744 644.365385 91.807692 644.365385 94.275641 644.365385 96.743590 644.365385 99.211538 644.365385 101.679487 644.365385 104.147436 644.365385 106.615385 644.365385 109.083333 644.365385 111.551282 644.365385 114.019231 644.365385 116.487179 644.365385 118.955128 644.365385 121.423077 644.365385 123.891026 644.365385 126.358974 644.365385 128.826923 644.365385 131.294872 644.365385 133.762821 644.365385 136.230769 644.365385 138.698718 644.365385 141.166667 644.365385 143.634615 644.365385 146.102564 644.365385 148.570513 644.365385 151.038462 644.365385 153.506410 644.365385 155.974359 644.365385 158.442308 644.365385 160.910256 644.365385 163.378205 644.365385 165.846154 644.365385 168.314103 644.365385 170.782051 644.365385 173.250000 644.365385 175.717949 644.365385 178.185897 644.365385 180.653846 644.365385 183.121795 644.365385 185.589744 644.365385 188.057692 644.365385 190.525641 644.365385 192.993590 644.365385 195.461538 644.365385 197.929487 644.365385 200.397436 644.365385 202.865385 644.365385 205.333333 644.365385 207.801282 644.365385 210.269231 644.365385 212.737179 644.365385 215.205128 644.365385 217.673077 644.365385 220.141026 644.365385 222.608974 644.365385 225.076923 644.365385 227.544872 644.365385 230.012821 644.365385 232.480769 644.365385 234.948718 644.365385 237.416667 644.365385 239.884615 644.365385 242.352564 644.365385 244.820513 644.365385 247.288462 644.365385 249.756410 644.365385 252.224359 644.365385 254.692308 644.365385 257.160256 644.365385 259.628205 644.365385 262.096154 644.365385 264.564103 644.365385 267.032051 644.365385 269.500000 644.365385 271.967949 644.365385 274.435897 644.365385 276.903846 644.365385 279.371795 644.365385 281.839744 644.365385 284.307692 644.365385 286.775641 644.365385 289.243590 644.365385 291.711538 644.365385 294.179487 644.365385 296.647436 644.365385 299.115385 644.365385 301.583333 644.365385 304.051282 644.365385 306.519231 644.365385 308.987179 644.365385 311.455128 644.365385 313.923077 644.365385 316.391026 644.365385 318.858974 644.365385 321.326923 644.365385 323.794872 644.365385 326.262821 644.365385 328.730769 644.365385 331.198718 644.365385 333.666667 644.365385 336.134615 644.365385 338.602564 644.365385 341.070513 644.365385 343.538462 644.365385 346.006410 644.365385 348.474359 644.365385 350.942308 644.365385 353.410256 644.365385 355.878205 644.365385 358.346154 644.365385 360.814103 644.365385 363.282051 644.365385 365.750000 644.365385 368.217949 644.365385 370.685897 644.365385 373.153846 644.365385 375.621795 644.365385 378.089744 644.365385 380.557692 644.365385 383.025641 644.365385 385.493590 644.365385 387.961538 644.365385 390.429487 644.365385 392.897436 644.365385 395.365385 644.365385 397.833333 644.365385 400.301282 644.365385 402.769231 644.365385 405.237179 644.365385 407.705128 644.365385 410.173077 644.365385 412.641026 644.365385 415.108974 644.365385 417.576923 644.365385 420.044872 644.365385 422.512821 644.365385 424.980769 644.365385 427.448718 644.365385 429.916667 644.365385 432.384615 644.365385 434.852564 644.365385 437.320513 644.365385 439.788462 644.365385 442.256410 644.365385 444.724359 644.365385 447.192308 644.365385 449.660256 644.365385 452.128205 644.365385 454.596154 644.365385 457.064103 644.365385 459.532051 644.365385 462.000000 644.365385 464.467949 644.365385 466.935897 644.365385 469.403846 644.365385 471.871795 644.365385 474.339744 644.365385 476.807692 644.365385 479.275641 644.365385 481.743590 644.365385 484.211538 644.365385 486.679487 644.365385 489.147436 644.365385 491.615385 644.365385 494.083333 644.365385 496.551282 644.365385 499.019231 644.365385 501.487179 644.365385 503.955128 644.365385 506.423077 644.365385 508.891026 644.365385 511.358974 644.365385 513.826923 644.365385 516.294872 644.365385 518.762821 644.365385 521.230769 644.365385 523.698718 644.365385 526.166667 644.365385 528.634615 644.365385 531.102564 644.365385 533.570513 644.365385 536.038462 644.365385 538.506410 644.365385 540.974359 644.365385 543.442308 644.365385 545.910256 644.365385 548.378205 644.365385 550.846154 644.365385 553.314103 644.365385 555.782051 644.365385 558.250000 644.365385 560.717949 644.365385 563.185897 644.365385 565.653846 644.365385 568.121795 644.365385 570.589744 644.365385 573.057692 644.365385 575.525641 644.365385 577.993590 644.365385 580.461538 644.365385 582.929487 644.365385 585.397436 644.365385 587.865385 644.365385 590.333333 644.365385 592.801282 644.365385 595.269231 644.365385 597.737179 644.365385 600.205128 644.365385 602.673077 644.365385 605.141026 644.365385 607.608974 644.365385 610.076923 644.365385 612.544872 644.365385 615.012821 644.365385 617.480769 644.365385 619.948718 644.365385 622.416667 644.365385 624.884615 644.365385 627.352564 644.365385 629.820513 644.365385 632.288462 644.365385 634.756410 644.365385 637.224359 644.365385 639.692308 644.365385 642.160256 644.365385 644.628205 644.365385 647.096154 644.365385 649.564103 644.365385 652.032051 644.365385 654.500000 644.365385 656.967949 644.365385 659.435897 644.365385 661.903846 644.365385 664.371795 644.365385 666.839744 644.365385 669.307692 -1286.203846 671.775641 -352.505769 674.243590 -33.481731 676.711538 205.944231 679.179487 370.194231 681.647436 405.571154 684.115385 478.851923 686.583333 422.627885 689.051282 374.616346 691.519231 358.191346 693.987179 368.930769 696.455128 359.454808 698.923077 346.820192 701.391026 299.440385 703.858974 357.559615 706.326923 363.245192 708.794872 381.565385 711.262821 370.194231 713.730769 423.259615 716.198718 430.840385 718.666667 394.200000 721.134615 473.798077 723.602564 478.851923 726.070513 483.274038 728.538462 506.016346 731.006410 508.543269 733.474359 552.764423 735.942308 568.557692 738.410256 575.506731 740.878205 586.877885 743.346154 599.512500 745.814103 595.090385 748.282051 583.719231 750.750000 581.192308 753.217949 572.979808 755.685897 551.500962 758.153846 544.551923 760.621795 535.075962 763.089744 518.019231 765.557692 532.549038 768.025641 554.659615 770.493590 519.914423 772.961538 533.180769 775.429487 535.075962 777.897436 536.971154 780.365385 526.231731 782.833333 559.713462 785.301282 550.869231 787.769231 544.551923 790.237179 533.180769 792.705128 559.081731 795.173077 564.767308 797.641026 563.503846 800.108974 553.396154 802.576923 547.078846 805.044872 559.713462 807.512821 421.364423 809.980769 384.092308 812.448718 351.242308 814.916667 248.901923 817.384615 124.450962 819.852564 65.700000 822.320513 164.881731 824.788462 312.075000 827.256410 339.871154 829.724359 322.182692 832.192308 329.763462 834.660256 384.092308 837.128205 451.687500 839.596154 493.381731 842.064103 523.073077 844.532051 540.129808 847.000000 549.605769 849.467949 555.291346 851.935897 578.665385 854.403846 591.931731 856.871795 605.829808 859.339744 603.302885 861.807692 605.198077 864.275641 605.829808 866.743590 598.880769 869.211538 567.925962 871.679487 541.393269 874.147436 540.761538 876.615385 514.860577 879.083333 486.432692 881.551282 530.653846 884.019231 496.540385 886.487179 523.073077 888.955128 522.441346 891.423077 487.696154 893.891026 509.806731 896.358974 560.976923 898.826923 526.863462 901.294872 571.716346 903.762821 560.345192 906.230769 641.206731" /></g><g class="series serie-1 color-1"><path class="line reactive nofill" d="M17.769231 -696.167308 L20.237179 151.615385 22.705128 269.117308 25.173077 444.738462 27.641026 507.911538 30.108974 503.489423 32.576923 539.498077 35.044872 516.755769 37.512821 458.004808 39.980769 372.721154 42.448718 420.100962 44.916667 336.712500 47.384615 315.233654 49.852564 334.817308 52.320513 397.358654 54.788462 447.897115 57.256410 471.271154 59.724359 475.061538 62.192308 484.537500 64.660256 509.806731 67.128205 516.124038 69.596154 521.177885 72.064103 569.189423 74.532051 567.294231 77.000000 582.455769 79.467949 591.931731 81.935897 601.407692 84.403846 609.620192 86.871795 610.883654 89.339744 615.305769 91.807692 627.308654 94.275641 624.150000 96.743590 624.150000 99.211538 602.671154 101.679487 601.407692 104.147436 615.305769 106.615385 555.291346 109.083333 559.713462 111.551282 576.770192 114.019231 593.195192 116.487179 579.297115 118.955128 565.399038 121.423077 577.401923 123.891026 580.560577 126.358974 591.931731 128.826923 605.198077 131.294872 600.144231 133.762821 602.671154 136.230769 605.829808 138.698718 607.093269 141.166667 623.518269 143.634615 622.254808 146.102564 630.467308 148.570513 631.730769 151.038462 629.835577 153.506410 629.203846 155.974359 622.886538 158.442308 624.781731 160.910256 611.515385 163.378205 612.778846 165.846154 602.039423 168.314103 598.880769 170.782051 592.563462 173.250000 602.671154 175.717949 593.826923 178.185897 600.775962 180.653846 605.198077 183.121795 600.144231 185.589744 602.671154 188.057692 605.198077 190.525641 619.096154 192.993590 615.305769 195.461538 617.832692 197.929487 620.991346 200.397436 624.150000 202.865385 622.254808 205.333333 633.625962 207.801282 632.994231 210.269231 632.994231 212.737179 635.521154 215.205128 626.045192 217.673077 626.676923 220.141026 624.781731 222.608974 619.727885 225.076923 621.623077 227.544872 614.674038 230.012821 615.937500 232.480769 612.147115 234.948718 617.200962 237.416667 616.569231 239.884615 606.461538 242.352564 615.305769 244.820513 607.093269 247.288462 623.518269 249.756410 629.203846 252.224359 620.359615 254.692308 627.308654 257.160256 626.676923 259.628205 628.572115 262.096154 631.099038 264.564103 632.994231 267.032051 640.575000 269.500000 639.943269 271.967949 637.416346 274.435897 636.784615 276.903846 637.416346 279.371795 638.048077 281.839744 634.257692 284.307692 632.994231 286.775641 631.099038 289.243590 631.730769 291.711538 633.625962 294.179487 632.994231 296.647436 629.835577 299.115385 635.521154 301.583333 632.994231 304.051282 628.572115 306.519231 632.362500 308.987179 634.889423 311.455128 627.940385 313.923077 633.625962 316.391026 628.572115 318.858974 636.784615 321.326923 637.416346 323.794872 636.784615 326.262821 638.048077 328.730769 637.416346 331.198718 637.416346 333.666667 637.416346 336.134615 638.048077 338.602564 637.416346 341.070513 632.994231 343.538462 632.362500 346.006410 634.889423 348.474359 626.676923 350.942308 632.994231 353.410256 631.099038 355.878205 630.467308 358.346154 636.152885 360.814103 628.572115 363.282051 628.572115 365.750000 626.676923 368.217949 636.152885 370.685897 629.203846 373.153846 633.625962 375.621795 627.308654 378.089744 635.521154 380.557692 631.099038 383.025641 634.889423 385.493590 634.889423 387.961538 631.730769 390.429487 631.099038 392.897436 631.099038 395.365385 629.203846 397.833333 622.886538 400.301282 614.674038 402.769231 614.042308 405.237179 598.880769 407.705128 611.515385 410.173077 600.144231 412.641026 609.620192 415.108974 602.671154 417.576923 597.617308 420.044872 606.461538 422.512821 609.620192 424.980769 611.515385 427.448718 616.569231 429.916667 627.940385 432.384615 -2643.161538 434.852564 -1043.619231 437.320513 -576.138462 439.788462 -111.184615 442.256410 49.275000 444.724359 114.975000 447.192308 113.079808 449.660256 58.119231 452.128205 -201.522115 454.596154 -430.840385 457.064103 -560.345192 459.532051 -722.700000 462.000000 -1085.313462 464.467949 -983.604808 466.935897 -686.691346 469.403846 -425.786538 471.871795 -326.604808 474.339744 -173.094231 476.807692 -178.779808 479.275641 -108.025962 481.743590 25.900962 484.211538 133.926923 486.679487 238.794231 489.147436 206.575962 491.615385 324.077885 494.083333 319.024038 496.551282 404.307692 499.019231 471.902885 501.487179 489.591346 503.955128 547.078846 506.423077 507.911538 508.891026 523.073077 511.358974 499.699038 513.826923 446.001923 516.294872 380.933654 518.762821 373.984615 521.230769 318.392308 523.698718 259.009615 526.166667 224.264423 528.634615 330.395192 531.102564 344.293269 533.570513 291.227885 536.038462 348.715385 538.506410 356.296154 540.974359 411.256731 543.442308 461.163462 545.910256 461.795192 548.378205 485.169231 550.846154 486.432692 553.314103 495.908654 555.782051 537.602885 558.250000 559.713462 560.717949 571.716346 563.185897 588.141346 565.653846 581.824038 568.121795 577.401923 570.589744 560.976923 573.057692 568.557692 575.525641 510.438462 577.993590 507.279808 580.461538 503.489423 582.929487 447.897115 585.397436 461.163462 587.865385 470.639423 590.333333 482.010577 592.801282 484.537500 595.269231 468.112500 597.737179 485.169231 600.205128 485.169231 602.673077 533.180769 605.141026 518.019231 607.608974 528.758654 610.076923 567.925962 612.544872 544.551923 615.012821 576.770192 617.480769 593.195192 619.948718 598.249038 622.416667 612.147115 624.884615 595.090385 627.352564 603.934615 629.820513 595.722115 632.288462 599.512500 634.756410 567.925962 637.224359 569.821154 639.692308 562.240385 642.160256 535.075962 644.628205 542.025000 647.096154 542.656731 649.564103 564.767308 652.032051 535.707692 654.500000 547.710577 656.967949 546.447115 659.435897 569.189423 661.903846 566.662500 664.371795 580.560577 666.839744 576.770192 669.307692 -109.289423 671.775641 221.737500 674.243590 343.029808 676.711538 453.582692 679.179487 522.441346 681.647436 524.968269 684.115385 562.240385 686.583333 554.659615 689.051282 540.129808 691.519231 555.291346 693.987179 540.129808 696.455128 539.498077 698.923077 512.965385 701.391026 496.540385 703.858974 502.857692 706.326923 515.492308 708.794872 520.546154 711.262821 519.914423 713.730769 521.177885 716.198718 524.968269 718.666667 512.333654 721.134615 546.447115 723.602564 548.342308 726.070513 538.866346 728.538462 557.186538 731.006410 564.135577 733.474359 588.773077 735.942308 594.458654 738.410256 603.302885 740.878205 610.251923 743.346154 616.569231 745.814103 612.778846 748.282051 602.039423 750.750000 603.302885 753.217949 599.512500 755.685897 587.509615 758.153846 582.455769 760.621795 570.452885 763.089744 562.872115 765.557692 574.875000 768.025641 585.614423 770.493590 560.345192 772.961538 572.348077 775.429487 578.033654 777.897436 569.821154 780.365385 569.189423 782.833333 572.979808 785.301282 577.401923 787.769231 585.614423 790.237179 579.297115 792.705128 578.033654 795.173077 595.090385 797.641026 585.614423 800.108974 588.773077 802.576923 583.719231 805.044872 589.404808 807.512821 564.767308 809.980769 521.809615 812.448718 474.429808 814.916667 453.582692 817.384615 393.568269 819.852564 351.874038 822.320513 379.038462 824.788462 442.843269 827.256410 425.154808 829.724359 447.265385 832.192308 406.834615 834.660256 467.480769 837.128205 504.121154 839.596154 526.231731 842.064103 540.129808 844.532051 557.186538 847.000000 554.027885 849.467949 549.605769 851.935897 578.033654 854.403846 596.353846 856.871795 602.039423 859.339744 608.988462 861.807692 604.566346 864.275641 613.410577 866.743590 610.251923 869.211538 593.826923 871.679487 567.925962 874.147436 581.192308 876.615385 555.291346 879.083333 509.806731 881.551282 557.186538 884.019231 541.393269 886.487179 535.707692 888.955128 548.342308 891.423077 503.489423 893.891026 540.761538 896.358974 562.240385 898.826923 547.078846 901.294872 577.401923 903.762821 584.982692 906.230769 640.575000" /></g></g><g class="titles"><text class="title plot_title" x="512.0" y="26">Election stackoverflow.com-8 Participation Per Hour</text><text class="title" transform="rotate(-90 0.000000 374.500000)" x="0" y="400.5">Users</text></g><g class="plot overlay" transform="translate(80, 46)"><g class="series serie-0 color-0" /><g class="series serie-1 color-1" /></g><g class="plot text-overlay" transform="translate(80, 46)"><g class="series serie-0 color-0" /><g class="series serie-1 color-1" /></g><g class="plot tooltip-overlay" transform="translate(80, 46)"><g class="tooltip" style="opacity: 0" transform="translate(0 0)"><a><rect class="tooltip-box" height="0" rx="0" ry="0" width="0" /><text class="text"><tspan class="label" /><tspan class="value" /></text></a></g></g><g class="legends" transform="translate(90, 713)"><g class="legend reactive activate-serie" id="activate-serie-0"><rect class="color-0 reactive" height="12" width="12" x="0.0" y="1.0" /><text x="17.0" y="11.2">constituents</text></g><g class="legend reactive activate-serie" id="activate-serie-1"><rect class="color-1 reactive" height="12" width="12" x="462.0" y="1.0" /><text x="479.0" y="11.2">caucus</text></g></g></g></svg>