<?xml version='1.0' encoding='utf-8'?>
<svg xmlns:xlink="http://www.w3.org/1999/xlink" class="pygal-chart" id="chart-24583b69-3670-4efc-8921-13f21fb3aa61" viewBox="0 0 1024 768" xmlns="http://www.w3.org/2000/svg"><!--Generated with pygal 1.7.0 (etree) ©Kozea 2011-2014 on 2018-03-27--><!--http://pygal.org--><!--http://github.com/Kozea/pygal--><defs><style type="text/css">#chart-24583b69-3670-4efc-8921-13f21fb3aa61 .title{font-family:"monospace";font-size:16px}#chart-24583b69-3670-4efc-8921-13f21fb3aa61 .legends .legend text{font-family:"monospace";font-size:14px}#chart-24583b69-3670-4efc-8921-13f21fb3aa61 .axis text{font-family:"monospace";font-size:10px}#chart-24583b69-3670-4efc-8921-13f21fb3aa61 .axis text.major{font-family:"monospace";font-size:10px}#chart-24583b69-3670-4efc-8921-13f21fb3aa61 .series text{font-family:"monospace";font-size:8px}#chart-24583b69-3670-4efc-8921-13f21fb3aa61 .tooltip text{font-family:"monospace";font-size:16px}#chart-24583b69-3670-4efc-8921-13f21fb3aa61 text.no_data{font-size:64px}
#chart-24583b69-3670-4efc-8921-13f21fb3aa61{background-color:black}#chart-24583b69-3670-4efc-8921-13f21fb3aa61 path,#chart-24583b69-3670-4efc-8921-13f21fb3aa61 line,#chart-24583b69-3670-4efc-8921-13f21fb3aa61 rect,#chart-24583b69-3670-4efc-8921-13f21fb3aa61 circle{-webkit-transition:250ms;-moz-transition:250ms;transition:250ms}#chart-24583b69-3670-4efc-8921-13f21fb3aa61 .graph &gt; .background{fill:black}#chart-24583b69-3670-4efc-8921-13f21fb3aa61 .plot &gt; .background{fill:#111}#chart-24583b69-3670-4efc-8921-13f21fb3aa61 .graph{fill:#999}#chart-24583b69-3670-4efc-8921-13f21fb3aa61 text.no_data{fill:#eee}#chart-24583b69-3670-4efc-8921-13f21fb3aa61 .title{fill:#eee}#chart-24583b69-3670-4efc-8921-13f21fb3aa61 .legends .legend text{fill:#999}#chart-24583b69-3670-4efc-8921-13f21fb3aa61 .legends .legend:hover text{fill:#eee}#chart-24583b69-3670-4efc-8921-13f21fb3aa61 .axis .line{stroke:#eee}#chart-24583b69-3670-4efc-8921-13f21fb3aa61 .axis .guide.line{stroke:#555}#chart-24583b69-3670-4efc-8921-13f21fb3aa61 .axis .major.line{stroke:#999}#chart-24583b69-3670-4efc-8921-13f21fb3aa61 .axis text.major{stroke:#eee;fill:#eee}#chart-24583b69-3670-4efc-8921-13f21fb3aa61 .axis.y .guides:hover .guide.line,#chart-24583b69-3670-4efc-8921-13f21fb3aa61 .line-graph .axis.x .guides:hover .guide.line,#chart-24583b69-3670-4efc-8921-13f21fb3aa61 .stackedline-graph .axis.x .guides:hover .guide.line,#chart-24583b69-3670-4efc-8921-13f21fb3aa61 .xy-graph .axis.x .guides:hover .guide.line{stroke:#eee}#chart-24583b69-3670-4efc-8921-13f21fb3aa61 .axis .guides:hover text{fill:#eee}#chart-24583b69-3670-4efc-8921-13f21fb3aa61 .reactive{fill-opacity:.8}#chart-24583b69-3670-4efc-8921-13f21fb3aa61 .reactive.active,#chart-24583b69-3670-4efc-8921-13f21fb3aa61 .active .reactive{fill-opacity:.4}#chart-24583b69-3670-4efc-8921-13f21fb3aa61 .series{stroke-width:1.0;stroke-linejoin:round;stroke-linecap:round;stroke-dasharray:0,0}#chart-24583b69-3670-4efc-8921-13f21fb3aa61 .series text{fill:#eee}#chart-24583b69-3670-4efc-8921-13f21fb3aa61 .tooltip rect{fill:#111;stroke:#eee}#chart-24583b69-3670-4efc-8921-13f21fb3aa61 .tooltip text{fill:#eee}#chart-24583b69-3670-4efc-8921-13f21fb3aa61 .map-element{fill:#999;stroke:#555 !important;opacity:.9;stroke-width:3;-webkit-transition:250ms;-moz-transition:250ms;-o-transition:250ms;transition:250ms}#chart-24583b69-3670-4efc-8921-13f21fb3aa61 .map-element:hover{opacity:1;stroke-width:10}#chart-24583b69-3670-4efc-8921-13f21fb3aa61 .color-0,#chart-24583b69-3670-4efc-8921-13f21fb3aa61 .color-0 a:visited{stroke:#ff5995;fill:#ff5995}#chart-24583b69-3670-4efc-8921-13f21fb3aa61 .color-1,#chart-24583b69-3670-4efc-8921-13f21fb3aa61 .color-1 a:visited{stroke:#b6e354;fill:#b6e354}#chart-24583b69-3670-4efc-8921-13f21fb3aa61 .color-2,#chart-24583b69-3670-4efc-8921-13f21fb3aa61 .color-2 a:visited{stroke:#feed6c;fill:#feed6c}#chart-24583b69-3670-4efc-8921-13f21fb3aa61 .color-3,#chart-24583b69-3670-4efc-8921-13f21fb3aa61 .color-3 a:visited{stroke:#8cedff;fill:#8cedff}#chart-24583b69-3670-4efc-8921-13f21fb3aa61 .color-4,#chart-24583b69-3670-4efc-8921-13f21fb3aa61 .color-4 a:visited{stroke:#9e6ffe;fill:#9e6ffe}#chart-24583b69-3670-4efc-8921-13f21fb3aa61 .color-5,#chart-24583b69-3670-4efc-8921-13f21fb3aa61 .color-5 a:visited{stroke:#899ca1;fill:#899ca1}#chart-24583b69-3670-4efc-8921-13f21fb3aa61 .color-6,#chart-24583b69-3670-4efc-8921-13f21fb3aa61 .color-6 a:visited{stroke:#f8f8f2;fill:#f8f8f2}#chart-24583b69-3670-4efc-8921-13f21fb3aa61 .color-7,#chart-24583b69-3670-4efc-8921-13f21fb3aa61 .color-7 a:visited{stroke:#bf4646;fill:#bf4646}#chart-24583b69-3670-4efc-8921-13f21fb3aa61 .color-8,#chart-24583b69-3670-4efc-8921-13f21fb3aa61 .color-8 a:visited{stroke:#516083;fill:#516083}#chart-24583b69-3670-4efc-8921-13f21fb3aa61 .color-9,#chart-24583b69-3670-4efc-8921-13f21fb3aa61 .color-9 a:visited{stroke:#f92672;fill:#f92672}#chart-24583b69-3670-4efc-8921-13f21fb3aa61 .color-10,#chart-24583b69-3670-4efc-8921-13f21fb3aa61 .color-10 a:visited{stroke:#82b414;fill:#82b414}#chart-24583b69-3670-4efc-8921-13f21fb3aa61 .color-11,#chart-24583b69-3670-4efc-8921-13f21fb3aa61 .color-11 a:visited{stroke:#fd971f;fill:#fd971f}#chart-24583b69-3670-4efc-8921-13f21fb3aa61 .color-12,#chart-24583b69-3670-4efc-8921-13f21fb3aa61 .color-12 a:visited{stroke:#56c2d6;fill:#56c2d6}#chart-24583b69-3670-4efc-8921-13f21fb3aa61 .color-13,#chart-24583b69-3670-4efc-8921-13f21fb3aa61 .color-13 a:visited{stroke:#808384;fill:#808384}#chart-24583b69-3670-4efc-8921-13f21fb3aa61 .color-14,#chart-24583b69-3670-4efc-8921-13f21fb3aa61 .color-14 a:visited{stroke:#8c54fe;fill:#8c54fe}#chart-24583b69-3670-4efc-8921-13f21fb3aa61 .color-15,#chart-24583b69-3670-4efc-8921-13f21fb3aa61 .color-15 a:visited{stroke:#465457;fill:#465457}
#chart-24583b69-3670-4efc-8921-13f21fb3aa61 text.no_data{text-anchor:middle}#chart-24583b69-3670-4efc-8921-13f21fb3aa61 .guide.line{fill-opacity:0}#chart-24583b69-3670-4efc-8921-13f21fb3aa61 .centered{text-anchor:middle}#chart-24583b69-3670-4efc-8921-13f21fb3aa61 .title{text-anchor:middle}#chart-24583b69-3670-4efc-8921-13f21fb3aa61 .legends .legend text{fill-opacity:1}#chart-24583b69-3670-4efc-8921-13f21fb3aa61 .axis.x text{text-anchor:middle}#chart-24583b69-3670-4efc-8921-13f21fb3aa61 .axis.x:not(.web) text[transform]{text-anchor:start}#chart-24583b69-3670-4efc-8921-13f21fb3aa61 .axis.y text{text-anchor:end}#chart-24583b69-3670-4efc-8921-13f21fb3aa61 .axis.y2 text{text-anchor:start}#chart-24583b69-3670-4efc-8921-13f21fb3aa61 .axis.y .logarithmic text:not(.major),#chart-24583b69-3670-4efc-8921-13f21fb3aa61 .axis.y2 .logarithmic text:not(.major){font-size:50%}#chart-24583b69-3670-4efc-8921-13f21fb3aa61 .axis .guide.line{stroke-dasharray:4,4}#chart-24583b69-3670-4efc-8921-13f21fb3aa61 .axis .major.guide.line{stroke-dasharray:6,6}#chart-24583b69-3670-4efc-8921-13f21fb3aa61 .axis text.major{stroke-width:0.5px}#chart-24583b69-3670-4efc-8921-13f21fb3aa61 .horizontal .axis.y .guide.line,#chart-24583b69-3670-4efc-8921-13f21fb3aa61 .horizontal .axis.y2 .guide.line,#chart-24583b69-3670-4efc-8921-13f21fb3aa61 .vertical .axis.x .guide.line{opacity:0}#chart-24583b69-3670-4efc-8921-13f21fb3aa61 .horizontal .axis.always_show .guide.line,#chart-24583b69-3670-4efc-8921-13f21fb3aa61 .vertical .axis.always_show .guide.line{opacity:1 !important}#chart-24583b69-3670-4efc-8921-13f21fb3aa61 .axis.y .guides:hover .guide.line,#chart-24583b69-3670-4efc-8921-13f21fb3aa61 .axis.y2 .guides:hover .guide.line,#chart-24583b69-3670-4efc-8921-13f21fb3aa61 .axis.x .guides:hover .guide.line{opacity:1}#chart-24583b69-3670-4efc-8921-13f21fb3aa61 .axis .guides:hover text{opacity:1}#chart-24583b69-3670-4efc-8921-13f21fb3aa61 .nofill{fill:none}#chart-24583b69-3670-4efc-8921-13f21fb3aa61 .subtle-fill{fill-opacity:.2}#chart-24583b69-3670-4efc-8921-13f21fb3aa61 .dot{stroke-width:1px;fill-opacity:1}#chart-24583b69-3670-4efc-8921-13f21fb3aa61 .dot.active{stroke-width:5px}#chart-24583b69-3670-4efc-8921-13f21fb3aa61 .series text{stroke:none}#chart-24583b69-3670-4efc-8921-13f21fb3aa61 .series text.active{opacity:1}#chart-24583b69-3670-4efc-8921-13f21fb3aa61 .tooltip rect{fill-opacity:0.8}#chart-24583b69-3670-4efc-8921-13f21fb3aa61 .tooltip text{fill-opacity:1}#chart-24583b69-3670-4efc-8921-13f21fb3aa61 .tooltip text tspan.label{fill-opacity:.8}</style><script type="text/javascript">window.config = {"css": ["style.css", "graph.css"], "disable_xml_declaration": false, "dots_size": 2.5, "explicit_size": false, "fill": false, "half_pie": false, "height": 768, "human_readable": false, "include_x_axis": false, "inner_radius": 0, "interpolate": null, "interpolation_parameters": {}, "interpolation_precision": 250, "js": ["http://kozea.github.io/pygal.js/javascripts/svg.jquery.js", "http://kozea.github.io/pygal.js/javascripts/pygal-tooltips.js"], "label_font_size": 10, "legend_at_bottom": true, "legend_at_bottom_columns": null, "legend_box_size": 12, "legend_font_size": 14, "logarithmic": false, "major_label_font_size": 10, "margin": 20, "margin_bottom": null, "margin_left": null, "margin_right": null, "margin_top": null, "missing_value_fill_truncation": "x", "mode": null, "no_data_font_size": 64, "no_data_text": "No data", "no_prefix": false, "order_min": null, "pretty_print": false, "print_values": false, "print_zeroes": false, "range": null, "rounded_bars": null, "show_dots": false, "show_legend": true, "show_minor_x_labels": true, "show_minor_y_labels": true, "show_only_major_dots": false, "show_x_guides": false, "show_x_labels": true, "show_y_guides": true, "show_y_labels": true, "spacing": 10, "stack_from_top": false, "strict": false, "stroke": true, "style": {"background": "black", "colors": ["#ff5995", "#b6e354", "#feed6c", "#8cedff", "#9e6ffe", "#899ca1", "#f8f8f2", "#bf4646", "#516083", "#f92672", "#82b414", "#fd971f", "#56c2d6", "#808384", "#8c54fe", "#465457"], "font_family": "monospace", "foreground": "#999", "foreground_dark": "#555", "foreground_light": "#eee", "opacity": ".8", "opacity_hover": ".4", "plot_background": "#111", "stroke_dasharray": "0,0", "stroke_style": "round", "stroke_width": 1.0, "transition": "250ms"}, "title": "Election 8 Participation", "title_font_size": 16, "tooltip_border_radius": 0, "tooltip_font_size": 16, "truncate_label": null, "truncate_legend": null, "value_font_size": 8, "width": 1024, "x_label_format": "%Y-%m-%d %H:%M:%S.%f", "x_label_rotation": 0, "x_labels": null, "x_labels_major": null, "x_labels_major_count": null, "x_labels_major_every": null, "x_title": null, "x_value_formatter": null, "xrange": null, "y_label_rotation": 0, "y_labels": null, "y_labels_major": null, "y_labels_major_count": null, "y_labels_major_every": null, "y_title": "Users", "zero": 0}</script><script type="text/javascript" xlink:href="http://kozea.github.io/pygal.js/javascripts/svg.jquery.js" /><script type="text/javascript" xlink:href="http://kozea.github.io/pygal.js/javascripts/pygal-tooltips.js" /></defs><title>Election 8 Participation</title><g class="graph line-graph vertical"><rect class="background" height="768" width="1024" x="0" y="0" /><g class="plot" transform="translate(86, 46)"><rect class="background" height="657.0" width="918.0" x="0" y="0" /><g class="axis y"><g class="guides"><path class="axis major line" d="M0.000000 644.365385 h918.000000" /><text class="major" x="-5" y="647.8653846153846">0</text></g><g class="guides"><path class="guide line" d="M0.000000 572.730022 h918.000000" /><text class="" x="-5" y="576.2300223476162">10000</text></g><g class="guides"><path class="guide line" d="M0.000000 501.094660 h918.000000" /><text class="" x="-5" y="504.5946600798478">20000</text></g><g class="guides"><path class="guide line" d="M0.000000 429.459298 h918.000000" /><text class="" x="-5" y="432.9592978120794">30000</text></g><g class="guides"><path class="guide line" d="M0.000000 357.823936 h918.000000" /><text class="" x="-5" y="361.32393554431104">40000</text></g><g class="guides"><path class="major guide line" d="M0.000000 286.188573 h918.000000" /><text class="major" x="-5" y="289.6885732765426">50000</text></g><g class="guides"><path class="guide line" d="M0.000000 214.553211 h918.000000" /><text class="" x="-5" y="218.0532110087742">60000</text></g><g class="guides"><path class="guide line" d="M0.000000 142.917849 h918.000000" /><text class="" x="-5" y="146.41784874100574">70000</text></g><g class="guides"><path class="guide line" d="M0.000000 71.282486 h918.000000" /><text class="" x="-5" y="74.78248647323733">80000</text></g></g><g class="series serie-0 color-0"><path class="line reactive nofill" d="M17.653846 644.365385 L20.105769 644.365385 22.557692 644.365385 25.009615 644.365385 27.461538 644.365385 29.913462 644.365385 32.365385 644.365385 34.817308 644.365385 37.269231 644.365385 39.721154 644.365385 42.173077 644.365385 44.625000 644.365385 47.076923 644.365385 49.528846 644.365385 51.980769 644.365385 54.432692 644.365385 56.884615 644.365385 59.336538 644.365385 61.788462 644.365385 64.240385 644.365385 66.692308 644.365385 69.144231 644.365385 71.596154 644.365385 74.048077 644.365385 76.500000 644.365385 78.951923 644.365385 81.403846 644.365385 83.855769 644.365385 86.307692 644.365385 88.759615 644.365385 91.211538 644.365385 93.663462 644.365385 96.115385 644.365385 98.567308 644.365385 101.019231 644.365385 103.471154 644.365385 105.923077 644.365385 108.375000 644.365385 110.826923 644.365385 113.278846 644.365385 115.730769 644.365385 118.182692 644.365385 120.634615 644.365385 123.086538 644.365385 125.538462 644.365385 127.990385 644.365385 130.442308 644.365385 132.894231 644.365385 135.346154 644.365385 137.798077 644.365385 140.250000 644.365385 142.701923 644.365385 145.153846 644.365385 147.605769 644.365385 150.057692 644.365385 152.509615 644.365385 154.961538 644.365385 157.413462 644.365385 159.865385 644.365385 162.317308 644.365385 164.769231 644.365385 167.221154 644.365385 169.673077 644.365385 172.125000 644.365385 174.576923 644.365385 177.028846 644.365385 179.480769 644.365385 181.932692 644.365385 184.384615 644.365385 186.836538 644.365385 189.288462 644.365385 191.740385 644.365385 194.192308 644.365385 196.644231 644.365385 199.096154 644.365385 201.548077 644.365385 204.000000 644.365385 206.451923 644.365385 208.903846 644.365385 211.355769 644.365385 213.807692 644.365385 216.259615 644.365385 218.711538 644.365385 221.163462 644.365385 223.615385 644.365385 226.067308 644.365385 228.519231 644.365385 230.971154 644.365385 233.423077 644.365385 235.875000 644.365385 238.326923 644.365385 240.778846 644.365385 243.230769 644.365385 245.682692 644.365385 248.134615 644.365385 250.586538 644.365385 253.038462 644.365385 255.490385 644.365385 257.942308 644.365385 260.394231 644.365385 262.846154 644.365385 265.298077 644.365385 267.750000 644.365385 270.201923 644.365385 272.653846 644.365385 275.105769 644.365385 277.557692 644.365385 280.009615 644.365385 282.461538 644.365385 284.913462 644.365385 287.365385 644.365385 289.817308 644.365385 292.269231 644.365385 294.721154 644.365385 297.173077 644.365385 299.625000 644.365385 302.076923 644.365385 304.528846 644.365385 306.980769 644.365385 309.432692 644.365385 311.884615 644.365385 314.336538 644.365385 316.788462 644.365385 319.240385 644.365385 321.692308 644.365385 324.144231 644.365385 326.596154 644.365385 329.048077 644.365385 331.500000 644.365385 333.951923 644.365385 336.403846 644.365385 338.855769 644.365385 341.307692 644.365385 343.759615 644.365385 346.211538 644.365385 348.663462 644.365385 351.115385 644.365385 353.567308 644.365385 356.019231 644.365385 358.471154 644.365385 360.923077 644.365385 363.375000 644.365385 365.826923 644.365385 368.278846 644.365385 370.730769 644.365385 373.182692 644.365385 375.634615 644.365385 378.086538 644.365385 380.538462 644.365385 382.990385 644.365385 385.442308 644.365385 387.894231 644.365385 390.346154 644.365385 392.798077 644.365385 395.250000 644.365385 397.701923 644.365385 400.153846 644.365385 402.605769 644.365385 405.057692 644.365385 407.509615 644.365385 409.961538 644.365385 412.413462 644.365385 414.865385 644.365385 417.317308 644.365385 419.769231 644.365385 422.221154 644.365385 424.673077 644.365385 427.125000 644.365385 429.576923 644.365385 432.028846 644.365385 434.480769 644.365385 436.932692 644.365385 439.384615 644.365385 441.836538 644.365385 444.288462 644.365385 446.740385 644.365385 449.192308 644.365385 451.644231 644.365385 454.096154 644.365385 456.548077 644.365385 459.000000 644.365385 461.451923 644.365385 463.903846 644.365385 466.355769 644.365385 468.807692 644.365385 471.259615 644.365385 473.711538 644.365385 476.163462 644.365385 478.615385 644.365385 481.067308 644.365385 483.519231 644.365385 485.971154 644.365385 488.423077 644.365385 490.875000 644.365385 493.326923 644.365385 495.778846 644.365385 498.230769 644.365385 500.682692 644.365385 503.134615 644.365385 505.586538 644.365385 508.038462 644.365385 510.490385 644.365385 512.942308 644.365385 515.394231 644.365385 517.846154 644.365385 520.298077 644.365385 522.750000 644.365385 525.201923 644.365385 527.653846 644.365385 530.105769 644.365385 532.557692 644.365385 535.009615 644.365385 537.461538 644.365385 539.913462 644.365385 542.365385 644.365385 544.817308 644.365385 547.269231 644.365385 549.721154 644.365385 552.173077 644.365385 554.625000 644.365385 557.076923 644.365385 559.528846 644.365385 561.980769 644.365385 564.432692 644.365385 566.884615 644.365385 569.336538 644.365385 571.788462 644.365385 574.240385 644.365385 576.692308 644.365385 579.144231 644.365385 581.596154 644.365385 584.048077 644.365385 586.500000 644.365385 588.951923 644.365385 591.403846 644.365385 593.855769 644.365385 596.307692 644.365385 598.759615 644.365385 601.211538 644.365385 603.663462 644.365385 606.115385 644.365385 608.567308 644.365385 611.019231 644.365385 613.471154 644.365385 615.923077 644.365385 618.375000 644.365385 620.826923 644.365385 623.278846 644.365385 625.730769 644.365385 628.182692 644.365385 630.634615 644.365385 633.086538 644.365385 635.538462 644.365385 637.990385 644.365385 640.442308 644.365385 642.894231 644.365385 645.346154 644.365385 647.798077 644.365385 650.250000 644.365385 652.701923 644.365385 655.153846 644.365385 657.605769 644.365385 660.057692 644.365385 662.509615 644.365385 664.961538 622.473618 667.413462 611.169558 669.865385 603.483083 672.317308 598.511589 674.769231 595.402615 677.221154 592.694798 679.673077 590.817951 682.125000 588.303550 684.576923 585.244720 687.028846 581.999638 689.480769 578.876336 691.932692 575.645582 694.384615 572.271556 696.836538 568.360265 699.288462 565.108020 701.740385 561.920246 704.192308 558.940215 706.644231 555.831240 709.096154 553.324003 711.548077 550.902727 714.000000 548.065967 716.451923 546.131812 718.903846 544.254966 721.355769 542.428264 723.807692 540.859450 726.259615 539.319289 728.711538 538.280577 731.163462 537.420952 733.615385 536.640127 736.067308 535.988245 738.519231 535.479634 740.971154 534.920878 743.423077 534.233179 745.875000 533.516825 748.326923 532.707345 750.778846 531.654306 753.230769 530.522467 755.682692 529.283175 758.134615 527.850468 760.586538 526.582522 763.038462 525.565300 765.490385 524.154083 767.942308 522.893301 770.394231 521.654009 772.846154 520.436208 775.298077 519.096627 777.750000 518.136713 780.201923 517.076509 782.653846 515.944671 785.105769 514.683888 787.557692 513.716811 790.009615 512.814205 792.461538 511.897273 794.913462 510.865723 797.365385 509.762539 799.817308 508.802625 802.269231 506.273897 804.721154 503.322520 807.173077 499.998639 809.625000 495.514265 812.076923 489.618675 814.528846 483.056876 816.980769 477.619752 819.432692 473.851732 821.884615 470.398907 824.336538 466.745504 826.788462 463.178063 829.240385 460.226686 831.692308 458.041807 834.144231 456.329722 836.596154 454.954323 839.048077 453.772340 841.500000 452.697809 843.951923 451.687751 846.403846 450.942743 848.855769 450.348169 851.307692 449.911194 853.759615 449.445564 856.211538 449.001425 858.663462 448.564449 861.115385 448.048674 863.567308 447.181886 866.019231 446.014230 868.471154 444.839410 870.923077 443.370885 873.375000 441.580001 875.826923 440.290565 878.278846 438.614297 880.730769 437.238898 883.182692 435.856336 885.634615 434.079779 888.086538 432.553945 890.538462 431.608359 892.990385 430.275941 895.442308 429.452134 897.894231 428.499384 900.346154 428.463566" /></g><g class="series serie-1 color-1"><path class="line reactive nofill" d="M17.653846 629.164361 L20.105769 623.576802 22.557692 619.321662 25.009615 617.057985 27.461538 615.510661 29.913462 613.913192 32.365385 612.724045 34.817308 611.277011 37.269231 609.163768 39.721154 606.083447 42.173077 603.540392 44.625000 600.051750 47.076923 596.319547 49.528846 592.809414 51.980769 590.008472 54.432692 587.780612 56.884615 585.817803 59.336538 583.897975 61.788462 582.085601 64.240385 580.559767 66.692308 579.105570 69.144231 577.708680 71.596154 576.856219 74.048077 575.982268 76.500000 575.280241 78.951923 574.685668 81.403846 574.198547 83.855769 573.804553 86.307692 573.424885 88.759615 573.095363 91.211538 572.901947 93.663462 572.672714 96.115385 572.443481 98.567308 571.970688 101.019231 571.483567 103.471154 571.154044 105.923077 570.143986 108.375000 569.184072 110.826923 568.417574 113.278846 567.837327 115.730769 567.099483 118.182692 566.204041 120.634615 565.444706 123.086538 564.721189 125.538462 564.126615 127.990385 563.682476 130.442308 563.181029 132.894231 562.708235 135.346154 562.271259 137.798077 561.848611 140.250000 561.612214 142.701923 561.361490 145.153846 561.203893 147.605769 561.060622 150.057692 560.895861 152.509615 560.723936 154.961538 560.480375 157.413462 560.258306 159.865385 559.885802 162.317308 559.527625 164.769231 559.047668 167.221154 558.531894 169.673077 557.944484 172.125000 557.471690 174.576923 556.898607 177.028846 556.404323 179.480769 555.960184 181.932692 555.458737 184.384615 554.985943 186.836538 554.541804 189.288462 554.255262 191.740385 553.925740 194.192308 553.624871 196.644231 553.359820 199.096154 553.130587 201.548077 552.879863 204.000000 552.758083 206.451923 552.629140 208.903846 552.500196 211.355769 552.399907 213.807692 552.192164 216.259615 551.991585 218.711538 551.769515 221.163462 551.490137 223.615385 551.232250 226.067308 550.895564 228.519231 550.573205 230.971154 550.207864 233.423077 549.899832 235.875000 549.584637 238.326923 549.154825 240.778846 548.825302 243.230769 548.402653 245.682692 548.166257 248.134615 547.994332 250.586538 547.722117 253.038462 547.528702 255.490385 547.328123 257.942308 547.149034 260.394231 546.998600 262.846154 546.869657 265.298077 546.826675 267.750000 546.776531 270.201923 546.697732 272.653846 546.611769 275.105769 546.532970 277.557692 546.461335 280.009615 546.346718 282.461538 546.217775 284.913462 546.067341 287.365385 545.924070 289.817308 545.802290 292.269231 545.673346 294.721154 545.508585 297.173077 545.408295 299.625000 545.279352 302.076923 545.100263 304.528846 544.964156 306.980769 544.856703 309.432692 544.670451 311.884615 544.548671 314.336538 544.369582 316.788462 544.283620 319.240385 544.204821 321.692308 544.118859 324.144231 544.047223 326.596154 543.968424 329.048077 543.889625 331.500000 543.810827 333.951923 543.739191 336.403846 543.660392 338.855769 543.531449 341.307692 543.395341 343.759615 543.287888 346.211538 543.087309 348.663462 542.958366 351.115385 542.807932 353.567308 542.650334 356.019231 542.557208 358.471154 542.378119 360.923077 542.199031 363.375000 541.998452 365.826923 541.905326 368.278846 541.733401 370.730769 541.611621 373.182692 541.418206 375.634615 541.317916 378.086538 541.167482 380.538462 541.060029 382.990385 540.952576 385.442308 540.809305 387.894231 540.658871 390.346154 540.508436 392.798077 540.336512 395.250000 540.092951 397.701923 539.756265 400.153846 539.412415 402.605769 538.896641 405.057692 538.524137 407.509615 538.022689 409.961538 537.628695 412.413462 537.155901 414.865385 536.625800 417.317308 536.195988 419.769231 535.801993 422.221154 535.429489 424.673077 535.114294 427.125000 534.928042 429.576923 497.648999 432.028846 478.508030 434.480769 464.668078 436.932692 456.100489 439.384615 449.352438 441.836538 443.349395 444.288462 437.324861 446.740385 430.677099 449.192308 421.085124 451.644231 408.892785 454.096154 395.231922 456.548077 379.730029 459.000000 360.116267 461.451923 341.655834 463.903846 326.562263 466.355769 314.427233 468.807692 303.416878 471.259615 294.147262 473.711538 284.813174 476.163462 276.281403 478.615385 269.268301 481.067308 263.480163 483.519231 258.881173 485.971154 253.916843 488.423077 250.284930 490.875000 246.595709 493.326923 243.873565 495.778846 241.917919 498.230769 240.162853 500.682692 239.059668 503.134615 237.512345 505.586538 236.136946 508.038462 234.496496 510.490385 232.247145 512.942308 229.259951 515.394231 226.193957 517.846154 222.497573 520.298077 218.127816 522.750000 213.364064 525.201923 209.803786 527.653846 206.401107 530.105769 202.396690 532.557692 199.044155 535.009615 195.777583 537.461538 193.134238 539.913462 191.056812 542.365385 188.986550 544.817308 187.181339 547.269231 185.390455 549.721154 183.707024 552.173077 182.496386 554.625000 181.536473 557.076923 180.712666 559.528846 180.075111 561.980769 179.365921 564.432692 178.606586 566.884615 177.660999 569.336538 176.801375 571.788462 175.282705 574.240385 173.728218 576.692308 172.130749 579.144231 169.902890 581.596154 167.825464 584.048077 165.855492 586.500000 164.014463 588.951923 162.202088 591.403846 160.203462 593.855769 158.398251 596.307692 156.593039 598.759615 155.332257 601.211538 153.899550 603.663462 152.588623 606.115385 151.721835 608.567308 150.589996 611.019231 149.823498 613.471154 149.243251 615.923077 148.720313 618.375000 148.354973 620.826923 147.796217 623.278846 147.337751 625.730769 146.786158 628.182692 146.277547 630.634615 145.410759 633.086538 144.565462 635.538462 143.634202 637.990385 142.394911 640.442308 141.234418 642.894231 140.081088 645.346154 139.178483 647.798077 137.946355 650.250000 136.850334 652.701923 135.739985 655.153846 134.887525 657.605769 134.006410 660.057692 133.282893 662.509615 132.516394 664.961538 123.970295 667.413462 119.177890 669.865385 115.760883 672.317308 113.597495 674.769231 112.214932 677.221154 110.861024 679.673077 109.929764 682.125000 108.912542 684.576923 107.730559 687.028846 106.720500 689.480769 105.538517 691.932692 104.349370 694.384615 102.859354 696.836538 101.183087 699.288462 99.578455 701.740385 98.117093 704.192308 96.713040 706.644231 95.301823 709.096154 93.904934 711.548077 92.551026 714.000000 91.053846 716.451923 89.943498 718.903846 88.854641 721.355769 87.658330 723.807692 86.669762 726.259615 85.759993 728.711538 85.129602 731.163462 84.563683 733.615385 84.098053 736.067308 83.711222 738.519231 83.396026 740.971154 83.037849 743.423077 82.557892 745.875000 82.092263 748.326923 81.583652 750.778846 80.938933 753.230769 80.236907 755.682692 79.398773 758.134615 78.474677 760.586538 77.686688 763.038462 77.020479 765.490385 76.067729 767.942308 75.251086 770.394231 74.498914 772.846154 73.653617 775.298077 72.801156 777.750000 71.991677 780.201923 71.232342 782.653846 70.566133 785.105769 69.828289 787.557692 69.076117 790.009615 68.517361 792.461538 67.851153 794.913462 67.220761 797.365385 66.533062 799.817308 65.909834 802.269231 65.007229 804.721154 63.617503 807.173077 61.690511 809.625000 59.527124 812.076923 56.683200 814.528846 53.366482 816.980769 50.357797 819.432692 48.072629 821.884615 45.586882 824.336538 43.351859 826.788462 40.658369 829.240385 38.652579 831.692308 37.062274 834.144231 35.722693 836.596154 34.540709 839.048077 33.552141 841.500000 32.527755 843.951923 31.453225 846.403846 30.701054 848.855769 30.156625 851.307692 29.676668 853.759615 29.275510 856.211538 28.824207 858.663462 28.473194 861.115385 28.086363 863.567308 27.513280 866.019231 26.646492 868.471154 25.930139 870.923077 24.920080 873.375000 23.394247 875.826923 22.405679 878.278846 21.238022 880.730769 20.005894 883.182692 18.917037 885.634615 17.319568 888.086538 16.144748 890.538462 15.213488 892.990385 14.110304 895.442308 13.350969 897.894231 12.677597 900.346154 12.634615" /></g></g><g class="titles"><text class="title plot_title" x="512.0" y="26">Election 8 Participation</text><text class="title" transform="rotate(-90 0.000000 374.500000)" x="0" y="400.5">Users</text></g><g class="plot overlay" transform="translate(86, 46)"><g class="series serie-0 color-0" /><g class="series serie-1 color-1" /></g><g class="plot text-overlay" transform="translate(86, 46)"><g class="series serie-0 color-0" /><g class="series serie-1 color-1" /></g><g class="plot tooltip-overlay" transform="translate(86, 46)"><g class="tooltip" style="opacity: 0" transform="translate(0 0)"><a><rect class="tooltip-box" height="0" rx="0" ry="0" width="0" /><text class="text"><tspan class="label" /><tspan class="value" /></text></a></g></g><g class="legends" transform="translate(96, 713)"><g class="legend reactive activate-serie" id="activate-serie-0"><rect class="color-0 reactive" height="12" width="12" x="0.0" y="1.0" /><text x="17.0" y="11.2">constituents</text></g><g class="legend reactive activate-serie" id="activate-serie-1"><rect class="color-1 reactive" height="12" width="12" x="459.0" y="1.0" /><text x="476.0" y="11.2">caucus</text></g></g></g></svg>