<?xml version='1.0' encoding='utf-8'?>
<svg xmlns:xlink="http://www.w3.org/1999/xlink" class="pygal-chart" id="chart-f2b326a9-efb0-452b-9e95-2a6a742d2b9b" viewBox="0 0 1024 768" xmlns="http://www.w3.org/2000/svg"><!--Generated with pygal 1.7.0 (etree) ©Kozea 2011-2014 on 2015-11-11--><!--http://pygal.org--><!--http://github.com/Kozea/pygal--><defs><style type="text/css">#chart-f2b326a9-efb0-452b-9e95-2a6a742d2b9b .title{font-family:"monospace";font-size:16px}#chart-f2b326a9-efb0-452b-9e95-2a6a742d2b9b .legends .legend text{font-family:"monospace";font-size:14px}#chart-f2b326a9-efb0-452b-9e95-2a6a742d2b9b .axis text{font-family:"monospace";font-size:10px}#chart-f2b326a9-efb0-452b-9e95-2a6a742d2b9b .axis text.major{font-family:"monospace";font-size:10px}#chart-f2b326a9-efb0-452b-9e95-2a6a742d2b9b .series text{font-family:"monospace";font-size:8px}#chart-f2b326a9-efb0-452b-9e95-2a6a742d2b9b .tooltip text{font-family:"monospace";font-size:16px}#chart-f2b326a9-efb0-452b-9e95-2a6a742d2b9b text.no_data{font-size:64px}
#chart-f2b326a9-efb0-452b-9e95-2a6a742d2b9b{background-color:black}#chart-f2b326a9-efb0-452b-9e95-2a6a742d2b9b path,#chart-f2b326a9-efb0-452b-9e95-2a6a742d2b9b line,#chart-f2b326a9-efb0-452b-9e95-2a6a742d2b9b rect,#chart-f2b326a9-efb0-452b-9e95-2a6a742d2b9b circle{-webkit-transition:250ms;-moz-transition:250ms;transition:250ms}#chart-f2b326a9-efb0-452b-9e95-2a6a742d2b9b .graph &gt; .background{fill:black}#chart-f2b326a9-efb0-452b-9e95-2a6a742d2b9b .plot &gt; .background{fill:#111}#chart-f2b326a9-efb0-452b-9e95-2a6a742d2b9b .graph{fill:#999}#chart-f2b326a9-efb0-452b-9e95-2a6a742d2b9b text.no_data{fill:#eee}#chart-f2b326a9-efb0-452b-9e95-2a6a742d2b9b .title{fill:#eee}#chart-f2b326a9-efb0-452b-9e95-2a6a742d2b9b .legends .legend text{fill:#999}#chart-f2b326a9-efb0-452b-9e95-2a6a742d2b9b .legends .legend:hover text{fill:#eee}#chart-f2b326a9-efb0-452b-9e95-2a6a742d2b9b .axis .line{stroke:#eee}#chart-f2b326a9-efb0-452b-9e95-2a6a742d2b9b .axis .guide.line{stroke:#555}#chart-f2b326a9-efb0-452b-9e95-2a6a742d2b9b .axis .major.line{stroke:#999}#chart-f2b326a9-efb0-452b-9e95-2a6a742d2b9b .axis text.major{stroke:#eee;fill:#eee}#chart-f2b326a9-efb0-452b-9e95-2a6a742d2b9b .axis.y .guides:hover .guide.line,#chart-f2b326a9-efb0-452b-9e95-2a6a742d2b9b .line-graph .axis.x .guides:hover .guide.line,#chart-f2b326a9-efb0-452b-9e95-2a6a742d2b9b .stackedline-graph .axis.x .guides:hover .guide.line,#chart-f2b326a9-efb0-452b-9e95-2a6a742d2b9b .xy-graph .axis.x .guides:hover .guide.line{stroke:#eee}#chart-f2b326a9-efb0-452b-9e95-2a6a742d2b9b .axis .guides:hover text{fill:#eee}#chart-f2b326a9-efb0-452b-9e95-2a6a742d2b9b .reactive{fill-opacity:.8}#chart-f2b326a9-efb0-452b-9e95-2a6a742d2b9b .reactive.active,#chart-f2b326a9-efb0-452b-9e95-2a6a742d2b9b .active .reactive{fill-opacity:.4}#chart-f2b326a9-efb0-452b-9e95-2a6a742d2b9b .series{stroke-width:1.0;stroke-linejoin:round;stroke-linecap:round;stroke-dasharray:0,0}#chart-f2b326a9-efb0-452b-9e95-2a6a742d2b9b .series text{fill:#eee}#chart-f2b326a9-efb0-452b-9e95-2a6a742d2b9b .tooltip rect{fill:#111;stroke:#eee}#chart-f2b326a9-efb0-452b-9e95-2a6a742d2b9b .tooltip text{fill:#eee}#chart-f2b326a9-efb0-452b-9e95-2a6a742d2b9b .map-element{fill:#999;stroke:#555 !important;opacity:.9;stroke-width:3;-webkit-transition:250ms;-moz-transition:250ms;-o-transition:250ms;transition:250ms}#chart-f2b326a9-efb0-452b-9e95-2a6a742d2b9b .map-element:hover{opacity:1;stroke-width:10}#chart-f2b326a9-efb0-452b-9e95-2a6a742d2b9b .color-0,#chart-f2b326a9-efb0-452b-9e95-2a6a742d2b9b .color-0 a:visited{stroke:#ff5995;fill:#ff5995}#chart-f2b326a9-efb0-452b-9e95-2a6a742d2b9b .color-1,#chart-f2b326a9-efb0-452b-9e95-2a6a742d2b9b .color-1 a:visited{stroke:#b6e354;fill:#b6e354}#chart-f2b326a9-efb0-452b-9e95-2a6a742d2b9b .color-2,#chart-f2b326a9-efb0-452b-9e95-2a6a742d2b9b .color-2 a:visited{stroke:#feed6c;fill:#feed6c}#chart-f2b326a9-efb0-452b-9e95-2a6a742d2b9b .color-3,#chart-f2b326a9-efb0-452b-9e95-2a6a742d2b9b .color-3 a:visited{stroke:#8cedff;fill:#8cedff}#chart-f2b326a9-efb0-452b-9e95-2a6a742d2b9b .color-4,#chart-f2b326a9-efb0-452b-9e95-2a6a742d2b9b .color-4 a:visited{stroke:#9e6ffe;fill:#9e6ffe}#chart-f2b326a9-efb0-452b-9e95-2a6a742d2b9b .color-5,#chart-f2b326a9-efb0-452b-9e95-2a6a742d2b9b .color-5 a:visited{stroke:#899ca1;fill:#899ca1}#chart-f2b326a9-efb0-452b-9e95-2a6a742d2b9b .color-6,#chart-f2b326a9-efb0-452b-9e95-2a6a742d2b9b .color-6 a:visited{stroke:#f8f8f2;fill:#f8f8f2}#chart-f2b326a9-efb0-452b-9e95-2a6a742d2b9b .color-7,#chart-f2b326a9-efb0-452b-9e95-2a6a742d2b9b .color-7 a:visited{stroke:#bf4646;fill:#bf4646}#chart-f2b326a9-efb0-452b-9e95-2a6a742d2b9b .color-8,#chart-f2b326a9-efb0-452b-9e95-2a6a742d2b9b .color-8 a:visited{stroke:#516083;fill:#516083}#chart-f2b326a9-efb0-452b-9e95-2a6a742d2b9b .color-9,#chart-f2b326a9-efb0-452b-9e95-2a6a742d2b9b .color-9 a:visited{stroke:#f92672;fill:#f92672}#chart-f2b326a9-efb0-452b-9e95-2a6a742d2b9b .color-10,#chart-f2b326a9-efb0-452b-9e95-2a6a742d2b9b .color-10 a:visited{stroke:#82b414;fill:#82b414}#chart-f2b326a9-efb0-452b-9e95-2a6a742d2b9b .color-11,#chart-f2b326a9-efb0-452b-9e95-2a6a742d2b9b .color-11 a:visited{stroke:#fd971f;fill:#fd971f}#chart-f2b326a9-efb0-452b-9e95-2a6a742d2b9b .color-12,#chart-f2b326a9-efb0-452b-9e95-2a6a742d2b9b .color-12 a:visited{stroke:#56c2d6;fill:#56c2d6}#chart-f2b326a9-efb0-452b-9e95-2a6a742d2b9b .color-13,#chart-f2b326a9-efb0-452b-9e95-2a6a742d2b9b .color-13 a:visited{stroke:#808384;fill:#808384}#chart-f2b326a9-efb0-452b-9e95-2a6a742d2b9b .color-14,#chart-f2b326a9-efb0-452b-9e95-2a6a742d2b9b .color-14 a:visited{stroke:#8c54fe;fill:#8c54fe}#chart-f2b326a9-efb0-452b-9e95-2a6a742d2b9b .color-15,#chart-f2b326a9-efb0-452b-9e95-2a6a742d2b9b .color-15 a:visited{stroke:#465457;fill:#465457}
#chart-f2b326a9-efb0-452b-9e95-2a6a742d2b9b text.no_data{text-anchor:middle}#chart-f2b326a9-efb0-452b-9e95-2a6a742d2b9b .guide.line{fill-opacity:0}#chart-f2b326a9-efb0-452b-9e95-2a6a742d2b9b .centered{text-anchor:middle}#chart-f2b326a9-efb0-452b-9e95-2a6a742d2b9b .title{text-anchor:middle}#chart-f2b326a9-efb0-452b-9e95-2a6a742d2b9b .legends .legend text{fill-opacity:1}#chart-f2b326a9-efb0-452b-9e95-2a6a742d2b9b .axis.x text{text-anchor:middle}#chart-f2b326a9-efb0-452b-9e95-2a6a742d2b9b .axis.x:not(.web) text[transform]{text-anchor:start}#chart-f2b326a9-efb0-452b-9e95-2a6a742d2b9b .axis.y text{text-anchor:end}#chart-f2b326a9-efb0-452b-9e95-2a6a742d2b9b .axis.y2 text{text-anchor:start}#chart-f2b326a9-efb0-452b-9e95-2a6a742d2b9b .axis.y .logarithmic text:not(.major),#chart-f2b326a9-efb0-452b-9e95-2a6a742d2b9b .axis.y2 .logarithmic text:not(.major){font-size:50%}#chart-f2b326a9-efb0-452b-9e95-2a6a742d2b9b .axis .guide.line{stroke-dasharray:4,4}#chart-f2b326a9-efb0-452b-9e95-2a6a742d2b9b .axis .major.guide.line{stroke-dasharray:6,6}#chart-f2b326a9-efb0-452b-9e95-2a6a742d2b9b .axis text.major{stroke-width:0.5px}#chart-f2b326a9-efb0-452b-9e95-2a6a742d2b9b .horizontal .axis.y .guide.line,#chart-f2b326a9-efb0-452b-9e95-2a6a742d2b9b .horizontal .axis.y2 .guide.line,#chart-f2b326a9-efb0-452b-9e95-2a6a742d2b9b .vertical .axis.x .guide.line{opacity:0}#chart-f2b326a9-efb0-452b-9e95-2a6a742d2b9b .horizontal .axis.always_show .guide.line,#chart-f2b326a9-efb0-452b-9e95-2a6a742d2b9b .vertical .axis.always_show .guide.line{opacity:1 !important}#chart-f2b326a9-efb0-452b-9e95-2a6a742d2b9b .axis.y .guides:hover .guide.line,#chart-f2b326a9-efb0-452b-9e95-2a6a742d2b9b .axis.y2 .guides:hover .guide.line,#chart-f2b326a9-efb0-452b-9e95-2a6a742d2b9b .axis.x .guides:hover .guide.line{opacity:1}#chart-f2b326a9-efb0-452b-9e95-2a6a742d2b9b .axis .guides:hover text{opacity:1}#chart-f2b326a9-efb0-452b-9e95-2a6a742d2b9b .nofill{fill:none}#chart-f2b326a9-efb0-452b-9e95-2a6a742d2b9b .subtle-fill{fill-opacity:.2}#chart-f2b326a9-efb0-452b-9e95-2a6a742d2b9b .dot{stroke-width:1px;fill-opacity:1}#chart-f2b326a9-efb0-452b-9e95-2a6a742d2b9b .dot.active{stroke-width:5px}#chart-f2b326a9-efb0-452b-9e95-2a6a742d2b9b .series text{stroke:none}#chart-f2b326a9-efb0-452b-9e95-2a6a742d2b9b .series text.active{opacity:1}#chart-f2b326a9-efb0-452b-9e95-2a6a742d2b9b .tooltip rect{fill-opacity:0.8}#chart-f2b326a9-efb0-452b-9e95-2a6a742d2b9b .tooltip text{fill-opacity:1}#chart-f2b326a9-efb0-452b-9e95-2a6a742d2b9b .tooltip text tspan.label{fill-opacity:.8}</style><script type="text/javascript">window.config = {"value_font_size": 8, "y_labels_major": null, "x_labels_major_count": null, "order_min": null, "title": "Election 5 and 6 and 7 Caucus", "y_labels_major_count": null, "interpolation_parameters": {}, "major_label_font_size": 10, "margin_bottom": null, "show_minor_y_labels": true, "disable_xml_declaration": false, "js": ["http://kozea.github.io/pygal.js/javascripts/svg.jquery.js", "http://kozea.github.io/pygal.js/javascripts/pygal-tooltips.js"], "logarithmic": false, "width": 1024, "x_title": null, "y_labels": null, "fill": false, "show_y_labels": true, "explicit_size": false, "show_legend": true, "xrange": null, "include_x_axis": false, "no_prefix": false, "margin_top": null, "interpolate": null, "range": null, "legend_at_bottom_columns": null, "no_data_font_size": 64, "print_values": false, "no_data_text": "No data", "human_readable": false, "print_zeroes": false, "mode": null, "strict": false, "legend_box_size": 12, "show_dots": false, "y_title": "Users", "show_only_major_dots": false, "missing_value_fill_truncation": "x", "x_value_formatter": null, "x_label_format": "%Y-%m-%d %H:%M:%S.%f", "rounded_bars": null, "y_labels_major_every": null, "css": ["style.css", "graph.css"], "dots_size": 2.5, "x_labels_major": null, "show_minor_x_labels": true, "truncate_label": null, "legend_font_size": 14, "y_label_rotation": 0, "legend_at_bottom": true, "tooltip_font_size": 16, "margin_left": null, "height": 768, "show_y_guides": true, "title_font_size": 16, "interpolation_precision": 250, "pretty_print": false, "x_label_rotation": 0, "tooltip_border_radius": 0, "zero": 0, "show_x_guides": false, "x_labels": null, "half_pie": false, "truncate_legend": null, "inner_radius": 0, "spacing": 10, "x_labels_major_every": null, "stack_from_top": false, "margin_right": null, "show_x_labels": true, "stroke": true, "margin": 20, "style": {"foreground_light": "#eee", "opacity": ".8", "plot_background": "#111", "colors": ["#ff5995", "#b6e354", "#feed6c", "#8cedff", "#9e6ffe", "#899ca1", "#f8f8f2", "#bf4646", "#516083", "#f92672", "#82b414", "#fd971f", "#56c2d6", "#808384", "#8c54fe", "#465457"], "transition": "250ms", "opacity_hover": ".4", "stroke_width": 1.0, "background": "black", "foreground_dark": "#555", "stroke_style": "round", "stroke_dasharray": "0,0", "foreground": "#999", "font_family": "monospace"}, "label_font_size": 10}</script><script type="text/javascript" xlink:href="http://kozea.github.io/pygal.js/javascripts/svg.jquery.js" /><script type="text/javascript" xlink:href="http://kozea.github.io/pygal.js/javascripts/pygal-tooltips.js" /></defs><title>Election 5 and 6 and 7 Caucus</title><g class="graph line-graph vertical"><rect class="background" height="768" width="1024" x="0" y="0" /><g class="plot" transform="translate(86, 46)"><rect class="background" height="657.0" width="918.0" x="0" y="0" /><g class="axis y"><path class="line" d="M0.000000 657.000000 h918.000000" /><g class="guides"><path class="guide line" d="M0.000000 578.674129 h918.000000" /><text class="" x="-5" y="582.1741292038693">10000</text></g><g class="guides"><path class="guide line" d="M0.000000 496.488147 h918.000000" /><text class="" x="-5" y="499.9881472052263">20000</text></g><g class="guides"><path class="guide line" d="M0.000000 414.302165 h918.000000" /><text class="" x="-5" y="417.80216520658337">30000</text></g><g class="guides"><path class="guide line" d="M0.000000 332.116183 h918.000000" /><text class="" x="-5" y="335.61618320794037">40000</text></g><g class="guides"><path class="major guide line" d="M0.000000 249.930201 h918.000000" /><text class="major" x="-5" y="253.43020120929737">50000</text></g><g class="guides"><path class="guide line" d="M0.000000 167.744219 h918.000000" /><text class="" x="-5" y="171.24421921065436">60000</text></g><g class="guides"><path class="guide line" d="M0.000000 85.558237 h918.000000" /><text class="" x="-5" y="89.05823721201136">70000</text></g></g><g class="series serie-0 color-0"><path class="line reactive nofill" d="M17.653846 640.979322 L20.105769 633.853798 22.557692 628.930857 25.009615 626.646087 27.461538 624.780465 29.913462 623.416178 32.365385 622.076546 34.817308 620.745133 37.269231 618.558986 39.721154 616.561867 42.173077 614.515436 44.625000 611.918359 47.076923 608.844603 49.528846 605.795503 51.980769 603.395673 54.432692 601.817702 56.884615 600.239731 59.336538 598.390546 61.788462 596.952292 64.240385 595.604441 66.692308 594.330559 69.144231 593.418294 71.596154 592.366314 74.048077 591.717045 76.500000 590.928059 78.951923 590.180167 81.403846 589.613083 83.855769 589.210372 86.307692 588.832317 88.759615 588.626852 91.211538 588.380294 93.663462 588.059768 96.115385 587.895396 98.567308 587.566652 101.019231 587.147504 103.471154 586.695481 105.923077 586.029775 108.375000 585.429817 110.826923 584.895608 113.278846 584.287432 115.730769 583.671037 118.182692 583.210795 120.634615 582.610838 123.086538 582.002661 125.538462 581.583513 127.990385 581.221895 130.442308 580.835621 132.894231 580.490439 135.346154 580.112384 137.798077 579.800077 140.250000 579.619268 142.701923 579.438459 145.153846 579.274087 147.605769 579.134371 150.057692 578.986436 152.509615 578.813845 154.961538 578.665911 157.413462 578.370041 159.865385 578.222106 162.317308 577.975548 164.769231 577.663242 167.221154 577.342716 169.673077 577.030410 172.125000 576.701666 174.576923 576.438670 177.028846 576.118145 179.480769 575.797620 181.932692 575.427783 184.384615 575.156569 186.836538 574.868918 189.288462 574.655235 191.740385 574.384021 194.192308 574.227868 196.644231 574.038840 199.096154 573.866249 201.548077 573.701877 204.000000 573.578598 206.451923 573.479975 208.903846 573.406008 211.355769 573.315603 213.807692 573.200543 216.259615 573.093701 218.711538 572.945766 221.163462 572.748520 223.615385 572.575929 226.067308 572.337590 228.519231 572.148562 230.971154 572.008846 233.423077 571.819818 235.875000 571.647228 238.326923 571.433544 240.778846 571.244516 243.230769 571.022614 245.682692 570.800712 248.134615 570.628122 250.586538 570.455531 253.038462 570.332252 255.490385 570.200754 257.942308 570.077475 260.394231 569.995290 262.846154 569.937759 265.298077 569.872011 267.750000 569.830918 270.201923 569.773387 272.653846 569.715857 275.105769 569.584360 277.557692 569.510392 280.009615 569.387113 282.461538 569.304927 284.913462 569.255616 287.365385 569.189867 289.817308 569.140555 292.269231 569.074807 294.721154 568.992621 297.173077 568.967965 299.625000 568.893997 302.076923 568.737844 304.528846 568.598128 306.980769 568.507723 309.432692 568.433756 311.884615 568.351570 314.336538 568.285821 316.788462 568.220072 319.240385 568.137886 321.692308 568.063919 324.144231 567.998170 326.596154 567.965296 329.048077 567.948859 331.500000 567.866673 333.951923 567.833798 336.403846 567.800924 338.855769 567.751612 341.307692 567.694082 343.759615 567.611896 346.211538 567.480398 348.663462 567.406431 351.115385 567.324245 353.567308 567.258496 356.019231 567.176310 358.471154 567.126999 360.923077 567.044813 363.375000 566.937971 365.826923 566.790036 368.278846 566.757162 370.730769 566.559915 373.182692 566.420199 375.634615 566.329795 378.086538 566.264046 380.538462 566.173641 382.990385 566.124330 385.442308 566.033925 387.894231 565.943521 390.346154 565.861335 392.798077 565.770930 395.250000 565.672307 397.701923 565.573684 400.153846 565.318907 402.605769 565.088786 405.057692 564.825791 407.509615 564.562796 409.961538 564.225834 412.413462 563.938183 414.865385 563.642313 417.317308 563.428630 419.769231 563.198509 422.221154 563.058793 424.673077 562.869765 427.125000 557.905732 429.576923 523.519117 432.028846 504.361564 434.480769 493.167834 436.932692 484.242436 439.384615 477.897678 441.836538 472.382999 444.288462 466.909412 446.740385 460.572873 449.192308 451.450229 451.644231 441.168763 454.096154 429.851753 456.548077 416.726652 459.000000 401.752366 461.451923 386.235652 463.903846 373.357109 466.355769 363.774223 468.807692 355.202226 471.259615 346.589135 473.711538 337.992481 476.163462 330.686147 478.615385 323.872929 481.067308 318.366468 483.519231 313.969518 485.971154 309.630099 488.423077 305.956385 490.875000 302.931941 493.326923 300.121180 495.778846 298.206247 498.230769 296.718681 500.682692 295.485891 503.134615 294.261320 505.586538 293.127153 508.038462 291.590275 510.490385 289.658905 512.942308 287.743972 515.394231 285.212643 517.846154 282.525162 520.298077 279.623997 522.750000 276.591334 525.201923 273.944945 527.653846 271.512240 530.105769 268.816540 532.557692 266.153714 535.009615 263.474451 537.461538 261.123932 539.913462 259.151468 542.365385 257.179005 544.817308 255.403788 547.269231 253.825817 549.721154 252.403999 552.173077 251.319144 554.625000 250.382224 557.076923 249.634332 559.528846 249.091904 561.980769 248.409761 564.432692 247.727617 566.884615 247.119441 569.336538 246.174302 571.788462 245.336005 574.240385 244.185401 576.692308 243.116983 579.144231 241.711603 581.596154 240.026790 584.048077 238.777563 586.500000 237.314653 588.951923 235.859961 591.403846 234.503892 593.855769 233.221791 596.307692 231.923253 598.759615 230.805523 601.211538 229.901477 603.663462 228.833060 606.115385 227.698893 608.567308 226.918126 611.019231 226.170234 613.471154 225.636025 615.923077 225.167565 618.375000 224.805947 620.826923 224.403235 623.278846 223.984087 625.730769 223.573157 628.182692 223.162227 630.634615 222.743078 633.086538 222.134902 635.538462 221.485633 637.990385 220.376122 640.442308 219.537825 642.894231 218.798151 645.346154 218.058477 647.798077 217.195525 650.250000 216.398321 652.701923 215.486056 655.153846 214.680634 657.605769 214.088894 660.057692 213.447844 662.509615 212.420519 664.961538 204.473135 667.413462 200.372054 669.865385 197.783196 672.317308 195.991541 674.769231 194.791626 677.221154 193.936892 679.673077 193.090376 682.125000 192.309609 684.576923 191.397345 687.028846 190.485080 689.480769 189.679658 691.932692 188.676989 694.384615 187.649664 696.836538 186.638776 699.288462 185.496391 701.740385 184.362225 704.192308 183.375993 706.644231 182.332231 709.096154 181.345999 711.548077 180.491265 714.000000 179.537908 716.451923 178.650299 718.903846 177.951718 721.355769 177.047672 723.807692 176.266906 726.259615 175.650511 728.711538 175.017679 731.163462 174.475251 733.615385 174.121851 736.067308 173.825982 738.519231 173.538331 740.971154 173.234243 743.423077 172.856187 745.875000 172.617848 748.326923 172.264448 750.778846 171.894611 753.230769 171.426151 755.682692 170.908380 758.134615 170.390608 760.586538 169.913929 763.038462 169.379720 765.490385 168.903042 767.942308 168.327740 770.394231 167.760656 772.846154 167.234666 775.298077 166.601834 777.750000 166.042969 780.201923 165.500542 782.653846 165.040300 785.105769 164.522529 787.557692 163.955445 790.009615 163.511641 792.461538 163.084274 794.913462 162.681563 797.365385 162.262414 799.817308 161.711768 802.269231 161.004969 804.721154 160.380355 807.173077 159.402342 809.625000 158.153115 812.076923 156.690205 814.528846 154.553369 816.980769 152.843901 819.432692 151.413865 821.884615 150.098889 824.336538 148.742820 826.788462 147.181287 829.240385 145.521130 831.692308 144.312996 834.144231 143.392513 836.596154 142.562434 839.048077 141.683044 841.500000 141.017338 843.951923 140.285883 846.403846 139.850297 848.855769 139.447586 851.307692 139.036656 853.759615 138.650382 856.211538 138.296982 858.663462 137.984675 861.115385 137.688806 863.567308 137.368280 866.019231 136.858727 868.471154 136.382048 870.923077 135.593063 873.375000 134.804078 875.826923 134.031529 878.278846 133.242544 880.730769 132.404247 883.182692 131.598824 885.634615 130.834495 888.086538 129.864700 890.538462 129.264742 892.990385 128.746971 895.442308 128.220980 897.894231 127.752520 900.346154 127.752520" /></g><g class="series serie-1 color-1"><path class="line reactive nofill" d="M17.653846 644.365385 L20.105769 638.193217 22.557692 634.749625 25.009615 632.456636 27.461538 630.295144 29.913462 628.856890 32.365385 627.410417 34.817308 625.725604 37.269231 623.210713 39.721154 619.972585 42.173077 616.586523 44.625000 611.951233 47.076923 607.710437 49.528846 604.825709 51.980769 602.171101 54.432692 599.968517 56.884615 597.683747 59.336538 595.448288 61.788462 593.196392 64.240385 591.232147 66.692308 589.687051 69.144231 588.314545 71.596154 587.098192 74.048077 585.947589 76.500000 585.043543 78.951923 583.934032 81.403846 583.408042 83.855769 583.029986 86.307692 582.569745 88.759615 582.134159 91.211538 581.846508 93.663462 581.575294 96.115385 581.024648 98.567308 580.383598 101.019231 579.685017 103.471154 578.739878 105.923077 577.794739 108.375000 576.866038 110.826923 575.986648 113.278846 575.255192 115.730769 574.416895 118.182692 573.553943 120.634615 572.806050 123.086538 572.156781 125.538462 571.614353 127.990385 570.965084 130.442308 570.381564 132.894231 569.896666 135.346154 569.403550 137.798077 569.009058 140.250000 568.622784 142.701923 568.474849 145.153846 568.302258 147.605769 568.121449 150.057692 567.891328 152.509615 567.710519 154.961538 567.365338 157.413462 566.929752 159.865385 566.559915 162.317308 565.984614 164.769231 565.401093 167.221154 564.907977 169.673077 564.406643 172.125000 563.831341 174.576923 563.346444 177.028846 562.746486 179.480769 562.130091 181.932692 561.546571 184.384615 561.094548 186.836538 560.782241 189.288462 560.420623 191.740385 560.042567 194.192308 559.574107 196.644231 559.278237 199.096154 559.089210 201.548077 558.908401 204.000000 558.785122 206.451923 558.645405 208.903846 558.489252 211.355769 558.374192 213.807692 558.127634 216.259615 557.839983 218.711538 557.470146 221.163462 557.141402 223.615385 556.796221 226.067308 556.352416 228.519231 555.916831 230.971154 555.571650 233.423077 555.152501 235.875000 554.766227 238.326923 554.355297 240.778846 554.034772 243.230769 553.821088 245.682692 553.566312 248.134615 553.336191 250.586538 553.122507 253.038462 552.834856 255.490385 552.662266 257.942308 552.514331 260.394231 552.399271 262.846154 552.259555 265.298077 552.152713 267.750000 552.086964 270.201923 552.021215 272.653846 551.889718 275.105769 551.815750 277.557692 551.676034 280.009615 551.536318 282.461538 551.454132 284.913462 551.355509 287.365385 551.281541 289.817308 551.108951 292.269231 550.952797 294.721154 550.854174 297.173077 550.656928 299.625000 550.492556 302.076923 550.344621 304.528846 550.172031 306.980769 549.958347 309.432692 549.826850 311.884615 549.728226 314.336538 549.654259 316.788462 549.498106 319.240385 549.383045 321.692308 549.292641 324.144231 549.185799 326.596154 549.095394 329.048077 549.029645 331.500000 548.914585 333.951923 548.807743 336.403846 548.700902 338.855769 548.610497 341.307692 548.528311 343.759615 548.339283 346.211538 548.199567 348.663462 548.035195 351.115385 547.895479 353.567308 547.763981 356.019231 547.632484 358.471154 547.492768 360.923077 547.394144 363.375000 547.270865 365.826923 547.131149 368.278846 546.933903 370.730769 546.794187 373.182692 546.638033 375.634615 546.547629 378.086538 546.457224 380.538462 546.366820 382.990385 546.259978 385.442308 546.112043 387.894231 546.038076 390.346154 545.931234 392.798077 545.725769 395.250000 545.520304 397.701923 545.134030 400.153846 544.706663 402.605769 544.213547 405.057692 543.819054 407.509615 543.367031 409.961538 542.964320 412.413462 542.364362 414.865385 541.879465 417.317308 541.616470 419.769231 541.320600 422.221154 541.000075 424.673077 540.654894 427.125000 540.285057 429.576923 499.356438 432.028846 479.911235 434.480769 469.399648 436.932692 461.641291 439.384615 454.984226 441.836538 449.403798 444.288462 443.108352 446.740385 436.952622 449.192308 428.035443 451.644231 415.041839 454.096154 397.938936 456.548077 376.167870 459.000000 357.462340 461.451923 340.984051 463.903846 328.261661 466.355769 317.067930 468.807692 305.619423 471.259615 294.820185 473.711538 284.514062 476.163462 276.213278 478.615385 269.893176 481.067308 264.403153 483.519231 259.324059 485.971154 254.713425 488.423077 250.809591 490.875000 247.374217 493.326923 245.089447 495.778846 243.626536 498.230769 242.418402 500.682692 241.086990 503.134615 239.821325 505.586538 238.235136 508.038462 236.106519 510.490385 233.328633 512.942308 229.605608 515.394231 225.389467 517.846154 221.165108 520.298077 216.727064 522.750000 212.790356 525.201923 208.985145 527.653846 205.188153 530.105769 201.300756 532.557692 197.306517 535.009615 194.142357 537.461538 191.150787 539.913462 188.833142 542.365385 186.441530 544.817308 184.345788 547.269231 182.282919 549.721154 180.877539 552.173077 179.652968 554.625000 178.666736 557.076923 177.951718 559.528846 177.014798 561.980769 176.299780 564.432692 175.387516 566.884615 174.302661 569.336538 173.176713 571.788462 171.138500 574.240385 169.059195 576.692308 166.938797 579.144231 164.563622 581.596154 162.418568 584.048077 160.388574 586.500000 157.980525 588.951923 155.794377 591.403846 153.723291 593.855769 152.194631 596.307692 150.411196 598.759615 148.841443 601.211538 147.674402 603.663462 146.515580 606.115385 145.291009 608.567308 144.288340 611.019231 143.589759 613.471154 143.055550 615.923077 142.570653 618.375000 142.184379 620.826923 141.674826 623.278846 141.148835 625.730769 140.565315 628.182692 139.825641 630.634615 138.979126 633.086538 137.968238 635.538462 136.645044 637.990385 135.297194 640.442308 134.245213 642.894231 133.242544 645.346154 131.804289 647.798077 130.398909 650.250000 128.903124 652.701923 127.810051 655.153846 127.021065 657.605769 126.051271 660.057692 125.114350 662.509615 124.358239 664.961538 115.827334 667.413462 111.257794 669.865385 108.356629 672.317308 106.507444 674.769231 105.332184 677.221154 104.288423 679.673077 103.483000 682.125000 102.529642 684.576923 101.346164 687.028846 99.990096 689.480769 98.625808 691.932692 97.097149 694.384615 95.782173 696.836538 94.072705 699.288462 92.675543 701.740385 91.492065 704.192308 89.963406 706.644231 88.714179 709.096154 87.432078 711.548077 86.166413 714.000000 85.163744 716.451923 84.029578 718.903846 83.076221 721.355769 81.859868 723.807692 80.972259 726.259615 80.158618 728.711538 79.649065 731.163462 79.040889 733.615385 78.671052 736.067308 78.292996 738.519231 77.997127 740.971154 77.668383 743.423077 77.331420 745.875000 76.936928 748.326923 76.378063 750.778846 75.786324 753.230769 74.890497 755.682692 74.043981 758.134615 73.189247 760.586538 72.589289 763.038462 71.767429 765.490385 71.085286 767.942308 70.444235 770.394231 69.614157 772.846154 68.874483 775.298077 68.077279 777.750000 67.526633 780.201923 66.910238 782.653846 66.203438 785.105769 65.603481 787.557692 65.184332 790.009615 64.724091 792.461538 64.272068 794.913462 63.647454 797.365385 63.080371 799.817308 62.398227 802.269231 61.436651 804.721154 60.006615 807.173077 57.960184 809.625000 55.469949 812.076923 52.593440 814.528846 49.519684 816.980769 47.489690 819.432692 45.509008 821.884615 43.199582 824.336538 40.873719 826.788462 38.654697 829.240385 36.715108 831.692308 35.400132 834.144231 34.167343 836.596154 32.950990 839.048077 31.668889 841.500000 30.674438 843.951923 29.860797 846.403846 29.170435 848.855769 28.743068 851.307692 28.414324 853.759615 27.986957 856.211538 27.617120 858.663462 27.255502 861.115385 26.836353 863.567308 26.326800 866.019231 25.258382 868.471154 24.157090 870.923077 22.940738 873.375000 21.855883 875.826923 20.738153 878.278846 19.908075 880.730769 18.971155 883.182692 17.795895 885.634615 16.834319 888.086538 15.659060 890.538462 14.870074 892.990385 14.196149 895.442308 13.415382 897.894231 12.634615 900.346154 12.634615" /></g><g class="series serie-2 color-2"><path class="line reactive nofill" d="M17.653846 644.094171 L20.105769 636.450875 22.557692 632.062143 25.009615 629.497940 27.461538 627.558351 29.913462 625.939287 32.365385 624.533907 34.817308 622.750471 37.269231 621.254686 39.721154 618.969916 42.173077 616.241342 44.625000 613.257990 47.076923 609.387031 49.528846 605.310606 51.980769 602.475190 54.432692 600.584912 56.884615 598.727509 59.336538 596.870106 61.788462 594.815456 64.240385 593.023802 66.692308 591.404738 69.144231 590.287008 71.596154 589.325432 74.048077 588.339201 76.500000 587.385843 78.951923 586.596858 81.403846 585.824310 83.855769 585.438036 86.307692 585.092854 88.759615 584.723017 91.211538 584.394274 93.663462 583.999781 96.115385 583.646381 98.567308 583.194358 101.019231 582.775210 103.471154 582.158815 105.923077 581.304081 108.375000 580.506877 110.826923 579.857607 113.278846 579.298743 115.730769 578.501539 118.182692 577.720772 120.634615 577.104377 123.086538 576.307173 125.538462 575.781183 127.990385 575.140132 130.442308 574.663453 132.894231 574.194993 135.346154 573.652566 137.798077 573.134794 140.250000 572.682771 142.701923 572.419776 145.153846 572.222530 147.605769 572.033502 150.057692 571.852693 152.509615 571.647228 154.961538 571.466419 157.413462 571.178768 159.865385 570.759619 162.317308 570.743182 164.769231 570.743182 167.221154 570.743182 169.673077 570.743182 172.125000 570.743182 174.576923 570.743182 177.028846 570.743182 179.480769 570.743182 181.932692 570.743182 184.384615 570.743182 186.836538 570.743182 189.288462 570.743182 191.740385 570.743182 194.192308 570.743182 196.644231 570.743182 199.096154 570.743182 201.548077 570.743182 204.000000 570.743182 206.451923 570.743182 208.903846 570.743182 211.355769 570.743182 213.807692 570.743182 216.259615 570.743182 218.711538 570.743182 221.163462 570.743182 223.615385 570.743182 226.067308 570.743182 228.519231 570.743182 230.971154 570.743182 233.423077 570.743182 235.875000 570.743182 238.326923 570.743182 240.778846 570.743182 243.230769 570.743182 245.682692 570.743182 248.134615 570.743182 250.586538 570.743182 253.038462 570.743182 255.490385 570.743182 257.942308 570.743182 260.394231 570.743182 262.846154 570.743182 265.298077 570.743182 267.750000 570.743182 270.201923 570.743182 272.653846 570.743182 275.105769 570.743182 277.557692 570.743182 280.009615 570.743182 282.461538 570.743182 284.913462 570.743182 287.365385 570.743182 289.817308 570.743182 292.269231 570.743182 294.721154 570.743182 297.173077 570.743182 299.625000 570.743182 302.076923 570.743182 304.528846 570.743182 306.980769 570.743182 309.432692 570.743182 311.884615 570.743182 314.336538 570.743182 316.788462 570.743182 319.240385 570.743182 321.692308 570.743182 324.144231 570.743182 326.596154 570.743182 329.048077 570.743182 331.500000 570.743182 333.951923 570.743182 336.403846 570.743182 338.855769 570.743182 341.307692 570.743182 343.759615 570.743182 346.211538 570.743182 348.663462 570.743182 351.115385 570.743182 353.567308 570.743182 356.019231 570.743182 358.471154 570.743182 360.923077 570.743182 363.375000 570.743182 365.826923 570.743182 368.278846 570.743182 370.730769 570.743182 373.182692 570.743182 375.634615 570.743182 378.086538 570.743182 380.538462 570.743182 382.990385 570.743182 385.442308 570.743182 387.894231 570.743182 390.346154 570.743182 392.798077 570.743182 395.250000 570.743182 397.701923 570.743182 400.153846 570.743182 402.605769 570.743182 405.057692 570.743182 407.509615 570.743182 409.961538 570.743182 412.413462 570.743182 414.865385 570.743182 417.317308 570.743182 419.769231 570.743182 422.221154 570.743182 424.673077 570.743182 427.125000 570.743182 429.576923 570.743182 432.028846 570.743182 434.480769 570.743182 436.932692 570.743182 439.384615 570.743182 441.836538 570.743182 444.288462 570.743182 446.740385 570.743182 449.192308 570.743182 451.644231 570.743182 454.096154 570.743182 456.548077 570.743182 459.000000 570.743182 461.451923 570.743182 463.903846 570.743182 466.355769 570.743182 468.807692 570.743182 471.259615 570.743182 473.711538 570.743182 476.163462 570.743182 478.615385 570.743182 481.067308 570.743182 483.519231 570.743182 485.971154 570.743182 488.423077 570.743182 490.875000 570.743182 493.326923 570.743182 495.778846 570.743182 498.230769 570.743182 500.682692 570.743182 503.134615 570.743182 505.586538 570.743182 508.038462 570.743182 510.490385 570.743182 512.942308 570.743182 515.394231 570.743182 517.846154 570.743182 520.298077 570.743182 522.750000 570.743182 525.201923 570.743182 527.653846 570.743182 530.105769 570.743182 532.557692 570.743182 535.009615 570.743182 537.461538 570.743182 539.913462 570.743182 542.365385 570.743182 544.817308 570.743182 547.269231 570.743182 549.721154 570.743182 552.173077 570.743182 554.625000 570.743182 557.076923 570.743182 559.528846 570.743182 561.980769 570.743182 564.432692 570.743182 566.884615 570.743182 569.336538 570.743182 571.788462 570.743182 574.240385 570.743182 576.692308 570.743182 579.144231 570.743182 581.596154 570.743182 584.048077 570.743182 586.500000 570.743182 588.951923 570.743182 591.403846 570.743182 593.855769 570.743182 596.307692 570.743182 598.759615 570.743182 601.211538 570.743182 603.663462 570.743182 606.115385 570.743182 608.567308 570.743182 611.019231 570.743182 613.471154 570.743182 615.923077 570.743182 618.375000 570.743182 620.826923 570.743182 623.278846 570.743182 625.730769 570.743182 628.182692 570.743182 630.634615 570.743182 633.086538 570.743182 635.538462 570.743182 637.990385 570.743182 640.442308 570.743182 642.894231 570.743182 645.346154 570.743182 647.798077 570.743182 650.250000 570.743182 652.701923 570.743182 655.153846 570.743182 657.605769 570.743182 660.057692 570.743182 662.509615 570.743182 664.961538 570.743182 667.413462 570.743182 669.865385 570.743182 672.317308 570.743182 674.769231 570.743182 677.221154 570.743182 679.673077 570.743182 682.125000 570.743182 684.576923 570.743182 687.028846 570.743182 689.480769 570.743182 691.932692 570.743182 694.384615 570.743182 696.836538 570.743182 699.288462 570.743182 701.740385 570.743182 704.192308 570.743182 706.644231 570.743182 709.096154 570.743182 711.548077 570.743182 714.000000 570.743182 716.451923 570.743182 718.903846 570.743182 721.355769 570.743182 723.807692 570.743182 726.259615 570.743182 728.711538 570.743182 731.163462 570.743182 733.615385 570.743182 736.067308 570.743182 738.519231 570.743182 740.971154 570.743182 743.423077 570.743182 745.875000 570.743182 748.326923 570.743182 750.778846 570.743182 753.230769 570.743182 755.682692 570.743182 758.134615 570.743182 760.586538 570.743182 763.038462 570.743182 765.490385 570.743182 767.942308 570.743182 770.394231 570.743182 772.846154 570.743182 775.298077 570.743182 777.750000 570.743182 780.201923 570.743182 782.653846 570.743182 785.105769 570.743182 787.557692 570.743182 790.009615 570.743182 792.461538 570.743182 794.913462 570.743182 797.365385 570.743182 799.817308 570.743182 802.269231 570.743182 804.721154 570.743182 807.173077 570.743182 809.625000 570.743182 812.076923 570.743182 814.528846 570.743182 816.980769 570.743182 819.432692 570.743182 821.884615 570.743182 824.336538 570.743182 826.788462 570.743182 829.240385 570.743182 831.692308 570.743182 834.144231 570.743182 836.596154 570.743182 839.048077 570.743182 841.500000 570.743182 843.951923 570.743182 846.403846 570.743182 848.855769 570.743182 851.307692 570.743182 853.759615 570.743182 856.211538 570.743182 858.663462 570.743182 861.115385 570.743182 863.567308 570.743182 866.019231 570.743182 868.471154 570.743182 870.923077 570.743182 873.375000 570.743182 875.826923 570.743182 878.278846 570.743182 880.730769 570.743182 883.182692 570.743182 885.634615 570.743182 888.086538 570.743182 890.538462 570.743182 892.990385 570.743182 895.442308 570.743182 897.894231 570.743182 900.346154 570.743182" /></g></g><g class="titles"><text class="title plot_title" x="512.0" y="26">Election 5 and 6 and 7 Caucus</text><text class="title" transform="rotate(-90 0.000000 374.500000)" x="0" y="400.5">Users</text></g><g class="plot overlay" transform="translate(86, 46)"><g class="series serie-0 color-0" /><g class="series serie-1 color-1" /><g class="series serie-2 color-2" /></g><g class="plot text-overlay" transform="translate(86, 46)"><g class="series serie-0 color-0" /><g class="series serie-1 color-1" /><g class="series serie-2 color-2" /></g><g class="plot tooltip-overlay" transform="translate(86, 46)"><g class="tooltip" style="opacity: 0" transform="translate(0 0)"><a><rect class="tooltip-box" height="0" rx="0" ry="0" width="0" /><text class="text"><tspan class="label" /><tspan class="value" /></text></a></g></g><g class="legends" transform="translate(96, 713)"><g class="legend reactive activate-serie" id="activate-serie-0"><rect class="color-0 reactive" height="12" width="12" x="0.0" y="1.0" /><text x="17.0" y="11.2">5 caucus</text></g><g class="legend reactive activate-serie" id="activate-serie-1"><rect class="color-1 reactive" height="12" width="12" x="459.0" y="1.0" /><text x="476.0" y="11.2">6 caucus</text></g><g class="legend reactive activate-serie" id="activate-serie-2"><rect class="color-2 reactive" height="12" width="12" x="0.0" y="22.0" /><text x="17.0" y="32.2">7 caucus</text></g></g></g></svg>