<?xml version='1.0' encoding='utf-8'?>
<svg xmlns:xlink="http://www.w3.org/1999/xlink" class="pygal-chart" id="chart-7e70ea75-4834-463a-a42e-bb78665022cc" viewBox="0 0 1024 768" xmlns="http://www.w3.org/2000/svg"><!--Generated with pygal 1.7.0 (etree) ©Kozea 2011-2014 on 2015-04-20--><!--http://pygal.org--><!--http://github.com/Kozea/pygal--><defs><style type="text/css">#chart-7e70ea75-4834-463a-a42e-bb78665022cc .title{font-family:"monospace";font-size:16px}#chart-7e70ea75-4834-463a-a42e-bb78665022cc .legends .legend text{font-family:"monospace";font-size:14px}#chart-7e70ea75-4834-463a-a42e-bb78665022cc .axis text{font-family:"monospace";font-size:10px}#chart-7e70ea75-4834-463a-a42e-bb78665022cc .axis text.major{font-family:"monospace";font-size:10px}#chart-7e70ea75-4834-463a-a42e-bb78665022cc .series text{font-family:"monospace";font-size:8px}#chart-7e70ea75-4834-463a-a42e-bb78665022cc .tooltip text{font-family:"monospace";font-size:16px}#chart-7e70ea75-4834-463a-a42e-bb78665022cc text.no_data{font-size:64px}
#chart-7e70ea75-4834-463a-a42e-bb78665022cc{background-color:black}#chart-7e70ea75-4834-463a-a42e-bb78665022cc path,#chart-7e70ea75-4834-463a-a42e-bb78665022cc line,#chart-7e70ea75-4834-463a-a42e-bb78665022cc rect,#chart-7e70ea75-4834-463a-a42e-bb78665022cc circle{-webkit-transition:250ms;-moz-transition:250ms;transition:250ms}#chart-7e70ea75-4834-463a-a42e-bb78665022cc .graph &gt; .background{fill:black}#chart-7e70ea75-4834-463a-a42e-bb78665022cc .plot &gt; .background{fill:#111}#chart-7e70ea75-4834-463a-a42e-bb78665022cc .graph{fill:#999}#chart-7e70ea75-4834-463a-a42e-bb78665022cc text.no_data{fill:#eee}#chart-7e70ea75-4834-463a-a42e-bb78665022cc .title{fill:#eee}#chart-7e70ea75-4834-463a-a42e-bb78665022cc .legends .legend text{fill:#999}#chart-7e70ea75-4834-463a-a42e-bb78665022cc .legends .legend:hover text{fill:#eee}#chart-7e70ea75-4834-463a-a42e-bb78665022cc .axis .line{stroke:#eee}#chart-7e70ea75-4834-463a-a42e-bb78665022cc .axis .guide.line{stroke:#555}#chart-7e70ea75-4834-463a-a42e-bb78665022cc .axis .major.line{stroke:#999}#chart-7e70ea75-4834-463a-a42e-bb78665022cc .axis text.major{stroke:#eee;fill:#eee}#chart-7e70ea75-4834-463a-a42e-bb78665022cc .axis.y .guides:hover .guide.line,#chart-7e70ea75-4834-463a-a42e-bb78665022cc .line-graph .axis.x .guides:hover .guide.line,#chart-7e70ea75-4834-463a-a42e-bb78665022cc .stackedline-graph .axis.x .guides:hover .guide.line,#chart-7e70ea75-4834-463a-a42e-bb78665022cc .xy-graph .axis.x .guides:hover .guide.line{stroke:#eee}#chart-7e70ea75-4834-463a-a42e-bb78665022cc .axis .guides:hover text{fill:#eee}#chart-7e70ea75-4834-463a-a42e-bb78665022cc .reactive{fill-opacity:.8}#chart-7e70ea75-4834-463a-a42e-bb78665022cc .reactive.active,#chart-7e70ea75-4834-463a-a42e-bb78665022cc .active .reactive{fill-opacity:.4}#chart-7e70ea75-4834-463a-a42e-bb78665022cc .series{stroke-width:1.0;stroke-linejoin:round;stroke-linecap:round;stroke-dasharray:0,0}#chart-7e70ea75-4834-463a-a42e-bb78665022cc .series text{fill:#eee}#chart-7e70ea75-4834-463a-a42e-bb78665022cc .tooltip rect{fill:#111;stroke:#eee}#chart-7e70ea75-4834-463a-a42e-bb78665022cc .tooltip text{fill:#eee}#chart-7e70ea75-4834-463a-a42e-bb78665022cc .map-element{fill:#999;stroke:#555 !important;opacity:.9;stroke-width:3;-webkit-transition:250ms;-moz-transition:250ms;-o-transition:250ms;transition:250ms}#chart-7e70ea75-4834-463a-a42e-bb78665022cc .map-element:hover{opacity:1;stroke-width:10}#chart-7e70ea75-4834-463a-a42e-bb78665022cc .color-0,#chart-7e70ea75-4834-463a-a42e-bb78665022cc .color-0 a:visited{stroke:#ff5995;fill:#ff5995}#chart-7e70ea75-4834-463a-a42e-bb78665022cc .color-1,#chart-7e70ea75-4834-463a-a42e-bb78665022cc .color-1 a:visited{stroke:#b6e354;fill:#b6e354}#chart-7e70ea75-4834-463a-a42e-bb78665022cc .color-2,#chart-7e70ea75-4834-463a-a42e-bb78665022cc .color-2 a:visited{stroke:#feed6c;fill:#feed6c}#chart-7e70ea75-4834-463a-a42e-bb78665022cc .color-3,#chart-7e70ea75-4834-463a-a42e-bb78665022cc .color-3 a:visited{stroke:#8cedff;fill:#8cedff}#chart-7e70ea75-4834-463a-a42e-bb78665022cc .color-4,#chart-7e70ea75-4834-463a-a42e-bb78665022cc .color-4 a:visited{stroke:#9e6ffe;fill:#9e6ffe}#chart-7e70ea75-4834-463a-a42e-bb78665022cc .color-5,#chart-7e70ea75-4834-463a-a42e-bb78665022cc .color-5 a:visited{stroke:#899ca1;fill:#899ca1}#chart-7e70ea75-4834-463a-a42e-bb78665022cc .color-6,#chart-7e70ea75-4834-463a-a42e-bb78665022cc .color-6 a:visited{stroke:#f8f8f2;fill:#f8f8f2}#chart-7e70ea75-4834-463a-a42e-bb78665022cc .color-7,#chart-7e70ea75-4834-463a-a42e-bb78665022cc .color-7 a:visited{stroke:#bf4646;fill:#bf4646}#chart-7e70ea75-4834-463a-a42e-bb78665022cc .color-8,#chart-7e70ea75-4834-463a-a42e-bb78665022cc .color-8 a:visited{stroke:#516083;fill:#516083}#chart-7e70ea75-4834-463a-a42e-bb78665022cc .color-9,#chart-7e70ea75-4834-463a-a42e-bb78665022cc .color-9 a:visited{stroke:#f92672;fill:#f92672}#chart-7e70ea75-4834-463a-a42e-bb78665022cc .color-10,#chart-7e70ea75-4834-463a-a42e-bb78665022cc .color-10 a:visited{stroke:#82b414;fill:#82b414}#chart-7e70ea75-4834-463a-a42e-bb78665022cc .color-11,#chart-7e70ea75-4834-463a-a42e-bb78665022cc .color-11 a:visited{stroke:#fd971f;fill:#fd971f}#chart-7e70ea75-4834-463a-a42e-bb78665022cc .color-12,#chart-7e70ea75-4834-463a-a42e-bb78665022cc .color-12 a:visited{stroke:#56c2d6;fill:#56c2d6}#chart-7e70ea75-4834-463a-a42e-bb78665022cc .color-13,#chart-7e70ea75-4834-463a-a42e-bb78665022cc .color-13 a:visited{stroke:#808384;fill:#808384}#chart-7e70ea75-4834-463a-a42e-bb78665022cc .color-14,#chart-7e70ea75-4834-463a-a42e-bb78665022cc .color-14 a:visited{stroke:#8c54fe;fill:#8c54fe}#chart-7e70ea75-4834-463a-a42e-bb78665022cc .color-15,#chart-7e70ea75-4834-463a-a42e-bb78665022cc .color-15 a:visited{stroke:#465457;fill:#465457}
#chart-7e70ea75-4834-463a-a42e-bb78665022cc text.no_data{text-anchor:middle}#chart-7e70ea75-4834-463a-a42e-bb78665022cc .guide.line{fill-opacity:0}#chart-7e70ea75-4834-463a-a42e-bb78665022cc .centered{text-anchor:middle}#chart-7e70ea75-4834-463a-a42e-bb78665022cc .title{text-anchor:middle}#chart-7e70ea75-4834-463a-a42e-bb78665022cc .legends .legend text{fill-opacity:1}#chart-7e70ea75-4834-463a-a42e-bb78665022cc .axis.x text{text-anchor:middle}#chart-7e70ea75-4834-463a-a42e-bb78665022cc .axis.x:not(.web) text[transform]{text-anchor:start}#chart-7e70ea75-4834-463a-a42e-bb78665022cc .axis.y text{text-anchor:end}#chart-7e70ea75-4834-463a-a42e-bb78665022cc .axis.y2 text{text-anchor:start}#chart-7e70ea75-4834-463a-a42e-bb78665022cc .axis.y .logarithmic text:not(.major),#chart-7e70ea75-4834-463a-a42e-bb78665022cc .axis.y2 .logarithmic text:not(.major){font-size:50%}#chart-7e70ea75-4834-463a-a42e-bb78665022cc .axis .guide.line{stroke-dasharray:4,4}#chart-7e70ea75-4834-463a-a42e-bb78665022cc .axis .major.guide.line{stroke-dasharray:6,6}#chart-7e70ea75-4834-463a-a42e-bb78665022cc .axis text.major{stroke-width:0.5px}#chart-7e70ea75-4834-463a-a42e-bb78665022cc .horizontal .axis.y .guide.line,#chart-7e70ea75-4834-463a-a42e-bb78665022cc .horizontal .axis.y2 .guide.line,#chart-7e70ea75-4834-463a-a42e-bb78665022cc .vertical .axis.x .guide.line{opacity:0}#chart-7e70ea75-4834-463a-a42e-bb78665022cc .horizontal .axis.always_show .guide.line,#chart-7e70ea75-4834-463a-a42e-bb78665022cc .vertical .axis.always_show .guide.line{opacity:1 !important}#chart-7e70ea75-4834-463a-a42e-bb78665022cc .axis.y .guides:hover .guide.line,#chart-7e70ea75-4834-463a-a42e-bb78665022cc .axis.y2 .guides:hover .guide.line,#chart-7e70ea75-4834-463a-a42e-bb78665022cc .axis.x .guides:hover .guide.line{opacity:1}#chart-7e70ea75-4834-463a-a42e-bb78665022cc .axis .guides:hover text{opacity:1}#chart-7e70ea75-4834-463a-a42e-bb78665022cc .nofill{fill:none}#chart-7e70ea75-4834-463a-a42e-bb78665022cc .subtle-fill{fill-opacity:.2}#chart-7e70ea75-4834-463a-a42e-bb78665022cc .dot{stroke-width:1px;fill-opacity:1}#chart-7e70ea75-4834-463a-a42e-bb78665022cc .dot.active{stroke-width:5px}#chart-7e70ea75-4834-463a-a42e-bb78665022cc .series text{stroke:none}#chart-7e70ea75-4834-463a-a42e-bb78665022cc .series text.active{opacity:1}#chart-7e70ea75-4834-463a-a42e-bb78665022cc .tooltip rect{fill-opacity:0.8}#chart-7e70ea75-4834-463a-a42e-bb78665022cc .tooltip text{fill-opacity:1}#chart-7e70ea75-4834-463a-a42e-bb78665022cc .tooltip text tspan.label{fill-opacity:.8}</style><script type="text/javascript">window.config = {"human_readable": false, "inner_radius": 0, "show_x_labels": true, "show_only_major_dots": false, "legend_at_bottom_columns": null, "title_font_size": 16, "height": 768, "tooltip_border_radius": 0, "legend_font_size": 14, "tooltip_font_size": 16, "margin_right": null, "x_label_format": "%Y-%m-%d %H:%M:%S.%f", "margin": 20, "no_data_text": "No data", "legend_at_bottom": true, "x_labels_major": null, "missing_value_fill_truncation": "x", "show_x_guides": false, "fill": false, "major_label_font_size": 10, "y_labels_major_count": null, "no_prefix": false, "half_pie": false, "legend_box_size": 12, "rounded_bars": null, "xrange": null, "disable_xml_declaration": false, "margin_bottom": null, "x_labels_major_every": null, "y_labels_major": null, "truncate_legend": null, "y_labels_major_every": null, "x_value_formatter": null, "css": ["style.css", "graph.css"], "stack_from_top": false, "interpolate": null, "x_label_rotation": 0, "label_font_size": 10, "explicit_size": false, "pretty_print": false, "interpolation_precision": 250, "spacing": 10, "margin_left": null, "value_font_size": 8, "stroke": true, "show_y_guides": true, "logarithmic": false, "x_title": null, "zero": 0, "title": "Election 6 Participation", "mode": null, "y_title": "Users", "show_dots": false, "width": 1024, "show_y_labels": true, "style": {"colors": ["#ff5995", "#b6e354", "#feed6c", "#8cedff", "#9e6ffe", "#899ca1", "#f8f8f2", "#bf4646", "#516083", "#f92672", "#82b414", "#fd971f", "#56c2d6", "#808384", "#8c54fe", "#465457"], "transition": "250ms", "font_family": "monospace", "stroke_style": "round", "opacity_hover": ".4", "foreground_light": "#eee", "foreground_dark": "#555", "stroke_dasharray": "0,0", "stroke_width": 1.0, "opacity": ".8", "foreground": "#999", "plot_background": "#111", "background": "black"}, "strict": false, "x_labels_major_count": null, "y_label_rotation": 0, "truncate_label": null, "range": null, "js": ["http://kozea.github.io/pygal.js/javascripts/svg.jquery.js", "http://kozea.github.io/pygal.js/javascripts/pygal-tooltips.js"], "margin_top": null, "interpolation_parameters": {}, "show_minor_y_labels": true, "print_values": false, "order_min": null, "print_zeroes": false, "dots_size": 2.5, "x_labels": null, "y_labels": null, "include_x_axis": false, "show_legend": true, "show_minor_x_labels": true, "no_data_font_size": 64}</script><script type="text/javascript" xlink:href="http://kozea.github.io/pygal.js/javascripts/svg.jquery.js" /><script type="text/javascript" xlink:href="http://kozea.github.io/pygal.js/javascripts/pygal-tooltips.js" /></defs><title>Election 6 Participation</title><g class="graph line-graph vertical"><rect class="background" height="768" width="1024" x="0" y="0" /><g class="plot" transform="translate(86, 46)"><rect class="background" height="657.0" width="918.0" x="0" y="0" /><g class="axis y"><g class="guides"><path class="axis major line" d="M0.000000 644.365385 h918.000000" /><text class="major" x="-5" y="647.8653846153846">0</text></g><g class="guides"><path class="guide line" d="M0.000000 562.380988 h918.000000" /><text class="" x="-5" y="565.8809878558272">10000</text></g><g class="guides"><path class="guide line" d="M0.000000 480.396591 h918.000000" /><text class="" x="-5" y="483.89659109626996">20000</text></g><g class="guides"><path class="guide line" d="M0.000000 398.412194 h918.000000" /><text class="" x="-5" y="401.91219433671256">30000</text></g><g class="guides"><path class="guide line" d="M0.000000 316.427798 h918.000000" /><text class="" x="-5" y="319.9277975771552">40000</text></g><g class="guides"><path class="major guide line" d="M0.000000 234.443401 h918.000000" /><text class="major" x="-5" y="237.94340081759793">50000</text></g><g class="guides"><path class="guide line" d="M0.000000 152.459004 h918.000000" /><text class="" x="-5" y="155.9590040580406">60000</text></g><g class="guides"><path class="guide line" d="M0.000000 70.474607 h918.000000" /><text class="" x="-5" y="73.97460729848319">70000</text></g></g><g class="series serie-0 color-0"><path class="line reactive nofill" d="M17.653846 644.365385 L20.105769 644.365385 22.557692 644.365385 25.009615 644.365385 27.461538 644.365385 29.913462 644.365385 32.365385 644.365385 34.817308 644.365385 37.269231 644.365385 39.721154 644.365385 42.173077 644.365385 44.625000 644.365385 47.076923 644.365385 49.528846 644.365385 51.980769 644.365385 54.432692 644.365385 56.884615 644.365385 59.336538 644.365385 61.788462 644.365385 64.240385 644.365385 66.692308 644.365385 69.144231 644.365385 71.596154 644.365385 74.048077 644.365385 76.500000 644.365385 78.951923 644.365385 81.403846 644.365385 83.855769 644.365385 86.307692 644.365385 88.759615 644.365385 91.211538 644.365385 93.663462 644.365385 96.115385 644.365385 98.567308 644.365385 101.019231 644.365385 103.471154 644.365385 105.923077 644.365385 108.375000 644.365385 110.826923 644.365385 113.278846 644.365385 115.730769 644.365385 118.182692 644.365385 120.634615 644.365385 123.086538 644.365385 125.538462 644.365385 127.990385 644.365385 130.442308 644.365385 132.894231 644.365385 135.346154 644.365385 137.798077 644.365385 140.250000 644.365385 142.701923 644.365385 145.153846 644.365385 147.605769 644.365385 150.057692 644.365385 152.509615 644.365385 154.961538 644.365385 157.413462 644.365385 159.865385 644.365385 162.317308 644.365385 164.769231 644.365385 167.221154 644.365385 169.673077 644.365385 172.125000 644.365385 174.576923 644.365385 177.028846 644.365385 179.480769 644.365385 181.932692 644.365385 184.384615 644.365385 186.836538 644.365385 189.288462 644.365385 191.740385 644.365385 194.192308 644.365385 196.644231 644.365385 199.096154 644.365385 201.548077 644.365385 204.000000 644.365385 206.451923 644.365385 208.903846 644.365385 211.355769 644.365385 213.807692 644.365385 216.259615 644.365385 218.711538 644.365385 221.163462 644.365385 223.615385 644.365385 226.067308 644.365385 228.519231 644.365385 230.971154 644.365385 233.423077 644.365385 235.875000 644.365385 238.326923 644.365385 240.778846 644.365385 243.230769 644.365385 245.682692 644.365385 248.134615 644.365385 250.586538 644.365385 253.038462 644.365385 255.490385 644.365385 257.942308 644.365385 260.394231 644.365385 262.846154 644.365385 265.298077 644.365385 267.750000 644.365385 270.201923 644.365385 272.653846 644.365385 275.105769 644.365385 277.557692 644.365385 280.009615 644.365385 282.461538 644.365385 284.913462 644.365385 287.365385 644.365385 289.817308 644.365385 292.269231 644.365385 294.721154 644.365385 297.173077 644.365385 299.625000 644.365385 302.076923 644.365385 304.528846 644.365385 306.980769 644.365385 309.432692 644.365385 311.884615 644.365385 314.336538 644.365385 316.788462 644.365385 319.240385 644.365385 321.692308 644.365385 324.144231 644.365385 326.596154 644.365385 329.048077 644.365385 331.500000 644.365385 333.951923 644.365385 336.403846 644.365385 338.855769 644.365385 341.307692 644.365385 343.759615 644.365385 346.211538 644.365385 348.663462 644.365385 351.115385 644.365385 353.567308 644.365385 356.019231 644.365385 358.471154 644.365385 360.923077 644.365385 363.375000 644.365385 365.826923 644.365385 368.278846 644.365385 370.730769 644.365385 373.182692 644.365385 375.634615 644.365385 378.086538 644.365385 380.538462 644.365385 382.990385 644.365385 385.442308 644.365385 387.894231 644.365385 390.346154 644.365385 392.798077 644.365385 395.250000 644.365385 397.701923 644.365385 400.153846 644.365385 402.605769 644.365385 405.057692 644.365385 407.509615 644.365385 409.961538 644.365385 412.413462 644.365385 414.865385 644.365385 417.317308 644.365385 419.769231 644.365385 422.221154 644.365385 424.673077 644.365385 427.125000 644.365385 429.576923 644.365385 432.028846 644.365385 434.480769 644.365385 436.932692 644.365385 439.384615 644.365385 441.836538 644.365385 444.288462 644.365385 446.740385 644.365385 449.192308 644.365385 451.644231 644.365385 454.096154 644.365385 456.548077 644.365385 459.000000 644.365385 461.451923 644.365385 463.903846 644.365385 466.355769 644.365385 468.807692 644.365385 471.259615 644.365385 473.711538 644.365385 476.163462 644.365385 478.615385 644.365385 481.067308 644.365385 483.519231 644.365385 485.971154 644.365385 488.423077 644.365385 490.875000 644.365385 493.326923 644.365385 495.778846 644.365385 498.230769 644.365385 500.682692 644.365385 503.134615 644.365385 505.586538 644.365385 508.038462 644.365385 510.490385 644.365385 512.942308 644.365385 515.394231 644.365385 517.846154 644.365385 520.298077 644.365385 522.750000 644.365385 525.201923 644.365385 527.653846 644.365385 530.105769 644.365385 532.557692 644.365385 535.009615 644.365385 537.461538 644.365385 539.913462 644.365385 542.365385 644.365385 544.817308 644.365385 547.269231 644.365385 549.721154 644.365385 552.173077 644.365385 554.625000 644.365385 557.076923 644.365385 559.528846 644.365385 561.980769 644.365385 564.432692 644.365385 566.884615 644.365385 569.336538 644.365385 571.788462 644.365385 574.240385 644.365385 576.692308 644.365385 579.144231 644.365385 581.596154 644.365385 584.048077 644.365385 586.500000 644.365385 588.951923 644.365385 591.403846 644.365385 593.855769 644.365385 596.307692 644.365385 598.759615 644.365385 601.211538 644.365385 603.663462 644.365385 606.115385 644.365385 608.567308 644.365385 611.019231 644.365385 613.471154 644.365385 615.923077 644.365385 618.375000 644.365385 620.826923 644.365385 623.278846 644.365385 625.730769 644.365385 628.182692 644.365385 630.634615 644.365385 633.086538 644.365385 635.538462 644.365385 637.990385 644.365385 640.442308 644.365385 642.894231 644.365385 645.346154 644.365385 647.798077 644.365385 650.250000 644.365385 652.701923 644.365385 655.153846 644.365385 657.605769 644.365385 660.057692 644.365385 662.509615 644.365385 664.961538 618.097584 667.413462 606.004885 669.865385 599.298562 672.317308 595.330517 674.769231 592.239705 677.221154 589.509625 679.673077 587.050093 682.125000 584.205234 684.576923 580.425754 687.028846 576.720059 689.480769 573.055356 691.932692 568.849557 694.384615 565.152060 696.836538 560.962658 699.288462 557.166780 701.740385 554.100564 704.192308 551.165522 706.644231 548.287870 709.096154 545.549591 711.548077 543.032670 714.000000 540.876481 716.451923 538.416949 718.903846 536.523109 721.355769 534.293134 723.807692 532.768224 726.259615 531.513862 728.711538 530.538248 731.163462 529.710206 733.615385 529.111720 736.067308 528.455844 738.519231 527.849160 740.971154 527.299864 743.423077 526.709577 745.875000 525.848741 748.326923 524.651768 750.778846 523.553178 753.230769 522.110252 755.682692 520.946074 758.134615 519.560537 760.586538 518.183200 763.038462 516.969830 765.490385 515.723668 767.942308 514.707061 770.394231 513.419906 772.846154 512.165545 775.298077 510.952176 777.750000 509.763402 780.201923 508.648414 782.653846 507.680998 785.105769 506.664392 787.557692 505.918334 790.009615 504.991910 792.461538 504.098280 794.913462 503.081674 797.365385 501.983083 799.817308 500.786111 802.269231 498.424960 804.721154 495.096393 807.173077 490.431481 809.625000 484.356437 812.076923 478.797895 814.528846 473.575489 816.980769 470.181335 819.432692 467.188905 821.884615 463.556996 824.336538 459.810309 826.788462 456.284980 829.240385 453.579495 831.692308 451.685655 834.144231 450.332913 836.596154 448.840797 839.048077 447.430665 841.500000 446.356670 843.951923 445.241682 846.403846 444.667791 848.855769 444.249671 851.307692 443.683978 853.759615 443.290453 856.211538 442.888730 858.663462 442.855936 861.115385 442.855936 863.567308 442.855936 866.019231 442.855936 868.471154 442.855936 870.923077 442.855936 873.375000 442.855936 875.826923 442.855936 878.278846 442.855936 880.730769 442.855936 883.182692 442.855936 885.634615 442.855936 888.086538 442.855936 890.538462 442.855936 892.990385 442.855936 895.442308 442.855936 897.894231 442.855936 900.346154 442.855936" /></g><g class="series serie-1 color-1"><path class="line reactive nofill" d="M17.653846 627.911116 L20.105769 621.754088 22.557692 618.318942 25.009615 616.031577 27.461538 613.875387 29.913462 612.440661 32.365385 610.997735 34.817308 609.317055 37.269231 606.808332 39.721154 603.578147 42.173077 600.200390 44.625000 595.576470 47.076923 591.346075 49.528846 588.468423 51.980769 585.820327 54.432692 583.623145 56.884615 581.343979 59.336538 579.114003 61.788462 576.867631 64.240385 574.908204 66.692308 573.366897 69.144231 571.997758 71.596154 570.784389 74.048077 569.636607 76.500000 568.734779 78.951923 567.627989 81.403846 567.103289 83.855769 566.726161 86.307692 566.267048 88.759615 565.832531 91.211538 565.545586 93.663462 565.275037 96.115385 564.725742 98.567308 564.086263 101.019231 563.389396 103.471154 562.446575 105.923077 561.503755 108.375000 560.577331 110.826923 559.700098 113.278846 558.970437 115.730769 558.134196 118.182692 557.273360 120.634615 556.527302 123.086538 555.879625 125.538462 555.338528 127.990385 554.690851 130.442308 554.108762 132.894231 553.625054 135.346154 553.133148 137.798077 552.739623 140.250000 552.354296 142.701923 552.206724 145.153846 552.034557 147.605769 551.854191 150.057692 551.624635 152.509615 551.444269 154.961538 551.099935 157.413462 550.665418 159.865385 550.296488 162.317308 549.722597 164.769231 549.140508 167.221154 548.648601 169.673077 548.148497 172.125000 547.574606 174.576923 547.090898 177.028846 546.492412 179.480769 545.877529 181.932692 545.295440 184.384615 544.844525 186.836538 544.532985 189.288462 544.172253 191.740385 543.795125 194.192308 543.327814 196.644231 543.032670 199.096154 542.844106 201.548077 542.663740 204.000000 542.540764 206.451923 542.401390 208.903846 542.245620 211.355769 542.130842 213.807692 541.884889 216.259615 541.597943 218.711538 541.229013 221.163462 540.901076 223.615385 540.556741 226.067308 540.114026 228.519231 539.679508 230.971154 539.335174 233.423077 538.917054 235.875000 538.531727 238.326923 538.121805 240.778846 537.802066 243.230769 537.588906 245.682692 537.334755 248.134615 537.105198 250.586538 536.892039 253.038462 536.605094 255.490385 536.432926 257.942308 536.285354 260.394231 536.170576 262.846154 536.031203 265.298077 535.924623 267.750000 535.859036 270.201923 535.793448 272.653846 535.662273 275.105769 535.588487 277.557692 535.449114 280.009615 535.309740 282.461538 535.227756 284.913462 535.129374 287.365385 535.055588 289.817308 534.883421 292.269231 534.727651 294.721154 534.629270 297.173077 534.432507 299.625000 534.268538 302.076923 534.120966 304.528846 533.948799 306.980769 533.735640 309.432692 533.604465 311.884615 533.506083 314.336538 533.432297 316.788462 533.276527 319.240385 533.161749 321.692308 533.071566 324.144231 532.964986 326.596154 532.874803 329.048077 532.809216 331.500000 532.694438 333.951923 532.587858 336.403846 532.481278 338.855769 532.391096 341.307692 532.309111 343.759615 532.120547 346.211538 531.981174 348.663462 531.817205 351.115385 531.677831 353.567308 531.546656 356.019231 531.415481 358.471154 531.276108 360.923077 531.177726 363.375000 531.054750 365.826923 530.915376 368.278846 530.718614 370.730769 530.579240 373.182692 530.423470 375.634615 530.333287 378.086538 530.243104 380.538462 530.152921 382.990385 530.046342 385.442308 529.898770 387.894231 529.824984 390.346154 529.718404 392.798077 529.513443 395.250000 529.308482 397.701923 528.923156 400.153846 528.496837 402.605769 528.004930 405.057692 527.611405 407.509615 527.160491 409.961538 526.758767 412.413462 526.160281 414.865385 525.676573 417.317308 525.414223 419.769231 525.119080 422.221154 524.799340 424.673077 524.455006 427.125000 524.086076 429.576923 483.257847 432.028846 463.860338 434.480769 453.374534 436.932692 445.635207 439.384615 438.994471 441.836538 433.427730 444.288462 427.147725 446.740385 421.007094 449.192308 412.111787 451.644231 399.150054 454.096154 382.089101 456.548077 360.371434 459.000000 341.711786 461.451923 325.273914 463.903846 312.582729 466.355769 301.416455 468.807692 289.996028 471.259615 279.223278 473.711538 268.942435 476.163462 260.662011 478.615385 254.357411 481.067308 248.880853 483.519231 243.814217 485.971154 239.214893 488.423077 235.320634 490.875000 231.893686 493.326923 229.614520 495.778846 228.155198 498.230769 226.950027 500.682692 225.621880 503.134615 224.359320 505.586538 222.777021 508.038462 220.653625 510.490385 217.882553 512.942308 214.168659 515.394231 209.962860 517.846154 205.748862 520.298077 201.321705 522.750000 197.394652 525.201923 193.598774 527.653846 189.811095 530.105769 185.933233 532.557692 181.948792 535.009615 178.792392 537.461538 175.808160 539.913462 173.496200 542.365385 171.110454 544.817308 169.019852 547.269231 166.962044 549.721154 165.560111 552.173077 164.338543 554.625000 163.354730 557.076923 162.641466 559.528846 161.706844 561.980769 160.993580 564.432692 160.083553 566.884615 159.001359 569.336538 157.878173 571.788462 155.844960 574.240385 153.770754 576.692308 151.655557 579.144231 149.286208 581.596154 147.146415 584.048077 145.121401 586.500000 142.719258 588.951923 140.538473 591.403846 138.472466 593.855769 136.947556 596.307692 135.168495 598.759615 133.602593 601.211538 132.438414 603.663462 131.282434 606.115385 130.060867 608.567308 129.060657 611.019231 128.363790 613.471154 127.830891 615.923077 127.347183 618.375000 126.961857 620.826923 126.453553 623.278846 125.928853 625.730769 125.346764 628.182692 124.608904 630.634615 123.764465 633.086538 122.756057 635.538462 121.436108 637.990385 120.091564 640.442308 119.042164 642.894231 118.041954 645.346154 116.607227 647.798077 115.205294 650.250000 113.713178 652.701923 112.622786 655.153846 111.835735 657.605769 110.868320 660.057692 109.933697 662.509615 109.179441 664.961538 100.669461 667.413462 96.111128 669.865385 93.217079 672.317308 91.372430 674.769231 90.200053 677.221154 89.158851 679.673077 88.355404 682.125000 87.404385 684.576923 86.223810 687.028846 84.871067 689.480769 83.510126 691.932692 81.985217 694.384615 80.673466 696.836538 78.968191 699.288462 77.574456 701.740385 76.393881 704.192308 74.868971 706.644231 73.622808 709.096154 72.343852 711.548077 71.081292 714.000000 70.081082 716.451923 68.949698 718.903846 67.998679 721.355769 66.785309 723.807692 65.899878 726.259615 65.088232 728.711538 64.579929 731.163462 63.973245 733.615385 63.604315 736.067308 63.227187 738.519231 62.932043 740.971154 62.604105 743.423077 62.267969 745.875000 61.874444 748.326923 61.316950 750.778846 60.726663 753.230769 59.833033 755.682692 58.988593 758.134615 58.135956 760.586538 57.537469 763.038462 56.717626 765.490385 56.037155 767.942308 55.397677 770.394231 54.569634 772.846154 53.831775 775.298077 53.036526 777.750000 52.487231 780.201923 51.872348 782.653846 51.167282 785.105769 50.568796 787.557692 50.150675 790.009615 49.691563 792.461538 49.240649 794.913462 48.617567 797.365385 48.051875 799.817308 47.371404 802.269231 46.412187 804.721154 44.985658 807.173077 42.944247 809.625000 40.460120 812.076923 37.590666 814.528846 34.524449 816.980769 32.499435 819.432692 30.523611 821.884615 28.219849 824.336538 25.899691 826.788462 23.686112 829.240385 21.751280 831.692308 20.439530 834.144231 19.209764 836.596154 17.996395 839.048077 16.717438 841.500000 15.725427 843.951923 14.913782 846.403846 14.225113 848.855769 13.798794 851.307692 13.470856 853.759615 13.044537 856.211538 12.675608 858.663462 12.634615 861.115385 12.634615 863.567308 12.634615 866.019231 12.634615 868.471154 12.634615 870.923077 12.634615 873.375000 12.634615 875.826923 12.634615 878.278846 12.634615 880.730769 12.634615 883.182692 12.634615 885.634615 12.634615 888.086538 12.634615 890.538462 12.634615 892.990385 12.634615 895.442308 12.634615 897.894231 12.634615 900.346154 12.634615" /></g></g><g class="titles"><text class="title plot_title" x="512.0" y="26">Election 6 Participation</text><text class="title" transform="rotate(-90 0.000000 374.500000)" x="0" y="400.5">Users</text></g><g class="plot overlay" transform="translate(86, 46)"><g class="series serie-0 color-0" /><g class="series serie-1 color-1" /></g><g class="plot text-overlay" transform="translate(86, 46)"><g class="series serie-0 color-0" /><g class="series serie-1 color-1" /></g><g class="plot tooltip-overlay" transform="translate(86, 46)"><g class="tooltip" style="opacity: 0" transform="translate(0 0)"><a><rect class="tooltip-box" height="0" rx="0" ry="0" width="0" /><text class="text"><tspan class="label" /><tspan class="value" /></text></a></g></g><g class="legends" transform="translate(96, 713)"><g class="legend reactive activate-serie" id="activate-serie-0"><rect class="color-0 reactive" height="12" width="12" x="0.0" y="1.0" /><text x="17.0" y="11.2">constituents</text></g><g class="legend reactive activate-serie" id="activate-serie-1"><rect class="color-1 reactive" height="12" width="12" x="459.0" y="1.0" /><text x="476.0" y="11.2">caucus</text></g></g></g></svg>