<?xml version='1.0' encoding='utf-8'?>
<svg xmlns:xlink="http://www.w3.org/1999/xlink" class="pygal-chart" id="chart-cf729f42-4cce-451c-b603-22f8f53b49d1" viewBox="0 0 1024 768" xmlns="http://www.w3.org/2000/svg"><!--Generated with pygal 1.7.0 (etree) ©Kozea 2011-2014 on 2015-11-17--><!--http://pygal.org--><!--http://github.com/Kozea/pygal--><defs><style type="text/css">#chart-cf729f42-4cce-451c-b603-22f8f53b49d1 .title{font-family:"monospace";font-size:16px}#chart-cf729f42-4cce-451c-b603-22f8f53b49d1 .legends .legend text{font-family:"monospace";font-size:14px}#chart-cf729f42-4cce-451c-b603-22f8f53b49d1 .axis text{font-family:"monospace";font-size:10px}#chart-cf729f42-4cce-451c-b603-22f8f53b49d1 .axis text.major{font-family:"monospace";font-size:10px}#chart-cf729f42-4cce-451c-b603-22f8f53b49d1 .series text{font-family:"monospace";font-size:8px}#chart-cf729f42-4cce-451c-b603-22f8f53b49d1 .tooltip text{font-family:"monospace";font-size:16px}#chart-cf729f42-4cce-451c-b603-22f8f53b49d1 text.no_data{font-size:64px}
#chart-cf729f42-4cce-451c-b603-22f8f53b49d1{background-color:black}#chart-cf729f42-4cce-451c-b603-22f8f53b49d1 path,#chart-cf729f42-4cce-451c-b603-22f8f53b49d1 line,#chart-cf729f42-4cce-451c-b603-22f8f53b49d1 rect,#chart-cf729f42-4cce-451c-b603-22f8f53b49d1 circle{-webkit-transition:250ms;-moz-transition:250ms;transition:250ms}#chart-cf729f42-4cce-451c-b603-22f8f53b49d1 .graph &gt; .background{fill:black}#chart-cf729f42-4cce-451c-b603-22f8f53b49d1 .plot &gt; .background{fill:#111}#chart-cf729f42-4cce-451c-b603-22f8f53b49d1 .graph{fill:#999}#chart-cf729f42-4cce-451c-b603-22f8f53b49d1 text.no_data{fill:#eee}#chart-cf729f42-4cce-451c-b603-22f8f53b49d1 .title{fill:#eee}#chart-cf729f42-4cce-451c-b603-22f8f53b49d1 .legends .legend text{fill:#999}#chart-cf729f42-4cce-451c-b603-22f8f53b49d1 .legends .legend:hover text{fill:#eee}#chart-cf729f42-4cce-451c-b603-22f8f53b49d1 .axis .line{stroke:#eee}#chart-cf729f42-4cce-451c-b603-22f8f53b49d1 .axis .guide.line{stroke:#555}#chart-cf729f42-4cce-451c-b603-22f8f53b49d1 .axis .major.line{stroke:#999}#chart-cf729f42-4cce-451c-b603-22f8f53b49d1 .axis text.major{stroke:#eee;fill:#eee}#chart-cf729f42-4cce-451c-b603-22f8f53b49d1 .axis.y .guides:hover .guide.line,#chart-cf729f42-4cce-451c-b603-22f8f53b49d1 .line-graph .axis.x .guides:hover .guide.line,#chart-cf729f42-4cce-451c-b603-22f8f53b49d1 .stackedline-graph .axis.x .guides:hover .guide.line,#chart-cf729f42-4cce-451c-b603-22f8f53b49d1 .xy-graph .axis.x .guides:hover .guide.line{stroke:#eee}#chart-cf729f42-4cce-451c-b603-22f8f53b49d1 .axis .guides:hover text{fill:#eee}#chart-cf729f42-4cce-451c-b603-22f8f53b49d1 .reactive{fill-opacity:.8}#chart-cf729f42-4cce-451c-b603-22f8f53b49d1 .reactive.active,#chart-cf729f42-4cce-451c-b603-22f8f53b49d1 .active .reactive{fill-opacity:.4}#chart-cf729f42-4cce-451c-b603-22f8f53b49d1 .series{stroke-width:1.0;stroke-linejoin:round;stroke-linecap:round;stroke-dasharray:0,0}#chart-cf729f42-4cce-451c-b603-22f8f53b49d1 .series text{fill:#eee}#chart-cf729f42-4cce-451c-b603-22f8f53b49d1 .tooltip rect{fill:#111;stroke:#eee}#chart-cf729f42-4cce-451c-b603-22f8f53b49d1 .tooltip text{fill:#eee}#chart-cf729f42-4cce-451c-b603-22f8f53b49d1 .map-element{fill:#999;stroke:#555 !important;opacity:.9;stroke-width:3;-webkit-transition:250ms;-moz-transition:250ms;-o-transition:250ms;transition:250ms}#chart-cf729f42-4cce-451c-b603-22f8f53b49d1 .map-element:hover{opacity:1;stroke-width:10}#chart-cf729f42-4cce-451c-b603-22f8f53b49d1 .color-0,#chart-cf729f42-4cce-451c-b603-22f8f53b49d1 .color-0 a:visited{stroke:#ff5995;fill:#ff5995}#chart-cf729f42-4cce-451c-b603-22f8f53b49d1 .color-1,#chart-cf729f42-4cce-451c-b603-22f8f53b49d1 .color-1 a:visited{stroke:#b6e354;fill:#b6e354}#chart-cf729f42-4cce-451c-b603-22f8f53b49d1 .color-2,#chart-cf729f42-4cce-451c-b603-22f8f53b49d1 .color-2 a:visited{stroke:#feed6c;fill:#feed6c}#chart-cf729f42-4cce-451c-b603-22f8f53b49d1 .color-3,#chart-cf729f42-4cce-451c-b603-22f8f53b49d1 .color-3 a:visited{stroke:#8cedff;fill:#8cedff}#chart-cf729f42-4cce-451c-b603-22f8f53b49d1 .color-4,#chart-cf729f42-4cce-451c-b603-22f8f53b49d1 .color-4 a:visited{stroke:#9e6ffe;fill:#9e6ffe}#chart-cf729f42-4cce-451c-b603-22f8f53b49d1 .color-5,#chart-cf729f42-4cce-451c-b603-22f8f53b49d1 .color-5 a:visited{stroke:#899ca1;fill:#899ca1}#chart-cf729f42-4cce-451c-b603-22f8f53b49d1 .color-6,#chart-cf729f42-4cce-451c-b603-22f8f53b49d1 .color-6 a:visited{stroke:#f8f8f2;fill:#f8f8f2}#chart-cf729f42-4cce-451c-b603-22f8f53b49d1 .color-7,#chart-cf729f42-4cce-451c-b603-22f8f53b49d1 .color-7 a:visited{stroke:#bf4646;fill:#bf4646}#chart-cf729f42-4cce-451c-b603-22f8f53b49d1 .color-8,#chart-cf729f42-4cce-451c-b603-22f8f53b49d1 .color-8 a:visited{stroke:#516083;fill:#516083}#chart-cf729f42-4cce-451c-b603-22f8f53b49d1 .color-9,#chart-cf729f42-4cce-451c-b603-22f8f53b49d1 .color-9 a:visited{stroke:#f92672;fill:#f92672}#chart-cf729f42-4cce-451c-b603-22f8f53b49d1 .color-10,#chart-cf729f42-4cce-451c-b603-22f8f53b49d1 .color-10 a:visited{stroke:#82b414;fill:#82b414}#chart-cf729f42-4cce-451c-b603-22f8f53b49d1 .color-11,#chart-cf729f42-4cce-451c-b603-22f8f53b49d1 .color-11 a:visited{stroke:#fd971f;fill:#fd971f}#chart-cf729f42-4cce-451c-b603-22f8f53b49d1 .color-12,#chart-cf729f42-4cce-451c-b603-22f8f53b49d1 .color-12 a:visited{stroke:#56c2d6;fill:#56c2d6}#chart-cf729f42-4cce-451c-b603-22f8f53b49d1 .color-13,#chart-cf729f42-4cce-451c-b603-22f8f53b49d1 .color-13 a:visited{stroke:#808384;fill:#808384}#chart-cf729f42-4cce-451c-b603-22f8f53b49d1 .color-14,#chart-cf729f42-4cce-451c-b603-22f8f53b49d1 .color-14 a:visited{stroke:#8c54fe;fill:#8c54fe}#chart-cf729f42-4cce-451c-b603-22f8f53b49d1 .color-15,#chart-cf729f42-4cce-451c-b603-22f8f53b49d1 .color-15 a:visited{stroke:#465457;fill:#465457}
#chart-cf729f42-4cce-451c-b603-22f8f53b49d1 text.no_data{text-anchor:middle}#chart-cf729f42-4cce-451c-b603-22f8f53b49d1 .guide.line{fill-opacity:0}#chart-cf729f42-4cce-451c-b603-22f8f53b49d1 .centered{text-anchor:middle}#chart-cf729f42-4cce-451c-b603-22f8f53b49d1 .title{text-anchor:middle}#chart-cf729f42-4cce-451c-b603-22f8f53b49d1 .legends .legend text{fill-opacity:1}#chart-cf729f42-4cce-451c-b603-22f8f53b49d1 .axis.x text{text-anchor:middle}#chart-cf729f42-4cce-451c-b603-22f8f53b49d1 .axis.x:not(.web) text[transform]{text-anchor:start}#chart-cf729f42-4cce-451c-b603-22f8f53b49d1 .axis.y text{text-anchor:end}#chart-cf729f42-4cce-451c-b603-22f8f53b49d1 .axis.y2 text{text-anchor:start}#chart-cf729f42-4cce-451c-b603-22f8f53b49d1 .axis.y .logarithmic text:not(.major),#chart-cf729f42-4cce-451c-b603-22f8f53b49d1 .axis.y2 .logarithmic text:not(.major){font-size:50%}#chart-cf729f42-4cce-451c-b603-22f8f53b49d1 .axis .guide.line{stroke-dasharray:4,4}#chart-cf729f42-4cce-451c-b603-22f8f53b49d1 .axis .major.guide.line{stroke-dasharray:6,6}#chart-cf729f42-4cce-451c-b603-22f8f53b49d1 .axis text.major{stroke-width:0.5px}#chart-cf729f42-4cce-451c-b603-22f8f53b49d1 .horizontal .axis.y .guide.line,#chart-cf729f42-4cce-451c-b603-22f8f53b49d1 .horizontal .axis.y2 .guide.line,#chart-cf729f42-4cce-451c-b603-22f8f53b49d1 .vertical .axis.x .guide.line{opacity:0}#chart-cf729f42-4cce-451c-b603-22f8f53b49d1 .horizontal .axis.always_show .guide.line,#chart-cf729f42-4cce-451c-b603-22f8f53b49d1 .vertical .axis.always_show .guide.line{opacity:1 !important}#chart-cf729f42-4cce-451c-b603-22f8f53b49d1 .axis.y .guides:hover .guide.line,#chart-cf729f42-4cce-451c-b603-22f8f53b49d1 .axis.y2 .guides:hover .guide.line,#chart-cf729f42-4cce-451c-b603-22f8f53b49d1 .axis.x .guides:hover .guide.line{opacity:1}#chart-cf729f42-4cce-451c-b603-22f8f53b49d1 .axis .guides:hover text{opacity:1}#chart-cf729f42-4cce-451c-b603-22f8f53b49d1 .nofill{fill:none}#chart-cf729f42-4cce-451c-b603-22f8f53b49d1 .subtle-fill{fill-opacity:.2}#chart-cf729f42-4cce-451c-b603-22f8f53b49d1 .dot{stroke-width:1px;fill-opacity:1}#chart-cf729f42-4cce-451c-b603-22f8f53b49d1 .dot.active{stroke-width:5px}#chart-cf729f42-4cce-451c-b603-22f8f53b49d1 .series text{stroke:none}#chart-cf729f42-4cce-451c-b603-22f8f53b49d1 .series text.active{opacity:1}#chart-cf729f42-4cce-451c-b603-22f8f53b49d1 .tooltip rect{fill-opacity:0.8}#chart-cf729f42-4cce-451c-b603-22f8f53b49d1 .tooltip text{fill-opacity:1}#chart-cf729f42-4cce-451c-b603-22f8f53b49d1 .tooltip text tspan.label{fill-opacity:.8}</style><script type="text/javascript">window.config = {"no_prefix": false, "legend_at_bottom": true, "interpolate": null, "y_labels": null, "x_value_formatter": null, "title": "Election 7 Participation", "x_label_rotation": 0, "y_title": "Users", "include_x_axis": false, "y_labels_major_every": null, "x_title": null, "range": null, "y_labels_major": null, "margin_bottom": null, "y_labels_major_count": null, "missing_value_fill_truncation": "x", "x_labels_major": null, "rounded_bars": null, "no_data_text": "No data", "height": 768, "x_labels": null, "major_label_font_size": 10, "x_labels_major_every": null, "x_labels_major_count": null, "legend_box_size": 12, "margin_left": null, "margin_top": null, "dots_size": 2.5, "explicit_size": false, "print_values": false, "no_data_font_size": 64, "show_x_labels": true, "xrange": null, "margin": 20, "logarithmic": false, "width": 1024, "disable_xml_declaration": false, "title_font_size": 16, "css": ["style.css", "graph.css"], "show_minor_x_labels": true, "fill": false, "strict": false, "style": {"foreground": "#999", "opacity": ".8", "plot_background": "#111", "foreground_dark": "#555", "font_family": "monospace", "stroke_style": "round", "opacity_hover": ".4", "stroke_dasharray": "0,0", "colors": ["#ff5995", "#b6e354", "#feed6c", "#8cedff", "#9e6ffe", "#899ca1", "#f8f8f2", "#bf4646", "#516083", "#f92672", "#82b414", "#fd971f", "#56c2d6", "#808384", "#8c54fe", "#465457"], "stroke_width": 1.0, "transition": "250ms", "background": "black", "foreground_light": "#eee"}, "print_zeroes": false, "show_legend": true, "show_x_guides": false, "human_readable": false, "order_min": null, "y_label_rotation": 0, "label_font_size": 10, "legend_at_bottom_columns": null, "truncate_legend": null, "show_dots": false, "interpolation_parameters": {}, "tooltip_font_size": 16, "js": ["http://kozea.github.io/pygal.js/javascripts/svg.jquery.js", "http://kozea.github.io/pygal.js/javascripts/pygal-tooltips.js"], "margin_right": null, "show_y_labels": true, "stack_from_top": false, "legend_font_size": 14, "x_label_format": "%Y-%m-%d %H:%M:%S.%f", "value_font_size": 8, "truncate_label": null, "show_y_guides": true, "interpolation_precision": 250, "show_minor_y_labels": true, "stroke": true, "show_only_major_dots": false, "pretty_print": false, "spacing": 10, "zero": 0, "inner_radius": 0, "mode": null, "half_pie": false, "tooltip_border_radius": 0}</script><script type="text/javascript" xlink:href="http://kozea.github.io/pygal.js/javascripts/svg.jquery.js" /><script type="text/javascript" xlink:href="http://kozea.github.io/pygal.js/javascripts/pygal-tooltips.js" /></defs><title>Election 7 Participation</title><g class="graph line-graph vertical"><rect class="background" height="768" width="1024" x="0" y="0" /><g class="plot" transform="translate(86, 46)"><rect class="background" height="657.0" width="918.0" x="0" y="0" /><g class="axis y"><g class="guides"><path class="axis major line" d="M0.000000 644.365385 h918.000000" /><text class="major" x="-5" y="647.8653846153846">0</text></g><g class="guides"><path class="guide line" d="M0.000000 521.953547 h918.000000" /><text class="" x="-5" y="525.4535472230214">10000</text></g><g class="guides"><path class="guide line" d="M0.000000 399.541710 h918.000000" /><text class="" x="-5" y="403.041709830658">20000</text></g><g class="guides"><path class="guide line" d="M0.000000 277.129872 h918.000000" /><text class="" x="-5" y="280.62987243829474">30000</text></g><g class="guides"><path class="guide line" d="M0.000000 154.718035 h918.000000" /><text class="" x="-5" y="158.21803504593146">40000</text></g><g class="guides"><path class="major guide line" d="M0.000000 32.306198 h918.000000" /><text class="major" x="-5" y="35.80619765356812">50000</text></g></g><g class="series serie-0 color-0"><path class="line reactive nofill" d="M17.653846 644.365385 L20.105769 644.365385 22.557692 644.365385 25.009615 644.365385 27.461538 644.365385 29.913462 644.365385 32.365385 644.365385 34.817308 644.365385 37.269231 644.365385 39.721154 644.365385 42.173077 644.365385 44.625000 644.365385 47.076923 644.365385 49.528846 644.365385 51.980769 644.365385 54.432692 644.365385 56.884615 644.365385 59.336538 644.365385 61.788462 644.365385 64.240385 644.365385 66.692308 644.365385 69.144231 644.365385 71.596154 644.365385 74.048077 644.365385 76.500000 644.365385 78.951923 644.365385 81.403846 644.365385 83.855769 644.365385 86.307692 644.365385 88.759615 644.365385 91.211538 644.365385 93.663462 644.365385 96.115385 644.365385 98.567308 644.365385 101.019231 644.365385 103.471154 644.365385 105.923077 644.365385 108.375000 644.365385 110.826923 644.365385 113.278846 644.365385 115.730769 644.365385 118.182692 644.365385 120.634615 644.365385 123.086538 644.365385 125.538462 644.365385 127.990385 644.365385 130.442308 644.365385 132.894231 644.365385 135.346154 644.365385 137.798077 644.365385 140.250000 644.365385 142.701923 644.365385 145.153846 644.365385 147.605769 644.365385 150.057692 644.365385 152.509615 644.365385 154.961538 644.365385 157.413462 644.365385 159.865385 644.365385 162.317308 644.365385 164.769231 644.365385 167.221154 644.365385 169.673077 644.365385 172.125000 644.365385 174.576923 644.365385 177.028846 644.365385 179.480769 644.365385 181.932692 644.365385 184.384615 644.365385 186.836538 644.365385 189.288462 644.365385 191.740385 644.365385 194.192308 644.365385 196.644231 644.365385 199.096154 644.365385 201.548077 644.365385 204.000000 644.365385 206.451923 644.365385 208.903846 644.365385 211.355769 644.365385 213.807692 644.365385 216.259615 644.365385 218.711538 644.365385 221.163462 644.365385 223.615385 644.365385 226.067308 644.365385 228.519231 644.365385 230.971154 644.365385 233.423077 644.365385 235.875000 644.365385 238.326923 644.365385 240.778846 644.365385 243.230769 644.365385 245.682692 644.365385 248.134615 644.365385 250.586538 644.365385 253.038462 644.365385 255.490385 644.365385 257.942308 644.365385 260.394231 644.365385 262.846154 644.365385 265.298077 644.365385 267.750000 644.365385 270.201923 644.365385 272.653846 644.365385 275.105769 644.365385 277.557692 644.365385 280.009615 644.365385 282.461538 644.365385 284.913462 644.365385 287.365385 644.365385 289.817308 644.365385 292.269231 644.365385 294.721154 644.365385 297.173077 644.365385 299.625000 644.365385 302.076923 644.365385 304.528846 644.365385 306.980769 644.365385 309.432692 644.365385 311.884615 644.365385 314.336538 644.365385 316.788462 644.365385 319.240385 644.365385 321.692308 644.365385 324.144231 644.365385 326.596154 644.365385 329.048077 644.365385 331.500000 644.365385 333.951923 644.365385 336.403846 644.365385 338.855769 644.365385 341.307692 644.365385 343.759615 644.365385 346.211538 644.365385 348.663462 644.365385 351.115385 644.365385 353.567308 644.365385 356.019231 644.365385 358.471154 644.365385 360.923077 644.365385 363.375000 644.365385 365.826923 644.365385 368.278846 644.365385 370.730769 644.365385 373.182692 644.365385 375.634615 644.365385 378.086538 644.365385 380.538462 644.365385 382.990385 644.365385 385.442308 644.365385 387.894231 644.365385 390.346154 644.365385 392.798077 644.365385 395.250000 644.365385 397.701923 644.365385 400.153846 644.365385 402.605769 644.365385 405.057692 644.365385 407.509615 644.365385 409.961538 644.365385 412.413462 644.365385 414.865385 644.365385 417.317308 644.365385 419.769231 644.365385 422.221154 644.365385 424.673077 644.365385 427.125000 644.365385 429.576923 644.365385 432.028846 644.365385 434.480769 644.365385 436.932692 644.365385 439.384615 644.365385 441.836538 644.365385 444.288462 644.365385 446.740385 644.365385 449.192308 644.365385 451.644231 644.365385 454.096154 644.365385 456.548077 644.365385 459.000000 644.365385 461.451923 644.365385 463.903846 644.365385 466.355769 644.365385 468.807692 644.365385 471.259615 644.365385 473.711538 644.365385 476.163462 644.365385 478.615385 644.365385 481.067308 644.365385 483.519231 644.365385 485.971154 644.365385 488.423077 644.365385 490.875000 644.365385 493.326923 644.365385 495.778846 644.365385 498.230769 644.365385 500.682692 644.365385 503.134615 644.365385 505.586538 644.365385 508.038462 644.365385 510.490385 644.365385 512.942308 644.365385 515.394231 644.365385 517.846154 644.365385 520.298077 644.365385 522.750000 644.365385 525.201923 644.365385 527.653846 644.365385 530.105769 644.365385 532.557692 644.365385 535.009615 644.365385 537.461538 644.365385 539.913462 644.365385 542.365385 644.365385 544.817308 644.365385 547.269231 644.365385 549.721154 644.365385 552.173077 644.365385 554.625000 644.365385 557.076923 644.365385 559.528846 644.365385 561.980769 644.365385 564.432692 644.365385 566.884615 644.365385 569.336538 644.365385 571.788462 644.365385 574.240385 644.365385 576.692308 644.365385 579.144231 644.365385 581.596154 644.365385 584.048077 644.365385 586.500000 644.365385 588.951923 644.365385 591.403846 644.365385 593.855769 644.365385 596.307692 644.365385 598.759615 644.365385 601.211538 644.365385 603.663462 644.365385 606.115385 644.365385 608.567308 644.365385 611.019231 644.365385 613.471154 644.365385 615.923077 644.365385 618.375000 644.365385 620.826923 644.365385 623.278846 644.365385 625.730769 644.365385 628.182692 644.365385 630.634615 644.365385 633.086538 644.365385 635.538462 644.365385 637.990385 644.365385 640.442308 644.365385 642.894231 644.365385 645.346154 644.365385 647.798077 644.365385 650.250000 644.365385 652.701923 644.365385 655.153846 644.365385 657.605769 644.365385 660.057692 644.365385 662.509615 644.365385 664.961538 644.365385 667.413462 644.365385 669.865385 644.365385 672.317308 644.365385 674.769231 644.365385 677.221154 644.365385 679.673077 644.365385 682.125000 644.365385 684.576923 644.365385 687.028846 644.365385 689.480769 644.365385 691.932692 644.365385 694.384615 644.365385 696.836538 644.365385 699.288462 644.365385 701.740385 644.365385 704.192308 644.365385 706.644231 644.365385 709.096154 644.365385 711.548077 644.365385 714.000000 644.365385 716.451923 644.365385 718.903846 644.365385 721.355769 644.365385 723.807692 644.365385 726.259615 644.365385 728.711538 644.365385 731.163462 644.365385 733.615385 644.365385 736.067308 644.365385 738.519231 644.365385 740.971154 644.365385 743.423077 644.365385 745.875000 644.365385 748.326923 644.365385 750.778846 644.365385 753.230769 644.365385 755.682692 644.365385 758.134615 644.365385 760.586538 644.365385 763.038462 644.365385 765.490385 644.365385 767.942308 644.365385 770.394231 644.365385 772.846154 644.365385 775.298077 644.365385 777.750000 644.365385 780.201923 644.365385 782.653846 644.365385 785.105769 644.365385 787.557692 644.365385 790.009615 644.365385 792.461538 644.365385 794.913462 644.365385 797.365385 644.365385 799.817308 644.365385 802.269231 644.365385 804.721154 644.365385 807.173077 644.365385 809.625000 644.365385 812.076923 644.365385 814.528846 644.365385 816.980769 644.365385 819.432692 644.365385 821.884615 644.365385 824.336538 644.365385 826.788462 644.365385 829.240385 644.365385 831.692308 644.365385 834.144231 644.365385 836.596154 644.365385 839.048077 644.365385 841.500000 644.365385 843.951923 644.365385 846.403846 644.365385 848.855769 644.365385 851.307692 644.365385 853.759615 644.365385 856.211538 644.365385 858.663462 644.365385 861.115385 644.365385 863.567308 644.365385 866.019231 644.365385 868.471154 644.365385 870.923077 644.365385 873.375000 644.365385 875.826923 644.365385 878.278846 644.365385 880.730769 644.365385 883.182692 644.365385 885.634615 644.365385 888.086538 644.365385 890.538462 644.365385 892.990385 644.365385 895.442308 644.365385 897.894231 644.365385 900.346154 644.365385" /></g><g class="series serie-1 color-1"><path class="line reactive nofill" d="M17.653846 619.393370 L20.105769 608.009069 22.557692 601.472277 25.009615 597.653027 27.461538 594.764108 29.913462 592.352595 32.365385 590.259352 34.817308 587.603016 37.269231 585.375120 39.721154 581.972071 42.173077 577.907998 44.625000 573.464448 47.076923 567.698851 49.528846 561.627224 51.980769 557.404015 54.432692 554.588543 56.884615 551.822036 59.336538 549.055528 61.788462 545.995232 64.240385 543.326654 66.692308 540.915141 69.144231 539.250340 71.596154 537.818121 74.048077 536.349179 76.500000 534.929202 78.951923 533.754048 81.403846 532.603377 83.855769 532.028041 86.307692 531.513912 88.759615 530.963058 91.211538 530.473411 93.663462 529.885834 96.115385 529.359463 98.567308 528.686198 101.019231 528.061898 103.471154 527.143809 105.923077 525.870726 108.375000 524.683331 110.826923 523.716278 113.278846 522.883877 115.730769 521.696482 118.182692 520.533570 120.634615 519.615481 123.086538 518.428086 125.538462 517.644651 127.990385 516.689838 130.442308 515.979850 132.894231 515.282102 135.346154 514.474184 137.798077 513.702989 140.250000 513.029724 142.701923 512.638006 145.153846 512.344218 147.605769 512.062671 150.057692 511.793365 152.509615 511.487335 154.961538 511.218029 157.413462 510.789588 159.865385 510.165287 162.317308 509.614434 164.769231 508.892204 167.221154 507.888427 169.673077 507.141715 172.125000 506.309314 174.576923 505.440190 177.028846 504.558825 179.480769 503.738666 181.932692 502.991954 184.384615 502.208518 186.836538 501.510770 189.288462 500.972158 191.740385 500.335617 194.192308 499.772522 196.644231 499.270634 199.096154 498.707539 201.548077 498.303580 204.000000 497.997551 206.451923 497.740486 208.903846 497.520144 211.355769 497.336527 213.807692 497.165150 216.259615 496.822397 218.711538 496.553091 221.163462 496.198097 223.615385 495.928791 226.067308 495.157596 228.519231 494.582260 230.971154 494.031407 233.423077 493.492795 235.875000 492.856253 238.326923 492.256435 240.778846 491.766788 243.230769 491.240417 245.682692 490.738529 248.134615 490.297846 250.586538 489.832681 253.038462 489.526651 255.490385 489.159416 257.942308 488.975798 260.394231 488.779939 262.846154 488.608563 265.298077 488.486151 267.750000 488.290292 270.201923 488.241327 272.653846 488.167880 275.105769 488.057709 277.557692 487.874092 280.009615 487.629268 282.461538 487.445650 284.913462 487.298756 287.365385 487.041691 289.817308 486.833591 292.269231 486.735662 294.721154 486.539803 297.173077 486.319461 299.625000 486.160326 302.076923 485.915502 304.528846 485.646196 306.980769 485.511543 309.432692 485.364649 311.884615 485.095343 314.336538 484.923966 316.788462 484.703625 319.240385 484.483284 321.692308 484.360872 324.144231 484.201737 326.596154 484.030360 329.048077 483.944672 331.500000 483.858983 333.951923 483.663124 336.403846 483.479507 338.855769 483.357095 341.307692 483.063306 343.759615 482.842965 346.211538 482.647106 348.663462 482.439006 351.115385 482.206424 353.567308 481.973841 356.019231 481.631088 358.471154 481.484194 360.923077 481.263852 363.375000 480.957823 365.826923 480.553864 368.278846 480.296799 370.730769 480.051975 373.182692 479.745946 375.634615 479.550087 378.086538 479.329745 380.538462 479.244057 382.990385 479.097163 385.442308 478.901304 387.894231 478.693204 390.346154 478.166833 392.798077 477.530291 395.250000 476.905991 397.701923 476.122555 400.153846 475.424808 402.605769 474.567925 405.057692 473.625354 407.509615 472.841918 409.961538 472.180894 412.413462 471.421941 414.865385 470.503852 417.317308 469.879552 419.769231 469.218528 422.221154 468.863533 424.673077 468.337162 427.125000 467.651656 429.576923 410.277228 432.028846 377.115861 434.480769 357.395314 436.932692 340.747304 439.384615 330.942116 441.836538 321.210375 444.288462 313.045506 446.740385 302.444640 449.192308 287.620567 451.644231 270.935833 454.096154 252.867846 456.548077 229.377015 459.000000 200.965227 461.451923 172.382063 463.903846 148.401584 466.355769 132.573734 468.807692 116.243995 471.259615 101.603539 473.711538 86.840671 476.163462 74.991205 478.615385 61.954345 481.067308 53.263104 483.519231 46.016323 485.971154 39.406084 488.423077 33.248769 490.875000 27.764718 493.326923 23.651681 495.778846 20.297596 498.230769 18.339007 500.682692 16.245765 503.134615 14.336140 505.586538 12.634615 508.038462 12.634615 510.490385 12.634615 512.942308 12.634615 515.394231 12.634615 517.846154 12.634615 520.298077 12.634615 522.750000 12.634615 525.201923 12.634615 527.653846 12.634615 530.105769 12.634615 532.557692 12.634615 535.009615 12.634615 537.461538 12.634615 539.913462 12.634615 542.365385 12.634615 544.817308 12.634615 547.269231 12.634615 549.721154 12.634615 552.173077 12.634615 554.625000 12.634615 557.076923 12.634615 559.528846 12.634615 561.980769 12.634615 564.432692 12.634615 566.884615 12.634615 569.336538 12.634615 571.788462 12.634615 574.240385 12.634615 576.692308 12.634615 579.144231 12.634615 581.596154 12.634615 584.048077 12.634615 586.500000 12.634615 588.951923 12.634615 591.403846 12.634615 593.855769 12.634615 596.307692 12.634615 598.759615 12.634615 601.211538 12.634615 603.663462 12.634615 606.115385 12.634615 608.567308 12.634615 611.019231 12.634615 613.471154 12.634615 615.923077 12.634615 618.375000 12.634615 620.826923 12.634615 623.278846 12.634615 625.730769 12.634615 628.182692 12.634615 630.634615 12.634615 633.086538 12.634615 635.538462 12.634615 637.990385 12.634615 640.442308 12.634615 642.894231 12.634615 645.346154 12.634615 647.798077 12.634615 650.250000 12.634615 652.701923 12.634615 655.153846 12.634615 657.605769 12.634615 660.057692 12.634615 662.509615 12.634615 664.961538 12.634615 667.413462 12.634615 669.865385 12.634615 672.317308 12.634615 674.769231 12.634615 677.221154 12.634615 679.673077 12.634615 682.125000 12.634615 684.576923 12.634615 687.028846 12.634615 689.480769 12.634615 691.932692 12.634615 694.384615 12.634615 696.836538 12.634615 699.288462 12.634615 701.740385 12.634615 704.192308 12.634615 706.644231 12.634615 709.096154 12.634615 711.548077 12.634615 714.000000 12.634615 716.451923 12.634615 718.903846 12.634615 721.355769 12.634615 723.807692 12.634615 726.259615 12.634615 728.711538 12.634615 731.163462 12.634615 733.615385 12.634615 736.067308 12.634615 738.519231 12.634615 740.971154 12.634615 743.423077 12.634615 745.875000 12.634615 748.326923 12.634615 750.778846 12.634615 753.230769 12.634615 755.682692 12.634615 758.134615 12.634615 760.586538 12.634615 763.038462 12.634615 765.490385 12.634615 767.942308 12.634615 770.394231 12.634615 772.846154 12.634615 775.298077 12.634615 777.750000 12.634615 780.201923 12.634615 782.653846 12.634615 785.105769 12.634615 787.557692 12.634615 790.009615 12.634615 792.461538 12.634615 794.913462 12.634615 797.365385 12.634615 799.817308 12.634615 802.269231 12.634615 804.721154 12.634615 807.173077 12.634615 809.625000 12.634615 812.076923 12.634615 814.528846 12.634615 816.980769 12.634615 819.432692 12.634615 821.884615 12.634615 824.336538 12.634615 826.788462 12.634615 829.240385 12.634615 831.692308 12.634615 834.144231 12.634615 836.596154 12.634615 839.048077 12.634615 841.500000 12.634615 843.951923 12.634615 846.403846 12.634615 848.855769 12.634615 851.307692 12.634615 853.759615 12.634615 856.211538 12.634615 858.663462 12.634615 861.115385 12.634615 863.567308 12.634615 866.019231 12.634615 868.471154 12.634615 870.923077 12.634615 873.375000 12.634615 875.826923 12.634615 878.278846 12.634615 880.730769 12.634615 883.182692 12.634615 885.634615 12.634615 888.086538 12.634615 890.538462 12.634615 892.990385 12.634615 895.442308 12.634615 897.894231 12.634615 900.346154 12.634615" /></g></g><g class="titles"><text class="title plot_title" x="512.0" y="26">Election 7 Participation</text><text class="title" transform="rotate(-90 0.000000 374.500000)" x="0" y="400.5">Users</text></g><g class="plot overlay" transform="translate(86, 46)"><g class="series serie-0 color-0" /><g class="series serie-1 color-1" /></g><g class="plot text-overlay" transform="translate(86, 46)"><g class="series serie-0 color-0" /><g class="series serie-1 color-1" /></g><g class="plot tooltip-overlay" transform="translate(86, 46)"><g class="tooltip" style="opacity: 0" transform="translate(0 0)"><a><rect class="tooltip-box" height="0" rx="0" ry="0" width="0" /><text class="text"><tspan class="label" /><tspan class="value" /></text></a></g></g><g class="legends" transform="translate(96, 713)"><g class="legend reactive activate-serie" id="activate-serie-0"><rect class="color-0 reactive" height="12" width="12" x="0.0" y="1.0" /><text x="17.0" y="11.2">constituents</text></g><g class="legend reactive activate-serie" id="activate-serie-1"><rect class="color-1 reactive" height="12" width="12" x="459.0" y="1.0" /><text x="476.0" y="11.2">caucus</text></g></g></g></svg>