<?xml version='1.0' encoding='utf-8'?>
<svg xmlns:xlink="http://www.w3.org/1999/xlink" class="pygal-chart" id="chart-d19f2316-50e6-4da2-a64a-b472d0aeae02" viewBox="0 0 1024 768" xmlns="http://www.w3.org/2000/svg"><!--Generated with pygal 1.7.0 (etree) ©Kozea 2011-2014 on 2015-04-20--><!--http://pygal.org--><!--http://github.com/Kozea/pygal--><defs><style type="text/css">#chart-d19f2316-50e6-4da2-a64a-b472d0aeae02 .title{font-family:"monospace";font-size:16px}#chart-d19f2316-50e6-4da2-a64a-b472d0aeae02 .legends .legend text{font-family:"monospace";font-size:14px}#chart-d19f2316-50e6-4da2-a64a-b472d0aeae02 .axis text{font-family:"monospace";font-size:10px}#chart-d19f2316-50e6-4da2-a64a-b472d0aeae02 .axis text.major{font-family:"monospace";font-size:10px}#chart-d19f2316-50e6-4da2-a64a-b472d0aeae02 .series text{font-family:"monospace";font-size:8px}#chart-d19f2316-50e6-4da2-a64a-b472d0aeae02 .tooltip text{font-family:"monospace";font-size:16px}#chart-d19f2316-50e6-4da2-a64a-b472d0aeae02 text.no_data{font-size:64px}
#chart-d19f2316-50e6-4da2-a64a-b472d0aeae02{background-color:black}#chart-d19f2316-50e6-4da2-a64a-b472d0aeae02 path,#chart-d19f2316-50e6-4da2-a64a-b472d0aeae02 line,#chart-d19f2316-50e6-4da2-a64a-b472d0aeae02 rect,#chart-d19f2316-50e6-4da2-a64a-b472d0aeae02 circle{-webkit-transition:250ms;-moz-transition:250ms;transition:250ms}#chart-d19f2316-50e6-4da2-a64a-b472d0aeae02 .graph &gt; .background{fill:black}#chart-d19f2316-50e6-4da2-a64a-b472d0aeae02 .plot &gt; .background{fill:#111}#chart-d19f2316-50e6-4da2-a64a-b472d0aeae02 .graph{fill:#999}#chart-d19f2316-50e6-4da2-a64a-b472d0aeae02 text.no_data{fill:#eee}#chart-d19f2316-50e6-4da2-a64a-b472d0aeae02 .title{fill:#eee}#chart-d19f2316-50e6-4da2-a64a-b472d0aeae02 .legends .legend text{fill:#999}#chart-d19f2316-50e6-4da2-a64a-b472d0aeae02 .legends .legend:hover text{fill:#eee}#chart-d19f2316-50e6-4da2-a64a-b472d0aeae02 .axis .line{stroke:#eee}#chart-d19f2316-50e6-4da2-a64a-b472d0aeae02 .axis .guide.line{stroke:#555}#chart-d19f2316-50e6-4da2-a64a-b472d0aeae02 .axis .major.line{stroke:#999}#chart-d19f2316-50e6-4da2-a64a-b472d0aeae02 .axis text.major{stroke:#eee;fill:#eee}#chart-d19f2316-50e6-4da2-a64a-b472d0aeae02 .axis.y .guides:hover .guide.line,#chart-d19f2316-50e6-4da2-a64a-b472d0aeae02 .line-graph .axis.x .guides:hover .guide.line,#chart-d19f2316-50e6-4da2-a64a-b472d0aeae02 .stackedline-graph .axis.x .guides:hover .guide.line,#chart-d19f2316-50e6-4da2-a64a-b472d0aeae02 .xy-graph .axis.x .guides:hover .guide.line{stroke:#eee}#chart-d19f2316-50e6-4da2-a64a-b472d0aeae02 .axis .guides:hover text{fill:#eee}#chart-d19f2316-50e6-4da2-a64a-b472d0aeae02 .reactive{fill-opacity:.8}#chart-d19f2316-50e6-4da2-a64a-b472d0aeae02 .reactive.active,#chart-d19f2316-50e6-4da2-a64a-b472d0aeae02 .active .reactive{fill-opacity:.4}#chart-d19f2316-50e6-4da2-a64a-b472d0aeae02 .series{stroke-width:1.0;stroke-linejoin:round;stroke-linecap:round;stroke-dasharray:0,0}#chart-d19f2316-50e6-4da2-a64a-b472d0aeae02 .series text{fill:#eee}#chart-d19f2316-50e6-4da2-a64a-b472d0aeae02 .tooltip rect{fill:#111;stroke:#eee}#chart-d19f2316-50e6-4da2-a64a-b472d0aeae02 .tooltip text{fill:#eee}#chart-d19f2316-50e6-4da2-a64a-b472d0aeae02 .map-element{fill:#999;stroke:#555 !important;opacity:.9;stroke-width:3;-webkit-transition:250ms;-moz-transition:250ms;-o-transition:250ms;transition:250ms}#chart-d19f2316-50e6-4da2-a64a-b472d0aeae02 .map-element:hover{opacity:1;stroke-width:10}#chart-d19f2316-50e6-4da2-a64a-b472d0aeae02 .color-0,#chart-d19f2316-50e6-4da2-a64a-b472d0aeae02 .color-0 a:visited{stroke:#ff5995;fill:#ff5995}#chart-d19f2316-50e6-4da2-a64a-b472d0aeae02 .color-1,#chart-d19f2316-50e6-4da2-a64a-b472d0aeae02 .color-1 a:visited{stroke:#b6e354;fill:#b6e354}#chart-d19f2316-50e6-4da2-a64a-b472d0aeae02 .color-2,#chart-d19f2316-50e6-4da2-a64a-b472d0aeae02 .color-2 a:visited{stroke:#feed6c;fill:#feed6c}#chart-d19f2316-50e6-4da2-a64a-b472d0aeae02 .color-3,#chart-d19f2316-50e6-4da2-a64a-b472d0aeae02 .color-3 a:visited{stroke:#8cedff;fill:#8cedff}#chart-d19f2316-50e6-4da2-a64a-b472d0aeae02 .color-4,#chart-d19f2316-50e6-4da2-a64a-b472d0aeae02 .color-4 a:visited{stroke:#9e6ffe;fill:#9e6ffe}#chart-d19f2316-50e6-4da2-a64a-b472d0aeae02 .color-5,#chart-d19f2316-50e6-4da2-a64a-b472d0aeae02 .color-5 a:visited{stroke:#899ca1;fill:#899ca1}#chart-d19f2316-50e6-4da2-a64a-b472d0aeae02 .color-6,#chart-d19f2316-50e6-4da2-a64a-b472d0aeae02 .color-6 a:visited{stroke:#f8f8f2;fill:#f8f8f2}#chart-d19f2316-50e6-4da2-a64a-b472d0aeae02 .color-7,#chart-d19f2316-50e6-4da2-a64a-b472d0aeae02 .color-7 a:visited{stroke:#bf4646;fill:#bf4646}#chart-d19f2316-50e6-4da2-a64a-b472d0aeae02 .color-8,#chart-d19f2316-50e6-4da2-a64a-b472d0aeae02 .color-8 a:visited{stroke:#516083;fill:#516083}#chart-d19f2316-50e6-4da2-a64a-b472d0aeae02 .color-9,#chart-d19f2316-50e6-4da2-a64a-b472d0aeae02 .color-9 a:visited{stroke:#f92672;fill:#f92672}#chart-d19f2316-50e6-4da2-a64a-b472d0aeae02 .color-10,#chart-d19f2316-50e6-4da2-a64a-b472d0aeae02 .color-10 a:visited{stroke:#82b414;fill:#82b414}#chart-d19f2316-50e6-4da2-a64a-b472d0aeae02 .color-11,#chart-d19f2316-50e6-4da2-a64a-b472d0aeae02 .color-11 a:visited{stroke:#fd971f;fill:#fd971f}#chart-d19f2316-50e6-4da2-a64a-b472d0aeae02 .color-12,#chart-d19f2316-50e6-4da2-a64a-b472d0aeae02 .color-12 a:visited{stroke:#56c2d6;fill:#56c2d6}#chart-d19f2316-50e6-4da2-a64a-b472d0aeae02 .color-13,#chart-d19f2316-50e6-4da2-a64a-b472d0aeae02 .color-13 a:visited{stroke:#808384;fill:#808384}#chart-d19f2316-50e6-4da2-a64a-b472d0aeae02 .color-14,#chart-d19f2316-50e6-4da2-a64a-b472d0aeae02 .color-14 a:visited{stroke:#8c54fe;fill:#8c54fe}#chart-d19f2316-50e6-4da2-a64a-b472d0aeae02 .color-15,#chart-d19f2316-50e6-4da2-a64a-b472d0aeae02 .color-15 a:visited{stroke:#465457;fill:#465457}
#chart-d19f2316-50e6-4da2-a64a-b472d0aeae02 text.no_data{text-anchor:middle}#chart-d19f2316-50e6-4da2-a64a-b472d0aeae02 .guide.line{fill-opacity:0}#chart-d19f2316-50e6-4da2-a64a-b472d0aeae02 .centered{text-anchor:middle}#chart-d19f2316-50e6-4da2-a64a-b472d0aeae02 .title{text-anchor:middle}#chart-d19f2316-50e6-4da2-a64a-b472d0aeae02 .legends .legend text{fill-opacity:1}#chart-d19f2316-50e6-4da2-a64a-b472d0aeae02 .axis.x text{text-anchor:middle}#chart-d19f2316-50e6-4da2-a64a-b472d0aeae02 .axis.x:not(.web) text[transform]{text-anchor:start}#chart-d19f2316-50e6-4da2-a64a-b472d0aeae02 .axis.y text{text-anchor:end}#chart-d19f2316-50e6-4da2-a64a-b472d0aeae02 .axis.y2 text{text-anchor:start}#chart-d19f2316-50e6-4da2-a64a-b472d0aeae02 .axis.y .logarithmic text:not(.major),#chart-d19f2316-50e6-4da2-a64a-b472d0aeae02 .axis.y2 .logarithmic text:not(.major){font-size:50%}#chart-d19f2316-50e6-4da2-a64a-b472d0aeae02 .axis .guide.line{stroke-dasharray:4,4}#chart-d19f2316-50e6-4da2-a64a-b472d0aeae02 .axis .major.guide.line{stroke-dasharray:6,6}#chart-d19f2316-50e6-4da2-a64a-b472d0aeae02 .axis text.major{stroke-width:0.5px}#chart-d19f2316-50e6-4da2-a64a-b472d0aeae02 .horizontal .axis.y .guide.line,#chart-d19f2316-50e6-4da2-a64a-b472d0aeae02 .horizontal .axis.y2 .guide.line,#chart-d19f2316-50e6-4da2-a64a-b472d0aeae02 .vertical .axis.x .guide.line{opacity:0}#chart-d19f2316-50e6-4da2-a64a-b472d0aeae02 .horizontal .axis.always_show .guide.line,#chart-d19f2316-50e6-4da2-a64a-b472d0aeae02 .vertical .axis.always_show .guide.line{opacity:1 !important}#chart-d19f2316-50e6-4da2-a64a-b472d0aeae02 .axis.y .guides:hover .guide.line,#chart-d19f2316-50e6-4da2-a64a-b472d0aeae02 .axis.y2 .guides:hover .guide.line,#chart-d19f2316-50e6-4da2-a64a-b472d0aeae02 .axis.x .guides:hover .guide.line{opacity:1}#chart-d19f2316-50e6-4da2-a64a-b472d0aeae02 .axis .guides:hover text{opacity:1}#chart-d19f2316-50e6-4da2-a64a-b472d0aeae02 .nofill{fill:none}#chart-d19f2316-50e6-4da2-a64a-b472d0aeae02 .subtle-fill{fill-opacity:.2}#chart-d19f2316-50e6-4da2-a64a-b472d0aeae02 .dot{stroke-width:1px;fill-opacity:1}#chart-d19f2316-50e6-4da2-a64a-b472d0aeae02 .dot.active{stroke-width:5px}#chart-d19f2316-50e6-4da2-a64a-b472d0aeae02 .series text{stroke:none}#chart-d19f2316-50e6-4da2-a64a-b472d0aeae02 .series text.active{opacity:1}#chart-d19f2316-50e6-4da2-a64a-b472d0aeae02 .tooltip rect{fill-opacity:0.8}#chart-d19f2316-50e6-4da2-a64a-b472d0aeae02 .tooltip text{fill-opacity:1}#chart-d19f2316-50e6-4da2-a64a-b472d0aeae02 .tooltip text tspan.label{fill-opacity:.8}</style><script type="text/javascript">window.config = {"title_font_size": 16, "x_labels_major_count": null, "major_label_font_size": 10, "show_minor_y_labels": true, "css": ["style.css", "graph.css"], "mode": null, "tooltip_border_radius": 0, "margin_left": null, "order_min": null, "show_only_major_dots": false, "margin_bottom": null, "inner_radius": 0, "y_labels_major_count": null, "margin_top": null, "label_font_size": 10, "x_title": null, "range": null, "truncate_label": null, "include_x_axis": false, "x_labels": null, "interpolation_parameters": {}, "spacing": 10, "logarithmic": false, "stroke": true, "interpolate": null, "x_label_rotation": 0, "width": 1024, "style": {"stroke_dasharray": "0,0", "opacity_hover": ".4", "opacity": ".8", "stroke_width": 1.0, "foreground": "#999", "background": "black", "font_family": "monospace", "colors": ["#ff5995", "#b6e354", "#feed6c", "#8cedff", "#9e6ffe", "#899ca1", "#f8f8f2", "#bf4646", "#516083", "#f92672", "#82b414", "#fd971f", "#56c2d6", "#808384", "#8c54fe", "#465457"], "foreground_dark": "#555", "foreground_light": "#eee", "transition": "250ms", "plot_background": "#111", "stroke_style": "round"}, "stack_from_top": false, "x_labels_major": null, "no_data_font_size": 64, "y_label_rotation": 0, "xrange": null, "dots_size": 2.5, "show_minor_x_labels": true, "height": 768, "margin_right": null, "margin": 20, "show_y_guides": true, "no_data_text": "No data", "pretty_print": false, "js": ["http://kozea.github.io/pygal.js/javascripts/svg.jquery.js", "http://kozea.github.io/pygal.js/javascripts/pygal-tooltips.js"], "zero": 0, "y_labels_major_every": null, "show_x_guides": false, "truncate_legend": null, "show_x_labels": true, "rounded_bars": null, "y_title": "Users", "legend_at_bottom": true, "explicit_size": false, "interpolation_precision": 250, "value_font_size": 8, "x_label_format": "%Y-%m-%d %H:%M:%S.%f", "x_labels_major_every": null, "no_prefix": false, "half_pie": false, "y_labels": null, "print_values": false, "x_value_formatter": null, "missing_value_fill_truncation": "x", "show_y_labels": true, "y_labels_major": null, "strict": false, "disable_xml_declaration": false, "title": "Election 2 Participation", "human_readable": false, "fill": false, "legend_at_bottom_columns": null, "tooltip_font_size": 16, "print_zeroes": false, "show_legend": true, "legend_box_size": 12, "show_dots": false, "legend_font_size": 14}</script><script type="text/javascript" xlink:href="http://kozea.github.io/pygal.js/javascripts/svg.jquery.js" /><script type="text/javascript" xlink:href="http://kozea.github.io/pygal.js/javascripts/pygal-tooltips.js" /></defs><title>Election 2 Participation</title><g class="graph line-graph vertical"><rect class="background" height="768" width="1024" x="0" y="0" /><g class="plot" transform="translate(86, 46)"><rect class="background" height="657.0" width="918.0" x="0" y="0" /><g class="axis y"><path class="line" d="M0.000000 657.000000 h918.000000" /><g class="guides"><path class="major guide line" d="M0.000000 637.303606 h918.000000" /><text class="major" x="-5" y="640.8036063558578">5000</text></g><g class="guides"><path class="guide line" d="M0.000000 587.572774 h918.000000" /><text class="" x="-5" y="591.0727735422886">6000</text></g><g class="guides"><path class="guide line" d="M0.000000 537.841941 h918.000000" /><text class="" x="-5" y="541.3419407287195">7000</text></g><g class="guides"><path class="guide line" d="M0.000000 488.111108 h918.000000" /><text class="" x="-5" y="491.6111079151503">8000</text></g><g class="guides"><path class="guide line" d="M0.000000 438.380275 h918.000000" /><text class="" x="-5" y="441.8802751015811">9000</text></g><g class="guides"><path class="major guide line" d="M0.000000 388.649442 h918.000000" /><text class="major" x="-5" y="392.1494422880119">10000</text></g><g class="guides"><path class="guide line" d="M0.000000 338.918609 h918.000000" /><text class="" x="-5" y="342.4186094744428">11000</text></g><g class="guides"><path class="guide line" d="M0.000000 289.187777 h918.000000" /><text class="" x="-5" y="292.6877766608736">12000</text></g><g class="guides"><path class="guide line" d="M0.000000 239.456944 h918.000000" /><text class="" x="-5" y="242.9569438473044">13000</text></g><g class="guides"><path class="guide line" d="M0.000000 189.726111 h918.000000" /><text class="" x="-5" y="193.22611103373526">14000</text></g><g class="guides"><path class="major guide line" d="M0.000000 139.995278 h918.000000" /><text class="major" x="-5" y="143.49527822016603">15000</text></g><g class="guides"><path class="guide line" d="M0.000000 90.264445 h918.000000" /><text class="" x="-5" y="93.7644454065969">16000</text></g><g class="guides"><path class="guide line" d="M0.000000 40.533613 h918.000000" /><text class="" x="-5" y="44.03361259302778">17000</text></g></g><g class="series serie-0 color-0"><path class="line reactive nofill" d="M17.653846 644.365385 L20.280907 644.365385 22.907967 644.365385 25.535027 644.365385 28.162088 644.365385 30.789148 644.365385 33.416209 644.365385 36.043269 644.365385 38.670330 644.365385 41.297390 644.365385 43.924451 644.365385 46.551511 644.365385 49.178571 644.365385 51.805632 644.365385 54.432692 644.365385 57.059753 644.365385 59.686813 644.365385 62.313874 644.365385 64.940934 644.365385 67.567995 644.365385 70.195055 644.365385 72.822115 644.365385 75.449176 644.365385 78.076236 644.365385 80.703297 644.365385 83.330357 644.365385 85.957418 644.365385 88.584478 644.365385 91.211538 644.365385 93.838599 644.365385 96.465659 644.365385 99.092720 644.365385 101.719780 644.365385 104.346841 644.365385 106.973901 644.365385 109.600962 644.365385 112.228022 644.365385 114.855082 644.365385 117.482143 644.365385 120.109203 644.365385 122.736264 644.365385 125.363324 644.365385 127.990385 644.365385 130.617445 644.365385 133.244505 644.365385 135.871566 644.365385 138.498626 644.365385 141.125687 644.365385 143.752747 644.365385 146.379808 644.365385 149.006868 644.365385 151.633929 644.365385 154.260989 644.365385 156.888049 644.365385 159.515110 644.365385 162.142170 644.365385 164.769231 644.365385 167.396291 644.365385 170.023352 644.365385 172.650412 644.365385 175.277473 644.365385 177.904533 644.365385 180.531593 644.365385 183.158654 644.365385 185.785714 644.365385 188.412775 644.365385 191.039835 644.365385 193.666896 644.365385 196.293956 644.365385 198.921016 644.365385 201.548077 644.365385 204.175137 644.365385 206.802198 644.365385 209.429258 644.365385 212.056319 644.365385 214.683379 644.365385 217.310440 644.365385 219.937500 644.365385 222.564560 644.365385 225.191621 644.365385 227.818681 644.365385 230.445742 644.365385 233.072802 644.365385 235.699863 644.365385 238.326923 644.365385 240.953984 644.365385 243.581044 644.365385 246.208104 644.365385 248.835165 644.365385 251.462225 644.365385 254.089286 644.365385 256.716346 644.365385 259.343407 644.365385 261.970467 644.365385 264.597527 644.365385 267.224588 644.365385 269.851648 644.365385 272.478709 644.365385 275.105769 644.365385 277.732830 644.365385 280.359890 644.365385 282.986951 644.365385 285.614011 644.365385 288.241071 644.365385 290.868132 644.365385 293.495192 644.365385 296.122253 644.365385 298.749313 644.365385 301.376374 644.365385 304.003434 644.365385 306.630495 644.365385 309.257555 644.365385 311.884615 644.365385 314.511676 644.365385 317.138736 644.365385 319.765797 644.365385 322.392857 644.365385 325.019918 644.365385 327.646978 644.365385 330.274038 644.365385 332.901099 644.365385 335.528159 644.365385 338.155220 644.365385 340.782280 644.365385 343.409341 644.365385 346.036401 644.365385 348.663462 644.365385 351.290522 644.365385 353.917582 644.365385 356.544643 644.365385 359.171703 644.365385 361.798764 644.365385 364.425824 644.365385 367.052885 644.365385 369.679945 644.365385 372.307005 644.365385 374.934066 644.365385 377.561126 644.365385 380.188187 644.365385 382.815247 644.365385 385.442308 644.365385 388.069368 644.365385 390.696429 644.365385 393.323489 644.365385 395.950549 644.365385 398.577610 644.365385 401.204670 644.365385 403.831731 644.365385 406.458791 644.365385 409.085852 644.365385 411.712912 644.365385 414.339973 644.365385 416.967033 644.365385 419.594093 644.365385 422.221154 644.365385 424.848214 644.365385 427.475275 644.365385 430.102335 644.365385 432.729396 644.365385 435.356456 644.365385 437.983516 644.365385 440.610577 644.365385 443.237637 644.365385 445.864698 644.365385 448.491758 644.365385 451.118819 644.365385 453.745879 644.365385 456.372940 644.365385 459.000000 644.365385 461.627060 644.365385 464.254121 644.365385 466.881181 644.365385 469.508242 644.365385 472.135302 644.365385 474.762363 644.365385 477.389423 644.365385 480.016484 644.365385 482.643544 644.365385 485.270604 644.365385 487.897665 644.365385 490.524725 644.365385 493.151786 644.365385 495.778846 644.365385 498.405907 644.365385 501.032967 644.365385 503.660027 644.365385 506.287088 644.365385 508.914148 644.365385 511.541209 644.365385 514.168269 644.365385 516.795330 644.365385 519.422390 644.365385 522.049451 644.365385 524.676511 644.365385 527.303571 644.365385 529.930632 644.365385 532.557692 644.365385 535.184753 644.365385 537.811813 644.365385 540.438874 644.365385 543.065934 644.365385 545.692995 644.365385 548.320055 644.365385 550.947115 644.365385 553.574176 644.365385 556.201236 644.365385 558.828297 644.365385 561.455357 644.365385 564.082418 644.365385 566.709478 644.365385 569.336538 644.365385 571.963599 644.365385 574.590659 644.365385 577.217720 644.365385 579.844780 644.365385 582.471841 644.365385 585.098901 644.365385 587.725962 644.365385 590.353022 644.365385 592.980082 644.365385 595.607143 644.365385 598.234203 644.365385 600.861264 644.365385 603.488324 644.365385 606.115385 644.365385 608.742445 644.365385 611.369505 644.365385 613.996566 644.365385 616.623626 644.365385 619.250687 644.365385 621.877747 644.365385 624.504808 644.365385 627.131868 644.365385 629.758929 644.365385 632.385989 644.365385 635.013049 644.365385 637.640110 644.365385 640.267170 644.365385 642.894231 644.365385 645.521291 644.365385 648.148352 644.365385 650.775412 644.365385 653.402473 644.365385 656.029533 644.365385 658.656593 644.365385 661.283654 644.365385 663.910714 644.365385 666.537775 644.365385 669.164835 644.365385 671.791896 644.365385 674.418956 644.365385 677.046016 644.365385 679.673077 644.365385 682.300137 644.365385 684.927198 644.365385 687.554258 644.365385 690.181319 644.365385 692.808379 644.365385 695.435440 644.365385 698.062500 644.365385 700.689560 644.365385 703.316621 644.365385 705.943681 644.365385 708.570742 644.365385 711.197802 644.365385 713.824863 644.365385 716.451923 644.365385 719.078984 644.365385 721.706044 644.365385 724.333104 644.365385 726.960165 644.365385 729.587225 644.365385 732.214286 644.365385 734.841346 644.365385 737.468407 644.365385 740.095467 644.365385 742.722527 644.365385 745.349588 644.365385 747.976648 644.365385 750.603709 644.365385 753.230769 644.365385 755.857830 644.365385 758.484890 644.365385 761.111951 644.365385 763.739011 644.365385 766.366071 644.365385 768.993132 644.365385 771.620192 644.365385 774.247253 644.365385 776.874313 644.365385 779.501374 644.365385 782.128434 644.365385 784.755495 644.365385 787.382555 644.365385 790.009615 644.365385 792.636676 644.365385 795.263736 644.365385 797.890797 644.365385 800.517857 644.365385 803.144918 644.365385 805.771978 644.365385 808.399038 644.365385 811.026099 644.365385 813.653159 644.365385 816.280220 644.365385 818.907280 644.365385 821.534341 644.365385 824.161401 644.365385 826.788462 644.365385 829.415522 644.365385 832.042582 644.365385 834.669643 644.365385 837.296703 644.365385 839.923764 644.365385 842.550824 644.365385 845.177885 644.365385 847.804945 644.365385 850.432005 644.365385 853.059066 644.365385 855.686126 644.365385 858.313187 644.365385 860.940247 644.365385 863.567308 644.365385 866.194368 644.365385 868.821429 644.365385 871.448489 644.365385 874.075549 644.365385 876.702610 644.365385 879.329670 644.365385 881.956731 644.365385 884.583791 644.365385 887.210852 644.365385 889.837912 644.365385 892.464973 644.365385 895.092033 644.365385 897.719093 644.365385 900.346154 644.365385" /></g><g class="series serie-1 color-1"><path class="line reactive nofill" d="M17.653846 12.734077 L20.280907 12.734077 22.907967 12.734077 25.535027 12.734077 28.162088 12.734077 30.789148 12.734077 33.416209 12.734077 36.043269 12.734077 38.670330 12.734077 41.297390 12.734077 43.924451 12.734077 46.551511 12.734077 49.178571 12.734077 51.805632 12.734077 54.432692 12.734077 57.059753 12.734077 59.686813 12.734077 62.313874 12.734077 64.940934 12.734077 67.567995 12.734077 70.195055 12.734077 72.822115 12.734077 75.449176 12.734077 78.076236 12.734077 80.703297 12.734077 83.330357 12.734077 85.957418 12.734077 88.584478 12.734077 91.211538 12.734077 93.838599 12.734077 96.465659 12.734077 99.092720 12.734077 101.719780 12.734077 104.346841 12.734077 106.973901 12.734077 109.600962 12.734077 112.228022 12.734077 114.855082 12.734077 117.482143 12.734077 120.109203 12.734077 122.736264 12.734077 125.363324 12.734077 127.990385 12.734077 130.617445 12.734077 133.244505 12.734077 135.871566 12.734077 138.498626 12.734077 141.125687 12.734077 143.752747 12.734077 146.379808 12.734077 149.006868 12.734077 151.633929 12.734077 154.260989 12.734077 156.888049 12.734077 159.515110 12.734077 162.142170 12.734077 164.769231 12.734077 167.396291 12.734077 170.023352 12.734077 172.650412 12.734077 175.277473 12.734077 177.904533 12.734077 180.531593 12.734077 183.158654 12.734077 185.785714 12.734077 188.412775 12.734077 191.039835 12.734077 193.666896 12.734077 196.293956 12.734077 198.921016 12.734077 201.548077 12.734077 204.175137 12.684346 206.802198 12.684346 209.429258 12.684346 212.056319 12.684346 214.683379 12.684346 217.310440 12.684346 219.937500 12.684346 222.564560 12.684346 225.191621 12.684346 227.818681 12.684346 230.445742 12.684346 233.072802 12.684346 235.699863 12.684346 238.326923 12.684346 240.953984 12.684346 243.581044 12.684346 246.208104 12.684346 248.835165 12.684346 251.462225 12.684346 254.089286 12.684346 256.716346 12.684346 259.343407 12.684346 261.970467 12.684346 264.597527 12.684346 267.224588 12.684346 269.851648 12.684346 272.478709 12.684346 275.105769 12.684346 277.732830 12.684346 280.359890 12.684346 282.986951 12.684346 285.614011 12.684346 288.241071 12.684346 290.868132 12.684346 293.495192 12.684346 296.122253 12.684346 298.749313 12.684346 301.376374 12.684346 304.003434 12.684346 306.630495 12.684346 309.257555 12.684346 311.884615 12.684346 314.511676 12.684346 317.138736 12.684346 319.765797 12.684346 322.392857 12.684346 325.019918 12.684346 327.646978 12.684346 330.274038 12.684346 332.901099 12.684346 335.528159 12.684346 338.155220 12.684346 340.782280 12.684346 343.409341 12.684346 346.036401 12.684346 348.663462 12.684346 351.290522 12.684346 353.917582 12.684346 356.544643 12.684346 359.171703 12.684346 361.798764 12.684346 364.425824 12.684346 367.052885 12.684346 369.679945 12.684346 372.307005 12.684346 374.934066 12.684346 377.561126 12.684346 380.188187 12.684346 382.815247 12.684346 385.442308 12.684346 388.069368 12.684346 390.696429 12.684346 393.323489 12.684346 395.950549 12.684346 398.577610 12.684346 401.204670 12.684346 403.831731 12.684346 406.458791 12.684346 409.085852 12.684346 411.712912 12.684346 414.339973 12.684346 416.967033 12.684346 419.594093 12.684346 422.221154 12.684346 424.848214 12.684346 427.475275 12.684346 430.102335 12.684346 432.729396 12.684346 435.356456 12.684346 437.983516 12.684346 440.610577 12.684346 443.237637 12.684346 445.864698 12.684346 448.491758 12.684346 451.118819 12.684346 453.745879 12.684346 456.372940 12.684346 459.000000 12.684346 461.627060 12.684346 464.254121 12.684346 466.881181 12.684346 469.508242 12.684346 472.135302 12.684346 474.762363 12.684346 477.389423 12.684346 480.016484 12.684346 482.643544 12.684346 485.270604 12.684346 487.897665 12.684346 490.524725 12.684346 493.151786 12.684346 495.778846 12.684346 498.405907 12.684346 501.032967 12.684346 503.660027 12.684346 506.287088 12.684346 508.914148 12.684346 511.541209 12.684346 514.168269 12.684346 516.795330 12.684346 519.422390 12.684346 522.049451 12.684346 524.676511 12.684346 527.303571 12.684346 529.930632 12.684346 532.557692 12.684346 535.184753 12.684346 537.811813 12.684346 540.438874 12.684346 543.065934 12.684346 545.692995 12.684346 548.320055 12.684346 550.947115 12.684346 553.574176 12.684346 556.201236 12.684346 558.828297 12.684346 561.455357 12.684346 564.082418 12.684346 566.709478 12.684346 569.336538 12.684346 571.963599 12.684346 574.590659 12.684346 577.217720 12.684346 579.844780 12.684346 582.471841 12.684346 585.098901 12.684346 587.725962 12.684346 590.353022 12.684346 592.980082 12.684346 595.607143 12.684346 598.234203 12.684346 600.861264 12.684346 603.488324 12.684346 606.115385 12.684346 608.742445 12.684346 611.369505 12.684346 613.996566 12.684346 616.623626 12.634615 619.250687 12.634615 621.877747 12.634615 624.504808 12.634615 627.131868 12.634615 629.758929 12.634615 632.385989 12.634615 635.013049 12.634615 637.640110 12.634615 640.267170 12.634615 642.894231 12.634615 645.521291 12.634615 648.148352 12.634615 650.775412 12.634615 653.402473 12.634615 656.029533 12.634615 658.656593 12.634615 661.283654 12.634615 663.910714 12.634615 666.537775 12.634615 669.164835 12.634615 671.791896 12.634615 674.418956 12.634615 677.046016 12.634615 679.673077 12.634615 682.300137 12.634615 684.927198 12.634615 687.554258 12.634615 690.181319 12.634615 692.808379 12.634615 695.435440 12.634615 698.062500 12.634615 700.689560 12.634615 703.316621 12.634615 705.943681 12.634615 708.570742 12.634615 711.197802 12.634615 713.824863 12.634615 716.451923 12.634615 719.078984 12.634615 721.706044 12.634615 724.333104 12.634615 726.960165 12.634615 729.587225 12.634615 732.214286 12.634615 734.841346 12.634615 737.468407 12.634615 740.095467 12.634615 742.722527 12.634615 745.349588 12.634615 747.976648 12.634615 750.603709 12.634615 753.230769 12.634615 755.857830 12.634615 758.484890 12.634615 761.111951 12.634615 763.739011 12.634615 766.366071 12.634615 768.993132 12.634615 771.620192 12.634615 774.247253 12.634615 776.874313 12.634615 779.501374 12.634615 782.128434 12.634615 784.755495 12.634615 787.382555 12.634615 790.009615 12.634615 792.636676 12.634615 795.263736 12.634615 797.890797 12.634615 800.517857 12.634615 803.144918 12.634615 805.771978 12.634615 808.399038 12.634615 811.026099 12.634615 813.653159 12.634615 816.280220 12.634615 818.907280 12.634615 821.534341 12.634615 824.161401 12.634615 826.788462 12.634615 829.415522 12.634615 832.042582 12.634615 834.669643 12.634615 837.296703 12.634615 839.923764 12.634615 842.550824 12.634615 845.177885 12.634615 847.804945 12.634615 850.432005 12.634615 853.059066 12.634615 855.686126 12.634615 858.313187 12.634615 860.940247 12.634615 863.567308 12.634615 866.194368 12.634615 868.821429 12.634615 871.448489 12.634615 874.075549 12.634615 876.702610 12.634615 879.329670 12.634615 881.956731 12.634615 884.583791 12.634615 887.210852 12.634615 889.837912 12.634615 892.464973 12.634615 895.092033 12.634615 897.719093 12.634615 900.346154 12.634615" /></g></g><g class="titles"><text class="title plot_title" x="512.0" y="26">Election 2 Participation</text><text class="title" transform="rotate(-90 0.000000 374.500000)" x="0" y="400.5">Users</text></g><g class="plot overlay" transform="translate(86, 46)"><g class="series serie-0 color-0" /><g class="series serie-1 color-1" /></g><g class="plot text-overlay" transform="translate(86, 46)"><g class="series serie-0 color-0" /><g class="series serie-1 color-1" /></g><g class="plot tooltip-overlay" transform="translate(86, 46)"><g class="tooltip" style="opacity: 0" transform="translate(0 0)"><a><rect class="tooltip-box" height="0" rx="0" ry="0" width="0" /><text class="text"><tspan class="label" /><tspan class="value" /></text></a></g></g><g class="legends" transform="translate(96, 713)"><g class="legend reactive activate-serie" id="activate-serie-0"><rect class="color-0 reactive" height="12" width="12" x="0.0" y="1.0" /><text x="17.0" y="11.2">constituents</text></g><g class="legend reactive activate-serie" id="activate-serie-1"><rect class="color-1 reactive" height="12" width="12" x="459.0" y="1.0" /><text x="476.0" y="11.2">caucus</text></g></g></g></svg>