<?xml version='1.0' encoding='utf-8'?>
<svg xmlns:xlink="http://www.w3.org/1999/xlink" class="pygal-chart" id="chart-cfafa1e8-66cc-4b7c-886b-2e215feaaa74" viewBox="0 0 1024 768" xmlns="http://www.w3.org/2000/svg"><!--Generated with pygal 1.7.0 (etree) ©Kozea 2011-2014 on 2018-03-26--><!--http://pygal.org--><!--http://github.com/Kozea/pygal--><defs><style type="text/css">#chart-cfafa1e8-66cc-4b7c-886b-2e215feaaa74 .title{font-family:"monospace";font-size:16px}#chart-cfafa1e8-66cc-4b7c-886b-2e215feaaa74 .legends .legend text{font-family:"monospace";font-size:14px}#chart-cfafa1e8-66cc-4b7c-886b-2e215feaaa74 .axis text{font-family:"monospace";font-size:10px}#chart-cfafa1e8-66cc-4b7c-886b-2e215feaaa74 .axis text.major{font-family:"monospace";font-size:10px}#chart-cfafa1e8-66cc-4b7c-886b-2e215feaaa74 .series text{font-family:"monospace";font-size:8px}#chart-cfafa1e8-66cc-4b7c-886b-2e215feaaa74 .tooltip text{font-family:"monospace";font-size:16px}#chart-cfafa1e8-66cc-4b7c-886b-2e215feaaa74 text.no_data{font-size:64px}
#chart-cfafa1e8-66cc-4b7c-886b-2e215feaaa74{background-color:black}#chart-cfafa1e8-66cc-4b7c-886b-2e215feaaa74 path,#chart-cfafa1e8-66cc-4b7c-886b-2e215feaaa74 line,#chart-cfafa1e8-66cc-4b7c-886b-2e215feaaa74 rect,#chart-cfafa1e8-66cc-4b7c-886b-2e215feaaa74 circle{-webkit-transition:250ms;-moz-transition:250ms;transition:250ms}#chart-cfafa1e8-66cc-4b7c-886b-2e215feaaa74 .graph &gt; .background{fill:black}#chart-cfafa1e8-66cc-4b7c-886b-2e215feaaa74 .plot &gt; .background{fill:#111}#chart-cfafa1e8-66cc-4b7c-886b-2e215feaaa74 .graph{fill:#999}#chart-cfafa1e8-66cc-4b7c-886b-2e215feaaa74 text.no_data{fill:#eee}#chart-cfafa1e8-66cc-4b7c-886b-2e215feaaa74 .title{fill:#eee}#chart-cfafa1e8-66cc-4b7c-886b-2e215feaaa74 .legends .legend text{fill:#999}#chart-cfafa1e8-66cc-4b7c-886b-2e215feaaa74 .legends .legend:hover text{fill:#eee}#chart-cfafa1e8-66cc-4b7c-886b-2e215feaaa74 .axis .line{stroke:#eee}#chart-cfafa1e8-66cc-4b7c-886b-2e215feaaa74 .axis .guide.line{stroke:#555}#chart-cfafa1e8-66cc-4b7c-886b-2e215feaaa74 .axis .major.line{stroke:#999}#chart-cfafa1e8-66cc-4b7c-886b-2e215feaaa74 .axis text.major{stroke:#eee;fill:#eee}#chart-cfafa1e8-66cc-4b7c-886b-2e215feaaa74 .axis.y .guides:hover .guide.line,#chart-cfafa1e8-66cc-4b7c-886b-2e215feaaa74 .line-graph .axis.x .guides:hover .guide.line,#chart-cfafa1e8-66cc-4b7c-886b-2e215feaaa74 .stackedline-graph .axis.x .guides:hover .guide.line,#chart-cfafa1e8-66cc-4b7c-886b-2e215feaaa74 .xy-graph .axis.x .guides:hover .guide.line{stroke:#eee}#chart-cfafa1e8-66cc-4b7c-886b-2e215feaaa74 .axis .guides:hover text{fill:#eee}#chart-cfafa1e8-66cc-4b7c-886b-2e215feaaa74 .reactive{fill-opacity:.8}#chart-cfafa1e8-66cc-4b7c-886b-2e215feaaa74 .reactive.active,#chart-cfafa1e8-66cc-4b7c-886b-2e215feaaa74 .active .reactive{fill-opacity:.4}#chart-cfafa1e8-66cc-4b7c-886b-2e215feaaa74 .series{stroke-width:1.0;stroke-linejoin:round;stroke-linecap:round;stroke-dasharray:0,0}#chart-cfafa1e8-66cc-4b7c-886b-2e215feaaa74 .series text{fill:#eee}#chart-cfafa1e8-66cc-4b7c-886b-2e215feaaa74 .tooltip rect{fill:#111;stroke:#eee}#chart-cfafa1e8-66cc-4b7c-886b-2e215feaaa74 .tooltip text{fill:#eee}#chart-cfafa1e8-66cc-4b7c-886b-2e215feaaa74 .map-element{fill:#999;stroke:#555 !important;opacity:.9;stroke-width:3;-webkit-transition:250ms;-moz-transition:250ms;-o-transition:250ms;transition:250ms}#chart-cfafa1e8-66cc-4b7c-886b-2e215feaaa74 .map-element:hover{opacity:1;stroke-width:10}#chart-cfafa1e8-66cc-4b7c-886b-2e215feaaa74 .color-0,#chart-cfafa1e8-66cc-4b7c-886b-2e215feaaa74 .color-0 a:visited{stroke:#ff5995;fill:#ff5995}#chart-cfafa1e8-66cc-4b7c-886b-2e215feaaa74 .color-1,#chart-cfafa1e8-66cc-4b7c-886b-2e215feaaa74 .color-1 a:visited{stroke:#b6e354;fill:#b6e354}#chart-cfafa1e8-66cc-4b7c-886b-2e215feaaa74 .color-2,#chart-cfafa1e8-66cc-4b7c-886b-2e215feaaa74 .color-2 a:visited{stroke:#feed6c;fill:#feed6c}#chart-cfafa1e8-66cc-4b7c-886b-2e215feaaa74 .color-3,#chart-cfafa1e8-66cc-4b7c-886b-2e215feaaa74 .color-3 a:visited{stroke:#8cedff;fill:#8cedff}#chart-cfafa1e8-66cc-4b7c-886b-2e215feaaa74 .color-4,#chart-cfafa1e8-66cc-4b7c-886b-2e215feaaa74 .color-4 a:visited{stroke:#9e6ffe;fill:#9e6ffe}#chart-cfafa1e8-66cc-4b7c-886b-2e215feaaa74 .color-5,#chart-cfafa1e8-66cc-4b7c-886b-2e215feaaa74 .color-5 a:visited{stroke:#899ca1;fill:#899ca1}#chart-cfafa1e8-66cc-4b7c-886b-2e215feaaa74 .color-6,#chart-cfafa1e8-66cc-4b7c-886b-2e215feaaa74 .color-6 a:visited{stroke:#f8f8f2;fill:#f8f8f2}#chart-cfafa1e8-66cc-4b7c-886b-2e215feaaa74 .color-7,#chart-cfafa1e8-66cc-4b7c-886b-2e215feaaa74 .color-7 a:visited{stroke:#bf4646;fill:#bf4646}#chart-cfafa1e8-66cc-4b7c-886b-2e215feaaa74 .color-8,#chart-cfafa1e8-66cc-4b7c-886b-2e215feaaa74 .color-8 a:visited{stroke:#516083;fill:#516083}#chart-cfafa1e8-66cc-4b7c-886b-2e215feaaa74 .color-9,#chart-cfafa1e8-66cc-4b7c-886b-2e215feaaa74 .color-9 a:visited{stroke:#f92672;fill:#f92672}#chart-cfafa1e8-66cc-4b7c-886b-2e215feaaa74 .color-10,#chart-cfafa1e8-66cc-4b7c-886b-2e215feaaa74 .color-10 a:visited{stroke:#82b414;fill:#82b414}#chart-cfafa1e8-66cc-4b7c-886b-2e215feaaa74 .color-11,#chart-cfafa1e8-66cc-4b7c-886b-2e215feaaa74 .color-11 a:visited{stroke:#fd971f;fill:#fd971f}#chart-cfafa1e8-66cc-4b7c-886b-2e215feaaa74 .color-12,#chart-cfafa1e8-66cc-4b7c-886b-2e215feaaa74 .color-12 a:visited{stroke:#56c2d6;fill:#56c2d6}#chart-cfafa1e8-66cc-4b7c-886b-2e215feaaa74 .color-13,#chart-cfafa1e8-66cc-4b7c-886b-2e215feaaa74 .color-13 a:visited{stroke:#808384;fill:#808384}#chart-cfafa1e8-66cc-4b7c-886b-2e215feaaa74 .color-14,#chart-cfafa1e8-66cc-4b7c-886b-2e215feaaa74 .color-14 a:visited{stroke:#8c54fe;fill:#8c54fe}#chart-cfafa1e8-66cc-4b7c-886b-2e215feaaa74 .color-15,#chart-cfafa1e8-66cc-4b7c-886b-2e215feaaa74 .color-15 a:visited{stroke:#465457;fill:#465457}
#chart-cfafa1e8-66cc-4b7c-886b-2e215feaaa74 text.no_data{text-anchor:middle}#chart-cfafa1e8-66cc-4b7c-886b-2e215feaaa74 .guide.line{fill-opacity:0}#chart-cfafa1e8-66cc-4b7c-886b-2e215feaaa74 .centered{text-anchor:middle}#chart-cfafa1e8-66cc-4b7c-886b-2e215feaaa74 .title{text-anchor:middle}#chart-cfafa1e8-66cc-4b7c-886b-2e215feaaa74 .legends .legend text{fill-opacity:1}#chart-cfafa1e8-66cc-4b7c-886b-2e215feaaa74 .axis.x text{text-anchor:middle}#chart-cfafa1e8-66cc-4b7c-886b-2e215feaaa74 .axis.x:not(.web) text[transform]{text-anchor:start}#chart-cfafa1e8-66cc-4b7c-886b-2e215feaaa74 .axis.y text{text-anchor:end}#chart-cfafa1e8-66cc-4b7c-886b-2e215feaaa74 .axis.y2 text{text-anchor:start}#chart-cfafa1e8-66cc-4b7c-886b-2e215feaaa74 .axis.y .logarithmic text:not(.major),#chart-cfafa1e8-66cc-4b7c-886b-2e215feaaa74 .axis.y2 .logarithmic text:not(.major){font-size:50%}#chart-cfafa1e8-66cc-4b7c-886b-2e215feaaa74 .axis .guide.line{stroke-dasharray:4,4}#chart-cfafa1e8-66cc-4b7c-886b-2e215feaaa74 .axis .major.guide.line{stroke-dasharray:6,6}#chart-cfafa1e8-66cc-4b7c-886b-2e215feaaa74 .axis text.major{stroke-width:0.5px}#chart-cfafa1e8-66cc-4b7c-886b-2e215feaaa74 .horizontal .axis.y .guide.line,#chart-cfafa1e8-66cc-4b7c-886b-2e215feaaa74 .horizontal .axis.y2 .guide.line,#chart-cfafa1e8-66cc-4b7c-886b-2e215feaaa74 .vertical .axis.x .guide.line{opacity:0}#chart-cfafa1e8-66cc-4b7c-886b-2e215feaaa74 .horizontal .axis.always_show .guide.line,#chart-cfafa1e8-66cc-4b7c-886b-2e215feaaa74 .vertical .axis.always_show .guide.line{opacity:1 !important}#chart-cfafa1e8-66cc-4b7c-886b-2e215feaaa74 .axis.y .guides:hover .guide.line,#chart-cfafa1e8-66cc-4b7c-886b-2e215feaaa74 .axis.y2 .guides:hover .guide.line,#chart-cfafa1e8-66cc-4b7c-886b-2e215feaaa74 .axis.x .guides:hover .guide.line{opacity:1}#chart-cfafa1e8-66cc-4b7c-886b-2e215feaaa74 .axis .guides:hover text{opacity:1}#chart-cfafa1e8-66cc-4b7c-886b-2e215feaaa74 .nofill{fill:none}#chart-cfafa1e8-66cc-4b7c-886b-2e215feaaa74 .subtle-fill{fill-opacity:.2}#chart-cfafa1e8-66cc-4b7c-886b-2e215feaaa74 .dot{stroke-width:1px;fill-opacity:1}#chart-cfafa1e8-66cc-4b7c-886b-2e215feaaa74 .dot.active{stroke-width:5px}#chart-cfafa1e8-66cc-4b7c-886b-2e215feaaa74 .series text{stroke:none}#chart-cfafa1e8-66cc-4b7c-886b-2e215feaaa74 .series text.active{opacity:1}#chart-cfafa1e8-66cc-4b7c-886b-2e215feaaa74 .tooltip rect{fill-opacity:0.8}#chart-cfafa1e8-66cc-4b7c-886b-2e215feaaa74 .tooltip text{fill-opacity:1}#chart-cfafa1e8-66cc-4b7c-886b-2e215feaaa74 .tooltip text tspan.label{fill-opacity:.8}</style><script type="text/javascript">window.config = {"css": ["style.css", "graph.css"], "disable_xml_declaration": false, "dots_size": 2.5, "explicit_size": false, "fill": false, "half_pie": false, "height": 768, "human_readable": false, "include_x_axis": false, "inner_radius": 0, "interpolate": null, "interpolation_parameters": {}, "interpolation_precision": 250, "js": ["http://kozea.github.io/pygal.js/javascripts/svg.jquery.js", "http://kozea.github.io/pygal.js/javascripts/pygal-tooltips.js"], "label_font_size": 10, "legend_at_bottom": true, "legend_at_bottom_columns": null, "legend_box_size": 12, "legend_font_size": 14, "logarithmic": false, "major_label_font_size": 10, "margin": 20, "margin_bottom": null, "margin_left": null, "margin_right": null, "margin_top": null, "missing_value_fill_truncation": "x", "mode": null, "no_data_font_size": 64, "no_data_text": "No data", "no_prefix": false, "order_min": null, "pretty_print": false, "print_values": false, "print_zeroes": false, "range": null, "rounded_bars": null, "show_dots": false, "show_legend": true, "show_minor_x_labels": true, "show_minor_y_labels": true, "show_only_major_dots": false, "show_x_guides": false, "show_x_labels": true, "show_y_guides": true, "show_y_labels": true, "spacing": 10, "stack_from_top": false, "strict": false, "stroke": true, "style": {"background": "black", "colors": ["#ff5995", "#b6e354", "#feed6c", "#8cedff", "#9e6ffe", "#899ca1", "#f8f8f2", "#bf4646", "#516083", "#f92672", "#82b414", "#fd971f", "#56c2d6", "#808384", "#8c54fe", "#465457"], "font_family": "monospace", "foreground": "#999", "foreground_dark": "#555", "foreground_light": "#eee", "opacity": ".8", "opacity_hover": ".4", "plot_background": "#111", "stroke_dasharray": "0,0", "stroke_style": "round", "stroke_width": 1.0, "transition": "250ms"}, "title": "Election 10 Participation", "title_font_size": 16, "tooltip_border_radius": 0, "tooltip_font_size": 16, "truncate_label": null, "truncate_legend": null, "value_font_size": 8, "width": 1024, "x_label_format": "%Y-%m-%d %H:%M:%S.%f", "x_label_rotation": 0, "x_labels": null, "x_labels_major": null, "x_labels_major_count": null, "x_labels_major_every": null, "x_title": null, "x_value_formatter": null, "xrange": null, "y_label_rotation": 0, "y_labels": null, "y_labels_major": null, "y_labels_major_count": null, "y_labels_major_every": null, "y_title": "Users", "zero": 0}</script><script type="text/javascript" xlink:href="http://kozea.github.io/pygal.js/javascripts/svg.jquery.js" /><script type="text/javascript" xlink:href="http://kozea.github.io/pygal.js/javascripts/pygal-tooltips.js" /></defs><title>Election 10 Participation</title><g class="graph line-graph vertical"><rect class="background" height="768" width="1024" x="0" y="0" /><g class="plot" transform="translate(86, 46)"><rect class="background" height="657.0" width="918.0" x="0" y="0" /><g class="axis y"><g class="guides"><path class="axis major line" d="M0.000000 644.365385 h918.000000" /><text class="major" x="-5" y="647.8653846153846">0</text></g><g class="guides"><path class="guide line" d="M0.000000 569.932030 h918.000000" /><text class="" x="-5" y="573.4320297715293">10000</text></g><g class="guides"><path class="guide line" d="M0.000000 495.498675 h918.000000" /><text class="" x="-5" y="498.99867492767396">20000</text></g><g class="guides"><path class="guide line" d="M0.000000 421.065320 h918.000000" /><text class="" x="-5" y="424.56532008381856">30000</text></g><g class="guides"><path class="guide line" d="M0.000000 346.631965 h918.000000" /><text class="" x="-5" y="350.13196523996317">40000</text></g><g class="guides"><path class="major guide line" d="M0.000000 272.198610 h918.000000" /><text class="major" x="-5" y="275.6986103961078">50000</text></g><g class="guides"><path class="guide line" d="M0.000000 197.765256 h918.000000" /><text class="" x="-5" y="201.26525555225248">60000</text></g><g class="guides"><path class="guide line" d="M0.000000 123.331901 h918.000000" /><text class="" x="-5" y="126.83190070839714">70000</text></g><g class="guides"><path class="guide line" d="M0.000000 48.898546 h918.000000" /><text class="" x="-5" y="52.3985458645418">80000</text></g></g><g class="series serie-0 color-0"><path class="line reactive nofill" d="M17.653846 644.365385 L20.105769 644.365385 22.557692 644.365385 25.009615 644.365385 27.461538 644.365385 29.913462 644.365385 32.365385 644.365385 34.817308 644.365385 37.269231 644.365385 39.721154 644.365385 42.173077 644.365385 44.625000 644.365385 47.076923 644.365385 49.528846 644.365385 51.980769 644.365385 54.432692 644.365385 56.884615 644.365385 59.336538 644.365385 61.788462 644.365385 64.240385 644.365385 66.692308 644.365385 69.144231 644.365385 71.596154 644.365385 74.048077 644.365385 76.500000 644.365385 78.951923 644.365385 81.403846 644.365385 83.855769 644.365385 86.307692 644.365385 88.759615 644.365385 91.211538 644.365385 93.663462 644.365385 96.115385 644.365385 98.567308 644.365385 101.019231 644.365385 103.471154 644.365385 105.923077 644.365385 108.375000 644.365385 110.826923 644.365385 113.278846 644.365385 115.730769 644.365385 118.182692 644.365385 120.634615 644.365385 123.086538 644.365385 125.538462 644.365385 127.990385 644.365385 130.442308 644.365385 132.894231 644.365385 135.346154 644.365385 137.798077 644.365385 140.250000 644.365385 142.701923 644.365385 145.153846 644.365385 147.605769 644.365385 150.057692 644.365385 152.509615 644.365385 154.961538 644.365385 157.413462 644.365385 159.865385 644.365385 162.317308 644.365385 164.769231 644.365385 167.221154 644.365385 169.673077 644.365385 172.125000 644.365385 174.576923 644.365385 177.028846 644.365385 179.480769 644.365385 181.932692 644.365385 184.384615 644.365385 186.836538 644.365385 189.288462 644.365385 191.740385 644.365385 194.192308 644.365385 196.644231 644.365385 199.096154 644.365385 201.548077 644.365385 204.000000 644.365385 206.451923 644.365385 208.903846 644.365385 211.355769 644.365385 213.807692 644.365385 216.259615 644.365385 218.711538 644.365385 221.163462 644.365385 223.615385 644.365385 226.067308 644.365385 228.519231 644.365385 230.971154 644.365385 233.423077 644.365385 235.875000 644.365385 238.326923 644.365385 240.778846 644.365385 243.230769 644.365385 245.682692 644.365385 248.134615 644.365385 250.586538 644.365385 253.038462 644.365385 255.490385 644.365385 257.942308 644.365385 260.394231 644.365385 262.846154 644.365385 265.298077 644.365385 267.750000 644.365385 270.201923 644.365385 272.653846 644.365385 275.105769 644.365385 277.557692 644.365385 280.009615 644.365385 282.461538 644.365385 284.913462 644.365385 287.365385 644.365385 289.817308 644.365385 292.269231 644.365385 294.721154 644.365385 297.173077 644.365385 299.625000 644.365385 302.076923 644.365385 304.528846 644.365385 306.980769 644.365385 309.432692 644.365385 311.884615 644.365385 314.336538 644.365385 316.788462 644.365385 319.240385 644.365385 321.692308 644.365385 324.144231 644.365385 326.596154 644.365385 329.048077 644.365385 331.500000 644.365385 333.951923 644.365385 336.403846 644.365385 338.855769 644.365385 341.307692 644.365385 343.759615 644.365385 346.211538 644.365385 348.663462 644.365385 351.115385 644.365385 353.567308 644.365385 356.019231 644.365385 358.471154 644.365385 360.923077 644.365385 363.375000 644.365385 365.826923 644.365385 368.278846 644.365385 370.730769 644.365385 373.182692 644.365385 375.634615 644.365385 378.086538 644.365385 380.538462 644.365385 382.990385 644.365385 385.442308 644.365385 387.894231 644.365385 390.346154 644.365385 392.798077 644.365385 395.250000 644.365385 397.701923 644.365385 400.153846 644.365385 402.605769 644.365385 405.057692 644.365385 407.509615 644.365385 409.961538 644.365385 412.413462 644.365385 414.865385 644.365385 417.317308 644.365385 419.769231 644.365385 422.221154 644.365385 424.673077 644.365385 427.125000 644.365385 429.576923 644.365385 432.028846 644.365385 434.480769 644.365385 436.932692 644.365385 439.384615 644.365385 441.836538 644.365385 444.288462 644.365385 446.740385 644.365385 449.192308 644.365385 451.644231 644.365385 454.096154 644.365385 456.548077 644.365385 459.000000 644.365385 461.451923 644.365385 463.903846 644.365385 466.355769 644.365385 468.807692 644.365385 471.259615 644.365385 473.711538 644.365385 476.163462 644.365385 478.615385 644.365385 481.067308 644.365385 483.519231 644.365385 485.971154 644.365385 488.423077 644.365385 490.875000 644.365385 493.326923 644.365385 495.778846 644.365385 498.230769 644.365385 500.682692 644.365385 503.134615 644.365385 505.586538 644.365385 508.038462 644.365385 510.490385 644.365385 512.942308 644.365385 515.394231 644.365385 517.846154 644.365385 520.298077 644.365385 522.750000 644.365385 525.201923 644.365385 527.653846 644.365385 530.105769 644.365385 532.557692 644.365385 535.009615 644.365385 537.461538 644.365385 539.913462 644.365385 542.365385 644.365385 544.817308 644.365385 547.269231 644.365385 549.721154 644.365385 552.173077 644.365385 554.625000 644.365385 557.076923 644.365385 559.528846 644.365385 561.980769 644.365385 564.432692 644.365385 566.884615 644.365385 569.336538 644.365385 571.788462 644.365385 574.240385 644.365385 576.692308 644.365385 579.144231 644.365385 581.596154 644.365385 584.048077 644.365385 586.500000 644.365385 588.951923 644.365385 591.403846 644.365385 593.855769 644.365385 596.307692 644.365385 598.759615 644.365385 601.211538 644.365385 603.663462 644.365385 606.115385 644.365385 608.567308 644.365385 611.019231 644.365385 613.471154 644.365385 615.923077 644.365385 618.375000 644.365385 620.826923 644.365385 623.278846 644.365385 625.730769 644.365385 628.182692 644.365385 630.634615 644.365385 633.086538 644.365385 635.538462 644.365385 637.990385 644.365385 640.442308 644.365385 642.894231 644.365385 645.346154 644.365385 647.798077 644.365385 650.250000 644.365385 652.701923 644.365385 655.153846 644.365385 657.605769 644.365385 660.057692 644.365385 662.509615 643.591278 664.961538 623.308189 667.413462 613.661626 669.865385 607.215697 672.317308 603.188853 674.769231 600.397602 677.221154 597.926415 679.673077 595.671084 682.125000 593.080803 684.576923 589.976932 687.028846 586.835845 689.480769 583.612880 691.932692 579.846553 694.384615 576.273752 696.836538 572.834931 699.288462 568.979283 701.740385 565.696772 704.192308 562.578014 706.644231 559.652783 709.096154 556.831759 711.548077 554.085169 714.000000 551.494888 716.451923 549.232114 718.903846 547.118207 721.355769 545.145723 723.807692 543.545405 726.259615 542.101398 728.711538 540.984898 731.163462 540.099141 733.615385 539.317591 736.067308 538.684907 738.519231 538.044781 740.971154 537.322777 743.423077 536.548670 745.875000 535.670357 748.326923 534.561300 750.778846 533.392696 753.230769 532.075225 755.682692 530.690765 758.134615 529.313748 760.586538 527.817638 763.038462 526.477837 765.490385 525.383667 767.942308 523.924773 770.394231 522.637076 772.846154 521.252616 775.298077 520.091455 777.750000 518.669778 780.201923 517.359751 782.653846 516.235808 785.105769 515.260731 787.557692 514.278210 790.009615 513.526433 792.461538 512.670450 794.913462 511.613496 797.365385 510.467223 799.817308 509.097649 802.269231 506.395718 804.721154 502.770814 807.173077 497.225529 809.625000 490.794487 812.076923 484.638848 814.528846 479.368967 816.980769 475.245359 819.432692 471.560908 821.884615 467.362867 824.336538 463.410456 826.788462 461.936675 829.240385 461.936675 831.692308 461.936675 834.144231 461.936675 836.596154 461.936675 839.048077 461.936675 841.500000 461.936675 843.951923 461.936675 846.403846 461.936675 848.855769 461.936675 851.307692 461.936675 853.759615 461.936675 856.211538 461.936675 858.663462 461.936675 861.115385 461.936675 863.567308 461.936675 866.019231 461.936675 868.471154 461.936675 870.923077 461.936675 873.375000 461.936675 875.826923 461.936675 878.278846 461.936675 880.730769 461.936675 883.182692 461.936675 885.634615 461.936675 888.086538 461.936675 890.538462 461.936675 892.990385 461.936675 895.442308 461.936675 897.894231 461.936675 900.346154 461.936675" /></g><g class="series serie-1 color-1"><path class="line reactive nofill" d="M17.653846 629.865767 L20.105769 624.558669 22.557692 620.703021 25.009615 618.678434 27.461538 617.182323 29.913462 615.626666 32.365385 614.331526 34.817308 613.058716 37.269231 610.870375 39.721154 608.019577 42.173077 604.885933 44.625000 600.933522 47.076923 597.554248 49.528846 594.629017 51.980769 592.083396 54.432692 590.244892 56.884615 588.346842 59.336538 586.277594 61.788462 584.550741 64.240385 582.942980 66.692308 581.685057 69.144231 580.806743 71.596154 579.861439 74.048077 579.102219 76.500000 578.424876 78.951923 577.903842 81.403846 577.479572 83.855769 577.099962 86.307692 576.846888 88.759615 576.578928 91.211538 576.303525 93.663462 576.057895 96.115385 575.641068 98.567308 575.239128 101.019231 574.770198 103.471154 574.189618 105.923077 573.393181 108.375000 572.537197 110.826923 571.725874 113.278846 571.048530 115.730769 570.289310 118.182692 569.507760 120.634615 568.778313 123.086538 568.130743 125.538462 567.587379 127.990385 567.103562 130.442308 566.552755 132.894231 566.202919 135.346154 565.882855 137.798077 565.510688 140.250000 565.309718 142.701923 565.019428 145.153846 564.900335 147.605769 564.766355 150.057692 564.662148 152.509615 564.490952 154.961538 564.282538 157.413462 563.955031 159.865385 563.642411 162.317308 563.255358 164.769231 562.719438 167.221154 562.295168 169.673077 561.803907 172.125000 561.245657 174.576923 560.724624 177.028846 560.248250 179.480769 559.831424 181.932692 559.369937 184.384615 559.034987 186.836538 558.707480 189.288462 558.432076 191.740385 558.141786 194.192308 557.881270 196.644231 557.576093 199.096154 557.479330 201.548077 557.367679 204.000000 557.256029 206.451923 557.151823 208.903846 557.077389 211.355769 556.973183 213.807692 556.839203 216.259615 556.653119 218.711538 556.437263 221.163462 556.228849 223.615385 556.012992 226.067308 555.640826 228.519231 555.328206 230.971154 555.015585 233.423077 554.673192 235.875000 554.301025 238.326923 553.995848 240.778846 553.705558 243.230769 553.519475 245.682692 553.288732 248.134615 553.072875 250.586538 552.916565 253.038462 552.693265 255.490385 552.499738 257.942308 552.358315 260.394231 552.164788 262.846154 552.112685 265.298077 552.015921 267.750000 551.919158 270.201923 551.859611 272.653846 551.807508 275.105769 551.762848 277.557692 551.673528 280.009615 551.576764 282.461538 551.450228 284.913462 551.346021 287.365385 551.234371 289.817308 551.137608 292.269231 551.025958 294.721154 550.929194 297.173077 550.772884 299.625000 550.601688 302.076923 550.482594 304.528846 550.378387 306.980769 550.259294 309.432692 550.162531 311.884615 550.058324 314.336538 549.954117 316.788462 549.902014 319.240385 549.790364 321.692308 549.730817 324.144231 549.678714 326.596154 549.611724 329.048077 549.522404 331.500000 549.485187 333.951923 549.418197 336.403846 549.321434 338.855769 549.224670 341.307692 549.075804 343.759615 548.904607 346.211538 548.696194 348.663462 548.472894 351.115385 548.294254 353.567308 548.070953 356.019231 547.899757 358.471154 547.721117 360.923077 547.497817 363.375000 547.341507 365.826923 547.133093 368.278846 547.043773 370.730769 546.887463 373.182692 546.760926 375.634615 546.626946 378.086538 546.492966 380.538462 546.373873 382.990385 546.262223 385.442308 546.143130 387.894231 546.009150 390.346154 545.852839 392.798077 545.584879 395.250000 545.249929 397.701923 544.885206 400.153846 544.416276 402.605769 543.887799 405.057692 543.322105 407.509615 542.823402 409.961538 542.376802 412.413462 541.907872 414.865385 541.223085 417.317308 540.761598 419.769231 540.381988 422.221154 540.114028 424.673077 539.838624 427.125000 537.211127 429.576923 504.348801 432.028846 487.482203 434.480769 476.681923 436.932692 469.424671 439.384615 463.857056 441.836538 457.961934 444.288462 452.200792 446.740385 445.047747 449.192308 435.274648 451.644231 423.164341 454.096154 409.126210 456.548077 391.835342 459.000000 372.475226 461.451923 352.802490 463.903846 338.429410 466.355769 325.507779 468.807692 312.519159 471.259615 300.274872 473.711538 288.908899 476.163462 280.416053 478.615385 272.094404 481.067308 265.775012 483.519231 260.162737 485.971154 256.039129 488.423077 251.841088 490.875000 248.781877 493.326923 246.414896 495.778846 244.702929 498.230769 243.363129 500.682692 241.874462 503.134615 240.289031 505.586538 238.502631 508.038462 236.448270 510.490385 234.200383 512.942308 230.917872 515.394231 227.166431 517.846154 222.983276 520.298077 218.130221 522.750000 213.433477 525.201923 208.714402 527.653846 204.412154 530.105769 199.856833 532.557692 195.621575 535.009615 191.572400 537.461538 188.394096 539.913462 185.781485 542.365385 183.220978 544.817308 180.883771 547.269231 178.732647 549.721154 177.110000 552.173077 175.725539 554.625000 174.802566 557.076923 173.901922 559.528846 173.075712 561.980769 172.390925 564.432692 171.438178 566.884615 170.366338 569.336538 169.115857 571.788462 167.455993 574.240385 165.342086 576.692308 162.826239 579.144231 160.139195 581.596154 157.377717 584.048077 154.988407 586.500000 152.762849 588.951923 150.410755 591.403846 147.723711 593.855769 145.356730 596.307692 143.443793 598.759615 141.635063 601.211538 140.071962 603.663462 138.665172 606.115385 137.533785 608.567308 136.335408 611.019231 135.338001 613.471154 134.593667 615.923077 134.139624 618.375000 133.506940 620.826923 133.030567 623.278846 132.487203 625.730769 131.951283 628.182692 131.229280 630.634615 130.336079 633.086538 129.174919 635.538462 127.931882 637.990385 126.294348 640.442308 124.604711 642.894231 123.205364 645.346154 121.828347 647.798077 120.101493 650.250000 118.449073 652.701923 117.042282 655.153846 115.776915 657.605769 114.697632 660.057692 113.729998 662.509615 112.308321 664.961538 104.291849 667.413462 99.967271 669.865385 97.116473 672.317308 94.987679 674.769231 93.707425 677.221154 92.389955 679.673077 91.273455 682.125000 90.149511 684.576923 88.809711 687.028846 87.596447 689.480769 86.085450 691.932692 84.358596 694.384615 82.780609 696.836538 81.262169 699.288462 79.431108 701.740385 77.741471 704.192308 76.081607 706.644231 74.317537 709.096154 72.836313 711.548077 71.273212 714.000000 69.695225 716.451923 68.221445 718.903846 66.941191 721.355769 65.854464 723.807692 64.909160 726.259615 63.926640 728.711538 63.145090 731.163462 62.542180 733.615385 62.028590 736.067308 61.485226 738.519231 61.023739 740.971154 60.472933 743.423077 59.907239 745.875000 59.289442 748.326923 58.649315 750.778846 57.793332 753.230769 56.795925 755.682692 55.858065 758.134615 54.949978 760.586538 53.960014 763.038462 52.992380 765.490385 52.143840 767.942308 51.198537 770.394231 50.253233 772.846154 49.382363 775.298077 48.623142 777.750000 47.662952 780.201923 46.769752 782.653846 45.973315 785.105769 45.303415 787.557692 44.618628 790.009615 43.985944 792.461538 43.487241 794.913462 42.884331 797.365385 42.080451 799.817308 41.284014 802.269231 40.093080 804.721154 38.433216 807.173077 35.723842 809.625000 32.299908 812.076923 28.555910 814.528846 25.035212 816.980769 22.147198 819.432692 19.609021 821.884615 16.624243 824.336538 13.914869 826.788462 12.634615 829.240385 12.634615 831.692308 12.634615 834.144231 12.634615 836.596154 12.634615 839.048077 12.634615 841.500000 12.634615 843.951923 12.634615 846.403846 12.634615 848.855769 12.634615 851.307692 12.634615 853.759615 12.634615 856.211538 12.634615 858.663462 12.634615 861.115385 12.634615 863.567308 12.634615 866.019231 12.634615 868.471154 12.634615 870.923077 12.634615 873.375000 12.634615 875.826923 12.634615 878.278846 12.634615 880.730769 12.634615 883.182692 12.634615 885.634615 12.634615 888.086538 12.634615 890.538462 12.634615 892.990385 12.634615 895.442308 12.634615 897.894231 12.634615 900.346154 12.634615" /></g></g><g class="titles"><text class="title plot_title" x="512.0" y="26">Election 10 Participation</text><text class="title" transform="rotate(-90 0.000000 374.500000)" x="0" y="400.5">Users</text></g><g class="plot overlay" transform="translate(86, 46)"><g class="series serie-0 color-0" /><g class="series serie-1 color-1" /></g><g class="plot text-overlay" transform="translate(86, 46)"><g class="series serie-0 color-0" /><g class="series serie-1 color-1" /></g><g class="plot tooltip-overlay" transform="translate(86, 46)"><g class="tooltip" style="opacity: 0" transform="translate(0 0)"><a><rect class="tooltip-box" height="0" rx="0" ry="0" width="0" /><text class="text"><tspan class="label" /><tspan class="value" /></text></a></g></g><g class="legends" transform="translate(96, 713)"><g class="legend reactive activate-serie" id="activate-serie-0"><rect class="color-0 reactive" height="12" width="12" x="0.0" y="1.0" /><text x="17.0" y="11.2">constituents</text></g><g class="legend reactive activate-serie" id="activate-serie-1"><rect class="color-1 reactive" height="12" width="12" x="459.0" y="1.0" /><text x="476.0" y="11.2">caucus</text></g></g></g></svg>