<?xml version='1.0' encoding='utf-8'?>
<svg xmlns:xlink="http://www.w3.org/1999/xlink" class="pygal-chart" id="chart-adfc77c3-7395-400b-92f7-cfd83273a06a" viewBox="0 0 1024 768" xmlns="http://www.w3.org/2000/svg"><!--Generated with pygal 1.7.0 (etree) ©Kozea 2011-2014 on 2018-03-25--><!--http://pygal.org--><!--http://github.com/Kozea/pygal--><defs><style type="text/css">#chart-adfc77c3-7395-400b-92f7-cfd83273a06a .title{font-family:"monospace";font-size:16px}#chart-adfc77c3-7395-400b-92f7-cfd83273a06a .legends .legend text{font-family:"monospace";font-size:14px}#chart-adfc77c3-7395-400b-92f7-cfd83273a06a .axis text{font-family:"monospace";font-size:10px}#chart-adfc77c3-7395-400b-92f7-cfd83273a06a .axis text.major{font-family:"monospace";font-size:10px}#chart-adfc77c3-7395-400b-92f7-cfd83273a06a .series text{font-family:"monospace";font-size:8px}#chart-adfc77c3-7395-400b-92f7-cfd83273a06a .tooltip text{font-family:"monospace";font-size:16px}#chart-adfc77c3-7395-400b-92f7-cfd83273a06a text.no_data{font-size:64px}
#chart-adfc77c3-7395-400b-92f7-cfd83273a06a{background-color:black}#chart-adfc77c3-7395-400b-92f7-cfd83273a06a path,#chart-adfc77c3-7395-400b-92f7-cfd83273a06a line,#chart-adfc77c3-7395-400b-92f7-cfd83273a06a rect,#chart-adfc77c3-7395-400b-92f7-cfd83273a06a circle{-webkit-transition:250ms;-moz-transition:250ms;transition:250ms}#chart-adfc77c3-7395-400b-92f7-cfd83273a06a .graph &gt; .background{fill:black}#chart-adfc77c3-7395-400b-92f7-cfd83273a06a .plot &gt; .background{fill:#111}#chart-adfc77c3-7395-400b-92f7-cfd83273a06a .graph{fill:#999}#chart-adfc77c3-7395-400b-92f7-cfd83273a06a text.no_data{fill:#eee}#chart-adfc77c3-7395-400b-92f7-cfd83273a06a .title{fill:#eee}#chart-adfc77c3-7395-400b-92f7-cfd83273a06a .legends .legend text{fill:#999}#chart-adfc77c3-7395-400b-92f7-cfd83273a06a .legends .legend:hover text{fill:#eee}#chart-adfc77c3-7395-400b-92f7-cfd83273a06a .axis .line{stroke:#eee}#chart-adfc77c3-7395-400b-92f7-cfd83273a06a .axis .guide.line{stroke:#555}#chart-adfc77c3-7395-400b-92f7-cfd83273a06a .axis .major.line{stroke:#999}#chart-adfc77c3-7395-400b-92f7-cfd83273a06a .axis text.major{stroke:#eee;fill:#eee}#chart-adfc77c3-7395-400b-92f7-cfd83273a06a .axis.y .guides:hover .guide.line,#chart-adfc77c3-7395-400b-92f7-cfd83273a06a .line-graph .axis.x .guides:hover .guide.line,#chart-adfc77c3-7395-400b-92f7-cfd83273a06a .stackedline-graph .axis.x .guides:hover .guide.line,#chart-adfc77c3-7395-400b-92f7-cfd83273a06a .xy-graph .axis.x .guides:hover .guide.line{stroke:#eee}#chart-adfc77c3-7395-400b-92f7-cfd83273a06a .axis .guides:hover text{fill:#eee}#chart-adfc77c3-7395-400b-92f7-cfd83273a06a .reactive{fill-opacity:.8}#chart-adfc77c3-7395-400b-92f7-cfd83273a06a .reactive.active,#chart-adfc77c3-7395-400b-92f7-cfd83273a06a .active .reactive{fill-opacity:.4}#chart-adfc77c3-7395-400b-92f7-cfd83273a06a .series{stroke-width:1.0;stroke-linejoin:round;stroke-linecap:round;stroke-dasharray:0,0}#chart-adfc77c3-7395-400b-92f7-cfd83273a06a .series text{fill:#eee}#chart-adfc77c3-7395-400b-92f7-cfd83273a06a .tooltip rect{fill:#111;stroke:#eee}#chart-adfc77c3-7395-400b-92f7-cfd83273a06a .tooltip text{fill:#eee}#chart-adfc77c3-7395-400b-92f7-cfd83273a06a .map-element{fill:#999;stroke:#555 !important;opacity:.9;stroke-width:3;-webkit-transition:250ms;-moz-transition:250ms;-o-transition:250ms;transition:250ms}#chart-adfc77c3-7395-400b-92f7-cfd83273a06a .map-element:hover{opacity:1;stroke-width:10}#chart-adfc77c3-7395-400b-92f7-cfd83273a06a .color-0,#chart-adfc77c3-7395-400b-92f7-cfd83273a06a .color-0 a:visited{stroke:#ff5995;fill:#ff5995}#chart-adfc77c3-7395-400b-92f7-cfd83273a06a .color-1,#chart-adfc77c3-7395-400b-92f7-cfd83273a06a .color-1 a:visited{stroke:#b6e354;fill:#b6e354}#chart-adfc77c3-7395-400b-92f7-cfd83273a06a .color-2,#chart-adfc77c3-7395-400b-92f7-cfd83273a06a .color-2 a:visited{stroke:#feed6c;fill:#feed6c}#chart-adfc77c3-7395-400b-92f7-cfd83273a06a .color-3,#chart-adfc77c3-7395-400b-92f7-cfd83273a06a .color-3 a:visited{stroke:#8cedff;fill:#8cedff}#chart-adfc77c3-7395-400b-92f7-cfd83273a06a .color-4,#chart-adfc77c3-7395-400b-92f7-cfd83273a06a .color-4 a:visited{stroke:#9e6ffe;fill:#9e6ffe}#chart-adfc77c3-7395-400b-92f7-cfd83273a06a .color-5,#chart-adfc77c3-7395-400b-92f7-cfd83273a06a .color-5 a:visited{stroke:#899ca1;fill:#899ca1}#chart-adfc77c3-7395-400b-92f7-cfd83273a06a .color-6,#chart-adfc77c3-7395-400b-92f7-cfd83273a06a .color-6 a:visited{stroke:#f8f8f2;fill:#f8f8f2}#chart-adfc77c3-7395-400b-92f7-cfd83273a06a .color-7,#chart-adfc77c3-7395-400b-92f7-cfd83273a06a .color-7 a:visited{stroke:#bf4646;fill:#bf4646}#chart-adfc77c3-7395-400b-92f7-cfd83273a06a .color-8,#chart-adfc77c3-7395-400b-92f7-cfd83273a06a .color-8 a:visited{stroke:#516083;fill:#516083}#chart-adfc77c3-7395-400b-92f7-cfd83273a06a .color-9,#chart-adfc77c3-7395-400b-92f7-cfd83273a06a .color-9 a:visited{stroke:#f92672;fill:#f92672}#chart-adfc77c3-7395-400b-92f7-cfd83273a06a .color-10,#chart-adfc77c3-7395-400b-92f7-cfd83273a06a .color-10 a:visited{stroke:#82b414;fill:#82b414}#chart-adfc77c3-7395-400b-92f7-cfd83273a06a .color-11,#chart-adfc77c3-7395-400b-92f7-cfd83273a06a .color-11 a:visited{stroke:#fd971f;fill:#fd971f}#chart-adfc77c3-7395-400b-92f7-cfd83273a06a .color-12,#chart-adfc77c3-7395-400b-92f7-cfd83273a06a .color-12 a:visited{stroke:#56c2d6;fill:#56c2d6}#chart-adfc77c3-7395-400b-92f7-cfd83273a06a .color-13,#chart-adfc77c3-7395-400b-92f7-cfd83273a06a .color-13 a:visited{stroke:#808384;fill:#808384}#chart-adfc77c3-7395-400b-92f7-cfd83273a06a .color-14,#chart-adfc77c3-7395-400b-92f7-cfd83273a06a .color-14 a:visited{stroke:#8c54fe;fill:#8c54fe}#chart-adfc77c3-7395-400b-92f7-cfd83273a06a .color-15,#chart-adfc77c3-7395-400b-92f7-cfd83273a06a .color-15 a:visited{stroke:#465457;fill:#465457}
#chart-adfc77c3-7395-400b-92f7-cfd83273a06a text.no_data{text-anchor:middle}#chart-adfc77c3-7395-400b-92f7-cfd83273a06a .guide.line{fill-opacity:0}#chart-adfc77c3-7395-400b-92f7-cfd83273a06a .centered{text-anchor:middle}#chart-adfc77c3-7395-400b-92f7-cfd83273a06a .title{text-anchor:middle}#chart-adfc77c3-7395-400b-92f7-cfd83273a06a .legends .legend text{fill-opacity:1}#chart-adfc77c3-7395-400b-92f7-cfd83273a06a .axis.x text{text-anchor:middle}#chart-adfc77c3-7395-400b-92f7-cfd83273a06a .axis.x:not(.web) text[transform]{text-anchor:start}#chart-adfc77c3-7395-400b-92f7-cfd83273a06a .axis.y text{text-anchor:end}#chart-adfc77c3-7395-400b-92f7-cfd83273a06a .axis.y2 text{text-anchor:start}#chart-adfc77c3-7395-400b-92f7-cfd83273a06a .axis.y .logarithmic text:not(.major),#chart-adfc77c3-7395-400b-92f7-cfd83273a06a .axis.y2 .logarithmic text:not(.major){font-size:50%}#chart-adfc77c3-7395-400b-92f7-cfd83273a06a .axis .guide.line{stroke-dasharray:4,4}#chart-adfc77c3-7395-400b-92f7-cfd83273a06a .axis .major.guide.line{stroke-dasharray:6,6}#chart-adfc77c3-7395-400b-92f7-cfd83273a06a .axis text.major{stroke-width:0.5px}#chart-adfc77c3-7395-400b-92f7-cfd83273a06a .horizontal .axis.y .guide.line,#chart-adfc77c3-7395-400b-92f7-cfd83273a06a .horizontal .axis.y2 .guide.line,#chart-adfc77c3-7395-400b-92f7-cfd83273a06a .vertical .axis.x .guide.line{opacity:0}#chart-adfc77c3-7395-400b-92f7-cfd83273a06a .horizontal .axis.always_show .guide.line,#chart-adfc77c3-7395-400b-92f7-cfd83273a06a .vertical .axis.always_show .guide.line{opacity:1 !important}#chart-adfc77c3-7395-400b-92f7-cfd83273a06a .axis.y .guides:hover .guide.line,#chart-adfc77c3-7395-400b-92f7-cfd83273a06a .axis.y2 .guides:hover .guide.line,#chart-adfc77c3-7395-400b-92f7-cfd83273a06a .axis.x .guides:hover .guide.line{opacity:1}#chart-adfc77c3-7395-400b-92f7-cfd83273a06a .axis .guides:hover text{opacity:1}#chart-adfc77c3-7395-400b-92f7-cfd83273a06a .nofill{fill:none}#chart-adfc77c3-7395-400b-92f7-cfd83273a06a .subtle-fill{fill-opacity:.2}#chart-adfc77c3-7395-400b-92f7-cfd83273a06a .dot{stroke-width:1px;fill-opacity:1}#chart-adfc77c3-7395-400b-92f7-cfd83273a06a .dot.active{stroke-width:5px}#chart-adfc77c3-7395-400b-92f7-cfd83273a06a .series text{stroke:none}#chart-adfc77c3-7395-400b-92f7-cfd83273a06a .series text.active{opacity:1}#chart-adfc77c3-7395-400b-92f7-cfd83273a06a .tooltip rect{fill-opacity:0.8}#chart-adfc77c3-7395-400b-92f7-cfd83273a06a .tooltip text{fill-opacity:1}#chart-adfc77c3-7395-400b-92f7-cfd83273a06a .tooltip text tspan.label{fill-opacity:.8}</style><script type="text/javascript">window.config = {"css": ["style.css", "graph.css"], "disable_xml_declaration": false, "dots_size": 2.5, "explicit_size": false, "fill": false, "half_pie": false, "height": 768, "human_readable": false, "include_x_axis": false, "inner_radius": 0, "interpolate": null, "interpolation_parameters": {}, "interpolation_precision": 250, "js": ["http://kozea.github.io/pygal.js/javascripts/svg.jquery.js", "http://kozea.github.io/pygal.js/javascripts/pygal-tooltips.js"], "label_font_size": 10, "legend_at_bottom": true, "legend_at_bottom_columns": null, "legend_box_size": 12, "legend_font_size": 14, "logarithmic": false, "major_label_font_size": 10, "margin": 20, "margin_bottom": null, "margin_left": null, "margin_right": null, "margin_top": null, "missing_value_fill_truncation": "x", "mode": null, "no_data_font_size": 64, "no_data_text": "No data", "no_prefix": false, "order_min": null, "pretty_print": false, "print_values": false, "print_zeroes": false, "range": null, "rounded_bars": null, "show_dots": false, "show_legend": true, "show_minor_x_labels": true, "show_minor_y_labels": true, "show_only_major_dots": false, "show_x_guides": false, "show_x_labels": true, "show_y_guides": true, "show_y_labels": true, "spacing": 10, "stack_from_top": false, "strict": false, "stroke": true, "style": {"background": "black", "colors": ["#ff5995", "#b6e354", "#feed6c", "#8cedff", "#9e6ffe", "#899ca1", "#f8f8f2", "#bf4646", "#516083", "#f92672", "#82b414", "#fd971f", "#56c2d6", "#808384", "#8c54fe", "#465457"], "font_family": "monospace", "foreground": "#999", "foreground_dark": "#555", "foreground_light": "#eee", "opacity": ".8", "opacity_hover": ".4", "plot_background": "#111", "stroke_dasharray": "0,0", "stroke_style": "round", "stroke_width": 1.0, "transition": "250ms"}, "title": "Election 10 Participation", "title_font_size": 16, "tooltip_border_radius": 0, "tooltip_font_size": 16, "truncate_label": null, "truncate_legend": null, "value_font_size": 8, "width": 1024, "x_label_format": "%Y-%m-%d %H:%M:%S.%f", "x_label_rotation": 0, "x_labels": null, "x_labels_major": null, "x_labels_major_count": null, "x_labels_major_every": null, "x_title": null, "x_value_formatter": null, "xrange": null, "y_label_rotation": 0, "y_labels": null, "y_labels_major": null, "y_labels_major_count": null, "y_labels_major_every": null, "y_title": "Users", "zero": 0}</script><script type="text/javascript" xlink:href="http://kozea.github.io/pygal.js/javascripts/svg.jquery.js" /><script type="text/javascript" xlink:href="http://kozea.github.io/pygal.js/javascripts/pygal-tooltips.js" /></defs><title>Election 10 Participation</title><g class="graph line-graph vertical"><rect class="background" height="768" width="1024" x="0" y="0" /><g class="plot" transform="translate(86, 46)"><rect class="background" height="657.0" width="918.0" x="0" y="0" /><g class="axis y"><g class="guides"><path class="axis major line" d="M0.000000 644.365385 h918.000000" /><text class="major" x="-5" y="647.8653846153846">0</text></g><g class="guides"><path class="guide line" d="M0.000000 566.311296 h918.000000" /><text class="" x="-5" y="569.811295626595">10000</text></g><g class="guides"><path class="guide line" d="M0.000000 488.257207 h918.000000" /><text class="" x="-5" y="491.7572066378052">20000</text></g><g class="guides"><path class="guide line" d="M0.000000 410.203118 h918.000000" /><text class="" x="-5" y="413.70311764901555">30000</text></g><g class="guides"><path class="guide line" d="M0.000000 332.149029 h918.000000" /><text class="" x="-5" y="335.6490286602259">40000</text></g><g class="guides"><path class="major guide line" d="M0.000000 254.094940 h918.000000" /><text class="major" x="-5" y="257.59493967143624">50000</text></g><g class="guides"><path class="guide line" d="M0.000000 176.040851 h918.000000" /><text class="" x="-5" y="179.54085068264658">60000</text></g><g class="guides"><path class="guide line" d="M0.000000 97.986762 h918.000000" /><text class="" x="-5" y="101.48676169385692">70000</text></g><g class="guides"><path class="guide line" d="M0.000000 19.932673 h918.000000" /><text class="" x="-5" y="23.432672705067148">80000</text></g></g><g class="series serie-0 color-0"><path class="line reactive nofill" d="M17.653846 644.365385 L20.105769 644.365385 22.557692 644.365385 25.009615 644.365385 27.461538 644.365385 29.913462 644.365385 32.365385 644.365385 34.817308 644.365385 37.269231 644.365385 39.721154 644.365385 42.173077 644.365385 44.625000 644.365385 47.076923 644.365385 49.528846 644.365385 51.980769 644.365385 54.432692 644.365385 56.884615 644.365385 59.336538 644.365385 61.788462 644.365385 64.240385 644.365385 66.692308 644.365385 69.144231 644.365385 71.596154 644.365385 74.048077 644.365385 76.500000 644.365385 78.951923 644.365385 81.403846 644.365385 83.855769 644.365385 86.307692 644.365385 88.759615 644.365385 91.211538 644.365385 93.663462 644.365385 96.115385 644.365385 98.567308 644.365385 101.019231 644.365385 103.471154 644.365385 105.923077 644.365385 108.375000 644.365385 110.826923 644.365385 113.278846 644.365385 115.730769 644.365385 118.182692 644.365385 120.634615 644.365385 123.086538 644.365385 125.538462 644.365385 127.990385 644.365385 130.442308 644.365385 132.894231 644.365385 135.346154 644.365385 137.798077 644.365385 140.250000 644.365385 142.701923 644.365385 145.153846 644.365385 147.605769 644.365385 150.057692 644.365385 152.509615 644.365385 154.961538 644.365385 157.413462 644.365385 159.865385 644.365385 162.317308 644.365385 164.769231 644.365385 167.221154 644.365385 169.673077 644.365385 172.125000 644.365385 174.576923 644.365385 177.028846 644.365385 179.480769 644.365385 181.932692 644.365385 184.384615 644.365385 186.836538 644.365385 189.288462 644.365385 191.740385 644.365385 194.192308 644.365385 196.644231 644.365385 199.096154 644.365385 201.548077 644.365385 204.000000 644.365385 206.451923 644.365385 208.903846 644.365385 211.355769 644.365385 213.807692 644.365385 216.259615 644.365385 218.711538 644.365385 221.163462 644.365385 223.615385 644.365385 226.067308 644.365385 228.519231 644.365385 230.971154 644.365385 233.423077 644.365385 235.875000 644.365385 238.326923 644.365385 240.778846 644.365385 243.230769 644.365385 245.682692 644.365385 248.134615 644.365385 250.586538 644.365385 253.038462 644.365385 255.490385 644.365385 257.942308 644.365385 260.394231 644.365385 262.846154 644.365385 265.298077 644.365385 267.750000 644.365385 270.201923 644.365385 272.653846 644.365385 275.105769 644.365385 277.557692 644.365385 280.009615 644.365385 282.461538 644.365385 284.913462 644.365385 287.365385 644.365385 289.817308 644.365385 292.269231 644.365385 294.721154 644.365385 297.173077 644.365385 299.625000 644.365385 302.076923 644.365385 304.528846 644.365385 306.980769 644.365385 309.432692 644.365385 311.884615 644.365385 314.336538 644.365385 316.788462 644.365385 319.240385 644.365385 321.692308 644.365385 324.144231 644.365385 326.596154 644.365385 329.048077 644.365385 331.500000 644.365385 333.951923 644.365385 336.403846 644.365385 338.855769 644.365385 341.307692 644.365385 343.759615 644.365385 346.211538 644.365385 348.663462 644.365385 351.115385 644.365385 353.567308 644.365385 356.019231 644.365385 358.471154 644.365385 360.923077 644.365385 363.375000 644.365385 365.826923 644.365385 368.278846 644.365385 370.730769 644.365385 373.182692 644.365385 375.634615 644.365385 378.086538 644.365385 380.538462 644.365385 382.990385 644.365385 385.442308 644.365385 387.894231 644.365385 390.346154 644.365385 392.798077 644.365385 395.250000 644.365385 397.701923 644.365385 400.153846 644.365385 402.605769 644.365385 405.057692 644.365385 407.509615 644.365385 409.961538 644.365385 412.413462 644.365385 414.865385 644.365385 417.317308 644.365385 419.769231 644.365385 422.221154 644.365385 424.673077 644.365385 427.125000 644.365385 429.576923 644.365385 432.028846 644.365385 434.480769 644.365385 436.932692 644.365385 439.384615 644.365385 441.836538 644.365385 444.288462 644.365385 446.740385 644.365385 449.192308 644.365385 451.644231 644.365385 454.096154 644.365385 456.548077 644.365385 459.000000 644.365385 461.451923 644.365385 463.903846 644.365385 466.355769 644.365385 468.807692 644.365385 471.259615 644.365385 473.711538 644.365385 476.163462 644.365385 478.615385 644.365385 481.067308 644.365385 483.519231 644.365385 485.971154 644.365385 488.423077 644.365385 490.875000 644.365385 493.326923 644.365385 495.778846 644.365385 498.230769 644.365385 500.682692 644.365385 503.134615 644.365385 505.586538 644.365385 508.038462 644.365385 510.490385 644.365385 512.942308 644.365385 515.394231 644.365385 517.846154 644.365385 520.298077 644.365385 522.750000 644.365385 525.201923 644.365385 527.653846 644.365385 530.105769 644.365385 532.557692 644.365385 535.009615 644.365385 537.461538 644.365385 539.913462 644.365385 542.365385 644.365385 544.817308 644.365385 547.269231 644.365385 549.721154 644.365385 552.173077 644.365385 554.625000 644.365385 557.076923 644.365385 559.528846 644.365385 561.980769 644.365385 564.432692 644.365385 566.884615 644.365385 569.336538 644.365385 571.788462 644.365385 574.240385 644.365385 576.692308 644.365385 579.144231 644.365385 581.596154 644.365385 584.048077 644.365385 586.500000 644.365385 588.951923 644.365385 591.403846 644.365385 593.855769 644.365385 596.307692 644.365385 598.759615 644.365385 601.211538 644.365385 603.663462 644.365385 606.115385 644.365385 608.567308 644.365385 611.019231 644.365385 613.471154 644.365385 615.923077 644.365385 618.375000 644.365385 620.826923 644.365385 623.278846 644.365385 625.730769 644.365385 628.182692 644.365385 630.634615 644.365385 633.086538 644.365385 635.538462 644.365385 637.990385 644.365385 640.442308 644.365385 642.894231 644.365385 645.346154 644.365385 647.798077 644.365385 650.250000 644.365385 652.701923 644.365385 655.153846 644.365385 657.605769 644.365385 660.057692 644.365385 662.509615 643.553622 664.961538 622.283883 667.413462 612.168073 669.865385 605.408589 672.317308 601.185863 674.769231 598.258834 677.221154 595.667438 679.673077 593.302400 682.125000 590.586117 684.576923 587.331262 687.028846 584.037379 689.480769 580.657637 691.932692 576.708100 694.384615 572.961504 696.836538 569.355405 699.288462 565.312203 701.740385 561.870018 704.192308 558.599552 706.644231 555.532026 709.096154 552.573776 711.548077 549.693580 714.000000 546.977298 716.451923 544.604453 718.903846 542.387717 721.355769 540.319284 723.807692 538.641121 726.259615 537.126872 728.711538 535.956060 731.163462 535.027217 733.615385 534.207649 736.067308 533.544189 738.519231 532.872924 740.971154 532.115799 743.423077 531.304037 745.875000 530.382998 748.326923 529.219993 750.778846 527.994543 753.230769 526.612986 755.682692 525.161180 758.134615 523.717179 760.586538 522.148292 763.038462 520.743318 765.490385 519.595923 767.942308 518.066063 770.394231 516.715727 772.846154 515.263921 775.298077 514.046278 777.750000 512.555445 780.201923 511.181693 782.653846 510.003076 785.105769 508.980567 787.557692 507.950253 790.009615 507.161907 792.461538 506.264285 794.913462 505.155917 797.365385 503.953884 799.817308 503.797776 802.269231 503.797776 804.721154 503.797776 807.173077 503.797776 809.625000 503.797776 812.076923 503.797776 814.528846 503.797776 816.980769 503.797776 819.432692 503.797776 821.884615 503.797776 824.336538 503.797776 826.788462 503.797776 829.240385 503.797776 831.692308 503.797776 834.144231 503.797776 836.596154 503.797776 839.048077 503.797776 841.500000 503.797776 843.951923 503.797776 846.403846 503.797776 848.855769 503.797776 851.307692 503.797776 853.759615 503.797776 856.211538 503.797776 858.663462 503.797776 861.115385 503.797776 863.567308 503.797776 866.019231 503.797776 868.471154 503.797776 870.923077 503.797776 873.375000 503.797776 875.826923 503.797776 878.278846 503.797776 880.730769 503.797776 883.182692 503.797776 885.634615 503.797776 888.086538 503.797776 890.538462 503.797776 892.990385 503.797776 895.442308 503.797776 897.894231 503.797776 900.346154 503.797776" /></g><g class="series serie-1 color-1"><path class="line reactive nofill" d="M17.653846 629.160448 L20.105769 623.595192 22.557692 619.551990 25.009615 617.428919 27.461538 615.860031 29.913462 614.228701 32.365385 612.870560 34.817308 611.535835 37.269231 609.241045 39.721154 606.251573 42.173077 602.965496 44.625000 598.820824 47.076923 595.277168 49.528846 592.209642 51.980769 589.540193 54.432692 587.612257 56.884615 585.621877 59.336538 583.451974 61.788462 581.641119 64.240385 579.955150 66.692308 578.636036 69.144231 577.714998 71.596154 576.723711 74.048077 575.927559 76.500000 575.217267 78.951923 574.670889 81.403846 574.225980 83.855769 573.827904 86.307692 573.562520 88.759615 573.281526 91.211538 572.992726 93.663462 572.735147 96.115385 572.298044 98.567308 571.876552 101.019231 571.384811 103.471154 570.775990 105.923077 569.940811 108.375000 569.043189 110.826923 568.192399 113.278846 567.482107 115.730769 566.685955 118.182692 565.866387 120.634615 565.101457 123.086538 564.422387 125.538462 563.852592 127.990385 563.345240 130.442308 562.767640 132.894231 562.400786 135.346154 562.065153 137.798077 561.674883 140.250000 561.464137 142.701923 561.159726 145.153846 561.034839 147.605769 560.894342 150.057692 560.785066 152.509615 560.605542 154.961538 560.386990 157.413462 560.043552 159.865385 559.715725 162.317308 559.309844 164.769231 558.747854 167.221154 558.302946 169.673077 557.787789 172.125000 557.202383 174.576923 556.656005 177.028846 556.156459 179.480769 555.719356 181.932692 555.235420 184.384615 554.884177 186.836538 554.540739 189.288462 554.251939 191.740385 553.947528 194.192308 553.674339 196.644231 553.354317 199.096154 553.252847 201.548077 553.135765 204.000000 553.018684 206.451923 552.909409 208.903846 552.831354 211.355769 552.722079 213.807692 552.581581 216.259615 552.386446 218.711538 552.160089 221.163462 551.941538 223.615385 551.715181 226.067308 551.324911 228.519231 550.997083 230.971154 550.669256 233.423077 550.310207 235.875000 549.919937 238.326923 549.599915 240.778846 549.295504 243.230769 549.100369 245.682692 548.858401 248.134615 548.632044 250.586538 548.468131 253.038462 548.233969 255.490385 548.031028 257.942308 547.882725 260.394231 547.679785 262.846154 547.625147 265.298077 547.523676 267.750000 547.422206 270.201923 547.359763 272.653846 547.305125 275.105769 547.258293 277.557692 547.164628 280.009615 547.063157 282.461538 546.930465 284.913462 546.821190 287.365385 546.704108 289.817308 546.602638 292.269231 546.485557 294.721154 546.384087 297.173077 546.220173 299.625000 546.040649 302.076923 545.915762 304.528846 545.806486 306.980769 545.681600 309.432692 545.580130 311.884615 545.470854 314.336538 545.361578 316.788462 545.306940 319.240385 545.189859 321.692308 545.127416 324.144231 545.072778 326.596154 545.002529 329.048077 544.908864 331.500000 544.869837 333.951923 544.799589 336.403846 544.698118 338.855769 544.596648 341.307692 544.440540 343.759615 544.261015 346.211538 544.042464 348.663462 543.808302 351.115385 543.620972 353.567308 543.386810 356.019231 543.207285 358.471154 543.019955 360.923077 542.785793 363.375000 542.621880 365.826923 542.403328 368.278846 542.309663 370.730769 542.145750 373.182692 542.013058 375.634615 541.872560 378.086538 541.732063 380.538462 541.607176 382.990385 541.490095 385.442308 541.365209 387.894231 541.224711 390.346154 541.060798 392.798077 540.779803 395.250000 540.428560 397.701923 540.046095 400.153846 539.554354 402.605769 539.000170 405.057692 538.406959 407.509615 537.883996 409.961538 537.415672 412.413462 536.923931 414.865385 536.205834 417.317308 535.721898 419.769231 535.323822 422.221154 535.042828 424.673077 534.754027 427.125000 531.998718 429.576923 497.537838 432.028846 479.850781 434.480769 468.525133 436.932692 460.914859 439.384615 455.076413 441.836538 448.894530 444.288462 442.853143 446.740385 435.352145 449.192308 425.103643 451.644231 412.404243 454.096154 397.683242 456.548077 379.551277 459.000000 359.249408 461.451923 338.619713 463.903846 323.547468 466.355769 309.997278 468.807692 296.376840 471.259615 283.536942 473.711538 271.618083 476.163462 262.712111 478.615385 253.985664 481.067308 247.358872 483.519231 241.473593 485.971154 237.149397 488.423077 232.747146 490.875000 229.539123 493.326923 227.057003 495.778846 225.261759 498.230769 223.856786 500.682692 222.295704 503.134615 220.633152 505.586538 218.759854 508.038462 216.605561 510.490385 214.248327 512.942308 210.806142 515.394231 206.872216 517.846154 202.485576 520.298077 197.396449 522.750000 192.471236 525.201923 187.522607 527.653846 183.011081 530.105769 178.234171 532.557692 173.792893 535.009615 169.546750 537.461538 166.213841 539.913462 163.474142 542.365385 160.789082 544.817308 158.338183 547.269231 156.082420 549.721154 154.380841 552.173077 152.929035 554.625000 151.961164 557.076923 151.016710 559.528846 150.150309 561.980769 149.432212 564.432692 148.433119 566.884615 147.309141 569.336538 145.997832 571.788462 144.257226 574.240385 142.040490 576.692308 139.402261 579.144231 136.584509 581.596154 133.688702 584.048077 131.183166 586.500000 128.849348 588.951923 126.382839 591.403846 123.565087 593.855769 121.082967 596.307692 119.076977 598.759615 117.180262 601.211538 115.541126 603.663462 114.065904 606.115385 112.879482 608.567308 111.622811 611.019231 110.576886 613.471154 109.796345 615.923077 109.320215 618.375000 108.656756 620.826923 108.157209 623.278846 107.587415 625.730769 107.025425 628.182692 106.268301 630.634615 105.331651 633.086538 104.114008 635.538462 102.810504 637.990385 101.093314 640.442308 99.321487 642.894231 97.854070 645.346154 96.410069 647.798077 94.599214 650.250000 92.866413 652.701923 91.391191 655.153846 90.064272 657.605769 88.932487 660.057692 87.917784 662.509615 86.426951 664.961538 78.020526 667.413462 73.485583 669.865385 70.496112 672.317308 68.263765 674.769231 66.921234 677.221154 65.539677 679.673077 64.368866 682.125000 63.190249 684.576923 61.785275 687.028846 60.512994 689.480769 58.928496 691.932692 57.117641 694.384615 55.462894 696.836538 53.870591 699.288462 51.950460 701.740385 50.178632 704.192308 48.438026 706.644231 46.588144 709.096154 45.034868 711.548077 43.395732 714.000000 41.740985 716.451923 40.195514 718.903846 38.852984 721.355769 37.713394 723.807692 36.722107 726.259615 35.691793 728.711538 34.872225 731.163462 34.239987 733.615385 33.701414 736.067308 33.131619 738.519231 32.647684 740.971154 32.070084 743.423077 31.476872 745.875000 30.829024 748.326923 30.157758 750.778846 29.260136 753.230769 28.214212 755.682692 27.230730 758.134615 26.278470 760.586538 25.240351 763.038462 24.225648 765.490385 23.335831 767.942308 22.344544 770.394231 21.353257 772.846154 20.440024 775.298077 19.643873 777.750000 18.636975 780.201923 17.700326 782.653846 16.865147 785.105769 16.162660 787.557692 15.444563 790.009615 14.781103 792.461538 14.258140 794.913462 13.625902 797.365385 12.782918 799.817308 12.634615 802.269231 12.634615 804.721154 12.634615 807.173077 12.634615 809.625000 12.634615 812.076923 12.634615 814.528846 12.634615 816.980769 12.634615 819.432692 12.634615 821.884615 12.634615 824.336538 12.634615 826.788462 12.634615 829.240385 12.634615 831.692308 12.634615 834.144231 12.634615 836.596154 12.634615 839.048077 12.634615 841.500000 12.634615 843.951923 12.634615 846.403846 12.634615 848.855769 12.634615 851.307692 12.634615 853.759615 12.634615 856.211538 12.634615 858.663462 12.634615 861.115385 12.634615 863.567308 12.634615 866.019231 12.634615 868.471154 12.634615 870.923077 12.634615 873.375000 12.634615 875.826923 12.634615 878.278846 12.634615 880.730769 12.634615 883.182692 12.634615 885.634615 12.634615 888.086538 12.634615 890.538462 12.634615 892.990385 12.634615 895.442308 12.634615 897.894231 12.634615 900.346154 12.634615" /></g></g><g class="titles"><text class="title plot_title" x="512.0" y="26">Election 10 Participation</text><text class="title" transform="rotate(-90 0.000000 374.500000)" x="0" y="400.5">Users</text></g><g class="plot overlay" transform="translate(86, 46)"><g class="series serie-0 color-0" /><g class="series serie-1 color-1" /></g><g class="plot text-overlay" transform="translate(86, 46)"><g class="series serie-0 color-0" /><g class="series serie-1 color-1" /></g><g class="plot tooltip-overlay" transform="translate(86, 46)"><g class="tooltip" style="opacity: 0" transform="translate(0 0)"><a><rect class="tooltip-box" height="0" rx="0" ry="0" width="0" /><text class="text"><tspan class="label" /><tspan class="value" /></text></a></g></g><g class="legends" transform="translate(96, 713)"><g class="legend reactive activate-serie" id="activate-serie-0"><rect class="color-0 reactive" height="12" width="12" x="0.0" y="1.0" /><text x="17.0" y="11.2">constituents</text></g><g class="legend reactive activate-serie" id="activate-serie-1"><rect class="color-1 reactive" height="12" width="12" x="459.0" y="1.0" /><text x="476.0" y="11.2">caucus</text></g></g></g></svg>