<?xml version='1.0' encoding='utf-8'?>
<svg xmlns:xlink="http://www.w3.org/1999/xlink" class="pygal-chart" id="chart-25307a62-aafa-49ee-9fd8-2033c14f1c03" viewBox="0 0 1024 768" xmlns="http://www.w3.org/2000/svg"><!--Generated with pygal 1.7.0 (etree) ©Kozea 2011-2014 on 2018-03-25--><!--http://pygal.org--><!--http://github.com/Kozea/pygal--><defs><style type="text/css">#chart-25307a62-aafa-49ee-9fd8-2033c14f1c03 .title{font-family:"monospace";font-size:16px}#chart-25307a62-aafa-49ee-9fd8-2033c14f1c03 .legends .legend text{font-family:"monospace";font-size:14px}#chart-25307a62-aafa-49ee-9fd8-2033c14f1c03 .axis text{font-family:"monospace";font-size:10px}#chart-25307a62-aafa-49ee-9fd8-2033c14f1c03 .axis text.major{font-family:"monospace";font-size:10px}#chart-25307a62-aafa-49ee-9fd8-2033c14f1c03 .series text{font-family:"monospace";font-size:8px}#chart-25307a62-aafa-49ee-9fd8-2033c14f1c03 .tooltip text{font-family:"monospace";font-size:16px}#chart-25307a62-aafa-49ee-9fd8-2033c14f1c03 text.no_data{font-size:64px}
#chart-25307a62-aafa-49ee-9fd8-2033c14f1c03{background-color:black}#chart-25307a62-aafa-49ee-9fd8-2033c14f1c03 path,#chart-25307a62-aafa-49ee-9fd8-2033c14f1c03 line,#chart-25307a62-aafa-49ee-9fd8-2033c14f1c03 rect,#chart-25307a62-aafa-49ee-9fd8-2033c14f1c03 circle{-webkit-transition:250ms;-moz-transition:250ms;transition:250ms}#chart-25307a62-aafa-49ee-9fd8-2033c14f1c03 .graph &gt; .background{fill:black}#chart-25307a62-aafa-49ee-9fd8-2033c14f1c03 .plot &gt; .background{fill:#111}#chart-25307a62-aafa-49ee-9fd8-2033c14f1c03 .graph{fill:#999}#chart-25307a62-aafa-49ee-9fd8-2033c14f1c03 text.no_data{fill:#eee}#chart-25307a62-aafa-49ee-9fd8-2033c14f1c03 .title{fill:#eee}#chart-25307a62-aafa-49ee-9fd8-2033c14f1c03 .legends .legend text{fill:#999}#chart-25307a62-aafa-49ee-9fd8-2033c14f1c03 .legends .legend:hover text{fill:#eee}#chart-25307a62-aafa-49ee-9fd8-2033c14f1c03 .axis .line{stroke:#eee}#chart-25307a62-aafa-49ee-9fd8-2033c14f1c03 .axis .guide.line{stroke:#555}#chart-25307a62-aafa-49ee-9fd8-2033c14f1c03 .axis .major.line{stroke:#999}#chart-25307a62-aafa-49ee-9fd8-2033c14f1c03 .axis text.major{stroke:#eee;fill:#eee}#chart-25307a62-aafa-49ee-9fd8-2033c14f1c03 .axis.y .guides:hover .guide.line,#chart-25307a62-aafa-49ee-9fd8-2033c14f1c03 .line-graph .axis.x .guides:hover .guide.line,#chart-25307a62-aafa-49ee-9fd8-2033c14f1c03 .stackedline-graph .axis.x .guides:hover .guide.line,#chart-25307a62-aafa-49ee-9fd8-2033c14f1c03 .xy-graph .axis.x .guides:hover .guide.line{stroke:#eee}#chart-25307a62-aafa-49ee-9fd8-2033c14f1c03 .axis .guides:hover text{fill:#eee}#chart-25307a62-aafa-49ee-9fd8-2033c14f1c03 .reactive{fill-opacity:.8}#chart-25307a62-aafa-49ee-9fd8-2033c14f1c03 .reactive.active,#chart-25307a62-aafa-49ee-9fd8-2033c14f1c03 .active .reactive{fill-opacity:.4}#chart-25307a62-aafa-49ee-9fd8-2033c14f1c03 .series{stroke-width:1.0;stroke-linejoin:round;stroke-linecap:round;stroke-dasharray:0,0}#chart-25307a62-aafa-49ee-9fd8-2033c14f1c03 .series text{fill:#eee}#chart-25307a62-aafa-49ee-9fd8-2033c14f1c03 .tooltip rect{fill:#111;stroke:#eee}#chart-25307a62-aafa-49ee-9fd8-2033c14f1c03 .tooltip text{fill:#eee}#chart-25307a62-aafa-49ee-9fd8-2033c14f1c03 .map-element{fill:#999;stroke:#555 !important;opacity:.9;stroke-width:3;-webkit-transition:250ms;-moz-transition:250ms;-o-transition:250ms;transition:250ms}#chart-25307a62-aafa-49ee-9fd8-2033c14f1c03 .map-element:hover{opacity:1;stroke-width:10}#chart-25307a62-aafa-49ee-9fd8-2033c14f1c03 .color-0,#chart-25307a62-aafa-49ee-9fd8-2033c14f1c03 .color-0 a:visited{stroke:#ff5995;fill:#ff5995}#chart-25307a62-aafa-49ee-9fd8-2033c14f1c03 .color-1,#chart-25307a62-aafa-49ee-9fd8-2033c14f1c03 .color-1 a:visited{stroke:#b6e354;fill:#b6e354}#chart-25307a62-aafa-49ee-9fd8-2033c14f1c03 .color-2,#chart-25307a62-aafa-49ee-9fd8-2033c14f1c03 .color-2 a:visited{stroke:#feed6c;fill:#feed6c}#chart-25307a62-aafa-49ee-9fd8-2033c14f1c03 .color-3,#chart-25307a62-aafa-49ee-9fd8-2033c14f1c03 .color-3 a:visited{stroke:#8cedff;fill:#8cedff}#chart-25307a62-aafa-49ee-9fd8-2033c14f1c03 .color-4,#chart-25307a62-aafa-49ee-9fd8-2033c14f1c03 .color-4 a:visited{stroke:#9e6ffe;fill:#9e6ffe}#chart-25307a62-aafa-49ee-9fd8-2033c14f1c03 .color-5,#chart-25307a62-aafa-49ee-9fd8-2033c14f1c03 .color-5 a:visited{stroke:#899ca1;fill:#899ca1}#chart-25307a62-aafa-49ee-9fd8-2033c14f1c03 .color-6,#chart-25307a62-aafa-49ee-9fd8-2033c14f1c03 .color-6 a:visited{stroke:#f8f8f2;fill:#f8f8f2}#chart-25307a62-aafa-49ee-9fd8-2033c14f1c03 .color-7,#chart-25307a62-aafa-49ee-9fd8-2033c14f1c03 .color-7 a:visited{stroke:#bf4646;fill:#bf4646}#chart-25307a62-aafa-49ee-9fd8-2033c14f1c03 .color-8,#chart-25307a62-aafa-49ee-9fd8-2033c14f1c03 .color-8 a:visited{stroke:#516083;fill:#516083}#chart-25307a62-aafa-49ee-9fd8-2033c14f1c03 .color-9,#chart-25307a62-aafa-49ee-9fd8-2033c14f1c03 .color-9 a:visited{stroke:#f92672;fill:#f92672}#chart-25307a62-aafa-49ee-9fd8-2033c14f1c03 .color-10,#chart-25307a62-aafa-49ee-9fd8-2033c14f1c03 .color-10 a:visited{stroke:#82b414;fill:#82b414}#chart-25307a62-aafa-49ee-9fd8-2033c14f1c03 .color-11,#chart-25307a62-aafa-49ee-9fd8-2033c14f1c03 .color-11 a:visited{stroke:#fd971f;fill:#fd971f}#chart-25307a62-aafa-49ee-9fd8-2033c14f1c03 .color-12,#chart-25307a62-aafa-49ee-9fd8-2033c14f1c03 .color-12 a:visited{stroke:#56c2d6;fill:#56c2d6}#chart-25307a62-aafa-49ee-9fd8-2033c14f1c03 .color-13,#chart-25307a62-aafa-49ee-9fd8-2033c14f1c03 .color-13 a:visited{stroke:#808384;fill:#808384}#chart-25307a62-aafa-49ee-9fd8-2033c14f1c03 .color-14,#chart-25307a62-aafa-49ee-9fd8-2033c14f1c03 .color-14 a:visited{stroke:#8c54fe;fill:#8c54fe}#chart-25307a62-aafa-49ee-9fd8-2033c14f1c03 .color-15,#chart-25307a62-aafa-49ee-9fd8-2033c14f1c03 .color-15 a:visited{stroke:#465457;fill:#465457}
#chart-25307a62-aafa-49ee-9fd8-2033c14f1c03 text.no_data{text-anchor:middle}#chart-25307a62-aafa-49ee-9fd8-2033c14f1c03 .guide.line{fill-opacity:0}#chart-25307a62-aafa-49ee-9fd8-2033c14f1c03 .centered{text-anchor:middle}#chart-25307a62-aafa-49ee-9fd8-2033c14f1c03 .title{text-anchor:middle}#chart-25307a62-aafa-49ee-9fd8-2033c14f1c03 .legends .legend text{fill-opacity:1}#chart-25307a62-aafa-49ee-9fd8-2033c14f1c03 .axis.x text{text-anchor:middle}#chart-25307a62-aafa-49ee-9fd8-2033c14f1c03 .axis.x:not(.web) text[transform]{text-anchor:start}#chart-25307a62-aafa-49ee-9fd8-2033c14f1c03 .axis.y text{text-anchor:end}#chart-25307a62-aafa-49ee-9fd8-2033c14f1c03 .axis.y2 text{text-anchor:start}#chart-25307a62-aafa-49ee-9fd8-2033c14f1c03 .axis.y .logarithmic text:not(.major),#chart-25307a62-aafa-49ee-9fd8-2033c14f1c03 .axis.y2 .logarithmic text:not(.major){font-size:50%}#chart-25307a62-aafa-49ee-9fd8-2033c14f1c03 .axis .guide.line{stroke-dasharray:4,4}#chart-25307a62-aafa-49ee-9fd8-2033c14f1c03 .axis .major.guide.line{stroke-dasharray:6,6}#chart-25307a62-aafa-49ee-9fd8-2033c14f1c03 .axis text.major{stroke-width:0.5px}#chart-25307a62-aafa-49ee-9fd8-2033c14f1c03 .horizontal .axis.y .guide.line,#chart-25307a62-aafa-49ee-9fd8-2033c14f1c03 .horizontal .axis.y2 .guide.line,#chart-25307a62-aafa-49ee-9fd8-2033c14f1c03 .vertical .axis.x .guide.line{opacity:0}#chart-25307a62-aafa-49ee-9fd8-2033c14f1c03 .horizontal .axis.always_show .guide.line,#chart-25307a62-aafa-49ee-9fd8-2033c14f1c03 .vertical .axis.always_show .guide.line{opacity:1 !important}#chart-25307a62-aafa-49ee-9fd8-2033c14f1c03 .axis.y .guides:hover .guide.line,#chart-25307a62-aafa-49ee-9fd8-2033c14f1c03 .axis.y2 .guides:hover .guide.line,#chart-25307a62-aafa-49ee-9fd8-2033c14f1c03 .axis.x .guides:hover .guide.line{opacity:1}#chart-25307a62-aafa-49ee-9fd8-2033c14f1c03 .axis .guides:hover text{opacity:1}#chart-25307a62-aafa-49ee-9fd8-2033c14f1c03 .nofill{fill:none}#chart-25307a62-aafa-49ee-9fd8-2033c14f1c03 .subtle-fill{fill-opacity:.2}#chart-25307a62-aafa-49ee-9fd8-2033c14f1c03 .dot{stroke-width:1px;fill-opacity:1}#chart-25307a62-aafa-49ee-9fd8-2033c14f1c03 .dot.active{stroke-width:5px}#chart-25307a62-aafa-49ee-9fd8-2033c14f1c03 .series text{stroke:none}#chart-25307a62-aafa-49ee-9fd8-2033c14f1c03 .series text.active{opacity:1}#chart-25307a62-aafa-49ee-9fd8-2033c14f1c03 .tooltip rect{fill-opacity:0.8}#chart-25307a62-aafa-49ee-9fd8-2033c14f1c03 .tooltip text{fill-opacity:1}#chart-25307a62-aafa-49ee-9fd8-2033c14f1c03 .tooltip text tspan.label{fill-opacity:.8}</style><script type="text/javascript">window.config = {"css": ["style.css", "graph.css"], "disable_xml_declaration": false, "dots_size": 2.5, "explicit_size": false, "fill": false, "half_pie": false, "height": 768, "human_readable": false, "include_x_axis": false, "inner_radius": 0, "interpolate": null, "interpolation_parameters": {}, "interpolation_precision": 250, "js": ["http://kozea.github.io/pygal.js/javascripts/svg.jquery.js", "http://kozea.github.io/pygal.js/javascripts/pygal-tooltips.js"], "label_font_size": 10, "legend_at_bottom": true, "legend_at_bottom_columns": null, "legend_box_size": 12, "legend_font_size": 14, "logarithmic": false, "major_label_font_size": 10, "margin": 20, "margin_bottom": null, "margin_left": null, "margin_right": null, "margin_top": null, "missing_value_fill_truncation": "x", "mode": null, "no_data_font_size": 64, "no_data_text": "No data", "no_prefix": false, "order_min": null, "pretty_print": false, "print_values": false, "print_zeroes": false, "range": null, "rounded_bars": null, "show_dots": false, "show_legend": true, "show_minor_x_labels": true, "show_minor_y_labels": true, "show_only_major_dots": false, "show_x_guides": false, "show_x_labels": true, "show_y_guides": true, "show_y_labels": true, "spacing": 10, "stack_from_top": false, "strict": false, "stroke": true, "style": {"background": "black", "colors": ["#ff5995", "#b6e354", "#feed6c", "#8cedff", "#9e6ffe", "#899ca1", "#f8f8f2", "#bf4646", "#516083", "#f92672", "#82b414", "#fd971f", "#56c2d6", "#808384", "#8c54fe", "#465457"], "font_family": "monospace", "foreground": "#999", "foreground_dark": "#555", "foreground_light": "#eee", "opacity": ".8", "opacity_hover": ".4", "plot_background": "#111", "stroke_dasharray": "0,0", "stroke_style": "round", "stroke_width": 1.0, "transition": "250ms"}, "title": "Election 10 Participation", "title_font_size": 16, "tooltip_border_radius": 0, "tooltip_font_size": 16, "truncate_label": null, "truncate_legend": null, "value_font_size": 8, "width": 1024, "x_label_format": "%Y-%m-%d %H:%M:%S.%f", "x_label_rotation": 0, "x_labels": null, "x_labels_major": null, "x_labels_major_count": null, "x_labels_major_every": null, "x_title": null, "x_value_formatter": null, "xrange": null, "y_label_rotation": 0, "y_labels": null, "y_labels_major": null, "y_labels_major_count": null, "y_labels_major_every": null, "y_title": "Users", "zero": 0}</script><script type="text/javascript" xlink:href="http://kozea.github.io/pygal.js/javascripts/svg.jquery.js" /><script type="text/javascript" xlink:href="http://kozea.github.io/pygal.js/javascripts/pygal-tooltips.js" /></defs><title>Election 10 Participation</title><g class="graph line-graph vertical"><rect class="background" height="768" width="1024" x="0" y="0" /><g class="plot" transform="translate(86, 46)"><rect class="background" height="657.0" width="918.0" x="0" y="0" /><g class="axis y"><g class="guides"><path class="axis major line" d="M0.000000 644.365385 h918.000000" /><text class="major" x="-5" y="647.8653846153846">0</text></g><g class="guides"><path class="guide line" d="M0.000000 566.001461 h918.000000" /><text class="" x="-5" y="569.5014611233833">10000</text></g><g class="guides"><path class="guide line" d="M0.000000 487.637538 h918.000000" /><text class="" x="-5" y="491.13753763138186">20000</text></g><g class="guides"><path class="guide line" d="M0.000000 409.273614 h918.000000" /><text class="" x="-5" y="412.77361413938047">30000</text></g><g class="guides"><path class="guide line" d="M0.000000 330.909691 h918.000000" /><text class="" x="-5" y="334.409690647379">40000</text></g><g class="guides"><path class="major guide line" d="M0.000000 252.545767 h918.000000" /><text class="major" x="-5" y="256.04576715537763">50000</text></g><g class="guides"><path class="guide line" d="M0.000000 174.181844 h918.000000" /><text class="" x="-5" y="177.6818436633763">60000</text></g><g class="guides"><path class="guide line" d="M0.000000 95.817920 h918.000000" /><text class="" x="-5" y="99.31792017137491">70000</text></g><g class="guides"><path class="guide line" d="M0.000000 17.453997 h918.000000" /><text class="" x="-5" y="20.953996679373518">80000</text></g></g><g class="series serie-0 color-0"><path class="line reactive nofill" d="M17.653846 644.365385 L20.105769 644.365385 22.557692 644.365385 25.009615 644.365385 27.461538 644.365385 29.913462 644.365385 32.365385 644.365385 34.817308 644.365385 37.269231 644.365385 39.721154 644.365385 42.173077 644.365385 44.625000 644.365385 47.076923 644.365385 49.528846 644.365385 51.980769 644.365385 54.432692 644.365385 56.884615 644.365385 59.336538 644.365385 61.788462 644.365385 64.240385 644.365385 66.692308 644.365385 69.144231 644.365385 71.596154 644.365385 74.048077 644.365385 76.500000 644.365385 78.951923 644.365385 81.403846 644.365385 83.855769 644.365385 86.307692 644.365385 88.759615 644.365385 91.211538 644.365385 93.663462 644.365385 96.115385 644.365385 98.567308 644.365385 101.019231 644.365385 103.471154 644.365385 105.923077 644.365385 108.375000 644.365385 110.826923 644.365385 113.278846 644.365385 115.730769 644.365385 118.182692 644.365385 120.634615 644.365385 123.086538 644.365385 125.538462 644.365385 127.990385 644.365385 130.442308 644.365385 132.894231 644.365385 135.346154 644.365385 137.798077 644.365385 140.250000 644.365385 142.701923 644.365385 145.153846 644.365385 147.605769 644.365385 150.057692 644.365385 152.509615 644.365385 154.961538 644.365385 157.413462 644.365385 159.865385 644.365385 162.317308 644.365385 164.769231 644.365385 167.221154 644.365385 169.673077 644.365385 172.125000 644.365385 174.576923 644.365385 177.028846 644.365385 179.480769 644.365385 181.932692 644.365385 184.384615 644.365385 186.836538 644.365385 189.288462 644.365385 191.740385 644.365385 194.192308 644.365385 196.644231 644.365385 199.096154 644.365385 201.548077 644.365385 204.000000 644.365385 206.451923 644.365385 208.903846 644.365385 211.355769 644.365385 213.807692 644.365385 216.259615 644.365385 218.711538 644.365385 221.163462 644.365385 223.615385 644.365385 226.067308 644.365385 228.519231 644.365385 230.971154 644.365385 233.423077 644.365385 235.875000 644.365385 238.326923 644.365385 240.778846 644.365385 243.230769 644.365385 245.682692 644.365385 248.134615 644.365385 250.586538 644.365385 253.038462 644.365385 255.490385 644.365385 257.942308 644.365385 260.394231 644.365385 262.846154 644.365385 265.298077 644.365385 267.750000 644.365385 270.201923 644.365385 272.653846 644.365385 275.105769 644.365385 277.557692 644.365385 280.009615 644.365385 282.461538 644.365385 284.913462 644.365385 287.365385 644.365385 289.817308 644.365385 292.269231 644.365385 294.721154 644.365385 297.173077 644.365385 299.625000 644.365385 302.076923 644.365385 304.528846 644.365385 306.980769 644.365385 309.432692 644.365385 311.884615 644.365385 314.336538 644.365385 316.788462 644.365385 319.240385 644.365385 321.692308 644.365385 324.144231 644.365385 326.596154 644.365385 329.048077 644.365385 331.500000 644.365385 333.951923 644.365385 336.403846 644.365385 338.855769 644.365385 341.307692 644.365385 343.759615 644.365385 346.211538 644.365385 348.663462 644.365385 351.115385 644.365385 353.567308 644.365385 356.019231 644.365385 358.471154 644.365385 360.923077 644.365385 363.375000 644.365385 365.826923 644.365385 368.278846 644.365385 370.730769 644.365385 373.182692 644.365385 375.634615 644.365385 378.086538 644.365385 380.538462 644.365385 382.990385 644.365385 385.442308 644.365385 387.894231 644.365385 390.346154 644.365385 392.798077 644.365385 395.250000 644.365385 397.701923 644.365385 400.153846 644.365385 402.605769 644.365385 405.057692 644.365385 407.509615 644.365385 409.961538 644.365385 412.413462 644.365385 414.865385 644.365385 417.317308 644.365385 419.769231 644.365385 422.221154 644.365385 424.673077 644.365385 427.125000 644.365385 429.576923 644.365385 432.028846 644.365385 434.480769 644.365385 436.932692 644.365385 439.384615 644.365385 441.836538 644.365385 444.288462 644.365385 446.740385 644.365385 449.192308 644.365385 451.644231 644.365385 454.096154 644.365385 456.548077 644.365385 459.000000 644.365385 461.451923 644.365385 463.903846 644.365385 466.355769 644.365385 468.807692 644.365385 471.259615 644.365385 473.711538 644.365385 476.163462 644.365385 478.615385 644.365385 481.067308 644.365385 483.519231 644.365385 485.971154 644.365385 488.423077 644.365385 490.875000 644.365385 493.326923 644.365385 495.778846 644.365385 498.230769 644.365385 500.682692 644.365385 503.134615 644.365385 505.586538 644.365385 508.038462 644.365385 510.490385 644.365385 512.942308 644.365385 515.394231 644.365385 517.846154 644.365385 520.298077 644.365385 522.750000 644.365385 525.201923 644.365385 527.653846 644.365385 530.105769 644.365385 532.557692 644.365385 535.009615 644.365385 537.461538 644.365385 539.913462 644.365385 542.365385 644.365385 544.817308 644.365385 547.269231 644.365385 549.721154 644.365385 552.173077 644.365385 554.625000 644.365385 557.076923 644.365385 559.528846 644.365385 561.980769 644.365385 564.432692 644.365385 566.884615 644.365385 569.336538 644.365385 571.788462 644.365385 574.240385 644.365385 576.692308 644.365385 579.144231 644.365385 581.596154 644.365385 584.048077 644.365385 586.500000 644.365385 588.951923 644.365385 591.403846 644.365385 593.855769 644.365385 596.307692 644.365385 598.759615 644.365385 601.211538 644.365385 603.663462 644.365385 606.115385 644.365385 608.567308 644.365385 611.019231 644.365385 613.471154 644.365385 615.923077 644.365385 618.375000 644.365385 620.826923 644.365385 623.278846 644.365385 625.730769 644.365385 628.182692 644.365385 630.634615 644.365385 633.086538 644.365385 635.538462 644.365385 637.990385 644.365385 640.442308 644.365385 642.894231 644.365385 645.346154 644.365385 647.798077 644.365385 650.250000 644.365385 652.701923 644.365385 655.153846 644.365385 657.605769 644.365385 660.057692 644.365385 662.509615 643.550400 664.961538 622.196231 667.413462 612.040266 669.865385 605.253950 672.317308 601.014462 674.769231 598.075815 677.221154 595.474133 679.673077 593.099706 682.125000 590.372641 684.576923 587.104866 687.028846 583.797908 689.480769 580.404750 691.932692 576.439536 694.384615 572.678067 696.836538 569.057654 699.288462 564.998403 701.740385 561.542554 704.192308 558.259105 706.644231 555.179403 709.096154 552.209411 711.548077 549.317782 714.000000 546.590717 716.451923 544.208454 718.903846 541.982919 721.355769 539.906275 723.807692 538.221450 726.259615 536.701190 728.711538 535.525731 731.163462 534.593201 733.615385 533.770379 736.067308 533.104286 738.519231 532.430356 740.971154 531.670226 743.423077 530.855241 745.875000 529.930547 748.326923 528.762925 750.778846 527.532611 753.230769 526.145570 755.682692 524.688001 758.134615 523.238268 760.586538 521.663153 763.038462 520.252603 765.490385 519.100653 767.942308 517.564720 770.394231 516.209024 772.846154 514.751455 775.298077 513.528978 777.750000 512.032227 780.201923 510.653022 782.653846 509.469727 785.105769 508.443159 787.557692 507.408756 790.009615 506.977754 792.461538 506.977754 794.913462 506.977754 797.365385 506.977754 799.817308 506.977754 802.269231 506.977754 804.721154 506.977754 807.173077 506.977754 809.625000 506.977754 812.076923 506.977754 814.528846 506.977754 816.980769 506.977754 819.432692 506.977754 821.884615 506.977754 824.336538 506.977754 826.788462 506.977754 829.240385 506.977754 831.692308 506.977754 834.144231 506.977754 836.596154 506.977754 839.048077 506.977754 841.500000 506.977754 843.951923 506.977754 846.403846 506.977754 848.855769 506.977754 851.307692 506.977754 853.759615 506.977754 856.211538 506.977754 858.663462 506.977754 861.115385 506.977754 863.567308 506.977754 866.019231 506.977754 868.471154 506.977754 870.923077 506.977754 873.375000 506.977754 875.826923 506.977754 878.278846 506.977754 880.730769 506.977754 883.182692 506.977754 885.634615 506.977754 888.086538 506.977754 890.538462 506.977754 892.990385 506.977754 895.442308 506.977754 897.894231 506.977754 900.346154 506.977754" /></g><g class="series serie-1 color-1"><path class="line reactive nofill" d="M17.653846 629.100092 L20.105769 623.512745 22.557692 619.453493 25.009615 617.321995 27.461538 615.746880 29.913462 614.109074 32.365385 612.745541 34.817308 611.405518 37.269231 609.101619 39.721154 606.100281 42.173077 602.801160 44.625000 598.640035 47.076923 595.082313 49.528846 592.002611 51.980769 589.322565 54.432692 587.386976 56.884615 585.388696 59.336538 583.210179 61.788462 581.392136 64.240385 579.699475 66.692308 578.375125 69.144231 577.450430 71.596154 576.455209 74.048077 575.655896 76.500000 574.942785 78.951923 574.394237 81.403846 573.947563 83.855769 573.547907 86.307692 573.281470 88.759615 572.999359 91.211538 572.709413 93.663462 572.450812 96.115385 572.011974 98.567308 571.588809 101.019231 571.095116 103.471154 570.483878 105.923077 569.645384 108.375000 568.744198 110.826923 567.890032 113.278846 567.176920 115.730769 566.377608 118.182692 565.554787 120.634615 564.786820 123.086538 564.105054 125.538462 563.532998 127.990385 563.023632 130.442308 562.443739 132.894231 562.075429 135.346154 561.738464 137.798077 561.346644 140.250000 561.135061 142.701923 560.829442 145.153846 560.704060 147.605769 560.563005 150.057692 560.453295 152.509615 560.273058 154.961538 560.053639 157.413462 559.708838 159.865385 559.379710 162.317308 558.972217 164.769231 558.407997 167.221154 557.961323 169.673077 557.444121 172.125000 556.856391 174.576923 556.307844 177.028846 555.806315 179.480769 555.367477 181.932692 554.881620 184.384615 554.528983 186.836538 554.184181 189.288462 553.894235 191.740385 553.588616 194.192308 553.314342 196.644231 552.993050 199.096154 552.891177 201.548077 552.773631 204.000000 552.656085 206.451923 552.546375 208.903846 552.468012 211.355769 552.358302 213.807692 552.217247 216.259615 552.021337 218.711538 551.794082 221.163462 551.574663 223.615385 551.347407 226.067308 550.955588 228.519231 550.626459 230.971154 550.297331 233.423077 549.936857 235.875000 549.545037 238.326923 549.223745 240.778846 548.918126 243.230769 548.722216 245.682692 548.479288 248.134615 548.252032 250.586538 548.087468 253.038462 547.852376 255.490385 547.648630 257.942308 547.499739 260.394231 547.295993 262.846154 547.241138 265.298077 547.139265 267.750000 547.037392 270.201923 546.974700 272.653846 546.919846 275.105769 546.872827 277.557692 546.778791 280.009615 546.676918 282.461538 546.543699 284.913462 546.433989 287.365385 546.316444 289.817308 546.214570 292.269231 546.097025 294.721154 545.995151 297.173077 545.830587 299.625000 545.650350 302.076923 545.524968 304.528846 545.415258 306.980769 545.289876 309.432692 545.188003 311.884615 545.078294 314.336538 544.968584 316.788462 544.913729 319.240385 544.796183 321.692308 544.733492 324.144231 544.678638 326.596154 544.608110 329.048077 544.514073 331.500000 544.474891 333.951923 544.404364 336.403846 544.302491 338.855769 544.200618 341.307692 544.043890 343.759615 543.863653 346.211538 543.644234 348.663462 543.409142 351.115385 543.221069 353.567308 542.985977 356.019231 542.805740 358.471154 542.617666 360.923077 542.382575 363.375000 542.218010 365.826923 541.998591 368.278846 541.904555 370.730769 541.739990 373.182692 541.606772 375.634615 541.465717 378.086538 541.324662 380.538462 541.199279 382.990385 541.081733 385.442308 540.956351 387.894231 540.815296 390.346154 540.650732 392.798077 540.368622 395.250000 540.015984 397.701923 539.632001 400.153846 539.138308 402.605769 538.581924 405.057692 537.986358 407.509615 537.461320 409.961538 536.991137 412.413462 536.497444 414.865385 535.776496 417.317308 535.290640 419.769231 534.890983 422.221154 534.608873 424.673077 534.318927 427.125000 531.552680 429.576923 496.955008 432.028846 479.197743 434.480769 467.827138 436.932692 460.186655 439.384615 454.325034 441.836538 448.118611 444.288462 442.053243 446.740385 434.522470 449.192308 424.233287 451.644231 411.483477 454.096154 396.704041 456.548077 378.500101 459.000000 358.117645 461.451923 337.406060 463.903846 322.273986 466.355769 308.670009 468.807692 294.995505 471.259615 282.104639 473.711538 270.138468 476.163462 261.197144 478.615385 252.436058 481.067308 245.782961 483.519231 239.874321 485.971154 235.532959 488.423077 231.113234 490.875000 227.892477 493.326923 225.400504 495.778846 223.598134 498.230769 222.187583 500.682692 220.620305 503.134615 218.951153 505.586538 217.070419 508.038462 214.907575 510.490385 212.540984 512.942308 209.085135 515.394231 205.135593 517.846154 200.731541 520.298077 195.622213 522.750000 190.677450 525.201923 185.709177 527.653846 181.179742 530.105769 176.383870 532.557692 171.924963 535.009615 167.661965 537.461538 164.315826 539.913462 161.565252 542.365385 158.869533 544.817308 156.408906 547.269231 154.144188 549.721154 152.435855 552.173077 150.978286 554.625000 150.006573 557.076923 149.058370 559.528846 148.188530 561.980769 147.467582 564.432692 146.464524 566.884615 145.336083 569.336538 144.019570 571.788462 142.272054 574.240385 140.046519 576.692308 137.397818 579.144231 134.568880 581.596154 131.661579 584.048077 129.146097 586.500000 126.803016 588.951923 124.326716 591.403846 121.497778 593.855769 119.005805 596.307692 116.991852 598.759615 115.087609 601.211538 113.441967 603.663462 111.960888 606.115385 110.769757 608.567308 109.508098 611.019231 108.458021 613.471154 107.674382 615.923077 107.196362 618.375000 106.530269 620.826923 106.028739 623.278846 105.456683 625.730769 104.892463 628.182692 104.132332 630.634615 103.191965 633.086538 101.969488 635.538462 100.660811 637.990385 98.936804 640.442308 97.157943 642.894231 95.684702 645.346154 94.234969 647.798077 92.416926 650.250000 90.677247 652.701923 89.196169 655.153846 87.863982 657.605769 86.727705 660.057692 85.708974 662.509615 84.212223 664.961538 75.772429 667.413462 71.219485 669.865385 68.218146 672.317308 65.976938 674.769231 64.629079 677.221154 63.242037 679.673077 62.066578 682.125000 60.883283 684.576923 59.472732 687.028846 58.195401 689.480769 56.604613 691.932692 54.786570 694.384615 53.125255 696.836538 51.526631 699.288462 49.598878 701.740385 47.820017 704.192308 46.072502 706.644231 44.215277 709.096154 42.655834 711.548077 41.010192 714.000000 39.348877 716.451923 37.797271 718.903846 36.449412 721.355769 35.305298 723.807692 34.310077 726.259615 33.275673 728.711538 32.452852 731.163462 31.818104 733.615385 31.277393 736.067308 30.705336 738.519231 30.219480 740.971154 29.639587 743.423077 29.044021 745.875000 28.393600 748.326923 27.719671 750.778846 26.818486 753.230769 25.768409 755.682692 24.781024 758.134615 23.824984 760.586538 22.782743 763.038462 21.764012 765.490385 20.870664 767.942308 19.875442 770.394231 18.880220 772.846154 17.963362 775.298077 17.164050 777.750000 16.153156 780.201923 15.212788 782.653846 14.374294 785.105769 13.669019 787.557692 12.948071 790.009615 12.634615 792.461538 12.634615 794.913462 12.634615 797.365385 12.634615 799.817308 12.634615 802.269231 12.634615 804.721154 12.634615 807.173077 12.634615 809.625000 12.634615 812.076923 12.634615 814.528846 12.634615 816.980769 12.634615 819.432692 12.634615 821.884615 12.634615 824.336538 12.634615 826.788462 12.634615 829.240385 12.634615 831.692308 12.634615 834.144231 12.634615 836.596154 12.634615 839.048077 12.634615 841.500000 12.634615 843.951923 12.634615 846.403846 12.634615 848.855769 12.634615 851.307692 12.634615 853.759615 12.634615 856.211538 12.634615 858.663462 12.634615 861.115385 12.634615 863.567308 12.634615 866.019231 12.634615 868.471154 12.634615 870.923077 12.634615 873.375000 12.634615 875.826923 12.634615 878.278846 12.634615 880.730769 12.634615 883.182692 12.634615 885.634615 12.634615 888.086538 12.634615 890.538462 12.634615 892.990385 12.634615 895.442308 12.634615 897.894231 12.634615 900.346154 12.634615" /></g></g><g class="titles"><text class="title plot_title" x="512.0" y="26">Election 10 Participation</text><text class="title" transform="rotate(-90 0.000000 374.500000)" x="0" y="400.5">Users</text></g><g class="plot overlay" transform="translate(86, 46)"><g class="series serie-0 color-0" /><g class="series serie-1 color-1" /></g><g class="plot text-overlay" transform="translate(86, 46)"><g class="series serie-0 color-0" /><g class="series serie-1 color-1" /></g><g class="plot tooltip-overlay" transform="translate(86, 46)"><g class="tooltip" style="opacity: 0" transform="translate(0 0)"><a><rect class="tooltip-box" height="0" rx="0" ry="0" width="0" /><text class="text"><tspan class="label" /><tspan class="value" /></text></a></g></g><g class="legends" transform="translate(96, 713)"><g class="legend reactive activate-serie" id="activate-serie-0"><rect class="color-0 reactive" height="12" width="12" x="0.0" y="1.0" /><text x="17.0" y="11.2">constituents</text></g><g class="legend reactive activate-serie" id="activate-serie-1"><rect class="color-1 reactive" height="12" width="12" x="459.0" y="1.0" /><text x="476.0" y="11.2">caucus</text></g></g></g></svg>