<?xml version='1.0' encoding='utf-8'?>
<svg xmlns:xlink="http://www.w3.org/1999/xlink" class="pygal-chart" id="chart-53697cce-99c2-48c7-a6b3-a2193601ae46" viewBox="0 0 1024 768" xmlns="http://www.w3.org/2000/svg"><!--Generated with pygal 1.7.0 (etree) ©Kozea 2011-2014 on 2015-04-20--><!--http://pygal.org--><!--http://github.com/Kozea/pygal--><defs><style type="text/css">#chart-53697cce-99c2-48c7-a6b3-a2193601ae46 .title{font-family:"monospace";font-size:16px}#chart-53697cce-99c2-48c7-a6b3-a2193601ae46 .legends .legend text{font-family:"monospace";font-size:14px}#chart-53697cce-99c2-48c7-a6b3-a2193601ae46 .axis text{font-family:"monospace";font-size:10px}#chart-53697cce-99c2-48c7-a6b3-a2193601ae46 .axis text.major{font-family:"monospace";font-size:10px}#chart-53697cce-99c2-48c7-a6b3-a2193601ae46 .series text{font-family:"monospace";font-size:8px}#chart-53697cce-99c2-48c7-a6b3-a2193601ae46 .tooltip text{font-family:"monospace";font-size:16px}#chart-53697cce-99c2-48c7-a6b3-a2193601ae46 text.no_data{font-size:64px}
#chart-53697cce-99c2-48c7-a6b3-a2193601ae46{background-color:black}#chart-53697cce-99c2-48c7-a6b3-a2193601ae46 path,#chart-53697cce-99c2-48c7-a6b3-a2193601ae46 line,#chart-53697cce-99c2-48c7-a6b3-a2193601ae46 rect,#chart-53697cce-99c2-48c7-a6b3-a2193601ae46 circle{-webkit-transition:250ms;-moz-transition:250ms;transition:250ms}#chart-53697cce-99c2-48c7-a6b3-a2193601ae46 .graph &gt; .background{fill:black}#chart-53697cce-99c2-48c7-a6b3-a2193601ae46 .plot &gt; .background{fill:#111}#chart-53697cce-99c2-48c7-a6b3-a2193601ae46 .graph{fill:#999}#chart-53697cce-99c2-48c7-a6b3-a2193601ae46 text.no_data{fill:#eee}#chart-53697cce-99c2-48c7-a6b3-a2193601ae46 .title{fill:#eee}#chart-53697cce-99c2-48c7-a6b3-a2193601ae46 .legends .legend text{fill:#999}#chart-53697cce-99c2-48c7-a6b3-a2193601ae46 .legends .legend:hover text{fill:#eee}#chart-53697cce-99c2-48c7-a6b3-a2193601ae46 .axis .line{stroke:#eee}#chart-53697cce-99c2-48c7-a6b3-a2193601ae46 .axis .guide.line{stroke:#555}#chart-53697cce-99c2-48c7-a6b3-a2193601ae46 .axis .major.line{stroke:#999}#chart-53697cce-99c2-48c7-a6b3-a2193601ae46 .axis text.major{stroke:#eee;fill:#eee}#chart-53697cce-99c2-48c7-a6b3-a2193601ae46 .axis.y .guides:hover .guide.line,#chart-53697cce-99c2-48c7-a6b3-a2193601ae46 .line-graph .axis.x .guides:hover .guide.line,#chart-53697cce-99c2-48c7-a6b3-a2193601ae46 .stackedline-graph .axis.x .guides:hover .guide.line,#chart-53697cce-99c2-48c7-a6b3-a2193601ae46 .xy-graph .axis.x .guides:hover .guide.line{stroke:#eee}#chart-53697cce-99c2-48c7-a6b3-a2193601ae46 .axis .guides:hover text{fill:#eee}#chart-53697cce-99c2-48c7-a6b3-a2193601ae46 .reactive{fill-opacity:.8}#chart-53697cce-99c2-48c7-a6b3-a2193601ae46 .reactive.active,#chart-53697cce-99c2-48c7-a6b3-a2193601ae46 .active .reactive{fill-opacity:.4}#chart-53697cce-99c2-48c7-a6b3-a2193601ae46 .series{stroke-width:1.0;stroke-linejoin:round;stroke-linecap:round;stroke-dasharray:0,0}#chart-53697cce-99c2-48c7-a6b3-a2193601ae46 .series text{fill:#eee}#chart-53697cce-99c2-48c7-a6b3-a2193601ae46 .tooltip rect{fill:#111;stroke:#eee}#chart-53697cce-99c2-48c7-a6b3-a2193601ae46 .tooltip text{fill:#eee}#chart-53697cce-99c2-48c7-a6b3-a2193601ae46 .map-element{fill:#999;stroke:#555 !important;opacity:.9;stroke-width:3;-webkit-transition:250ms;-moz-transition:250ms;-o-transition:250ms;transition:250ms}#chart-53697cce-99c2-48c7-a6b3-a2193601ae46 .map-element:hover{opacity:1;stroke-width:10}#chart-53697cce-99c2-48c7-a6b3-a2193601ae46 .color-0,#chart-53697cce-99c2-48c7-a6b3-a2193601ae46 .color-0 a:visited{stroke:#ff5995;fill:#ff5995}#chart-53697cce-99c2-48c7-a6b3-a2193601ae46 .color-1,#chart-53697cce-99c2-48c7-a6b3-a2193601ae46 .color-1 a:visited{stroke:#b6e354;fill:#b6e354}#chart-53697cce-99c2-48c7-a6b3-a2193601ae46 .color-2,#chart-53697cce-99c2-48c7-a6b3-a2193601ae46 .color-2 a:visited{stroke:#feed6c;fill:#feed6c}#chart-53697cce-99c2-48c7-a6b3-a2193601ae46 .color-3,#chart-53697cce-99c2-48c7-a6b3-a2193601ae46 .color-3 a:visited{stroke:#8cedff;fill:#8cedff}#chart-53697cce-99c2-48c7-a6b3-a2193601ae46 .color-4,#chart-53697cce-99c2-48c7-a6b3-a2193601ae46 .color-4 a:visited{stroke:#9e6ffe;fill:#9e6ffe}#chart-53697cce-99c2-48c7-a6b3-a2193601ae46 .color-5,#chart-53697cce-99c2-48c7-a6b3-a2193601ae46 .color-5 a:visited{stroke:#899ca1;fill:#899ca1}#chart-53697cce-99c2-48c7-a6b3-a2193601ae46 .color-6,#chart-53697cce-99c2-48c7-a6b3-a2193601ae46 .color-6 a:visited{stroke:#f8f8f2;fill:#f8f8f2}#chart-53697cce-99c2-48c7-a6b3-a2193601ae46 .color-7,#chart-53697cce-99c2-48c7-a6b3-a2193601ae46 .color-7 a:visited{stroke:#bf4646;fill:#bf4646}#chart-53697cce-99c2-48c7-a6b3-a2193601ae46 .color-8,#chart-53697cce-99c2-48c7-a6b3-a2193601ae46 .color-8 a:visited{stroke:#516083;fill:#516083}#chart-53697cce-99c2-48c7-a6b3-a2193601ae46 .color-9,#chart-53697cce-99c2-48c7-a6b3-a2193601ae46 .color-9 a:visited{stroke:#f92672;fill:#f92672}#chart-53697cce-99c2-48c7-a6b3-a2193601ae46 .color-10,#chart-53697cce-99c2-48c7-a6b3-a2193601ae46 .color-10 a:visited{stroke:#82b414;fill:#82b414}#chart-53697cce-99c2-48c7-a6b3-a2193601ae46 .color-11,#chart-53697cce-99c2-48c7-a6b3-a2193601ae46 .color-11 a:visited{stroke:#fd971f;fill:#fd971f}#chart-53697cce-99c2-48c7-a6b3-a2193601ae46 .color-12,#chart-53697cce-99c2-48c7-a6b3-a2193601ae46 .color-12 a:visited{stroke:#56c2d6;fill:#56c2d6}#chart-53697cce-99c2-48c7-a6b3-a2193601ae46 .color-13,#chart-53697cce-99c2-48c7-a6b3-a2193601ae46 .color-13 a:visited{stroke:#808384;fill:#808384}#chart-53697cce-99c2-48c7-a6b3-a2193601ae46 .color-14,#chart-53697cce-99c2-48c7-a6b3-a2193601ae46 .color-14 a:visited{stroke:#8c54fe;fill:#8c54fe}#chart-53697cce-99c2-48c7-a6b3-a2193601ae46 .color-15,#chart-53697cce-99c2-48c7-a6b3-a2193601ae46 .color-15 a:visited{stroke:#465457;fill:#465457}
#chart-53697cce-99c2-48c7-a6b3-a2193601ae46 text.no_data{text-anchor:middle}#chart-53697cce-99c2-48c7-a6b3-a2193601ae46 .guide.line{fill-opacity:0}#chart-53697cce-99c2-48c7-a6b3-a2193601ae46 .centered{text-anchor:middle}#chart-53697cce-99c2-48c7-a6b3-a2193601ae46 .title{text-anchor:middle}#chart-53697cce-99c2-48c7-a6b3-a2193601ae46 .legends .legend text{fill-opacity:1}#chart-53697cce-99c2-48c7-a6b3-a2193601ae46 .axis.x text{text-anchor:middle}#chart-53697cce-99c2-48c7-a6b3-a2193601ae46 .axis.x:not(.web) text[transform]{text-anchor:start}#chart-53697cce-99c2-48c7-a6b3-a2193601ae46 .axis.y text{text-anchor:end}#chart-53697cce-99c2-48c7-a6b3-a2193601ae46 .axis.y2 text{text-anchor:start}#chart-53697cce-99c2-48c7-a6b3-a2193601ae46 .axis.y .logarithmic text:not(.major),#chart-53697cce-99c2-48c7-a6b3-a2193601ae46 .axis.y2 .logarithmic text:not(.major){font-size:50%}#chart-53697cce-99c2-48c7-a6b3-a2193601ae46 .axis .guide.line{stroke-dasharray:4,4}#chart-53697cce-99c2-48c7-a6b3-a2193601ae46 .axis .major.guide.line{stroke-dasharray:6,6}#chart-53697cce-99c2-48c7-a6b3-a2193601ae46 .axis text.major{stroke-width:0.5px}#chart-53697cce-99c2-48c7-a6b3-a2193601ae46 .horizontal .axis.y .guide.line,#chart-53697cce-99c2-48c7-a6b3-a2193601ae46 .horizontal .axis.y2 .guide.line,#chart-53697cce-99c2-48c7-a6b3-a2193601ae46 .vertical .axis.x .guide.line{opacity:0}#chart-53697cce-99c2-48c7-a6b3-a2193601ae46 .horizontal .axis.always_show .guide.line,#chart-53697cce-99c2-48c7-a6b3-a2193601ae46 .vertical .axis.always_show .guide.line{opacity:1 !important}#chart-53697cce-99c2-48c7-a6b3-a2193601ae46 .axis.y .guides:hover .guide.line,#chart-53697cce-99c2-48c7-a6b3-a2193601ae46 .axis.y2 .guides:hover .guide.line,#chart-53697cce-99c2-48c7-a6b3-a2193601ae46 .axis.x .guides:hover .guide.line{opacity:1}#chart-53697cce-99c2-48c7-a6b3-a2193601ae46 .axis .guides:hover text{opacity:1}#chart-53697cce-99c2-48c7-a6b3-a2193601ae46 .nofill{fill:none}#chart-53697cce-99c2-48c7-a6b3-a2193601ae46 .subtle-fill{fill-opacity:.2}#chart-53697cce-99c2-48c7-a6b3-a2193601ae46 .dot{stroke-width:1px;fill-opacity:1}#chart-53697cce-99c2-48c7-a6b3-a2193601ae46 .dot.active{stroke-width:5px}#chart-53697cce-99c2-48c7-a6b3-a2193601ae46 .series text{stroke:none}#chart-53697cce-99c2-48c7-a6b3-a2193601ae46 .series text.active{opacity:1}#chart-53697cce-99c2-48c7-a6b3-a2193601ae46 .tooltip rect{fill-opacity:0.8}#chart-53697cce-99c2-48c7-a6b3-a2193601ae46 .tooltip text{fill-opacity:1}#chart-53697cce-99c2-48c7-a6b3-a2193601ae46 .tooltip text tspan.label{fill-opacity:.8}</style><script type="text/javascript">window.config = {"half_pie": false, "logarithmic": false, "order_min": null, "show_y_labels": true, "js": ["http://kozea.github.io/pygal.js/javascripts/svg.jquery.js", "http://kozea.github.io/pygal.js/javascripts/pygal-tooltips.js"], "interpolation_parameters": {}, "margin_left": null, "range": null, "x_labels_major_count": null, "x_labels_major": null, "show_x_labels": true, "x_labels": null, "margin_right": null, "value_font_size": 8, "y_labels": null, "legend_at_bottom_columns": null, "spacing": 10, "zero": 0, "title_font_size": 16, "no_data_font_size": 64, "xrange": null, "x_value_formatter": null, "x_title": null, "pretty_print": false, "x_labels_major_every": null, "dots_size": 2.5, "legend_at_bottom": true, "show_legend": true, "y_labels_major": null, "y_title": "Users", "show_dots": false, "margin_top": null, "no_data_text": "No data", "y_labels_major_every": null, "mode": null, "width": 1024, "rounded_bars": null, "margin_bottom": null, "disable_xml_declaration": false, "no_prefix": false, "truncate_label": null, "human_readable": false, "title": "Election 5 and 6 Participation", "stroke": true, "stack_from_top": false, "margin": 20, "interpolate": null, "x_label_rotation": 0, "missing_value_fill_truncation": "x", "legend_font_size": 14, "fill": false, "include_x_axis": false, "x_label_format": "%Y-%m-%d %H:%M:%S.%f", "style": {"font_family": "monospace", "stroke_dasharray": "0,0", "background": "black", "foreground_light": "#eee", "stroke_width": 1.0, "plot_background": "#111", "stroke_style": "round", "colors": ["#ff5995", "#b6e354", "#feed6c", "#8cedff", "#9e6ffe", "#899ca1", "#f8f8f2", "#bf4646", "#516083", "#f92672", "#82b414", "#fd971f", "#56c2d6", "#808384", "#8c54fe", "#465457"], "opacity": ".8", "foreground_dark": "#555", "transition": "250ms", "opacity_hover": ".4", "foreground": "#999"}, "interpolation_precision": 250, "show_y_guides": true, "show_only_major_dots": false, "show_minor_y_labels": true, "height": 768, "legend_box_size": 12, "explicit_size": false, "print_zeroes": false, "truncate_legend": null, "strict": false, "label_font_size": 10, "show_minor_x_labels": true, "y_labels_major_count": null, "tooltip_font_size": 16, "print_values": false, "show_x_guides": false, "major_label_font_size": 10, "css": ["style.css", "graph.css"], "inner_radius": 0, "tooltip_border_radius": 0, "y_label_rotation": 0}</script><script type="text/javascript" xlink:href="http://kozea.github.io/pygal.js/javascripts/svg.jquery.js" /><script type="text/javascript" xlink:href="http://kozea.github.io/pygal.js/javascripts/pygal-tooltips.js" /></defs><title>Election 5 and 6 Participation</title><g class="graph line-graph vertical"><rect class="background" height="768" width="1024" x="0" y="0" /><g class="plot" transform="translate(86, 46)"><rect class="background" height="657.0" width="918.0" x="0" y="0" /><g class="axis y"><g class="guides"><path class="axis major line" d="M0.000000 644.365385 h918.000000" /><text class="major" x="-5" y="647.8653846153846">0</text></g><g class="guides"><path class="guide line" d="M0.000000 562.562524 h918.000000" /><text class="" x="-5" y="566.0625242793877">10000</text></g><g class="guides"><path class="guide line" d="M0.000000 480.759664 h918.000000" /><text class="" x="-5" y="484.25966394339093">20000</text></g><g class="guides"><path class="guide line" d="M0.000000 398.956804 h918.000000" /><text class="" x="-5" y="402.4568036073941">30000</text></g><g class="guides"><path class="guide line" d="M0.000000 317.153943 h918.000000" /><text class="" x="-5" y="320.65394327139734">40000</text></g><g class="guides"><path class="major guide line" d="M0.000000 235.351083 h918.000000" /><text class="major" x="-5" y="238.85108293540043">50000</text></g><g class="guides"><path class="guide line" d="M0.000000 153.548223 h918.000000" /><text class="" x="-5" y="157.04822259940357">60000</text></g><g class="guides"><path class="guide line" d="M0.000000 71.745362 h918.000000" /><text class="" x="-5" y="75.24536226340672">70000</text></g></g><g class="series serie-0 color-0"><path class="line reactive nofill" d="M17.653846 644.365385 L20.105769 644.365385 22.557692 644.365385 25.009615 644.365385 27.461538 644.365385 29.913462 644.365385 32.365385 644.365385 34.817308 644.365385 37.269231 644.365385 39.721154 644.365385 42.173077 644.365385 44.625000 644.365385 47.076923 644.365385 49.528846 644.365385 51.980769 644.365385 54.432692 644.365385 56.884615 644.365385 59.336538 644.365385 61.788462 644.365385 64.240385 644.365385 66.692308 644.365385 69.144231 644.365385 71.596154 644.365385 74.048077 644.365385 76.500000 644.365385 78.951923 644.365385 81.403846 644.365385 83.855769 644.365385 86.307692 644.365385 88.759615 644.365385 91.211538 644.365385 93.663462 644.365385 96.115385 644.365385 98.567308 644.365385 101.019231 644.365385 103.471154 644.365385 105.923077 644.365385 108.375000 644.365385 110.826923 644.365385 113.278846 644.365385 115.730769 644.365385 118.182692 644.365385 120.634615 644.365385 123.086538 644.365385 125.538462 644.365385 127.990385 644.365385 130.442308 644.365385 132.894231 644.365385 135.346154 644.365385 137.798077 644.365385 140.250000 644.365385 142.701923 644.365385 145.153846 644.365385 147.605769 644.365385 150.057692 644.365385 152.509615 644.365385 154.961538 644.365385 157.413462 644.365385 159.865385 644.365385 162.317308 644.365385 164.769231 644.365385 167.221154 644.365385 169.673077 644.365385 172.125000 644.365385 174.576923 644.365385 177.028846 644.365385 179.480769 644.365385 181.932692 644.365385 184.384615 644.365385 186.836538 644.365385 189.288462 644.365385 191.740385 644.365385 194.192308 644.365385 196.644231 644.365385 199.096154 644.365385 201.548077 644.365385 204.000000 644.365385 206.451923 644.365385 208.903846 644.365385 211.355769 644.365385 213.807692 644.365385 216.259615 644.365385 218.711538 644.365385 221.163462 644.365385 223.615385 644.365385 226.067308 644.365385 228.519231 644.365385 230.971154 644.365385 233.423077 644.365385 235.875000 644.365385 238.326923 644.365385 240.778846 644.365385 243.230769 644.365385 245.682692 644.365385 248.134615 644.365385 250.586538 644.365385 253.038462 644.365385 255.490385 644.365385 257.942308 644.365385 260.394231 644.365385 262.846154 644.365385 265.298077 644.365385 267.750000 644.365385 270.201923 644.365385 272.653846 644.365385 275.105769 644.365385 277.557692 644.365385 280.009615 644.365385 282.461538 644.365385 284.913462 644.365385 287.365385 644.365385 289.817308 644.365385 292.269231 644.365385 294.721154 644.365385 297.173077 644.365385 299.625000 644.365385 302.076923 644.365385 304.528846 644.365385 306.980769 644.365385 309.432692 644.365385 311.884615 644.365385 314.336538 644.365385 316.788462 644.365385 319.240385 644.365385 321.692308 644.365385 324.144231 644.365385 326.596154 644.365385 329.048077 644.365385 331.500000 644.365385 333.951923 644.365385 336.403846 644.365385 338.855769 644.365385 341.307692 644.365385 343.759615 644.365385 346.211538 644.365385 348.663462 644.365385 351.115385 644.365385 353.567308 644.365385 356.019231 644.365385 358.471154 644.365385 360.923077 644.365385 363.375000 644.365385 365.826923 644.365385 368.278846 644.365385 370.730769 644.365385 373.182692 644.365385 375.634615 644.365385 378.086538 644.365385 380.538462 644.365385 382.990385 644.365385 385.442308 644.365385 387.894231 644.365385 390.346154 644.365385 392.798077 644.365385 395.250000 644.365385 397.701923 644.365385 400.153846 644.365385 402.605769 644.365385 405.057692 644.365385 407.509615 644.365385 409.961538 644.365385 412.413462 644.365385 414.865385 644.365385 417.317308 644.365385 419.769231 644.365385 422.221154 644.365385 424.673077 644.365385 427.125000 644.365385 429.576923 644.365385 432.028846 644.365385 434.480769 644.365385 436.932692 644.365385 439.384615 644.365385 441.836538 644.365385 444.288462 644.365385 446.740385 644.365385 449.192308 644.365385 451.644231 644.365385 454.096154 644.365385 456.548077 644.365385 459.000000 644.365385 461.451923 644.365385 463.903846 644.365385 466.355769 644.365385 468.807692 644.365385 471.259615 644.365385 473.711538 644.365385 476.163462 644.365385 478.615385 644.365385 481.067308 644.365385 483.519231 644.365385 485.971154 644.365385 488.423077 644.365385 490.875000 644.365385 493.326923 644.365385 495.778846 644.365385 498.230769 644.365385 500.682692 644.365385 503.134615 644.365385 505.586538 644.365385 508.038462 644.365385 510.490385 644.365385 512.942308 644.365385 515.394231 644.365385 517.846154 644.365385 520.298077 644.365385 522.750000 644.365385 525.201923 644.365385 527.653846 644.365385 530.105769 644.365385 532.557692 644.365385 535.009615 644.365385 537.461538 644.365385 539.913462 644.365385 542.365385 644.365385 544.817308 644.365385 547.269231 644.365385 549.721154 644.365385 552.173077 644.365385 554.625000 644.365385 557.076923 644.365385 559.528846 644.365385 561.980769 644.365385 564.432692 644.365385 566.884615 644.365385 569.336538 644.365385 571.788462 644.365385 574.240385 644.365385 576.692308 644.365385 579.144231 644.365385 581.596154 644.365385 584.048077 644.365385 586.500000 644.365385 588.951923 644.365385 591.403846 644.365385 593.855769 644.365385 596.307692 644.365385 598.759615 644.365385 601.211538 644.365385 603.663462 644.365385 606.115385 644.365385 608.567308 644.365385 611.019231 644.365385 613.471154 644.365385 615.923077 644.365385 618.375000 644.365385 620.826923 644.365385 623.278846 644.365385 625.730769 644.365385 628.182692 644.365385 630.634615 644.365385 633.086538 644.365385 635.538462 644.365385 637.990385 644.365385 640.442308 644.365385 642.894231 644.365385 645.346154 644.365385 647.798077 644.365385 650.250000 644.365385 652.701923 644.365385 655.153846 644.365385 657.605769 644.365385 660.057692 644.365385 662.509615 643.547356 664.961538 618.491140 667.413462 607.235066 669.865385 600.306364 672.317308 595.741764 674.769231 592.608715 677.221154 590.350956 679.673077 588.371327 682.125000 586.154469 684.576923 583.160485 687.028846 580.681858 689.480769 578.186871 691.932692 575.446475 694.384615 572.427949 696.836538 569.532128 699.288462 566.529963 701.740385 563.985894 704.192308 561.400924 706.644231 559.224968 709.096154 557.073552 711.548077 555.085743 714.000000 553.089753 716.451923 551.118304 718.903846 549.621312 721.355769 548.107959 723.807692 546.594606 726.259615 545.482087 728.711538 544.516813 731.163462 543.567900 733.615385 542.888936 736.067308 542.373578 738.519231 541.776417 740.971154 541.326502 743.423077 540.770242 745.875000 540.107639 748.326923 539.445036 750.778846 538.766072 753.230769 537.858060 755.682692 537.040032 758.134615 536.074758 760.586538 535.101304 763.038462 534.119670 765.490385 533.318002 767.942308 532.532694 770.394231 531.551060 772.846154 530.626688 775.298077 529.661414 777.750000 528.614337 780.201923 527.829030 782.653846 527.051903 785.105769 526.029367 787.557692 525.309502 790.009615 524.704161 792.461538 524.180622 794.913462 523.468937 797.365385 522.814514 799.817308 521.849241 802.269231 519.877792 804.721154 517.767278 807.173077 515.689485 809.625000 512.662779 812.076923 508.834406 814.528846 504.515215 816.980769 501.455788 819.432692 498.977161 821.884615 496.784844 824.336538 494.535266 826.788462 492.293867 829.240385 490.191534 831.692308 488.759984 834.144231 487.598383 836.596154 486.624929 839.048077 485.733278 841.500000 485.037954 843.951923 484.236286 846.403846 483.663665 848.855769 483.213750 851.307692 482.845637 853.759615 482.403901 856.211538 482.011248 858.663462 481.700397 861.115385 481.185039 863.567308 480.784205 866.019231 480.080700 868.471154 479.319934 870.923077 478.117432 873.375000 477.029454 875.826923 475.982377 878.278846 475.098906 880.730769 474.264517 883.182692 473.241981 885.634615 472.162183 888.086538 471.254172 890.538462 470.313439 892.990385 469.675376 895.442308 469.102756 897.894231 468.652841 900.346154 468.652841" /></g><g class="series serie-1 color-1"><path class="line reactive nofill" d="M17.653846 624.577273 L20.105769 617.484965 22.557692 612.584973 25.009615 610.310854 27.461538 608.453929 29.913462 607.096001 32.365385 605.762615 34.817308 604.437408 37.269231 602.261452 39.721154 600.273643 42.173077 598.236752 44.625000 595.651781 47.076923 592.592354 49.528846 589.557468 51.980769 587.168825 54.432692 585.598210 56.884615 584.027595 59.336538 582.187030 61.788462 580.755480 64.240385 579.413914 66.692308 578.145969 69.144231 577.237957 71.596154 576.190881 74.048077 575.544638 76.500000 574.759331 78.951923 574.014925 81.403846 573.450485 83.855769 573.049651 86.307692 572.673358 88.759615 572.468851 91.211538 572.223442 93.663462 571.904411 96.115385 571.740805 98.567308 571.413594 101.019231 570.996399 103.471154 570.546483 105.923077 569.883880 108.375000 569.286719 110.826923 568.755001 113.278846 568.149660 115.730769 567.536138 118.182692 567.078042 120.634615 566.480881 123.086538 565.875540 125.538462 565.458346 127.990385 565.098413 130.442308 564.713940 132.894231 564.370367 135.346154 563.994074 137.798077 563.683223 140.250000 563.503257 142.701923 563.323291 145.153846 563.159685 147.605769 563.020620 150.057692 562.873375 152.509615 562.701589 154.961538 562.554344 157.413462 562.259854 159.865385 562.112609 162.317308 561.867200 164.769231 561.556349 167.221154 561.237318 169.673077 560.926467 172.125000 560.599256 174.576923 560.337486 177.028846 560.018455 179.480769 559.699424 181.932692 559.331311 184.384615 559.061362 186.836538 558.775052 189.288462 558.562364 191.740385 558.292415 194.192308 558.136990 196.644231 557.948843 199.096154 557.777057 201.548077 557.613451 204.000000 557.490747 206.451923 557.392584 208.903846 557.318961 211.355769 557.228978 213.807692 557.114454 216.259615 557.008110 218.711538 556.860865 221.163462 556.664538 223.615385 556.492752 226.067308 556.255524 228.519231 556.067377 230.971154 555.928312 233.423077 555.740166 235.875000 555.568380 238.326923 555.355692 240.778846 555.167546 243.230769 554.946678 245.682692 554.725810 248.134615 554.554024 250.586538 554.382238 253.038462 554.259534 255.490385 554.128649 257.942308 554.005945 260.394231 553.924142 262.846154 553.866880 265.298077 553.801438 267.750000 553.760537 270.201923 553.703275 272.653846 553.646013 275.105769 553.515128 277.557692 553.441505 280.009615 553.318801 282.461538 553.236998 284.913462 553.187916 287.365385 553.122474 289.817308 553.073392 292.269231 553.007950 294.721154 552.926147 297.173077 552.901606 299.625000 552.827984 302.076923 552.672558 304.528846 552.533494 306.980769 552.443510 309.432692 552.369888 311.884615 552.288085 314.336538 552.222643 316.788462 552.157200 319.240385 552.075398 321.692308 552.001775 324.144231 551.936333 326.596154 551.903612 329.048077 551.887251 331.500000 551.805448 333.951923 551.772727 336.403846 551.740006 338.855769 551.690924 341.307692 551.633662 343.759615 551.551859 346.211538 551.420975 348.663462 551.347352 351.115385 551.265549 353.567308 551.200107 356.019231 551.118304 358.471154 551.069222 360.923077 550.987420 363.375000 550.881076 365.826923 550.733831 368.278846 550.701110 370.730769 550.504783 373.182692 550.365718 375.634615 550.275735 378.086538 550.210292 380.538462 550.120309 382.990385 550.071228 385.442308 549.981244 387.894231 549.891261 390.346154 549.809458 392.798077 549.719475 395.250000 549.621312 397.701923 549.523148 400.153846 549.269559 402.605769 549.040511 405.057692 548.778742 407.509615 548.516973 409.961538 548.181581 412.413462 547.895271 414.865385 547.600781 417.317308 547.388094 419.769231 547.159046 422.221154 547.019981 424.673077 546.831834 427.125000 541.890941 429.576923 507.664625 432.028846 488.596378 434.480769 477.454828 436.932692 468.571038 439.384615 462.255857 441.836538 456.766885 444.288462 451.318815 446.740385 445.011814 449.192308 435.931696 451.644231 425.698159 454.096154 414.433905 456.548077 401.369988 459.000000 386.465507 461.451923 371.021127 463.903846 358.202619 466.355769 348.664405 468.807692 340.132367 471.259615 331.559427 473.711538 323.002848 476.163462 315.730574 478.615385 308.949116 481.067308 303.468325 483.519231 299.091872 485.971154 294.772681 488.423077 291.116093 490.875000 288.105748 493.326923 285.308090 495.778846 283.402083 498.230769 281.921451 500.682692 280.694408 503.134615 279.475546 505.586538 278.346666 508.038462 276.816953 510.490385 274.894586 512.942308 272.988579 515.394231 270.469051 517.846154 267.794097 520.298077 264.906456 522.750000 261.887931 525.201923 259.253879 527.653846 256.832514 530.105769 254.149380 532.557692 251.498968 535.009615 248.832194 537.461538 246.492633 539.913462 244.529364 542.365385 242.566095 544.817308 240.799153 547.269231 239.228539 549.721154 237.813349 552.173077 236.733551 554.625000 235.800999 557.076923 235.056593 559.528846 234.516694 561.980769 233.837730 564.432692 233.158766 566.884615 232.553425 569.336538 231.612692 571.788462 230.778303 574.240385 229.633063 576.692308 228.569626 579.144231 227.170797 581.596154 225.493838 584.048077 224.250435 586.500000 222.794344 588.951923 221.346433 591.403846 219.996686 593.855769 218.720561 596.307692 217.428076 598.759615 216.315557 601.211538 215.415726 603.663462 214.352289 606.115385 213.223409 608.567308 212.446282 611.019231 211.701876 613.471154 211.170157 615.923077 210.703881 618.375000 210.343949 620.826923 209.943115 623.278846 209.525920 625.730769 209.116906 628.182692 208.707891 630.634615 208.290697 633.086538 207.685356 635.538462 207.039113 637.990385 205.934774 640.442308 205.100385 642.894231 204.364159 645.346154 203.627934 647.798077 202.769004 650.250000 201.975516 652.701923 201.067504 655.153846 200.265836 657.605769 199.676856 660.057692 199.038793 662.509615 198.016257 664.961538 190.105921 667.413462 186.023958 669.865385 183.447168 672.317308 181.663866 674.769231 180.469544 677.221154 179.618794 679.673077 178.776225 682.125000 177.999098 684.576923 177.091086 687.028846 176.183074 689.480769 175.381406 691.932692 174.383411 694.384615 173.360875 696.836538 172.354700 699.288462 171.217640 701.740385 170.088761 704.192308 169.107127 706.644231 168.068230 709.096154 167.086596 711.548077 166.235846 714.000000 165.286933 716.451923 164.403462 718.903846 163.708138 721.355769 162.808306 723.807692 162.031179 726.259615 161.417658 728.711538 160.787776 731.163462 160.247877 733.615385 159.896125 736.067308 159.601634 738.519231 159.315324 740.971154 159.012654 743.423077 158.636361 745.875000 158.399132 748.326923 158.047380 750.778846 157.679267 753.230769 157.212991 755.682692 156.697633 758.134615 156.182275 760.586538 155.707818 763.038462 155.176100 765.490385 154.701643 767.942308 154.129023 770.394231 153.564583 772.846154 153.041045 775.298077 152.411163 777.750000 151.854903 780.201923 151.315005 782.653846 150.856908 785.105769 150.341550 787.557692 149.777111 790.009615 149.335375 792.461538 148.910000 794.913462 148.509166 797.365385 148.091972 799.817308 147.543893 802.269231 146.840388 804.721154 146.218686 807.173077 145.245232 809.625000 144.001829 812.076923 142.545738 814.528846 140.418864 816.980769 138.717364 819.432692 137.293994 821.884615 135.985148 824.336538 134.635401 826.788462 133.081147 829.240385 131.428729 831.692308 130.226227 834.144231 129.310035 836.596154 128.483826 839.048077 127.608536 841.500000 126.945932 843.951923 126.217887 846.403846 125.784332 848.855769 125.383498 851.307692 124.974483 853.759615 124.590010 856.211538 124.238258 858.663462 123.927407 861.115385 123.632917 863.567308 123.313885 866.019231 122.806708 868.471154 122.332251 870.923077 121.546944 873.375000 120.761636 875.826923 119.992689 878.278846 119.207382 880.730769 118.372993 883.182692 117.571325 885.634615 116.810558 888.086538 115.845284 890.538462 115.248123 892.990385 114.732765 895.442308 114.209227 897.894231 113.742951 900.346154 113.742951" /></g><g class="series serie-2 color-2"><path class="line reactive nofill" d="M17.653846 644.365385 L20.105769 644.365385 22.557692 644.365385 25.009615 644.365385 27.461538 644.365385 29.913462 644.365385 32.365385 644.365385 34.817308 644.365385 37.269231 644.365385 39.721154 644.365385 42.173077 644.365385 44.625000 644.365385 47.076923 644.365385 49.528846 644.365385 51.980769 644.365385 54.432692 644.365385 56.884615 644.365385 59.336538 644.365385 61.788462 644.365385 64.240385 644.365385 66.692308 644.365385 69.144231 644.365385 71.596154 644.365385 74.048077 644.365385 76.500000 644.365385 78.951923 644.365385 81.403846 644.365385 83.855769 644.365385 86.307692 644.365385 88.759615 644.365385 91.211538 644.365385 93.663462 644.365385 96.115385 644.365385 98.567308 644.365385 101.019231 644.365385 103.471154 644.365385 105.923077 644.365385 108.375000 644.365385 110.826923 644.365385 113.278846 644.365385 115.730769 644.365385 118.182692 644.365385 120.634615 644.365385 123.086538 644.365385 125.538462 644.365385 127.990385 644.365385 130.442308 644.365385 132.894231 644.365385 135.346154 644.365385 137.798077 644.365385 140.250000 644.365385 142.701923 644.365385 145.153846 644.365385 147.605769 644.365385 150.057692 644.365385 152.509615 644.365385 154.961538 644.365385 157.413462 644.365385 159.865385 644.365385 162.317308 644.365385 164.769231 644.365385 167.221154 644.365385 169.673077 644.365385 172.125000 644.365385 174.576923 644.365385 177.028846 644.365385 179.480769 644.365385 181.932692 644.365385 184.384615 644.365385 186.836538 644.365385 189.288462 644.365385 191.740385 644.365385 194.192308 644.365385 196.644231 644.365385 199.096154 644.365385 201.548077 644.365385 204.000000 644.365385 206.451923 644.365385 208.903846 644.365385 211.355769 644.365385 213.807692 644.365385 216.259615 644.365385 218.711538 644.365385 221.163462 644.365385 223.615385 644.365385 226.067308 644.365385 228.519231 644.365385 230.971154 644.365385 233.423077 644.365385 235.875000 644.365385 238.326923 644.365385 240.778846 644.365385 243.230769 644.365385 245.682692 644.365385 248.134615 644.365385 250.586538 644.365385 253.038462 644.365385 255.490385 644.365385 257.942308 644.365385 260.394231 644.365385 262.846154 644.365385 265.298077 644.365385 267.750000 644.365385 270.201923 644.365385 272.653846 644.365385 275.105769 644.365385 277.557692 644.365385 280.009615 644.365385 282.461538 644.365385 284.913462 644.365385 287.365385 644.365385 289.817308 644.365385 292.269231 644.365385 294.721154 644.365385 297.173077 644.365385 299.625000 644.365385 302.076923 644.365385 304.528846 644.365385 306.980769 644.365385 309.432692 644.365385 311.884615 644.365385 314.336538 644.365385 316.788462 644.365385 319.240385 644.365385 321.692308 644.365385 324.144231 644.365385 326.596154 644.365385 329.048077 644.365385 331.500000 644.365385 333.951923 644.365385 336.403846 644.365385 338.855769 644.365385 341.307692 644.365385 343.759615 644.365385 346.211538 644.365385 348.663462 644.365385 351.115385 644.365385 353.567308 644.365385 356.019231 644.365385 358.471154 644.365385 360.923077 644.365385 363.375000 644.365385 365.826923 644.365385 368.278846 644.365385 370.730769 644.365385 373.182692 644.365385 375.634615 644.365385 378.086538 644.365385 380.538462 644.365385 382.990385 644.365385 385.442308 644.365385 387.894231 644.365385 390.346154 644.365385 392.798077 644.365385 395.250000 644.365385 397.701923 644.365385 400.153846 644.365385 402.605769 644.365385 405.057692 644.365385 407.509615 644.365385 409.961538 644.365385 412.413462 644.365385 414.865385 644.365385 417.317308 644.365385 419.769231 644.365385 422.221154 644.365385 424.673077 644.365385 427.125000 644.365385 429.576923 644.365385 432.028846 644.365385 434.480769 644.365385 436.932692 644.365385 439.384615 644.365385 441.836538 644.365385 444.288462 644.365385 446.740385 644.365385 449.192308 644.365385 451.644231 644.365385 454.096154 644.365385 456.548077 644.365385 459.000000 644.365385 461.451923 644.365385 463.903846 644.365385 466.355769 644.365385 468.807692 644.365385 471.259615 644.365385 473.711538 644.365385 476.163462 644.365385 478.615385 644.365385 481.067308 644.365385 483.519231 644.365385 485.971154 644.365385 488.423077 644.365385 490.875000 644.365385 493.326923 644.365385 495.778846 644.365385 498.230769 644.365385 500.682692 644.365385 503.134615 644.365385 505.586538 644.365385 508.038462 644.365385 510.490385 644.365385 512.942308 644.365385 515.394231 644.365385 517.846154 644.365385 520.298077 644.365385 522.750000 644.365385 525.201923 644.365385 527.653846 644.365385 530.105769 644.365385 532.557692 644.365385 535.009615 644.365385 537.461538 644.365385 539.913462 644.365385 542.365385 644.365385 544.817308 644.365385 547.269231 644.365385 549.721154 644.365385 552.173077 644.365385 554.625000 644.365385 557.076923 644.365385 559.528846 644.365385 561.980769 644.365385 564.432692 644.365385 566.884615 644.365385 569.336538 644.365385 571.788462 644.365385 574.240385 644.365385 576.692308 644.365385 579.144231 644.365385 581.596154 644.365385 584.048077 644.365385 586.500000 644.365385 588.951923 644.365385 591.403846 644.365385 593.855769 644.365385 596.307692 644.365385 598.759615 644.365385 601.211538 644.365385 603.663462 644.365385 606.115385 644.365385 608.567308 644.365385 611.019231 644.365385 613.471154 644.365385 615.923077 644.365385 618.375000 644.365385 620.826923 644.365385 623.278846 644.365385 625.730769 644.365385 628.182692 644.365385 630.634615 644.365385 633.086538 644.365385 635.538462 644.365385 637.990385 644.365385 640.442308 644.365385 642.894231 644.365385 645.346154 644.365385 647.798077 644.365385 650.250000 644.365385 652.701923 644.365385 655.153846 644.365385 657.605769 644.365385 660.057692 644.365385 662.509615 644.365385 664.961538 618.155748 667.413462 606.089826 669.865385 599.398352 672.317308 595.439094 674.769231 592.355126 677.221154 589.631091 679.673077 587.177005 682.125000 584.338446 684.576923 580.567334 687.028846 576.869845 689.480769 573.213257 691.932692 569.016770 694.384615 565.327461 696.836538 561.147335 699.288462 557.359862 701.740385 554.300435 704.192308 551.371893 706.644231 548.500613 709.096154 545.768397 711.548077 543.257049 714.000000 541.105634 716.451923 538.651548 718.903846 536.761902 721.355769 534.536864 723.807692 533.015331 726.259615 531.763747 728.711538 530.790293 731.163462 529.964084 733.615385 529.366924 736.067308 528.712501 738.519231 528.107160 740.971154 527.559080 743.423077 526.970100 745.875000 526.111170 748.326923 524.916848 750.778846 523.820690 753.230769 522.380959 755.682692 521.219359 758.134615 519.836890 760.586538 518.462602 763.038462 517.251920 765.490385 516.008516 767.942308 514.994161 770.394231 513.709856 772.846154 512.458272 775.298077 511.247590 777.750000 510.061449 780.201923 508.948930 782.653846 507.983656 785.105769 506.969300 787.557692 506.224894 790.009615 505.300522 792.461538 504.408871 794.913462 503.394515 797.365385 502.298357 799.817308 501.104035 802.269231 498.748113 804.721154 495.426917 807.173077 490.772334 809.625000 484.710742 812.076923 479.164508 814.528846 473.953666 816.980769 470.567028 819.432692 467.581223 821.884615 463.957356 824.336538 460.218966 826.788462 456.701443 829.240385 454.001948 831.692308 452.112302 834.144231 450.762555 836.596154 449.273743 839.048077 447.866734 841.500000 446.795116 843.951923 445.682597 846.403846 445.109977 848.855769 444.692783 851.307692 444.128343 853.759615 443.735689 856.211538 443.334855 858.663462 442.876759 861.115385 442.255058 863.567308 441.412488 866.019231 441.248882 868.471154 441.248882 870.923077 441.248882 873.375000 441.248882 875.826923 441.248882 878.278846 441.248882 880.730769 441.248882 883.182692 441.248882 885.634615 441.248882 888.086538 441.248882 890.538462 441.248882 892.990385 441.248882 895.442308 441.248882 897.894231 441.248882 900.346154 441.248882" /></g><g class="series serie-3 color-3"><path class="line reactive nofill" d="M17.653846 627.947551 L20.105769 621.804156 22.557692 618.376616 25.009615 616.094316 27.461538 613.942901 29.913462 612.511351 32.365385 611.071620 34.817308 609.394662 37.269231 606.891494 39.721154 603.668462 42.173077 600.298184 44.625000 595.684502 47.076923 591.463475 49.528846 588.592194 51.980769 585.949962 54.432692 583.757645 56.884615 581.483526 59.336538 579.258488 61.788462 577.017090 64.240385 575.062001 66.692308 573.524108 69.144231 572.158000 71.596154 570.947317 74.048077 569.802077 76.500000 568.902246 78.951923 567.797907 81.403846 567.274369 83.855769 566.898076 86.307692 566.439980 88.759615 566.006425 91.211538 565.720115 93.663462 565.450165 96.115385 564.902086 98.567308 564.264024 101.019231 563.568699 103.471154 562.627967 105.923077 561.687234 108.375000 560.762861 110.826923 559.887571 113.278846 559.159525 115.730769 558.325136 118.182692 557.466206 120.634615 556.721800 123.086538 556.075557 125.538462 555.535659 127.990385 554.889416 130.442308 554.308616 132.894231 553.825979 135.346154 553.335162 137.798077 552.942508 140.250000 552.558034 142.701923 552.410789 145.153846 552.239003 147.605769 552.059037 150.057692 551.829989 152.509615 551.650023 154.961538 551.306451 157.413462 550.872896 159.865385 550.504783 162.317308 549.932163 164.769231 549.351362 167.221154 548.860545 169.673077 548.361548 172.125000 547.788928 174.576923 547.306291 177.028846 546.709130 179.480769 546.095608 181.932692 545.514808 184.384615 545.064892 186.836538 544.754042 189.288462 544.394109 191.740385 544.017816 194.192308 543.551540 196.644231 543.257049 199.096154 543.068903 201.548077 542.888936 204.000000 542.766232 206.451923 542.627167 208.903846 542.471742 211.355769 542.357218 213.807692 542.111809 216.259615 541.825499 218.711538 541.457386 221.163462 541.130175 223.615385 540.786603 226.067308 540.344867 228.519231 539.911312 230.971154 539.567740 233.423077 539.150546 235.875000 538.766072 238.326923 538.357058 240.778846 538.038027 243.230769 537.825339 245.682692 537.571750 248.134615 537.342702 250.586538 537.130015 253.038462 536.843705 255.490385 536.671919 257.942308 536.524674 260.394231 536.410150 262.846154 536.271085 265.298077 536.164741 267.750000 536.099299 270.201923 536.033857 272.653846 535.902972 275.105769 535.829350 277.557692 535.690285 280.009615 535.551220 282.461538 535.469417 284.913462 535.371254 287.365385 535.297631 289.817308 535.125845 292.269231 534.970419 294.721154 534.872256 297.173077 534.675929 299.625000 534.512323 302.076923 534.365078 304.528846 534.193292 306.980769 533.980605 309.432692 533.849720 311.884615 533.751557 314.336538 533.677934 316.788462 533.522509 319.240385 533.407985 321.692308 533.318002 324.144231 533.211658 326.596154 533.121675 329.048077 533.056233 331.500000 532.941709 333.951923 532.835365 336.403846 532.729021 338.855769 532.639038 341.307692 532.557235 343.759615 532.369089 346.211538 532.230024 348.663462 532.066418 351.115385 531.927353 353.567308 531.796469 356.019231 531.665584 358.471154 531.526519 360.923077 531.428356 363.375000 531.305651 365.826923 531.166586 368.278846 530.970260 370.730769 530.831195 373.182692 530.675769 375.634615 530.585786 378.086538 530.495803 380.538462 530.405820 382.990385 530.299476 385.442308 530.152231 387.894231 530.078608 390.346154 529.972265 392.798077 529.767758 395.250000 529.563250 397.701923 529.178777 400.153846 528.753402 402.605769 528.262585 405.057692 527.869931 407.509615 527.420015 409.961538 527.019181 412.413462 526.422021 414.865385 525.939384 417.317308 525.677615 419.769231 525.383124 422.221154 525.064093 424.673077 524.720521 427.125000 524.352408 429.576923 483.614584 432.028846 464.260027 434.480769 453.797441 436.932692 446.075251 439.384615 439.449219 441.836538 433.894805 444.288462 427.628706 446.740385 421.501672 449.192308 412.626062 451.644231 399.693029 454.096154 382.669854 456.548077 361.000276 459.000000 342.381945 461.451923 325.980472 463.903846 313.317389 466.355769 302.175840 468.807692 290.780701 471.259615 280.031805 473.711538 269.773727 476.163462 261.511638 478.615385 255.220998 481.067308 249.756567 483.519231 244.701150 485.971154 240.112009 488.423077 236.226374 490.875000 232.807014 493.326923 230.532894 495.778846 229.076804 498.230769 227.874302 500.682692 226.549095 503.134615 225.289331 505.586538 223.710536 508.038462 221.591842 510.490385 218.826905 512.942308 215.121236 515.394231 210.924749 517.846154 206.720082 520.298077 202.302727 522.750000 198.384370 525.201923 194.596898 527.653846 190.817606 530.105769 186.948330 532.557692 182.972711 535.009615 179.823301 537.461538 176.845677 539.913462 174.538837 542.365385 172.158373 544.817308 170.072400 547.269231 168.019149 549.721154 166.620320 552.173077 165.401457 554.625000 164.419823 557.076923 163.708138 559.528846 162.775585 561.980769 162.063900 564.432692 161.155889 566.884615 160.076091 569.336538 158.955392 571.788462 156.926681 574.240385 154.857068 576.692308 152.746555 579.144231 150.382452 581.596154 148.247397 584.048077 146.226867 586.500000 143.830043 588.951923 141.654087 591.403846 139.592655 593.855769 138.071121 596.307692 136.295999 598.759615 134.733565 601.211538 133.571964 603.663462 132.418544 606.115385 131.199681 608.567308 130.201686 611.019231 129.506362 613.471154 128.974643 615.923077 128.492006 618.375000 128.107533 620.826923 127.600355 623.278846 127.076817 625.730769 126.496017 628.182692 125.759791 630.634615 124.917221 633.086538 123.911046 635.538462 122.594020 637.990385 121.252453 640.442308 120.205377 642.894231 119.207382 645.346154 117.775832 647.798077 116.377003 650.250000 114.888191 652.701923 113.800213 655.153846 113.014905 657.605769 112.049632 660.057692 111.117079 662.509615 110.364493 664.961538 101.873356 667.413462 97.325117 669.865385 94.437476 672.317308 92.596911 674.769231 91.427130 677.221154 90.388234 679.673077 89.586566 682.125000 88.637653 684.576923 87.459692 687.028846 86.109945 689.480769 84.752017 691.932692 83.230484 694.384615 81.921638 696.836538 80.220139 699.288462 78.829490 701.740385 77.651529 704.192308 76.129996 706.644231 74.886592 709.096154 73.610467 711.548077 72.350703 714.000000 71.352709 716.451923 70.223829 718.903846 69.274916 721.355769 68.064234 723.807692 67.180763 726.259615 66.370914 728.711538 65.863737 731.163462 65.258395 733.615385 64.890283 736.067308 64.513989 738.519231 64.219499 740.971154 63.892288 743.423077 63.556896 745.875000 63.164242 748.326923 62.607983 750.778846 62.019002 753.230769 61.127351 755.682692 60.284782 758.134615 59.434032 760.586538 58.836871 763.038462 58.018842 765.490385 57.339879 767.942308 56.701816 770.394231 55.875607 772.846154 55.139382 775.298077 54.345894 777.750000 53.797815 780.201923 53.184293 782.653846 52.480789 785.105769 51.883628 787.557692 51.466433 790.009615 51.008337 792.461538 50.558421 794.913462 49.936720 797.365385 49.372280 799.817308 48.693316 802.269231 47.736223 804.721154 46.312853 807.173077 44.275962 809.625000 41.797335 812.076923 38.934235 814.528846 35.874808 816.980769 33.854277 819.432692 31.882828 821.884615 29.584168 824.336538 27.269147 826.788462 25.060470 829.240385 23.129922 831.692308 21.821077 834.144231 20.594034 836.596154 19.383351 839.048077 18.107227 841.500000 17.117412 843.951923 16.307564 846.403846 15.620420 848.855769 15.195045 851.307692 14.867833 853.759615 14.442459 856.211538 14.074346 858.663462 13.714413 861.115385 13.297219 863.567308 12.790041 866.019231 12.634615 868.471154 12.634615 870.923077 12.634615 873.375000 12.634615 875.826923 12.634615 878.278846 12.634615 880.730769 12.634615 883.182692 12.634615 885.634615 12.634615 888.086538 12.634615 890.538462 12.634615 892.990385 12.634615 895.442308 12.634615 897.894231 12.634615 900.346154 12.634615" /></g></g><g class="titles"><text class="title plot_title" x="512.0" y="26">Election 5 and 6 Participation</text><text class="title" transform="rotate(-90 0.000000 374.500000)" x="0" y="400.5">Users</text></g><g class="plot overlay" transform="translate(86, 46)"><g class="series serie-0 color-0" /><g class="series serie-1 color-1" /><g class="series serie-2 color-2" /><g class="series serie-3 color-3" /></g><g class="plot text-overlay" transform="translate(86, 46)"><g class="series serie-0 color-0" /><g class="series serie-1 color-1" /><g class="series serie-2 color-2" /><g class="series serie-3 color-3" /></g><g class="plot tooltip-overlay" transform="translate(86, 46)"><g class="tooltip" style="opacity: 0" transform="translate(0 0)"><a><rect class="tooltip-box" height="0" rx="0" ry="0" width="0" /><text class="text"><tspan class="label" /><tspan class="value" /></text></a></g></g><g class="legends" transform="translate(96, 713)"><g class="legend reactive activate-serie" id="activate-serie-0"><rect class="color-0 reactive" height="12" width="12" x="0.0" y="1.0" /><text x="17.0" y="11.2">5 constituents</text></g><g class="legend reactive activate-serie" id="activate-serie-1"><rect class="color-1 reactive" height="12" width="12" x="459.0" y="1.0" /><text x="476.0" y="11.2">5 caucus</text></g><g class="legend reactive activate-serie" id="activate-serie-2"><rect class="color-2 reactive" height="12" width="12" x="0.0" y="22.0" /><text x="17.0" y="32.2">6 constituents</text></g><g class="legend reactive activate-serie" id="activate-serie-3"><rect class="color-3 reactive" height="12" width="12" x="459.0" y="22.0" /><text x="476.0" y="32.2">6 caucus</text></g></g></g></svg>