<?xml version='1.0' encoding='utf-8'?>
<svg xmlns:xlink="http://www.w3.org/1999/xlink" class="pygal-chart" id="chart-b9359303-a687-434e-bb3c-7ce5b56b9531" viewBox="0 0 1024 768" xmlns="http://www.w3.org/2000/svg"><!--Generated with pygal 1.7.0 (etree) ©Kozea 2011-2014 on 2015-04-20--><!--http://pygal.org--><!--http://github.com/Kozea/pygal--><defs><style type="text/css">#chart-b9359303-a687-434e-bb3c-7ce5b56b9531 .title{font-family:"monospace";font-size:16px}#chart-b9359303-a687-434e-bb3c-7ce5b56b9531 .legends .legend text{font-family:"monospace";font-size:14px}#chart-b9359303-a687-434e-bb3c-7ce5b56b9531 .axis text{font-family:"monospace";font-size:10px}#chart-b9359303-a687-434e-bb3c-7ce5b56b9531 .axis text.major{font-family:"monospace";font-size:10px}#chart-b9359303-a687-434e-bb3c-7ce5b56b9531 .series text{font-family:"monospace";font-size:8px}#chart-b9359303-a687-434e-bb3c-7ce5b56b9531 .tooltip text{font-family:"monospace";font-size:16px}#chart-b9359303-a687-434e-bb3c-7ce5b56b9531 text.no_data{font-size:64px}
#chart-b9359303-a687-434e-bb3c-7ce5b56b9531{background-color:black}#chart-b9359303-a687-434e-bb3c-7ce5b56b9531 path,#chart-b9359303-a687-434e-bb3c-7ce5b56b9531 line,#chart-b9359303-a687-434e-bb3c-7ce5b56b9531 rect,#chart-b9359303-a687-434e-bb3c-7ce5b56b9531 circle{-webkit-transition:250ms;-moz-transition:250ms;transition:250ms}#chart-b9359303-a687-434e-bb3c-7ce5b56b9531 .graph &gt; .background{fill:black}#chart-b9359303-a687-434e-bb3c-7ce5b56b9531 .plot &gt; .background{fill:#111}#chart-b9359303-a687-434e-bb3c-7ce5b56b9531 .graph{fill:#999}#chart-b9359303-a687-434e-bb3c-7ce5b56b9531 text.no_data{fill:#eee}#chart-b9359303-a687-434e-bb3c-7ce5b56b9531 .title{fill:#eee}#chart-b9359303-a687-434e-bb3c-7ce5b56b9531 .legends .legend text{fill:#999}#chart-b9359303-a687-434e-bb3c-7ce5b56b9531 .legends .legend:hover text{fill:#eee}#chart-b9359303-a687-434e-bb3c-7ce5b56b9531 .axis .line{stroke:#eee}#chart-b9359303-a687-434e-bb3c-7ce5b56b9531 .axis .guide.line{stroke:#555}#chart-b9359303-a687-434e-bb3c-7ce5b56b9531 .axis .major.line{stroke:#999}#chart-b9359303-a687-434e-bb3c-7ce5b56b9531 .axis text.major{stroke:#eee;fill:#eee}#chart-b9359303-a687-434e-bb3c-7ce5b56b9531 .axis.y .guides:hover .guide.line,#chart-b9359303-a687-434e-bb3c-7ce5b56b9531 .line-graph .axis.x .guides:hover .guide.line,#chart-b9359303-a687-434e-bb3c-7ce5b56b9531 .stackedline-graph .axis.x .guides:hover .guide.line,#chart-b9359303-a687-434e-bb3c-7ce5b56b9531 .xy-graph .axis.x .guides:hover .guide.line{stroke:#eee}#chart-b9359303-a687-434e-bb3c-7ce5b56b9531 .axis .guides:hover text{fill:#eee}#chart-b9359303-a687-434e-bb3c-7ce5b56b9531 .reactive{fill-opacity:.8}#chart-b9359303-a687-434e-bb3c-7ce5b56b9531 .reactive.active,#chart-b9359303-a687-434e-bb3c-7ce5b56b9531 .active .reactive{fill-opacity:.4}#chart-b9359303-a687-434e-bb3c-7ce5b56b9531 .series{stroke-width:1.0;stroke-linejoin:round;stroke-linecap:round;stroke-dasharray:0,0}#chart-b9359303-a687-434e-bb3c-7ce5b56b9531 .series text{fill:#eee}#chart-b9359303-a687-434e-bb3c-7ce5b56b9531 .tooltip rect{fill:#111;stroke:#eee}#chart-b9359303-a687-434e-bb3c-7ce5b56b9531 .tooltip text{fill:#eee}#chart-b9359303-a687-434e-bb3c-7ce5b56b9531 .map-element{fill:#999;stroke:#555 !important;opacity:.9;stroke-width:3;-webkit-transition:250ms;-moz-transition:250ms;-o-transition:250ms;transition:250ms}#chart-b9359303-a687-434e-bb3c-7ce5b56b9531 .map-element:hover{opacity:1;stroke-width:10}#chart-b9359303-a687-434e-bb3c-7ce5b56b9531 .color-0,#chart-b9359303-a687-434e-bb3c-7ce5b56b9531 .color-0 a:visited{stroke:#ff5995;fill:#ff5995}#chart-b9359303-a687-434e-bb3c-7ce5b56b9531 .color-1,#chart-b9359303-a687-434e-bb3c-7ce5b56b9531 .color-1 a:visited{stroke:#b6e354;fill:#b6e354}#chart-b9359303-a687-434e-bb3c-7ce5b56b9531 .color-2,#chart-b9359303-a687-434e-bb3c-7ce5b56b9531 .color-2 a:visited{stroke:#feed6c;fill:#feed6c}#chart-b9359303-a687-434e-bb3c-7ce5b56b9531 .color-3,#chart-b9359303-a687-434e-bb3c-7ce5b56b9531 .color-3 a:visited{stroke:#8cedff;fill:#8cedff}#chart-b9359303-a687-434e-bb3c-7ce5b56b9531 .color-4,#chart-b9359303-a687-434e-bb3c-7ce5b56b9531 .color-4 a:visited{stroke:#9e6ffe;fill:#9e6ffe}#chart-b9359303-a687-434e-bb3c-7ce5b56b9531 .color-5,#chart-b9359303-a687-434e-bb3c-7ce5b56b9531 .color-5 a:visited{stroke:#899ca1;fill:#899ca1}#chart-b9359303-a687-434e-bb3c-7ce5b56b9531 .color-6,#chart-b9359303-a687-434e-bb3c-7ce5b56b9531 .color-6 a:visited{stroke:#f8f8f2;fill:#f8f8f2}#chart-b9359303-a687-434e-bb3c-7ce5b56b9531 .color-7,#chart-b9359303-a687-434e-bb3c-7ce5b56b9531 .color-7 a:visited{stroke:#bf4646;fill:#bf4646}#chart-b9359303-a687-434e-bb3c-7ce5b56b9531 .color-8,#chart-b9359303-a687-434e-bb3c-7ce5b56b9531 .color-8 a:visited{stroke:#516083;fill:#516083}#chart-b9359303-a687-434e-bb3c-7ce5b56b9531 .color-9,#chart-b9359303-a687-434e-bb3c-7ce5b56b9531 .color-9 a:visited{stroke:#f92672;fill:#f92672}#chart-b9359303-a687-434e-bb3c-7ce5b56b9531 .color-10,#chart-b9359303-a687-434e-bb3c-7ce5b56b9531 .color-10 a:visited{stroke:#82b414;fill:#82b414}#chart-b9359303-a687-434e-bb3c-7ce5b56b9531 .color-11,#chart-b9359303-a687-434e-bb3c-7ce5b56b9531 .color-11 a:visited{stroke:#fd971f;fill:#fd971f}#chart-b9359303-a687-434e-bb3c-7ce5b56b9531 .color-12,#chart-b9359303-a687-434e-bb3c-7ce5b56b9531 .color-12 a:visited{stroke:#56c2d6;fill:#56c2d6}#chart-b9359303-a687-434e-bb3c-7ce5b56b9531 .color-13,#chart-b9359303-a687-434e-bb3c-7ce5b56b9531 .color-13 a:visited{stroke:#808384;fill:#808384}#chart-b9359303-a687-434e-bb3c-7ce5b56b9531 .color-14,#chart-b9359303-a687-434e-bb3c-7ce5b56b9531 .color-14 a:visited{stroke:#8c54fe;fill:#8c54fe}#chart-b9359303-a687-434e-bb3c-7ce5b56b9531 .color-15,#chart-b9359303-a687-434e-bb3c-7ce5b56b9531 .color-15 a:visited{stroke:#465457;fill:#465457}
#chart-b9359303-a687-434e-bb3c-7ce5b56b9531 text.no_data{text-anchor:middle}#chart-b9359303-a687-434e-bb3c-7ce5b56b9531 .guide.line{fill-opacity:0}#chart-b9359303-a687-434e-bb3c-7ce5b56b9531 .centered{text-anchor:middle}#chart-b9359303-a687-434e-bb3c-7ce5b56b9531 .title{text-anchor:middle}#chart-b9359303-a687-434e-bb3c-7ce5b56b9531 .legends .legend text{fill-opacity:1}#chart-b9359303-a687-434e-bb3c-7ce5b56b9531 .axis.x text{text-anchor:middle}#chart-b9359303-a687-434e-bb3c-7ce5b56b9531 .axis.x:not(.web) text[transform]{text-anchor:start}#chart-b9359303-a687-434e-bb3c-7ce5b56b9531 .axis.y text{text-anchor:end}#chart-b9359303-a687-434e-bb3c-7ce5b56b9531 .axis.y2 text{text-anchor:start}#chart-b9359303-a687-434e-bb3c-7ce5b56b9531 .axis.y .logarithmic text:not(.major),#chart-b9359303-a687-434e-bb3c-7ce5b56b9531 .axis.y2 .logarithmic text:not(.major){font-size:50%}#chart-b9359303-a687-434e-bb3c-7ce5b56b9531 .axis .guide.line{stroke-dasharray:4,4}#chart-b9359303-a687-434e-bb3c-7ce5b56b9531 .axis .major.guide.line{stroke-dasharray:6,6}#chart-b9359303-a687-434e-bb3c-7ce5b56b9531 .axis text.major{stroke-width:0.5px}#chart-b9359303-a687-434e-bb3c-7ce5b56b9531 .horizontal .axis.y .guide.line,#chart-b9359303-a687-434e-bb3c-7ce5b56b9531 .horizontal .axis.y2 .guide.line,#chart-b9359303-a687-434e-bb3c-7ce5b56b9531 .vertical .axis.x .guide.line{opacity:0}#chart-b9359303-a687-434e-bb3c-7ce5b56b9531 .horizontal .axis.always_show .guide.line,#chart-b9359303-a687-434e-bb3c-7ce5b56b9531 .vertical .axis.always_show .guide.line{opacity:1 !important}#chart-b9359303-a687-434e-bb3c-7ce5b56b9531 .axis.y .guides:hover .guide.line,#chart-b9359303-a687-434e-bb3c-7ce5b56b9531 .axis.y2 .guides:hover .guide.line,#chart-b9359303-a687-434e-bb3c-7ce5b56b9531 .axis.x .guides:hover .guide.line{opacity:1}#chart-b9359303-a687-434e-bb3c-7ce5b56b9531 .axis .guides:hover text{opacity:1}#chart-b9359303-a687-434e-bb3c-7ce5b56b9531 .nofill{fill:none}#chart-b9359303-a687-434e-bb3c-7ce5b56b9531 .subtle-fill{fill-opacity:.2}#chart-b9359303-a687-434e-bb3c-7ce5b56b9531 .dot{stroke-width:1px;fill-opacity:1}#chart-b9359303-a687-434e-bb3c-7ce5b56b9531 .dot.active{stroke-width:5px}#chart-b9359303-a687-434e-bb3c-7ce5b56b9531 .series text{stroke:none}#chart-b9359303-a687-434e-bb3c-7ce5b56b9531 .series text.active{opacity:1}#chart-b9359303-a687-434e-bb3c-7ce5b56b9531 .tooltip rect{fill-opacity:0.8}#chart-b9359303-a687-434e-bb3c-7ce5b56b9531 .tooltip text{fill-opacity:1}#chart-b9359303-a687-434e-bb3c-7ce5b56b9531 .tooltip text tspan.label{fill-opacity:.8}</style><script type="text/javascript">window.config = {"fill": false, "legend_at_bottom_columns": null, "show_y_guides": true, "margin": 20, "stack_from_top": false, "show_minor_y_labels": true, "title": "Election 6 Participation", "x_labels_major": null, "truncate_label": null, "height": 768, "pretty_print": false, "dots_size": 2.5, "x_labels": null, "mode": null, "margin_bottom": null, "legend_box_size": 12, "xrange": null, "x_title": null, "disable_xml_declaration": false, "show_dots": false, "value_font_size": 8, "show_x_guides": false, "no_prefix": false, "range": null, "label_font_size": 10, "tooltip_border_radius": 0, "spacing": 10, "tooltip_font_size": 16, "print_values": false, "y_labels_major_count": null, "half_pie": false, "margin_top": null, "show_x_labels": true, "x_value_formatter": null, "interpolation_parameters": {}, "zero": 0, "truncate_legend": null, "missing_value_fill_truncation": "x", "y_labels_major_every": null, "strict": false, "no_data_font_size": 64, "margin_left": null, "margin_right": null, "show_only_major_dots": false, "x_label_format": "%Y-%m-%d %H:%M:%S.%f", "interpolate": null, "x_labels_major_every": null, "y_title": "Users", "y_labels_major": null, "major_label_font_size": 10, "style": {"foreground_dark": "#555", "plot_background": "#111", "stroke_width": 1.0, "stroke_style": "round", "opacity": ".8", "opacity_hover": ".4", "foreground": "#999", "stroke_dasharray": "0,0", "background": "black", "foreground_light": "#eee", "font_family": "monospace", "transition": "250ms", "colors": ["#ff5995", "#b6e354", "#feed6c", "#8cedff", "#9e6ffe", "#899ca1", "#f8f8f2", "#bf4646", "#516083", "#f92672", "#82b414", "#fd971f", "#56c2d6", "#808384", "#8c54fe", "#465457"]}, "show_legend": true, "human_readable": false, "show_y_labels": true, "legend_font_size": 14, "x_labels_major_count": null, "show_minor_x_labels": true, "inner_radius": 0, "css": ["style.css", "graph.css"], "x_label_rotation": 0, "rounded_bars": null, "y_label_rotation": 0, "interpolation_precision": 250, "no_data_text": "No data", "include_x_axis": false, "logarithmic": false, "legend_at_bottom": true, "explicit_size": false, "print_zeroes": false, "order_min": null, "width": 1024, "js": ["http://kozea.github.io/pygal.js/javascripts/svg.jquery.js", "http://kozea.github.io/pygal.js/javascripts/pygal-tooltips.js"], "title_font_size": 16, "y_labels": null, "stroke": true}</script><script type="text/javascript" xlink:href="http://kozea.github.io/pygal.js/javascripts/svg.jquery.js" /><script type="text/javascript" xlink:href="http://kozea.github.io/pygal.js/javascripts/pygal-tooltips.js" /></defs><title>Election 6 Participation</title><g class="graph line-graph vertical"><rect class="background" height="768" width="1024" x="0" y="0" /><g class="plot" transform="translate(86, 46)"><rect class="background" height="657.0" width="918.0" x="0" y="0" /><g class="axis y"><g class="guides"><path class="axis major line" d="M0.000000 644.365385 h918.000000" /><text class="major" x="-5" y="647.8653846153846">0</text></g><g class="guides"><path class="guide line" d="M0.000000 562.429901 h918.000000" /><text class="" x="-5" y="565.9299013880893">10000</text></g><g class="guides"><path class="guide line" d="M0.000000 480.494418 h918.000000" /><text class="" x="-5" y="483.9944181607941">20000</text></g><g class="guides"><path class="guide line" d="M0.000000 398.558935 h918.000000" /><text class="" x="-5" y="402.05893493349885">30000</text></g><g class="guides"><path class="guide line" d="M0.000000 316.623452 h918.000000" /><text class="" x="-5" y="320.12345170620364">40000</text></g><g class="guides"><path class="major guide line" d="M0.000000 234.687968 h918.000000" /><text class="major" x="-5" y="238.18796847890832">50000</text></g><g class="guides"><path class="guide line" d="M0.000000 152.752485 h918.000000" /><text class="" x="-5" y="156.25248525161305">60000</text></g><g class="guides"><path class="guide line" d="M0.000000 70.817002 h918.000000" /><text class="" x="-5" y="74.31700202431784">70000</text></g></g><g class="series serie-0 color-0"><path class="line reactive nofill" d="M17.653846 644.365385 L20.105769 644.365385 22.557692 644.365385 25.009615 644.365385 27.461538 644.365385 29.913462 644.365385 32.365385 644.365385 34.817308 644.365385 37.269231 644.365385 39.721154 644.365385 42.173077 644.365385 44.625000 644.365385 47.076923 644.365385 49.528846 644.365385 51.980769 644.365385 54.432692 644.365385 56.884615 644.365385 59.336538 644.365385 61.788462 644.365385 64.240385 644.365385 66.692308 644.365385 69.144231 644.365385 71.596154 644.365385 74.048077 644.365385 76.500000 644.365385 78.951923 644.365385 81.403846 644.365385 83.855769 644.365385 86.307692 644.365385 88.759615 644.365385 91.211538 644.365385 93.663462 644.365385 96.115385 644.365385 98.567308 644.365385 101.019231 644.365385 103.471154 644.365385 105.923077 644.365385 108.375000 644.365385 110.826923 644.365385 113.278846 644.365385 115.730769 644.365385 118.182692 644.365385 120.634615 644.365385 123.086538 644.365385 125.538462 644.365385 127.990385 644.365385 130.442308 644.365385 132.894231 644.365385 135.346154 644.365385 137.798077 644.365385 140.250000 644.365385 142.701923 644.365385 145.153846 644.365385 147.605769 644.365385 150.057692 644.365385 152.509615 644.365385 154.961538 644.365385 157.413462 644.365385 159.865385 644.365385 162.317308 644.365385 164.769231 644.365385 167.221154 644.365385 169.673077 644.365385 172.125000 644.365385 174.576923 644.365385 177.028846 644.365385 179.480769 644.365385 181.932692 644.365385 184.384615 644.365385 186.836538 644.365385 189.288462 644.365385 191.740385 644.365385 194.192308 644.365385 196.644231 644.365385 199.096154 644.365385 201.548077 644.365385 204.000000 644.365385 206.451923 644.365385 208.903846 644.365385 211.355769 644.365385 213.807692 644.365385 216.259615 644.365385 218.711538 644.365385 221.163462 644.365385 223.615385 644.365385 226.067308 644.365385 228.519231 644.365385 230.971154 644.365385 233.423077 644.365385 235.875000 644.365385 238.326923 644.365385 240.778846 644.365385 243.230769 644.365385 245.682692 644.365385 248.134615 644.365385 250.586538 644.365385 253.038462 644.365385 255.490385 644.365385 257.942308 644.365385 260.394231 644.365385 262.846154 644.365385 265.298077 644.365385 267.750000 644.365385 270.201923 644.365385 272.653846 644.365385 275.105769 644.365385 277.557692 644.365385 280.009615 644.365385 282.461538 644.365385 284.913462 644.365385 287.365385 644.365385 289.817308 644.365385 292.269231 644.365385 294.721154 644.365385 297.173077 644.365385 299.625000 644.365385 302.076923 644.365385 304.528846 644.365385 306.980769 644.365385 309.432692 644.365385 311.884615 644.365385 314.336538 644.365385 316.788462 644.365385 319.240385 644.365385 321.692308 644.365385 324.144231 644.365385 326.596154 644.365385 329.048077 644.365385 331.500000 644.365385 333.951923 644.365385 336.403846 644.365385 338.855769 644.365385 341.307692 644.365385 343.759615 644.365385 346.211538 644.365385 348.663462 644.365385 351.115385 644.365385 353.567308 644.365385 356.019231 644.365385 358.471154 644.365385 360.923077 644.365385 363.375000 644.365385 365.826923 644.365385 368.278846 644.365385 370.730769 644.365385 373.182692 644.365385 375.634615 644.365385 378.086538 644.365385 380.538462 644.365385 382.990385 644.365385 385.442308 644.365385 387.894231 644.365385 390.346154 644.365385 392.798077 644.365385 395.250000 644.365385 397.701923 644.365385 400.153846 644.365385 402.605769 644.365385 405.057692 644.365385 407.509615 644.365385 409.961538 644.365385 412.413462 644.365385 414.865385 644.365385 417.317308 644.365385 419.769231 644.365385 422.221154 644.365385 424.673077 644.365385 427.125000 644.365385 429.576923 644.365385 432.028846 644.365385 434.480769 644.365385 436.932692 644.365385 439.384615 644.365385 441.836538 644.365385 444.288462 644.365385 446.740385 644.365385 449.192308 644.365385 451.644231 644.365385 454.096154 644.365385 456.548077 644.365385 459.000000 644.365385 461.451923 644.365385 463.903846 644.365385 466.355769 644.365385 468.807692 644.365385 471.259615 644.365385 473.711538 644.365385 476.163462 644.365385 478.615385 644.365385 481.067308 644.365385 483.519231 644.365385 485.971154 644.365385 488.423077 644.365385 490.875000 644.365385 493.326923 644.365385 495.778846 644.365385 498.230769 644.365385 500.682692 644.365385 503.134615 644.365385 505.586538 644.365385 508.038462 644.365385 510.490385 644.365385 512.942308 644.365385 515.394231 644.365385 517.846154 644.365385 520.298077 644.365385 522.750000 644.365385 525.201923 644.365385 527.653846 644.365385 530.105769 644.365385 532.557692 644.365385 535.009615 644.365385 537.461538 644.365385 539.913462 644.365385 542.365385 644.365385 544.817308 644.365385 547.269231 644.365385 549.721154 644.365385 552.173077 644.365385 554.625000 644.365385 557.076923 644.365385 559.528846 644.365385 561.980769 644.365385 564.432692 644.365385 566.884615 644.365385 569.336538 644.365385 571.788462 644.365385 574.240385 644.365385 576.692308 644.365385 579.144231 644.365385 581.596154 644.365385 584.048077 644.365385 586.500000 644.365385 588.951923 644.365385 591.403846 644.365385 593.855769 644.365385 596.307692 644.365385 598.759615 644.365385 601.211538 644.365385 603.663462 644.365385 606.115385 644.365385 608.567308 644.365385 611.019231 644.365385 613.471154 644.365385 615.923077 644.365385 618.375000 644.365385 620.826923 644.365385 623.278846 644.365385 625.730769 644.365385 628.182692 644.365385 630.634615 644.365385 633.086538 644.365385 635.538462 644.365385 637.990385 644.365385 640.442308 644.365385 642.894231 644.365385 645.346154 644.365385 647.798077 644.365385 650.250000 644.365385 652.701923 644.365385 655.153846 644.365385 657.605769 644.365385 660.057692 644.365385 662.509615 644.365385 664.961538 618.113256 667.413462 606.027772 669.865385 599.325449 672.317308 595.359772 674.769231 592.270804 677.221154 589.542353 679.673077 587.084288 682.125000 584.241127 684.576923 580.463901 687.028846 576.760417 689.480769 573.097901 691.932692 568.894611 694.384615 565.199321 696.836538 561.012418 699.288462 557.218805 701.740385 554.154418 704.192308 551.221127 706.644231 548.345192 709.096154 545.608547 711.548077 543.093127 714.000000 540.938224 716.451923 538.480160 718.903846 536.587450 721.355769 534.358805 723.807692 532.834805 726.259615 531.581192 728.711538 530.606160 731.163462 529.778611 733.615385 529.180482 736.067308 528.524998 738.519231 527.918676 740.971154 527.369708 743.423077 526.779773 745.875000 525.919450 748.326923 524.723192 750.778846 523.625257 753.230769 522.183192 755.682692 521.019708 758.134615 519.634998 760.586538 518.258482 763.038462 517.045837 765.490385 515.800418 767.942308 514.784418 770.394231 513.498031 772.846154 512.244418 775.298077 511.031773 777.750000 509.843708 780.201923 508.729386 782.653846 507.762547 785.105769 506.746547 787.557692 506.000934 790.009615 505.075063 792.461538 504.181966 794.913462 503.165966 797.365385 502.068031 799.817308 500.871773 802.269231 498.512031 804.721154 495.185450 807.173077 490.523321 809.625000 484.451902 812.076923 478.896676 814.528846 473.677386 816.980769 470.285257 819.432692 467.294612 821.884615 463.664870 824.336538 459.920418 826.788462 456.397193 829.240385 453.693322 831.692308 451.800612 834.144231 450.448676 836.596154 448.957451 839.048077 447.548160 841.500000 446.474806 843.951923 445.360483 846.403846 444.786935 848.855769 444.369064 851.307692 443.803709 853.759615 443.410418 856.211538 443.008935 858.663462 442.550096 861.115385 442.476354 863.567308 442.476354 866.019231 442.476354 868.471154 442.476354 870.923077 442.476354 873.375000 442.476354 875.826923 442.476354 878.278846 442.476354 880.730769 442.476354 883.182692 442.476354 885.634615 442.476354 888.086538 442.476354 890.538462 442.476354 892.990385 442.476354 895.442308 442.476354 897.894231 442.476354 900.346154 442.476354" /></g><g class="series serie-1 color-1"><path class="line reactive nofill" d="M17.653846 627.920933 L20.105769 621.767578 22.557692 618.334482 25.009615 616.048482 27.461538 613.893578 29.913462 612.459707 32.365385 611.017643 34.817308 609.337966 37.269231 606.830740 39.721154 603.602482 42.173077 600.226740 44.625000 595.605579 47.076923 591.377708 49.528846 588.501772 51.980769 585.855256 54.432692 583.659385 56.884615 581.381579 59.336538 579.152934 61.788462 576.907901 64.240385 574.949643 66.692308 573.409256 69.144231 572.040934 71.596154 570.828288 74.048077 569.681192 76.500000 568.779901 78.951923 567.673772 81.403846 567.149385 83.855769 566.772482 86.307692 566.313643 88.759615 565.879385 91.211538 565.592611 93.663462 565.322224 96.115385 564.773256 98.567308 564.134159 101.019231 563.437708 103.471154 562.495450 105.923077 561.553192 108.375000 560.627321 110.826923 559.750611 113.278846 559.021385 115.730769 558.185643 118.182692 557.325321 120.634615 556.579708 123.086538 555.932418 125.538462 555.391643 127.990385 554.744353 130.442308 554.162611 132.894231 553.679192 135.346154 553.187579 137.798077 552.794289 140.250000 552.409192 142.701923 552.261708 145.153846 552.089643 147.605769 551.909385 150.057692 551.679966 152.509615 551.499708 154.961538 551.155579 157.413462 550.721321 159.865385 550.352611 162.317308 549.779063 164.769231 549.197321 167.221154 548.705708 169.673077 548.205901 172.125000 547.632353 174.576923 547.148934 177.028846 546.550805 179.480769 545.936289 181.932692 545.354547 184.384615 544.903902 186.836538 544.592547 189.288462 544.232031 191.740385 543.855127 194.192308 543.388095 196.644231 543.093127 199.096154 542.904676 201.548077 542.724418 204.000000 542.601514 206.451923 542.462224 208.903846 542.306547 211.355769 542.191837 213.807692 541.946031 216.259615 541.659256 218.711538 541.290547 221.163462 540.962805 223.615385 540.618676 226.067308 540.176224 228.519231 539.741966 230.971154 539.397837 233.423077 538.979966 235.875000 538.594869 238.326923 538.185192 240.778846 537.865644 243.230769 537.652611 245.682692 537.398611 248.134615 537.169192 250.586538 536.956160 253.038462 536.669385 255.490385 536.497321 257.942308 536.349837 260.394231 536.235127 262.846154 536.095837 265.298077 535.989321 267.750000 535.923773 270.201923 535.858224 272.653846 535.727127 275.105769 535.653385 277.557692 535.514095 280.009615 535.374805 282.461538 535.292869 284.913462 535.194547 287.365385 535.120805 289.817308 534.948740 292.269231 534.793063 294.721154 534.694740 297.173077 534.498095 299.625000 534.334224 302.076923 534.186740 304.528846 534.014676 306.980769 533.801644 309.432692 533.670547 311.884615 533.572224 314.336538 533.498482 316.788462 533.342805 319.240385 533.228095 321.692308 533.137966 324.144231 533.031450 326.596154 532.941321 329.048077 532.875773 331.500000 532.761063 333.951923 532.654547 336.403846 532.548031 338.855769 532.457902 341.307692 532.375966 343.759615 532.187515 346.211538 532.048224 348.663462 531.884353 351.115385 531.745063 353.567308 531.613966 356.019231 531.482869 358.471154 531.343579 360.923077 531.245256 363.375000 531.122353 365.826923 530.983063 368.278846 530.786418 370.730769 530.647127 373.182692 530.491450 375.634615 530.401321 378.086538 530.311192 380.538462 530.221063 382.990385 530.114547 385.442308 529.967063 387.894231 529.893321 390.346154 529.786805 392.798077 529.581966 395.250000 529.377127 397.701923 528.992031 400.153846 528.565966 402.605769 528.074353 405.057692 527.681063 407.509615 527.230418 409.961538 526.828934 412.413462 526.230805 414.865385 525.747386 417.317308 525.485192 419.769231 525.190224 422.221154 524.870676 424.673077 524.526547 427.125000 524.157837 429.576923 483.353967 432.028846 463.968031 434.480769 453.488483 436.932692 445.753773 439.384615 439.116999 441.836538 433.553580 444.288462 427.277322 446.740385 421.140354 449.192308 412.250354 451.644231 399.296354 454.096154 382.245580 456.548077 360.540871 459.000000 341.892355 461.451923 325.464290 463.903846 312.780678 466.355769 301.621065 468.807692 290.207452 471.259615 279.441129 473.711538 269.166420 476.163462 260.890936 478.615385 254.590097 481.067308 249.116807 483.519231 244.053194 485.971154 239.456614 488.423077 235.564678 490.875000 232.139775 493.326923 229.861969 495.778846 228.403517 498.230769 227.199065 500.682692 225.871710 503.134615 224.609904 505.586538 223.028549 508.038462 220.906420 510.490385 218.137001 512.942308 214.425323 515.394231 210.222033 517.846154 206.010549 520.298077 201.586033 522.750000 197.661324 525.201923 193.867711 527.653846 190.082291 530.105769 186.206743 532.557692 182.224679 535.009615 179.070162 537.461538 176.087711 539.913462 173.777130 542.365385 171.392808 544.817308 169.303453 547.269231 167.246872 549.721154 165.845775 552.173077 164.624937 554.625000 163.641711 557.076923 162.928872 559.528846 161.994808 561.980769 161.281969 564.432692 160.372485 566.884615 159.290937 569.336538 158.168421 571.788462 156.136421 574.240385 154.063453 576.692308 151.949518 579.144231 149.581582 581.596154 147.443066 584.048077 145.419260 586.500000 143.018550 588.951923 140.839066 591.403846 138.774292 593.855769 137.250292 596.307692 135.472292 598.759615 133.907324 601.211538 132.743840 603.663462 131.588550 606.115385 130.367711 608.567308 129.368098 611.019231 128.671647 613.471154 128.139066 615.923077 127.655647 618.375000 127.270550 620.826923 126.762550 623.278846 126.238163 625.730769 125.656421 628.182692 124.919002 630.634615 124.075066 633.086538 123.067260 635.538462 121.748098 637.990385 120.404356 640.442308 119.355582 642.894231 118.355969 645.346154 116.922098 647.798077 115.521002 650.250000 114.029776 652.701923 112.940034 655.153846 112.153453 657.605769 111.186615 660.057692 110.252550 662.509615 109.498744 664.961538 100.993840 667.413462 96.438228 669.865385 93.545905 672.317308 91.702357 674.769231 90.530679 677.221154 89.490099 679.673077 88.687131 682.125000 87.736679 684.576923 86.556808 687.028846 85.204873 689.480769 83.844744 691.932692 82.320744 694.384615 81.009776 696.836538 79.305518 699.288462 77.912615 701.740385 76.732744 704.192308 75.208744 706.644231 73.963325 709.096154 72.685131 711.548077 71.423325 714.000000 70.423712 716.451923 69.293002 718.903846 68.342550 721.355769 67.129905 723.807692 66.245002 726.259615 65.433841 728.711538 64.925841 731.163462 64.319518 733.615385 63.950809 736.067308 63.573905 738.519231 63.278938 740.971154 62.951196 743.423077 62.615260 745.875000 62.221970 748.326923 61.664809 750.778846 61.074873 753.230769 60.181776 755.682692 59.337841 758.134615 58.485712 760.586538 57.887583 763.038462 57.068228 765.490385 56.388163 767.942308 55.749067 770.394231 54.921518 772.846154 54.184099 775.298077 53.389325 777.750000 52.840357 780.201923 52.225841 782.653846 51.521196 785.105769 50.923067 787.557692 50.505196 790.009615 50.046357 792.461538 49.595712 794.913462 48.973002 797.365385 48.407647 799.817308 47.727583 802.269231 46.768938 804.721154 45.343260 807.173077 43.303067 809.625000 40.820422 812.076923 37.952680 814.528846 34.888293 816.980769 32.864486 819.432692 30.889841 821.884615 28.587454 824.336538 26.268680 826.788462 24.056422 829.240385 22.122744 831.692308 20.811777 834.144231 19.582744 836.596154 18.370099 839.048077 17.091906 841.500000 16.100486 843.951923 15.289325 846.403846 14.601067 848.855769 14.175002 851.307692 13.847261 853.759615 13.421196 856.211538 13.052486 858.663462 12.691970 861.115385 12.634615 863.567308 12.634615 866.019231 12.634615 868.471154 12.634615 870.923077 12.634615 873.375000 12.634615 875.826923 12.634615 878.278846 12.634615 880.730769 12.634615 883.182692 12.634615 885.634615 12.634615 888.086538 12.634615 890.538462 12.634615 892.990385 12.634615 895.442308 12.634615 897.894231 12.634615 900.346154 12.634615" /></g></g><g class="titles"><text class="title plot_title" x="512.0" y="26">Election 6 Participation</text><text class="title" transform="rotate(-90 0.000000 374.500000)" x="0" y="400.5">Users</text></g><g class="plot overlay" transform="translate(86, 46)"><g class="series serie-0 color-0" /><g class="series serie-1 color-1" /></g><g class="plot text-overlay" transform="translate(86, 46)"><g class="series serie-0 color-0" /><g class="series serie-1 color-1" /></g><g class="plot tooltip-overlay" transform="translate(86, 46)"><g class="tooltip" style="opacity: 0" transform="translate(0 0)"><a><rect class="tooltip-box" height="0" rx="0" ry="0" width="0" /><text class="text"><tspan class="label" /><tspan class="value" /></text></a></g></g><g class="legends" transform="translate(96, 713)"><g class="legend reactive activate-serie" id="activate-serie-0"><rect class="color-0 reactive" height="12" width="12" x="0.0" y="1.0" /><text x="17.0" y="11.2">constituents</text></g><g class="legend reactive activate-serie" id="activate-serie-1"><rect class="color-1 reactive" height="12" width="12" x="459.0" y="1.0" /><text x="476.0" y="11.2">caucus</text></g></g></g></svg>