<?xml version='1.0' encoding='utf-8'?>
<svg xmlns:xlink="http://www.w3.org/1999/xlink" class="pygal-chart" id="chart-9ae37835-8ef5-4903-baac-4f1b725d4104" viewBox="0 0 1024 768" xmlns="http://www.w3.org/2000/svg"><!--Generated with pygal 1.7.0 (etree) ©Kozea 2011-2014 on 2018-03-25--><!--http://pygal.org--><!--http://github.com/Kozea/pygal--><defs><style type="text/css">#chart-9ae37835-8ef5-4903-baac-4f1b725d4104 .title{font-family:"monospace";font-size:16px}#chart-9ae37835-8ef5-4903-baac-4f1b725d4104 .legends .legend text{font-family:"monospace";font-size:14px}#chart-9ae37835-8ef5-4903-baac-4f1b725d4104 .axis text{font-family:"monospace";font-size:10px}#chart-9ae37835-8ef5-4903-baac-4f1b725d4104 .axis text.major{font-family:"monospace";font-size:10px}#chart-9ae37835-8ef5-4903-baac-4f1b725d4104 .series text{font-family:"monospace";font-size:8px}#chart-9ae37835-8ef5-4903-baac-4f1b725d4104 .tooltip text{font-family:"monospace";font-size:16px}#chart-9ae37835-8ef5-4903-baac-4f1b725d4104 text.no_data{font-size:64px}
#chart-9ae37835-8ef5-4903-baac-4f1b725d4104{background-color:black}#chart-9ae37835-8ef5-4903-baac-4f1b725d4104 path,#chart-9ae37835-8ef5-4903-baac-4f1b725d4104 line,#chart-9ae37835-8ef5-4903-baac-4f1b725d4104 rect,#chart-9ae37835-8ef5-4903-baac-4f1b725d4104 circle{-webkit-transition:250ms;-moz-transition:250ms;transition:250ms}#chart-9ae37835-8ef5-4903-baac-4f1b725d4104 .graph &gt; .background{fill:black}#chart-9ae37835-8ef5-4903-baac-4f1b725d4104 .plot &gt; .background{fill:#111}#chart-9ae37835-8ef5-4903-baac-4f1b725d4104 .graph{fill:#999}#chart-9ae37835-8ef5-4903-baac-4f1b725d4104 text.no_data{fill:#eee}#chart-9ae37835-8ef5-4903-baac-4f1b725d4104 .title{fill:#eee}#chart-9ae37835-8ef5-4903-baac-4f1b725d4104 .legends .legend text{fill:#999}#chart-9ae37835-8ef5-4903-baac-4f1b725d4104 .legends .legend:hover text{fill:#eee}#chart-9ae37835-8ef5-4903-baac-4f1b725d4104 .axis .line{stroke:#eee}#chart-9ae37835-8ef5-4903-baac-4f1b725d4104 .axis .guide.line{stroke:#555}#chart-9ae37835-8ef5-4903-baac-4f1b725d4104 .axis .major.line{stroke:#999}#chart-9ae37835-8ef5-4903-baac-4f1b725d4104 .axis text.major{stroke:#eee;fill:#eee}#chart-9ae37835-8ef5-4903-baac-4f1b725d4104 .axis.y .guides:hover .guide.line,#chart-9ae37835-8ef5-4903-baac-4f1b725d4104 .line-graph .axis.x .guides:hover .guide.line,#chart-9ae37835-8ef5-4903-baac-4f1b725d4104 .stackedline-graph .axis.x .guides:hover .guide.line,#chart-9ae37835-8ef5-4903-baac-4f1b725d4104 .xy-graph .axis.x .guides:hover .guide.line{stroke:#eee}#chart-9ae37835-8ef5-4903-baac-4f1b725d4104 .axis .guides:hover text{fill:#eee}#chart-9ae37835-8ef5-4903-baac-4f1b725d4104 .reactive{fill-opacity:.8}#chart-9ae37835-8ef5-4903-baac-4f1b725d4104 .reactive.active,#chart-9ae37835-8ef5-4903-baac-4f1b725d4104 .active .reactive{fill-opacity:.4}#chart-9ae37835-8ef5-4903-baac-4f1b725d4104 .series{stroke-width:1.0;stroke-linejoin:round;stroke-linecap:round;stroke-dasharray:0,0}#chart-9ae37835-8ef5-4903-baac-4f1b725d4104 .series text{fill:#eee}#chart-9ae37835-8ef5-4903-baac-4f1b725d4104 .tooltip rect{fill:#111;stroke:#eee}#chart-9ae37835-8ef5-4903-baac-4f1b725d4104 .tooltip text{fill:#eee}#chart-9ae37835-8ef5-4903-baac-4f1b725d4104 .map-element{fill:#999;stroke:#555 !important;opacity:.9;stroke-width:3;-webkit-transition:250ms;-moz-transition:250ms;-o-transition:250ms;transition:250ms}#chart-9ae37835-8ef5-4903-baac-4f1b725d4104 .map-element:hover{opacity:1;stroke-width:10}#chart-9ae37835-8ef5-4903-baac-4f1b725d4104 .color-0,#chart-9ae37835-8ef5-4903-baac-4f1b725d4104 .color-0 a:visited{stroke:#ff5995;fill:#ff5995}#chart-9ae37835-8ef5-4903-baac-4f1b725d4104 .color-1,#chart-9ae37835-8ef5-4903-baac-4f1b725d4104 .color-1 a:visited{stroke:#b6e354;fill:#b6e354}#chart-9ae37835-8ef5-4903-baac-4f1b725d4104 .color-2,#chart-9ae37835-8ef5-4903-baac-4f1b725d4104 .color-2 a:visited{stroke:#feed6c;fill:#feed6c}#chart-9ae37835-8ef5-4903-baac-4f1b725d4104 .color-3,#chart-9ae37835-8ef5-4903-baac-4f1b725d4104 .color-3 a:visited{stroke:#8cedff;fill:#8cedff}#chart-9ae37835-8ef5-4903-baac-4f1b725d4104 .color-4,#chart-9ae37835-8ef5-4903-baac-4f1b725d4104 .color-4 a:visited{stroke:#9e6ffe;fill:#9e6ffe}#chart-9ae37835-8ef5-4903-baac-4f1b725d4104 .color-5,#chart-9ae37835-8ef5-4903-baac-4f1b725d4104 .color-5 a:visited{stroke:#899ca1;fill:#899ca1}#chart-9ae37835-8ef5-4903-baac-4f1b725d4104 .color-6,#chart-9ae37835-8ef5-4903-baac-4f1b725d4104 .color-6 a:visited{stroke:#f8f8f2;fill:#f8f8f2}#chart-9ae37835-8ef5-4903-baac-4f1b725d4104 .color-7,#chart-9ae37835-8ef5-4903-baac-4f1b725d4104 .color-7 a:visited{stroke:#bf4646;fill:#bf4646}#chart-9ae37835-8ef5-4903-baac-4f1b725d4104 .color-8,#chart-9ae37835-8ef5-4903-baac-4f1b725d4104 .color-8 a:visited{stroke:#516083;fill:#516083}#chart-9ae37835-8ef5-4903-baac-4f1b725d4104 .color-9,#chart-9ae37835-8ef5-4903-baac-4f1b725d4104 .color-9 a:visited{stroke:#f92672;fill:#f92672}#chart-9ae37835-8ef5-4903-baac-4f1b725d4104 .color-10,#chart-9ae37835-8ef5-4903-baac-4f1b725d4104 .color-10 a:visited{stroke:#82b414;fill:#82b414}#chart-9ae37835-8ef5-4903-baac-4f1b725d4104 .color-11,#chart-9ae37835-8ef5-4903-baac-4f1b725d4104 .color-11 a:visited{stroke:#fd971f;fill:#fd971f}#chart-9ae37835-8ef5-4903-baac-4f1b725d4104 .color-12,#chart-9ae37835-8ef5-4903-baac-4f1b725d4104 .color-12 a:visited{stroke:#56c2d6;fill:#56c2d6}#chart-9ae37835-8ef5-4903-baac-4f1b725d4104 .color-13,#chart-9ae37835-8ef5-4903-baac-4f1b725d4104 .color-13 a:visited{stroke:#808384;fill:#808384}#chart-9ae37835-8ef5-4903-baac-4f1b725d4104 .color-14,#chart-9ae37835-8ef5-4903-baac-4f1b725d4104 .color-14 a:visited{stroke:#8c54fe;fill:#8c54fe}#chart-9ae37835-8ef5-4903-baac-4f1b725d4104 .color-15,#chart-9ae37835-8ef5-4903-baac-4f1b725d4104 .color-15 a:visited{stroke:#465457;fill:#465457}
#chart-9ae37835-8ef5-4903-baac-4f1b725d4104 text.no_data{text-anchor:middle}#chart-9ae37835-8ef5-4903-baac-4f1b725d4104 .guide.line{fill-opacity:0}#chart-9ae37835-8ef5-4903-baac-4f1b725d4104 .centered{text-anchor:middle}#chart-9ae37835-8ef5-4903-baac-4f1b725d4104 .title{text-anchor:middle}#chart-9ae37835-8ef5-4903-baac-4f1b725d4104 .legends .legend text{fill-opacity:1}#chart-9ae37835-8ef5-4903-baac-4f1b725d4104 .axis.x text{text-anchor:middle}#chart-9ae37835-8ef5-4903-baac-4f1b725d4104 .axis.x:not(.web) text[transform]{text-anchor:start}#chart-9ae37835-8ef5-4903-baac-4f1b725d4104 .axis.y text{text-anchor:end}#chart-9ae37835-8ef5-4903-baac-4f1b725d4104 .axis.y2 text{text-anchor:start}#chart-9ae37835-8ef5-4903-baac-4f1b725d4104 .axis.y .logarithmic text:not(.major),#chart-9ae37835-8ef5-4903-baac-4f1b725d4104 .axis.y2 .logarithmic text:not(.major){font-size:50%}#chart-9ae37835-8ef5-4903-baac-4f1b725d4104 .axis .guide.line{stroke-dasharray:4,4}#chart-9ae37835-8ef5-4903-baac-4f1b725d4104 .axis .major.guide.line{stroke-dasharray:6,6}#chart-9ae37835-8ef5-4903-baac-4f1b725d4104 .axis text.major{stroke-width:0.5px}#chart-9ae37835-8ef5-4903-baac-4f1b725d4104 .horizontal .axis.y .guide.line,#chart-9ae37835-8ef5-4903-baac-4f1b725d4104 .horizontal .axis.y2 .guide.line,#chart-9ae37835-8ef5-4903-baac-4f1b725d4104 .vertical .axis.x .guide.line{opacity:0}#chart-9ae37835-8ef5-4903-baac-4f1b725d4104 .horizontal .axis.always_show .guide.line,#chart-9ae37835-8ef5-4903-baac-4f1b725d4104 .vertical .axis.always_show .guide.line{opacity:1 !important}#chart-9ae37835-8ef5-4903-baac-4f1b725d4104 .axis.y .guides:hover .guide.line,#chart-9ae37835-8ef5-4903-baac-4f1b725d4104 .axis.y2 .guides:hover .guide.line,#chart-9ae37835-8ef5-4903-baac-4f1b725d4104 .axis.x .guides:hover .guide.line{opacity:1}#chart-9ae37835-8ef5-4903-baac-4f1b725d4104 .axis .guides:hover text{opacity:1}#chart-9ae37835-8ef5-4903-baac-4f1b725d4104 .nofill{fill:none}#chart-9ae37835-8ef5-4903-baac-4f1b725d4104 .subtle-fill{fill-opacity:.2}#chart-9ae37835-8ef5-4903-baac-4f1b725d4104 .dot{stroke-width:1px;fill-opacity:1}#chart-9ae37835-8ef5-4903-baac-4f1b725d4104 .dot.active{stroke-width:5px}#chart-9ae37835-8ef5-4903-baac-4f1b725d4104 .series text{stroke:none}#chart-9ae37835-8ef5-4903-baac-4f1b725d4104 .series text.active{opacity:1}#chart-9ae37835-8ef5-4903-baac-4f1b725d4104 .tooltip rect{fill-opacity:0.8}#chart-9ae37835-8ef5-4903-baac-4f1b725d4104 .tooltip text{fill-opacity:1}#chart-9ae37835-8ef5-4903-baac-4f1b725d4104 .tooltip text tspan.label{fill-opacity:.8}</style><script type="text/javascript">window.config = {"css": ["style.css", "graph.css"], "disable_xml_declaration": false, "dots_size": 2.5, "explicit_size": false, "fill": false, "half_pie": false, "height": 768, "human_readable": false, "include_x_axis": false, "inner_radius": 0, "interpolate": null, "interpolation_parameters": {}, "interpolation_precision": 250, "js": ["http://kozea.github.io/pygal.js/javascripts/svg.jquery.js", "http://kozea.github.io/pygal.js/javascripts/pygal-tooltips.js"], "label_font_size": 10, "legend_at_bottom": true, "legend_at_bottom_columns": null, "legend_box_size": 12, "legend_font_size": 14, "logarithmic": false, "major_label_font_size": 10, "margin": 20, "margin_bottom": null, "margin_left": null, "margin_right": null, "margin_top": null, "missing_value_fill_truncation": "x", "mode": null, "no_data_font_size": 64, "no_data_text": "No data", "no_prefix": false, "order_min": null, "pretty_print": false, "print_values": false, "print_zeroes": false, "range": null, "rounded_bars": null, "show_dots": false, "show_legend": true, "show_minor_x_labels": true, "show_minor_y_labels": true, "show_only_major_dots": false, "show_x_guides": false, "show_x_labels": true, "show_y_guides": true, "show_y_labels": true, "spacing": 10, "stack_from_top": false, "strict": false, "stroke": true, "style": {"background": "black", "colors": ["#ff5995", "#b6e354", "#feed6c", "#8cedff", "#9e6ffe", "#899ca1", "#f8f8f2", "#bf4646", "#516083", "#f92672", "#82b414", "#fd971f", "#56c2d6", "#808384", "#8c54fe", "#465457"], "font_family": "monospace", "foreground": "#999", "foreground_dark": "#555", "foreground_light": "#eee", "opacity": ".8", "opacity_hover": ".4", "plot_background": "#111", "stroke_dasharray": "0,0", "stroke_style": "round", "stroke_width": 1.0, "transition": "250ms"}, "title": "Election 10 Participation", "title_font_size": 16, "tooltip_border_radius": 0, "tooltip_font_size": 16, "truncate_label": null, "truncate_legend": null, "value_font_size": 8, "width": 1024, "x_label_format": "%Y-%m-%d %H:%M:%S.%f", "x_label_rotation": 0, "x_labels": null, "x_labels_major": null, "x_labels_major_count": null, "x_labels_major_every": null, "x_title": null, "x_value_formatter": null, "xrange": null, "y_label_rotation": 0, "y_labels": null, "y_labels_major": null, "y_labels_major_count": null, "y_labels_major_every": null, "y_title": "Users", "zero": 0}</script><script type="text/javascript" xlink:href="http://kozea.github.io/pygal.js/javascripts/svg.jquery.js" /><script type="text/javascript" xlink:href="http://kozea.github.io/pygal.js/javascripts/pygal-tooltips.js" /></defs><title>Election 10 Participation</title><g class="graph line-graph vertical"><rect class="background" height="768" width="1024" x="0" y="0" /><g class="plot" transform="translate(86, 46)"><rect class="background" height="657.0" width="918.0" x="0" y="0" /><g class="axis y"><g class="guides"><path class="axis major line" d="M0.000000 644.365385 h918.000000" /><text class="major" x="-5" y="647.8653846153846">0</text></g><g class="guides"><path class="guide line" d="M0.000000 565.962559 h918.000000" /><text class="" x="-5" y="569.4625587722858">10000</text></g><g class="guides"><path class="guide line" d="M0.000000 487.559733 h918.000000" /><text class="" x="-5" y="491.05973292918685">20000</text></g><g class="guides"><path class="guide line" d="M0.000000 409.156907 h918.000000" /><text class="" x="-5" y="412.656907086088">30000</text></g><g class="guides"><path class="guide line" d="M0.000000 330.754081 h918.000000" /><text class="" x="-5" y="334.2540812429891">40000</text></g><g class="guides"><path class="major guide line" d="M0.000000 252.351255 h918.000000" /><text class="major" x="-5" y="255.8512553998902">50000</text></g><g class="guides"><path class="guide line" d="M0.000000 173.948430 h918.000000" /><text class="" x="-5" y="177.44842955679133">60000</text></g><g class="guides"><path class="guide line" d="M0.000000 95.545604 h918.000000" /><text class="" x="-5" y="99.04560371369246">70000</text></g><g class="guides"><path class="guide line" d="M0.000000 17.142778 h918.000000" /><text class="" x="-5" y="20.64277787059359">80000</text></g></g><g class="series serie-0 color-0"><path class="line reactive nofill" d="M17.653846 644.365385 L20.105769 644.365385 22.557692 644.365385 25.009615 644.365385 27.461538 644.365385 29.913462 644.365385 32.365385 644.365385 34.817308 644.365385 37.269231 644.365385 39.721154 644.365385 42.173077 644.365385 44.625000 644.365385 47.076923 644.365385 49.528846 644.365385 51.980769 644.365385 54.432692 644.365385 56.884615 644.365385 59.336538 644.365385 61.788462 644.365385 64.240385 644.365385 66.692308 644.365385 69.144231 644.365385 71.596154 644.365385 74.048077 644.365385 76.500000 644.365385 78.951923 644.365385 81.403846 644.365385 83.855769 644.365385 86.307692 644.365385 88.759615 644.365385 91.211538 644.365385 93.663462 644.365385 96.115385 644.365385 98.567308 644.365385 101.019231 644.365385 103.471154 644.365385 105.923077 644.365385 108.375000 644.365385 110.826923 644.365385 113.278846 644.365385 115.730769 644.365385 118.182692 644.365385 120.634615 644.365385 123.086538 644.365385 125.538462 644.365385 127.990385 644.365385 130.442308 644.365385 132.894231 644.365385 135.346154 644.365385 137.798077 644.365385 140.250000 644.365385 142.701923 644.365385 145.153846 644.365385 147.605769 644.365385 150.057692 644.365385 152.509615 644.365385 154.961538 644.365385 157.413462 644.365385 159.865385 644.365385 162.317308 644.365385 164.769231 644.365385 167.221154 644.365385 169.673077 644.365385 172.125000 644.365385 174.576923 644.365385 177.028846 644.365385 179.480769 644.365385 181.932692 644.365385 184.384615 644.365385 186.836538 644.365385 189.288462 644.365385 191.740385 644.365385 194.192308 644.365385 196.644231 644.365385 199.096154 644.365385 201.548077 644.365385 204.000000 644.365385 206.451923 644.365385 208.903846 644.365385 211.355769 644.365385 213.807692 644.365385 216.259615 644.365385 218.711538 644.365385 221.163462 644.365385 223.615385 644.365385 226.067308 644.365385 228.519231 644.365385 230.971154 644.365385 233.423077 644.365385 235.875000 644.365385 238.326923 644.365385 240.778846 644.365385 243.230769 644.365385 245.682692 644.365385 248.134615 644.365385 250.586538 644.365385 253.038462 644.365385 255.490385 644.365385 257.942308 644.365385 260.394231 644.365385 262.846154 644.365385 265.298077 644.365385 267.750000 644.365385 270.201923 644.365385 272.653846 644.365385 275.105769 644.365385 277.557692 644.365385 280.009615 644.365385 282.461538 644.365385 284.913462 644.365385 287.365385 644.365385 289.817308 644.365385 292.269231 644.365385 294.721154 644.365385 297.173077 644.365385 299.625000 644.365385 302.076923 644.365385 304.528846 644.365385 306.980769 644.365385 309.432692 644.365385 311.884615 644.365385 314.336538 644.365385 316.788462 644.365385 319.240385 644.365385 321.692308 644.365385 324.144231 644.365385 326.596154 644.365385 329.048077 644.365385 331.500000 644.365385 333.951923 644.365385 336.403846 644.365385 338.855769 644.365385 341.307692 644.365385 343.759615 644.365385 346.211538 644.365385 348.663462 644.365385 351.115385 644.365385 353.567308 644.365385 356.019231 644.365385 358.471154 644.365385 360.923077 644.365385 363.375000 644.365385 365.826923 644.365385 368.278846 644.365385 370.730769 644.365385 373.182692 644.365385 375.634615 644.365385 378.086538 644.365385 380.538462 644.365385 382.990385 644.365385 385.442308 644.365385 387.894231 644.365385 390.346154 644.365385 392.798077 644.365385 395.250000 644.365385 397.701923 644.365385 400.153846 644.365385 402.605769 644.365385 405.057692 644.365385 407.509615 644.365385 409.961538 644.365385 412.413462 644.365385 414.865385 644.365385 417.317308 644.365385 419.769231 644.365385 422.221154 644.365385 424.673077 644.365385 427.125000 644.365385 429.576923 644.365385 432.028846 644.365385 434.480769 644.365385 436.932692 644.365385 439.384615 644.365385 441.836538 644.365385 444.288462 644.365385 446.740385 644.365385 449.192308 644.365385 451.644231 644.365385 454.096154 644.365385 456.548077 644.365385 459.000000 644.365385 461.451923 644.365385 463.903846 644.365385 466.355769 644.365385 468.807692 644.365385 471.259615 644.365385 473.711538 644.365385 476.163462 644.365385 478.615385 644.365385 481.067308 644.365385 483.519231 644.365385 485.971154 644.365385 488.423077 644.365385 490.875000 644.365385 493.326923 644.365385 495.778846 644.365385 498.230769 644.365385 500.682692 644.365385 503.134615 644.365385 505.586538 644.365385 508.038462 644.365385 510.490385 644.365385 512.942308 644.365385 515.394231 644.365385 517.846154 644.365385 520.298077 644.365385 522.750000 644.365385 525.201923 644.365385 527.653846 644.365385 530.105769 644.365385 532.557692 644.365385 535.009615 644.365385 537.461538 644.365385 539.913462 644.365385 542.365385 644.365385 544.817308 644.365385 547.269231 644.365385 549.721154 644.365385 552.173077 644.365385 554.625000 644.365385 557.076923 644.365385 559.528846 644.365385 561.980769 644.365385 564.432692 644.365385 566.884615 644.365385 569.336538 644.365385 571.788462 644.365385 574.240385 644.365385 576.692308 644.365385 579.144231 644.365385 581.596154 644.365385 584.048077 644.365385 586.500000 644.365385 588.951923 644.365385 591.403846 644.365385 593.855769 644.365385 596.307692 644.365385 598.759615 644.365385 601.211538 644.365385 603.663462 644.365385 606.115385 644.365385 608.567308 644.365385 611.019231 644.365385 613.471154 644.365385 615.923077 644.365385 618.375000 644.365385 620.826923 644.365385 623.278846 644.365385 625.730769 644.365385 628.182692 644.365385 630.634615 644.365385 633.086538 644.365385 635.538462 644.365385 637.990385 644.365385 640.442308 644.365385 642.894231 644.365385 645.346154 644.365385 647.798077 644.365385 650.250000 644.365385 652.701923 644.365385 655.153846 644.365385 657.605769 644.365385 660.057692 644.365385 662.509615 643.549995 664.961538 622.185225 667.413462 612.024219 669.865385 605.234534 672.317308 600.992941 674.769231 598.052835 677.221154 595.449862 679.673077 593.074256 682.125000 590.345838 684.576923 587.076440 687.028846 583.767841 689.480769 580.372998 691.932692 576.405815 694.384615 572.642480 696.836538 569.020269 699.288462 564.959003 701.740385 561.501438 704.192308 558.216360 706.644231 555.135129 709.096154 552.163661 711.548077 549.270597 714.000000 546.542179 716.451923 544.158733 718.903846 541.932093 721.355769 539.854418 723.807692 538.168757 726.259615 536.647742 728.711538 535.471700 731.163462 534.538706 733.615385 533.715477 736.067308 533.049052 738.519231 532.374788 740.971154 531.614281 743.423077 530.798891 745.875000 529.873738 748.326923 528.705536 750.778846 527.474612 753.230769 526.086882 755.682692 524.628589 758.134615 523.178137 760.586538 521.602240 763.038462 520.190989 765.490385 519.038468 767.942308 517.501772 770.394231 516.145403 772.846154 514.687111 775.298077 513.464027 777.750000 511.966533 780.201923 510.586643 782.653846 509.402760 785.105769 508.375683 787.557692 507.340766 790.009615 507.340766 792.461538 507.340766 794.913462 507.340766 797.365385 507.340766 799.817308 507.340766 802.269231 507.340766 804.721154 507.340766 807.173077 507.340766 809.625000 507.340766 812.076923 507.340766 814.528846 507.340766 816.980769 507.340766 819.432692 507.340766 821.884615 507.340766 824.336538 507.340766 826.788462 507.340766 829.240385 507.340766 831.692308 507.340766 834.144231 507.340766 836.596154 507.340766 839.048077 507.340766 841.500000 507.340766 843.951923 507.340766 846.403846 507.340766 848.855769 507.340766 851.307692 507.340766 853.759615 507.340766 856.211538 507.340766 858.663462 507.340766 861.115385 507.340766 863.567308 507.340766 866.019231 507.340766 868.471154 507.340766 870.923077 507.340766 873.375000 507.340766 875.826923 507.340766 878.278846 507.340766 880.730769 507.340766 883.182692 507.340766 885.634615 507.340766 888.086538 507.340766 890.538462 507.340766 892.990385 507.340766 895.442308 507.340766 897.894231 507.340766 900.346154 507.340766" /></g><g class="series serie-1 color-1"><path class="line reactive nofill" d="M17.653846 629.092514 L20.105769 623.502393 22.557692 619.441126 25.009615 617.308569 27.461538 615.732673 29.913462 614.094054 32.365385 612.729844 34.817308 611.389156 37.269231 609.084113 39.721154 606.081285 42.173077 602.780526 44.625000 598.617336 47.076923 595.057847 49.528846 591.976616 51.980769 589.295240 54.432692 587.358690 56.884615 585.359418 59.336538 583.179819 61.788462 581.360874 64.240385 579.667373 66.692308 578.342365 69.144231 577.417212 71.596154 576.421496 74.048077 575.621787 76.500000 574.908321 78.951923 574.359501 81.403846 573.912605 83.855769 573.512751 86.307692 573.246181 88.759615 572.963931 91.211538 572.673841 93.663462 572.415111 96.115385 571.976056 98.567308 571.552680 101.019231 571.058742 103.471154 570.447200 105.923077 569.608290 108.375000 568.706658 110.826923 567.852067 113.278846 567.138601 115.730769 566.338892 118.182692 565.515663 120.634615 564.747315 123.086538 564.065210 125.538462 563.492870 127.990385 562.983251 130.442308 562.403070 132.894231 562.034577 135.346154 561.697445 137.798077 561.305431 140.250000 561.093743 142.701923 560.787972 145.153846 560.662528 147.605769 560.521403 150.057692 560.411639 152.509615 560.231312 154.961538 560.011784 157.413462 559.666812 159.865385 559.337520 162.317308 558.929825 164.769231 558.365325 167.221154 557.918429 169.673077 557.400970 172.125000 556.812949 174.576923 556.264129 177.028846 555.762351 179.480769 555.323295 181.932692 554.837198 184.384615 554.484385 186.836538 554.139413 189.288462 553.849322 191.740385 553.543551 194.192308 553.269141 196.644231 552.947690 199.096154 552.845766 201.548077 552.728162 204.000000 552.610558 206.451923 552.500794 208.903846 552.422391 211.355769 552.312627 213.807692 552.171502 216.259615 551.975495 218.711538 551.748126 221.163462 551.528599 223.615385 551.301230 226.067308 550.909216 228.519231 550.579924 230.971154 550.250632 233.423077 549.889979 235.875000 549.497965 238.326923 549.176514 240.778846 548.870743 243.230769 548.674736 245.682692 548.431687 248.134615 548.204319 250.586538 548.039673 253.038462 547.804464 255.490385 547.600617 257.942308 547.451652 260.394231 547.247804 262.846154 547.192922 265.298077 547.090999 267.750000 546.989075 270.201923 546.926353 272.653846 546.871471 275.105769 546.824429 277.557692 546.730346 280.009615 546.628422 282.461538 546.495137 284.913462 546.385373 287.365385 546.267769 289.817308 546.165845 292.269231 546.048241 294.721154 545.946317 297.173077 545.781671 299.625000 545.601345 302.076923 545.475900 304.528846 545.366136 306.980769 545.240692 309.432692 545.138768 311.884615 545.029004 314.336538 544.919240 316.788462 544.864358 319.240385 544.746754 321.692308 544.684032 324.144231 544.629150 326.596154 544.558587 329.048077 544.464504 331.500000 544.425303 333.951923 544.354740 336.403846 544.252816 338.855769 544.150893 341.307692 543.994087 343.759615 543.813760 346.211538 543.594233 348.663462 543.359024 351.115385 543.170857 353.567308 542.935649 356.019231 542.755322 358.471154 542.567156 360.923077 542.331947 363.375000 542.167301 365.826923 541.947773 368.278846 541.853690 370.730769 541.689044 373.182692 541.555759 375.634615 541.414634 378.086538 541.273509 380.538462 541.148064 382.990385 541.030460 385.442308 540.905016 387.894231 540.763891 390.346154 540.599245 392.798077 540.316994 395.250000 539.964182 397.701923 539.580008 400.153846 539.086070 402.605769 538.529410 405.057692 537.933549 407.509615 537.408250 409.961538 536.937833 412.413462 536.443895 414.865385 535.722589 417.317308 535.236491 419.769231 534.836637 422.221154 534.554387 424.673077 534.264296 427.125000 531.496677 429.576923 496.881829 432.028846 479.115749 434.480769 467.739499 436.932692 460.095223 439.384615 454.230692 441.836538 448.021188 444.288462 441.952809 446.740385 434.418298 449.192308 424.124007 451.644231 411.367867 454.096154 396.581094 456.548077 378.368117 459.000000 357.975542 461.451923 337.253676 463.903846 322.114090 466.355769 308.503359 468.807692 294.822066 471.259615 281.924801 473.711538 269.952690 476.163462 261.006927 478.615385 252.241491 481.067308 245.585092 483.519231 239.673518 485.971154 235.330002 488.423077 230.908083 490.875000 227.685726 493.326923 225.192517 495.778846 223.389252 498.230769 221.978001 500.682692 220.409944 503.134615 218.739964 505.586538 216.858296 508.038462 214.694378 510.490385 212.326613 512.942308 208.869048 515.394231 204.917546 517.846154 200.511307 520.298077 195.399443 522.750000 190.452224 525.201923 185.481485 527.653846 180.949802 530.105769 176.151549 532.557692 171.690428 535.009615 167.425314 537.461538 164.077514 539.913462 161.325575 542.365385 158.628517 544.817308 156.166669 547.269231 153.900827 549.721154 152.191645 552.173077 150.733353 554.625000 149.761158 557.076923 148.812484 559.528846 147.942212 561.980769 147.220906 564.432692 146.217350 566.884615 145.088349 569.336538 143.771182 571.788462 142.022799 574.240385 139.796159 576.692308 137.146143 579.144231 134.315801 581.596154 131.407056 584.048077 128.890326 586.500000 126.546081 588.951923 124.068552 591.403846 121.238210 593.855769 118.745000 596.307692 116.730047 598.759615 114.824859 601.211538 113.178399 603.663462 111.696586 606.115385 110.504863 608.567308 109.242577 611.019231 108.191980 613.471154 107.407951 615.923077 106.929694 618.375000 106.263270 620.826923 105.761492 623.278846 105.189151 625.730769 104.624651 628.182692 103.864144 630.634615 102.923310 633.086538 101.700226 635.538462 100.390898 637.990385 98.666036 640.442308 96.886292 642.894231 95.412319 645.346154 93.961867 647.798077 92.142921 650.250000 90.402378 652.701923 88.920565 655.153846 87.587717 657.605769 86.450876 660.057692 85.431639 662.509615 83.934145 664.961538 75.490161 667.413462 70.934957 669.865385 67.932128 672.317308 65.689808 674.769231 64.341279 677.221154 62.953549 679.673077 61.777507 682.125000 60.593624 684.576923 59.182373 687.028846 57.904407 689.480769 56.312830 691.932692 54.493884 694.384615 52.831744 696.836538 51.232327 699.288462 49.303617 701.740385 47.523873 704.192308 45.775490 706.644231 43.917343 709.096154 42.357127 711.548077 40.710667 714.000000 39.048527 716.451923 37.496151 718.903846 36.147623 721.355769 35.002942 723.807692 34.007226 726.259615 32.972308 728.711538 32.149079 731.163462 31.514016 733.615385 30.973036 736.067308 30.400696 738.519231 29.914598 740.971154 29.334417 743.423077 28.738556 745.875000 28.087812 748.326923 27.413548 750.778846 26.511916 753.230769 25.461318 755.682692 24.473442 758.134615 23.516928 760.586538 22.474170 763.038462 21.454933 765.490385 20.561141 767.942308 19.565425 770.394231 18.569709 772.846154 17.652396 775.298077 16.852687 777.750000 15.841291 780.201923 14.900457 782.653846 14.061547 785.105769 13.355921 787.557692 12.634615 790.009615 12.634615 792.461538 12.634615 794.913462 12.634615 797.365385 12.634615 799.817308 12.634615 802.269231 12.634615 804.721154 12.634615 807.173077 12.634615 809.625000 12.634615 812.076923 12.634615 814.528846 12.634615 816.980769 12.634615 819.432692 12.634615 821.884615 12.634615 824.336538 12.634615 826.788462 12.634615 829.240385 12.634615 831.692308 12.634615 834.144231 12.634615 836.596154 12.634615 839.048077 12.634615 841.500000 12.634615 843.951923 12.634615 846.403846 12.634615 848.855769 12.634615 851.307692 12.634615 853.759615 12.634615 856.211538 12.634615 858.663462 12.634615 861.115385 12.634615 863.567308 12.634615 866.019231 12.634615 868.471154 12.634615 870.923077 12.634615 873.375000 12.634615 875.826923 12.634615 878.278846 12.634615 880.730769 12.634615 883.182692 12.634615 885.634615 12.634615 888.086538 12.634615 890.538462 12.634615 892.990385 12.634615 895.442308 12.634615 897.894231 12.634615 900.346154 12.634615" /></g></g><g class="titles"><text class="title plot_title" x="512.0" y="26">Election 10 Participation</text><text class="title" transform="rotate(-90 0.000000 374.500000)" x="0" y="400.5">Users</text></g><g class="plot overlay" transform="translate(86, 46)"><g class="series serie-0 color-0" /><g class="series serie-1 color-1" /></g><g class="plot text-overlay" transform="translate(86, 46)"><g class="series serie-0 color-0" /><g class="series serie-1 color-1" /></g><g class="plot tooltip-overlay" transform="translate(86, 46)"><g class="tooltip" style="opacity: 0" transform="translate(0 0)"><a><rect class="tooltip-box" height="0" rx="0" ry="0" width="0" /><text class="text"><tspan class="label" /><tspan class="value" /></text></a></g></g><g class="legends" transform="translate(96, 713)"><g class="legend reactive activate-serie" id="activate-serie-0"><rect class="color-0 reactive" height="12" width="12" x="0.0" y="1.0" /><text x="17.0" y="11.2">constituents</text></g><g class="legend reactive activate-serie" id="activate-serie-1"><rect class="color-1 reactive" height="12" width="12" x="459.0" y="1.0" /><text x="476.0" y="11.2">caucus</text></g></g></g></svg>