<?xml version='1.0' encoding='utf-8'?>
<svg xmlns:xlink="http://www.w3.org/1999/xlink" class="pygal-chart" id="chart-96abd6cc-a9ea-44bd-a7c2-9700d007d08e" viewBox="0 0 1024 768" xmlns="http://www.w3.org/2000/svg"><!--Generated with pygal 1.7.0 (etree) ©Kozea 2011-2014 on 2018-03-27--><!--http://pygal.org--><!--http://github.com/Kozea/pygal--><defs><style type="text/css">#chart-96abd6cc-a9ea-44bd-a7c2-9700d007d08e .title{font-family:"monospace";font-size:16px}#chart-96abd6cc-a9ea-44bd-a7c2-9700d007d08e .legends .legend text{font-family:"monospace";font-size:14px}#chart-96abd6cc-a9ea-44bd-a7c2-9700d007d08e .axis text{font-family:"monospace";font-size:10px}#chart-96abd6cc-a9ea-44bd-a7c2-9700d007d08e .axis text.major{font-family:"monospace";font-size:10px}#chart-96abd6cc-a9ea-44bd-a7c2-9700d007d08e .series text{font-family:"monospace";font-size:8px}#chart-96abd6cc-a9ea-44bd-a7c2-9700d007d08e .tooltip text{font-family:"monospace";font-size:16px}#chart-96abd6cc-a9ea-44bd-a7c2-9700d007d08e text.no_data{font-size:64px}
#chart-96abd6cc-a9ea-44bd-a7c2-9700d007d08e{background-color:black}#chart-96abd6cc-a9ea-44bd-a7c2-9700d007d08e path,#chart-96abd6cc-a9ea-44bd-a7c2-9700d007d08e line,#chart-96abd6cc-a9ea-44bd-a7c2-9700d007d08e rect,#chart-96abd6cc-a9ea-44bd-a7c2-9700d007d08e circle{-webkit-transition:250ms;-moz-transition:250ms;transition:250ms}#chart-96abd6cc-a9ea-44bd-a7c2-9700d007d08e .graph &gt; .background{fill:black}#chart-96abd6cc-a9ea-44bd-a7c2-9700d007d08e .plot &gt; .background{fill:#111}#chart-96abd6cc-a9ea-44bd-a7c2-9700d007d08e .graph{fill:#999}#chart-96abd6cc-a9ea-44bd-a7c2-9700d007d08e text.no_data{fill:#eee}#chart-96abd6cc-a9ea-44bd-a7c2-9700d007d08e .title{fill:#eee}#chart-96abd6cc-a9ea-44bd-a7c2-9700d007d08e .legends .legend text{fill:#999}#chart-96abd6cc-a9ea-44bd-a7c2-9700d007d08e .legends .legend:hover text{fill:#eee}#chart-96abd6cc-a9ea-44bd-a7c2-9700d007d08e .axis .line{stroke:#eee}#chart-96abd6cc-a9ea-44bd-a7c2-9700d007d08e .axis .guide.line{stroke:#555}#chart-96abd6cc-a9ea-44bd-a7c2-9700d007d08e .axis .major.line{stroke:#999}#chart-96abd6cc-a9ea-44bd-a7c2-9700d007d08e .axis text.major{stroke:#eee;fill:#eee}#chart-96abd6cc-a9ea-44bd-a7c2-9700d007d08e .axis.y .guides:hover .guide.line,#chart-96abd6cc-a9ea-44bd-a7c2-9700d007d08e .line-graph .axis.x .guides:hover .guide.line,#chart-96abd6cc-a9ea-44bd-a7c2-9700d007d08e .stackedline-graph .axis.x .guides:hover .guide.line,#chart-96abd6cc-a9ea-44bd-a7c2-9700d007d08e .xy-graph .axis.x .guides:hover .guide.line{stroke:#eee}#chart-96abd6cc-a9ea-44bd-a7c2-9700d007d08e .axis .guides:hover text{fill:#eee}#chart-96abd6cc-a9ea-44bd-a7c2-9700d007d08e .reactive{fill-opacity:.8}#chart-96abd6cc-a9ea-44bd-a7c2-9700d007d08e .reactive.active,#chart-96abd6cc-a9ea-44bd-a7c2-9700d007d08e .active .reactive{fill-opacity:.4}#chart-96abd6cc-a9ea-44bd-a7c2-9700d007d08e .series{stroke-width:1.0;stroke-linejoin:round;stroke-linecap:round;stroke-dasharray:0,0}#chart-96abd6cc-a9ea-44bd-a7c2-9700d007d08e .series text{fill:#eee}#chart-96abd6cc-a9ea-44bd-a7c2-9700d007d08e .tooltip rect{fill:#111;stroke:#eee}#chart-96abd6cc-a9ea-44bd-a7c2-9700d007d08e .tooltip text{fill:#eee}#chart-96abd6cc-a9ea-44bd-a7c2-9700d007d08e .map-element{fill:#999;stroke:#555 !important;opacity:.9;stroke-width:3;-webkit-transition:250ms;-moz-transition:250ms;-o-transition:250ms;transition:250ms}#chart-96abd6cc-a9ea-44bd-a7c2-9700d007d08e .map-element:hover{opacity:1;stroke-width:10}#chart-96abd6cc-a9ea-44bd-a7c2-9700d007d08e .color-0,#chart-96abd6cc-a9ea-44bd-a7c2-9700d007d08e .color-0 a:visited{stroke:#ff5995;fill:#ff5995}#chart-96abd6cc-a9ea-44bd-a7c2-9700d007d08e .color-1,#chart-96abd6cc-a9ea-44bd-a7c2-9700d007d08e .color-1 a:visited{stroke:#b6e354;fill:#b6e354}#chart-96abd6cc-a9ea-44bd-a7c2-9700d007d08e .color-2,#chart-96abd6cc-a9ea-44bd-a7c2-9700d007d08e .color-2 a:visited{stroke:#feed6c;fill:#feed6c}#chart-96abd6cc-a9ea-44bd-a7c2-9700d007d08e .color-3,#chart-96abd6cc-a9ea-44bd-a7c2-9700d007d08e .color-3 a:visited{stroke:#8cedff;fill:#8cedff}#chart-96abd6cc-a9ea-44bd-a7c2-9700d007d08e .color-4,#chart-96abd6cc-a9ea-44bd-a7c2-9700d007d08e .color-4 a:visited{stroke:#9e6ffe;fill:#9e6ffe}#chart-96abd6cc-a9ea-44bd-a7c2-9700d007d08e .color-5,#chart-96abd6cc-a9ea-44bd-a7c2-9700d007d08e .color-5 a:visited{stroke:#899ca1;fill:#899ca1}#chart-96abd6cc-a9ea-44bd-a7c2-9700d007d08e .color-6,#chart-96abd6cc-a9ea-44bd-a7c2-9700d007d08e .color-6 a:visited{stroke:#f8f8f2;fill:#f8f8f2}#chart-96abd6cc-a9ea-44bd-a7c2-9700d007d08e .color-7,#chart-96abd6cc-a9ea-44bd-a7c2-9700d007d08e .color-7 a:visited{stroke:#bf4646;fill:#bf4646}#chart-96abd6cc-a9ea-44bd-a7c2-9700d007d08e .color-8,#chart-96abd6cc-a9ea-44bd-a7c2-9700d007d08e .color-8 a:visited{stroke:#516083;fill:#516083}#chart-96abd6cc-a9ea-44bd-a7c2-9700d007d08e .color-9,#chart-96abd6cc-a9ea-44bd-a7c2-9700d007d08e .color-9 a:visited{stroke:#f92672;fill:#f92672}#chart-96abd6cc-a9ea-44bd-a7c2-9700d007d08e .color-10,#chart-96abd6cc-a9ea-44bd-a7c2-9700d007d08e .color-10 a:visited{stroke:#82b414;fill:#82b414}#chart-96abd6cc-a9ea-44bd-a7c2-9700d007d08e .color-11,#chart-96abd6cc-a9ea-44bd-a7c2-9700d007d08e .color-11 a:visited{stroke:#fd971f;fill:#fd971f}#chart-96abd6cc-a9ea-44bd-a7c2-9700d007d08e .color-12,#chart-96abd6cc-a9ea-44bd-a7c2-9700d007d08e .color-12 a:visited{stroke:#56c2d6;fill:#56c2d6}#chart-96abd6cc-a9ea-44bd-a7c2-9700d007d08e .color-13,#chart-96abd6cc-a9ea-44bd-a7c2-9700d007d08e .color-13 a:visited{stroke:#808384;fill:#808384}#chart-96abd6cc-a9ea-44bd-a7c2-9700d007d08e .color-14,#chart-96abd6cc-a9ea-44bd-a7c2-9700d007d08e .color-14 a:visited{stroke:#8c54fe;fill:#8c54fe}#chart-96abd6cc-a9ea-44bd-a7c2-9700d007d08e .color-15,#chart-96abd6cc-a9ea-44bd-a7c2-9700d007d08e .color-15 a:visited{stroke:#465457;fill:#465457}
#chart-96abd6cc-a9ea-44bd-a7c2-9700d007d08e text.no_data{text-anchor:middle}#chart-96abd6cc-a9ea-44bd-a7c2-9700d007d08e .guide.line{fill-opacity:0}#chart-96abd6cc-a9ea-44bd-a7c2-9700d007d08e .centered{text-anchor:middle}#chart-96abd6cc-a9ea-44bd-a7c2-9700d007d08e .title{text-anchor:middle}#chart-96abd6cc-a9ea-44bd-a7c2-9700d007d08e .legends .legend text{fill-opacity:1}#chart-96abd6cc-a9ea-44bd-a7c2-9700d007d08e .axis.x text{text-anchor:middle}#chart-96abd6cc-a9ea-44bd-a7c2-9700d007d08e .axis.x:not(.web) text[transform]{text-anchor:start}#chart-96abd6cc-a9ea-44bd-a7c2-9700d007d08e .axis.y text{text-anchor:end}#chart-96abd6cc-a9ea-44bd-a7c2-9700d007d08e .axis.y2 text{text-anchor:start}#chart-96abd6cc-a9ea-44bd-a7c2-9700d007d08e .axis.y .logarithmic text:not(.major),#chart-96abd6cc-a9ea-44bd-a7c2-9700d007d08e .axis.y2 .logarithmic text:not(.major){font-size:50%}#chart-96abd6cc-a9ea-44bd-a7c2-9700d007d08e .axis .guide.line{stroke-dasharray:4,4}#chart-96abd6cc-a9ea-44bd-a7c2-9700d007d08e .axis .major.guide.line{stroke-dasharray:6,6}#chart-96abd6cc-a9ea-44bd-a7c2-9700d007d08e .axis text.major{stroke-width:0.5px}#chart-96abd6cc-a9ea-44bd-a7c2-9700d007d08e .horizontal .axis.y .guide.line,#chart-96abd6cc-a9ea-44bd-a7c2-9700d007d08e .horizontal .axis.y2 .guide.line,#chart-96abd6cc-a9ea-44bd-a7c2-9700d007d08e .vertical .axis.x .guide.line{opacity:0}#chart-96abd6cc-a9ea-44bd-a7c2-9700d007d08e .horizontal .axis.always_show .guide.line,#chart-96abd6cc-a9ea-44bd-a7c2-9700d007d08e .vertical .axis.always_show .guide.line{opacity:1 !important}#chart-96abd6cc-a9ea-44bd-a7c2-9700d007d08e .axis.y .guides:hover .guide.line,#chart-96abd6cc-a9ea-44bd-a7c2-9700d007d08e .axis.y2 .guides:hover .guide.line,#chart-96abd6cc-a9ea-44bd-a7c2-9700d007d08e .axis.x .guides:hover .guide.line{opacity:1}#chart-96abd6cc-a9ea-44bd-a7c2-9700d007d08e .axis .guides:hover text{opacity:1}#chart-96abd6cc-a9ea-44bd-a7c2-9700d007d08e .nofill{fill:none}#chart-96abd6cc-a9ea-44bd-a7c2-9700d007d08e .subtle-fill{fill-opacity:.2}#chart-96abd6cc-a9ea-44bd-a7c2-9700d007d08e .dot{stroke-width:1px;fill-opacity:1}#chart-96abd6cc-a9ea-44bd-a7c2-9700d007d08e .dot.active{stroke-width:5px}#chart-96abd6cc-a9ea-44bd-a7c2-9700d007d08e .series text{stroke:none}#chart-96abd6cc-a9ea-44bd-a7c2-9700d007d08e .series text.active{opacity:1}#chart-96abd6cc-a9ea-44bd-a7c2-9700d007d08e .tooltip rect{fill-opacity:0.8}#chart-96abd6cc-a9ea-44bd-a7c2-9700d007d08e .tooltip text{fill-opacity:1}#chart-96abd6cc-a9ea-44bd-a7c2-9700d007d08e .tooltip text tspan.label{fill-opacity:.8}</style><script type="text/javascript">window.config = {"css": ["style.css", "graph.css"], "disable_xml_declaration": false, "dots_size": 2.5, "explicit_size": false, "fill": false, "half_pie": false, "height": 768, "human_readable": false, "include_x_axis": false, "inner_radius": 0, "interpolate": null, "interpolation_parameters": {}, "interpolation_precision": 250, "js": ["http://kozea.github.io/pygal.js/javascripts/svg.jquery.js", "http://kozea.github.io/pygal.js/javascripts/pygal-tooltips.js"], "label_font_size": 10, "legend_at_bottom": true, "legend_at_bottom_columns": null, "legend_box_size": 12, "legend_font_size": 14, "logarithmic": false, "major_label_font_size": 10, "margin": 20, "margin_bottom": null, "margin_left": null, "margin_right": null, "margin_top": null, "missing_value_fill_truncation": "x", "mode": null, "no_data_font_size": 64, "no_data_text": "No data", "no_prefix": false, "order_min": null, "pretty_print": false, "print_values": false, "print_zeroes": false, "range": null, "rounded_bars": null, "show_dots": false, "show_legend": true, "show_minor_x_labels": true, "show_minor_y_labels": true, "show_only_major_dots": false, "show_x_guides": false, "show_x_labels": true, "show_y_guides": true, "show_y_labels": true, "spacing": 10, "stack_from_top": false, "strict": false, "stroke": true, "style": {"background": "black", "colors": ["#ff5995", "#b6e354", "#feed6c", "#8cedff", "#9e6ffe", "#899ca1", "#f8f8f2", "#bf4646", "#516083", "#f92672", "#82b414", "#fd971f", "#56c2d6", "#808384", "#8c54fe", "#465457"], "font_family": "monospace", "foreground": "#999", "foreground_dark": "#555", "foreground_light": "#eee", "opacity": ".8", "opacity_hover": ".4", "plot_background": "#111", "stroke_dasharray": "0,0", "stroke_style": "round", "stroke_width": 1.0, "transition": "250ms"}, "title": "Election 10 Participation", "title_font_size": 16, "tooltip_border_radius": 0, "tooltip_font_size": 16, "truncate_label": null, "truncate_legend": null, "value_font_size": 8, "width": 1024, "x_label_format": "%Y-%m-%d %H:%M:%S.%f", "x_label_rotation": 0, "x_labels": null, "x_labels_major": null, "x_labels_major_count": null, "x_labels_major_every": null, "x_title": null, "x_value_formatter": null, "xrange": null, "y_label_rotation": 0, "y_labels": null, "y_labels_major": null, "y_labels_major_count": null, "y_labels_major_every": null, "y_title": "Users", "zero": 0}</script><script type="text/javascript" xlink:href="http://kozea.github.io/pygal.js/javascripts/svg.jquery.js" /><script type="text/javascript" xlink:href="http://kozea.github.io/pygal.js/javascripts/pygal-tooltips.js" /></defs><title>Election 10 Participation</title><g class="graph line-graph vertical"><rect class="background" height="768" width="1024" x="0" y="0" /><g class="plot" transform="translate(86, 46)"><rect class="background" height="657.0" width="918.0" x="0" y="0" /><g class="axis y"><g class="guides"><path class="axis major line" d="M0.000000 644.365385 h918.000000" /><text class="major" x="-5" y="647.8653846153846">0</text></g><g class="guides"><path class="guide line" d="M0.000000 573.780941 h918.000000" /><text class="" x="-5" y="577.2809411259132">10000</text></g><g class="guides"><path class="guide line" d="M0.000000 503.196498 h918.000000" /><text class="" x="-5" y="506.6964976364418">20000</text></g><g class="guides"><path class="guide line" d="M0.000000 432.612054 h918.000000" /><text class="" x="-5" y="436.1120541469703">30000</text></g><g class="guides"><path class="guide line" d="M0.000000 362.027611 h918.000000" /><text class="" x="-5" y="365.52761065749894">40000</text></g><g class="guides"><path class="major guide line" d="M0.000000 291.443167 h918.000000" /><text class="major" x="-5" y="294.9431671680275">50000</text></g><g class="guides"><path class="guide line" d="M0.000000 220.858724 h918.000000" /><text class="" x="-5" y="224.3587236785561">60000</text></g><g class="guides"><path class="guide line" d="M0.000000 150.274280 h918.000000" /><text class="" x="-5" y="153.77428018908466">70000</text></g><g class="guides"><path class="guide line" d="M0.000000 79.689837 h918.000000" /><text class="" x="-5" y="83.18983669961324">80000</text></g></g><g class="series serie-0 color-0"><path class="line reactive nofill" d="M17.653846 644.365385 L20.105769 644.365385 22.557692 644.365385 25.009615 644.365385 27.461538 644.365385 29.913462 644.365385 32.365385 644.365385 34.817308 644.365385 37.269231 644.365385 39.721154 644.365385 42.173077 644.365385 44.625000 644.365385 47.076923 644.365385 49.528846 644.365385 51.980769 644.365385 54.432692 644.365385 56.884615 644.365385 59.336538 644.365385 61.788462 644.365385 64.240385 644.365385 66.692308 644.365385 69.144231 644.365385 71.596154 644.365385 74.048077 644.365385 76.500000 644.365385 78.951923 644.365385 81.403846 644.365385 83.855769 644.365385 86.307692 644.365385 88.759615 644.365385 91.211538 644.365385 93.663462 644.365385 96.115385 644.365385 98.567308 644.365385 101.019231 644.365385 103.471154 644.365385 105.923077 644.365385 108.375000 644.365385 110.826923 644.365385 113.278846 644.365385 115.730769 644.365385 118.182692 644.365385 120.634615 644.365385 123.086538 644.365385 125.538462 644.365385 127.990385 644.365385 130.442308 644.365385 132.894231 644.365385 135.346154 644.365385 137.798077 644.365385 140.250000 644.365385 142.701923 644.365385 145.153846 644.365385 147.605769 644.365385 150.057692 644.365385 152.509615 644.365385 154.961538 644.365385 157.413462 644.365385 159.865385 644.365385 162.317308 644.365385 164.769231 644.365385 167.221154 644.365385 169.673077 644.365385 172.125000 644.365385 174.576923 644.365385 177.028846 644.365385 179.480769 644.365385 181.932692 644.365385 184.384615 644.365385 186.836538 644.365385 189.288462 644.365385 191.740385 644.365385 194.192308 644.365385 196.644231 644.365385 199.096154 644.365385 201.548077 644.365385 204.000000 644.365385 206.451923 644.365385 208.903846 644.365385 211.355769 644.365385 213.807692 644.365385 216.259615 644.365385 218.711538 644.365385 221.163462 644.365385 223.615385 644.365385 226.067308 644.365385 228.519231 644.365385 230.971154 644.365385 233.423077 644.365385 235.875000 644.365385 238.326923 644.365385 240.778846 644.365385 243.230769 644.365385 245.682692 644.365385 248.134615 644.365385 250.586538 644.365385 253.038462 644.365385 255.490385 644.365385 257.942308 644.365385 260.394231 644.365385 262.846154 644.365385 265.298077 644.365385 267.750000 644.365385 270.201923 644.365385 272.653846 644.365385 275.105769 644.365385 277.557692 644.365385 280.009615 644.365385 282.461538 644.365385 284.913462 644.365385 287.365385 644.365385 289.817308 644.365385 292.269231 644.365385 294.721154 644.365385 297.173077 644.365385 299.625000 644.365385 302.076923 644.365385 304.528846 644.365385 306.980769 644.365385 309.432692 644.365385 311.884615 644.365385 314.336538 644.365385 316.788462 644.365385 319.240385 644.365385 321.692308 644.365385 324.144231 644.365385 326.596154 644.365385 329.048077 644.365385 331.500000 644.365385 333.951923 644.365385 336.403846 644.365385 338.855769 644.365385 341.307692 644.365385 343.759615 644.365385 346.211538 644.365385 348.663462 644.365385 351.115385 644.365385 353.567308 644.365385 356.019231 644.365385 358.471154 644.365385 360.923077 644.365385 363.375000 644.365385 365.826923 644.365385 368.278846 644.365385 370.730769 644.365385 373.182692 644.365385 375.634615 644.365385 378.086538 644.365385 380.538462 644.365385 382.990385 644.365385 385.442308 644.365385 387.894231 644.365385 390.346154 644.365385 392.798077 644.365385 395.250000 644.365385 397.701923 644.365385 400.153846 644.365385 402.605769 644.365385 405.057692 644.365385 407.509615 644.365385 409.961538 644.365385 412.413462 644.365385 414.865385 644.365385 417.317308 644.365385 419.769231 644.365385 422.221154 644.365385 424.673077 644.365385 427.125000 644.365385 429.576923 644.365385 432.028846 644.365385 434.480769 644.365385 436.932692 644.365385 439.384615 644.365385 441.836538 644.365385 444.288462 644.365385 446.740385 644.365385 449.192308 644.365385 451.644231 644.365385 454.096154 644.365385 456.548077 644.365385 459.000000 644.365385 461.451923 644.365385 463.903846 644.365385 466.355769 644.365385 468.807692 644.365385 471.259615 644.365385 473.711538 644.365385 476.163462 644.365385 478.615385 644.365385 481.067308 644.365385 483.519231 644.365385 485.971154 644.365385 488.423077 644.365385 490.875000 644.365385 493.326923 644.365385 495.778846 644.365385 498.230769 644.365385 500.682692 644.365385 503.134615 644.365385 505.586538 644.365385 508.038462 644.365385 510.490385 644.365385 512.942308 644.365385 515.394231 644.365385 517.846154 644.365385 520.298077 644.365385 522.750000 644.365385 525.201923 644.365385 527.653846 644.365385 530.105769 644.365385 532.557692 644.365385 535.009615 644.365385 537.461538 644.365385 539.913462 644.365385 542.365385 644.365385 544.817308 644.365385 547.269231 644.365385 549.721154 644.365385 552.173077 644.365385 554.625000 644.365385 557.076923 644.365385 559.528846 644.365385 561.980769 644.365385 564.432692 644.365385 566.884615 644.365385 569.336538 644.365385 571.788462 644.365385 574.240385 644.365385 576.692308 644.365385 579.144231 644.365385 581.596154 644.365385 584.048077 644.365385 586.500000 644.365385 588.951923 644.365385 591.403846 644.365385 593.855769 644.365385 596.307692 644.365385 598.759615 644.365385 601.211538 644.365385 603.663462 644.365385 606.115385 644.365385 608.567308 644.365385 611.019231 644.365385 613.471154 644.365385 615.923077 644.365385 618.375000 644.365385 620.826923 644.365385 623.278846 644.365385 625.730769 644.365385 628.182692 644.365385 630.634615 644.365385 633.086538 644.365385 635.538462 644.365385 637.990385 644.365385 640.442308 644.365385 642.894231 644.365385 645.346154 644.365385 647.798077 644.365385 650.250000 644.365385 652.701923 644.365385 655.153846 644.365385 657.605769 644.365385 660.057692 644.365385 662.509615 643.631306 664.961538 624.397046 667.413462 615.249302 669.865385 609.136689 672.317308 605.318070 674.769231 602.671154 677.221154 600.327750 679.673077 598.189042 682.125000 595.732703 684.576923 592.789332 687.028846 589.810668 689.480769 586.754362 691.932692 583.182789 694.384615 579.794736 696.836538 576.533734 699.288462 572.877460 701.740385 569.764686 704.192308 566.807198 706.644231 564.033229 709.096154 561.358079 711.548077 558.753513 714.000000 556.297174 716.451923 554.151407 718.903846 552.146809 721.355769 550.276321 723.807692 548.758756 726.259615 547.389418 728.711538 546.330651 731.163462 545.490696 733.615385 544.749560 736.067308 544.149592 738.519231 543.542566 740.971154 542.857896 743.423077 542.123818 745.875000 541.290922 748.326923 540.239214 750.778846 539.131038 753.230769 537.881693 755.682692 536.568823 758.134615 535.263010 760.586538 533.844263 763.038462 532.573743 765.490385 531.536152 767.942308 530.152697 770.394231 528.931586 772.846154 527.618715 775.298077 526.517598 777.750000 525.169435 780.201923 523.927149 782.653846 522.861324 785.105769 521.936667 787.557692 521.004953 790.009615 520.292050 792.461538 519.480329 794.913462 518.478030 797.365385 517.391029 799.817308 516.092275 802.269231 513.530060 804.721154 510.092598 807.173077 504.834057 809.625000 498.735561 812.076923 492.898227 814.528846 487.900849 816.980769 483.990471 819.432692 480.496541 821.884615 476.515578 824.336538 472.767544 826.788462 469.372432 829.240385 466.633756 831.692308 464.784443 834.144231 463.210410 836.596154 461.770488 839.048077 460.408208 841.500000 458.862409 843.951923 457.951869 846.403846 457.246025 848.855769 456.751934 851.307692 456.349602 853.759615 456.003739 856.211538 455.530823 858.663462 455.036732 861.115385 454.295595 863.567308 453.349764 866.019231 451.895724 868.471154 450.173464 870.923077 448.161807 873.375000 446.171326 875.826923 444.442007 878.278846 442.790331 880.730769 440.821025 883.182692 439.035239 885.634615 437.552965 888.086538 436.077750 890.538462 435.181328 892.990385 434.242555 895.442308 433.282606 897.894231 432.463827 900.346154 432.463827" /></g><g class="series serie-1 color-1"><path class="line reactive nofill" d="M17.653846 630.615535 L20.105769 625.582864 22.557692 621.926590 25.009615 620.006693 27.461538 618.587946 29.913462 617.112731 32.365385 615.884562 34.817308 614.677568 37.269231 612.602385 39.721154 609.899001 42.173077 606.927396 44.625000 603.179362 47.076923 599.974828 49.528846 597.200859 51.980769 594.786872 54.432692 593.043436 56.884615 591.243532 59.336538 589.281285 61.788462 587.643726 64.240385 586.119102 66.692308 584.926225 69.144231 584.093328 71.596154 583.196906 74.048077 582.476945 76.500000 581.834626 78.951923 581.340535 81.403846 580.938204 83.855769 580.578223 86.307692 580.338236 88.759615 580.084132 91.211538 579.822969 93.663462 579.590041 96.115385 579.194768 98.567308 578.813612 101.019231 578.368930 103.471154 577.818371 105.923077 577.063118 108.375000 576.251397 110.826923 575.482026 113.278846 574.839708 115.730769 574.119746 118.182692 573.378610 120.634615 572.686882 123.086538 572.072798 125.538462 571.557531 127.990385 571.098732 130.442308 570.576407 132.894231 570.244661 135.346154 569.941147 137.798077 569.588225 140.250000 569.397647 142.701923 569.122368 145.153846 569.009433 147.605769 568.882381 150.057692 568.783563 152.509615 568.621218 154.961538 568.423582 157.413462 568.113010 159.865385 567.816556 162.317308 567.449517 164.769231 566.941309 167.221154 566.538977 169.673077 566.073120 172.125000 565.543737 174.576923 565.049645 177.028846 564.597905 179.480769 564.202632 181.932692 563.765009 184.384615 563.447379 186.836538 563.136807 189.288462 562.875645 191.740385 562.600365 194.192308 562.353320 196.644231 562.063924 199.096154 561.972164 201.548077 561.866287 204.000000 561.760410 206.451923 561.661592 208.903846 561.591008 211.355769 561.492190 213.807692 561.365138 216.259615 561.188676 218.711538 560.983982 221.163462 560.786345 223.615385 560.581650 226.067308 560.228728 228.519231 559.932273 230.971154 559.635819 233.423077 559.311130 235.875000 558.958208 238.326923 558.668812 240.778846 558.393532 243.230769 558.217071 245.682692 557.998260 248.134615 557.793565 250.586538 557.645337 253.038462 557.433584 255.490385 557.250064 257.942308 557.115954 260.394231 556.932434 262.846154 556.883025 265.298077 556.791266 267.750000 556.699506 270.201923 556.643038 272.653846 556.593629 275.105769 556.551278 277.557692 556.466577 280.009615 556.374817 282.461538 556.254824 284.913462 556.156006 287.365385 556.050129 289.817308 555.958369 292.269231 555.852492 294.721154 555.760733 297.173077 555.612505 299.625000 555.450161 302.076923 555.337226 304.528846 555.238408 306.980769 555.125473 309.432692 555.033713 311.884615 554.934895 314.336538 554.836076 316.788462 554.786667 319.240385 554.680791 321.692308 554.624323 324.144231 554.574914 326.596154 554.511388 329.048077 554.426687 331.500000 554.391394 333.951923 554.327869 336.403846 554.236109 338.855769 554.144349 341.307692 554.003180 343.759615 553.840836 346.211538 553.643199 348.663462 553.431446 351.115385 553.262043 353.567308 553.050290 356.019231 552.887946 358.471154 552.718543 360.923077 552.506790 363.375000 552.358563 365.826923 552.160926 368.278846 552.076225 370.730769 551.927997 373.182692 551.808004 375.634615 551.680952 378.086538 551.553900 380.538462 551.440965 382.990385 551.335088 385.442308 551.222153 387.894231 551.095101 390.346154 550.946874 392.798077 550.692770 395.250000 550.375140 397.701923 550.029276 400.153846 549.584594 402.605769 549.083444 405.057692 548.547003 407.509615 548.074087 409.961538 547.650580 412.413462 547.205898 414.865385 546.556521 417.317308 546.118898 419.769231 545.758917 422.221154 545.504813 424.673077 545.243651 427.125000 542.752020 429.576923 511.588988 432.028846 495.594553 434.480769 485.352750 436.932692 478.470767 439.384615 473.191051 441.836538 467.600763 444.288462 462.137527 446.740385 455.354362 449.192308 446.086624 451.644231 434.602535 454.096154 421.290309 456.548077 404.893543 459.000000 386.534529 461.451923 367.879061 463.903846 354.249205 466.355769 341.995746 468.807692 329.678760 471.259615 318.067619 473.711538 307.289375 476.163462 299.235690 478.615385 291.344349 481.067308 285.351730 483.519231 280.029663 485.971154 276.119284 488.423077 272.138322 490.875000 269.237301 493.326923 266.992716 495.778846 265.369274 498.230769 264.098754 500.682692 262.687065 503.134615 261.183616 505.586538 259.489590 508.038462 257.541459 510.490385 255.409809 512.942308 252.297035 515.394231 248.739579 517.846154 244.772733 520.298077 240.170627 522.750000 235.716749 525.201923 231.241695 527.653846 227.161914 530.105769 222.842147 532.557692 218.825892 535.009615 214.986098 537.461538 211.972142 539.913462 209.494628 542.365385 207.066523 544.817308 204.850172 547.269231 202.810281 549.721154 201.271541 552.173077 199.958670 554.625000 199.083423 557.076923 198.229351 559.528846 197.445864 561.980769 196.796487 564.432692 195.893006 566.884615 194.876590 569.336538 193.690771 571.788462 192.116738 574.240385 190.112140 576.692308 187.726386 579.144231 185.178287 581.596154 182.559605 584.048077 180.293844 586.500000 178.183369 588.951923 175.952901 591.403846 173.404802 593.855769 171.160217 596.307692 169.346197 598.759615 167.630995 601.211538 166.148722 603.663462 164.814676 606.115385 163.741792 608.567308 162.605382 611.019231 161.659551 613.471154 160.953706 615.923077 160.523141 618.375000 159.923174 620.826923 159.471433 623.278846 158.956167 625.730769 158.447959 628.182692 157.763290 630.634615 156.916276 633.086538 155.815159 635.538462 154.636399 637.990385 153.083541 640.442308 151.481274 642.894231 150.154287 645.346154 148.848474 647.798077 147.210915 650.250000 145.643941 652.701923 144.309895 655.153846 143.109959 657.605769 142.086485 660.057692 141.168887 662.509615 139.820724 664.961538 132.218780 667.413462 128.117823 669.865385 125.414439 672.317308 123.395724 674.769231 122.181672 677.221154 120.932327 679.673077 119.873560 682.125000 118.807735 684.576923 117.537215 687.028846 116.386689 689.480769 114.953825 691.932692 113.316266 694.384615 111.819875 696.836538 110.379953 699.288462 108.643575 701.740385 107.041309 704.192308 105.467275 706.644231 103.794424 709.096154 102.389794 711.548077 100.907520 714.000000 99.411130 716.451923 98.013558 718.903846 96.799506 721.355769 95.768973 723.807692 94.872550 726.259615 93.940836 728.711538 93.199699 731.163462 92.627965 733.615385 92.140933 736.067308 91.625666 738.519231 91.188043 740.971154 90.665718 743.423077 90.129276 745.875000 89.543425 748.326923 88.936399 750.778846 88.124678 753.230769 87.178846 755.682692 86.289482 758.134615 85.428352 760.586538 84.489579 763.038462 83.571981 765.490385 82.767318 767.942308 81.870896 770.394231 80.974474 772.846154 80.148636 775.298077 79.428674 777.750000 78.518135 780.201923 77.671122 782.653846 76.915868 785.105769 76.280608 787.557692 75.631231 790.009615 75.031263 792.461538 74.558348 794.913462 73.986614 797.365385 73.224302 799.817308 72.469048 802.269231 71.339697 804.721154 69.765664 807.173077 67.196390 809.625000 63.949506 812.076923 60.399108 814.528846 57.060464 816.980769 54.321788 819.432692 51.914858 821.884615 49.084422 824.336538 46.515148 826.788462 43.903524 829.240385 41.877750 831.692308 40.381360 834.144231 39.153191 836.596154 38.087366 839.048077 36.718028 841.500000 35.454566 843.951923 34.699312 846.403846 34.092286 848.855769 33.654663 851.307692 33.188805 853.759615 32.842942 856.211538 32.348850 858.663462 31.932402 861.115385 31.381844 863.567308 30.612473 866.019231 29.440771 868.471154 28.233777 870.923077 26.659744 873.375000 25.170413 875.826923 23.716373 878.278846 22.184691 880.730769 20.533015 883.182692 18.881339 885.634615 17.490825 888.086538 16.213247 890.538462 15.232123 892.990385 14.483928 895.442308 13.580447 897.894231 12.634615 900.346154 12.634615" /></g></g><g class="titles"><text class="title plot_title" x="512.0" y="26">Election 10 Participation</text><text class="title" transform="rotate(-90 0.000000 374.500000)" x="0" y="400.5">Users</text></g><g class="plot overlay" transform="translate(86, 46)"><g class="series serie-0 color-0" /><g class="series serie-1 color-1" /></g><g class="plot text-overlay" transform="translate(86, 46)"><g class="series serie-0 color-0" /><g class="series serie-1 color-1" /></g><g class="plot tooltip-overlay" transform="translate(86, 46)"><g class="tooltip" style="opacity: 0" transform="translate(0 0)"><a><rect class="tooltip-box" height="0" rx="0" ry="0" width="0" /><text class="text"><tspan class="label" /><tspan class="value" /></text></a></g></g><g class="legends" transform="translate(96, 713)"><g class="legend reactive activate-serie" id="activate-serie-0"><rect class="color-0 reactive" height="12" width="12" x="0.0" y="1.0" /><text x="17.0" y="11.2">constituents</text></g><g class="legend reactive activate-serie" id="activate-serie-1"><rect class="color-1 reactive" height="12" width="12" x="459.0" y="1.0" /><text x="476.0" y="11.2">caucus</text></g></g></g></svg>