<?xml version='1.0' encoding='utf-8'?>
<svg xmlns:xlink="http://www.w3.org/1999/xlink" class="pygal-chart" id="chart-d21ca987-27af-4fbb-8906-21182c814ea1" viewBox="0 0 1024 768" xmlns="http://www.w3.org/2000/svg"><!--Generated with pygal 1.7.0 (etree) ©Kozea 2011-2014 on 2015-11-20--><!--http://pygal.org--><!--http://github.com/Kozea/pygal--><defs><style type="text/css">#chart-d21ca987-27af-4fbb-8906-21182c814ea1 .title{font-family:"monospace";font-size:16px}#chart-d21ca987-27af-4fbb-8906-21182c814ea1 .legends .legend text{font-family:"monospace";font-size:14px}#chart-d21ca987-27af-4fbb-8906-21182c814ea1 .axis text{font-family:"monospace";font-size:10px}#chart-d21ca987-27af-4fbb-8906-21182c814ea1 .axis text.major{font-family:"monospace";font-size:10px}#chart-d21ca987-27af-4fbb-8906-21182c814ea1 .series text{font-family:"monospace";font-size:8px}#chart-d21ca987-27af-4fbb-8906-21182c814ea1 .tooltip text{font-family:"monospace";font-size:16px}#chart-d21ca987-27af-4fbb-8906-21182c814ea1 text.no_data{font-size:64px}
#chart-d21ca987-27af-4fbb-8906-21182c814ea1{background-color:black}#chart-d21ca987-27af-4fbb-8906-21182c814ea1 path,#chart-d21ca987-27af-4fbb-8906-21182c814ea1 line,#chart-d21ca987-27af-4fbb-8906-21182c814ea1 rect,#chart-d21ca987-27af-4fbb-8906-21182c814ea1 circle{-webkit-transition:250ms;-moz-transition:250ms;transition:250ms}#chart-d21ca987-27af-4fbb-8906-21182c814ea1 .graph &gt; .background{fill:black}#chart-d21ca987-27af-4fbb-8906-21182c814ea1 .plot &gt; .background{fill:#111}#chart-d21ca987-27af-4fbb-8906-21182c814ea1 .graph{fill:#999}#chart-d21ca987-27af-4fbb-8906-21182c814ea1 text.no_data{fill:#eee}#chart-d21ca987-27af-4fbb-8906-21182c814ea1 .title{fill:#eee}#chart-d21ca987-27af-4fbb-8906-21182c814ea1 .legends .legend text{fill:#999}#chart-d21ca987-27af-4fbb-8906-21182c814ea1 .legends .legend:hover text{fill:#eee}#chart-d21ca987-27af-4fbb-8906-21182c814ea1 .axis .line{stroke:#eee}#chart-d21ca987-27af-4fbb-8906-21182c814ea1 .axis .guide.line{stroke:#555}#chart-d21ca987-27af-4fbb-8906-21182c814ea1 .axis .major.line{stroke:#999}#chart-d21ca987-27af-4fbb-8906-21182c814ea1 .axis text.major{stroke:#eee;fill:#eee}#chart-d21ca987-27af-4fbb-8906-21182c814ea1 .axis.y .guides:hover .guide.line,#chart-d21ca987-27af-4fbb-8906-21182c814ea1 .line-graph .axis.x .guides:hover .guide.line,#chart-d21ca987-27af-4fbb-8906-21182c814ea1 .stackedline-graph .axis.x .guides:hover .guide.line,#chart-d21ca987-27af-4fbb-8906-21182c814ea1 .xy-graph .axis.x .guides:hover .guide.line{stroke:#eee}#chart-d21ca987-27af-4fbb-8906-21182c814ea1 .axis .guides:hover text{fill:#eee}#chart-d21ca987-27af-4fbb-8906-21182c814ea1 .reactive{fill-opacity:.8}#chart-d21ca987-27af-4fbb-8906-21182c814ea1 .reactive.active,#chart-d21ca987-27af-4fbb-8906-21182c814ea1 .active .reactive{fill-opacity:.4}#chart-d21ca987-27af-4fbb-8906-21182c814ea1 .series{stroke-width:1.0;stroke-linejoin:round;stroke-linecap:round;stroke-dasharray:0,0}#chart-d21ca987-27af-4fbb-8906-21182c814ea1 .series text{fill:#eee}#chart-d21ca987-27af-4fbb-8906-21182c814ea1 .tooltip rect{fill:#111;stroke:#eee}#chart-d21ca987-27af-4fbb-8906-21182c814ea1 .tooltip text{fill:#eee}#chart-d21ca987-27af-4fbb-8906-21182c814ea1 .map-element{fill:#999;stroke:#555 !important;opacity:.9;stroke-width:3;-webkit-transition:250ms;-moz-transition:250ms;-o-transition:250ms;transition:250ms}#chart-d21ca987-27af-4fbb-8906-21182c814ea1 .map-element:hover{opacity:1;stroke-width:10}#chart-d21ca987-27af-4fbb-8906-21182c814ea1 .color-0,#chart-d21ca987-27af-4fbb-8906-21182c814ea1 .color-0 a:visited{stroke:#ff5995;fill:#ff5995}#chart-d21ca987-27af-4fbb-8906-21182c814ea1 .color-1,#chart-d21ca987-27af-4fbb-8906-21182c814ea1 .color-1 a:visited{stroke:#b6e354;fill:#b6e354}#chart-d21ca987-27af-4fbb-8906-21182c814ea1 .color-2,#chart-d21ca987-27af-4fbb-8906-21182c814ea1 .color-2 a:visited{stroke:#feed6c;fill:#feed6c}#chart-d21ca987-27af-4fbb-8906-21182c814ea1 .color-3,#chart-d21ca987-27af-4fbb-8906-21182c814ea1 .color-3 a:visited{stroke:#8cedff;fill:#8cedff}#chart-d21ca987-27af-4fbb-8906-21182c814ea1 .color-4,#chart-d21ca987-27af-4fbb-8906-21182c814ea1 .color-4 a:visited{stroke:#9e6ffe;fill:#9e6ffe}#chart-d21ca987-27af-4fbb-8906-21182c814ea1 .color-5,#chart-d21ca987-27af-4fbb-8906-21182c814ea1 .color-5 a:visited{stroke:#899ca1;fill:#899ca1}#chart-d21ca987-27af-4fbb-8906-21182c814ea1 .color-6,#chart-d21ca987-27af-4fbb-8906-21182c814ea1 .color-6 a:visited{stroke:#f8f8f2;fill:#f8f8f2}#chart-d21ca987-27af-4fbb-8906-21182c814ea1 .color-7,#chart-d21ca987-27af-4fbb-8906-21182c814ea1 .color-7 a:visited{stroke:#bf4646;fill:#bf4646}#chart-d21ca987-27af-4fbb-8906-21182c814ea1 .color-8,#chart-d21ca987-27af-4fbb-8906-21182c814ea1 .color-8 a:visited{stroke:#516083;fill:#516083}#chart-d21ca987-27af-4fbb-8906-21182c814ea1 .color-9,#chart-d21ca987-27af-4fbb-8906-21182c814ea1 .color-9 a:visited{stroke:#f92672;fill:#f92672}#chart-d21ca987-27af-4fbb-8906-21182c814ea1 .color-10,#chart-d21ca987-27af-4fbb-8906-21182c814ea1 .color-10 a:visited{stroke:#82b414;fill:#82b414}#chart-d21ca987-27af-4fbb-8906-21182c814ea1 .color-11,#chart-d21ca987-27af-4fbb-8906-21182c814ea1 .color-11 a:visited{stroke:#fd971f;fill:#fd971f}#chart-d21ca987-27af-4fbb-8906-21182c814ea1 .color-12,#chart-d21ca987-27af-4fbb-8906-21182c814ea1 .color-12 a:visited{stroke:#56c2d6;fill:#56c2d6}#chart-d21ca987-27af-4fbb-8906-21182c814ea1 .color-13,#chart-d21ca987-27af-4fbb-8906-21182c814ea1 .color-13 a:visited{stroke:#808384;fill:#808384}#chart-d21ca987-27af-4fbb-8906-21182c814ea1 .color-14,#chart-d21ca987-27af-4fbb-8906-21182c814ea1 .color-14 a:visited{stroke:#8c54fe;fill:#8c54fe}#chart-d21ca987-27af-4fbb-8906-21182c814ea1 .color-15,#chart-d21ca987-27af-4fbb-8906-21182c814ea1 .color-15 a:visited{stroke:#465457;fill:#465457}
#chart-d21ca987-27af-4fbb-8906-21182c814ea1 text.no_data{text-anchor:middle}#chart-d21ca987-27af-4fbb-8906-21182c814ea1 .guide.line{fill-opacity:0}#chart-d21ca987-27af-4fbb-8906-21182c814ea1 .centered{text-anchor:middle}#chart-d21ca987-27af-4fbb-8906-21182c814ea1 .title{text-anchor:middle}#chart-d21ca987-27af-4fbb-8906-21182c814ea1 .legends .legend text{fill-opacity:1}#chart-d21ca987-27af-4fbb-8906-21182c814ea1 .axis.x text{text-anchor:middle}#chart-d21ca987-27af-4fbb-8906-21182c814ea1 .axis.x:not(.web) text[transform]{text-anchor:start}#chart-d21ca987-27af-4fbb-8906-21182c814ea1 .axis.y text{text-anchor:end}#chart-d21ca987-27af-4fbb-8906-21182c814ea1 .axis.y2 text{text-anchor:start}#chart-d21ca987-27af-4fbb-8906-21182c814ea1 .axis.y .logarithmic text:not(.major),#chart-d21ca987-27af-4fbb-8906-21182c814ea1 .axis.y2 .logarithmic text:not(.major){font-size:50%}#chart-d21ca987-27af-4fbb-8906-21182c814ea1 .axis .guide.line{stroke-dasharray:4,4}#chart-d21ca987-27af-4fbb-8906-21182c814ea1 .axis .major.guide.line{stroke-dasharray:6,6}#chart-d21ca987-27af-4fbb-8906-21182c814ea1 .axis text.major{stroke-width:0.5px}#chart-d21ca987-27af-4fbb-8906-21182c814ea1 .horizontal .axis.y .guide.line,#chart-d21ca987-27af-4fbb-8906-21182c814ea1 .horizontal .axis.y2 .guide.line,#chart-d21ca987-27af-4fbb-8906-21182c814ea1 .vertical .axis.x .guide.line{opacity:0}#chart-d21ca987-27af-4fbb-8906-21182c814ea1 .horizontal .axis.always_show .guide.line,#chart-d21ca987-27af-4fbb-8906-21182c814ea1 .vertical .axis.always_show .guide.line{opacity:1 !important}#chart-d21ca987-27af-4fbb-8906-21182c814ea1 .axis.y .guides:hover .guide.line,#chart-d21ca987-27af-4fbb-8906-21182c814ea1 .axis.y2 .guides:hover .guide.line,#chart-d21ca987-27af-4fbb-8906-21182c814ea1 .axis.x .guides:hover .guide.line{opacity:1}#chart-d21ca987-27af-4fbb-8906-21182c814ea1 .axis .guides:hover text{opacity:1}#chart-d21ca987-27af-4fbb-8906-21182c814ea1 .nofill{fill:none}#chart-d21ca987-27af-4fbb-8906-21182c814ea1 .subtle-fill{fill-opacity:.2}#chart-d21ca987-27af-4fbb-8906-21182c814ea1 .dot{stroke-width:1px;fill-opacity:1}#chart-d21ca987-27af-4fbb-8906-21182c814ea1 .dot.active{stroke-width:5px}#chart-d21ca987-27af-4fbb-8906-21182c814ea1 .series text{stroke:none}#chart-d21ca987-27af-4fbb-8906-21182c814ea1 .series text.active{opacity:1}#chart-d21ca987-27af-4fbb-8906-21182c814ea1 .tooltip rect{fill-opacity:0.8}#chart-d21ca987-27af-4fbb-8906-21182c814ea1 .tooltip text{fill-opacity:1}#chart-d21ca987-27af-4fbb-8906-21182c814ea1 .tooltip text tspan.label{fill-opacity:.8}</style><script type="text/javascript">window.config = {"major_label_font_size": 10, "x_title": null, "x_labels": null, "margin_left": null, "show_minor_y_labels": true, "x_label_format": "%Y-%m-%d %H:%M:%S.%f", "fill": false, "x_value_formatter": null, "disable_xml_declaration": false, "spacing": 10, "css": ["style.css", "graph.css"], "rounded_bars": null, "legend_at_bottom_columns": null, "mode": null, "missing_value_fill_truncation": "x", "strict": false, "x_labels_major_count": null, "range": [0, 1000], "zero": 0, "x_label_rotation": 0, "include_x_axis": false, "tooltip_border_radius": 0, "y_labels": null, "show_y_guides": true, "print_values": false, "js": ["http://kozea.github.io/pygal.js/javascripts/svg.jquery.js", "http://kozea.github.io/pygal.js/javascripts/pygal-tooltips.js"], "inner_radius": 0, "no_data_font_size": 64, "value_font_size": 8, "tooltip_font_size": 16, "label_font_size": 10, "human_readable": false, "logarithmic": false, "dots_size": 2.5, "y_labels_major_count": null, "print_zeroes": false, "legend_at_bottom": true, "no_data_text": "No data", "margin_right": null, "no_prefix": false, "xrange": null, "truncate_legend": null, "y_title": "Users", "stack_from_top": false, "order_min": null, "show_y_labels": true, "height": 768, "x_labels_major_every": null, "interpolation_parameters": {}, "y_labels_major_every": null, "show_x_labels": true, "title": "Election math.stackexchange.com-3 Constituents Per Hour", "show_dots": false, "show_minor_x_labels": true, "legend_font_size": 14, "show_only_major_dots": false, "half_pie": false, "show_legend": true, "x_labels_major": null, "show_x_guides": false, "y_label_rotation": 0, "width": 1024, "pretty_print": false, "margin_bottom": null, "y_labels_major": null, "legend_box_size": 12, "margin_top": null, "interpolate": null, "interpolation_precision": 250, "explicit_size": false, "truncate_label": null, "title_font_size": 16, "style": {"foreground_dark": "#555", "font_family": "monospace", "opacity_hover": ".4", "stroke_width": 1.0, "stroke_dasharray": "0,0", "opacity": ".8", "foreground": "#999", "colors": ["#ff5995", "#b6e354", "#feed6c", "#8cedff", "#9e6ffe", "#899ca1", "#f8f8f2", "#bf4646", "#516083", "#f92672", "#82b414", "#fd971f", "#56c2d6", "#808384", "#8c54fe", "#465457"], "background": "black", "stroke_style": "round", "foreground_light": "#eee", "transition": "250ms", "plot_background": "#111"}, "margin": 20, "stroke": true}</script><script type="text/javascript" xlink:href="http://kozea.github.io/pygal.js/javascripts/svg.jquery.js" /><script type="text/javascript" xlink:href="http://kozea.github.io/pygal.js/javascripts/pygal-tooltips.js" /></defs><title>Election math.stackexchange.com-3 Constituents Per Hour</title><g class="graph line-graph vertical"><rect class="background" height="768" width="1024" x="0" y="0" /><g class="plot" transform="translate(80, 46)"><rect class="background" height="678.0" width="924.0" x="0" y="0" /><g class="axis y"><g class="guides"><path class="axis major line" d="M0.000000 664.961538 h924.000000" /><text class="major" x="-5" y="668.4615384615385">0</text></g><g class="guides"><path class="guide line" d="M0.000000 599.769231 h924.000000" /><text class="" x="-5" y="603.2692307692307">100</text></g><g class="guides"><path class="guide line" d="M0.000000 534.576923 h924.000000" /><text class="" x="-5" y="538.0769230769231">200</text></g><g class="guides"><path class="guide line" d="M0.000000 469.384615 h924.000000" /><text class="" x="-5" y="472.88461538461536">300</text></g><g class="guides"><path class="guide line" d="M0.000000 404.192308 h924.000000" /><text class="" x="-5" y="407.6923076923077">400</text></g><g class="guides"><path class="major guide line" d="M0.000000 339.000000 h924.000000" /><text class="major" x="-5" y="342.5">500</text></g><g class="guides"><path class="guide line" d="M0.000000 273.807692 h924.000000" /><text class="" x="-5" y="277.3076923076923">600</text></g><g class="guides"><path class="guide line" d="M0.000000 208.615385 h924.000000" /><text class="" x="-5" y="212.11538461538464">700</text></g><g class="guides"><path class="guide line" d="M0.000000 143.423077 h924.000000" /><text class="" x="-5" y="146.9230769230769">800</text></g><g class="guides"><path class="guide line" d="M0.000000 78.230769 h924.000000" /><text class="" x="-5" y="81.73076923076928">900</text></g><g class="guides"><path class="major guide line" d="M0.000000 13.038462 h924.000000" /><text class="major" x="-5" y="16.538461538461547">1000</text></g></g><g class="series serie-0 color-0"><path class="line reactive nofill" d="M17.769231 423.098077 L20.237179 664.961538 22.705128 664.961538 25.173077 664.961538 27.641026 664.961538 30.108974 664.961538 32.576923 664.961538 35.044872 664.961538 37.512821 664.961538 39.980769 664.961538 42.448718 664.961538 44.916667 664.961538 47.384615 664.961538 49.852564 664.961538 52.320513 664.961538 54.788462 664.961538 57.256410 664.961538 59.724359 664.961538 62.192308 664.961538 64.660256 664.961538 67.128205 664.961538 69.596154 664.961538 72.064103 664.961538 74.532051 664.961538 77.000000 664.961538 79.467949 664.961538 81.935897 664.961538 84.403846 664.961538 86.871795 664.961538 89.339744 664.961538 91.807692 664.961538 94.275641 664.961538 96.743590 664.961538 99.211538 664.961538 101.679487 664.961538 104.147436 664.961538 106.615385 664.961538 109.083333 664.961538 111.551282 664.961538 114.019231 664.961538 116.487179 664.961538 118.955128 664.961538 121.423077 664.961538 123.891026 664.961538 126.358974 664.961538 128.826923 664.961538 131.294872 664.961538 133.762821 664.961538 136.230769 664.961538 138.698718 664.961538 141.166667 664.961538 143.634615 664.961538 146.102564 664.961538 148.570513 664.961538 151.038462 664.961538 153.506410 664.961538 155.974359 664.961538 158.442308 664.961538 160.910256 664.961538 163.378205 664.961538 165.846154 664.961538 168.314103 664.961538 170.782051 664.961538 173.250000 664.961538 175.717949 664.961538 178.185897 664.961538 180.653846 664.961538 183.121795 664.961538 185.589744 664.961538 188.057692 664.961538 190.525641 664.961538 192.993590 664.961538 195.461538 664.961538 197.929487 664.961538 200.397436 664.961538 202.865385 664.961538 205.333333 664.961538 207.801282 664.961538 210.269231 664.961538 212.737179 664.961538 215.205128 664.961538 217.673077 664.961538 220.141026 664.961538 222.608974 664.961538 225.076923 664.961538 227.544872 664.961538 230.012821 664.961538 232.480769 664.961538 234.948718 664.961538 237.416667 664.961538 239.884615 664.961538 242.352564 664.961538 244.820513 664.961538 247.288462 664.961538 249.756410 664.961538 252.224359 664.961538 254.692308 664.961538 257.160256 664.961538 259.628205 664.961538 262.096154 664.961538 264.564103 664.961538 267.032051 664.961538 269.500000 664.961538 271.967949 664.961538 274.435897 664.961538 276.903846 664.961538 279.371795 664.961538 281.839744 664.961538 284.307692 664.961538 286.775641 664.961538 289.243590 664.961538 291.711538 664.961538 294.179487 664.961538 296.647436 664.961538 299.115385 664.961538 301.583333 664.961538 304.051282 664.961538 306.519231 664.961538 308.987179 664.961538 311.455128 664.961538 313.923077 664.961538 316.391026 664.961538 318.858974 664.961538 321.326923 664.961538 323.794872 664.961538 326.262821 664.961538 328.730769 664.961538 331.198718 664.961538 333.666667 664.961538 336.134615 664.961538 338.602564 664.961538 341.070513 664.961538 343.538462 664.961538 346.006410 664.961538 348.474359 664.961538 350.942308 664.961538 353.410256 664.961538 355.878205 664.961538 358.346154 664.961538 360.814103 664.961538 363.282051 664.961538 365.750000 664.961538 368.217949 664.961538 370.685897 664.961538 373.153846 664.961538 375.621795 664.961538 378.089744 664.961538 380.557692 664.961538 383.025641 664.961538 385.493590 664.961538 387.961538 664.961538 390.429487 664.961538 392.897436 664.961538 395.365385 664.961538 397.833333 664.961538 400.301282 664.961538 402.769231 664.961538 405.237179 664.961538 407.705128 664.961538 410.173077 664.961538 412.641026 664.961538 415.108974 664.961538 417.576923 664.961538 420.044872 664.961538 422.512821 664.961538 424.980769 664.961538 427.448718 664.961538 429.916667 664.961538 432.384615 664.961538 434.852564 664.961538 437.320513 664.961538 439.788462 664.961538 442.256410 664.961538 444.724359 664.961538 447.192308 664.961538 449.660256 664.961538 452.128205 664.961538 454.596154 664.961538 457.064103 664.961538 459.532051 664.961538 462.000000 664.961538 464.467949 664.961538 466.935897 664.961538 469.403846 664.961538 471.871795 664.961538 474.339744 664.961538 476.807692 664.961538 479.275641 664.961538 481.743590 664.961538 484.211538 664.961538 486.679487 664.961538 489.147436 664.961538 491.615385 664.961538 494.083333 664.961538 496.551282 664.961538 499.019231 664.961538 501.487179 664.961538 503.955128 664.961538 506.423077 664.961538 508.891026 664.961538 511.358974 664.961538 513.826923 664.961538 516.294872 664.961538 518.762821 664.961538 521.230769 664.961538 523.698718 664.961538 526.166667 664.961538 528.634615 664.961538 531.102564 664.961538 533.570513 664.961538 536.038462 664.961538 538.506410 664.961538 540.974359 664.961538 543.442308 664.961538 545.910256 664.961538 548.378205 664.961538 550.846154 664.961538 553.314103 664.961538 555.782051 664.961538 558.250000 664.961538 560.717949 664.961538 563.185897 664.961538 565.653846 664.961538 568.121795 664.961538 570.589744 664.961538 573.057692 664.961538 575.525641 664.961538 577.993590 664.961538 580.461538 664.961538 582.929487 664.961538 585.397436 664.961538 587.865385 664.961538 590.333333 664.961538 592.801282 664.961538 595.269231 664.961538 597.737179 664.961538 600.205128 664.961538 602.673077 664.961538 605.141026 664.961538 607.608974 664.961538 610.076923 664.961538 612.544872 664.961538 615.012821 664.961538 617.480769 664.961538 619.948718 664.961538 622.416667 664.961538 624.884615 664.961538 627.352564 664.961538 629.820513 664.961538 632.288462 664.961538 634.756410 664.961538 637.224359 664.961538 639.692308 664.961538 642.160256 664.961538 644.628205 664.961538 647.096154 664.961538 649.564103 664.961538 652.032051 664.961538 654.500000 664.961538 656.967949 664.961538 659.435897 664.961538 661.903846 664.961538 664.371795 664.961538 666.839744 664.961538 669.307692 664.961538 671.775641 664.961538 674.243590 664.961538 676.711538 664.961538 679.179487 664.961538 681.647436 664.961538 684.115385 664.961538 686.583333 664.961538 689.051282 664.961538 691.519231 664.961538 693.987179 664.961538 696.455128 664.961538 698.923077 664.961538 701.391026 664.961538 703.858974 664.961538 706.326923 664.961538 708.794872 664.961538 711.262821 664.961538 713.730769 664.961538 716.198718 664.961538 718.666667 664.961538 721.134615 664.961538 723.602564 664.961538 726.070513 664.961538 728.538462 664.961538 731.006410 664.961538 733.474359 664.961538 735.942308 664.961538 738.410256 664.961538 740.878205 664.961538 743.346154 664.961538 745.814103 664.961538 748.282051 664.961538 750.750000 664.961538 753.217949 664.961538 755.685897 664.961538 758.153846 664.961538 760.621795 664.961538 763.089744 664.961538 765.557692 664.961538 768.025641 664.961538 770.493590 664.961538 772.961538 664.961538 775.429487 664.961538 777.897436 664.961538 780.365385 664.961538 782.833333 664.961538 785.301282 664.961538 787.769231 664.961538 790.237179 664.961538 792.705128 664.961538 795.173077 664.961538 797.641026 664.961538 800.108974 664.961538 802.576923 664.961538 805.044872 664.961538 807.512821 664.961538 809.980769 664.961538 812.448718 664.961538 814.916667 664.961538 817.384615 664.961538 819.852564 664.961538 822.320513 664.961538 824.788462 664.961538 827.256410 664.961538 829.724359 664.961538 832.192308 664.961538 834.660256 664.961538 837.128205 664.961538 839.596154 664.961538 842.064103 664.961538 844.532051 664.961538 847.000000 664.961538 849.467949 664.961538 851.935897 664.961538 854.403846 664.961538 856.871795 664.961538 859.339744 664.961538 861.807692 664.961538 864.275641 664.961538 866.743590 664.961538 869.211538 664.961538 871.679487 664.961538 874.147436 664.961538 876.615385 664.961538 879.083333 664.961538 881.551282 664.961538 884.019231 664.961538 886.487179 664.961538 888.955128 664.961538 891.423077 664.961538 893.891026 664.961538 896.358974 664.961538 898.826923 664.961538 901.294872 664.961538 903.762821 664.961538 906.230769 664.961538" /></g></g><g class="titles"><text class="title plot_title" x="512.0" y="26">Election math.stackexchange.com-3 Constituents Per Hour</text><text class="title" transform="rotate(-90 0.000000 385.000000)" x="0" y="411.0">Users</text></g><g class="plot overlay" transform="translate(80, 46)"><g class="series serie-0 color-0" /></g><g class="plot text-overlay" transform="translate(80, 46)"><g class="series serie-0 color-0" /></g><g class="plot tooltip-overlay" transform="translate(80, 46)"><g class="tooltip" style="opacity: 0" transform="translate(0 0)"><a><rect class="tooltip-box" height="0" rx="0" ry="0" width="0" /><text class="text"><tspan class="label" /><tspan class="value" /></text></a></g></g><g class="legends" transform="translate(90, 734)"><g class="legend reactive activate-serie" id="activate-serie-0"><rect class="color-0 reactive" height="12" width="12" x="0.0" y="1.0" /><text x="17.0" y="11.2">constituents</text></g></g></g></svg>