<?xml version='1.0' encoding='utf-8'?>
<svg xmlns:xlink="http://www.w3.org/1999/xlink" class="pygal-chart" id="chart-c3ded5bf-44a1-423a-905e-337bdaaf6926" viewBox="0 0 1024 768" xmlns="http://www.w3.org/2000/svg"><!--Generated with pygal 1.7.0 (etree) ©Kozea 2011-2014 on 2018-03-25--><!--http://pygal.org--><!--http://github.com/Kozea/pygal--><defs><style type="text/css">#chart-c3ded5bf-44a1-423a-905e-337bdaaf6926 .title{font-family:"monospace";font-size:16px}#chart-c3ded5bf-44a1-423a-905e-337bdaaf6926 .legends .legend text{font-family:"monospace";font-size:14px}#chart-c3ded5bf-44a1-423a-905e-337bdaaf6926 .axis text{font-family:"monospace";font-size:10px}#chart-c3ded5bf-44a1-423a-905e-337bdaaf6926 .axis text.major{font-family:"monospace";font-size:10px}#chart-c3ded5bf-44a1-423a-905e-337bdaaf6926 .series text{font-family:"monospace";font-size:8px}#chart-c3ded5bf-44a1-423a-905e-337bdaaf6926 .tooltip text{font-family:"monospace";font-size:16px}#chart-c3ded5bf-44a1-423a-905e-337bdaaf6926 text.no_data{font-size:64px}
#chart-c3ded5bf-44a1-423a-905e-337bdaaf6926{background-color:black}#chart-c3ded5bf-44a1-423a-905e-337bdaaf6926 path,#chart-c3ded5bf-44a1-423a-905e-337bdaaf6926 line,#chart-c3ded5bf-44a1-423a-905e-337bdaaf6926 rect,#chart-c3ded5bf-44a1-423a-905e-337bdaaf6926 circle{-webkit-transition:250ms;-moz-transition:250ms;transition:250ms}#chart-c3ded5bf-44a1-423a-905e-337bdaaf6926 .graph &gt; .background{fill:black}#chart-c3ded5bf-44a1-423a-905e-337bdaaf6926 .plot &gt; .background{fill:#111}#chart-c3ded5bf-44a1-423a-905e-337bdaaf6926 .graph{fill:#999}#chart-c3ded5bf-44a1-423a-905e-337bdaaf6926 text.no_data{fill:#eee}#chart-c3ded5bf-44a1-423a-905e-337bdaaf6926 .title{fill:#eee}#chart-c3ded5bf-44a1-423a-905e-337bdaaf6926 .legends .legend text{fill:#999}#chart-c3ded5bf-44a1-423a-905e-337bdaaf6926 .legends .legend:hover text{fill:#eee}#chart-c3ded5bf-44a1-423a-905e-337bdaaf6926 .axis .line{stroke:#eee}#chart-c3ded5bf-44a1-423a-905e-337bdaaf6926 .axis .guide.line{stroke:#555}#chart-c3ded5bf-44a1-423a-905e-337bdaaf6926 .axis .major.line{stroke:#999}#chart-c3ded5bf-44a1-423a-905e-337bdaaf6926 .axis text.major{stroke:#eee;fill:#eee}#chart-c3ded5bf-44a1-423a-905e-337bdaaf6926 .axis.y .guides:hover .guide.line,#chart-c3ded5bf-44a1-423a-905e-337bdaaf6926 .line-graph .axis.x .guides:hover .guide.line,#chart-c3ded5bf-44a1-423a-905e-337bdaaf6926 .stackedline-graph .axis.x .guides:hover .guide.line,#chart-c3ded5bf-44a1-423a-905e-337bdaaf6926 .xy-graph .axis.x .guides:hover .guide.line{stroke:#eee}#chart-c3ded5bf-44a1-423a-905e-337bdaaf6926 .axis .guides:hover text{fill:#eee}#chart-c3ded5bf-44a1-423a-905e-337bdaaf6926 .reactive{fill-opacity:.8}#chart-c3ded5bf-44a1-423a-905e-337bdaaf6926 .reactive.active,#chart-c3ded5bf-44a1-423a-905e-337bdaaf6926 .active .reactive{fill-opacity:.4}#chart-c3ded5bf-44a1-423a-905e-337bdaaf6926 .series{stroke-width:1.0;stroke-linejoin:round;stroke-linecap:round;stroke-dasharray:0,0}#chart-c3ded5bf-44a1-423a-905e-337bdaaf6926 .series text{fill:#eee}#chart-c3ded5bf-44a1-423a-905e-337bdaaf6926 .tooltip rect{fill:#111;stroke:#eee}#chart-c3ded5bf-44a1-423a-905e-337bdaaf6926 .tooltip text{fill:#eee}#chart-c3ded5bf-44a1-423a-905e-337bdaaf6926 .map-element{fill:#999;stroke:#555 !important;opacity:.9;stroke-width:3;-webkit-transition:250ms;-moz-transition:250ms;-o-transition:250ms;transition:250ms}#chart-c3ded5bf-44a1-423a-905e-337bdaaf6926 .map-element:hover{opacity:1;stroke-width:10}#chart-c3ded5bf-44a1-423a-905e-337bdaaf6926 .color-0,#chart-c3ded5bf-44a1-423a-905e-337bdaaf6926 .color-0 a:visited{stroke:#ff5995;fill:#ff5995}#chart-c3ded5bf-44a1-423a-905e-337bdaaf6926 .color-1,#chart-c3ded5bf-44a1-423a-905e-337bdaaf6926 .color-1 a:visited{stroke:#b6e354;fill:#b6e354}#chart-c3ded5bf-44a1-423a-905e-337bdaaf6926 .color-2,#chart-c3ded5bf-44a1-423a-905e-337bdaaf6926 .color-2 a:visited{stroke:#feed6c;fill:#feed6c}#chart-c3ded5bf-44a1-423a-905e-337bdaaf6926 .color-3,#chart-c3ded5bf-44a1-423a-905e-337bdaaf6926 .color-3 a:visited{stroke:#8cedff;fill:#8cedff}#chart-c3ded5bf-44a1-423a-905e-337bdaaf6926 .color-4,#chart-c3ded5bf-44a1-423a-905e-337bdaaf6926 .color-4 a:visited{stroke:#9e6ffe;fill:#9e6ffe}#chart-c3ded5bf-44a1-423a-905e-337bdaaf6926 .color-5,#chart-c3ded5bf-44a1-423a-905e-337bdaaf6926 .color-5 a:visited{stroke:#899ca1;fill:#899ca1}#chart-c3ded5bf-44a1-423a-905e-337bdaaf6926 .color-6,#chart-c3ded5bf-44a1-423a-905e-337bdaaf6926 .color-6 a:visited{stroke:#f8f8f2;fill:#f8f8f2}#chart-c3ded5bf-44a1-423a-905e-337bdaaf6926 .color-7,#chart-c3ded5bf-44a1-423a-905e-337bdaaf6926 .color-7 a:visited{stroke:#bf4646;fill:#bf4646}#chart-c3ded5bf-44a1-423a-905e-337bdaaf6926 .color-8,#chart-c3ded5bf-44a1-423a-905e-337bdaaf6926 .color-8 a:visited{stroke:#516083;fill:#516083}#chart-c3ded5bf-44a1-423a-905e-337bdaaf6926 .color-9,#chart-c3ded5bf-44a1-423a-905e-337bdaaf6926 .color-9 a:visited{stroke:#f92672;fill:#f92672}#chart-c3ded5bf-44a1-423a-905e-337bdaaf6926 .color-10,#chart-c3ded5bf-44a1-423a-905e-337bdaaf6926 .color-10 a:visited{stroke:#82b414;fill:#82b414}#chart-c3ded5bf-44a1-423a-905e-337bdaaf6926 .color-11,#chart-c3ded5bf-44a1-423a-905e-337bdaaf6926 .color-11 a:visited{stroke:#fd971f;fill:#fd971f}#chart-c3ded5bf-44a1-423a-905e-337bdaaf6926 .color-12,#chart-c3ded5bf-44a1-423a-905e-337bdaaf6926 .color-12 a:visited{stroke:#56c2d6;fill:#56c2d6}#chart-c3ded5bf-44a1-423a-905e-337bdaaf6926 .color-13,#chart-c3ded5bf-44a1-423a-905e-337bdaaf6926 .color-13 a:visited{stroke:#808384;fill:#808384}#chart-c3ded5bf-44a1-423a-905e-337bdaaf6926 .color-14,#chart-c3ded5bf-44a1-423a-905e-337bdaaf6926 .color-14 a:visited{stroke:#8c54fe;fill:#8c54fe}#chart-c3ded5bf-44a1-423a-905e-337bdaaf6926 .color-15,#chart-c3ded5bf-44a1-423a-905e-337bdaaf6926 .color-15 a:visited{stroke:#465457;fill:#465457}
#chart-c3ded5bf-44a1-423a-905e-337bdaaf6926 text.no_data{text-anchor:middle}#chart-c3ded5bf-44a1-423a-905e-337bdaaf6926 .guide.line{fill-opacity:0}#chart-c3ded5bf-44a1-423a-905e-337bdaaf6926 .centered{text-anchor:middle}#chart-c3ded5bf-44a1-423a-905e-337bdaaf6926 .title{text-anchor:middle}#chart-c3ded5bf-44a1-423a-905e-337bdaaf6926 .legends .legend text{fill-opacity:1}#chart-c3ded5bf-44a1-423a-905e-337bdaaf6926 .axis.x text{text-anchor:middle}#chart-c3ded5bf-44a1-423a-905e-337bdaaf6926 .axis.x:not(.web) text[transform]{text-anchor:start}#chart-c3ded5bf-44a1-423a-905e-337bdaaf6926 .axis.y text{text-anchor:end}#chart-c3ded5bf-44a1-423a-905e-337bdaaf6926 .axis.y2 text{text-anchor:start}#chart-c3ded5bf-44a1-423a-905e-337bdaaf6926 .axis.y .logarithmic text:not(.major),#chart-c3ded5bf-44a1-423a-905e-337bdaaf6926 .axis.y2 .logarithmic text:not(.major){font-size:50%}#chart-c3ded5bf-44a1-423a-905e-337bdaaf6926 .axis .guide.line{stroke-dasharray:4,4}#chart-c3ded5bf-44a1-423a-905e-337bdaaf6926 .axis .major.guide.line{stroke-dasharray:6,6}#chart-c3ded5bf-44a1-423a-905e-337bdaaf6926 .axis text.major{stroke-width:0.5px}#chart-c3ded5bf-44a1-423a-905e-337bdaaf6926 .horizontal .axis.y .guide.line,#chart-c3ded5bf-44a1-423a-905e-337bdaaf6926 .horizontal .axis.y2 .guide.line,#chart-c3ded5bf-44a1-423a-905e-337bdaaf6926 .vertical .axis.x .guide.line{opacity:0}#chart-c3ded5bf-44a1-423a-905e-337bdaaf6926 .horizontal .axis.always_show .guide.line,#chart-c3ded5bf-44a1-423a-905e-337bdaaf6926 .vertical .axis.always_show .guide.line{opacity:1 !important}#chart-c3ded5bf-44a1-423a-905e-337bdaaf6926 .axis.y .guides:hover .guide.line,#chart-c3ded5bf-44a1-423a-905e-337bdaaf6926 .axis.y2 .guides:hover .guide.line,#chart-c3ded5bf-44a1-423a-905e-337bdaaf6926 .axis.x .guides:hover .guide.line{opacity:1}#chart-c3ded5bf-44a1-423a-905e-337bdaaf6926 .axis .guides:hover text{opacity:1}#chart-c3ded5bf-44a1-423a-905e-337bdaaf6926 .nofill{fill:none}#chart-c3ded5bf-44a1-423a-905e-337bdaaf6926 .subtle-fill{fill-opacity:.2}#chart-c3ded5bf-44a1-423a-905e-337bdaaf6926 .dot{stroke-width:1px;fill-opacity:1}#chart-c3ded5bf-44a1-423a-905e-337bdaaf6926 .dot.active{stroke-width:5px}#chart-c3ded5bf-44a1-423a-905e-337bdaaf6926 .series text{stroke:none}#chart-c3ded5bf-44a1-423a-905e-337bdaaf6926 .series text.active{opacity:1}#chart-c3ded5bf-44a1-423a-905e-337bdaaf6926 .tooltip rect{fill-opacity:0.8}#chart-c3ded5bf-44a1-423a-905e-337bdaaf6926 .tooltip text{fill-opacity:1}#chart-c3ded5bf-44a1-423a-905e-337bdaaf6926 .tooltip text tspan.label{fill-opacity:.8}</style><script type="text/javascript">window.config = {"css": ["style.css", "graph.css"], "disable_xml_declaration": false, "dots_size": 2.5, "explicit_size": false, "fill": false, "half_pie": false, "height": 768, "human_readable": false, "include_x_axis": false, "inner_radius": 0, "interpolate": null, "interpolation_parameters": {}, "interpolation_precision": 250, "js": ["http://kozea.github.io/pygal.js/javascripts/svg.jquery.js", "http://kozea.github.io/pygal.js/javascripts/pygal-tooltips.js"], "label_font_size": 10, "legend_at_bottom": true, "legend_at_bottom_columns": null, "legend_box_size": 12, "legend_font_size": 14, "logarithmic": false, "major_label_font_size": 10, "margin": 20, "margin_bottom": null, "margin_left": null, "margin_right": null, "margin_top": null, "missing_value_fill_truncation": "x", "mode": null, "no_data_font_size": 64, "no_data_text": "No data", "no_prefix": false, "order_min": null, "pretty_print": false, "print_values": false, "print_zeroes": false, "range": [0, 1000], "rounded_bars": null, "show_dots": false, "show_legend": true, "show_minor_x_labels": true, "show_minor_y_labels": true, "show_only_major_dots": false, "show_x_guides": false, "show_x_labels": true, "show_y_guides": true, "show_y_labels": true, "spacing": 10, "stack_from_top": false, "strict": false, "stroke": true, "style": {"background": "black", "colors": ["#ff5995", "#b6e354", "#feed6c", "#8cedff", "#9e6ffe", "#899ca1", "#f8f8f2", "#bf4646", "#516083", "#f92672", "#82b414", "#fd971f", "#56c2d6", "#808384", "#8c54fe", "#465457"], "font_family": "monospace", "foreground": "#999", "foreground_dark": "#555", "foreground_light": "#eee", "opacity": ".8", "opacity_hover": ".4", "plot_background": "#111", "stroke_dasharray": "0,0", "stroke_style": "round", "stroke_width": 1.0, "transition": "250ms"}, "title": "Election stackoverflow.com-7 Participation Per Hour", "title_font_size": 16, "tooltip_border_radius": 0, "tooltip_font_size": 16, "truncate_label": null, "truncate_legend": null, "value_font_size": 8, "width": 1024, "x_label_format": "%Y-%m-%d %H:%M:%S.%f", "x_label_rotation": 0, "x_labels": null, "x_labels_major": null, "x_labels_major_count": null, "x_labels_major_every": null, "x_title": null, "x_value_formatter": null, "xrange": null, "y_label_rotation": 0, "y_labels": null, "y_labels_major": null, "y_labels_major_count": null, "y_labels_major_every": null, "y_title": "Users", "zero": 0}</script><script type="text/javascript" xlink:href="http://kozea.github.io/pygal.js/javascripts/svg.jquery.js" /><script type="text/javascript" xlink:href="http://kozea.github.io/pygal.js/javascripts/pygal-tooltips.js" /></defs><title>Election stackoverflow.com-7 Participation Per Hour</title><g class="graph line-graph vertical"><rect class="background" height="768" width="1024" x="0" y="0" /><g class="plot" transform="translate(80, 46)"><rect class="background" height="657.0" width="924.0" x="0" y="0" /><g class="axis y"><g class="guides"><path class="axis major line" d="M0.000000 644.365385 h924.000000" /><text class="major" x="-5" y="647.8653846153846">0</text></g><g class="guides"><path class="guide line" d="M0.000000 581.192308 h924.000000" /><text class="" x="-5" y="584.6923076923077">100</text></g><g class="guides"><path class="guide line" d="M0.000000 518.019231 h924.000000" /><text class="" x="-5" y="521.5192307692307">200</text></g><g class="guides"><path class="guide line" d="M0.000000 454.846154 h924.000000" /><text class="" x="-5" y="458.3461538461538">300</text></g><g class="guides"><path class="guide line" d="M0.000000 391.673077 h924.000000" /><text class="" x="-5" y="395.1730769230769">400</text></g><g class="guides"><path class="major guide line" d="M0.000000 328.500000 h924.000000" /><text class="major" x="-5" y="332.0">500</text></g><g class="guides"><path class="guide line" d="M0.000000 265.326923 h924.000000" /><text class="" x="-5" y="268.8269230769231">600</text></g><g class="guides"><path class="guide line" d="M0.000000 202.153846 h924.000000" /><text class="" x="-5" y="205.65384615384613">700</text></g><g class="guides"><path class="guide line" d="M0.000000 138.980769 h924.000000" /><text class="" x="-5" y="142.48076923076928">800</text></g><g class="guides"><path class="guide line" d="M0.000000 75.807692 h924.000000" /><text class="" x="-5" y="79.30769230769226">900</text></g><g class="guides"><path class="major guide line" d="M0.000000 12.634615 h924.000000" /><text class="major" x="-5" y="16.13461538461536">1000</text></g></g><g class="series serie-0 color-0"><path class="line reactive nofill" d="M17.769231 644.365385 L20.237179 644.365385 22.705128 644.365385 25.173077 644.365385 27.641026 644.365385 30.108974 644.365385 32.576923 644.365385 35.044872 644.365385 37.512821 644.365385 39.980769 644.365385 42.448718 644.365385 44.916667 644.365385 47.384615 644.365385 49.852564 644.365385 52.320513 644.365385 54.788462 644.365385 57.256410 644.365385 59.724359 644.365385 62.192308 644.365385 64.660256 644.365385 67.128205 644.365385 69.596154 644.365385 72.064103 644.365385 74.532051 644.365385 77.000000 644.365385 79.467949 644.365385 81.935897 644.365385 84.403846 644.365385 86.871795 644.365385 89.339744 644.365385 91.807692 644.365385 94.275641 644.365385 96.743590 644.365385 99.211538 644.365385 101.679487 644.365385 104.147436 644.365385 106.615385 644.365385 109.083333 644.365385 111.551282 644.365385 114.019231 644.365385 116.487179 644.365385 118.955128 644.365385 121.423077 644.365385 123.891026 644.365385 126.358974 644.365385 128.826923 644.365385 131.294872 644.365385 133.762821 644.365385 136.230769 644.365385 138.698718 644.365385 141.166667 644.365385 143.634615 644.365385 146.102564 644.365385 148.570513 644.365385 151.038462 644.365385 153.506410 644.365385 155.974359 644.365385 158.442308 644.365385 160.910256 644.365385 163.378205 644.365385 165.846154 644.365385 168.314103 644.365385 170.782051 644.365385 173.250000 644.365385 175.717949 644.365385 178.185897 644.365385 180.653846 644.365385 183.121795 644.365385 185.589744 644.365385 188.057692 644.365385 190.525641 644.365385 192.993590 644.365385 195.461538 644.365385 197.929487 644.365385 200.397436 644.365385 202.865385 644.365385 205.333333 644.365385 207.801282 644.365385 210.269231 644.365385 212.737179 644.365385 215.205128 644.365385 217.673077 644.365385 220.141026 644.365385 222.608974 644.365385 225.076923 644.365385 227.544872 644.365385 230.012821 644.365385 232.480769 644.365385 234.948718 644.365385 237.416667 644.365385 239.884615 644.365385 242.352564 644.365385 244.820513 644.365385 247.288462 644.365385 249.756410 644.365385 252.224359 644.365385 254.692308 644.365385 257.160256 644.365385 259.628205 644.365385 262.096154 644.365385 264.564103 644.365385 267.032051 644.365385 269.500000 644.365385 271.967949 644.365385 274.435897 644.365385 276.903846 644.365385 279.371795 644.365385 281.839744 644.365385 284.307692 644.365385 286.775641 644.365385 289.243590 644.365385 291.711538 644.365385 294.179487 644.365385 296.647436 644.365385 299.115385 644.365385 301.583333 644.365385 304.051282 644.365385 306.519231 644.365385 308.987179 644.365385 311.455128 644.365385 313.923077 644.365385 316.391026 644.365385 318.858974 644.365385 321.326923 644.365385 323.794872 644.365385 326.262821 644.365385 328.730769 644.365385 331.198718 644.365385 333.666667 644.365385 336.134615 644.365385 338.602564 644.365385 341.070513 644.365385 343.538462 644.365385 346.006410 644.365385 348.474359 644.365385 350.942308 644.365385 353.410256 644.365385 355.878205 644.365385 358.346154 644.365385 360.814103 644.365385 363.282051 644.365385 365.750000 644.365385 368.217949 644.365385 370.685897 644.365385 373.153846 644.365385 375.621795 644.365385 378.089744 644.365385 380.557692 644.365385 383.025641 644.365385 385.493590 644.365385 387.961538 644.365385 390.429487 644.365385 392.897436 644.365385 395.365385 644.365385 397.833333 644.365385 400.301282 644.365385 402.769231 644.365385 405.237179 644.365385 407.705128 644.365385 410.173077 644.365385 412.641026 644.365385 415.108974 644.365385 417.576923 644.365385 420.044872 644.365385 422.512821 644.365385 424.980769 644.365385 427.448718 644.365385 429.916667 644.365385 432.384615 644.365385 434.852564 644.365385 437.320513 644.365385 439.788462 644.365385 442.256410 644.365385 444.724359 644.365385 447.192308 644.365385 449.660256 644.365385 452.128205 644.365385 454.596154 644.365385 457.064103 644.365385 459.532051 644.365385 462.000000 644.365385 464.467949 644.365385 466.935897 644.365385 469.403846 644.365385 471.871795 644.365385 474.339744 644.365385 476.807692 644.365385 479.275641 644.365385 481.743590 644.365385 484.211538 644.365385 486.679487 644.365385 489.147436 644.365385 491.615385 644.365385 494.083333 644.365385 496.551282 644.365385 499.019231 644.365385 501.487179 644.365385 503.955128 644.365385 506.423077 644.365385 508.891026 644.365385 511.358974 644.365385 513.826923 644.365385 516.294872 644.365385 518.762821 644.365385 521.230769 644.365385 523.698718 644.365385 526.166667 644.365385 528.634615 644.365385 531.102564 644.365385 533.570513 644.365385 536.038462 644.365385 538.506410 644.365385 540.974359 644.365385 543.442308 644.365385 545.910256 644.365385 548.378205 644.365385 550.846154 644.365385 553.314103 644.365385 555.782051 644.365385 558.250000 644.365385 560.717949 644.365385 563.185897 644.365385 565.653846 644.365385 568.121795 644.365385 570.589744 644.365385 573.057692 644.365385 575.525641 644.365385 577.993590 644.365385 580.461538 644.365385 582.929487 644.365385 585.397436 644.365385 587.865385 644.365385 590.333333 644.365385 592.801282 644.365385 595.269231 644.365385 597.737179 644.365385 600.205128 644.365385 602.673077 644.365385 605.141026 644.365385 607.608974 644.365385 610.076923 644.365385 612.544872 644.365385 615.012821 644.365385 617.480769 644.365385 619.948718 644.365385 622.416667 644.365385 624.884615 644.365385 627.352564 644.365385 629.820513 644.365385 632.288462 644.365385 634.756410 644.365385 637.224359 644.365385 639.692308 644.365385 642.160256 644.365385 644.628205 644.365385 647.096154 644.365385 649.564103 644.365385 652.032051 644.365385 654.500000 644.365385 656.967949 644.365385 659.435897 644.365385 661.903846 644.365385 664.371795 644.365385 666.839744 644.365385 669.307692 -1227.452885 671.775641 -392.936538 674.243590 70.122115 676.711538 260.904808 679.179487 396.095192 681.647436 428.313462 684.115385 473.798077 686.583333 440.948077 689.051282 382.197115 691.519231 381.565385 693.987179 389.777885 696.455128 391.041346 698.923077 385.355769 701.391026 382.197115 703.858974 346.188462 706.326923 379.670192 708.794872 385.355769 711.262821 428.313462 713.730769 461.163462 716.198718 429.576923 718.666667 463.058654 721.134615 470.007692 723.602564 487.064423 726.070513 484.537500 728.538462 528.758654 731.006410 506.648077 733.474359 554.659615 735.942308 562.240385 738.410256 581.824038 740.878205 592.563462 743.346154 588.141346 745.814103 597.617308 748.282051 604.566346 750.750000 587.509615 753.217949 582.455769 755.685897 574.243269 758.153846 550.237500 760.621795 548.974038 763.089744 542.025000 765.557692 536.971154 768.025641 549.605769 770.493590 526.231731 772.961538 565.399038 775.429487 535.075962 777.897436 543.288462 780.365385 545.815385 782.833333 543.920192 785.301282 557.186538 787.769231 553.396154 790.237179 568.557692 792.705128 554.659615 795.173077 584.350962 797.641026 567.925962 800.108974 577.401923 802.576923 555.923077 805.044872 569.821154 807.512821 488.327885 809.980769 430.840385 812.448718 382.828846 814.916667 341.766346 817.384615 144.034615 819.852564 201.522115 822.320513 245.743269 824.788462 319.024038 827.256410 373.984615 829.724359 373.352885 832.192308 408.098077 834.660256 405.571154 837.128205 461.795192 839.596154 504.121154 842.064103 540.761538 844.532051 538.866346 847.000000 535.707692 849.467949 556.554808 851.935897 565.399038 854.403846 588.141346 856.871795 607.725000 859.339744 603.302885 861.807692 595.090385 864.275641 600.144231 866.743590 591.300000 869.211538 573.611538 871.679487 581.192308 874.147436 537.602885 876.615385 527.495192 879.083333 524.336538 881.551282 500.330769 884.019231 552.764423 886.487179 532.549038 888.955128 524.336538 891.423077 547.710577 893.891026 533.180769 896.358974 548.974038 898.826923 575.506731 901.294872 567.294231 903.762821 586.877885 906.230769 638.679808" /></g><g class="series serie-1 color-1"><path class="line reactive nofill" d="M17.769231 -644.365385 L20.237179 56.855769 22.705128 307.021154 25.173077 447.265385 27.641026 495.276923 30.108974 519.914423 32.576923 536.339423 35.044872 507.279808 37.512821 529.390385 39.980769 468.744231 42.448718 434.630769 44.916667 415.047115 47.384615 346.820192 49.852564 331.026923 52.320513 426.418269 54.788462 499.067308 57.256410 501.594231 59.724359 501.594231 62.192308 486.432692 64.660256 506.648077 67.128205 519.914423 69.596154 558.450000 72.064103 570.452885 74.532051 568.557692 77.000000 571.084615 79.467949 583.719231 81.935897 584.982692 84.403846 614.674038 86.871795 617.832692 89.339744 615.937500 91.807692 619.096154 94.275641 614.042308 96.743590 617.200962 99.211538 609.620192 101.679487 612.147115 104.147436 596.985577 106.615385 578.665385 109.083333 583.087500 111.551282 594.458654 114.019231 601.407692 116.487179 583.087500 118.955128 584.350962 121.423077 596.985577 123.891026 583.087500 126.358974 603.934615 128.826923 595.090385 131.294872 607.725000 133.762821 608.356731 136.230769 602.671154 138.698718 604.566346 141.166667 609.620192 143.634615 624.150000 146.102564 629.203846 148.570513 629.835577 151.038462 630.467308 153.506410 628.572115 155.974359 630.467308 158.442308 622.254808 160.910256 612.147115 163.378205 615.937500 165.846154 607.093269 168.314103 592.563462 170.782051 605.829808 173.250000 601.407692 175.717949 599.512500 178.185897 598.880769 180.653846 602.039423 183.121795 605.829808 185.589744 603.934615 188.057692 608.356731 190.525641 616.569231 192.993590 611.515385 195.461538 615.305769 197.929487 618.464423 200.397436 615.305769 202.865385 623.518269 205.333333 628.572115 207.801282 631.099038 210.269231 632.994231 212.737179 634.889423 215.205128 635.521154 217.673077 626.676923 220.141026 630.467308 222.608974 626.045192 225.076923 630.467308 227.544872 604.566346 230.012821 614.674038 232.480769 615.937500 234.948718 616.569231 237.416667 611.515385 239.884615 613.410577 242.352564 619.096154 244.820513 617.200962 247.288462 618.464423 249.756410 621.623077 252.224359 620.359615 254.692308 628.572115 257.160256 625.413462 259.628205 634.889423 262.096154 634.257692 264.564103 635.521154 267.032051 638.048077 269.500000 634.257692 271.967949 641.838462 274.435897 640.575000 276.903846 638.679808 279.371795 634.889423 281.839744 631.730769 284.307692 634.889423 286.775641 636.784615 289.243590 631.099038 291.711538 633.625962 294.179487 639.311538 296.647436 634.257692 299.115385 632.994231 301.583333 636.152885 304.051282 631.730769 306.519231 630.467308 308.987179 637.416346 311.455128 636.784615 313.923077 630.467308 316.391026 635.521154 318.858974 632.994231 321.326923 632.994231 323.794872 638.048077 326.262821 636.152885 328.730769 635.521154 331.198718 639.943269 333.666667 639.943269 336.134615 634.257692 338.602564 634.889423 341.070513 638.048077 343.538462 629.203846 346.006410 632.994231 348.474359 634.257692 350.942308 633.625962 353.410256 632.362500 355.878205 632.362500 358.346154 626.676923 360.814103 636.784615 363.282051 632.994231 365.750000 628.572115 368.217949 623.518269 370.685897 631.099038 373.153846 631.730769 375.621795 628.572115 378.089744 634.257692 380.557692 632.994231 383.025641 639.943269 385.493590 636.784615 387.961538 634.257692 390.429487 633.625962 392.897436 617.200962 395.365385 611.515385 397.833333 612.147115 400.301282 603.934615 402.769231 608.356731 405.237179 600.144231 407.705128 595.722115 410.173077 603.934615 412.641026 610.251923 415.108974 605.198077 417.576923 596.985577 420.044872 612.147115 422.512821 610.251923 424.980769 626.045192 427.448718 617.200962 429.916667 608.988462 432.384615 -2316.556731 434.852564 -1066.993269 437.320513 -373.352885 439.788462 -214.788462 442.256410 138.349038 444.724359 142.139423 447.192308 223.000962 449.660256 97.286538 452.128205 -120.660577 454.596154 -216.683654 457.064103 -288.069231 459.532051 -567.925962 462.000000 -821.881731 464.467949 -830.725962 466.935897 -593.195192 469.403846 -172.462500 471.871795 -198.363462 474.339744 -111.184615 476.807692 -117.501923 479.275641 32.850000 481.743590 -28.427885 484.211538 195.836538 486.679487 270.380769 489.147436 303.230769 491.615385 326.604808 494.083333 361.350000 496.551282 432.103846 499.019231 471.271154 501.487179 543.288462 503.955128 536.339423 506.423077 545.815385 508.891026 526.231731 511.358974 506.016346 513.826923 494.013462 516.294872 434.630769 518.762821 418.205769 521.230769 387.250962 523.698718 296.281731 526.166667 349.347115 528.634615 406.834615 531.102564 354.400962 533.570513 367.667308 536.038462 394.200000 538.506410 406.834615 540.974359 429.576923 543.442308 475.061538 545.910256 487.696154 548.378205 510.438462 550.846154 488.327885 553.314103 514.860577 555.782051 538.866346 558.250000 575.506731 560.717949 585.614423 563.185897 588.773077 565.653846 605.829808 568.121795 590.668269 570.589744 580.560577 573.057692 553.396154 575.525641 557.186538 577.993590 523.704808 580.461538 507.279808 582.929487 492.750000 585.397436 460.531731 587.865385 515.492308 590.333333 482.642308 592.801282 492.750000 595.269231 488.327885 597.737179 511.701923 600.205128 562.872115 602.673077 500.962500 605.141026 556.554808 607.608974 548.342308 610.076923 560.345192 612.544872 559.713462 615.012821 568.557692 617.480769 591.931731 619.948718 611.515385 622.416667 613.410577 624.884615 611.515385 627.352564 605.198077 629.820513 602.671154 632.288462 603.934615 634.756410 585.614423 637.224359 572.979808 639.692308 576.138462 642.160256 560.976923 644.628205 543.288462 647.096154 549.605769 649.564103 575.506731 652.032051 567.294231 654.500000 547.078846 656.967949 581.824038 659.435897 569.189423 661.903846 586.877885 664.371795 591.300000 666.839744 593.195192 669.307692 -46.116346 671.775641 232.476923 674.243590 386.619231 676.711538 470.007692 679.179487 538.234615 681.647436 543.920192 684.115385 565.399038 686.583333 562.240385 689.051282 555.923077 691.519231 564.767308 693.987179 543.288462 696.455128 550.869231 698.923077 536.339423 701.391026 542.656731 703.858974 530.022115 706.326923 530.653846 708.794872 526.863462 711.262821 536.339423 713.730769 548.342308 716.198718 524.336538 718.666667 564.767308 721.134615 555.923077 723.602564 557.818269 726.070513 564.135577 728.538462 561.608654 731.006410 571.716346 733.474359 597.617308 735.942308 596.353846 738.410256 604.566346 740.878205 615.305769 743.346154 612.147115 745.814103 619.096154 748.282051 620.991346 750.750000 611.515385 753.217949 603.302885 755.685897 598.249038 758.153846 595.722115 760.621795 585.614423 763.089744 582.455769 765.557692 578.665385 768.025641 582.455769 770.493590 573.611538 772.961538 582.455769 775.429487 565.399038 777.897436 581.192308 780.365385 581.824038 782.833333 586.877885 785.301282 588.141346 787.769231 584.982692 790.237179 592.563462 792.705128 588.773077 795.173077 610.251923 797.641026 601.407692 800.108974 603.302885 802.576923 593.195192 805.044872 606.461538 807.512821 574.243269 809.980769 549.605769 812.448718 523.704808 814.916667 513.597115 817.384615 435.262500 819.852564 415.047115 822.320513 418.205769 824.788462 452.950962 827.256410 487.064423 829.724359 449.792308 832.192308 507.279808 834.660256 486.432692 837.128205 513.597115 839.596154 547.078846 842.064103 551.500962 844.532051 568.557692 847.000000 555.291346 849.467949 576.138462 851.935897 581.824038 854.403846 605.198077 856.871795 610.883654 859.339744 608.988462 861.807692 614.042308 864.275641 611.515385 866.743590 615.305769 869.211538 596.985577 871.679487 603.934615 874.147436 574.243269 876.615385 547.078846 879.083333 552.764423 881.551282 551.500962 884.019231 574.875000 886.487179 550.869231 888.955128 548.974038 891.423077 569.189423 893.891026 547.078846 896.358974 566.030769 898.826923 583.719231 901.294872 586.877885 903.762821 590.036538 906.230769 641.838462" /></g></g><g class="titles"><text class="title plot_title" x="512.0" y="26">Election stackoverflow.com-7 Participation Per Hour</text><text class="title" transform="rotate(-90 0.000000 374.500000)" x="0" y="400.5">Users</text></g><g class="plot overlay" transform="translate(80, 46)"><g class="series serie-0 color-0" /><g class="series serie-1 color-1" /></g><g class="plot text-overlay" transform="translate(80, 46)"><g class="series serie-0 color-0" /><g class="series serie-1 color-1" /></g><g class="plot tooltip-overlay" transform="translate(80, 46)"><g class="tooltip" style="opacity: 0" transform="translate(0 0)"><a><rect class="tooltip-box" height="0" rx="0" ry="0" width="0" /><text class="text"><tspan class="label" /><tspan class="value" /></text></a></g></g><g class="legends" transform="translate(90, 713)"><g class="legend reactive activate-serie" id="activate-serie-0"><rect class="color-0 reactive" height="12" width="12" x="0.0" y="1.0" /><text x="17.0" y="11.2">constituents</text></g><g class="legend reactive activate-serie" id="activate-serie-1"><rect class="color-1 reactive" height="12" width="12" x="462.0" y="1.0" /><text x="479.0" y="11.2">caucus</text></g></g></g></svg>