<?xml version='1.0' encoding='utf-8'?>
<svg xmlns:xlink="http://www.w3.org/1999/xlink" class="pygal-chart" id="chart-294ddfa0-03f3-4920-8272-5e1a1306cc0d" viewBox="0 0 1024 768" xmlns="http://www.w3.org/2000/svg"><!--Generated with pygal 1.7.0 (etree) ©Kozea 2011-2014 on 2015-04-20--><!--http://pygal.org--><!--http://github.com/Kozea/pygal--><defs><style type="text/css">#chart-294ddfa0-03f3-4920-8272-5e1a1306cc0d .title{font-family:"monospace";font-size:16px}#chart-294ddfa0-03f3-4920-8272-5e1a1306cc0d .legends .legend text{font-family:"monospace";font-size:14px}#chart-294ddfa0-03f3-4920-8272-5e1a1306cc0d .axis text{font-family:"monospace";font-size:10px}#chart-294ddfa0-03f3-4920-8272-5e1a1306cc0d .axis text.major{font-family:"monospace";font-size:10px}#chart-294ddfa0-03f3-4920-8272-5e1a1306cc0d .series text{font-family:"monospace";font-size:8px}#chart-294ddfa0-03f3-4920-8272-5e1a1306cc0d .tooltip text{font-family:"monospace";font-size:16px}#chart-294ddfa0-03f3-4920-8272-5e1a1306cc0d text.no_data{font-size:64px}
#chart-294ddfa0-03f3-4920-8272-5e1a1306cc0d{background-color:black}#chart-294ddfa0-03f3-4920-8272-5e1a1306cc0d path,#chart-294ddfa0-03f3-4920-8272-5e1a1306cc0d line,#chart-294ddfa0-03f3-4920-8272-5e1a1306cc0d rect,#chart-294ddfa0-03f3-4920-8272-5e1a1306cc0d circle{-webkit-transition:250ms;-moz-transition:250ms;transition:250ms}#chart-294ddfa0-03f3-4920-8272-5e1a1306cc0d .graph &gt; .background{fill:black}#chart-294ddfa0-03f3-4920-8272-5e1a1306cc0d .plot &gt; .background{fill:#111}#chart-294ddfa0-03f3-4920-8272-5e1a1306cc0d .graph{fill:#999}#chart-294ddfa0-03f3-4920-8272-5e1a1306cc0d text.no_data{fill:#eee}#chart-294ddfa0-03f3-4920-8272-5e1a1306cc0d .title{fill:#eee}#chart-294ddfa0-03f3-4920-8272-5e1a1306cc0d .legends .legend text{fill:#999}#chart-294ddfa0-03f3-4920-8272-5e1a1306cc0d .legends .legend:hover text{fill:#eee}#chart-294ddfa0-03f3-4920-8272-5e1a1306cc0d .axis .line{stroke:#eee}#chart-294ddfa0-03f3-4920-8272-5e1a1306cc0d .axis .guide.line{stroke:#555}#chart-294ddfa0-03f3-4920-8272-5e1a1306cc0d .axis .major.line{stroke:#999}#chart-294ddfa0-03f3-4920-8272-5e1a1306cc0d .axis text.major{stroke:#eee;fill:#eee}#chart-294ddfa0-03f3-4920-8272-5e1a1306cc0d .axis.y .guides:hover .guide.line,#chart-294ddfa0-03f3-4920-8272-5e1a1306cc0d .line-graph .axis.x .guides:hover .guide.line,#chart-294ddfa0-03f3-4920-8272-5e1a1306cc0d .stackedline-graph .axis.x .guides:hover .guide.line,#chart-294ddfa0-03f3-4920-8272-5e1a1306cc0d .xy-graph .axis.x .guides:hover .guide.line{stroke:#eee}#chart-294ddfa0-03f3-4920-8272-5e1a1306cc0d .axis .guides:hover text{fill:#eee}#chart-294ddfa0-03f3-4920-8272-5e1a1306cc0d .reactive{fill-opacity:.8}#chart-294ddfa0-03f3-4920-8272-5e1a1306cc0d .reactive.active,#chart-294ddfa0-03f3-4920-8272-5e1a1306cc0d .active .reactive{fill-opacity:.4}#chart-294ddfa0-03f3-4920-8272-5e1a1306cc0d .series{stroke-width:1.0;stroke-linejoin:round;stroke-linecap:round;stroke-dasharray:0,0}#chart-294ddfa0-03f3-4920-8272-5e1a1306cc0d .series text{fill:#eee}#chart-294ddfa0-03f3-4920-8272-5e1a1306cc0d .tooltip rect{fill:#111;stroke:#eee}#chart-294ddfa0-03f3-4920-8272-5e1a1306cc0d .tooltip text{fill:#eee}#chart-294ddfa0-03f3-4920-8272-5e1a1306cc0d .map-element{fill:#999;stroke:#555 !important;opacity:.9;stroke-width:3;-webkit-transition:250ms;-moz-transition:250ms;-o-transition:250ms;transition:250ms}#chart-294ddfa0-03f3-4920-8272-5e1a1306cc0d .map-element:hover{opacity:1;stroke-width:10}#chart-294ddfa0-03f3-4920-8272-5e1a1306cc0d .color-0,#chart-294ddfa0-03f3-4920-8272-5e1a1306cc0d .color-0 a:visited{stroke:#ff5995;fill:#ff5995}#chart-294ddfa0-03f3-4920-8272-5e1a1306cc0d .color-1,#chart-294ddfa0-03f3-4920-8272-5e1a1306cc0d .color-1 a:visited{stroke:#b6e354;fill:#b6e354}#chart-294ddfa0-03f3-4920-8272-5e1a1306cc0d .color-2,#chart-294ddfa0-03f3-4920-8272-5e1a1306cc0d .color-2 a:visited{stroke:#feed6c;fill:#feed6c}#chart-294ddfa0-03f3-4920-8272-5e1a1306cc0d .color-3,#chart-294ddfa0-03f3-4920-8272-5e1a1306cc0d .color-3 a:visited{stroke:#8cedff;fill:#8cedff}#chart-294ddfa0-03f3-4920-8272-5e1a1306cc0d .color-4,#chart-294ddfa0-03f3-4920-8272-5e1a1306cc0d .color-4 a:visited{stroke:#9e6ffe;fill:#9e6ffe}#chart-294ddfa0-03f3-4920-8272-5e1a1306cc0d .color-5,#chart-294ddfa0-03f3-4920-8272-5e1a1306cc0d .color-5 a:visited{stroke:#899ca1;fill:#899ca1}#chart-294ddfa0-03f3-4920-8272-5e1a1306cc0d .color-6,#chart-294ddfa0-03f3-4920-8272-5e1a1306cc0d .color-6 a:visited{stroke:#f8f8f2;fill:#f8f8f2}#chart-294ddfa0-03f3-4920-8272-5e1a1306cc0d .color-7,#chart-294ddfa0-03f3-4920-8272-5e1a1306cc0d .color-7 a:visited{stroke:#bf4646;fill:#bf4646}#chart-294ddfa0-03f3-4920-8272-5e1a1306cc0d .color-8,#chart-294ddfa0-03f3-4920-8272-5e1a1306cc0d .color-8 a:visited{stroke:#516083;fill:#516083}#chart-294ddfa0-03f3-4920-8272-5e1a1306cc0d .color-9,#chart-294ddfa0-03f3-4920-8272-5e1a1306cc0d .color-9 a:visited{stroke:#f92672;fill:#f92672}#chart-294ddfa0-03f3-4920-8272-5e1a1306cc0d .color-10,#chart-294ddfa0-03f3-4920-8272-5e1a1306cc0d .color-10 a:visited{stroke:#82b414;fill:#82b414}#chart-294ddfa0-03f3-4920-8272-5e1a1306cc0d .color-11,#chart-294ddfa0-03f3-4920-8272-5e1a1306cc0d .color-11 a:visited{stroke:#fd971f;fill:#fd971f}#chart-294ddfa0-03f3-4920-8272-5e1a1306cc0d .color-12,#chart-294ddfa0-03f3-4920-8272-5e1a1306cc0d .color-12 a:visited{stroke:#56c2d6;fill:#56c2d6}#chart-294ddfa0-03f3-4920-8272-5e1a1306cc0d .color-13,#chart-294ddfa0-03f3-4920-8272-5e1a1306cc0d .color-13 a:visited{stroke:#808384;fill:#808384}#chart-294ddfa0-03f3-4920-8272-5e1a1306cc0d .color-14,#chart-294ddfa0-03f3-4920-8272-5e1a1306cc0d .color-14 a:visited{stroke:#8c54fe;fill:#8c54fe}#chart-294ddfa0-03f3-4920-8272-5e1a1306cc0d .color-15,#chart-294ddfa0-03f3-4920-8272-5e1a1306cc0d .color-15 a:visited{stroke:#465457;fill:#465457}
#chart-294ddfa0-03f3-4920-8272-5e1a1306cc0d text.no_data{text-anchor:middle}#chart-294ddfa0-03f3-4920-8272-5e1a1306cc0d .guide.line{fill-opacity:0}#chart-294ddfa0-03f3-4920-8272-5e1a1306cc0d .centered{text-anchor:middle}#chart-294ddfa0-03f3-4920-8272-5e1a1306cc0d .title{text-anchor:middle}#chart-294ddfa0-03f3-4920-8272-5e1a1306cc0d .legends .legend text{fill-opacity:1}#chart-294ddfa0-03f3-4920-8272-5e1a1306cc0d .axis.x text{text-anchor:middle}#chart-294ddfa0-03f3-4920-8272-5e1a1306cc0d .axis.x:not(.web) text[transform]{text-anchor:start}#chart-294ddfa0-03f3-4920-8272-5e1a1306cc0d .axis.y text{text-anchor:end}#chart-294ddfa0-03f3-4920-8272-5e1a1306cc0d .axis.y2 text{text-anchor:start}#chart-294ddfa0-03f3-4920-8272-5e1a1306cc0d .axis.y .logarithmic text:not(.major),#chart-294ddfa0-03f3-4920-8272-5e1a1306cc0d .axis.y2 .logarithmic text:not(.major){font-size:50%}#chart-294ddfa0-03f3-4920-8272-5e1a1306cc0d .axis .guide.line{stroke-dasharray:4,4}#chart-294ddfa0-03f3-4920-8272-5e1a1306cc0d .axis .major.guide.line{stroke-dasharray:6,6}#chart-294ddfa0-03f3-4920-8272-5e1a1306cc0d .axis text.major{stroke-width:0.5px}#chart-294ddfa0-03f3-4920-8272-5e1a1306cc0d .horizontal .axis.y .guide.line,#chart-294ddfa0-03f3-4920-8272-5e1a1306cc0d .horizontal .axis.y2 .guide.line,#chart-294ddfa0-03f3-4920-8272-5e1a1306cc0d .vertical .axis.x .guide.line{opacity:0}#chart-294ddfa0-03f3-4920-8272-5e1a1306cc0d .horizontal .axis.always_show .guide.line,#chart-294ddfa0-03f3-4920-8272-5e1a1306cc0d .vertical .axis.always_show .guide.line{opacity:1 !important}#chart-294ddfa0-03f3-4920-8272-5e1a1306cc0d .axis.y .guides:hover .guide.line,#chart-294ddfa0-03f3-4920-8272-5e1a1306cc0d .axis.y2 .guides:hover .guide.line,#chart-294ddfa0-03f3-4920-8272-5e1a1306cc0d .axis.x .guides:hover .guide.line{opacity:1}#chart-294ddfa0-03f3-4920-8272-5e1a1306cc0d .axis .guides:hover text{opacity:1}#chart-294ddfa0-03f3-4920-8272-5e1a1306cc0d .nofill{fill:none}#chart-294ddfa0-03f3-4920-8272-5e1a1306cc0d .subtle-fill{fill-opacity:.2}#chart-294ddfa0-03f3-4920-8272-5e1a1306cc0d .dot{stroke-width:1px;fill-opacity:1}#chart-294ddfa0-03f3-4920-8272-5e1a1306cc0d .dot.active{stroke-width:5px}#chart-294ddfa0-03f3-4920-8272-5e1a1306cc0d .series text{stroke:none}#chart-294ddfa0-03f3-4920-8272-5e1a1306cc0d .series text.active{opacity:1}#chart-294ddfa0-03f3-4920-8272-5e1a1306cc0d .tooltip rect{fill-opacity:0.8}#chart-294ddfa0-03f3-4920-8272-5e1a1306cc0d .tooltip text{fill-opacity:1}#chart-294ddfa0-03f3-4920-8272-5e1a1306cc0d .tooltip text tspan.label{fill-opacity:.8}</style><script type="text/javascript">window.config = {"title_font_size": 16, "x_labels_major_count": null, "major_label_font_size": 10, "show_minor_y_labels": true, "css": ["style.css", "graph.css"], "mode": null, "tooltip_border_radius": 0, "margin_left": null, "order_min": null, "show_only_major_dots": false, "margin_bottom": null, "inner_radius": 0, "y_labels_major_count": null, "margin_top": null, "label_font_size": 10, "x_title": null, "range": null, "truncate_label": null, "include_x_axis": false, "x_labels": null, "interpolation_parameters": {}, "spacing": 10, "logarithmic": false, "stroke": true, "interpolate": null, "x_label_rotation": 0, "width": 1024, "style": {"stroke_dasharray": "0,0", "opacity_hover": ".4", "opacity": ".8", "stroke_width": 1.0, "foreground": "#999", "background": "black", "font_family": "monospace", "colors": ["#ff5995", "#b6e354", "#feed6c", "#8cedff", "#9e6ffe", "#899ca1", "#f8f8f2", "#bf4646", "#516083", "#f92672", "#82b414", "#fd971f", "#56c2d6", "#808384", "#8c54fe", "#465457"], "foreground_dark": "#555", "foreground_light": "#eee", "transition": "250ms", "plot_background": "#111", "stroke_style": "round"}, "stack_from_top": false, "x_labels_major": null, "no_data_font_size": 64, "y_label_rotation": 0, "xrange": null, "dots_size": 2.5, "show_minor_x_labels": true, "height": 768, "margin_right": null, "margin": 20, "show_y_guides": true, "no_data_text": "No data", "pretty_print": false, "js": ["http://kozea.github.io/pygal.js/javascripts/svg.jquery.js", "http://kozea.github.io/pygal.js/javascripts/pygal-tooltips.js"], "zero": 0, "y_labels_major_every": null, "show_x_guides": false, "truncate_legend": null, "show_x_labels": true, "rounded_bars": null, "y_title": "Users", "legend_at_bottom": true, "explicit_size": false, "interpolation_precision": 250, "value_font_size": 8, "x_label_format": "%Y-%m-%d %H:%M:%S.%f", "x_labels_major_every": null, "no_prefix": false, "half_pie": false, "y_labels": null, "print_values": false, "x_value_formatter": null, "missing_value_fill_truncation": "x", "show_y_labels": true, "y_labels_major": null, "strict": false, "disable_xml_declaration": false, "title": "Election 1 Participation", "human_readable": false, "fill": false, "legend_at_bottom_columns": null, "tooltip_font_size": 16, "print_zeroes": false, "show_legend": true, "legend_box_size": 12, "show_dots": false, "legend_font_size": 14}</script><script type="text/javascript" xlink:href="http://kozea.github.io/pygal.js/javascripts/svg.jquery.js" /><script type="text/javascript" xlink:href="http://kozea.github.io/pygal.js/javascripts/pygal-tooltips.js" /></defs><title>Election 1 Participation</title><g class="graph line-graph vertical"><rect class="background" height="768" width="1024" x="0" y="0" /><g class="plot" transform="translate(86, 46)"><rect class="background" height="657.0" width="918.0" x="0" y="0" /><g class="axis y"><path class="line" d="M0.000000 657.000000 h918.000000" /><g class="guides"><path class="major guide line" d="M0.000000 632.252861 h918.000000" /><text class="major" x="-5" y="635.752860775588">5000</text></g><g class="guides"><path class="guide line" d="M0.000000 562.640655 h918.000000" /><text class="" x="-5" y="566.1406547997457">6000</text></g><g class="guides"><path class="guide line" d="M0.000000 493.028449 h918.000000" /><text class="" x="-5" y="496.5284488239034">7000</text></g><g class="guides"><path class="guide line" d="M0.000000 423.416243 h918.000000" /><text class="" x="-5" y="426.916242848061">8000</text></g><g class="guides"><path class="guide line" d="M0.000000 353.804037 h918.000000" /><text class="" x="-5" y="357.3040368722187">9000</text></g><g class="guides"><path class="major guide line" d="M0.000000 284.191831 h918.000000" /><text class="major" x="-5" y="287.69183089637636">10000</text></g><g class="guides"><path class="guide line" d="M0.000000 214.579625 h918.000000" /><text class="" x="-5" y="218.079624920534">11000</text></g><g class="guides"><path class="guide line" d="M0.000000 144.967419 h918.000000" /><text class="" x="-5" y="148.46741894469164">12000</text></g><g class="guides"><path class="guide line" d="M0.000000 75.355213 h918.000000" /><text class="" x="-5" y="78.85521296884929">13000</text></g></g><g class="series serie-0 color-0"><path class="line reactive nofill" d="M17.653846 644.365385 L20.280907 644.365385 22.907967 644.365385 25.535027 644.365385 28.162088 644.365385 30.789148 644.365385 33.416209 644.365385 36.043269 644.365385 38.670330 644.365385 41.297390 644.365385 43.924451 644.365385 46.551511 644.365385 49.178571 644.365385 51.805632 644.365385 54.432692 644.365385 57.059753 644.365385 59.686813 644.365385 62.313874 644.365385 64.940934 644.365385 67.567995 644.365385 70.195055 644.365385 72.822115 644.365385 75.449176 644.365385 78.076236 644.365385 80.703297 644.365385 83.330357 644.365385 85.957418 644.365385 88.584478 644.365385 91.211538 644.365385 93.838599 644.365385 96.465659 644.365385 99.092720 644.365385 101.719780 644.365385 104.346841 644.365385 106.973901 644.365385 109.600962 644.365385 112.228022 644.365385 114.855082 644.365385 117.482143 644.365385 120.109203 644.365385 122.736264 644.365385 125.363324 644.365385 127.990385 644.365385 130.617445 644.365385 133.244505 644.365385 135.871566 644.365385 138.498626 644.365385 141.125687 644.365385 143.752747 644.365385 146.379808 644.365385 149.006868 644.365385 151.633929 644.365385 154.260989 644.365385 156.888049 644.365385 159.515110 644.365385 162.142170 644.365385 164.769231 644.365385 167.396291 644.365385 170.023352 644.365385 172.650412 644.365385 175.277473 644.365385 177.904533 644.365385 180.531593 644.365385 183.158654 644.365385 185.785714 644.365385 188.412775 644.365385 191.039835 644.365385 193.666896 644.365385 196.293956 644.365385 198.921016 644.365385 201.548077 644.365385 204.175137 644.365385 206.802198 644.365385 209.429258 644.365385 212.056319 644.365385 214.683379 644.365385 217.310440 644.365385 219.937500 644.365385 222.564560 644.365385 225.191621 644.365385 227.818681 644.365385 230.445742 644.365385 233.072802 644.365385 235.699863 644.365385 238.326923 644.365385 240.953984 644.365385 243.581044 644.365385 246.208104 644.365385 248.835165 644.365385 251.462225 644.365385 254.089286 644.365385 256.716346 644.365385 259.343407 644.365385 261.970467 644.365385 264.597527 644.365385 267.224588 644.365385 269.851648 644.365385 272.478709 644.365385 275.105769 644.365385 277.732830 644.365385 280.359890 644.365385 282.986951 644.365385 285.614011 644.365385 288.241071 644.365385 290.868132 644.365385 293.495192 644.365385 296.122253 644.365385 298.749313 644.365385 301.376374 644.365385 304.003434 644.365385 306.630495 644.365385 309.257555 644.365385 311.884615 644.365385 314.511676 644.365385 317.138736 644.365385 319.765797 644.365385 322.392857 644.365385 325.019918 644.365385 327.646978 644.365385 330.274038 644.365385 332.901099 644.365385 335.528159 644.365385 338.155220 644.365385 340.782280 644.365385 343.409341 644.365385 346.036401 644.365385 348.663462 644.365385 351.290522 644.365385 353.917582 644.365385 356.544643 644.365385 359.171703 644.365385 361.798764 644.365385 364.425824 644.365385 367.052885 644.365385 369.679945 644.365385 372.307005 644.365385 374.934066 644.365385 377.561126 644.365385 380.188187 644.365385 382.815247 644.365385 385.442308 644.365385 388.069368 644.365385 390.696429 644.365385 393.323489 644.365385 395.950549 644.365385 398.577610 644.365385 401.204670 644.365385 403.831731 644.365385 406.458791 644.365385 409.085852 644.365385 411.712912 644.365385 414.339973 644.365385 416.967033 644.365385 419.594093 644.365385 422.221154 644.365385 424.848214 644.365385 427.475275 644.365385 430.102335 644.365385 432.729396 644.365385 435.356456 644.365385 437.983516 644.365385 440.610577 644.365385 443.237637 644.365385 445.864698 644.365385 448.491758 644.365385 451.118819 644.365385 453.745879 644.365385 456.372940 644.365385 459.000000 644.365385 461.627060 644.365385 464.254121 644.365385 466.881181 644.365385 469.508242 644.365385 472.135302 644.365385 474.762363 644.365385 477.389423 644.365385 480.016484 644.365385 482.643544 644.365385 485.270604 644.365385 487.897665 644.365385 490.524725 644.365385 493.151786 644.365385 495.778846 644.365385 498.405907 644.365385 501.032967 644.365385 503.660027 644.365385 506.287088 644.365385 508.914148 644.365385 511.541209 644.365385 514.168269 644.365385 516.795330 644.365385 519.422390 644.365385 522.049451 644.365385 524.676511 644.365385 527.303571 644.365385 529.930632 644.365385 532.557692 644.365385 535.184753 644.365385 537.811813 644.365385 540.438874 644.365385 543.065934 644.365385 545.692995 644.365385 548.320055 644.365385 550.947115 644.365385 553.574176 644.365385 556.201236 644.365385 558.828297 644.365385 561.455357 644.365385 564.082418 644.365385 566.709478 644.365385 569.336538 644.365385 571.963599 644.365385 574.590659 644.365385 577.217720 644.365385 579.844780 644.365385 582.471841 644.365385 585.098901 644.365385 587.725962 644.365385 590.353022 644.365385 592.980082 644.365385 595.607143 644.365385 598.234203 644.365385 600.861264 644.365385 603.488324 644.365385 606.115385 644.365385 608.742445 644.365385 611.369505 644.365385 613.996566 644.365385 616.623626 644.365385 619.250687 644.365385 621.877747 644.365385 624.504808 644.365385 627.131868 644.365385 629.758929 644.365385 632.385989 644.365385 635.013049 644.365385 637.640110 644.365385 640.267170 644.365385 642.894231 644.365385 645.521291 644.365385 648.148352 644.365385 650.775412 644.365385 653.402473 644.365385 656.029533 644.365385 658.656593 644.365385 661.283654 644.365385 663.910714 644.365385 666.537775 644.365385 669.164835 644.365385 671.791896 644.365385 674.418956 644.365385 677.046016 644.365385 679.673077 644.365385 682.300137 644.365385 684.927198 644.365385 687.554258 644.365385 690.181319 644.365385 692.808379 644.365385 695.435440 644.365385 698.062500 644.365385 700.689560 644.365385 703.316621 644.365385 705.943681 644.365385 708.570742 644.365385 711.197802 644.365385 713.824863 644.365385 716.451923 644.365385 719.078984 644.365385 721.706044 644.365385 724.333104 644.365385 726.960165 644.365385 729.587225 644.365385 732.214286 644.365385 734.841346 644.365385 737.468407 644.365385 740.095467 644.365385 742.722527 644.365385 745.349588 644.365385 747.976648 644.365385 750.603709 644.365385 753.230769 644.365385 755.857830 644.365385 758.484890 644.365385 761.111951 644.365385 763.739011 644.365385 766.366071 644.365385 768.993132 644.365385 771.620192 644.365385 774.247253 644.365385 776.874313 644.365385 779.501374 644.365385 782.128434 644.365385 784.755495 644.365385 787.382555 644.365385 790.009615 644.365385 792.636676 644.365385 795.263736 644.365385 797.890797 644.365385 800.517857 644.365385 803.144918 644.365385 805.771978 644.365385 808.399038 644.365385 811.026099 644.365385 813.653159 644.365385 816.280220 644.365385 818.907280 644.365385 821.534341 644.365385 824.161401 644.365385 826.788462 644.365385 829.415522 644.365385 832.042582 644.365385 834.669643 644.365385 837.296703 644.365385 839.923764 644.365385 842.550824 644.365385 845.177885 644.365385 847.804945 644.365385 850.432005 644.365385 853.059066 644.365385 855.686126 644.365385 858.313187 644.365385 860.940247 644.365385 863.567308 644.365385 866.194368 644.365385 868.821429 644.365385 871.448489 644.365385 874.075549 644.365385 876.702610 644.365385 879.329670 644.365385 881.956731 644.365385 884.583791 644.365385 887.210852 644.365385 889.837912 644.365385 892.464973 644.365385 895.092033 644.365385 897.719093 644.365385 900.346154 644.365385" /></g><g class="series serie-1 color-1"><path class="line reactive nofill" d="M17.653846 12.913064 L20.280907 12.913064 22.907967 12.913064 25.535027 12.913064 28.162088 12.913064 30.789148 12.913064 33.416209 12.913064 36.043269 12.913064 38.670330 12.913064 41.297390 12.913064 43.924451 12.913064 46.551511 12.913064 49.178571 12.913064 51.805632 12.913064 54.432692 12.913064 57.059753 12.913064 59.686813 12.913064 62.313874 12.913064 64.940934 12.913064 67.567995 12.913064 70.195055 12.913064 72.822115 12.913064 75.449176 12.913064 78.076236 12.843452 80.703297 12.843452 83.330357 12.843452 85.957418 12.843452 88.584478 12.843452 91.211538 12.843452 93.838599 12.843452 96.465659 12.843452 99.092720 12.843452 101.719780 12.843452 104.346841 12.843452 106.973901 12.843452 109.600962 12.843452 112.228022 12.843452 114.855082 12.843452 117.482143 12.843452 120.109203 12.843452 122.736264 12.843452 125.363324 12.843452 127.990385 12.843452 130.617445 12.843452 133.244505 12.843452 135.871566 12.843452 138.498626 12.843452 141.125687 12.843452 143.752747 12.843452 146.379808 12.843452 149.006868 12.843452 151.633929 12.843452 154.260989 12.843452 156.888049 12.843452 159.515110 12.843452 162.142170 12.843452 164.769231 12.843452 167.396291 12.843452 170.023352 12.843452 172.650412 12.843452 175.277473 12.843452 177.904533 12.843452 180.531593 12.843452 183.158654 12.843452 185.785714 12.843452 188.412775 12.843452 191.039835 12.843452 193.666896 12.843452 196.293956 12.843452 198.921016 12.843452 201.548077 12.843452 204.175137 12.843452 206.802198 12.843452 209.429258 12.843452 212.056319 12.843452 214.683379 12.843452 217.310440 12.843452 219.937500 12.843452 222.564560 12.843452 225.191621 12.843452 227.818681 12.843452 230.445742 12.843452 233.072802 12.843452 235.699863 12.843452 238.326923 12.843452 240.953984 12.773840 243.581044 12.773840 246.208104 12.773840 248.835165 12.773840 251.462225 12.773840 254.089286 12.773840 256.716346 12.773840 259.343407 12.773840 261.970467 12.773840 264.597527 12.773840 267.224588 12.773840 269.851648 12.773840 272.478709 12.773840 275.105769 12.773840 277.732830 12.773840 280.359890 12.773840 282.986951 12.773840 285.614011 12.773840 288.241071 12.773840 290.868132 12.773840 293.495192 12.773840 296.122253 12.773840 298.749313 12.773840 301.376374 12.773840 304.003434 12.773840 306.630495 12.773840 309.257555 12.773840 311.884615 12.773840 314.511676 12.773840 317.138736 12.773840 319.765797 12.773840 322.392857 12.773840 325.019918 12.773840 327.646978 12.773840 330.274038 12.773840 332.901099 12.773840 335.528159 12.773840 338.155220 12.773840 340.782280 12.773840 343.409341 12.773840 346.036401 12.773840 348.663462 12.773840 351.290522 12.773840 353.917582 12.773840 356.544643 12.773840 359.171703 12.773840 361.798764 12.773840 364.425824 12.773840 367.052885 12.773840 369.679945 12.773840 372.307005 12.773840 374.934066 12.773840 377.561126 12.773840 380.188187 12.773840 382.815247 12.773840 385.442308 12.773840 388.069368 12.773840 390.696429 12.773840 393.323489 12.773840 395.950549 12.773840 398.577610 12.773840 401.204670 12.773840 403.831731 12.773840 406.458791 12.773840 409.085852 12.773840 411.712912 12.773840 414.339973 12.773840 416.967033 12.773840 419.594093 12.773840 422.221154 12.773840 424.848214 12.773840 427.475275 12.773840 430.102335 12.773840 432.729396 12.773840 435.356456 12.773840 437.983516 12.773840 440.610577 12.773840 443.237637 12.773840 445.864698 12.773840 448.491758 12.773840 451.118819 12.773840 453.745879 12.773840 456.372940 12.773840 459.000000 12.773840 461.627060 12.773840 464.254121 12.773840 466.881181 12.773840 469.508242 12.773840 472.135302 12.773840 474.762363 12.773840 477.389423 12.773840 480.016484 12.773840 482.643544 12.773840 485.270604 12.773840 487.897665 12.773840 490.524725 12.773840 493.151786 12.773840 495.778846 12.773840 498.405907 12.773840 501.032967 12.773840 503.660027 12.773840 506.287088 12.773840 508.914148 12.773840 511.541209 12.773840 514.168269 12.773840 516.795330 12.773840 519.422390 12.773840 522.049451 12.773840 524.676511 12.773840 527.303571 12.773840 529.930632 12.773840 532.557692 12.773840 535.184753 12.773840 537.811813 12.773840 540.438874 12.773840 543.065934 12.773840 545.692995 12.773840 548.320055 12.773840 550.947115 12.773840 553.574176 12.773840 556.201236 12.773840 558.828297 12.773840 561.455357 12.773840 564.082418 12.773840 566.709478 12.773840 569.336538 12.773840 571.963599 12.773840 574.590659 12.773840 577.217720 12.773840 579.844780 12.773840 582.471841 12.773840 585.098901 12.773840 587.725962 12.773840 590.353022 12.773840 592.980082 12.773840 595.607143 12.773840 598.234203 12.773840 600.861264 12.773840 603.488324 12.773840 606.115385 12.773840 608.742445 12.773840 611.369505 12.773840 613.996566 12.773840 616.623626 12.704228 619.250687 12.704228 621.877747 12.704228 624.504808 12.704228 627.131868 12.704228 629.758929 12.704228 632.385989 12.704228 635.013049 12.704228 637.640110 12.704228 640.267170 12.704228 642.894231 12.704228 645.521291 12.704228 648.148352 12.704228 650.775412 12.704228 653.402473 12.704228 656.029533 12.704228 658.656593 12.704228 661.283654 12.704228 663.910714 12.704228 666.537775 12.704228 669.164835 12.704228 671.791896 12.704228 674.418956 12.704228 677.046016 12.704228 679.673077 12.704228 682.300137 12.704228 684.927198 12.704228 687.554258 12.704228 690.181319 12.704228 692.808379 12.704228 695.435440 12.704228 698.062500 12.704228 700.689560 12.704228 703.316621 12.704228 705.943681 12.704228 708.570742 12.704228 711.197802 12.704228 713.824863 12.704228 716.451923 12.704228 719.078984 12.704228 721.706044 12.704228 724.333104 12.704228 726.960165 12.704228 729.587225 12.704228 732.214286 12.704228 734.841346 12.704228 737.468407 12.704228 740.095467 12.704228 742.722527 12.704228 745.349588 12.704228 747.976648 12.704228 750.603709 12.704228 753.230769 12.704228 755.857830 12.704228 758.484890 12.704228 761.111951 12.704228 763.739011 12.704228 766.366071 12.704228 768.993132 12.704228 771.620192 12.704228 774.247253 12.704228 776.874313 12.704228 779.501374 12.704228 782.128434 12.704228 784.755495 12.704228 787.382555 12.704228 790.009615 12.704228 792.636676 12.704228 795.263736 12.704228 797.890797 12.704228 800.517857 12.704228 803.144918 12.704228 805.771978 12.704228 808.399038 12.704228 811.026099 12.704228 813.653159 12.704228 816.280220 12.704228 818.907280 12.704228 821.534341 12.704228 824.161401 12.704228 826.788462 12.634615 829.415522 12.634615 832.042582 12.634615 834.669643 12.634615 837.296703 12.634615 839.923764 12.634615 842.550824 12.634615 845.177885 12.634615 847.804945 12.634615 850.432005 12.634615 853.059066 12.634615 855.686126 12.634615 858.313187 12.634615 860.940247 12.634615 863.567308 12.634615 866.194368 12.634615 868.821429 12.634615 871.448489 12.634615 874.075549 12.634615 876.702610 12.634615 879.329670 12.634615 881.956731 12.634615 884.583791 12.634615 887.210852 12.634615 889.837912 12.634615 892.464973 12.634615 895.092033 12.634615 897.719093 12.634615 900.346154 12.634615" /></g></g><g class="titles"><text class="title plot_title" x="512.0" y="26">Election 1 Participation</text><text class="title" transform="rotate(-90 0.000000 374.500000)" x="0" y="400.5">Users</text></g><g class="plot overlay" transform="translate(86, 46)"><g class="series serie-0 color-0" /><g class="series serie-1 color-1" /></g><g class="plot text-overlay" transform="translate(86, 46)"><g class="series serie-0 color-0" /><g class="series serie-1 color-1" /></g><g class="plot tooltip-overlay" transform="translate(86, 46)"><g class="tooltip" style="opacity: 0" transform="translate(0 0)"><a><rect class="tooltip-box" height="0" rx="0" ry="0" width="0" /><text class="text"><tspan class="label" /><tspan class="value" /></text></a></g></g><g class="legends" transform="translate(96, 713)"><g class="legend reactive activate-serie" id="activate-serie-0"><rect class="color-0 reactive" height="12" width="12" x="0.0" y="1.0" /><text x="17.0" y="11.2">constituents</text></g><g class="legend reactive activate-serie" id="activate-serie-1"><rect class="color-1 reactive" height="12" width="12" x="459.0" y="1.0" /><text x="476.0" y="11.2">caucus</text></g></g></g></svg>