<?xml version='1.0' encoding='utf-8'?>
<svg xmlns:xlink="http://www.w3.org/1999/xlink" class="pygal-chart" id="chart-9317c094-61c0-42a8-aebc-ac20c9fe5f4a" viewBox="0 0 1024 768" xmlns="http://www.w3.org/2000/svg"><!--Generated with pygal 1.7.0 (etree) ©Kozea 2011-2014 on 2015-04-20--><!--http://pygal.org--><!--http://github.com/Kozea/pygal--><defs><style type="text/css">#chart-9317c094-61c0-42a8-aebc-ac20c9fe5f4a .title{font-family:"monospace";font-size:16px}#chart-9317c094-61c0-42a8-aebc-ac20c9fe5f4a .legends .legend text{font-family:"monospace";font-size:14px}#chart-9317c094-61c0-42a8-aebc-ac20c9fe5f4a .axis text{font-family:"monospace";font-size:10px}#chart-9317c094-61c0-42a8-aebc-ac20c9fe5f4a .axis text.major{font-family:"monospace";font-size:10px}#chart-9317c094-61c0-42a8-aebc-ac20c9fe5f4a .series text{font-family:"monospace";font-size:8px}#chart-9317c094-61c0-42a8-aebc-ac20c9fe5f4a .tooltip text{font-family:"monospace";font-size:16px}#chart-9317c094-61c0-42a8-aebc-ac20c9fe5f4a text.no_data{font-size:64px}
#chart-9317c094-61c0-42a8-aebc-ac20c9fe5f4a{background-color:black}#chart-9317c094-61c0-42a8-aebc-ac20c9fe5f4a path,#chart-9317c094-61c0-42a8-aebc-ac20c9fe5f4a line,#chart-9317c094-61c0-42a8-aebc-ac20c9fe5f4a rect,#chart-9317c094-61c0-42a8-aebc-ac20c9fe5f4a circle{-webkit-transition:250ms;-moz-transition:250ms;transition:250ms}#chart-9317c094-61c0-42a8-aebc-ac20c9fe5f4a .graph &gt; .background{fill:black}#chart-9317c094-61c0-42a8-aebc-ac20c9fe5f4a .plot &gt; .background{fill:#111}#chart-9317c094-61c0-42a8-aebc-ac20c9fe5f4a .graph{fill:#999}#chart-9317c094-61c0-42a8-aebc-ac20c9fe5f4a text.no_data{fill:#eee}#chart-9317c094-61c0-42a8-aebc-ac20c9fe5f4a .title{fill:#eee}#chart-9317c094-61c0-42a8-aebc-ac20c9fe5f4a .legends .legend text{fill:#999}#chart-9317c094-61c0-42a8-aebc-ac20c9fe5f4a .legends .legend:hover text{fill:#eee}#chart-9317c094-61c0-42a8-aebc-ac20c9fe5f4a .axis .line{stroke:#eee}#chart-9317c094-61c0-42a8-aebc-ac20c9fe5f4a .axis .guide.line{stroke:#555}#chart-9317c094-61c0-42a8-aebc-ac20c9fe5f4a .axis .major.line{stroke:#999}#chart-9317c094-61c0-42a8-aebc-ac20c9fe5f4a .axis text.major{stroke:#eee;fill:#eee}#chart-9317c094-61c0-42a8-aebc-ac20c9fe5f4a .axis.y .guides:hover .guide.line,#chart-9317c094-61c0-42a8-aebc-ac20c9fe5f4a .line-graph .axis.x .guides:hover .guide.line,#chart-9317c094-61c0-42a8-aebc-ac20c9fe5f4a .stackedline-graph .axis.x .guides:hover .guide.line,#chart-9317c094-61c0-42a8-aebc-ac20c9fe5f4a .xy-graph .axis.x .guides:hover .guide.line{stroke:#eee}#chart-9317c094-61c0-42a8-aebc-ac20c9fe5f4a .axis .guides:hover text{fill:#eee}#chart-9317c094-61c0-42a8-aebc-ac20c9fe5f4a .reactive{fill-opacity:.8}#chart-9317c094-61c0-42a8-aebc-ac20c9fe5f4a .reactive.active,#chart-9317c094-61c0-42a8-aebc-ac20c9fe5f4a .active .reactive{fill-opacity:.4}#chart-9317c094-61c0-42a8-aebc-ac20c9fe5f4a .series{stroke-width:1.0;stroke-linejoin:round;stroke-linecap:round;stroke-dasharray:0,0}#chart-9317c094-61c0-42a8-aebc-ac20c9fe5f4a .series text{fill:#eee}#chart-9317c094-61c0-42a8-aebc-ac20c9fe5f4a .tooltip rect{fill:#111;stroke:#eee}#chart-9317c094-61c0-42a8-aebc-ac20c9fe5f4a .tooltip text{fill:#eee}#chart-9317c094-61c0-42a8-aebc-ac20c9fe5f4a .map-element{fill:#999;stroke:#555 !important;opacity:.9;stroke-width:3;-webkit-transition:250ms;-moz-transition:250ms;-o-transition:250ms;transition:250ms}#chart-9317c094-61c0-42a8-aebc-ac20c9fe5f4a .map-element:hover{opacity:1;stroke-width:10}#chart-9317c094-61c0-42a8-aebc-ac20c9fe5f4a .color-0,#chart-9317c094-61c0-42a8-aebc-ac20c9fe5f4a .color-0 a:visited{stroke:#ff5995;fill:#ff5995}#chart-9317c094-61c0-42a8-aebc-ac20c9fe5f4a .color-1,#chart-9317c094-61c0-42a8-aebc-ac20c9fe5f4a .color-1 a:visited{stroke:#b6e354;fill:#b6e354}#chart-9317c094-61c0-42a8-aebc-ac20c9fe5f4a .color-2,#chart-9317c094-61c0-42a8-aebc-ac20c9fe5f4a .color-2 a:visited{stroke:#feed6c;fill:#feed6c}#chart-9317c094-61c0-42a8-aebc-ac20c9fe5f4a .color-3,#chart-9317c094-61c0-42a8-aebc-ac20c9fe5f4a .color-3 a:visited{stroke:#8cedff;fill:#8cedff}#chart-9317c094-61c0-42a8-aebc-ac20c9fe5f4a .color-4,#chart-9317c094-61c0-42a8-aebc-ac20c9fe5f4a .color-4 a:visited{stroke:#9e6ffe;fill:#9e6ffe}#chart-9317c094-61c0-42a8-aebc-ac20c9fe5f4a .color-5,#chart-9317c094-61c0-42a8-aebc-ac20c9fe5f4a .color-5 a:visited{stroke:#899ca1;fill:#899ca1}#chart-9317c094-61c0-42a8-aebc-ac20c9fe5f4a .color-6,#chart-9317c094-61c0-42a8-aebc-ac20c9fe5f4a .color-6 a:visited{stroke:#f8f8f2;fill:#f8f8f2}#chart-9317c094-61c0-42a8-aebc-ac20c9fe5f4a .color-7,#chart-9317c094-61c0-42a8-aebc-ac20c9fe5f4a .color-7 a:visited{stroke:#bf4646;fill:#bf4646}#chart-9317c094-61c0-42a8-aebc-ac20c9fe5f4a .color-8,#chart-9317c094-61c0-42a8-aebc-ac20c9fe5f4a .color-8 a:visited{stroke:#516083;fill:#516083}#chart-9317c094-61c0-42a8-aebc-ac20c9fe5f4a .color-9,#chart-9317c094-61c0-42a8-aebc-ac20c9fe5f4a .color-9 a:visited{stroke:#f92672;fill:#f92672}#chart-9317c094-61c0-42a8-aebc-ac20c9fe5f4a .color-10,#chart-9317c094-61c0-42a8-aebc-ac20c9fe5f4a .color-10 a:visited{stroke:#82b414;fill:#82b414}#chart-9317c094-61c0-42a8-aebc-ac20c9fe5f4a .color-11,#chart-9317c094-61c0-42a8-aebc-ac20c9fe5f4a .color-11 a:visited{stroke:#fd971f;fill:#fd971f}#chart-9317c094-61c0-42a8-aebc-ac20c9fe5f4a .color-12,#chart-9317c094-61c0-42a8-aebc-ac20c9fe5f4a .color-12 a:visited{stroke:#56c2d6;fill:#56c2d6}#chart-9317c094-61c0-42a8-aebc-ac20c9fe5f4a .color-13,#chart-9317c094-61c0-42a8-aebc-ac20c9fe5f4a .color-13 a:visited{stroke:#808384;fill:#808384}#chart-9317c094-61c0-42a8-aebc-ac20c9fe5f4a .color-14,#chart-9317c094-61c0-42a8-aebc-ac20c9fe5f4a .color-14 a:visited{stroke:#8c54fe;fill:#8c54fe}#chart-9317c094-61c0-42a8-aebc-ac20c9fe5f4a .color-15,#chart-9317c094-61c0-42a8-aebc-ac20c9fe5f4a .color-15 a:visited{stroke:#465457;fill:#465457}
#chart-9317c094-61c0-42a8-aebc-ac20c9fe5f4a text.no_data{text-anchor:middle}#chart-9317c094-61c0-42a8-aebc-ac20c9fe5f4a .guide.line{fill-opacity:0}#chart-9317c094-61c0-42a8-aebc-ac20c9fe5f4a .centered{text-anchor:middle}#chart-9317c094-61c0-42a8-aebc-ac20c9fe5f4a .title{text-anchor:middle}#chart-9317c094-61c0-42a8-aebc-ac20c9fe5f4a .legends .legend text{fill-opacity:1}#chart-9317c094-61c0-42a8-aebc-ac20c9fe5f4a .axis.x text{text-anchor:middle}#chart-9317c094-61c0-42a8-aebc-ac20c9fe5f4a .axis.x:not(.web) text[transform]{text-anchor:start}#chart-9317c094-61c0-42a8-aebc-ac20c9fe5f4a .axis.y text{text-anchor:end}#chart-9317c094-61c0-42a8-aebc-ac20c9fe5f4a .axis.y2 text{text-anchor:start}#chart-9317c094-61c0-42a8-aebc-ac20c9fe5f4a .axis.y .logarithmic text:not(.major),#chart-9317c094-61c0-42a8-aebc-ac20c9fe5f4a .axis.y2 .logarithmic text:not(.major){font-size:50%}#chart-9317c094-61c0-42a8-aebc-ac20c9fe5f4a .axis .guide.line{stroke-dasharray:4,4}#chart-9317c094-61c0-42a8-aebc-ac20c9fe5f4a .axis .major.guide.line{stroke-dasharray:6,6}#chart-9317c094-61c0-42a8-aebc-ac20c9fe5f4a .axis text.major{stroke-width:0.5px}#chart-9317c094-61c0-42a8-aebc-ac20c9fe5f4a .horizontal .axis.y .guide.line,#chart-9317c094-61c0-42a8-aebc-ac20c9fe5f4a .horizontal .axis.y2 .guide.line,#chart-9317c094-61c0-42a8-aebc-ac20c9fe5f4a .vertical .axis.x .guide.line{opacity:0}#chart-9317c094-61c0-42a8-aebc-ac20c9fe5f4a .horizontal .axis.always_show .guide.line,#chart-9317c094-61c0-42a8-aebc-ac20c9fe5f4a .vertical .axis.always_show .guide.line{opacity:1 !important}#chart-9317c094-61c0-42a8-aebc-ac20c9fe5f4a .axis.y .guides:hover .guide.line,#chart-9317c094-61c0-42a8-aebc-ac20c9fe5f4a .axis.y2 .guides:hover .guide.line,#chart-9317c094-61c0-42a8-aebc-ac20c9fe5f4a .axis.x .guides:hover .guide.line{opacity:1}#chart-9317c094-61c0-42a8-aebc-ac20c9fe5f4a .axis .guides:hover text{opacity:1}#chart-9317c094-61c0-42a8-aebc-ac20c9fe5f4a .nofill{fill:none}#chart-9317c094-61c0-42a8-aebc-ac20c9fe5f4a .subtle-fill{fill-opacity:.2}#chart-9317c094-61c0-42a8-aebc-ac20c9fe5f4a .dot{stroke-width:1px;fill-opacity:1}#chart-9317c094-61c0-42a8-aebc-ac20c9fe5f4a .dot.active{stroke-width:5px}#chart-9317c094-61c0-42a8-aebc-ac20c9fe5f4a .series text{stroke:none}#chart-9317c094-61c0-42a8-aebc-ac20c9fe5f4a .series text.active{opacity:1}#chart-9317c094-61c0-42a8-aebc-ac20c9fe5f4a .tooltip rect{fill-opacity:0.8}#chart-9317c094-61c0-42a8-aebc-ac20c9fe5f4a .tooltip text{fill-opacity:1}#chart-9317c094-61c0-42a8-aebc-ac20c9fe5f4a .tooltip text tspan.label{fill-opacity:.8}</style><script type="text/javascript">window.config = {"title_font_size": 16, "x_labels_major_count": null, "major_label_font_size": 10, "show_minor_y_labels": true, "css": ["style.css", "graph.css"], "mode": null, "tooltip_border_radius": 0, "margin_left": null, "order_min": null, "show_only_major_dots": false, "margin_bottom": null, "inner_radius": 0, "y_labels_major_count": null, "margin_top": null, "label_font_size": 10, "x_title": null, "range": [0, 1000], "truncate_label": null, "include_x_axis": false, "x_labels": null, "interpolation_parameters": {}, "spacing": 10, "logarithmic": false, "stroke": true, "interpolate": null, "x_label_rotation": 0, "width": 1024, "style": {"stroke_dasharray": "0,0", "opacity_hover": ".4", "opacity": ".8", "stroke_width": 1.0, "foreground": "#999", "background": "black", "font_family": "monospace", "colors": ["#ff5995", "#b6e354", "#feed6c", "#8cedff", "#9e6ffe", "#899ca1", "#f8f8f2", "#bf4646", "#516083", "#f92672", "#82b414", "#fd971f", "#56c2d6", "#808384", "#8c54fe", "#465457"], "foreground_dark": "#555", "foreground_light": "#eee", "transition": "250ms", "plot_background": "#111", "stroke_style": "round"}, "stack_from_top": false, "x_labels_major": null, "no_data_font_size": 64, "y_label_rotation": 0, "xrange": null, "dots_size": 2.5, "show_minor_x_labels": true, "height": 768, "margin_right": null, "margin": 20, "show_y_guides": true, "no_data_text": "No data", "pretty_print": false, "js": ["http://kozea.github.io/pygal.js/javascripts/svg.jquery.js", "http://kozea.github.io/pygal.js/javascripts/pygal-tooltips.js"], "zero": 0, "y_labels_major_every": null, "show_x_guides": false, "truncate_legend": null, "show_x_labels": true, "rounded_bars": null, "y_title": "Users", "legend_at_bottom": true, "explicit_size": false, "interpolation_precision": 250, "value_font_size": 8, "x_label_format": "%Y-%m-%d %H:%M:%S.%f", "x_labels_major_every": null, "no_prefix": false, "half_pie": false, "y_labels": null, "print_values": false, "x_value_formatter": null, "missing_value_fill_truncation": "x", "show_y_labels": true, "y_labels_major": null, "strict": false, "disable_xml_declaration": false, "title": "Election 4 Participation Per Hour", "human_readable": false, "fill": false, "legend_at_bottom_columns": null, "tooltip_font_size": 16, "print_zeroes": false, "show_legend": true, "legend_box_size": 12, "show_dots": false, "legend_font_size": 14}</script><script type="text/javascript" xlink:href="http://kozea.github.io/pygal.js/javascripts/svg.jquery.js" /><script type="text/javascript" xlink:href="http://kozea.github.io/pygal.js/javascripts/pygal-tooltips.js" /></defs><title>Election 4 Participation Per Hour</title><g class="graph line-graph vertical"><rect class="background" height="768" width="1024" x="0" y="0" /><g class="plot" transform="translate(80, 46)"><rect class="background" height="657.0" width="924.0" x="0" y="0" /><g class="axis y"><g class="guides"><path class="axis major line" d="M0.000000 644.365385 h924.000000" /><text class="major" x="-5" y="647.8653846153846">0</text></g><g class="guides"><path class="guide line" d="M0.000000 581.192308 h924.000000" /><text class="" x="-5" y="584.6923076923077">100</text></g><g class="guides"><path class="guide line" d="M0.000000 518.019231 h924.000000" /><text class="" x="-5" y="521.5192307692307">200</text></g><g class="guides"><path class="guide line" d="M0.000000 454.846154 h924.000000" /><text class="" x="-5" y="458.3461538461538">300</text></g><g class="guides"><path class="guide line" d="M0.000000 391.673077 h924.000000" /><text class="" x="-5" y="395.1730769230769">400</text></g><g class="guides"><path class="major guide line" d="M0.000000 328.500000 h924.000000" /><text class="major" x="-5" y="332.0">500</text></g><g class="guides"><path class="guide line" d="M0.000000 265.326923 h924.000000" /><text class="" x="-5" y="268.8269230769231">600</text></g><g class="guides"><path class="guide line" d="M0.000000 202.153846 h924.000000" /><text class="" x="-5" y="205.65384615384613">700</text></g><g class="guides"><path class="guide line" d="M0.000000 138.980769 h924.000000" /><text class="" x="-5" y="142.48076923076928">800</text></g><g class="guides"><path class="guide line" d="M0.000000 75.807692 h924.000000" /><text class="" x="-5" y="79.30769230769226">900</text></g><g class="guides"><path class="major guide line" d="M0.000000 12.634615 h924.000000" /><text class="major" x="-5" y="16.13461538461536">1000</text></g></g><g class="series serie-0 color-0"><path class="line reactive nofill" d="M17.769231 644.365385 L20.413462 644.365385 23.057692 644.365385 25.701923 644.365385 28.346154 644.365385 30.990385 644.365385 33.634615 644.365385 36.278846 644.365385 38.923077 644.365385 41.567308 644.365385 44.211538 644.365385 46.855769 644.365385 49.500000 644.365385 52.144231 644.365385 54.788462 644.365385 57.432692 644.365385 60.076923 644.365385 62.721154 644.365385 65.365385 644.365385 68.009615 644.365385 70.653846 644.365385 73.298077 644.365385 75.942308 644.365385 78.586538 644.365385 81.230769 644.365385 83.875000 644.365385 86.519231 644.365385 89.163462 644.365385 91.807692 644.365385 94.451923 644.365385 97.096154 644.365385 99.740385 644.365385 102.384615 644.365385 105.028846 644.365385 107.673077 644.365385 110.317308 644.365385 112.961538 644.365385 115.605769 644.365385 118.250000 644.365385 120.894231 644.365385 123.538462 644.365385 126.182692 644.365385 128.826923 644.365385 131.471154 644.365385 134.115385 644.365385 136.759615 644.365385 139.403846 644.365385 142.048077 644.365385 144.692308 644.365385 147.336538 644.365385 149.980769 644.365385 152.625000 644.365385 155.269231 644.365385 157.913462 644.365385 160.557692 644.365385 163.201923 644.365385 165.846154 644.365385 168.490385 644.365385 171.134615 644.365385 173.778846 644.365385 176.423077 644.365385 179.067308 644.365385 181.711538 644.365385 184.355769 644.365385 187.000000 644.365385 189.644231 644.365385 192.288462 644.365385 194.932692 644.365385 197.576923 644.365385 200.221154 644.365385 202.865385 644.365385 205.509615 644.365385 208.153846 644.365385 210.798077 644.365385 213.442308 644.365385 216.086538 644.365385 218.730769 644.365385 221.375000 644.365385 224.019231 644.365385 226.663462 644.365385 229.307692 644.365385 231.951923 644.365385 234.596154 644.365385 237.240385 644.365385 239.884615 644.365385 242.528846 644.365385 245.173077 644.365385 247.817308 644.365385 250.461538 644.365385 253.105769 644.365385 255.750000 644.365385 258.394231 644.365385 261.038462 644.365385 263.682692 644.365385 266.326923 644.365385 268.971154 644.365385 271.615385 644.365385 274.259615 644.365385 276.903846 644.365385 279.548077 644.365385 282.192308 644.365385 284.836538 644.365385 287.480769 644.365385 290.125000 644.365385 292.769231 644.365385 295.413462 644.365385 298.057692 644.365385 300.701923 644.365385 303.346154 644.365385 305.990385 644.365385 308.634615 644.365385 311.278846 644.365385 313.923077 644.365385 316.567308 644.365385 319.211538 644.365385 321.855769 644.365385 324.500000 644.365385 327.144231 644.365385 329.788462 644.365385 332.432692 644.365385 335.076923 644.365385 337.721154 644.365385 340.365385 644.365385 343.009615 644.365385 345.653846 644.365385 348.298077 644.365385 350.942308 644.365385 353.586538 644.365385 356.230769 644.365385 358.875000 644.365385 361.519231 644.365385 364.163462 644.365385 366.807692 644.365385 369.451923 644.365385 372.096154 644.365385 374.740385 644.365385 377.384615 644.365385 380.028846 644.365385 382.673077 644.365385 385.317308 644.365385 387.961538 644.365385 390.605769 644.365385 393.250000 644.365385 395.894231 644.365385 398.538462 644.365385 401.182692 644.365385 403.826923 644.365385 406.471154 644.365385 409.115385 644.365385 411.759615 644.365385 414.403846 644.365385 417.048077 644.365385 419.692308 644.365385 422.336538 644.365385 424.980769 644.365385 427.625000 644.365385 430.269231 644.365385 432.913462 644.365385 435.557692 644.365385 438.201923 644.365385 440.846154 644.365385 443.490385 644.365385 446.134615 644.365385 448.778846 644.365385 451.423077 644.365385 454.067308 644.365385 456.711538 644.365385 459.355769 644.365385 462.000000 644.365385 464.644231 644.365385 467.288462 644.365385 469.932692 644.365385 472.576923 644.365385 475.221154 644.365385 477.865385 644.365385 480.509615 644.365385 483.153846 644.365385 485.798077 644.365385 488.442308 644.365385 491.086538 644.365385 493.730769 644.365385 496.375000 644.365385 499.019231 644.365385 501.663462 644.365385 504.307692 644.365385 506.951923 644.365385 509.596154 644.365385 512.240385 644.365385 514.884615 644.365385 517.528846 644.365385 520.173077 644.365385 522.817308 644.365385 525.461538 644.365385 528.105769 644.365385 530.750000 644.365385 533.394231 644.365385 536.038462 644.365385 538.682692 644.365385 541.326923 644.365385 543.971154 644.365385 546.615385 644.365385 549.259615 644.365385 551.903846 644.365385 554.548077 644.365385 557.192308 644.365385 559.836538 644.365385 562.480769 644.365385 565.125000 644.365385 567.769231 644.365385 570.413462 644.365385 573.057692 644.365385 575.701923 644.365385 578.346154 644.365385 580.990385 644.365385 583.634615 644.365385 586.278846 644.365385 588.923077 644.365385 591.567308 644.365385 594.211538 644.365385 596.855769 644.365385 599.500000 644.365385 602.144231 644.365385 604.788462 644.365385 607.432692 644.365385 610.076923 644.365385 612.721154 644.365385 615.365385 644.365385 618.009615 644.365385 620.653846 644.365385 623.298077 644.365385 625.942308 644.365385 628.586538 644.365385 631.230769 644.365385 633.875000 644.365385 636.519231 644.365385 639.163462 644.365385 641.807692 644.365385 644.451923 644.365385 647.096154 644.365385 649.740385 644.365385 652.384615 644.365385 655.028846 644.365385 657.673077 644.365385 660.317308 644.365385 662.961538 644.365385 665.605769 644.365385 668.250000 644.365385 670.894231 644.365385 673.538462 644.365385 676.182692 644.365385 678.826923 644.365385 681.471154 644.365385 684.115385 644.365385 686.759615 644.365385 689.403846 644.365385 692.048077 644.365385 694.692308 644.365385 697.336538 644.365385 699.980769 644.365385 702.625000 644.365385 705.269231 644.365385 707.913462 644.365385 710.557692 644.365385 713.201923 644.365385 715.846154 644.365385 718.490385 644.365385 721.134615 644.365385 723.778846 644.365385 726.423077 644.365385 729.067308 644.365385 731.711538 644.365385 734.355769 644.365385 737.000000 644.365385 739.644231 644.365385 742.288462 644.365385 744.932692 644.365385 747.576923 644.365385 750.221154 644.365385 752.865385 644.365385 755.509615 644.365385 758.153846 644.365385 760.798077 644.365385 763.442308 644.365385 766.086538 644.365385 768.730769 644.365385 771.375000 644.365385 774.019231 644.365385 776.663462 644.365385 779.307692 644.365385 781.951923 644.365385 784.596154 644.365385 787.240385 644.365385 789.884615 644.365385 792.528846 644.365385 795.173077 644.365385 797.817308 644.365385 800.461538 644.365385 803.105769 644.365385 805.750000 644.365385 808.394231 644.365385 811.038462 644.365385 813.682692 644.365385 816.326923 644.365385 818.971154 644.365385 821.615385 644.365385 824.259615 644.365385 826.903846 644.365385 829.548077 644.365385 832.192308 644.365385 834.836538 644.365385 837.480769 644.365385 840.125000 644.365385 842.769231 644.365385 845.413462 644.365385 848.057692 644.365385 850.701923 644.365385 853.346154 644.365385 855.990385 644.365385 858.634615 644.365385 861.278846 644.365385 863.923077 644.365385 866.567308 644.365385 869.211538 644.365385 871.855769 644.365385 874.500000 644.365385 877.144231 644.365385 879.788462 644.365385 882.432692 644.365385 885.076923 644.365385 887.721154 644.365385 890.365385 644.365385 893.009615 644.365385 895.653846 644.365385 898.298077 644.365385 900.942308 644.365385 903.586538 644.365385 906.230769 644.365385" /></g><g class="series serie-1 color-1"><path class="line reactive nofill" d="M17.769231 643.733654 L20.413462 644.365385 23.057692 644.365385 25.701923 644.365385 28.346154 644.365385 30.990385 644.365385 33.634615 644.365385 36.278846 644.365385 38.923077 644.365385 41.567308 644.365385 44.211538 644.365385 46.855769 644.365385 49.500000 644.365385 52.144231 644.365385 54.788462 644.365385 57.432692 644.365385 60.076923 644.365385 62.721154 644.365385 65.365385 644.365385 68.009615 644.365385 70.653846 644.365385 73.298077 644.365385 75.942308 644.365385 78.586538 644.365385 81.230769 644.365385 83.875000 644.365385 86.519231 644.365385 89.163462 644.365385 91.807692 644.365385 94.451923 644.365385 97.096154 644.365385 99.740385 644.365385 102.384615 644.365385 105.028846 643.733654 107.673077 644.365385 110.317308 644.365385 112.961538 644.365385 115.605769 644.365385 118.250000 644.365385 120.894231 644.365385 123.538462 644.365385 126.182692 644.365385 128.826923 644.365385 131.471154 644.365385 134.115385 644.365385 136.759615 644.365385 139.403846 644.365385 142.048077 644.365385 144.692308 644.365385 147.336538 644.365385 149.980769 644.365385 152.625000 643.733654 155.269231 644.365385 157.913462 644.365385 160.557692 644.365385 163.201923 644.365385 165.846154 644.365385 168.490385 644.365385 171.134615 644.365385 173.778846 644.365385 176.423077 644.365385 179.067308 644.365385 181.711538 644.365385 184.355769 643.733654 187.000000 644.365385 189.644231 644.365385 192.288462 644.365385 194.932692 644.365385 197.576923 644.365385 200.221154 644.365385 202.865385 644.365385 205.509615 644.365385 208.153846 644.365385 210.798077 644.365385 213.442308 644.365385 216.086538 644.365385 218.730769 644.365385 221.375000 644.365385 224.019231 644.365385 226.663462 644.365385 229.307692 644.365385 231.951923 644.365385 234.596154 644.365385 237.240385 644.365385 239.884615 644.365385 242.528846 644.365385 245.173077 644.365385 247.817308 644.365385 250.461538 644.365385 253.105769 644.365385 255.750000 644.365385 258.394231 644.365385 261.038462 644.365385 263.682692 644.365385 266.326923 644.365385 268.971154 644.365385 271.615385 644.365385 274.259615 644.365385 276.903846 644.365385 279.548077 644.365385 282.192308 644.365385 284.836538 644.365385 287.480769 644.365385 290.125000 644.365385 292.769231 644.365385 295.413462 644.365385 298.057692 644.365385 300.701923 644.365385 303.346154 644.365385 305.990385 644.365385 308.634615 644.365385 311.278846 644.365385 313.923077 644.365385 316.567308 644.365385 319.211538 644.365385 321.855769 644.365385 324.500000 644.365385 327.144231 644.365385 329.788462 644.365385 332.432692 644.365385 335.076923 644.365385 337.721154 644.365385 340.365385 644.365385 343.009615 644.365385 345.653846 644.365385 348.298077 644.365385 350.942308 644.365385 353.586538 644.365385 356.230769 644.365385 358.875000 644.365385 361.519231 644.365385 364.163462 644.365385 366.807692 644.365385 369.451923 644.365385 372.096154 644.365385 374.740385 644.365385 377.384615 644.365385 380.028846 644.365385 382.673077 644.365385 385.317308 644.365385 387.961538 644.365385 390.605769 644.365385 393.250000 644.365385 395.894231 644.365385 398.538462 644.365385 401.182692 644.365385 403.826923 644.365385 406.471154 644.365385 409.115385 644.365385 411.759615 644.365385 414.403846 644.365385 417.048077 644.365385 419.692308 644.365385 422.336538 644.365385 424.980769 644.365385 427.625000 644.365385 430.269231 644.365385 432.913462 644.365385 435.557692 644.365385 438.201923 638.048077 440.846154 629.835577 443.490385 641.206731 446.134615 640.575000 448.778846 642.470192 451.423077 643.733654 454.067308 642.470192 456.711538 644.365385 459.355769 644.365385 462.000000 643.733654 464.644231 644.365385 467.288462 644.365385 469.932692 644.365385 472.576923 644.365385 475.221154 644.365385 477.865385 644.365385 480.509615 641.838462 483.153846 641.838462 485.798077 644.365385 488.442308 644.365385 491.086538 641.838462 493.730769 643.733654 496.375000 644.365385 499.019231 643.733654 501.663462 643.733654 504.307692 644.365385 506.951923 644.365385 509.596154 643.733654 512.240385 644.365385 514.884615 643.733654 517.528846 643.733654 520.173077 644.365385 522.817308 644.365385 525.461538 644.365385 528.105769 644.365385 530.750000 643.733654 533.394231 644.365385 536.038462 644.365385 538.682692 644.365385 541.326923 644.365385 543.971154 644.365385 546.615385 644.365385 549.259615 644.365385 551.903846 644.365385 554.548077 644.365385 557.192308 644.365385 559.836538 644.365385 562.480769 644.365385 565.125000 644.365385 567.769231 644.365385 570.413462 644.365385 573.057692 644.365385 575.701923 644.365385 578.346154 644.365385 580.990385 644.365385 583.634615 644.365385 586.278846 644.365385 588.923077 644.365385 591.567308 644.365385 594.211538 644.365385 596.855769 644.365385 599.500000 644.365385 602.144231 644.365385 604.788462 644.365385 607.432692 644.365385 610.076923 644.365385 612.721154 644.365385 615.365385 644.365385 618.009615 644.365385 620.653846 644.365385 623.298077 644.365385 625.942308 644.365385 628.586538 644.365385 631.230769 644.365385 633.875000 644.365385 636.519231 644.365385 639.163462 644.365385 641.807692 644.365385 644.451923 644.365385 647.096154 365.772115 649.740385 151.615385 652.384615 377.143269 655.028846 449.160577 657.673077 517.387500 660.317308 560.976923 662.961538 558.450000 665.605769 571.084615 668.250000 571.084615 670.894231 548.974038 673.538462 547.078846 676.182692 534.444231 678.826923 513.597115 681.471154 492.750000 684.115385 512.965385 686.759615 538.866346 689.403846 549.605769 692.048077 556.554808 694.692308 548.342308 697.336538 547.710577 699.980769 563.503846 702.625000 563.503846 705.269231 575.506731 707.913462 588.141346 710.557692 592.563462 713.201923 596.985577 715.846154 595.722115 718.490385 610.251923 721.134615 622.254808 723.778846 630.467308 726.423077 631.099038 729.067308 634.257692 731.711538 618.464423 734.355769 625.413462 737.000000 627.940385 739.644231 615.305769 742.288462 612.147115 744.932692 614.674038 747.576923 605.198077 750.221154 608.988462 752.865385 602.039423 755.509615 611.515385 758.153846 604.566346 760.798077 611.515385 763.442308 606.461538 766.086538 611.515385 768.730769 612.147115 771.375000 616.569231 774.019231 621.623077 776.663462 618.464423 779.307692 623.518269 781.951923 632.994231 784.596154 634.257692 787.240385 631.099038 789.884615 633.625962 792.528846 633.625962 795.173077 639.311538 797.817308 629.203846 800.461538 634.889423 803.105769 629.203846 805.750000 631.099038 808.394231 624.781731 811.038462 628.572115 813.682692 620.359615 816.326923 620.991346 818.971154 620.991346 821.615385 622.886538 824.259615 619.096154 826.903846 624.150000 829.548077 621.623077 832.192308 623.518269 834.836538 627.308654 837.480769 620.359615 840.125000 620.991346 842.769231 625.413462 845.413462 625.413462 848.057692 628.572115 850.701923 639.943269 853.346154 632.994231 855.990385 631.099038 858.634615 634.889423 861.278846 638.679808 863.923077 632.994231 866.567308 630.467308 869.211538 627.940385 871.855769 622.254808 874.500000 621.623077 877.144231 626.045192 879.788462 620.991346 882.432692 619.096154 885.076923 620.991346 887.721154 622.886538 890.365385 619.727885 893.009615 627.940385 895.653846 621.623077 898.298077 627.308654 900.942308 625.413462 903.586538 630.467308 906.230769 626.676923" /></g></g><g class="titles"><text class="title plot_title" x="512.0" y="26">Election 4 Participation Per Hour</text><text class="title" transform="rotate(-90 0.000000 374.500000)" x="0" y="400.5">Users</text></g><g class="plot overlay" transform="translate(80, 46)"><g class="series serie-0 color-0" /><g class="series serie-1 color-1" /></g><g class="plot text-overlay" transform="translate(80, 46)"><g class="series serie-0 color-0" /><g class="series serie-1 color-1" /></g><g class="plot tooltip-overlay" transform="translate(80, 46)"><g class="tooltip" style="opacity: 0" transform="translate(0 0)"><a><rect class="tooltip-box" height="0" rx="0" ry="0" width="0" /><text class="text"><tspan class="label" /><tspan class="value" /></text></a></g></g><g class="legends" transform="translate(90, 713)"><g class="legend reactive activate-serie" id="activate-serie-0"><rect class="color-0 reactive" height="12" width="12" x="0.0" y="1.0" /><text x="17.0" y="11.2">constituents</text></g><g class="legend reactive activate-serie" id="activate-serie-1"><rect class="color-1 reactive" height="12" width="12" x="462.0" y="1.0" /><text x="479.0" y="11.2">caucus</text></g></g></g></svg>