<?xml version='1.0' encoding='utf-8'?>
<svg xmlns:xlink="http://www.w3.org/1999/xlink" class="pygal-chart" id="chart-50e9c9b0-8603-4c24-85ea-4a6508ddee94" viewBox="0 0 1024 768" xmlns="http://www.w3.org/2000/svg"><!--Generated with pygal 1.7.0 (etree) ©Kozea 2011-2014 on 2015-04-20--><!--http://pygal.org--><!--http://github.com/Kozea/pygal--><defs><style type="text/css">#chart-50e9c9b0-8603-4c24-85ea-4a6508ddee94 .title{font-family:"monospace";font-size:16px}#chart-50e9c9b0-8603-4c24-85ea-4a6508ddee94 .legends .legend text{font-family:"monospace";font-size:14px}#chart-50e9c9b0-8603-4c24-85ea-4a6508ddee94 .axis text{font-family:"monospace";font-size:10px}#chart-50e9c9b0-8603-4c24-85ea-4a6508ddee94 .axis text.major{font-family:"monospace";font-size:10px}#chart-50e9c9b0-8603-4c24-85ea-4a6508ddee94 .series text{font-family:"monospace";font-size:8px}#chart-50e9c9b0-8603-4c24-85ea-4a6508ddee94 .tooltip text{font-family:"monospace";font-size:16px}#chart-50e9c9b0-8603-4c24-85ea-4a6508ddee94 text.no_data{font-size:64px}
#chart-50e9c9b0-8603-4c24-85ea-4a6508ddee94{background-color:black}#chart-50e9c9b0-8603-4c24-85ea-4a6508ddee94 path,#chart-50e9c9b0-8603-4c24-85ea-4a6508ddee94 line,#chart-50e9c9b0-8603-4c24-85ea-4a6508ddee94 rect,#chart-50e9c9b0-8603-4c24-85ea-4a6508ddee94 circle{-webkit-transition:250ms;-moz-transition:250ms;transition:250ms}#chart-50e9c9b0-8603-4c24-85ea-4a6508ddee94 .graph &gt; .background{fill:black}#chart-50e9c9b0-8603-4c24-85ea-4a6508ddee94 .plot &gt; .background{fill:#111}#chart-50e9c9b0-8603-4c24-85ea-4a6508ddee94 .graph{fill:#999}#chart-50e9c9b0-8603-4c24-85ea-4a6508ddee94 text.no_data{fill:#eee}#chart-50e9c9b0-8603-4c24-85ea-4a6508ddee94 .title{fill:#eee}#chart-50e9c9b0-8603-4c24-85ea-4a6508ddee94 .legends .legend text{fill:#999}#chart-50e9c9b0-8603-4c24-85ea-4a6508ddee94 .legends .legend:hover text{fill:#eee}#chart-50e9c9b0-8603-4c24-85ea-4a6508ddee94 .axis .line{stroke:#eee}#chart-50e9c9b0-8603-4c24-85ea-4a6508ddee94 .axis .guide.line{stroke:#555}#chart-50e9c9b0-8603-4c24-85ea-4a6508ddee94 .axis .major.line{stroke:#999}#chart-50e9c9b0-8603-4c24-85ea-4a6508ddee94 .axis text.major{stroke:#eee;fill:#eee}#chart-50e9c9b0-8603-4c24-85ea-4a6508ddee94 .axis.y .guides:hover .guide.line,#chart-50e9c9b0-8603-4c24-85ea-4a6508ddee94 .line-graph .axis.x .guides:hover .guide.line,#chart-50e9c9b0-8603-4c24-85ea-4a6508ddee94 .stackedline-graph .axis.x .guides:hover .guide.line,#chart-50e9c9b0-8603-4c24-85ea-4a6508ddee94 .xy-graph .axis.x .guides:hover .guide.line{stroke:#eee}#chart-50e9c9b0-8603-4c24-85ea-4a6508ddee94 .axis .guides:hover text{fill:#eee}#chart-50e9c9b0-8603-4c24-85ea-4a6508ddee94 .reactive{fill-opacity:.8}#chart-50e9c9b0-8603-4c24-85ea-4a6508ddee94 .reactive.active,#chart-50e9c9b0-8603-4c24-85ea-4a6508ddee94 .active .reactive{fill-opacity:.4}#chart-50e9c9b0-8603-4c24-85ea-4a6508ddee94 .series{stroke-width:1.0;stroke-linejoin:round;stroke-linecap:round;stroke-dasharray:0,0}#chart-50e9c9b0-8603-4c24-85ea-4a6508ddee94 .series text{fill:#eee}#chart-50e9c9b0-8603-4c24-85ea-4a6508ddee94 .tooltip rect{fill:#111;stroke:#eee}#chart-50e9c9b0-8603-4c24-85ea-4a6508ddee94 .tooltip text{fill:#eee}#chart-50e9c9b0-8603-4c24-85ea-4a6508ddee94 .map-element{fill:#999;stroke:#555 !important;opacity:.9;stroke-width:3;-webkit-transition:250ms;-moz-transition:250ms;-o-transition:250ms;transition:250ms}#chart-50e9c9b0-8603-4c24-85ea-4a6508ddee94 .map-element:hover{opacity:1;stroke-width:10}#chart-50e9c9b0-8603-4c24-85ea-4a6508ddee94 .color-0,#chart-50e9c9b0-8603-4c24-85ea-4a6508ddee94 .color-0 a:visited{stroke:#ff5995;fill:#ff5995}#chart-50e9c9b0-8603-4c24-85ea-4a6508ddee94 .color-1,#chart-50e9c9b0-8603-4c24-85ea-4a6508ddee94 .color-1 a:visited{stroke:#b6e354;fill:#b6e354}#chart-50e9c9b0-8603-4c24-85ea-4a6508ddee94 .color-2,#chart-50e9c9b0-8603-4c24-85ea-4a6508ddee94 .color-2 a:visited{stroke:#feed6c;fill:#feed6c}#chart-50e9c9b0-8603-4c24-85ea-4a6508ddee94 .color-3,#chart-50e9c9b0-8603-4c24-85ea-4a6508ddee94 .color-3 a:visited{stroke:#8cedff;fill:#8cedff}#chart-50e9c9b0-8603-4c24-85ea-4a6508ddee94 .color-4,#chart-50e9c9b0-8603-4c24-85ea-4a6508ddee94 .color-4 a:visited{stroke:#9e6ffe;fill:#9e6ffe}#chart-50e9c9b0-8603-4c24-85ea-4a6508ddee94 .color-5,#chart-50e9c9b0-8603-4c24-85ea-4a6508ddee94 .color-5 a:visited{stroke:#899ca1;fill:#899ca1}#chart-50e9c9b0-8603-4c24-85ea-4a6508ddee94 .color-6,#chart-50e9c9b0-8603-4c24-85ea-4a6508ddee94 .color-6 a:visited{stroke:#f8f8f2;fill:#f8f8f2}#chart-50e9c9b0-8603-4c24-85ea-4a6508ddee94 .color-7,#chart-50e9c9b0-8603-4c24-85ea-4a6508ddee94 .color-7 a:visited{stroke:#bf4646;fill:#bf4646}#chart-50e9c9b0-8603-4c24-85ea-4a6508ddee94 .color-8,#chart-50e9c9b0-8603-4c24-85ea-4a6508ddee94 .color-8 a:visited{stroke:#516083;fill:#516083}#chart-50e9c9b0-8603-4c24-85ea-4a6508ddee94 .color-9,#chart-50e9c9b0-8603-4c24-85ea-4a6508ddee94 .color-9 a:visited{stroke:#f92672;fill:#f92672}#chart-50e9c9b0-8603-4c24-85ea-4a6508ddee94 .color-10,#chart-50e9c9b0-8603-4c24-85ea-4a6508ddee94 .color-10 a:visited{stroke:#82b414;fill:#82b414}#chart-50e9c9b0-8603-4c24-85ea-4a6508ddee94 .color-11,#chart-50e9c9b0-8603-4c24-85ea-4a6508ddee94 .color-11 a:visited{stroke:#fd971f;fill:#fd971f}#chart-50e9c9b0-8603-4c24-85ea-4a6508ddee94 .color-12,#chart-50e9c9b0-8603-4c24-85ea-4a6508ddee94 .color-12 a:visited{stroke:#56c2d6;fill:#56c2d6}#chart-50e9c9b0-8603-4c24-85ea-4a6508ddee94 .color-13,#chart-50e9c9b0-8603-4c24-85ea-4a6508ddee94 .color-13 a:visited{stroke:#808384;fill:#808384}#chart-50e9c9b0-8603-4c24-85ea-4a6508ddee94 .color-14,#chart-50e9c9b0-8603-4c24-85ea-4a6508ddee94 .color-14 a:visited{stroke:#8c54fe;fill:#8c54fe}#chart-50e9c9b0-8603-4c24-85ea-4a6508ddee94 .color-15,#chart-50e9c9b0-8603-4c24-85ea-4a6508ddee94 .color-15 a:visited{stroke:#465457;fill:#465457}
#chart-50e9c9b0-8603-4c24-85ea-4a6508ddee94 text.no_data{text-anchor:middle}#chart-50e9c9b0-8603-4c24-85ea-4a6508ddee94 .guide.line{fill-opacity:0}#chart-50e9c9b0-8603-4c24-85ea-4a6508ddee94 .centered{text-anchor:middle}#chart-50e9c9b0-8603-4c24-85ea-4a6508ddee94 .title{text-anchor:middle}#chart-50e9c9b0-8603-4c24-85ea-4a6508ddee94 .legends .legend text{fill-opacity:1}#chart-50e9c9b0-8603-4c24-85ea-4a6508ddee94 .axis.x text{text-anchor:middle}#chart-50e9c9b0-8603-4c24-85ea-4a6508ddee94 .axis.x:not(.web) text[transform]{text-anchor:start}#chart-50e9c9b0-8603-4c24-85ea-4a6508ddee94 .axis.y text{text-anchor:end}#chart-50e9c9b0-8603-4c24-85ea-4a6508ddee94 .axis.y2 text{text-anchor:start}#chart-50e9c9b0-8603-4c24-85ea-4a6508ddee94 .axis.y .logarithmic text:not(.major),#chart-50e9c9b0-8603-4c24-85ea-4a6508ddee94 .axis.y2 .logarithmic text:not(.major){font-size:50%}#chart-50e9c9b0-8603-4c24-85ea-4a6508ddee94 .axis .guide.line{stroke-dasharray:4,4}#chart-50e9c9b0-8603-4c24-85ea-4a6508ddee94 .axis .major.guide.line{stroke-dasharray:6,6}#chart-50e9c9b0-8603-4c24-85ea-4a6508ddee94 .axis text.major{stroke-width:0.5px}#chart-50e9c9b0-8603-4c24-85ea-4a6508ddee94 .horizontal .axis.y .guide.line,#chart-50e9c9b0-8603-4c24-85ea-4a6508ddee94 .horizontal .axis.y2 .guide.line,#chart-50e9c9b0-8603-4c24-85ea-4a6508ddee94 .vertical .axis.x .guide.line{opacity:0}#chart-50e9c9b0-8603-4c24-85ea-4a6508ddee94 .horizontal .axis.always_show .guide.line,#chart-50e9c9b0-8603-4c24-85ea-4a6508ddee94 .vertical .axis.always_show .guide.line{opacity:1 !important}#chart-50e9c9b0-8603-4c24-85ea-4a6508ddee94 .axis.y .guides:hover .guide.line,#chart-50e9c9b0-8603-4c24-85ea-4a6508ddee94 .axis.y2 .guides:hover .guide.line,#chart-50e9c9b0-8603-4c24-85ea-4a6508ddee94 .axis.x .guides:hover .guide.line{opacity:1}#chart-50e9c9b0-8603-4c24-85ea-4a6508ddee94 .axis .guides:hover text{opacity:1}#chart-50e9c9b0-8603-4c24-85ea-4a6508ddee94 .nofill{fill:none}#chart-50e9c9b0-8603-4c24-85ea-4a6508ddee94 .subtle-fill{fill-opacity:.2}#chart-50e9c9b0-8603-4c24-85ea-4a6508ddee94 .dot{stroke-width:1px;fill-opacity:1}#chart-50e9c9b0-8603-4c24-85ea-4a6508ddee94 .dot.active{stroke-width:5px}#chart-50e9c9b0-8603-4c24-85ea-4a6508ddee94 .series text{stroke:none}#chart-50e9c9b0-8603-4c24-85ea-4a6508ddee94 .series text.active{opacity:1}#chart-50e9c9b0-8603-4c24-85ea-4a6508ddee94 .tooltip rect{fill-opacity:0.8}#chart-50e9c9b0-8603-4c24-85ea-4a6508ddee94 .tooltip text{fill-opacity:1}#chart-50e9c9b0-8603-4c24-85ea-4a6508ddee94 .tooltip text tspan.label{fill-opacity:.8}</style><script type="text/javascript">window.config = {"include_x_axis": false, "pretty_print": false, "show_y_labels": true, "stack_from_top": false, "order_min": null, "human_readable": false, "rounded_bars": null, "disable_xml_declaration": false, "no_data_text": "No data", "height": 768, "title_font_size": 16, "show_y_guides": true, "interpolation_parameters": {}, "truncate_label": null, "tooltip_border_radius": 0, "x_label_format": "%Y-%m-%d %H:%M:%S.%f", "no_prefix": false, "y_labels_major_every": null, "show_only_major_dots": false, "show_minor_y_labels": true, "interpolate": null, "title": "Election 1 Constituents Per Hour", "legend_at_bottom": true, "xrange": null, "y_labels_major": null, "x_labels_major": null, "zero": 0, "x_labels_major_every": null, "print_values": false, "explicit_size": false, "y_title": "Users", "x_title": null, "interpolation_precision": 250, "x_value_formatter": null, "width": 1024, "half_pie": false, "no_data_font_size": 64, "fill": false, "show_legend": true, "x_label_rotation": 0, "legend_box_size": 12, "js": ["http://kozea.github.io/pygal.js/javascripts/svg.jquery.js", "http://kozea.github.io/pygal.js/javascripts/pygal-tooltips.js"], "logarithmic": false, "show_dots": false, "show_x_labels": true, "print_zeroes": false, "truncate_legend": null, "missing_value_fill_truncation": "x", "tooltip_font_size": 16, "margin_right": null, "style": {"stroke_style": "round", "transition": "250ms", "colors": ["#ff5995", "#b6e354", "#feed6c", "#8cedff", "#9e6ffe", "#899ca1", "#f8f8f2", "#bf4646", "#516083", "#f92672", "#82b414", "#fd971f", "#56c2d6", "#808384", "#8c54fe", "#465457"], "stroke_dasharray": "0,0", "foreground": "#999", "foreground_light": "#eee", "font_family": "monospace", "opacity": ".8", "opacity_hover": ".4", "background": "black", "plot_background": "#111", "foreground_dark": "#555", "stroke_width": 1.0}, "value_font_size": 8, "legend_at_bottom_columns": null, "margin_bottom": null, "margin_left": null, "mode": null, "spacing": 10, "legend_font_size": 14, "css": ["style.css", "graph.css"], "y_labels_major_count": null, "y_label_rotation": 0, "label_font_size": 10, "range": [0, 1000], "show_x_guides": false, "inner_radius": 0, "major_label_font_size": 10, "stroke": true, "margin_top": null, "show_minor_x_labels": true, "x_labels": null, "margin": 20, "x_labels_major_count": null, "strict": false, "y_labels": null, "dots_size": 2.5}</script><script type="text/javascript" xlink:href="http://kozea.github.io/pygal.js/javascripts/svg.jquery.js" /><script type="text/javascript" xlink:href="http://kozea.github.io/pygal.js/javascripts/pygal-tooltips.js" /></defs><title>Election 1 Constituents Per Hour</title><g class="graph line-graph vertical"><rect class="background" height="768" width="1024" x="0" y="0" /><g class="plot" transform="translate(80, 46)"><rect class="background" height="678.0" width="924.0" x="0" y="0" /><g class="axis y"><g class="guides"><path class="axis major line" d="M0.000000 664.961538 h924.000000" /><text class="major" x="-5" y="668.4615384615385">0</text></g><g class="guides"><path class="guide line" d="M0.000000 599.769231 h924.000000" /><text class="" x="-5" y="603.2692307692307">100</text></g><g class="guides"><path class="guide line" d="M0.000000 534.576923 h924.000000" /><text class="" x="-5" y="538.0769230769231">200</text></g><g class="guides"><path class="guide line" d="M0.000000 469.384615 h924.000000" /><text class="" x="-5" y="472.88461538461536">300</text></g><g class="guides"><path class="guide line" d="M0.000000 404.192308 h924.000000" /><text class="" x="-5" y="407.6923076923077">400</text></g><g class="guides"><path class="major guide line" d="M0.000000 339.000000 h924.000000" /><text class="major" x="-5" y="342.5">500</text></g><g class="guides"><path class="guide line" d="M0.000000 273.807692 h924.000000" /><text class="" x="-5" y="277.3076923076923">600</text></g><g class="guides"><path class="guide line" d="M0.000000 208.615385 h924.000000" /><text class="" x="-5" y="212.11538461538464">700</text></g><g class="guides"><path class="guide line" d="M0.000000 143.423077 h924.000000" /><text class="" x="-5" y="146.9230769230769">800</text></g><g class="guides"><path class="guide line" d="M0.000000 78.230769 h924.000000" /><text class="" x="-5" y="81.73076923076928">900</text></g><g class="guides"><path class="major guide line" d="M0.000000 13.038462 h924.000000" /><text class="major" x="-5" y="16.538461538461547">1000</text></g></g><g class="series serie-0 color-0"><path class="line reactive nofill" d="M17.769231 -2481.219231 L20.413462 664.961538 23.057692 664.961538 25.701923 664.961538 28.346154 664.961538 30.990385 664.961538 33.634615 664.961538 36.278846 664.961538 38.923077 664.961538 41.567308 664.961538 44.211538 664.961538 46.855769 664.961538 49.500000 664.961538 52.144231 664.961538 54.788462 664.961538 57.432692 664.961538 60.076923 664.961538 62.721154 664.961538 65.365385 664.961538 68.009615 664.961538 70.653846 664.961538 73.298077 664.961538 75.942308 664.961538 78.586538 664.961538 81.230769 664.961538 83.875000 664.961538 86.519231 664.961538 89.163462 664.961538 91.807692 664.961538 94.451923 664.961538 97.096154 664.961538 99.740385 664.961538 102.384615 664.961538 105.028846 664.961538 107.673077 664.961538 110.317308 664.961538 112.961538 664.961538 115.605769 664.961538 118.250000 664.961538 120.894231 664.961538 123.538462 664.961538 126.182692 664.961538 128.826923 664.961538 131.471154 664.961538 134.115385 664.961538 136.759615 664.961538 139.403846 664.961538 142.048077 664.961538 144.692308 664.961538 147.336538 664.961538 149.980769 664.961538 152.625000 664.961538 155.269231 664.961538 157.913462 664.961538 160.557692 664.961538 163.201923 664.961538 165.846154 664.961538 168.490385 664.961538 171.134615 664.961538 173.778846 664.961538 176.423077 664.961538 179.067308 664.961538 181.711538 664.961538 184.355769 664.961538 187.000000 664.961538 189.644231 664.961538 192.288462 664.961538 194.932692 664.961538 197.576923 664.961538 200.221154 664.961538 202.865385 664.961538 205.509615 664.961538 208.153846 664.961538 210.798077 664.961538 213.442308 664.961538 216.086538 664.961538 218.730769 664.961538 221.375000 664.961538 224.019231 664.961538 226.663462 664.961538 229.307692 664.961538 231.951923 664.961538 234.596154 664.961538 237.240385 664.961538 239.884615 664.961538 242.528846 664.961538 245.173077 664.961538 247.817308 664.961538 250.461538 664.961538 253.105769 664.961538 255.750000 664.961538 258.394231 664.961538 261.038462 664.961538 263.682692 664.961538 266.326923 664.961538 268.971154 664.961538 271.615385 664.961538 274.259615 664.961538 276.903846 664.961538 279.548077 664.961538 282.192308 664.961538 284.836538 664.961538 287.480769 664.961538 290.125000 664.961538 292.769231 664.961538 295.413462 664.961538 298.057692 664.961538 300.701923 664.961538 303.346154 664.961538 305.990385 664.961538 308.634615 664.961538 311.278846 664.961538 313.923077 664.961538 316.567308 664.961538 319.211538 664.961538 321.855769 664.961538 324.500000 664.961538 327.144231 664.961538 329.788462 664.961538 332.432692 664.961538 335.076923 664.961538 337.721154 664.961538 340.365385 664.961538 343.009615 664.961538 345.653846 664.961538 348.298077 664.961538 350.942308 664.961538 353.586538 664.961538 356.230769 664.961538 358.875000 664.961538 361.519231 664.961538 364.163462 664.961538 366.807692 664.961538 369.451923 664.961538 372.096154 664.961538 374.740385 664.961538 377.384615 664.961538 380.028846 664.961538 382.673077 664.961538 385.317308 664.961538 387.961538 664.961538 390.605769 664.961538 393.250000 664.961538 395.894231 664.961538 398.538462 664.961538 401.182692 664.961538 403.826923 664.961538 406.471154 664.961538 409.115385 664.961538 411.759615 664.961538 414.403846 664.961538 417.048077 664.961538 419.692308 664.961538 422.336538 664.961538 424.980769 664.961538 427.625000 664.961538 430.269231 664.961538 432.913462 664.961538 435.557692 664.961538 438.201923 664.961538 440.846154 664.961538 443.490385 664.961538 446.134615 664.961538 448.778846 664.961538 451.423077 664.961538 454.067308 664.961538 456.711538 664.961538 459.355769 664.961538 462.000000 664.961538 464.644231 664.961538 467.288462 664.961538 469.932692 664.961538 472.576923 664.961538 475.221154 664.961538 477.865385 664.961538 480.509615 664.961538 483.153846 664.961538 485.798077 664.961538 488.442308 664.961538 491.086538 664.961538 493.730769 664.961538 496.375000 664.961538 499.019231 664.961538 501.663462 664.961538 504.307692 664.961538 506.951923 664.961538 509.596154 664.961538 512.240385 664.961538 514.884615 664.961538 517.528846 664.961538 520.173077 664.961538 522.817308 664.961538 525.461538 664.961538 528.105769 664.961538 530.750000 664.961538 533.394231 664.961538 536.038462 664.961538 538.682692 664.961538 541.326923 664.961538 543.971154 664.961538 546.615385 664.961538 549.259615 664.961538 551.903846 664.961538 554.548077 664.961538 557.192308 664.961538 559.836538 664.961538 562.480769 664.961538 565.125000 664.961538 567.769231 664.961538 570.413462 664.961538 573.057692 664.961538 575.701923 664.961538 578.346154 664.961538 580.990385 664.961538 583.634615 664.961538 586.278846 664.961538 588.923077 664.961538 591.567308 664.961538 594.211538 664.961538 596.855769 664.961538 599.500000 664.961538 602.144231 664.961538 604.788462 664.961538 607.432692 664.961538 610.076923 664.961538 612.721154 664.961538 615.365385 664.961538 618.009615 664.961538 620.653846 664.961538 623.298077 664.961538 625.942308 664.961538 628.586538 664.961538 631.230769 664.961538 633.875000 664.961538 636.519231 664.961538 639.163462 664.961538 641.807692 664.961538 644.451923 664.961538 647.096154 664.961538 649.740385 664.961538 652.384615 664.961538 655.028846 664.961538 657.673077 664.961538 660.317308 664.961538 662.961538 664.961538 665.605769 664.961538 668.250000 664.961538 670.894231 664.961538 673.538462 664.961538 676.182692 664.961538 678.826923 664.961538 681.471154 664.961538 684.115385 664.961538 686.759615 664.961538 689.403846 664.961538 692.048077 664.961538 694.692308 664.961538 697.336538 664.961538 699.980769 664.961538 702.625000 664.961538 705.269231 664.961538 707.913462 664.961538 710.557692 664.961538 713.201923 664.961538 715.846154 664.961538 718.490385 664.961538 721.134615 664.961538 723.778846 664.961538 726.423077 664.961538 729.067308 664.961538 731.711538 664.961538 734.355769 664.961538 737.000000 664.961538 739.644231 664.961538 742.288462 664.961538 744.932692 664.961538 747.576923 664.961538 750.221154 664.961538 752.865385 664.961538 755.509615 664.961538 758.153846 664.961538 760.798077 664.961538 763.442308 664.961538 766.086538 664.961538 768.730769 664.961538 771.375000 664.961538 774.019231 664.961538 776.663462 664.961538 779.307692 664.961538 781.951923 664.961538 784.596154 664.961538 787.240385 664.961538 789.884615 664.961538 792.528846 664.961538 795.173077 664.961538 797.817308 664.961538 800.461538 664.961538 803.105769 664.961538 805.750000 664.961538 808.394231 664.961538 811.038462 664.961538 813.682692 664.961538 816.326923 664.961538 818.971154 664.961538 821.615385 664.961538 824.259615 664.961538 826.903846 664.961538 829.548077 664.961538 832.192308 664.961538 834.836538 664.961538 837.480769 664.961538 840.125000 664.961538 842.769231 664.961538 845.413462 664.961538 848.057692 664.961538 850.701923 664.961538 853.346154 664.961538 855.990385 664.961538 858.634615 664.961538 861.278846 664.961538 863.923077 664.961538 866.567308 664.961538 869.211538 664.961538 871.855769 664.961538 874.500000 664.961538 877.144231 664.961538 879.788462 664.961538 882.432692 664.961538 885.076923 664.961538 887.721154 664.961538 890.365385 664.961538 893.009615 664.961538 895.653846 664.961538 898.298077 664.961538 900.942308 664.961538 903.586538 664.961538 906.230769 664.961538" /></g></g><g class="titles"><text class="title plot_title" x="512.0" y="26">Election 1 Constituents Per Hour</text><text class="title" transform="rotate(-90 0.000000 385.000000)" x="0" y="411.0">Users</text></g><g class="plot overlay" transform="translate(80, 46)"><g class="series serie-0 color-0" /></g><g class="plot text-overlay" transform="translate(80, 46)"><g class="series serie-0 color-0" /></g><g class="plot tooltip-overlay" transform="translate(80, 46)"><g class="tooltip" style="opacity: 0" transform="translate(0 0)"><a><rect class="tooltip-box" height="0" rx="0" ry="0" width="0" /><text class="text"><tspan class="label" /><tspan class="value" /></text></a></g></g><g class="legends" transform="translate(90, 734)"><g class="legend reactive activate-serie" id="activate-serie-0"><rect class="color-0 reactive" height="12" width="12" x="0.0" y="1.0" /><text x="17.0" y="11.2">constituents</text></g></g></g></svg>