<?xml version='1.0' encoding='utf-8'?>
<svg xmlns:xlink="http://www.w3.org/1999/xlink" class="pygal-chart" id="chart-e374d90c-58bf-4fb6-8060-54b714e9625a" viewBox="0 0 1024 768" xmlns="http://www.w3.org/2000/svg"><!--Generated with pygal 1.7.0 (etree) ©Kozea 2011-2014 on 2018-03-26--><!--http://pygal.org--><!--http://github.com/Kozea/pygal--><defs><style type="text/css">#chart-e374d90c-58bf-4fb6-8060-54b714e9625a .title{font-family:"monospace";font-size:16px}#chart-e374d90c-58bf-4fb6-8060-54b714e9625a .legends .legend text{font-family:"monospace";font-size:14px}#chart-e374d90c-58bf-4fb6-8060-54b714e9625a .axis text{font-family:"monospace";font-size:10px}#chart-e374d90c-58bf-4fb6-8060-54b714e9625a .axis text.major{font-family:"monospace";font-size:10px}#chart-e374d90c-58bf-4fb6-8060-54b714e9625a .series text{font-family:"monospace";font-size:8px}#chart-e374d90c-58bf-4fb6-8060-54b714e9625a .tooltip text{font-family:"monospace";font-size:16px}#chart-e374d90c-58bf-4fb6-8060-54b714e9625a text.no_data{font-size:64px}
#chart-e374d90c-58bf-4fb6-8060-54b714e9625a{background-color:black}#chart-e374d90c-58bf-4fb6-8060-54b714e9625a path,#chart-e374d90c-58bf-4fb6-8060-54b714e9625a line,#chart-e374d90c-58bf-4fb6-8060-54b714e9625a rect,#chart-e374d90c-58bf-4fb6-8060-54b714e9625a circle{-webkit-transition:250ms;-moz-transition:250ms;transition:250ms}#chart-e374d90c-58bf-4fb6-8060-54b714e9625a .graph &gt; .background{fill:black}#chart-e374d90c-58bf-4fb6-8060-54b714e9625a .plot &gt; .background{fill:#111}#chart-e374d90c-58bf-4fb6-8060-54b714e9625a .graph{fill:#999}#chart-e374d90c-58bf-4fb6-8060-54b714e9625a text.no_data{fill:#eee}#chart-e374d90c-58bf-4fb6-8060-54b714e9625a .title{fill:#eee}#chart-e374d90c-58bf-4fb6-8060-54b714e9625a .legends .legend text{fill:#999}#chart-e374d90c-58bf-4fb6-8060-54b714e9625a .legends .legend:hover text{fill:#eee}#chart-e374d90c-58bf-4fb6-8060-54b714e9625a .axis .line{stroke:#eee}#chart-e374d90c-58bf-4fb6-8060-54b714e9625a .axis .guide.line{stroke:#555}#chart-e374d90c-58bf-4fb6-8060-54b714e9625a .axis .major.line{stroke:#999}#chart-e374d90c-58bf-4fb6-8060-54b714e9625a .axis text.major{stroke:#eee;fill:#eee}#chart-e374d90c-58bf-4fb6-8060-54b714e9625a .axis.y .guides:hover .guide.line,#chart-e374d90c-58bf-4fb6-8060-54b714e9625a .line-graph .axis.x .guides:hover .guide.line,#chart-e374d90c-58bf-4fb6-8060-54b714e9625a .stackedline-graph .axis.x .guides:hover .guide.line,#chart-e374d90c-58bf-4fb6-8060-54b714e9625a .xy-graph .axis.x .guides:hover .guide.line{stroke:#eee}#chart-e374d90c-58bf-4fb6-8060-54b714e9625a .axis .guides:hover text{fill:#eee}#chart-e374d90c-58bf-4fb6-8060-54b714e9625a .reactive{fill-opacity:.8}#chart-e374d90c-58bf-4fb6-8060-54b714e9625a .reactive.active,#chart-e374d90c-58bf-4fb6-8060-54b714e9625a .active .reactive{fill-opacity:.4}#chart-e374d90c-58bf-4fb6-8060-54b714e9625a .series{stroke-width:1.0;stroke-linejoin:round;stroke-linecap:round;stroke-dasharray:0,0}#chart-e374d90c-58bf-4fb6-8060-54b714e9625a .series text{fill:#eee}#chart-e374d90c-58bf-4fb6-8060-54b714e9625a .tooltip rect{fill:#111;stroke:#eee}#chart-e374d90c-58bf-4fb6-8060-54b714e9625a .tooltip text{fill:#eee}#chart-e374d90c-58bf-4fb6-8060-54b714e9625a .map-element{fill:#999;stroke:#555 !important;opacity:.9;stroke-width:3;-webkit-transition:250ms;-moz-transition:250ms;-o-transition:250ms;transition:250ms}#chart-e374d90c-58bf-4fb6-8060-54b714e9625a .map-element:hover{opacity:1;stroke-width:10}#chart-e374d90c-58bf-4fb6-8060-54b714e9625a .color-0,#chart-e374d90c-58bf-4fb6-8060-54b714e9625a .color-0 a:visited{stroke:#ff5995;fill:#ff5995}#chart-e374d90c-58bf-4fb6-8060-54b714e9625a .color-1,#chart-e374d90c-58bf-4fb6-8060-54b714e9625a .color-1 a:visited{stroke:#b6e354;fill:#b6e354}#chart-e374d90c-58bf-4fb6-8060-54b714e9625a .color-2,#chart-e374d90c-58bf-4fb6-8060-54b714e9625a .color-2 a:visited{stroke:#feed6c;fill:#feed6c}#chart-e374d90c-58bf-4fb6-8060-54b714e9625a .color-3,#chart-e374d90c-58bf-4fb6-8060-54b714e9625a .color-3 a:visited{stroke:#8cedff;fill:#8cedff}#chart-e374d90c-58bf-4fb6-8060-54b714e9625a .color-4,#chart-e374d90c-58bf-4fb6-8060-54b714e9625a .color-4 a:visited{stroke:#9e6ffe;fill:#9e6ffe}#chart-e374d90c-58bf-4fb6-8060-54b714e9625a .color-5,#chart-e374d90c-58bf-4fb6-8060-54b714e9625a .color-5 a:visited{stroke:#899ca1;fill:#899ca1}#chart-e374d90c-58bf-4fb6-8060-54b714e9625a .color-6,#chart-e374d90c-58bf-4fb6-8060-54b714e9625a .color-6 a:visited{stroke:#f8f8f2;fill:#f8f8f2}#chart-e374d90c-58bf-4fb6-8060-54b714e9625a .color-7,#chart-e374d90c-58bf-4fb6-8060-54b714e9625a .color-7 a:visited{stroke:#bf4646;fill:#bf4646}#chart-e374d90c-58bf-4fb6-8060-54b714e9625a .color-8,#chart-e374d90c-58bf-4fb6-8060-54b714e9625a .color-8 a:visited{stroke:#516083;fill:#516083}#chart-e374d90c-58bf-4fb6-8060-54b714e9625a .color-9,#chart-e374d90c-58bf-4fb6-8060-54b714e9625a .color-9 a:visited{stroke:#f92672;fill:#f92672}#chart-e374d90c-58bf-4fb6-8060-54b714e9625a .color-10,#chart-e374d90c-58bf-4fb6-8060-54b714e9625a .color-10 a:visited{stroke:#82b414;fill:#82b414}#chart-e374d90c-58bf-4fb6-8060-54b714e9625a .color-11,#chart-e374d90c-58bf-4fb6-8060-54b714e9625a .color-11 a:visited{stroke:#fd971f;fill:#fd971f}#chart-e374d90c-58bf-4fb6-8060-54b714e9625a .color-12,#chart-e374d90c-58bf-4fb6-8060-54b714e9625a .color-12 a:visited{stroke:#56c2d6;fill:#56c2d6}#chart-e374d90c-58bf-4fb6-8060-54b714e9625a .color-13,#chart-e374d90c-58bf-4fb6-8060-54b714e9625a .color-13 a:visited{stroke:#808384;fill:#808384}#chart-e374d90c-58bf-4fb6-8060-54b714e9625a .color-14,#chart-e374d90c-58bf-4fb6-8060-54b714e9625a .color-14 a:visited{stroke:#8c54fe;fill:#8c54fe}#chart-e374d90c-58bf-4fb6-8060-54b714e9625a .color-15,#chart-e374d90c-58bf-4fb6-8060-54b714e9625a .color-15 a:visited{stroke:#465457;fill:#465457}
#chart-e374d90c-58bf-4fb6-8060-54b714e9625a text.no_data{text-anchor:middle}#chart-e374d90c-58bf-4fb6-8060-54b714e9625a .guide.line{fill-opacity:0}#chart-e374d90c-58bf-4fb6-8060-54b714e9625a .centered{text-anchor:middle}#chart-e374d90c-58bf-4fb6-8060-54b714e9625a .title{text-anchor:middle}#chart-e374d90c-58bf-4fb6-8060-54b714e9625a .legends .legend text{fill-opacity:1}#chart-e374d90c-58bf-4fb6-8060-54b714e9625a .axis.x text{text-anchor:middle}#chart-e374d90c-58bf-4fb6-8060-54b714e9625a .axis.x:not(.web) text[transform]{text-anchor:start}#chart-e374d90c-58bf-4fb6-8060-54b714e9625a .axis.y text{text-anchor:end}#chart-e374d90c-58bf-4fb6-8060-54b714e9625a .axis.y2 text{text-anchor:start}#chart-e374d90c-58bf-4fb6-8060-54b714e9625a .axis.y .logarithmic text:not(.major),#chart-e374d90c-58bf-4fb6-8060-54b714e9625a .axis.y2 .logarithmic text:not(.major){font-size:50%}#chart-e374d90c-58bf-4fb6-8060-54b714e9625a .axis .guide.line{stroke-dasharray:4,4}#chart-e374d90c-58bf-4fb6-8060-54b714e9625a .axis .major.guide.line{stroke-dasharray:6,6}#chart-e374d90c-58bf-4fb6-8060-54b714e9625a .axis text.major{stroke-width:0.5px}#chart-e374d90c-58bf-4fb6-8060-54b714e9625a .horizontal .axis.y .guide.line,#chart-e374d90c-58bf-4fb6-8060-54b714e9625a .horizontal .axis.y2 .guide.line,#chart-e374d90c-58bf-4fb6-8060-54b714e9625a .vertical .axis.x .guide.line{opacity:0}#chart-e374d90c-58bf-4fb6-8060-54b714e9625a .horizontal .axis.always_show .guide.line,#chart-e374d90c-58bf-4fb6-8060-54b714e9625a .vertical .axis.always_show .guide.line{opacity:1 !important}#chart-e374d90c-58bf-4fb6-8060-54b714e9625a .axis.y .guides:hover .guide.line,#chart-e374d90c-58bf-4fb6-8060-54b714e9625a .axis.y2 .guides:hover .guide.line,#chart-e374d90c-58bf-4fb6-8060-54b714e9625a .axis.x .guides:hover .guide.line{opacity:1}#chart-e374d90c-58bf-4fb6-8060-54b714e9625a .axis .guides:hover text{opacity:1}#chart-e374d90c-58bf-4fb6-8060-54b714e9625a .nofill{fill:none}#chart-e374d90c-58bf-4fb6-8060-54b714e9625a .subtle-fill{fill-opacity:.2}#chart-e374d90c-58bf-4fb6-8060-54b714e9625a .dot{stroke-width:1px;fill-opacity:1}#chart-e374d90c-58bf-4fb6-8060-54b714e9625a .dot.active{stroke-width:5px}#chart-e374d90c-58bf-4fb6-8060-54b714e9625a .series text{stroke:none}#chart-e374d90c-58bf-4fb6-8060-54b714e9625a .series text.active{opacity:1}#chart-e374d90c-58bf-4fb6-8060-54b714e9625a .tooltip rect{fill-opacity:0.8}#chart-e374d90c-58bf-4fb6-8060-54b714e9625a .tooltip text{fill-opacity:1}#chart-e374d90c-58bf-4fb6-8060-54b714e9625a .tooltip text tspan.label{fill-opacity:.8}</style><script type="text/javascript">window.config = {"css": ["style.css", "graph.css"], "disable_xml_declaration": false, "dots_size": 2.5, "explicit_size": false, "fill": false, "half_pie": false, "height": 768, "human_readable": false, "include_x_axis": false, "inner_radius": 0, "interpolate": null, "interpolation_parameters": {}, "interpolation_precision": 250, "js": ["http://kozea.github.io/pygal.js/javascripts/svg.jquery.js", "http://kozea.github.io/pygal.js/javascripts/pygal-tooltips.js"], "label_font_size": 10, "legend_at_bottom": true, "legend_at_bottom_columns": null, "legend_box_size": 12, "legend_font_size": 14, "logarithmic": false, "major_label_font_size": 10, "margin": 20, "margin_bottom": null, "margin_left": null, "margin_right": null, "margin_top": null, "missing_value_fill_truncation": "x", "mode": null, "no_data_font_size": 64, "no_data_text": "No data", "no_prefix": false, "order_min": null, "pretty_print": false, "print_values": false, "print_zeroes": false, "range": [0, 1000], "rounded_bars": null, "show_dots": false, "show_legend": true, "show_minor_x_labels": true, "show_minor_y_labels": true, "show_only_major_dots": false, "show_x_guides": false, "show_x_labels": true, "show_y_guides": true, "show_y_labels": true, "spacing": 10, "stack_from_top": false, "strict": false, "stroke": true, "style": {"background": "black", "colors": ["#ff5995", "#b6e354", "#feed6c", "#8cedff", "#9e6ffe", "#899ca1", "#f8f8f2", "#bf4646", "#516083", "#f92672", "#82b414", "#fd971f", "#56c2d6", "#808384", "#8c54fe", "#465457"], "font_family": "monospace", "foreground": "#999", "foreground_dark": "#555", "foreground_light": "#eee", "opacity": ".8", "opacity_hover": ".4", "plot_background": "#111", "stroke_dasharray": "0,0", "stroke_style": "round", "stroke_width": 1.0, "transition": "250ms"}, "title": "Election math.stackexchange.com-6 Participation Per Hour", "title_font_size": 16, "tooltip_border_radius": 0, "tooltip_font_size": 16, "truncate_label": null, "truncate_legend": null, "value_font_size": 8, "width": 1024, "x_label_format": "%Y-%m-%d %H:%M:%S.%f", "x_label_rotation": 0, "x_labels": null, "x_labels_major": null, "x_labels_major_count": null, "x_labels_major_every": null, "x_title": null, "x_value_formatter": null, "xrange": null, "y_label_rotation": 0, "y_labels": null, "y_labels_major": null, "y_labels_major_count": null, "y_labels_major_every": null, "y_title": "Users", "zero": 0}</script><script type="text/javascript" xlink:href="http://kozea.github.io/pygal.js/javascripts/svg.jquery.js" /><script type="text/javascript" xlink:href="http://kozea.github.io/pygal.js/javascripts/pygal-tooltips.js" /></defs><title>Election math.stackexchange.com-6 Participation Per Hour</title><g class="graph line-graph vertical"><rect class="background" height="768" width="1024" x="0" y="0" /><g class="plot" transform="translate(80, 46)"><rect class="background" height="657.0" width="924.0" x="0" y="0" /><g class="axis y"><g class="guides"><path class="axis major line" d="M0.000000 644.365385 h924.000000" /><text class="major" x="-5" y="647.8653846153846">0</text></g><g class="guides"><path class="guide line" d="M0.000000 581.192308 h924.000000" /><text class="" x="-5" y="584.6923076923077">100</text></g><g class="guides"><path class="guide line" d="M0.000000 518.019231 h924.000000" /><text class="" x="-5" y="521.5192307692307">200</text></g><g class="guides"><path class="guide line" d="M0.000000 454.846154 h924.000000" /><text class="" x="-5" y="458.3461538461538">300</text></g><g class="guides"><path class="guide line" d="M0.000000 391.673077 h924.000000" /><text class="" x="-5" y="395.1730769230769">400</text></g><g class="guides"><path class="major guide line" d="M0.000000 328.500000 h924.000000" /><text class="major" x="-5" y="332.0">500</text></g><g class="guides"><path class="guide line" d="M0.000000 265.326923 h924.000000" /><text class="" x="-5" y="268.8269230769231">600</text></g><g class="guides"><path class="guide line" d="M0.000000 202.153846 h924.000000" /><text class="" x="-5" y="205.65384615384613">700</text></g><g class="guides"><path class="guide line" d="M0.000000 138.980769 h924.000000" /><text class="" x="-5" y="142.48076923076928">800</text></g><g class="guides"><path class="guide line" d="M0.000000 75.807692 h924.000000" /><text class="" x="-5" y="79.30769230769226">900</text></g><g class="guides"><path class="major guide line" d="M0.000000 12.634615 h924.000000" /><text class="major" x="-5" y="16.13461538461536">1000</text></g></g><g class="series serie-0 color-0"><path class="line reactive nofill" d="M17.769231 644.365385 L20.237179 644.365385 22.705128 644.365385 25.173077 644.365385 27.641026 644.365385 30.108974 644.365385 32.576923 644.365385 35.044872 644.365385 37.512821 644.365385 39.980769 644.365385 42.448718 644.365385 44.916667 644.365385 47.384615 644.365385 49.852564 644.365385 52.320513 644.365385 54.788462 644.365385 57.256410 644.365385 59.724359 644.365385 62.192308 644.365385 64.660256 644.365385 67.128205 644.365385 69.596154 644.365385 72.064103 644.365385 74.532051 644.365385 77.000000 644.365385 79.467949 644.365385 81.935897 644.365385 84.403846 644.365385 86.871795 644.365385 89.339744 644.365385 91.807692 644.365385 94.275641 644.365385 96.743590 644.365385 99.211538 644.365385 101.679487 644.365385 104.147436 644.365385 106.615385 644.365385 109.083333 644.365385 111.551282 644.365385 114.019231 644.365385 116.487179 644.365385 118.955128 644.365385 121.423077 644.365385 123.891026 644.365385 126.358974 644.365385 128.826923 644.365385 131.294872 644.365385 133.762821 644.365385 136.230769 644.365385 138.698718 644.365385 141.166667 644.365385 143.634615 644.365385 146.102564 644.365385 148.570513 644.365385 151.038462 644.365385 153.506410 644.365385 155.974359 644.365385 158.442308 644.365385 160.910256 644.365385 163.378205 644.365385 165.846154 644.365385 168.314103 644.365385 170.782051 644.365385 173.250000 644.365385 175.717949 644.365385 178.185897 644.365385 180.653846 644.365385 183.121795 644.365385 185.589744 644.365385 188.057692 644.365385 190.525641 644.365385 192.993590 644.365385 195.461538 644.365385 197.929487 644.365385 200.397436 644.365385 202.865385 644.365385 205.333333 644.365385 207.801282 644.365385 210.269231 644.365385 212.737179 644.365385 215.205128 644.365385 217.673077 644.365385 220.141026 644.365385 222.608974 644.365385 225.076923 644.365385 227.544872 644.365385 230.012821 644.365385 232.480769 644.365385 234.948718 644.365385 237.416667 644.365385 239.884615 644.365385 242.352564 644.365385 244.820513 644.365385 247.288462 644.365385 249.756410 644.365385 252.224359 644.365385 254.692308 644.365385 257.160256 644.365385 259.628205 644.365385 262.096154 644.365385 264.564103 644.365385 267.032051 644.365385 269.500000 644.365385 271.967949 644.365385 274.435897 644.365385 276.903846 644.365385 279.371795 644.365385 281.839744 644.365385 284.307692 644.365385 286.775641 644.365385 289.243590 644.365385 291.711538 644.365385 294.179487 644.365385 296.647436 644.365385 299.115385 644.365385 301.583333 644.365385 304.051282 644.365385 306.519231 644.365385 308.987179 644.365385 311.455128 644.365385 313.923077 644.365385 316.391026 644.365385 318.858974 644.365385 321.326923 644.365385 323.794872 644.365385 326.262821 644.365385 328.730769 644.365385 331.198718 644.365385 333.666667 644.365385 336.134615 644.365385 338.602564 644.365385 341.070513 644.365385 343.538462 644.365385 346.006410 644.365385 348.474359 644.365385 350.942308 644.365385 353.410256 644.365385 355.878205 644.365385 358.346154 644.365385 360.814103 644.365385 363.282051 644.365385 365.750000 644.365385 368.217949 644.365385 370.685897 644.365385 373.153846 644.365385 375.621795 644.365385 378.089744 644.365385 380.557692 644.365385 383.025641 644.365385 385.493590 644.365385 387.961538 644.365385 390.429487 644.365385 392.897436 644.365385 395.365385 644.365385 397.833333 644.365385 400.301282 644.365385 402.769231 644.365385 405.237179 644.365385 407.705128 644.365385 410.173077 644.365385 412.641026 644.365385 415.108974 644.365385 417.576923 644.365385 420.044872 644.365385 422.512821 644.365385 424.980769 644.365385 427.448718 644.365385 429.916667 644.365385 432.384615 414.415385 434.852564 548.342308 437.320513 590.036538 439.788462 607.093269 442.256410 620.359615 444.724359 619.096154 447.192308 616.569231 449.660256 622.886538 452.128205 619.096154 454.596154 619.727885 457.064103 617.200962 459.532051 612.147115 462.000000 608.988462 464.467949 613.410577 466.935897 624.150000 469.403846 624.781731 471.871795 617.200962 474.339744 620.991346 476.807692 624.781731 479.275641 622.886538 481.743590 631.730769 484.211538 626.045192 486.679487 627.308654 489.147436 624.781731 491.615385 632.994231 494.083333 634.257692 496.551282 637.416346 499.019231 634.257692 501.487179 640.575000 503.955128 641.206731 506.423077 638.679808 508.891026 637.416346 511.358974 640.575000 513.826923 639.943269 516.294872 636.784615 518.762821 639.311538 521.230769 638.048077 523.698718 636.152885 526.166667 638.048077 528.634615 639.311538 531.102564 634.257692 533.570513 636.784615 536.038462 634.257692 538.506410 638.679808 540.974359 636.152885 543.442308 638.048077 545.910256 638.048077 548.378205 637.416346 550.846154 636.784615 553.314103 641.206731 555.782051 638.679808 558.250000 643.101923 560.717949 643.733654 563.185897 641.838462 565.653846 639.311538 568.121795 641.206731 570.589744 641.838462 573.057692 643.101923 575.525641 638.679808 577.993590 643.101923 580.461538 639.943269 582.929487 641.206731 585.397436 641.206731 587.865385 640.575000 590.333333 642.470192 592.801282 641.838462 595.269231 642.470192 597.737179 638.679808 600.205128 638.679808 602.673077 638.048077 605.141026 641.206731 607.608974 641.838462 610.076923 642.470192 612.544872 639.943269 615.012821 643.101923 617.480769 644.365385 619.948718 643.733654 622.416667 642.470192 624.884615 644.365385 627.352564 644.365385 629.820513 642.470192 632.288462 643.101923 634.756410 641.206731 637.224359 641.838462 639.692308 642.470192 642.160256 641.838462 644.628205 641.206731 647.096154 643.101923 649.564103 643.101923 652.032051 641.206731 654.500000 639.943269 656.967949 642.470192 659.435897 639.311538 661.903846 641.838462 664.371795 639.311538 666.839744 642.470192 669.307692 642.470192 671.775641 643.733654 674.243590 643.101923 676.711538 641.206731 679.179487 643.733654 681.647436 643.733654 684.115385 642.470192 686.583333 643.733654 689.051282 642.470192 691.519231 642.470192 693.987179 641.838462 696.455128 644.365385 698.923077 643.733654 701.391026 643.101923 703.858974 642.470192 706.326923 642.470192 708.794872 643.101923 711.262821 643.101923 713.730769 641.206731 716.198718 642.470192 718.666667 641.838462 721.134615 643.733654 723.602564 642.470192 726.070513 642.470192 728.538462 641.838462 731.006410 644.365385 733.474359 643.733654 735.942308 644.365385 738.410256 644.365385 740.878205 641.838462 743.346154 643.733654 745.814103 641.838462 748.282051 642.470192 750.750000 641.206731 753.217949 643.101923 755.685897 643.733654 758.153846 641.838462 760.621795 642.470192 763.089744 642.470192 765.557692 643.101923 768.025641 641.838462 770.493590 644.365385 772.961538 642.470192 775.429487 641.838462 777.897436 643.101923 780.365385 642.470192 782.833333 643.101923 785.301282 643.733654 787.769231 643.101923 790.237179 644.365385 792.705128 643.733654 795.173077 643.101923 797.641026 643.733654 800.108974 641.838462 802.576923 642.470192 805.044872 644.365385 807.512821 641.838462 809.980769 643.101923 812.448718 643.101923 814.916667 643.101923 817.384615 639.943269 819.852564 641.206731 822.320513 641.838462 824.788462 642.470192 827.256410 641.838462 829.724359 641.838462 832.192308 640.575000 834.660256 638.048077 837.128205 643.101923 839.596154 640.575000 842.064103 643.101923 844.532051 642.470192 847.000000 641.206731 849.467949 641.838462 851.935897 643.733654 854.403846 643.101923 856.871795 643.733654 859.339744 644.365385 861.807692 643.733654 864.275641 643.733654 866.743590 643.733654 869.211538 643.101923 871.679487 643.101923 874.147436 639.943269 876.615385 643.733654 879.083333 642.470192 881.551282 641.838462 884.019231 643.101923 886.487179 643.101923 888.955128 642.470192 891.423077 643.733654 893.891026 643.101923 896.358974 641.206731 898.826923 641.838462 901.294872 643.101923 903.762821 640.575000 906.230769 644.365385" /></g><g class="series serie-1 color-1"><path class="line reactive nofill" d="M17.769231 439.684615 L20.237179 574.875000 22.705128 605.829808 25.173077 607.093269 27.641026 617.832692 30.108974 628.572115 32.576923 622.254808 35.044872 620.991346 37.512821 631.730769 39.980769 629.835577 42.448718 621.623077 44.916667 617.832692 47.384615 622.886538 49.852564 626.045192 52.320513 631.099038 54.788462 628.572115 57.256410 624.781731 59.724359 627.308654 62.192308 629.203846 64.660256 632.994231 67.128205 625.413462 69.596154 633.625962 72.064103 632.994231 74.532051 635.521154 77.000000 633.625962 79.467949 638.048077 81.935897 639.311538 84.403846 639.943269 86.871795 643.101923 89.339744 639.311538 91.807692 640.575000 94.275641 636.784615 96.743590 638.048077 99.211538 642.470192 101.679487 642.470192 104.147436 634.889423 106.615385 641.838462 109.083333 643.101923 111.551282 638.048077 114.019231 639.943269 116.487179 637.416346 118.955128 638.679808 121.423077 636.784615 123.891026 638.679808 126.358974 638.048077 128.826923 641.838462 131.294872 643.101923 133.762821 638.679808 136.230769 642.470192 138.698718 641.838462 141.166667 643.101923 143.634615 641.206731 146.102564 642.470192 148.570513 639.943269 151.038462 642.470192 153.506410 641.838462 155.974359 643.101923 158.442308 641.838462 160.910256 643.733654 163.378205 641.838462 165.846154 642.470192 168.314103 641.838462 170.782051 642.470192 173.250000 641.838462 175.717949 641.838462 178.185897 640.575000 180.653846 639.311538 183.121795 642.470192 185.589744 640.575000 188.057692 642.470192 190.525641 642.470192 192.993590 642.470192 195.461538 643.101923 197.929487 643.733654 200.397436 642.470192 202.865385 643.733654 205.333333 643.733654 207.801282 643.733654 210.269231 642.470192 212.737179 643.101923 215.205128 643.733654 217.673077 643.733654 220.141026 643.733654 222.608974 642.470192 225.076923 642.470192 227.544872 643.733654 230.012821 642.470192 232.480769 642.470192 234.948718 643.101923 237.416667 643.733654 239.884615 641.838462 242.352564 641.838462 244.820513 641.838462 247.288462 643.733654 249.756410 643.101923 252.224359 643.733654 254.692308 641.838462 257.160256 643.101923 259.628205 643.733654 262.096154 643.101923 264.564103 642.470192 267.032051 643.101923 269.500000 644.365385 271.967949 643.101923 274.435897 643.733654 276.903846 643.101923 279.371795 643.733654 281.839744 644.365385 284.307692 642.470192 286.775641 641.838462 289.243590 642.470192 291.711538 643.101923 294.179487 642.470192 296.647436 642.470192 299.115385 643.101923 301.583333 643.733654 304.051282 642.470192 306.519231 641.838462 308.987179 642.470192 311.455128 643.101923 313.923077 641.838462 316.391026 643.733654 318.858974 642.470192 321.326923 643.733654 323.794872 642.470192 326.262821 644.365385 328.730769 643.101923 331.198718 643.733654 333.666667 644.365385 336.134615 644.365385 338.602564 643.733654 341.070513 644.365385 343.538462 643.733654 346.006410 642.470192 348.474359 643.101923 350.942308 643.101923 353.410256 643.733654 355.878205 641.838462 358.346154 643.101923 360.814103 643.733654 363.282051 642.470192 365.750000 644.365385 368.217949 643.101923 370.685897 643.101923 373.153846 643.101923 375.621795 643.101923 378.089744 643.101923 380.557692 642.470192 383.025641 643.733654 385.493590 644.365385 387.961538 643.733654 390.429487 643.733654 392.897436 641.838462 395.365385 643.733654 397.833333 643.101923 400.301282 642.470192 402.769231 644.365385 405.237179 644.365385 407.705128 643.733654 410.173077 643.101923 412.641026 643.733654 415.108974 642.470192 417.576923 641.838462 420.044872 641.838462 422.512821 643.733654 424.980769 643.101923 427.448718 642.470192 429.916667 643.733654 432.384615 365.140385 434.852564 523.073077 437.320513 564.135577 439.788462 590.668269 442.256410 598.880769 444.724359 609.620192 447.192308 607.093269 449.660256 615.937500 452.128205 611.515385 454.596154 602.671154 457.064103 597.617308 459.532051 597.617308 462.000000 588.773077 464.467949 602.039423 466.935897 619.096154 469.403846 612.778846 471.871795 601.407692 474.339744 602.671154 476.807692 615.937500 479.275641 613.410577 481.743590 627.308654 484.211538 622.254808 486.679487 623.518269 489.147436 618.464423 491.615385 626.676923 494.083333 630.467308 496.551282 636.784615 499.019231 630.467308 501.487179 636.152885 503.955128 640.575000 506.423077 637.416346 508.891026 638.048077 511.358974 638.679808 513.826923 636.152885 516.294872 635.521154 518.762821 630.467308 521.230769 632.362500 523.698718 631.730769 526.166667 636.784615 528.634615 637.416346 531.102564 633.625962 533.570513 636.152885 536.038462 627.308654 538.506410 636.152885 540.974359 633.625962 543.442308 636.152885 545.910256 633.625962 548.378205 634.257692 550.846154 633.625962 553.314103 632.994231 555.782051 636.784615 558.250000 639.311538 560.717949 639.311538 563.185897 636.152885 565.653846 634.889423 568.121795 639.943269 570.589744 639.311538 573.057692 641.206731 575.525641 640.575000 577.993590 641.838462 580.461538 638.679808 582.929487 641.206731 585.397436 639.311538 587.865385 636.784615 590.333333 634.889423 592.801282 638.048077 595.269231 639.943269 597.737179 640.575000 600.205128 634.889423 602.673077 634.889423 605.141026 639.943269 607.608974 640.575000 610.076923 637.416346 612.544872 639.311538 615.012821 641.206731 617.480769 643.101923 619.948718 642.470192 622.416667 641.838462 624.884615 643.101923 627.352564 643.101923 629.820513 642.470192 632.288462 641.206731 634.756410 641.206731 637.224359 638.679808 639.692308 641.206731 642.160256 639.311538 644.628205 639.311538 647.096154 641.838462 649.564103 639.311538 652.032051 640.575000 654.500000 637.416346 656.967949 640.575000 659.435897 638.679808 661.903846 640.575000 664.371795 636.784615 666.839744 641.206731 669.307692 641.206731 671.775641 641.838462 674.243590 639.943269 676.711538 641.838462 679.179487 642.470192 681.647436 643.101923 684.115385 643.733654 686.583333 643.733654 689.051282 642.470192 691.519231 642.470192 693.987179 641.838462 696.455128 643.733654 698.923077 643.733654 701.391026 643.101923 703.858974 643.733654 706.326923 642.470192 708.794872 643.101923 711.262821 642.470192 713.730769 641.838462 716.198718 642.470192 718.666667 643.101923 721.134615 643.733654 723.602564 640.575000 726.070513 643.733654 728.538462 640.575000 731.006410 642.470192 733.474359 644.365385 735.942308 643.101923 738.410256 643.733654 740.878205 641.206731 743.346154 643.733654 745.814103 641.838462 748.282051 643.101923 750.750000 641.838462 753.217949 642.470192 755.685897 643.101923 758.153846 642.470192 760.621795 640.575000 763.089744 641.206731 765.557692 641.838462 768.025641 641.206731 770.493590 641.838462 772.961538 641.838462 775.429487 641.838462 777.897436 643.101923 780.365385 639.943269 782.833333 642.470192 785.301282 643.733654 787.769231 640.575000 790.237179 643.733654 792.705128 643.733654 795.173077 644.365385 797.641026 641.838462 800.108974 639.943269 802.576923 639.943269 805.044872 643.733654 807.512821 643.101923 809.980769 642.470192 812.448718 641.838462 814.916667 642.470192 817.384615 639.311538 819.852564 641.206731 822.320513 639.311538 824.788462 641.838462 827.256410 642.470192 829.724359 641.206731 832.192308 641.838462 834.660256 639.943269 837.128205 642.470192 839.596154 639.311538 842.064103 641.838462 844.532051 643.101923 847.000000 638.679808 849.467949 642.470192 851.935897 642.470192 854.403846 643.733654 856.871795 642.470192 859.339744 643.101923 861.807692 643.733654 864.275641 643.101923 866.743590 643.733654 869.211538 641.838462 871.679487 643.733654 874.147436 639.943269 876.615385 643.101923 879.083333 641.838462 881.551282 641.838462 884.019231 643.101923 886.487179 643.101923 888.955128 639.943269 891.423077 642.470192 893.891026 640.575000 896.358974 638.679808 898.826923 640.575000 901.294872 643.733654 903.762821 640.575000 906.230769 644.365385" /></g></g><g class="titles"><text class="title plot_title" x="512.0" y="26">Election math.stackexchange.com-6 Participation Per Hour</text><text class="title" transform="rotate(-90 0.000000 374.500000)" x="0" y="400.5">Users</text></g><g class="plot overlay" transform="translate(80, 46)"><g class="series serie-0 color-0" /><g class="series serie-1 color-1" /></g><g class="plot text-overlay" transform="translate(80, 46)"><g class="series serie-0 color-0" /><g class="series serie-1 color-1" /></g><g class="plot tooltip-overlay" transform="translate(80, 46)"><g class="tooltip" style="opacity: 0" transform="translate(0 0)"><a><rect class="tooltip-box" height="0" rx="0" ry="0" width="0" /><text class="text"><tspan class="label" /><tspan class="value" /></text></a></g></g><g class="legends" transform="translate(90, 713)"><g class="legend reactive activate-serie" id="activate-serie-0"><rect class="color-0 reactive" height="12" width="12" x="0.0" y="1.0" /><text x="17.0" y="11.2">constituents</text></g><g class="legend reactive activate-serie" id="activate-serie-1"><rect class="color-1 reactive" height="12" width="12" x="462.0" y="1.0" /><text x="479.0" y="11.2">caucus</text></g></g></g></svg>