<?xml version='1.0' encoding='utf-8'?>
<svg xmlns:xlink="http://www.w3.org/1999/xlink" class="pygal-chart" id="chart-1505de99-2ba0-462e-8c83-130d620c915e" viewBox="0 0 1024 768" xmlns="http://www.w3.org/2000/svg"><!--Generated with pygal 1.7.0 (etree) ©Kozea 2011-2014 on 2018-03-27--><!--http://pygal.org--><!--http://github.com/Kozea/pygal--><defs><style type="text/css">#chart-1505de99-2ba0-462e-8c83-130d620c915e .title{font-family:"monospace";font-size:16px}#chart-1505de99-2ba0-462e-8c83-130d620c915e .legends .legend text{font-family:"monospace";font-size:14px}#chart-1505de99-2ba0-462e-8c83-130d620c915e .axis text{font-family:"monospace";font-size:10px}#chart-1505de99-2ba0-462e-8c83-130d620c915e .axis text.major{font-family:"monospace";font-size:10px}#chart-1505de99-2ba0-462e-8c83-130d620c915e .series text{font-family:"monospace";font-size:8px}#chart-1505de99-2ba0-462e-8c83-130d620c915e .tooltip text{font-family:"monospace";font-size:16px}#chart-1505de99-2ba0-462e-8c83-130d620c915e text.no_data{font-size:64px}
#chart-1505de99-2ba0-462e-8c83-130d620c915e{background-color:black}#chart-1505de99-2ba0-462e-8c83-130d620c915e path,#chart-1505de99-2ba0-462e-8c83-130d620c915e line,#chart-1505de99-2ba0-462e-8c83-130d620c915e rect,#chart-1505de99-2ba0-462e-8c83-130d620c915e circle{-webkit-transition:250ms;-moz-transition:250ms;transition:250ms}#chart-1505de99-2ba0-462e-8c83-130d620c915e .graph &gt; .background{fill:black}#chart-1505de99-2ba0-462e-8c83-130d620c915e .plot &gt; .background{fill:#111}#chart-1505de99-2ba0-462e-8c83-130d620c915e .graph{fill:#999}#chart-1505de99-2ba0-462e-8c83-130d620c915e text.no_data{fill:#eee}#chart-1505de99-2ba0-462e-8c83-130d620c915e .title{fill:#eee}#chart-1505de99-2ba0-462e-8c83-130d620c915e .legends .legend text{fill:#999}#chart-1505de99-2ba0-462e-8c83-130d620c915e .legends .legend:hover text{fill:#eee}#chart-1505de99-2ba0-462e-8c83-130d620c915e .axis .line{stroke:#eee}#chart-1505de99-2ba0-462e-8c83-130d620c915e .axis .guide.line{stroke:#555}#chart-1505de99-2ba0-462e-8c83-130d620c915e .axis .major.line{stroke:#999}#chart-1505de99-2ba0-462e-8c83-130d620c915e .axis text.major{stroke:#eee;fill:#eee}#chart-1505de99-2ba0-462e-8c83-130d620c915e .axis.y .guides:hover .guide.line,#chart-1505de99-2ba0-462e-8c83-130d620c915e .line-graph .axis.x .guides:hover .guide.line,#chart-1505de99-2ba0-462e-8c83-130d620c915e .stackedline-graph .axis.x .guides:hover .guide.line,#chart-1505de99-2ba0-462e-8c83-130d620c915e .xy-graph .axis.x .guides:hover .guide.line{stroke:#eee}#chart-1505de99-2ba0-462e-8c83-130d620c915e .axis .guides:hover text{fill:#eee}#chart-1505de99-2ba0-462e-8c83-130d620c915e .reactive{fill-opacity:.8}#chart-1505de99-2ba0-462e-8c83-130d620c915e .reactive.active,#chart-1505de99-2ba0-462e-8c83-130d620c915e .active .reactive{fill-opacity:.4}#chart-1505de99-2ba0-462e-8c83-130d620c915e .series{stroke-width:1.0;stroke-linejoin:round;stroke-linecap:round;stroke-dasharray:0,0}#chart-1505de99-2ba0-462e-8c83-130d620c915e .series text{fill:#eee}#chart-1505de99-2ba0-462e-8c83-130d620c915e .tooltip rect{fill:#111;stroke:#eee}#chart-1505de99-2ba0-462e-8c83-130d620c915e .tooltip text{fill:#eee}#chart-1505de99-2ba0-462e-8c83-130d620c915e .map-element{fill:#999;stroke:#555 !important;opacity:.9;stroke-width:3;-webkit-transition:250ms;-moz-transition:250ms;-o-transition:250ms;transition:250ms}#chart-1505de99-2ba0-462e-8c83-130d620c915e .map-element:hover{opacity:1;stroke-width:10}#chart-1505de99-2ba0-462e-8c83-130d620c915e .color-0,#chart-1505de99-2ba0-462e-8c83-130d620c915e .color-0 a:visited{stroke:#ff5995;fill:#ff5995}#chart-1505de99-2ba0-462e-8c83-130d620c915e .color-1,#chart-1505de99-2ba0-462e-8c83-130d620c915e .color-1 a:visited{stroke:#b6e354;fill:#b6e354}#chart-1505de99-2ba0-462e-8c83-130d620c915e .color-2,#chart-1505de99-2ba0-462e-8c83-130d620c915e .color-2 a:visited{stroke:#feed6c;fill:#feed6c}#chart-1505de99-2ba0-462e-8c83-130d620c915e .color-3,#chart-1505de99-2ba0-462e-8c83-130d620c915e .color-3 a:visited{stroke:#8cedff;fill:#8cedff}#chart-1505de99-2ba0-462e-8c83-130d620c915e .color-4,#chart-1505de99-2ba0-462e-8c83-130d620c915e .color-4 a:visited{stroke:#9e6ffe;fill:#9e6ffe}#chart-1505de99-2ba0-462e-8c83-130d620c915e .color-5,#chart-1505de99-2ba0-462e-8c83-130d620c915e .color-5 a:visited{stroke:#899ca1;fill:#899ca1}#chart-1505de99-2ba0-462e-8c83-130d620c915e .color-6,#chart-1505de99-2ba0-462e-8c83-130d620c915e .color-6 a:visited{stroke:#f8f8f2;fill:#f8f8f2}#chart-1505de99-2ba0-462e-8c83-130d620c915e .color-7,#chart-1505de99-2ba0-462e-8c83-130d620c915e .color-7 a:visited{stroke:#bf4646;fill:#bf4646}#chart-1505de99-2ba0-462e-8c83-130d620c915e .color-8,#chart-1505de99-2ba0-462e-8c83-130d620c915e .color-8 a:visited{stroke:#516083;fill:#516083}#chart-1505de99-2ba0-462e-8c83-130d620c915e .color-9,#chart-1505de99-2ba0-462e-8c83-130d620c915e .color-9 a:visited{stroke:#f92672;fill:#f92672}#chart-1505de99-2ba0-462e-8c83-130d620c915e .color-10,#chart-1505de99-2ba0-462e-8c83-130d620c915e .color-10 a:visited{stroke:#82b414;fill:#82b414}#chart-1505de99-2ba0-462e-8c83-130d620c915e .color-11,#chart-1505de99-2ba0-462e-8c83-130d620c915e .color-11 a:visited{stroke:#fd971f;fill:#fd971f}#chart-1505de99-2ba0-462e-8c83-130d620c915e .color-12,#chart-1505de99-2ba0-462e-8c83-130d620c915e .color-12 a:visited{stroke:#56c2d6;fill:#56c2d6}#chart-1505de99-2ba0-462e-8c83-130d620c915e .color-13,#chart-1505de99-2ba0-462e-8c83-130d620c915e .color-13 a:visited{stroke:#808384;fill:#808384}#chart-1505de99-2ba0-462e-8c83-130d620c915e .color-14,#chart-1505de99-2ba0-462e-8c83-130d620c915e .color-14 a:visited{stroke:#8c54fe;fill:#8c54fe}#chart-1505de99-2ba0-462e-8c83-130d620c915e .color-15,#chart-1505de99-2ba0-462e-8c83-130d620c915e .color-15 a:visited{stroke:#465457;fill:#465457}
#chart-1505de99-2ba0-462e-8c83-130d620c915e text.no_data{text-anchor:middle}#chart-1505de99-2ba0-462e-8c83-130d620c915e .guide.line{fill-opacity:0}#chart-1505de99-2ba0-462e-8c83-130d620c915e .centered{text-anchor:middle}#chart-1505de99-2ba0-462e-8c83-130d620c915e .title{text-anchor:middle}#chart-1505de99-2ba0-462e-8c83-130d620c915e .legends .legend text{fill-opacity:1}#chart-1505de99-2ba0-462e-8c83-130d620c915e .axis.x text{text-anchor:middle}#chart-1505de99-2ba0-462e-8c83-130d620c915e .axis.x:not(.web) text[transform]{text-anchor:start}#chart-1505de99-2ba0-462e-8c83-130d620c915e .axis.y text{text-anchor:end}#chart-1505de99-2ba0-462e-8c83-130d620c915e .axis.y2 text{text-anchor:start}#chart-1505de99-2ba0-462e-8c83-130d620c915e .axis.y .logarithmic text:not(.major),#chart-1505de99-2ba0-462e-8c83-130d620c915e .axis.y2 .logarithmic text:not(.major){font-size:50%}#chart-1505de99-2ba0-462e-8c83-130d620c915e .axis .guide.line{stroke-dasharray:4,4}#chart-1505de99-2ba0-462e-8c83-130d620c915e .axis .major.guide.line{stroke-dasharray:6,6}#chart-1505de99-2ba0-462e-8c83-130d620c915e .axis text.major{stroke-width:0.5px}#chart-1505de99-2ba0-462e-8c83-130d620c915e .horizontal .axis.y .guide.line,#chart-1505de99-2ba0-462e-8c83-130d620c915e .horizontal .axis.y2 .guide.line,#chart-1505de99-2ba0-462e-8c83-130d620c915e .vertical .axis.x .guide.line{opacity:0}#chart-1505de99-2ba0-462e-8c83-130d620c915e .horizontal .axis.always_show .guide.line,#chart-1505de99-2ba0-462e-8c83-130d620c915e .vertical .axis.always_show .guide.line{opacity:1 !important}#chart-1505de99-2ba0-462e-8c83-130d620c915e .axis.y .guides:hover .guide.line,#chart-1505de99-2ba0-462e-8c83-130d620c915e .axis.y2 .guides:hover .guide.line,#chart-1505de99-2ba0-462e-8c83-130d620c915e .axis.x .guides:hover .guide.line{opacity:1}#chart-1505de99-2ba0-462e-8c83-130d620c915e .axis .guides:hover text{opacity:1}#chart-1505de99-2ba0-462e-8c83-130d620c915e .nofill{fill:none}#chart-1505de99-2ba0-462e-8c83-130d620c915e .subtle-fill{fill-opacity:.2}#chart-1505de99-2ba0-462e-8c83-130d620c915e .dot{stroke-width:1px;fill-opacity:1}#chart-1505de99-2ba0-462e-8c83-130d620c915e .dot.active{stroke-width:5px}#chart-1505de99-2ba0-462e-8c83-130d620c915e .series text{stroke:none}#chart-1505de99-2ba0-462e-8c83-130d620c915e .series text.active{opacity:1}#chart-1505de99-2ba0-462e-8c83-130d620c915e .tooltip rect{fill-opacity:0.8}#chart-1505de99-2ba0-462e-8c83-130d620c915e .tooltip text{fill-opacity:1}#chart-1505de99-2ba0-462e-8c83-130d620c915e .tooltip text tspan.label{fill-opacity:.8}</style><script type="text/javascript">window.config = {"css": ["style.css", "graph.css"], "disable_xml_declaration": false, "dots_size": 2.5, "explicit_size": false, "fill": false, "half_pie": false, "height": 768, "human_readable": false, "include_x_axis": false, "inner_radius": 0, "interpolate": null, "interpolation_parameters": {}, "interpolation_precision": 250, "js": ["http://kozea.github.io/pygal.js/javascripts/svg.jquery.js", "http://kozea.github.io/pygal.js/javascripts/pygal-tooltips.js"], "label_font_size": 10, "legend_at_bottom": true, "legend_at_bottom_columns": null, "legend_box_size": 12, "legend_font_size": 14, "logarithmic": false, "major_label_font_size": 10, "margin": 20, "margin_bottom": null, "margin_left": null, "margin_right": null, "margin_top": null, "missing_value_fill_truncation": "x", "mode": null, "no_data_font_size": 64, "no_data_text": "No data", "no_prefix": false, "order_min": null, "pretty_print": false, "print_values": false, "print_zeroes": false, "range": null, "rounded_bars": null, "show_dots": false, "show_legend": true, "show_minor_x_labels": true, "show_minor_y_labels": true, "show_only_major_dots": false, "show_x_guides": false, "show_x_labels": true, "show_y_guides": true, "show_y_labels": true, "spacing": 10, "stack_from_top": false, "strict": false, "stroke": true, "style": {"background": "black", "colors": ["#ff5995", "#b6e354", "#feed6c", "#8cedff", "#9e6ffe", "#899ca1", "#f8f8f2", "#bf4646", "#516083", "#f92672", "#82b414", "#fd971f", "#56c2d6", "#808384", "#8c54fe", "#465457"], "font_family": "monospace", "foreground": "#999", "foreground_dark": "#555", "foreground_light": "#eee", "opacity": ".8", "opacity_hover": ".4", "plot_background": "#111", "stroke_dasharray": "0,0", "stroke_style": "round", "stroke_width": 1.0, "transition": "250ms"}, "title": "Election 5 and 6 and 7 Participation", "title_font_size": 16, "tooltip_border_radius": 0, "tooltip_font_size": 16, "truncate_label": null, "truncate_legend": null, "value_font_size": 8, "width": 1024, "x_label_format": "%Y-%m-%d %H:%M:%S.%f", "x_label_rotation": 0, "x_labels": null, "x_labels_major": null, "x_labels_major_count": null, "x_labels_major_every": null, "x_title": null, "x_value_formatter": null, "xrange": null, "y_label_rotation": 0, "y_labels": null, "y_labels_major": null, "y_labels_major_count": null, "y_labels_major_every": null, "y_title": "Users", "zero": 0}</script><script type="text/javascript" xlink:href="http://kozea.github.io/pygal.js/javascripts/svg.jquery.js" /><script type="text/javascript" xlink:href="http://kozea.github.io/pygal.js/javascripts/pygal-tooltips.js" /></defs><title>Election 5 and 6 and 7 Participation</title><g class="graph line-graph vertical"><rect class="background" height="768" width="1024" x="0" y="0" /><g class="plot" transform="translate(86, 46)"><rect class="background" height="636.0" width="918.0" x="0" y="0" /><g class="axis y"><g class="guides"><path class="axis major line" d="M0.000000 623.769231 h918.000000" /><text class="major" x="-5" y="627.2692307692307">0</text></g><g class="guides"><path class="guide line" d="M0.000000 546.234655 h918.000000" /><text class="" x="-5" y="549.7346547370701">10000</text></g><g class="guides"><path class="guide line" d="M0.000000 468.700079 h918.000000" /><text class="" x="-5" y="472.2000787049093">20000</text></g><g class="guides"><path class="guide line" d="M0.000000 391.165503 h918.000000" /><text class="" x="-5" y="394.6655026727485">30000</text></g><g class="guides"><path class="guide line" d="M0.000000 313.630927 h918.000000" /><text class="" x="-5" y="317.1309266405878">40000</text></g><g class="guides"><path class="major guide line" d="M0.000000 236.096351 h918.000000" /><text class="major" x="-5" y="239.5963506084271">50000</text></g><g class="guides"><path class="guide line" d="M0.000000 158.561775 h918.000000" /><text class="" x="-5" y="162.06177457626626">60000</text></g><g class="guides"><path class="guide line" d="M0.000000 81.027199 h918.000000" /><text class="" x="-5" y="84.52719854410554">70000</text></g></g><g class="series serie-0 color-0"><path class="line reactive nofill" d="M17.653846 623.769231 L20.105769 623.769231 22.557692 623.769231 25.009615 623.769231 27.461538 623.769231 29.913462 623.769231 32.365385 623.769231 34.817308 623.769231 37.269231 623.769231 39.721154 623.769231 42.173077 623.769231 44.625000 623.769231 47.076923 623.769231 49.528846 623.769231 51.980769 623.769231 54.432692 623.769231 56.884615 623.769231 59.336538 623.769231 61.788462 623.769231 64.240385 623.769231 66.692308 623.769231 69.144231 623.769231 71.596154 623.769231 74.048077 623.769231 76.500000 623.769231 78.951923 623.769231 81.403846 623.769231 83.855769 623.769231 86.307692 623.769231 88.759615 623.769231 91.211538 623.769231 93.663462 623.769231 96.115385 623.769231 98.567308 623.769231 101.019231 623.769231 103.471154 623.769231 105.923077 623.769231 108.375000 623.769231 110.826923 623.769231 113.278846 623.769231 115.730769 623.769231 118.182692 623.769231 120.634615 623.769231 123.086538 623.769231 125.538462 623.769231 127.990385 623.769231 130.442308 623.769231 132.894231 623.769231 135.346154 623.769231 137.798077 623.769231 140.250000 623.769231 142.701923 623.769231 145.153846 623.769231 147.605769 623.769231 150.057692 623.769231 152.509615 623.769231 154.961538 623.769231 157.413462 623.769231 159.865385 623.769231 162.317308 623.769231 164.769231 623.769231 167.221154 623.769231 169.673077 623.769231 172.125000 623.769231 174.576923 623.769231 177.028846 623.769231 179.480769 623.769231 181.932692 623.769231 184.384615 623.769231 186.836538 623.769231 189.288462 623.769231 191.740385 623.769231 194.192308 623.769231 196.644231 623.769231 199.096154 623.769231 201.548077 623.769231 204.000000 623.769231 206.451923 623.769231 208.903846 623.769231 211.355769 623.769231 213.807692 623.769231 216.259615 623.769231 218.711538 623.769231 221.163462 623.769231 223.615385 623.769231 226.067308 623.769231 228.519231 623.769231 230.971154 623.769231 233.423077 623.769231 235.875000 623.769231 238.326923 623.769231 240.778846 623.769231 243.230769 623.769231 245.682692 623.769231 248.134615 623.769231 250.586538 623.769231 253.038462 623.769231 255.490385 623.769231 257.942308 623.769231 260.394231 623.769231 262.846154 623.769231 265.298077 623.769231 267.750000 623.769231 270.201923 623.769231 272.653846 623.769231 275.105769 623.769231 277.557692 623.769231 280.009615 623.769231 282.461538 623.769231 284.913462 623.769231 287.365385 623.769231 289.817308 623.769231 292.269231 623.769231 294.721154 623.769231 297.173077 623.769231 299.625000 623.769231 302.076923 623.769231 304.528846 623.769231 306.980769 623.769231 309.432692 623.769231 311.884615 623.769231 314.336538 623.769231 316.788462 623.769231 319.240385 623.769231 321.692308 623.769231 324.144231 623.769231 326.596154 623.769231 329.048077 623.769231 331.500000 623.769231 333.951923 623.769231 336.403846 623.769231 338.855769 623.769231 341.307692 623.769231 343.759615 623.769231 346.211538 623.769231 348.663462 623.769231 351.115385 623.769231 353.567308 623.769231 356.019231 623.769231 358.471154 623.769231 360.923077 623.769231 363.375000 623.769231 365.826923 623.769231 368.278846 623.769231 370.730769 623.769231 373.182692 623.769231 375.634615 623.769231 378.086538 623.769231 380.538462 623.769231 382.990385 623.769231 385.442308 623.769231 387.894231 623.769231 390.346154 623.769231 392.798077 623.769231 395.250000 623.769231 397.701923 623.769231 400.153846 623.769231 402.605769 623.769231 405.057692 623.769231 407.509615 623.769231 409.961538 623.769231 412.413462 623.769231 414.865385 623.769231 417.317308 623.769231 419.769231 623.769231 422.221154 623.769231 424.673077 623.769231 427.125000 623.769231 429.576923 623.769231 432.028846 623.769231 434.480769 623.769231 436.932692 623.769231 439.384615 623.769231 441.836538 623.769231 444.288462 623.769231 446.740385 623.769231 449.192308 623.769231 451.644231 623.769231 454.096154 623.769231 456.548077 623.769231 459.000000 623.769231 461.451923 623.769231 463.903846 623.769231 466.355769 623.769231 468.807692 623.769231 471.259615 623.769231 473.711538 623.769231 476.163462 623.769231 478.615385 623.769231 481.067308 623.769231 483.519231 623.769231 485.971154 623.769231 488.423077 623.769231 490.875000 623.769231 493.326923 623.769231 495.778846 623.769231 498.230769 623.769231 500.682692 623.769231 503.134615 623.769231 505.586538 623.769231 508.038462 623.769231 510.490385 623.769231 512.942308 623.769231 515.394231 623.769231 517.846154 623.769231 520.298077 623.769231 522.750000 623.769231 525.201923 623.769231 527.653846 623.769231 530.105769 623.769231 532.557692 623.769231 535.009615 623.769231 537.461538 623.769231 539.913462 623.769231 542.365385 623.769231 544.817308 623.769231 547.269231 623.769231 549.721154 623.769231 552.173077 623.769231 554.625000 623.769231 557.076923 623.769231 559.528846 623.769231 561.980769 623.769231 564.432692 623.769231 566.884615 623.769231 569.336538 623.769231 571.788462 623.769231 574.240385 623.769231 576.692308 623.769231 579.144231 623.769231 581.596154 623.769231 584.048077 623.769231 586.500000 623.769231 588.951923 623.769231 591.403846 623.769231 593.855769 623.769231 596.307692 623.769231 598.759615 623.769231 601.211538 623.769231 603.663462 623.769231 606.115385 623.769231 608.567308 623.769231 611.019231 623.769231 613.471154 623.769231 615.923077 623.769231 618.375000 623.769231 620.826923 623.769231 623.278846 623.769231 625.730769 623.769231 628.182692 623.769231 630.634615 623.769231 633.086538 623.769231 635.538462 623.769231 637.990385 623.769231 640.442308 623.769231 642.894231 623.769231 645.346154 623.769231 647.798077 623.769231 650.250000 623.769231 652.701923 623.769231 655.153846 623.769231 657.605769 623.769231 660.057692 623.769231 662.509615 622.993885 664.961538 599.245044 667.413462 588.576287 669.865385 582.009108 672.317308 577.682679 674.769231 574.713105 677.221154 572.573150 679.673077 570.696813 682.125000 568.595626 684.576923 565.757861 687.028846 563.408563 689.480769 561.043759 691.932692 558.446350 694.384615 555.585325 696.836538 552.840601 699.288462 549.995082 701.740385 547.583756 704.192308 545.133664 706.644231 543.071244 709.096154 541.032085 711.548077 539.147994 714.000000 537.256151 716.451923 535.387568 718.903846 533.968685 721.355769 532.534295 723.807692 531.099905 726.259615 530.045435 728.711538 529.130527 731.163462 528.231126 733.615385 527.587589 736.067308 527.099121 738.519231 526.533119 740.971154 526.106679 743.423077 525.579444 745.875000 524.951414 748.326923 524.323384 750.778846 523.679847 753.230769 522.819213 755.682692 522.043867 758.134615 521.128959 760.586538 520.206298 763.038462 519.275883 765.490385 518.516044 767.942308 517.771712 770.394231 516.841297 772.846154 515.965156 775.298077 515.050248 777.750000 514.057806 780.201923 513.313474 782.653846 512.576895 785.105769 511.607713 787.557692 510.925409 790.009615 510.351653 792.461538 509.855432 794.913462 509.180881 797.365385 508.560604 799.817308 507.645696 802.269231 505.777113 804.721154 503.776721 807.173077 501.807343 809.625000 498.938563 812.076923 495.309945 814.528846 491.216120 816.980769 488.316326 819.432692 485.967029 821.884615 483.889102 824.336538 481.756901 826.788462 479.632454 829.240385 477.639815 831.692308 476.282960 834.144231 475.181969 836.596154 474.259308 839.048077 473.414181 841.500000 472.755137 843.951923 471.995298 846.403846 471.452556 848.855769 471.026116 851.307692 470.677210 853.759615 470.258524 856.211538 469.886358 858.663462 469.591726 861.115385 469.103259 863.567308 468.723339 866.019231 468.056542 868.471154 467.335470 870.923077 466.195712 873.375000 465.164502 875.826923 464.172059 878.278846 463.334686 880.730769 462.543833 883.182692 461.574651 885.634615 460.551195 888.086538 459.690561 890.538462 458.798913 892.990385 458.194144 895.442308 457.651402 897.894231 457.224961 900.346154 457.224961" /></g><g class="series serie-1 color-1"><path class="line reactive nofill" d="M17.653846 605.013617 L20.105769 598.291369 22.557692 593.647048 25.009615 591.491587 27.461538 589.731552 29.913462 588.444478 32.365385 587.180664 34.817308 585.924604 37.269231 583.862184 39.721154 581.978094 42.173077 580.047483 44.625000 577.597391 47.076923 574.697598 49.528846 571.821065 51.980769 569.557055 54.432692 568.068391 56.884615 566.579727 59.336538 564.835200 61.788462 563.478344 64.240385 562.206777 66.692308 561.004991 69.144231 560.144358 71.596154 559.151915 74.048077 558.539392 76.500000 557.795060 78.951923 557.089495 81.403846 556.554507 83.855769 556.174587 86.307692 555.817928 88.759615 555.624092 91.211538 555.391488 93.663462 555.089103 96.115385 554.934034 98.567308 554.623896 101.019231 554.228470 103.471154 553.802029 105.923077 553.173999 108.375000 552.607997 110.826923 552.104022 113.278846 551.530266 115.730769 550.948757 118.182692 550.514563 120.634615 549.948561 123.086538 549.374805 125.538462 548.979379 127.990385 548.638227 130.442308 548.273814 132.894231 547.948169 135.346154 547.591510 137.798077 547.296878 140.250000 547.126302 142.701923 546.955726 145.153846 546.800657 147.605769 546.668848 150.057692 546.529286 152.509615 546.366464 154.961538 546.226901 157.413462 545.947777 159.865385 545.808215 162.317308 545.575611 164.769231 545.280979 167.221154 544.978595 169.673077 544.683963 172.125000 544.373825 174.576923 544.125714 177.028846 543.823329 179.480769 543.520945 181.932692 543.172039 184.384615 542.916175 186.836538 542.644804 189.288462 542.443214 191.740385 542.187350 194.192308 542.040034 196.644231 541.861705 199.096154 541.698882 201.548077 541.543813 204.000000 541.427511 206.451923 541.334470 208.903846 541.264688 211.355769 541.179400 213.807692 541.070852 216.259615 540.970057 218.711538 540.830495 221.163462 540.644412 223.615385 540.481589 226.067308 540.256739 228.519231 540.078409 230.971154 539.946601 233.423077 539.768271 235.875000 539.605448 238.326923 539.403859 240.778846 539.225529 243.230769 539.016186 245.682692 538.806842 248.134615 538.644020 250.586538 538.481197 253.038462 538.364895 255.490385 538.240840 257.942308 538.124538 260.394231 538.047004 262.846154 537.992729 265.298077 537.930702 267.750000 537.891934 270.201923 537.837660 272.653846 537.783386 275.105769 537.659331 277.557692 537.589550 280.009615 537.473248 282.461538 537.395713 284.913462 537.349192 287.365385 537.287165 289.817308 537.240644 292.269231 537.178616 294.721154 537.101082 297.173077 537.077821 299.625000 537.008040 302.076923 536.860724 304.528846 536.728916 306.980769 536.643628 309.432692 536.573847 311.884615 536.496312 314.336538 536.434284 316.788462 536.372257 319.240385 536.294722 321.692308 536.224941 324.144231 536.162913 326.596154 536.131899 329.048077 536.116393 331.500000 536.038858 333.951923 536.007844 336.403846 535.976830 338.855769 535.930310 341.307692 535.876035 343.759615 535.798501 346.211538 535.674445 348.663462 535.604664 351.115385 535.527130 353.567308 535.465102 356.019231 535.387568 358.471154 535.341047 360.923077 535.263512 363.375000 535.162717 365.826923 535.023155 368.278846 534.992141 370.730769 534.806058 373.182692 534.674249 375.634615 534.588961 378.086538 534.526934 380.538462 534.441646 382.990385 534.395125 385.442308 534.309837 387.894231 534.224549 390.346154 534.147014 392.798077 534.061726 395.250000 533.968685 397.701923 533.875643 400.153846 533.635286 402.605769 533.418189 405.057692 533.170079 407.509615 532.921968 409.961538 532.604076 412.413462 532.332705 414.865385 532.053581 417.317308 531.851991 419.769231 531.634894 422.221154 531.503085 424.673077 531.324756 427.125000 526.641667 429.576923 494.201201 432.028846 476.127891 434.480769 465.567682 436.932692 457.147427 439.384615 451.161758 441.836538 445.959188 444.288462 440.795385 446.740385 434.817469 449.192308 426.211131 451.644231 416.511556 454.096154 405.835044 456.548077 393.452773 459.000000 379.325973 461.451923 364.687445 463.903846 352.537777 466.355769 343.497245 468.807692 335.410389 471.259615 327.284765 473.711538 319.174649 476.163462 312.281825 478.615385 305.854209 481.067308 300.659392 483.519231 296.511292 485.971154 292.417467 488.423077 288.951671 490.875000 286.098399 493.326923 283.446716 495.778846 281.640161 498.230769 280.236785 500.682692 279.073766 503.134615 277.918501 505.586538 276.848524 508.038462 275.398627 510.490385 273.576565 512.942308 271.770009 515.394231 269.381944 517.846154 266.846563 520.298077 264.109593 522.750000 261.248567 525.201923 258.751954 527.653846 256.456930 530.105769 253.913796 532.557692 251.401676 535.009615 248.874049 537.461538 246.656560 539.913462 244.795730 542.365385 242.934900 544.817308 241.260153 547.269231 239.771490 549.721154 238.430141 552.173077 237.406685 554.625000 236.522791 557.076923 235.817226 559.528846 235.305498 561.980769 234.661961 564.432692 234.018424 566.884615 233.444668 569.336538 232.553020 571.788462 231.762168 574.240385 230.676684 576.692308 229.668734 579.144231 228.342893 581.596154 226.753434 584.048077 225.574909 586.500000 224.194793 588.951923 222.822431 591.403846 221.543111 593.855769 220.333571 596.307692 219.108525 598.759615 218.054055 601.211538 217.201174 603.663462 216.193225 606.115385 215.123248 608.567308 214.386669 611.019231 213.681105 613.471154 213.177130 615.923077 212.735183 618.375000 212.394031 620.826923 212.014111 623.278846 211.618685 625.730769 211.231012 628.182692 210.843339 630.634615 210.447913 633.086538 209.874157 635.538462 209.261634 637.990385 208.214917 640.442308 207.424064 642.894231 206.726253 645.346154 206.028442 647.798077 205.214329 650.250000 204.462244 652.701923 203.601610 655.153846 202.841771 657.605769 202.283522 660.057692 201.678752 662.509615 200.709570 664.961538 193.211977 667.413462 189.343001 669.865385 186.900662 672.317308 185.210408 674.769231 184.078404 677.221154 183.272044 679.673077 182.473438 682.125000 181.736859 684.576923 180.876226 687.028846 180.015592 689.480769 179.255753 691.932692 178.309831 694.384615 177.340649 696.836538 176.386974 699.288462 175.309243 701.740385 174.239266 704.192308 173.308851 706.644231 172.324162 709.096154 171.393747 711.548077 170.587387 714.000000 169.687986 716.451923 168.850613 718.903846 168.191569 721.355769 167.338689 723.807692 166.602110 726.259615 166.020601 728.711538 165.423585 731.163462 164.911856 733.615385 164.578458 736.067308 164.299333 738.519231 164.027962 740.971154 163.741084 743.423077 163.384425 745.875000 163.159575 748.326923 162.826176 750.778846 162.477271 753.230769 162.035324 755.682692 161.546856 758.134615 161.058388 760.586538 160.608687 763.038462 160.104713 765.490385 159.655012 767.942308 159.112270 770.394231 158.577281 772.846154 158.081060 775.298077 157.484044 777.750000 156.956809 780.201923 156.445081 782.653846 156.010887 785.105769 155.522419 787.557692 154.987431 790.009615 154.568744 792.461538 154.165564 794.913462 153.785645 797.365385 153.390218 799.817308 152.870737 802.269231 152.203939 804.721154 151.614677 807.173077 150.692015 809.625000 149.513490 812.076923 148.133374 814.528846 146.117475 816.980769 144.504756 819.432692 143.155654 821.884615 141.915101 824.336538 140.635781 826.788462 139.162624 829.240385 137.596425 831.692308 136.456667 834.144231 135.588280 836.596154 134.805180 839.048077 133.975561 841.500000 133.347530 843.951923 132.657473 846.403846 132.246539 848.855769 131.866620 851.307692 131.478947 853.759615 131.114535 856.211538 130.781136 858.663462 130.486505 861.115385 130.207380 863.567308 129.904995 866.019231 129.424281 868.471154 128.974580 870.923077 128.230248 873.375000 127.485917 875.826923 126.757091 878.278846 126.012760 880.730769 125.221907 883.182692 124.462068 885.634615 123.740996 888.086538 122.826088 890.538462 122.260086 892.990385 121.771618 895.442308 121.275397 897.894231 120.833450 900.346154 120.833450" /></g><g class="series serie-2 color-2"><path class="line reactive nofill" d="M17.653846 623.769231 L20.105769 623.769231 22.557692 623.769231 25.009615 623.769231 27.461538 623.769231 29.913462 623.769231 32.365385 623.769231 34.817308 623.769231 37.269231 623.769231 39.721154 623.769231 42.173077 623.769231 44.625000 623.769231 47.076923 623.769231 49.528846 623.769231 51.980769 623.769231 54.432692 623.769231 56.884615 623.769231 59.336538 623.769231 61.788462 623.769231 64.240385 623.769231 66.692308 623.769231 69.144231 623.769231 71.596154 623.769231 74.048077 623.769231 76.500000 623.769231 78.951923 623.769231 81.403846 623.769231 83.855769 623.769231 86.307692 623.769231 88.759615 623.769231 91.211538 623.769231 93.663462 623.769231 96.115385 623.769231 98.567308 623.769231 101.019231 623.769231 103.471154 623.769231 105.923077 623.769231 108.375000 623.769231 110.826923 623.769231 113.278846 623.769231 115.730769 623.769231 118.182692 623.769231 120.634615 623.769231 123.086538 623.769231 125.538462 623.769231 127.990385 623.769231 130.442308 623.769231 132.894231 623.769231 135.346154 623.769231 137.798077 623.769231 140.250000 623.769231 142.701923 623.769231 145.153846 623.769231 147.605769 623.769231 150.057692 623.769231 152.509615 623.769231 154.961538 623.769231 157.413462 623.769231 159.865385 623.769231 162.317308 623.769231 164.769231 623.769231 167.221154 623.769231 169.673077 623.769231 172.125000 623.769231 174.576923 623.769231 177.028846 623.769231 179.480769 623.769231 181.932692 623.769231 184.384615 623.769231 186.836538 623.769231 189.288462 623.769231 191.740385 623.769231 194.192308 623.769231 196.644231 623.769231 199.096154 623.769231 201.548077 623.769231 204.000000 623.769231 206.451923 623.769231 208.903846 623.769231 211.355769 623.769231 213.807692 623.769231 216.259615 623.769231 218.711538 623.769231 221.163462 623.769231 223.615385 623.769231 226.067308 623.769231 228.519231 623.769231 230.971154 623.769231 233.423077 623.769231 235.875000 623.769231 238.326923 623.769231 240.778846 623.769231 243.230769 623.769231 245.682692 623.769231 248.134615 623.769231 250.586538 623.769231 253.038462 623.769231 255.490385 623.769231 257.942308 623.769231 260.394231 623.769231 262.846154 623.769231 265.298077 623.769231 267.750000 623.769231 270.201923 623.769231 272.653846 623.769231 275.105769 623.769231 277.557692 623.769231 280.009615 623.769231 282.461538 623.769231 284.913462 623.769231 287.365385 623.769231 289.817308 623.769231 292.269231 623.769231 294.721154 623.769231 297.173077 623.769231 299.625000 623.769231 302.076923 623.769231 304.528846 623.769231 306.980769 623.769231 309.432692 623.769231 311.884615 623.769231 314.336538 623.769231 316.788462 623.769231 319.240385 623.769231 321.692308 623.769231 324.144231 623.769231 326.596154 623.769231 329.048077 623.769231 331.500000 623.769231 333.951923 623.769231 336.403846 623.769231 338.855769 623.769231 341.307692 623.769231 343.759615 623.769231 346.211538 623.769231 348.663462 623.769231 351.115385 623.769231 353.567308 623.769231 356.019231 623.769231 358.471154 623.769231 360.923077 623.769231 363.375000 623.769231 365.826923 623.769231 368.278846 623.769231 370.730769 623.769231 373.182692 623.769231 375.634615 623.769231 378.086538 623.769231 380.538462 623.769231 382.990385 623.769231 385.442308 623.769231 387.894231 623.769231 390.346154 623.769231 392.798077 623.769231 395.250000 623.769231 397.701923 623.769231 400.153846 623.769231 402.605769 623.769231 405.057692 623.769231 407.509615 623.769231 409.961538 623.769231 412.413462 623.769231 414.865385 623.769231 417.317308 623.769231 419.769231 623.769231 422.221154 623.769231 424.673077 623.769231 427.125000 623.769231 429.576923 623.769231 432.028846 623.769231 434.480769 623.769231 436.932692 623.769231 439.384615 623.769231 441.836538 623.769231 444.288462 623.769231 446.740385 623.769231 449.192308 623.769231 451.644231 623.769231 454.096154 623.769231 456.548077 623.769231 459.000000 623.769231 461.451923 623.769231 463.903846 623.769231 466.355769 623.769231 468.807692 623.769231 471.259615 623.769231 473.711538 623.769231 476.163462 623.769231 478.615385 623.769231 481.067308 623.769231 483.519231 623.769231 485.971154 623.769231 488.423077 623.769231 490.875000 623.769231 493.326923 623.769231 495.778846 623.769231 498.230769 623.769231 500.682692 623.769231 503.134615 623.769231 505.586538 623.769231 508.038462 623.769231 510.490385 623.769231 512.942308 623.769231 515.394231 623.769231 517.846154 623.769231 520.298077 623.769231 522.750000 623.769231 525.201923 623.769231 527.653846 623.769231 530.105769 623.769231 532.557692 623.769231 535.009615 623.769231 537.461538 623.769231 539.913462 623.769231 542.365385 623.769231 544.817308 623.769231 547.269231 623.769231 549.721154 623.769231 552.173077 623.769231 554.625000 623.769231 557.076923 623.769231 559.528846 623.769231 561.980769 623.769231 564.432692 623.769231 566.884615 623.769231 569.336538 623.769231 571.788462 623.769231 574.240385 623.769231 576.692308 623.769231 579.144231 623.769231 581.596154 623.769231 584.048077 623.769231 586.500000 623.769231 588.951923 623.769231 591.403846 623.769231 593.855769 623.769231 596.307692 623.769231 598.759615 623.769231 601.211538 623.769231 603.663462 623.769231 606.115385 623.769231 608.567308 623.769231 611.019231 623.769231 613.471154 623.769231 615.923077 623.769231 618.375000 623.769231 620.826923 623.769231 623.278846 623.769231 625.730769 623.769231 628.182692 623.769231 630.634615 623.769231 633.086538 623.769231 635.538462 623.769231 637.990385 623.769231 640.442308 623.769231 642.894231 623.769231 645.346154 623.769231 647.798077 623.769231 650.250000 623.769231 652.701923 623.769231 655.153846 623.769231 657.605769 623.769231 660.057692 623.769231 662.509615 623.769231 664.961538 598.927153 667.413462 587.490803 669.865385 581.148474 672.317308 577.395801 674.769231 574.472747 677.221154 571.890846 679.673077 569.564809 682.125000 566.874359 684.576923 563.300015 687.028846 559.795452 689.480769 556.329657 691.932692 552.352133 694.384615 548.855323 696.836538 544.893307 699.288462 541.303456 701.740385 538.403663 704.192308 535.627925 706.644231 532.906461 709.096154 530.316806 711.548077 527.936495 714.000000 525.897335 716.451923 523.571298 718.903846 521.780249 721.355769 519.671309 723.807692 518.229166 726.259615 517.042887 728.711538 516.120225 731.163462 515.337126 733.615385 514.771124 736.067308 514.150847 738.519231 513.577091 740.971154 513.057610 743.423077 512.499361 745.875000 511.685248 748.326923 510.553243 750.778846 509.514280 753.230769 508.149671 755.682692 507.048680 758.134615 505.738346 760.586538 504.435765 763.038462 503.288253 765.490385 502.109728 767.942308 501.148299 770.394231 499.931006 772.846154 498.744727 775.298077 497.597215 777.750000 496.472964 780.201923 495.418494 782.653846 494.503586 785.105769 493.542157 787.557692 492.836592 790.009615 491.960452 792.461538 491.115325 794.913462 490.153896 797.365385 489.114933 799.817308 487.982928 802.269231 485.749932 804.721154 482.602028 807.173077 478.190311 809.625000 472.444999 812.076923 467.188154 814.528846 462.249202 816.980769 459.039271 819.432692 456.209259 821.884615 452.774477 824.336538 449.231147 826.788462 445.897160 829.240385 443.338519 831.692308 441.547470 834.144231 440.268150 836.596154 438.857020 839.048077 437.523426 841.500000 436.507723 843.951923 435.453253 846.403846 434.910510 848.855769 434.515084 851.307692 433.980096 853.759615 433.607930 856.211538 433.228010 858.663462 432.793817 861.115385 432.204554 863.567308 431.405948 866.019231 430.157641 868.471154 428.537168 870.923077 427.009737 873.375000 425.590854 875.826923 424.280520 878.278846 423.039967 880.730769 421.814921 883.182692 420.318503 885.634615 419.077950 888.086538 417.798630 890.538462 416.813940 892.990385 415.914539 895.442308 415.108180 897.894231 414.263053 900.346154 414.263053" /></g><g class="series serie-3 color-3"><path class="line reactive nofill" d="M17.653846 608.208041 L20.105769 602.385195 22.557692 599.136496 25.009615 596.973281 27.461538 594.934122 29.913462 593.577267 32.365385 592.212658 34.817308 590.623200 37.269231 588.250641 39.721154 585.195779 42.173077 582.001355 44.625000 577.628405 47.076923 573.627620 49.528846 570.906157 51.980769 568.401790 54.432692 566.323863 56.884615 564.168402 59.336538 562.059462 61.788462 559.935014 64.240385 558.081938 66.692308 556.624288 69.144231 555.329461 71.596154 554.181949 74.048077 553.096465 76.500000 552.243584 78.951923 551.196868 81.403846 550.700646 83.855769 550.343987 86.307692 549.909794 88.759615 549.498860 91.211538 549.227489 93.663462 548.971625 96.115385 548.452144 98.567308 547.847374 101.019231 547.188330 103.471154 546.296682 105.923077 545.405035 108.375000 544.528894 110.826923 543.699274 113.278846 543.009216 115.730769 542.218364 118.182692 541.404251 120.634615 540.698686 123.086538 540.086163 125.538462 539.574435 127.990385 538.961912 130.442308 538.411416 132.894231 537.953962 135.346154 537.488755 137.798077 537.116589 140.250000 536.752176 142.701923 536.612614 145.153846 536.449791 147.605769 536.279215 150.057692 536.062118 152.509615 535.891542 154.961538 535.565897 157.413462 535.154964 159.865385 534.806058 162.317308 534.263316 164.769231 533.712821 167.221154 533.247613 169.673077 532.774652 172.125000 532.231910 174.576923 531.774456 177.028846 531.208454 179.480769 530.626945 181.932692 530.076449 184.384615 529.650009 186.836538 529.355378 189.288462 529.014225 191.740385 528.657566 194.192308 528.215619 196.644231 527.936495 199.096154 527.758165 201.548077 527.587589 204.000000 527.471287 206.451923 527.339479 208.903846 527.192163 211.355769 527.083614 213.807692 526.851011 216.259615 526.579640 218.711538 526.230734 221.163462 525.920596 223.615385 525.594951 226.067308 525.176264 228.519231 524.765331 230.971154 524.439685 233.423077 524.044259 235.875000 523.679847 238.326923 523.292174 240.778846 522.989789 243.230769 522.788199 245.682692 522.547842 248.134615 522.330745 250.586538 522.129155 253.038462 521.857784 255.490385 521.694961 257.942308 521.555399 260.394231 521.446851 262.846154 521.315042 265.298077 521.214247 267.750000 521.152219 270.201923 521.090192 272.653846 520.966136 275.105769 520.896355 277.557692 520.764547 280.009615 520.632738 282.461538 520.555203 284.913462 520.462162 287.365385 520.392381 289.817308 520.229558 292.269231 520.082242 294.721154 519.989201 297.173077 519.803118 299.625000 519.648049 302.076923 519.508486 304.528846 519.345664 306.980769 519.144074 309.432692 519.020019 311.884615 518.926977 314.336538 518.857196 316.788462 518.709880 319.240385 518.601332 321.692308 518.516044 324.144231 518.415249 326.596154 518.329961 329.048077 518.267933 331.500000 518.159385 333.951923 518.058590 336.403846 517.957795 338.855769 517.872507 341.307692 517.794972 343.759615 517.616643 346.211538 517.484834 348.663462 517.329765 351.115385 517.197956 353.567308 517.073901 356.019231 516.949845 358.471154 516.818037 360.923077 516.724995 363.375000 516.608693 365.826923 516.476884 368.278846 516.290801 370.730769 516.158993 373.182692 516.011677 375.634615 515.926389 378.086538 515.841101 380.538462 515.755813 382.990385 515.655018 385.442308 515.515456 387.894231 515.445675 390.346154 515.344880 392.798077 515.151043 395.250000 514.957207 397.701923 514.592794 400.153846 514.189614 402.605769 513.724407 405.057692 513.352241 407.509615 512.925801 409.961538 512.545881 412.413462 511.979879 414.865385 511.522425 417.317308 511.274314 419.769231 510.995190 422.221154 510.692805 424.673077 510.367160 427.125000 510.018254 429.576923 471.406035 432.028846 453.061355 434.480769 443.144682 436.932692 435.825418 439.384615 429.545118 441.836538 424.280520 444.288462 418.341372 446.740385 412.534032 449.192308 404.121530 451.644231 391.863314 454.096154 375.728369 456.548077 355.189459 459.000000 337.542590 461.451923 321.996907 463.903846 309.994555 466.355769 299.434346 468.807692 288.633779 471.259615 278.445736 473.711538 268.722900 476.163462 260.891908 478.615385 254.929499 481.067308 249.750189 483.519231 244.958553 485.971154 240.608863 488.423077 236.925971 490.875000 233.685025 493.326923 231.529564 495.778846 230.149449 498.230769 229.009690 500.682692 227.753630 503.134615 226.559598 505.586538 225.063180 508.038462 223.055035 510.490385 220.434366 512.942308 216.922050 515.394231 212.944526 517.846154 208.959249 520.298077 204.772382 522.750000 201.058476 525.201923 197.468625 527.653846 193.886527 530.105769 190.219142 532.557692 186.450962 535.009615 183.465880 537.461538 180.643622 539.913462 178.457147 542.365385 176.200891 544.817308 174.223759 547.269231 172.277641 549.721154 170.951800 552.173077 169.796535 554.625000 168.866120 557.076923 168.191569 559.528846 167.307675 561.980769 166.633124 564.432692 165.772490 566.884615 164.749034 569.336538 163.686810 571.788462 161.763953 574.240385 159.802328 576.692308 157.801936 579.144231 155.561186 581.596154 153.537534 584.048077 151.622430 586.500000 149.350667 588.951923 147.288247 591.403846 145.334376 593.855769 143.892233 596.307692 142.209732 598.759615 140.728822 601.211538 139.627831 603.663462 138.534594 606.115385 137.379328 608.567308 136.433407 611.019231 135.774363 613.471154 135.270388 615.923077 134.812934 618.375000 134.448521 620.826923 133.967807 623.278846 133.471586 625.730769 132.921090 628.182692 132.223279 630.634615 131.424673 633.086538 130.470998 635.538462 129.222691 637.990385 127.951124 640.442308 126.958681 642.894231 126.012760 645.346154 124.655904 647.798077 123.330063 650.250000 121.918934 652.701923 120.887724 655.153846 120.143392 657.605769 119.228484 660.057692 118.344590 662.509615 117.631272 664.961538 109.583183 667.413462 105.272260 669.865385 102.535290 672.317308 100.790762 674.769231 99.682018 677.221154 98.697328 679.673077 97.937490 682.125000 97.038088 684.576923 95.921591 687.028846 94.642270 689.480769 93.355196 691.932692 91.913053 694.384615 90.672500 696.836538 89.059781 699.288462 87.741693 701.740385 86.625195 704.192308 85.183052 706.644231 84.004526 709.096154 82.794987 711.548077 81.600954 714.000000 80.655033 716.451923 79.585055 718.903846 78.685654 721.355769 77.538143 723.807692 76.700769 726.259615 75.933177 728.711538 75.452463 731.163462 74.878707 733.615385 74.529801 736.067308 74.173142 738.519231 73.894018 740.971154 73.583879 743.423077 73.265987 745.875000 72.893822 748.326923 72.366586 750.778846 71.808337 753.230769 70.963211 755.682692 70.164604 758.134615 69.358245 760.586538 68.792242 763.038462 68.016897 765.490385 67.373360 767.942308 66.768590 770.394231 65.985491 772.846154 65.287680 775.298077 64.535594 777.750000 64.016113 780.201923 63.434603 782.653846 62.767806 785.105769 62.201803 787.557692 61.806377 790.009615 61.372184 792.461538 60.945743 794.913462 60.356481 797.365385 59.821492 799.817308 59.177955 802.269231 58.270800 804.721154 56.921699 807.173077 54.991088 809.625000 52.641790 812.076923 49.928080 814.528846 47.028287 816.980769 45.113183 819.432692 43.244600 821.884615 41.065878 824.336538 38.871650 826.788462 36.778216 829.240385 34.948400 831.692308 33.707847 834.144231 32.544828 836.596154 31.397316 839.048077 30.187777 841.500000 29.249609 843.951923 28.482016 846.403846 27.830726 848.855769 27.427546 851.307692 27.117408 853.759615 26.714228 856.211538 26.365322 858.663462 26.024170 861.115385 25.628744 863.567308 25.148030 866.019231 24.140080 868.471154 23.101117 870.923077 21.953605 873.375000 20.930149 875.826923 19.875678 878.278846 19.092579 880.730769 18.208685 883.182692 17.099941 885.634615 16.192786 888.086538 15.084042 890.538462 14.339710 892.990385 13.703926 895.442308 12.967348 897.894231 12.230769 900.346154 12.230769" /></g><g class="series serie-4 color-4"><path class="line reactive nofill" d="M17.653846 623.769231 L20.105769 623.769231 22.557692 623.769231 25.009615 623.769231 27.461538 623.769231 29.913462 623.769231 32.365385 623.769231 34.817308 623.769231 37.269231 623.769231 39.721154 623.769231 42.173077 623.769231 44.625000 623.769231 47.076923 623.769231 49.528846 623.769231 51.980769 623.769231 54.432692 623.769231 56.884615 623.769231 59.336538 623.769231 61.788462 623.769231 64.240385 623.769231 66.692308 623.769231 69.144231 623.769231 71.596154 623.769231 74.048077 623.769231 76.500000 623.769231 78.951923 623.769231 81.403846 623.769231 83.855769 623.769231 86.307692 623.769231 88.759615 623.769231 91.211538 623.769231 93.663462 623.769231 96.115385 623.769231 98.567308 623.769231 101.019231 623.769231 103.471154 623.769231 105.923077 623.769231 108.375000 623.769231 110.826923 623.769231 113.278846 623.769231 115.730769 623.769231 118.182692 623.769231 120.634615 623.769231 123.086538 623.769231 125.538462 623.769231 127.990385 623.769231 130.442308 623.769231 132.894231 623.769231 135.346154 623.769231 137.798077 623.769231 140.250000 623.769231 142.701923 623.769231 145.153846 623.769231 147.605769 623.769231 150.057692 623.769231 152.509615 623.769231 154.961538 623.769231 157.413462 623.769231 159.865385 623.769231 162.317308 623.769231 164.769231 623.769231 167.221154 623.769231 169.673077 623.769231 172.125000 623.769231 174.576923 623.769231 177.028846 623.769231 179.480769 623.769231 181.932692 623.769231 184.384615 623.769231 186.836538 623.769231 189.288462 623.769231 191.740385 623.769231 194.192308 623.769231 196.644231 623.769231 199.096154 623.769231 201.548077 623.769231 204.000000 623.769231 206.451923 623.769231 208.903846 623.769231 211.355769 623.769231 213.807692 623.769231 216.259615 623.769231 218.711538 623.769231 221.163462 623.769231 223.615385 623.769231 226.067308 623.769231 228.519231 623.769231 230.971154 623.769231 233.423077 623.769231 235.875000 623.769231 238.326923 623.769231 240.778846 623.769231 243.230769 623.769231 245.682692 623.769231 248.134615 623.769231 250.586538 623.769231 253.038462 623.769231 255.490385 623.769231 257.942308 623.769231 260.394231 623.769231 262.846154 623.769231 265.298077 623.769231 267.750000 623.769231 270.201923 623.769231 272.653846 623.769231 275.105769 623.769231 277.557692 623.769231 280.009615 623.769231 282.461538 623.769231 284.913462 623.769231 287.365385 623.769231 289.817308 623.769231 292.269231 623.769231 294.721154 623.769231 297.173077 623.769231 299.625000 623.769231 302.076923 623.769231 304.528846 623.769231 306.980769 623.769231 309.432692 623.769231 311.884615 623.769231 314.336538 623.769231 316.788462 623.769231 319.240385 623.769231 321.692308 623.769231 324.144231 623.769231 326.596154 623.769231 329.048077 623.769231 331.500000 623.769231 333.951923 623.769231 336.403846 623.769231 338.855769 623.769231 341.307692 623.769231 343.759615 623.769231 346.211538 623.769231 348.663462 623.769231 351.115385 623.769231 353.567308 623.769231 356.019231 623.769231 358.471154 623.769231 360.923077 623.769231 363.375000 623.769231 365.826923 623.769231 368.278846 623.769231 370.730769 623.769231 373.182692 623.769231 375.634615 623.769231 378.086538 623.769231 380.538462 623.769231 382.990385 623.769231 385.442308 623.769231 387.894231 623.769231 390.346154 623.769231 392.798077 623.769231 395.250000 623.769231 397.701923 623.769231 400.153846 623.769231 402.605769 623.769231 405.057692 623.769231 407.509615 623.769231 409.961538 623.769231 412.413462 623.769231 414.865385 623.769231 417.317308 623.769231 419.769231 623.769231 422.221154 623.769231 424.673077 623.769231 427.125000 623.769231 429.576923 623.769231 432.028846 623.769231 434.480769 623.769231 436.932692 623.769231 439.384615 623.769231 441.836538 623.769231 444.288462 623.769231 446.740385 623.769231 449.192308 623.769231 451.644231 623.769231 454.096154 623.769231 456.548077 623.769231 459.000000 623.769231 461.451923 623.769231 463.903846 623.769231 466.355769 623.769231 468.807692 623.769231 471.259615 623.769231 473.711538 623.769231 476.163462 623.769231 478.615385 623.769231 481.067308 623.769231 483.519231 623.769231 485.971154 623.769231 488.423077 623.769231 490.875000 623.769231 493.326923 623.769231 495.778846 623.769231 498.230769 623.769231 500.682692 623.769231 503.134615 623.769231 505.586538 623.769231 508.038462 623.769231 510.490385 623.769231 512.942308 623.769231 515.394231 623.769231 517.846154 623.769231 520.298077 623.769231 522.750000 623.769231 525.201923 623.769231 527.653846 623.769231 530.105769 623.769231 532.557692 623.769231 535.009615 623.769231 537.461538 623.769231 539.913462 623.769231 542.365385 623.769231 544.817308 623.769231 547.269231 623.769231 549.721154 623.769231 552.173077 623.769231 554.625000 623.769231 557.076923 623.769231 559.528846 623.769231 561.980769 623.769231 564.432692 623.769231 566.884615 623.769231 569.336538 623.769231 571.788462 623.769231 574.240385 623.769231 576.692308 623.769231 579.144231 623.769231 581.596154 623.769231 584.048077 623.769231 586.500000 623.769231 588.951923 623.769231 591.403846 623.769231 593.855769 623.769231 596.307692 623.769231 598.759615 623.769231 601.211538 623.769231 603.663462 623.769231 606.115385 623.769231 608.567308 623.769231 611.019231 623.769231 613.471154 623.769231 615.923077 623.769231 618.375000 623.769231 620.826923 623.769231 623.278846 623.769231 625.730769 623.769231 628.182692 623.769231 630.634615 623.769231 633.086538 623.769231 635.538462 623.769231 637.990385 623.769231 640.442308 623.769231 642.894231 623.769231 645.346154 623.769231 647.798077 623.769231 650.250000 623.769231 652.701923 623.769231 655.153846 623.769231 657.605769 623.769231 660.057692 623.769231 662.509615 623.769231 664.961538 600.795736 667.413462 588.064559 669.865385 581.016666 672.317308 576.310317 674.769231 573.263208 677.221154 570.611525 679.673077 568.518092 682.125000 566.021479 684.576923 562.803794 687.028846 559.578355 689.480769 556.453712 691.932692 553.344575 694.384615 550.165658 696.836538 546.947973 699.288462 543.288341 701.740385 540.039642 704.192308 536.860724 706.644231 534.209042 709.096154 531.960539 711.548077 529.324364 714.000000 527.099121 716.451923 524.959167 718.903846 523.028556 721.355769 521.066931 723.807692 519.648049 726.259615 517.957795 728.711538 516.856804 731.163462 515.848854 733.615385 515.081262 736.067308 514.445479 738.519231 513.755421 740.971154 513.181665 743.423077 512.693197 745.875000 511.995386 748.326923 511.235547 750.778846 510.374913 753.230769 509.219648 755.682692 508.048876 758.134615 506.792816 760.586538 505.474728 763.038462 504.311709 765.490385 502.861813 767.942308 501.892631 770.394231 500.551283 772.846154 499.310729 775.298077 498.101190 777.750000 496.868390 780.201923 495.798413 782.653846 494.681915 785.105769 493.751500 787.557692 492.650509 790.009615 491.913931 792.461538 490.975762 794.913462 490.153896 797.365385 489.068412 799.817308 488.153504 802.269231 486.238400 804.721154 483.617731 807.173077 480.407800 809.625000 476.693893 812.076923 470.553155 814.528846 465.117981 816.980769 460.225550 819.432692 456.232519 821.884615 452.914039 824.336538 449.587806 826.788462 446.688013 829.240385 443.757206 831.692308 441.516456 834.144231 439.795189 836.596154 438.523622 839.048077 437.228794 841.500000 435.895200 843.951923 434.817469 846.403846 433.848287 848.855769 433.158229 851.307692 432.708529 853.759615 432.204554 856.211538 431.599784 858.663462 431.057042 861.115385 430.405752 863.567308 429.537364 866.019231 428.762019 868.471154 427.451684 870.923077 426.017295 873.375000 424.544138 875.826923 422.776349 878.278846 421.652098 880.730769 420.279736 883.182692 418.806579 885.634615 417.620300 888.086538 416.255691 890.538462 415.084919 892.990385 414.239792 895.442308 413.293871 897.894231 412.588306 900.346154 412.518525" /></g><g class="series serie-5 color-5"><path class="line reactive nofill" d="M17.653846 607.952177 L20.105769 600.741462 22.557692 596.601115 25.009615 594.182037 27.461538 592.352221 29.913462 590.824789 32.365385 589.498948 34.817308 587.816448 37.269231 586.405319 39.721154 584.249857 42.173077 581.675709 44.625000 578.861204 47.076923 575.209326 49.528846 571.363611 51.980769 568.688668 54.432692 566.905373 56.884615 565.153091 59.336538 563.400810 61.788462 561.462445 64.240385 559.772192 66.692308 558.244761 69.144231 557.190290 71.596154 556.283136 74.048077 555.352721 76.500000 554.453320 78.951923 553.708988 81.403846 552.980163 83.855769 552.615750 86.307692 552.290105 88.759615 551.941200 91.211538 551.631061 93.663462 551.258895 96.115385 550.925497 98.567308 550.499056 101.019231 550.103630 103.471154 549.522121 105.923077 548.715761 108.375000 547.963676 110.826923 547.351153 113.278846 546.823918 115.730769 546.071832 118.182692 545.335254 120.634615 544.753744 123.086538 544.001659 125.538462 543.505438 127.990385 542.900668 130.442308 542.450967 132.894231 542.009020 135.346154 541.497292 137.798077 541.008824 140.250000 540.582384 142.701923 540.334274 145.153846 540.148191 147.605769 539.969861 150.057692 539.799285 152.509615 539.605448 154.961538 539.434872 157.413462 539.163501 159.865385 538.768075 162.317308 538.419169 164.769231 537.961715 167.221154 537.325932 169.673077 536.852971 172.125000 536.325736 174.576923 535.775240 177.028846 535.216991 179.480769 534.697510 181.932692 534.224549 184.384615 533.728328 186.836538 533.286381 189.288462 532.945228 191.740385 532.542049 194.192308 532.185390 196.644231 531.867498 199.096154 531.510839 201.548077 531.254975 204.000000 531.061138 206.451923 530.898316 208.903846 530.758753 211.355769 530.642451 213.807692 530.533903 216.259615 530.316806 218.711538 530.146230 221.163462 529.921380 223.615385 529.750804 226.067308 529.262336 228.519231 528.897924 230.971154 528.549018 233.423077 528.207866 235.875000 527.804686 238.326923 527.424767 240.778846 527.114628 243.230769 526.781230 245.682692 526.463338 248.134615 526.184213 250.586538 525.889582 253.038462 525.695746 255.490385 525.463142 257.942308 525.346840 260.394231 525.222785 262.846154 525.114236 265.298077 525.036702 267.750000 524.912646 270.201923 524.881632 272.653846 524.835112 275.105769 524.765331 277.557692 524.649029 280.009615 524.493960 282.461538 524.377658 284.913462 524.284616 287.365385 524.121794 289.817308 523.989985 292.269231 523.927957 294.721154 523.803902 297.173077 523.664340 299.625000 523.563545 302.076923 523.408476 304.528846 523.237899 306.980769 523.152611 309.432692 523.059570 311.884615 522.888994 314.336538 522.780445 316.788462 522.640883 319.240385 522.501321 321.692308 522.423786 324.144231 522.322991 326.596154 522.214443 329.048077 522.160169 331.500000 522.105895 333.951923 521.981839 336.403846 521.865537 338.855769 521.788003 341.307692 521.601920 343.759615 521.462358 346.211538 521.338302 348.663462 521.206494 351.115385 521.059178 353.567308 520.911862 356.019231 520.694765 358.471154 520.601724 360.923077 520.462162 363.375000 520.268325 365.826923 520.012461 368.278846 519.849639 370.730769 519.694569 373.182692 519.500733 375.634615 519.376678 378.086538 519.237115 380.538462 519.182841 382.990385 519.089800 385.442308 518.965744 387.894231 518.833936 390.346154 518.500537 392.798077 518.097357 395.250000 517.701931 397.701923 517.205709 400.153846 516.763762 402.605769 516.221020 405.057692 515.624004 407.509615 515.127783 409.961538 514.709096 412.413462 514.228382 414.865385 513.646872 417.317308 513.251446 419.769231 512.832759 422.221154 512.607909 424.673077 512.274510 427.125000 511.840317 429.576923 475.499861 432.028846 454.495744 434.480769 442.004924 436.932692 431.460222 439.384615 425.249702 441.836538 419.085704 444.288462 413.914147 446.740385 407.199653 449.192308 397.810216 451.644231 387.242253 454.096154 375.798150 456.548077 360.919265 459.000000 342.923489 461.451923 324.819166 463.903846 309.630143 466.355769 299.604922 468.807692 289.261809 471.259615 279.988674 473.711538 270.638004 476.163462 263.132657 478.615385 254.875225 481.067308 249.370270 483.519231 244.780223 485.971154 240.593356 488.423077 236.693367 490.875000 233.219818 493.326923 230.614656 495.778846 228.490209 498.230769 227.249655 500.682692 225.923814 503.134615 224.714275 505.586538 223.264378 508.038462 221.566371 510.490385 219.721048 512.942308 217.146900 515.394231 214.371162 517.846154 211.215505 520.298077 206.943350 522.750000 203.322485 525.201923 200.407185 527.653846 196.848348 530.105769 193.452334 532.557692 190.381965 535.009615 187.466665 537.461538 184.830489 539.913462 182.752562 542.365385 180.829705 544.817308 179.185972 547.269231 177.270868 549.721154 175.681409 552.173077 174.386582 554.625000 173.541455 557.076923 172.820383 559.528846 172.138079 561.980769 171.665118 564.432692 171.006074 566.884615 170.222975 569.336538 169.106477 571.788462 168.036500 574.240385 166.555589 576.692308 164.873089 579.144231 163.012259 581.596154 160.756003 584.048077 159.174298 586.500000 157.189413 588.951923 155.328583 591.403846 153.413479 593.855769 151.785253 596.307692 150.785057 598.759615 149.025022 601.211538 147.947291 603.663462 146.768766 606.115385 145.737556 608.567308 144.698592 611.019231 143.768177 613.471154 143.124640 615.923077 142.721461 618.375000 142.341541 620.826923 141.938361 623.278846 141.457647 625.730769 140.945919 628.182692 140.449698 630.634615 139.728626 633.086538 138.852485 635.538462 138.015112 637.990385 136.991656 640.442308 135.751102 642.894231 134.588084 645.346154 133.742957 647.798077 132.797035 650.250000 131.603002 652.701923 130.835410 655.153846 129.912749 657.605769 129.207184 660.057692 128.555894 662.509615 127.927864 664.961538 119.453334 667.413462 114.398080 669.865385 111.234669 672.317308 109.094715 674.769231 107.792134 677.221154 106.559334 679.673077 105.590152 682.125000 104.582203 684.576923 103.496719 687.028846 102.519783 689.480769 101.279230 691.932692 100.131718 694.384615 98.805877 696.836538 97.557570 699.288462 96.154194 701.740385 94.758572 704.192308 93.316429 706.644231 91.990588 709.096154 90.812062 711.548077 89.338905 714.000000 88.361969 716.451923 87.276485 718.903846 86.214262 721.355769 85.229573 723.807692 84.213870 726.259615 83.322222 728.711538 82.748466 731.163462 82.159203 733.615385 81.670736 736.067308 81.314076 738.519231 80.918650 740.971154 80.608512 743.423077 80.321634 745.875000 79.918454 748.326923 79.414479 750.778846 78.848477 753.230769 78.251461 755.682692 77.530389 758.134615 76.770550 760.586538 75.964191 763.038462 75.204352 765.490385 74.335965 767.942308 73.576126 770.394231 72.606944 772.846154 71.831598 775.298077 71.064006 777.750000 70.358441 780.201923 69.668383 782.653846 68.939558 785.105769 68.303775 787.557692 67.621470 790.009615 67.202784 792.461538 66.675549 794.913462 66.171574 797.365385 65.543544 799.817308 65.078336 802.269231 64.217702 804.721154 63.054684 807.173077 61.573773 809.625000 59.968808 812.076923 57.402413 814.528846 54.587908 816.980769 51.812170 819.432692 49.462873 821.884615 47.532262 824.336538 45.144197 826.788462 43.461696 829.240385 41.523332 831.692308 39.918366 834.144231 38.724334 836.596154 37.584576 839.048077 36.654161 841.500000 35.560923 843.951923 34.723550 846.403846 33.955957 848.855769 33.475243 851.307692 33.064310 853.759615 32.630116 856.211538 32.257950 858.663462 31.854770 861.115385 31.498111 863.567308 30.916602 866.019231 30.420381 868.471154 29.559747 870.923077 28.365715 873.375000 27.241463 875.826923 26.101705 878.278846 25.248825 880.730769 24.101313 883.182692 22.930541 885.634615 22.007879 888.086538 20.813847 890.538462 19.852418 892.990385 19.108086 895.442308 18.402521 897.894231 17.735724 900.346154 17.704710" /></g></g><g class="titles"><text class="title plot_title" x="512.0" y="26">Election 5 and 6 and 7 Participation</text><text class="title" transform="rotate(-90 0.000000 364.000000)" x="0" y="390.0">Users</text></g><g class="plot overlay" transform="translate(86, 46)"><g class="series serie-0 color-0" /><g class="series serie-1 color-1" /><g class="series serie-2 color-2" /><g class="series serie-3 color-3" /><g class="series serie-4 color-4" /><g class="series serie-5 color-5" /></g><g class="plot text-overlay" transform="translate(86, 46)"><g class="series serie-0 color-0" /><g class="series serie-1 color-1" /><g class="series serie-2 color-2" /><g class="series serie-3 color-3" /><g class="series serie-4 color-4" /><g class="series serie-5 color-5" /></g><g class="plot tooltip-overlay" transform="translate(86, 46)"><g class="tooltip" style="opacity: 0" transform="translate(0 0)"><a><rect class="tooltip-box" height="0" rx="0" ry="0" width="0" /><text class="text"><tspan class="label" /><tspan class="value" /></text></a></g></g><g class="legends" transform="translate(96, 692)"><g class="legend reactive activate-serie" id="activate-serie-0"><rect class="color-0 reactive" height="12" width="12" x="0.0" y="1.0" /><text x="17.0" y="11.2">5 constituents</text></g><g class="legend reactive activate-serie" id="activate-serie-1"><rect class="color-1 reactive" height="12" width="12" x="306.0" y="1.0" /><text x="323.0" y="11.2">5 caucus</text></g><g class="legend reactive activate-serie" id="activate-serie-2"><rect class="color-2 reactive" height="12" width="12" x="612.0" y="1.0" /><text x="629.0" y="11.2">6 constituents</text></g><g class="legend reactive activate-serie" id="activate-serie-3"><rect class="color-3 reactive" height="12" width="12" x="0.0" y="22.0" /><text x="17.0" y="32.2">6 caucus</text></g><g class="legend reactive activate-serie" id="activate-serie-4"><rect class="color-4 reactive" height="12" width="12" x="306.0" y="22.0" /><text x="323.0" y="32.2">7 constituents</text></g><g class="legend reactive activate-serie" id="activate-serie-5"><rect class="color-5 reactive" height="12" width="12" x="612.0" y="22.0" /><text x="629.0" y="32.2">7 caucus</text></g></g></g></svg>