<?xml version='1.0' encoding='utf-8'?>
<svg xmlns:xlink="http://www.w3.org/1999/xlink" class="pygal-chart" id="chart-ff0f24fc-16d0-421d-813c-ce0cab67e1da" viewBox="0 0 1024 768" xmlns="http://www.w3.org/2000/svg"><!--Generated with pygal 1.7.0 (etree) ©Kozea 2011-2014 on 2015-04-20--><!--http://pygal.org--><!--http://github.com/Kozea/pygal--><defs><style type="text/css">#chart-ff0f24fc-16d0-421d-813c-ce0cab67e1da .title{font-family:"monospace";font-size:16px}#chart-ff0f24fc-16d0-421d-813c-ce0cab67e1da .legends .legend text{font-family:"monospace";font-size:14px}#chart-ff0f24fc-16d0-421d-813c-ce0cab67e1da .axis text{font-family:"monospace";font-size:10px}#chart-ff0f24fc-16d0-421d-813c-ce0cab67e1da .axis text.major{font-family:"monospace";font-size:10px}#chart-ff0f24fc-16d0-421d-813c-ce0cab67e1da .series text{font-family:"monospace";font-size:8px}#chart-ff0f24fc-16d0-421d-813c-ce0cab67e1da .tooltip text{font-family:"monospace";font-size:16px}#chart-ff0f24fc-16d0-421d-813c-ce0cab67e1da text.no_data{font-size:64px}
#chart-ff0f24fc-16d0-421d-813c-ce0cab67e1da{background-color:black}#chart-ff0f24fc-16d0-421d-813c-ce0cab67e1da path,#chart-ff0f24fc-16d0-421d-813c-ce0cab67e1da line,#chart-ff0f24fc-16d0-421d-813c-ce0cab67e1da rect,#chart-ff0f24fc-16d0-421d-813c-ce0cab67e1da circle{-webkit-transition:250ms;-moz-transition:250ms;transition:250ms}#chart-ff0f24fc-16d0-421d-813c-ce0cab67e1da .graph &gt; .background{fill:black}#chart-ff0f24fc-16d0-421d-813c-ce0cab67e1da .plot &gt; .background{fill:#111}#chart-ff0f24fc-16d0-421d-813c-ce0cab67e1da .graph{fill:#999}#chart-ff0f24fc-16d0-421d-813c-ce0cab67e1da text.no_data{fill:#eee}#chart-ff0f24fc-16d0-421d-813c-ce0cab67e1da .title{fill:#eee}#chart-ff0f24fc-16d0-421d-813c-ce0cab67e1da .legends .legend text{fill:#999}#chart-ff0f24fc-16d0-421d-813c-ce0cab67e1da .legends .legend:hover text{fill:#eee}#chart-ff0f24fc-16d0-421d-813c-ce0cab67e1da .axis .line{stroke:#eee}#chart-ff0f24fc-16d0-421d-813c-ce0cab67e1da .axis .guide.line{stroke:#555}#chart-ff0f24fc-16d0-421d-813c-ce0cab67e1da .axis .major.line{stroke:#999}#chart-ff0f24fc-16d0-421d-813c-ce0cab67e1da .axis text.major{stroke:#eee;fill:#eee}#chart-ff0f24fc-16d0-421d-813c-ce0cab67e1da .axis.y .guides:hover .guide.line,#chart-ff0f24fc-16d0-421d-813c-ce0cab67e1da .line-graph .axis.x .guides:hover .guide.line,#chart-ff0f24fc-16d0-421d-813c-ce0cab67e1da .stackedline-graph .axis.x .guides:hover .guide.line,#chart-ff0f24fc-16d0-421d-813c-ce0cab67e1da .xy-graph .axis.x .guides:hover .guide.line{stroke:#eee}#chart-ff0f24fc-16d0-421d-813c-ce0cab67e1da .axis .guides:hover text{fill:#eee}#chart-ff0f24fc-16d0-421d-813c-ce0cab67e1da .reactive{fill-opacity:.8}#chart-ff0f24fc-16d0-421d-813c-ce0cab67e1da .reactive.active,#chart-ff0f24fc-16d0-421d-813c-ce0cab67e1da .active .reactive{fill-opacity:.4}#chart-ff0f24fc-16d0-421d-813c-ce0cab67e1da .series{stroke-width:1.0;stroke-linejoin:round;stroke-linecap:round;stroke-dasharray:0,0}#chart-ff0f24fc-16d0-421d-813c-ce0cab67e1da .series text{fill:#eee}#chart-ff0f24fc-16d0-421d-813c-ce0cab67e1da .tooltip rect{fill:#111;stroke:#eee}#chart-ff0f24fc-16d0-421d-813c-ce0cab67e1da .tooltip text{fill:#eee}#chart-ff0f24fc-16d0-421d-813c-ce0cab67e1da .map-element{fill:#999;stroke:#555 !important;opacity:.9;stroke-width:3;-webkit-transition:250ms;-moz-transition:250ms;-o-transition:250ms;transition:250ms}#chart-ff0f24fc-16d0-421d-813c-ce0cab67e1da .map-element:hover{opacity:1;stroke-width:10}#chart-ff0f24fc-16d0-421d-813c-ce0cab67e1da .color-0,#chart-ff0f24fc-16d0-421d-813c-ce0cab67e1da .color-0 a:visited{stroke:#ff5995;fill:#ff5995}#chart-ff0f24fc-16d0-421d-813c-ce0cab67e1da .color-1,#chart-ff0f24fc-16d0-421d-813c-ce0cab67e1da .color-1 a:visited{stroke:#b6e354;fill:#b6e354}#chart-ff0f24fc-16d0-421d-813c-ce0cab67e1da .color-2,#chart-ff0f24fc-16d0-421d-813c-ce0cab67e1da .color-2 a:visited{stroke:#feed6c;fill:#feed6c}#chart-ff0f24fc-16d0-421d-813c-ce0cab67e1da .color-3,#chart-ff0f24fc-16d0-421d-813c-ce0cab67e1da .color-3 a:visited{stroke:#8cedff;fill:#8cedff}#chart-ff0f24fc-16d0-421d-813c-ce0cab67e1da .color-4,#chart-ff0f24fc-16d0-421d-813c-ce0cab67e1da .color-4 a:visited{stroke:#9e6ffe;fill:#9e6ffe}#chart-ff0f24fc-16d0-421d-813c-ce0cab67e1da .color-5,#chart-ff0f24fc-16d0-421d-813c-ce0cab67e1da .color-5 a:visited{stroke:#899ca1;fill:#899ca1}#chart-ff0f24fc-16d0-421d-813c-ce0cab67e1da .color-6,#chart-ff0f24fc-16d0-421d-813c-ce0cab67e1da .color-6 a:visited{stroke:#f8f8f2;fill:#f8f8f2}#chart-ff0f24fc-16d0-421d-813c-ce0cab67e1da .color-7,#chart-ff0f24fc-16d0-421d-813c-ce0cab67e1da .color-7 a:visited{stroke:#bf4646;fill:#bf4646}#chart-ff0f24fc-16d0-421d-813c-ce0cab67e1da .color-8,#chart-ff0f24fc-16d0-421d-813c-ce0cab67e1da .color-8 a:visited{stroke:#516083;fill:#516083}#chart-ff0f24fc-16d0-421d-813c-ce0cab67e1da .color-9,#chart-ff0f24fc-16d0-421d-813c-ce0cab67e1da .color-9 a:visited{stroke:#f92672;fill:#f92672}#chart-ff0f24fc-16d0-421d-813c-ce0cab67e1da .color-10,#chart-ff0f24fc-16d0-421d-813c-ce0cab67e1da .color-10 a:visited{stroke:#82b414;fill:#82b414}#chart-ff0f24fc-16d0-421d-813c-ce0cab67e1da .color-11,#chart-ff0f24fc-16d0-421d-813c-ce0cab67e1da .color-11 a:visited{stroke:#fd971f;fill:#fd971f}#chart-ff0f24fc-16d0-421d-813c-ce0cab67e1da .color-12,#chart-ff0f24fc-16d0-421d-813c-ce0cab67e1da .color-12 a:visited{stroke:#56c2d6;fill:#56c2d6}#chart-ff0f24fc-16d0-421d-813c-ce0cab67e1da .color-13,#chart-ff0f24fc-16d0-421d-813c-ce0cab67e1da .color-13 a:visited{stroke:#808384;fill:#808384}#chart-ff0f24fc-16d0-421d-813c-ce0cab67e1da .color-14,#chart-ff0f24fc-16d0-421d-813c-ce0cab67e1da .color-14 a:visited{stroke:#8c54fe;fill:#8c54fe}#chart-ff0f24fc-16d0-421d-813c-ce0cab67e1da .color-15,#chart-ff0f24fc-16d0-421d-813c-ce0cab67e1da .color-15 a:visited{stroke:#465457;fill:#465457}
#chart-ff0f24fc-16d0-421d-813c-ce0cab67e1da text.no_data{text-anchor:middle}#chart-ff0f24fc-16d0-421d-813c-ce0cab67e1da .guide.line{fill-opacity:0}#chart-ff0f24fc-16d0-421d-813c-ce0cab67e1da .centered{text-anchor:middle}#chart-ff0f24fc-16d0-421d-813c-ce0cab67e1da .title{text-anchor:middle}#chart-ff0f24fc-16d0-421d-813c-ce0cab67e1da .legends .legend text{fill-opacity:1}#chart-ff0f24fc-16d0-421d-813c-ce0cab67e1da .axis.x text{text-anchor:middle}#chart-ff0f24fc-16d0-421d-813c-ce0cab67e1da .axis.x:not(.web) text[transform]{text-anchor:start}#chart-ff0f24fc-16d0-421d-813c-ce0cab67e1da .axis.y text{text-anchor:end}#chart-ff0f24fc-16d0-421d-813c-ce0cab67e1da .axis.y2 text{text-anchor:start}#chart-ff0f24fc-16d0-421d-813c-ce0cab67e1da .axis.y .logarithmic text:not(.major),#chart-ff0f24fc-16d0-421d-813c-ce0cab67e1da .axis.y2 .logarithmic text:not(.major){font-size:50%}#chart-ff0f24fc-16d0-421d-813c-ce0cab67e1da .axis .guide.line{stroke-dasharray:4,4}#chart-ff0f24fc-16d0-421d-813c-ce0cab67e1da .axis .major.guide.line{stroke-dasharray:6,6}#chart-ff0f24fc-16d0-421d-813c-ce0cab67e1da .axis text.major{stroke-width:0.5px}#chart-ff0f24fc-16d0-421d-813c-ce0cab67e1da .horizontal .axis.y .guide.line,#chart-ff0f24fc-16d0-421d-813c-ce0cab67e1da .horizontal .axis.y2 .guide.line,#chart-ff0f24fc-16d0-421d-813c-ce0cab67e1da .vertical .axis.x .guide.line{opacity:0}#chart-ff0f24fc-16d0-421d-813c-ce0cab67e1da .horizontal .axis.always_show .guide.line,#chart-ff0f24fc-16d0-421d-813c-ce0cab67e1da .vertical .axis.always_show .guide.line{opacity:1 !important}#chart-ff0f24fc-16d0-421d-813c-ce0cab67e1da .axis.y .guides:hover .guide.line,#chart-ff0f24fc-16d0-421d-813c-ce0cab67e1da .axis.y2 .guides:hover .guide.line,#chart-ff0f24fc-16d0-421d-813c-ce0cab67e1da .axis.x .guides:hover .guide.line{opacity:1}#chart-ff0f24fc-16d0-421d-813c-ce0cab67e1da .axis .guides:hover text{opacity:1}#chart-ff0f24fc-16d0-421d-813c-ce0cab67e1da .nofill{fill:none}#chart-ff0f24fc-16d0-421d-813c-ce0cab67e1da .subtle-fill{fill-opacity:.2}#chart-ff0f24fc-16d0-421d-813c-ce0cab67e1da .dot{stroke-width:1px;fill-opacity:1}#chart-ff0f24fc-16d0-421d-813c-ce0cab67e1da .dot.active{stroke-width:5px}#chart-ff0f24fc-16d0-421d-813c-ce0cab67e1da .series text{stroke:none}#chart-ff0f24fc-16d0-421d-813c-ce0cab67e1da .series text.active{opacity:1}#chart-ff0f24fc-16d0-421d-813c-ce0cab67e1da .tooltip rect{fill-opacity:0.8}#chart-ff0f24fc-16d0-421d-813c-ce0cab67e1da .tooltip text{fill-opacity:1}#chart-ff0f24fc-16d0-421d-813c-ce0cab67e1da .tooltip text tspan.label{fill-opacity:.8}</style><script type="text/javascript">window.config = {"no_prefix": false, "tooltip_font_size": 16, "no_data_text": "No data", "x_labels_major": null, "label_font_size": 10, "stack_from_top": false, "x_labels_major_every": null, "legend_font_size": 14, "legend_box_size": 12, "interpolation_parameters": {}, "value_font_size": 8, "strict": false, "print_zeroes": false, "no_data_font_size": 64, "range": [0, 1000], "js": ["http://kozea.github.io/pygal.js/javascripts/svg.jquery.js", "http://kozea.github.io/pygal.js/javascripts/pygal-tooltips.js"], "height": 768, "dots_size": 2.5, "spacing": 10, "major_label_font_size": 10, "pretty_print": false, "half_pie": false, "human_readable": false, "legend_at_bottom": true, "show_x_labels": true, "show_y_labels": true, "margin_bottom": null, "truncate_label": null, "style": {"foreground_light": "#eee", "transition": "250ms", "colors": ["#ff5995", "#b6e354", "#feed6c", "#8cedff", "#9e6ffe", "#899ca1", "#f8f8f2", "#bf4646", "#516083", "#f92672", "#82b414", "#fd971f", "#56c2d6", "#808384", "#8c54fe", "#465457"], "stroke_width": 1.0, "opacity": ".8", "foreground": "#999", "stroke_style": "round", "opacity_hover": ".4", "font_family": "monospace", "foreground_dark": "#555", "stroke_dasharray": "0,0", "plot_background": "#111", "background": "black"}, "x_title": null, "interpolation_precision": 250, "margin_right": null, "y_label_rotation": 0, "logarithmic": false, "y_labels_major_every": null, "truncate_legend": null, "stroke": true, "explicit_size": false, "title_font_size": 16, "y_title": "Users", "show_x_guides": false, "rounded_bars": null, "show_minor_x_labels": true, "x_label_rotation": 0, "y_labels_major": null, "x_labels_major_count": null, "margin_top": null, "include_x_axis": false, "margin": 20, "inner_radius": 0, "show_legend": true, "show_minor_y_labels": true, "tooltip_border_radius": 0, "interpolate": null, "show_y_guides": true, "print_values": false, "css": ["style.css", "graph.css"], "title": "Election stackoverflow.com-5 Participation Per Hour", "legend_at_bottom_columns": null, "margin_left": null, "y_labels": null, "x_labels": null, "zero": 0, "width": 1024, "y_labels_major_count": null, "show_dots": false, "disable_xml_declaration": false, "x_label_format": "%Y-%m-%d %H:%M:%S.%f", "order_min": null, "xrange": null, "show_only_major_dots": false, "x_value_formatter": null, "missing_value_fill_truncation": "x", "fill": false, "mode": null}</script><script type="text/javascript" xlink:href="http://kozea.github.io/pygal.js/javascripts/svg.jquery.js" /><script type="text/javascript" xlink:href="http://kozea.github.io/pygal.js/javascripts/pygal-tooltips.js" /></defs><title>Election stackoverflow.com-5 Participation Per Hour</title><g class="graph line-graph vertical"><rect class="background" height="768" width="1024" x="0" y="0" /><g class="plot" transform="translate(80, 46)"><rect class="background" height="657.0" width="924.0" x="0" y="0" /><g class="axis y"><g class="guides"><path class="axis major line" d="M0.000000 644.365385 h924.000000" /><text class="major" x="-5" y="647.8653846153846">0</text></g><g class="guides"><path class="guide line" d="M0.000000 581.192308 h924.000000" /><text class="" x="-5" y="584.6923076923077">100</text></g><g class="guides"><path class="guide line" d="M0.000000 518.019231 h924.000000" /><text class="" x="-5" y="521.5192307692307">200</text></g><g class="guides"><path class="guide line" d="M0.000000 454.846154 h924.000000" /><text class="" x="-5" y="458.3461538461538">300</text></g><g class="guides"><path class="guide line" d="M0.000000 391.673077 h924.000000" /><text class="" x="-5" y="395.1730769230769">400</text></g><g class="guides"><path class="major guide line" d="M0.000000 328.500000 h924.000000" /><text class="major" x="-5" y="332.0">500</text></g><g class="guides"><path class="guide line" d="M0.000000 265.326923 h924.000000" /><text class="" x="-5" y="268.8269230769231">600</text></g><g class="guides"><path class="guide line" d="M0.000000 202.153846 h924.000000" /><text class="" x="-5" y="205.65384615384613">700</text></g><g class="guides"><path class="guide line" d="M0.000000 138.980769 h924.000000" /><text class="" x="-5" y="142.48076923076928">800</text></g><g class="guides"><path class="guide line" d="M0.000000 75.807692 h924.000000" /><text class="" x="-5" y="79.30769230769226">900</text></g><g class="guides"><path class="major guide line" d="M0.000000 12.634615 h924.000000" /><text class="major" x="-5" y="16.13461538461536">1000</text></g></g><g class="series serie-0 color-0"><path class="line reactive nofill" d="M17.769231 644.365385 L20.237179 644.365385 22.705128 644.365385 25.173077 644.365385 27.641026 644.365385 30.108974 644.365385 32.576923 644.365385 35.044872 644.365385 37.512821 644.365385 39.980769 644.365385 42.448718 644.365385 44.916667 644.365385 47.384615 644.365385 49.852564 644.365385 52.320513 644.365385 54.788462 644.365385 57.256410 644.365385 59.724359 644.365385 62.192308 644.365385 64.660256 644.365385 67.128205 644.365385 69.596154 644.365385 72.064103 644.365385 74.532051 644.365385 77.000000 644.365385 79.467949 644.365385 81.935897 644.365385 84.403846 644.365385 86.871795 644.365385 89.339744 644.365385 91.807692 644.365385 94.275641 644.365385 96.743590 644.365385 99.211538 644.365385 101.679487 644.365385 104.147436 644.365385 106.615385 644.365385 109.083333 644.365385 111.551282 644.365385 114.019231 644.365385 116.487179 644.365385 118.955128 644.365385 121.423077 644.365385 123.891026 644.365385 126.358974 644.365385 128.826923 644.365385 131.294872 644.365385 133.762821 644.365385 136.230769 644.365385 138.698718 644.365385 141.166667 644.365385 143.634615 644.365385 146.102564 644.365385 148.570513 644.365385 151.038462 644.365385 153.506410 644.365385 155.974359 644.365385 158.442308 644.365385 160.910256 644.365385 163.378205 644.365385 165.846154 644.365385 168.314103 644.365385 170.782051 644.365385 173.250000 644.365385 175.717949 644.365385 178.185897 644.365385 180.653846 644.365385 183.121795 644.365385 185.589744 644.365385 188.057692 644.365385 190.525641 644.365385 192.993590 644.365385 195.461538 644.365385 197.929487 644.365385 200.397436 644.365385 202.865385 644.365385 205.333333 644.365385 207.801282 644.365385 210.269231 644.365385 212.737179 644.365385 215.205128 644.365385 217.673077 644.365385 220.141026 644.365385 222.608974 644.365385 225.076923 644.365385 227.544872 644.365385 230.012821 644.365385 232.480769 644.365385 234.948718 644.365385 237.416667 644.365385 239.884615 644.365385 242.352564 644.365385 244.820513 644.365385 247.288462 644.365385 249.756410 644.365385 252.224359 644.365385 254.692308 644.365385 257.160256 644.365385 259.628205 644.365385 262.096154 644.365385 264.564103 644.365385 267.032051 644.365385 269.500000 644.365385 271.967949 644.365385 274.435897 644.365385 276.903846 644.365385 279.371795 644.365385 281.839744 644.365385 284.307692 644.365385 286.775641 644.365385 289.243590 644.365385 291.711538 644.365385 294.179487 644.365385 296.647436 644.365385 299.115385 644.365385 301.583333 644.365385 304.051282 644.365385 306.519231 644.365385 308.987179 644.365385 311.455128 644.365385 313.923077 644.365385 316.391026 644.365385 318.858974 644.365385 321.326923 644.365385 323.794872 644.365385 326.262821 644.365385 328.730769 644.365385 331.198718 644.365385 333.666667 644.365385 336.134615 644.365385 338.602564 644.365385 341.070513 644.365385 343.538462 644.365385 346.006410 644.365385 348.474359 644.365385 350.942308 644.365385 353.410256 644.365385 355.878205 644.365385 358.346154 644.365385 360.814103 644.365385 363.282051 644.365385 365.750000 644.365385 368.217949 644.365385 370.685897 644.365385 373.153846 644.365385 375.621795 644.365385 378.089744 644.365385 380.557692 644.365385 383.025641 644.365385 385.493590 644.365385 387.961538 644.365385 390.429487 644.365385 392.897436 644.365385 395.365385 644.365385 397.833333 644.365385 400.301282 644.365385 402.769231 644.365385 405.237179 644.365385 407.705128 644.365385 410.173077 644.365385 412.641026 644.365385 415.108974 644.365385 417.576923 644.365385 420.044872 644.365385 422.512821 644.365385 424.980769 644.365385 427.448718 644.365385 429.916667 644.365385 432.384615 644.365385 434.852564 644.365385 437.320513 644.365385 439.788462 644.365385 442.256410 644.365385 444.724359 644.365385 447.192308 644.365385 449.660256 644.365385 452.128205 644.365385 454.596154 644.365385 457.064103 644.365385 459.532051 644.365385 462.000000 644.365385 464.467949 644.365385 466.935897 644.365385 469.403846 644.365385 471.871795 644.365385 474.339744 644.365385 476.807692 644.365385 479.275641 644.365385 481.743590 644.365385 484.211538 644.365385 486.679487 644.365385 489.147436 644.365385 491.615385 644.365385 494.083333 644.365385 496.551282 644.365385 499.019231 644.365385 501.487179 644.365385 503.955128 644.365385 506.423077 644.365385 508.891026 644.365385 511.358974 644.365385 513.826923 644.365385 516.294872 644.365385 518.762821 644.365385 521.230769 644.365385 523.698718 644.365385 526.166667 644.365385 528.634615 644.365385 531.102564 644.365385 533.570513 644.365385 536.038462 644.365385 538.506410 644.365385 540.974359 644.365385 543.442308 644.365385 545.910256 644.365385 548.378205 644.365385 550.846154 644.365385 553.314103 644.365385 555.782051 644.365385 558.250000 644.365385 560.717949 644.365385 563.185897 644.365385 565.653846 644.365385 568.121795 644.365385 570.589744 644.365385 573.057692 644.365385 575.525641 644.365385 577.993590 644.365385 580.461538 644.365385 582.929487 644.365385 585.397436 644.365385 587.865385 644.365385 590.333333 644.365385 592.801282 644.365385 595.269231 644.365385 597.737179 644.365385 600.205128 644.365385 602.673077 644.365385 605.141026 644.365385 607.608974 644.365385 610.076923 644.365385 612.544872 644.365385 615.012821 644.365385 617.480769 644.365385 619.948718 644.365385 622.416667 644.365385 624.884615 644.365385 627.352564 644.365385 629.820513 644.365385 632.288462 644.365385 634.756410 644.365385 637.224359 644.365385 639.692308 644.365385 642.160256 644.365385 644.628205 644.365385 647.096154 644.365385 649.564103 644.365385 652.032051 644.365385 654.500000 644.365385 656.967949 644.365385 659.435897 644.365385 661.903846 644.365385 664.371795 644.365385 666.839744 581.192308 669.307692 -1290.625962 671.775641 -224.896154 674.243590 109.289423 676.711538 291.859615 679.179487 402.412500 681.647436 470.007692 684.115385 491.486538 686.583333 473.166346 689.051282 413.151923 691.519231 452.950962 693.987179 451.687500 696.455128 432.735577 698.923077 411.256731 701.391026 420.732692 703.858974 412.520192 706.326923 447.897115 708.794872 444.738462 711.262821 476.325000 713.730769 478.220192 716.198718 490.854808 718.666667 490.223077 721.134615 492.118269 723.602564 528.758654 726.070513 527.495192 728.538462 527.495192 731.006410 558.450000 733.474359 569.821154 735.942308 571.084615 738.410256 591.931731 740.878205 604.566346 743.346154 598.249038 745.814103 609.620192 748.282051 601.407692 750.750000 593.195192 753.217949 593.195192 755.685897 591.931731 758.153846 574.243269 760.621795 581.192308 763.089744 569.821154 765.557692 569.189423 768.025641 568.557692 770.493590 582.455769 772.961538 583.719231 775.429487 568.557692 777.897436 572.979808 780.365385 569.821154 782.833333 563.503846 785.301282 583.719231 787.769231 584.350962 790.237179 565.399038 792.705128 588.773077 795.173077 597.617308 797.641026 603.934615 800.108974 589.404808 802.576923 593.826923 805.044872 569.821154 807.512821 492.118269 809.980769 481.378846 812.448718 483.905769 814.916667 410.625000 817.384615 348.715385 819.852564 310.811538 822.320513 408.098077 824.788462 452.950962 827.256410 475.061538 829.724359 470.639423 832.192308 471.271154 834.660256 482.010577 837.128205 533.812500 839.596154 554.659615 842.064103 569.189423 844.532051 575.506731 847.000000 590.668269 849.467949 582.455769 851.935897 600.144231 854.403846 609.620192 856.871795 615.937500 859.339744 610.251923 861.807692 614.042308 864.275641 620.359615 866.743590 604.566346 869.211538 613.410577 871.679487 590.036538 874.147436 585.614423 876.615385 551.500962 879.083333 560.345192 881.551282 563.503846 884.019231 576.138462 886.487179 579.928846 888.955128 565.399038 891.423077 560.976923 893.891026 574.243269 896.358974 571.716346 898.826923 595.090385 901.294872 600.144231 903.762821 609.620192 906.230769 644.365385" /></g><g class="series serie-1 color-1"><path class="line reactive nofill" d="M17.769231 -883.791346 L20.237179 96.654808 22.705128 265.958654 25.173077 468.744231 27.641026 500.962500 30.108974 539.498077 32.576923 541.393269 35.044872 542.025000 37.512821 476.325000 39.980769 490.854808 42.448718 487.064423 44.916667 444.738462 47.384615 408.098077 49.852564 409.993269 52.320513 459.900000 54.788462 523.073077 57.256410 523.073077 59.724359 502.225962 62.192308 533.812500 64.660256 540.761538 67.128205 546.447115 69.596154 574.243269 72.064103 563.503846 74.532051 594.458654 77.000000 583.719231 79.467949 586.877885 81.935897 600.775962 84.403846 613.410577 86.871795 615.305769 89.339744 628.572115 91.807692 625.413462 94.275641 619.727885 96.743590 631.730769 99.211538 619.096154 101.679487 612.147115 104.147436 609.620192 106.615385 593.195192 109.083333 598.249038 111.551282 603.302885 114.019231 597.617308 116.487179 596.985577 118.955128 608.988462 121.423077 598.249038 123.891026 597.617308 126.358974 612.147115 128.826923 616.569231 131.294872 614.674038 133.762821 617.832692 136.230769 615.305769 138.698718 620.359615 141.166667 630.467308 143.634615 630.467308 146.102564 631.730769 148.570513 633.625962 151.038462 632.994231 153.506410 631.099038 155.974359 632.994231 158.442308 621.623077 160.910256 632.994231 163.378205 625.413462 165.846154 620.359615 168.314103 619.727885 170.782051 620.359615 173.250000 619.096154 175.717949 624.150000 178.185897 619.727885 180.653846 619.727885 183.121795 615.937500 185.589744 623.518269 188.057692 622.254808 190.525641 627.940385 192.993590 623.518269 195.461538 632.362500 197.929487 629.835577 200.397436 631.099038 202.865385 631.730769 205.333333 634.889423 207.801282 636.784615 210.269231 638.679808 212.737179 637.416346 215.205128 635.521154 217.673077 636.152885 220.141026 632.994231 222.608974 629.203846 225.076923 631.099038 227.544872 626.045192 230.012821 629.835577 232.480769 633.625962 234.948718 629.835577 237.416667 631.099038 239.884615 627.940385 242.352564 629.835577 244.820513 627.308654 247.288462 627.308654 249.756410 631.099038 252.224359 631.099038 254.692308 634.889423 257.160256 634.257692 259.628205 634.889423 262.096154 638.048077 264.564103 639.943269 267.032051 639.311538 269.500000 641.206731 271.967949 639.943269 274.435897 639.943269 276.903846 634.257692 279.371795 638.679808 281.839744 634.889423 284.307692 638.048077 286.775641 640.575000 289.243590 639.311538 291.711538 640.575000 294.179487 639.311538 296.647436 638.048077 299.115385 642.470192 301.583333 638.679808 304.051282 632.362500 306.519231 633.625962 308.987179 637.416346 311.455128 638.679808 313.923077 638.048077 316.391026 639.311538 318.858974 639.311538 321.326923 638.048077 323.794872 638.679808 326.262821 639.311538 328.730769 641.838462 331.198718 643.101923 333.666667 638.048077 336.134615 641.838462 338.602564 641.838462 341.070513 640.575000 343.538462 639.943269 346.006410 638.048077 348.474359 634.257692 350.942308 638.679808 353.410256 638.048077 355.878205 639.311538 358.346154 638.048077 360.814103 640.575000 363.282051 638.048077 365.750000 636.152885 368.217949 632.994231 370.685897 641.838462 373.153846 629.203846 375.621795 633.625962 378.089744 637.416346 380.557692 639.311538 383.025641 637.416346 385.493590 640.575000 387.961538 637.416346 390.429487 637.416346 392.897436 638.048077 395.365385 637.416346 397.833333 636.784615 400.301282 636.784615 402.769231 624.781731 405.237179 626.676923 407.705128 624.150000 410.173077 624.150000 412.641026 618.464423 415.108974 622.254808 417.576923 621.623077 420.044872 627.940385 422.512821 626.676923 424.980769 633.625962 427.448718 629.835577 429.916667 262.800000 432.384615 -1998.796154 434.852564 -828.199038 437.320513 -216.051923 439.788462 -41.694231 442.256410 156.669231 444.724359 220.474038 447.192308 223.632692 449.660256 157.300962 452.128205 -56.855769 454.596154 -145.929808 457.064103 -225.527885 459.532051 -364.508654 462.000000 -506.648077 464.467949 -548.342308 466.935897 -345.556731 469.403846 -92.232692 471.871795 -14.529808 474.339744 -17.688462 476.807692 -16.425000 479.275641 82.756731 481.743590 120.660577 484.211538 221.105769 486.679487 306.389423 489.147436 310.811538 491.615385 361.981731 494.083333 411.888462 496.551282 428.313462 499.019231 497.172115 501.487179 530.022115 503.955128 549.605769 506.423077 550.237500 508.891026 557.186538 511.358974 526.231731 513.826923 495.908654 516.294872 497.172115 518.762821 449.792308 521.230769 437.789423 523.698718 421.364423 526.166667 411.256731 528.634615 440.948077 531.102564 457.373077 533.570513 437.157692 536.038462 439.684615 538.506410 438.421154 540.974359 463.690385 543.442308 492.750000 545.910256 492.750000 548.378205 507.911538 550.846154 523.073077 553.314103 535.075962 555.782051 560.976923 558.250000 572.348077 560.717949 586.877885 563.185897 602.671154 565.653846 591.931731 568.121795 591.931731 570.589744 597.617308 573.057692 571.716346 575.525641 579.928846 577.993590 555.923077 580.461538 562.240385 582.929487 536.339423 585.397436 514.860577 587.865385 548.342308 590.333333 531.917308 592.801282 532.549038 595.269231 540.129808 597.737179 545.815385 600.205128 544.551923 602.673077 558.450000 605.141026 574.875000 607.608974 562.240385 610.076923 557.186538 612.544872 584.350962 615.012821 586.877885 617.480769 603.302885 619.948718 608.356731 622.416667 616.569231 624.884615 613.410577 627.352564 612.147115 629.820513 612.778846 632.288462 612.778846 634.756410 612.147115 637.224359 597.617308 639.692308 594.458654 642.160256 559.081731 644.628205 579.928846 647.096154 587.509615 649.564103 587.509615 652.032051 578.033654 654.500000 583.087500 656.967949 574.243269 659.435897 582.455769 661.903846 598.880769 664.371795 595.090385 666.839744 565.399038 669.307692 33.481731 671.775641 329.131731 674.243590 445.370192 676.711538 506.648077 679.179487 552.132692 681.647436 578.665385 684.115385 579.297115 686.583333 584.350962 689.051282 574.243269 691.519231 574.243269 693.987179 582.455769 696.455128 567.294231 698.923077 565.399038 701.391026 566.662500 703.858974 556.554808 706.326923 557.186538 708.794872 568.557692 711.262821 564.135577 713.730769 568.557692 716.198718 578.665385 718.666667 571.084615 721.134615 576.138462 723.602564 590.668269 726.070513 574.875000 728.538462 584.350962 731.006410 596.985577 733.474359 595.722115 735.942308 602.671154 738.410256 617.200962 740.878205 621.623077 743.346154 622.254808 745.814103 620.991346 748.282051 615.305769 750.750000 626.045192 753.217949 617.200962 755.685897 615.937500 758.153846 608.356731 760.621795 604.566346 763.089744 604.566346 765.557692 607.725000 768.025641 603.302885 770.493590 607.725000 772.961538 600.144231 775.429487 600.775962 777.897436 603.934615 780.365385 595.722115 782.833333 601.407692 785.301282 602.671154 787.769231 608.988462 790.237179 604.566346 792.705128 600.775962 795.173077 610.251923 797.641026 611.515385 800.108974 613.410577 802.576923 612.147115 805.044872 602.039423 807.512821 590.036538 809.980769 596.353846 812.448718 569.189423 814.916667 548.342308 817.384615 531.917308 819.852564 480.115385 822.320513 512.965385 824.788462 534.444231 827.256410 543.288462 829.724359 540.129808 832.192308 524.336538 834.660256 516.755769 837.128205 551.500962 839.596154 573.611538 842.064103 580.560577 844.532051 576.770192 847.000000 593.195192 849.467949 588.141346 851.935897 610.883654 854.403846 613.410577 856.871795 612.778846 859.339744 614.674038 861.807692 617.200962 864.275641 620.359615 866.743590 621.623077 869.211538 619.727885 871.679487 605.198077 874.147436 607.725000 876.615385 583.719231 879.083333 583.719231 881.551282 584.982692 884.019231 583.719231 886.487179 579.928846 888.955128 582.455769 891.423077 585.614423 893.891026 569.821154 896.358974 598.249038 898.826923 604.566346 901.294872 603.934615 903.762821 608.356731 906.230769 644.365385" /></g></g><g class="titles"><text class="title plot_title" x="512.0" y="26">Election stackoverflow.com-5 Participation Per Hour</text><text class="title" transform="rotate(-90 0.000000 374.500000)" x="0" y="400.5">Users</text></g><g class="plot overlay" transform="translate(80, 46)"><g class="series serie-0 color-0" /><g class="series serie-1 color-1" /></g><g class="plot text-overlay" transform="translate(80, 46)"><g class="series serie-0 color-0" /><g class="series serie-1 color-1" /></g><g class="plot tooltip-overlay" transform="translate(80, 46)"><g class="tooltip" style="opacity: 0" transform="translate(0 0)"><a><rect class="tooltip-box" height="0" rx="0" ry="0" width="0" /><text class="text"><tspan class="label" /><tspan class="value" /></text></a></g></g><g class="legends" transform="translate(90, 713)"><g class="legend reactive activate-serie" id="activate-serie-0"><rect class="color-0 reactive" height="12" width="12" x="0.0" y="1.0" /><text x="17.0" y="11.2">constituents</text></g><g class="legend reactive activate-serie" id="activate-serie-1"><rect class="color-1 reactive" height="12" width="12" x="462.0" y="1.0" /><text x="479.0" y="11.2">caucus</text></g></g></g></svg>