<?xml version='1.0' encoding='utf-8'?>
<svg xmlns:xlink="http://www.w3.org/1999/xlink" class="pygal-chart" id="chart-7cf5033d-490f-42e6-b5bc-aeecd8aa0e38" viewBox="0 0 1024 768" xmlns="http://www.w3.org/2000/svg"><!--Generated with pygal 1.7.0 (etree) ©Kozea 2011-2014 on 2018-03-25--><!--http://pygal.org--><!--http://github.com/Kozea/pygal--><defs><style type="text/css">#chart-7cf5033d-490f-42e6-b5bc-aeecd8aa0e38 .title{font-family:"monospace";font-size:16px}#chart-7cf5033d-490f-42e6-b5bc-aeecd8aa0e38 .legends .legend text{font-family:"monospace";font-size:14px}#chart-7cf5033d-490f-42e6-b5bc-aeecd8aa0e38 .axis text{font-family:"monospace";font-size:10px}#chart-7cf5033d-490f-42e6-b5bc-aeecd8aa0e38 .axis text.major{font-family:"monospace";font-size:10px}#chart-7cf5033d-490f-42e6-b5bc-aeecd8aa0e38 .series text{font-family:"monospace";font-size:8px}#chart-7cf5033d-490f-42e6-b5bc-aeecd8aa0e38 .tooltip text{font-family:"monospace";font-size:16px}#chart-7cf5033d-490f-42e6-b5bc-aeecd8aa0e38 text.no_data{font-size:64px}
#chart-7cf5033d-490f-42e6-b5bc-aeecd8aa0e38{background-color:black}#chart-7cf5033d-490f-42e6-b5bc-aeecd8aa0e38 path,#chart-7cf5033d-490f-42e6-b5bc-aeecd8aa0e38 line,#chart-7cf5033d-490f-42e6-b5bc-aeecd8aa0e38 rect,#chart-7cf5033d-490f-42e6-b5bc-aeecd8aa0e38 circle{-webkit-transition:250ms;-moz-transition:250ms;transition:250ms}#chart-7cf5033d-490f-42e6-b5bc-aeecd8aa0e38 .graph &gt; .background{fill:black}#chart-7cf5033d-490f-42e6-b5bc-aeecd8aa0e38 .plot &gt; .background{fill:#111}#chart-7cf5033d-490f-42e6-b5bc-aeecd8aa0e38 .graph{fill:#999}#chart-7cf5033d-490f-42e6-b5bc-aeecd8aa0e38 text.no_data{fill:#eee}#chart-7cf5033d-490f-42e6-b5bc-aeecd8aa0e38 .title{fill:#eee}#chart-7cf5033d-490f-42e6-b5bc-aeecd8aa0e38 .legends .legend text{fill:#999}#chart-7cf5033d-490f-42e6-b5bc-aeecd8aa0e38 .legends .legend:hover text{fill:#eee}#chart-7cf5033d-490f-42e6-b5bc-aeecd8aa0e38 .axis .line{stroke:#eee}#chart-7cf5033d-490f-42e6-b5bc-aeecd8aa0e38 .axis .guide.line{stroke:#555}#chart-7cf5033d-490f-42e6-b5bc-aeecd8aa0e38 .axis .major.line{stroke:#999}#chart-7cf5033d-490f-42e6-b5bc-aeecd8aa0e38 .axis text.major{stroke:#eee;fill:#eee}#chart-7cf5033d-490f-42e6-b5bc-aeecd8aa0e38 .axis.y .guides:hover .guide.line,#chart-7cf5033d-490f-42e6-b5bc-aeecd8aa0e38 .line-graph .axis.x .guides:hover .guide.line,#chart-7cf5033d-490f-42e6-b5bc-aeecd8aa0e38 .stackedline-graph .axis.x .guides:hover .guide.line,#chart-7cf5033d-490f-42e6-b5bc-aeecd8aa0e38 .xy-graph .axis.x .guides:hover .guide.line{stroke:#eee}#chart-7cf5033d-490f-42e6-b5bc-aeecd8aa0e38 .axis .guides:hover text{fill:#eee}#chart-7cf5033d-490f-42e6-b5bc-aeecd8aa0e38 .reactive{fill-opacity:.8}#chart-7cf5033d-490f-42e6-b5bc-aeecd8aa0e38 .reactive.active,#chart-7cf5033d-490f-42e6-b5bc-aeecd8aa0e38 .active .reactive{fill-opacity:.4}#chart-7cf5033d-490f-42e6-b5bc-aeecd8aa0e38 .series{stroke-width:1.0;stroke-linejoin:round;stroke-linecap:round;stroke-dasharray:0,0}#chart-7cf5033d-490f-42e6-b5bc-aeecd8aa0e38 .series text{fill:#eee}#chart-7cf5033d-490f-42e6-b5bc-aeecd8aa0e38 .tooltip rect{fill:#111;stroke:#eee}#chart-7cf5033d-490f-42e6-b5bc-aeecd8aa0e38 .tooltip text{fill:#eee}#chart-7cf5033d-490f-42e6-b5bc-aeecd8aa0e38 .map-element{fill:#999;stroke:#555 !important;opacity:.9;stroke-width:3;-webkit-transition:250ms;-moz-transition:250ms;-o-transition:250ms;transition:250ms}#chart-7cf5033d-490f-42e6-b5bc-aeecd8aa0e38 .map-element:hover{opacity:1;stroke-width:10}#chart-7cf5033d-490f-42e6-b5bc-aeecd8aa0e38 .color-0,#chart-7cf5033d-490f-42e6-b5bc-aeecd8aa0e38 .color-0 a:visited{stroke:#ff5995;fill:#ff5995}#chart-7cf5033d-490f-42e6-b5bc-aeecd8aa0e38 .color-1,#chart-7cf5033d-490f-42e6-b5bc-aeecd8aa0e38 .color-1 a:visited{stroke:#b6e354;fill:#b6e354}#chart-7cf5033d-490f-42e6-b5bc-aeecd8aa0e38 .color-2,#chart-7cf5033d-490f-42e6-b5bc-aeecd8aa0e38 .color-2 a:visited{stroke:#feed6c;fill:#feed6c}#chart-7cf5033d-490f-42e6-b5bc-aeecd8aa0e38 .color-3,#chart-7cf5033d-490f-42e6-b5bc-aeecd8aa0e38 .color-3 a:visited{stroke:#8cedff;fill:#8cedff}#chart-7cf5033d-490f-42e6-b5bc-aeecd8aa0e38 .color-4,#chart-7cf5033d-490f-42e6-b5bc-aeecd8aa0e38 .color-4 a:visited{stroke:#9e6ffe;fill:#9e6ffe}#chart-7cf5033d-490f-42e6-b5bc-aeecd8aa0e38 .color-5,#chart-7cf5033d-490f-42e6-b5bc-aeecd8aa0e38 .color-5 a:visited{stroke:#899ca1;fill:#899ca1}#chart-7cf5033d-490f-42e6-b5bc-aeecd8aa0e38 .color-6,#chart-7cf5033d-490f-42e6-b5bc-aeecd8aa0e38 .color-6 a:visited{stroke:#f8f8f2;fill:#f8f8f2}#chart-7cf5033d-490f-42e6-b5bc-aeecd8aa0e38 .color-7,#chart-7cf5033d-490f-42e6-b5bc-aeecd8aa0e38 .color-7 a:visited{stroke:#bf4646;fill:#bf4646}#chart-7cf5033d-490f-42e6-b5bc-aeecd8aa0e38 .color-8,#chart-7cf5033d-490f-42e6-b5bc-aeecd8aa0e38 .color-8 a:visited{stroke:#516083;fill:#516083}#chart-7cf5033d-490f-42e6-b5bc-aeecd8aa0e38 .color-9,#chart-7cf5033d-490f-42e6-b5bc-aeecd8aa0e38 .color-9 a:visited{stroke:#f92672;fill:#f92672}#chart-7cf5033d-490f-42e6-b5bc-aeecd8aa0e38 .color-10,#chart-7cf5033d-490f-42e6-b5bc-aeecd8aa0e38 .color-10 a:visited{stroke:#82b414;fill:#82b414}#chart-7cf5033d-490f-42e6-b5bc-aeecd8aa0e38 .color-11,#chart-7cf5033d-490f-42e6-b5bc-aeecd8aa0e38 .color-11 a:visited{stroke:#fd971f;fill:#fd971f}#chart-7cf5033d-490f-42e6-b5bc-aeecd8aa0e38 .color-12,#chart-7cf5033d-490f-42e6-b5bc-aeecd8aa0e38 .color-12 a:visited{stroke:#56c2d6;fill:#56c2d6}#chart-7cf5033d-490f-42e6-b5bc-aeecd8aa0e38 .color-13,#chart-7cf5033d-490f-42e6-b5bc-aeecd8aa0e38 .color-13 a:visited{stroke:#808384;fill:#808384}#chart-7cf5033d-490f-42e6-b5bc-aeecd8aa0e38 .color-14,#chart-7cf5033d-490f-42e6-b5bc-aeecd8aa0e38 .color-14 a:visited{stroke:#8c54fe;fill:#8c54fe}#chart-7cf5033d-490f-42e6-b5bc-aeecd8aa0e38 .color-15,#chart-7cf5033d-490f-42e6-b5bc-aeecd8aa0e38 .color-15 a:visited{stroke:#465457;fill:#465457}
#chart-7cf5033d-490f-42e6-b5bc-aeecd8aa0e38 text.no_data{text-anchor:middle}#chart-7cf5033d-490f-42e6-b5bc-aeecd8aa0e38 .guide.line{fill-opacity:0}#chart-7cf5033d-490f-42e6-b5bc-aeecd8aa0e38 .centered{text-anchor:middle}#chart-7cf5033d-490f-42e6-b5bc-aeecd8aa0e38 .title{text-anchor:middle}#chart-7cf5033d-490f-42e6-b5bc-aeecd8aa0e38 .legends .legend text{fill-opacity:1}#chart-7cf5033d-490f-42e6-b5bc-aeecd8aa0e38 .axis.x text{text-anchor:middle}#chart-7cf5033d-490f-42e6-b5bc-aeecd8aa0e38 .axis.x:not(.web) text[transform]{text-anchor:start}#chart-7cf5033d-490f-42e6-b5bc-aeecd8aa0e38 .axis.y text{text-anchor:end}#chart-7cf5033d-490f-42e6-b5bc-aeecd8aa0e38 .axis.y2 text{text-anchor:start}#chart-7cf5033d-490f-42e6-b5bc-aeecd8aa0e38 .axis.y .logarithmic text:not(.major),#chart-7cf5033d-490f-42e6-b5bc-aeecd8aa0e38 .axis.y2 .logarithmic text:not(.major){font-size:50%}#chart-7cf5033d-490f-42e6-b5bc-aeecd8aa0e38 .axis .guide.line{stroke-dasharray:4,4}#chart-7cf5033d-490f-42e6-b5bc-aeecd8aa0e38 .axis .major.guide.line{stroke-dasharray:6,6}#chart-7cf5033d-490f-42e6-b5bc-aeecd8aa0e38 .axis text.major{stroke-width:0.5px}#chart-7cf5033d-490f-42e6-b5bc-aeecd8aa0e38 .horizontal .axis.y .guide.line,#chart-7cf5033d-490f-42e6-b5bc-aeecd8aa0e38 .horizontal .axis.y2 .guide.line,#chart-7cf5033d-490f-42e6-b5bc-aeecd8aa0e38 .vertical .axis.x .guide.line{opacity:0}#chart-7cf5033d-490f-42e6-b5bc-aeecd8aa0e38 .horizontal .axis.always_show .guide.line,#chart-7cf5033d-490f-42e6-b5bc-aeecd8aa0e38 .vertical .axis.always_show .guide.line{opacity:1 !important}#chart-7cf5033d-490f-42e6-b5bc-aeecd8aa0e38 .axis.y .guides:hover .guide.line,#chart-7cf5033d-490f-42e6-b5bc-aeecd8aa0e38 .axis.y2 .guides:hover .guide.line,#chart-7cf5033d-490f-42e6-b5bc-aeecd8aa0e38 .axis.x .guides:hover .guide.line{opacity:1}#chart-7cf5033d-490f-42e6-b5bc-aeecd8aa0e38 .axis .guides:hover text{opacity:1}#chart-7cf5033d-490f-42e6-b5bc-aeecd8aa0e38 .nofill{fill:none}#chart-7cf5033d-490f-42e6-b5bc-aeecd8aa0e38 .subtle-fill{fill-opacity:.2}#chart-7cf5033d-490f-42e6-b5bc-aeecd8aa0e38 .dot{stroke-width:1px;fill-opacity:1}#chart-7cf5033d-490f-42e6-b5bc-aeecd8aa0e38 .dot.active{stroke-width:5px}#chart-7cf5033d-490f-42e6-b5bc-aeecd8aa0e38 .series text{stroke:none}#chart-7cf5033d-490f-42e6-b5bc-aeecd8aa0e38 .series text.active{opacity:1}#chart-7cf5033d-490f-42e6-b5bc-aeecd8aa0e38 .tooltip rect{fill-opacity:0.8}#chart-7cf5033d-490f-42e6-b5bc-aeecd8aa0e38 .tooltip text{fill-opacity:1}#chart-7cf5033d-490f-42e6-b5bc-aeecd8aa0e38 .tooltip text tspan.label{fill-opacity:.8}</style><script type="text/javascript">window.config = {"css": ["style.css", "graph.css"], "disable_xml_declaration": false, "dots_size": 2.5, "explicit_size": false, "fill": false, "half_pie": false, "height": 768, "human_readable": false, "include_x_axis": false, "inner_radius": 0, "interpolate": null, "interpolation_parameters": {}, "interpolation_precision": 250, "js": ["http://kozea.github.io/pygal.js/javascripts/svg.jquery.js", "http://kozea.github.io/pygal.js/javascripts/pygal-tooltips.js"], "label_font_size": 10, "legend_at_bottom": true, "legend_at_bottom_columns": null, "legend_box_size": 12, "legend_font_size": 14, "logarithmic": false, "major_label_font_size": 10, "margin": 20, "margin_bottom": null, "margin_left": null, "margin_right": null, "margin_top": null, "missing_value_fill_truncation": "x", "mode": null, "no_data_font_size": 64, "no_data_text": "No data", "no_prefix": false, "order_min": null, "pretty_print": false, "print_values": false, "print_zeroes": false, "range": null, "rounded_bars": null, "show_dots": false, "show_legend": true, "show_minor_x_labels": true, "show_minor_y_labels": true, "show_only_major_dots": false, "show_x_guides": false, "show_x_labels": true, "show_y_guides": true, "show_y_labels": true, "spacing": 10, "stack_from_top": false, "strict": false, "stroke": true, "style": {"background": "black", "colors": ["#ff5995", "#b6e354", "#feed6c", "#8cedff", "#9e6ffe", "#899ca1", "#f8f8f2", "#bf4646", "#516083", "#f92672", "#82b414", "#fd971f", "#56c2d6", "#808384", "#8c54fe", "#465457"], "font_family": "monospace", "foreground": "#999", "foreground_dark": "#555", "foreground_light": "#eee", "opacity": ".8", "opacity_hover": ".4", "plot_background": "#111", "stroke_dasharray": "0,0", "stroke_style": "round", "stroke_width": 1.0, "transition": "250ms"}, "title": "Election 10 Participation", "title_font_size": 16, "tooltip_border_radius": 0, "tooltip_font_size": 16, "truncate_label": null, "truncate_legend": null, "value_font_size": 8, "width": 1024, "x_label_format": "%Y-%m-%d %H:%M:%S.%f", "x_label_rotation": 0, "x_labels": null, "x_labels_major": null, "x_labels_major_count": null, "x_labels_major_every": null, "x_title": null, "x_value_formatter": null, "xrange": null, "y_label_rotation": 0, "y_labels": null, "y_labels_major": null, "y_labels_major_count": null, "y_labels_major_every": null, "y_title": "Users", "zero": 0}</script><script type="text/javascript" xlink:href="http://kozea.github.io/pygal.js/javascripts/svg.jquery.js" /><script type="text/javascript" xlink:href="http://kozea.github.io/pygal.js/javascripts/pygal-tooltips.js" /></defs><title>Election 10 Participation</title><g class="graph line-graph vertical"><rect class="background" height="768" width="1024" x="0" y="0" /><g class="plot" transform="translate(86, 46)"><rect class="background" height="657.0" width="918.0" x="0" y="0" /><g class="axis y"><g class="guides"><path class="axis major line" d="M0.000000 644.365385 h918.000000" /><text class="major" x="-5" y="647.8653846153846">0</text></g><g class="guides"><path class="guide line" d="M0.000000 565.954774 h918.000000" /><text class="" x="-5" y="569.4547736666377">10000</text></g><g class="guides"><path class="guide line" d="M0.000000 487.544163 h918.000000" /><text class="" x="-5" y="491.0441627178908">20000</text></g><g class="guides"><path class="guide line" d="M0.000000 409.133552 h918.000000" /><text class="" x="-5" y="412.6335517691439">30000</text></g><g class="guides"><path class="guide line" d="M0.000000 330.722941 h918.000000" /><text class="" x="-5" y="334.22294082039696">40000</text></g><g class="guides"><path class="major guide line" d="M0.000000 252.312330 h918.000000" /><text class="major" x="-5" y="255.8123298716501">50000</text></g><g class="guides"><path class="guide line" d="M0.000000 173.901719 h918.000000" /><text class="" x="-5" y="177.40171892290317">60000</text></g><g class="guides"><path class="guide line" d="M0.000000 95.491108 h918.000000" /><text class="" x="-5" y="98.99110797415631">70000</text></g><g class="guides"><path class="guide line" d="M0.000000 17.080497 h918.000000" /><text class="" x="-5" y="20.580497025409386">80000</text></g></g><g class="series serie-0 color-0"><path class="line reactive nofill" d="M17.653846 644.365385 L20.105769 644.365385 22.557692 644.365385 25.009615 644.365385 27.461538 644.365385 29.913462 644.365385 32.365385 644.365385 34.817308 644.365385 37.269231 644.365385 39.721154 644.365385 42.173077 644.365385 44.625000 644.365385 47.076923 644.365385 49.528846 644.365385 51.980769 644.365385 54.432692 644.365385 56.884615 644.365385 59.336538 644.365385 61.788462 644.365385 64.240385 644.365385 66.692308 644.365385 69.144231 644.365385 71.596154 644.365385 74.048077 644.365385 76.500000 644.365385 78.951923 644.365385 81.403846 644.365385 83.855769 644.365385 86.307692 644.365385 88.759615 644.365385 91.211538 644.365385 93.663462 644.365385 96.115385 644.365385 98.567308 644.365385 101.019231 644.365385 103.471154 644.365385 105.923077 644.365385 108.375000 644.365385 110.826923 644.365385 113.278846 644.365385 115.730769 644.365385 118.182692 644.365385 120.634615 644.365385 123.086538 644.365385 125.538462 644.365385 127.990385 644.365385 130.442308 644.365385 132.894231 644.365385 135.346154 644.365385 137.798077 644.365385 140.250000 644.365385 142.701923 644.365385 145.153846 644.365385 147.605769 644.365385 150.057692 644.365385 152.509615 644.365385 154.961538 644.365385 157.413462 644.365385 159.865385 644.365385 162.317308 644.365385 164.769231 644.365385 167.221154 644.365385 169.673077 644.365385 172.125000 644.365385 174.576923 644.365385 177.028846 644.365385 179.480769 644.365385 181.932692 644.365385 184.384615 644.365385 186.836538 644.365385 189.288462 644.365385 191.740385 644.365385 194.192308 644.365385 196.644231 644.365385 199.096154 644.365385 201.548077 644.365385 204.000000 644.365385 206.451923 644.365385 208.903846 644.365385 211.355769 644.365385 213.807692 644.365385 216.259615 644.365385 218.711538 644.365385 221.163462 644.365385 223.615385 644.365385 226.067308 644.365385 228.519231 644.365385 230.971154 644.365385 233.423077 644.365385 235.875000 644.365385 238.326923 644.365385 240.778846 644.365385 243.230769 644.365385 245.682692 644.365385 248.134615 644.365385 250.586538 644.365385 253.038462 644.365385 255.490385 644.365385 257.942308 644.365385 260.394231 644.365385 262.846154 644.365385 265.298077 644.365385 267.750000 644.365385 270.201923 644.365385 272.653846 644.365385 275.105769 644.365385 277.557692 644.365385 280.009615 644.365385 282.461538 644.365385 284.913462 644.365385 287.365385 644.365385 289.817308 644.365385 292.269231 644.365385 294.721154 644.365385 297.173077 644.365385 299.625000 644.365385 302.076923 644.365385 304.528846 644.365385 306.980769 644.365385 309.432692 644.365385 311.884615 644.365385 314.336538 644.365385 316.788462 644.365385 319.240385 644.365385 321.692308 644.365385 324.144231 644.365385 326.596154 644.365385 329.048077 644.365385 331.500000 644.365385 333.951923 644.365385 336.403846 644.365385 338.855769 644.365385 341.307692 644.365385 343.759615 644.365385 346.211538 644.365385 348.663462 644.365385 351.115385 644.365385 353.567308 644.365385 356.019231 644.365385 358.471154 644.365385 360.923077 644.365385 363.375000 644.365385 365.826923 644.365385 368.278846 644.365385 370.730769 644.365385 373.182692 644.365385 375.634615 644.365385 378.086538 644.365385 380.538462 644.365385 382.990385 644.365385 385.442308 644.365385 387.894231 644.365385 390.346154 644.365385 392.798077 644.365385 395.250000 644.365385 397.701923 644.365385 400.153846 644.365385 402.605769 644.365385 405.057692 644.365385 407.509615 644.365385 409.961538 644.365385 412.413462 644.365385 414.865385 644.365385 417.317308 644.365385 419.769231 644.365385 422.221154 644.365385 424.673077 644.365385 427.125000 644.365385 429.576923 644.365385 432.028846 644.365385 434.480769 644.365385 436.932692 644.365385 439.384615 644.365385 441.836538 644.365385 444.288462 644.365385 446.740385 644.365385 449.192308 644.365385 451.644231 644.365385 454.096154 644.365385 456.548077 644.365385 459.000000 644.365385 461.451923 644.365385 463.903846 644.365385 466.355769 644.365385 468.807692 644.365385 471.259615 644.365385 473.711538 644.365385 476.163462 644.365385 478.615385 644.365385 481.067308 644.365385 483.519231 644.365385 485.971154 644.365385 488.423077 644.365385 490.875000 644.365385 493.326923 644.365385 495.778846 644.365385 498.230769 644.365385 500.682692 644.365385 503.134615 644.365385 505.586538 644.365385 508.038462 644.365385 510.490385 644.365385 512.942308 644.365385 515.394231 644.365385 517.846154 644.365385 520.298077 644.365385 522.750000 644.365385 525.201923 644.365385 527.653846 644.365385 530.105769 644.365385 532.557692 644.365385 535.009615 644.365385 537.461538 644.365385 539.913462 644.365385 542.365385 644.365385 544.817308 644.365385 547.269231 644.365385 549.721154 644.365385 552.173077 644.365385 554.625000 644.365385 557.076923 644.365385 559.528846 644.365385 561.980769 644.365385 564.432692 644.365385 566.884615 644.365385 569.336538 644.365385 571.788462 644.365385 574.240385 644.365385 576.692308 644.365385 579.144231 644.365385 581.596154 644.365385 584.048077 644.365385 586.500000 644.365385 588.951923 644.365385 591.403846 644.365385 593.855769 644.365385 596.307692 644.365385 598.759615 644.365385 601.211538 644.365385 603.663462 644.365385 606.115385 644.365385 608.567308 644.365385 611.019231 644.365385 613.471154 644.365385 615.923077 644.365385 618.375000 644.365385 620.826923 644.365385 623.278846 644.365385 625.730769 644.365385 628.182692 644.365385 630.634615 644.365385 633.086538 644.365385 635.538462 644.365385 637.990385 644.365385 640.442308 644.365385 642.894231 644.365385 645.346154 644.365385 647.798077 644.365385 650.250000 644.365385 652.701923 644.365385 655.153846 644.365385 657.605769 644.365385 660.057692 644.365385 662.509615 643.549914 664.961538 622.183023 667.413462 612.021008 669.865385 605.230649 672.317308 600.988635 674.769231 598.048237 677.221154 595.445004 679.673077 593.069163 682.125000 590.340474 684.576923 587.070751 687.028846 583.761823 689.480769 580.366644 691.932692 576.399067 694.384615 572.635358 696.836538 569.012787 699.288462 564.951118 701.740385 561.493210 704.192308 558.207805 706.644231 555.126268 709.096154 552.154506 711.548077 549.261155 714.000000 546.532465 716.451923 544.148783 718.903846 541.921921 721.355769 539.844040 723.807692 538.158212 726.259615 536.637046 728.711538 535.460887 731.163462 534.527801 733.615385 533.704489 736.067308 533.037999 738.519231 532.363668 740.971154 531.603085 743.423077 530.787615 745.875000 529.862369 748.326923 528.694051 750.778846 527.463005 753.230769 526.075137 755.682692 524.616700 758.134615 523.166103 760.586538 521.590050 763.038462 520.178659 765.490385 519.026023 767.942308 517.489175 770.394231 516.132671 772.846154 514.674234 775.298077 513.451029 777.750000 511.953386 780.201923 510.573359 782.653846 509.389359 785.105769 508.362180 787.557692 507.562392 790.009615 507.562392 792.461538 507.562392 794.913462 507.562392 797.365385 507.562392 799.817308 507.562392 802.269231 507.562392 804.721154 507.562392 807.173077 507.562392 809.625000 507.562392 812.076923 507.562392 814.528846 507.562392 816.980769 507.562392 819.432692 507.562392 821.884615 507.562392 824.336538 507.562392 826.788462 507.562392 829.240385 507.562392 831.692308 507.562392 834.144231 507.562392 836.596154 507.562392 839.048077 507.562392 841.500000 507.562392 843.951923 507.562392 846.403846 507.562392 848.855769 507.562392 851.307692 507.562392 853.759615 507.562392 856.211538 507.562392 858.663462 507.562392 861.115385 507.562392 863.567308 507.562392 866.019231 507.562392 868.471154 507.562392 870.923077 507.562392 873.375000 507.562392 875.826923 507.562392 878.278846 507.562392 880.730769 507.562392 883.182692 507.562392 885.634615 507.562392 888.086538 507.562392 890.538462 507.562392 892.990385 507.562392 895.442308 507.562392 897.894231 507.562392 900.346154 507.562392" /></g><g class="series serie-1 color-1"><path class="line reactive nofill" d="M17.653846 629.090998 L20.105769 623.500321 22.557692 619.438651 25.009615 617.305883 27.461538 615.729829 29.913462 614.091048 32.365385 612.726703 34.817308 611.385882 37.269231 609.080610 39.721154 606.077483 42.173077 602.776397 44.625000 598.612793 47.076923 595.052951 49.528846 591.971414 51.980769 589.289771 54.432692 587.353029 56.884615 585.353559 59.336538 583.173744 61.788462 581.354618 64.240385 579.660948 66.692308 578.335809 69.144231 577.410564 71.596154 576.414749 74.048077 575.614961 76.500000 574.901424 78.951923 574.352550 81.403846 573.905610 83.855769 573.505716 86.307692 573.239119 88.759615 572.956841 91.211538 572.666722 93.663462 572.407967 96.115385 571.968868 98.567308 571.545450 101.019231 571.051463 103.471154 570.439861 105.923077 569.600867 108.375000 568.699145 110.826923 567.844469 113.278846 567.130933 115.730769 566.331145 118.182692 565.507833 120.634615 564.739409 123.086538 564.057237 125.538462 563.484839 127.990385 562.975170 130.442308 562.394932 132.894231 562.026402 135.346154 561.689236 137.798077 561.297183 140.250000 561.085475 142.701923 560.779673 145.153846 560.654216 147.605769 560.513077 150.057692 560.403302 152.509615 560.222958 154.961538 560.003408 157.413462 559.658402 159.865385 559.329077 162.317308 558.921342 164.769231 558.356785 167.221154 557.909845 169.673077 557.392335 172.125000 556.804255 174.576923 556.255381 177.028846 555.753553 179.480769 555.314454 181.932692 554.828308 184.384615 554.475460 186.836538 554.130454 189.288462 553.840334 191.740385 553.534533 194.192308 553.260096 196.644231 552.938612 199.096154 552.836678 201.548077 552.719063 204.000000 552.601447 206.451923 552.491672 208.903846 552.413261 211.355769 552.303486 213.807692 552.162347 216.259615 551.966321 218.711538 551.738930 221.163462 551.519380 223.615385 551.291989 226.067308 550.899936 228.519231 550.570612 230.971154 550.241287 233.423077 549.880598 235.875000 549.488545 238.326923 549.167062 240.778846 548.861260 243.230769 548.665234 245.682692 548.422161 248.134615 548.194770 250.586538 548.030108 253.038462 547.794876 255.490385 547.591009 257.942308 547.442028 260.394231 547.238161 262.846154 547.183273 265.298077 547.081340 267.750000 546.979406 270.201923 546.916677 272.653846 546.861790 275.105769 546.814744 277.557692 546.720651 280.009615 546.618717 282.461538 546.485419 284.913462 546.375644 287.365385 546.258028 289.817308 546.156094 292.269231 546.038478 294.721154 545.936545 297.173077 545.771882 299.625000 545.591538 302.076923 545.466081 304.528846 545.356306 306.980769 545.230849 309.432692 545.128915 311.884615 545.019141 314.336538 544.909366 316.788462 544.854478 319.240385 544.736862 321.692308 544.674134 324.144231 544.619246 326.596154 544.548677 329.048077 544.454584 331.500000 544.415379 333.951923 544.344809 336.403846 544.242875 338.855769 544.140942 341.307692 543.984120 343.759615 543.803776 346.211538 543.584226 348.663462 543.348995 351.115385 543.160809 353.567308 542.925577 356.019231 542.745233 358.471154 542.557047 360.923077 542.321816 363.375000 542.157153 365.826923 541.937604 368.278846 541.843511 370.730769 541.678849 373.182692 541.545550 375.634615 541.404411 378.086538 541.263272 380.538462 541.137815 382.990385 541.020199 385.442308 540.894742 387.894231 540.753603 390.346154 540.588941 392.798077 540.306663 395.250000 539.953815 397.701923 539.569603 400.153846 539.075616 402.605769 538.518901 405.057692 537.922980 407.509615 537.397629 409.961538 536.927165 412.413462 536.433179 414.865385 535.711801 417.317308 535.225655 419.769231 534.825761 422.221154 534.543483 424.673077 534.253364 427.125000 531.485469 429.576923 496.867184 432.028846 479.099340 434.480769 467.721960 436.932692 460.076926 439.384615 454.211812 441.836538 448.001692 444.288462 441.932710 446.740385 434.397451 449.192308 424.102137 451.644231 411.344731 454.096154 396.556490 456.548077 378.341705 459.000000 357.947105 461.451923 337.223180 463.903846 322.082091 466.355769 308.470009 468.807692 294.787358 471.259615 281.888812 473.711538 269.915512 476.163462 260.968861 478.615385 252.202555 481.067308 245.545494 483.519231 239.633334 485.971154 235.289386 488.423077 230.867028 490.875000 227.644352 493.326923 225.150894 495.778846 223.347450 498.230769 221.936059 500.682692 220.367847 503.134615 218.697701 505.586538 216.815846 508.038462 214.651713 510.490385 212.283713 512.942308 208.825805 515.394231 204.873910 517.846154 200.467234 520.298077 195.354862 522.750000 190.407153 525.201923 185.435920 527.653846 180.903786 530.105769 176.105057 532.557692 171.643493 535.009615 167.377956 537.461538 164.029823 539.913462 161.277611 542.365385 158.580286 544.817308 156.118192 547.269231 153.852126 549.721154 152.142774 552.173077 150.684337 554.625000 149.712045 557.076923 148.763277 559.528846 147.892919 561.980769 147.171542 564.432692 146.167886 566.884615 145.038773 569.336538 143.721475 571.788462 141.972918 574.240385 139.746057 576.692308 137.095778 579.144231 134.265155 581.596154 131.356121 584.048077 128.839141 586.500000 126.494664 588.951923 124.016888 591.403846 121.186265 593.855769 118.692808 596.307692 116.677655 598.759615 114.772277 601.211538 113.125654 603.663462 111.643694 606.115385 110.451853 608.567308 109.189442 611.019231 108.138740 613.471154 107.354633 615.923077 106.876329 618.375000 106.209838 620.826923 105.708011 623.278846 105.135613 625.730769 104.571057 628.182692 103.810474 630.634615 102.869546 633.086538 101.646341 635.538462 100.336884 637.990385 98.611850 640.442308 96.831929 642.894231 95.357810 645.346154 93.907214 647.798077 92.088087 650.250000 90.347372 652.701923 88.865411 655.153846 87.532431 657.605769 86.395477 660.057692 85.376139 662.509615 83.878496 664.961538 75.433674 667.413462 70.878017 669.865385 67.874891 672.317308 65.632347 674.769231 64.283685 677.221154 62.895817 679.673077 61.719658 682.125000 60.535658 684.576923 59.124267 687.028846 57.846174 689.480769 56.254438 691.932692 54.435312 694.384615 52.773007 696.836538 51.173431 699.288462 49.244530 701.740385 47.464609 704.192308 45.716052 706.644231 43.857721 709.096154 42.297350 711.548077 40.650727 714.000000 38.988422 716.451923 37.435892 718.903846 36.087229 721.355769 34.942434 723.807692 33.946619 726.259615 32.911599 728.711538 32.088288 731.163462 31.453162 733.615385 30.912129 736.067308 30.339731 738.519231 29.853586 740.971154 29.273347 743.423077 28.677426 745.875000 28.026618 748.326923 27.352287 750.778846 26.450565 753.230769 25.399863 755.682692 24.411889 758.134615 23.455280 760.586538 22.412419 763.038462 21.393081 765.490385 20.499200 767.942308 19.503385 770.394231 18.507570 772.846154 17.590166 775.298077 16.790378 777.750000 15.778881 780.201923 14.837954 782.653846 13.998960 785.105769 13.293265 787.557692 12.634615 790.009615 12.634615 792.461538 12.634615 794.913462 12.634615 797.365385 12.634615 799.817308 12.634615 802.269231 12.634615 804.721154 12.634615 807.173077 12.634615 809.625000 12.634615 812.076923 12.634615 814.528846 12.634615 816.980769 12.634615 819.432692 12.634615 821.884615 12.634615 824.336538 12.634615 826.788462 12.634615 829.240385 12.634615 831.692308 12.634615 834.144231 12.634615 836.596154 12.634615 839.048077 12.634615 841.500000 12.634615 843.951923 12.634615 846.403846 12.634615 848.855769 12.634615 851.307692 12.634615 853.759615 12.634615 856.211538 12.634615 858.663462 12.634615 861.115385 12.634615 863.567308 12.634615 866.019231 12.634615 868.471154 12.634615 870.923077 12.634615 873.375000 12.634615 875.826923 12.634615 878.278846 12.634615 880.730769 12.634615 883.182692 12.634615 885.634615 12.634615 888.086538 12.634615 890.538462 12.634615 892.990385 12.634615 895.442308 12.634615 897.894231 12.634615 900.346154 12.634615" /></g></g><g class="titles"><text class="title plot_title" x="512.0" y="26">Election 10 Participation</text><text class="title" transform="rotate(-90 0.000000 374.500000)" x="0" y="400.5">Users</text></g><g class="plot overlay" transform="translate(86, 46)"><g class="series serie-0 color-0" /><g class="series serie-1 color-1" /></g><g class="plot text-overlay" transform="translate(86, 46)"><g class="series serie-0 color-0" /><g class="series serie-1 color-1" /></g><g class="plot tooltip-overlay" transform="translate(86, 46)"><g class="tooltip" style="opacity: 0" transform="translate(0 0)"><a><rect class="tooltip-box" height="0" rx="0" ry="0" width="0" /><text class="text"><tspan class="label" /><tspan class="value" /></text></a></g></g><g class="legends" transform="translate(96, 713)"><g class="legend reactive activate-serie" id="activate-serie-0"><rect class="color-0 reactive" height="12" width="12" x="0.0" y="1.0" /><text x="17.0" y="11.2">constituents</text></g><g class="legend reactive activate-serie" id="activate-serie-1"><rect class="color-1 reactive" height="12" width="12" x="459.0" y="1.0" /><text x="476.0" y="11.2">caucus</text></g></g></g></svg>