<?xml version='1.0' encoding='utf-8'?>
<svg xmlns:xlink="http://www.w3.org/1999/xlink" class="pygal-chart" id="chart-a1d391c6-efc1-4cd0-8968-63c329bc7c0a" viewBox="0 0 1024 768" xmlns="http://www.w3.org/2000/svg"><!--Generated with pygal 1.7.0 (etree) ©Kozea 2011-2014 on 2015-04-20--><!--http://pygal.org--><!--http://github.com/Kozea/pygal--><defs><style type="text/css">#chart-a1d391c6-efc1-4cd0-8968-63c329bc7c0a .title{font-family:"monospace";font-size:16px}#chart-a1d391c6-efc1-4cd0-8968-63c329bc7c0a .legends .legend text{font-family:"monospace";font-size:14px}#chart-a1d391c6-efc1-4cd0-8968-63c329bc7c0a .axis text{font-family:"monospace";font-size:10px}#chart-a1d391c6-efc1-4cd0-8968-63c329bc7c0a .axis text.major{font-family:"monospace";font-size:10px}#chart-a1d391c6-efc1-4cd0-8968-63c329bc7c0a .series text{font-family:"monospace";font-size:8px}#chart-a1d391c6-efc1-4cd0-8968-63c329bc7c0a .tooltip text{font-family:"monospace";font-size:16px}#chart-a1d391c6-efc1-4cd0-8968-63c329bc7c0a text.no_data{font-size:64px}
#chart-a1d391c6-efc1-4cd0-8968-63c329bc7c0a{background-color:black}#chart-a1d391c6-efc1-4cd0-8968-63c329bc7c0a path,#chart-a1d391c6-efc1-4cd0-8968-63c329bc7c0a line,#chart-a1d391c6-efc1-4cd0-8968-63c329bc7c0a rect,#chart-a1d391c6-efc1-4cd0-8968-63c329bc7c0a circle{-webkit-transition:250ms;-moz-transition:250ms;transition:250ms}#chart-a1d391c6-efc1-4cd0-8968-63c329bc7c0a .graph &gt; .background{fill:black}#chart-a1d391c6-efc1-4cd0-8968-63c329bc7c0a .plot &gt; .background{fill:#111}#chart-a1d391c6-efc1-4cd0-8968-63c329bc7c0a .graph{fill:#999}#chart-a1d391c6-efc1-4cd0-8968-63c329bc7c0a text.no_data{fill:#eee}#chart-a1d391c6-efc1-4cd0-8968-63c329bc7c0a .title{fill:#eee}#chart-a1d391c6-efc1-4cd0-8968-63c329bc7c0a .legends .legend text{fill:#999}#chart-a1d391c6-efc1-4cd0-8968-63c329bc7c0a .legends .legend:hover text{fill:#eee}#chart-a1d391c6-efc1-4cd0-8968-63c329bc7c0a .axis .line{stroke:#eee}#chart-a1d391c6-efc1-4cd0-8968-63c329bc7c0a .axis .guide.line{stroke:#555}#chart-a1d391c6-efc1-4cd0-8968-63c329bc7c0a .axis .major.line{stroke:#999}#chart-a1d391c6-efc1-4cd0-8968-63c329bc7c0a .axis text.major{stroke:#eee;fill:#eee}#chart-a1d391c6-efc1-4cd0-8968-63c329bc7c0a .axis.y .guides:hover .guide.line,#chart-a1d391c6-efc1-4cd0-8968-63c329bc7c0a .line-graph .axis.x .guides:hover .guide.line,#chart-a1d391c6-efc1-4cd0-8968-63c329bc7c0a .stackedline-graph .axis.x .guides:hover .guide.line,#chart-a1d391c6-efc1-4cd0-8968-63c329bc7c0a .xy-graph .axis.x .guides:hover .guide.line{stroke:#eee}#chart-a1d391c6-efc1-4cd0-8968-63c329bc7c0a .axis .guides:hover text{fill:#eee}#chart-a1d391c6-efc1-4cd0-8968-63c329bc7c0a .reactive{fill-opacity:.8}#chart-a1d391c6-efc1-4cd0-8968-63c329bc7c0a .reactive.active,#chart-a1d391c6-efc1-4cd0-8968-63c329bc7c0a .active .reactive{fill-opacity:.4}#chart-a1d391c6-efc1-4cd0-8968-63c329bc7c0a .series{stroke-width:1.0;stroke-linejoin:round;stroke-linecap:round;stroke-dasharray:0,0}#chart-a1d391c6-efc1-4cd0-8968-63c329bc7c0a .series text{fill:#eee}#chart-a1d391c6-efc1-4cd0-8968-63c329bc7c0a .tooltip rect{fill:#111;stroke:#eee}#chart-a1d391c6-efc1-4cd0-8968-63c329bc7c0a .tooltip text{fill:#eee}#chart-a1d391c6-efc1-4cd0-8968-63c329bc7c0a .map-element{fill:#999;stroke:#555 !important;opacity:.9;stroke-width:3;-webkit-transition:250ms;-moz-transition:250ms;-o-transition:250ms;transition:250ms}#chart-a1d391c6-efc1-4cd0-8968-63c329bc7c0a .map-element:hover{opacity:1;stroke-width:10}#chart-a1d391c6-efc1-4cd0-8968-63c329bc7c0a .color-0,#chart-a1d391c6-efc1-4cd0-8968-63c329bc7c0a .color-0 a:visited{stroke:#ff5995;fill:#ff5995}#chart-a1d391c6-efc1-4cd0-8968-63c329bc7c0a .color-1,#chart-a1d391c6-efc1-4cd0-8968-63c329bc7c0a .color-1 a:visited{stroke:#b6e354;fill:#b6e354}#chart-a1d391c6-efc1-4cd0-8968-63c329bc7c0a .color-2,#chart-a1d391c6-efc1-4cd0-8968-63c329bc7c0a .color-2 a:visited{stroke:#feed6c;fill:#feed6c}#chart-a1d391c6-efc1-4cd0-8968-63c329bc7c0a .color-3,#chart-a1d391c6-efc1-4cd0-8968-63c329bc7c0a .color-3 a:visited{stroke:#8cedff;fill:#8cedff}#chart-a1d391c6-efc1-4cd0-8968-63c329bc7c0a .color-4,#chart-a1d391c6-efc1-4cd0-8968-63c329bc7c0a .color-4 a:visited{stroke:#9e6ffe;fill:#9e6ffe}#chart-a1d391c6-efc1-4cd0-8968-63c329bc7c0a .color-5,#chart-a1d391c6-efc1-4cd0-8968-63c329bc7c0a .color-5 a:visited{stroke:#899ca1;fill:#899ca1}#chart-a1d391c6-efc1-4cd0-8968-63c329bc7c0a .color-6,#chart-a1d391c6-efc1-4cd0-8968-63c329bc7c0a .color-6 a:visited{stroke:#f8f8f2;fill:#f8f8f2}#chart-a1d391c6-efc1-4cd0-8968-63c329bc7c0a .color-7,#chart-a1d391c6-efc1-4cd0-8968-63c329bc7c0a .color-7 a:visited{stroke:#bf4646;fill:#bf4646}#chart-a1d391c6-efc1-4cd0-8968-63c329bc7c0a .color-8,#chart-a1d391c6-efc1-4cd0-8968-63c329bc7c0a .color-8 a:visited{stroke:#516083;fill:#516083}#chart-a1d391c6-efc1-4cd0-8968-63c329bc7c0a .color-9,#chart-a1d391c6-efc1-4cd0-8968-63c329bc7c0a .color-9 a:visited{stroke:#f92672;fill:#f92672}#chart-a1d391c6-efc1-4cd0-8968-63c329bc7c0a .color-10,#chart-a1d391c6-efc1-4cd0-8968-63c329bc7c0a .color-10 a:visited{stroke:#82b414;fill:#82b414}#chart-a1d391c6-efc1-4cd0-8968-63c329bc7c0a .color-11,#chart-a1d391c6-efc1-4cd0-8968-63c329bc7c0a .color-11 a:visited{stroke:#fd971f;fill:#fd971f}#chart-a1d391c6-efc1-4cd0-8968-63c329bc7c0a .color-12,#chart-a1d391c6-efc1-4cd0-8968-63c329bc7c0a .color-12 a:visited{stroke:#56c2d6;fill:#56c2d6}#chart-a1d391c6-efc1-4cd0-8968-63c329bc7c0a .color-13,#chart-a1d391c6-efc1-4cd0-8968-63c329bc7c0a .color-13 a:visited{stroke:#808384;fill:#808384}#chart-a1d391c6-efc1-4cd0-8968-63c329bc7c0a .color-14,#chart-a1d391c6-efc1-4cd0-8968-63c329bc7c0a .color-14 a:visited{stroke:#8c54fe;fill:#8c54fe}#chart-a1d391c6-efc1-4cd0-8968-63c329bc7c0a .color-15,#chart-a1d391c6-efc1-4cd0-8968-63c329bc7c0a .color-15 a:visited{stroke:#465457;fill:#465457}
#chart-a1d391c6-efc1-4cd0-8968-63c329bc7c0a text.no_data{text-anchor:middle}#chart-a1d391c6-efc1-4cd0-8968-63c329bc7c0a .guide.line{fill-opacity:0}#chart-a1d391c6-efc1-4cd0-8968-63c329bc7c0a .centered{text-anchor:middle}#chart-a1d391c6-efc1-4cd0-8968-63c329bc7c0a .title{text-anchor:middle}#chart-a1d391c6-efc1-4cd0-8968-63c329bc7c0a .legends .legend text{fill-opacity:1}#chart-a1d391c6-efc1-4cd0-8968-63c329bc7c0a .axis.x text{text-anchor:middle}#chart-a1d391c6-efc1-4cd0-8968-63c329bc7c0a .axis.x:not(.web) text[transform]{text-anchor:start}#chart-a1d391c6-efc1-4cd0-8968-63c329bc7c0a .axis.y text{text-anchor:end}#chart-a1d391c6-efc1-4cd0-8968-63c329bc7c0a .axis.y2 text{text-anchor:start}#chart-a1d391c6-efc1-4cd0-8968-63c329bc7c0a .axis.y .logarithmic text:not(.major),#chart-a1d391c6-efc1-4cd0-8968-63c329bc7c0a .axis.y2 .logarithmic text:not(.major){font-size:50%}#chart-a1d391c6-efc1-4cd0-8968-63c329bc7c0a .axis .guide.line{stroke-dasharray:4,4}#chart-a1d391c6-efc1-4cd0-8968-63c329bc7c0a .axis .major.guide.line{stroke-dasharray:6,6}#chart-a1d391c6-efc1-4cd0-8968-63c329bc7c0a .axis text.major{stroke-width:0.5px}#chart-a1d391c6-efc1-4cd0-8968-63c329bc7c0a .horizontal .axis.y .guide.line,#chart-a1d391c6-efc1-4cd0-8968-63c329bc7c0a .horizontal .axis.y2 .guide.line,#chart-a1d391c6-efc1-4cd0-8968-63c329bc7c0a .vertical .axis.x .guide.line{opacity:0}#chart-a1d391c6-efc1-4cd0-8968-63c329bc7c0a .horizontal .axis.always_show .guide.line,#chart-a1d391c6-efc1-4cd0-8968-63c329bc7c0a .vertical .axis.always_show .guide.line{opacity:1 !important}#chart-a1d391c6-efc1-4cd0-8968-63c329bc7c0a .axis.y .guides:hover .guide.line,#chart-a1d391c6-efc1-4cd0-8968-63c329bc7c0a .axis.y2 .guides:hover .guide.line,#chart-a1d391c6-efc1-4cd0-8968-63c329bc7c0a .axis.x .guides:hover .guide.line{opacity:1}#chart-a1d391c6-efc1-4cd0-8968-63c329bc7c0a .axis .guides:hover text{opacity:1}#chart-a1d391c6-efc1-4cd0-8968-63c329bc7c0a .nofill{fill:none}#chart-a1d391c6-efc1-4cd0-8968-63c329bc7c0a .subtle-fill{fill-opacity:.2}#chart-a1d391c6-efc1-4cd0-8968-63c329bc7c0a .dot{stroke-width:1px;fill-opacity:1}#chart-a1d391c6-efc1-4cd0-8968-63c329bc7c0a .dot.active{stroke-width:5px}#chart-a1d391c6-efc1-4cd0-8968-63c329bc7c0a .series text{stroke:none}#chart-a1d391c6-efc1-4cd0-8968-63c329bc7c0a .series text.active{opacity:1}#chart-a1d391c6-efc1-4cd0-8968-63c329bc7c0a .tooltip rect{fill-opacity:0.8}#chart-a1d391c6-efc1-4cd0-8968-63c329bc7c0a .tooltip text{fill-opacity:1}#chart-a1d391c6-efc1-4cd0-8968-63c329bc7c0a .tooltip text tspan.label{fill-opacity:.8}</style><script type="text/javascript">window.config = {"xrange": null, "css": ["style.css", "graph.css"], "disable_xml_declaration": false, "legend_box_size": 12, "rounded_bars": null, "label_font_size": 10, "stroke": true, "y_labels": null, "dots_size": 2.5, "strict": false, "value_font_size": 8, "explicit_size": false, "x_labels_major": null, "show_x_labels": true, "x_value_formatter": null, "half_pie": false, "y_labels_major_every": null, "show_x_guides": false, "margin_right": null, "range": null, "no_prefix": false, "js": ["http://kozea.github.io/pygal.js/javascripts/svg.jquery.js", "http://kozea.github.io/pygal.js/javascripts/pygal-tooltips.js"], "tooltip_font_size": 16, "legend_font_size": 14, "show_legend": true, "show_minor_x_labels": true, "mode": null, "interpolate": null, "x_title": null, "missing_value_fill_truncation": "x", "legend_at_bottom_columns": null, "legend_at_bottom": true, "margin_top": null, "y_labels_major": null, "pretty_print": false, "margin": 20, "no_data_font_size": 64, "show_only_major_dots": false, "print_values": false, "x_labels_major_every": null, "show_y_guides": true, "truncate_legend": null, "inner_radius": 0, "title_font_size": 16, "x_label_format": "%Y-%m-%d %H:%M:%S.%f", "show_y_labels": true, "zero": 0, "width": 1024, "include_x_axis": false, "interpolation_parameters": {}, "x_label_rotation": 0, "interpolation_precision": 250, "x_labels": null, "truncate_label": null, "stack_from_top": false, "show_dots": false, "fill": false, "no_data_text": "No data", "spacing": 10, "style": {"stroke_dasharray": "0,0", "foreground_light": "#eee", "plot_background": "#111", "foreground": "#999", "stroke_style": "round", "stroke_width": 1.0, "foreground_dark": "#555", "background": "black", "colors": ["#ff5995", "#b6e354", "#feed6c", "#8cedff", "#9e6ffe", "#899ca1", "#f8f8f2", "#bf4646", "#516083", "#f92672", "#82b414", "#fd971f", "#56c2d6", "#808384", "#8c54fe", "#465457"], "font_family": "monospace", "opacity": ".8", "transition": "250ms", "opacity_hover": ".4"}, "x_labels_major_count": null, "print_zeroes": false, "y_label_rotation": 0, "human_readable": false, "title": "Election 6 Participation", "major_label_font_size": 10, "y_title": "Users", "tooltip_border_radius": 0, "show_minor_y_labels": true, "y_labels_major_count": null, "margin_bottom": null, "margin_left": null, "logarithmic": false, "height": 768, "order_min": null}</script><script type="text/javascript" xlink:href="http://kozea.github.io/pygal.js/javascripts/svg.jquery.js" /><script type="text/javascript" xlink:href="http://kozea.github.io/pygal.js/javascripts/pygal-tooltips.js" /></defs><title>Election 6 Participation</title><g class="graph line-graph vertical"><rect class="background" height="768" width="1024" x="0" y="0" /><g class="plot" transform="translate(86, 46)"><rect class="background" height="657.0" width="918.0" x="0" y="0" /><g class="axis y"><g class="guides"><path class="axis major line" d="M0.000000 644.365385 h918.000000" /><text class="major" x="-5" y="647.8653846153846">0</text></g><g class="guides"><path class="guide line" d="M0.000000 562.441589 h918.000000" /><text class="" x="-5" y="565.9415894562953">10000</text></g><g class="guides"><path class="guide line" d="M0.000000 480.517794 h918.000000" /><text class="" x="-5" y="484.017794297206">20000</text></g><g class="guides"><path class="guide line" d="M0.000000 398.593999 h918.000000" /><text class="" x="-5" y="402.0939991381168">30000</text></g><g class="guides"><path class="guide line" d="M0.000000 316.670204 h918.000000" /><text class="" x="-5" y="320.1702039790276">40000</text></g><g class="guides"><path class="major guide line" d="M0.000000 234.746409 h918.000000" /><text class="major" x="-5" y="238.24640881993827">50000</text></g><g class="guides"><path class="guide line" d="M0.000000 152.822614 h918.000000" /><text class="" x="-5" y="156.32261366084902">60000</text></g><g class="guides"><path class="guide line" d="M0.000000 70.898819 h918.000000" /><text class="" x="-5" y="74.3988185017597">70000</text></g></g><g class="series serie-0 color-0"><path class="line reactive nofill" d="M17.653846 644.365385 L20.105769 644.365385 22.557692 644.365385 25.009615 644.365385 27.461538 644.365385 29.913462 644.365385 32.365385 644.365385 34.817308 644.365385 37.269231 644.365385 39.721154 644.365385 42.173077 644.365385 44.625000 644.365385 47.076923 644.365385 49.528846 644.365385 51.980769 644.365385 54.432692 644.365385 56.884615 644.365385 59.336538 644.365385 61.788462 644.365385 64.240385 644.365385 66.692308 644.365385 69.144231 644.365385 71.596154 644.365385 74.048077 644.365385 76.500000 644.365385 78.951923 644.365385 81.403846 644.365385 83.855769 644.365385 86.307692 644.365385 88.759615 644.365385 91.211538 644.365385 93.663462 644.365385 96.115385 644.365385 98.567308 644.365385 101.019231 644.365385 103.471154 644.365385 105.923077 644.365385 108.375000 644.365385 110.826923 644.365385 113.278846 644.365385 115.730769 644.365385 118.182692 644.365385 120.634615 644.365385 123.086538 644.365385 125.538462 644.365385 127.990385 644.365385 130.442308 644.365385 132.894231 644.365385 135.346154 644.365385 137.798077 644.365385 140.250000 644.365385 142.701923 644.365385 145.153846 644.365385 147.605769 644.365385 150.057692 644.365385 152.509615 644.365385 154.961538 644.365385 157.413462 644.365385 159.865385 644.365385 162.317308 644.365385 164.769231 644.365385 167.221154 644.365385 169.673077 644.365385 172.125000 644.365385 174.576923 644.365385 177.028846 644.365385 179.480769 644.365385 181.932692 644.365385 184.384615 644.365385 186.836538 644.365385 189.288462 644.365385 191.740385 644.365385 194.192308 644.365385 196.644231 644.365385 199.096154 644.365385 201.548077 644.365385 204.000000 644.365385 206.451923 644.365385 208.903846 644.365385 211.355769 644.365385 213.807692 644.365385 216.259615 644.365385 218.711538 644.365385 221.163462 644.365385 223.615385 644.365385 226.067308 644.365385 228.519231 644.365385 230.971154 644.365385 233.423077 644.365385 235.875000 644.365385 238.326923 644.365385 240.778846 644.365385 243.230769 644.365385 245.682692 644.365385 248.134615 644.365385 250.586538 644.365385 253.038462 644.365385 255.490385 644.365385 257.942308 644.365385 260.394231 644.365385 262.846154 644.365385 265.298077 644.365385 267.750000 644.365385 270.201923 644.365385 272.653846 644.365385 275.105769 644.365385 277.557692 644.365385 280.009615 644.365385 282.461538 644.365385 284.913462 644.365385 287.365385 644.365385 289.817308 644.365385 292.269231 644.365385 294.721154 644.365385 297.173077 644.365385 299.625000 644.365385 302.076923 644.365385 304.528846 644.365385 306.980769 644.365385 309.432692 644.365385 311.884615 644.365385 314.336538 644.365385 316.788462 644.365385 319.240385 644.365385 321.692308 644.365385 324.144231 644.365385 326.596154 644.365385 329.048077 644.365385 331.500000 644.365385 333.951923 644.365385 336.403846 644.365385 338.855769 644.365385 341.307692 644.365385 343.759615 644.365385 346.211538 644.365385 348.663462 644.365385 351.115385 644.365385 353.567308 644.365385 356.019231 644.365385 358.471154 644.365385 360.923077 644.365385 363.375000 644.365385 365.826923 644.365385 368.278846 644.365385 370.730769 644.365385 373.182692 644.365385 375.634615 644.365385 378.086538 644.365385 380.538462 644.365385 382.990385 644.365385 385.442308 644.365385 387.894231 644.365385 390.346154 644.365385 392.798077 644.365385 395.250000 644.365385 397.701923 644.365385 400.153846 644.365385 402.605769 644.365385 405.057692 644.365385 407.509615 644.365385 409.961538 644.365385 412.413462 644.365385 414.865385 644.365385 417.317308 644.365385 419.769231 644.365385 422.221154 644.365385 424.673077 644.365385 427.125000 644.365385 429.576923 644.365385 432.028846 644.365385 434.480769 644.365385 436.932692 644.365385 439.384615 644.365385 441.836538 644.365385 444.288462 644.365385 446.740385 644.365385 449.192308 644.365385 451.644231 644.365385 454.096154 644.365385 456.548077 644.365385 459.000000 644.365385 461.451923 644.365385 463.903846 644.365385 466.355769 644.365385 468.807692 644.365385 471.259615 644.365385 473.711538 644.365385 476.163462 644.365385 478.615385 644.365385 481.067308 644.365385 483.519231 644.365385 485.971154 644.365385 488.423077 644.365385 490.875000 644.365385 493.326923 644.365385 495.778846 644.365385 498.230769 644.365385 500.682692 644.365385 503.134615 644.365385 505.586538 644.365385 508.038462 644.365385 510.490385 644.365385 512.942308 644.365385 515.394231 644.365385 517.846154 644.365385 520.298077 644.365385 522.750000 644.365385 525.201923 644.365385 527.653846 644.365385 530.105769 644.365385 532.557692 644.365385 535.009615 644.365385 537.461538 644.365385 539.913462 644.365385 542.365385 644.365385 544.817308 644.365385 547.269231 644.365385 549.721154 644.365385 552.173077 644.365385 554.625000 644.365385 557.076923 644.365385 559.528846 644.365385 561.980769 644.365385 564.432692 644.365385 566.884615 644.365385 569.336538 644.365385 571.788462 644.365385 574.240385 644.365385 576.692308 644.365385 579.144231 644.365385 581.596154 644.365385 584.048077 644.365385 586.500000 644.365385 588.951923 644.365385 591.403846 644.365385 593.855769 644.365385 596.307692 644.365385 598.759615 644.365385 601.211538 644.365385 603.663462 644.365385 606.115385 644.365385 608.567308 644.365385 611.019231 644.365385 613.471154 644.365385 615.923077 644.365385 618.375000 644.365385 620.826923 644.365385 623.278846 644.365385 625.730769 644.365385 628.182692 644.365385 630.634615 644.365385 633.086538 644.365385 635.538462 644.365385 637.990385 644.365385 640.442308 644.365385 642.894231 644.365385 645.346154 644.365385 647.798077 644.365385 650.250000 644.365385 652.701923 644.365385 655.153846 644.365385 657.605769 644.365385 660.057692 644.365385 662.509615 644.365385 664.961538 618.117001 667.413462 606.033241 669.865385 599.331874 672.317308 595.366763 674.769231 592.278236 677.221154 589.550173 679.673077 587.092459 682.125000 584.249704 684.576923 580.473017 687.028846 576.770061 689.480769 573.108068 691.932692 568.905377 694.384615 565.210614 696.836538 561.024308 699.288462 557.231236 701.740385 554.167286 704.192308 551.234414 706.644231 548.358889 709.096154 545.622634 711.548077 543.107574 714.000000 540.952978 716.451923 538.495264 718.903846 536.602824 721.355769 534.374497 723.807692 532.850715 726.259615 531.597281 728.711538 530.622387 731.163462 529.794957 733.615385 529.196913 736.067308 528.541523 738.519231 527.935287 740.971154 527.386398 743.423077 526.796546 745.875000 525.936346 748.326923 524.740259 750.778846 523.642480 753.230769 522.200621 755.682692 521.037303 758.134615 519.652791 760.586538 518.276471 763.038462 517.063999 765.490385 515.818758 767.942308 514.802903 770.394231 513.516699 772.846154 512.263265 775.298077 511.050793 777.750000 509.862898 780.201923 508.748734 782.653846 507.782033 785.105769 506.766178 787.557692 506.020672 790.009615 505.094933 792.461538 504.201963 794.913462 503.186108 797.365385 502.088330 799.817308 500.892242 802.269231 498.532837 804.721154 495.206731 807.173077 490.545267 809.625000 484.474714 812.076923 478.920280 814.528846 473.701735 816.980769 470.310089 819.432692 467.319871 821.884615 463.690647 824.336538 459.946729 826.788462 456.424006 829.240385 453.720521 831.692308 451.828081 834.144231 450.476339 836.596154 448.985326 839.048077 447.576236 841.500000 446.503035 843.951923 445.388871 846.403846 444.815404 848.855769 444.397593 851.307692 443.832319 853.759615 443.439085 856.211538 443.037658 858.663462 442.578885 861.115385 442.365883 863.567308 442.365883 866.019231 442.365883 868.471154 442.365883 870.923077 442.365883 873.375000 442.365883 875.826923 442.365883 878.278846 442.365883 880.730769 442.365883 883.182692 442.365883 885.634615 442.365883 888.086538 442.365883 890.538462 442.365883 892.990385 442.365883 895.442308 442.365883 897.894231 442.365883 900.346154 442.365883" /></g><g class="series serie-1 color-1"><path class="line reactive nofill" d="M17.653846 627.923279 L20.105769 621.770802 22.557692 618.338195 25.009615 616.052521 27.461538 613.897925 29.913462 612.464259 32.365385 611.022400 34.817308 609.342962 37.269231 606.836094 39.721154 603.608297 42.173077 600.233036 44.625000 595.612534 47.076923 591.385266 49.528846 588.509741 51.980769 585.863602 54.432692 583.668045 56.884615 581.390563 59.336538 579.162236 61.788462 576.917524 64.240385 574.959545 66.692308 573.419378 69.144231 572.051251 71.596154 570.838778 74.048077 569.691845 76.500000 568.790684 78.951923 567.684712 81.403846 567.160400 83.855769 566.783551 86.307692 566.324777 88.759615 565.890581 91.211538 565.603848 93.663462 565.333499 96.115385 564.784610 98.567308 564.145604 101.019231 563.449252 103.471154 562.507128 105.923077 561.565005 108.375000 560.639266 110.826923 559.762681 113.278846 559.033560 115.730769 558.197937 118.182692 557.337737 120.634615 556.592230 123.086538 555.945033 125.538462 555.404335 127.990385 554.757137 130.442308 554.175479 132.894231 553.692128 135.346154 553.200585 137.798077 552.807351 140.250000 552.422309 142.701923 552.274846 145.153846 552.102807 147.605769 551.922574 150.057692 551.693188 152.509615 551.512955 154.961538 551.168875 157.413462 550.734679 159.865385 550.366022 162.317308 549.792555 164.769231 549.210897 167.221154 548.719354 169.673077 548.219619 172.125000 547.646152 174.576923 547.162802 177.028846 546.564758 179.480769 545.950329 181.932692 545.368671 184.384615 544.918090 186.836538 544.606779 189.288462 544.246315 191.740385 543.869465 194.192308 543.402499 196.644231 543.107574 199.096154 542.919149 201.548077 542.738917 204.000000 542.616031 206.451923 542.476761 208.903846 542.321105 211.355769 542.206412 213.807692 541.960641 216.259615 541.673907 218.711538 541.305250 221.163462 540.977555 223.615385 540.633475 226.067308 540.191087 228.519231 539.756891 230.971154 539.412811 233.423077 538.994999 235.875000 538.609957 238.326923 538.200338 240.778846 537.880836 243.230769 537.667834 245.682692 537.413870 248.134615 537.184483 250.586538 536.971482 253.038462 536.684748 255.490385 536.512708 257.942308 536.365245 260.394231 536.250552 262.846154 536.111282 265.298077 536.004781 267.750000 535.939242 270.201923 535.873703 272.653846 535.742625 275.105769 535.668893 277.557692 535.529623 280.009615 535.390352 282.461538 535.308428 284.913462 535.210120 287.365385 535.136389 289.817308 534.964349 292.269231 534.808693 294.721154 534.710385 297.173077 534.513768 299.625000 534.349920 302.076923 534.202457 304.528846 534.030417 306.980769 533.817415 309.432692 533.686337 311.884615 533.588029 314.336538 533.514297 316.788462 533.358642 319.240385 533.243949 321.692308 533.153833 324.144231 533.047332 326.596154 532.957216 329.048077 532.891677 331.500000 532.776983 333.951923 532.670482 336.403846 532.563981 338.855769 532.473865 341.307692 532.391941 343.759615 532.203517 346.211538 532.064246 348.663462 531.900399 351.115385 531.761128 353.567308 531.630050 356.019231 531.498972 358.471154 531.359702 360.923077 531.261393 363.375000 531.138507 365.826923 530.999237 368.278846 530.802620 370.730769 530.663349 373.182692 530.507694 375.634615 530.417578 378.086538 530.327462 380.538462 530.237346 382.990385 530.130845 385.442308 529.983382 387.894231 529.909650 390.346154 529.803149 392.798077 529.598340 395.250000 529.393530 397.701923 529.008489 400.153846 528.582485 402.605769 528.090942 405.057692 527.697708 407.509615 527.247127 409.961538 526.845700 412.413462 526.247657 414.865385 525.764306 417.317308 525.502150 419.769231 525.207225 422.221154 524.887722 424.673077 524.543642 427.125000 524.174985 429.576923 483.376935 432.028846 463.993765 434.480769 453.515711 436.932692 445.782105 439.384615 439.146278 441.836538 433.583652 444.288462 427.308289 446.740385 421.172197 449.192308 412.283465 451.644231 399.331313 454.096154 382.282972 456.548077 360.581358 459.000000 341.935502 461.451923 325.509781 463.903846 312.827978 466.355769 301.669957 468.807692 290.257972 471.259615 279.493186 473.711538 269.219942 476.163462 260.945639 478.615385 254.645699 481.067308 249.173189 483.519231 244.110299 485.971154 239.514374 488.423077 235.622993 490.875000 232.198579 493.326923 229.921097 495.778846 228.462854 498.230769 227.258574 500.682692 225.931408 503.134615 224.669782 505.586538 223.088653 508.038462 220.966826 510.490385 218.197802 512.942308 214.486654 515.394231 210.283964 517.846154 206.073081 520.298077 201.649196 522.750000 197.725046 525.201923 193.931974 527.653846 190.147095 530.105769 186.272099 532.557692 182.290603 535.009615 179.136537 537.461538 176.154511 539.913462 173.844259 542.365385 171.460277 544.817308 169.371220 547.269231 167.314933 549.721154 165.914036 552.173077 164.693372 554.625000 163.710286 557.076923 162.997549 559.528846 162.063618 561.980769 161.350881 564.432692 160.441527 566.884615 159.360133 569.336538 158.237777 571.788462 156.206066 574.240385 154.133394 576.692308 152.019760 579.144231 149.652163 581.596154 147.513952 584.048077 145.490434 586.500000 143.090067 588.951923 140.910894 591.403846 138.846414 593.855769 137.322632 596.307692 135.544885 598.759615 133.980141 601.211538 132.816823 603.663462 131.661697 606.115385 130.441033 608.567308 129.441563 611.019231 128.745210 613.471154 128.212706 615.923077 127.729355 618.375000 127.344313 620.826923 126.836386 623.278846 126.312074 625.730769 125.730415 628.182692 124.993100 630.634615 124.149285 633.086538 123.141623 635.538462 121.822650 637.990385 120.479099 640.442308 119.430475 642.894231 118.431004 645.346154 116.997338 647.798077 115.596441 650.250000 114.105428 652.701923 113.015842 655.153846 112.229373 657.605769 111.262672 660.057692 110.328741 662.509615 109.575042 664.961538 101.071352 667.413462 96.516389 669.865385 93.624479 672.317308 91.781194 674.769231 90.609684 677.221154 89.569251 679.673077 88.766398 682.125000 87.816082 684.576923 86.636380 687.028846 85.284637 689.480769 83.924702 691.932692 82.400919 694.384615 81.090139 696.836538 79.386124 699.288462 77.993419 701.740385 76.813717 704.192308 75.289934 706.644231 74.044692 709.096154 72.766681 711.548077 71.505055 714.000000 70.505584 716.451923 69.375036 718.903846 68.424720 721.355769 67.212248 723.807692 66.327471 726.259615 65.516425 728.711538 65.008498 731.163462 64.402262 733.615385 64.033604 736.067308 63.656755 738.519231 63.361829 740.971154 63.034134 743.423077 62.698247 745.875000 62.305012 748.326923 61.747931 750.778846 61.158079 753.230769 60.265110 755.682692 59.421295 758.134615 58.569287 760.586538 57.971244 763.038462 57.152006 765.490385 56.472038 767.942308 55.833033 770.394231 55.005602 772.846154 54.268288 775.298077 53.473627 777.750000 52.924738 780.201923 52.310309 782.653846 51.605765 785.105769 51.007721 787.557692 50.589910 790.009615 50.131136 792.461538 49.680556 794.913462 49.057935 797.365385 48.492661 799.817308 47.812693 802.269231 46.854185 804.721154 45.428711 807.173077 43.388808 809.625000 40.906517 812.076923 38.039184 814.528846 34.975234 816.980769 32.951717 819.432692 30.977353 821.884615 28.675294 824.336538 26.356851 826.788462 24.144909 829.240385 22.211507 831.692308 20.900726 834.144231 19.671869 836.596154 18.459397 839.048077 17.181386 841.500000 16.190108 843.951923 15.379063 846.403846 14.690903 848.855769 14.264899 851.307692 13.937204 853.759615 13.511200 856.211538 13.142543 858.663462 12.782078 861.115385 12.634615 863.567308 12.634615 866.019231 12.634615 868.471154 12.634615 870.923077 12.634615 873.375000 12.634615 875.826923 12.634615 878.278846 12.634615 880.730769 12.634615 883.182692 12.634615 885.634615 12.634615 888.086538 12.634615 890.538462 12.634615 892.990385 12.634615 895.442308 12.634615 897.894231 12.634615 900.346154 12.634615" /></g></g><g class="titles"><text class="title plot_title" x="512.0" y="26">Election 6 Participation</text><text class="title" transform="rotate(-90 0.000000 374.500000)" x="0" y="400.5">Users</text></g><g class="plot overlay" transform="translate(86, 46)"><g class="series serie-0 color-0" /><g class="series serie-1 color-1" /></g><g class="plot text-overlay" transform="translate(86, 46)"><g class="series serie-0 color-0" /><g class="series serie-1 color-1" /></g><g class="plot tooltip-overlay" transform="translate(86, 46)"><g class="tooltip" style="opacity: 0" transform="translate(0 0)"><a><rect class="tooltip-box" height="0" rx="0" ry="0" width="0" /><text class="text"><tspan class="label" /><tspan class="value" /></text></a></g></g><g class="legends" transform="translate(96, 713)"><g class="legend reactive activate-serie" id="activate-serie-0"><rect class="color-0 reactive" height="12" width="12" x="0.0" y="1.0" /><text x="17.0" y="11.2">constituents</text></g><g class="legend reactive activate-serie" id="activate-serie-1"><rect class="color-1 reactive" height="12" width="12" x="459.0" y="1.0" /><text x="476.0" y="11.2">caucus</text></g></g></g></svg>