<?xml version='1.0' encoding='utf-8'?>
<svg xmlns:xlink="http://www.w3.org/1999/xlink" class="pygal-chart" id="chart-185c1b42-2ecc-441f-a052-0335a192babd" viewBox="0 0 1024 768" xmlns="http://www.w3.org/2000/svg"><!--Generated with pygal 1.7.0 (etree) ©Kozea 2011-2014 on 2018-03-25--><!--http://pygal.org--><!--http://github.com/Kozea/pygal--><defs><style type="text/css">#chart-185c1b42-2ecc-441f-a052-0335a192babd .title{font-family:"monospace";font-size:16px}#chart-185c1b42-2ecc-441f-a052-0335a192babd .legends .legend text{font-family:"monospace";font-size:14px}#chart-185c1b42-2ecc-441f-a052-0335a192babd .axis text{font-family:"monospace";font-size:10px}#chart-185c1b42-2ecc-441f-a052-0335a192babd .axis text.major{font-family:"monospace";font-size:10px}#chart-185c1b42-2ecc-441f-a052-0335a192babd .series text{font-family:"monospace";font-size:8px}#chart-185c1b42-2ecc-441f-a052-0335a192babd .tooltip text{font-family:"monospace";font-size:16px}#chart-185c1b42-2ecc-441f-a052-0335a192babd text.no_data{font-size:64px}
#chart-185c1b42-2ecc-441f-a052-0335a192babd{background-color:black}#chart-185c1b42-2ecc-441f-a052-0335a192babd path,#chart-185c1b42-2ecc-441f-a052-0335a192babd line,#chart-185c1b42-2ecc-441f-a052-0335a192babd rect,#chart-185c1b42-2ecc-441f-a052-0335a192babd circle{-webkit-transition:250ms;-moz-transition:250ms;transition:250ms}#chart-185c1b42-2ecc-441f-a052-0335a192babd .graph &gt; .background{fill:black}#chart-185c1b42-2ecc-441f-a052-0335a192babd .plot &gt; .background{fill:#111}#chart-185c1b42-2ecc-441f-a052-0335a192babd .graph{fill:#999}#chart-185c1b42-2ecc-441f-a052-0335a192babd text.no_data{fill:#eee}#chart-185c1b42-2ecc-441f-a052-0335a192babd .title{fill:#eee}#chart-185c1b42-2ecc-441f-a052-0335a192babd .legends .legend text{fill:#999}#chart-185c1b42-2ecc-441f-a052-0335a192babd .legends .legend:hover text{fill:#eee}#chart-185c1b42-2ecc-441f-a052-0335a192babd .axis .line{stroke:#eee}#chart-185c1b42-2ecc-441f-a052-0335a192babd .axis .guide.line{stroke:#555}#chart-185c1b42-2ecc-441f-a052-0335a192babd .axis .major.line{stroke:#999}#chart-185c1b42-2ecc-441f-a052-0335a192babd .axis text.major{stroke:#eee;fill:#eee}#chart-185c1b42-2ecc-441f-a052-0335a192babd .axis.y .guides:hover .guide.line,#chart-185c1b42-2ecc-441f-a052-0335a192babd .line-graph .axis.x .guides:hover .guide.line,#chart-185c1b42-2ecc-441f-a052-0335a192babd .stackedline-graph .axis.x .guides:hover .guide.line,#chart-185c1b42-2ecc-441f-a052-0335a192babd .xy-graph .axis.x .guides:hover .guide.line{stroke:#eee}#chart-185c1b42-2ecc-441f-a052-0335a192babd .axis .guides:hover text{fill:#eee}#chart-185c1b42-2ecc-441f-a052-0335a192babd .reactive{fill-opacity:.8}#chart-185c1b42-2ecc-441f-a052-0335a192babd .reactive.active,#chart-185c1b42-2ecc-441f-a052-0335a192babd .active .reactive{fill-opacity:.4}#chart-185c1b42-2ecc-441f-a052-0335a192babd .series{stroke-width:1.0;stroke-linejoin:round;stroke-linecap:round;stroke-dasharray:0,0}#chart-185c1b42-2ecc-441f-a052-0335a192babd .series text{fill:#eee}#chart-185c1b42-2ecc-441f-a052-0335a192babd .tooltip rect{fill:#111;stroke:#eee}#chart-185c1b42-2ecc-441f-a052-0335a192babd .tooltip text{fill:#eee}#chart-185c1b42-2ecc-441f-a052-0335a192babd .map-element{fill:#999;stroke:#555 !important;opacity:.9;stroke-width:3;-webkit-transition:250ms;-moz-transition:250ms;-o-transition:250ms;transition:250ms}#chart-185c1b42-2ecc-441f-a052-0335a192babd .map-element:hover{opacity:1;stroke-width:10}#chart-185c1b42-2ecc-441f-a052-0335a192babd .color-0,#chart-185c1b42-2ecc-441f-a052-0335a192babd .color-0 a:visited{stroke:#ff5995;fill:#ff5995}#chart-185c1b42-2ecc-441f-a052-0335a192babd .color-1,#chart-185c1b42-2ecc-441f-a052-0335a192babd .color-1 a:visited{stroke:#b6e354;fill:#b6e354}#chart-185c1b42-2ecc-441f-a052-0335a192babd .color-2,#chart-185c1b42-2ecc-441f-a052-0335a192babd .color-2 a:visited{stroke:#feed6c;fill:#feed6c}#chart-185c1b42-2ecc-441f-a052-0335a192babd .color-3,#chart-185c1b42-2ecc-441f-a052-0335a192babd .color-3 a:visited{stroke:#8cedff;fill:#8cedff}#chart-185c1b42-2ecc-441f-a052-0335a192babd .color-4,#chart-185c1b42-2ecc-441f-a052-0335a192babd .color-4 a:visited{stroke:#9e6ffe;fill:#9e6ffe}#chart-185c1b42-2ecc-441f-a052-0335a192babd .color-5,#chart-185c1b42-2ecc-441f-a052-0335a192babd .color-5 a:visited{stroke:#899ca1;fill:#899ca1}#chart-185c1b42-2ecc-441f-a052-0335a192babd .color-6,#chart-185c1b42-2ecc-441f-a052-0335a192babd .color-6 a:visited{stroke:#f8f8f2;fill:#f8f8f2}#chart-185c1b42-2ecc-441f-a052-0335a192babd .color-7,#chart-185c1b42-2ecc-441f-a052-0335a192babd .color-7 a:visited{stroke:#bf4646;fill:#bf4646}#chart-185c1b42-2ecc-441f-a052-0335a192babd .color-8,#chart-185c1b42-2ecc-441f-a052-0335a192babd .color-8 a:visited{stroke:#516083;fill:#516083}#chart-185c1b42-2ecc-441f-a052-0335a192babd .color-9,#chart-185c1b42-2ecc-441f-a052-0335a192babd .color-9 a:visited{stroke:#f92672;fill:#f92672}#chart-185c1b42-2ecc-441f-a052-0335a192babd .color-10,#chart-185c1b42-2ecc-441f-a052-0335a192babd .color-10 a:visited{stroke:#82b414;fill:#82b414}#chart-185c1b42-2ecc-441f-a052-0335a192babd .color-11,#chart-185c1b42-2ecc-441f-a052-0335a192babd .color-11 a:visited{stroke:#fd971f;fill:#fd971f}#chart-185c1b42-2ecc-441f-a052-0335a192babd .color-12,#chart-185c1b42-2ecc-441f-a052-0335a192babd .color-12 a:visited{stroke:#56c2d6;fill:#56c2d6}#chart-185c1b42-2ecc-441f-a052-0335a192babd .color-13,#chart-185c1b42-2ecc-441f-a052-0335a192babd .color-13 a:visited{stroke:#808384;fill:#808384}#chart-185c1b42-2ecc-441f-a052-0335a192babd .color-14,#chart-185c1b42-2ecc-441f-a052-0335a192babd .color-14 a:visited{stroke:#8c54fe;fill:#8c54fe}#chart-185c1b42-2ecc-441f-a052-0335a192babd .color-15,#chart-185c1b42-2ecc-441f-a052-0335a192babd .color-15 a:visited{stroke:#465457;fill:#465457}
#chart-185c1b42-2ecc-441f-a052-0335a192babd text.no_data{text-anchor:middle}#chart-185c1b42-2ecc-441f-a052-0335a192babd .guide.line{fill-opacity:0}#chart-185c1b42-2ecc-441f-a052-0335a192babd .centered{text-anchor:middle}#chart-185c1b42-2ecc-441f-a052-0335a192babd .title{text-anchor:middle}#chart-185c1b42-2ecc-441f-a052-0335a192babd .legends .legend text{fill-opacity:1}#chart-185c1b42-2ecc-441f-a052-0335a192babd .axis.x text{text-anchor:middle}#chart-185c1b42-2ecc-441f-a052-0335a192babd .axis.x:not(.web) text[transform]{text-anchor:start}#chart-185c1b42-2ecc-441f-a052-0335a192babd .axis.y text{text-anchor:end}#chart-185c1b42-2ecc-441f-a052-0335a192babd .axis.y2 text{text-anchor:start}#chart-185c1b42-2ecc-441f-a052-0335a192babd .axis.y .logarithmic text:not(.major),#chart-185c1b42-2ecc-441f-a052-0335a192babd .axis.y2 .logarithmic text:not(.major){font-size:50%}#chart-185c1b42-2ecc-441f-a052-0335a192babd .axis .guide.line{stroke-dasharray:4,4}#chart-185c1b42-2ecc-441f-a052-0335a192babd .axis .major.guide.line{stroke-dasharray:6,6}#chart-185c1b42-2ecc-441f-a052-0335a192babd .axis text.major{stroke-width:0.5px}#chart-185c1b42-2ecc-441f-a052-0335a192babd .horizontal .axis.y .guide.line,#chart-185c1b42-2ecc-441f-a052-0335a192babd .horizontal .axis.y2 .guide.line,#chart-185c1b42-2ecc-441f-a052-0335a192babd .vertical .axis.x .guide.line{opacity:0}#chart-185c1b42-2ecc-441f-a052-0335a192babd .horizontal .axis.always_show .guide.line,#chart-185c1b42-2ecc-441f-a052-0335a192babd .vertical .axis.always_show .guide.line{opacity:1 !important}#chart-185c1b42-2ecc-441f-a052-0335a192babd .axis.y .guides:hover .guide.line,#chart-185c1b42-2ecc-441f-a052-0335a192babd .axis.y2 .guides:hover .guide.line,#chart-185c1b42-2ecc-441f-a052-0335a192babd .axis.x .guides:hover .guide.line{opacity:1}#chart-185c1b42-2ecc-441f-a052-0335a192babd .axis .guides:hover text{opacity:1}#chart-185c1b42-2ecc-441f-a052-0335a192babd .nofill{fill:none}#chart-185c1b42-2ecc-441f-a052-0335a192babd .subtle-fill{fill-opacity:.2}#chart-185c1b42-2ecc-441f-a052-0335a192babd .dot{stroke-width:1px;fill-opacity:1}#chart-185c1b42-2ecc-441f-a052-0335a192babd .dot.active{stroke-width:5px}#chart-185c1b42-2ecc-441f-a052-0335a192babd .series text{stroke:none}#chart-185c1b42-2ecc-441f-a052-0335a192babd .series text.active{opacity:1}#chart-185c1b42-2ecc-441f-a052-0335a192babd .tooltip rect{fill-opacity:0.8}#chart-185c1b42-2ecc-441f-a052-0335a192babd .tooltip text{fill-opacity:1}#chart-185c1b42-2ecc-441f-a052-0335a192babd .tooltip text tspan.label{fill-opacity:.8}</style><script type="text/javascript">window.config = {"css": ["style.css", "graph.css"], "disable_xml_declaration": false, "dots_size": 2.5, "explicit_size": false, "fill": false, "half_pie": false, "height": 768, "human_readable": false, "include_x_axis": false, "inner_radius": 0, "interpolate": null, "interpolation_parameters": {}, "interpolation_precision": 250, "js": ["http://kozea.github.io/pygal.js/javascripts/svg.jquery.js", "http://kozea.github.io/pygal.js/javascripts/pygal-tooltips.js"], "label_font_size": 10, "legend_at_bottom": true, "legend_at_bottom_columns": null, "legend_box_size": 12, "legend_font_size": 14, "logarithmic": false, "major_label_font_size": 10, "margin": 20, "margin_bottom": null, "margin_left": null, "margin_right": null, "margin_top": null, "missing_value_fill_truncation": "x", "mode": null, "no_data_font_size": 64, "no_data_text": "No data", "no_prefix": false, "order_min": null, "pretty_print": false, "print_values": false, "print_zeroes": false, "range": [0, 1000], "rounded_bars": null, "show_dots": false, "show_legend": true, "show_minor_x_labels": true, "show_minor_y_labels": true, "show_only_major_dots": false, "show_x_guides": false, "show_x_labels": true, "show_y_guides": true, "show_y_labels": true, "spacing": 10, "stack_from_top": false, "strict": false, "stroke": true, "style": {"background": "black", "colors": ["#ff5995", "#b6e354", "#feed6c", "#8cedff", "#9e6ffe", "#899ca1", "#f8f8f2", "#bf4646", "#516083", "#f92672", "#82b414", "#fd971f", "#56c2d6", "#808384", "#8c54fe", "#465457"], "font_family": "monospace", "foreground": "#999", "foreground_dark": "#555", "foreground_light": "#eee", "opacity": ".8", "opacity_hover": ".4", "plot_background": "#111", "stroke_dasharray": "0,0", "stroke_style": "round", "stroke_width": 1.0, "transition": "250ms"}, "title": "Election stackoverflow.com-10 Participation Per Hour", "title_font_size": 16, "tooltip_border_radius": 0, "tooltip_font_size": 16, "truncate_label": null, "truncate_legend": null, "value_font_size": 8, "width": 1024, "x_label_format": "%Y-%m-%d %H:%M:%S.%f", "x_label_rotation": 0, "x_labels": null, "x_labels_major": null, "x_labels_major_count": null, "x_labels_major_every": null, "x_title": null, "x_value_formatter": null, "xrange": null, "y_label_rotation": 0, "y_labels": null, "y_labels_major": null, "y_labels_major_count": null, "y_labels_major_every": null, "y_title": "Users", "zero": 0}</script><script type="text/javascript" xlink:href="http://kozea.github.io/pygal.js/javascripts/svg.jquery.js" /><script type="text/javascript" xlink:href="http://kozea.github.io/pygal.js/javascripts/pygal-tooltips.js" /></defs><title>Election stackoverflow.com-10 Participation Per Hour</title><g class="graph line-graph vertical"><rect class="background" height="768" width="1024" x="0" y="0" /><g class="plot" transform="translate(80, 46)"><rect class="background" height="657.0" width="924.0" x="0" y="0" /><g class="axis y"><g class="guides"><path class="axis major line" d="M0.000000 644.365385 h924.000000" /><text class="major" x="-5" y="647.8653846153846">0</text></g><g class="guides"><path class="guide line" d="M0.000000 581.192308 h924.000000" /><text class="" x="-5" y="584.6923076923077">100</text></g><g class="guides"><path class="guide line" d="M0.000000 518.019231 h924.000000" /><text class="" x="-5" y="521.5192307692307">200</text></g><g class="guides"><path class="guide line" d="M0.000000 454.846154 h924.000000" /><text class="" x="-5" y="458.3461538461538">300</text></g><g class="guides"><path class="guide line" d="M0.000000 391.673077 h924.000000" /><text class="" x="-5" y="395.1730769230769">400</text></g><g class="guides"><path class="major guide line" d="M0.000000 328.500000 h924.000000" /><text class="major" x="-5" y="332.0">500</text></g><g class="guides"><path class="guide line" d="M0.000000 265.326923 h924.000000" /><text class="" x="-5" y="268.8269230769231">600</text></g><g class="guides"><path class="guide line" d="M0.000000 202.153846 h924.000000" /><text class="" x="-5" y="205.65384615384613">700</text></g><g class="guides"><path class="guide line" d="M0.000000 138.980769 h924.000000" /><text class="" x="-5" y="142.48076923076928">800</text></g><g class="guides"><path class="guide line" d="M0.000000 75.807692 h924.000000" /><text class="" x="-5" y="79.30769230769226">900</text></g><g class="guides"><path class="major guide line" d="M0.000000 12.634615 h924.000000" /><text class="major" x="-5" y="16.13461538461536">1000</text></g></g><g class="series serie-0 color-0"><path class="line reactive nofill" d="M17.769231 644.365385 L20.237179 644.365385 22.705128 644.365385 25.173077 644.365385 27.641026 644.365385 30.108974 644.365385 32.576923 644.365385 35.044872 644.365385 37.512821 644.365385 39.980769 644.365385 42.448718 644.365385 44.916667 644.365385 47.384615 644.365385 49.852564 644.365385 52.320513 644.365385 54.788462 644.365385 57.256410 644.365385 59.724359 644.365385 62.192308 644.365385 64.660256 644.365385 67.128205 644.365385 69.596154 644.365385 72.064103 644.365385 74.532051 644.365385 77.000000 644.365385 79.467949 644.365385 81.935897 644.365385 84.403846 644.365385 86.871795 644.365385 89.339744 644.365385 91.807692 644.365385 94.275641 644.365385 96.743590 644.365385 99.211538 644.365385 101.679487 644.365385 104.147436 644.365385 106.615385 644.365385 109.083333 644.365385 111.551282 644.365385 114.019231 644.365385 116.487179 644.365385 118.955128 644.365385 121.423077 644.365385 123.891026 644.365385 126.358974 644.365385 128.826923 644.365385 131.294872 644.365385 133.762821 644.365385 136.230769 644.365385 138.698718 644.365385 141.166667 644.365385 143.634615 644.365385 146.102564 644.365385 148.570513 644.365385 151.038462 644.365385 153.506410 644.365385 155.974359 644.365385 158.442308 644.365385 160.910256 644.365385 163.378205 644.365385 165.846154 644.365385 168.314103 644.365385 170.782051 644.365385 173.250000 644.365385 175.717949 644.365385 178.185897 644.365385 180.653846 644.365385 183.121795 644.365385 185.589744 644.365385 188.057692 644.365385 190.525641 644.365385 192.993590 644.365385 195.461538 644.365385 197.929487 644.365385 200.397436 644.365385 202.865385 644.365385 205.333333 644.365385 207.801282 644.365385 210.269231 644.365385 212.737179 644.365385 215.205128 644.365385 217.673077 644.365385 220.141026 644.365385 222.608974 644.365385 225.076923 644.365385 227.544872 644.365385 230.012821 644.365385 232.480769 644.365385 234.948718 644.365385 237.416667 644.365385 239.884615 644.365385 242.352564 644.365385 244.820513 644.365385 247.288462 644.365385 249.756410 644.365385 252.224359 644.365385 254.692308 644.365385 257.160256 644.365385 259.628205 644.365385 262.096154 644.365385 264.564103 644.365385 267.032051 644.365385 269.500000 644.365385 271.967949 644.365385 274.435897 644.365385 276.903846 644.365385 279.371795 644.365385 281.839744 644.365385 284.307692 644.365385 286.775641 644.365385 289.243590 644.365385 291.711538 644.365385 294.179487 644.365385 296.647436 644.365385 299.115385 644.365385 301.583333 644.365385 304.051282 644.365385 306.519231 644.365385 308.987179 644.365385 311.455128 644.365385 313.923077 644.365385 316.391026 644.365385 318.858974 644.365385 321.326923 644.365385 323.794872 644.365385 326.262821 644.365385 328.730769 644.365385 331.198718 644.365385 333.666667 644.365385 336.134615 644.365385 338.602564 644.365385 341.070513 644.365385 343.538462 644.365385 346.006410 644.365385 348.474359 644.365385 350.942308 644.365385 353.410256 644.365385 355.878205 644.365385 358.346154 644.365385 360.814103 644.365385 363.282051 644.365385 365.750000 644.365385 368.217949 644.365385 370.685897 644.365385 373.153846 644.365385 375.621795 644.365385 378.089744 644.365385 380.557692 644.365385 383.025641 644.365385 385.493590 644.365385 387.961538 644.365385 390.429487 644.365385 392.897436 644.365385 395.365385 644.365385 397.833333 644.365385 400.301282 644.365385 402.769231 644.365385 405.237179 644.365385 407.705128 644.365385 410.173077 644.365385 412.641026 644.365385 415.108974 644.365385 417.576923 644.365385 420.044872 644.365385 422.512821 644.365385 424.980769 644.365385 427.448718 644.365385 429.916667 644.365385 432.384615 644.365385 434.852564 644.365385 437.320513 644.365385 439.788462 644.365385 442.256410 644.365385 444.724359 644.365385 447.192308 644.365385 449.660256 644.365385 452.128205 644.365385 454.596154 644.365385 457.064103 644.365385 459.532051 644.365385 462.000000 644.365385 464.467949 644.365385 466.935897 644.365385 469.403846 644.365385 471.871795 644.365385 474.339744 644.365385 476.807692 644.365385 479.275641 644.365385 481.743590 644.365385 484.211538 644.365385 486.679487 644.365385 489.147436 644.365385 491.615385 644.365385 494.083333 644.365385 496.551282 644.365385 499.019231 644.365385 501.487179 644.365385 503.955128 644.365385 506.423077 644.365385 508.891026 644.365385 511.358974 644.365385 513.826923 644.365385 516.294872 644.365385 518.762821 644.365385 521.230769 644.365385 523.698718 644.365385 526.166667 644.365385 528.634615 644.365385 531.102564 644.365385 533.570513 644.365385 536.038462 644.365385 538.506410 644.365385 540.974359 644.365385 543.442308 644.365385 545.910256 644.365385 548.378205 644.365385 550.846154 644.365385 553.314103 644.365385 555.782051 644.365385 558.250000 644.365385 560.717949 644.365385 563.185897 644.365385 565.653846 644.365385 568.121795 644.365385 570.589744 644.365385 573.057692 644.365385 575.525641 644.365385 577.993590 644.365385 580.461538 644.365385 582.929487 644.365385 585.397436 644.365385 587.865385 644.365385 590.333333 644.365385 592.801282 644.365385 595.269231 644.365385 597.737179 644.365385 600.205128 644.365385 602.673077 644.365385 605.141026 644.365385 607.608974 644.365385 610.076923 644.365385 612.544872 644.365385 615.012821 644.365385 617.480769 644.365385 619.948718 644.365385 622.416667 644.365385 624.884615 644.365385 627.352564 644.365385 629.820513 644.365385 632.288462 644.365385 634.756410 644.365385 637.224359 644.365385 639.692308 644.365385 642.160256 644.365385 644.628205 644.365385 647.096154 644.365385 649.564103 644.365385 652.032051 644.365385 654.500000 644.365385 656.967949 644.365385 659.435897 644.365385 661.903846 644.365385 664.371795 644.365385 666.839744 578.665385 669.307692 -1077.100962 671.775641 -174.357692 674.243590 97.286538 676.711538 302.599038 679.179487 407.466346 681.647436 434.630769 684.115385 452.950962 686.583333 424.523077 689.051282 380.933654 691.519231 377.775000 693.987179 370.825962 696.455128 324.709615 698.923077 341.134615 701.391026 352.505769 703.858974 317.128846 706.326923 365.772115 708.794872 379.670192 711.262821 396.095192 713.730769 404.939423 716.198718 411.256731 718.666667 424.523077 721.134615 452.319231 723.602564 464.953846 726.070513 476.956731 728.538462 508.543269 731.006410 521.809615 733.474359 549.605769 735.942308 569.189423 738.410256 578.033654 740.878205 590.668269 743.346154 590.036538 745.814103 583.087500 748.282051 578.665385 750.750000 569.821154 753.217949 550.237500 755.685897 545.183654 758.153846 532.549038 760.621795 526.863462 763.089744 527.495192 765.557692 517.387500 768.025641 530.653846 770.493590 551.500962 772.961538 520.546154 775.429487 535.075962 777.897436 526.863462 780.365385 545.815385 782.833333 523.704808 785.301282 533.180769 787.769231 548.974038 790.237179 561.608654 792.705128 560.976923 795.173077 634.889423 797.641026 644.365385 800.108974 644.365385 802.576923 644.365385 805.044872 644.365385 807.512821 644.365385 809.980769 644.365385 812.448718 644.365385 814.916667 644.365385 817.384615 644.365385 819.852564 644.365385 822.320513 644.365385 824.788462 644.365385 827.256410 644.365385 829.724359 644.365385 832.192308 644.365385 834.660256 644.365385 837.128205 644.365385 839.596154 644.365385 842.064103 644.365385 844.532051 644.365385 847.000000 644.365385 849.467949 644.365385 851.935897 644.365385 854.403846 644.365385 856.871795 644.365385 859.339744 644.365385 861.807692 644.365385 864.275641 644.365385 866.743590 644.365385 869.211538 644.365385 871.679487 644.365385 874.147436 644.365385 876.615385 644.365385 879.083333 644.365385 881.551282 644.365385 884.019231 644.365385 886.487179 644.365385 888.955128 644.365385 891.423077 644.365385 893.891026 644.365385 896.358974 644.365385 898.826923 644.365385 901.294872 644.365385 903.762821 644.365385 906.230769 644.365385" /></g><g class="series serie-1 color-1"><path class="line reactive nofill" d="M17.769231 -586.246154 L20.237179 193.941346 22.705128 317.128846 25.173077 472.534615 27.641026 517.387500 30.108974 512.333654 32.576923 534.444231 35.044872 536.339423 37.512821 458.636538 39.980769 402.412500 42.448718 378.406731 44.916667 308.916346 47.384615 357.559615 49.852564 396.095192 52.320513 428.313462 54.788462 488.327885 57.256410 483.274038 59.724359 468.744231 62.192308 497.803846 64.660256 507.911538 67.128205 537.602885 69.596154 569.821154 72.064103 564.135577 74.532051 579.928846 77.000000 586.877885 79.467949 600.144231 81.935897 608.356731 84.403846 612.147115 86.871795 622.886538 89.339744 621.623077 91.807692 620.991346 94.275641 623.518269 96.743590 608.988462 99.211538 610.251923 101.679487 604.566346 104.147436 595.090385 106.615385 576.770192 109.083333 571.716346 111.551282 575.506731 114.019231 586.877885 116.487179 579.928846 118.955128 578.033654 121.423077 582.455769 123.891026 589.404808 126.358974 598.249038 128.826923 603.302885 131.294872 597.617308 133.762821 614.674038 136.230769 617.200962 138.698718 612.778846 141.166667 627.308654 143.634615 619.727885 146.102564 634.257692 148.570513 632.994231 151.038462 635.521154 153.506410 629.835577 155.974359 626.676923 158.442308 616.569231 160.910256 617.832692 163.378205 611.515385 165.846154 598.880769 168.314103 608.356731 170.782051 602.671154 173.250000 596.985577 175.717949 600.144231 178.185897 603.934615 180.653846 608.988462 183.121795 605.198077 185.589744 615.937500 188.057692 616.569231 190.525641 620.991346 192.993590 619.727885 195.461538 622.254808 197.929487 618.464423 200.397436 636.152885 202.865385 634.889423 205.333333 634.889423 207.801282 635.521154 210.269231 638.048077 212.737179 635.521154 215.205128 632.994231 217.673077 628.572115 220.141026 626.045192 222.608974 626.676923 225.076923 626.045192 227.544872 612.778846 230.012821 617.832692 232.480769 617.832692 234.948718 615.305769 237.416667 612.778846 239.884615 618.464423 242.352564 619.727885 244.820513 628.572115 247.288462 624.781731 249.756410 626.045192 252.224359 631.099038 254.692308 625.413462 257.160256 627.940385 259.628205 632.362500 262.096154 627.940385 264.564103 639.943269 267.032051 636.152885 269.500000 636.152885 271.967949 639.311538 274.435897 639.943269 276.903846 640.575000 279.371795 636.784615 281.839744 636.152885 284.307692 633.625962 286.775641 635.521154 289.243590 634.889423 291.711538 636.152885 294.179487 634.889423 296.647436 636.152885 299.115385 631.099038 301.583333 629.835577 304.051282 634.257692 306.519231 635.521154 308.987179 634.257692 311.455128 636.152885 313.923077 635.521154 316.391026 635.521154 318.858974 639.943269 321.326923 634.889423 323.794872 639.311538 326.262821 639.943269 328.730769 638.679808 331.198718 636.784615 333.666667 641.206731 336.134615 638.679808 338.602564 636.152885 341.070513 636.152885 343.538462 631.730769 346.006410 629.835577 348.474359 626.676923 350.942308 625.413462 353.410256 629.203846 355.878205 625.413462 358.346154 629.835577 360.814103 629.203846 363.282051 625.413462 365.750000 631.099038 368.217949 626.676923 370.685897 636.784615 373.153846 631.099038 375.621795 633.625962 378.089744 632.994231 380.557692 632.994231 383.025641 634.257692 385.493590 634.889423 387.961538 634.257692 390.429487 632.994231 392.897436 631.099038 395.365385 621.623077 397.833333 615.937500 400.301282 613.410577 402.769231 604.566346 405.237179 599.512500 407.705128 596.353846 410.173077 602.039423 412.641026 606.461538 415.108974 604.566346 417.576923 586.246154 420.044872 605.198077 422.512821 612.147115 424.980769 621.623077 427.448718 620.991346 429.916667 421.364423 432.384615 -2144.725962 434.852564 -787.136538 437.320513 -272.275962 439.788462 28.427885 442.256410 171.830769 444.724359 144.034615 447.192308 155.405769 449.660256 37.272115 452.128205 -185.097115 454.596154 -383.460577 457.064103 -547.078846 459.532051 -823.145192 462.000000 -998.766346 464.467949 -1025.299038 466.935897 -575.506731 469.403846 -452.319231 471.871795 -458.004808 474.339744 -394.831731 476.807692 -320.287500 479.275641 -76.439423 481.743590 -61.909615 484.211538 108.025962 486.679487 168.040385 489.147436 294.386538 491.615385 288.069231 494.083333 384.724038 496.551282 443.475000 499.019231 499.067308 501.487179 530.653846 503.955128 518.019231 506.423077 509.806731 508.891026 492.750000 511.358974 470.007692 513.826923 453.582692 516.294872 365.772115 518.762821 325.973077 521.230769 289.332692 523.698718 232.476923 526.166667 245.743269 528.634615 243.848077 531.102564 279.225000 533.570513 257.746154 536.038462 284.910577 538.506410 300.703846 540.974359 374.616346 543.442308 422.627885 545.910256 427.050000 548.378205 446.001923 550.846154 461.795192 553.314103 506.648077 555.782051 526.863462 558.250000 566.030769 560.717949 567.925962 563.185897 574.243269 565.653846 586.246154 568.121795 563.503846 570.589744 553.396154 573.057692 538.234615 575.525641 503.489423 577.993590 464.953846 580.461538 430.840385 582.929487 416.310577 585.397436 409.993269 587.865385 441.579808 590.333333 455.477885 592.801282 444.738462 595.269231 416.310577 597.737179 443.475000 600.205128 482.010577 602.673077 490.854808 605.141026 511.701923 607.608974 524.968269 610.076923 548.342308 612.544872 542.656731 615.012821 559.713462 617.480769 581.192308 619.948718 605.829808 622.416667 590.668269 624.884615 603.934615 627.352564 598.249038 629.820513 598.880769 632.288462 583.087500 634.756410 568.557692 637.224359 545.815385 639.692308 538.866346 642.160256 505.384615 644.628205 500.962500 647.096154 525.600000 649.564103 527.495192 652.032051 497.803846 654.500000 504.121154 656.967949 524.968269 659.435897 536.971154 661.903846 552.764423 664.371795 562.240385 666.839744 523.704808 669.307692 -36.008654 671.775641 277.329808 674.243590 402.412500 676.711538 463.690385 679.179487 535.707692 681.647436 532.549038 684.115385 549.605769 686.583333 548.974038 689.051282 530.653846 691.519231 541.393269 693.987179 516.124038 696.455128 497.803846 698.923077 510.438462 701.391026 515.492308 703.858974 488.959615 706.326923 500.962500 708.794872 503.489423 711.262821 494.645192 713.730769 518.650962 716.198718 511.701923 718.666667 510.438462 721.134615 519.282692 723.602564 535.707692 726.070513 552.132692 728.538462 564.135577 731.006410 560.976923 733.474359 578.033654 735.942308 593.195192 738.410256 600.775962 740.878205 598.249038 743.346154 605.198077 745.814103 597.617308 748.282051 596.353846 750.750000 591.931731 753.217949 590.036538 755.685897 571.716346 758.153846 559.713462 760.621795 564.767308 763.089744 567.294231 765.557692 560.345192 768.025641 562.240385 770.493590 572.348077 772.961538 564.135577 775.429487 564.135577 777.897436 570.452885 780.365385 579.928846 782.833333 562.872115 785.301282 568.557692 787.769231 576.770192 790.237179 587.509615 792.705128 586.246154 795.173077 638.048077 797.641026 644.365385 800.108974 644.365385 802.576923 644.365385 805.044872 644.365385 807.512821 644.365385 809.980769 644.365385 812.448718 644.365385 814.916667 644.365385 817.384615 644.365385 819.852564 644.365385 822.320513 644.365385 824.788462 644.365385 827.256410 644.365385 829.724359 644.365385 832.192308 644.365385 834.660256 644.365385 837.128205 644.365385 839.596154 644.365385 842.064103 644.365385 844.532051 644.365385 847.000000 644.365385 849.467949 644.365385 851.935897 644.365385 854.403846 644.365385 856.871795 644.365385 859.339744 644.365385 861.807692 644.365385 864.275641 644.365385 866.743590 644.365385 869.211538 644.365385 871.679487 644.365385 874.147436 644.365385 876.615385 644.365385 879.083333 644.365385 881.551282 644.365385 884.019231 644.365385 886.487179 644.365385 888.955128 644.365385 891.423077 644.365385 893.891026 644.365385 896.358974 644.365385 898.826923 644.365385 901.294872 644.365385 903.762821 644.365385 906.230769 644.365385" /></g></g><g class="titles"><text class="title plot_title" x="512.0" y="26">Election stackoverflow.com-10 Participation Per Hour</text><text class="title" transform="rotate(-90 0.000000 374.500000)" x="0" y="400.5">Users</text></g><g class="plot overlay" transform="translate(80, 46)"><g class="series serie-0 color-0" /><g class="series serie-1 color-1" /></g><g class="plot text-overlay" transform="translate(80, 46)"><g class="series serie-0 color-0" /><g class="series serie-1 color-1" /></g><g class="plot tooltip-overlay" transform="translate(80, 46)"><g class="tooltip" style="opacity: 0" transform="translate(0 0)"><a><rect class="tooltip-box" height="0" rx="0" ry="0" width="0" /><text class="text"><tspan class="label" /><tspan class="value" /></text></a></g></g><g class="legends" transform="translate(90, 713)"><g class="legend reactive activate-serie" id="activate-serie-0"><rect class="color-0 reactive" height="12" width="12" x="0.0" y="1.0" /><text x="17.0" y="11.2">constituents</text></g><g class="legend reactive activate-serie" id="activate-serie-1"><rect class="color-1 reactive" height="12" width="12" x="462.0" y="1.0" /><text x="479.0" y="11.2">caucus</text></g></g></g></svg>