<?xml version='1.0' encoding='utf-8'?>
<svg xmlns:xlink="http://www.w3.org/1999/xlink" class="pygal-chart" id="chart-f54c4a2b-ef39-42b2-98ed-228db523549b" viewBox="0 0 1024 768" xmlns="http://www.w3.org/2000/svg"><!--Generated with pygal 1.7.0 (etree) ©Kozea 2011-2014 on 2015-11-20--><!--http://pygal.org--><!--http://github.com/Kozea/pygal--><defs><style type="text/css">#chart-f54c4a2b-ef39-42b2-98ed-228db523549b .title{font-family:"monospace";font-size:16px}#chart-f54c4a2b-ef39-42b2-98ed-228db523549b .legends .legend text{font-family:"monospace";font-size:14px}#chart-f54c4a2b-ef39-42b2-98ed-228db523549b .axis text{font-family:"monospace";font-size:10px}#chart-f54c4a2b-ef39-42b2-98ed-228db523549b .axis text.major{font-family:"monospace";font-size:10px}#chart-f54c4a2b-ef39-42b2-98ed-228db523549b .series text{font-family:"monospace";font-size:8px}#chart-f54c4a2b-ef39-42b2-98ed-228db523549b .tooltip text{font-family:"monospace";font-size:16px}#chart-f54c4a2b-ef39-42b2-98ed-228db523549b text.no_data{font-size:64px}
#chart-f54c4a2b-ef39-42b2-98ed-228db523549b{background-color:black}#chart-f54c4a2b-ef39-42b2-98ed-228db523549b path,#chart-f54c4a2b-ef39-42b2-98ed-228db523549b line,#chart-f54c4a2b-ef39-42b2-98ed-228db523549b rect,#chart-f54c4a2b-ef39-42b2-98ed-228db523549b circle{-webkit-transition:250ms;-moz-transition:250ms;transition:250ms}#chart-f54c4a2b-ef39-42b2-98ed-228db523549b .graph &gt; .background{fill:black}#chart-f54c4a2b-ef39-42b2-98ed-228db523549b .plot &gt; .background{fill:#111}#chart-f54c4a2b-ef39-42b2-98ed-228db523549b .graph{fill:#999}#chart-f54c4a2b-ef39-42b2-98ed-228db523549b text.no_data{fill:#eee}#chart-f54c4a2b-ef39-42b2-98ed-228db523549b .title{fill:#eee}#chart-f54c4a2b-ef39-42b2-98ed-228db523549b .legends .legend text{fill:#999}#chart-f54c4a2b-ef39-42b2-98ed-228db523549b .legends .legend:hover text{fill:#eee}#chart-f54c4a2b-ef39-42b2-98ed-228db523549b .axis .line{stroke:#eee}#chart-f54c4a2b-ef39-42b2-98ed-228db523549b .axis .guide.line{stroke:#555}#chart-f54c4a2b-ef39-42b2-98ed-228db523549b .axis .major.line{stroke:#999}#chart-f54c4a2b-ef39-42b2-98ed-228db523549b .axis text.major{stroke:#eee;fill:#eee}#chart-f54c4a2b-ef39-42b2-98ed-228db523549b .axis.y .guides:hover .guide.line,#chart-f54c4a2b-ef39-42b2-98ed-228db523549b .line-graph .axis.x .guides:hover .guide.line,#chart-f54c4a2b-ef39-42b2-98ed-228db523549b .stackedline-graph .axis.x .guides:hover .guide.line,#chart-f54c4a2b-ef39-42b2-98ed-228db523549b .xy-graph .axis.x .guides:hover .guide.line{stroke:#eee}#chart-f54c4a2b-ef39-42b2-98ed-228db523549b .axis .guides:hover text{fill:#eee}#chart-f54c4a2b-ef39-42b2-98ed-228db523549b .reactive{fill-opacity:.8}#chart-f54c4a2b-ef39-42b2-98ed-228db523549b .reactive.active,#chart-f54c4a2b-ef39-42b2-98ed-228db523549b .active .reactive{fill-opacity:.4}#chart-f54c4a2b-ef39-42b2-98ed-228db523549b .series{stroke-width:1.0;stroke-linejoin:round;stroke-linecap:round;stroke-dasharray:0,0}#chart-f54c4a2b-ef39-42b2-98ed-228db523549b .series text{fill:#eee}#chart-f54c4a2b-ef39-42b2-98ed-228db523549b .tooltip rect{fill:#111;stroke:#eee}#chart-f54c4a2b-ef39-42b2-98ed-228db523549b .tooltip text{fill:#eee}#chart-f54c4a2b-ef39-42b2-98ed-228db523549b .map-element{fill:#999;stroke:#555 !important;opacity:.9;stroke-width:3;-webkit-transition:250ms;-moz-transition:250ms;-o-transition:250ms;transition:250ms}#chart-f54c4a2b-ef39-42b2-98ed-228db523549b .map-element:hover{opacity:1;stroke-width:10}#chart-f54c4a2b-ef39-42b2-98ed-228db523549b .color-0,#chart-f54c4a2b-ef39-42b2-98ed-228db523549b .color-0 a:visited{stroke:#ff5995;fill:#ff5995}#chart-f54c4a2b-ef39-42b2-98ed-228db523549b .color-1,#chart-f54c4a2b-ef39-42b2-98ed-228db523549b .color-1 a:visited{stroke:#b6e354;fill:#b6e354}#chart-f54c4a2b-ef39-42b2-98ed-228db523549b .color-2,#chart-f54c4a2b-ef39-42b2-98ed-228db523549b .color-2 a:visited{stroke:#feed6c;fill:#feed6c}#chart-f54c4a2b-ef39-42b2-98ed-228db523549b .color-3,#chart-f54c4a2b-ef39-42b2-98ed-228db523549b .color-3 a:visited{stroke:#8cedff;fill:#8cedff}#chart-f54c4a2b-ef39-42b2-98ed-228db523549b .color-4,#chart-f54c4a2b-ef39-42b2-98ed-228db523549b .color-4 a:visited{stroke:#9e6ffe;fill:#9e6ffe}#chart-f54c4a2b-ef39-42b2-98ed-228db523549b .color-5,#chart-f54c4a2b-ef39-42b2-98ed-228db523549b .color-5 a:visited{stroke:#899ca1;fill:#899ca1}#chart-f54c4a2b-ef39-42b2-98ed-228db523549b .color-6,#chart-f54c4a2b-ef39-42b2-98ed-228db523549b .color-6 a:visited{stroke:#f8f8f2;fill:#f8f8f2}#chart-f54c4a2b-ef39-42b2-98ed-228db523549b .color-7,#chart-f54c4a2b-ef39-42b2-98ed-228db523549b .color-7 a:visited{stroke:#bf4646;fill:#bf4646}#chart-f54c4a2b-ef39-42b2-98ed-228db523549b .color-8,#chart-f54c4a2b-ef39-42b2-98ed-228db523549b .color-8 a:visited{stroke:#516083;fill:#516083}#chart-f54c4a2b-ef39-42b2-98ed-228db523549b .color-9,#chart-f54c4a2b-ef39-42b2-98ed-228db523549b .color-9 a:visited{stroke:#f92672;fill:#f92672}#chart-f54c4a2b-ef39-42b2-98ed-228db523549b .color-10,#chart-f54c4a2b-ef39-42b2-98ed-228db523549b .color-10 a:visited{stroke:#82b414;fill:#82b414}#chart-f54c4a2b-ef39-42b2-98ed-228db523549b .color-11,#chart-f54c4a2b-ef39-42b2-98ed-228db523549b .color-11 a:visited{stroke:#fd971f;fill:#fd971f}#chart-f54c4a2b-ef39-42b2-98ed-228db523549b .color-12,#chart-f54c4a2b-ef39-42b2-98ed-228db523549b .color-12 a:visited{stroke:#56c2d6;fill:#56c2d6}#chart-f54c4a2b-ef39-42b2-98ed-228db523549b .color-13,#chart-f54c4a2b-ef39-42b2-98ed-228db523549b .color-13 a:visited{stroke:#808384;fill:#808384}#chart-f54c4a2b-ef39-42b2-98ed-228db523549b .color-14,#chart-f54c4a2b-ef39-42b2-98ed-228db523549b .color-14 a:visited{stroke:#8c54fe;fill:#8c54fe}#chart-f54c4a2b-ef39-42b2-98ed-228db523549b .color-15,#chart-f54c4a2b-ef39-42b2-98ed-228db523549b .color-15 a:visited{stroke:#465457;fill:#465457}
#chart-f54c4a2b-ef39-42b2-98ed-228db523549b text.no_data{text-anchor:middle}#chart-f54c4a2b-ef39-42b2-98ed-228db523549b .guide.line{fill-opacity:0}#chart-f54c4a2b-ef39-42b2-98ed-228db523549b .centered{text-anchor:middle}#chart-f54c4a2b-ef39-42b2-98ed-228db523549b .title{text-anchor:middle}#chart-f54c4a2b-ef39-42b2-98ed-228db523549b .legends .legend text{fill-opacity:1}#chart-f54c4a2b-ef39-42b2-98ed-228db523549b .axis.x text{text-anchor:middle}#chart-f54c4a2b-ef39-42b2-98ed-228db523549b .axis.x:not(.web) text[transform]{text-anchor:start}#chart-f54c4a2b-ef39-42b2-98ed-228db523549b .axis.y text{text-anchor:end}#chart-f54c4a2b-ef39-42b2-98ed-228db523549b .axis.y2 text{text-anchor:start}#chart-f54c4a2b-ef39-42b2-98ed-228db523549b .axis.y .logarithmic text:not(.major),#chart-f54c4a2b-ef39-42b2-98ed-228db523549b .axis.y2 .logarithmic text:not(.major){font-size:50%}#chart-f54c4a2b-ef39-42b2-98ed-228db523549b .axis .guide.line{stroke-dasharray:4,4}#chart-f54c4a2b-ef39-42b2-98ed-228db523549b .axis .major.guide.line{stroke-dasharray:6,6}#chart-f54c4a2b-ef39-42b2-98ed-228db523549b .axis text.major{stroke-width:0.5px}#chart-f54c4a2b-ef39-42b2-98ed-228db523549b .horizontal .axis.y .guide.line,#chart-f54c4a2b-ef39-42b2-98ed-228db523549b .horizontal .axis.y2 .guide.line,#chart-f54c4a2b-ef39-42b2-98ed-228db523549b .vertical .axis.x .guide.line{opacity:0}#chart-f54c4a2b-ef39-42b2-98ed-228db523549b .horizontal .axis.always_show .guide.line,#chart-f54c4a2b-ef39-42b2-98ed-228db523549b .vertical .axis.always_show .guide.line{opacity:1 !important}#chart-f54c4a2b-ef39-42b2-98ed-228db523549b .axis.y .guides:hover .guide.line,#chart-f54c4a2b-ef39-42b2-98ed-228db523549b .axis.y2 .guides:hover .guide.line,#chart-f54c4a2b-ef39-42b2-98ed-228db523549b .axis.x .guides:hover .guide.line{opacity:1}#chart-f54c4a2b-ef39-42b2-98ed-228db523549b .axis .guides:hover text{opacity:1}#chart-f54c4a2b-ef39-42b2-98ed-228db523549b .nofill{fill:none}#chart-f54c4a2b-ef39-42b2-98ed-228db523549b .subtle-fill{fill-opacity:.2}#chart-f54c4a2b-ef39-42b2-98ed-228db523549b .dot{stroke-width:1px;fill-opacity:1}#chart-f54c4a2b-ef39-42b2-98ed-228db523549b .dot.active{stroke-width:5px}#chart-f54c4a2b-ef39-42b2-98ed-228db523549b .series text{stroke:none}#chart-f54c4a2b-ef39-42b2-98ed-228db523549b .series text.active{opacity:1}#chart-f54c4a2b-ef39-42b2-98ed-228db523549b .tooltip rect{fill-opacity:0.8}#chart-f54c4a2b-ef39-42b2-98ed-228db523549b .tooltip text{fill-opacity:1}#chart-f54c4a2b-ef39-42b2-98ed-228db523549b .tooltip text tspan.label{fill-opacity:.8}</style><script type="text/javascript">window.config = {"legend_font_size": 14, "tooltip_font_size": 16, "tooltip_border_radius": 0, "no_data_font_size": 64, "style": {"foreground_dark": "#555", "colors": ["#ff5995", "#b6e354", "#feed6c", "#8cedff", "#9e6ffe", "#899ca1", "#f8f8f2", "#bf4646", "#516083", "#f92672", "#82b414", "#fd971f", "#56c2d6", "#808384", "#8c54fe", "#465457"], "stroke_width": 1.0, "stroke_dasharray": "0,0", "foreground_light": "#eee", "opacity_hover": ".4", "font_family": "monospace", "stroke_style": "round", "transition": "250ms", "foreground": "#999", "opacity": ".8", "background": "black", "plot_background": "#111"}, "order_min": null, "x_label_rotation": 0, "logarithmic": false, "show_x_labels": true, "x_title": null, "x_label_format": "%Y-%m-%d %H:%M:%S.%f", "show_y_guides": true, "margin_bottom": null, "title": "Election 7 Participation", "fill": false, "pretty_print": false, "height": 768, "major_label_font_size": 10, "y_labels_major": null, "margin": 20, "width": 1024, "title_font_size": 16, "inner_radius": 0, "show_dots": false, "x_labels": null, "range": null, "js": ["http://kozea.github.io/pygal.js/javascripts/svg.jquery.js", "http://kozea.github.io/pygal.js/javascripts/pygal-tooltips.js"], "missing_value_fill_truncation": "x", "interpolation_precision": 250, "y_title": "Users", "half_pie": false, "spacing": 10, "y_labels": null, "show_minor_x_labels": true, "css": ["style.css", "graph.css"], "stroke": true, "show_legend": true, "y_labels_major_every": null, "no_prefix": false, "y_label_rotation": 0, "zero": 0, "print_values": false, "show_x_guides": false, "human_readable": false, "value_font_size": 8, "strict": false, "rounded_bars": null, "label_font_size": 10, "no_data_text": "No data", "print_zeroes": false, "legend_box_size": 12, "margin_right": null, "dots_size": 2.5, "x_labels_major": null, "legend_at_bottom_columns": null, "truncate_label": null, "stack_from_top": false, "x_labels_major_every": null, "interpolation_parameters": {}, "show_minor_y_labels": true, "x_labels_major_count": null, "y_labels_major_count": null, "truncate_legend": null, "legend_at_bottom": true, "show_only_major_dots": false, "margin_left": null, "xrange": null, "explicit_size": false, "interpolate": null, "x_value_formatter": null, "mode": null, "disable_xml_declaration": false, "margin_top": null, "include_x_axis": false, "show_y_labels": true}</script><script type="text/javascript" xlink:href="http://kozea.github.io/pygal.js/javascripts/svg.jquery.js" /><script type="text/javascript" xlink:href="http://kozea.github.io/pygal.js/javascripts/pygal-tooltips.js" /></defs><title>Election 7 Participation</title><g class="graph line-graph vertical"><rect class="background" height="768" width="1024" x="0" y="0" /><g class="plot" transform="translate(86, 46)"><rect class="background" height="657.0" width="918.0" x="0" y="0" /><g class="axis y"><g class="guides"><path class="axis major line" d="M0.000000 644.365385 h918.000000" /><text class="major" x="-5" y="647.8653846153846">0</text></g><g class="guides"><path class="guide line" d="M0.000000 549.940505 h918.000000" /><text class="" x="-5" y="553.4405054274903">10000</text></g><g class="guides"><path class="guide line" d="M0.000000 455.515626 h918.000000" /><text class="" x="-5" y="459.015626239596">20000</text></g><g class="guides"><path class="guide line" d="M0.000000 361.090747 h918.000000" /><text class="" x="-5" y="364.59074705170167">30000</text></g><g class="guides"><path class="guide line" d="M0.000000 266.665868 h918.000000" /><text class="" x="-5" y="270.1658678638074">40000</text></g><g class="guides"><path class="major guide line" d="M0.000000 172.240989 h918.000000" /><text class="major" x="-5" y="175.74098867591306">50000</text></g><g class="guides"><path class="guide line" d="M0.000000 77.816109 h918.000000" /><text class="" x="-5" y="81.31610948801881">60000</text></g></g><g class="series serie-0 color-0"><path class="line reactive nofill" d="M17.653846 644.365385 L20.105769 644.365385 22.557692 644.365385 25.009615 644.365385 27.461538 644.365385 29.913462 644.365385 32.365385 644.365385 34.817308 644.365385 37.269231 644.365385 39.721154 644.365385 42.173077 644.365385 44.625000 644.365385 47.076923 644.365385 49.528846 644.365385 51.980769 644.365385 54.432692 644.365385 56.884615 644.365385 59.336538 644.365385 61.788462 644.365385 64.240385 644.365385 66.692308 644.365385 69.144231 644.365385 71.596154 644.365385 74.048077 644.365385 76.500000 644.365385 78.951923 644.365385 81.403846 644.365385 83.855769 644.365385 86.307692 644.365385 88.759615 644.365385 91.211538 644.365385 93.663462 644.365385 96.115385 644.365385 98.567308 644.365385 101.019231 644.365385 103.471154 644.365385 105.923077 644.365385 108.375000 644.365385 110.826923 644.365385 113.278846 644.365385 115.730769 644.365385 118.182692 644.365385 120.634615 644.365385 123.086538 644.365385 125.538462 644.365385 127.990385 644.365385 130.442308 644.365385 132.894231 644.365385 135.346154 644.365385 137.798077 644.365385 140.250000 644.365385 142.701923 644.365385 145.153846 644.365385 147.605769 644.365385 150.057692 644.365385 152.509615 644.365385 154.961538 644.365385 157.413462 644.365385 159.865385 644.365385 162.317308 644.365385 164.769231 644.365385 167.221154 644.365385 169.673077 644.365385 172.125000 644.365385 174.576923 644.365385 177.028846 644.365385 179.480769 644.365385 181.932692 644.365385 184.384615 644.365385 186.836538 644.365385 189.288462 644.365385 191.740385 644.365385 194.192308 644.365385 196.644231 644.365385 199.096154 644.365385 201.548077 644.365385 204.000000 644.365385 206.451923 644.365385 208.903846 644.365385 211.355769 644.365385 213.807692 644.365385 216.259615 644.365385 218.711538 644.365385 221.163462 644.365385 223.615385 644.365385 226.067308 644.365385 228.519231 644.365385 230.971154 644.365385 233.423077 644.365385 235.875000 644.365385 238.326923 644.365385 240.778846 644.365385 243.230769 644.365385 245.682692 644.365385 248.134615 644.365385 250.586538 644.365385 253.038462 644.365385 255.490385 644.365385 257.942308 644.365385 260.394231 644.365385 262.846154 644.365385 265.298077 644.365385 267.750000 644.365385 270.201923 644.365385 272.653846 644.365385 275.105769 644.365385 277.557692 644.365385 280.009615 644.365385 282.461538 644.365385 284.913462 644.365385 287.365385 644.365385 289.817308 644.365385 292.269231 644.365385 294.721154 644.365385 297.173077 644.365385 299.625000 644.365385 302.076923 644.365385 304.528846 644.365385 306.980769 644.365385 309.432692 644.365385 311.884615 644.365385 314.336538 644.365385 316.788462 644.365385 319.240385 644.365385 321.692308 644.365385 324.144231 644.365385 326.596154 644.365385 329.048077 644.365385 331.500000 644.365385 333.951923 644.365385 336.403846 644.365385 338.855769 644.365385 341.307692 644.365385 343.759615 644.365385 346.211538 644.365385 348.663462 644.365385 351.115385 644.365385 353.567308 644.365385 356.019231 644.365385 358.471154 644.365385 360.923077 644.365385 363.375000 644.365385 365.826923 644.365385 368.278846 644.365385 370.730769 644.365385 373.182692 644.365385 375.634615 644.365385 378.086538 644.365385 380.538462 644.365385 382.990385 644.365385 385.442308 644.365385 387.894231 644.365385 390.346154 644.365385 392.798077 644.365385 395.250000 644.365385 397.701923 644.365385 400.153846 644.365385 402.605769 644.365385 405.057692 644.365385 407.509615 644.365385 409.961538 644.365385 412.413462 644.365385 414.865385 644.365385 417.317308 644.365385 419.769231 644.365385 422.221154 644.365385 424.673077 644.365385 427.125000 644.365385 429.576923 644.365385 432.028846 644.365385 434.480769 644.365385 436.932692 644.365385 439.384615 644.365385 441.836538 644.365385 444.288462 644.365385 446.740385 644.365385 449.192308 644.365385 451.644231 644.365385 454.096154 644.365385 456.548077 644.365385 459.000000 644.365385 461.451923 644.365385 463.903846 644.365385 466.355769 644.365385 468.807692 644.365385 471.259615 644.365385 473.711538 644.365385 476.163462 644.365385 478.615385 644.365385 481.067308 644.365385 483.519231 644.365385 485.971154 644.365385 488.423077 644.365385 490.875000 644.365385 493.326923 644.365385 495.778846 644.365385 498.230769 644.365385 500.682692 644.365385 503.134615 644.365385 505.586538 644.365385 508.038462 644.365385 510.490385 644.365385 512.942308 644.365385 515.394231 644.365385 517.846154 644.365385 520.298077 644.365385 522.750000 644.365385 525.201923 644.365385 527.653846 644.365385 530.105769 644.365385 532.557692 644.365385 535.009615 644.365385 537.461538 644.365385 539.913462 644.365385 542.365385 644.365385 544.817308 644.365385 547.269231 644.365385 549.721154 644.365385 552.173077 644.365385 554.625000 644.365385 557.076923 644.365385 559.528846 644.365385 561.980769 644.365385 564.432692 644.365385 566.884615 644.365385 569.336538 644.365385 571.788462 644.365385 574.240385 644.365385 576.692308 644.365385 579.144231 644.365385 581.596154 644.365385 584.048077 644.365385 586.500000 644.365385 588.951923 644.365385 591.403846 644.365385 593.855769 644.365385 596.307692 644.365385 598.759615 644.365385 601.211538 644.365385 603.663462 644.365385 606.115385 644.365385 608.567308 644.365385 611.019231 644.365385 613.471154 644.365385 615.923077 644.365385 618.375000 644.365385 620.826923 644.365385 623.278846 644.365385 625.730769 644.365385 628.182692 644.365385 630.634615 644.365385 633.086538 644.365385 635.538462 644.365385 637.990385 644.365385 640.442308 644.365385 642.894231 644.365385 645.346154 644.365385 647.798077 644.365385 650.250000 644.365385 652.701923 644.365385 655.153846 644.365385 657.605769 644.365385 660.057692 644.365385 662.509615 644.365385 664.961538 616.387293 667.413462 600.882728 669.865385 592.299506 672.317308 586.567916 674.769231 582.857018 677.221154 579.627687 679.673077 577.078216 682.125000 575.812922 684.576923 575.812922 687.028846 575.812922 689.480769 575.812922 691.932692 575.812922 694.384615 575.812922 696.836538 575.812922 699.288462 575.812922 701.740385 575.812922 704.192308 575.812922 706.644231 575.812922 709.096154 575.812922 711.548077 575.812922 714.000000 575.812922 716.451923 575.812922 718.903846 575.812922 721.355769 575.812922 723.807692 575.812922 726.259615 575.812922 728.711538 575.812922 731.163462 575.812922 733.615385 575.812922 736.067308 575.812922 738.519231 575.812922 740.971154 575.812922 743.423077 575.812922 745.875000 575.812922 748.326923 575.812922 750.778846 575.812922 753.230769 575.812922 755.682692 575.812922 758.134615 575.812922 760.586538 575.812922 763.038462 575.812922 765.490385 575.812922 767.942308 575.812922 770.394231 575.812922 772.846154 575.812922 775.298077 575.812922 777.750000 575.812922 780.201923 575.812922 782.653846 575.812922 785.105769 575.812922 787.557692 575.812922 790.009615 575.812922 792.461538 575.812922 794.913462 575.812922 797.365385 575.812922 799.817308 575.812922 802.269231 575.812922 804.721154 575.812922 807.173077 575.812922 809.625000 575.812922 812.076923 575.812922 814.528846 575.812922 816.980769 575.812922 819.432692 575.812922 821.884615 575.812922 824.336538 575.812922 826.788462 575.812922 829.240385 575.812922 831.692308 575.812922 834.144231 575.812922 836.596154 575.812922 839.048077 575.812922 841.500000 575.812922 843.951923 575.812922 846.403846 575.812922 848.855769 575.812922 851.307692 575.812922 853.759615 575.812922 856.211538 575.812922 858.663462 575.812922 861.115385 575.812922 863.567308 575.812922 866.019231 575.812922 868.471154 575.812922 870.923077 575.812922 873.375000 575.812922 875.826923 575.812922 878.278846 575.812922 880.730769 575.812922 883.182692 575.812922 885.634615 575.812922 888.086538 575.812922 890.538462 575.812922 892.990385 575.812922 895.442308 575.812922 897.894231 575.812922 900.346154 575.812922" /></g><g class="series serie-1 color-1"><path class="line reactive nofill" d="M17.653846 625.102709 L20.105769 616.321195 22.557692 611.278907 25.009615 608.332851 27.461538 606.104424 29.913462 604.244253 32.365385 602.629588 34.817308 600.580568 37.269231 598.862035 39.721154 596.237024 42.173077 593.102118 44.625000 589.674495 47.076923 585.227083 49.528846 580.543609 51.980769 577.285950 54.432692 575.114178 56.884615 572.980176 59.336538 570.846174 61.788462 568.485552 64.240385 566.427089 66.692308 564.566919 69.144231 563.282741 71.596154 562.177970 74.048077 561.044871 76.500000 559.949543 78.951923 559.043064 81.403846 558.155470 83.855769 557.711673 86.307692 557.315088 88.759615 556.890177 91.211538 556.512477 93.663462 556.059238 96.115385 555.653211 98.567308 555.133874 101.019231 554.652307 103.471154 553.944120 105.923077 552.962102 108.375000 552.046180 110.826923 551.300224 113.278846 550.658135 115.730769 549.742213 118.182692 548.845177 120.634615 548.136990 123.086538 547.221069 125.538462 546.616750 127.990385 545.880236 130.442308 545.332571 132.894231 544.794350 135.346154 544.171145 137.798077 543.576269 140.250000 543.056932 142.701923 542.754772 145.153846 542.528152 147.605769 542.310975 150.057692 542.103240 152.509615 541.867178 154.961538 541.659444 157.413462 541.328956 159.865385 540.847390 162.317308 540.422478 164.769231 539.865371 167.221154 539.091087 169.673077 538.515095 172.125000 537.873006 174.576923 537.202589 177.028846 536.522730 179.480769 535.890083 181.932692 535.314092 184.384615 534.709772 186.836538 534.171551 189.288462 533.756081 191.740385 533.265072 194.192308 532.830717 196.644231 532.443575 199.096154 532.009221 201.548077 531.697619 204.000000 531.461557 206.451923 531.263264 208.903846 531.093300 211.355769 530.951662 213.807692 530.819467 216.259615 530.555078 218.711538 530.347343 221.163462 530.073511 223.615385 529.865776 226.067308 529.270899 228.519231 528.827102 230.971154 528.402190 233.423077 527.986721 235.875000 527.495712 238.326923 527.033030 240.778846 526.655330 243.230769 526.249303 245.682692 525.862161 248.134615 525.522232 250.586538 525.163417 253.038462 524.927355 255.490385 524.644080 257.942308 524.502443 260.394231 524.351363 262.846154 524.219168 265.298077 524.124743 267.750000 523.973664 270.201923 523.935894 272.653846 523.879239 275.105769 523.794256 277.557692 523.652619 280.009615 523.463769 282.461538 523.322132 284.913462 523.208822 287.365385 523.010530 289.817308 522.850008 292.269231 522.774468 294.721154 522.623388 297.173077 522.453423 299.625000 522.330671 302.076923 522.141821 304.528846 521.934086 306.980769 521.830219 309.432692 521.716909 311.884615 521.509174 314.336538 521.376979 316.788462 521.207015 319.240385 521.037050 321.692308 520.942625 324.144231 520.819873 326.596154 520.687678 329.048077 520.621580 331.500000 520.555483 333.951923 520.404403 336.403846 520.262766 338.855769 520.168341 341.307692 519.941721 343.759615 519.771757 346.211538 519.620677 348.663462 519.460154 351.115385 519.280747 353.567308 519.101340 356.019231 518.836950 358.471154 518.723640 360.923077 518.553676 363.375000 518.317613 365.826923 518.006011 368.278846 517.807719 370.730769 517.618869 373.182692 517.382807 375.634615 517.231727 378.086538 517.061762 380.538462 516.995665 382.990385 516.882355 385.442308 516.731275 387.894231 516.570753 390.346154 516.164726 392.798077 515.673717 395.250000 515.192150 397.701923 514.587831 400.153846 514.049609 402.605769 513.388635 405.057692 512.661563 407.509615 512.057244 409.961538 511.547350 412.413462 510.961915 414.865385 510.253729 417.317308 509.772162 419.769231 509.262267 422.221154 508.988435 424.673077 508.582408 427.125000 508.053629 429.576923 463.796688 432.028846 438.216988 434.480769 423.005140 436.932692 410.163357 439.384615 402.599924 441.836538 395.093146 444.288462 388.795007 446.740385 380.617812 449.192308 369.182959 451.644231 356.312848 454.096154 342.375736 456.548077 324.255602 459.000000 302.339587 461.451923 280.291378 463.903846 261.793544 466.355769 249.584407 468.807692 236.988128 471.259615 225.694913 473.711538 214.307272 476.163462 205.166944 478.615385 195.110694 481.067308 188.406528 483.519231 182.816575 485.971154 177.717632 488.423077 172.968060 490.875000 168.737826 493.326923 165.565150 495.778846 162.977908 498.230769 161.467110 500.682692 159.852445 503.134615 158.379416 505.586538 156.613671 508.038462 154.545766 510.490385 152.298454 512.942308 149.163548 515.394231 145.783138 517.846154 141.940045 520.298077 136.737234 522.750000 132.327592 525.201923 128.777217 527.653846 124.443115 530.105769 120.307305 532.557692 116.568080 535.009615 113.017704 537.461538 109.807259 539.913462 107.276672 542.365385 104.934935 544.817308 102.933127 547.269231 100.600833 549.721154 98.665123 552.173077 97.088227 554.625000 96.058996 557.076923 95.180845 559.528846 94.349906 561.980769 93.773914 564.432692 92.971303 566.884615 92.017611 569.336538 90.657893 571.788462 89.354830 574.240385 87.551315 576.692308 85.502295 579.144231 83.236098 581.596154 80.488334 584.048077 78.562066 586.500000 76.144789 588.951923 73.878592 591.403846 71.546298 593.855769 69.563375 596.307692 68.345294 598.759615 66.201849 601.211538 64.889344 603.663462 63.454085 606.115385 62.198234 608.567308 60.932941 611.019231 59.799843 613.471154 59.016116 615.923077 58.525107 618.375000 58.062425 620.826923 57.571415 623.278846 56.985981 625.730769 56.362777 628.182692 55.758458 630.634615 54.880306 633.086538 53.813305 635.538462 52.793517 637.990385 51.547108 640.442308 50.036310 642.894231 48.619937 645.346154 47.590706 647.798077 46.438722 650.250000 44.984579 652.701923 44.049773 655.153846 42.926117 657.605769 42.066850 660.057692 41.273681 662.509615 40.508840 664.961538 30.188200 667.413462 24.031698 669.865385 20.179163 672.317308 17.573037 674.769231 15.986699 677.221154 14.485343 679.673077 13.305032 682.125000 12.634615 684.576923 12.634615 687.028846 12.634615 689.480769 12.634615 691.932692 12.634615 694.384615 12.634615 696.836538 12.634615 699.288462 12.634615 701.740385 12.634615 704.192308 12.634615 706.644231 12.634615 709.096154 12.634615 711.548077 12.634615 714.000000 12.634615 716.451923 12.634615 718.903846 12.634615 721.355769 12.634615 723.807692 12.634615 726.259615 12.634615 728.711538 12.634615 731.163462 12.634615 733.615385 12.634615 736.067308 12.634615 738.519231 12.634615 740.971154 12.634615 743.423077 12.634615 745.875000 12.634615 748.326923 12.634615 750.778846 12.634615 753.230769 12.634615 755.682692 12.634615 758.134615 12.634615 760.586538 12.634615 763.038462 12.634615 765.490385 12.634615 767.942308 12.634615 770.394231 12.634615 772.846154 12.634615 775.298077 12.634615 777.750000 12.634615 780.201923 12.634615 782.653846 12.634615 785.105769 12.634615 787.557692 12.634615 790.009615 12.634615 792.461538 12.634615 794.913462 12.634615 797.365385 12.634615 799.817308 12.634615 802.269231 12.634615 804.721154 12.634615 807.173077 12.634615 809.625000 12.634615 812.076923 12.634615 814.528846 12.634615 816.980769 12.634615 819.432692 12.634615 821.884615 12.634615 824.336538 12.634615 826.788462 12.634615 829.240385 12.634615 831.692308 12.634615 834.144231 12.634615 836.596154 12.634615 839.048077 12.634615 841.500000 12.634615 843.951923 12.634615 846.403846 12.634615 848.855769 12.634615 851.307692 12.634615 853.759615 12.634615 856.211538 12.634615 858.663462 12.634615 861.115385 12.634615 863.567308 12.634615 866.019231 12.634615 868.471154 12.634615 870.923077 12.634615 873.375000 12.634615 875.826923 12.634615 878.278846 12.634615 880.730769 12.634615 883.182692 12.634615 885.634615 12.634615 888.086538 12.634615 890.538462 12.634615 892.990385 12.634615 895.442308 12.634615 897.894231 12.634615 900.346154 12.634615" /></g></g><g class="titles"><text class="title plot_title" x="512.0" y="26">Election 7 Participation</text><text class="title" transform="rotate(-90 0.000000 374.500000)" x="0" y="400.5">Users</text></g><g class="plot overlay" transform="translate(86, 46)"><g class="series serie-0 color-0" /><g class="series serie-1 color-1" /></g><g class="plot text-overlay" transform="translate(86, 46)"><g class="series serie-0 color-0" /><g class="series serie-1 color-1" /></g><g class="plot tooltip-overlay" transform="translate(86, 46)"><g class="tooltip" style="opacity: 0" transform="translate(0 0)"><a><rect class="tooltip-box" height="0" rx="0" ry="0" width="0" /><text class="text"><tspan class="label" /><tspan class="value" /></text></a></g></g><g class="legends" transform="translate(96, 713)"><g class="legend reactive activate-serie" id="activate-serie-0"><rect class="color-0 reactive" height="12" width="12" x="0.0" y="1.0" /><text x="17.0" y="11.2">constituents</text></g><g class="legend reactive activate-serie" id="activate-serie-1"><rect class="color-1 reactive" height="12" width="12" x="459.0" y="1.0" /><text x="476.0" y="11.2">caucus</text></g></g></g></svg>