<?xml version='1.0' encoding='utf-8'?>
<svg xmlns:xlink="http://www.w3.org/1999/xlink" class="pygal-chart" id="chart-85352b79-eef1-4e51-b3ee-9864dbd2eaed" viewBox="0 0 1024 768" xmlns="http://www.w3.org/2000/svg"><!--Generated with pygal 1.7.0 (etree) ©Kozea 2011-2014 on 2015-11-17--><!--http://pygal.org--><!--http://github.com/Kozea/pygal--><defs><style type="text/css">#chart-85352b79-eef1-4e51-b3ee-9864dbd2eaed .title{font-family:"monospace";font-size:16px}#chart-85352b79-eef1-4e51-b3ee-9864dbd2eaed .legends .legend text{font-family:"monospace";font-size:14px}#chart-85352b79-eef1-4e51-b3ee-9864dbd2eaed .axis text{font-family:"monospace";font-size:10px}#chart-85352b79-eef1-4e51-b3ee-9864dbd2eaed .axis text.major{font-family:"monospace";font-size:10px}#chart-85352b79-eef1-4e51-b3ee-9864dbd2eaed .series text{font-family:"monospace";font-size:8px}#chart-85352b79-eef1-4e51-b3ee-9864dbd2eaed .tooltip text{font-family:"monospace";font-size:16px}#chart-85352b79-eef1-4e51-b3ee-9864dbd2eaed text.no_data{font-size:64px}
#chart-85352b79-eef1-4e51-b3ee-9864dbd2eaed{background-color:black}#chart-85352b79-eef1-4e51-b3ee-9864dbd2eaed path,#chart-85352b79-eef1-4e51-b3ee-9864dbd2eaed line,#chart-85352b79-eef1-4e51-b3ee-9864dbd2eaed rect,#chart-85352b79-eef1-4e51-b3ee-9864dbd2eaed circle{-webkit-transition:250ms;-moz-transition:250ms;transition:250ms}#chart-85352b79-eef1-4e51-b3ee-9864dbd2eaed .graph &gt; .background{fill:black}#chart-85352b79-eef1-4e51-b3ee-9864dbd2eaed .plot &gt; .background{fill:#111}#chart-85352b79-eef1-4e51-b3ee-9864dbd2eaed .graph{fill:#999}#chart-85352b79-eef1-4e51-b3ee-9864dbd2eaed text.no_data{fill:#eee}#chart-85352b79-eef1-4e51-b3ee-9864dbd2eaed .title{fill:#eee}#chart-85352b79-eef1-4e51-b3ee-9864dbd2eaed .legends .legend text{fill:#999}#chart-85352b79-eef1-4e51-b3ee-9864dbd2eaed .legends .legend:hover text{fill:#eee}#chart-85352b79-eef1-4e51-b3ee-9864dbd2eaed .axis .line{stroke:#eee}#chart-85352b79-eef1-4e51-b3ee-9864dbd2eaed .axis .guide.line{stroke:#555}#chart-85352b79-eef1-4e51-b3ee-9864dbd2eaed .axis .major.line{stroke:#999}#chart-85352b79-eef1-4e51-b3ee-9864dbd2eaed .axis text.major{stroke:#eee;fill:#eee}#chart-85352b79-eef1-4e51-b3ee-9864dbd2eaed .axis.y .guides:hover .guide.line,#chart-85352b79-eef1-4e51-b3ee-9864dbd2eaed .line-graph .axis.x .guides:hover .guide.line,#chart-85352b79-eef1-4e51-b3ee-9864dbd2eaed .stackedline-graph .axis.x .guides:hover .guide.line,#chart-85352b79-eef1-4e51-b3ee-9864dbd2eaed .xy-graph .axis.x .guides:hover .guide.line{stroke:#eee}#chart-85352b79-eef1-4e51-b3ee-9864dbd2eaed .axis .guides:hover text{fill:#eee}#chart-85352b79-eef1-4e51-b3ee-9864dbd2eaed .reactive{fill-opacity:.8}#chart-85352b79-eef1-4e51-b3ee-9864dbd2eaed .reactive.active,#chart-85352b79-eef1-4e51-b3ee-9864dbd2eaed .active .reactive{fill-opacity:.4}#chart-85352b79-eef1-4e51-b3ee-9864dbd2eaed .series{stroke-width:1.0;stroke-linejoin:round;stroke-linecap:round;stroke-dasharray:0,0}#chart-85352b79-eef1-4e51-b3ee-9864dbd2eaed .series text{fill:#eee}#chart-85352b79-eef1-4e51-b3ee-9864dbd2eaed .tooltip rect{fill:#111;stroke:#eee}#chart-85352b79-eef1-4e51-b3ee-9864dbd2eaed .tooltip text{fill:#eee}#chart-85352b79-eef1-4e51-b3ee-9864dbd2eaed .map-element{fill:#999;stroke:#555 !important;opacity:.9;stroke-width:3;-webkit-transition:250ms;-moz-transition:250ms;-o-transition:250ms;transition:250ms}#chart-85352b79-eef1-4e51-b3ee-9864dbd2eaed .map-element:hover{opacity:1;stroke-width:10}#chart-85352b79-eef1-4e51-b3ee-9864dbd2eaed .color-0,#chart-85352b79-eef1-4e51-b3ee-9864dbd2eaed .color-0 a:visited{stroke:#ff5995;fill:#ff5995}#chart-85352b79-eef1-4e51-b3ee-9864dbd2eaed .color-1,#chart-85352b79-eef1-4e51-b3ee-9864dbd2eaed .color-1 a:visited{stroke:#b6e354;fill:#b6e354}#chart-85352b79-eef1-4e51-b3ee-9864dbd2eaed .color-2,#chart-85352b79-eef1-4e51-b3ee-9864dbd2eaed .color-2 a:visited{stroke:#feed6c;fill:#feed6c}#chart-85352b79-eef1-4e51-b3ee-9864dbd2eaed .color-3,#chart-85352b79-eef1-4e51-b3ee-9864dbd2eaed .color-3 a:visited{stroke:#8cedff;fill:#8cedff}#chart-85352b79-eef1-4e51-b3ee-9864dbd2eaed .color-4,#chart-85352b79-eef1-4e51-b3ee-9864dbd2eaed .color-4 a:visited{stroke:#9e6ffe;fill:#9e6ffe}#chart-85352b79-eef1-4e51-b3ee-9864dbd2eaed .color-5,#chart-85352b79-eef1-4e51-b3ee-9864dbd2eaed .color-5 a:visited{stroke:#899ca1;fill:#899ca1}#chart-85352b79-eef1-4e51-b3ee-9864dbd2eaed .color-6,#chart-85352b79-eef1-4e51-b3ee-9864dbd2eaed .color-6 a:visited{stroke:#f8f8f2;fill:#f8f8f2}#chart-85352b79-eef1-4e51-b3ee-9864dbd2eaed .color-7,#chart-85352b79-eef1-4e51-b3ee-9864dbd2eaed .color-7 a:visited{stroke:#bf4646;fill:#bf4646}#chart-85352b79-eef1-4e51-b3ee-9864dbd2eaed .color-8,#chart-85352b79-eef1-4e51-b3ee-9864dbd2eaed .color-8 a:visited{stroke:#516083;fill:#516083}#chart-85352b79-eef1-4e51-b3ee-9864dbd2eaed .color-9,#chart-85352b79-eef1-4e51-b3ee-9864dbd2eaed .color-9 a:visited{stroke:#f92672;fill:#f92672}#chart-85352b79-eef1-4e51-b3ee-9864dbd2eaed .color-10,#chart-85352b79-eef1-4e51-b3ee-9864dbd2eaed .color-10 a:visited{stroke:#82b414;fill:#82b414}#chart-85352b79-eef1-4e51-b3ee-9864dbd2eaed .color-11,#chart-85352b79-eef1-4e51-b3ee-9864dbd2eaed .color-11 a:visited{stroke:#fd971f;fill:#fd971f}#chart-85352b79-eef1-4e51-b3ee-9864dbd2eaed .color-12,#chart-85352b79-eef1-4e51-b3ee-9864dbd2eaed .color-12 a:visited{stroke:#56c2d6;fill:#56c2d6}#chart-85352b79-eef1-4e51-b3ee-9864dbd2eaed .color-13,#chart-85352b79-eef1-4e51-b3ee-9864dbd2eaed .color-13 a:visited{stroke:#808384;fill:#808384}#chart-85352b79-eef1-4e51-b3ee-9864dbd2eaed .color-14,#chart-85352b79-eef1-4e51-b3ee-9864dbd2eaed .color-14 a:visited{stroke:#8c54fe;fill:#8c54fe}#chart-85352b79-eef1-4e51-b3ee-9864dbd2eaed .color-15,#chart-85352b79-eef1-4e51-b3ee-9864dbd2eaed .color-15 a:visited{stroke:#465457;fill:#465457}
#chart-85352b79-eef1-4e51-b3ee-9864dbd2eaed text.no_data{text-anchor:middle}#chart-85352b79-eef1-4e51-b3ee-9864dbd2eaed .guide.line{fill-opacity:0}#chart-85352b79-eef1-4e51-b3ee-9864dbd2eaed .centered{text-anchor:middle}#chart-85352b79-eef1-4e51-b3ee-9864dbd2eaed .title{text-anchor:middle}#chart-85352b79-eef1-4e51-b3ee-9864dbd2eaed .legends .legend text{fill-opacity:1}#chart-85352b79-eef1-4e51-b3ee-9864dbd2eaed .axis.x text{text-anchor:middle}#chart-85352b79-eef1-4e51-b3ee-9864dbd2eaed .axis.x:not(.web) text[transform]{text-anchor:start}#chart-85352b79-eef1-4e51-b3ee-9864dbd2eaed .axis.y text{text-anchor:end}#chart-85352b79-eef1-4e51-b3ee-9864dbd2eaed .axis.y2 text{text-anchor:start}#chart-85352b79-eef1-4e51-b3ee-9864dbd2eaed .axis.y .logarithmic text:not(.major),#chart-85352b79-eef1-4e51-b3ee-9864dbd2eaed .axis.y2 .logarithmic text:not(.major){font-size:50%}#chart-85352b79-eef1-4e51-b3ee-9864dbd2eaed .axis .guide.line{stroke-dasharray:4,4}#chart-85352b79-eef1-4e51-b3ee-9864dbd2eaed .axis .major.guide.line{stroke-dasharray:6,6}#chart-85352b79-eef1-4e51-b3ee-9864dbd2eaed .axis text.major{stroke-width:0.5px}#chart-85352b79-eef1-4e51-b3ee-9864dbd2eaed .horizontal .axis.y .guide.line,#chart-85352b79-eef1-4e51-b3ee-9864dbd2eaed .horizontal .axis.y2 .guide.line,#chart-85352b79-eef1-4e51-b3ee-9864dbd2eaed .vertical .axis.x .guide.line{opacity:0}#chart-85352b79-eef1-4e51-b3ee-9864dbd2eaed .horizontal .axis.always_show .guide.line,#chart-85352b79-eef1-4e51-b3ee-9864dbd2eaed .vertical .axis.always_show .guide.line{opacity:1 !important}#chart-85352b79-eef1-4e51-b3ee-9864dbd2eaed .axis.y .guides:hover .guide.line,#chart-85352b79-eef1-4e51-b3ee-9864dbd2eaed .axis.y2 .guides:hover .guide.line,#chart-85352b79-eef1-4e51-b3ee-9864dbd2eaed .axis.x .guides:hover .guide.line{opacity:1}#chart-85352b79-eef1-4e51-b3ee-9864dbd2eaed .axis .guides:hover text{opacity:1}#chart-85352b79-eef1-4e51-b3ee-9864dbd2eaed .nofill{fill:none}#chart-85352b79-eef1-4e51-b3ee-9864dbd2eaed .subtle-fill{fill-opacity:.2}#chart-85352b79-eef1-4e51-b3ee-9864dbd2eaed .dot{stroke-width:1px;fill-opacity:1}#chart-85352b79-eef1-4e51-b3ee-9864dbd2eaed .dot.active{stroke-width:5px}#chart-85352b79-eef1-4e51-b3ee-9864dbd2eaed .series text{stroke:none}#chart-85352b79-eef1-4e51-b3ee-9864dbd2eaed .series text.active{opacity:1}#chart-85352b79-eef1-4e51-b3ee-9864dbd2eaed .tooltip rect{fill-opacity:0.8}#chart-85352b79-eef1-4e51-b3ee-9864dbd2eaed .tooltip text{fill-opacity:1}#chart-85352b79-eef1-4e51-b3ee-9864dbd2eaed .tooltip text tspan.label{fill-opacity:.8}</style><script type="text/javascript">window.config = {"title": "Election stackoverflow.com-6 Participation Per Hour", "rounded_bars": null, "style": {"foreground_light": "#eee", "stroke_width": 1.0, "plot_background": "#111", "background": "black", "font_family": "monospace", "transition": "250ms", "opacity": ".8", "stroke_dasharray": "0,0", "foreground": "#999", "stroke_style": "round", "opacity_hover": ".4", "colors": ["#ff5995", "#b6e354", "#feed6c", "#8cedff", "#9e6ffe", "#899ca1", "#f8f8f2", "#bf4646", "#516083", "#f92672", "#82b414", "#fd971f", "#56c2d6", "#808384", "#8c54fe", "#465457"], "foreground_dark": "#555"}, "value_font_size": 8, "x_labels_major": null, "width": 1024, "show_y_labels": true, "show_legend": true, "legend_at_bottom_columns": null, "xrange": null, "pretty_print": false, "mode": null, "dots_size": 2.5, "legend_box_size": 12, "explicit_size": false, "show_only_major_dots": false, "interpolation_precision": 250, "print_values": false, "order_min": null, "major_label_font_size": 10, "no_prefix": false, "title_font_size": 16, "truncate_legend": null, "x_label_format": "%Y-%m-%d %H:%M:%S.%f", "show_dots": false, "x_title": null, "show_y_guides": true, "logarithmic": false, "x_labels_major_every": null, "legend_font_size": 14, "disable_xml_declaration": false, "interpolate": null, "margin_left": null, "show_x_labels": true, "missing_value_fill_truncation": "x", "y_title": "Users", "range": [0, 1000], "no_data_font_size": 64, "margin_right": null, "zero": 0, "x_value_formatter": null, "human_readable": false, "stroke": true, "x_label_rotation": 0, "x_labels_major_count": null, "js": ["http://kozea.github.io/pygal.js/javascripts/svg.jquery.js", "http://kozea.github.io/pygal.js/javascripts/pygal-tooltips.js"], "y_labels": null, "label_font_size": 10, "y_labels_major": null, "stack_from_top": false, "y_labels_major_every": null, "margin_top": null, "css": ["style.css", "graph.css"], "interpolation_parameters": {}, "show_minor_x_labels": true, "y_labels_major_count": null, "margin_bottom": null, "half_pie": false, "tooltip_font_size": 16, "tooltip_border_radius": 0, "no_data_text": "No data", "x_labels": null, "y_label_rotation": 0, "margin": 20, "height": 768, "show_minor_y_labels": true, "show_x_guides": false, "truncate_label": null, "strict": false, "include_x_axis": false, "inner_radius": 0, "print_zeroes": false, "legend_at_bottom": true, "fill": false, "spacing": 10}</script><script type="text/javascript" xlink:href="http://kozea.github.io/pygal.js/javascripts/svg.jquery.js" /><script type="text/javascript" xlink:href="http://kozea.github.io/pygal.js/javascripts/pygal-tooltips.js" /></defs><title>Election stackoverflow.com-6 Participation Per Hour</title><g class="graph line-graph vertical"><rect class="background" height="768" width="1024" x="0" y="0" /><g class="plot" transform="translate(80, 46)"><rect class="background" height="657.0" width="924.0" x="0" y="0" /><g class="axis y"><g class="guides"><path class="axis major line" d="M0.000000 644.365385 h924.000000" /><text class="major" x="-5" y="647.8653846153846">0</text></g><g class="guides"><path class="guide line" d="M0.000000 581.192308 h924.000000" /><text class="" x="-5" y="584.6923076923077">100</text></g><g class="guides"><path class="guide line" d="M0.000000 518.019231 h924.000000" /><text class="" x="-5" y="521.5192307692307">200</text></g><g class="guides"><path class="guide line" d="M0.000000 454.846154 h924.000000" /><text class="" x="-5" y="458.3461538461538">300</text></g><g class="guides"><path class="guide line" d="M0.000000 391.673077 h924.000000" /><text class="" x="-5" y="395.1730769230769">400</text></g><g class="guides"><path class="major guide line" d="M0.000000 328.500000 h924.000000" /><text class="major" x="-5" y="332.0">500</text></g><g class="guides"><path class="guide line" d="M0.000000 265.326923 h924.000000" /><text class="" x="-5" y="268.8269230769231">600</text></g><g class="guides"><path class="guide line" d="M0.000000 202.153846 h924.000000" /><text class="" x="-5" y="205.65384615384613">700</text></g><g class="guides"><path class="guide line" d="M0.000000 138.980769 h924.000000" /><text class="" x="-5" y="142.48076923076928">800</text></g><g class="guides"><path class="guide line" d="M0.000000 75.807692 h924.000000" /><text class="" x="-5" y="79.30769230769226">900</text></g><g class="guides"><path class="major guide line" d="M0.000000 12.634615 h924.000000" /><text class="major" x="-5" y="16.13461538461536">1000</text></g></g><g class="series serie-0 color-0"><path class="line reactive nofill" d="M17.769231 644.365385 L20.237179 644.365385 22.705128 644.365385 25.173077 644.365385 27.641026 644.365385 30.108974 644.365385 32.576923 644.365385 35.044872 644.365385 37.512821 644.365385 39.980769 644.365385 42.448718 644.365385 44.916667 644.365385 47.384615 644.365385 49.852564 644.365385 52.320513 644.365385 54.788462 644.365385 57.256410 644.365385 59.724359 644.365385 62.192308 644.365385 64.660256 644.365385 67.128205 644.365385 69.596154 644.365385 72.064103 644.365385 74.532051 644.365385 77.000000 644.365385 79.467949 644.365385 81.935897 644.365385 84.403846 644.365385 86.871795 644.365385 89.339744 644.365385 91.807692 644.365385 94.275641 644.365385 96.743590 644.365385 99.211538 644.365385 101.679487 644.365385 104.147436 644.365385 106.615385 644.365385 109.083333 644.365385 111.551282 644.365385 114.019231 644.365385 116.487179 644.365385 118.955128 644.365385 121.423077 644.365385 123.891026 644.365385 126.358974 644.365385 128.826923 644.365385 131.294872 644.365385 133.762821 644.365385 136.230769 644.365385 138.698718 644.365385 141.166667 644.365385 143.634615 644.365385 146.102564 644.365385 148.570513 644.365385 151.038462 644.365385 153.506410 644.365385 155.974359 644.365385 158.442308 644.365385 160.910256 644.365385 163.378205 644.365385 165.846154 644.365385 168.314103 644.365385 170.782051 644.365385 173.250000 644.365385 175.717949 644.365385 178.185897 644.365385 180.653846 644.365385 183.121795 644.365385 185.589744 644.365385 188.057692 644.365385 190.525641 644.365385 192.993590 644.365385 195.461538 644.365385 197.929487 644.365385 200.397436 644.365385 202.865385 644.365385 205.333333 644.365385 207.801282 644.365385 210.269231 644.365385 212.737179 644.365385 215.205128 644.365385 217.673077 644.365385 220.141026 644.365385 222.608974 644.365385 225.076923 644.365385 227.544872 644.365385 230.012821 644.365385 232.480769 644.365385 234.948718 644.365385 237.416667 644.365385 239.884615 644.365385 242.352564 644.365385 244.820513 644.365385 247.288462 644.365385 249.756410 644.365385 252.224359 644.365385 254.692308 644.365385 257.160256 644.365385 259.628205 644.365385 262.096154 644.365385 264.564103 644.365385 267.032051 644.365385 269.500000 644.365385 271.967949 644.365385 274.435897 644.365385 276.903846 644.365385 279.371795 644.365385 281.839744 644.365385 284.307692 644.365385 286.775641 644.365385 289.243590 644.365385 291.711538 644.365385 294.179487 644.365385 296.647436 644.365385 299.115385 644.365385 301.583333 644.365385 304.051282 644.365385 306.519231 644.365385 308.987179 644.365385 311.455128 644.365385 313.923077 644.365385 316.391026 644.365385 318.858974 644.365385 321.326923 644.365385 323.794872 644.365385 326.262821 644.365385 328.730769 644.365385 331.198718 644.365385 333.666667 644.365385 336.134615 644.365385 338.602564 644.365385 341.070513 644.365385 343.538462 644.365385 346.006410 644.365385 348.474359 644.365385 350.942308 644.365385 353.410256 644.365385 355.878205 644.365385 358.346154 644.365385 360.814103 644.365385 363.282051 644.365385 365.750000 644.365385 368.217949 644.365385 370.685897 644.365385 373.153846 644.365385 375.621795 644.365385 378.089744 644.365385 380.557692 644.365385 383.025641 644.365385 385.493590 644.365385 387.961538 644.365385 390.429487 644.365385 392.897436 644.365385 395.365385 644.365385 397.833333 644.365385 400.301282 644.365385 402.769231 644.365385 405.237179 644.365385 407.705128 644.365385 410.173077 644.365385 412.641026 644.365385 415.108974 644.365385 417.576923 644.365385 420.044872 644.365385 422.512821 644.365385 424.980769 644.365385 427.448718 644.365385 429.916667 644.365385 432.384615 644.365385 434.852564 644.365385 437.320513 644.365385 439.788462 644.365385 442.256410 644.365385 444.724359 644.365385 447.192308 644.365385 449.660256 644.365385 452.128205 644.365385 454.596154 644.365385 457.064103 644.365385 459.532051 644.365385 462.000000 644.365385 464.467949 644.365385 466.935897 644.365385 469.403846 644.365385 471.871795 644.365385 474.339744 644.365385 476.807692 644.365385 479.275641 644.365385 481.743590 644.365385 484.211538 644.365385 486.679487 644.365385 489.147436 644.365385 491.615385 644.365385 494.083333 644.365385 496.551282 644.365385 499.019231 644.365385 501.487179 644.365385 503.955128 644.365385 506.423077 644.365385 508.891026 644.365385 511.358974 644.365385 513.826923 644.365385 516.294872 644.365385 518.762821 644.365385 521.230769 644.365385 523.698718 644.365385 526.166667 644.365385 528.634615 644.365385 531.102564 644.365385 533.570513 644.365385 536.038462 644.365385 538.506410 644.365385 540.974359 644.365385 543.442308 644.365385 545.910256 644.365385 548.378205 644.365385 550.846154 644.365385 553.314103 644.365385 555.782051 644.365385 558.250000 644.365385 560.717949 644.365385 563.185897 644.365385 565.653846 644.365385 568.121795 644.365385 570.589744 644.365385 573.057692 644.365385 575.525641 644.365385 577.993590 644.365385 580.461538 644.365385 582.929487 644.365385 585.397436 644.365385 587.865385 644.365385 590.333333 644.365385 592.801282 644.365385 595.269231 644.365385 597.737179 644.365385 600.205128 644.365385 602.673077 644.365385 605.141026 644.365385 607.608974 644.365385 610.076923 644.365385 612.544872 644.365385 615.012821 644.365385 617.480769 644.365385 619.948718 644.365385 622.416667 644.365385 624.884615 644.365385 627.352564 644.365385 629.820513 644.365385 632.288462 644.365385 634.756410 644.365385 637.224359 644.365385 639.692308 644.365385 642.160256 644.365385 644.628205 644.365385 647.096154 644.365385 649.564103 644.365385 652.032051 644.365385 654.500000 644.365385 656.967949 644.365385 659.435897 644.365385 661.903846 644.365385 664.371795 644.365385 666.839744 644.365385 669.307692 -1379.700000 671.775641 -287.437500 674.243590 127.609615 676.711538 338.607692 679.179487 406.202885 681.647436 433.999038 684.115385 454.846154 686.583333 425.154808 689.051282 353.137500 691.519231 358.823077 693.987179 361.981731 696.455128 320.287500 698.923077 359.454808 701.391026 321.550962 703.858974 351.874038 706.326923 408.098077 708.794872 418.205769 711.262821 422.627885 713.730769 433.367308 716.198718 450.424038 718.666667 478.220192 721.134615 454.846154 723.602564 498.435577 726.070513 472.534615 728.538462 526.863462 731.006410 547.710577 733.474359 569.189423 735.942308 580.560577 738.410256 598.249038 740.878205 593.826923 743.346154 597.617308 745.814103 602.039423 748.282051 598.880769 750.750000 578.033654 753.217949 552.132692 755.685897 559.713462 758.153846 533.180769 760.621795 554.659615 763.089744 537.602885 765.557692 538.234615 768.025641 550.869231 770.493590 548.342308 772.961538 566.030769 775.429487 545.183654 777.897436 547.710577 780.365385 550.869231 782.833333 552.764423 785.301282 558.450000 787.769231 569.821154 790.237179 566.030769 792.705128 586.877885 795.173077 572.979808 797.641026 575.506731 800.108974 566.030769 802.576923 559.713462 805.044872 552.132692 807.512821 462.426923 809.980769 387.882692 812.448718 284.910577 814.916667 176.252885 817.384615 216.051923 819.852564 241.952885 822.320513 382.828846 824.788462 413.783654 827.256410 364.508654 829.724359 355.664423 832.192308 372.721154 834.660256 435.894231 837.128205 498.435577 839.596154 540.129808 842.064103 529.390385 844.532051 535.707692 847.000000 561.608654 849.467949 558.450000 851.935897 600.144231 854.403846 612.147115 856.871795 600.775962 859.339744 614.042308 861.807692 613.410577 864.275641 608.988462 866.743590 596.353846 869.211538 579.297115 871.679487 542.656731 874.147436 512.333654 876.615385 519.914423 879.083333 528.758654 881.551282 537.602885 884.019231 543.288462 886.487179 544.551923 888.955128 522.441346 891.423077 543.288462 893.891026 540.129808 896.358974 564.135577 898.826923 571.084615 901.294872 578.665385 903.762821 575.506731 906.230769 644.365385" /></g><g class="series serie-1 color-1"><path class="line reactive nofill" d="M17.769231 -623.518269 L20.237179 169.935577 22.705128 379.670192 25.173077 468.112500 27.641026 478.220192 30.108974 533.812500 32.576923 533.180769 35.044872 514.860577 37.512821 451.055769 39.980769 395.463462 42.448718 384.092308 44.916667 288.069231 47.384615 318.392308 49.852564 422.627885 52.320513 440.316346 54.788462 475.061538 57.256410 468.744231 59.724359 472.534615 62.192308 471.271154 64.660256 493.381731 67.128205 525.600000 69.596154 538.866346 72.064103 550.869231 74.532051 555.923077 77.000000 574.875000 79.467949 559.081731 81.935897 603.934615 84.403846 615.305769 86.871795 608.988462 89.339744 610.883654 91.807692 622.254808 94.275641 623.518269 96.743590 602.039423 99.211538 595.090385 101.679487 590.668269 104.147436 571.716346 106.615385 571.716346 109.083333 572.979808 111.551282 576.770192 114.019231 588.141346 116.487179 579.928846 118.955128 578.033654 121.423077 586.877885 123.891026 594.458654 126.358974 602.671154 128.826923 594.458654 131.294872 599.512500 133.762821 607.093269 136.230769 606.461538 138.698718 614.042308 141.166667 614.674038 143.634615 632.994231 146.102564 631.099038 148.570513 630.467308 151.038462 626.676923 153.506410 630.467308 155.974359 617.832692 158.442308 610.883654 160.910256 615.937500 163.378205 600.144231 165.846154 599.512500 168.314103 606.461538 170.782051 605.829808 173.250000 600.144231 175.717949 607.093269 178.185897 598.249038 180.653846 596.985577 183.121795 599.512500 185.589744 609.620192 188.057692 620.359615 190.525641 616.569231 192.993590 615.305769 195.461538 608.356731 197.929487 621.623077 200.397436 629.835577 202.865385 630.467308 205.333333 634.889423 207.801282 633.625962 210.269231 632.362500 212.737179 635.521154 215.205128 625.413462 217.673077 622.254808 220.141026 615.937500 222.608974 619.096154 225.076923 617.832692 227.544872 610.251923 230.012821 610.883654 232.480769 617.832692 234.948718 612.147115 237.416667 614.674038 239.884615 612.778846 242.352564 619.727885 244.820513 627.940385 247.288462 624.781731 249.756410 626.676923 252.224359 627.940385 254.692308 622.254808 257.160256 631.099038 259.628205 632.994231 262.096154 635.521154 264.564103 633.625962 267.032051 636.152885 269.500000 639.311538 271.967949 639.311538 274.435897 634.257692 276.903846 638.679808 279.371795 633.625962 281.839744 633.625962 284.307692 638.048077 286.775641 636.784615 289.243590 638.679808 291.711538 631.099038 294.179487 632.362500 296.647436 636.784615 299.115385 629.203846 301.583333 631.730769 304.051282 632.994231 306.519231 631.099038 308.987179 627.940385 311.455128 634.257692 313.923077 636.784615 316.391026 638.679808 318.858974 632.362500 321.326923 635.521154 323.794872 637.416346 326.262821 636.152885 328.730769 637.416346 331.198718 639.311538 333.666667 635.521154 336.134615 636.152885 338.602564 636.152885 341.070513 637.416346 343.538462 638.048077 346.006410 629.835577 348.474359 633.625962 350.942308 631.730769 353.410256 633.625962 355.878205 634.257692 358.346154 634.257692 360.814103 633.625962 363.282051 636.784615 365.750000 634.889423 368.217949 633.625962 370.685897 629.203846 373.153846 633.625962 375.621795 632.362500 378.089744 637.416346 380.557692 637.416346 383.025641 637.416346 385.493590 636.152885 387.961538 632.994231 390.429487 638.679808 392.897436 636.152885 395.365385 628.572115 397.833333 628.572115 400.301282 614.674038 402.769231 611.515385 405.237179 606.461538 407.705128 614.042308 410.173077 609.620192 412.641026 613.410577 415.108974 598.249038 417.576923 607.093269 420.044872 624.150000 422.512821 621.623077 424.980769 619.727885 427.448718 617.832692 429.916667 615.937500 432.384615 -2501.653846 434.852564 -850.309615 437.320513 -163.618269 439.788462 48.011538 442.256410 132.663462 444.724359 215.420192 447.192308 160.459615 449.660256 171.199038 452.128205 -41.062500 454.596154 -354.400962 457.064103 -670.266346 459.532051 -1029.089423 462.000000 -793.453846 464.467949 -622.254808 466.935897 -333.553846 469.403846 -216.051923 471.871795 -235.635577 474.339744 -185.728846 476.807692 -147.825000 479.275641 6.317308 481.743590 158.564423 484.211538 222.369231 486.679487 253.955769 489.147436 289.964423 491.615385 344.293269 494.083333 380.301923 496.551282 468.744231 499.019231 531.917308 501.487179 551.500962 503.955128 542.025000 506.423077 547.078846 508.891026 522.441346 511.358974 480.747115 513.826923 430.840385 516.294872 358.191346 518.762821 320.287500 521.230769 319.655769 523.698718 303.230769 526.166667 341.766346 528.634615 351.874038 531.102564 352.505769 533.570513 345.556731 536.038462 337.344231 538.506410 401.149038 540.974359 414.415385 543.442308 466.217308 545.910256 460.531731 548.378205 483.274038 550.846154 485.800962 553.314103 536.339423 555.782051 550.237500 558.250000 568.557692 560.717949 589.404808 563.185897 572.348077 565.653846 589.404808 568.121795 574.243269 570.589744 560.976923 573.057692 557.818269 575.525641 487.696154 577.993590 484.537500 580.461538 481.378846 582.929487 461.795192 585.397436 479.483654 587.865385 488.327885 590.333333 459.268269 592.801282 476.325000 595.269231 485.169231 597.737179 526.863462 600.205128 507.279808 602.673077 523.704808 605.141026 554.659615 607.608974 555.291346 610.076923 550.237500 612.544872 567.294231 615.012821 590.668269 617.480769 603.302885 619.948718 607.093269 622.416667 614.674038 624.884615 605.198077 627.352564 603.934615 629.820513 599.512500 632.288462 587.509615 634.756410 579.297115 637.224359 566.662500 639.692308 542.656731 642.160256 540.761538 644.628205 563.503846 647.096154 567.294231 649.564103 533.812500 652.032051 536.339423 654.500000 529.390385 656.967949 560.345192 659.435897 583.719231 661.903846 569.821154 664.371795 572.348077 666.839744 586.246154 669.307692 -11.371154 671.775641 293.123077 674.243590 421.364423 676.711538 502.225962 679.179487 554.027885 681.647436 564.135577 684.115385 582.455769 686.583333 571.084615 689.051282 553.396154 691.519231 540.129808 693.987179 539.498077 696.455128 526.863462 698.923077 543.288462 701.391026 512.965385 703.858974 536.971154 706.326923 553.396154 708.794872 526.863462 711.262821 548.342308 713.730769 545.815385 716.198718 547.078846 718.666667 567.294231 721.134615 557.186538 723.602564 571.084615 726.070513 550.869231 728.538462 576.138462 731.006410 581.824038 733.474359 605.198077 735.942308 597.617308 738.410256 615.937500 740.878205 615.305769 743.346154 621.623077 745.814103 619.096154 748.282051 618.464423 750.750000 614.042308 753.217949 601.407692 755.685897 598.880769 758.153846 575.506731 760.621795 579.297115 763.089744 578.665385 765.557692 598.249038 768.025641 581.192308 770.493590 591.931731 772.961538 595.090385 775.429487 580.560577 777.897436 587.509615 780.365385 583.087500 782.833333 602.039423 785.301282 596.985577 787.769231 590.036538 790.237179 598.249038 792.705128 612.147115 795.173077 608.988462 797.641026 609.620192 800.108974 596.353846 802.576923 600.775962 805.044872 591.931731 807.512821 570.452885 809.980769 534.444231 812.448718 487.064423 814.916667 452.950962 817.384615 423.259615 819.852564 408.098077 822.320513 488.327885 824.788462 492.118269 827.256410 466.849038 829.724359 465.585577 832.192308 473.798077 834.660256 495.276923 837.128205 543.288462 839.596154 549.605769 842.064103 550.869231 844.532051 545.815385 847.000000 567.925962 849.467949 581.824038 851.935897 591.300000 854.403846 611.515385 856.871795 619.096154 859.339744 611.515385 861.807692 615.937500 864.275641 616.569231 866.743590 612.147115 869.211538 605.198077 871.679487 562.240385 874.147436 559.713462 876.615385 550.869231 879.083333 560.976923 881.551282 558.450000 884.019231 580.560577 886.487179 572.348077 888.955128 554.027885 891.423077 570.452885 893.891026 554.027885 896.358974 583.719231 898.826923 592.563462 901.294872 584.350962 903.762821 584.350962 906.230769 644.365385" /></g></g><g class="titles"><text class="title plot_title" x="512.0" y="26">Election stackoverflow.com-6 Participation Per Hour</text><text class="title" transform="rotate(-90 0.000000 374.500000)" x="0" y="400.5">Users</text></g><g class="plot overlay" transform="translate(80, 46)"><g class="series serie-0 color-0" /><g class="series serie-1 color-1" /></g><g class="plot text-overlay" transform="translate(80, 46)"><g class="series serie-0 color-0" /><g class="series serie-1 color-1" /></g><g class="plot tooltip-overlay" transform="translate(80, 46)"><g class="tooltip" style="opacity: 0" transform="translate(0 0)"><a><rect class="tooltip-box" height="0" rx="0" ry="0" width="0" /><text class="text"><tspan class="label" /><tspan class="value" /></text></a></g></g><g class="legends" transform="translate(90, 713)"><g class="legend reactive activate-serie" id="activate-serie-0"><rect class="color-0 reactive" height="12" width="12" x="0.0" y="1.0" /><text x="17.0" y="11.2">constituents</text></g><g class="legend reactive activate-serie" id="activate-serie-1"><rect class="color-1 reactive" height="12" width="12" x="462.0" y="1.0" /><text x="479.0" y="11.2">caucus</text></g></g></g></svg>