<?xml version='1.0' encoding='utf-8'?>
<svg xmlns:xlink="http://www.w3.org/1999/xlink" class="pygal-chart" id="chart-7a1e2471-e9f5-473f-918c-6ed8f66ab496" viewBox="0 0 1024 768" xmlns="http://www.w3.org/2000/svg"><!--Generated with pygal 1.7.0 (etree) ©Kozea 2011-2014 on 2015-04-20--><!--http://pygal.org--><!--http://github.com/Kozea/pygal--><defs><style type="text/css">#chart-7a1e2471-e9f5-473f-918c-6ed8f66ab496 .title{font-family:"monospace";font-size:16px}#chart-7a1e2471-e9f5-473f-918c-6ed8f66ab496 .legends .legend text{font-family:"monospace";font-size:14px}#chart-7a1e2471-e9f5-473f-918c-6ed8f66ab496 .axis text{font-family:"monospace";font-size:10px}#chart-7a1e2471-e9f5-473f-918c-6ed8f66ab496 .axis text.major{font-family:"monospace";font-size:10px}#chart-7a1e2471-e9f5-473f-918c-6ed8f66ab496 .series text{font-family:"monospace";font-size:8px}#chart-7a1e2471-e9f5-473f-918c-6ed8f66ab496 .tooltip text{font-family:"monospace";font-size:16px}#chart-7a1e2471-e9f5-473f-918c-6ed8f66ab496 text.no_data{font-size:64px}
#chart-7a1e2471-e9f5-473f-918c-6ed8f66ab496{background-color:black}#chart-7a1e2471-e9f5-473f-918c-6ed8f66ab496 path,#chart-7a1e2471-e9f5-473f-918c-6ed8f66ab496 line,#chart-7a1e2471-e9f5-473f-918c-6ed8f66ab496 rect,#chart-7a1e2471-e9f5-473f-918c-6ed8f66ab496 circle{-webkit-transition:250ms;-moz-transition:250ms;transition:250ms}#chart-7a1e2471-e9f5-473f-918c-6ed8f66ab496 .graph &gt; .background{fill:black}#chart-7a1e2471-e9f5-473f-918c-6ed8f66ab496 .plot &gt; .background{fill:#111}#chart-7a1e2471-e9f5-473f-918c-6ed8f66ab496 .graph{fill:#999}#chart-7a1e2471-e9f5-473f-918c-6ed8f66ab496 text.no_data{fill:#eee}#chart-7a1e2471-e9f5-473f-918c-6ed8f66ab496 .title{fill:#eee}#chart-7a1e2471-e9f5-473f-918c-6ed8f66ab496 .legends .legend text{fill:#999}#chart-7a1e2471-e9f5-473f-918c-6ed8f66ab496 .legends .legend:hover text{fill:#eee}#chart-7a1e2471-e9f5-473f-918c-6ed8f66ab496 .axis .line{stroke:#eee}#chart-7a1e2471-e9f5-473f-918c-6ed8f66ab496 .axis .guide.line{stroke:#555}#chart-7a1e2471-e9f5-473f-918c-6ed8f66ab496 .axis .major.line{stroke:#999}#chart-7a1e2471-e9f5-473f-918c-6ed8f66ab496 .axis text.major{stroke:#eee;fill:#eee}#chart-7a1e2471-e9f5-473f-918c-6ed8f66ab496 .axis.y .guides:hover .guide.line,#chart-7a1e2471-e9f5-473f-918c-6ed8f66ab496 .line-graph .axis.x .guides:hover .guide.line,#chart-7a1e2471-e9f5-473f-918c-6ed8f66ab496 .stackedline-graph .axis.x .guides:hover .guide.line,#chart-7a1e2471-e9f5-473f-918c-6ed8f66ab496 .xy-graph .axis.x .guides:hover .guide.line{stroke:#eee}#chart-7a1e2471-e9f5-473f-918c-6ed8f66ab496 .axis .guides:hover text{fill:#eee}#chart-7a1e2471-e9f5-473f-918c-6ed8f66ab496 .reactive{fill-opacity:.8}#chart-7a1e2471-e9f5-473f-918c-6ed8f66ab496 .reactive.active,#chart-7a1e2471-e9f5-473f-918c-6ed8f66ab496 .active .reactive{fill-opacity:.4}#chart-7a1e2471-e9f5-473f-918c-6ed8f66ab496 .series{stroke-width:1.0;stroke-linejoin:round;stroke-linecap:round;stroke-dasharray:0,0}#chart-7a1e2471-e9f5-473f-918c-6ed8f66ab496 .series text{fill:#eee}#chart-7a1e2471-e9f5-473f-918c-6ed8f66ab496 .tooltip rect{fill:#111;stroke:#eee}#chart-7a1e2471-e9f5-473f-918c-6ed8f66ab496 .tooltip text{fill:#eee}#chart-7a1e2471-e9f5-473f-918c-6ed8f66ab496 .map-element{fill:#999;stroke:#555 !important;opacity:.9;stroke-width:3;-webkit-transition:250ms;-moz-transition:250ms;-o-transition:250ms;transition:250ms}#chart-7a1e2471-e9f5-473f-918c-6ed8f66ab496 .map-element:hover{opacity:1;stroke-width:10}#chart-7a1e2471-e9f5-473f-918c-6ed8f66ab496 .color-0,#chart-7a1e2471-e9f5-473f-918c-6ed8f66ab496 .color-0 a:visited{stroke:#ff5995;fill:#ff5995}#chart-7a1e2471-e9f5-473f-918c-6ed8f66ab496 .color-1,#chart-7a1e2471-e9f5-473f-918c-6ed8f66ab496 .color-1 a:visited{stroke:#b6e354;fill:#b6e354}#chart-7a1e2471-e9f5-473f-918c-6ed8f66ab496 .color-2,#chart-7a1e2471-e9f5-473f-918c-6ed8f66ab496 .color-2 a:visited{stroke:#feed6c;fill:#feed6c}#chart-7a1e2471-e9f5-473f-918c-6ed8f66ab496 .color-3,#chart-7a1e2471-e9f5-473f-918c-6ed8f66ab496 .color-3 a:visited{stroke:#8cedff;fill:#8cedff}#chart-7a1e2471-e9f5-473f-918c-6ed8f66ab496 .color-4,#chart-7a1e2471-e9f5-473f-918c-6ed8f66ab496 .color-4 a:visited{stroke:#9e6ffe;fill:#9e6ffe}#chart-7a1e2471-e9f5-473f-918c-6ed8f66ab496 .color-5,#chart-7a1e2471-e9f5-473f-918c-6ed8f66ab496 .color-5 a:visited{stroke:#899ca1;fill:#899ca1}#chart-7a1e2471-e9f5-473f-918c-6ed8f66ab496 .color-6,#chart-7a1e2471-e9f5-473f-918c-6ed8f66ab496 .color-6 a:visited{stroke:#f8f8f2;fill:#f8f8f2}#chart-7a1e2471-e9f5-473f-918c-6ed8f66ab496 .color-7,#chart-7a1e2471-e9f5-473f-918c-6ed8f66ab496 .color-7 a:visited{stroke:#bf4646;fill:#bf4646}#chart-7a1e2471-e9f5-473f-918c-6ed8f66ab496 .color-8,#chart-7a1e2471-e9f5-473f-918c-6ed8f66ab496 .color-8 a:visited{stroke:#516083;fill:#516083}#chart-7a1e2471-e9f5-473f-918c-6ed8f66ab496 .color-9,#chart-7a1e2471-e9f5-473f-918c-6ed8f66ab496 .color-9 a:visited{stroke:#f92672;fill:#f92672}#chart-7a1e2471-e9f5-473f-918c-6ed8f66ab496 .color-10,#chart-7a1e2471-e9f5-473f-918c-6ed8f66ab496 .color-10 a:visited{stroke:#82b414;fill:#82b414}#chart-7a1e2471-e9f5-473f-918c-6ed8f66ab496 .color-11,#chart-7a1e2471-e9f5-473f-918c-6ed8f66ab496 .color-11 a:visited{stroke:#fd971f;fill:#fd971f}#chart-7a1e2471-e9f5-473f-918c-6ed8f66ab496 .color-12,#chart-7a1e2471-e9f5-473f-918c-6ed8f66ab496 .color-12 a:visited{stroke:#56c2d6;fill:#56c2d6}#chart-7a1e2471-e9f5-473f-918c-6ed8f66ab496 .color-13,#chart-7a1e2471-e9f5-473f-918c-6ed8f66ab496 .color-13 a:visited{stroke:#808384;fill:#808384}#chart-7a1e2471-e9f5-473f-918c-6ed8f66ab496 .color-14,#chart-7a1e2471-e9f5-473f-918c-6ed8f66ab496 .color-14 a:visited{stroke:#8c54fe;fill:#8c54fe}#chart-7a1e2471-e9f5-473f-918c-6ed8f66ab496 .color-15,#chart-7a1e2471-e9f5-473f-918c-6ed8f66ab496 .color-15 a:visited{stroke:#465457;fill:#465457}
#chart-7a1e2471-e9f5-473f-918c-6ed8f66ab496 text.no_data{text-anchor:middle}#chart-7a1e2471-e9f5-473f-918c-6ed8f66ab496 .guide.line{fill-opacity:0}#chart-7a1e2471-e9f5-473f-918c-6ed8f66ab496 .centered{text-anchor:middle}#chart-7a1e2471-e9f5-473f-918c-6ed8f66ab496 .title{text-anchor:middle}#chart-7a1e2471-e9f5-473f-918c-6ed8f66ab496 .legends .legend text{fill-opacity:1}#chart-7a1e2471-e9f5-473f-918c-6ed8f66ab496 .axis.x text{text-anchor:middle}#chart-7a1e2471-e9f5-473f-918c-6ed8f66ab496 .axis.x:not(.web) text[transform]{text-anchor:start}#chart-7a1e2471-e9f5-473f-918c-6ed8f66ab496 .axis.y text{text-anchor:end}#chart-7a1e2471-e9f5-473f-918c-6ed8f66ab496 .axis.y2 text{text-anchor:start}#chart-7a1e2471-e9f5-473f-918c-6ed8f66ab496 .axis.y .logarithmic text:not(.major),#chart-7a1e2471-e9f5-473f-918c-6ed8f66ab496 .axis.y2 .logarithmic text:not(.major){font-size:50%}#chart-7a1e2471-e9f5-473f-918c-6ed8f66ab496 .axis .guide.line{stroke-dasharray:4,4}#chart-7a1e2471-e9f5-473f-918c-6ed8f66ab496 .axis .major.guide.line{stroke-dasharray:6,6}#chart-7a1e2471-e9f5-473f-918c-6ed8f66ab496 .axis text.major{stroke-width:0.5px}#chart-7a1e2471-e9f5-473f-918c-6ed8f66ab496 .horizontal .axis.y .guide.line,#chart-7a1e2471-e9f5-473f-918c-6ed8f66ab496 .horizontal .axis.y2 .guide.line,#chart-7a1e2471-e9f5-473f-918c-6ed8f66ab496 .vertical .axis.x .guide.line{opacity:0}#chart-7a1e2471-e9f5-473f-918c-6ed8f66ab496 .horizontal .axis.always_show .guide.line,#chart-7a1e2471-e9f5-473f-918c-6ed8f66ab496 .vertical .axis.always_show .guide.line{opacity:1 !important}#chart-7a1e2471-e9f5-473f-918c-6ed8f66ab496 .axis.y .guides:hover .guide.line,#chart-7a1e2471-e9f5-473f-918c-6ed8f66ab496 .axis.y2 .guides:hover .guide.line,#chart-7a1e2471-e9f5-473f-918c-6ed8f66ab496 .axis.x .guides:hover .guide.line{opacity:1}#chart-7a1e2471-e9f5-473f-918c-6ed8f66ab496 .axis .guides:hover text{opacity:1}#chart-7a1e2471-e9f5-473f-918c-6ed8f66ab496 .nofill{fill:none}#chart-7a1e2471-e9f5-473f-918c-6ed8f66ab496 .subtle-fill{fill-opacity:.2}#chart-7a1e2471-e9f5-473f-918c-6ed8f66ab496 .dot{stroke-width:1px;fill-opacity:1}#chart-7a1e2471-e9f5-473f-918c-6ed8f66ab496 .dot.active{stroke-width:5px}#chart-7a1e2471-e9f5-473f-918c-6ed8f66ab496 .series text{stroke:none}#chart-7a1e2471-e9f5-473f-918c-6ed8f66ab496 .series text.active{opacity:1}#chart-7a1e2471-e9f5-473f-918c-6ed8f66ab496 .tooltip rect{fill-opacity:0.8}#chart-7a1e2471-e9f5-473f-918c-6ed8f66ab496 .tooltip text{fill-opacity:1}#chart-7a1e2471-e9f5-473f-918c-6ed8f66ab496 .tooltip text tspan.label{fill-opacity:.8}</style><script type="text/javascript">window.config = {"disable_xml_declaration": false, "explicit_size": false, "legend_box_size": 12, "x_labels_major": null, "missing_value_fill_truncation": "x", "show_minor_x_labels": true, "inner_radius": 0, "width": 1024, "height": 768, "zero": 0, "margin_left": null, "interpolate": null, "logarithmic": false, "margin_bottom": null, "half_pie": false, "legend_font_size": 14, "x_labels_major_count": null, "mode": null, "title_font_size": 16, "range": null, "order_min": null, "stroke": true, "tooltip_font_size": 16, "print_zeroes": false, "x_labels": null, "x_label_rotation": 0, "interpolation_precision": 250, "truncate_label": null, "x_label_format": "%Y-%m-%d %H:%M:%S.%f", "no_prefix": false, "margin_top": null, "show_y_guides": true, "show_x_labels": true, "x_value_formatter": null, "legend_at_bottom_columns": null, "y_title": "Users", "truncate_legend": null, "y_labels_major": null, "interpolation_parameters": {}, "xrange": null, "y_labels_major_count": null, "strict": false, "value_font_size": 8, "y_label_rotation": 0, "print_values": false, "x_labels_major_every": null, "y_labels_major_every": null, "pretty_print": false, "rounded_bars": null, "x_title": null, "label_font_size": 10, "show_x_guides": false, "include_x_axis": false, "js": ["http://kozea.github.io/pygal.js/javascripts/svg.jquery.js", "http://kozea.github.io/pygal.js/javascripts/pygal-tooltips.js"], "margin": 20, "title": "Election 6 Participation Per Hour", "style": {"stroke_style": "round", "background": "black", "plot_background": "#111", "foreground": "#999", "opacity": ".8", "opacity_hover": ".4", "stroke_dasharray": "0,0", "font_family": "monospace", "stroke_width": 1.0, "colors": ["#ff5995", "#b6e354", "#feed6c", "#8cedff", "#9e6ffe", "#899ca1", "#f8f8f2", "#bf4646", "#516083", "#f92672", "#82b414", "#fd971f", "#56c2d6", "#808384", "#8c54fe", "#465457"], "foreground_dark": "#555", "foreground_light": "#eee", "transition": "250ms"}, "no_data_font_size": 64, "fill": false, "margin_right": null, "major_label_font_size": 10, "spacing": 10, "show_dots": false, "show_only_major_dots": false, "stack_from_top": false, "legend_at_bottom": true, "tooltip_border_radius": 0, "show_legend": true, "dots_size": 2.5, "no_data_text": "No data", "css": ["style.css", "graph.css"], "human_readable": false, "show_minor_y_labels": true, "y_labels": null, "show_y_labels": true}</script><script type="text/javascript" xlink:href="http://kozea.github.io/pygal.js/javascripts/svg.jquery.js" /><script type="text/javascript" xlink:href="http://kozea.github.io/pygal.js/javascripts/pygal-tooltips.js" /></defs><title>Election 6 Participation Per Hour</title><g class="graph line-graph vertical"><rect class="background" height="768" width="1024" x="0" y="0" /><g class="plot" transform="translate(80, 46)"><rect class="background" height="657.0" width="924.0" x="0" y="0" /><g class="axis y"><g class="guides"><path class="axis major line" d="M0.000000 644.365385 h924.000000" /><text class="major" x="-5" y="647.8653846153846">0</text></g><g class="guides"><path class="guide line" d="M0.000000 517.511816 h924.000000" /><text class="" x="-5" y="521.0118164967563">1000</text></g><g class="guides"><path class="guide line" d="M0.000000 390.658248 h924.000000" /><text class="" x="-5" y="394.15824837812795">2000</text></g><g class="guides"><path class="guide line" d="M0.000000 263.804680 h924.000000" /><text class="" x="-5" y="267.3046802594996">3000</text></g><g class="guides"><path class="guide line" d="M0.000000 136.951112 h924.000000" /><text class="" x="-5" y="140.45111214087126">4000</text></g></g><g class="series serie-0 color-0"><path class="line reactive nofill" d="M17.769231 644.365385 L20.359498 644.365385 22.949765 644.365385 25.540031 644.365385 28.130298 644.365385 30.720565 644.365385 33.310832 644.365385 35.901099 644.365385 38.491366 644.365385 41.081633 644.365385 43.671900 644.365385 46.262166 644.365385 48.852433 644.365385 51.442700 644.365385 54.032967 644.365385 56.623234 644.365385 59.213501 644.365385 61.803768 644.365385 64.394035 644.365385 66.984301 644.365385 69.574568 644.365385 72.164835 644.365385 74.755102 644.365385 77.345369 644.365385 79.935636 644.365385 82.525903 644.365385 85.116170 644.365385 87.706436 644.365385 90.296703 644.365385 92.886970 644.365385 95.477237 644.365385 98.067504 644.365385 100.657771 644.365385 103.248038 644.365385 105.838305 644.365385 108.428571 644.365385 111.018838 644.365385 113.609105 644.365385 116.199372 644.365385 118.789639 644.365385 121.379906 644.365385 123.970173 644.365385 126.560440 644.365385 129.150706 644.365385 131.740973 644.365385 134.331240 644.365385 136.921507 644.365385 139.511774 644.365385 142.102041 644.365385 144.692308 644.365385 147.282575 644.365385 149.872841 644.365385 152.463108 644.365385 155.053375 644.365385 157.643642 644.365385 160.233909 644.365385 162.824176 644.365385 165.414443 644.365385 168.004710 644.365385 170.594976 644.365385 173.185243 644.365385 175.775510 644.365385 178.365777 644.365385 180.956044 644.365385 183.546311 644.365385 186.136578 644.365385 188.726845 644.365385 191.317111 644.365385 193.907378 644.365385 196.497645 644.365385 199.087912 644.365385 201.678179 644.365385 204.268446 644.365385 206.858713 644.365385 209.448980 644.365385 212.039246 644.365385 214.629513 644.365385 217.219780 644.365385 219.810047 644.365385 222.400314 644.365385 224.990581 644.365385 227.580848 644.365385 230.171115 644.365385 232.761381 644.365385 235.351648 644.365385 237.941915 644.365385 240.532182 644.365385 243.122449 644.365385 245.712716 644.365385 248.302983 644.365385 250.893250 644.365385 253.483516 644.365385 256.073783 644.365385 258.664050 644.365385 261.254317 644.365385 263.844584 644.365385 266.434851 644.365385 269.025118 644.365385 271.615385 644.365385 274.205651 644.365385 276.795918 644.365385 279.386185 644.365385 281.976452 644.365385 284.566719 644.365385 287.156986 644.365385 289.747253 644.365385 292.337520 644.365385 294.927786 644.365385 297.518053 644.365385 300.108320 644.365385 302.698587 644.365385 305.288854 644.365385 307.879121 644.365385 310.469388 644.365385 313.059655 644.365385 315.649922 644.365385 318.240188 644.365385 320.830455 644.365385 323.420722 644.365385 326.010989 644.365385 328.601256 644.365385 331.191523 644.365385 333.781790 644.365385 336.372057 644.365385 338.962323 644.365385 341.552590 644.365385 344.142857 644.365385 346.733124 644.365385 349.323391 644.365385 351.913658 644.365385 354.503925 644.365385 357.094192 644.365385 359.684458 644.365385 362.274725 644.365385 364.864992 644.365385 367.455259 644.365385 370.045526 644.365385 372.635793 644.365385 375.226060 644.365385 377.816327 644.365385 380.406593 644.365385 382.996860 644.365385 385.587127 644.365385 388.177394 644.365385 390.767661 644.365385 393.357928 644.365385 395.948195 644.365385 398.538462 644.365385 401.128728 644.365385 403.718995 644.365385 406.309262 644.365385 408.899529 644.365385 411.489796 644.365385 414.080063 644.365385 416.670330 644.365385 419.260597 644.365385 421.850863 644.365385 424.441130 644.365385 427.031397 644.365385 429.621664 644.365385 432.211931 644.365385 434.802198 644.365385 437.392465 644.365385 439.982732 644.365385 442.572998 644.365385 445.163265 644.365385 447.753532 644.365385 450.343799 644.365385 452.934066 644.365385 455.524333 644.365385 458.114600 644.365385 460.704867 644.365385 463.295133 644.365385 465.885400 644.365385 468.475667 644.365385 471.065934 644.365385 473.656201 644.365385 476.246468 644.365385 478.836735 644.365385 481.427002 644.365385 484.017268 644.365385 486.607535 644.365385 489.197802 644.365385 491.788069 644.365385 494.378336 644.365385 496.968603 644.365385 499.558870 644.365385 502.149137 644.365385 504.739403 644.365385 507.329670 644.365385 509.919937 644.365385 512.510204 644.365385 515.100471 644.365385 517.690738 644.365385 520.281005 644.365385 522.871272 644.365385 525.461538 644.365385 528.051805 644.365385 530.642072 644.365385 533.232339 644.365385 535.822606 644.365385 538.412873 644.365385 541.003140 644.365385 543.593407 644.365385 546.183673 644.365385 548.773940 644.365385 551.364207 644.365385 553.954474 644.365385 556.544741 644.365385 559.135008 644.365385 561.725275 644.365385 564.315542 644.365385 566.905808 644.365385 569.496075 644.365385 572.086342 644.365385 574.676609 644.365385 577.266876 644.365385 579.857143 644.365385 582.447410 644.365385 585.037677 644.365385 587.627943 644.365385 590.218210 644.365385 592.808477 644.365385 595.398744 644.365385 597.989011 644.365385 600.579278 644.365385 603.169545 644.365385 605.759812 644.365385 608.350078 644.365385 610.940345 644.365385 613.530612 644.365385 616.120879 644.365385 618.711146 644.365385 621.301413 644.365385 623.891680 644.365385 626.481947 644.365385 629.072214 644.365385 631.662480 644.365385 634.252747 644.365385 636.843014 644.365385 639.433281 644.365385 642.023548 644.365385 644.613815 644.365385 647.204082 644.365385 649.794349 644.365385 652.384615 644.365385 654.974882 644.365385 657.565149 644.365385 660.155416 644.365385 662.745683 644.365385 665.335950 644.365385 667.926217 644.365385 670.516484 644.365385 673.106750 644.365385 675.697017 644.365385 678.287284 644.365385 680.877551 644.365385 683.467818 644.365385 686.058085 644.365385 688.648352 644.365385 691.238619 644.365385 693.828885 644.365385 696.419152 644.365385 699.009419 644.365385 701.599686 237.926552 704.189953 457.256372 706.780220 540.599166 709.370487 582.968258 711.960754 596.541589 714.551020 602.123146 717.141287 606.309314 719.731554 600.347196 722.321821 585.885890 724.912088 587.027572 727.502355 587.661840 730.092622 579.289504 732.682889 587.154425 735.273155 579.543211 737.863422 585.632183 740.453689 596.922150 743.043956 598.951807 745.634223 599.839782 748.224490 601.996293 750.814757 605.421339 753.405024 611.002896 755.995290 606.309314 758.585557 615.062210 761.175824 609.861214 763.766091 620.770621 766.356358 624.956789 768.946625 629.269810 771.536892 631.553174 774.127159 635.105074 776.717425 634.217099 779.307692 634.978221 781.897959 635.866196 784.488226 635.231928 787.078493 631.045760 789.668760 625.844764 792.259027 627.367006 794.849294 622.039157 797.439560 626.352178 800.029827 622.927132 802.620094 623.053985 805.210361 625.591057 807.800628 625.083642 810.390895 628.635542 812.981162 624.449374 815.571429 624.956789 818.161695 625.591057 820.751962 625.971617 823.342229 627.113299 825.932496 629.396664 828.522763 628.635542 831.113030 632.821710 833.703297 630.030931 836.293564 630.538346 838.883830 628.635542 841.474097 627.367006 844.064364 625.844764 846.654631 607.831557 849.244898 592.862836 851.835165 572.185704 854.425432 550.366891 857.015699 558.358665 859.605965 563.559662 862.196232 591.848007 864.786499 598.063832 867.376766 588.169254 869.967033 586.393304 872.557300 589.818350 875.147567 602.503707 877.737834 615.062210 880.328100 623.434546 882.918367 621.278035 885.508634 622.546571 888.098901 627.747567 890.689168 627.113299 893.279435 635.485635 895.869702 637.895853 898.459969 635.612488 901.050235 638.276413 903.640502 638.149560 906.230769 643.857970" /></g><g class="series serie-1 color-1"><path class="line reactive nofill" d="M17.769231 389.770273 L20.359498 549.098355 22.949765 591.213740 25.540031 608.973239 28.130298 611.002896 30.720565 622.166010 33.310832 622.039157 35.901099 618.360403 38.491366 605.548193 41.081633 594.385079 43.671900 592.101715 46.262166 572.819972 48.852433 578.908943 51.442700 599.839782 54.032967 603.391682 56.623234 610.368628 59.213501 609.100093 61.803768 609.861214 64.394035 609.607507 66.984301 614.047382 69.574568 620.516914 72.164835 623.180839 74.755102 625.591057 77.345369 626.605885 79.935636 630.411492 82.525903 627.240153 85.116170 636.246756 87.706436 638.530120 90.296703 637.261585 92.886970 637.642146 95.477237 639.925510 98.067504 640.179217 100.657771 635.866196 103.248038 634.470806 105.838305 633.582831 108.428571 629.777224 111.018838 629.777224 113.609105 630.030931 116.199372 630.792053 118.789639 633.075417 121.379906 631.426321 123.970173 631.045760 126.560440 632.821710 129.150706 634.343953 131.740973 635.993049 134.331240 634.343953 136.921507 635.358781 139.511774 636.881024 142.102041 636.754171 144.692308 638.276413 147.282575 638.403267 149.872841 642.082020 152.463108 641.701460 155.053375 641.574606 157.643642 640.813485 160.233909 641.574606 162.824176 639.037535 165.414443 637.642146 168.004710 638.656974 170.594976 635.485635 173.185243 635.358781 175.775510 636.754171 178.365777 636.627317 180.956044 635.485635 183.546311 636.881024 186.136578 635.105074 188.726845 634.851367 191.317111 635.358781 193.907378 637.388438 196.497645 639.544949 199.087912 638.783828 201.678179 638.530120 204.268446 637.134731 206.858713 639.798656 209.448980 641.447753 212.039246 641.574606 214.629513 642.462581 217.219780 642.208874 219.810047 641.955167 222.400314 642.589435 224.990581 640.559778 227.580848 639.925510 230.171115 638.656974 232.761381 639.291242 235.351648 639.037535 237.941915 637.515292 240.532182 637.642146 243.122449 639.037535 245.712716 637.895853 248.302983 638.403267 250.893250 638.022706 253.483516 639.418095 256.073783 641.067192 258.664050 640.432924 261.254317 640.813485 263.844584 641.067192 266.434851 639.925510 269.025118 641.701460 271.615385 642.082020 274.205651 642.589435 276.795918 642.208874 279.386185 642.716288 281.976452 643.350556 284.566719 643.350556 287.156986 642.335728 289.747253 643.223703 292.337520 642.208874 294.927786 642.208874 297.518053 643.096849 300.108320 642.843142 302.698587 643.223703 305.288854 641.701460 307.879121 641.955167 310.469388 642.843142 313.059655 641.320899 315.649922 641.828313 318.240188 642.082020 320.830455 641.701460 323.420722 641.067192 326.010989 642.335728 328.601256 642.843142 331.191523 643.223703 333.781790 641.955167 336.372057 642.589435 338.962323 642.969995 341.552590 642.716288 344.142857 642.969995 346.733124 643.350556 349.323391 642.589435 351.913658 642.716288 354.503925 642.716288 357.094192 642.969995 359.684458 643.096849 362.274725 641.447753 364.864992 642.208874 367.455259 641.828313 370.045526 642.208874 372.635793 642.335728 375.226060 642.335728 377.816327 642.208874 380.406593 642.843142 382.996860 642.462581 385.587127 642.208874 388.177394 641.320899 390.767661 642.208874 393.357928 641.955167 395.948195 642.969995 398.538462 642.969995 401.128728 642.969995 403.718995 642.716288 406.309262 642.082020 408.899529 643.223703 411.489796 642.716288 414.080063 641.194045 416.670330 641.194045 419.260597 638.403267 421.850863 637.768999 424.441130 636.754171 427.031397 638.276413 429.621664 637.388438 432.211931 638.149560 434.802198 635.105074 437.392465 636.881024 439.982732 640.306070 442.572998 639.798656 445.163265 639.418095 447.753532 639.037535 450.343799 638.656974 452.934066 12.634615 455.524333 344.229842 458.114600 482.119671 460.704867 524.615616 463.295133 541.613994 465.885400 558.231812 468.475667 547.195551 471.065934 549.352062 473.656201 506.729263 476.246468 443.809893 478.836735 380.383109 481.427002 308.330283 484.017268 355.646664 486.607535 390.023981 489.197802 447.996061 491.788069 471.590825 494.378336 467.658364 496.968603 477.679796 499.558870 485.291010 502.149137 516.243281 504.739403 546.814991 507.329670 559.627201 509.919937 565.969880 512.510204 573.200533 515.100471 584.109940 517.690738 591.340593 520.281005 609.100093 522.871272 621.785449 525.461538 625.717910 528.051805 623.815107 530.642072 624.829935 533.232339 619.882646 535.822606 611.510310 538.412873 601.488879 541.003140 586.900718 543.593407 579.289504 546.183673 579.162651 548.773940 575.864458 551.364207 583.602525 553.954474 585.632183 556.544741 585.759036 559.135008 584.363647 561.725275 582.714551 564.315542 595.526761 566.905808 598.190686 569.496075 608.592678 572.086342 607.450996 574.676609 612.017725 577.266876 612.525139 579.857143 622.673424 582.447410 625.464203 585.037677 629.142956 587.627943 633.329124 590.218210 629.904078 592.808477 633.329124 595.398744 630.284639 597.989011 627.620714 600.579278 626.986446 603.169545 612.905700 605.759812 612.271432 608.350078 611.637164 610.940345 607.704703 613.530612 611.256603 616.120879 613.032553 618.711146 607.197289 621.301413 610.622335 623.891680 612.398285 626.481947 620.770621 629.072214 616.838160 631.662480 620.136353 634.252747 626.352178 636.843014 626.479032 639.433281 625.464203 642.023548 628.889249 644.613815 633.582831 647.204082 636.119903 649.794349 636.881024 652.384615 638.403267 654.974882 636.500463 657.565149 636.246756 660.155416 635.358781 662.745683 632.948563 665.335950 631.299467 667.926217 628.762396 670.516484 623.941960 673.106750 623.561399 675.697017 628.128128 678.287284 628.889249 680.877551 622.166010 683.467818 622.673424 686.058085 621.278035 688.648352 627.493860 691.238619 632.187442 693.828885 629.396664 696.419152 629.904078 699.009419 632.694856 701.599686 512.691381 704.189953 573.834801 706.780220 599.586075 709.370487 615.823332 711.960754 626.225324 714.551020 628.254981 717.141287 631.933735 719.731554 629.650371 722.321821 626.098471 724.912088 623.434546 727.502355 623.307692 730.092622 620.770621 732.682889 624.068814 735.273155 617.979842 737.863422 622.800278 740.453689 626.098471 743.043956 620.770621 745.634223 625.083642 748.224490 624.576228 750.814757 624.829935 753.405024 628.889249 755.995290 626.859592 758.585557 629.650371 761.175824 625.591057 763.766091 630.665199 766.356358 631.806881 768.946625 636.500463 771.536892 634.978221 774.127159 638.656974 776.717425 638.530120 779.307692 639.798656 781.897959 639.291242 784.488226 639.164388 787.078493 638.276413 789.668760 635.739342 792.259027 635.231928 794.849294 630.538346 797.439560 631.299467 800.029827 631.172614 802.620094 635.105074 805.210361 631.680028 807.800628 633.836538 810.390895 634.470806 812.981162 631.553174 815.571429 632.948563 818.161695 632.060589 820.751962 635.866196 823.342229 634.851367 825.932496 633.455978 828.522763 635.105074 831.113030 637.895853 833.703297 637.261585 836.293564 637.388438 838.883830 634.724513 841.474097 635.612488 844.064364 633.836538 846.654631 629.523517 849.244898 622.292864 851.835165 612.778846 854.425432 605.928753 857.015699 599.966636 859.605965 596.922150 862.196232 613.032553 864.786499 613.793675 867.376766 608.719532 869.967033 608.465825 872.557300 610.114921 875.147567 614.427943 877.737834 624.068814 880.328100 625.337349 882.918367 625.591057 885.508634 624.576228 888.098901 629.016103 890.689168 631.806881 893.279435 633.709685 895.869702 637.768999 898.459969 639.291242 901.050235 637.768999 903.640502 638.656974 906.230769 643.731117" /></g></g><g class="titles"><text class="title plot_title" x="512.0" y="26">Election 6 Participation Per Hour</text><text class="title" transform="rotate(-90 0.000000 374.500000)" x="0" y="400.5">Users</text></g><g class="plot overlay" transform="translate(80, 46)"><g class="series serie-0 color-0" /><g class="series serie-1 color-1" /></g><g class="plot text-overlay" transform="translate(80, 46)"><g class="series serie-0 color-0" /><g class="series serie-1 color-1" /></g><g class="plot tooltip-overlay" transform="translate(80, 46)"><g class="tooltip" style="opacity: 0" transform="translate(0 0)"><a><rect class="tooltip-box" height="0" rx="0" ry="0" width="0" /><text class="text"><tspan class="label" /><tspan class="value" /></text></a></g></g><g class="legends" transform="translate(90, 713)"><g class="legend reactive activate-serie" id="activate-serie-0"><rect class="color-0 reactive" height="12" width="12" x="0.0" y="1.0" /><text x="17.0" y="11.2">constituents</text></g><g class="legend reactive activate-serie" id="activate-serie-1"><rect class="color-1 reactive" height="12" width="12" x="462.0" y="1.0" /><text x="479.0" y="11.2">caucus</text></g></g></g></svg>