<?xml version='1.0' encoding='utf-8'?>
<svg xmlns:xlink="http://www.w3.org/1999/xlink" class="pygal-chart" id="chart-38e2f7a5-7427-4a00-b77d-9c80447c5890" viewBox="0 0 1024 768" xmlns="http://www.w3.org/2000/svg"><!--Generated with pygal 1.7.0 (etree) ©Kozea 2011-2014 on 2018-03-25--><!--http://pygal.org--><!--http://github.com/Kozea/pygal--><defs><style type="text/css">#chart-38e2f7a5-7427-4a00-b77d-9c80447c5890 .title{font-family:"monospace";font-size:16px}#chart-38e2f7a5-7427-4a00-b77d-9c80447c5890 .legends .legend text{font-family:"monospace";font-size:14px}#chart-38e2f7a5-7427-4a00-b77d-9c80447c5890 .axis text{font-family:"monospace";font-size:10px}#chart-38e2f7a5-7427-4a00-b77d-9c80447c5890 .axis text.major{font-family:"monospace";font-size:10px}#chart-38e2f7a5-7427-4a00-b77d-9c80447c5890 .series text{font-family:"monospace";font-size:8px}#chart-38e2f7a5-7427-4a00-b77d-9c80447c5890 .tooltip text{font-family:"monospace";font-size:16px}#chart-38e2f7a5-7427-4a00-b77d-9c80447c5890 text.no_data{font-size:64px}
#chart-38e2f7a5-7427-4a00-b77d-9c80447c5890{background-color:black}#chart-38e2f7a5-7427-4a00-b77d-9c80447c5890 path,#chart-38e2f7a5-7427-4a00-b77d-9c80447c5890 line,#chart-38e2f7a5-7427-4a00-b77d-9c80447c5890 rect,#chart-38e2f7a5-7427-4a00-b77d-9c80447c5890 circle{-webkit-transition:250ms;-moz-transition:250ms;transition:250ms}#chart-38e2f7a5-7427-4a00-b77d-9c80447c5890 .graph &gt; .background{fill:black}#chart-38e2f7a5-7427-4a00-b77d-9c80447c5890 .plot &gt; .background{fill:#111}#chart-38e2f7a5-7427-4a00-b77d-9c80447c5890 .graph{fill:#999}#chart-38e2f7a5-7427-4a00-b77d-9c80447c5890 text.no_data{fill:#eee}#chart-38e2f7a5-7427-4a00-b77d-9c80447c5890 .title{fill:#eee}#chart-38e2f7a5-7427-4a00-b77d-9c80447c5890 .legends .legend text{fill:#999}#chart-38e2f7a5-7427-4a00-b77d-9c80447c5890 .legends .legend:hover text{fill:#eee}#chart-38e2f7a5-7427-4a00-b77d-9c80447c5890 .axis .line{stroke:#eee}#chart-38e2f7a5-7427-4a00-b77d-9c80447c5890 .axis .guide.line{stroke:#555}#chart-38e2f7a5-7427-4a00-b77d-9c80447c5890 .axis .major.line{stroke:#999}#chart-38e2f7a5-7427-4a00-b77d-9c80447c5890 .axis text.major{stroke:#eee;fill:#eee}#chart-38e2f7a5-7427-4a00-b77d-9c80447c5890 .axis.y .guides:hover .guide.line,#chart-38e2f7a5-7427-4a00-b77d-9c80447c5890 .line-graph .axis.x .guides:hover .guide.line,#chart-38e2f7a5-7427-4a00-b77d-9c80447c5890 .stackedline-graph .axis.x .guides:hover .guide.line,#chart-38e2f7a5-7427-4a00-b77d-9c80447c5890 .xy-graph .axis.x .guides:hover .guide.line{stroke:#eee}#chart-38e2f7a5-7427-4a00-b77d-9c80447c5890 .axis .guides:hover text{fill:#eee}#chart-38e2f7a5-7427-4a00-b77d-9c80447c5890 .reactive{fill-opacity:.8}#chart-38e2f7a5-7427-4a00-b77d-9c80447c5890 .reactive.active,#chart-38e2f7a5-7427-4a00-b77d-9c80447c5890 .active .reactive{fill-opacity:.4}#chart-38e2f7a5-7427-4a00-b77d-9c80447c5890 .series{stroke-width:1.0;stroke-linejoin:round;stroke-linecap:round;stroke-dasharray:0,0}#chart-38e2f7a5-7427-4a00-b77d-9c80447c5890 .series text{fill:#eee}#chart-38e2f7a5-7427-4a00-b77d-9c80447c5890 .tooltip rect{fill:#111;stroke:#eee}#chart-38e2f7a5-7427-4a00-b77d-9c80447c5890 .tooltip text{fill:#eee}#chart-38e2f7a5-7427-4a00-b77d-9c80447c5890 .map-element{fill:#999;stroke:#555 !important;opacity:.9;stroke-width:3;-webkit-transition:250ms;-moz-transition:250ms;-o-transition:250ms;transition:250ms}#chart-38e2f7a5-7427-4a00-b77d-9c80447c5890 .map-element:hover{opacity:1;stroke-width:10}#chart-38e2f7a5-7427-4a00-b77d-9c80447c5890 .color-0,#chart-38e2f7a5-7427-4a00-b77d-9c80447c5890 .color-0 a:visited{stroke:#ff5995;fill:#ff5995}#chart-38e2f7a5-7427-4a00-b77d-9c80447c5890 .color-1,#chart-38e2f7a5-7427-4a00-b77d-9c80447c5890 .color-1 a:visited{stroke:#b6e354;fill:#b6e354}#chart-38e2f7a5-7427-4a00-b77d-9c80447c5890 .color-2,#chart-38e2f7a5-7427-4a00-b77d-9c80447c5890 .color-2 a:visited{stroke:#feed6c;fill:#feed6c}#chart-38e2f7a5-7427-4a00-b77d-9c80447c5890 .color-3,#chart-38e2f7a5-7427-4a00-b77d-9c80447c5890 .color-3 a:visited{stroke:#8cedff;fill:#8cedff}#chart-38e2f7a5-7427-4a00-b77d-9c80447c5890 .color-4,#chart-38e2f7a5-7427-4a00-b77d-9c80447c5890 .color-4 a:visited{stroke:#9e6ffe;fill:#9e6ffe}#chart-38e2f7a5-7427-4a00-b77d-9c80447c5890 .color-5,#chart-38e2f7a5-7427-4a00-b77d-9c80447c5890 .color-5 a:visited{stroke:#899ca1;fill:#899ca1}#chart-38e2f7a5-7427-4a00-b77d-9c80447c5890 .color-6,#chart-38e2f7a5-7427-4a00-b77d-9c80447c5890 .color-6 a:visited{stroke:#f8f8f2;fill:#f8f8f2}#chart-38e2f7a5-7427-4a00-b77d-9c80447c5890 .color-7,#chart-38e2f7a5-7427-4a00-b77d-9c80447c5890 .color-7 a:visited{stroke:#bf4646;fill:#bf4646}#chart-38e2f7a5-7427-4a00-b77d-9c80447c5890 .color-8,#chart-38e2f7a5-7427-4a00-b77d-9c80447c5890 .color-8 a:visited{stroke:#516083;fill:#516083}#chart-38e2f7a5-7427-4a00-b77d-9c80447c5890 .color-9,#chart-38e2f7a5-7427-4a00-b77d-9c80447c5890 .color-9 a:visited{stroke:#f92672;fill:#f92672}#chart-38e2f7a5-7427-4a00-b77d-9c80447c5890 .color-10,#chart-38e2f7a5-7427-4a00-b77d-9c80447c5890 .color-10 a:visited{stroke:#82b414;fill:#82b414}#chart-38e2f7a5-7427-4a00-b77d-9c80447c5890 .color-11,#chart-38e2f7a5-7427-4a00-b77d-9c80447c5890 .color-11 a:visited{stroke:#fd971f;fill:#fd971f}#chart-38e2f7a5-7427-4a00-b77d-9c80447c5890 .color-12,#chart-38e2f7a5-7427-4a00-b77d-9c80447c5890 .color-12 a:visited{stroke:#56c2d6;fill:#56c2d6}#chart-38e2f7a5-7427-4a00-b77d-9c80447c5890 .color-13,#chart-38e2f7a5-7427-4a00-b77d-9c80447c5890 .color-13 a:visited{stroke:#808384;fill:#808384}#chart-38e2f7a5-7427-4a00-b77d-9c80447c5890 .color-14,#chart-38e2f7a5-7427-4a00-b77d-9c80447c5890 .color-14 a:visited{stroke:#8c54fe;fill:#8c54fe}#chart-38e2f7a5-7427-4a00-b77d-9c80447c5890 .color-15,#chart-38e2f7a5-7427-4a00-b77d-9c80447c5890 .color-15 a:visited{stroke:#465457;fill:#465457}
#chart-38e2f7a5-7427-4a00-b77d-9c80447c5890 text.no_data{text-anchor:middle}#chart-38e2f7a5-7427-4a00-b77d-9c80447c5890 .guide.line{fill-opacity:0}#chart-38e2f7a5-7427-4a00-b77d-9c80447c5890 .centered{text-anchor:middle}#chart-38e2f7a5-7427-4a00-b77d-9c80447c5890 .title{text-anchor:middle}#chart-38e2f7a5-7427-4a00-b77d-9c80447c5890 .legends .legend text{fill-opacity:1}#chart-38e2f7a5-7427-4a00-b77d-9c80447c5890 .axis.x text{text-anchor:middle}#chart-38e2f7a5-7427-4a00-b77d-9c80447c5890 .axis.x:not(.web) text[transform]{text-anchor:start}#chart-38e2f7a5-7427-4a00-b77d-9c80447c5890 .axis.y text{text-anchor:end}#chart-38e2f7a5-7427-4a00-b77d-9c80447c5890 .axis.y2 text{text-anchor:start}#chart-38e2f7a5-7427-4a00-b77d-9c80447c5890 .axis.y .logarithmic text:not(.major),#chart-38e2f7a5-7427-4a00-b77d-9c80447c5890 .axis.y2 .logarithmic text:not(.major){font-size:50%}#chart-38e2f7a5-7427-4a00-b77d-9c80447c5890 .axis .guide.line{stroke-dasharray:4,4}#chart-38e2f7a5-7427-4a00-b77d-9c80447c5890 .axis .major.guide.line{stroke-dasharray:6,6}#chart-38e2f7a5-7427-4a00-b77d-9c80447c5890 .axis text.major{stroke-width:0.5px}#chart-38e2f7a5-7427-4a00-b77d-9c80447c5890 .horizontal .axis.y .guide.line,#chart-38e2f7a5-7427-4a00-b77d-9c80447c5890 .horizontal .axis.y2 .guide.line,#chart-38e2f7a5-7427-4a00-b77d-9c80447c5890 .vertical .axis.x .guide.line{opacity:0}#chart-38e2f7a5-7427-4a00-b77d-9c80447c5890 .horizontal .axis.always_show .guide.line,#chart-38e2f7a5-7427-4a00-b77d-9c80447c5890 .vertical .axis.always_show .guide.line{opacity:1 !important}#chart-38e2f7a5-7427-4a00-b77d-9c80447c5890 .axis.y .guides:hover .guide.line,#chart-38e2f7a5-7427-4a00-b77d-9c80447c5890 .axis.y2 .guides:hover .guide.line,#chart-38e2f7a5-7427-4a00-b77d-9c80447c5890 .axis.x .guides:hover .guide.line{opacity:1}#chart-38e2f7a5-7427-4a00-b77d-9c80447c5890 .axis .guides:hover text{opacity:1}#chart-38e2f7a5-7427-4a00-b77d-9c80447c5890 .nofill{fill:none}#chart-38e2f7a5-7427-4a00-b77d-9c80447c5890 .subtle-fill{fill-opacity:.2}#chart-38e2f7a5-7427-4a00-b77d-9c80447c5890 .dot{stroke-width:1px;fill-opacity:1}#chart-38e2f7a5-7427-4a00-b77d-9c80447c5890 .dot.active{stroke-width:5px}#chart-38e2f7a5-7427-4a00-b77d-9c80447c5890 .series text{stroke:none}#chart-38e2f7a5-7427-4a00-b77d-9c80447c5890 .series text.active{opacity:1}#chart-38e2f7a5-7427-4a00-b77d-9c80447c5890 .tooltip rect{fill-opacity:0.8}#chart-38e2f7a5-7427-4a00-b77d-9c80447c5890 .tooltip text{fill-opacity:1}#chart-38e2f7a5-7427-4a00-b77d-9c80447c5890 .tooltip text tspan.label{fill-opacity:.8}</style><script type="text/javascript">window.config = {"css": ["style.css", "graph.css"], "disable_xml_declaration": false, "dots_size": 2.5, "explicit_size": false, "fill": false, "half_pie": false, "height": 768, "human_readable": false, "include_x_axis": false, "inner_radius": 0, "interpolate": null, "interpolation_parameters": {}, "interpolation_precision": 250, "js": ["http://kozea.github.io/pygal.js/javascripts/svg.jquery.js", "http://kozea.github.io/pygal.js/javascripts/pygal-tooltips.js"], "label_font_size": 10, "legend_at_bottom": true, "legend_at_bottom_columns": null, "legend_box_size": 12, "legend_font_size": 14, "logarithmic": false, "major_label_font_size": 10, "margin": 20, "margin_bottom": null, "margin_left": null, "margin_right": null, "margin_top": null, "missing_value_fill_truncation": "x", "mode": null, "no_data_font_size": 64, "no_data_text": "No data", "no_prefix": false, "order_min": null, "pretty_print": false, "print_values": false, "print_zeroes": false, "range": [0, 1000], "rounded_bars": null, "show_dots": false, "show_legend": true, "show_minor_x_labels": true, "show_minor_y_labels": true, "show_only_major_dots": false, "show_x_guides": false, "show_x_labels": true, "show_y_guides": true, "show_y_labels": true, "spacing": 10, "stack_from_top": false, "strict": false, "stroke": true, "style": {"background": "black", "colors": ["#ff5995", "#b6e354", "#feed6c", "#8cedff", "#9e6ffe", "#899ca1", "#f8f8f2", "#bf4646", "#516083", "#f92672", "#82b414", "#fd971f", "#56c2d6", "#808384", "#8c54fe", "#465457"], "font_family": "monospace", "foreground": "#999", "foreground_dark": "#555", "foreground_light": "#eee", "opacity": ".8", "opacity_hover": ".4", "plot_background": "#111", "stroke_dasharray": "0,0", "stroke_style": "round", "stroke_width": 1.0, "transition": "250ms"}, "title": "Election stackoverflow.com-3 Participation Per Hour", "title_font_size": 16, "tooltip_border_radius": 0, "tooltip_font_size": 16, "truncate_label": null, "truncate_legend": null, "value_font_size": 8, "width": 1024, "x_label_format": "%Y-%m-%d %H:%M:%S.%f", "x_label_rotation": 0, "x_labels": null, "x_labels_major": null, "x_labels_major_count": null, "x_labels_major_every": null, "x_title": null, "x_value_formatter": null, "xrange": null, "y_label_rotation": 0, "y_labels": null, "y_labels_major": null, "y_labels_major_count": null, "y_labels_major_every": null, "y_title": "Users", "zero": 0}</script><script type="text/javascript" xlink:href="http://kozea.github.io/pygal.js/javascripts/svg.jquery.js" /><script type="text/javascript" xlink:href="http://kozea.github.io/pygal.js/javascripts/pygal-tooltips.js" /></defs><title>Election stackoverflow.com-3 Participation Per Hour</title><g class="graph line-graph vertical"><rect class="background" height="768" width="1024" x="0" y="0" /><g class="plot" transform="translate(80, 46)"><rect class="background" height="657.0" width="924.0" x="0" y="0" /><g class="axis y"><g class="guides"><path class="axis major line" d="M0.000000 644.365385 h924.000000" /><text class="major" x="-5" y="647.8653846153846">0</text></g><g class="guides"><path class="guide line" d="M0.000000 581.192308 h924.000000" /><text class="" x="-5" y="584.6923076923077">100</text></g><g class="guides"><path class="guide line" d="M0.000000 518.019231 h924.000000" /><text class="" x="-5" y="521.5192307692307">200</text></g><g class="guides"><path class="guide line" d="M0.000000 454.846154 h924.000000" /><text class="" x="-5" y="458.3461538461538">300</text></g><g class="guides"><path class="guide line" d="M0.000000 391.673077 h924.000000" /><text class="" x="-5" y="395.1730769230769">400</text></g><g class="guides"><path class="major guide line" d="M0.000000 328.500000 h924.000000" /><text class="major" x="-5" y="332.0">500</text></g><g class="guides"><path class="guide line" d="M0.000000 265.326923 h924.000000" /><text class="" x="-5" y="268.8269230769231">600</text></g><g class="guides"><path class="guide line" d="M0.000000 202.153846 h924.000000" /><text class="" x="-5" y="205.65384615384613">700</text></g><g class="guides"><path class="guide line" d="M0.000000 138.980769 h924.000000" /><text class="" x="-5" y="142.48076923076928">800</text></g><g class="guides"><path class="guide line" d="M0.000000 75.807692 h924.000000" /><text class="" x="-5" y="79.30769230769226">900</text></g><g class="guides"><path class="major guide line" d="M0.000000 12.634615 h924.000000" /><text class="major" x="-5" y="16.13461538461536">1000</text></g></g><g class="series serie-0 color-0"><path class="line reactive nofill" d="M17.769231 644.365385 L20.237179 644.365385 22.705128 644.365385 25.173077 644.365385 27.641026 644.365385 30.108974 644.365385 32.576923 644.365385 35.044872 644.365385 37.512821 644.365385 39.980769 644.365385 42.448718 644.365385 44.916667 644.365385 47.384615 644.365385 49.852564 644.365385 52.320513 644.365385 54.788462 644.365385 57.256410 644.365385 59.724359 644.365385 62.192308 644.365385 64.660256 644.365385 67.128205 644.365385 69.596154 644.365385 72.064103 644.365385 74.532051 644.365385 77.000000 644.365385 79.467949 644.365385 81.935897 644.365385 84.403846 644.365385 86.871795 644.365385 89.339744 644.365385 91.807692 644.365385 94.275641 644.365385 96.743590 644.365385 99.211538 644.365385 101.679487 644.365385 104.147436 644.365385 106.615385 644.365385 109.083333 644.365385 111.551282 644.365385 114.019231 644.365385 116.487179 644.365385 118.955128 644.365385 121.423077 644.365385 123.891026 644.365385 126.358974 644.365385 128.826923 644.365385 131.294872 644.365385 133.762821 644.365385 136.230769 644.365385 138.698718 644.365385 141.166667 644.365385 143.634615 644.365385 146.102564 644.365385 148.570513 644.365385 151.038462 644.365385 153.506410 644.365385 155.974359 644.365385 158.442308 644.365385 160.910256 644.365385 163.378205 644.365385 165.846154 644.365385 168.314103 644.365385 170.782051 644.365385 173.250000 644.365385 175.717949 644.365385 178.185897 644.365385 180.653846 644.365385 183.121795 644.365385 185.589744 644.365385 188.057692 644.365385 190.525641 644.365385 192.993590 644.365385 195.461538 644.365385 197.929487 644.365385 200.397436 644.365385 202.865385 644.365385 205.333333 644.365385 207.801282 644.365385 210.269231 644.365385 212.737179 644.365385 215.205128 644.365385 217.673077 644.365385 220.141026 644.365385 222.608974 644.365385 225.076923 644.365385 227.544872 644.365385 230.012821 644.365385 232.480769 644.365385 234.948718 644.365385 237.416667 644.365385 239.884615 644.365385 242.352564 644.365385 244.820513 644.365385 247.288462 644.365385 249.756410 644.365385 252.224359 644.365385 254.692308 644.365385 257.160256 644.365385 259.628205 644.365385 262.096154 644.365385 264.564103 644.365385 267.032051 644.365385 269.500000 644.365385 271.967949 644.365385 274.435897 644.365385 276.903846 644.365385 279.371795 644.365385 281.839744 644.365385 284.307692 644.365385 286.775641 644.365385 289.243590 644.365385 291.711538 644.365385 294.179487 644.365385 296.647436 644.365385 299.115385 644.365385 301.583333 644.365385 304.051282 644.365385 306.519231 644.365385 308.987179 644.365385 311.455128 644.365385 313.923077 644.365385 316.391026 644.365385 318.858974 644.365385 321.326923 644.365385 323.794872 644.365385 326.262821 644.365385 328.730769 644.365385 331.198718 644.365385 333.666667 644.365385 336.134615 644.365385 338.602564 644.365385 341.070513 644.365385 343.538462 644.365385 346.006410 644.365385 348.474359 644.365385 350.942308 644.365385 353.410256 644.365385 355.878205 644.365385 358.346154 644.365385 360.814103 644.365385 363.282051 644.365385 365.750000 644.365385 368.217949 644.365385 370.685897 644.365385 373.153846 644.365385 375.621795 644.365385 378.089744 644.365385 380.557692 644.365385 383.025641 644.365385 385.493590 644.365385 387.961538 644.365385 390.429487 644.365385 392.897436 644.365385 395.365385 644.365385 397.833333 644.365385 400.301282 644.365385 402.769231 644.365385 405.237179 644.365385 407.705128 644.365385 410.173077 644.365385 412.641026 644.365385 415.108974 644.365385 417.576923 644.365385 420.044872 644.365385 422.512821 588.773077 424.980769 425.786538 427.448718 551.500962 429.916667 593.826923 432.384615 609.620192 434.852564 620.991346 437.320513 619.096154 439.788462 624.150000 442.256410 622.254808 444.724359 617.200962 447.192308 623.518269 449.660256 613.410577 452.128205 612.778846 454.596154 616.569231 457.064103 608.988462 459.532051 610.883654 462.000000 620.359615 464.467949 610.883654 466.935897 614.042308 469.403846 620.991346 471.871795 613.410577 474.339744 615.937500 476.807692 616.569231 479.275641 627.308654 481.743590 615.937500 484.211538 621.623077 486.679487 622.254808 489.147436 620.359615 491.615385 634.257692 494.083333 632.994231 496.551282 638.679808 499.019231 635.521154 501.487179 629.835577 503.955128 634.889423 506.423077 630.467308 508.891026 629.835577 511.358974 626.045192 513.826923 627.308654 516.294872 624.150000 518.762821 626.676923 521.230769 631.099038 523.698718 628.572115 526.166667 622.886538 528.634615 626.676923 531.102564 627.308654 533.570513 619.727885 536.038462 624.150000 538.506410 631.099038 540.974359 631.099038 543.442308 631.099038 545.910256 622.886538 548.378205 632.994231 550.846154 632.362500 553.314103 633.625962 555.782051 632.362500 558.250000 632.362500 560.717949 630.467308 563.185897 626.045192 565.653846 610.883654 568.121795 612.147115 570.589744 609.620192 573.057692 590.036538 575.525641 600.775962 577.993590 595.090385 580.461538 593.195192 582.929487 589.404808 585.397436 590.668269 587.865385 587.509615 590.333333 608.988462 592.801282 605.829808 595.269231 612.778846 597.737179 620.359615 600.205128 616.569231 602.673077 612.147115 605.141026 617.200962 607.608974 625.413462 610.076923 626.045192 612.544872 634.257692 615.012821 636.152885 617.480769 636.152885 619.948718 634.257692 622.416667 629.835577 624.884615 628.572115 627.352564 615.937500 629.820513 622.886538 632.288462 612.147115 634.756410 606.461538 637.224359 614.042308 639.692308 615.937500 642.160256 611.515385 644.628205 610.251923 647.096154 615.305769 649.564103 608.988462 652.032051 610.883654 654.500000 608.988462 656.967949 605.198077 659.435897 602.671154 661.903846 644.365385 664.371795 644.365385 666.839744 644.365385 669.307692 644.365385 671.775641 644.365385 674.243590 644.365385 676.711538 644.365385 679.179487 644.365385 681.647436 644.365385 684.115385 644.365385 686.583333 644.365385 689.051282 644.365385 691.519231 644.365385 693.987179 644.365385 696.455128 644.365385 698.923077 644.365385 701.391026 644.365385 703.858974 644.365385 706.326923 644.365385 708.794872 644.365385 711.262821 644.365385 713.730769 644.365385 716.198718 644.365385 718.666667 644.365385 721.134615 644.365385 723.602564 644.365385 726.070513 644.365385 728.538462 644.365385 731.006410 644.365385 733.474359 644.365385 735.942308 644.365385 738.410256 644.365385 740.878205 644.365385 743.346154 644.365385 745.814103 644.365385 748.282051 644.365385 750.750000 644.365385 753.217949 644.365385 755.685897 644.365385 758.153846 644.365385 760.621795 644.365385 763.089744 644.365385 765.557692 644.365385 768.025641 644.365385 770.493590 644.365385 772.961538 644.365385 775.429487 644.365385 777.897436 644.365385 780.365385 644.365385 782.833333 644.365385 785.301282 644.365385 787.769231 644.365385 790.237179 644.365385 792.705128 644.365385 795.173077 644.365385 797.641026 644.365385 800.108974 644.365385 802.576923 644.365385 805.044872 644.365385 807.512821 644.365385 809.980769 644.365385 812.448718 644.365385 814.916667 644.365385 817.384615 644.365385 819.852564 644.365385 822.320513 644.365385 824.788462 644.365385 827.256410 644.365385 829.724359 644.365385 832.192308 644.365385 834.660256 644.365385 837.128205 644.365385 839.596154 644.365385 842.064103 644.365385 844.532051 644.365385 847.000000 644.365385 849.467949 644.365385 851.935897 644.365385 854.403846 644.365385 856.871795 644.365385 859.339744 644.365385 861.807692 644.365385 864.275641 644.365385 866.743590 644.365385 869.211538 644.365385 871.679487 644.365385 874.147436 644.365385 876.615385 644.365385 879.083333 644.365385 881.551282 644.365385 884.019231 644.365385 886.487179 644.365385 888.955128 644.365385 891.423077 644.365385 893.891026 644.365385 896.358974 644.365385 898.826923 644.365385 901.294872 644.365385 903.762821 644.365385 906.230769 644.365385" /></g><g class="series serie-1 color-1"><path class="line reactive nofill" d="M17.769231 -1825.701923 L20.237179 601.407692 22.705128 613.410577 25.173077 619.727885 27.641026 612.147115 30.108974 616.569231 32.576923 618.464423 35.044872 621.623077 37.512821 609.620192 39.980769 608.988462 42.448718 612.147115 44.916667 598.880769 47.384615 607.093269 49.852564 614.042308 52.320513 612.147115 54.788462 612.778846 57.256410 607.725000 59.724359 607.093269 62.192308 615.305769 64.660256 617.200962 67.128205 619.096154 69.596154 618.464423 72.064103 617.832692 74.532051 622.886538 77.000000 624.781731 79.467949 631.099038 81.935897 633.625962 84.403846 628.572115 86.871795 630.467308 89.339744 628.572115 91.807692 634.889423 94.275641 625.413462 96.743590 622.254808 99.211538 624.150000 101.679487 626.045192 104.147436 623.518269 106.615385 622.886538 109.083333 624.150000 111.551282 623.518269 114.019231 622.886538 116.487179 622.886538 118.955128 625.413462 121.423077 619.096154 123.891026 616.569231 126.358974 622.886538 128.826923 617.832692 131.294872 614.674038 133.762821 624.781731 136.230769 627.940385 138.698718 626.045192 141.166667 632.994231 143.634615 627.940385 146.102564 622.886538 148.570513 626.676923 151.038462 618.464423 153.506410 619.727885 155.974359 599.512500 158.442308 598.249038 160.910256 609.620192 163.378205 605.198077 165.846154 593.195192 168.314103 595.722115 170.782051 580.560577 173.250000 584.350962 175.717949 588.773077 178.185897 605.198077 180.653846 606.461538 183.121795 613.410577 185.589744 586.877885 188.057692 53.065385 190.525641 344.925000 192.993590 492.750000 195.461538 539.498077 197.929487 548.342308 200.397436 568.557692 202.865385 566.030769 205.333333 564.767308 207.801282 506.648077 210.269231 499.067308 212.737179 442.211538 215.205128 446.633654 217.673077 441.579808 220.141026 472.534615 222.608974 485.169231 225.076923 511.070192 227.544872 486.432692 230.012821 485.169231 232.480769 513.597115 234.948718 523.073077 237.416667 547.710577 239.884615 542.025000 242.352564 558.450000 244.820513 568.557692 247.288462 572.979808 249.756410 581.192308 252.224359 598.880769 254.692308 617.200962 257.160256 615.305769 259.628205 620.359615 262.096154 619.096154 264.564103 614.674038 267.032051 610.251923 269.500000 599.512500 271.967949 582.455769 274.435897 576.770192 276.903846 568.557692 279.371795 578.665385 281.839744 583.087500 284.307692 584.350962 286.775641 560.345192 289.243590 572.348077 291.711538 583.719231 294.179487 584.982692 296.647436 607.093269 299.115385 602.039423 301.583333 591.300000 304.051282 592.563462 306.519231 601.407692 308.987179 603.934615 311.455128 613.410577 313.923077 620.359615 316.391026 631.099038 318.858974 629.203846 321.326923 632.362500 323.794872 631.099038 326.262821 619.727885 328.730769 611.515385 331.198718 608.988462 333.666667 605.829808 336.134615 610.883654 338.602564 595.722115 341.070513 605.829808 343.538462 603.934615 346.006410 598.249038 348.474359 605.198077 350.942308 588.773077 353.410256 609.620192 355.878205 605.829808 358.346154 614.042308 360.814103 618.464423 363.282051 613.410577 365.750000 617.832692 368.217949 619.096154 370.685897 621.623077 373.153846 632.362500 375.621795 637.416346 378.089744 632.994231 380.557692 636.784615 383.025641 633.625962 385.493590 631.730769 387.961538 626.045192 390.429487 616.569231 392.897436 620.359615 395.365385 618.464423 397.833333 614.674038 400.301282 617.200962 402.769231 619.727885 405.237179 609.620192 407.705128 619.727885 410.173077 614.042308 412.641026 615.937500 415.108974 622.886538 417.576923 615.937500 420.044872 632.362500 422.512821 610.251923 424.980769 550.869231 427.448718 606.461538 429.916667 623.518269 432.384615 632.362500 434.852564 632.994231 437.320513 632.994231 439.788462 630.467308 442.256410 631.730769 444.724359 637.416346 447.192308 635.521154 449.660256 631.730769 452.128205 634.889423 454.596154 632.362500 457.064103 634.257692 459.532051 629.203846 462.000000 632.994231 464.467949 626.676923 466.935897 632.994231 469.403846 630.467308 471.871795 634.257692 474.339744 632.994231 476.807692 632.362500 479.275641 631.099038 481.743590 632.362500 484.211538 634.257692 486.679487 629.203846 489.147436 634.889423 491.615385 636.784615 494.083333 638.048077 496.551282 638.679808 499.019231 639.311538 501.487179 638.679808 503.955128 638.679808 506.423077 639.943269 508.891026 638.679808 511.358974 636.784615 513.826923 638.679808 516.294872 634.257692 518.762821 634.889423 521.230769 637.416346 523.698718 633.625962 526.166667 632.994231 528.634615 636.152885 531.102564 632.362500 533.570513 628.572115 536.038462 635.521154 538.506410 636.152885 540.974359 634.257692 543.442308 636.152885 545.910256 636.152885 548.378205 637.416346 550.846154 640.575000 553.314103 634.889423 555.782051 637.416346 558.250000 636.784615 560.717949 636.784615 563.185897 634.889423 565.653846 627.308654 568.121795 629.835577 570.589744 621.623077 573.057692 615.937500 575.525641 623.518269 577.993590 619.096154 580.461538 617.200962 582.929487 612.778846 585.397436 615.305769 587.865385 619.727885 590.333333 619.727885 592.801282 624.781731 595.269231 624.781731 597.737179 625.413462 600.205128 626.676923 602.673077 625.413462 605.141026 631.099038 607.608974 631.099038 610.076923 636.152885 612.544872 638.679808 615.012821 637.416346 617.480769 641.206731 619.948718 636.152885 622.416667 634.889423 624.884615 636.784615 627.352564 624.781731 629.820513 631.099038 632.288462 626.045192 634.756410 624.150000 637.224359 627.308654 639.692308 622.254808 642.160256 619.727885 644.628205 624.781731 647.096154 620.359615 649.564103 620.991346 652.032051 621.623077 654.500000 624.781731 656.967949 623.518269 659.435897 622.886538 661.903846 644.365385 664.371795 644.365385 666.839744 644.365385 669.307692 644.365385 671.775641 644.365385 674.243590 644.365385 676.711538 644.365385 679.179487 644.365385 681.647436 644.365385 684.115385 644.365385 686.583333 644.365385 689.051282 644.365385 691.519231 644.365385 693.987179 644.365385 696.455128 644.365385 698.923077 644.365385 701.391026 644.365385 703.858974 644.365385 706.326923 644.365385 708.794872 644.365385 711.262821 644.365385 713.730769 644.365385 716.198718 644.365385 718.666667 644.365385 721.134615 644.365385 723.602564 644.365385 726.070513 644.365385 728.538462 644.365385 731.006410 644.365385 733.474359 644.365385 735.942308 644.365385 738.410256 644.365385 740.878205 644.365385 743.346154 644.365385 745.814103 644.365385 748.282051 644.365385 750.750000 644.365385 753.217949 644.365385 755.685897 644.365385 758.153846 644.365385 760.621795 644.365385 763.089744 644.365385 765.557692 644.365385 768.025641 644.365385 770.493590 644.365385 772.961538 644.365385 775.429487 644.365385 777.897436 643.733654 780.365385 644.365385 782.833333 644.365385 785.301282 644.365385 787.769231 644.365385 790.237179 644.365385 792.705128 644.365385 795.173077 644.365385 797.641026 644.365385 800.108974 644.365385 802.576923 644.365385 805.044872 644.365385 807.512821 644.365385 809.980769 644.365385 812.448718 644.365385 814.916667 644.365385 817.384615 644.365385 819.852564 643.733654 822.320513 644.365385 824.788462 644.365385 827.256410 644.365385 829.724359 644.365385 832.192308 644.365385 834.660256 644.365385 837.128205 644.365385 839.596154 644.365385 842.064103 644.365385 844.532051 644.365385 847.000000 644.365385 849.467949 644.365385 851.935897 644.365385 854.403846 644.365385 856.871795 644.365385 859.339744 644.365385 861.807692 644.365385 864.275641 644.365385 866.743590 644.365385 869.211538 644.365385 871.679487 644.365385 874.147436 644.365385 876.615385 644.365385 879.083333 644.365385 881.551282 644.365385 884.019231 644.365385 886.487179 644.365385 888.955128 644.365385 891.423077 644.365385 893.891026 644.365385 896.358974 644.365385 898.826923 644.365385 901.294872 644.365385 903.762821 644.365385 906.230769 644.365385" /></g></g><g class="titles"><text class="title plot_title" x="512.0" y="26">Election stackoverflow.com-3 Participation Per Hour</text><text class="title" transform="rotate(-90 0.000000 374.500000)" x="0" y="400.5">Users</text></g><g class="plot overlay" transform="translate(80, 46)"><g class="series serie-0 color-0" /><g class="series serie-1 color-1" /></g><g class="plot text-overlay" transform="translate(80, 46)"><g class="series serie-0 color-0" /><g class="series serie-1 color-1" /></g><g class="plot tooltip-overlay" transform="translate(80, 46)"><g class="tooltip" style="opacity: 0" transform="translate(0 0)"><a><rect class="tooltip-box" height="0" rx="0" ry="0" width="0" /><text class="text"><tspan class="label" /><tspan class="value" /></text></a></g></g><g class="legends" transform="translate(90, 713)"><g class="legend reactive activate-serie" id="activate-serie-0"><rect class="color-0 reactive" height="12" width="12" x="0.0" y="1.0" /><text x="17.0" y="11.2">constituents</text></g><g class="legend reactive activate-serie" id="activate-serie-1"><rect class="color-1 reactive" height="12" width="12" x="462.0" y="1.0" /><text x="479.0" y="11.2">caucus</text></g></g></g></svg>