<?xml version='1.0' encoding='utf-8'?>
<svg xmlns:xlink="http://www.w3.org/1999/xlink" class="pygal-chart" id="chart-1ec639f6-8b96-4ccb-82cb-d97876ec9b08" viewBox="0 0 1024 768" xmlns="http://www.w3.org/2000/svg"><!--Generated with pygal 1.7.0 (etree) ©Kozea 2011-2014 on 2015-04-20--><!--http://pygal.org--><!--http://github.com/Kozea/pygal--><defs><style type="text/css">#chart-1ec639f6-8b96-4ccb-82cb-d97876ec9b08 .title{font-family:"monospace";font-size:16px}#chart-1ec639f6-8b96-4ccb-82cb-d97876ec9b08 .legends .legend text{font-family:"monospace";font-size:14px}#chart-1ec639f6-8b96-4ccb-82cb-d97876ec9b08 .axis text{font-family:"monospace";font-size:10px}#chart-1ec639f6-8b96-4ccb-82cb-d97876ec9b08 .axis text.major{font-family:"monospace";font-size:10px}#chart-1ec639f6-8b96-4ccb-82cb-d97876ec9b08 .series text{font-family:"monospace";font-size:8px}#chart-1ec639f6-8b96-4ccb-82cb-d97876ec9b08 .tooltip text{font-family:"monospace";font-size:16px}#chart-1ec639f6-8b96-4ccb-82cb-d97876ec9b08 text.no_data{font-size:64px}
#chart-1ec639f6-8b96-4ccb-82cb-d97876ec9b08{background-color:black}#chart-1ec639f6-8b96-4ccb-82cb-d97876ec9b08 path,#chart-1ec639f6-8b96-4ccb-82cb-d97876ec9b08 line,#chart-1ec639f6-8b96-4ccb-82cb-d97876ec9b08 rect,#chart-1ec639f6-8b96-4ccb-82cb-d97876ec9b08 circle{-webkit-transition:250ms;-moz-transition:250ms;transition:250ms}#chart-1ec639f6-8b96-4ccb-82cb-d97876ec9b08 .graph &gt; .background{fill:black}#chart-1ec639f6-8b96-4ccb-82cb-d97876ec9b08 .plot &gt; .background{fill:#111}#chart-1ec639f6-8b96-4ccb-82cb-d97876ec9b08 .graph{fill:#999}#chart-1ec639f6-8b96-4ccb-82cb-d97876ec9b08 text.no_data{fill:#eee}#chart-1ec639f6-8b96-4ccb-82cb-d97876ec9b08 .title{fill:#eee}#chart-1ec639f6-8b96-4ccb-82cb-d97876ec9b08 .legends .legend text{fill:#999}#chart-1ec639f6-8b96-4ccb-82cb-d97876ec9b08 .legends .legend:hover text{fill:#eee}#chart-1ec639f6-8b96-4ccb-82cb-d97876ec9b08 .axis .line{stroke:#eee}#chart-1ec639f6-8b96-4ccb-82cb-d97876ec9b08 .axis .guide.line{stroke:#555}#chart-1ec639f6-8b96-4ccb-82cb-d97876ec9b08 .axis .major.line{stroke:#999}#chart-1ec639f6-8b96-4ccb-82cb-d97876ec9b08 .axis text.major{stroke:#eee;fill:#eee}#chart-1ec639f6-8b96-4ccb-82cb-d97876ec9b08 .axis.y .guides:hover .guide.line,#chart-1ec639f6-8b96-4ccb-82cb-d97876ec9b08 .line-graph .axis.x .guides:hover .guide.line,#chart-1ec639f6-8b96-4ccb-82cb-d97876ec9b08 .stackedline-graph .axis.x .guides:hover .guide.line,#chart-1ec639f6-8b96-4ccb-82cb-d97876ec9b08 .xy-graph .axis.x .guides:hover .guide.line{stroke:#eee}#chart-1ec639f6-8b96-4ccb-82cb-d97876ec9b08 .axis .guides:hover text{fill:#eee}#chart-1ec639f6-8b96-4ccb-82cb-d97876ec9b08 .reactive{fill-opacity:.8}#chart-1ec639f6-8b96-4ccb-82cb-d97876ec9b08 .reactive.active,#chart-1ec639f6-8b96-4ccb-82cb-d97876ec9b08 .active .reactive{fill-opacity:.4}#chart-1ec639f6-8b96-4ccb-82cb-d97876ec9b08 .series{stroke-width:1.0;stroke-linejoin:round;stroke-linecap:round;stroke-dasharray:0,0}#chart-1ec639f6-8b96-4ccb-82cb-d97876ec9b08 .series text{fill:#eee}#chart-1ec639f6-8b96-4ccb-82cb-d97876ec9b08 .tooltip rect{fill:#111;stroke:#eee}#chart-1ec639f6-8b96-4ccb-82cb-d97876ec9b08 .tooltip text{fill:#eee}#chart-1ec639f6-8b96-4ccb-82cb-d97876ec9b08 .map-element{fill:#999;stroke:#555 !important;opacity:.9;stroke-width:3;-webkit-transition:250ms;-moz-transition:250ms;-o-transition:250ms;transition:250ms}#chart-1ec639f6-8b96-4ccb-82cb-d97876ec9b08 .map-element:hover{opacity:1;stroke-width:10}#chart-1ec639f6-8b96-4ccb-82cb-d97876ec9b08 .color-0,#chart-1ec639f6-8b96-4ccb-82cb-d97876ec9b08 .color-0 a:visited{stroke:#ff5995;fill:#ff5995}#chart-1ec639f6-8b96-4ccb-82cb-d97876ec9b08 .color-1,#chart-1ec639f6-8b96-4ccb-82cb-d97876ec9b08 .color-1 a:visited{stroke:#b6e354;fill:#b6e354}#chart-1ec639f6-8b96-4ccb-82cb-d97876ec9b08 .color-2,#chart-1ec639f6-8b96-4ccb-82cb-d97876ec9b08 .color-2 a:visited{stroke:#feed6c;fill:#feed6c}#chart-1ec639f6-8b96-4ccb-82cb-d97876ec9b08 .color-3,#chart-1ec639f6-8b96-4ccb-82cb-d97876ec9b08 .color-3 a:visited{stroke:#8cedff;fill:#8cedff}#chart-1ec639f6-8b96-4ccb-82cb-d97876ec9b08 .color-4,#chart-1ec639f6-8b96-4ccb-82cb-d97876ec9b08 .color-4 a:visited{stroke:#9e6ffe;fill:#9e6ffe}#chart-1ec639f6-8b96-4ccb-82cb-d97876ec9b08 .color-5,#chart-1ec639f6-8b96-4ccb-82cb-d97876ec9b08 .color-5 a:visited{stroke:#899ca1;fill:#899ca1}#chart-1ec639f6-8b96-4ccb-82cb-d97876ec9b08 .color-6,#chart-1ec639f6-8b96-4ccb-82cb-d97876ec9b08 .color-6 a:visited{stroke:#f8f8f2;fill:#f8f8f2}#chart-1ec639f6-8b96-4ccb-82cb-d97876ec9b08 .color-7,#chart-1ec639f6-8b96-4ccb-82cb-d97876ec9b08 .color-7 a:visited{stroke:#bf4646;fill:#bf4646}#chart-1ec639f6-8b96-4ccb-82cb-d97876ec9b08 .color-8,#chart-1ec639f6-8b96-4ccb-82cb-d97876ec9b08 .color-8 a:visited{stroke:#516083;fill:#516083}#chart-1ec639f6-8b96-4ccb-82cb-d97876ec9b08 .color-9,#chart-1ec639f6-8b96-4ccb-82cb-d97876ec9b08 .color-9 a:visited{stroke:#f92672;fill:#f92672}#chart-1ec639f6-8b96-4ccb-82cb-d97876ec9b08 .color-10,#chart-1ec639f6-8b96-4ccb-82cb-d97876ec9b08 .color-10 a:visited{stroke:#82b414;fill:#82b414}#chart-1ec639f6-8b96-4ccb-82cb-d97876ec9b08 .color-11,#chart-1ec639f6-8b96-4ccb-82cb-d97876ec9b08 .color-11 a:visited{stroke:#fd971f;fill:#fd971f}#chart-1ec639f6-8b96-4ccb-82cb-d97876ec9b08 .color-12,#chart-1ec639f6-8b96-4ccb-82cb-d97876ec9b08 .color-12 a:visited{stroke:#56c2d6;fill:#56c2d6}#chart-1ec639f6-8b96-4ccb-82cb-d97876ec9b08 .color-13,#chart-1ec639f6-8b96-4ccb-82cb-d97876ec9b08 .color-13 a:visited{stroke:#808384;fill:#808384}#chart-1ec639f6-8b96-4ccb-82cb-d97876ec9b08 .color-14,#chart-1ec639f6-8b96-4ccb-82cb-d97876ec9b08 .color-14 a:visited{stroke:#8c54fe;fill:#8c54fe}#chart-1ec639f6-8b96-4ccb-82cb-d97876ec9b08 .color-15,#chart-1ec639f6-8b96-4ccb-82cb-d97876ec9b08 .color-15 a:visited{stroke:#465457;fill:#465457}
#chart-1ec639f6-8b96-4ccb-82cb-d97876ec9b08 text.no_data{text-anchor:middle}#chart-1ec639f6-8b96-4ccb-82cb-d97876ec9b08 .guide.line{fill-opacity:0}#chart-1ec639f6-8b96-4ccb-82cb-d97876ec9b08 .centered{text-anchor:middle}#chart-1ec639f6-8b96-4ccb-82cb-d97876ec9b08 .title{text-anchor:middle}#chart-1ec639f6-8b96-4ccb-82cb-d97876ec9b08 .legends .legend text{fill-opacity:1}#chart-1ec639f6-8b96-4ccb-82cb-d97876ec9b08 .axis.x text{text-anchor:middle}#chart-1ec639f6-8b96-4ccb-82cb-d97876ec9b08 .axis.x:not(.web) text[transform]{text-anchor:start}#chart-1ec639f6-8b96-4ccb-82cb-d97876ec9b08 .axis.y text{text-anchor:end}#chart-1ec639f6-8b96-4ccb-82cb-d97876ec9b08 .axis.y2 text{text-anchor:start}#chart-1ec639f6-8b96-4ccb-82cb-d97876ec9b08 .axis.y .logarithmic text:not(.major),#chart-1ec639f6-8b96-4ccb-82cb-d97876ec9b08 .axis.y2 .logarithmic text:not(.major){font-size:50%}#chart-1ec639f6-8b96-4ccb-82cb-d97876ec9b08 .axis .guide.line{stroke-dasharray:4,4}#chart-1ec639f6-8b96-4ccb-82cb-d97876ec9b08 .axis .major.guide.line{stroke-dasharray:6,6}#chart-1ec639f6-8b96-4ccb-82cb-d97876ec9b08 .axis text.major{stroke-width:0.5px}#chart-1ec639f6-8b96-4ccb-82cb-d97876ec9b08 .horizontal .axis.y .guide.line,#chart-1ec639f6-8b96-4ccb-82cb-d97876ec9b08 .horizontal .axis.y2 .guide.line,#chart-1ec639f6-8b96-4ccb-82cb-d97876ec9b08 .vertical .axis.x .guide.line{opacity:0}#chart-1ec639f6-8b96-4ccb-82cb-d97876ec9b08 .horizontal .axis.always_show .guide.line,#chart-1ec639f6-8b96-4ccb-82cb-d97876ec9b08 .vertical .axis.always_show .guide.line{opacity:1 !important}#chart-1ec639f6-8b96-4ccb-82cb-d97876ec9b08 .axis.y .guides:hover .guide.line,#chart-1ec639f6-8b96-4ccb-82cb-d97876ec9b08 .axis.y2 .guides:hover .guide.line,#chart-1ec639f6-8b96-4ccb-82cb-d97876ec9b08 .axis.x .guides:hover .guide.line{opacity:1}#chart-1ec639f6-8b96-4ccb-82cb-d97876ec9b08 .axis .guides:hover text{opacity:1}#chart-1ec639f6-8b96-4ccb-82cb-d97876ec9b08 .nofill{fill:none}#chart-1ec639f6-8b96-4ccb-82cb-d97876ec9b08 .subtle-fill{fill-opacity:.2}#chart-1ec639f6-8b96-4ccb-82cb-d97876ec9b08 .dot{stroke-width:1px;fill-opacity:1}#chart-1ec639f6-8b96-4ccb-82cb-d97876ec9b08 .dot.active{stroke-width:5px}#chart-1ec639f6-8b96-4ccb-82cb-d97876ec9b08 .series text{stroke:none}#chart-1ec639f6-8b96-4ccb-82cb-d97876ec9b08 .series text.active{opacity:1}#chart-1ec639f6-8b96-4ccb-82cb-d97876ec9b08 .tooltip rect{fill-opacity:0.8}#chart-1ec639f6-8b96-4ccb-82cb-d97876ec9b08 .tooltip text{fill-opacity:1}#chart-1ec639f6-8b96-4ccb-82cb-d97876ec9b08 .tooltip text tspan.label{fill-opacity:.8}</style><script type="text/javascript">window.config = {"no_prefix": false, "print_zeroes": false, "dots_size": 2.5, "range": null, "show_minor_x_labels": true, "missing_value_fill_truncation": "x", "js": ["http://kozea.github.io/pygal.js/javascripts/svg.jquery.js", "http://kozea.github.io/pygal.js/javascripts/pygal-tooltips.js"], "human_readable": false, "logarithmic": false, "x_label_rotation": 0, "disable_xml_declaration": false, "no_data_text": "No data", "legend_box_size": 12, "height": 768, "half_pie": false, "major_label_font_size": 10, "x_labels_major_every": null, "interpolation_parameters": {}, "rounded_bars": null, "css": ["style.css", "graph.css"], "spacing": 10, "tooltip_font_size": 16, "show_y_labels": true, "show_x_guides": false, "fill": false, "margin_left": null, "margin": 20, "truncate_legend": null, "legend_at_bottom_columns": null, "y_labels": null, "legend_font_size": 14, "show_x_labels": true, "x_label_format": "%Y-%m-%d %H:%M:%S.%f", "x_title": null, "x_labels": null, "y_title": "Users", "y_labels_major_count": null, "include_x_axis": false, "print_values": false, "order_min": null, "inner_radius": 0, "x_labels_major": null, "pretty_print": false, "show_dots": false, "truncate_label": null, "tooltip_border_radius": 0, "explicit_size": false, "legend_at_bottom": true, "width": 1024, "label_font_size": 10, "interpolate": null, "margin_right": null, "zero": 0, "x_value_formatter": null, "show_y_guides": true, "title": "Election 5 and 6 Participation", "margin_bottom": null, "stroke": true, "style": {"font_family": "monospace", "colors": ["#ff5995", "#b6e354", "#feed6c", "#8cedff", "#9e6ffe", "#899ca1", "#f8f8f2", "#bf4646", "#516083", "#f92672", "#82b414", "#fd971f", "#56c2d6", "#808384", "#8c54fe", "#465457"], "transition": "250ms", "stroke_width": 1.0, "foreground": "#999", "background": "black", "stroke_dasharray": "0,0", "plot_background": "#111", "foreground_light": "#eee", "opacity_hover": ".4", "opacity": ".8", "foreground_dark": "#555", "stroke_style": "round"}, "value_font_size": 8, "show_minor_y_labels": true, "mode": null, "show_legend": true, "y_label_rotation": 0, "stack_from_top": false, "no_data_font_size": 64, "margin_top": null, "interpolation_precision": 250, "strict": false, "y_labels_major": null, "title_font_size": 16, "show_only_major_dots": false, "xrange": null, "y_labels_major_every": null, "x_labels_major_count": null}</script><script type="text/javascript" xlink:href="http://kozea.github.io/pygal.js/javascripts/svg.jquery.js" /><script type="text/javascript" xlink:href="http://kozea.github.io/pygal.js/javascripts/pygal-tooltips.js" /></defs><title>Election 5 and 6 Participation</title><g class="graph line-graph vertical"><rect class="background" height="768" width="1024" x="0" y="0" /><g class="plot" transform="translate(86, 46)"><rect class="background" height="657.0" width="918.0" x="0" y="0" /><g class="axis y"><g class="guides"><path class="axis major line" d="M0.000000 644.365385 h918.000000" /><text class="major" x="-5" y="647.8653846153846">0</text></g><g class="guides"><path class="guide line" d="M0.000000 562.536034 h918.000000" /><text class="" x="-5" y="566.036034058945">10000</text></g><g class="guides"><path class="guide line" d="M0.000000 480.706684 h918.000000" /><text class="" x="-5" y="484.2066835025055">20000</text></g><g class="guides"><path class="guide line" d="M0.000000 398.877333 h918.000000" /><text class="" x="-5" y="402.3773329460659">30000</text></g><g class="guides"><path class="guide line" d="M0.000000 317.047982 h918.000000" /><text class="" x="-5" y="320.5479823896263">40000</text></g><g class="guides"><path class="major guide line" d="M0.000000 235.218632 h918.000000" /><text class="major" x="-5" y="238.71863183318675">50000</text></g><g class="guides"><path class="guide line" d="M0.000000 153.389281 h918.000000" /><text class="" x="-5" y="156.88928127674717">60000</text></g><g class="guides"><path class="guide line" d="M0.000000 71.559931 h918.000000" /><text class="" x="-5" y="75.05993072030753">70000</text></g></g><g class="series serie-0 color-0"><path class="line reactive nofill" d="M17.653846 644.365385 L20.105769 644.365385 22.557692 644.365385 25.009615 644.365385 27.461538 644.365385 29.913462 644.365385 32.365385 644.365385 34.817308 644.365385 37.269231 644.365385 39.721154 644.365385 42.173077 644.365385 44.625000 644.365385 47.076923 644.365385 49.528846 644.365385 51.980769 644.365385 54.432692 644.365385 56.884615 644.365385 59.336538 644.365385 61.788462 644.365385 64.240385 644.365385 66.692308 644.365385 69.144231 644.365385 71.596154 644.365385 74.048077 644.365385 76.500000 644.365385 78.951923 644.365385 81.403846 644.365385 83.855769 644.365385 86.307692 644.365385 88.759615 644.365385 91.211538 644.365385 93.663462 644.365385 96.115385 644.365385 98.567308 644.365385 101.019231 644.365385 103.471154 644.365385 105.923077 644.365385 108.375000 644.365385 110.826923 644.365385 113.278846 644.365385 115.730769 644.365385 118.182692 644.365385 120.634615 644.365385 123.086538 644.365385 125.538462 644.365385 127.990385 644.365385 130.442308 644.365385 132.894231 644.365385 135.346154 644.365385 137.798077 644.365385 140.250000 644.365385 142.701923 644.365385 145.153846 644.365385 147.605769 644.365385 150.057692 644.365385 152.509615 644.365385 154.961538 644.365385 157.413462 644.365385 159.865385 644.365385 162.317308 644.365385 164.769231 644.365385 167.221154 644.365385 169.673077 644.365385 172.125000 644.365385 174.576923 644.365385 177.028846 644.365385 179.480769 644.365385 181.932692 644.365385 184.384615 644.365385 186.836538 644.365385 189.288462 644.365385 191.740385 644.365385 194.192308 644.365385 196.644231 644.365385 199.096154 644.365385 201.548077 644.365385 204.000000 644.365385 206.451923 644.365385 208.903846 644.365385 211.355769 644.365385 213.807692 644.365385 216.259615 644.365385 218.711538 644.365385 221.163462 644.365385 223.615385 644.365385 226.067308 644.365385 228.519231 644.365385 230.971154 644.365385 233.423077 644.365385 235.875000 644.365385 238.326923 644.365385 240.778846 644.365385 243.230769 644.365385 245.682692 644.365385 248.134615 644.365385 250.586538 644.365385 253.038462 644.365385 255.490385 644.365385 257.942308 644.365385 260.394231 644.365385 262.846154 644.365385 265.298077 644.365385 267.750000 644.365385 270.201923 644.365385 272.653846 644.365385 275.105769 644.365385 277.557692 644.365385 280.009615 644.365385 282.461538 644.365385 284.913462 644.365385 287.365385 644.365385 289.817308 644.365385 292.269231 644.365385 294.721154 644.365385 297.173077 644.365385 299.625000 644.365385 302.076923 644.365385 304.528846 644.365385 306.980769 644.365385 309.432692 644.365385 311.884615 644.365385 314.336538 644.365385 316.788462 644.365385 319.240385 644.365385 321.692308 644.365385 324.144231 644.365385 326.596154 644.365385 329.048077 644.365385 331.500000 644.365385 333.951923 644.365385 336.403846 644.365385 338.855769 644.365385 341.307692 644.365385 343.759615 644.365385 346.211538 644.365385 348.663462 644.365385 351.115385 644.365385 353.567308 644.365385 356.019231 644.365385 358.471154 644.365385 360.923077 644.365385 363.375000 644.365385 365.826923 644.365385 368.278846 644.365385 370.730769 644.365385 373.182692 644.365385 375.634615 644.365385 378.086538 644.365385 380.538462 644.365385 382.990385 644.365385 385.442308 644.365385 387.894231 644.365385 390.346154 644.365385 392.798077 644.365385 395.250000 644.365385 397.701923 644.365385 400.153846 644.365385 402.605769 644.365385 405.057692 644.365385 407.509615 644.365385 409.961538 644.365385 412.413462 644.365385 414.865385 644.365385 417.317308 644.365385 419.769231 644.365385 422.221154 644.365385 424.673077 644.365385 427.125000 644.365385 429.576923 644.365385 432.028846 644.365385 434.480769 644.365385 436.932692 644.365385 439.384615 644.365385 441.836538 644.365385 444.288462 644.365385 446.740385 644.365385 449.192308 644.365385 451.644231 644.365385 454.096154 644.365385 456.548077 644.365385 459.000000 644.365385 461.451923 644.365385 463.903846 644.365385 466.355769 644.365385 468.807692 644.365385 471.259615 644.365385 473.711538 644.365385 476.163462 644.365385 478.615385 644.365385 481.067308 644.365385 483.519231 644.365385 485.971154 644.365385 488.423077 644.365385 490.875000 644.365385 493.326923 644.365385 495.778846 644.365385 498.230769 644.365385 500.682692 644.365385 503.134615 644.365385 505.586538 644.365385 508.038462 644.365385 510.490385 644.365385 512.942308 644.365385 515.394231 644.365385 517.846154 644.365385 520.298077 644.365385 522.750000 644.365385 525.201923 644.365385 527.653846 644.365385 530.105769 644.365385 532.557692 644.365385 535.009615 644.365385 537.461538 644.365385 539.913462 644.365385 542.365385 644.365385 544.817308 644.365385 547.269231 644.365385 549.721154 644.365385 552.173077 644.365385 554.625000 644.365385 557.076923 644.365385 559.528846 644.365385 561.980769 644.365385 564.432692 644.365385 566.884615 644.365385 569.336538 644.365385 571.788462 644.365385 574.240385 644.365385 576.692308 644.365385 579.144231 644.365385 581.596154 644.365385 584.048077 644.365385 586.500000 644.365385 588.951923 644.365385 591.403846 644.365385 593.855769 644.365385 596.307692 644.365385 598.759615 644.365385 601.211538 644.365385 603.663462 644.365385 606.115385 644.365385 608.567308 644.365385 611.019231 644.365385 613.471154 644.365385 615.923077 644.365385 618.375000 644.365385 620.826923 644.365385 623.278846 644.365385 625.730769 644.365385 628.182692 644.365385 630.634615 644.365385 633.086538 644.365385 635.538462 644.365385 637.990385 644.365385 640.442308 644.365385 642.894231 644.365385 645.346154 644.365385 647.798077 644.365385 650.250000 644.365385 652.701923 644.365385 655.153846 644.365385 657.605769 644.365385 660.057692 644.365385 662.509615 643.547091 664.961538 618.482761 667.413462 607.223042 669.865385 600.292096 672.317308 595.726019 674.769231 592.591955 677.221154 590.333464 679.673077 588.353194 682.125000 586.135619 684.576923 583.140665 687.028846 580.661235 689.480769 578.165440 691.932692 575.424157 694.384615 572.404654 696.836538 569.507895 699.288462 566.504758 701.740385 563.959865 704.192308 561.374057 706.644231 559.197397 709.096154 557.045285 711.548077 555.056831 714.000000 553.060195 716.451923 551.088108 718.903846 549.590631 721.355769 548.076788 723.807692 546.562945 726.259615 545.450066 728.711538 544.484479 731.163462 543.535259 733.615385 542.856075 736.067308 542.340550 738.519231 541.743196 740.971154 541.293135 743.423077 540.736695 745.875000 540.073877 748.326923 539.411060 750.778846 538.731876 753.230769 537.823570 755.682692 537.005277 758.134615 536.039690 760.586538 535.065921 763.038462 534.083969 765.490385 533.282041 767.942308 532.496479 770.394231 531.514527 772.846154 530.589856 775.298077 529.624269 777.750000 528.576854 780.201923 527.791292 782.653846 527.013913 785.105769 525.991046 787.557692 525.270948 790.009615 524.665411 792.461538 524.141703 794.913462 523.429787 797.365385 522.775153 799.817308 521.809566 802.269231 519.837479 804.721154 517.726282 807.173077 515.647816 809.625000 512.620130 812.076923 508.790517 814.528846 504.469927 816.980769 501.409509 819.432692 498.930080 821.884615 496.737053 824.336538 494.486746 826.788462 492.244622 829.240385 490.141608 831.692308 488.709594 834.144231 487.547617 836.596154 486.573848 839.048077 485.681908 841.500000 484.986359 843.951923 484.184431 846.403846 483.611625 848.855769 483.161564 851.307692 482.793332 853.759615 482.351453 856.211538 481.958673 858.663462 481.647721 861.115385 481.132196 863.567308 480.731232 866.019231 480.027500 868.471154 479.266487 870.923077 478.063595 873.375000 476.975265 875.826923 475.927849 878.278846 475.044092 880.730769 474.209433 883.182692 473.186566 885.634615 472.106419 888.086538 471.198113 890.538462 470.257075 892.990385 469.618807 895.442308 469.046001 897.894231 468.595940 900.346154 468.595940" /></g><g class="series serie-1 color-1"><path class="line reactive nofill" d="M17.653846 624.570865 L20.105769 617.476260 22.557692 612.574682 25.009615 610.299826 27.461538 608.442300 29.913462 607.083933 32.365385 605.750114 34.817308 604.424479 37.269231 602.247818 39.721154 600.259365 42.173077 598.221814 44.625000 595.636006 47.076923 592.575589 49.528846 589.539720 51.980769 587.150303 54.432692 585.579179 56.884615 584.008056 59.336538 582.166895 61.788462 580.734882 64.240385 579.392880 66.692308 578.124525 69.144231 577.216220 71.596154 576.168804 74.048077 575.522352 76.500000 574.736790 78.951923 573.992143 81.403846 573.427521 83.855769 573.026557 86.307692 572.650142 88.759615 572.445568 91.211538 572.200080 93.663462 571.880946 96.115385 571.717287 98.567308 571.389970 101.019231 570.972640 103.471154 570.522579 105.923077 569.859761 108.375000 569.262407 110.826923 568.730516 113.278846 568.124979 115.730769 567.511259 118.182692 567.053014 120.634615 566.455660 123.086538 565.850123 125.538462 565.432793 127.990385 565.072744 130.442308 564.688146 132.894231 564.344463 135.346154 563.968048 137.798077 563.657096 140.250000 563.477072 142.701923 563.297047 145.153846 563.133388 147.605769 562.994278 150.057692 562.846986 152.509615 562.675144 154.961538 562.527851 157.413462 562.233265 159.865385 562.085973 162.317308 561.840485 164.769231 561.529533 167.221154 561.210399 169.673077 560.899447 172.125000 560.572130 174.576923 560.310276 177.028846 559.991141 179.480769 559.672007 181.932692 559.303775 184.384615 559.033738 186.836538 558.747335 189.288462 558.534579 191.740385 558.264542 194.192308 558.109066 196.644231 557.920859 199.096154 557.749017 201.548077 557.585358 204.000000 557.462614 206.451923 557.364419 208.903846 557.290773 211.355769 557.200760 213.807692 557.086199 216.259615 556.979821 218.711538 556.832528 221.163462 556.636138 223.615385 556.464296 226.067308 556.226991 228.519231 556.038784 230.971154 555.899674 233.423077 555.711466 235.875000 555.539625 238.326923 555.326868 240.778846 555.138661 243.230769 554.917722 245.682692 554.696782 248.134615 554.524941 250.586538 554.353099 253.038462 554.230355 255.490385 554.099428 257.942308 553.976684 260.394231 553.894855 262.846154 553.837574 265.298077 553.772111 267.750000 553.731196 270.201923 553.673915 272.653846 553.616635 275.105769 553.485708 277.557692 553.412061 280.009615 553.289317 282.461538 553.207488 284.913462 553.158390 287.365385 553.092927 289.817308 553.043829 292.269231 552.978366 294.721154 552.896537 297.173077 552.871988 299.625000 552.798341 302.076923 552.642866 304.528846 552.503756 306.980769 552.413743 309.432692 552.340097 311.884615 552.258268 314.336538 552.192804 316.788462 552.127341 319.240385 552.045511 321.692308 551.971865 324.144231 551.906401 326.596154 551.873670 329.048077 551.857304 331.500000 551.775474 333.951923 551.742743 336.403846 551.710011 338.855769 551.660913 341.307692 551.603633 343.759615 551.521803 346.211538 551.390877 348.663462 551.317230 351.115385 551.235401 353.567308 551.169937 356.019231 551.088108 358.471154 551.039010 360.923077 550.957181 363.375000 550.850803 365.826923 550.703510 368.278846 550.670778 370.730769 550.474388 373.182692 550.335278 375.634615 550.245266 378.086538 550.179802 380.538462 550.089790 382.990385 550.040692 385.442308 549.950680 387.894231 549.860668 390.346154 549.778838 392.798077 549.688826 395.250000 549.590631 397.701923 549.492436 400.153846 549.238765 402.605769 549.009642 405.057692 548.747788 407.509615 548.485935 409.961538 548.150434 412.413462 547.864032 414.865385 547.569446 417.317308 547.356690 419.769231 547.127567 422.221154 546.988457 424.673077 546.800250 427.125000 541.857757 429.576923 507.620357 432.028846 488.545935 434.480769 477.400778 436.932692 468.514110 439.384615 462.196884 441.836538 456.706135 444.288462 451.256300 446.740385 444.947257 449.192308 435.864199 451.644231 425.627348 454.096154 414.359446 456.548077 401.291299 459.000000 386.381991 461.451923 370.932610 463.903846 358.109950 466.355769 348.568648 468.807692 340.033847 471.259615 331.458131 473.711538 322.898781 476.163462 315.624152 478.615385 308.840499 481.067308 303.357932 483.519231 298.980062 485.971154 294.659472 488.423077 291.001700 490.875000 287.990380 493.326923 285.191816 495.778846 283.285192 498.230769 281.804081 500.682692 280.576641 503.134615 279.357384 505.586538 278.228138 508.038462 276.697930 510.490385 274.774940 512.942308 272.868316 515.394231 270.347972 517.846154 267.672152 520.298077 264.783576 522.750000 261.764073 525.201923 259.129168 527.653846 256.707019 530.105769 254.023017 532.557692 251.371746 535.009615 248.704109 537.461538 246.363789 539.913462 244.399885 542.365385 242.435981 544.817308 240.668467 547.269231 239.097343 549.721154 237.681695 552.173077 236.601548 554.625000 235.668693 557.076923 234.924046 559.528846 234.383972 561.980769 233.704789 564.432692 233.025605 566.884615 232.420068 569.336538 231.479031 571.788462 230.644371 574.240385 229.498760 576.692308 228.434979 579.144231 227.035697 581.596154 225.358195 584.048077 224.114389 586.500000 222.657827 588.951923 221.209447 591.403846 219.859263 593.855769 218.582725 596.307692 217.289821 598.759615 216.176942 601.211538 215.276819 603.663462 214.213038 606.115385 213.083793 608.567308 212.306414 611.019231 211.561767 613.471154 211.029876 615.923077 210.563449 618.375000 210.203399 620.826923 209.802436 623.278846 209.385106 625.730769 208.975959 628.182692 208.566812 630.634615 208.149483 633.086538 207.543945 635.538462 206.897494 637.990385 205.792797 640.442308 204.958138 642.894231 204.221674 645.346154 203.485210 647.798077 202.626002 650.250000 201.832257 652.701923 200.923951 655.153846 200.122023 657.605769 199.532852 660.057692 198.894583 662.509615 197.871716 664.961538 189.958818 667.413462 185.875533 669.865385 183.297909 672.317308 181.514029 674.769231 180.319321 677.221154 179.468295 679.673077 178.625453 682.125000 177.848074 684.576923 176.939768 687.028846 176.031463 689.480769 175.229535 691.932692 174.231217 694.384615 173.208350 696.836538 172.201849 699.288462 171.064421 701.740385 169.935176 704.192308 168.953224 706.644231 167.913991 709.096154 166.932039 711.548077 166.081014 714.000000 165.131793 716.451923 164.248036 718.903846 163.552487 721.355769 162.652364 723.807692 161.874985 726.259615 161.261265 728.711538 160.631179 731.163462 160.091105 733.615385 159.739239 736.067308 159.444653 738.519231 159.158250 740.971154 158.855482 743.423077 158.479067 745.875000 158.241762 748.326923 157.889896 750.778846 157.521663 753.230769 157.055236 755.682692 156.539711 758.134615 156.024186 760.586538 155.549576 763.038462 155.017685 765.490385 154.543075 767.942308 153.970270 770.394231 153.405647 772.846154 152.881939 775.298077 152.251853 777.750000 151.695414 780.201923 151.155340 782.653846 150.697096 785.105769 150.181571 787.557692 149.616948 790.009615 149.175070 792.461538 148.749557 794.913462 148.348593 797.365385 147.931264 799.817308 147.383007 802.269231 146.679275 804.721154 146.057371 807.173077 145.083602 809.625000 143.839796 812.076923 142.383234 814.528846 140.255671 816.980769 138.553620 819.432692 137.129789 821.884615 135.820520 824.336538 134.470335 826.788462 132.915578 829.240385 131.262625 831.692308 130.059733 834.144231 129.143245 836.596154 128.316768 839.048077 127.441194 841.500000 126.778376 843.951923 126.050095 846.403846 125.616400 848.855769 125.215436 851.307692 124.806289 853.759615 124.421691 856.211538 124.069825 858.663462 123.758873 861.115385 123.464288 863.567308 123.145153 866.019231 122.637811 868.471154 122.163201 870.923077 121.377639 873.375000 120.592078 875.826923 119.822882 878.278846 119.037320 880.730769 118.202661 883.182692 117.400733 885.634615 116.639720 888.086538 115.674134 890.538462 115.076779 892.990385 114.561254 895.442308 114.037547 897.894231 113.571119 900.346154 113.571119" /></g><g class="series serie-2 color-2"><path class="line reactive nofill" d="M17.653846 644.365385 L20.105769 644.365385 22.557692 644.365385 25.009615 644.365385 27.461538 644.365385 29.913462 644.365385 32.365385 644.365385 34.817308 644.365385 37.269231 644.365385 39.721154 644.365385 42.173077 644.365385 44.625000 644.365385 47.076923 644.365385 49.528846 644.365385 51.980769 644.365385 54.432692 644.365385 56.884615 644.365385 59.336538 644.365385 61.788462 644.365385 64.240385 644.365385 66.692308 644.365385 69.144231 644.365385 71.596154 644.365385 74.048077 644.365385 76.500000 644.365385 78.951923 644.365385 81.403846 644.365385 83.855769 644.365385 86.307692 644.365385 88.759615 644.365385 91.211538 644.365385 93.663462 644.365385 96.115385 644.365385 98.567308 644.365385 101.019231 644.365385 103.471154 644.365385 105.923077 644.365385 108.375000 644.365385 110.826923 644.365385 113.278846 644.365385 115.730769 644.365385 118.182692 644.365385 120.634615 644.365385 123.086538 644.365385 125.538462 644.365385 127.990385 644.365385 130.442308 644.365385 132.894231 644.365385 135.346154 644.365385 137.798077 644.365385 140.250000 644.365385 142.701923 644.365385 145.153846 644.365385 147.605769 644.365385 150.057692 644.365385 152.509615 644.365385 154.961538 644.365385 157.413462 644.365385 159.865385 644.365385 162.317308 644.365385 164.769231 644.365385 167.221154 644.365385 169.673077 644.365385 172.125000 644.365385 174.576923 644.365385 177.028846 644.365385 179.480769 644.365385 181.932692 644.365385 184.384615 644.365385 186.836538 644.365385 189.288462 644.365385 191.740385 644.365385 194.192308 644.365385 196.644231 644.365385 199.096154 644.365385 201.548077 644.365385 204.000000 644.365385 206.451923 644.365385 208.903846 644.365385 211.355769 644.365385 213.807692 644.365385 216.259615 644.365385 218.711538 644.365385 221.163462 644.365385 223.615385 644.365385 226.067308 644.365385 228.519231 644.365385 230.971154 644.365385 233.423077 644.365385 235.875000 644.365385 238.326923 644.365385 240.778846 644.365385 243.230769 644.365385 245.682692 644.365385 248.134615 644.365385 250.586538 644.365385 253.038462 644.365385 255.490385 644.365385 257.942308 644.365385 260.394231 644.365385 262.846154 644.365385 265.298077 644.365385 267.750000 644.365385 270.201923 644.365385 272.653846 644.365385 275.105769 644.365385 277.557692 644.365385 280.009615 644.365385 282.461538 644.365385 284.913462 644.365385 287.365385 644.365385 289.817308 644.365385 292.269231 644.365385 294.721154 644.365385 297.173077 644.365385 299.625000 644.365385 302.076923 644.365385 304.528846 644.365385 306.980769 644.365385 309.432692 644.365385 311.884615 644.365385 314.336538 644.365385 316.788462 644.365385 319.240385 644.365385 321.692308 644.365385 324.144231 644.365385 326.596154 644.365385 329.048077 644.365385 331.500000 644.365385 333.951923 644.365385 336.403846 644.365385 338.855769 644.365385 341.307692 644.365385 343.759615 644.365385 346.211538 644.365385 348.663462 644.365385 351.115385 644.365385 353.567308 644.365385 356.019231 644.365385 358.471154 644.365385 360.923077 644.365385 363.375000 644.365385 365.826923 644.365385 368.278846 644.365385 370.730769 644.365385 373.182692 644.365385 375.634615 644.365385 378.086538 644.365385 380.538462 644.365385 382.990385 644.365385 385.442308 644.365385 387.894231 644.365385 390.346154 644.365385 392.798077 644.365385 395.250000 644.365385 397.701923 644.365385 400.153846 644.365385 402.605769 644.365385 405.057692 644.365385 407.509615 644.365385 409.961538 644.365385 412.413462 644.365385 414.865385 644.365385 417.317308 644.365385 419.769231 644.365385 422.221154 644.365385 424.673077 644.365385 427.125000 644.365385 429.576923 644.365385 432.028846 644.365385 434.480769 644.365385 436.932692 644.365385 439.384615 644.365385 441.836538 644.365385 444.288462 644.365385 446.740385 644.365385 449.192308 644.365385 451.644231 644.365385 454.096154 644.365385 456.548077 644.365385 459.000000 644.365385 461.451923 644.365385 463.903846 644.365385 466.355769 644.365385 468.807692 644.365385 471.259615 644.365385 473.711538 644.365385 476.163462 644.365385 478.615385 644.365385 481.067308 644.365385 483.519231 644.365385 485.971154 644.365385 488.423077 644.365385 490.875000 644.365385 493.326923 644.365385 495.778846 644.365385 498.230769 644.365385 500.682692 644.365385 503.134615 644.365385 505.586538 644.365385 508.038462 644.365385 510.490385 644.365385 512.942308 644.365385 515.394231 644.365385 517.846154 644.365385 520.298077 644.365385 522.750000 644.365385 525.201923 644.365385 527.653846 644.365385 530.105769 644.365385 532.557692 644.365385 535.009615 644.365385 537.461538 644.365385 539.913462 644.365385 542.365385 644.365385 544.817308 644.365385 547.269231 644.365385 549.721154 644.365385 552.173077 644.365385 554.625000 644.365385 557.076923 644.365385 559.528846 644.365385 561.980769 644.365385 564.432692 644.365385 566.884615 644.365385 569.336538 644.365385 571.788462 644.365385 574.240385 644.365385 576.692308 644.365385 579.144231 644.365385 581.596154 644.365385 584.048077 644.365385 586.500000 644.365385 588.951923 644.365385 591.403846 644.365385 593.855769 644.365385 596.307692 644.365385 598.759615 644.365385 601.211538 644.365385 603.663462 644.365385 606.115385 644.365385 608.567308 644.365385 611.019231 644.365385 613.471154 644.365385 615.923077 644.365385 618.375000 644.365385 620.826923 644.365385 623.278846 644.365385 625.730769 644.365385 628.182692 644.365385 630.634615 644.365385 633.086538 644.365385 635.538462 644.365385 637.990385 644.365385 640.442308 644.365385 642.894231 644.365385 645.346154 644.365385 647.798077 644.365385 650.250000 644.365385 652.701923 644.365385 655.153846 644.365385 657.605769 644.365385 660.057692 644.365385 662.509615 644.365385 664.961538 618.147261 667.413462 606.077431 669.865385 599.383791 672.317308 595.423250 674.769231 592.338284 677.221154 589.613366 679.673077 587.158486 682.125000 584.319007 684.576923 580.546674 687.028846 576.847987 689.480769 573.190216 691.932692 568.992370 694.384615 565.301866 696.836538 561.120386 699.288462 557.331687 701.740385 554.271270 704.192308 551.341779 706.644231 548.469569 709.096154 545.736468 711.548077 543.224307 714.000000 541.072195 716.451923 538.617315 718.903846 536.727057 721.355769 534.501299 723.807692 532.979273 726.259615 531.727284 728.711538 530.753514 731.163462 529.927038 733.615385 529.329684 736.067308 528.675049 738.519231 528.069512 740.971154 527.521255 743.423077 526.932084 745.875000 526.072875 748.326923 524.878167 750.778846 523.781654 753.230769 522.341457 755.682692 521.179480 758.134615 519.796564 760.586538 518.421831 763.038462 517.210757 765.490385 515.966951 767.942308 514.952267 770.394231 513.667546 772.846154 512.415557 775.298077 511.204482 777.750000 510.017957 780.201923 508.905078 782.653846 507.939491 785.105769 506.924807 787.557692 506.180160 790.009615 505.255489 792.461538 504.363549 794.913462 503.348865 797.365385 502.252352 799.817308 501.057643 802.269231 498.700958 804.721154 495.378686 807.173077 490.722596 809.625000 484.659041 812.076923 479.111011 814.528846 473.898482 816.980769 470.510746 819.432692 467.523975 821.884615 463.898935 824.336538 460.159334 826.788462 456.640672 829.240385 453.940303 831.692308 452.050045 834.144231 450.699861 836.596154 449.210566 839.048077 447.803102 841.500000 446.731137 843.951923 445.618258 846.403846 445.045453 848.855769 444.628123 851.307692 444.063500 853.759615 443.670719 856.211538 443.269756 858.663462 442.811511 861.115385 442.189608 863.567308 441.469510 866.019231 441.469510 868.471154 441.469510 870.923077 441.469510 873.375000 441.469510 875.826923 441.469510 878.278846 441.469510 880.730769 441.469510 883.182692 441.469510 885.634615 441.469510 888.086538 441.469510 890.538462 441.469510 892.990385 441.469510 895.442308 441.469510 897.894231 441.469510 900.346154 441.469510" /></g><g class="series serie-3 color-3"><path class="line reactive nofill" d="M17.653846 627.942234 L20.105769 621.796850 22.557692 618.368200 25.009615 616.085161 27.461538 613.933049 29.913462 612.501036 32.365385 611.060839 34.817308 609.383337 37.269231 606.879359 39.721154 603.655283 42.173077 600.283913 44.625000 595.668738 47.076923 591.446344 49.528846 588.574133 51.980769 585.931045 54.432692 583.738019 56.884615 581.463163 59.336538 579.237405 61.788462 576.995280 64.240385 575.039559 66.692308 573.501167 69.144231 572.134617 71.596154 570.923542 74.048077 569.777932 76.500000 568.877809 78.951923 567.773112 81.403846 567.249405 83.855769 566.872990 86.307692 566.414745 88.759615 565.981050 91.211538 565.694647 93.663462 565.424610 96.115385 564.876353 98.567308 564.238085 101.019231 563.542535 103.471154 562.601498 105.923077 561.660460 108.375000 560.735788 110.826923 559.860214 113.278846 559.131933 115.730769 558.297274 118.182692 557.438066 120.634615 556.693418 123.086538 556.046967 125.538462 555.506893 127.990385 554.860441 130.442308 554.279453 132.894231 553.796659 135.346154 553.305683 137.798077 552.912902 140.250000 552.528304 142.701923 552.381012 145.153846 552.209170 147.605769 552.029145 150.057692 551.800023 152.509615 551.619999 154.961538 551.276315 157.413462 550.842620 159.865385 550.474388 162.317308 549.901582 164.769231 549.320594 167.221154 548.829618 169.673077 548.330459 172.125000 547.757653 174.576923 547.274860 177.028846 546.677506 179.480769 546.063786 181.932692 545.482797 184.384615 545.032736 186.836538 544.721784 189.288462 544.361735 191.740385 543.985320 194.192308 543.518893 196.644231 543.224307 199.096154 543.036100 201.548077 542.856075 204.000000 542.733331 206.451923 542.594221 208.903846 542.438746 211.355769 542.324184 213.807692 542.078696 216.259615 541.792294 218.711538 541.424062 221.163462 541.096744 223.615385 540.753061 226.067308 540.311182 228.519231 539.877487 230.971154 539.533804 233.423077 539.116474 235.875000 538.731876 238.326923 538.322729 240.778846 538.003595 243.230769 537.790838 245.682692 537.537167 248.134615 537.308045 250.586538 537.095289 253.038462 536.808886 255.490385 536.637045 257.942308 536.489752 260.394231 536.375191 262.846154 536.236081 265.298077 536.129703 267.750000 536.064239 270.201923 535.998776 272.653846 535.867849 275.105769 535.794202 277.557692 535.655092 280.009615 535.515983 282.461538 535.434153 284.913462 535.335958 287.365385 535.262312 289.817308 535.090470 292.269231 534.934994 294.721154 534.836799 297.173077 534.640408 299.625000 534.476750 302.076923 534.329457 304.528846 534.157615 306.980769 533.944859 309.432692 533.813932 311.884615 533.715737 314.336538 533.642090 316.788462 533.486615 319.240385 533.372054 321.692308 533.282041 324.144231 533.175663 326.596154 533.085651 329.048077 533.020187 331.500000 532.905626 333.951923 532.799248 336.403846 532.692870 338.855769 532.602858 341.307692 532.521028 343.759615 532.332821 346.211538 532.193711 348.663462 532.030052 351.115385 531.890942 353.567308 531.760015 356.019231 531.629088 358.471154 531.489978 360.923077 531.391783 363.375000 531.269039 365.826923 531.129929 368.278846 530.933539 370.730769 530.794429 373.182692 530.638953 375.634615 530.548941 378.086538 530.458929 380.538462 530.368916 382.990385 530.262538 385.442308 530.115245 387.894231 530.041599 390.346154 529.935221 392.798077 529.730647 395.250000 529.526074 397.701923 529.141476 400.153846 528.715963 402.605769 528.224987 405.057692 527.832206 407.509615 527.382145 409.961538 526.981181 412.413462 526.383827 414.865385 525.901034 417.317308 525.639180 419.769231 525.344594 422.221154 525.025460 424.673077 524.681776 427.125000 524.313544 429.576923 483.562528 432.028846 464.201703 434.480769 453.735730 436.932692 446.011039 439.384615 439.382861 441.836538 433.826649 444.288462 427.558520 446.740385 421.429502 449.192308 412.551017 451.644231 399.613797 454.096154 382.585109 456.548077 360.908514 459.000000 342.284154 461.451923 325.877369 463.903846 313.210186 466.355769 302.065028 468.807692 290.666200 471.259615 279.913823 473.711538 269.652423 476.163462 261.387658 478.615385 255.094981 481.067308 249.628780 483.519231 244.571727 485.971154 239.981100 488.423077 236.094206 490.875000 232.673739 493.326923 230.398883 495.778846 228.942321 498.230769 227.739429 500.682692 226.413794 503.134615 225.153622 505.586538 223.574315 508.038462 221.454935 510.490385 218.689103 512.942308 214.982233 515.394231 210.784388 517.846154 206.578359 520.298077 202.159574 522.750000 198.239948 525.201923 194.451249 527.653846 190.670733 530.105769 186.800205 532.557692 182.823299 535.009615 179.672869 537.461538 176.694280 539.913462 174.386693 542.365385 172.005459 544.817308 169.918810 547.269231 167.864893 549.721154 166.465611 552.173077 165.246354 554.625000 164.264402 557.076923 163.552487 559.528846 162.619632 561.980769 161.907717 564.432692 160.999411 566.884615 159.919263 569.336538 158.798201 571.788462 156.768833 574.240385 154.698551 576.692308 152.587354 579.144231 150.222485 581.596154 148.086739 584.048077 146.065554 586.500000 143.667954 588.951923 141.491294 591.403846 139.429194 593.855769 137.907168 596.307692 136.131471 598.759615 134.568531 601.211538 133.406554 603.663462 132.252760 606.115385 131.033503 608.567308 130.035185 611.019231 129.339635 613.471154 128.807744 615.923077 128.324951 618.375000 127.940353 620.826923 127.433011 623.278846 126.909303 625.730769 126.328315 628.182692 125.591851 630.634615 124.749009 633.086538 123.742508 635.538462 122.425055 637.990385 121.083054 640.442308 120.035638 642.894231 119.037320 645.346154 117.605306 647.798077 116.206024 650.250000 114.716730 652.701923 113.628400 655.153846 112.842838 657.605769 111.877252 660.057692 110.944397 662.509615 110.191567 664.961538 101.697681 667.413462 97.147969 669.865385 94.259393 672.317308 92.418232 674.769231 91.248072 677.221154 90.208840 679.673077 89.406912 682.125000 88.457692 684.576923 87.279349 687.028846 85.929165 689.480769 84.570797 691.932692 83.048772 694.384615 81.739502 696.836538 80.037451 699.288462 78.646352 701.740385 77.468010 704.192308 75.945984 706.644231 74.702178 709.096154 73.425640 711.548077 72.165468 714.000000 71.167150 716.451923 70.037905 718.903846 69.088684 721.355769 67.877610 723.807692 66.993853 726.259615 66.183742 728.711538 65.676400 731.163462 65.070863 733.615385 64.702631 736.067308 64.326216 738.519231 64.031630 740.971154 63.704313 743.423077 63.368813 745.875000 62.976032 748.326923 62.419592 750.778846 61.830421 753.230769 60.938481 755.682692 60.095639 758.134615 59.244613 760.586538 58.647259 763.038462 57.828966 765.490385 57.149782 767.942308 56.511513 770.394231 55.685037 772.846154 54.948573 775.298077 54.154828 777.750000 53.606571 780.201923 52.992851 782.653846 52.289119 785.105769 51.691764 787.557692 51.274435 790.009615 50.816190 792.461538 50.366129 794.913462 49.744226 797.365385 49.179603 799.817308 48.500420 802.269231 47.543016 804.721154 46.119186 807.173077 44.081635 809.625000 41.602205 812.076923 38.738178 814.528846 35.677761 816.980769 33.656576 819.432692 31.684488 821.884615 29.385083 824.336538 27.069313 826.788462 24.859920 829.240385 22.928748 831.692308 21.619478 834.144231 20.392038 836.596154 19.180963 839.048077 17.904426 841.500000 16.914290 843.951923 16.104180 846.403846 15.416813 848.855769 14.991301 851.307692 14.663983 853.759615 14.238471 856.211538 13.870239 858.663462 13.510189 861.115385 13.092860 863.567308 12.634615 866.019231 12.634615 868.471154 12.634615 870.923077 12.634615 873.375000 12.634615 875.826923 12.634615 878.278846 12.634615 880.730769 12.634615 883.182692 12.634615 885.634615 12.634615 888.086538 12.634615 890.538462 12.634615 892.990385 12.634615 895.442308 12.634615 897.894231 12.634615 900.346154 12.634615" /></g></g><g class="titles"><text class="title plot_title" x="512.0" y="26">Election 5 and 6 Participation</text><text class="title" transform="rotate(-90 0.000000 374.500000)" x="0" y="400.5">Users</text></g><g class="plot overlay" transform="translate(86, 46)"><g class="series serie-0 color-0" /><g class="series serie-1 color-1" /><g class="series serie-2 color-2" /><g class="series serie-3 color-3" /></g><g class="plot text-overlay" transform="translate(86, 46)"><g class="series serie-0 color-0" /><g class="series serie-1 color-1" /><g class="series serie-2 color-2" /><g class="series serie-3 color-3" /></g><g class="plot tooltip-overlay" transform="translate(86, 46)"><g class="tooltip" style="opacity: 0" transform="translate(0 0)"><a><rect class="tooltip-box" height="0" rx="0" ry="0" width="0" /><text class="text"><tspan class="label" /><tspan class="value" /></text></a></g></g><g class="legends" transform="translate(96, 713)"><g class="legend reactive activate-serie" id="activate-serie-0"><rect class="color-0 reactive" height="12" width="12" x="0.0" y="1.0" /><text x="17.0" y="11.2">5 constituents</text></g><g class="legend reactive activate-serie" id="activate-serie-1"><rect class="color-1 reactive" height="12" width="12" x="459.0" y="1.0" /><text x="476.0" y="11.2">5 caucus</text></g><g class="legend reactive activate-serie" id="activate-serie-2"><rect class="color-2 reactive" height="12" width="12" x="0.0" y="22.0" /><text x="17.0" y="32.2">6 constituents</text></g><g class="legend reactive activate-serie" id="activate-serie-3"><rect class="color-3 reactive" height="12" width="12" x="459.0" y="22.0" /><text x="476.0" y="32.2">6 caucus</text></g></g></g></svg>