<?xml version='1.0' encoding='utf-8'?>
<svg xmlns:xlink="http://www.w3.org/1999/xlink" class="pygal-chart" id="chart-afbfea09-de77-4111-a2ce-d15101669dcd" viewBox="0 0 1024 768" xmlns="http://www.w3.org/2000/svg"><!--Generated with pygal 1.7.0 (etree) ©Kozea 2011-2014 on 2015-04-20--><!--http://pygal.org--><!--http://github.com/Kozea/pygal--><defs><style type="text/css">#chart-afbfea09-de77-4111-a2ce-d15101669dcd .title{font-family:"monospace";font-size:16px}#chart-afbfea09-de77-4111-a2ce-d15101669dcd .legends .legend text{font-family:"monospace";font-size:14px}#chart-afbfea09-de77-4111-a2ce-d15101669dcd .axis text{font-family:"monospace";font-size:10px}#chart-afbfea09-de77-4111-a2ce-d15101669dcd .axis text.major{font-family:"monospace";font-size:10px}#chart-afbfea09-de77-4111-a2ce-d15101669dcd .series text{font-family:"monospace";font-size:8px}#chart-afbfea09-de77-4111-a2ce-d15101669dcd .tooltip text{font-family:"monospace";font-size:16px}#chart-afbfea09-de77-4111-a2ce-d15101669dcd text.no_data{font-size:64px}
#chart-afbfea09-de77-4111-a2ce-d15101669dcd{background-color:black}#chart-afbfea09-de77-4111-a2ce-d15101669dcd path,#chart-afbfea09-de77-4111-a2ce-d15101669dcd line,#chart-afbfea09-de77-4111-a2ce-d15101669dcd rect,#chart-afbfea09-de77-4111-a2ce-d15101669dcd circle{-webkit-transition:250ms;-moz-transition:250ms;transition:250ms}#chart-afbfea09-de77-4111-a2ce-d15101669dcd .graph &gt; .background{fill:black}#chart-afbfea09-de77-4111-a2ce-d15101669dcd .plot &gt; .background{fill:#111}#chart-afbfea09-de77-4111-a2ce-d15101669dcd .graph{fill:#999}#chart-afbfea09-de77-4111-a2ce-d15101669dcd text.no_data{fill:#eee}#chart-afbfea09-de77-4111-a2ce-d15101669dcd .title{fill:#eee}#chart-afbfea09-de77-4111-a2ce-d15101669dcd .legends .legend text{fill:#999}#chart-afbfea09-de77-4111-a2ce-d15101669dcd .legends .legend:hover text{fill:#eee}#chart-afbfea09-de77-4111-a2ce-d15101669dcd .axis .line{stroke:#eee}#chart-afbfea09-de77-4111-a2ce-d15101669dcd .axis .guide.line{stroke:#555}#chart-afbfea09-de77-4111-a2ce-d15101669dcd .axis .major.line{stroke:#999}#chart-afbfea09-de77-4111-a2ce-d15101669dcd .axis text.major{stroke:#eee;fill:#eee}#chart-afbfea09-de77-4111-a2ce-d15101669dcd .axis.y .guides:hover .guide.line,#chart-afbfea09-de77-4111-a2ce-d15101669dcd .line-graph .axis.x .guides:hover .guide.line,#chart-afbfea09-de77-4111-a2ce-d15101669dcd .stackedline-graph .axis.x .guides:hover .guide.line,#chart-afbfea09-de77-4111-a2ce-d15101669dcd .xy-graph .axis.x .guides:hover .guide.line{stroke:#eee}#chart-afbfea09-de77-4111-a2ce-d15101669dcd .axis .guides:hover text{fill:#eee}#chart-afbfea09-de77-4111-a2ce-d15101669dcd .reactive{fill-opacity:.8}#chart-afbfea09-de77-4111-a2ce-d15101669dcd .reactive.active,#chart-afbfea09-de77-4111-a2ce-d15101669dcd .active .reactive{fill-opacity:.4}#chart-afbfea09-de77-4111-a2ce-d15101669dcd .series{stroke-width:1.0;stroke-linejoin:round;stroke-linecap:round;stroke-dasharray:0,0}#chart-afbfea09-de77-4111-a2ce-d15101669dcd .series text{fill:#eee}#chart-afbfea09-de77-4111-a2ce-d15101669dcd .tooltip rect{fill:#111;stroke:#eee}#chart-afbfea09-de77-4111-a2ce-d15101669dcd .tooltip text{fill:#eee}#chart-afbfea09-de77-4111-a2ce-d15101669dcd .map-element{fill:#999;stroke:#555 !important;opacity:.9;stroke-width:3;-webkit-transition:250ms;-moz-transition:250ms;-o-transition:250ms;transition:250ms}#chart-afbfea09-de77-4111-a2ce-d15101669dcd .map-element:hover{opacity:1;stroke-width:10}#chart-afbfea09-de77-4111-a2ce-d15101669dcd .color-0,#chart-afbfea09-de77-4111-a2ce-d15101669dcd .color-0 a:visited{stroke:#ff5995;fill:#ff5995}#chart-afbfea09-de77-4111-a2ce-d15101669dcd .color-1,#chart-afbfea09-de77-4111-a2ce-d15101669dcd .color-1 a:visited{stroke:#b6e354;fill:#b6e354}#chart-afbfea09-de77-4111-a2ce-d15101669dcd .color-2,#chart-afbfea09-de77-4111-a2ce-d15101669dcd .color-2 a:visited{stroke:#feed6c;fill:#feed6c}#chart-afbfea09-de77-4111-a2ce-d15101669dcd .color-3,#chart-afbfea09-de77-4111-a2ce-d15101669dcd .color-3 a:visited{stroke:#8cedff;fill:#8cedff}#chart-afbfea09-de77-4111-a2ce-d15101669dcd .color-4,#chart-afbfea09-de77-4111-a2ce-d15101669dcd .color-4 a:visited{stroke:#9e6ffe;fill:#9e6ffe}#chart-afbfea09-de77-4111-a2ce-d15101669dcd .color-5,#chart-afbfea09-de77-4111-a2ce-d15101669dcd .color-5 a:visited{stroke:#899ca1;fill:#899ca1}#chart-afbfea09-de77-4111-a2ce-d15101669dcd .color-6,#chart-afbfea09-de77-4111-a2ce-d15101669dcd .color-6 a:visited{stroke:#f8f8f2;fill:#f8f8f2}#chart-afbfea09-de77-4111-a2ce-d15101669dcd .color-7,#chart-afbfea09-de77-4111-a2ce-d15101669dcd .color-7 a:visited{stroke:#bf4646;fill:#bf4646}#chart-afbfea09-de77-4111-a2ce-d15101669dcd .color-8,#chart-afbfea09-de77-4111-a2ce-d15101669dcd .color-8 a:visited{stroke:#516083;fill:#516083}#chart-afbfea09-de77-4111-a2ce-d15101669dcd .color-9,#chart-afbfea09-de77-4111-a2ce-d15101669dcd .color-9 a:visited{stroke:#f92672;fill:#f92672}#chart-afbfea09-de77-4111-a2ce-d15101669dcd .color-10,#chart-afbfea09-de77-4111-a2ce-d15101669dcd .color-10 a:visited{stroke:#82b414;fill:#82b414}#chart-afbfea09-de77-4111-a2ce-d15101669dcd .color-11,#chart-afbfea09-de77-4111-a2ce-d15101669dcd .color-11 a:visited{stroke:#fd971f;fill:#fd971f}#chart-afbfea09-de77-4111-a2ce-d15101669dcd .color-12,#chart-afbfea09-de77-4111-a2ce-d15101669dcd .color-12 a:visited{stroke:#56c2d6;fill:#56c2d6}#chart-afbfea09-de77-4111-a2ce-d15101669dcd .color-13,#chart-afbfea09-de77-4111-a2ce-d15101669dcd .color-13 a:visited{stroke:#808384;fill:#808384}#chart-afbfea09-de77-4111-a2ce-d15101669dcd .color-14,#chart-afbfea09-de77-4111-a2ce-d15101669dcd .color-14 a:visited{stroke:#8c54fe;fill:#8c54fe}#chart-afbfea09-de77-4111-a2ce-d15101669dcd .color-15,#chart-afbfea09-de77-4111-a2ce-d15101669dcd .color-15 a:visited{stroke:#465457;fill:#465457}
#chart-afbfea09-de77-4111-a2ce-d15101669dcd text.no_data{text-anchor:middle}#chart-afbfea09-de77-4111-a2ce-d15101669dcd .guide.line{fill-opacity:0}#chart-afbfea09-de77-4111-a2ce-d15101669dcd .centered{text-anchor:middle}#chart-afbfea09-de77-4111-a2ce-d15101669dcd .title{text-anchor:middle}#chart-afbfea09-de77-4111-a2ce-d15101669dcd .legends .legend text{fill-opacity:1}#chart-afbfea09-de77-4111-a2ce-d15101669dcd .axis.x text{text-anchor:middle}#chart-afbfea09-de77-4111-a2ce-d15101669dcd .axis.x:not(.web) text[transform]{text-anchor:start}#chart-afbfea09-de77-4111-a2ce-d15101669dcd .axis.y text{text-anchor:end}#chart-afbfea09-de77-4111-a2ce-d15101669dcd .axis.y2 text{text-anchor:start}#chart-afbfea09-de77-4111-a2ce-d15101669dcd .axis.y .logarithmic text:not(.major),#chart-afbfea09-de77-4111-a2ce-d15101669dcd .axis.y2 .logarithmic text:not(.major){font-size:50%}#chart-afbfea09-de77-4111-a2ce-d15101669dcd .axis .guide.line{stroke-dasharray:4,4}#chart-afbfea09-de77-4111-a2ce-d15101669dcd .axis .major.guide.line{stroke-dasharray:6,6}#chart-afbfea09-de77-4111-a2ce-d15101669dcd .axis text.major{stroke-width:0.5px}#chart-afbfea09-de77-4111-a2ce-d15101669dcd .horizontal .axis.y .guide.line,#chart-afbfea09-de77-4111-a2ce-d15101669dcd .horizontal .axis.y2 .guide.line,#chart-afbfea09-de77-4111-a2ce-d15101669dcd .vertical .axis.x .guide.line{opacity:0}#chart-afbfea09-de77-4111-a2ce-d15101669dcd .horizontal .axis.always_show .guide.line,#chart-afbfea09-de77-4111-a2ce-d15101669dcd .vertical .axis.always_show .guide.line{opacity:1 !important}#chart-afbfea09-de77-4111-a2ce-d15101669dcd .axis.y .guides:hover .guide.line,#chart-afbfea09-de77-4111-a2ce-d15101669dcd .axis.y2 .guides:hover .guide.line,#chart-afbfea09-de77-4111-a2ce-d15101669dcd .axis.x .guides:hover .guide.line{opacity:1}#chart-afbfea09-de77-4111-a2ce-d15101669dcd .axis .guides:hover text{opacity:1}#chart-afbfea09-de77-4111-a2ce-d15101669dcd .nofill{fill:none}#chart-afbfea09-de77-4111-a2ce-d15101669dcd .subtle-fill{fill-opacity:.2}#chart-afbfea09-de77-4111-a2ce-d15101669dcd .dot{stroke-width:1px;fill-opacity:1}#chart-afbfea09-de77-4111-a2ce-d15101669dcd .dot.active{stroke-width:5px}#chart-afbfea09-de77-4111-a2ce-d15101669dcd .series text{stroke:none}#chart-afbfea09-de77-4111-a2ce-d15101669dcd .series text.active{opacity:1}#chart-afbfea09-de77-4111-a2ce-d15101669dcd .tooltip rect{fill-opacity:0.8}#chart-afbfea09-de77-4111-a2ce-d15101669dcd .tooltip text{fill-opacity:1}#chart-afbfea09-de77-4111-a2ce-d15101669dcd .tooltip text tspan.label{fill-opacity:.8}</style><script type="text/javascript">window.config = {"fill": false, "legend_at_bottom_columns": null, "show_y_guides": true, "margin": 20, "stack_from_top": false, "show_minor_y_labels": true, "title": "Election 5 and 6 Participation", "x_labels_major": null, "truncate_label": null, "height": 768, "pretty_print": false, "dots_size": 2.5, "x_labels": null, "mode": null, "margin_bottom": null, "legend_box_size": 12, "xrange": null, "x_title": null, "disable_xml_declaration": false, "show_dots": false, "value_font_size": 8, "show_x_guides": false, "no_prefix": false, "range": null, "label_font_size": 10, "tooltip_border_radius": 0, "spacing": 10, "tooltip_font_size": 16, "print_values": false, "y_labels_major_count": null, "half_pie": false, "margin_top": null, "show_x_labels": true, "x_value_formatter": null, "interpolation_parameters": {}, "zero": 0, "truncate_legend": null, "missing_value_fill_truncation": "x", "y_labels_major_every": null, "strict": false, "no_data_font_size": 64, "margin_left": null, "margin_right": null, "show_only_major_dots": false, "x_label_format": "%Y-%m-%d %H:%M:%S.%f", "interpolate": null, "x_labels_major_every": null, "y_title": "Users", "y_labels_major": null, "major_label_font_size": 10, "style": {"foreground_dark": "#555", "plot_background": "#111", "stroke_width": 1.0, "stroke_style": "round", "opacity": ".8", "opacity_hover": ".4", "foreground": "#999", "stroke_dasharray": "0,0", "background": "black", "foreground_light": "#eee", "font_family": "monospace", "transition": "250ms", "colors": ["#ff5995", "#b6e354", "#feed6c", "#8cedff", "#9e6ffe", "#899ca1", "#f8f8f2", "#bf4646", "#516083", "#f92672", "#82b414", "#fd971f", "#56c2d6", "#808384", "#8c54fe", "#465457"]}, "show_legend": true, "human_readable": false, "show_y_labels": true, "legend_font_size": 14, "x_labels_major_count": null, "show_minor_x_labels": true, "inner_radius": 0, "css": ["style.css", "graph.css"], "x_label_rotation": 0, "rounded_bars": null, "y_label_rotation": 0, "interpolation_precision": 250, "no_data_text": "No data", "include_x_axis": false, "logarithmic": false, "legend_at_bottom": true, "explicit_size": false, "print_zeroes": false, "order_min": null, "width": 1024, "js": ["http://kozea.github.io/pygal.js/javascripts/svg.jquery.js", "http://kozea.github.io/pygal.js/javascripts/pygal-tooltips.js"], "title_font_size": 16, "y_labels": null, "stroke": true}</script><script type="text/javascript" xlink:href="http://kozea.github.io/pygal.js/javascripts/svg.jquery.js" /><script type="text/javascript" xlink:href="http://kozea.github.io/pygal.js/javascripts/pygal-tooltips.js" /></defs><title>Election 5 and 6 Participation</title><g class="graph line-graph vertical"><rect class="background" height="768" width="1024" x="0" y="0" /><g class="plot" transform="translate(86, 46)"><rect class="background" height="657.0" width="918.0" x="0" y="0" /><g class="axis y"><g class="guides"><path class="axis major line" d="M0.000000 644.365385 h918.000000" /><text class="major" x="-5" y="647.8653846153846">0</text></g><g class="guides"><path class="guide line" d="M0.000000 562.429901 h918.000000" /><text class="" x="-5" y="565.9299013880893">10000</text></g><g class="guides"><path class="guide line" d="M0.000000 480.494418 h918.000000" /><text class="" x="-5" y="483.9944181607941">20000</text></g><g class="guides"><path class="guide line" d="M0.000000 398.558935 h918.000000" /><text class="" x="-5" y="402.05893493349885">30000</text></g><g class="guides"><path class="guide line" d="M0.000000 316.623452 h918.000000" /><text class="" x="-5" y="320.12345170620364">40000</text></g><g class="guides"><path class="major guide line" d="M0.000000 234.687968 h918.000000" /><text class="major" x="-5" y="238.18796847890832">50000</text></g><g class="guides"><path class="guide line" d="M0.000000 152.752485 h918.000000" /><text class="" x="-5" y="156.25248525161305">60000</text></g><g class="guides"><path class="guide line" d="M0.000000 70.817002 h918.000000" /><text class="" x="-5" y="74.31700202431784">70000</text></g></g><g class="series serie-0 color-0"><path class="line reactive nofill" d="M17.653846 644.365385 L20.105769 644.365385 22.557692 644.365385 25.009615 644.365385 27.461538 644.365385 29.913462 644.365385 32.365385 644.365385 34.817308 644.365385 37.269231 644.365385 39.721154 644.365385 42.173077 644.365385 44.625000 644.365385 47.076923 644.365385 49.528846 644.365385 51.980769 644.365385 54.432692 644.365385 56.884615 644.365385 59.336538 644.365385 61.788462 644.365385 64.240385 644.365385 66.692308 644.365385 69.144231 644.365385 71.596154 644.365385 74.048077 644.365385 76.500000 644.365385 78.951923 644.365385 81.403846 644.365385 83.855769 644.365385 86.307692 644.365385 88.759615 644.365385 91.211538 644.365385 93.663462 644.365385 96.115385 644.365385 98.567308 644.365385 101.019231 644.365385 103.471154 644.365385 105.923077 644.365385 108.375000 644.365385 110.826923 644.365385 113.278846 644.365385 115.730769 644.365385 118.182692 644.365385 120.634615 644.365385 123.086538 644.365385 125.538462 644.365385 127.990385 644.365385 130.442308 644.365385 132.894231 644.365385 135.346154 644.365385 137.798077 644.365385 140.250000 644.365385 142.701923 644.365385 145.153846 644.365385 147.605769 644.365385 150.057692 644.365385 152.509615 644.365385 154.961538 644.365385 157.413462 644.365385 159.865385 644.365385 162.317308 644.365385 164.769231 644.365385 167.221154 644.365385 169.673077 644.365385 172.125000 644.365385 174.576923 644.365385 177.028846 644.365385 179.480769 644.365385 181.932692 644.365385 184.384615 644.365385 186.836538 644.365385 189.288462 644.365385 191.740385 644.365385 194.192308 644.365385 196.644231 644.365385 199.096154 644.365385 201.548077 644.365385 204.000000 644.365385 206.451923 644.365385 208.903846 644.365385 211.355769 644.365385 213.807692 644.365385 216.259615 644.365385 218.711538 644.365385 221.163462 644.365385 223.615385 644.365385 226.067308 644.365385 228.519231 644.365385 230.971154 644.365385 233.423077 644.365385 235.875000 644.365385 238.326923 644.365385 240.778846 644.365385 243.230769 644.365385 245.682692 644.365385 248.134615 644.365385 250.586538 644.365385 253.038462 644.365385 255.490385 644.365385 257.942308 644.365385 260.394231 644.365385 262.846154 644.365385 265.298077 644.365385 267.750000 644.365385 270.201923 644.365385 272.653846 644.365385 275.105769 644.365385 277.557692 644.365385 280.009615 644.365385 282.461538 644.365385 284.913462 644.365385 287.365385 644.365385 289.817308 644.365385 292.269231 644.365385 294.721154 644.365385 297.173077 644.365385 299.625000 644.365385 302.076923 644.365385 304.528846 644.365385 306.980769 644.365385 309.432692 644.365385 311.884615 644.365385 314.336538 644.365385 316.788462 644.365385 319.240385 644.365385 321.692308 644.365385 324.144231 644.365385 326.596154 644.365385 329.048077 644.365385 331.500000 644.365385 333.951923 644.365385 336.403846 644.365385 338.855769 644.365385 341.307692 644.365385 343.759615 644.365385 346.211538 644.365385 348.663462 644.365385 351.115385 644.365385 353.567308 644.365385 356.019231 644.365385 358.471154 644.365385 360.923077 644.365385 363.375000 644.365385 365.826923 644.365385 368.278846 644.365385 370.730769 644.365385 373.182692 644.365385 375.634615 644.365385 378.086538 644.365385 380.538462 644.365385 382.990385 644.365385 385.442308 644.365385 387.894231 644.365385 390.346154 644.365385 392.798077 644.365385 395.250000 644.365385 397.701923 644.365385 400.153846 644.365385 402.605769 644.365385 405.057692 644.365385 407.509615 644.365385 409.961538 644.365385 412.413462 644.365385 414.865385 644.365385 417.317308 644.365385 419.769231 644.365385 422.221154 644.365385 424.673077 644.365385 427.125000 644.365385 429.576923 644.365385 432.028846 644.365385 434.480769 644.365385 436.932692 644.365385 439.384615 644.365385 441.836538 644.365385 444.288462 644.365385 446.740385 644.365385 449.192308 644.365385 451.644231 644.365385 454.096154 644.365385 456.548077 644.365385 459.000000 644.365385 461.451923 644.365385 463.903846 644.365385 466.355769 644.365385 468.807692 644.365385 471.259615 644.365385 473.711538 644.365385 476.163462 644.365385 478.615385 644.365385 481.067308 644.365385 483.519231 644.365385 485.971154 644.365385 488.423077 644.365385 490.875000 644.365385 493.326923 644.365385 495.778846 644.365385 498.230769 644.365385 500.682692 644.365385 503.134615 644.365385 505.586538 644.365385 508.038462 644.365385 510.490385 644.365385 512.942308 644.365385 515.394231 644.365385 517.846154 644.365385 520.298077 644.365385 522.750000 644.365385 525.201923 644.365385 527.653846 644.365385 530.105769 644.365385 532.557692 644.365385 535.009615 644.365385 537.461538 644.365385 539.913462 644.365385 542.365385 644.365385 544.817308 644.365385 547.269231 644.365385 549.721154 644.365385 552.173077 644.365385 554.625000 644.365385 557.076923 644.365385 559.528846 644.365385 561.980769 644.365385 564.432692 644.365385 566.884615 644.365385 569.336538 644.365385 571.788462 644.365385 574.240385 644.365385 576.692308 644.365385 579.144231 644.365385 581.596154 644.365385 584.048077 644.365385 586.500000 644.365385 588.951923 644.365385 591.403846 644.365385 593.855769 644.365385 596.307692 644.365385 598.759615 644.365385 601.211538 644.365385 603.663462 644.365385 606.115385 644.365385 608.567308 644.365385 611.019231 644.365385 613.471154 644.365385 615.923077 644.365385 618.375000 644.365385 620.826923 644.365385 623.278846 644.365385 625.730769 644.365385 628.182692 644.365385 630.634615 644.365385 633.086538 644.365385 635.538462 644.365385 637.990385 644.365385 640.442308 644.365385 642.894231 644.365385 645.346154 644.365385 647.798077 644.365385 650.250000 644.365385 652.701923 644.365385 655.153846 644.365385 657.605769 644.365385 660.057692 644.365385 662.509615 643.546030 664.961538 618.449191 667.413462 607.174869 669.865385 600.234933 672.317308 595.662933 674.769231 592.524804 677.221154 590.263385 679.673077 588.280546 682.125000 586.060095 684.576923 583.061256 687.028846 580.578611 689.480769 578.079579 691.932692 575.334740 694.384615 572.311321 696.836538 569.410805 699.288462 566.403772 701.740385 563.855579 704.192308 561.266418 706.644231 559.086934 709.096154 556.932030 711.548077 554.940998 714.000000 552.941772 716.451923 550.967127 718.903846 549.467708 721.355769 547.951902 723.807692 546.436095 726.259615 545.321772 728.711538 544.354934 731.163462 543.404482 733.615385 542.724418 736.067308 542.208224 738.519231 541.610095 740.971154 541.159450 743.423077 540.602289 745.875000 539.938611 748.326923 539.274934 750.778846 538.594869 753.230769 537.685385 755.682692 536.866031 758.134615 535.899192 760.586538 534.924160 763.038462 533.940934 765.490385 533.137966 767.942308 532.351385 770.394231 531.368160 772.846154 530.442289 775.298077 529.475450 777.750000 528.426676 780.201923 527.640095 782.653846 526.861708 785.105769 525.837515 787.557692 525.116482 790.009615 524.510160 792.461538 523.985773 794.913462 523.272934 797.365385 522.617450 799.817308 521.650611 802.269231 519.675966 804.721154 517.562031 807.173077 515.480869 809.625000 512.449257 812.076923 508.614676 814.528846 504.288482 816.980769 501.224095 819.432692 498.741450 821.884615 496.545579 824.336538 494.292354 826.788462 492.047321 829.240385 489.941579 831.692308 488.507708 834.144231 487.344225 836.596154 486.369192 839.048077 485.476096 841.500000 484.779644 843.951923 483.976676 846.403846 483.403128 848.855769 482.952483 851.307692 482.583773 853.759615 482.141321 856.211538 481.748031 858.663462 481.436676 861.115385 480.920483 863.567308 480.518999 866.019231 479.814354 868.471154 479.052354 870.923077 477.847902 873.375000 476.758160 875.826923 475.709386 878.278846 474.824483 880.730769 473.988741 883.182692 472.964547 885.634615 471.882999 888.086538 470.973515 890.538462 470.031257 892.990385 469.392160 895.442308 468.818612 897.894231 468.367967 900.346154 468.367967" /></g><g class="series serie-1 color-1"><path class="line reactive nofill" d="M17.653846 624.545191 L20.105769 617.441385 22.557692 612.533449 25.009615 610.255643 27.461538 608.395707 29.913462 607.035578 32.365385 605.700030 34.817308 604.372675 37.269231 602.193191 39.721154 600.202159 42.173077 598.161966 44.625000 595.572804 47.076923 592.508417 49.528846 589.468611 51.980769 587.076095 54.432692 585.502933 56.884615 583.929772 59.336538 582.086224 61.788462 580.652353 64.240385 579.308611 66.692308 578.038611 69.144231 577.129127 71.596154 576.080353 74.048077 575.433063 76.500000 574.646482 78.951923 573.900869 81.403846 573.335514 83.855769 572.934030 86.307692 572.557127 88.759615 572.352288 91.211538 572.106482 93.663462 571.786934 96.115385 571.623063 98.567308 571.295321 101.019231 570.877450 103.471154 570.426805 105.923077 569.763127 108.375000 569.164998 110.826923 568.632417 113.278846 568.026095 115.730769 567.411579 118.182692 566.952740 120.634615 566.354611 123.086538 565.748288 125.538462 565.330417 127.990385 564.969901 130.442308 564.584805 132.894231 564.240676 135.346154 563.863772 137.798077 563.552418 140.250000 563.372159 142.701923 563.191901 145.153846 563.028030 147.605769 562.888740 150.057692 562.741256 152.509615 562.569192 154.961538 562.421708 157.413462 562.126740 159.865385 561.979256 162.317308 561.733450 164.769231 561.422095 167.221154 561.102547 169.673077 560.791192 172.125000 560.463450 174.576923 560.201256 177.028846 559.881708 179.480769 559.562159 181.932692 559.193450 184.384615 558.923063 186.836538 558.636289 189.288462 558.423256 191.740385 558.152869 194.192308 557.997192 196.644231 557.808740 199.096154 557.636676 201.548077 557.472805 204.000000 557.349901 206.451923 557.251579 208.903846 557.177837 211.355769 557.087708 213.807692 556.972998 216.259615 556.866482 218.711538 556.718998 221.163462 556.522353 223.615385 556.350289 226.067308 556.112676 228.519231 555.924224 230.971154 555.784934 233.423077 555.596482 235.875000 555.424418 238.326923 555.211385 240.778846 555.022934 243.230769 554.801708 245.682692 554.580482 248.134615 554.408418 250.586538 554.236353 253.038462 554.113450 255.490385 553.982353 257.942308 553.859450 260.394231 553.777514 262.846154 553.720160 265.298077 553.654611 267.750000 553.613643 270.201923 553.556289 272.653846 553.498934 275.105769 553.367837 277.557692 553.294095 280.009615 553.171192 282.461538 553.089256 284.913462 553.040095 287.365385 552.974547 289.817308 552.925385 292.269231 552.859837 294.721154 552.777901 297.173077 552.753321 299.625000 552.679579 302.076923 552.523901 304.528846 552.384611 306.980769 552.294482 309.432692 552.220740 311.884615 552.138805 314.336538 552.073256 316.788462 552.007708 319.240385 551.925772 321.692308 551.852031 324.144231 551.786482 326.596154 551.753708 329.048077 551.737321 331.500000 551.655385 333.951923 551.622611 336.403846 551.589837 338.855769 551.540676 341.307692 551.483321 343.759615 551.401385 346.211538 551.270289 348.663462 551.196547 351.115385 551.114611 353.567308 551.049063 356.019231 550.967127 358.471154 550.917966 360.923077 550.836031 363.375000 550.729514 365.826923 550.582031 368.278846 550.549256 370.730769 550.352611 373.182692 550.213321 375.634615 550.123192 378.086538 550.057643 380.538462 549.967514 382.990385 549.918353 385.442308 549.828224 387.894231 549.738095 390.346154 549.656160 392.798077 549.566031 395.250000 549.467708 397.701923 549.369385 400.153846 549.115385 402.605769 548.885966 405.057692 548.623772 407.509615 548.361579 409.961538 548.025643 412.413462 547.738869 414.865385 547.443902 417.317308 547.230869 419.769231 547.001450 422.221154 546.862160 424.673077 546.673708 427.125000 541.724805 429.576923 507.442999 432.028846 488.343837 434.480769 477.184225 436.932692 468.286031 439.384615 461.960612 441.836538 456.462741 444.288462 451.005838 446.740385 444.688612 449.192308 435.593773 451.644231 425.343644 454.096154 414.061128 456.548077 400.976032 459.000000 386.047387 461.451923 370.577967 463.903846 357.738677 466.355769 348.185000 468.807692 339.639129 471.259615 331.052290 473.711538 322.481839 476.163462 315.197774 478.615385 308.405323 481.067308 302.915645 483.519231 298.532097 485.971154 294.205903 488.423077 290.543387 490.875000 287.528162 493.326923 284.725968 495.778846 282.816871 498.230769 281.333839 500.682692 280.104807 503.134615 278.883968 505.586538 277.753258 508.038462 276.221065 510.490385 274.295581 512.942308 272.386484 515.394231 269.862871 517.846154 267.183581 520.298077 264.291259 522.750000 261.267839 525.201923 258.629517 527.653846 256.204226 530.105769 253.516743 532.557692 250.862033 535.009615 248.190936 537.461538 245.847581 539.913462 243.881130 542.365385 241.914678 544.817308 240.144872 547.269231 238.571710 549.721154 237.154227 552.173077 236.072678 554.625000 235.138614 557.076923 234.393001 559.528846 233.852227 561.980769 233.172162 564.432692 232.492098 566.884615 231.885775 569.336538 230.943517 571.788462 230.107775 574.240385 228.960678 576.692308 227.895517 579.144231 226.494420 581.596154 224.814743 584.048077 223.569323 586.500000 222.110872 588.951923 220.660614 591.403846 219.308678 593.855769 218.030485 596.307692 216.735904 598.759615 215.621582 601.211538 214.720291 603.663462 213.655130 606.115385 212.524420 608.567308 211.746033 611.019231 211.000420 613.471154 210.467840 615.923077 210.000807 618.375000 209.640291 620.826923 209.238807 623.278846 208.820936 625.730769 208.411259 628.182692 208.001582 630.634615 207.583711 633.086538 206.977388 635.538462 206.330098 637.990385 205.223969 640.442308 204.388227 642.894231 203.650807 645.346154 202.913388 647.798077 202.053066 650.250000 201.258291 652.701923 200.348807 655.153846 199.545840 657.605769 198.955904 660.057692 198.316807 662.509615 197.292614 664.961538 189.369453 667.413462 185.280872 669.865385 182.699904 672.317308 180.913711 674.769231 179.717453 677.221154 178.865324 679.673077 178.021388 682.125000 177.243001 684.576923 176.333517 687.028846 175.424033 689.480769 174.621066 691.932692 173.621453 694.384615 172.597259 696.836538 171.589453 699.288462 170.450550 701.740385 169.319840 704.192308 168.336614 706.644231 167.296034 709.096154 166.312808 711.548077 165.460679 714.000000 164.510227 716.451923 163.625324 718.903846 162.928872 721.355769 162.027582 723.807692 161.249195 726.259615 160.634679 728.711538 160.003776 731.163462 159.463001 733.615385 159.110679 736.067308 158.815711 738.519231 158.528937 740.971154 158.225776 743.423077 157.848872 745.875000 157.611259 748.326923 157.258937 750.778846 156.890227 753.230769 156.423195 755.682692 155.907001 758.134615 155.390808 760.586538 154.915582 763.038462 154.383001 765.490385 153.907776 767.942308 153.334227 770.394231 152.768872 772.846154 152.244485 775.298077 151.613582 777.750000 151.056421 780.201923 150.515647 782.653846 150.056808 785.105769 149.540614 787.557692 148.975259 790.009615 148.532808 792.461538 148.106743 794.913462 147.705259 797.365385 147.287389 799.817308 146.738421 802.269231 146.033776 804.721154 145.411066 807.173077 144.436034 809.625000 143.190614 812.076923 141.732163 814.528846 139.601840 816.980769 137.897582 819.432692 136.471905 821.884615 135.160937 824.336538 133.809002 826.788462 132.252227 829.240385 130.597131 831.692308 129.392679 834.144231 128.475002 836.596154 127.647453 839.048077 126.770744 841.500000 126.107066 843.951923 125.377840 846.403846 124.943582 848.855769 124.542098 851.307692 124.132421 853.759615 123.747324 856.211538 123.395002 858.663462 123.083647 861.115385 122.788679 863.567308 122.469131 866.019231 121.961131 868.471154 121.485905 870.923077 120.699324 873.375000 119.912744 875.826923 119.142550 878.278846 118.355969 880.730769 117.520227 883.182692 116.717260 885.634615 115.955260 888.086538 114.988421 890.538462 114.390292 892.990385 113.874098 895.442308 113.349711 897.894231 112.882679 900.346154 112.882679" /></g><g class="series serie-2 color-2"><path class="line reactive nofill" d="M17.653846 644.365385 L20.105769 644.365385 22.557692 644.365385 25.009615 644.365385 27.461538 644.365385 29.913462 644.365385 32.365385 644.365385 34.817308 644.365385 37.269231 644.365385 39.721154 644.365385 42.173077 644.365385 44.625000 644.365385 47.076923 644.365385 49.528846 644.365385 51.980769 644.365385 54.432692 644.365385 56.884615 644.365385 59.336538 644.365385 61.788462 644.365385 64.240385 644.365385 66.692308 644.365385 69.144231 644.365385 71.596154 644.365385 74.048077 644.365385 76.500000 644.365385 78.951923 644.365385 81.403846 644.365385 83.855769 644.365385 86.307692 644.365385 88.759615 644.365385 91.211538 644.365385 93.663462 644.365385 96.115385 644.365385 98.567308 644.365385 101.019231 644.365385 103.471154 644.365385 105.923077 644.365385 108.375000 644.365385 110.826923 644.365385 113.278846 644.365385 115.730769 644.365385 118.182692 644.365385 120.634615 644.365385 123.086538 644.365385 125.538462 644.365385 127.990385 644.365385 130.442308 644.365385 132.894231 644.365385 135.346154 644.365385 137.798077 644.365385 140.250000 644.365385 142.701923 644.365385 145.153846 644.365385 147.605769 644.365385 150.057692 644.365385 152.509615 644.365385 154.961538 644.365385 157.413462 644.365385 159.865385 644.365385 162.317308 644.365385 164.769231 644.365385 167.221154 644.365385 169.673077 644.365385 172.125000 644.365385 174.576923 644.365385 177.028846 644.365385 179.480769 644.365385 181.932692 644.365385 184.384615 644.365385 186.836538 644.365385 189.288462 644.365385 191.740385 644.365385 194.192308 644.365385 196.644231 644.365385 199.096154 644.365385 201.548077 644.365385 204.000000 644.365385 206.451923 644.365385 208.903846 644.365385 211.355769 644.365385 213.807692 644.365385 216.259615 644.365385 218.711538 644.365385 221.163462 644.365385 223.615385 644.365385 226.067308 644.365385 228.519231 644.365385 230.971154 644.365385 233.423077 644.365385 235.875000 644.365385 238.326923 644.365385 240.778846 644.365385 243.230769 644.365385 245.682692 644.365385 248.134615 644.365385 250.586538 644.365385 253.038462 644.365385 255.490385 644.365385 257.942308 644.365385 260.394231 644.365385 262.846154 644.365385 265.298077 644.365385 267.750000 644.365385 270.201923 644.365385 272.653846 644.365385 275.105769 644.365385 277.557692 644.365385 280.009615 644.365385 282.461538 644.365385 284.913462 644.365385 287.365385 644.365385 289.817308 644.365385 292.269231 644.365385 294.721154 644.365385 297.173077 644.365385 299.625000 644.365385 302.076923 644.365385 304.528846 644.365385 306.980769 644.365385 309.432692 644.365385 311.884615 644.365385 314.336538 644.365385 316.788462 644.365385 319.240385 644.365385 321.692308 644.365385 324.144231 644.365385 326.596154 644.365385 329.048077 644.365385 331.500000 644.365385 333.951923 644.365385 336.403846 644.365385 338.855769 644.365385 341.307692 644.365385 343.759615 644.365385 346.211538 644.365385 348.663462 644.365385 351.115385 644.365385 353.567308 644.365385 356.019231 644.365385 358.471154 644.365385 360.923077 644.365385 363.375000 644.365385 365.826923 644.365385 368.278846 644.365385 370.730769 644.365385 373.182692 644.365385 375.634615 644.365385 378.086538 644.365385 380.538462 644.365385 382.990385 644.365385 385.442308 644.365385 387.894231 644.365385 390.346154 644.365385 392.798077 644.365385 395.250000 644.365385 397.701923 644.365385 400.153846 644.365385 402.605769 644.365385 405.057692 644.365385 407.509615 644.365385 409.961538 644.365385 412.413462 644.365385 414.865385 644.365385 417.317308 644.365385 419.769231 644.365385 422.221154 644.365385 424.673077 644.365385 427.125000 644.365385 429.576923 644.365385 432.028846 644.365385 434.480769 644.365385 436.932692 644.365385 439.384615 644.365385 441.836538 644.365385 444.288462 644.365385 446.740385 644.365385 449.192308 644.365385 451.644231 644.365385 454.096154 644.365385 456.548077 644.365385 459.000000 644.365385 461.451923 644.365385 463.903846 644.365385 466.355769 644.365385 468.807692 644.365385 471.259615 644.365385 473.711538 644.365385 476.163462 644.365385 478.615385 644.365385 481.067308 644.365385 483.519231 644.365385 485.971154 644.365385 488.423077 644.365385 490.875000 644.365385 493.326923 644.365385 495.778846 644.365385 498.230769 644.365385 500.682692 644.365385 503.134615 644.365385 505.586538 644.365385 508.038462 644.365385 510.490385 644.365385 512.942308 644.365385 515.394231 644.365385 517.846154 644.365385 520.298077 644.365385 522.750000 644.365385 525.201923 644.365385 527.653846 644.365385 530.105769 644.365385 532.557692 644.365385 535.009615 644.365385 537.461538 644.365385 539.913462 644.365385 542.365385 644.365385 544.817308 644.365385 547.269231 644.365385 549.721154 644.365385 552.173077 644.365385 554.625000 644.365385 557.076923 644.365385 559.528846 644.365385 561.980769 644.365385 564.432692 644.365385 566.884615 644.365385 569.336538 644.365385 571.788462 644.365385 574.240385 644.365385 576.692308 644.365385 579.144231 644.365385 581.596154 644.365385 584.048077 644.365385 586.500000 644.365385 588.951923 644.365385 591.403846 644.365385 593.855769 644.365385 596.307692 644.365385 598.759615 644.365385 601.211538 644.365385 603.663462 644.365385 606.115385 644.365385 608.567308 644.365385 611.019231 644.365385 613.471154 644.365385 615.923077 644.365385 618.375000 644.365385 620.826923 644.365385 623.278846 644.365385 625.730769 644.365385 628.182692 644.365385 630.634615 644.365385 633.086538 644.365385 635.538462 644.365385 637.990385 644.365385 640.442308 644.365385 642.894231 644.365385 645.346154 644.365385 647.798077 644.365385 650.250000 644.365385 652.701923 644.365385 655.153846 644.365385 657.605769 644.365385 660.057692 644.365385 662.509615 644.365385 664.961538 618.113256 667.413462 606.027772 669.865385 599.325449 672.317308 595.359772 674.769231 592.270804 677.221154 589.542353 679.673077 587.084288 682.125000 584.241127 684.576923 580.463901 687.028846 576.760417 689.480769 573.097901 691.932692 568.894611 694.384615 565.199321 696.836538 561.012418 699.288462 557.218805 701.740385 554.154418 704.192308 551.221127 706.644231 548.345192 709.096154 545.608547 711.548077 543.093127 714.000000 540.938224 716.451923 538.480160 718.903846 536.587450 721.355769 534.358805 723.807692 532.834805 726.259615 531.581192 728.711538 530.606160 731.163462 529.778611 733.615385 529.180482 736.067308 528.524998 738.519231 527.918676 740.971154 527.369708 743.423077 526.779773 745.875000 525.919450 748.326923 524.723192 750.778846 523.625257 753.230769 522.183192 755.682692 521.019708 758.134615 519.634998 760.586538 518.258482 763.038462 517.045837 765.490385 515.800418 767.942308 514.784418 770.394231 513.498031 772.846154 512.244418 775.298077 511.031773 777.750000 509.843708 780.201923 508.729386 782.653846 507.762547 785.105769 506.746547 787.557692 506.000934 790.009615 505.075063 792.461538 504.181966 794.913462 503.165966 797.365385 502.068031 799.817308 500.871773 802.269231 498.512031 804.721154 495.185450 807.173077 490.523321 809.625000 484.451902 812.076923 478.896676 814.528846 473.677386 816.980769 470.285257 819.432692 467.294612 821.884615 463.664870 824.336538 459.920418 826.788462 456.397193 829.240385 453.693322 831.692308 451.800612 834.144231 450.448676 836.596154 448.957451 839.048077 447.548160 841.500000 446.474806 843.951923 445.360483 846.403846 444.786935 848.855769 444.369064 851.307692 443.803709 853.759615 443.410418 856.211538 443.008935 858.663462 442.550096 861.115385 442.476354 863.567308 442.476354 866.019231 442.476354 868.471154 442.476354 870.923077 442.476354 873.375000 442.476354 875.826923 442.476354 878.278846 442.476354 880.730769 442.476354 883.182692 442.476354 885.634615 442.476354 888.086538 442.476354 890.538462 442.476354 892.990385 442.476354 895.442308 442.476354 897.894231 442.476354 900.346154 442.476354" /></g><g class="series serie-3 color-3"><path class="line reactive nofill" d="M17.653846 627.920933 L20.105769 621.767578 22.557692 618.334482 25.009615 616.048482 27.461538 613.893578 29.913462 612.459707 32.365385 611.017643 34.817308 609.337966 37.269231 606.830740 39.721154 603.602482 42.173077 600.226740 44.625000 595.605579 47.076923 591.377708 49.528846 588.501772 51.980769 585.855256 54.432692 583.659385 56.884615 581.381579 59.336538 579.152934 61.788462 576.907901 64.240385 574.949643 66.692308 573.409256 69.144231 572.040934 71.596154 570.828288 74.048077 569.681192 76.500000 568.779901 78.951923 567.673772 81.403846 567.149385 83.855769 566.772482 86.307692 566.313643 88.759615 565.879385 91.211538 565.592611 93.663462 565.322224 96.115385 564.773256 98.567308 564.134159 101.019231 563.437708 103.471154 562.495450 105.923077 561.553192 108.375000 560.627321 110.826923 559.750611 113.278846 559.021385 115.730769 558.185643 118.182692 557.325321 120.634615 556.579708 123.086538 555.932418 125.538462 555.391643 127.990385 554.744353 130.442308 554.162611 132.894231 553.679192 135.346154 553.187579 137.798077 552.794289 140.250000 552.409192 142.701923 552.261708 145.153846 552.089643 147.605769 551.909385 150.057692 551.679966 152.509615 551.499708 154.961538 551.155579 157.413462 550.721321 159.865385 550.352611 162.317308 549.779063 164.769231 549.197321 167.221154 548.705708 169.673077 548.205901 172.125000 547.632353 174.576923 547.148934 177.028846 546.550805 179.480769 545.936289 181.932692 545.354547 184.384615 544.903902 186.836538 544.592547 189.288462 544.232031 191.740385 543.855127 194.192308 543.388095 196.644231 543.093127 199.096154 542.904676 201.548077 542.724418 204.000000 542.601514 206.451923 542.462224 208.903846 542.306547 211.355769 542.191837 213.807692 541.946031 216.259615 541.659256 218.711538 541.290547 221.163462 540.962805 223.615385 540.618676 226.067308 540.176224 228.519231 539.741966 230.971154 539.397837 233.423077 538.979966 235.875000 538.594869 238.326923 538.185192 240.778846 537.865644 243.230769 537.652611 245.682692 537.398611 248.134615 537.169192 250.586538 536.956160 253.038462 536.669385 255.490385 536.497321 257.942308 536.349837 260.394231 536.235127 262.846154 536.095837 265.298077 535.989321 267.750000 535.923773 270.201923 535.858224 272.653846 535.727127 275.105769 535.653385 277.557692 535.514095 280.009615 535.374805 282.461538 535.292869 284.913462 535.194547 287.365385 535.120805 289.817308 534.948740 292.269231 534.793063 294.721154 534.694740 297.173077 534.498095 299.625000 534.334224 302.076923 534.186740 304.528846 534.014676 306.980769 533.801644 309.432692 533.670547 311.884615 533.572224 314.336538 533.498482 316.788462 533.342805 319.240385 533.228095 321.692308 533.137966 324.144231 533.031450 326.596154 532.941321 329.048077 532.875773 331.500000 532.761063 333.951923 532.654547 336.403846 532.548031 338.855769 532.457902 341.307692 532.375966 343.759615 532.187515 346.211538 532.048224 348.663462 531.884353 351.115385 531.745063 353.567308 531.613966 356.019231 531.482869 358.471154 531.343579 360.923077 531.245256 363.375000 531.122353 365.826923 530.983063 368.278846 530.786418 370.730769 530.647127 373.182692 530.491450 375.634615 530.401321 378.086538 530.311192 380.538462 530.221063 382.990385 530.114547 385.442308 529.967063 387.894231 529.893321 390.346154 529.786805 392.798077 529.581966 395.250000 529.377127 397.701923 528.992031 400.153846 528.565966 402.605769 528.074353 405.057692 527.681063 407.509615 527.230418 409.961538 526.828934 412.413462 526.230805 414.865385 525.747386 417.317308 525.485192 419.769231 525.190224 422.221154 524.870676 424.673077 524.526547 427.125000 524.157837 429.576923 483.353967 432.028846 463.968031 434.480769 453.488483 436.932692 445.753773 439.384615 439.116999 441.836538 433.553580 444.288462 427.277322 446.740385 421.140354 449.192308 412.250354 451.644231 399.296354 454.096154 382.245580 456.548077 360.540871 459.000000 341.892355 461.451923 325.464290 463.903846 312.780678 466.355769 301.621065 468.807692 290.207452 471.259615 279.441129 473.711538 269.166420 476.163462 260.890936 478.615385 254.590097 481.067308 249.116807 483.519231 244.053194 485.971154 239.456614 488.423077 235.564678 490.875000 232.139775 493.326923 229.861969 495.778846 228.403517 498.230769 227.199065 500.682692 225.871710 503.134615 224.609904 505.586538 223.028549 508.038462 220.906420 510.490385 218.137001 512.942308 214.425323 515.394231 210.222033 517.846154 206.010549 520.298077 201.586033 522.750000 197.661324 525.201923 193.867711 527.653846 190.082291 530.105769 186.206743 532.557692 182.224679 535.009615 179.070162 537.461538 176.087711 539.913462 173.777130 542.365385 171.392808 544.817308 169.303453 547.269231 167.246872 549.721154 165.845775 552.173077 164.624937 554.625000 163.641711 557.076923 162.928872 559.528846 161.994808 561.980769 161.281969 564.432692 160.372485 566.884615 159.290937 569.336538 158.168421 571.788462 156.136421 574.240385 154.063453 576.692308 151.949518 579.144231 149.581582 581.596154 147.443066 584.048077 145.419260 586.500000 143.018550 588.951923 140.839066 591.403846 138.774292 593.855769 137.250292 596.307692 135.472292 598.759615 133.907324 601.211538 132.743840 603.663462 131.588550 606.115385 130.367711 608.567308 129.368098 611.019231 128.671647 613.471154 128.139066 615.923077 127.655647 618.375000 127.270550 620.826923 126.762550 623.278846 126.238163 625.730769 125.656421 628.182692 124.919002 630.634615 124.075066 633.086538 123.067260 635.538462 121.748098 637.990385 120.404356 640.442308 119.355582 642.894231 118.355969 645.346154 116.922098 647.798077 115.521002 650.250000 114.029776 652.701923 112.940034 655.153846 112.153453 657.605769 111.186615 660.057692 110.252550 662.509615 109.498744 664.961538 100.993840 667.413462 96.438228 669.865385 93.545905 672.317308 91.702357 674.769231 90.530679 677.221154 89.490099 679.673077 88.687131 682.125000 87.736679 684.576923 86.556808 687.028846 85.204873 689.480769 83.844744 691.932692 82.320744 694.384615 81.009776 696.836538 79.305518 699.288462 77.912615 701.740385 76.732744 704.192308 75.208744 706.644231 73.963325 709.096154 72.685131 711.548077 71.423325 714.000000 70.423712 716.451923 69.293002 718.903846 68.342550 721.355769 67.129905 723.807692 66.245002 726.259615 65.433841 728.711538 64.925841 731.163462 64.319518 733.615385 63.950809 736.067308 63.573905 738.519231 63.278938 740.971154 62.951196 743.423077 62.615260 745.875000 62.221970 748.326923 61.664809 750.778846 61.074873 753.230769 60.181776 755.682692 59.337841 758.134615 58.485712 760.586538 57.887583 763.038462 57.068228 765.490385 56.388163 767.942308 55.749067 770.394231 54.921518 772.846154 54.184099 775.298077 53.389325 777.750000 52.840357 780.201923 52.225841 782.653846 51.521196 785.105769 50.923067 787.557692 50.505196 790.009615 50.046357 792.461538 49.595712 794.913462 48.973002 797.365385 48.407647 799.817308 47.727583 802.269231 46.768938 804.721154 45.343260 807.173077 43.303067 809.625000 40.820422 812.076923 37.952680 814.528846 34.888293 816.980769 32.864486 819.432692 30.889841 821.884615 28.587454 824.336538 26.268680 826.788462 24.056422 829.240385 22.122744 831.692308 20.811777 834.144231 19.582744 836.596154 18.370099 839.048077 17.091906 841.500000 16.100486 843.951923 15.289325 846.403846 14.601067 848.855769 14.175002 851.307692 13.847261 853.759615 13.421196 856.211538 13.052486 858.663462 12.691970 861.115385 12.634615 863.567308 12.634615 866.019231 12.634615 868.471154 12.634615 870.923077 12.634615 873.375000 12.634615 875.826923 12.634615 878.278846 12.634615 880.730769 12.634615 883.182692 12.634615 885.634615 12.634615 888.086538 12.634615 890.538462 12.634615 892.990385 12.634615 895.442308 12.634615 897.894231 12.634615 900.346154 12.634615" /></g></g><g class="titles"><text class="title plot_title" x="512.0" y="26">Election 5 and 6 Participation</text><text class="title" transform="rotate(-90 0.000000 374.500000)" x="0" y="400.5">Users</text></g><g class="plot overlay" transform="translate(86, 46)"><g class="series serie-0 color-0" /><g class="series serie-1 color-1" /><g class="series serie-2 color-2" /><g class="series serie-3 color-3" /></g><g class="plot text-overlay" transform="translate(86, 46)"><g class="series serie-0 color-0" /><g class="series serie-1 color-1" /><g class="series serie-2 color-2" /><g class="series serie-3 color-3" /></g><g class="plot tooltip-overlay" transform="translate(86, 46)"><g class="tooltip" style="opacity: 0" transform="translate(0 0)"><a><rect class="tooltip-box" height="0" rx="0" ry="0" width="0" /><text class="text"><tspan class="label" /><tspan class="value" /></text></a></g></g><g class="legends" transform="translate(96, 713)"><g class="legend reactive activate-serie" id="activate-serie-0"><rect class="color-0 reactive" height="12" width="12" x="0.0" y="1.0" /><text x="17.0" y="11.2">5 constituents</text></g><g class="legend reactive activate-serie" id="activate-serie-1"><rect class="color-1 reactive" height="12" width="12" x="459.0" y="1.0" /><text x="476.0" y="11.2">5 caucus</text></g><g class="legend reactive activate-serie" id="activate-serie-2"><rect class="color-2 reactive" height="12" width="12" x="0.0" y="22.0" /><text x="17.0" y="32.2">6 constituents</text></g><g class="legend reactive activate-serie" id="activate-serie-3"><rect class="color-3 reactive" height="12" width="12" x="459.0" y="22.0" /><text x="476.0" y="32.2">6 caucus</text></g></g></g></svg>