<?xml version='1.0' encoding='utf-8'?>
<svg xmlns:xlink="http://www.w3.org/1999/xlink" class="pygal-chart" id="chart-f9375af7-34f9-4785-a812-643ce5447717" viewBox="0 0 1024 768" xmlns="http://www.w3.org/2000/svg"><!--Generated with pygal 1.7.0 (etree) ©Kozea 2011-2014 on 2015-04-20--><!--http://pygal.org--><!--http://github.com/Kozea/pygal--><defs><style type="text/css">#chart-f9375af7-34f9-4785-a812-643ce5447717 .title{font-family:"monospace";font-size:16px}#chart-f9375af7-34f9-4785-a812-643ce5447717 .legends .legend text{font-family:"monospace";font-size:14px}#chart-f9375af7-34f9-4785-a812-643ce5447717 .axis text{font-family:"monospace";font-size:10px}#chart-f9375af7-34f9-4785-a812-643ce5447717 .axis text.major{font-family:"monospace";font-size:10px}#chart-f9375af7-34f9-4785-a812-643ce5447717 .series text{font-family:"monospace";font-size:8px}#chart-f9375af7-34f9-4785-a812-643ce5447717 .tooltip text{font-family:"monospace";font-size:16px}#chart-f9375af7-34f9-4785-a812-643ce5447717 text.no_data{font-size:64px}
#chart-f9375af7-34f9-4785-a812-643ce5447717{background-color:black}#chart-f9375af7-34f9-4785-a812-643ce5447717 path,#chart-f9375af7-34f9-4785-a812-643ce5447717 line,#chart-f9375af7-34f9-4785-a812-643ce5447717 rect,#chart-f9375af7-34f9-4785-a812-643ce5447717 circle{-webkit-transition:250ms;-moz-transition:250ms;transition:250ms}#chart-f9375af7-34f9-4785-a812-643ce5447717 .graph &gt; .background{fill:black}#chart-f9375af7-34f9-4785-a812-643ce5447717 .plot &gt; .background{fill:#111}#chart-f9375af7-34f9-4785-a812-643ce5447717 .graph{fill:#999}#chart-f9375af7-34f9-4785-a812-643ce5447717 text.no_data{fill:#eee}#chart-f9375af7-34f9-4785-a812-643ce5447717 .title{fill:#eee}#chart-f9375af7-34f9-4785-a812-643ce5447717 .legends .legend text{fill:#999}#chart-f9375af7-34f9-4785-a812-643ce5447717 .legends .legend:hover text{fill:#eee}#chart-f9375af7-34f9-4785-a812-643ce5447717 .axis .line{stroke:#eee}#chart-f9375af7-34f9-4785-a812-643ce5447717 .axis .guide.line{stroke:#555}#chart-f9375af7-34f9-4785-a812-643ce5447717 .axis .major.line{stroke:#999}#chart-f9375af7-34f9-4785-a812-643ce5447717 .axis text.major{stroke:#eee;fill:#eee}#chart-f9375af7-34f9-4785-a812-643ce5447717 .axis.y .guides:hover .guide.line,#chart-f9375af7-34f9-4785-a812-643ce5447717 .line-graph .axis.x .guides:hover .guide.line,#chart-f9375af7-34f9-4785-a812-643ce5447717 .stackedline-graph .axis.x .guides:hover .guide.line,#chart-f9375af7-34f9-4785-a812-643ce5447717 .xy-graph .axis.x .guides:hover .guide.line{stroke:#eee}#chart-f9375af7-34f9-4785-a812-643ce5447717 .axis .guides:hover text{fill:#eee}#chart-f9375af7-34f9-4785-a812-643ce5447717 .reactive{fill-opacity:.8}#chart-f9375af7-34f9-4785-a812-643ce5447717 .reactive.active,#chart-f9375af7-34f9-4785-a812-643ce5447717 .active .reactive{fill-opacity:.4}#chart-f9375af7-34f9-4785-a812-643ce5447717 .series{stroke-width:1.0;stroke-linejoin:round;stroke-linecap:round;stroke-dasharray:0,0}#chart-f9375af7-34f9-4785-a812-643ce5447717 .series text{fill:#eee}#chart-f9375af7-34f9-4785-a812-643ce5447717 .tooltip rect{fill:#111;stroke:#eee}#chart-f9375af7-34f9-4785-a812-643ce5447717 .tooltip text{fill:#eee}#chart-f9375af7-34f9-4785-a812-643ce5447717 .map-element{fill:#999;stroke:#555 !important;opacity:.9;stroke-width:3;-webkit-transition:250ms;-moz-transition:250ms;-o-transition:250ms;transition:250ms}#chart-f9375af7-34f9-4785-a812-643ce5447717 .map-element:hover{opacity:1;stroke-width:10}#chart-f9375af7-34f9-4785-a812-643ce5447717 .color-0,#chart-f9375af7-34f9-4785-a812-643ce5447717 .color-0 a:visited{stroke:#ff5995;fill:#ff5995}#chart-f9375af7-34f9-4785-a812-643ce5447717 .color-1,#chart-f9375af7-34f9-4785-a812-643ce5447717 .color-1 a:visited{stroke:#b6e354;fill:#b6e354}#chart-f9375af7-34f9-4785-a812-643ce5447717 .color-2,#chart-f9375af7-34f9-4785-a812-643ce5447717 .color-2 a:visited{stroke:#feed6c;fill:#feed6c}#chart-f9375af7-34f9-4785-a812-643ce5447717 .color-3,#chart-f9375af7-34f9-4785-a812-643ce5447717 .color-3 a:visited{stroke:#8cedff;fill:#8cedff}#chart-f9375af7-34f9-4785-a812-643ce5447717 .color-4,#chart-f9375af7-34f9-4785-a812-643ce5447717 .color-4 a:visited{stroke:#9e6ffe;fill:#9e6ffe}#chart-f9375af7-34f9-4785-a812-643ce5447717 .color-5,#chart-f9375af7-34f9-4785-a812-643ce5447717 .color-5 a:visited{stroke:#899ca1;fill:#899ca1}#chart-f9375af7-34f9-4785-a812-643ce5447717 .color-6,#chart-f9375af7-34f9-4785-a812-643ce5447717 .color-6 a:visited{stroke:#f8f8f2;fill:#f8f8f2}#chart-f9375af7-34f9-4785-a812-643ce5447717 .color-7,#chart-f9375af7-34f9-4785-a812-643ce5447717 .color-7 a:visited{stroke:#bf4646;fill:#bf4646}#chart-f9375af7-34f9-4785-a812-643ce5447717 .color-8,#chart-f9375af7-34f9-4785-a812-643ce5447717 .color-8 a:visited{stroke:#516083;fill:#516083}#chart-f9375af7-34f9-4785-a812-643ce5447717 .color-9,#chart-f9375af7-34f9-4785-a812-643ce5447717 .color-9 a:visited{stroke:#f92672;fill:#f92672}#chart-f9375af7-34f9-4785-a812-643ce5447717 .color-10,#chart-f9375af7-34f9-4785-a812-643ce5447717 .color-10 a:visited{stroke:#82b414;fill:#82b414}#chart-f9375af7-34f9-4785-a812-643ce5447717 .color-11,#chart-f9375af7-34f9-4785-a812-643ce5447717 .color-11 a:visited{stroke:#fd971f;fill:#fd971f}#chart-f9375af7-34f9-4785-a812-643ce5447717 .color-12,#chart-f9375af7-34f9-4785-a812-643ce5447717 .color-12 a:visited{stroke:#56c2d6;fill:#56c2d6}#chart-f9375af7-34f9-4785-a812-643ce5447717 .color-13,#chart-f9375af7-34f9-4785-a812-643ce5447717 .color-13 a:visited{stroke:#808384;fill:#808384}#chart-f9375af7-34f9-4785-a812-643ce5447717 .color-14,#chart-f9375af7-34f9-4785-a812-643ce5447717 .color-14 a:visited{stroke:#8c54fe;fill:#8c54fe}#chart-f9375af7-34f9-4785-a812-643ce5447717 .color-15,#chart-f9375af7-34f9-4785-a812-643ce5447717 .color-15 a:visited{stroke:#465457;fill:#465457}
#chart-f9375af7-34f9-4785-a812-643ce5447717 text.no_data{text-anchor:middle}#chart-f9375af7-34f9-4785-a812-643ce5447717 .guide.line{fill-opacity:0}#chart-f9375af7-34f9-4785-a812-643ce5447717 .centered{text-anchor:middle}#chart-f9375af7-34f9-4785-a812-643ce5447717 .title{text-anchor:middle}#chart-f9375af7-34f9-4785-a812-643ce5447717 .legends .legend text{fill-opacity:1}#chart-f9375af7-34f9-4785-a812-643ce5447717 .axis.x text{text-anchor:middle}#chart-f9375af7-34f9-4785-a812-643ce5447717 .axis.x:not(.web) text[transform]{text-anchor:start}#chart-f9375af7-34f9-4785-a812-643ce5447717 .axis.y text{text-anchor:end}#chart-f9375af7-34f9-4785-a812-643ce5447717 .axis.y2 text{text-anchor:start}#chart-f9375af7-34f9-4785-a812-643ce5447717 .axis.y .logarithmic text:not(.major),#chart-f9375af7-34f9-4785-a812-643ce5447717 .axis.y2 .logarithmic text:not(.major){font-size:50%}#chart-f9375af7-34f9-4785-a812-643ce5447717 .axis .guide.line{stroke-dasharray:4,4}#chart-f9375af7-34f9-4785-a812-643ce5447717 .axis .major.guide.line{stroke-dasharray:6,6}#chart-f9375af7-34f9-4785-a812-643ce5447717 .axis text.major{stroke-width:0.5px}#chart-f9375af7-34f9-4785-a812-643ce5447717 .horizontal .axis.y .guide.line,#chart-f9375af7-34f9-4785-a812-643ce5447717 .horizontal .axis.y2 .guide.line,#chart-f9375af7-34f9-4785-a812-643ce5447717 .vertical .axis.x .guide.line{opacity:0}#chart-f9375af7-34f9-4785-a812-643ce5447717 .horizontal .axis.always_show .guide.line,#chart-f9375af7-34f9-4785-a812-643ce5447717 .vertical .axis.always_show .guide.line{opacity:1 !important}#chart-f9375af7-34f9-4785-a812-643ce5447717 .axis.y .guides:hover .guide.line,#chart-f9375af7-34f9-4785-a812-643ce5447717 .axis.y2 .guides:hover .guide.line,#chart-f9375af7-34f9-4785-a812-643ce5447717 .axis.x .guides:hover .guide.line{opacity:1}#chart-f9375af7-34f9-4785-a812-643ce5447717 .axis .guides:hover text{opacity:1}#chart-f9375af7-34f9-4785-a812-643ce5447717 .nofill{fill:none}#chart-f9375af7-34f9-4785-a812-643ce5447717 .subtle-fill{fill-opacity:.2}#chart-f9375af7-34f9-4785-a812-643ce5447717 .dot{stroke-width:1px;fill-opacity:1}#chart-f9375af7-34f9-4785-a812-643ce5447717 .dot.active{stroke-width:5px}#chart-f9375af7-34f9-4785-a812-643ce5447717 .series text{stroke:none}#chart-f9375af7-34f9-4785-a812-643ce5447717 .series text.active{opacity:1}#chart-f9375af7-34f9-4785-a812-643ce5447717 .tooltip rect{fill-opacity:0.8}#chart-f9375af7-34f9-4785-a812-643ce5447717 .tooltip text{fill-opacity:1}#chart-f9375af7-34f9-4785-a812-643ce5447717 .tooltip text tspan.label{fill-opacity:.8}</style><script type="text/javascript">window.config = {"half_pie": false, "logarithmic": false, "order_min": null, "show_y_labels": true, "js": ["http://kozea.github.io/pygal.js/javascripts/svg.jquery.js", "http://kozea.github.io/pygal.js/javascripts/pygal-tooltips.js"], "interpolation_parameters": {}, "margin_left": null, "range": null, "x_labels_major_count": null, "x_labels_major": null, "show_x_labels": true, "x_labels": null, "margin_right": null, "value_font_size": 8, "y_labels": null, "legend_at_bottom_columns": null, "spacing": 10, "zero": 0, "title_font_size": 16, "no_data_font_size": 64, "xrange": null, "x_value_formatter": null, "x_title": null, "pretty_print": false, "x_labels_major_every": null, "dots_size": 2.5, "legend_at_bottom": true, "show_legend": true, "y_labels_major": null, "y_title": "Users", "show_dots": false, "margin_top": null, "no_data_text": "No data", "y_labels_major_every": null, "mode": null, "width": 1024, "rounded_bars": null, "margin_bottom": null, "disable_xml_declaration": false, "no_prefix": false, "truncate_label": null, "human_readable": false, "title": "Election 4 Participation", "stroke": true, "stack_from_top": false, "margin": 20, "interpolate": null, "x_label_rotation": 0, "missing_value_fill_truncation": "x", "legend_font_size": 14, "fill": false, "include_x_axis": false, "x_label_format": "%Y-%m-%d %H:%M:%S.%f", "style": {"font_family": "monospace", "stroke_dasharray": "0,0", "background": "black", "foreground_light": "#eee", "stroke_width": 1.0, "plot_background": "#111", "stroke_style": "round", "colors": ["#ff5995", "#b6e354", "#feed6c", "#8cedff", "#9e6ffe", "#899ca1", "#f8f8f2", "#bf4646", "#516083", "#f92672", "#82b414", "#fd971f", "#56c2d6", "#808384", "#8c54fe", "#465457"], "opacity": ".8", "foreground_dark": "#555", "transition": "250ms", "opacity_hover": ".4", "foreground": "#999"}, "interpolation_precision": 250, "show_y_guides": true, "show_only_major_dots": false, "show_minor_y_labels": true, "height": 768, "legend_box_size": 12, "explicit_size": false, "print_zeroes": false, "truncate_legend": null, "strict": false, "label_font_size": 10, "show_minor_x_labels": true, "y_labels_major_count": null, "tooltip_font_size": 16, "print_values": false, "show_x_guides": false, "major_label_font_size": 10, "css": ["style.css", "graph.css"], "inner_radius": 0, "tooltip_border_radius": 0, "y_label_rotation": 0}</script><script type="text/javascript" xlink:href="http://kozea.github.io/pygal.js/javascripts/svg.jquery.js" /><script type="text/javascript" xlink:href="http://kozea.github.io/pygal.js/javascripts/pygal-tooltips.js" /></defs><title>Election 4 Participation</title><g class="graph line-graph vertical"><rect class="background" height="768" width="1024" x="0" y="0" /><g class="plot" transform="translate(80, 46)"><rect class="background" height="657.0" width="924.0" x="0" y="0" /><g class="axis y"><g class="guides"><path class="axis major line" d="M0.000000 644.365385 h924.000000" /><text class="major" x="-5" y="647.8653846153846">0</text></g><g class="guides"><path class="guide line" d="M0.000000 603.210286 h924.000000" /><text class="" x="-5" y="606.710285642696">100</text></g><g class="guides"><path class="guide line" d="M0.000000 562.055187 h924.000000" /><text class="" x="-5" y="565.5551866700075">200</text></g><g class="guides"><path class="guide line" d="M0.000000 520.900088 h924.000000" /><text class="" x="-5" y="524.400087697319">300</text></g><g class="guides"><path class="guide line" d="M0.000000 479.744989 h924.000000" /><text class="" x="-5" y="483.24498872463045">400</text></g><g class="guides"><path class="major guide line" d="M0.000000 438.589890 h924.000000" /><text class="major" x="-5" y="442.0898897519419">500</text></g><g class="guides"><path class="guide line" d="M0.000000 397.434791 h924.000000" /><text class="" x="-5" y="400.9347907792533">600</text></g><g class="guides"><path class="guide line" d="M0.000000 356.279692 h924.000000" /><text class="" x="-5" y="359.77969180656476">700</text></g><g class="guides"><path class="guide line" d="M0.000000 315.124593 h924.000000" /><text class="" x="-5" y="318.62459283387625">800</text></g><g class="guides"><path class="guide line" d="M0.000000 273.969494 h924.000000" /><text class="" x="-5" y="277.4694938611877">900</text></g><g class="guides"><path class="major guide line" d="M0.000000 232.814395 h924.000000" /><text class="major" x="-5" y="236.31439488849912">1000</text></g><g class="guides"><path class="guide line" d="M0.000000 191.659296 h924.000000" /><text class="" x="-5" y="195.15929591581056">1100</text></g><g class="guides"><path class="guide line" d="M0.000000 150.504197 h924.000000" /><text class="" x="-5" y="154.00419694312205">1200</text></g><g class="guides"><path class="guide line" d="M0.000000 109.349098 h924.000000" /><text class="" x="-5" y="112.84909797043349">1300</text></g><g class="guides"><path class="guide line" d="M0.000000 68.193999 h924.000000" /><text class="" x="-5" y="71.69399899774498">1400</text></g><g class="guides"><path class="major guide line" d="M0.000000 27.038900 h924.000000" /><text class="major" x="-5" y="30.538900025056364">1500</text></g></g><g class="series serie-0 color-0"><path class="line reactive nofill" d="M17.769231 644.365385 L20.237179 644.365385 22.705128 644.365385 25.173077 644.365385 27.641026 644.365385 30.108974 644.365385 32.576923 644.365385 35.044872 644.365385 37.512821 644.365385 39.980769 644.365385 42.448718 644.365385 44.916667 644.365385 47.384615 644.365385 49.852564 644.365385 52.320513 644.365385 54.788462 644.365385 57.256410 644.365385 59.724359 644.365385 62.192308 644.365385 64.660256 644.365385 67.128205 644.365385 69.596154 644.365385 72.064103 644.365385 74.532051 644.365385 77.000000 644.365385 79.467949 644.365385 81.935897 644.365385 84.403846 644.365385 86.871795 644.365385 89.339744 644.365385 91.807692 644.365385 94.275641 644.365385 96.743590 644.365385 99.211538 644.365385 101.679487 644.365385 104.147436 644.365385 106.615385 644.365385 109.083333 644.365385 111.551282 644.365385 114.019231 644.365385 116.487179 644.365385 118.955128 644.365385 121.423077 644.365385 123.891026 644.365385 126.358974 644.365385 128.826923 644.365385 131.294872 644.365385 133.762821 644.365385 136.230769 644.365385 138.698718 644.365385 141.166667 644.365385 143.634615 644.365385 146.102564 644.365385 148.570513 644.365385 151.038462 644.365385 153.506410 644.365385 155.974359 644.365385 158.442308 644.365385 160.910256 644.365385 163.378205 644.365385 165.846154 644.365385 168.314103 644.365385 170.782051 644.365385 173.250000 644.365385 175.717949 644.365385 178.185897 644.365385 180.653846 644.365385 183.121795 644.365385 185.589744 644.365385 188.057692 644.365385 190.525641 644.365385 192.993590 644.365385 195.461538 644.365385 197.929487 644.365385 200.397436 644.365385 202.865385 644.365385 205.333333 644.365385 207.801282 644.365385 210.269231 644.365385 212.737179 644.365385 215.205128 644.365385 217.673077 644.365385 220.141026 644.365385 222.608974 644.365385 225.076923 644.365385 227.544872 644.365385 230.012821 644.365385 232.480769 644.365385 234.948718 644.365385 237.416667 644.365385 239.884615 644.365385 242.352564 644.365385 244.820513 644.365385 247.288462 644.365385 249.756410 644.365385 252.224359 644.365385 254.692308 644.365385 257.160256 644.365385 259.628205 644.365385 262.096154 644.365385 264.564103 644.365385 267.032051 644.365385 269.500000 644.365385 271.967949 644.365385 274.435897 644.365385 276.903846 644.365385 279.371795 644.365385 281.839744 644.365385 284.307692 644.365385 286.775641 644.365385 289.243590 644.365385 291.711538 644.365385 294.179487 644.365385 296.647436 644.365385 299.115385 644.365385 301.583333 644.365385 304.051282 644.365385 306.519231 644.365385 308.987179 644.365385 311.455128 644.365385 313.923077 644.365385 316.391026 644.365385 318.858974 644.365385 321.326923 644.365385 323.794872 644.365385 326.262821 644.365385 328.730769 644.365385 331.198718 644.365385 333.666667 644.365385 336.134615 644.365385 338.602564 644.365385 341.070513 644.365385 343.538462 644.365385 346.006410 644.365385 348.474359 644.365385 350.942308 644.365385 353.410256 644.365385 355.878205 644.365385 358.346154 644.365385 360.814103 644.365385 363.282051 644.365385 365.750000 644.365385 368.217949 644.365385 370.685897 644.365385 373.153846 644.365385 375.621795 644.365385 378.089744 644.365385 380.557692 644.365385 383.025641 644.365385 385.493590 644.365385 387.961538 644.365385 390.429487 644.365385 392.897436 644.365385 395.365385 644.365385 397.833333 644.365385 400.301282 644.365385 402.769231 644.365385 405.237179 644.365385 407.705128 644.365385 410.173077 644.365385 412.641026 644.365385 415.108974 644.365385 417.576923 644.365385 420.044872 644.365385 422.512821 644.365385 424.980769 644.365385 427.448718 644.365385 429.916667 644.365385 432.384615 644.365385 434.852564 644.365385 437.320513 644.365385 439.788462 644.365385 442.256410 644.365385 444.724359 644.365385 447.192308 644.365385 449.660256 644.365385 452.128205 644.365385 454.596154 644.365385 457.064103 644.365385 459.532051 644.365385 462.000000 644.365385 464.467949 644.365385 466.935897 644.365385 469.403846 644.365385 471.871795 644.365385 474.339744 644.365385 476.807692 644.365385 479.275641 644.365385 481.743590 644.365385 484.211538 644.365385 486.679487 644.365385 489.147436 644.365385 491.615385 644.365385 494.083333 644.365385 496.551282 644.365385 499.019231 644.365385 501.487179 644.365385 503.955128 644.365385 506.423077 644.365385 508.891026 644.365385 511.358974 644.365385 513.826923 644.365385 516.294872 644.365385 518.762821 644.365385 521.230769 644.365385 523.698718 644.365385 526.166667 644.365385 528.634615 644.365385 531.102564 644.365385 533.570513 644.365385 536.038462 644.365385 538.506410 644.365385 540.974359 644.365385 543.442308 644.365385 545.910256 644.365385 548.378205 644.365385 550.846154 644.365385 553.314103 644.365385 555.782051 644.365385 558.250000 644.365385 560.717949 644.365385 563.185897 644.365385 565.653846 644.365385 568.121795 644.365385 570.589744 644.365385 573.057692 644.365385 575.525641 644.365385 577.993590 644.365385 580.461538 644.365385 582.929487 644.365385 585.397436 644.365385 587.865385 644.365385 590.333333 644.365385 592.801282 644.365385 595.269231 644.365385 597.737179 644.365385 600.205128 644.365385 602.673077 644.365385 605.141026 644.365385 607.608974 644.365385 610.076923 644.365385 612.544872 644.365385 615.012821 644.365385 617.480769 644.365385 619.948718 644.365385 622.416667 644.365385 624.884615 644.365385 627.352564 644.365385 629.820513 644.365385 632.288462 644.365385 634.756410 644.365385 637.224359 644.365385 639.692308 644.365385 642.160256 644.365385 644.628205 644.365385 647.096154 644.365385 649.564103 644.365385 652.032051 644.365385 654.500000 644.365385 656.967949 644.365385 659.435897 644.365385 661.903846 644.365385 664.371795 644.365385 666.839744 641.484528 669.307692 611.029754 671.775641 606.091143 674.243590 601.152531 676.711538 599.506327 679.179487 597.037021 681.647436 595.390817 684.115385 590.452205 686.583333 588.394450 689.051282 586.748246 691.519231 584.278940 693.987179 581.398083 696.455128 580.574981 698.923077 579.340328 701.391026 576.871022 703.858974 574.401716 706.326923 571.520859 708.794872 569.463104 711.262821 567.405350 713.730769 566.170697 716.198718 562.878289 718.666667 560.408983 721.134615 559.174330 723.602564 556.705024 726.070513 554.647269 728.538462 552.589514 731.006410 551.766412 733.474359 550.531759 735.942308 549.297106 738.410256 547.239351 740.878205 545.593147 743.346154 544.770045 745.814103 542.712290 748.282051 541.889188 750.750000 541.477637 753.217949 539.419882 755.685897 538.596780 758.153846 538.185229 760.621795 536.950576 763.089744 535.715923 765.557692 535.715923 768.025641 533.658168 770.493590 531.600413 772.961538 529.954209 775.429487 528.308006 777.897436 527.896455 780.365385 526.661802 782.833333 525.015598 785.301282 524.192496 787.769231 522.957843 790.237179 520.900088 792.705128 519.253884 795.173077 518.019231 797.641026 516.784578 800.108974 515.549925 802.576923 515.549925 805.044872 513.492170 807.512821 512.257517 809.980769 511.845966 812.448718 511.845966 814.916667 511.022864 817.384615 509.788211 819.852564 508.965109 822.320513 506.495803 824.788462 505.672701 827.256410 504.849599 829.724359 502.791844 832.192308 501.145640 834.660256 499.910987 837.128205 498.676334 839.596154 497.441681 842.064103 494.560824 844.532051 493.737722 847.000000 492.503069 849.467949 491.679967 851.935897 489.622212 854.403846 489.210661 856.871795 489.210661 859.339744 488.387560 861.807692 486.741356 864.275641 485.918254 866.743590 485.506703 869.211538 485.506703 871.679487 485.095152 874.147436 484.683601 876.615385 484.272050 879.083333 483.448948 881.551282 482.214295 884.019231 481.802744 886.487179 481.391193 888.955128 480.979642 891.423077 480.156540 893.891026 479.744989 896.358974 478.510336 898.826923 477.275683 901.294872 473.571724 903.762821 472.748622 906.230769 472.748622" /></g><g class="series serie-1 color-1"><path class="line reactive nofill" d="M17.769231 566.170697 L20.237179 534.481270 22.705128 509.788211 25.173077 494.560824 27.641026 485.918254 30.108974 472.337071 32.576923 463.282949 35.044872 454.640378 37.512821 446.409359 39.980769 437.355237 42.448718 428.301115 44.916667 421.716299 47.384615 414.308381 49.852564 405.665811 52.320513 399.492546 54.788462 394.553934 57.256410 389.203771 59.724359 383.030506 62.192308 378.091894 64.660256 374.799486 67.128205 369.037772 69.596154 364.510712 72.064103 360.395202 74.532051 356.691243 77.000000 354.221937 79.467949 352.987284 81.935897 351.752631 84.403846 350.929529 86.871795 349.694876 89.339744 348.871774 91.807692 347.637121 94.275641 346.814019 96.743590 344.756264 99.211538 344.344713 101.679487 342.286958 104.147436 341.463856 106.615385 341.052305 109.083333 338.171448 111.551282 337.348346 114.019231 336.936795 116.487179 335.290591 118.955128 333.644387 121.423077 332.821285 123.891026 330.763530 126.358974 329.940428 128.826923 327.471123 131.294872 326.648021 133.762821 325.001817 136.230769 322.944062 138.698718 321.297858 141.166667 318.828552 143.634615 318.005450 146.102564 317.593899 148.570513 316.359246 151.038462 315.536144 153.506410 314.713042 155.974359 313.889940 158.442308 313.478389 160.910256 313.066838 163.378205 313.066838 165.846154 312.243736 168.314103 310.597532 170.782051 308.951328 173.250000 307.305124 175.717949 305.658920 178.185897 304.424267 180.653846 304.424267 183.121795 304.012716 185.589744 303.189614 188.057692 302.366512 190.525641 301.954961 192.993590 301.954961 195.461538 300.720308 197.929487 299.485655 200.397436 298.662553 202.865385 298.251002 205.333333 297.839451 207.801282 297.839451 210.269231 297.427900 212.737179 295.781696 215.205128 295.370145 217.673077 294.135492 220.141026 293.723941 222.608974 293.312390 225.076923 292.900839 227.544872 292.489288 230.012821 292.077737 232.480769 290.431533 234.948718 289.196880 237.416667 287.962228 239.884615 286.727575 242.352564 286.316024 244.820513 285.904473 247.288462 285.081371 249.756410 283.846718 252.224359 283.435167 254.692308 283.435167 257.160256 283.023616 259.628205 283.023616 262.096154 282.200514 264.564103 280.965861 267.032051 280.965861 269.500000 280.142759 271.967949 280.142759 274.435897 280.142759 276.903846 280.142759 279.371795 280.142759 281.839744 280.142759 284.307692 279.731208 286.775641 279.731208 289.243590 278.908106 291.711538 278.496555 294.179487 276.438800 296.647436 276.438800 299.115385 275.204147 301.583333 274.792596 304.051282 273.969494 306.519231 273.146392 308.987179 273.146392 311.455128 273.146392 313.923077 272.323290 316.391026 272.323290 318.858974 271.911739 321.326923 271.088637 323.794872 271.088637 326.262821 271.088637 328.730769 270.265535 331.198718 268.619331 333.666667 268.619331 336.134615 268.619331 338.602564 268.619331 341.070513 268.207780 343.538462 268.207780 346.006410 267.796229 348.474359 267.384678 350.942308 267.384678 353.410256 266.973127 355.878205 266.150025 358.346154 264.915372 360.814103 264.092270 363.282051 264.092270 365.750000 264.092270 368.217949 263.680719 370.685897 263.269168 373.153846 263.269168 375.621795 263.269168 378.089744 262.446066 380.557692 262.034515 383.025641 262.034515 385.493590 261.622964 387.961538 261.211413 390.429487 261.211413 392.897436 260.799862 395.365385 260.799862 397.833333 260.799862 400.301282 259.976760 402.769231 259.565209 405.237179 259.153658 407.705128 258.330556 410.173077 258.330556 412.641026 258.330556 415.108974 257.507454 417.576923 257.095903 420.044872 257.095903 422.512821 257.095903 424.980769 256.684352 427.448718 255.861250 429.916667 245.572476 432.384615 216.352355 434.852564 206.886683 437.320513 199.478765 439.788462 196.597908 442.256410 191.659296 444.724359 187.955337 447.192308 184.662929 449.660256 182.605174 452.128205 179.312766 454.596154 171.904848 457.064103 167.377788 459.532051 163.673829 462.000000 158.323666 464.467949 153.796605 466.935897 147.211789 469.403846 143.919381 471.871795 140.626973 474.339744 137.334565 476.807692 134.453708 479.275641 128.691994 481.743590 125.399587 484.211538 124.164934 486.679487 120.872526 489.147436 118.403220 491.615385 115.522363 494.083333 114.287710 496.551282 113.876159 499.019231 112.641506 501.487179 110.172200 503.955128 109.760649 506.423077 108.525996 508.891026 107.702894 511.358974 106.879792 513.826923 104.410486 516.294872 103.587384 518.762821 102.352731 521.230769 101.529629 523.698718 99.471874 526.166667 99.471874 528.634615 98.648772 531.102564 97.414119 533.570513 96.591017 536.038462 96.179466 538.506410 94.533262 540.974359 93.710160 543.442308 92.887058 545.910256 91.652405 548.378205 91.652405 550.846154 89.183099 553.314103 88.359997 555.782051 87.536896 558.250000 87.536896 560.717949 87.536896 563.185897 87.125345 565.653846 85.890692 568.121795 85.890692 570.589744 85.890692 573.057692 85.067590 575.525641 84.244488 577.993590 84.244488 580.461538 84.244488 582.929487 83.421386 585.397436 83.009835 587.865385 82.186733 590.333333 80.952080 592.801282 80.952080 595.269231 80.128978 597.737179 79.305876 600.205128 78.071223 602.673077 77.248121 605.141026 75.190366 607.608974 74.778815 610.076923 73.955713 612.544872 73.955713 615.012821 73.132611 617.480769 72.721060 619.948718 72.721060 622.416667 72.309509 624.884615 71.897958 627.352564 71.074856 629.820513 71.074856 632.288462 70.663305 634.756410 69.840203 637.224359 69.840203 639.692308 69.428652 642.160256 69.428652 644.628205 68.605550 647.096154 67.782448 649.564103 67.370897 652.032051 66.136244 654.500000 64.901591 656.967949 64.490040 659.435897 62.432285 661.903846 61.197632 664.371795 60.786081 666.839744 58.728326 669.307692 52.143510 671.775641 50.085755 674.243590 49.262653 676.711538 48.851102 679.179487 48.439551 681.647436 48.439551 684.115385 47.616450 686.583333 47.204899 689.051282 46.793348 691.519231 46.381797 693.987179 45.147144 696.455128 45.147144 698.923077 44.324042 701.391026 43.912491 703.858974 43.089389 706.326923 43.089389 708.794872 41.443185 711.262821 41.031634 713.730769 41.031634 716.198718 40.208532 718.666667 39.796981 721.134615 39.385430 723.602564 38.973879 726.070513 38.973879 728.538462 38.973879 731.006410 38.562328 733.474359 38.562328 735.942308 38.562328 738.410256 38.562328 740.878205 38.562328 743.346154 38.150777 745.814103 38.150777 748.282051 37.327675 750.750000 37.327675 753.217949 36.916124 755.685897 36.093022 758.153846 35.681471 760.621795 35.269920 763.089744 35.269920 765.557692 34.858369 768.025641 34.035267 770.493590 32.800614 772.961538 32.389063 775.429487 32.389063 777.897436 31.565961 780.365385 31.565961 782.833333 31.154410 785.301282 30.742859 787.769231 30.331308 790.237179 29.508206 792.705128 28.685104 795.173077 28.685104 797.641026 28.685104 800.108974 28.685104 802.576923 28.273553 805.044872 28.273553 807.512821 28.273553 809.980769 27.862002 812.448718 27.450451 814.916667 27.450451 817.384615 27.450451 819.852564 27.450451 822.320513 25.804247 824.788462 25.392696 827.256410 24.981145 829.724359 24.569594 832.192308 23.746492 834.660256 23.334941 837.128205 22.923390 839.596154 22.923390 842.064103 21.688737 844.532051 20.865635 847.000000 20.042533 849.467949 19.630982 851.935897 19.630982 854.403846 19.630982 856.871795 19.630982 859.339744 19.219431 861.807692 17.984778 864.275641 17.984778 866.743590 17.573227 869.211538 16.750125 871.679487 16.750125 874.147436 15.927023 876.615385 15.927023 879.083333 14.692370 881.551282 14.280819 884.019231 13.869268 886.487179 13.869268 888.955128 13.457717 891.423077 13.457717 893.891026 13.457717 896.358974 13.457717 898.826923 13.457717 901.294872 13.046166 903.762821 12.634615 906.230769 12.634615" /></g></g><g class="titles"><text class="title plot_title" x="512.0" y="26">Election 4 Participation</text><text class="title" transform="rotate(-90 0.000000 374.500000)" x="0" y="400.5">Users</text></g><g class="plot overlay" transform="translate(80, 46)"><g class="series serie-0 color-0" /><g class="series serie-1 color-1" /></g><g class="plot text-overlay" transform="translate(80, 46)"><g class="series serie-0 color-0" /><g class="series serie-1 color-1" /></g><g class="plot tooltip-overlay" transform="translate(80, 46)"><g class="tooltip" style="opacity: 0" transform="translate(0 0)"><a><rect class="tooltip-box" height="0" rx="0" ry="0" width="0" /><text class="text"><tspan class="label" /><tspan class="value" /></text></a></g></g><g class="legends" transform="translate(90, 713)"><g class="legend reactive activate-serie" id="activate-serie-0"><rect class="color-0 reactive" height="12" width="12" x="0.0" y="1.0" /><text x="17.0" y="11.2">constituents</text></g><g class="legend reactive activate-serie" id="activate-serie-1"><rect class="color-1 reactive" height="12" width="12" x="462.0" y="1.0" /><text x="479.0" y="11.2">caucus</text></g></g></g></svg>