<?xml version='1.0' encoding='utf-8'?>
<svg xmlns:xlink="http://www.w3.org/1999/xlink" class="pygal-chart" id="chart-fc894632-416a-4094-a318-54c13d3b9213" viewBox="0 0 1024 768" xmlns="http://www.w3.org/2000/svg"><!--Generated with pygal 1.7.0 (etree) ©Kozea 2011-2014 on 2018-03-26--><!--http://pygal.org--><!--http://github.com/Kozea/pygal--><defs><style type="text/css">#chart-fc894632-416a-4094-a318-54c13d3b9213 .title{font-family:"monospace";font-size:16px}#chart-fc894632-416a-4094-a318-54c13d3b9213 .legends .legend text{font-family:"monospace";font-size:14px}#chart-fc894632-416a-4094-a318-54c13d3b9213 .axis text{font-family:"monospace";font-size:10px}#chart-fc894632-416a-4094-a318-54c13d3b9213 .axis text.major{font-family:"monospace";font-size:10px}#chart-fc894632-416a-4094-a318-54c13d3b9213 .series text{font-family:"monospace";font-size:8px}#chart-fc894632-416a-4094-a318-54c13d3b9213 .tooltip text{font-family:"monospace";font-size:16px}#chart-fc894632-416a-4094-a318-54c13d3b9213 text.no_data{font-size:64px}
#chart-fc894632-416a-4094-a318-54c13d3b9213{background-color:black}#chart-fc894632-416a-4094-a318-54c13d3b9213 path,#chart-fc894632-416a-4094-a318-54c13d3b9213 line,#chart-fc894632-416a-4094-a318-54c13d3b9213 rect,#chart-fc894632-416a-4094-a318-54c13d3b9213 circle{-webkit-transition:250ms;-moz-transition:250ms;transition:250ms}#chart-fc894632-416a-4094-a318-54c13d3b9213 .graph &gt; .background{fill:black}#chart-fc894632-416a-4094-a318-54c13d3b9213 .plot &gt; .background{fill:#111}#chart-fc894632-416a-4094-a318-54c13d3b9213 .graph{fill:#999}#chart-fc894632-416a-4094-a318-54c13d3b9213 text.no_data{fill:#eee}#chart-fc894632-416a-4094-a318-54c13d3b9213 .title{fill:#eee}#chart-fc894632-416a-4094-a318-54c13d3b9213 .legends .legend text{fill:#999}#chart-fc894632-416a-4094-a318-54c13d3b9213 .legends .legend:hover text{fill:#eee}#chart-fc894632-416a-4094-a318-54c13d3b9213 .axis .line{stroke:#eee}#chart-fc894632-416a-4094-a318-54c13d3b9213 .axis .guide.line{stroke:#555}#chart-fc894632-416a-4094-a318-54c13d3b9213 .axis .major.line{stroke:#999}#chart-fc894632-416a-4094-a318-54c13d3b9213 .axis text.major{stroke:#eee;fill:#eee}#chart-fc894632-416a-4094-a318-54c13d3b9213 .axis.y .guides:hover .guide.line,#chart-fc894632-416a-4094-a318-54c13d3b9213 .line-graph .axis.x .guides:hover .guide.line,#chart-fc894632-416a-4094-a318-54c13d3b9213 .stackedline-graph .axis.x .guides:hover .guide.line,#chart-fc894632-416a-4094-a318-54c13d3b9213 .xy-graph .axis.x .guides:hover .guide.line{stroke:#eee}#chart-fc894632-416a-4094-a318-54c13d3b9213 .axis .guides:hover text{fill:#eee}#chart-fc894632-416a-4094-a318-54c13d3b9213 .reactive{fill-opacity:.8}#chart-fc894632-416a-4094-a318-54c13d3b9213 .reactive.active,#chart-fc894632-416a-4094-a318-54c13d3b9213 .active .reactive{fill-opacity:.4}#chart-fc894632-416a-4094-a318-54c13d3b9213 .series{stroke-width:1.0;stroke-linejoin:round;stroke-linecap:round;stroke-dasharray:0,0}#chart-fc894632-416a-4094-a318-54c13d3b9213 .series text{fill:#eee}#chart-fc894632-416a-4094-a318-54c13d3b9213 .tooltip rect{fill:#111;stroke:#eee}#chart-fc894632-416a-4094-a318-54c13d3b9213 .tooltip text{fill:#eee}#chart-fc894632-416a-4094-a318-54c13d3b9213 .map-element{fill:#999;stroke:#555 !important;opacity:.9;stroke-width:3;-webkit-transition:250ms;-moz-transition:250ms;-o-transition:250ms;transition:250ms}#chart-fc894632-416a-4094-a318-54c13d3b9213 .map-element:hover{opacity:1;stroke-width:10}#chart-fc894632-416a-4094-a318-54c13d3b9213 .color-0,#chart-fc894632-416a-4094-a318-54c13d3b9213 .color-0 a:visited{stroke:#ff5995;fill:#ff5995}#chart-fc894632-416a-4094-a318-54c13d3b9213 .color-1,#chart-fc894632-416a-4094-a318-54c13d3b9213 .color-1 a:visited{stroke:#b6e354;fill:#b6e354}#chart-fc894632-416a-4094-a318-54c13d3b9213 .color-2,#chart-fc894632-416a-4094-a318-54c13d3b9213 .color-2 a:visited{stroke:#feed6c;fill:#feed6c}#chart-fc894632-416a-4094-a318-54c13d3b9213 .color-3,#chart-fc894632-416a-4094-a318-54c13d3b9213 .color-3 a:visited{stroke:#8cedff;fill:#8cedff}#chart-fc894632-416a-4094-a318-54c13d3b9213 .color-4,#chart-fc894632-416a-4094-a318-54c13d3b9213 .color-4 a:visited{stroke:#9e6ffe;fill:#9e6ffe}#chart-fc894632-416a-4094-a318-54c13d3b9213 .color-5,#chart-fc894632-416a-4094-a318-54c13d3b9213 .color-5 a:visited{stroke:#899ca1;fill:#899ca1}#chart-fc894632-416a-4094-a318-54c13d3b9213 .color-6,#chart-fc894632-416a-4094-a318-54c13d3b9213 .color-6 a:visited{stroke:#f8f8f2;fill:#f8f8f2}#chart-fc894632-416a-4094-a318-54c13d3b9213 .color-7,#chart-fc894632-416a-4094-a318-54c13d3b9213 .color-7 a:visited{stroke:#bf4646;fill:#bf4646}#chart-fc894632-416a-4094-a318-54c13d3b9213 .color-8,#chart-fc894632-416a-4094-a318-54c13d3b9213 .color-8 a:visited{stroke:#516083;fill:#516083}#chart-fc894632-416a-4094-a318-54c13d3b9213 .color-9,#chart-fc894632-416a-4094-a318-54c13d3b9213 .color-9 a:visited{stroke:#f92672;fill:#f92672}#chart-fc894632-416a-4094-a318-54c13d3b9213 .color-10,#chart-fc894632-416a-4094-a318-54c13d3b9213 .color-10 a:visited{stroke:#82b414;fill:#82b414}#chart-fc894632-416a-4094-a318-54c13d3b9213 .color-11,#chart-fc894632-416a-4094-a318-54c13d3b9213 .color-11 a:visited{stroke:#fd971f;fill:#fd971f}#chart-fc894632-416a-4094-a318-54c13d3b9213 .color-12,#chart-fc894632-416a-4094-a318-54c13d3b9213 .color-12 a:visited{stroke:#56c2d6;fill:#56c2d6}#chart-fc894632-416a-4094-a318-54c13d3b9213 .color-13,#chart-fc894632-416a-4094-a318-54c13d3b9213 .color-13 a:visited{stroke:#808384;fill:#808384}#chart-fc894632-416a-4094-a318-54c13d3b9213 .color-14,#chart-fc894632-416a-4094-a318-54c13d3b9213 .color-14 a:visited{stroke:#8c54fe;fill:#8c54fe}#chart-fc894632-416a-4094-a318-54c13d3b9213 .color-15,#chart-fc894632-416a-4094-a318-54c13d3b9213 .color-15 a:visited{stroke:#465457;fill:#465457}
#chart-fc894632-416a-4094-a318-54c13d3b9213 text.no_data{text-anchor:middle}#chart-fc894632-416a-4094-a318-54c13d3b9213 .guide.line{fill-opacity:0}#chart-fc894632-416a-4094-a318-54c13d3b9213 .centered{text-anchor:middle}#chart-fc894632-416a-4094-a318-54c13d3b9213 .title{text-anchor:middle}#chart-fc894632-416a-4094-a318-54c13d3b9213 .legends .legend text{fill-opacity:1}#chart-fc894632-416a-4094-a318-54c13d3b9213 .axis.x text{text-anchor:middle}#chart-fc894632-416a-4094-a318-54c13d3b9213 .axis.x:not(.web) text[transform]{text-anchor:start}#chart-fc894632-416a-4094-a318-54c13d3b9213 .axis.y text{text-anchor:end}#chart-fc894632-416a-4094-a318-54c13d3b9213 .axis.y2 text{text-anchor:start}#chart-fc894632-416a-4094-a318-54c13d3b9213 .axis.y .logarithmic text:not(.major),#chart-fc894632-416a-4094-a318-54c13d3b9213 .axis.y2 .logarithmic text:not(.major){font-size:50%}#chart-fc894632-416a-4094-a318-54c13d3b9213 .axis .guide.line{stroke-dasharray:4,4}#chart-fc894632-416a-4094-a318-54c13d3b9213 .axis .major.guide.line{stroke-dasharray:6,6}#chart-fc894632-416a-4094-a318-54c13d3b9213 .axis text.major{stroke-width:0.5px}#chart-fc894632-416a-4094-a318-54c13d3b9213 .horizontal .axis.y .guide.line,#chart-fc894632-416a-4094-a318-54c13d3b9213 .horizontal .axis.y2 .guide.line,#chart-fc894632-416a-4094-a318-54c13d3b9213 .vertical .axis.x .guide.line{opacity:0}#chart-fc894632-416a-4094-a318-54c13d3b9213 .horizontal .axis.always_show .guide.line,#chart-fc894632-416a-4094-a318-54c13d3b9213 .vertical .axis.always_show .guide.line{opacity:1 !important}#chart-fc894632-416a-4094-a318-54c13d3b9213 .axis.y .guides:hover .guide.line,#chart-fc894632-416a-4094-a318-54c13d3b9213 .axis.y2 .guides:hover .guide.line,#chart-fc894632-416a-4094-a318-54c13d3b9213 .axis.x .guides:hover .guide.line{opacity:1}#chart-fc894632-416a-4094-a318-54c13d3b9213 .axis .guides:hover text{opacity:1}#chart-fc894632-416a-4094-a318-54c13d3b9213 .nofill{fill:none}#chart-fc894632-416a-4094-a318-54c13d3b9213 .subtle-fill{fill-opacity:.2}#chart-fc894632-416a-4094-a318-54c13d3b9213 .dot{stroke-width:1px;fill-opacity:1}#chart-fc894632-416a-4094-a318-54c13d3b9213 .dot.active{stroke-width:5px}#chart-fc894632-416a-4094-a318-54c13d3b9213 .series text{stroke:none}#chart-fc894632-416a-4094-a318-54c13d3b9213 .series text.active{opacity:1}#chart-fc894632-416a-4094-a318-54c13d3b9213 .tooltip rect{fill-opacity:0.8}#chart-fc894632-416a-4094-a318-54c13d3b9213 .tooltip text{fill-opacity:1}#chart-fc894632-416a-4094-a318-54c13d3b9213 .tooltip text tspan.label{fill-opacity:.8}</style><script type="text/javascript">window.config = {"css": ["style.css", "graph.css"], "disable_xml_declaration": false, "dots_size": 2.5, "explicit_size": false, "fill": false, "half_pie": false, "height": 768, "human_readable": false, "include_x_axis": false, "inner_radius": 0, "interpolate": null, "interpolation_parameters": {}, "interpolation_precision": 250, "js": ["http://kozea.github.io/pygal.js/javascripts/svg.jquery.js", "http://kozea.github.io/pygal.js/javascripts/pygal-tooltips.js"], "label_font_size": 10, "legend_at_bottom": true, "legend_at_bottom_columns": null, "legend_box_size": 12, "legend_font_size": 14, "logarithmic": false, "major_label_font_size": 10, "margin": 20, "margin_bottom": null, "margin_left": null, "margin_right": null, "margin_top": null, "missing_value_fill_truncation": "x", "mode": null, "no_data_font_size": 64, "no_data_text": "No data", "no_prefix": false, "order_min": null, "pretty_print": false, "print_values": false, "print_zeroes": false, "range": null, "rounded_bars": null, "show_dots": false, "show_legend": true, "show_minor_x_labels": true, "show_minor_y_labels": true, "show_only_major_dots": false, "show_x_guides": false, "show_x_labels": true, "show_y_guides": true, "show_y_labels": true, "spacing": 10, "stack_from_top": false, "strict": false, "stroke": true, "style": {"background": "black", "colors": ["#ff5995", "#b6e354", "#feed6c", "#8cedff", "#9e6ffe", "#899ca1", "#f8f8f2", "#bf4646", "#516083", "#f92672", "#82b414", "#fd971f", "#56c2d6", "#808384", "#8c54fe", "#465457"], "font_family": "monospace", "foreground": "#999", "foreground_dark": "#555", "foreground_light": "#eee", "opacity": ".8", "opacity_hover": ".4", "plot_background": "#111", "stroke_dasharray": "0,0", "stroke_style": "round", "stroke_width": 1.0, "transition": "250ms"}, "title": "Election 7 Participation", "title_font_size": 16, "tooltip_border_radius": 0, "tooltip_font_size": 16, "truncate_label": null, "truncate_legend": null, "value_font_size": 8, "width": 1024, "x_label_format": "%Y-%m-%d %H:%M:%S.%f", "x_label_rotation": 0, "x_labels": null, "x_labels_major": null, "x_labels_major_count": null, "x_labels_major_every": null, "x_title": null, "x_value_formatter": null, "xrange": null, "y_label_rotation": 0, "y_labels": null, "y_labels_major": null, "y_labels_major_count": null, "y_labels_major_every": null, "y_title": "Users", "zero": 0}</script><script type="text/javascript" xlink:href="http://kozea.github.io/pygal.js/javascripts/svg.jquery.js" /><script type="text/javascript" xlink:href="http://kozea.github.io/pygal.js/javascripts/pygal-tooltips.js" /></defs><title>Election 7 Participation</title><g class="graph line-graph vertical"><rect class="background" height="768" width="1024" x="0" y="0" /><g class="plot" transform="translate(86, 46)"><rect class="background" height="657.0" width="918.0" x="0" y="0" /><g class="axis y"><g class="guides"><path class="axis major line" d="M0.000000 644.365385 h918.000000" /><text class="major" x="-5" y="647.8653846153846">0</text></g><g class="guides"><path class="guide line" d="M0.000000 563.547294 h918.000000" /><text class="" x="-5" y="567.0472939593828">10000</text></g><g class="guides"><path class="guide line" d="M0.000000 482.729203 h918.000000" /><text class="" x="-5" y="486.22920330338104">20000</text></g><g class="guides"><path class="guide line" d="M0.000000 401.911113 h918.000000" /><text class="" x="-5" y="405.41111264737924">30000</text></g><g class="guides"><path class="guide line" d="M0.000000 321.093022 h918.000000" /><text class="" x="-5" y="324.59302199137744">40000</text></g><g class="guides"><path class="major guide line" d="M0.000000 240.274931 h918.000000" /><text class="major" x="-5" y="243.77493133537564">50000</text></g><g class="guides"><path class="guide line" d="M0.000000 159.456841 h918.000000" /><text class="" x="-5" y="162.95684067937384">60000</text></g><g class="guides"><path class="guide line" d="M0.000000 78.638750 h918.000000" /><text class="" x="-5" y="82.13875002337204">70000</text></g></g><g class="series serie-0 color-0"><path class="line reactive nofill" d="M17.653846 644.365385 L20.105769 644.365385 22.557692 644.365385 25.009615 644.365385 27.461538 644.365385 29.913462 644.365385 32.365385 644.365385 34.817308 644.365385 37.269231 644.365385 39.721154 644.365385 42.173077 644.365385 44.625000 644.365385 47.076923 644.365385 49.528846 644.365385 51.980769 644.365385 54.432692 644.365385 56.884615 644.365385 59.336538 644.365385 61.788462 644.365385 64.240385 644.365385 66.692308 644.365385 69.144231 644.365385 71.596154 644.365385 74.048077 644.365385 76.500000 644.365385 78.951923 644.365385 81.403846 644.365385 83.855769 644.365385 86.307692 644.365385 88.759615 644.365385 91.211538 644.365385 93.663462 644.365385 96.115385 644.365385 98.567308 644.365385 101.019231 644.365385 103.471154 644.365385 105.923077 644.365385 108.375000 644.365385 110.826923 644.365385 113.278846 644.365385 115.730769 644.365385 118.182692 644.365385 120.634615 644.365385 123.086538 644.365385 125.538462 644.365385 127.990385 644.365385 130.442308 644.365385 132.894231 644.365385 135.346154 644.365385 137.798077 644.365385 140.250000 644.365385 142.701923 644.365385 145.153846 644.365385 147.605769 644.365385 150.057692 644.365385 152.509615 644.365385 154.961538 644.365385 157.413462 644.365385 159.865385 644.365385 162.317308 644.365385 164.769231 644.365385 167.221154 644.365385 169.673077 644.365385 172.125000 644.365385 174.576923 644.365385 177.028846 644.365385 179.480769 644.365385 181.932692 644.365385 184.384615 644.365385 186.836538 644.365385 189.288462 644.365385 191.740385 644.365385 194.192308 644.365385 196.644231 644.365385 199.096154 644.365385 201.548077 644.365385 204.000000 644.365385 206.451923 644.365385 208.903846 644.365385 211.355769 644.365385 213.807692 644.365385 216.259615 644.365385 218.711538 644.365385 221.163462 644.365385 223.615385 644.365385 226.067308 644.365385 228.519231 644.365385 230.971154 644.365385 233.423077 644.365385 235.875000 644.365385 238.326923 644.365385 240.778846 644.365385 243.230769 644.365385 245.682692 644.365385 248.134615 644.365385 250.586538 644.365385 253.038462 644.365385 255.490385 644.365385 257.942308 644.365385 260.394231 644.365385 262.846154 644.365385 265.298077 644.365385 267.750000 644.365385 270.201923 644.365385 272.653846 644.365385 275.105769 644.365385 277.557692 644.365385 280.009615 644.365385 282.461538 644.365385 284.913462 644.365385 287.365385 644.365385 289.817308 644.365385 292.269231 644.365385 294.721154 644.365385 297.173077 644.365385 299.625000 644.365385 302.076923 644.365385 304.528846 644.365385 306.980769 644.365385 309.432692 644.365385 311.884615 644.365385 314.336538 644.365385 316.788462 644.365385 319.240385 644.365385 321.692308 644.365385 324.144231 644.365385 326.596154 644.365385 329.048077 644.365385 331.500000 644.365385 333.951923 644.365385 336.403846 644.365385 338.855769 644.365385 341.307692 644.365385 343.759615 644.365385 346.211538 644.365385 348.663462 644.365385 351.115385 644.365385 353.567308 644.365385 356.019231 644.365385 358.471154 644.365385 360.923077 644.365385 363.375000 644.365385 365.826923 644.365385 368.278846 644.365385 370.730769 644.365385 373.182692 644.365385 375.634615 644.365385 378.086538 644.365385 380.538462 644.365385 382.990385 644.365385 385.442308 644.365385 387.894231 644.365385 390.346154 644.365385 392.798077 644.365385 395.250000 644.365385 397.701923 644.365385 400.153846 644.365385 402.605769 644.365385 405.057692 644.365385 407.509615 644.365385 409.961538 644.365385 412.413462 644.365385 414.865385 644.365385 417.317308 644.365385 419.769231 644.365385 422.221154 644.365385 424.673077 644.365385 427.125000 644.365385 429.576923 644.365385 432.028846 644.365385 434.480769 644.365385 436.932692 644.365385 439.384615 644.365385 441.836538 644.365385 444.288462 644.365385 446.740385 644.365385 449.192308 644.365385 451.644231 644.365385 454.096154 644.365385 456.548077 644.365385 459.000000 644.365385 461.451923 644.365385 463.903846 644.365385 466.355769 644.365385 468.807692 644.365385 471.259615 644.365385 473.711538 644.365385 476.163462 644.365385 478.615385 644.365385 481.067308 644.365385 483.519231 644.365385 485.971154 644.365385 488.423077 644.365385 490.875000 644.365385 493.326923 644.365385 495.778846 644.365385 498.230769 644.365385 500.682692 644.365385 503.134615 644.365385 505.586538 644.365385 508.038462 644.365385 510.490385 644.365385 512.942308 644.365385 515.394231 644.365385 517.846154 644.365385 520.298077 644.365385 522.750000 644.365385 525.201923 644.365385 527.653846 644.365385 530.105769 644.365385 532.557692 644.365385 535.009615 644.365385 537.461538 644.365385 539.913462 644.365385 542.365385 644.365385 544.817308 644.365385 547.269231 644.365385 549.721154 644.365385 552.173077 644.365385 554.625000 644.365385 557.076923 644.365385 559.528846 644.365385 561.980769 644.365385 564.432692 644.365385 566.884615 644.365385 569.336538 644.365385 571.788462 644.365385 574.240385 644.365385 576.692308 644.365385 579.144231 644.365385 581.596154 644.365385 584.048077 644.365385 586.500000 644.365385 588.951923 644.365385 591.403846 644.365385 593.855769 644.365385 596.307692 644.365385 598.759615 644.365385 601.211538 644.365385 603.663462 644.365385 606.115385 644.365385 608.567308 644.365385 611.019231 644.365385 613.471154 644.365385 615.923077 644.365385 618.375000 644.365385 620.826923 644.365385 623.278846 644.365385 625.730769 644.365385 628.182692 644.365385 630.634615 644.365385 633.086538 644.365385 635.538462 644.365385 637.990385 644.365385 640.442308 644.365385 642.894231 644.365385 645.346154 644.365385 647.798077 644.365385 650.250000 644.365385 652.701923 644.365385 655.153846 644.365385 657.605769 644.365385 660.057692 644.365385 662.509615 644.365385 664.961538 620.418984 667.413462 607.148654 669.865385 599.802289 672.317308 594.896631 674.769231 591.720480 677.221154 588.956502 679.673077 586.774413 682.125000 584.172071 684.576923 580.818120 687.028846 577.456087 689.480769 574.199118 691.932692 570.958313 694.384615 567.644771 696.836538 564.290820 699.288462 560.476207 701.740385 557.089929 704.192308 553.776387 706.644231 551.012408 709.096154 548.668683 711.548077 545.920868 714.000000 543.601389 716.451923 541.370810 718.903846 539.358439 721.355769 537.313742 723.807692 535.834771 726.259615 534.072936 728.711538 532.925319 731.163462 531.874684 733.615385 531.074585 736.067308 530.411877 738.519231 529.692596 740.971154 529.094542 743.423077 528.585388 745.875000 527.858025 748.326923 527.066008 750.778846 526.168927 753.230769 524.964737 755.682692 523.744384 758.134615 522.435131 760.586538 521.061224 763.038462 519.848952 765.490385 518.337654 767.942308 517.327428 770.394231 515.929275 772.846154 514.636185 775.298077 513.375423 777.750000 512.090416 780.201923 510.975126 782.653846 509.811345 785.105769 508.841528 787.557692 507.693912 790.009615 506.926140 792.461538 505.948241 794.913462 505.091569 797.365385 503.960116 799.817308 503.006462 802.269231 501.010255 804.721154 498.278604 807.173077 494.932735 809.625000 491.061548 812.076923 484.660756 814.528846 478.995408 816.980769 473.895786 819.432692 469.733654 821.884615 466.274640 824.336538 462.807544 826.788462 459.784947 829.240385 456.730024 831.692308 454.394381 834.144231 452.600219 836.596154 451.274802 839.048077 449.925140 841.500000 448.535069 843.951923 447.411698 846.403846 446.401472 848.855769 445.682191 851.307692 445.213446 853.759615 444.688128 856.211538 444.057747 858.663462 443.492020 861.115385 442.813148 863.567308 441.907986 866.019231 441.099805 868.471154 439.733979 870.923077 438.238844 873.375000 436.703301 875.826923 434.860648 878.278846 433.688786 880.730769 432.258306 883.182692 430.722762 885.634615 429.486245 888.086538 428.063847 890.538462 426.843494 892.990385 425.962576 895.442308 424.976596 897.894231 424.241151 900.346154 424.168415" /></g><g class="series serie-1 color-1"><path class="line reactive nofill" d="M17.653846 627.878494 L20.105769 620.362412 22.557692 616.046726 25.009615 613.525201 27.461538 611.617894 29.913462 610.025778 32.365385 608.643789 34.817308 606.890036 37.269231 605.419147 39.721154 603.172404 42.173077 600.489243 44.625000 597.555547 47.076923 593.749014 49.528846 589.740437 51.980769 586.952213 54.432692 585.093397 56.884615 583.266908 59.336538 581.440419 61.788462 579.419967 64.240385 577.658133 66.692308 576.066016 69.144231 574.966890 71.596154 574.021319 74.048077 573.051501 76.500000 572.114012 78.951923 571.338158 81.403846 570.578468 83.855769 570.198623 86.307692 569.859187 88.759615 569.495505 91.211538 569.172233 93.663462 568.784306 96.115385 568.436788 98.567308 567.992289 101.019231 567.580117 103.471154 566.973981 105.923077 566.133473 108.375000 565.349537 110.826923 564.711074 113.278846 564.161511 115.730769 563.377576 118.182692 562.609804 120.634615 562.003668 123.086538 561.219733 125.538462 560.702497 127.990385 560.072116 130.442308 559.603371 132.894231 559.142708 135.346154 558.609309 137.798077 558.100155 140.250000 557.655655 142.701923 557.397037 145.153846 557.203074 147.605769 557.017192 150.057692 556.839392 152.509615 556.637347 154.961538 556.459547 157.413462 556.176684 159.865385 555.764512 162.317308 555.400830 164.769231 554.924004 167.221154 554.261295 169.673077 553.768305 172.125000 553.218742 174.576923 552.644934 177.028846 552.063043 179.480769 551.521562 181.932692 551.028572 184.384615 550.511336 186.836538 550.050673 189.288462 549.695073 191.740385 549.274819 194.192308 548.903056 196.644231 548.571702 199.096154 548.199939 201.548077 547.933239 204.000000 547.731194 206.451923 547.561476 208.903846 547.416003 211.355769 547.294776 213.807692 547.181631 216.259615 546.955340 218.711538 546.777540 221.163462 546.543168 223.615385 546.365368 226.067308 545.856214 228.519231 545.476369 230.971154 545.112687 233.423077 544.757088 235.875000 544.336834 238.326923 543.940825 240.778846 543.617553 243.230769 543.270035 245.682692 542.938681 248.134615 542.647736 250.586538 542.340627 253.038462 542.138582 255.490385 541.896127 257.942308 541.774900 260.394231 541.645591 262.846154 541.532446 265.298077 541.451628 267.750000 541.322319 270.201923 541.289992 272.653846 541.241501 275.105769 541.168765 277.557692 541.047538 280.009615 540.885901 282.461538 540.764674 284.913462 540.667692 287.365385 540.497975 289.817308 540.360584 292.269231 540.295929 294.721154 540.166620 297.173077 540.021148 299.625000 539.916084 302.076923 539.754448 304.528846 539.576648 306.980769 539.487748 309.432692 539.390767 311.884615 539.212967 314.336538 539.099822 316.788462 538.954349 319.240385 538.808876 321.692308 538.728058 324.144231 538.622995 326.596154 538.509849 329.048077 538.453277 331.500000 538.396704 333.951923 538.267395 336.403846 538.146168 338.855769 538.065350 341.307692 537.871387 343.759615 537.725914 346.211538 537.596605 348.663462 537.459214 351.115385 537.305660 353.567308 537.152106 356.019231 536.925815 358.471154 536.828833 360.923077 536.683361 363.375000 536.481315 365.826923 536.214616 368.278846 536.044898 370.730769 535.883262 373.182692 535.681216 375.634615 535.551907 378.086538 535.406435 380.538462 535.349862 382.990385 535.252880 385.442308 535.123571 387.894231 534.986181 390.346154 534.638663 392.798077 534.218409 395.250000 533.806237 397.701923 533.289001 400.153846 532.828338 402.605769 532.262611 405.057692 531.640312 407.509615 531.123076 409.961538 530.686658 412.413462 530.185586 414.865385 529.579450 417.317308 529.167278 419.769231 528.730861 422.221154 528.496488 424.673077 528.148970 427.125000 527.696389 429.576923 489.816950 432.028846 467.923329 434.480769 454.903535 436.932692 443.912274 439.384615 437.438745 441.836538 431.013707 444.288462 425.623140 446.740385 418.624294 449.192308 408.837223 451.644231 397.821717 454.096154 385.892967 456.548077 370.383975 459.000000 351.626097 461.451923 332.755072 463.903846 316.922809 466.355769 306.473029 468.807692 295.691896 471.259615 286.026052 473.711538 276.279391 476.163462 268.456200 478.615385 259.849073 481.067308 254.110988 483.519231 249.326557 485.971154 244.962381 488.423077 240.897231 490.875000 237.276580 493.326923 234.561092 495.778846 232.346677 498.230769 231.053587 500.682692 229.671598 503.134615 228.410836 505.586538 226.899537 508.038462 225.129621 510.490385 223.206151 512.942308 220.522990 515.394231 217.629702 517.846154 214.340406 520.298077 209.887329 522.750000 206.113124 525.201923 203.074364 527.653846 199.364814 530.105769 195.824981 532.557692 192.624585 535.009615 189.585825 537.461538 186.838010 539.913462 184.672085 542.365385 182.667796 544.817308 180.954453 547.269231 178.958246 549.721154 177.301475 552.173077 175.951813 554.625000 175.070896 557.076923 174.319288 559.528846 173.608088 561.980769 173.115098 564.432692 172.428144 566.884615 171.611882 569.336538 170.448101 571.788462 169.332811 574.240385 167.789186 576.692308 166.035433 579.144231 164.095799 581.596154 161.743993 584.048077 160.095304 586.500000 158.026360 588.951923 156.086726 591.403846 154.090519 593.855769 152.393340 596.307692 151.350786 598.759615 149.516216 601.211538 148.392844 603.663462 147.164409 606.115385 146.089528 608.567308 145.006566 611.019231 144.036749 613.471154 143.365959 615.923077 142.945705 618.375000 142.549696 620.826923 142.129442 623.278846 141.628370 625.730769 141.094970 628.182692 140.577735 630.634615 139.826126 633.086538 138.912882 635.538462 138.040047 637.990385 136.973248 640.442308 135.680158 642.894231 134.467887 645.346154 133.586970 647.798077 132.600989 650.250000 131.356391 652.701923 130.556291 655.153846 129.594556 657.605769 128.859112 660.057692 128.180240 662.509615 127.525613 664.961538 118.692196 667.413462 113.422856 669.865385 110.125478 672.317308 107.894899 674.769231 106.537155 677.221154 105.252147 679.673077 104.241921 682.125000 103.191286 684.576923 102.059833 687.028846 101.041525 689.480769 99.748435 691.932692 98.552328 694.384615 97.170338 696.836538 95.869167 699.288462 94.406360 701.740385 92.951634 704.192308 91.448417 706.644231 90.066428 709.096154 88.837993 711.548077 87.302449 714.000000 86.284141 716.451923 85.152688 718.903846 84.045480 721.355769 83.019091 723.807692 81.960374 726.259615 81.030966 728.711538 80.432912 731.163462 79.818694 733.615385 79.309540 736.067308 78.937777 738.519231 78.525605 740.971154 78.202332 743.423077 77.903305 745.875000 77.483051 748.326923 76.957734 750.778846 76.367762 753.230769 75.745462 755.682692 74.993854 758.134615 74.201837 760.586538 73.361329 763.038462 72.569311 765.490385 71.664149 767.942308 70.872132 770.394231 69.861905 772.846154 69.053724 775.298077 68.253625 777.750000 67.518181 780.201923 66.798900 782.653846 66.039210 785.105769 65.376501 787.557692 64.665302 790.009615 64.228884 792.461538 63.679321 794.913462 63.154004 797.365385 62.499377 799.817308 62.014469 802.269231 61.117388 804.721154 59.905117 807.173077 58.361491 809.625000 56.688557 812.076923 54.013478 814.528846 51.079781 816.980769 48.186493 819.432692 45.737705 821.884615 43.725335 824.336538 41.236138 826.788462 39.482385 829.240385 37.461933 831.692308 35.788998 834.144231 34.544400 836.596154 33.356374 839.048077 32.386557 841.500000 31.247022 843.951923 30.374186 846.403846 29.574087 848.855769 29.073015 851.307692 28.644679 853.759615 28.192098 856.211538 27.804171 858.663462 27.383917 861.115385 27.012154 863.567308 26.406018 866.019231 25.888782 868.471154 24.991701 870.923077 23.747103 873.375000 22.575241 875.826923 21.387215 878.278846 20.498216 880.730769 19.302108 883.182692 18.081755 885.634615 17.120019 888.086538 15.875421 890.538462 14.873276 892.990385 14.097423 895.442308 13.361978 897.894231 12.666943 900.346154 12.634615" /></g></g><g class="titles"><text class="title plot_title" x="512.0" y="26">Election 7 Participation</text><text class="title" transform="rotate(-90 0.000000 374.500000)" x="0" y="400.5">Users</text></g><g class="plot overlay" transform="translate(86, 46)"><g class="series serie-0 color-0" /><g class="series serie-1 color-1" /></g><g class="plot text-overlay" transform="translate(86, 46)"><g class="series serie-0 color-0" /><g class="series serie-1 color-1" /></g><g class="plot tooltip-overlay" transform="translate(86, 46)"><g class="tooltip" style="opacity: 0" transform="translate(0 0)"><a><rect class="tooltip-box" height="0" rx="0" ry="0" width="0" /><text class="text"><tspan class="label" /><tspan class="value" /></text></a></g></g><g class="legends" transform="translate(96, 713)"><g class="legend reactive activate-serie" id="activate-serie-0"><rect class="color-0 reactive" height="12" width="12" x="0.0" y="1.0" /><text x="17.0" y="11.2">constituents</text></g><g class="legend reactive activate-serie" id="activate-serie-1"><rect class="color-1 reactive" height="12" width="12" x="459.0" y="1.0" /><text x="476.0" y="11.2">caucus</text></g></g></g></svg>