<?xml version='1.0' encoding='utf-8'?>
<svg xmlns:xlink="http://www.w3.org/1999/xlink" class="pygal-chart" id="chart-52046b5c-91fc-47a2-9ecd-d34c94215e2a" viewBox="0 0 1024 768" xmlns="http://www.w3.org/2000/svg"><!--Generated with pygal 1.7.0 (etree) ©Kozea 2011-2014 on 2018-03-25--><!--http://pygal.org--><!--http://github.com/Kozea/pygal--><defs><style type="text/css">#chart-52046b5c-91fc-47a2-9ecd-d34c94215e2a .title{font-family:"monospace";font-size:16px}#chart-52046b5c-91fc-47a2-9ecd-d34c94215e2a .legends .legend text{font-family:"monospace";font-size:14px}#chart-52046b5c-91fc-47a2-9ecd-d34c94215e2a .axis text{font-family:"monospace";font-size:10px}#chart-52046b5c-91fc-47a2-9ecd-d34c94215e2a .axis text.major{font-family:"monospace";font-size:10px}#chart-52046b5c-91fc-47a2-9ecd-d34c94215e2a .series text{font-family:"monospace";font-size:8px}#chart-52046b5c-91fc-47a2-9ecd-d34c94215e2a .tooltip text{font-family:"monospace";font-size:16px}#chart-52046b5c-91fc-47a2-9ecd-d34c94215e2a text.no_data{font-size:64px}
#chart-52046b5c-91fc-47a2-9ecd-d34c94215e2a{background-color:black}#chart-52046b5c-91fc-47a2-9ecd-d34c94215e2a path,#chart-52046b5c-91fc-47a2-9ecd-d34c94215e2a line,#chart-52046b5c-91fc-47a2-9ecd-d34c94215e2a rect,#chart-52046b5c-91fc-47a2-9ecd-d34c94215e2a circle{-webkit-transition:250ms;-moz-transition:250ms;transition:250ms}#chart-52046b5c-91fc-47a2-9ecd-d34c94215e2a .graph &gt; .background{fill:black}#chart-52046b5c-91fc-47a2-9ecd-d34c94215e2a .plot &gt; .background{fill:#111}#chart-52046b5c-91fc-47a2-9ecd-d34c94215e2a .graph{fill:#999}#chart-52046b5c-91fc-47a2-9ecd-d34c94215e2a text.no_data{fill:#eee}#chart-52046b5c-91fc-47a2-9ecd-d34c94215e2a .title{fill:#eee}#chart-52046b5c-91fc-47a2-9ecd-d34c94215e2a .legends .legend text{fill:#999}#chart-52046b5c-91fc-47a2-9ecd-d34c94215e2a .legends .legend:hover text{fill:#eee}#chart-52046b5c-91fc-47a2-9ecd-d34c94215e2a .axis .line{stroke:#eee}#chart-52046b5c-91fc-47a2-9ecd-d34c94215e2a .axis .guide.line{stroke:#555}#chart-52046b5c-91fc-47a2-9ecd-d34c94215e2a .axis .major.line{stroke:#999}#chart-52046b5c-91fc-47a2-9ecd-d34c94215e2a .axis text.major{stroke:#eee;fill:#eee}#chart-52046b5c-91fc-47a2-9ecd-d34c94215e2a .axis.y .guides:hover .guide.line,#chart-52046b5c-91fc-47a2-9ecd-d34c94215e2a .line-graph .axis.x .guides:hover .guide.line,#chart-52046b5c-91fc-47a2-9ecd-d34c94215e2a .stackedline-graph .axis.x .guides:hover .guide.line,#chart-52046b5c-91fc-47a2-9ecd-d34c94215e2a .xy-graph .axis.x .guides:hover .guide.line{stroke:#eee}#chart-52046b5c-91fc-47a2-9ecd-d34c94215e2a .axis .guides:hover text{fill:#eee}#chart-52046b5c-91fc-47a2-9ecd-d34c94215e2a .reactive{fill-opacity:.8}#chart-52046b5c-91fc-47a2-9ecd-d34c94215e2a .reactive.active,#chart-52046b5c-91fc-47a2-9ecd-d34c94215e2a .active .reactive{fill-opacity:.4}#chart-52046b5c-91fc-47a2-9ecd-d34c94215e2a .series{stroke-width:1.0;stroke-linejoin:round;stroke-linecap:round;stroke-dasharray:0,0}#chart-52046b5c-91fc-47a2-9ecd-d34c94215e2a .series text{fill:#eee}#chart-52046b5c-91fc-47a2-9ecd-d34c94215e2a .tooltip rect{fill:#111;stroke:#eee}#chart-52046b5c-91fc-47a2-9ecd-d34c94215e2a .tooltip text{fill:#eee}#chart-52046b5c-91fc-47a2-9ecd-d34c94215e2a .map-element{fill:#999;stroke:#555 !important;opacity:.9;stroke-width:3;-webkit-transition:250ms;-moz-transition:250ms;-o-transition:250ms;transition:250ms}#chart-52046b5c-91fc-47a2-9ecd-d34c94215e2a .map-element:hover{opacity:1;stroke-width:10}#chart-52046b5c-91fc-47a2-9ecd-d34c94215e2a .color-0,#chart-52046b5c-91fc-47a2-9ecd-d34c94215e2a .color-0 a:visited{stroke:#ff5995;fill:#ff5995}#chart-52046b5c-91fc-47a2-9ecd-d34c94215e2a .color-1,#chart-52046b5c-91fc-47a2-9ecd-d34c94215e2a .color-1 a:visited{stroke:#b6e354;fill:#b6e354}#chart-52046b5c-91fc-47a2-9ecd-d34c94215e2a .color-2,#chart-52046b5c-91fc-47a2-9ecd-d34c94215e2a .color-2 a:visited{stroke:#feed6c;fill:#feed6c}#chart-52046b5c-91fc-47a2-9ecd-d34c94215e2a .color-3,#chart-52046b5c-91fc-47a2-9ecd-d34c94215e2a .color-3 a:visited{stroke:#8cedff;fill:#8cedff}#chart-52046b5c-91fc-47a2-9ecd-d34c94215e2a .color-4,#chart-52046b5c-91fc-47a2-9ecd-d34c94215e2a .color-4 a:visited{stroke:#9e6ffe;fill:#9e6ffe}#chart-52046b5c-91fc-47a2-9ecd-d34c94215e2a .color-5,#chart-52046b5c-91fc-47a2-9ecd-d34c94215e2a .color-5 a:visited{stroke:#899ca1;fill:#899ca1}#chart-52046b5c-91fc-47a2-9ecd-d34c94215e2a .color-6,#chart-52046b5c-91fc-47a2-9ecd-d34c94215e2a .color-6 a:visited{stroke:#f8f8f2;fill:#f8f8f2}#chart-52046b5c-91fc-47a2-9ecd-d34c94215e2a .color-7,#chart-52046b5c-91fc-47a2-9ecd-d34c94215e2a .color-7 a:visited{stroke:#bf4646;fill:#bf4646}#chart-52046b5c-91fc-47a2-9ecd-d34c94215e2a .color-8,#chart-52046b5c-91fc-47a2-9ecd-d34c94215e2a .color-8 a:visited{stroke:#516083;fill:#516083}#chart-52046b5c-91fc-47a2-9ecd-d34c94215e2a .color-9,#chart-52046b5c-91fc-47a2-9ecd-d34c94215e2a .color-9 a:visited{stroke:#f92672;fill:#f92672}#chart-52046b5c-91fc-47a2-9ecd-d34c94215e2a .color-10,#chart-52046b5c-91fc-47a2-9ecd-d34c94215e2a .color-10 a:visited{stroke:#82b414;fill:#82b414}#chart-52046b5c-91fc-47a2-9ecd-d34c94215e2a .color-11,#chart-52046b5c-91fc-47a2-9ecd-d34c94215e2a .color-11 a:visited{stroke:#fd971f;fill:#fd971f}#chart-52046b5c-91fc-47a2-9ecd-d34c94215e2a .color-12,#chart-52046b5c-91fc-47a2-9ecd-d34c94215e2a .color-12 a:visited{stroke:#56c2d6;fill:#56c2d6}#chart-52046b5c-91fc-47a2-9ecd-d34c94215e2a .color-13,#chart-52046b5c-91fc-47a2-9ecd-d34c94215e2a .color-13 a:visited{stroke:#808384;fill:#808384}#chart-52046b5c-91fc-47a2-9ecd-d34c94215e2a .color-14,#chart-52046b5c-91fc-47a2-9ecd-d34c94215e2a .color-14 a:visited{stroke:#8c54fe;fill:#8c54fe}#chart-52046b5c-91fc-47a2-9ecd-d34c94215e2a .color-15,#chart-52046b5c-91fc-47a2-9ecd-d34c94215e2a .color-15 a:visited{stroke:#465457;fill:#465457}
#chart-52046b5c-91fc-47a2-9ecd-d34c94215e2a text.no_data{text-anchor:middle}#chart-52046b5c-91fc-47a2-9ecd-d34c94215e2a .guide.line{fill-opacity:0}#chart-52046b5c-91fc-47a2-9ecd-d34c94215e2a .centered{text-anchor:middle}#chart-52046b5c-91fc-47a2-9ecd-d34c94215e2a .title{text-anchor:middle}#chart-52046b5c-91fc-47a2-9ecd-d34c94215e2a .legends .legend text{fill-opacity:1}#chart-52046b5c-91fc-47a2-9ecd-d34c94215e2a .axis.x text{text-anchor:middle}#chart-52046b5c-91fc-47a2-9ecd-d34c94215e2a .axis.x:not(.web) text[transform]{text-anchor:start}#chart-52046b5c-91fc-47a2-9ecd-d34c94215e2a .axis.y text{text-anchor:end}#chart-52046b5c-91fc-47a2-9ecd-d34c94215e2a .axis.y2 text{text-anchor:start}#chart-52046b5c-91fc-47a2-9ecd-d34c94215e2a .axis.y .logarithmic text:not(.major),#chart-52046b5c-91fc-47a2-9ecd-d34c94215e2a .axis.y2 .logarithmic text:not(.major){font-size:50%}#chart-52046b5c-91fc-47a2-9ecd-d34c94215e2a .axis .guide.line{stroke-dasharray:4,4}#chart-52046b5c-91fc-47a2-9ecd-d34c94215e2a .axis .major.guide.line{stroke-dasharray:6,6}#chart-52046b5c-91fc-47a2-9ecd-d34c94215e2a .axis text.major{stroke-width:0.5px}#chart-52046b5c-91fc-47a2-9ecd-d34c94215e2a .horizontal .axis.y .guide.line,#chart-52046b5c-91fc-47a2-9ecd-d34c94215e2a .horizontal .axis.y2 .guide.line,#chart-52046b5c-91fc-47a2-9ecd-d34c94215e2a .vertical .axis.x .guide.line{opacity:0}#chart-52046b5c-91fc-47a2-9ecd-d34c94215e2a .horizontal .axis.always_show .guide.line,#chart-52046b5c-91fc-47a2-9ecd-d34c94215e2a .vertical .axis.always_show .guide.line{opacity:1 !important}#chart-52046b5c-91fc-47a2-9ecd-d34c94215e2a .axis.y .guides:hover .guide.line,#chart-52046b5c-91fc-47a2-9ecd-d34c94215e2a .axis.y2 .guides:hover .guide.line,#chart-52046b5c-91fc-47a2-9ecd-d34c94215e2a .axis.x .guides:hover .guide.line{opacity:1}#chart-52046b5c-91fc-47a2-9ecd-d34c94215e2a .axis .guides:hover text{opacity:1}#chart-52046b5c-91fc-47a2-9ecd-d34c94215e2a .nofill{fill:none}#chart-52046b5c-91fc-47a2-9ecd-d34c94215e2a .subtle-fill{fill-opacity:.2}#chart-52046b5c-91fc-47a2-9ecd-d34c94215e2a .dot{stroke-width:1px;fill-opacity:1}#chart-52046b5c-91fc-47a2-9ecd-d34c94215e2a .dot.active{stroke-width:5px}#chart-52046b5c-91fc-47a2-9ecd-d34c94215e2a .series text{stroke:none}#chart-52046b5c-91fc-47a2-9ecd-d34c94215e2a .series text.active{opacity:1}#chart-52046b5c-91fc-47a2-9ecd-d34c94215e2a .tooltip rect{fill-opacity:0.8}#chart-52046b5c-91fc-47a2-9ecd-d34c94215e2a .tooltip text{fill-opacity:1}#chart-52046b5c-91fc-47a2-9ecd-d34c94215e2a .tooltip text tspan.label{fill-opacity:.8}</style><script type="text/javascript">window.config = {"css": ["style.css", "graph.css"], "disable_xml_declaration": false, "dots_size": 2.5, "explicit_size": false, "fill": false, "half_pie": false, "height": 768, "human_readable": false, "include_x_axis": false, "inner_radius": 0, "interpolate": null, "interpolation_parameters": {}, "interpolation_precision": 250, "js": ["http://kozea.github.io/pygal.js/javascripts/svg.jquery.js", "http://kozea.github.io/pygal.js/javascripts/pygal-tooltips.js"], "label_font_size": 10, "legend_at_bottom": true, "legend_at_bottom_columns": null, "legend_box_size": 12, "legend_font_size": 14, "logarithmic": false, "major_label_font_size": 10, "margin": 20, "margin_bottom": null, "margin_left": null, "margin_right": null, "margin_top": null, "missing_value_fill_truncation": "x", "mode": null, "no_data_font_size": 64, "no_data_text": "No data", "no_prefix": false, "order_min": null, "pretty_print": false, "print_values": false, "print_zeroes": false, "range": [0, 1000], "rounded_bars": null, "show_dots": false, "show_legend": true, "show_minor_x_labels": true, "show_minor_y_labels": true, "show_only_major_dots": false, "show_x_guides": false, "show_x_labels": true, "show_y_guides": true, "show_y_labels": true, "spacing": 10, "stack_from_top": false, "strict": false, "stroke": true, "style": {"background": "black", "colors": ["#ff5995", "#b6e354", "#feed6c", "#8cedff", "#9e6ffe", "#899ca1", "#f8f8f2", "#bf4646", "#516083", "#f92672", "#82b414", "#fd971f", "#56c2d6", "#808384", "#8c54fe", "#465457"], "font_family": "monospace", "foreground": "#999", "foreground_dark": "#555", "foreground_light": "#eee", "opacity": ".8", "opacity_hover": ".4", "plot_background": "#111", "stroke_dasharray": "0,0", "stroke_style": "round", "stroke_width": 1.0, "transition": "250ms"}, "title": "Election math.stackexchange.com-4 Participation Per Hour", "title_font_size": 16, "tooltip_border_radius": 0, "tooltip_font_size": 16, "truncate_label": null, "truncate_legend": null, "value_font_size": 8, "width": 1024, "x_label_format": "%Y-%m-%d %H:%M:%S.%f", "x_label_rotation": 0, "x_labels": null, "x_labels_major": null, "x_labels_major_count": null, "x_labels_major_every": null, "x_title": null, "x_value_formatter": null, "xrange": null, "y_label_rotation": 0, "y_labels": null, "y_labels_major": null, "y_labels_major_count": null, "y_labels_major_every": null, "y_title": "Users", "zero": 0}</script><script type="text/javascript" xlink:href="http://kozea.github.io/pygal.js/javascripts/svg.jquery.js" /><script type="text/javascript" xlink:href="http://kozea.github.io/pygal.js/javascripts/pygal-tooltips.js" /></defs><title>Election math.stackexchange.com-4 Participation Per Hour</title><g class="graph line-graph vertical"><rect class="background" height="768" width="1024" x="0" y="0" /><g class="plot" transform="translate(80, 46)"><rect class="background" height="657.0" width="924.0" x="0" y="0" /><g class="axis y"><g class="guides"><path class="axis major line" d="M0.000000 644.365385 h924.000000" /><text class="major" x="-5" y="647.8653846153846">0</text></g><g class="guides"><path class="guide line" d="M0.000000 581.192308 h924.000000" /><text class="" x="-5" y="584.6923076923077">100</text></g><g class="guides"><path class="guide line" d="M0.000000 518.019231 h924.000000" /><text class="" x="-5" y="521.5192307692307">200</text></g><g class="guides"><path class="guide line" d="M0.000000 454.846154 h924.000000" /><text class="" x="-5" y="458.3461538461538">300</text></g><g class="guides"><path class="guide line" d="M0.000000 391.673077 h924.000000" /><text class="" x="-5" y="395.1730769230769">400</text></g><g class="guides"><path class="major guide line" d="M0.000000 328.500000 h924.000000" /><text class="major" x="-5" y="332.0">500</text></g><g class="guides"><path class="guide line" d="M0.000000 265.326923 h924.000000" /><text class="" x="-5" y="268.8269230769231">600</text></g><g class="guides"><path class="guide line" d="M0.000000 202.153846 h924.000000" /><text class="" x="-5" y="205.65384615384613">700</text></g><g class="guides"><path class="guide line" d="M0.000000 138.980769 h924.000000" /><text class="" x="-5" y="142.48076923076928">800</text></g><g class="guides"><path class="guide line" d="M0.000000 75.807692 h924.000000" /><text class="" x="-5" y="79.30769230769226">900</text></g><g class="guides"><path class="major guide line" d="M0.000000 12.634615 h924.000000" /><text class="major" x="-5" y="16.13461538461536">1000</text></g></g><g class="series serie-0 color-0"><path class="line reactive nofill" d="M17.769231 644.365385 L20.237179 644.365385 22.705128 644.365385 25.173077 644.365385 27.641026 644.365385 30.108974 644.365385 32.576923 644.365385 35.044872 644.365385 37.512821 644.365385 39.980769 644.365385 42.448718 644.365385 44.916667 644.365385 47.384615 644.365385 49.852564 644.365385 52.320513 644.365385 54.788462 644.365385 57.256410 644.365385 59.724359 644.365385 62.192308 644.365385 64.660256 644.365385 67.128205 644.365385 69.596154 644.365385 72.064103 644.365385 74.532051 644.365385 77.000000 644.365385 79.467949 644.365385 81.935897 644.365385 84.403846 644.365385 86.871795 644.365385 89.339744 644.365385 91.807692 644.365385 94.275641 644.365385 96.743590 644.365385 99.211538 644.365385 101.679487 644.365385 104.147436 644.365385 106.615385 644.365385 109.083333 644.365385 111.551282 644.365385 114.019231 644.365385 116.487179 644.365385 118.955128 644.365385 121.423077 644.365385 123.891026 644.365385 126.358974 644.365385 128.826923 644.365385 131.294872 644.365385 133.762821 644.365385 136.230769 644.365385 138.698718 644.365385 141.166667 644.365385 143.634615 644.365385 146.102564 644.365385 148.570513 644.365385 151.038462 644.365385 153.506410 644.365385 155.974359 644.365385 158.442308 644.365385 160.910256 644.365385 163.378205 644.365385 165.846154 644.365385 168.314103 644.365385 170.782051 644.365385 173.250000 644.365385 175.717949 644.365385 178.185897 644.365385 180.653846 644.365385 183.121795 644.365385 185.589744 644.365385 188.057692 644.365385 190.525641 644.365385 192.993590 644.365385 195.461538 644.365385 197.929487 644.365385 200.397436 644.365385 202.865385 644.365385 205.333333 644.365385 207.801282 644.365385 210.269231 644.365385 212.737179 644.365385 215.205128 644.365385 217.673077 644.365385 220.141026 644.365385 222.608974 644.365385 225.076923 644.365385 227.544872 644.365385 230.012821 644.365385 232.480769 644.365385 234.948718 644.365385 237.416667 644.365385 239.884615 644.365385 242.352564 644.365385 244.820513 644.365385 247.288462 644.365385 249.756410 644.365385 252.224359 644.365385 254.692308 644.365385 257.160256 644.365385 259.628205 644.365385 262.096154 644.365385 264.564103 644.365385 267.032051 644.365385 269.500000 644.365385 271.967949 644.365385 274.435897 644.365385 276.903846 644.365385 279.371795 644.365385 281.839744 644.365385 284.307692 644.365385 286.775641 644.365385 289.243590 644.365385 291.711538 644.365385 294.179487 644.365385 296.647436 644.365385 299.115385 644.365385 301.583333 644.365385 304.051282 644.365385 306.519231 644.365385 308.987179 644.365385 311.455128 644.365385 313.923077 644.365385 316.391026 644.365385 318.858974 644.365385 321.326923 644.365385 323.794872 644.365385 326.262821 644.365385 328.730769 644.365385 331.198718 644.365385 333.666667 644.365385 336.134615 644.365385 338.602564 644.365385 341.070513 644.365385 343.538462 644.365385 346.006410 644.365385 348.474359 644.365385 350.942308 644.365385 353.410256 644.365385 355.878205 644.365385 358.346154 644.365385 360.814103 644.365385 363.282051 644.365385 365.750000 644.365385 368.217949 644.365385 370.685897 644.365385 373.153846 644.365385 375.621795 644.365385 378.089744 644.365385 380.557692 644.365385 383.025641 644.365385 385.493590 644.365385 387.961538 644.365385 390.429487 644.365385 392.897436 644.365385 395.365385 644.365385 397.833333 644.365385 400.301282 644.365385 402.769231 644.365385 405.237179 644.365385 407.705128 644.365385 410.173077 644.365385 412.641026 644.365385 415.108974 644.365385 417.576923 644.365385 420.044872 644.365385 422.512821 644.365385 424.980769 644.365385 427.448718 644.365385 429.916667 644.365385 432.384615 644.365385 434.852564 644.365385 437.320513 644.365385 439.788462 644.365385 442.256410 644.365385 444.724359 644.365385 447.192308 644.365385 449.660256 644.365385 452.128205 644.365385 454.596154 644.365385 457.064103 644.365385 459.532051 644.365385 462.000000 644.365385 464.467949 644.365385 466.935897 644.365385 469.403846 644.365385 471.871795 644.365385 474.339744 644.365385 476.807692 644.365385 479.275641 644.365385 481.743590 644.365385 484.211538 644.365385 486.679487 644.365385 489.147436 644.365385 491.615385 644.365385 494.083333 644.365385 496.551282 644.365385 499.019231 644.365385 501.487179 644.365385 503.955128 644.365385 506.423077 644.365385 508.891026 644.365385 511.358974 644.365385 513.826923 644.365385 516.294872 644.365385 518.762821 644.365385 521.230769 644.365385 523.698718 644.365385 526.166667 644.365385 528.634615 644.365385 531.102564 644.365385 533.570513 644.365385 536.038462 644.365385 538.506410 644.365385 540.974359 644.365385 543.442308 644.365385 545.910256 644.365385 548.378205 644.365385 550.846154 644.365385 553.314103 644.365385 555.782051 644.365385 558.250000 644.365385 560.717949 644.365385 563.185897 644.365385 565.653846 644.365385 568.121795 644.365385 570.589744 644.365385 573.057692 644.365385 575.525641 644.365385 577.993590 644.365385 580.461538 644.365385 582.929487 644.365385 585.397436 644.365385 587.865385 644.365385 590.333333 644.365385 592.801282 644.365385 595.269231 644.365385 597.737179 644.365385 600.205128 644.365385 602.673077 644.365385 605.141026 644.365385 607.608974 644.365385 610.076923 644.365385 612.544872 644.365385 615.012821 644.365385 617.480769 644.365385 619.948718 644.365385 622.416667 644.365385 624.884615 644.365385 627.352564 644.365385 629.820513 644.365385 632.288462 644.365385 634.756410 644.365385 637.224359 644.365385 639.692308 644.365385 642.160256 644.365385 644.628205 644.365385 647.096154 644.365385 649.564103 644.365385 652.032051 644.365385 654.500000 644.365385 656.967949 644.365385 659.435897 644.365385 661.903846 644.365385 664.371795 644.365385 666.839744 639.943269 669.307692 597.617308 671.775641 636.784615 674.243590 636.784615 676.711538 641.838462 679.179487 640.575000 681.647436 641.838462 684.115385 636.784615 686.583333 641.206731 689.051282 641.838462 691.519231 640.575000 693.987179 639.943269 696.455128 643.101923 698.923077 642.470192 701.391026 640.575000 703.858974 640.575000 706.326923 639.943269 708.794872 641.206731 711.262821 641.206731 713.730769 642.470192 716.198718 639.311538 718.666667 640.575000 721.134615 642.470192 723.602564 640.575000 726.070513 641.206731 728.538462 641.206731 731.006410 643.101923 733.474359 642.470192 735.942308 642.470192 738.410256 641.206731 740.878205 641.838462 743.346154 643.101923 745.814103 641.206731 748.282051 643.101923 750.750000 643.733654 753.217949 641.206731 755.685897 643.101923 758.153846 643.733654 760.621795 642.470192 763.089744 642.470192 765.557692 644.365385 768.025641 641.206731 770.493590 641.206731 772.961538 641.838462 775.429487 641.838462 777.897436 643.733654 780.365385 642.470192 782.833333 641.838462 785.301282 643.101923 787.769231 642.470192 790.237179 641.206731 792.705128 641.838462 795.173077 642.470192 797.641026 642.470192 800.108974 642.470192 802.576923 644.365385 805.044872 641.206731 807.512821 642.470192 809.980769 643.733654 812.448718 644.365385 814.916667 643.101923 817.384615 642.470192 819.852564 643.101923 822.320513 640.575000 824.788462 643.101923 827.256410 643.101923 829.724359 641.206731 832.192308 641.838462 834.660256 642.470192 837.128205 642.470192 839.596154 642.470192 842.064103 639.943269 844.532051 643.101923 847.000000 642.470192 849.467949 643.101923 851.935897 641.206731 854.403846 643.733654 856.871795 644.365385 859.339744 643.101923 861.807692 641.838462 864.275641 643.101923 866.743590 643.733654 869.211538 644.365385 871.679487 643.733654 874.147436 643.733654 876.615385 643.733654 879.083333 643.101923 881.551282 642.470192 884.019231 643.733654 886.487179 643.733654 888.955128 643.733654 891.423077 643.101923 893.891026 643.733654 896.358974 642.470192 898.826923 642.470192 901.294872 638.679808 903.762821 643.101923 906.230769 644.365385" /></g><g class="series serie-1 color-1"><path class="line reactive nofill" d="M17.769231 524.336538 L20.237179 595.722115 22.705128 606.461538 25.173077 620.991346 27.641026 631.099038 30.108974 623.518269 32.576923 630.467308 35.044872 631.099038 37.512821 631.730769 39.980769 630.467308 42.448718 630.467308 44.916667 634.257692 47.384615 632.994231 49.852564 631.099038 52.320513 634.889423 54.788462 636.784615 57.256410 636.152885 59.724359 634.889423 62.192308 636.784615 64.660256 639.311538 67.128205 635.521154 69.596154 637.416346 72.064103 638.048077 74.532051 638.679808 77.000000 640.575000 79.467949 642.470192 81.935897 642.470192 84.403846 643.101923 86.871795 642.470192 89.339744 643.101923 91.807692 642.470192 94.275641 643.101923 96.743590 641.206731 99.211538 643.733654 101.679487 641.206731 104.147436 643.101923 106.615385 643.733654 109.083333 639.943269 111.551282 643.101923 114.019231 643.733654 116.487179 641.838462 118.955128 641.838462 121.423077 643.101923 123.891026 641.206731 126.358974 643.101923 128.826923 640.575000 131.294872 643.101923 133.762821 641.838462 136.230769 641.206731 138.698718 641.838462 141.166667 640.575000 143.634615 643.101923 146.102564 643.733654 148.570513 642.470192 151.038462 643.101923 153.506410 643.101923 155.974359 643.101923 158.442308 643.733654 160.910256 643.733654 163.378205 644.365385 165.846154 643.101923 168.314103 641.838462 170.782051 641.838462 173.250000 641.838462 175.717949 641.838462 178.185897 642.470192 180.653846 644.365385 183.121795 643.733654 185.589744 643.101923 188.057692 643.101923 190.525641 643.733654 192.993590 644.365385 195.461538 642.470192 197.929487 642.470192 200.397436 643.101923 202.865385 643.733654 205.333333 643.733654 207.801282 644.365385 210.269231 643.733654 212.737179 641.838462 215.205128 643.733654 217.673077 642.470192 220.141026 643.733654 222.608974 643.733654 225.076923 643.733654 227.544872 643.733654 230.012821 643.733654 232.480769 641.838462 234.948718 642.470192 237.416667 642.470192 239.884615 642.470192 242.352564 643.733654 244.820513 643.733654 247.288462 643.101923 249.756410 642.470192 252.224359 643.733654 254.692308 644.365385 257.160256 643.733654 259.628205 644.365385 262.096154 643.101923 264.564103 642.470192 267.032051 644.365385 269.500000 643.101923 271.967949 644.365385 274.435897 644.365385 276.903846 644.365385 279.371795 644.365385 281.839744 644.365385 284.307692 643.733654 286.775641 644.365385 289.243590 643.101923 291.711538 643.733654 294.179487 641.206731 296.647436 644.365385 299.115385 642.470192 301.583333 643.733654 304.051282 643.101923 306.519231 643.101923 308.987179 644.365385 311.455128 644.365385 313.923077 643.101923 316.391026 644.365385 318.858974 643.733654 321.326923 643.101923 323.794872 644.365385 326.262821 644.365385 328.730769 643.101923 331.198718 641.838462 333.666667 644.365385 336.134615 644.365385 338.602564 644.365385 341.070513 643.733654 343.538462 644.365385 346.006410 643.733654 348.474359 643.733654 350.942308 644.365385 353.410256 643.733654 355.878205 643.101923 358.346154 642.470192 360.814103 643.101923 363.282051 644.365385 365.750000 644.365385 368.217949 643.733654 370.685897 643.733654 373.153846 644.365385 375.621795 644.365385 378.089744 643.101923 380.557692 643.733654 383.025641 644.365385 385.493590 643.733654 387.961538 643.733654 390.429487 644.365385 392.897436 643.733654 395.365385 644.365385 397.833333 644.365385 400.301282 643.101923 402.769231 643.733654 405.237179 643.733654 407.705128 643.101923 410.173077 644.365385 412.641026 644.365385 415.108974 643.101923 417.576923 643.733654 420.044872 644.365385 422.512821 644.365385 424.980769 643.733654 427.448718 643.101923 429.916667 628.572115 432.384615 599.512500 434.852564 629.835577 437.320513 632.994231 439.788462 639.943269 442.256410 636.784615 444.724359 638.679808 447.192308 639.311538 449.660256 641.206731 452.128205 639.311538 454.596154 632.994231 457.064103 637.416346 459.532051 638.679808 462.000000 636.152885 464.467949 637.416346 466.935897 634.257692 469.403846 639.311538 471.871795 639.311538 474.339744 639.311538 476.807692 639.943269 479.275641 635.521154 481.743590 639.311538 484.211538 642.470192 486.679487 639.311538 489.147436 640.575000 491.615385 639.943269 494.083333 642.470192 496.551282 643.733654 499.019231 642.470192 501.487179 640.575000 503.955128 643.733654 506.423077 642.470192 508.891026 643.101923 511.358974 643.101923 513.826923 640.575000 516.294872 643.101923 518.762821 642.470192 521.230769 643.101923 523.698718 641.206731 526.166667 644.365385 528.634615 643.101923 531.102564 642.470192 533.570513 643.101923 536.038462 643.733654 538.506410 641.838462 540.974359 643.101923 543.442308 643.101923 545.910256 642.470192 548.378205 644.365385 550.846154 640.575000 553.314103 643.101923 555.782051 643.101923 558.250000 644.365385 560.717949 644.365385 563.185897 643.733654 565.653846 642.470192 568.121795 644.365385 570.589744 644.365385 573.057692 643.101923 575.525641 643.101923 577.993590 644.365385 580.461538 644.365385 582.929487 643.101923 585.397436 643.733654 587.865385 643.101923 590.333333 642.470192 592.801282 644.365385 595.269231 643.101923 597.737179 643.101923 600.205128 642.470192 602.673077 643.101923 605.141026 641.206731 607.608974 643.733654 610.076923 643.101923 612.544872 644.365385 615.012821 643.101923 617.480769 643.733654 619.948718 644.365385 622.416667 643.733654 624.884615 643.733654 627.352564 643.101923 629.820513 644.365385 632.288462 643.733654 634.756410 643.101923 637.224359 644.365385 639.692308 643.733654 642.160256 644.365385 644.628205 643.101923 647.096154 643.101923 649.564103 643.733654 652.032051 642.470192 654.500000 642.470192 656.967949 643.733654 659.435897 641.206731 661.903846 642.470192 664.371795 643.733654 666.839744 641.206731 669.307692 634.257692 671.775641 641.206731 674.243590 643.101923 676.711538 643.733654 679.179487 643.733654 681.647436 644.365385 684.115385 643.101923 686.583333 643.733654 689.051282 643.733654 691.519231 643.733654 693.987179 642.470192 696.455128 644.365385 698.923077 643.101923 701.391026 643.733654 703.858974 643.101923 706.326923 644.365385 708.794872 641.838462 711.262821 643.733654 713.730769 644.365385 716.198718 643.101923 718.666667 643.733654 721.134615 643.733654 723.602564 643.733654 726.070513 644.365385 728.538462 644.365385 731.006410 643.733654 733.474359 644.365385 735.942308 644.365385 738.410256 644.365385 740.878205 644.365385 743.346154 643.733654 745.814103 644.365385 748.282051 643.101923 750.750000 644.365385 753.217949 643.733654 755.685897 643.101923 758.153846 643.733654 760.621795 643.733654 763.089744 644.365385 765.557692 643.733654 768.025641 643.101923 770.493590 642.470192 772.961538 643.733654 775.429487 644.365385 777.897436 643.101923 780.365385 644.365385 782.833333 643.733654 785.301282 643.733654 787.769231 643.733654 790.237179 643.101923 792.705128 643.101923 795.173077 644.365385 797.641026 644.365385 800.108974 644.365385 802.576923 643.733654 805.044872 644.365385 807.512821 644.365385 809.980769 643.733654 812.448718 643.733654 814.916667 644.365385 817.384615 644.365385 819.852564 644.365385 822.320513 641.838462 824.788462 643.733654 827.256410 643.733654 829.724359 643.733654 832.192308 643.101923 834.660256 643.733654 837.128205 643.733654 839.596154 644.365385 842.064103 642.470192 844.532051 643.101923 847.000000 643.101923 849.467949 643.733654 851.935897 644.365385 854.403846 644.365385 856.871795 644.365385 859.339744 643.733654 861.807692 642.470192 864.275641 644.365385 866.743590 643.733654 869.211538 643.101923 871.679487 644.365385 874.147436 643.101923 876.615385 644.365385 879.083333 642.470192 881.551282 643.733654 884.019231 643.733654 886.487179 644.365385 888.955128 643.733654 891.423077 644.365385 893.891026 644.365385 896.358974 644.365385 898.826923 644.365385 901.294872 643.733654 903.762821 643.733654 906.230769 644.365385" /></g></g><g class="titles"><text class="title plot_title" x="512.0" y="26">Election math.stackexchange.com-4 Participation Per Hour</text><text class="title" transform="rotate(-90 0.000000 374.500000)" x="0" y="400.5">Users</text></g><g class="plot overlay" transform="translate(80, 46)"><g class="series serie-0 color-0" /><g class="series serie-1 color-1" /></g><g class="plot text-overlay" transform="translate(80, 46)"><g class="series serie-0 color-0" /><g class="series serie-1 color-1" /></g><g class="plot tooltip-overlay" transform="translate(80, 46)"><g class="tooltip" style="opacity: 0" transform="translate(0 0)"><a><rect class="tooltip-box" height="0" rx="0" ry="0" width="0" /><text class="text"><tspan class="label" /><tspan class="value" /></text></a></g></g><g class="legends" transform="translate(90, 713)"><g class="legend reactive activate-serie" id="activate-serie-0"><rect class="color-0 reactive" height="12" width="12" x="0.0" y="1.0" /><text x="17.0" y="11.2">constituents</text></g><g class="legend reactive activate-serie" id="activate-serie-1"><rect class="color-1 reactive" height="12" width="12" x="462.0" y="1.0" /><text x="479.0" y="11.2">caucus</text></g></g></g></svg>