<?xml version='1.0' encoding='utf-8'?>
<svg xmlns:xlink="http://www.w3.org/1999/xlink" class="pygal-chart" id="chart-63247e5d-cf84-4d1b-acb2-7f155eaa8cb4" viewBox="0 0 1024 768" xmlns="http://www.w3.org/2000/svg"><!--Generated with pygal 1.7.0 (etree) ©Kozea 2011-2014 on 2015-11-20--><!--http://pygal.org--><!--http://github.com/Kozea/pygal--><defs><style type="text/css">#chart-63247e5d-cf84-4d1b-acb2-7f155eaa8cb4 .title{font-family:"monospace";font-size:16px}#chart-63247e5d-cf84-4d1b-acb2-7f155eaa8cb4 .legends .legend text{font-family:"monospace";font-size:14px}#chart-63247e5d-cf84-4d1b-acb2-7f155eaa8cb4 .axis text{font-family:"monospace";font-size:10px}#chart-63247e5d-cf84-4d1b-acb2-7f155eaa8cb4 .axis text.major{font-family:"monospace";font-size:10px}#chart-63247e5d-cf84-4d1b-acb2-7f155eaa8cb4 .series text{font-family:"monospace";font-size:8px}#chart-63247e5d-cf84-4d1b-acb2-7f155eaa8cb4 .tooltip text{font-family:"monospace";font-size:16px}#chart-63247e5d-cf84-4d1b-acb2-7f155eaa8cb4 text.no_data{font-size:64px}
#chart-63247e5d-cf84-4d1b-acb2-7f155eaa8cb4{background-color:black}#chart-63247e5d-cf84-4d1b-acb2-7f155eaa8cb4 path,#chart-63247e5d-cf84-4d1b-acb2-7f155eaa8cb4 line,#chart-63247e5d-cf84-4d1b-acb2-7f155eaa8cb4 rect,#chart-63247e5d-cf84-4d1b-acb2-7f155eaa8cb4 circle{-webkit-transition:250ms;-moz-transition:250ms;transition:250ms}#chart-63247e5d-cf84-4d1b-acb2-7f155eaa8cb4 .graph &gt; .background{fill:black}#chart-63247e5d-cf84-4d1b-acb2-7f155eaa8cb4 .plot &gt; .background{fill:#111}#chart-63247e5d-cf84-4d1b-acb2-7f155eaa8cb4 .graph{fill:#999}#chart-63247e5d-cf84-4d1b-acb2-7f155eaa8cb4 text.no_data{fill:#eee}#chart-63247e5d-cf84-4d1b-acb2-7f155eaa8cb4 .title{fill:#eee}#chart-63247e5d-cf84-4d1b-acb2-7f155eaa8cb4 .legends .legend text{fill:#999}#chart-63247e5d-cf84-4d1b-acb2-7f155eaa8cb4 .legends .legend:hover text{fill:#eee}#chart-63247e5d-cf84-4d1b-acb2-7f155eaa8cb4 .axis .line{stroke:#eee}#chart-63247e5d-cf84-4d1b-acb2-7f155eaa8cb4 .axis .guide.line{stroke:#555}#chart-63247e5d-cf84-4d1b-acb2-7f155eaa8cb4 .axis .major.line{stroke:#999}#chart-63247e5d-cf84-4d1b-acb2-7f155eaa8cb4 .axis text.major{stroke:#eee;fill:#eee}#chart-63247e5d-cf84-4d1b-acb2-7f155eaa8cb4 .axis.y .guides:hover .guide.line,#chart-63247e5d-cf84-4d1b-acb2-7f155eaa8cb4 .line-graph .axis.x .guides:hover .guide.line,#chart-63247e5d-cf84-4d1b-acb2-7f155eaa8cb4 .stackedline-graph .axis.x .guides:hover .guide.line,#chart-63247e5d-cf84-4d1b-acb2-7f155eaa8cb4 .xy-graph .axis.x .guides:hover .guide.line{stroke:#eee}#chart-63247e5d-cf84-4d1b-acb2-7f155eaa8cb4 .axis .guides:hover text{fill:#eee}#chart-63247e5d-cf84-4d1b-acb2-7f155eaa8cb4 .reactive{fill-opacity:.8}#chart-63247e5d-cf84-4d1b-acb2-7f155eaa8cb4 .reactive.active,#chart-63247e5d-cf84-4d1b-acb2-7f155eaa8cb4 .active .reactive{fill-opacity:.4}#chart-63247e5d-cf84-4d1b-acb2-7f155eaa8cb4 .series{stroke-width:1.0;stroke-linejoin:round;stroke-linecap:round;stroke-dasharray:0,0}#chart-63247e5d-cf84-4d1b-acb2-7f155eaa8cb4 .series text{fill:#eee}#chart-63247e5d-cf84-4d1b-acb2-7f155eaa8cb4 .tooltip rect{fill:#111;stroke:#eee}#chart-63247e5d-cf84-4d1b-acb2-7f155eaa8cb4 .tooltip text{fill:#eee}#chart-63247e5d-cf84-4d1b-acb2-7f155eaa8cb4 .map-element{fill:#999;stroke:#555 !important;opacity:.9;stroke-width:3;-webkit-transition:250ms;-moz-transition:250ms;-o-transition:250ms;transition:250ms}#chart-63247e5d-cf84-4d1b-acb2-7f155eaa8cb4 .map-element:hover{opacity:1;stroke-width:10}#chart-63247e5d-cf84-4d1b-acb2-7f155eaa8cb4 .color-0,#chart-63247e5d-cf84-4d1b-acb2-7f155eaa8cb4 .color-0 a:visited{stroke:#ff5995;fill:#ff5995}#chart-63247e5d-cf84-4d1b-acb2-7f155eaa8cb4 .color-1,#chart-63247e5d-cf84-4d1b-acb2-7f155eaa8cb4 .color-1 a:visited{stroke:#b6e354;fill:#b6e354}#chart-63247e5d-cf84-4d1b-acb2-7f155eaa8cb4 .color-2,#chart-63247e5d-cf84-4d1b-acb2-7f155eaa8cb4 .color-2 a:visited{stroke:#feed6c;fill:#feed6c}#chart-63247e5d-cf84-4d1b-acb2-7f155eaa8cb4 .color-3,#chart-63247e5d-cf84-4d1b-acb2-7f155eaa8cb4 .color-3 a:visited{stroke:#8cedff;fill:#8cedff}#chart-63247e5d-cf84-4d1b-acb2-7f155eaa8cb4 .color-4,#chart-63247e5d-cf84-4d1b-acb2-7f155eaa8cb4 .color-4 a:visited{stroke:#9e6ffe;fill:#9e6ffe}#chart-63247e5d-cf84-4d1b-acb2-7f155eaa8cb4 .color-5,#chart-63247e5d-cf84-4d1b-acb2-7f155eaa8cb4 .color-5 a:visited{stroke:#899ca1;fill:#899ca1}#chart-63247e5d-cf84-4d1b-acb2-7f155eaa8cb4 .color-6,#chart-63247e5d-cf84-4d1b-acb2-7f155eaa8cb4 .color-6 a:visited{stroke:#f8f8f2;fill:#f8f8f2}#chart-63247e5d-cf84-4d1b-acb2-7f155eaa8cb4 .color-7,#chart-63247e5d-cf84-4d1b-acb2-7f155eaa8cb4 .color-7 a:visited{stroke:#bf4646;fill:#bf4646}#chart-63247e5d-cf84-4d1b-acb2-7f155eaa8cb4 .color-8,#chart-63247e5d-cf84-4d1b-acb2-7f155eaa8cb4 .color-8 a:visited{stroke:#516083;fill:#516083}#chart-63247e5d-cf84-4d1b-acb2-7f155eaa8cb4 .color-9,#chart-63247e5d-cf84-4d1b-acb2-7f155eaa8cb4 .color-9 a:visited{stroke:#f92672;fill:#f92672}#chart-63247e5d-cf84-4d1b-acb2-7f155eaa8cb4 .color-10,#chart-63247e5d-cf84-4d1b-acb2-7f155eaa8cb4 .color-10 a:visited{stroke:#82b414;fill:#82b414}#chart-63247e5d-cf84-4d1b-acb2-7f155eaa8cb4 .color-11,#chart-63247e5d-cf84-4d1b-acb2-7f155eaa8cb4 .color-11 a:visited{stroke:#fd971f;fill:#fd971f}#chart-63247e5d-cf84-4d1b-acb2-7f155eaa8cb4 .color-12,#chart-63247e5d-cf84-4d1b-acb2-7f155eaa8cb4 .color-12 a:visited{stroke:#56c2d6;fill:#56c2d6}#chart-63247e5d-cf84-4d1b-acb2-7f155eaa8cb4 .color-13,#chart-63247e5d-cf84-4d1b-acb2-7f155eaa8cb4 .color-13 a:visited{stroke:#808384;fill:#808384}#chart-63247e5d-cf84-4d1b-acb2-7f155eaa8cb4 .color-14,#chart-63247e5d-cf84-4d1b-acb2-7f155eaa8cb4 .color-14 a:visited{stroke:#8c54fe;fill:#8c54fe}#chart-63247e5d-cf84-4d1b-acb2-7f155eaa8cb4 .color-15,#chart-63247e5d-cf84-4d1b-acb2-7f155eaa8cb4 .color-15 a:visited{stroke:#465457;fill:#465457}
#chart-63247e5d-cf84-4d1b-acb2-7f155eaa8cb4 text.no_data{text-anchor:middle}#chart-63247e5d-cf84-4d1b-acb2-7f155eaa8cb4 .guide.line{fill-opacity:0}#chart-63247e5d-cf84-4d1b-acb2-7f155eaa8cb4 .centered{text-anchor:middle}#chart-63247e5d-cf84-4d1b-acb2-7f155eaa8cb4 .title{text-anchor:middle}#chart-63247e5d-cf84-4d1b-acb2-7f155eaa8cb4 .legends .legend text{fill-opacity:1}#chart-63247e5d-cf84-4d1b-acb2-7f155eaa8cb4 .axis.x text{text-anchor:middle}#chart-63247e5d-cf84-4d1b-acb2-7f155eaa8cb4 .axis.x:not(.web) text[transform]{text-anchor:start}#chart-63247e5d-cf84-4d1b-acb2-7f155eaa8cb4 .axis.y text{text-anchor:end}#chart-63247e5d-cf84-4d1b-acb2-7f155eaa8cb4 .axis.y2 text{text-anchor:start}#chart-63247e5d-cf84-4d1b-acb2-7f155eaa8cb4 .axis.y .logarithmic text:not(.major),#chart-63247e5d-cf84-4d1b-acb2-7f155eaa8cb4 .axis.y2 .logarithmic text:not(.major){font-size:50%}#chart-63247e5d-cf84-4d1b-acb2-7f155eaa8cb4 .axis .guide.line{stroke-dasharray:4,4}#chart-63247e5d-cf84-4d1b-acb2-7f155eaa8cb4 .axis .major.guide.line{stroke-dasharray:6,6}#chart-63247e5d-cf84-4d1b-acb2-7f155eaa8cb4 .axis text.major{stroke-width:0.5px}#chart-63247e5d-cf84-4d1b-acb2-7f155eaa8cb4 .horizontal .axis.y .guide.line,#chart-63247e5d-cf84-4d1b-acb2-7f155eaa8cb4 .horizontal .axis.y2 .guide.line,#chart-63247e5d-cf84-4d1b-acb2-7f155eaa8cb4 .vertical .axis.x .guide.line{opacity:0}#chart-63247e5d-cf84-4d1b-acb2-7f155eaa8cb4 .horizontal .axis.always_show .guide.line,#chart-63247e5d-cf84-4d1b-acb2-7f155eaa8cb4 .vertical .axis.always_show .guide.line{opacity:1 !important}#chart-63247e5d-cf84-4d1b-acb2-7f155eaa8cb4 .axis.y .guides:hover .guide.line,#chart-63247e5d-cf84-4d1b-acb2-7f155eaa8cb4 .axis.y2 .guides:hover .guide.line,#chart-63247e5d-cf84-4d1b-acb2-7f155eaa8cb4 .axis.x .guides:hover .guide.line{opacity:1}#chart-63247e5d-cf84-4d1b-acb2-7f155eaa8cb4 .axis .guides:hover text{opacity:1}#chart-63247e5d-cf84-4d1b-acb2-7f155eaa8cb4 .nofill{fill:none}#chart-63247e5d-cf84-4d1b-acb2-7f155eaa8cb4 .subtle-fill{fill-opacity:.2}#chart-63247e5d-cf84-4d1b-acb2-7f155eaa8cb4 .dot{stroke-width:1px;fill-opacity:1}#chart-63247e5d-cf84-4d1b-acb2-7f155eaa8cb4 .dot.active{stroke-width:5px}#chart-63247e5d-cf84-4d1b-acb2-7f155eaa8cb4 .series text{stroke:none}#chart-63247e5d-cf84-4d1b-acb2-7f155eaa8cb4 .series text.active{opacity:1}#chart-63247e5d-cf84-4d1b-acb2-7f155eaa8cb4 .tooltip rect{fill-opacity:0.8}#chart-63247e5d-cf84-4d1b-acb2-7f155eaa8cb4 .tooltip text{fill-opacity:1}#chart-63247e5d-cf84-4d1b-acb2-7f155eaa8cb4 .tooltip text tspan.label{fill-opacity:.8}</style><script type="text/javascript">window.config = {"major_label_font_size": 10, "x_title": null, "x_labels": null, "margin_left": null, "show_minor_y_labels": true, "x_label_format": "%Y-%m-%d %H:%M:%S.%f", "fill": false, "x_value_formatter": null, "disable_xml_declaration": false, "spacing": 10, "css": ["style.css", "graph.css"], "rounded_bars": null, "legend_at_bottom_columns": null, "mode": null, "missing_value_fill_truncation": "x", "strict": false, "x_labels_major_count": null, "range": null, "zero": 0, "x_label_rotation": 0, "include_x_axis": false, "tooltip_border_radius": 0, "y_labels": null, "show_y_guides": true, "print_values": false, "js": ["http://kozea.github.io/pygal.js/javascripts/svg.jquery.js", "http://kozea.github.io/pygal.js/javascripts/pygal-tooltips.js"], "inner_radius": 0, "no_data_font_size": 64, "value_font_size": 8, "tooltip_font_size": 16, "label_font_size": 10, "human_readable": false, "logarithmic": false, "dots_size": 2.5, "y_labels_major_count": null, "print_zeroes": false, "legend_at_bottom": true, "no_data_text": "No data", "margin_right": null, "no_prefix": false, "xrange": null, "truncate_legend": null, "y_title": "Users", "stack_from_top": false, "order_min": null, "show_y_labels": true, "height": 768, "x_labels_major_every": null, "interpolation_parameters": {}, "y_labels_major_every": null, "show_x_labels": true, "title": "Election 7 Participation", "show_dots": false, "show_minor_x_labels": true, "legend_font_size": 14, "show_only_major_dots": false, "half_pie": false, "show_legend": true, "x_labels_major": null, "show_x_guides": false, "y_label_rotation": 0, "width": 1024, "pretty_print": false, "margin_bottom": null, "y_labels_major": null, "legend_box_size": 12, "margin_top": null, "interpolate": null, "interpolation_precision": 250, "explicit_size": false, "truncate_label": null, "title_font_size": 16, "style": {"foreground_dark": "#555", "font_family": "monospace", "opacity_hover": ".4", "stroke_width": 1.0, "stroke_dasharray": "0,0", "opacity": ".8", "foreground": "#999", "colors": ["#ff5995", "#b6e354", "#feed6c", "#8cedff", "#9e6ffe", "#899ca1", "#f8f8f2", "#bf4646", "#516083", "#f92672", "#82b414", "#fd971f", "#56c2d6", "#808384", "#8c54fe", "#465457"], "background": "black", "stroke_style": "round", "foreground_light": "#eee", "transition": "250ms", "plot_background": "#111"}, "margin": 20, "stroke": true}</script><script type="text/javascript" xlink:href="http://kozea.github.io/pygal.js/javascripts/svg.jquery.js" /><script type="text/javascript" xlink:href="http://kozea.github.io/pygal.js/javascripts/pygal-tooltips.js" /></defs><title>Election 7 Participation</title><g class="graph line-graph vertical"><rect class="background" height="768" width="1024" x="0" y="0" /><g class="plot" transform="translate(86, 46)"><rect class="background" height="657.0" width="918.0" x="0" y="0" /><g class="axis y"><g class="guides"><path class="axis major line" d="M0.000000 644.365385 h918.000000" /><text class="major" x="-5" y="647.8653846153846">0</text></g><g class="guides"><path class="guide line" d="M0.000000 550.419342 h918.000000" /><text class="" x="-5" y="553.9193419601635">10000</text></g><g class="guides"><path class="guide line" d="M0.000000 456.473299 h918.000000" /><text class="" x="-5" y="459.9732993049423">20000</text></g><g class="guides"><path class="guide line" d="M0.000000 362.527257 h918.000000" /><text class="" x="-5" y="366.02725664972115">30000</text></g><g class="guides"><path class="guide line" d="M0.000000 268.581214 h918.000000" /><text class="" x="-5" y="272.08121399450005">40000</text></g><g class="guides"><path class="major guide line" d="M0.000000 174.635171 h918.000000" /><text class="major" x="-5" y="178.13517133927888">50000</text></g><g class="guides"><path class="guide line" d="M0.000000 80.689129 h918.000000" /><text class="" x="-5" y="84.18912868405778">60000</text></g></g><g class="series serie-0 color-0"><path class="line reactive nofill" d="M17.653846 644.365385 L20.105769 644.365385 22.557692 644.365385 25.009615 644.365385 27.461538 644.365385 29.913462 644.365385 32.365385 644.365385 34.817308 644.365385 37.269231 644.365385 39.721154 644.365385 42.173077 644.365385 44.625000 644.365385 47.076923 644.365385 49.528846 644.365385 51.980769 644.365385 54.432692 644.365385 56.884615 644.365385 59.336538 644.365385 61.788462 644.365385 64.240385 644.365385 66.692308 644.365385 69.144231 644.365385 71.596154 644.365385 74.048077 644.365385 76.500000 644.365385 78.951923 644.365385 81.403846 644.365385 83.855769 644.365385 86.307692 644.365385 88.759615 644.365385 91.211538 644.365385 93.663462 644.365385 96.115385 644.365385 98.567308 644.365385 101.019231 644.365385 103.471154 644.365385 105.923077 644.365385 108.375000 644.365385 110.826923 644.365385 113.278846 644.365385 115.730769 644.365385 118.182692 644.365385 120.634615 644.365385 123.086538 644.365385 125.538462 644.365385 127.990385 644.365385 130.442308 644.365385 132.894231 644.365385 135.346154 644.365385 137.798077 644.365385 140.250000 644.365385 142.701923 644.365385 145.153846 644.365385 147.605769 644.365385 150.057692 644.365385 152.509615 644.365385 154.961538 644.365385 157.413462 644.365385 159.865385 644.365385 162.317308 644.365385 164.769231 644.365385 167.221154 644.365385 169.673077 644.365385 172.125000 644.365385 174.576923 644.365385 177.028846 644.365385 179.480769 644.365385 181.932692 644.365385 184.384615 644.365385 186.836538 644.365385 189.288462 644.365385 191.740385 644.365385 194.192308 644.365385 196.644231 644.365385 199.096154 644.365385 201.548077 644.365385 204.000000 644.365385 206.451923 644.365385 208.903846 644.365385 211.355769 644.365385 213.807692 644.365385 216.259615 644.365385 218.711538 644.365385 221.163462 644.365385 223.615385 644.365385 226.067308 644.365385 228.519231 644.365385 230.971154 644.365385 233.423077 644.365385 235.875000 644.365385 238.326923 644.365385 240.778846 644.365385 243.230769 644.365385 245.682692 644.365385 248.134615 644.365385 250.586538 644.365385 253.038462 644.365385 255.490385 644.365385 257.942308 644.365385 260.394231 644.365385 262.846154 644.365385 265.298077 644.365385 267.750000 644.365385 270.201923 644.365385 272.653846 644.365385 275.105769 644.365385 277.557692 644.365385 280.009615 644.365385 282.461538 644.365385 284.913462 644.365385 287.365385 644.365385 289.817308 644.365385 292.269231 644.365385 294.721154 644.365385 297.173077 644.365385 299.625000 644.365385 302.076923 644.365385 304.528846 644.365385 306.980769 644.365385 309.432692 644.365385 311.884615 644.365385 314.336538 644.365385 316.788462 644.365385 319.240385 644.365385 321.692308 644.365385 324.144231 644.365385 326.596154 644.365385 329.048077 644.365385 331.500000 644.365385 333.951923 644.365385 336.403846 644.365385 338.855769 644.365385 341.307692 644.365385 343.759615 644.365385 346.211538 644.365385 348.663462 644.365385 351.115385 644.365385 353.567308 644.365385 356.019231 644.365385 358.471154 644.365385 360.923077 644.365385 363.375000 644.365385 365.826923 644.365385 368.278846 644.365385 370.730769 644.365385 373.182692 644.365385 375.634615 644.365385 378.086538 644.365385 380.538462 644.365385 382.990385 644.365385 385.442308 644.365385 387.894231 644.365385 390.346154 644.365385 392.798077 644.365385 395.250000 644.365385 397.701923 644.365385 400.153846 644.365385 402.605769 644.365385 405.057692 644.365385 407.509615 644.365385 409.961538 644.365385 412.413462 644.365385 414.865385 644.365385 417.317308 644.365385 419.769231 644.365385 422.221154 644.365385 424.673077 644.365385 427.125000 644.365385 429.576923 644.365385 432.028846 644.365385 434.480769 644.365385 436.932692 644.365385 439.384615 644.365385 441.836538 644.365385 444.288462 644.365385 446.740385 644.365385 449.192308 644.365385 451.644231 644.365385 454.096154 644.365385 456.548077 644.365385 459.000000 644.365385 461.451923 644.365385 463.903846 644.365385 466.355769 644.365385 468.807692 644.365385 471.259615 644.365385 473.711538 644.365385 476.163462 644.365385 478.615385 644.365385 481.067308 644.365385 483.519231 644.365385 485.971154 644.365385 488.423077 644.365385 490.875000 644.365385 493.326923 644.365385 495.778846 644.365385 498.230769 644.365385 500.682692 644.365385 503.134615 644.365385 505.586538 644.365385 508.038462 644.365385 510.490385 644.365385 512.942308 644.365385 515.394231 644.365385 517.846154 644.365385 520.298077 644.365385 522.750000 644.365385 525.201923 644.365385 527.653846 644.365385 530.105769 644.365385 532.557692 644.365385 535.009615 644.365385 537.461538 644.365385 539.913462 644.365385 542.365385 644.365385 544.817308 644.365385 547.269231 644.365385 549.721154 644.365385 552.173077 644.365385 554.625000 644.365385 557.076923 644.365385 559.528846 644.365385 561.980769 644.365385 564.432692 644.365385 566.884615 644.365385 569.336538 644.365385 571.788462 644.365385 574.240385 644.365385 576.692308 644.365385 579.144231 644.365385 581.596154 644.365385 584.048077 644.365385 586.500000 644.365385 588.951923 644.365385 591.403846 644.365385 593.855769 644.365385 596.307692 644.365385 598.759615 644.365385 601.211538 644.365385 603.663462 644.365385 606.115385 644.365385 608.567308 644.365385 611.019231 644.365385 613.471154 644.365385 615.923077 644.365385 618.375000 644.365385 620.826923 644.365385 623.278846 644.365385 625.730769 644.365385 628.182692 644.365385 630.634615 644.365385 633.086538 644.365385 635.538462 644.365385 637.990385 644.365385 640.442308 644.365385 642.894231 644.365385 645.346154 644.365385 647.798077 644.365385 650.250000 644.365385 652.701923 644.365385 655.153846 644.365385 657.605769 644.365385 660.057692 644.365385 662.509615 644.365385 664.961538 616.529172 667.413462 601.103232 669.865385 592.563537 672.317308 586.861012 674.769231 583.168932 677.221154 579.955978 679.673077 577.419435 682.125000 574.394372 684.576923 570.495611 687.028846 566.587456 689.480769 566.277434 691.932692 566.277434 694.384615 566.277434 696.836538 566.277434 699.288462 566.277434 701.740385 566.277434 704.192308 566.277434 706.644231 566.277434 709.096154 566.277434 711.548077 566.277434 714.000000 566.277434 716.451923 566.277434 718.903846 566.277434 721.355769 566.277434 723.807692 566.277434 726.259615 566.277434 728.711538 566.277434 731.163462 566.277434 733.615385 566.277434 736.067308 566.277434 738.519231 566.277434 740.971154 566.277434 743.423077 566.277434 745.875000 566.277434 748.326923 566.277434 750.778846 566.277434 753.230769 566.277434 755.682692 566.277434 758.134615 566.277434 760.586538 566.277434 763.038462 566.277434 765.490385 566.277434 767.942308 566.277434 770.394231 566.277434 772.846154 566.277434 775.298077 566.277434 777.750000 566.277434 780.201923 566.277434 782.653846 566.277434 785.105769 566.277434 787.557692 566.277434 790.009615 566.277434 792.461538 566.277434 794.913462 566.277434 797.365385 566.277434 799.817308 566.277434 802.269231 566.277434 804.721154 566.277434 807.173077 566.277434 809.625000 566.277434 812.076923 566.277434 814.528846 566.277434 816.980769 566.277434 819.432692 566.277434 821.884615 566.277434 824.336538 566.277434 826.788462 566.277434 829.240385 566.277434 831.692308 566.277434 834.144231 566.277434 836.596154 566.277434 839.048077 566.277434 841.500000 566.277434 843.951923 566.277434 846.403846 566.277434 848.855769 566.277434 851.307692 566.277434 853.759615 566.277434 856.211538 566.277434 858.663462 566.277434 861.115385 566.277434 863.567308 566.277434 866.019231 566.277434 868.471154 566.277434 870.923077 566.277434 873.375000 566.277434 875.826923 566.277434 878.278846 566.277434 880.730769 566.277434 883.182692 566.277434 885.634615 566.277434 888.086538 566.277434 890.538462 566.277434 892.990385 566.277434 895.442308 566.277434 897.894231 566.277434 900.346154 566.277434" /></g><g class="series serie-1 color-1"><path class="line reactive nofill" d="M17.653846 625.200392 L20.105769 616.463410 22.557692 611.446691 25.009615 608.515575 27.461538 606.298448 29.913462 604.447711 32.365385 602.841234 34.817308 600.802605 37.269231 599.092787 39.721154 596.481087 42.173077 593.362078 44.625000 589.951837 47.076923 585.526978 49.528846 580.867254 51.980769 577.626116 54.432692 575.465357 56.884615 573.342176 59.336538 571.218996 61.788462 568.870345 64.240385 566.822321 66.692308 564.971584 69.144231 563.693918 71.596154 562.594749 74.048077 561.467397 76.500000 560.377622 78.951923 559.475740 81.403846 558.592648 83.855769 558.151101 86.307692 557.756528 88.759615 557.333771 91.211538 556.957987 93.663462 556.507046 96.115385 556.103078 98.567308 555.586374 101.019231 555.107249 103.471154 554.402654 105.923077 553.425615 108.375000 552.514339 110.826923 551.772165 113.278846 551.133332 115.730769 550.222055 118.182692 549.329568 120.634615 548.624973 123.086538 547.713696 125.538462 547.112441 127.990385 546.379662 130.442308 545.834775 132.894231 545.299283 135.346154 544.679239 137.798077 544.087379 140.250000 543.570675 142.701923 543.270048 145.153846 543.044578 147.605769 542.828502 150.057692 542.621820 152.509615 542.386955 154.961538 542.180274 157.413462 541.851463 159.865385 541.372338 162.317308 540.949581 164.769231 540.395299 167.221154 539.624942 169.673077 539.051871 172.125000 538.413038 174.576923 537.746021 177.028846 537.069609 179.480769 536.440171 181.932692 535.867100 184.384615 535.265845 186.836538 534.730353 189.288462 534.316990 191.740385 533.828471 194.192308 533.396319 196.644231 533.011140 199.096154 532.578988 201.548077 532.268967 204.000000 532.034101 206.451923 531.836815 208.903846 531.667712 211.355769 531.526793 213.807692 531.395268 216.259615 531.132219 218.711538 530.925538 221.163462 530.653095 223.615385 530.446413 226.067308 529.854553 228.519231 529.413007 230.971154 528.990250 233.423077 528.576887 235.875000 528.088368 238.326923 527.628032 240.778846 527.252248 243.230769 526.848280 245.682692 526.463101 248.134615 526.124895 250.586538 525.767900 253.038462 525.533035 255.490385 525.251197 257.942308 525.110278 260.394231 524.959964 262.846154 524.828440 265.298077 524.734494 267.750000 524.584180 270.201923 524.546602 272.653846 524.490234 275.105769 524.405683 277.557692 524.264764 280.009615 524.076872 282.461538 523.935953 284.913462 523.823217 287.365385 523.625931 289.817308 523.466222 292.269231 523.391065 294.721154 523.240752 297.173077 523.071649 299.625000 522.949519 302.076923 522.761627 304.528846 522.554946 306.980769 522.451605 309.432692 522.338870 311.884615 522.132189 314.336538 522.000664 316.788462 521.831561 319.240385 521.662458 321.692308 521.568512 324.144231 521.446382 326.596154 521.314858 329.048077 521.249096 331.500000 521.183333 333.951923 521.033020 336.403846 520.892101 338.855769 520.798155 341.307692 520.572684 343.759615 520.403581 346.211538 520.253268 348.663462 520.093559 351.115385 519.915062 353.567308 519.736564 356.019231 519.473516 358.471154 519.360780 360.923077 519.191677 363.375000 518.956812 365.826923 518.646790 368.278846 518.449504 370.730769 518.261612 373.182692 518.026746 375.634615 517.876433 378.086538 517.707330 380.538462 517.641568 382.990385 517.528832 385.442308 517.378519 387.894231 517.218810 390.346154 516.814843 392.798077 516.326323 395.250000 515.847198 397.701923 515.245944 400.153846 514.710451 402.605769 514.052829 405.057692 513.329444 407.509615 512.728190 409.961538 512.220881 412.413462 511.638416 414.865385 510.933820 417.317308 510.454695 419.769231 509.947387 422.221154 509.674943 424.673077 509.270975 427.125000 508.744877 429.576923 464.712367 432.028846 439.262384 434.480769 424.127677 436.932692 411.351015 439.384615 403.825937 441.836538 396.357227 444.288462 390.091026 446.740385 381.955298 449.192308 370.578433 451.644231 357.773587 454.096154 343.907151 456.548077 325.878905 459.000000 304.074029 461.451923 282.137628 463.903846 263.733598 466.355769 251.586375 468.807692 239.053973 471.259615 227.818026 473.711538 216.488133 476.163462 207.394156 478.615385 197.388903 481.067308 190.718734 483.519231 185.157128 485.971154 180.084042 488.423077 175.358556 490.875000 171.149773 493.326923 167.993186 495.778846 165.419065 498.230769 163.915928 500.682692 162.309451 503.134615 160.843892 505.586538 159.087101 508.038462 157.029683 510.490385 154.793767 512.942308 151.674759 515.394231 148.311490 517.846154 144.487886 520.298077 139.311459 522.750000 134.924179 525.201923 131.391808 527.653846 127.079685 530.105769 122.964848 532.557692 119.244585 535.009615 115.712213 537.461538 112.518048 539.913462 110.000294 542.365385 107.670432 544.817308 105.678776 547.269231 103.358309 549.721154 101.432415 552.173077 99.863516 554.625000 98.839504 557.076923 97.965806 559.528846 97.139081 561.980769 96.566010 564.432692 95.767469 566.884615 94.818613 569.336538 93.465790 571.788462 92.169335 574.240385 90.374966 576.692308 88.336337 579.144231 86.081632 581.596154 83.347802 584.048077 81.431302 586.500000 79.026284 588.951923 76.771579 591.403846 74.451111 593.855769 72.478245 596.307692 71.266341 598.759615 69.133765 601.211538 67.827915 603.663462 66.399936 606.115385 65.150453 608.567308 63.891576 611.019231 62.764224 613.471154 61.984472 615.923077 61.495952 618.375000 61.035617 620.826923 60.547097 623.278846 59.964632 625.730769 59.344588 628.182692 58.743333 630.634615 57.869635 633.086538 56.808045 635.538462 55.793427 637.990385 54.553340 640.442308 53.050203 642.894231 51.641012 645.346154 50.617000 647.798077 49.470859 650.250000 48.024090 652.701923 47.094024 655.153846 45.976066 657.605769 45.121157 660.057692 44.332010 662.509615 43.571047 664.961538 33.302745 667.413462 27.177463 669.865385 23.344464 672.317308 20.751553 674.769231 19.173260 677.221154 17.679518 679.673077 16.505192 682.125000 15.283894 684.576923 13.968649 687.028846 12.784929 689.480769 12.634615 691.932692 12.634615 694.384615 12.634615 696.836538 12.634615 699.288462 12.634615 701.740385 12.634615 704.192308 12.634615 706.644231 12.634615 709.096154 12.634615 711.548077 12.634615 714.000000 12.634615 716.451923 12.634615 718.903846 12.634615 721.355769 12.634615 723.807692 12.634615 726.259615 12.634615 728.711538 12.634615 731.163462 12.634615 733.615385 12.634615 736.067308 12.634615 738.519231 12.634615 740.971154 12.634615 743.423077 12.634615 745.875000 12.634615 748.326923 12.634615 750.778846 12.634615 753.230769 12.634615 755.682692 12.634615 758.134615 12.634615 760.586538 12.634615 763.038462 12.634615 765.490385 12.634615 767.942308 12.634615 770.394231 12.634615 772.846154 12.634615 775.298077 12.634615 777.750000 12.634615 780.201923 12.634615 782.653846 12.634615 785.105769 12.634615 787.557692 12.634615 790.009615 12.634615 792.461538 12.634615 794.913462 12.634615 797.365385 12.634615 799.817308 12.634615 802.269231 12.634615 804.721154 12.634615 807.173077 12.634615 809.625000 12.634615 812.076923 12.634615 814.528846 12.634615 816.980769 12.634615 819.432692 12.634615 821.884615 12.634615 824.336538 12.634615 826.788462 12.634615 829.240385 12.634615 831.692308 12.634615 834.144231 12.634615 836.596154 12.634615 839.048077 12.634615 841.500000 12.634615 843.951923 12.634615 846.403846 12.634615 848.855769 12.634615 851.307692 12.634615 853.759615 12.634615 856.211538 12.634615 858.663462 12.634615 861.115385 12.634615 863.567308 12.634615 866.019231 12.634615 868.471154 12.634615 870.923077 12.634615 873.375000 12.634615 875.826923 12.634615 878.278846 12.634615 880.730769 12.634615 883.182692 12.634615 885.634615 12.634615 888.086538 12.634615 890.538462 12.634615 892.990385 12.634615 895.442308 12.634615 897.894231 12.634615 900.346154 12.634615" /></g></g><g class="titles"><text class="title plot_title" x="512.0" y="26">Election 7 Participation</text><text class="title" transform="rotate(-90 0.000000 374.500000)" x="0" y="400.5">Users</text></g><g class="plot overlay" transform="translate(86, 46)"><g class="series serie-0 color-0" /><g class="series serie-1 color-1" /></g><g class="plot text-overlay" transform="translate(86, 46)"><g class="series serie-0 color-0" /><g class="series serie-1 color-1" /></g><g class="plot tooltip-overlay" transform="translate(86, 46)"><g class="tooltip" style="opacity: 0" transform="translate(0 0)"><a><rect class="tooltip-box" height="0" rx="0" ry="0" width="0" /><text class="text"><tspan class="label" /><tspan class="value" /></text></a></g></g><g class="legends" transform="translate(96, 713)"><g class="legend reactive activate-serie" id="activate-serie-0"><rect class="color-0 reactive" height="12" width="12" x="0.0" y="1.0" /><text x="17.0" y="11.2">constituents</text></g><g class="legend reactive activate-serie" id="activate-serie-1"><rect class="color-1 reactive" height="12" width="12" x="459.0" y="1.0" /><text x="476.0" y="11.2">caucus</text></g></g></g></svg>