<?xml version='1.0' encoding='utf-8'?>
<svg xmlns:xlink="http://www.w3.org/1999/xlink" class="pygal-chart" id="chart-babad78c-aa3d-43b1-9156-50cd67d1187f" viewBox="0 0 1024 768" xmlns="http://www.w3.org/2000/svg"><!--Generated with pygal 1.7.0 (etree) ©Kozea 2011-2014 on 2015-11-21--><!--http://pygal.org--><!--http://github.com/Kozea/pygal--><defs><style type="text/css">#chart-babad78c-aa3d-43b1-9156-50cd67d1187f .title{font-family:"monospace";font-size:16px}#chart-babad78c-aa3d-43b1-9156-50cd67d1187f .legends .legend text{font-family:"monospace";font-size:14px}#chart-babad78c-aa3d-43b1-9156-50cd67d1187f .axis text{font-family:"monospace";font-size:10px}#chart-babad78c-aa3d-43b1-9156-50cd67d1187f .axis text.major{font-family:"monospace";font-size:10px}#chart-babad78c-aa3d-43b1-9156-50cd67d1187f .series text{font-family:"monospace";font-size:8px}#chart-babad78c-aa3d-43b1-9156-50cd67d1187f .tooltip text{font-family:"monospace";font-size:16px}#chart-babad78c-aa3d-43b1-9156-50cd67d1187f text.no_data{font-size:64px}
#chart-babad78c-aa3d-43b1-9156-50cd67d1187f{background-color:black}#chart-babad78c-aa3d-43b1-9156-50cd67d1187f path,#chart-babad78c-aa3d-43b1-9156-50cd67d1187f line,#chart-babad78c-aa3d-43b1-9156-50cd67d1187f rect,#chart-babad78c-aa3d-43b1-9156-50cd67d1187f circle{-webkit-transition:250ms;-moz-transition:250ms;transition:250ms}#chart-babad78c-aa3d-43b1-9156-50cd67d1187f .graph &gt; .background{fill:black}#chart-babad78c-aa3d-43b1-9156-50cd67d1187f .plot &gt; .background{fill:#111}#chart-babad78c-aa3d-43b1-9156-50cd67d1187f .graph{fill:#999}#chart-babad78c-aa3d-43b1-9156-50cd67d1187f text.no_data{fill:#eee}#chart-babad78c-aa3d-43b1-9156-50cd67d1187f .title{fill:#eee}#chart-babad78c-aa3d-43b1-9156-50cd67d1187f .legends .legend text{fill:#999}#chart-babad78c-aa3d-43b1-9156-50cd67d1187f .legends .legend:hover text{fill:#eee}#chart-babad78c-aa3d-43b1-9156-50cd67d1187f .axis .line{stroke:#eee}#chart-babad78c-aa3d-43b1-9156-50cd67d1187f .axis .guide.line{stroke:#555}#chart-babad78c-aa3d-43b1-9156-50cd67d1187f .axis .major.line{stroke:#999}#chart-babad78c-aa3d-43b1-9156-50cd67d1187f .axis text.major{stroke:#eee;fill:#eee}#chart-babad78c-aa3d-43b1-9156-50cd67d1187f .axis.y .guides:hover .guide.line,#chart-babad78c-aa3d-43b1-9156-50cd67d1187f .line-graph .axis.x .guides:hover .guide.line,#chart-babad78c-aa3d-43b1-9156-50cd67d1187f .stackedline-graph .axis.x .guides:hover .guide.line,#chart-babad78c-aa3d-43b1-9156-50cd67d1187f .xy-graph .axis.x .guides:hover .guide.line{stroke:#eee}#chart-babad78c-aa3d-43b1-9156-50cd67d1187f .axis .guides:hover text{fill:#eee}#chart-babad78c-aa3d-43b1-9156-50cd67d1187f .reactive{fill-opacity:.8}#chart-babad78c-aa3d-43b1-9156-50cd67d1187f .reactive.active,#chart-babad78c-aa3d-43b1-9156-50cd67d1187f .active .reactive{fill-opacity:.4}#chart-babad78c-aa3d-43b1-9156-50cd67d1187f .series{stroke-width:1.0;stroke-linejoin:round;stroke-linecap:round;stroke-dasharray:0,0}#chart-babad78c-aa3d-43b1-9156-50cd67d1187f .series text{fill:#eee}#chart-babad78c-aa3d-43b1-9156-50cd67d1187f .tooltip rect{fill:#111;stroke:#eee}#chart-babad78c-aa3d-43b1-9156-50cd67d1187f .tooltip text{fill:#eee}#chart-babad78c-aa3d-43b1-9156-50cd67d1187f .map-element{fill:#999;stroke:#555 !important;opacity:.9;stroke-width:3;-webkit-transition:250ms;-moz-transition:250ms;-o-transition:250ms;transition:250ms}#chart-babad78c-aa3d-43b1-9156-50cd67d1187f .map-element:hover{opacity:1;stroke-width:10}#chart-babad78c-aa3d-43b1-9156-50cd67d1187f .color-0,#chart-babad78c-aa3d-43b1-9156-50cd67d1187f .color-0 a:visited{stroke:#ff5995;fill:#ff5995}#chart-babad78c-aa3d-43b1-9156-50cd67d1187f .color-1,#chart-babad78c-aa3d-43b1-9156-50cd67d1187f .color-1 a:visited{stroke:#b6e354;fill:#b6e354}#chart-babad78c-aa3d-43b1-9156-50cd67d1187f .color-2,#chart-babad78c-aa3d-43b1-9156-50cd67d1187f .color-2 a:visited{stroke:#feed6c;fill:#feed6c}#chart-babad78c-aa3d-43b1-9156-50cd67d1187f .color-3,#chart-babad78c-aa3d-43b1-9156-50cd67d1187f .color-3 a:visited{stroke:#8cedff;fill:#8cedff}#chart-babad78c-aa3d-43b1-9156-50cd67d1187f .color-4,#chart-babad78c-aa3d-43b1-9156-50cd67d1187f .color-4 a:visited{stroke:#9e6ffe;fill:#9e6ffe}#chart-babad78c-aa3d-43b1-9156-50cd67d1187f .color-5,#chart-babad78c-aa3d-43b1-9156-50cd67d1187f .color-5 a:visited{stroke:#899ca1;fill:#899ca1}#chart-babad78c-aa3d-43b1-9156-50cd67d1187f .color-6,#chart-babad78c-aa3d-43b1-9156-50cd67d1187f .color-6 a:visited{stroke:#f8f8f2;fill:#f8f8f2}#chart-babad78c-aa3d-43b1-9156-50cd67d1187f .color-7,#chart-babad78c-aa3d-43b1-9156-50cd67d1187f .color-7 a:visited{stroke:#bf4646;fill:#bf4646}#chart-babad78c-aa3d-43b1-9156-50cd67d1187f .color-8,#chart-babad78c-aa3d-43b1-9156-50cd67d1187f .color-8 a:visited{stroke:#516083;fill:#516083}#chart-babad78c-aa3d-43b1-9156-50cd67d1187f .color-9,#chart-babad78c-aa3d-43b1-9156-50cd67d1187f .color-9 a:visited{stroke:#f92672;fill:#f92672}#chart-babad78c-aa3d-43b1-9156-50cd67d1187f .color-10,#chart-babad78c-aa3d-43b1-9156-50cd67d1187f .color-10 a:visited{stroke:#82b414;fill:#82b414}#chart-babad78c-aa3d-43b1-9156-50cd67d1187f .color-11,#chart-babad78c-aa3d-43b1-9156-50cd67d1187f .color-11 a:visited{stroke:#fd971f;fill:#fd971f}#chart-babad78c-aa3d-43b1-9156-50cd67d1187f .color-12,#chart-babad78c-aa3d-43b1-9156-50cd67d1187f .color-12 a:visited{stroke:#56c2d6;fill:#56c2d6}#chart-babad78c-aa3d-43b1-9156-50cd67d1187f .color-13,#chart-babad78c-aa3d-43b1-9156-50cd67d1187f .color-13 a:visited{stroke:#808384;fill:#808384}#chart-babad78c-aa3d-43b1-9156-50cd67d1187f .color-14,#chart-babad78c-aa3d-43b1-9156-50cd67d1187f .color-14 a:visited{stroke:#8c54fe;fill:#8c54fe}#chart-babad78c-aa3d-43b1-9156-50cd67d1187f .color-15,#chart-babad78c-aa3d-43b1-9156-50cd67d1187f .color-15 a:visited{stroke:#465457;fill:#465457}
#chart-babad78c-aa3d-43b1-9156-50cd67d1187f text.no_data{text-anchor:middle}#chart-babad78c-aa3d-43b1-9156-50cd67d1187f .guide.line{fill-opacity:0}#chart-babad78c-aa3d-43b1-9156-50cd67d1187f .centered{text-anchor:middle}#chart-babad78c-aa3d-43b1-9156-50cd67d1187f .title{text-anchor:middle}#chart-babad78c-aa3d-43b1-9156-50cd67d1187f .legends .legend text{fill-opacity:1}#chart-babad78c-aa3d-43b1-9156-50cd67d1187f .axis.x text{text-anchor:middle}#chart-babad78c-aa3d-43b1-9156-50cd67d1187f .axis.x:not(.web) text[transform]{text-anchor:start}#chart-babad78c-aa3d-43b1-9156-50cd67d1187f .axis.y text{text-anchor:end}#chart-babad78c-aa3d-43b1-9156-50cd67d1187f .axis.y2 text{text-anchor:start}#chart-babad78c-aa3d-43b1-9156-50cd67d1187f .axis.y .logarithmic text:not(.major),#chart-babad78c-aa3d-43b1-9156-50cd67d1187f .axis.y2 .logarithmic text:not(.major){font-size:50%}#chart-babad78c-aa3d-43b1-9156-50cd67d1187f .axis .guide.line{stroke-dasharray:4,4}#chart-babad78c-aa3d-43b1-9156-50cd67d1187f .axis .major.guide.line{stroke-dasharray:6,6}#chart-babad78c-aa3d-43b1-9156-50cd67d1187f .axis text.major{stroke-width:0.5px}#chart-babad78c-aa3d-43b1-9156-50cd67d1187f .horizontal .axis.y .guide.line,#chart-babad78c-aa3d-43b1-9156-50cd67d1187f .horizontal .axis.y2 .guide.line,#chart-babad78c-aa3d-43b1-9156-50cd67d1187f .vertical .axis.x .guide.line{opacity:0}#chart-babad78c-aa3d-43b1-9156-50cd67d1187f .horizontal .axis.always_show .guide.line,#chart-babad78c-aa3d-43b1-9156-50cd67d1187f .vertical .axis.always_show .guide.line{opacity:1 !important}#chart-babad78c-aa3d-43b1-9156-50cd67d1187f .axis.y .guides:hover .guide.line,#chart-babad78c-aa3d-43b1-9156-50cd67d1187f .axis.y2 .guides:hover .guide.line,#chart-babad78c-aa3d-43b1-9156-50cd67d1187f .axis.x .guides:hover .guide.line{opacity:1}#chart-babad78c-aa3d-43b1-9156-50cd67d1187f .axis .guides:hover text{opacity:1}#chart-babad78c-aa3d-43b1-9156-50cd67d1187f .nofill{fill:none}#chart-babad78c-aa3d-43b1-9156-50cd67d1187f .subtle-fill{fill-opacity:.2}#chart-babad78c-aa3d-43b1-9156-50cd67d1187f .dot{stroke-width:1px;fill-opacity:1}#chart-babad78c-aa3d-43b1-9156-50cd67d1187f .dot.active{stroke-width:5px}#chart-babad78c-aa3d-43b1-9156-50cd67d1187f .series text{stroke:none}#chart-babad78c-aa3d-43b1-9156-50cd67d1187f .series text.active{opacity:1}#chart-babad78c-aa3d-43b1-9156-50cd67d1187f .tooltip rect{fill-opacity:0.8}#chart-babad78c-aa3d-43b1-9156-50cd67d1187f .tooltip text{fill-opacity:1}#chart-babad78c-aa3d-43b1-9156-50cd67d1187f .tooltip text tspan.label{fill-opacity:.8}</style><script type="text/javascript">window.config = {"tooltip_font_size": 16, "xrange": null, "no_data_font_size": 64, "label_font_size": 10, "stack_from_top": false, "show_dots": false, "mode": null, "legend_at_bottom_columns": null, "x_value_formatter": null, "tooltip_border_radius": 0, "show_x_labels": true, "value_font_size": 8, "margin": 20, "fill": false, "show_only_major_dots": false, "major_label_font_size": 10, "range": null, "x_label_rotation": 0, "margin_top": null, "interpolate": null, "legend_box_size": 12, "x_labels": null, "height": 768, "y_labels_major_count": null, "show_x_guides": false, "include_x_axis": false, "print_values": false, "y_labels_major": null, "x_label_format": "%Y-%m-%d %H:%M:%S.%f", "human_readable": false, "y_labels": null, "strict": false, "show_y_labels": true, "js": ["http://kozea.github.io/pygal.js/javascripts/svg.jquery.js", "http://kozea.github.io/pygal.js/javascripts/pygal-tooltips.js"], "order_min": null, "disable_xml_declaration": false, "truncate_label": null, "show_legend": true, "pretty_print": false, "rounded_bars": null, "margin_bottom": null, "x_title": null, "title": "Election 7 Participation", "dots_size": 2.5, "x_labels_major_every": null, "show_minor_y_labels": true, "legend_font_size": 14, "y_label_rotation": 0, "explicit_size": false, "y_labels_major_every": null, "no_prefix": false, "css": ["style.css", "graph.css"], "x_labels_major": null, "x_labels_major_count": null, "half_pie": false, "stroke": true, "zero": 0, "margin_right": null, "show_y_guides": true, "title_font_size": 16, "print_zeroes": false, "interpolation_precision": 250, "logarithmic": false, "legend_at_bottom": true, "margin_left": null, "spacing": 10, "truncate_legend": null, "inner_radius": 0, "interpolation_parameters": {}, "width": 1024, "y_title": "Users", "missing_value_fill_truncation": "x", "show_minor_x_labels": true, "style": {"font_family": "monospace", "colors": ["#ff5995", "#b6e354", "#feed6c", "#8cedff", "#9e6ffe", "#899ca1", "#f8f8f2", "#bf4646", "#516083", "#f92672", "#82b414", "#fd971f", "#56c2d6", "#808384", "#8c54fe", "#465457"], "plot_background": "#111", "stroke_width": 1.0, "foreground_light": "#eee", "foreground": "#999", "stroke_dasharray": "0,0", "stroke_style": "round", "foreground_dark": "#555", "opacity": ".8", "background": "black", "transition": "250ms", "opacity_hover": ".4"}, "no_data_text": "No data"}</script><script type="text/javascript" xlink:href="http://kozea.github.io/pygal.js/javascripts/svg.jquery.js" /><script type="text/javascript" xlink:href="http://kozea.github.io/pygal.js/javascripts/pygal-tooltips.js" /></defs><title>Election 7 Participation</title><g class="graph line-graph vertical"><rect class="background" height="768" width="1024" x="0" y="0" /><g class="plot" transform="translate(86, 46)"><rect class="background" height="657.0" width="918.0" x="0" y="0" /><g class="axis y"><g class="guides"><path class="axis major line" d="M0.000000 644.365385 h918.000000" /><text class="major" x="-5" y="647.8653846153846">0</text></g><g class="guides"><path class="guide line" d="M0.000000 553.668535 h918.000000" /><text class="" x="-5" y="557.1685346260418">10000</text></g><g class="guides"><path class="guide line" d="M0.000000 462.971685 h918.000000" /><text class="" x="-5" y="466.471684636699">20000</text></g><g class="guides"><path class="guide line" d="M0.000000 372.274835 h918.000000" /><text class="" x="-5" y="375.7748346473563">30000</text></g><g class="guides"><path class="guide line" d="M0.000000 281.577985 h918.000000" /><text class="" x="-5" y="285.0779846580135">40000</text></g><g class="guides"><path class="major guide line" d="M0.000000 190.881135 h918.000000" /><text class="major" x="-5" y="194.3811346686707">50000</text></g><g class="guides"><path class="guide line" d="M0.000000 100.184285 h918.000000" /><text class="" x="-5" y="103.6842846793279">60000</text></g></g><g class="series serie-0 color-0"><path class="line reactive nofill" d="M17.653846 644.365385 L20.105769 644.365385 22.557692 644.365385 25.009615 644.365385 27.461538 644.365385 29.913462 644.365385 32.365385 644.365385 34.817308 644.365385 37.269231 644.365385 39.721154 644.365385 42.173077 644.365385 44.625000 644.365385 47.076923 644.365385 49.528846 644.365385 51.980769 644.365385 54.432692 644.365385 56.884615 644.365385 59.336538 644.365385 61.788462 644.365385 64.240385 644.365385 66.692308 644.365385 69.144231 644.365385 71.596154 644.365385 74.048077 644.365385 76.500000 644.365385 78.951923 644.365385 81.403846 644.365385 83.855769 644.365385 86.307692 644.365385 88.759615 644.365385 91.211538 644.365385 93.663462 644.365385 96.115385 644.365385 98.567308 644.365385 101.019231 644.365385 103.471154 644.365385 105.923077 644.365385 108.375000 644.365385 110.826923 644.365385 113.278846 644.365385 115.730769 644.365385 118.182692 644.365385 120.634615 644.365385 123.086538 644.365385 125.538462 644.365385 127.990385 644.365385 130.442308 644.365385 132.894231 644.365385 135.346154 644.365385 137.798077 644.365385 140.250000 644.365385 142.701923 644.365385 145.153846 644.365385 147.605769 644.365385 150.057692 644.365385 152.509615 644.365385 154.961538 644.365385 157.413462 644.365385 159.865385 644.365385 162.317308 644.365385 164.769231 644.365385 167.221154 644.365385 169.673077 644.365385 172.125000 644.365385 174.576923 644.365385 177.028846 644.365385 179.480769 644.365385 181.932692 644.365385 184.384615 644.365385 186.836538 644.365385 189.288462 644.365385 191.740385 644.365385 194.192308 644.365385 196.644231 644.365385 199.096154 644.365385 201.548077 644.365385 204.000000 644.365385 206.451923 644.365385 208.903846 644.365385 211.355769 644.365385 213.807692 644.365385 216.259615 644.365385 218.711538 644.365385 221.163462 644.365385 223.615385 644.365385 226.067308 644.365385 228.519231 644.365385 230.971154 644.365385 233.423077 644.365385 235.875000 644.365385 238.326923 644.365385 240.778846 644.365385 243.230769 644.365385 245.682692 644.365385 248.134615 644.365385 250.586538 644.365385 253.038462 644.365385 255.490385 644.365385 257.942308 644.365385 260.394231 644.365385 262.846154 644.365385 265.298077 644.365385 267.750000 644.365385 270.201923 644.365385 272.653846 644.365385 275.105769 644.365385 277.557692 644.365385 280.009615 644.365385 282.461538 644.365385 284.913462 644.365385 287.365385 644.365385 289.817308 644.365385 292.269231 644.365385 294.721154 644.365385 297.173077 644.365385 299.625000 644.365385 302.076923 644.365385 304.528846 644.365385 306.980769 644.365385 309.432692 644.365385 311.884615 644.365385 314.336538 644.365385 316.788462 644.365385 319.240385 644.365385 321.692308 644.365385 324.144231 644.365385 326.596154 644.365385 329.048077 644.365385 331.500000 644.365385 333.951923 644.365385 336.403846 644.365385 338.855769 644.365385 341.307692 644.365385 343.759615 644.365385 346.211538 644.365385 348.663462 644.365385 351.115385 644.365385 353.567308 644.365385 356.019231 644.365385 358.471154 644.365385 360.923077 644.365385 363.375000 644.365385 365.826923 644.365385 368.278846 644.365385 370.730769 644.365385 373.182692 644.365385 375.634615 644.365385 378.086538 644.365385 380.538462 644.365385 382.990385 644.365385 385.442308 644.365385 387.894231 644.365385 390.346154 644.365385 392.798077 644.365385 395.250000 644.365385 397.701923 644.365385 400.153846 644.365385 402.605769 644.365385 405.057692 644.365385 407.509615 644.365385 409.961538 644.365385 412.413462 644.365385 414.865385 644.365385 417.317308 644.365385 419.769231 644.365385 422.221154 644.365385 424.673077 644.365385 427.125000 644.365385 429.576923 644.365385 432.028846 644.365385 434.480769 644.365385 436.932692 644.365385 439.384615 644.365385 441.836538 644.365385 444.288462 644.365385 446.740385 644.365385 449.192308 644.365385 451.644231 644.365385 454.096154 644.365385 456.548077 644.365385 459.000000 644.365385 461.451923 644.365385 463.903846 644.365385 466.355769 644.365385 468.807692 644.365385 471.259615 644.365385 473.711538 644.365385 476.163462 644.365385 478.615385 644.365385 481.067308 644.365385 483.519231 644.365385 485.971154 644.365385 488.423077 644.365385 490.875000 644.365385 493.326923 644.365385 495.778846 644.365385 498.230769 644.365385 500.682692 644.365385 503.134615 644.365385 505.586538 644.365385 508.038462 644.365385 510.490385 644.365385 512.942308 644.365385 515.394231 644.365385 517.846154 644.365385 520.298077 644.365385 522.750000 644.365385 525.201923 644.365385 527.653846 644.365385 530.105769 644.365385 532.557692 644.365385 535.009615 644.365385 537.461538 644.365385 539.913462 644.365385 542.365385 644.365385 544.817308 644.365385 547.269231 644.365385 549.721154 644.365385 552.173077 644.365385 554.625000 644.365385 557.076923 644.365385 559.528846 644.365385 561.980769 644.365385 564.432692 644.365385 566.884615 644.365385 569.336538 644.365385 571.788462 644.365385 574.240385 644.365385 576.692308 644.365385 579.144231 644.365385 581.596154 644.365385 584.048077 644.365385 586.500000 644.365385 588.951923 644.365385 591.403846 644.365385 593.855769 644.365385 596.307692 644.365385 598.759615 644.365385 601.211538 644.365385 603.663462 644.365385 606.115385 644.365385 608.567308 644.365385 611.019231 644.365385 613.471154 644.365385 615.923077 644.365385 618.375000 644.365385 620.826923 644.365385 623.278846 644.365385 625.730769 644.365385 628.182692 644.365385 630.634615 644.365385 633.086538 644.365385 635.538462 644.365385 637.990385 644.365385 640.442308 644.365385 642.894231 644.365385 645.346154 644.365385 647.798077 644.365385 650.250000 644.365385 652.701923 644.365385 655.153846 644.365385 657.605769 644.365385 660.057692 644.365385 662.509615 644.365385 664.961538 617.491908 667.413462 602.599485 669.865385 594.355142 672.317308 588.849843 674.769231 585.285457 677.221154 582.183624 679.673077 579.734809 682.125000 576.814371 684.576923 573.050451 687.028846 569.277463 689.480769 565.622379 691.932692 561.985436 694.384615 558.266865 696.836538 554.502946 699.288462 550.222054 701.740385 546.421856 704.192308 542.703285 706.644231 539.601453 709.096154 536.971245 711.548077 533.887552 714.000000 531.284552 716.451923 528.781319 718.903846 526.522967 721.355769 524.228337 723.807692 522.568585 726.259615 521.471153 728.711538 521.471153 731.163462 521.471153 733.615385 521.471153 736.067308 521.471153 738.519231 521.471153 740.971154 521.471153 743.423077 521.471153 745.875000 521.471153 748.326923 521.471153 750.778846 521.471153 753.230769 521.471153 755.682692 521.471153 758.134615 521.471153 760.586538 521.471153 763.038462 521.471153 765.490385 521.471153 767.942308 521.471153 770.394231 521.471153 772.846154 521.471153 775.298077 521.471153 777.750000 521.471153 780.201923 521.471153 782.653846 521.471153 785.105769 521.471153 787.557692 521.471153 790.009615 521.471153 792.461538 521.471153 794.913462 521.471153 797.365385 521.471153 799.817308 521.471153 802.269231 521.471153 804.721154 521.471153 807.173077 521.471153 809.625000 521.471153 812.076923 521.471153 814.528846 521.471153 816.980769 521.471153 819.432692 521.471153 821.884615 521.471153 824.336538 521.471153 826.788462 521.471153 829.240385 521.471153 831.692308 521.471153 834.144231 521.471153 836.596154 521.471153 839.048077 521.471153 841.500000 521.471153 843.951923 521.471153 846.403846 521.471153 848.855769 521.471153 851.307692 521.471153 853.759615 521.471153 856.211538 521.471153 858.663462 521.471153 861.115385 521.471153 863.567308 521.471153 866.019231 521.471153 868.471154 521.471153 870.923077 521.471153 873.375000 521.471153 875.826923 521.471153 878.278846 521.471153 880.730769 521.471153 883.182692 521.471153 885.634615 521.471153 888.086538 521.471153 890.538462 521.471153 892.990385 521.471153 895.442308 521.471153 897.894231 521.471153 900.346154 521.471153" /></g><g class="series serie-1 color-1"><path class="line reactive nofill" d="M17.653846 625.863227 L20.105769 617.428420 22.557692 612.585208 25.009615 609.755467 27.461538 607.615021 29.913462 605.828293 32.365385 604.277377 34.817308 602.309255 37.269231 600.658573 39.721154 598.137200 42.173077 595.126065 44.625000 591.833769 47.076923 587.561947 49.528846 583.063384 51.980769 579.934342 54.432692 577.848315 56.884615 575.798566 59.336538 573.748817 61.788462 571.481396 64.240385 569.504205 66.692308 567.717477 69.144231 566.484000 71.596154 565.422846 74.048077 564.334484 76.500000 563.282401 78.951923 562.411711 81.403846 561.559161 83.855769 561.132885 86.307692 560.751959 88.759615 560.343823 91.211538 559.981035 93.663462 559.545691 96.115385 559.155694 98.567308 558.656861 101.019231 558.194307 103.471154 557.514081 105.923077 556.570834 108.375000 555.691074 110.826923 554.974569 113.278846 554.357831 115.730769 553.478071 118.182692 552.616451 120.634615 551.936225 123.086538 551.056465 125.538462 550.476006 127.990385 549.768570 130.442308 549.242528 132.894231 548.725556 135.346154 548.126957 137.798077 547.555567 140.250000 547.056734 142.701923 546.766504 145.153846 546.548832 147.605769 546.340229 150.057692 546.140696 152.509615 545.913954 154.961538 545.714421 157.413462 545.396982 159.865385 544.934428 162.317308 544.526292 164.769231 543.991181 167.221154 543.247467 169.673077 542.694216 172.125000 542.077477 174.576923 541.433530 177.028846 540.780512 179.480769 540.172843 181.932692 539.619593 184.384615 539.039133 186.836538 538.522161 189.288462 538.123095 191.740385 537.651471 194.192308 537.234265 196.644231 536.862408 199.096154 536.445203 201.548077 536.145903 204.000000 535.919161 206.451923 535.728698 208.903846 535.565443 211.355769 535.429398 213.807692 535.302423 216.259615 535.048471 218.711538 534.848938 221.163462 534.585917 223.615385 534.386384 226.067308 533.814994 228.519231 533.388719 230.971154 532.980583 233.423077 532.581517 235.875000 532.109893 238.326923 531.665479 240.778846 531.302691 243.230769 530.912695 245.682692 530.540838 248.134615 530.214329 250.586538 529.869681 253.038462 529.642939 255.490385 529.370849 257.942308 529.234803 260.394231 529.089688 262.846154 528.962713 265.298077 528.872016 267.750000 528.726901 270.201923 528.690622 272.653846 528.636204 275.105769 528.554577 277.557692 528.418532 280.009615 528.237138 282.461538 528.101093 284.913462 527.992256 287.365385 527.801793 289.817308 527.647608 292.269231 527.575051 294.721154 527.429936 297.173077 527.266682 299.625000 527.148776 302.076923 526.967382 304.528846 526.767849 306.980769 526.668082 309.432692 526.559246 311.884615 526.359713 314.336538 526.232738 316.788462 526.069483 319.240385 525.906229 321.692308 525.815532 324.144231 525.697626 326.596154 525.570650 329.048077 525.507163 331.500000 525.443675 333.951923 525.298560 336.403846 525.162515 338.855769 525.071818 341.307692 524.854145 343.759615 524.690891 346.211538 524.545776 348.663462 524.391591 351.115385 524.219267 353.567308 524.046943 356.019231 523.792992 358.471154 523.684156 360.923077 523.520902 363.375000 523.294160 365.826923 522.994860 368.278846 522.804397 370.730769 522.623003 373.182692 522.396261 375.634615 522.251146 378.086538 522.087891 380.538462 522.024404 382.990385 521.915567 385.442308 521.770452 387.894231 521.616268 390.346154 521.226271 392.798077 520.754648 395.250000 520.292094 397.701923 519.711634 400.153846 519.194662 402.605769 518.559784 405.057692 517.861418 407.509615 517.280958 409.961538 516.791195 412.413462 516.228875 414.865385 515.548649 417.317308 515.086095 419.769231 514.596332 422.221154 514.333311 424.673077 513.943314 427.125000 513.435412 429.576923 470.925798 432.028846 446.356022 434.480769 431.744759 436.932692 419.409988 439.384615 412.145170 441.836538 404.934770 444.288462 398.885290 446.740385 391.030943 449.192308 380.047555 451.644231 367.685574 454.096154 354.298719 456.548077 336.893993 459.000000 315.843255 461.451923 294.665540 463.903846 276.898027 466.355769 265.170924 468.807692 253.071965 471.259615 242.224621 473.711538 231.286581 476.163462 222.507126 478.615385 212.847912 481.067308 206.408435 483.519231 201.039182 485.971154 196.141552 488.423077 191.579500 490.875000 187.516282 493.326923 184.468867 495.778846 181.983774 498.230769 180.532624 500.682692 178.981708 503.134615 177.566837 505.586538 175.870806 508.038462 173.884545 510.490385 171.725960 512.942308 168.714825 515.394231 165.467877 517.846154 161.776516 520.298077 156.779119 522.750000 152.543576 525.201923 149.133375 527.653846 144.970389 530.105769 140.997867 532.557692 137.406272 535.009615 133.996070 537.461538 130.912377 539.913462 128.481702 542.365385 126.232420 544.817308 124.309647 547.269231 122.069435 549.721154 120.210149 552.173077 118.695512 554.625000 117.706916 557.076923 116.863435 559.528846 116.065303 561.980769 115.512052 564.432692 114.741129 566.884615 113.825091 569.336538 112.519056 571.788462 111.267440 574.240385 109.535130 576.692308 107.567008 579.144231 105.390284 581.596154 102.751006 584.048077 100.900790 586.500000 98.578950 588.951923 96.402226 591.403846 94.162014 593.855769 92.257380 596.307692 91.087391 598.759615 89.028572 601.211538 87.767886 603.663462 86.389294 606.115385 85.183026 608.567308 83.967688 611.019231 82.879326 613.471154 82.126542 615.923077 81.654918 618.375000 81.210504 620.826923 80.738880 623.278846 80.176560 625.730769 79.577960 628.182692 78.997501 630.634615 78.154020 633.086538 77.129145 635.538462 76.149619 637.990385 74.952421 640.442308 73.501271 642.894231 72.140819 645.346154 71.152223 647.798077 70.045721 650.250000 68.648990 652.701923 67.751091 655.153846 66.671799 657.605769 65.846457 660.057692 65.084604 662.509615 64.349959 664.961538 54.436794 667.413462 48.523359 669.865385 44.822927 672.317308 42.319694 674.769231 40.795987 677.221154 39.353907 679.673077 38.220197 682.125000 37.041138 684.576923 35.771382 687.028846 34.628602 689.480769 33.177452 691.932692 31.835139 694.384615 30.284222 696.836538 28.824003 699.288462 27.182390 701.740385 25.549847 704.192308 23.862885 706.644231 22.311969 709.096154 20.933377 711.548077 19.210137 714.000000 18.067357 716.451923 16.797601 718.903846 15.555054 721.355769 14.403204 723.807692 13.215075 726.259615 12.634615 728.711538 12.634615 731.163462 12.634615 733.615385 12.634615 736.067308 12.634615 738.519231 12.634615 740.971154 12.634615 743.423077 12.634615 745.875000 12.634615 748.326923 12.634615 750.778846 12.634615 753.230769 12.634615 755.682692 12.634615 758.134615 12.634615 760.586538 12.634615 763.038462 12.634615 765.490385 12.634615 767.942308 12.634615 770.394231 12.634615 772.846154 12.634615 775.298077 12.634615 777.750000 12.634615 780.201923 12.634615 782.653846 12.634615 785.105769 12.634615 787.557692 12.634615 790.009615 12.634615 792.461538 12.634615 794.913462 12.634615 797.365385 12.634615 799.817308 12.634615 802.269231 12.634615 804.721154 12.634615 807.173077 12.634615 809.625000 12.634615 812.076923 12.634615 814.528846 12.634615 816.980769 12.634615 819.432692 12.634615 821.884615 12.634615 824.336538 12.634615 826.788462 12.634615 829.240385 12.634615 831.692308 12.634615 834.144231 12.634615 836.596154 12.634615 839.048077 12.634615 841.500000 12.634615 843.951923 12.634615 846.403846 12.634615 848.855769 12.634615 851.307692 12.634615 853.759615 12.634615 856.211538 12.634615 858.663462 12.634615 861.115385 12.634615 863.567308 12.634615 866.019231 12.634615 868.471154 12.634615 870.923077 12.634615 873.375000 12.634615 875.826923 12.634615 878.278846 12.634615 880.730769 12.634615 883.182692 12.634615 885.634615 12.634615 888.086538 12.634615 890.538462 12.634615 892.990385 12.634615 895.442308 12.634615 897.894231 12.634615 900.346154 12.634615" /></g></g><g class="titles"><text class="title plot_title" x="512.0" y="26">Election 7 Participation</text><text class="title" transform="rotate(-90 0.000000 374.500000)" x="0" y="400.5">Users</text></g><g class="plot overlay" transform="translate(86, 46)"><g class="series serie-0 color-0" /><g class="series serie-1 color-1" /></g><g class="plot text-overlay" transform="translate(86, 46)"><g class="series serie-0 color-0" /><g class="series serie-1 color-1" /></g><g class="plot tooltip-overlay" transform="translate(86, 46)"><g class="tooltip" style="opacity: 0" transform="translate(0 0)"><a><rect class="tooltip-box" height="0" rx="0" ry="0" width="0" /><text class="text"><tspan class="label" /><tspan class="value" /></text></a></g></g><g class="legends" transform="translate(96, 713)"><g class="legend reactive activate-serie" id="activate-serie-0"><rect class="color-0 reactive" height="12" width="12" x="0.0" y="1.0" /><text x="17.0" y="11.2">constituents</text></g><g class="legend reactive activate-serie" id="activate-serie-1"><rect class="color-1 reactive" height="12" width="12" x="459.0" y="1.0" /><text x="476.0" y="11.2">caucus</text></g></g></g></svg>