<?xml version='1.0' encoding='utf-8'?>
<svg xmlns:xlink="http://www.w3.org/1999/xlink" class="pygal-chart" id="chart-df6902d5-d6a8-4feb-875b-b0f22b7ad7f2" viewBox="0 0 1024 768" xmlns="http://www.w3.org/2000/svg"><!--Generated with pygal 1.7.0 (etree) ©Kozea 2011-2014 on 2015-04-20--><!--http://pygal.org--><!--http://github.com/Kozea/pygal--><defs><style type="text/css">#chart-df6902d5-d6a8-4feb-875b-b0f22b7ad7f2 .title{font-family:"monospace";font-size:16px}#chart-df6902d5-d6a8-4feb-875b-b0f22b7ad7f2 .legends .legend text{font-family:"monospace";font-size:14px}#chart-df6902d5-d6a8-4feb-875b-b0f22b7ad7f2 .axis text{font-family:"monospace";font-size:10px}#chart-df6902d5-d6a8-4feb-875b-b0f22b7ad7f2 .axis text.major{font-family:"monospace";font-size:10px}#chart-df6902d5-d6a8-4feb-875b-b0f22b7ad7f2 .series text{font-family:"monospace";font-size:8px}#chart-df6902d5-d6a8-4feb-875b-b0f22b7ad7f2 .tooltip text{font-family:"monospace";font-size:16px}#chart-df6902d5-d6a8-4feb-875b-b0f22b7ad7f2 text.no_data{font-size:64px}
#chart-df6902d5-d6a8-4feb-875b-b0f22b7ad7f2{background-color:black}#chart-df6902d5-d6a8-4feb-875b-b0f22b7ad7f2 path,#chart-df6902d5-d6a8-4feb-875b-b0f22b7ad7f2 line,#chart-df6902d5-d6a8-4feb-875b-b0f22b7ad7f2 rect,#chart-df6902d5-d6a8-4feb-875b-b0f22b7ad7f2 circle{-webkit-transition:250ms;-moz-transition:250ms;transition:250ms}#chart-df6902d5-d6a8-4feb-875b-b0f22b7ad7f2 .graph &gt; .background{fill:black}#chart-df6902d5-d6a8-4feb-875b-b0f22b7ad7f2 .plot &gt; .background{fill:#111}#chart-df6902d5-d6a8-4feb-875b-b0f22b7ad7f2 .graph{fill:#999}#chart-df6902d5-d6a8-4feb-875b-b0f22b7ad7f2 text.no_data{fill:#eee}#chart-df6902d5-d6a8-4feb-875b-b0f22b7ad7f2 .title{fill:#eee}#chart-df6902d5-d6a8-4feb-875b-b0f22b7ad7f2 .legends .legend text{fill:#999}#chart-df6902d5-d6a8-4feb-875b-b0f22b7ad7f2 .legends .legend:hover text{fill:#eee}#chart-df6902d5-d6a8-4feb-875b-b0f22b7ad7f2 .axis .line{stroke:#eee}#chart-df6902d5-d6a8-4feb-875b-b0f22b7ad7f2 .axis .guide.line{stroke:#555}#chart-df6902d5-d6a8-4feb-875b-b0f22b7ad7f2 .axis .major.line{stroke:#999}#chart-df6902d5-d6a8-4feb-875b-b0f22b7ad7f2 .axis text.major{stroke:#eee;fill:#eee}#chart-df6902d5-d6a8-4feb-875b-b0f22b7ad7f2 .axis.y .guides:hover .guide.line,#chart-df6902d5-d6a8-4feb-875b-b0f22b7ad7f2 .line-graph .axis.x .guides:hover .guide.line,#chart-df6902d5-d6a8-4feb-875b-b0f22b7ad7f2 .stackedline-graph .axis.x .guides:hover .guide.line,#chart-df6902d5-d6a8-4feb-875b-b0f22b7ad7f2 .xy-graph .axis.x .guides:hover .guide.line{stroke:#eee}#chart-df6902d5-d6a8-4feb-875b-b0f22b7ad7f2 .axis .guides:hover text{fill:#eee}#chart-df6902d5-d6a8-4feb-875b-b0f22b7ad7f2 .reactive{fill-opacity:.8}#chart-df6902d5-d6a8-4feb-875b-b0f22b7ad7f2 .reactive.active,#chart-df6902d5-d6a8-4feb-875b-b0f22b7ad7f2 .active .reactive{fill-opacity:.4}#chart-df6902d5-d6a8-4feb-875b-b0f22b7ad7f2 .series{stroke-width:1.0;stroke-linejoin:round;stroke-linecap:round;stroke-dasharray:0,0}#chart-df6902d5-d6a8-4feb-875b-b0f22b7ad7f2 .series text{fill:#eee}#chart-df6902d5-d6a8-4feb-875b-b0f22b7ad7f2 .tooltip rect{fill:#111;stroke:#eee}#chart-df6902d5-d6a8-4feb-875b-b0f22b7ad7f2 .tooltip text{fill:#eee}#chart-df6902d5-d6a8-4feb-875b-b0f22b7ad7f2 .map-element{fill:#999;stroke:#555 !important;opacity:.9;stroke-width:3;-webkit-transition:250ms;-moz-transition:250ms;-o-transition:250ms;transition:250ms}#chart-df6902d5-d6a8-4feb-875b-b0f22b7ad7f2 .map-element:hover{opacity:1;stroke-width:10}#chart-df6902d5-d6a8-4feb-875b-b0f22b7ad7f2 .color-0,#chart-df6902d5-d6a8-4feb-875b-b0f22b7ad7f2 .color-0 a:visited{stroke:#ff5995;fill:#ff5995}#chart-df6902d5-d6a8-4feb-875b-b0f22b7ad7f2 .color-1,#chart-df6902d5-d6a8-4feb-875b-b0f22b7ad7f2 .color-1 a:visited{stroke:#b6e354;fill:#b6e354}#chart-df6902d5-d6a8-4feb-875b-b0f22b7ad7f2 .color-2,#chart-df6902d5-d6a8-4feb-875b-b0f22b7ad7f2 .color-2 a:visited{stroke:#feed6c;fill:#feed6c}#chart-df6902d5-d6a8-4feb-875b-b0f22b7ad7f2 .color-3,#chart-df6902d5-d6a8-4feb-875b-b0f22b7ad7f2 .color-3 a:visited{stroke:#8cedff;fill:#8cedff}#chart-df6902d5-d6a8-4feb-875b-b0f22b7ad7f2 .color-4,#chart-df6902d5-d6a8-4feb-875b-b0f22b7ad7f2 .color-4 a:visited{stroke:#9e6ffe;fill:#9e6ffe}#chart-df6902d5-d6a8-4feb-875b-b0f22b7ad7f2 .color-5,#chart-df6902d5-d6a8-4feb-875b-b0f22b7ad7f2 .color-5 a:visited{stroke:#899ca1;fill:#899ca1}#chart-df6902d5-d6a8-4feb-875b-b0f22b7ad7f2 .color-6,#chart-df6902d5-d6a8-4feb-875b-b0f22b7ad7f2 .color-6 a:visited{stroke:#f8f8f2;fill:#f8f8f2}#chart-df6902d5-d6a8-4feb-875b-b0f22b7ad7f2 .color-7,#chart-df6902d5-d6a8-4feb-875b-b0f22b7ad7f2 .color-7 a:visited{stroke:#bf4646;fill:#bf4646}#chart-df6902d5-d6a8-4feb-875b-b0f22b7ad7f2 .color-8,#chart-df6902d5-d6a8-4feb-875b-b0f22b7ad7f2 .color-8 a:visited{stroke:#516083;fill:#516083}#chart-df6902d5-d6a8-4feb-875b-b0f22b7ad7f2 .color-9,#chart-df6902d5-d6a8-4feb-875b-b0f22b7ad7f2 .color-9 a:visited{stroke:#f92672;fill:#f92672}#chart-df6902d5-d6a8-4feb-875b-b0f22b7ad7f2 .color-10,#chart-df6902d5-d6a8-4feb-875b-b0f22b7ad7f2 .color-10 a:visited{stroke:#82b414;fill:#82b414}#chart-df6902d5-d6a8-4feb-875b-b0f22b7ad7f2 .color-11,#chart-df6902d5-d6a8-4feb-875b-b0f22b7ad7f2 .color-11 a:visited{stroke:#fd971f;fill:#fd971f}#chart-df6902d5-d6a8-4feb-875b-b0f22b7ad7f2 .color-12,#chart-df6902d5-d6a8-4feb-875b-b0f22b7ad7f2 .color-12 a:visited{stroke:#56c2d6;fill:#56c2d6}#chart-df6902d5-d6a8-4feb-875b-b0f22b7ad7f2 .color-13,#chart-df6902d5-d6a8-4feb-875b-b0f22b7ad7f2 .color-13 a:visited{stroke:#808384;fill:#808384}#chart-df6902d5-d6a8-4feb-875b-b0f22b7ad7f2 .color-14,#chart-df6902d5-d6a8-4feb-875b-b0f22b7ad7f2 .color-14 a:visited{stroke:#8c54fe;fill:#8c54fe}#chart-df6902d5-d6a8-4feb-875b-b0f22b7ad7f2 .color-15,#chart-df6902d5-d6a8-4feb-875b-b0f22b7ad7f2 .color-15 a:visited{stroke:#465457;fill:#465457}
#chart-df6902d5-d6a8-4feb-875b-b0f22b7ad7f2 text.no_data{text-anchor:middle}#chart-df6902d5-d6a8-4feb-875b-b0f22b7ad7f2 .guide.line{fill-opacity:0}#chart-df6902d5-d6a8-4feb-875b-b0f22b7ad7f2 .centered{text-anchor:middle}#chart-df6902d5-d6a8-4feb-875b-b0f22b7ad7f2 .title{text-anchor:middle}#chart-df6902d5-d6a8-4feb-875b-b0f22b7ad7f2 .legends .legend text{fill-opacity:1}#chart-df6902d5-d6a8-4feb-875b-b0f22b7ad7f2 .axis.x text{text-anchor:middle}#chart-df6902d5-d6a8-4feb-875b-b0f22b7ad7f2 .axis.x:not(.web) text[transform]{text-anchor:start}#chart-df6902d5-d6a8-4feb-875b-b0f22b7ad7f2 .axis.y text{text-anchor:end}#chart-df6902d5-d6a8-4feb-875b-b0f22b7ad7f2 .axis.y2 text{text-anchor:start}#chart-df6902d5-d6a8-4feb-875b-b0f22b7ad7f2 .axis.y .logarithmic text:not(.major),#chart-df6902d5-d6a8-4feb-875b-b0f22b7ad7f2 .axis.y2 .logarithmic text:not(.major){font-size:50%}#chart-df6902d5-d6a8-4feb-875b-b0f22b7ad7f2 .axis .guide.line{stroke-dasharray:4,4}#chart-df6902d5-d6a8-4feb-875b-b0f22b7ad7f2 .axis .major.guide.line{stroke-dasharray:6,6}#chart-df6902d5-d6a8-4feb-875b-b0f22b7ad7f2 .axis text.major{stroke-width:0.5px}#chart-df6902d5-d6a8-4feb-875b-b0f22b7ad7f2 .horizontal .axis.y .guide.line,#chart-df6902d5-d6a8-4feb-875b-b0f22b7ad7f2 .horizontal .axis.y2 .guide.line,#chart-df6902d5-d6a8-4feb-875b-b0f22b7ad7f2 .vertical .axis.x .guide.line{opacity:0}#chart-df6902d5-d6a8-4feb-875b-b0f22b7ad7f2 .horizontal .axis.always_show .guide.line,#chart-df6902d5-d6a8-4feb-875b-b0f22b7ad7f2 .vertical .axis.always_show .guide.line{opacity:1 !important}#chart-df6902d5-d6a8-4feb-875b-b0f22b7ad7f2 .axis.y .guides:hover .guide.line,#chart-df6902d5-d6a8-4feb-875b-b0f22b7ad7f2 .axis.y2 .guides:hover .guide.line,#chart-df6902d5-d6a8-4feb-875b-b0f22b7ad7f2 .axis.x .guides:hover .guide.line{opacity:1}#chart-df6902d5-d6a8-4feb-875b-b0f22b7ad7f2 .axis .guides:hover text{opacity:1}#chart-df6902d5-d6a8-4feb-875b-b0f22b7ad7f2 .nofill{fill:none}#chart-df6902d5-d6a8-4feb-875b-b0f22b7ad7f2 .subtle-fill{fill-opacity:.2}#chart-df6902d5-d6a8-4feb-875b-b0f22b7ad7f2 .dot{stroke-width:1px;fill-opacity:1}#chart-df6902d5-d6a8-4feb-875b-b0f22b7ad7f2 .dot.active{stroke-width:5px}#chart-df6902d5-d6a8-4feb-875b-b0f22b7ad7f2 .series text{stroke:none}#chart-df6902d5-d6a8-4feb-875b-b0f22b7ad7f2 .series text.active{opacity:1}#chart-df6902d5-d6a8-4feb-875b-b0f22b7ad7f2 .tooltip rect{fill-opacity:0.8}#chart-df6902d5-d6a8-4feb-875b-b0f22b7ad7f2 .tooltip text{fill-opacity:1}#chart-df6902d5-d6a8-4feb-875b-b0f22b7ad7f2 .tooltip text tspan.label{fill-opacity:.8}</style><script type="text/javascript">window.config = {"x_labels_major_count": null, "show_y_labels": true, "y_labels_major_every": null, "include_x_axis": false, "order_min": null, "dots_size": 2.5, "x_labels_major_every": null, "show_legend": true, "interpolate": null, "zero": 0, "show_dots": false, "show_x_labels": true, "show_minor_x_labels": true, "logarithmic": false, "height": 768, "title": "Election 5 and 6 Participation", "x_title": null, "y_labels_major": null, "x_value_formatter": null, "title_font_size": 16, "mode": null, "no_data_text": "No data", "pretty_print": false, "y_labels_major_count": null, "x_label_format": "%Y-%m-%d %H:%M:%S.%f", "label_font_size": 10, "margin_right": null, "legend_box_size": 12, "strict": false, "show_only_major_dots": false, "disable_xml_declaration": false, "inner_radius": 0, "half_pie": false, "tooltip_border_radius": 0, "truncate_label": null, "no_data_font_size": 64, "legend_at_bottom_columns": null, "js": ["http://kozea.github.io/pygal.js/javascripts/svg.jquery.js", "http://kozea.github.io/pygal.js/javascripts/pygal-tooltips.js"], "spacing": 10, "xrange": null, "interpolation_precision": 250, "y_title": "Users", "legend_font_size": 14, "fill": false, "show_y_guides": true, "margin": 20, "style": {"opacity_hover": ".4", "foreground_dark": "#555", "stroke_style": "round", "foreground_light": "#eee", "background": "black", "opacity": ".8", "stroke_width": 1.0, "colors": ["#ff5995", "#b6e354", "#feed6c", "#8cedff", "#9e6ffe", "#899ca1", "#f8f8f2", "#bf4646", "#516083", "#f92672", "#82b414", "#fd971f", "#56c2d6", "#808384", "#8c54fe", "#465457"], "foreground": "#999", "transition": "250ms", "stroke_dasharray": "0,0", "font_family": "monospace", "plot_background": "#111"}, "rounded_bars": null, "explicit_size": false, "major_label_font_size": 10, "interpolation_parameters": {}, "css": ["style.css", "graph.css"], "tooltip_font_size": 16, "x_label_rotation": 0, "margin_bottom": null, "x_labels_major": null, "truncate_legend": null, "stack_from_top": false, "human_readable": false, "width": 1024, "print_values": false, "value_font_size": 8, "range": null, "show_x_guides": false, "missing_value_fill_truncation": "x", "margin_top": null, "y_label_rotation": 0, "y_labels": null, "margin_left": null, "x_labels": null, "stroke": true, "legend_at_bottom": true, "no_prefix": false, "show_minor_y_labels": true, "print_zeroes": false}</script><script type="text/javascript" xlink:href="http://kozea.github.io/pygal.js/javascripts/svg.jquery.js" /><script type="text/javascript" xlink:href="http://kozea.github.io/pygal.js/javascripts/pygal-tooltips.js" /></defs><title>Election 5 and 6 Participation</title><g class="graph line-graph vertical"><rect class="background" height="768" width="1024" x="0" y="0" /><g class="plot" transform="translate(86, 46)"><rect class="background" height="657.0" width="918.0" x="0" y="0" /><g class="axis y"><g class="guides"><path class="axis major line" d="M0.000000 644.365385 h918.000000" /><text class="major" x="-5" y="647.8653846153846">0</text></g><g class="guides"><path class="guide line" d="M0.000000 562.471326 h918.000000" /><text class="" x="-5" y="565.9713258610718">10000</text></g><g class="guides"><path class="guide line" d="M0.000000 480.577267 h918.000000" /><text class="" x="-5" y="484.077267106759">20000</text></g><g class="guides"><path class="guide line" d="M0.000000 398.683208 h918.000000" /><text class="" x="-5" y="402.1832083524462">30000</text></g><g class="guides"><path class="guide line" d="M0.000000 316.789150 h918.000000" /><text class="" x="-5" y="320.2891495981333">40000</text></g><g class="guides"><path class="major guide line" d="M0.000000 234.895091 h918.000000" /><text class="major" x="-5" y="238.3950908438204">50000</text></g><g class="guides"><path class="guide line" d="M0.000000 153.001032 h918.000000" /><text class="" x="-5" y="156.5010320895076">60000</text></g><g class="guides"><path class="guide line" d="M0.000000 71.106973 h918.000000" /><text class="" x="-5" y="74.60697333519477">70000</text></g></g><g class="series serie-0 color-0"><path class="line reactive nofill" d="M17.653846 644.365385 L20.105769 644.365385 22.557692 644.365385 25.009615 644.365385 27.461538 644.365385 29.913462 644.365385 32.365385 644.365385 34.817308 644.365385 37.269231 644.365385 39.721154 644.365385 42.173077 644.365385 44.625000 644.365385 47.076923 644.365385 49.528846 644.365385 51.980769 644.365385 54.432692 644.365385 56.884615 644.365385 59.336538 644.365385 61.788462 644.365385 64.240385 644.365385 66.692308 644.365385 69.144231 644.365385 71.596154 644.365385 74.048077 644.365385 76.500000 644.365385 78.951923 644.365385 81.403846 644.365385 83.855769 644.365385 86.307692 644.365385 88.759615 644.365385 91.211538 644.365385 93.663462 644.365385 96.115385 644.365385 98.567308 644.365385 101.019231 644.365385 103.471154 644.365385 105.923077 644.365385 108.375000 644.365385 110.826923 644.365385 113.278846 644.365385 115.730769 644.365385 118.182692 644.365385 120.634615 644.365385 123.086538 644.365385 125.538462 644.365385 127.990385 644.365385 130.442308 644.365385 132.894231 644.365385 135.346154 644.365385 137.798077 644.365385 140.250000 644.365385 142.701923 644.365385 145.153846 644.365385 147.605769 644.365385 150.057692 644.365385 152.509615 644.365385 154.961538 644.365385 157.413462 644.365385 159.865385 644.365385 162.317308 644.365385 164.769231 644.365385 167.221154 644.365385 169.673077 644.365385 172.125000 644.365385 174.576923 644.365385 177.028846 644.365385 179.480769 644.365385 181.932692 644.365385 184.384615 644.365385 186.836538 644.365385 189.288462 644.365385 191.740385 644.365385 194.192308 644.365385 196.644231 644.365385 199.096154 644.365385 201.548077 644.365385 204.000000 644.365385 206.451923 644.365385 208.903846 644.365385 211.355769 644.365385 213.807692 644.365385 216.259615 644.365385 218.711538 644.365385 221.163462 644.365385 223.615385 644.365385 226.067308 644.365385 228.519231 644.365385 230.971154 644.365385 233.423077 644.365385 235.875000 644.365385 238.326923 644.365385 240.778846 644.365385 243.230769 644.365385 245.682692 644.365385 248.134615 644.365385 250.586538 644.365385 253.038462 644.365385 255.490385 644.365385 257.942308 644.365385 260.394231 644.365385 262.846154 644.365385 265.298077 644.365385 267.750000 644.365385 270.201923 644.365385 272.653846 644.365385 275.105769 644.365385 277.557692 644.365385 280.009615 644.365385 282.461538 644.365385 284.913462 644.365385 287.365385 644.365385 289.817308 644.365385 292.269231 644.365385 294.721154 644.365385 297.173077 644.365385 299.625000 644.365385 302.076923 644.365385 304.528846 644.365385 306.980769 644.365385 309.432692 644.365385 311.884615 644.365385 314.336538 644.365385 316.788462 644.365385 319.240385 644.365385 321.692308 644.365385 324.144231 644.365385 326.596154 644.365385 329.048077 644.365385 331.500000 644.365385 333.951923 644.365385 336.403846 644.365385 338.855769 644.365385 341.307692 644.365385 343.759615 644.365385 346.211538 644.365385 348.663462 644.365385 351.115385 644.365385 353.567308 644.365385 356.019231 644.365385 358.471154 644.365385 360.923077 644.365385 363.375000 644.365385 365.826923 644.365385 368.278846 644.365385 370.730769 644.365385 373.182692 644.365385 375.634615 644.365385 378.086538 644.365385 380.538462 644.365385 382.990385 644.365385 385.442308 644.365385 387.894231 644.365385 390.346154 644.365385 392.798077 644.365385 395.250000 644.365385 397.701923 644.365385 400.153846 644.365385 402.605769 644.365385 405.057692 644.365385 407.509615 644.365385 409.961538 644.365385 412.413462 644.365385 414.865385 644.365385 417.317308 644.365385 419.769231 644.365385 422.221154 644.365385 424.673077 644.365385 427.125000 644.365385 429.576923 644.365385 432.028846 644.365385 434.480769 644.365385 436.932692 644.365385 439.384615 644.365385 441.836538 644.365385 444.288462 644.365385 446.740385 644.365385 449.192308 644.365385 451.644231 644.365385 454.096154 644.365385 456.548077 644.365385 459.000000 644.365385 461.451923 644.365385 463.903846 644.365385 466.355769 644.365385 468.807692 644.365385 471.259615 644.365385 473.711538 644.365385 476.163462 644.365385 478.615385 644.365385 481.067308 644.365385 483.519231 644.365385 485.971154 644.365385 488.423077 644.365385 490.875000 644.365385 493.326923 644.365385 495.778846 644.365385 498.230769 644.365385 500.682692 644.365385 503.134615 644.365385 505.586538 644.365385 508.038462 644.365385 510.490385 644.365385 512.942308 644.365385 515.394231 644.365385 517.846154 644.365385 520.298077 644.365385 522.750000 644.365385 525.201923 644.365385 527.653846 644.365385 530.105769 644.365385 532.557692 644.365385 535.009615 644.365385 537.461538 644.365385 539.913462 644.365385 542.365385 644.365385 544.817308 644.365385 547.269231 644.365385 549.721154 644.365385 552.173077 644.365385 554.625000 644.365385 557.076923 644.365385 559.528846 644.365385 561.980769 644.365385 564.432692 644.365385 566.884615 644.365385 569.336538 644.365385 571.788462 644.365385 574.240385 644.365385 576.692308 644.365385 579.144231 644.365385 581.596154 644.365385 584.048077 644.365385 586.500000 644.365385 588.951923 644.365385 591.403846 644.365385 593.855769 644.365385 596.307692 644.365385 598.759615 644.365385 601.211538 644.365385 603.663462 644.365385 606.115385 644.365385 608.567308 644.365385 611.019231 644.365385 613.471154 644.365385 615.923077 644.365385 618.375000 644.365385 620.826923 644.365385 623.278846 644.365385 625.730769 644.365385 628.182692 644.365385 630.634615 644.365385 633.086538 644.365385 635.538462 644.365385 637.990385 644.365385 640.442308 644.365385 642.894231 644.365385 645.346154 644.365385 647.798077 644.365385 650.250000 644.365385 652.701923 644.365385 655.153846 644.365385 657.605769 644.365385 660.057692 644.365385 662.509615 643.546444 664.961538 618.462294 667.413462 607.193671 669.865385 600.257245 672.317308 595.687556 674.769231 592.551014 677.221154 590.290738 679.673077 588.308901 682.125000 586.089572 684.576923 583.092250 687.028846 580.610860 689.480769 578.113091 691.932692 575.369640 694.384615 572.347749 696.836538 569.448700 699.288462 566.443188 701.740385 563.896282 704.192308 561.308430 706.644231 559.130048 709.096154 556.976235 711.548077 554.986209 714.000000 552.987994 716.451923 551.014347 718.903846 549.515686 721.355769 548.000646 723.807692 546.485606 726.259615 545.371846 728.711538 544.405496 731.163462 543.455525 733.615385 542.775805 736.067308 542.259872 738.519231 541.662046 740.971154 541.211628 743.423077 540.654749 745.875000 539.991407 748.326923 539.328065 750.778846 538.648344 753.230769 537.739320 755.682692 536.920380 758.134615 535.954030 760.586538 534.979490 763.038462 533.996762 765.490385 533.194200 767.942308 532.408017 770.394231 531.425288 772.846154 530.499885 775.298077 529.533535 777.750000 528.485291 780.201923 527.699109 782.653846 526.921115 785.105769 525.897439 787.557692 525.176772 790.009615 524.570755 792.461538 524.046633 794.913462 523.334155 797.365385 522.679003 799.817308 521.712653 802.269231 519.739006 804.721154 517.626139 807.173077 515.546030 809.625000 512.515950 812.076923 508.683308 814.528846 504.359302 816.980769 501.296464 819.432692 498.815074 821.884615 496.620313 824.336538 494.368227 826.788462 492.124329 829.240385 490.019652 831.692308 488.586506 834.144231 487.423610 836.596154 486.449071 839.048077 485.556426 841.500000 484.860326 843.951923 484.057765 846.403846 483.484506 848.855769 483.034089 851.307692 482.665566 853.759615 482.223338 856.211538 481.830246 858.663462 481.519049 861.115385 481.003116 863.567308 480.601835 866.019231 479.897546 868.471154 479.135932 870.923077 477.932089 873.375000 476.842898 875.826923 475.794654 878.278846 474.910198 880.730769 474.074879 883.182692 473.051203 885.634615 471.970202 888.086538 471.061177 890.538462 470.119396 892.990385 469.480622 895.442308 468.907364 897.894231 468.456946 900.346154 468.456946" /></g><g class="series serie-1 color-1"><path class="line reactive nofill" d="M17.653846 624.555212 L20.105769 617.454997 22.557692 612.549543 25.009615 610.272888 27.461538 608.413893 29.913462 607.054451 32.365385 605.719578 34.817308 604.392895 37.269231 602.214513 39.721154 600.224487 42.173077 598.185325 44.625000 595.597473 47.076923 592.534635 49.528846 589.496365 51.980769 587.105059 54.432692 585.532693 56.884615 583.960327 59.336538 582.117711 61.788462 580.684565 64.240385 579.341502 66.692308 578.072144 69.144231 577.163120 71.596154 576.114876 74.048077 575.467913 76.500000 574.681730 78.951923 573.936494 81.403846 573.371425 83.855769 572.970144 86.307692 572.593432 88.759615 572.388696 91.211538 572.143014 93.663462 571.823627 96.115385 571.659839 98.567308 571.332263 101.019231 570.914603 103.471154 570.464186 105.923077 569.800844 108.375000 569.203017 110.826923 568.670706 113.278846 568.064690 115.730769 567.450485 118.182692 566.991878 120.634615 566.394051 123.086538 565.788035 125.538462 565.370376 127.990385 565.010042 130.442308 564.625140 132.894231 564.281185 135.346154 563.904472 137.798077 563.593274 140.250000 563.413108 142.701923 563.232941 145.153846 563.069152 147.605769 562.929933 150.057692 562.782523 152.509615 562.610546 154.961538 562.463136 157.413462 562.168318 159.865385 562.020909 162.317308 561.775226 164.769231 561.464029 167.221154 561.144642 169.673077 560.833445 172.125000 560.505868 174.576923 560.243807 177.028846 559.924421 179.480769 559.605034 181.932692 559.236511 184.384615 558.966260 186.836538 558.679631 189.288462 558.466706 191.740385 558.196456 194.192308 558.040857 196.644231 557.852501 199.096154 557.680523 201.548077 557.516735 204.000000 557.393894 206.451923 557.295621 208.903846 557.221917 211.355769 557.131833 213.807692 557.017182 216.259615 556.910719 218.711538 556.763310 221.163462 556.566764 223.615385 556.394787 226.067308 556.157294 228.519231 555.968938 230.971154 555.829718 233.423077 555.641361 235.875000 555.469384 238.326923 555.256459 240.778846 555.068103 243.230769 554.846989 245.682692 554.625875 248.134615 554.453898 250.586538 554.281920 253.038462 554.159079 255.490385 554.028048 257.942308 553.905207 260.394231 553.823313 262.846154 553.765987 265.298077 553.700472 267.750000 553.659525 270.201923 553.602199 272.653846 553.544873 275.105769 553.413843 277.557692 553.340138 280.009615 553.217297 282.461538 553.135403 284.913462 553.086267 287.365385 553.020751 289.817308 552.971615 292.269231 552.906100 294.721154 552.824206 297.173077 552.799638 299.625000 552.725933 302.076923 552.570334 304.528846 552.431114 306.980769 552.341031 309.432692 552.267326 311.884615 552.185432 314.336538 552.119917 316.788462 552.054402 319.240385 551.972508 321.692308 551.898803 324.144231 551.833288 326.596154 551.800530 329.048077 551.784151 331.500000 551.702257 333.951923 551.669500 336.403846 551.636742 338.855769 551.587605 341.307692 551.530280 343.759615 551.448386 346.211538 551.317355 348.663462 551.243650 351.115385 551.161756 353.567308 551.096241 356.019231 551.014347 358.471154 550.965211 360.923077 550.883317 363.375000 550.776854 365.826923 550.629445 368.278846 550.596687 370.730769 550.400142 373.182692 550.260922 375.634615 550.170838 378.086538 550.105323 380.538462 550.015240 382.990385 549.966103 385.442308 549.876020 387.894231 549.785936 390.346154 549.704042 392.798077 549.613959 395.250000 549.515686 397.701923 549.417413 400.153846 549.163541 402.605769 548.934238 405.057692 548.672177 407.509615 548.410116 409.961538 548.074350 412.413462 547.787721 414.865385 547.492903 417.317308 547.279978 419.769231 547.050675 422.221154 546.911455 424.673077 546.723098 427.125000 541.776697 429.576923 507.512223 432.028846 488.422718 434.480769 477.268747 436.932692 468.375052 439.384615 462.052831 441.836538 456.557740 444.288462 451.103595 446.740385 444.789563 449.192308 435.699323 451.644231 425.454376 454.096154 414.177564 456.548077 401.099083 459.000000 386.177986 461.451923 370.716387 463.903846 357.883588 466.355769 348.334741 468.807692 339.793191 471.259615 331.210693 473.711538 322.644575 476.163462 315.364193 478.615385 308.575176 481.067308 303.088274 483.519231 298.706941 485.971154 294.382935 488.423077 290.722271 490.875000 287.708569 493.326923 284.907793 495.778846 282.999661 498.230769 281.517378 500.682692 280.288968 503.134615 279.068746 505.586538 277.938608 508.038462 276.407189 510.490385 274.482679 512.942308 272.574547 515.394231 270.052210 517.846154 267.374275 520.298077 264.483414 522.750000 261.461524 525.201923 258.824535 527.653846 256.400471 530.105769 253.714346 532.557692 251.060978 535.009615 248.391232 537.461538 246.049062 539.913462 244.083604 542.365385 242.118147 544.817308 240.349235 547.269231 238.776869 549.721154 237.360102 552.173077 236.279100 554.625000 235.345508 557.076923 234.600272 559.528846 234.059771 561.980769 233.380051 564.432692 232.700330 566.884615 232.094314 569.336538 231.152532 571.788462 230.317213 574.240385 229.170696 576.692308 228.106073 579.144231 226.705685 581.596154 225.026857 584.048077 223.782067 586.500000 222.324353 588.951923 220.874828 591.403846 219.523576 593.855769 218.246029 596.307692 216.952103 598.759615 215.838343 601.211538 214.937509 603.663462 213.872886 606.115385 212.742748 608.567308 211.964754 611.019231 211.219518 613.471154 210.687207 615.923077 210.220411 618.375000 209.860077 620.826923 209.458796 623.278846 209.041136 625.730769 208.631666 628.182692 208.222196 630.634615 207.804536 633.086538 207.198520 635.538462 206.551557 637.990385 205.445987 640.442308 204.610668 642.894231 203.873621 645.346154 203.136575 647.798077 202.276687 650.250000 201.482315 652.701923 200.573291 655.153846 199.770729 657.605769 199.181092 660.057692 198.542318 662.509615 197.518642 664.961538 189.599487 667.413462 185.512973 669.865385 182.933311 672.317308 181.148020 674.769231 179.952367 677.221154 179.100669 679.673077 178.257160 682.125000 177.479166 684.576923 176.570142 687.028846 175.661118 689.480769 174.858556 691.932692 173.859449 694.384615 172.835773 696.836538 171.828476 699.288462 170.690149 701.740385 169.560011 704.192308 168.577282 706.644231 167.537228 709.096154 166.554499 711.548077 165.702801 714.000000 164.752830 716.451923 163.868374 718.903846 163.172274 721.355769 162.271440 723.807692 161.493446 726.259615 160.879241 728.711538 160.248656 731.163462 159.708156 733.615385 159.356011 736.067308 159.061192 738.519231 158.774563 740.971154 158.471555 743.423077 158.094843 745.875000 157.857350 748.326923 157.505205 750.778846 157.136682 753.230769 156.669886 755.682692 156.153953 758.134615 155.638021 760.586538 155.163035 763.038462 154.630724 765.490385 154.155738 767.942308 153.582480 770.394231 153.017411 772.846154 152.493289 775.298077 151.862705 777.750000 151.305825 780.201923 150.765324 782.653846 150.306718 785.105769 149.790785 787.557692 149.225716 790.009615 148.783488 792.461538 148.357639 794.913462 147.956358 797.365385 147.538698 799.817308 146.990008 802.269231 146.285719 804.721154 145.663324 807.173077 144.688785 809.625000 143.443995 812.076923 141.986281 814.528846 139.857036 816.980769 138.153639 819.432692 136.728683 821.884615 135.418378 824.336538 134.067126 826.788462 132.511139 829.240385 130.856879 831.692308 129.653036 834.144231 128.735822 836.596154 127.908692 839.048077 127.032426 841.500000 126.369084 843.951923 125.640227 846.403846 125.206189 848.855769 124.804908 851.307692 124.395437 853.759615 124.010535 856.211538 123.658391 858.663462 123.347193 861.115385 123.052375 863.567308 122.732988 866.019231 122.225245 868.471154 121.750259 870.923077 120.964076 873.375000 120.177893 875.826923 119.408089 878.278846 118.621906 880.730769 117.786587 883.182692 116.984025 885.634615 116.222410 888.086538 115.256060 890.538462 114.658234 892.990385 114.142301 895.442308 113.618179 897.894231 113.151383 900.346154 113.151383" /></g><g class="series serie-2 color-2"><path class="line reactive nofill" d="M17.653846 644.365385 L20.105769 644.365385 22.557692 644.365385 25.009615 644.365385 27.461538 644.365385 29.913462 644.365385 32.365385 644.365385 34.817308 644.365385 37.269231 644.365385 39.721154 644.365385 42.173077 644.365385 44.625000 644.365385 47.076923 644.365385 49.528846 644.365385 51.980769 644.365385 54.432692 644.365385 56.884615 644.365385 59.336538 644.365385 61.788462 644.365385 64.240385 644.365385 66.692308 644.365385 69.144231 644.365385 71.596154 644.365385 74.048077 644.365385 76.500000 644.365385 78.951923 644.365385 81.403846 644.365385 83.855769 644.365385 86.307692 644.365385 88.759615 644.365385 91.211538 644.365385 93.663462 644.365385 96.115385 644.365385 98.567308 644.365385 101.019231 644.365385 103.471154 644.365385 105.923077 644.365385 108.375000 644.365385 110.826923 644.365385 113.278846 644.365385 115.730769 644.365385 118.182692 644.365385 120.634615 644.365385 123.086538 644.365385 125.538462 644.365385 127.990385 644.365385 130.442308 644.365385 132.894231 644.365385 135.346154 644.365385 137.798077 644.365385 140.250000 644.365385 142.701923 644.365385 145.153846 644.365385 147.605769 644.365385 150.057692 644.365385 152.509615 644.365385 154.961538 644.365385 157.413462 644.365385 159.865385 644.365385 162.317308 644.365385 164.769231 644.365385 167.221154 644.365385 169.673077 644.365385 172.125000 644.365385 174.576923 644.365385 177.028846 644.365385 179.480769 644.365385 181.932692 644.365385 184.384615 644.365385 186.836538 644.365385 189.288462 644.365385 191.740385 644.365385 194.192308 644.365385 196.644231 644.365385 199.096154 644.365385 201.548077 644.365385 204.000000 644.365385 206.451923 644.365385 208.903846 644.365385 211.355769 644.365385 213.807692 644.365385 216.259615 644.365385 218.711538 644.365385 221.163462 644.365385 223.615385 644.365385 226.067308 644.365385 228.519231 644.365385 230.971154 644.365385 233.423077 644.365385 235.875000 644.365385 238.326923 644.365385 240.778846 644.365385 243.230769 644.365385 245.682692 644.365385 248.134615 644.365385 250.586538 644.365385 253.038462 644.365385 255.490385 644.365385 257.942308 644.365385 260.394231 644.365385 262.846154 644.365385 265.298077 644.365385 267.750000 644.365385 270.201923 644.365385 272.653846 644.365385 275.105769 644.365385 277.557692 644.365385 280.009615 644.365385 282.461538 644.365385 284.913462 644.365385 287.365385 644.365385 289.817308 644.365385 292.269231 644.365385 294.721154 644.365385 297.173077 644.365385 299.625000 644.365385 302.076923 644.365385 304.528846 644.365385 306.980769 644.365385 309.432692 644.365385 311.884615 644.365385 314.336538 644.365385 316.788462 644.365385 319.240385 644.365385 321.692308 644.365385 324.144231 644.365385 326.596154 644.365385 329.048077 644.365385 331.500000 644.365385 333.951923 644.365385 336.403846 644.365385 338.855769 644.365385 341.307692 644.365385 343.759615 644.365385 346.211538 644.365385 348.663462 644.365385 351.115385 644.365385 353.567308 644.365385 356.019231 644.365385 358.471154 644.365385 360.923077 644.365385 363.375000 644.365385 365.826923 644.365385 368.278846 644.365385 370.730769 644.365385 373.182692 644.365385 375.634615 644.365385 378.086538 644.365385 380.538462 644.365385 382.990385 644.365385 385.442308 644.365385 387.894231 644.365385 390.346154 644.365385 392.798077 644.365385 395.250000 644.365385 397.701923 644.365385 400.153846 644.365385 402.605769 644.365385 405.057692 644.365385 407.509615 644.365385 409.961538 644.365385 412.413462 644.365385 414.865385 644.365385 417.317308 644.365385 419.769231 644.365385 422.221154 644.365385 424.673077 644.365385 427.125000 644.365385 429.576923 644.365385 432.028846 644.365385 434.480769 644.365385 436.932692 644.365385 439.384615 644.365385 441.836538 644.365385 444.288462 644.365385 446.740385 644.365385 449.192308 644.365385 451.644231 644.365385 454.096154 644.365385 456.548077 644.365385 459.000000 644.365385 461.451923 644.365385 463.903846 644.365385 466.355769 644.365385 468.807692 644.365385 471.259615 644.365385 473.711538 644.365385 476.163462 644.365385 478.615385 644.365385 481.067308 644.365385 483.519231 644.365385 485.971154 644.365385 488.423077 644.365385 490.875000 644.365385 493.326923 644.365385 495.778846 644.365385 498.230769 644.365385 500.682692 644.365385 503.134615 644.365385 505.586538 644.365385 508.038462 644.365385 510.490385 644.365385 512.942308 644.365385 515.394231 644.365385 517.846154 644.365385 520.298077 644.365385 522.750000 644.365385 525.201923 644.365385 527.653846 644.365385 530.105769 644.365385 532.557692 644.365385 535.009615 644.365385 537.461538 644.365385 539.913462 644.365385 542.365385 644.365385 544.817308 644.365385 547.269231 644.365385 549.721154 644.365385 552.173077 644.365385 554.625000 644.365385 557.076923 644.365385 559.528846 644.365385 561.980769 644.365385 564.432692 644.365385 566.884615 644.365385 569.336538 644.365385 571.788462 644.365385 574.240385 644.365385 576.692308 644.365385 579.144231 644.365385 581.596154 644.365385 584.048077 644.365385 586.500000 644.365385 588.951923 644.365385 591.403846 644.365385 593.855769 644.365385 596.307692 644.365385 598.759615 644.365385 601.211538 644.365385 603.663462 644.365385 606.115385 644.365385 608.567308 644.365385 611.019231 644.365385 613.471154 644.365385 615.923077 644.365385 618.375000 644.365385 620.826923 644.365385 623.278846 644.365385 625.730769 644.365385 628.182692 644.365385 630.634615 644.365385 633.086538 644.365385 635.538462 644.365385 637.990385 644.365385 640.442308 644.365385 642.894231 644.365385 645.346154 644.365385 647.798077 644.365385 650.250000 644.365385 652.701923 644.365385 655.153846 644.365385 657.605769 644.365385 660.057692 644.365385 662.509615 644.365385 664.961538 618.126528 667.413462 606.047155 669.865385 599.348221 672.317308 595.384548 674.769231 592.297142 677.221154 589.570070 679.673077 587.113248 682.125000 584.271524 684.576923 580.496208 687.028846 576.794597 689.480769 573.133932 691.932692 568.932767 694.384615 565.239345 696.836538 561.054559 699.288462 557.262864 701.740385 554.200026 704.192308 551.268219 706.644231 548.393737 709.096154 545.658476 711.548077 543.144328 714.000000 540.990514 716.451923 538.533692 718.903846 536.641940 721.355769 534.414421 723.807692 532.891192 726.259615 531.638213 728.711538 530.663673 731.163462 529.836543 733.615385 529.238717 736.067308 528.583564 738.519231 527.977548 740.971154 527.428858 743.423077 526.839221 745.875000 525.979333 748.326923 524.783680 750.778846 523.686300 753.230769 522.244964 755.682692 521.082069 758.134615 519.698059 760.586538 518.322239 763.038462 517.110207 765.490385 515.865417 767.942308 514.849931 770.394231 513.564194 772.846154 512.311215 775.298077 511.099183 777.750000 509.911719 780.201923 508.797960 782.653846 507.831610 785.105769 506.816124 787.557692 506.070888 790.009615 505.145485 792.461538 504.252839 794.913462 503.237353 797.365385 502.139973 799.817308 500.944320 802.269231 498.585771 804.721154 495.260872 807.173077 490.601100 809.625000 484.532750 812.076923 478.980333 814.528846 473.763681 816.980769 470.373267 819.432692 467.384134 821.884615 463.756227 824.336538 460.013669 826.788462 456.492224 829.240385 453.789720 831.692308 451.897968 834.144231 450.546716 836.596154 449.056244 839.048077 447.647666 841.500000 446.574854 843.951923 445.461095 846.403846 444.887836 848.855769 444.470177 851.307692 443.905108 853.759615 443.512016 856.211538 443.110735 858.663462 442.652128 861.115385 442.168954 863.567308 442.168954 866.019231 442.168954 868.471154 442.168954 870.923077 442.168954 873.375000 442.168954 875.826923 442.168954 878.278846 442.168954 880.730769 442.168954 883.182692 442.168954 885.634615 442.168954 888.086538 442.168954 890.538462 442.168954 892.990385 442.168954 895.442308 442.168954 897.894231 442.168954 900.346154 442.168954" /></g><g class="series serie-3 color-3"><path class="line reactive nofill" d="M17.653846 627.929247 L20.105769 621.779003 22.557692 618.347642 25.009615 616.062798 27.461538 613.908984 29.913462 612.475838 32.365385 611.034503 34.817308 609.355674 37.269231 606.849716 39.721154 603.623090 42.173077 600.249055 44.625000 595.630230 47.076923 591.404497 49.528846 588.530015 51.980769 585.884837 54.432692 583.690076 56.884615 581.413422 59.336538 579.185903 61.788462 576.942006 64.240385 574.984738 66.692308 573.445130 69.144231 572.077499 71.596154 570.865467 74.048077 569.718950 76.500000 568.818115 78.951923 567.712546 81.403846 567.188424 83.855769 566.811711 86.307692 566.353104 88.759615 565.919066 91.211538 565.632437 93.663462 565.362186 96.115385 564.813496 98.567308 564.174722 101.019231 563.478623 103.471154 562.536841 105.923077 561.595059 108.375000 560.669657 110.826923 559.793390 113.278846 559.064533 115.730769 558.229214 118.182692 557.369326 120.634615 556.624090 123.086538 555.977127 125.538462 555.436626 127.990385 554.789663 130.442308 554.208215 132.894231 553.725040 135.346154 553.233676 137.798077 552.840585 140.250000 552.455682 142.701923 552.308273 145.153846 552.136296 147.605769 551.956129 150.057692 551.726825 152.509615 551.546658 154.961538 551.202703 157.413462 550.768665 159.865385 550.400142 162.317308 549.826883 164.769231 549.245435 167.221154 548.754071 169.673077 548.254517 172.125000 547.681259 174.576923 547.198084 177.028846 546.600257 179.480769 545.986052 181.932692 545.404604 184.384615 544.954187 186.836538 544.642989 189.288462 544.282655 191.740385 543.905943 194.192308 543.439147 196.644231 543.144328 199.096154 542.955972 201.548077 542.775805 204.000000 542.652964 206.451923 542.513744 208.903846 542.358145 211.355769 542.243493 213.807692 541.997811 216.259615 541.711182 218.711538 541.342659 221.163462 541.015082 223.615385 540.671127 226.067308 540.228900 228.519231 539.794861 230.971154 539.450906 233.423077 539.033246 235.875000 538.648344 238.326923 538.238874 240.778846 537.919487 243.230769 537.706562 245.682692 537.452691 248.134615 537.223388 250.586538 537.010463 253.038462 536.723834 255.490385 536.551856 257.942308 536.404447 260.394231 536.289795 262.846154 536.150575 265.298077 536.044113 267.750000 535.978598 270.201923 535.913083 272.653846 535.782052 275.105769 535.708347 277.557692 535.569128 280.009615 535.429908 282.461538 535.348014 284.913462 535.249741 287.365385 535.176036 289.817308 535.004059 292.269231 534.848460 294.721154 534.750187 297.173077 534.553641 299.625000 534.389853 302.076923 534.242444 304.528846 534.070466 306.980769 533.857542 309.432692 533.726511 311.884615 533.628238 314.336538 533.554534 316.788462 533.398935 319.240385 533.284283 321.692308 533.194200 324.144231 533.087738 326.596154 532.997654 329.048077 532.932139 331.500000 532.817487 333.951923 532.711025 336.403846 532.604563 338.855769 532.514479 341.307692 532.432585 343.759615 532.244229 346.211538 532.105009 348.663462 531.941221 351.115385 531.802001 353.567308 531.670970 356.019231 531.539940 358.471154 531.400720 360.923077 531.302447 363.375000 531.179606 365.826923 531.040386 368.278846 530.843840 370.730769 530.704620 373.182692 530.549022 375.634615 530.458938 378.086538 530.368855 380.538462 530.278771 382.990385 530.172309 385.442308 530.024900 387.894231 529.951195 390.346154 529.844733 392.798077 529.639998 395.250000 529.435263 397.701923 529.050360 400.153846 528.624511 402.605769 528.133147 405.057692 527.740056 407.509615 527.289638 409.961538 526.888357 412.413462 526.290531 414.865385 525.807356 417.317308 525.545295 419.769231 525.250476 422.221154 524.931089 424.673077 524.587134 427.125000 524.218611 429.576923 483.435370 432.028846 464.059235 434.480769 453.584985 436.932692 445.854186 439.384615 439.220767 441.836538 433.660161 444.288462 427.387076 446.740385 421.253211 449.192308 412.367706 451.644231 399.420255 454.096154 382.378101 456.548077 360.684365 459.000000 342.045277 461.451923 325.625519 463.903846 312.948318 466.355769 301.794347 468.807692 290.386505 471.259615 279.625626 473.711538 269.356111 476.163462 261.084811 478.615385 254.787158 481.067308 249.316635 483.519231 244.255582 485.971154 239.661325 488.423077 235.771357 490.875000 232.348186 493.326923 230.071531 495.778846 228.613817 498.230769 227.409974 500.682692 226.083290 503.134615 224.822122 505.586538 223.241566 508.038462 221.120510 510.490385 218.352491 512.942308 214.642690 515.394231 210.441525 517.846154 206.232170 520.298077 201.809891 522.750000 197.887166 525.201923 194.095471 527.653846 190.311965 530.105769 186.438376 532.557692 182.458325 535.009615 179.305404 537.461538 176.324460 539.913462 174.015048 542.365385 171.631930 544.817308 169.543632 547.269231 167.488091 549.721154 166.087703 552.173077 164.867481 554.625000 163.884752 557.076923 163.172274 559.528846 162.238682 561.980769 161.526204 564.432692 160.617180 566.884615 159.536178 569.336538 158.414229 571.788462 156.383257 574.240385 154.311337 576.692308 152.198470 579.144231 149.831732 581.596154 147.694297 584.048077 145.671514 586.500000 143.272018 588.951923 141.093636 591.403846 139.029906 593.855769 137.506676 596.307692 135.729575 598.759615 134.165399 601.211538 133.002503 603.663462 131.847797 606.115385 130.627575 608.567308 129.628468 611.019231 128.932368 613.471154 128.400057 615.923077 127.916882 618.375000 127.531980 620.826923 127.024237 623.278846 126.500115 625.730769 125.918667 628.182692 125.181620 630.634615 124.338112 633.086538 123.330815 635.538462 122.012320 637.990385 120.669258 640.442308 119.621014 642.894231 118.621906 645.346154 117.188760 647.798077 115.788372 650.250000 114.297900 652.701923 113.208709 655.153846 112.422526 657.605769 111.456176 660.057692 110.522584 662.509615 109.769158 664.961538 101.268555 667.413462 96.715246 669.865385 93.824385 672.317308 91.981769 674.769231 90.810684 677.221154 89.770629 679.673077 88.968068 682.125000 88.018096 684.576923 86.838822 687.028846 85.487570 689.480769 84.128129 691.932692 82.604899 694.384615 81.294594 696.836538 79.591198 699.288462 78.198999 701.740385 77.019724 704.192308 75.496495 706.644231 74.251705 709.096154 72.974158 711.548077 71.712989 714.000000 70.713882 716.451923 69.583744 718.903846 68.633773 721.355769 67.421741 723.807692 66.537285 726.259615 65.726534 728.711538 65.218791 731.163462 64.612774 733.615385 64.244251 736.067308 63.867539 738.519231 63.572720 740.971154 63.245144 743.423077 62.909378 745.875000 62.516287 748.326923 61.959407 750.778846 61.369770 753.230769 60.477125 755.682692 59.633616 758.134615 58.781917 760.586538 58.184091 763.038462 57.365150 765.490385 56.685430 767.942308 56.046656 770.394231 55.219526 772.846154 54.482479 775.298077 53.688107 777.750000 53.139417 780.201923 52.525211 782.653846 51.820922 785.105769 51.223096 787.557692 50.805436 790.009615 50.346829 792.461538 49.896412 794.913462 49.274017 797.365385 48.708948 799.817308 48.029228 802.269231 47.071067 804.721154 45.646110 807.173077 43.606948 809.625000 41.125558 812.076923 38.259266 814.528846 35.196429 816.980769 33.173645 819.432692 31.199999 821.884615 28.898775 824.336538 26.581174 826.788462 24.370034 829.240385 22.437334 831.692308 21.127029 834.144231 19.898618 836.596154 18.686586 839.048077 17.409039 841.500000 16.418121 843.951923 15.607370 846.403846 14.919460 848.855769 14.493611 851.307692 14.166034 853.759615 13.740185 856.211538 13.371662 858.663462 13.011328 861.115385 12.634615 863.567308 12.634615 866.019231 12.634615 868.471154 12.634615 870.923077 12.634615 873.375000 12.634615 875.826923 12.634615 878.278846 12.634615 880.730769 12.634615 883.182692 12.634615 885.634615 12.634615 888.086538 12.634615 890.538462 12.634615 892.990385 12.634615 895.442308 12.634615 897.894231 12.634615 900.346154 12.634615" /></g></g><g class="titles"><text class="title plot_title" x="512.0" y="26">Election 5 and 6 Participation</text><text class="title" transform="rotate(-90 0.000000 374.500000)" x="0" y="400.5">Users</text></g><g class="plot overlay" transform="translate(86, 46)"><g class="series serie-0 color-0" /><g class="series serie-1 color-1" /><g class="series serie-2 color-2" /><g class="series serie-3 color-3" /></g><g class="plot text-overlay" transform="translate(86, 46)"><g class="series serie-0 color-0" /><g class="series serie-1 color-1" /><g class="series serie-2 color-2" /><g class="series serie-3 color-3" /></g><g class="plot tooltip-overlay" transform="translate(86, 46)"><g class="tooltip" style="opacity: 0" transform="translate(0 0)"><a><rect class="tooltip-box" height="0" rx="0" ry="0" width="0" /><text class="text"><tspan class="label" /><tspan class="value" /></text></a></g></g><g class="legends" transform="translate(96, 713)"><g class="legend reactive activate-serie" id="activate-serie-0"><rect class="color-0 reactive" height="12" width="12" x="0.0" y="1.0" /><text x="17.0" y="11.2">5 constituents</text></g><g class="legend reactive activate-serie" id="activate-serie-1"><rect class="color-1 reactive" height="12" width="12" x="459.0" y="1.0" /><text x="476.0" y="11.2">5 caucus</text></g><g class="legend reactive activate-serie" id="activate-serie-2"><rect class="color-2 reactive" height="12" width="12" x="0.0" y="22.0" /><text x="17.0" y="32.2">6 constituents</text></g><g class="legend reactive activate-serie" id="activate-serie-3"><rect class="color-3 reactive" height="12" width="12" x="459.0" y="22.0" /><text x="476.0" y="32.2">6 caucus</text></g></g></g></svg>