<?xml version='1.0' encoding='utf-8'?>
<svg xmlns:xlink="http://www.w3.org/1999/xlink" class="pygal-chart" id="chart-69ead703-cb10-4e59-836f-56308240fdf0" viewBox="0 0 1024 768" xmlns="http://www.w3.org/2000/svg"><!--Generated with pygal 1.7.0 (etree) ©Kozea 2011-2014 on 2015-04-20--><!--http://pygal.org--><!--http://github.com/Kozea/pygal--><defs><style type="text/css">#chart-69ead703-cb10-4e59-836f-56308240fdf0 .title{font-family:"monospace";font-size:16px}#chart-69ead703-cb10-4e59-836f-56308240fdf0 .legends .legend text{font-family:"monospace";font-size:14px}#chart-69ead703-cb10-4e59-836f-56308240fdf0 .axis text{font-family:"monospace";font-size:10px}#chart-69ead703-cb10-4e59-836f-56308240fdf0 .axis text.major{font-family:"monospace";font-size:10px}#chart-69ead703-cb10-4e59-836f-56308240fdf0 .series text{font-family:"monospace";font-size:8px}#chart-69ead703-cb10-4e59-836f-56308240fdf0 .tooltip text{font-family:"monospace";font-size:16px}#chart-69ead703-cb10-4e59-836f-56308240fdf0 text.no_data{font-size:64px}
#chart-69ead703-cb10-4e59-836f-56308240fdf0{background-color:black}#chart-69ead703-cb10-4e59-836f-56308240fdf0 path,#chart-69ead703-cb10-4e59-836f-56308240fdf0 line,#chart-69ead703-cb10-4e59-836f-56308240fdf0 rect,#chart-69ead703-cb10-4e59-836f-56308240fdf0 circle{-webkit-transition:250ms;-moz-transition:250ms;transition:250ms}#chart-69ead703-cb10-4e59-836f-56308240fdf0 .graph &gt; .background{fill:black}#chart-69ead703-cb10-4e59-836f-56308240fdf0 .plot &gt; .background{fill:#111}#chart-69ead703-cb10-4e59-836f-56308240fdf0 .graph{fill:#999}#chart-69ead703-cb10-4e59-836f-56308240fdf0 text.no_data{fill:#eee}#chart-69ead703-cb10-4e59-836f-56308240fdf0 .title{fill:#eee}#chart-69ead703-cb10-4e59-836f-56308240fdf0 .legends .legend text{fill:#999}#chart-69ead703-cb10-4e59-836f-56308240fdf0 .legends .legend:hover text{fill:#eee}#chart-69ead703-cb10-4e59-836f-56308240fdf0 .axis .line{stroke:#eee}#chart-69ead703-cb10-4e59-836f-56308240fdf0 .axis .guide.line{stroke:#555}#chart-69ead703-cb10-4e59-836f-56308240fdf0 .axis .major.line{stroke:#999}#chart-69ead703-cb10-4e59-836f-56308240fdf0 .axis text.major{stroke:#eee;fill:#eee}#chart-69ead703-cb10-4e59-836f-56308240fdf0 .axis.y .guides:hover .guide.line,#chart-69ead703-cb10-4e59-836f-56308240fdf0 .line-graph .axis.x .guides:hover .guide.line,#chart-69ead703-cb10-4e59-836f-56308240fdf0 .stackedline-graph .axis.x .guides:hover .guide.line,#chart-69ead703-cb10-4e59-836f-56308240fdf0 .xy-graph .axis.x .guides:hover .guide.line{stroke:#eee}#chart-69ead703-cb10-4e59-836f-56308240fdf0 .axis .guides:hover text{fill:#eee}#chart-69ead703-cb10-4e59-836f-56308240fdf0 .reactive{fill-opacity:.8}#chart-69ead703-cb10-4e59-836f-56308240fdf0 .reactive.active,#chart-69ead703-cb10-4e59-836f-56308240fdf0 .active .reactive{fill-opacity:.4}#chart-69ead703-cb10-4e59-836f-56308240fdf0 .series{stroke-width:1.0;stroke-linejoin:round;stroke-linecap:round;stroke-dasharray:0,0}#chart-69ead703-cb10-4e59-836f-56308240fdf0 .series text{fill:#eee}#chart-69ead703-cb10-4e59-836f-56308240fdf0 .tooltip rect{fill:#111;stroke:#eee}#chart-69ead703-cb10-4e59-836f-56308240fdf0 .tooltip text{fill:#eee}#chart-69ead703-cb10-4e59-836f-56308240fdf0 .map-element{fill:#999;stroke:#555 !important;opacity:.9;stroke-width:3;-webkit-transition:250ms;-moz-transition:250ms;-o-transition:250ms;transition:250ms}#chart-69ead703-cb10-4e59-836f-56308240fdf0 .map-element:hover{opacity:1;stroke-width:10}#chart-69ead703-cb10-4e59-836f-56308240fdf0 .color-0,#chart-69ead703-cb10-4e59-836f-56308240fdf0 .color-0 a:visited{stroke:#ff5995;fill:#ff5995}#chart-69ead703-cb10-4e59-836f-56308240fdf0 .color-1,#chart-69ead703-cb10-4e59-836f-56308240fdf0 .color-1 a:visited{stroke:#b6e354;fill:#b6e354}#chart-69ead703-cb10-4e59-836f-56308240fdf0 .color-2,#chart-69ead703-cb10-4e59-836f-56308240fdf0 .color-2 a:visited{stroke:#feed6c;fill:#feed6c}#chart-69ead703-cb10-4e59-836f-56308240fdf0 .color-3,#chart-69ead703-cb10-4e59-836f-56308240fdf0 .color-3 a:visited{stroke:#8cedff;fill:#8cedff}#chart-69ead703-cb10-4e59-836f-56308240fdf0 .color-4,#chart-69ead703-cb10-4e59-836f-56308240fdf0 .color-4 a:visited{stroke:#9e6ffe;fill:#9e6ffe}#chart-69ead703-cb10-4e59-836f-56308240fdf0 .color-5,#chart-69ead703-cb10-4e59-836f-56308240fdf0 .color-5 a:visited{stroke:#899ca1;fill:#899ca1}#chart-69ead703-cb10-4e59-836f-56308240fdf0 .color-6,#chart-69ead703-cb10-4e59-836f-56308240fdf0 .color-6 a:visited{stroke:#f8f8f2;fill:#f8f8f2}#chart-69ead703-cb10-4e59-836f-56308240fdf0 .color-7,#chart-69ead703-cb10-4e59-836f-56308240fdf0 .color-7 a:visited{stroke:#bf4646;fill:#bf4646}#chart-69ead703-cb10-4e59-836f-56308240fdf0 .color-8,#chart-69ead703-cb10-4e59-836f-56308240fdf0 .color-8 a:visited{stroke:#516083;fill:#516083}#chart-69ead703-cb10-4e59-836f-56308240fdf0 .color-9,#chart-69ead703-cb10-4e59-836f-56308240fdf0 .color-9 a:visited{stroke:#f92672;fill:#f92672}#chart-69ead703-cb10-4e59-836f-56308240fdf0 .color-10,#chart-69ead703-cb10-4e59-836f-56308240fdf0 .color-10 a:visited{stroke:#82b414;fill:#82b414}#chart-69ead703-cb10-4e59-836f-56308240fdf0 .color-11,#chart-69ead703-cb10-4e59-836f-56308240fdf0 .color-11 a:visited{stroke:#fd971f;fill:#fd971f}#chart-69ead703-cb10-4e59-836f-56308240fdf0 .color-12,#chart-69ead703-cb10-4e59-836f-56308240fdf0 .color-12 a:visited{stroke:#56c2d6;fill:#56c2d6}#chart-69ead703-cb10-4e59-836f-56308240fdf0 .color-13,#chart-69ead703-cb10-4e59-836f-56308240fdf0 .color-13 a:visited{stroke:#808384;fill:#808384}#chart-69ead703-cb10-4e59-836f-56308240fdf0 .color-14,#chart-69ead703-cb10-4e59-836f-56308240fdf0 .color-14 a:visited{stroke:#8c54fe;fill:#8c54fe}#chart-69ead703-cb10-4e59-836f-56308240fdf0 .color-15,#chart-69ead703-cb10-4e59-836f-56308240fdf0 .color-15 a:visited{stroke:#465457;fill:#465457}
#chart-69ead703-cb10-4e59-836f-56308240fdf0 text.no_data{text-anchor:middle}#chart-69ead703-cb10-4e59-836f-56308240fdf0 .guide.line{fill-opacity:0}#chart-69ead703-cb10-4e59-836f-56308240fdf0 .centered{text-anchor:middle}#chart-69ead703-cb10-4e59-836f-56308240fdf0 .title{text-anchor:middle}#chart-69ead703-cb10-4e59-836f-56308240fdf0 .legends .legend text{fill-opacity:1}#chart-69ead703-cb10-4e59-836f-56308240fdf0 .axis.x text{text-anchor:middle}#chart-69ead703-cb10-4e59-836f-56308240fdf0 .axis.x:not(.web) text[transform]{text-anchor:start}#chart-69ead703-cb10-4e59-836f-56308240fdf0 .axis.y text{text-anchor:end}#chart-69ead703-cb10-4e59-836f-56308240fdf0 .axis.y2 text{text-anchor:start}#chart-69ead703-cb10-4e59-836f-56308240fdf0 .axis.y .logarithmic text:not(.major),#chart-69ead703-cb10-4e59-836f-56308240fdf0 .axis.y2 .logarithmic text:not(.major){font-size:50%}#chart-69ead703-cb10-4e59-836f-56308240fdf0 .axis .guide.line{stroke-dasharray:4,4}#chart-69ead703-cb10-4e59-836f-56308240fdf0 .axis .major.guide.line{stroke-dasharray:6,6}#chart-69ead703-cb10-4e59-836f-56308240fdf0 .axis text.major{stroke-width:0.5px}#chart-69ead703-cb10-4e59-836f-56308240fdf0 .horizontal .axis.y .guide.line,#chart-69ead703-cb10-4e59-836f-56308240fdf0 .horizontal .axis.y2 .guide.line,#chart-69ead703-cb10-4e59-836f-56308240fdf0 .vertical .axis.x .guide.line{opacity:0}#chart-69ead703-cb10-4e59-836f-56308240fdf0 .horizontal .axis.always_show .guide.line,#chart-69ead703-cb10-4e59-836f-56308240fdf0 .vertical .axis.always_show .guide.line{opacity:1 !important}#chart-69ead703-cb10-4e59-836f-56308240fdf0 .axis.y .guides:hover .guide.line,#chart-69ead703-cb10-4e59-836f-56308240fdf0 .axis.y2 .guides:hover .guide.line,#chart-69ead703-cb10-4e59-836f-56308240fdf0 .axis.x .guides:hover .guide.line{opacity:1}#chart-69ead703-cb10-4e59-836f-56308240fdf0 .axis .guides:hover text{opacity:1}#chart-69ead703-cb10-4e59-836f-56308240fdf0 .nofill{fill:none}#chart-69ead703-cb10-4e59-836f-56308240fdf0 .subtle-fill{fill-opacity:.2}#chart-69ead703-cb10-4e59-836f-56308240fdf0 .dot{stroke-width:1px;fill-opacity:1}#chart-69ead703-cb10-4e59-836f-56308240fdf0 .dot.active{stroke-width:5px}#chart-69ead703-cb10-4e59-836f-56308240fdf0 .series text{stroke:none}#chart-69ead703-cb10-4e59-836f-56308240fdf0 .series text.active{opacity:1}#chart-69ead703-cb10-4e59-836f-56308240fdf0 .tooltip rect{fill-opacity:0.8}#chart-69ead703-cb10-4e59-836f-56308240fdf0 .tooltip text{fill-opacity:1}#chart-69ead703-cb10-4e59-836f-56308240fdf0 .tooltip text tspan.label{fill-opacity:.8}</style><script type="text/javascript">window.config = {"title_font_size": 16, "x_labels_major_count": null, "major_label_font_size": 10, "show_minor_y_labels": true, "css": ["style.css", "graph.css"], "mode": null, "tooltip_border_radius": 0, "margin_left": null, "order_min": null, "show_only_major_dots": false, "margin_bottom": null, "inner_radius": 0, "y_labels_major_count": null, "margin_top": null, "label_font_size": 10, "x_title": null, "range": [0, 1000], "truncate_label": null, "include_x_axis": false, "x_labels": null, "interpolation_parameters": {}, "spacing": 10, "logarithmic": false, "stroke": true, "interpolate": null, "x_label_rotation": 0, "width": 1024, "style": {"stroke_dasharray": "0,0", "opacity_hover": ".4", "opacity": ".8", "stroke_width": 1.0, "foreground": "#999", "background": "black", "font_family": "monospace", "colors": ["#ff5995", "#b6e354", "#feed6c", "#8cedff", "#9e6ffe", "#899ca1", "#f8f8f2", "#bf4646", "#516083", "#f92672", "#82b414", "#fd971f", "#56c2d6", "#808384", "#8c54fe", "#465457"], "foreground_dark": "#555", "foreground_light": "#eee", "transition": "250ms", "plot_background": "#111", "stroke_style": "round"}, "stack_from_top": false, "x_labels_major": null, "no_data_font_size": 64, "y_label_rotation": 0, "xrange": null, "dots_size": 2.5, "show_minor_x_labels": true, "height": 768, "margin_right": null, "margin": 20, "show_y_guides": true, "no_data_text": "No data", "pretty_print": false, "js": ["http://kozea.github.io/pygal.js/javascripts/svg.jquery.js", "http://kozea.github.io/pygal.js/javascripts/pygal-tooltips.js"], "zero": 0, "y_labels_major_every": null, "show_x_guides": false, "truncate_legend": null, "show_x_labels": true, "rounded_bars": null, "y_title": "Users", "legend_at_bottom": true, "explicit_size": false, "interpolation_precision": 250, "value_font_size": 8, "x_label_format": "%Y-%m-%d %H:%M:%S.%f", "x_labels_major_every": null, "no_prefix": false, "half_pie": false, "y_labels": null, "print_values": false, "x_value_formatter": null, "missing_value_fill_truncation": "x", "show_y_labels": true, "y_labels_major": null, "strict": false, "disable_xml_declaration": false, "title": "Election 6 Participation Per Hour", "human_readable": false, "fill": false, "legend_at_bottom_columns": null, "tooltip_font_size": 16, "print_zeroes": false, "show_legend": true, "legend_box_size": 12, "show_dots": false, "legend_font_size": 14}</script><script type="text/javascript" xlink:href="http://kozea.github.io/pygal.js/javascripts/svg.jquery.js" /><script type="text/javascript" xlink:href="http://kozea.github.io/pygal.js/javascripts/pygal-tooltips.js" /></defs><title>Election 6 Participation Per Hour</title><g class="graph line-graph vertical"><rect class="background" height="768" width="1024" x="0" y="0" /><g class="plot" transform="translate(80, 46)"><rect class="background" height="657.0" width="924.0" x="0" y="0" /><g class="axis y"><g class="guides"><path class="axis major line" d="M0.000000 644.365385 h924.000000" /><text class="major" x="-5" y="647.8653846153846">0</text></g><g class="guides"><path class="guide line" d="M0.000000 581.192308 h924.000000" /><text class="" x="-5" y="584.6923076923077">100</text></g><g class="guides"><path class="guide line" d="M0.000000 518.019231 h924.000000" /><text class="" x="-5" y="521.5192307692307">200</text></g><g class="guides"><path class="guide line" d="M0.000000 454.846154 h924.000000" /><text class="" x="-5" y="458.3461538461538">300</text></g><g class="guides"><path class="guide line" d="M0.000000 391.673077 h924.000000" /><text class="" x="-5" y="395.1730769230769">400</text></g><g class="guides"><path class="major guide line" d="M0.000000 328.500000 h924.000000" /><text class="major" x="-5" y="332.0">500</text></g><g class="guides"><path class="guide line" d="M0.000000 265.326923 h924.000000" /><text class="" x="-5" y="268.8269230769231">600</text></g><g class="guides"><path class="guide line" d="M0.000000 202.153846 h924.000000" /><text class="" x="-5" y="205.65384615384613">700</text></g><g class="guides"><path class="guide line" d="M0.000000 138.980769 h924.000000" /><text class="" x="-5" y="142.48076923076928">800</text></g><g class="guides"><path class="guide line" d="M0.000000 75.807692 h924.000000" /><text class="" x="-5" y="79.30769230769226">900</text></g><g class="guides"><path class="major guide line" d="M0.000000 12.634615 h924.000000" /><text class="major" x="-5" y="16.13461538461536">1000</text></g></g><g class="series serie-0 color-0"><path class="line reactive nofill" d="M17.769231 644.365385 L20.413462 644.365385 23.057692 644.365385 25.701923 644.365385 28.346154 644.365385 30.990385 644.365385 33.634615 644.365385 36.278846 644.365385 38.923077 644.365385 41.567308 644.365385 44.211538 644.365385 46.855769 644.365385 49.500000 644.365385 52.144231 644.365385 54.788462 644.365385 57.432692 644.365385 60.076923 644.365385 62.721154 644.365385 65.365385 644.365385 68.009615 644.365385 70.653846 644.365385 73.298077 644.365385 75.942308 644.365385 78.586538 644.365385 81.230769 644.365385 83.875000 644.365385 86.519231 644.365385 89.163462 644.365385 91.807692 644.365385 94.451923 644.365385 97.096154 644.365385 99.740385 644.365385 102.384615 644.365385 105.028846 644.365385 107.673077 644.365385 110.317308 644.365385 112.961538 644.365385 115.605769 644.365385 118.250000 644.365385 120.894231 644.365385 123.538462 644.365385 126.182692 644.365385 128.826923 644.365385 131.471154 644.365385 134.115385 644.365385 136.759615 644.365385 139.403846 644.365385 142.048077 644.365385 144.692308 644.365385 147.336538 644.365385 149.980769 644.365385 152.625000 644.365385 155.269231 644.365385 157.913462 644.365385 160.557692 644.365385 163.201923 644.365385 165.846154 644.365385 168.490385 644.365385 171.134615 644.365385 173.778846 644.365385 176.423077 644.365385 179.067308 644.365385 181.711538 644.365385 184.355769 644.365385 187.000000 644.365385 189.644231 644.365385 192.288462 644.365385 194.932692 644.365385 197.576923 644.365385 200.221154 644.365385 202.865385 644.365385 205.509615 644.365385 208.153846 644.365385 210.798077 644.365385 213.442308 644.365385 216.086538 644.365385 218.730769 644.365385 221.375000 644.365385 224.019231 644.365385 226.663462 644.365385 229.307692 644.365385 231.951923 644.365385 234.596154 644.365385 237.240385 644.365385 239.884615 644.365385 242.528846 644.365385 245.173077 644.365385 247.817308 644.365385 250.461538 644.365385 253.105769 644.365385 255.750000 644.365385 258.394231 644.365385 261.038462 644.365385 263.682692 644.365385 266.326923 644.365385 268.971154 644.365385 271.615385 644.365385 274.259615 644.365385 276.903846 644.365385 279.548077 644.365385 282.192308 644.365385 284.836538 644.365385 287.480769 644.365385 290.125000 644.365385 292.769231 644.365385 295.413462 644.365385 298.057692 644.365385 300.701923 644.365385 303.346154 644.365385 305.990385 644.365385 308.634615 644.365385 311.278846 644.365385 313.923077 644.365385 316.567308 644.365385 319.211538 644.365385 321.855769 644.365385 324.500000 644.365385 327.144231 644.365385 329.788462 644.365385 332.432692 644.365385 335.076923 644.365385 337.721154 644.365385 340.365385 644.365385 343.009615 644.365385 345.653846 644.365385 348.298077 644.365385 350.942308 644.365385 353.586538 644.365385 356.230769 644.365385 358.875000 644.365385 361.519231 644.365385 364.163462 644.365385 366.807692 644.365385 369.451923 644.365385 372.096154 644.365385 374.740385 644.365385 377.384615 644.365385 380.028846 644.365385 382.673077 644.365385 385.317308 644.365385 387.961538 644.365385 390.605769 644.365385 393.250000 644.365385 395.894231 644.365385 398.538462 644.365385 401.182692 644.365385 403.826923 644.365385 406.471154 644.365385 409.115385 644.365385 411.759615 644.365385 414.403846 644.365385 417.048077 644.365385 419.692308 644.365385 422.336538 644.365385 424.980769 644.365385 427.625000 644.365385 430.269231 644.365385 432.913462 644.365385 435.557692 644.365385 438.201923 644.365385 440.846154 644.365385 443.490385 644.365385 446.134615 644.365385 448.778846 644.365385 451.423077 644.365385 454.067308 644.365385 456.711538 644.365385 459.355769 644.365385 462.000000 644.365385 464.644231 644.365385 467.288462 644.365385 469.932692 644.365385 472.576923 644.365385 475.221154 644.365385 477.865385 644.365385 480.509615 644.365385 483.153846 644.365385 485.798077 644.365385 488.442308 644.365385 491.086538 644.365385 493.730769 644.365385 496.375000 644.365385 499.019231 644.365385 501.663462 644.365385 504.307692 644.365385 506.951923 644.365385 509.596154 644.365385 512.240385 644.365385 514.884615 644.365385 517.528846 644.365385 520.173077 644.365385 522.817308 644.365385 525.461538 644.365385 528.105769 644.365385 530.750000 644.365385 533.394231 644.365385 536.038462 644.365385 538.682692 644.365385 541.326923 644.365385 543.971154 644.365385 546.615385 644.365385 549.259615 644.365385 551.903846 644.365385 554.548077 644.365385 557.192308 644.365385 559.836538 644.365385 562.480769 644.365385 565.125000 644.365385 567.769231 644.365385 570.413462 644.365385 573.057692 644.365385 575.701923 644.365385 578.346154 644.365385 580.990385 644.365385 583.634615 644.365385 586.278846 644.365385 588.923077 644.365385 591.567308 644.365385 594.211538 644.365385 596.855769 644.365385 599.500000 644.365385 602.144231 644.365385 604.788462 644.365385 607.432692 644.365385 610.076923 644.365385 612.721154 644.365385 615.365385 644.365385 618.009615 644.365385 620.653846 644.365385 623.298077 644.365385 625.942308 644.365385 628.586538 644.365385 631.230769 644.365385 633.875000 644.365385 636.519231 644.365385 639.163462 644.365385 641.807692 644.365385 644.451923 644.365385 647.096154 644.365385 649.740385 644.365385 652.384615 644.365385 655.028846 644.365385 657.673077 644.365385 660.317308 644.365385 662.961538 644.365385 665.605769 644.365385 668.250000 644.365385 670.894231 644.365385 673.538462 644.365385 676.182692 644.365385 678.826923 644.365385 681.471154 644.365385 684.115385 644.365385 686.759615 644.365385 689.403846 644.365385 692.048077 644.365385 694.692308 644.365385 697.336538 644.365385 699.980769 644.365385 702.625000 644.365385 705.269231 644.365385 707.913462 644.365385 710.557692 644.365385 713.201923 644.365385 715.846154 -1379.700000 718.490385 -287.437500 721.134615 127.609615 723.778846 338.607692 726.423077 406.202885 729.067308 433.999038 731.711538 454.846154 734.355769 425.154808 737.000000 353.137500 739.644231 358.823077 742.288462 361.981731 744.932692 320.287500 747.576923 359.454808 750.221154 321.550962 752.865385 351.874038 755.509615 408.098077 758.153846 418.205769 760.798077 422.627885 763.442308 433.367308 766.086538 450.424038 768.730769 478.220192 771.375000 454.846154 774.019231 498.435577 776.663462 472.534615 779.307692 526.863462 781.951923 547.710577 784.596154 569.189423 787.240385 580.560577 789.884615 598.249038 792.528846 593.826923 795.173077 597.617308 797.817308 602.039423 800.461538 598.880769 803.105769 578.033654 805.750000 552.132692 808.394231 559.713462 811.038462 533.180769 813.682692 554.659615 816.326923 537.602885 818.971154 538.234615 821.615385 550.869231 824.259615 548.342308 826.903846 566.030769 829.548077 545.183654 832.192308 547.710577 834.836538 550.869231 837.480769 552.764423 840.125000 558.450000 842.769231 569.821154 845.413462 566.030769 848.057692 586.877885 850.701923 572.979808 853.346154 575.506731 855.990385 566.030769 858.634615 559.713462 861.278846 552.132692 863.923077 462.426923 866.567308 387.882692 869.211538 284.910577 871.855769 176.252885 874.500000 216.051923 877.144231 241.952885 879.788462 382.828846 882.432692 413.783654 885.076923 364.508654 887.721154 355.664423 890.365385 372.721154 893.009615 435.894231 895.653846 498.435577 898.298077 540.129808 900.942308 529.390385 903.586538 535.707692 906.230769 561.608654" /></g><g class="series serie-1 color-1"><path class="line reactive nofill" d="M17.769231 -623.518269 L20.413462 169.935577 23.057692 379.670192 25.701923 468.112500 28.346154 478.220192 30.990385 533.812500 33.634615 533.180769 36.278846 514.860577 38.923077 451.055769 41.567308 395.463462 44.211538 384.092308 46.855769 288.069231 49.500000 318.392308 52.144231 422.627885 54.788462 440.316346 57.432692 475.061538 60.076923 468.744231 62.721154 472.534615 65.365385 471.271154 68.009615 493.381731 70.653846 525.600000 73.298077 538.866346 75.942308 550.869231 78.586538 555.923077 81.230769 574.875000 83.875000 559.081731 86.519231 603.934615 89.163462 615.305769 91.807692 608.988462 94.451923 610.883654 97.096154 622.254808 99.740385 623.518269 102.384615 602.039423 105.028846 595.090385 107.673077 590.668269 110.317308 571.716346 112.961538 571.716346 115.605769 572.979808 118.250000 576.770192 120.894231 588.141346 123.538462 579.928846 126.182692 578.033654 128.826923 586.877885 131.471154 594.458654 134.115385 602.671154 136.759615 594.458654 139.403846 599.512500 142.048077 607.093269 144.692308 606.461538 147.336538 614.042308 149.980769 614.674038 152.625000 632.994231 155.269231 631.099038 157.913462 630.467308 160.557692 626.676923 163.201923 630.467308 165.846154 617.832692 168.490385 610.883654 171.134615 615.937500 173.778846 600.144231 176.423077 599.512500 179.067308 606.461538 181.711538 605.829808 184.355769 600.144231 187.000000 607.093269 189.644231 598.249038 192.288462 596.985577 194.932692 599.512500 197.576923 609.620192 200.221154 620.359615 202.865385 616.569231 205.509615 615.305769 208.153846 608.356731 210.798077 621.623077 213.442308 629.835577 216.086538 630.467308 218.730769 634.889423 221.375000 633.625962 224.019231 632.362500 226.663462 635.521154 229.307692 625.413462 231.951923 622.254808 234.596154 615.937500 237.240385 619.096154 239.884615 617.832692 242.528846 610.251923 245.173077 610.883654 247.817308 617.832692 250.461538 612.147115 253.105769 614.674038 255.750000 612.778846 258.394231 619.727885 261.038462 627.940385 263.682692 624.781731 266.326923 626.676923 268.971154 627.940385 271.615385 622.254808 274.259615 631.099038 276.903846 632.994231 279.548077 635.521154 282.192308 633.625962 284.836538 636.152885 287.480769 639.311538 290.125000 639.311538 292.769231 634.257692 295.413462 638.679808 298.057692 633.625962 300.701923 633.625962 303.346154 638.048077 305.990385 636.784615 308.634615 638.679808 311.278846 631.099038 313.923077 632.362500 316.567308 636.784615 319.211538 629.203846 321.855769 631.730769 324.500000 632.994231 327.144231 631.099038 329.788462 627.940385 332.432692 634.257692 335.076923 636.784615 337.721154 638.679808 340.365385 632.362500 343.009615 635.521154 345.653846 637.416346 348.298077 636.152885 350.942308 637.416346 353.586538 639.311538 356.230769 635.521154 358.875000 636.152885 361.519231 636.152885 364.163462 637.416346 366.807692 638.048077 369.451923 629.835577 372.096154 633.625962 374.740385 631.730769 377.384615 633.625962 380.028846 634.257692 382.673077 634.257692 385.317308 633.625962 387.961538 636.784615 390.605769 634.889423 393.250000 633.625962 395.894231 629.203846 398.538462 633.625962 401.182692 632.362500 403.826923 637.416346 406.471154 637.416346 409.115385 637.416346 411.759615 636.152885 414.403846 632.994231 417.048077 638.679808 419.692308 636.152885 422.336538 628.572115 424.980769 628.572115 427.625000 614.674038 430.269231 611.515385 432.913462 606.461538 435.557692 614.042308 438.201923 609.620192 440.846154 613.410577 443.490385 598.249038 446.134615 607.093269 448.778846 624.150000 451.423077 621.623077 454.067308 619.727885 456.711538 617.832692 459.355769 615.937500 462.000000 -2501.653846 464.644231 -850.309615 467.288462 -163.618269 469.932692 48.011538 472.576923 132.663462 475.221154 215.420192 477.865385 160.459615 480.509615 171.199038 483.153846 -41.062500 485.798077 -354.400962 488.442308 -670.266346 491.086538 -1029.089423 493.730769 -793.453846 496.375000 -622.254808 499.019231 -333.553846 501.663462 -216.051923 504.307692 -235.635577 506.951923 -185.728846 509.596154 -147.825000 512.240385 6.317308 514.884615 158.564423 517.528846 222.369231 520.173077 253.955769 522.817308 289.964423 525.461538 344.293269 528.105769 380.301923 530.750000 468.744231 533.394231 531.917308 536.038462 551.500962 538.682692 542.025000 541.326923 547.078846 543.971154 522.441346 546.615385 480.747115 549.259615 430.840385 551.903846 358.191346 554.548077 320.287500 557.192308 319.655769 559.836538 303.230769 562.480769 341.766346 565.125000 351.874038 567.769231 352.505769 570.413462 345.556731 573.057692 337.344231 575.701923 401.149038 578.346154 414.415385 580.990385 466.217308 583.634615 460.531731 586.278846 483.274038 588.923077 485.800962 591.567308 536.339423 594.211538 550.237500 596.855769 568.557692 599.500000 589.404808 602.144231 572.348077 604.788462 589.404808 607.432692 574.243269 610.076923 560.976923 612.721154 557.818269 615.365385 487.696154 618.009615 484.537500 620.653846 481.378846 623.298077 461.795192 625.942308 479.483654 628.586538 488.327885 631.230769 459.268269 633.875000 476.325000 636.519231 485.169231 639.163462 526.863462 641.807692 507.279808 644.451923 523.704808 647.096154 554.659615 649.740385 555.291346 652.384615 550.237500 655.028846 567.294231 657.673077 590.668269 660.317308 603.302885 662.961538 607.093269 665.605769 614.674038 668.250000 605.198077 670.894231 603.934615 673.538462 599.512500 676.182692 587.509615 678.826923 579.297115 681.471154 566.662500 684.115385 542.656731 686.759615 540.761538 689.403846 563.503846 692.048077 567.294231 694.692308 533.812500 697.336538 536.339423 699.980769 529.390385 702.625000 560.345192 705.269231 583.719231 707.913462 569.821154 710.557692 572.348077 713.201923 586.246154 715.846154 -11.371154 718.490385 293.123077 721.134615 421.364423 723.778846 502.225962 726.423077 554.027885 729.067308 564.135577 731.711538 582.455769 734.355769 571.084615 737.000000 553.396154 739.644231 540.129808 742.288462 539.498077 744.932692 526.863462 747.576923 543.288462 750.221154 512.965385 752.865385 536.971154 755.509615 553.396154 758.153846 526.863462 760.798077 548.342308 763.442308 545.815385 766.086538 547.078846 768.730769 567.294231 771.375000 557.186538 774.019231 571.084615 776.663462 550.869231 779.307692 576.138462 781.951923 581.824038 784.596154 605.198077 787.240385 597.617308 789.884615 615.937500 792.528846 615.305769 795.173077 621.623077 797.817308 619.096154 800.461538 618.464423 803.105769 614.042308 805.750000 601.407692 808.394231 598.880769 811.038462 575.506731 813.682692 579.297115 816.326923 578.665385 818.971154 598.249038 821.615385 581.192308 824.259615 591.931731 826.903846 595.090385 829.548077 580.560577 832.192308 587.509615 834.836538 583.087500 837.480769 602.039423 840.125000 596.985577 842.769231 590.036538 845.413462 598.249038 848.057692 612.147115 850.701923 608.988462 853.346154 609.620192 855.990385 596.353846 858.634615 600.775962 861.278846 591.931731 863.923077 570.452885 866.567308 534.444231 869.211538 487.064423 871.855769 452.950962 874.500000 423.259615 877.144231 408.098077 879.788462 488.327885 882.432692 492.118269 885.076923 466.849038 887.721154 465.585577 890.365385 473.798077 893.009615 495.276923 895.653846 543.288462 898.298077 549.605769 900.942308 550.869231 903.586538 545.815385 906.230769 567.925962" /></g></g><g class="titles"><text class="title plot_title" x="512.0" y="26">Election 6 Participation Per Hour</text><text class="title" transform="rotate(-90 0.000000 374.500000)" x="0" y="400.5">Users</text></g><g class="plot overlay" transform="translate(80, 46)"><g class="series serie-0 color-0" /><g class="series serie-1 color-1" /></g><g class="plot text-overlay" transform="translate(80, 46)"><g class="series serie-0 color-0" /><g class="series serie-1 color-1" /></g><g class="plot tooltip-overlay" transform="translate(80, 46)"><g class="tooltip" style="opacity: 0" transform="translate(0 0)"><a><rect class="tooltip-box" height="0" rx="0" ry="0" width="0" /><text class="text"><tspan class="label" /><tspan class="value" /></text></a></g></g><g class="legends" transform="translate(90, 713)"><g class="legend reactive activate-serie" id="activate-serie-0"><rect class="color-0 reactive" height="12" width="12" x="0.0" y="1.0" /><text x="17.0" y="11.2">constituents</text></g><g class="legend reactive activate-serie" id="activate-serie-1"><rect class="color-1 reactive" height="12" width="12" x="462.0" y="1.0" /><text x="479.0" y="11.2">caucus</text></g></g></g></svg>