<?xml version='1.0' encoding='utf-8'?>
<svg xmlns:xlink="http://www.w3.org/1999/xlink" class="pygal-chart" id="chart-0c0190b8-f574-46eb-8faf-5b7f749d38e4" viewBox="0 0 1024 768" xmlns="http://www.w3.org/2000/svg"><!--Generated with pygal 1.7.0 (etree) ©Kozea 2011-2014 on 2015-11-12--><!--http://pygal.org--><!--http://github.com/Kozea/pygal--><defs><style type="text/css">#chart-0c0190b8-f574-46eb-8faf-5b7f749d38e4 .title{font-family:"monospace";font-size:16px}#chart-0c0190b8-f574-46eb-8faf-5b7f749d38e4 .legends .legend text{font-family:"monospace";font-size:14px}#chart-0c0190b8-f574-46eb-8faf-5b7f749d38e4 .axis text{font-family:"monospace";font-size:10px}#chart-0c0190b8-f574-46eb-8faf-5b7f749d38e4 .axis text.major{font-family:"monospace";font-size:10px}#chart-0c0190b8-f574-46eb-8faf-5b7f749d38e4 .series text{font-family:"monospace";font-size:8px}#chart-0c0190b8-f574-46eb-8faf-5b7f749d38e4 .tooltip text{font-family:"monospace";font-size:16px}#chart-0c0190b8-f574-46eb-8faf-5b7f749d38e4 text.no_data{font-size:64px}
#chart-0c0190b8-f574-46eb-8faf-5b7f749d38e4{background-color:black}#chart-0c0190b8-f574-46eb-8faf-5b7f749d38e4 path,#chart-0c0190b8-f574-46eb-8faf-5b7f749d38e4 line,#chart-0c0190b8-f574-46eb-8faf-5b7f749d38e4 rect,#chart-0c0190b8-f574-46eb-8faf-5b7f749d38e4 circle{-webkit-transition:250ms;-moz-transition:250ms;transition:250ms}#chart-0c0190b8-f574-46eb-8faf-5b7f749d38e4 .graph &gt; .background{fill:black}#chart-0c0190b8-f574-46eb-8faf-5b7f749d38e4 .plot &gt; .background{fill:#111}#chart-0c0190b8-f574-46eb-8faf-5b7f749d38e4 .graph{fill:#999}#chart-0c0190b8-f574-46eb-8faf-5b7f749d38e4 text.no_data{fill:#eee}#chart-0c0190b8-f574-46eb-8faf-5b7f749d38e4 .title{fill:#eee}#chart-0c0190b8-f574-46eb-8faf-5b7f749d38e4 .legends .legend text{fill:#999}#chart-0c0190b8-f574-46eb-8faf-5b7f749d38e4 .legends .legend:hover text{fill:#eee}#chart-0c0190b8-f574-46eb-8faf-5b7f749d38e4 .axis .line{stroke:#eee}#chart-0c0190b8-f574-46eb-8faf-5b7f749d38e4 .axis .guide.line{stroke:#555}#chart-0c0190b8-f574-46eb-8faf-5b7f749d38e4 .axis .major.line{stroke:#999}#chart-0c0190b8-f574-46eb-8faf-5b7f749d38e4 .axis text.major{stroke:#eee;fill:#eee}#chart-0c0190b8-f574-46eb-8faf-5b7f749d38e4 .axis.y .guides:hover .guide.line,#chart-0c0190b8-f574-46eb-8faf-5b7f749d38e4 .line-graph .axis.x .guides:hover .guide.line,#chart-0c0190b8-f574-46eb-8faf-5b7f749d38e4 .stackedline-graph .axis.x .guides:hover .guide.line,#chart-0c0190b8-f574-46eb-8faf-5b7f749d38e4 .xy-graph .axis.x .guides:hover .guide.line{stroke:#eee}#chart-0c0190b8-f574-46eb-8faf-5b7f749d38e4 .axis .guides:hover text{fill:#eee}#chart-0c0190b8-f574-46eb-8faf-5b7f749d38e4 .reactive{fill-opacity:.8}#chart-0c0190b8-f574-46eb-8faf-5b7f749d38e4 .reactive.active,#chart-0c0190b8-f574-46eb-8faf-5b7f749d38e4 .active .reactive{fill-opacity:.4}#chart-0c0190b8-f574-46eb-8faf-5b7f749d38e4 .series{stroke-width:1.0;stroke-linejoin:round;stroke-linecap:round;stroke-dasharray:0,0}#chart-0c0190b8-f574-46eb-8faf-5b7f749d38e4 .series text{fill:#eee}#chart-0c0190b8-f574-46eb-8faf-5b7f749d38e4 .tooltip rect{fill:#111;stroke:#eee}#chart-0c0190b8-f574-46eb-8faf-5b7f749d38e4 .tooltip text{fill:#eee}#chart-0c0190b8-f574-46eb-8faf-5b7f749d38e4 .map-element{fill:#999;stroke:#555 !important;opacity:.9;stroke-width:3;-webkit-transition:250ms;-moz-transition:250ms;-o-transition:250ms;transition:250ms}#chart-0c0190b8-f574-46eb-8faf-5b7f749d38e4 .map-element:hover{opacity:1;stroke-width:10}#chart-0c0190b8-f574-46eb-8faf-5b7f749d38e4 .color-0,#chart-0c0190b8-f574-46eb-8faf-5b7f749d38e4 .color-0 a:visited{stroke:#ff5995;fill:#ff5995}#chart-0c0190b8-f574-46eb-8faf-5b7f749d38e4 .color-1,#chart-0c0190b8-f574-46eb-8faf-5b7f749d38e4 .color-1 a:visited{stroke:#b6e354;fill:#b6e354}#chart-0c0190b8-f574-46eb-8faf-5b7f749d38e4 .color-2,#chart-0c0190b8-f574-46eb-8faf-5b7f749d38e4 .color-2 a:visited{stroke:#feed6c;fill:#feed6c}#chart-0c0190b8-f574-46eb-8faf-5b7f749d38e4 .color-3,#chart-0c0190b8-f574-46eb-8faf-5b7f749d38e4 .color-3 a:visited{stroke:#8cedff;fill:#8cedff}#chart-0c0190b8-f574-46eb-8faf-5b7f749d38e4 .color-4,#chart-0c0190b8-f574-46eb-8faf-5b7f749d38e4 .color-4 a:visited{stroke:#9e6ffe;fill:#9e6ffe}#chart-0c0190b8-f574-46eb-8faf-5b7f749d38e4 .color-5,#chart-0c0190b8-f574-46eb-8faf-5b7f749d38e4 .color-5 a:visited{stroke:#899ca1;fill:#899ca1}#chart-0c0190b8-f574-46eb-8faf-5b7f749d38e4 .color-6,#chart-0c0190b8-f574-46eb-8faf-5b7f749d38e4 .color-6 a:visited{stroke:#f8f8f2;fill:#f8f8f2}#chart-0c0190b8-f574-46eb-8faf-5b7f749d38e4 .color-7,#chart-0c0190b8-f574-46eb-8faf-5b7f749d38e4 .color-7 a:visited{stroke:#bf4646;fill:#bf4646}#chart-0c0190b8-f574-46eb-8faf-5b7f749d38e4 .color-8,#chart-0c0190b8-f574-46eb-8faf-5b7f749d38e4 .color-8 a:visited{stroke:#516083;fill:#516083}#chart-0c0190b8-f574-46eb-8faf-5b7f749d38e4 .color-9,#chart-0c0190b8-f574-46eb-8faf-5b7f749d38e4 .color-9 a:visited{stroke:#f92672;fill:#f92672}#chart-0c0190b8-f574-46eb-8faf-5b7f749d38e4 .color-10,#chart-0c0190b8-f574-46eb-8faf-5b7f749d38e4 .color-10 a:visited{stroke:#82b414;fill:#82b414}#chart-0c0190b8-f574-46eb-8faf-5b7f749d38e4 .color-11,#chart-0c0190b8-f574-46eb-8faf-5b7f749d38e4 .color-11 a:visited{stroke:#fd971f;fill:#fd971f}#chart-0c0190b8-f574-46eb-8faf-5b7f749d38e4 .color-12,#chart-0c0190b8-f574-46eb-8faf-5b7f749d38e4 .color-12 a:visited{stroke:#56c2d6;fill:#56c2d6}#chart-0c0190b8-f574-46eb-8faf-5b7f749d38e4 .color-13,#chart-0c0190b8-f574-46eb-8faf-5b7f749d38e4 .color-13 a:visited{stroke:#808384;fill:#808384}#chart-0c0190b8-f574-46eb-8faf-5b7f749d38e4 .color-14,#chart-0c0190b8-f574-46eb-8faf-5b7f749d38e4 .color-14 a:visited{stroke:#8c54fe;fill:#8c54fe}#chart-0c0190b8-f574-46eb-8faf-5b7f749d38e4 .color-15,#chart-0c0190b8-f574-46eb-8faf-5b7f749d38e4 .color-15 a:visited{stroke:#465457;fill:#465457}
#chart-0c0190b8-f574-46eb-8faf-5b7f749d38e4 text.no_data{text-anchor:middle}#chart-0c0190b8-f574-46eb-8faf-5b7f749d38e4 .guide.line{fill-opacity:0}#chart-0c0190b8-f574-46eb-8faf-5b7f749d38e4 .centered{text-anchor:middle}#chart-0c0190b8-f574-46eb-8faf-5b7f749d38e4 .title{text-anchor:middle}#chart-0c0190b8-f574-46eb-8faf-5b7f749d38e4 .legends .legend text{fill-opacity:1}#chart-0c0190b8-f574-46eb-8faf-5b7f749d38e4 .axis.x text{text-anchor:middle}#chart-0c0190b8-f574-46eb-8faf-5b7f749d38e4 .axis.x:not(.web) text[transform]{text-anchor:start}#chart-0c0190b8-f574-46eb-8faf-5b7f749d38e4 .axis.y text{text-anchor:end}#chart-0c0190b8-f574-46eb-8faf-5b7f749d38e4 .axis.y2 text{text-anchor:start}#chart-0c0190b8-f574-46eb-8faf-5b7f749d38e4 .axis.y .logarithmic text:not(.major),#chart-0c0190b8-f574-46eb-8faf-5b7f749d38e4 .axis.y2 .logarithmic text:not(.major){font-size:50%}#chart-0c0190b8-f574-46eb-8faf-5b7f749d38e4 .axis .guide.line{stroke-dasharray:4,4}#chart-0c0190b8-f574-46eb-8faf-5b7f749d38e4 .axis .major.guide.line{stroke-dasharray:6,6}#chart-0c0190b8-f574-46eb-8faf-5b7f749d38e4 .axis text.major{stroke-width:0.5px}#chart-0c0190b8-f574-46eb-8faf-5b7f749d38e4 .horizontal .axis.y .guide.line,#chart-0c0190b8-f574-46eb-8faf-5b7f749d38e4 .horizontal .axis.y2 .guide.line,#chart-0c0190b8-f574-46eb-8faf-5b7f749d38e4 .vertical .axis.x .guide.line{opacity:0}#chart-0c0190b8-f574-46eb-8faf-5b7f749d38e4 .horizontal .axis.always_show .guide.line,#chart-0c0190b8-f574-46eb-8faf-5b7f749d38e4 .vertical .axis.always_show .guide.line{opacity:1 !important}#chart-0c0190b8-f574-46eb-8faf-5b7f749d38e4 .axis.y .guides:hover .guide.line,#chart-0c0190b8-f574-46eb-8faf-5b7f749d38e4 .axis.y2 .guides:hover .guide.line,#chart-0c0190b8-f574-46eb-8faf-5b7f749d38e4 .axis.x .guides:hover .guide.line{opacity:1}#chart-0c0190b8-f574-46eb-8faf-5b7f749d38e4 .axis .guides:hover text{opacity:1}#chart-0c0190b8-f574-46eb-8faf-5b7f749d38e4 .nofill{fill:none}#chart-0c0190b8-f574-46eb-8faf-5b7f749d38e4 .subtle-fill{fill-opacity:.2}#chart-0c0190b8-f574-46eb-8faf-5b7f749d38e4 .dot{stroke-width:1px;fill-opacity:1}#chart-0c0190b8-f574-46eb-8faf-5b7f749d38e4 .dot.active{stroke-width:5px}#chart-0c0190b8-f574-46eb-8faf-5b7f749d38e4 .series text{stroke:none}#chart-0c0190b8-f574-46eb-8faf-5b7f749d38e4 .series text.active{opacity:1}#chart-0c0190b8-f574-46eb-8faf-5b7f749d38e4 .tooltip rect{fill-opacity:0.8}#chart-0c0190b8-f574-46eb-8faf-5b7f749d38e4 .tooltip text{fill-opacity:1}#chart-0c0190b8-f574-46eb-8faf-5b7f749d38e4 .tooltip text tspan.label{fill-opacity:.8}</style><script type="text/javascript">window.config = {"width": 1024, "margin_top": null, "x_labels_major_count": null, "stroke": true, "y_labels": null, "x_title": null, "show_legend": true, "height": 768, "legend_box_size": 12, "margin": 20, "zero": 0, "include_x_axis": false, "truncate_legend": null, "stack_from_top": false, "pretty_print": false, "css": ["style.css", "graph.css"], "human_readable": false, "print_zeroes": false, "range": null, "mode": null, "disable_xml_declaration": false, "y_labels_major_count": null, "style": {"stroke_width": 1.0, "transition": "250ms", "plot_background": "#111", "foreground_light": "#eee", "foreground_dark": "#555", "opacity_hover": ".4", "background": "black", "opacity": ".8", "stroke_style": "round", "foreground": "#999", "colors": ["#ff5995", "#b6e354", "#feed6c", "#8cedff", "#9e6ffe", "#899ca1", "#f8f8f2", "#bf4646", "#516083", "#f92672", "#82b414", "#fd971f", "#56c2d6", "#808384", "#8c54fe", "#465457"], "stroke_dasharray": "0,0", "font_family": "monospace"}, "title": "Election 7 Participation", "x_labels": null, "interpolation_parameters": {}, "legend_at_bottom_columns": null, "tooltip_font_size": 16, "y_label_rotation": 0, "major_label_font_size": 10, "show_minor_y_labels": true, "y_title": "Users", "show_minor_x_labels": true, "rounded_bars": null, "x_value_formatter": null, "no_data_font_size": 64, "missing_value_fill_truncation": "x", "show_x_guides": false, "x_labels_major_every": null, "inner_radius": 0, "no_data_text": "No data", "x_label_rotation": 0, "xrange": null, "margin_right": null, "half_pie": false, "x_label_format": "%Y-%m-%d %H:%M:%S.%f", "dots_size": 2.5, "value_font_size": 8, "truncate_label": null, "title_font_size": 16, "tooltip_border_radius": 0, "explicit_size": false, "legend_font_size": 14, "show_x_labels": true, "y_labels_major": null, "show_only_major_dots": false, "margin_left": null, "show_dots": false, "label_font_size": 10, "order_min": null, "x_labels_major": null, "strict": false, "js": ["http://kozea.github.io/pygal.js/javascripts/svg.jquery.js", "http://kozea.github.io/pygal.js/javascripts/pygal-tooltips.js"], "interpolation_precision": 250, "logarithmic": false, "y_labels_major_every": null, "show_y_labels": true, "legend_at_bottom": true, "fill": false, "no_prefix": false, "interpolate": null, "print_values": false, "spacing": 10, "show_y_guides": true, "margin_bottom": null}</script><script type="text/javascript" xlink:href="http://kozea.github.io/pygal.js/javascripts/svg.jquery.js" /><script type="text/javascript" xlink:href="http://kozea.github.io/pygal.js/javascripts/pygal-tooltips.js" /></defs><title>Election 7 Participation</title><g class="graph line-graph vertical"><rect class="background" height="768" width="1024" x="0" y="0" /><g class="plot" transform="translate(86, 46)"><rect class="background" height="657.0" width="918.0" x="0" y="0" /><g class="axis y"><g class="guides"><path class="axis major line" d="M0.000000 644.365385 h918.000000" /><text class="major" x="-5" y="647.8653846153846">0</text></g><g class="guides"><path class="guide line" d="M0.000000 591.743080 h918.000000" /><text class="" x="-5" y="595.2430798064909">1000</text></g><g class="guides"><path class="guide line" d="M0.000000 539.120775 h918.000000" /><text class="" x="-5" y="542.6207749975972">2000</text></g><g class="guides"><path class="guide line" d="M0.000000 486.498470 h918.000000" /><text class="" x="-5" y="489.99847018870344">3000</text></g><g class="guides"><path class="guide line" d="M0.000000 433.876165 h918.000000" /><text class="" x="-5" y="437.37616537980966">4000</text></g><g class="guides"><path class="major guide line" d="M0.000000 381.253861 h918.000000" /><text class="major" x="-5" y="384.75386057091595">5000</text></g><g class="guides"><path class="guide line" d="M0.000000 328.631556 h918.000000" /><text class="" x="-5" y="332.13155576202223">6000</text></g><g class="guides"><path class="guide line" d="M0.000000 276.009251 h918.000000" /><text class="" x="-5" y="279.5092509531285">7000</text></g><g class="guides"><path class="guide line" d="M0.000000 223.386946 h918.000000" /><text class="" x="-5" y="226.8869461442348">8000</text></g><g class="guides"><path class="guide line" d="M0.000000 170.764641 h918.000000" /><text class="" x="-5" y="174.26464133534108">9000</text></g><g class="guides"><path class="major guide line" d="M0.000000 118.142337 h918.000000" /><text class="major" x="-5" y="121.64233652644737">10000</text></g><g class="guides"><path class="guide line" d="M0.000000 65.520032 h918.000000" /><text class="" x="-5" y="69.0200317175536">11000</text></g><g class="guides"><path class="guide line" d="M0.000000 12.897727 h918.000000" /><text class="" x="-5" y="16.39772690865982">12000</text></g></g><g class="series serie-0 color-0"><path class="line reactive nofill" d="M17.653846 644.365385 L20.105769 644.365385 22.557692 644.365385 25.009615 644.365385 27.461538 644.365385 29.913462 644.365385 32.365385 644.365385 34.817308 644.365385 37.269231 644.365385 39.721154 644.365385 42.173077 644.365385 44.625000 644.365385 47.076923 644.365385 49.528846 644.365385 51.980769 644.365385 54.432692 644.365385 56.884615 644.365385 59.336538 644.365385 61.788462 644.365385 64.240385 644.365385 66.692308 644.365385 69.144231 644.365385 71.596154 644.365385 74.048077 644.365385 76.500000 644.365385 78.951923 644.365385 81.403846 644.365385 83.855769 644.365385 86.307692 644.365385 88.759615 644.365385 91.211538 644.365385 93.663462 644.365385 96.115385 644.365385 98.567308 644.365385 101.019231 644.365385 103.471154 644.365385 105.923077 644.365385 108.375000 644.365385 110.826923 644.365385 113.278846 644.365385 115.730769 644.365385 118.182692 644.365385 120.634615 644.365385 123.086538 644.365385 125.538462 644.365385 127.990385 644.365385 130.442308 644.365385 132.894231 644.365385 135.346154 644.365385 137.798077 644.365385 140.250000 644.365385 142.701923 644.365385 145.153846 644.365385 147.605769 644.365385 150.057692 644.365385 152.509615 644.365385 154.961538 644.365385 157.413462 644.365385 159.865385 644.365385 162.317308 644.365385 164.769231 644.365385 167.221154 644.365385 169.673077 644.365385 172.125000 644.365385 174.576923 644.365385 177.028846 644.365385 179.480769 644.365385 181.932692 644.365385 184.384615 644.365385 186.836538 644.365385 189.288462 644.365385 191.740385 644.365385 194.192308 644.365385 196.644231 644.365385 199.096154 644.365385 201.548077 644.365385 204.000000 644.365385 206.451923 644.365385 208.903846 644.365385 211.355769 644.365385 213.807692 644.365385 216.259615 644.365385 218.711538 644.365385 221.163462 644.365385 223.615385 644.365385 226.067308 644.365385 228.519231 644.365385 230.971154 644.365385 233.423077 644.365385 235.875000 644.365385 238.326923 644.365385 240.778846 644.365385 243.230769 644.365385 245.682692 644.365385 248.134615 644.365385 250.586538 644.365385 253.038462 644.365385 255.490385 644.365385 257.942308 644.365385 260.394231 644.365385 262.846154 644.365385 265.298077 644.365385 267.750000 644.365385 270.201923 644.365385 272.653846 644.365385 275.105769 644.365385 277.557692 644.365385 280.009615 644.365385 282.461538 644.365385 284.913462 644.365385 287.365385 644.365385 289.817308 644.365385 292.269231 644.365385 294.721154 644.365385 297.173077 644.365385 299.625000 644.365385 302.076923 644.365385 304.528846 644.365385 306.980769 644.365385 309.432692 644.365385 311.884615 644.365385 314.336538 644.365385 316.788462 644.365385 319.240385 644.365385 321.692308 644.365385 324.144231 644.365385 326.596154 644.365385 329.048077 644.365385 331.500000 644.365385 333.951923 644.365385 336.403846 644.365385 338.855769 644.365385 341.307692 644.365385 343.759615 644.365385 346.211538 644.365385 348.663462 644.365385 351.115385 644.365385 353.567308 644.365385 356.019231 644.365385 358.471154 644.365385 360.923077 644.365385 363.375000 644.365385 365.826923 644.365385 368.278846 644.365385 370.730769 644.365385 373.182692 644.365385 375.634615 644.365385 378.086538 644.365385 380.538462 644.365385 382.990385 644.365385 385.442308 644.365385 387.894231 644.365385 390.346154 644.365385 392.798077 644.365385 395.250000 644.365385 397.701923 644.365385 400.153846 644.365385 402.605769 644.365385 405.057692 644.365385 407.509615 644.365385 409.961538 644.365385 412.413462 644.365385 414.865385 644.365385 417.317308 644.365385 419.769231 644.365385 422.221154 644.365385 424.673077 644.365385 427.125000 644.365385 429.576923 644.365385 432.028846 644.365385 434.480769 644.365385 436.932692 644.365385 439.384615 644.365385 441.836538 644.365385 444.288462 644.365385 446.740385 644.365385 449.192308 644.365385 451.644231 644.365385 454.096154 644.365385 456.548077 644.365385 459.000000 644.365385 461.451923 644.365385 463.903846 644.365385 466.355769 644.365385 468.807692 644.365385 471.259615 644.365385 473.711538 644.365385 476.163462 644.365385 478.615385 644.365385 481.067308 644.365385 483.519231 644.365385 485.971154 644.365385 488.423077 644.365385 490.875000 644.365385 493.326923 644.365385 495.778846 644.365385 498.230769 644.365385 500.682692 644.365385 503.134615 644.365385 505.586538 644.365385 508.038462 644.365385 510.490385 644.365385 512.942308 644.365385 515.394231 644.365385 517.846154 644.365385 520.298077 644.365385 522.750000 644.365385 525.201923 644.365385 527.653846 644.365385 530.105769 644.365385 532.557692 644.365385 535.009615 644.365385 537.461538 644.365385 539.913462 644.365385 542.365385 644.365385 544.817308 644.365385 547.269231 644.365385 549.721154 644.365385 552.173077 644.365385 554.625000 644.365385 557.076923 644.365385 559.528846 644.365385 561.980769 644.365385 564.432692 644.365385 566.884615 644.365385 569.336538 644.365385 571.788462 644.365385 574.240385 644.365385 576.692308 644.365385 579.144231 644.365385 581.596154 644.365385 584.048077 644.365385 586.500000 644.365385 588.951923 644.365385 591.403846 644.365385 593.855769 644.365385 596.307692 644.365385 598.759615 644.365385 601.211538 644.365385 603.663462 644.365385 606.115385 644.365385 608.567308 644.365385 611.019231 644.365385 613.471154 644.365385 615.923077 644.365385 618.375000 644.365385 620.826923 644.365385 623.278846 644.365385 625.730769 644.365385 628.182692 644.365385 630.634615 644.365385 633.086538 644.365385 635.538462 644.365385 637.990385 644.365385 640.442308 644.365385 642.894231 644.365385 645.346154 644.365385 647.798077 644.365385 650.250000 644.365385 652.701923 644.365385 655.153846 644.365385 657.605769 644.365385 660.057692 644.365385 662.509615 644.365385 664.961538 644.365385 667.413462 644.365385 669.865385 644.365385 672.317308 644.365385 674.769231 644.365385 677.221154 644.365385 679.673077 644.365385 682.125000 644.365385 684.576923 644.365385 687.028846 644.365385 689.480769 644.365385 691.932692 644.365385 694.384615 644.365385 696.836538 644.365385 699.288462 644.365385 701.740385 644.365385 704.192308 644.365385 706.644231 644.365385 709.096154 644.365385 711.548077 644.365385 714.000000 644.365385 716.451923 644.365385 718.903846 644.365385 721.355769 644.365385 723.807692 644.365385 726.259615 644.365385 728.711538 644.365385 731.163462 644.365385 733.615385 644.365385 736.067308 644.365385 738.519231 644.365385 740.971154 644.365385 743.423077 644.365385 745.875000 644.365385 748.326923 644.365385 750.778846 644.365385 753.230769 644.365385 755.682692 644.365385 758.134615 644.365385 760.586538 644.365385 763.038462 644.365385 765.490385 644.365385 767.942308 644.365385 770.394231 644.365385 772.846154 644.365385 775.298077 644.365385 777.750000 644.365385 780.201923 644.365385 782.653846 644.365385 785.105769 644.365385 787.557692 644.365385 790.009615 644.365385 792.461538 644.365385 794.913462 644.365385 797.365385 644.365385 799.817308 644.365385 802.269231 644.365385 804.721154 644.365385 807.173077 644.365385 809.625000 644.365385 812.076923 644.365385 814.528846 644.365385 816.980769 644.365385 819.432692 644.365385 821.884615 644.365385 824.336538 644.365385 826.788462 644.365385 829.240385 644.365385 831.692308 644.365385 834.144231 644.365385 836.596154 644.365385 839.048077 644.365385 841.500000 644.365385 843.951923 644.365385 846.403846 644.365385 848.855769 644.365385 851.307692 644.365385 853.759615 644.365385 856.211538 644.365385 858.663462 644.365385 861.115385 644.365385 863.567308 644.365385 866.019231 644.365385 868.471154 644.365385 870.923077 644.365385 873.375000 644.365385 875.826923 644.365385 878.278846 644.365385 880.730769 644.365385 883.182692 644.365385 885.634615 644.365385 888.086538 644.365385 890.538462 644.365385 892.990385 644.365385 895.442308 644.365385 897.894231 644.365385 900.346154 644.365385" /></g><g class="series serie-1 color-1"><path class="line reactive nofill" d="M17.653846 537.015883 L20.105769 488.077139 22.557692 459.976829 25.009615 443.558669 27.461538 431.139806 29.913462 420.773211 32.365385 411.774797 34.817308 400.355757 37.269231 390.778498 39.721154 376.149497 42.173077 358.678892 44.625000 339.576995 47.076923 314.791890 49.528846 288.691226 51.980769 270.536531 54.432692 258.433401 56.884615 246.540760 59.336538 234.648119 61.788462 221.492543 64.240385 210.020881 66.692308 199.654287 69.144231 192.497653 71.596154 186.340844 74.048077 180.026167 76.500000 173.921980 78.951923 168.870238 81.403846 163.923742 83.855769 161.450493 86.307692 159.240357 88.759615 156.872353 91.211538 154.767461 93.663462 152.241590 96.115385 149.978831 98.567308 147.084604 101.019231 144.400867 103.471154 140.454194 105.923077 134.981474 108.375000 129.877110 110.826923 125.719948 113.278846 122.141632 115.730769 117.037268 118.182692 112.038149 120.634615 108.091476 123.086538 102.987113 125.538462 99.619285 127.990385 95.514745 130.442308 92.462652 132.894231 89.463180 135.346154 85.990108 137.798077 82.674903 140.250000 79.780676 142.701923 78.096763 145.153846 76.833827 147.605769 75.623514 150.057692 74.465824 152.509615 73.150266 154.961538 71.992575 157.413462 70.150795 159.865385 67.467057 162.317308 65.099053 164.769231 61.994337 167.221154 57.679308 169.673077 54.469348 172.125000 50.891031 174.576923 47.154847 177.028846 43.366041 179.480769 39.840347 181.932692 36.630386 184.384615 33.262559 186.836538 30.263087 189.288462 27.947706 191.740385 25.211346 194.192308 22.790720 196.644231 20.633206 199.096154 18.212580 201.548077 16.476044 204.000000 15.160486 206.451923 14.055418 208.903846 13.108216 211.355769 12.634615 213.807692 12.634615 216.259615 12.634615 218.711538 12.634615 221.163462 12.634615 223.615385 12.634615 226.067308 12.634615 228.519231 12.634615 230.971154 12.634615 233.423077 12.634615 235.875000 12.634615 238.326923 12.634615 240.778846 12.634615 243.230769 12.634615 245.682692 12.634615 248.134615 12.634615 250.586538 12.634615 253.038462 12.634615 255.490385 12.634615 257.942308 12.634615 260.394231 12.634615 262.846154 12.634615 265.298077 12.634615 267.750000 12.634615 270.201923 12.634615 272.653846 12.634615 275.105769 12.634615 277.557692 12.634615 280.009615 12.634615 282.461538 12.634615 284.913462 12.634615 287.365385 12.634615 289.817308 12.634615 292.269231 12.634615 294.721154 12.634615 297.173077 12.634615 299.625000 12.634615 302.076923 12.634615 304.528846 12.634615 306.980769 12.634615 309.432692 12.634615 311.884615 12.634615 314.336538 12.634615 316.788462 12.634615 319.240385 12.634615 321.692308 12.634615 324.144231 12.634615 326.596154 12.634615 329.048077 12.634615 331.500000 12.634615 333.951923 12.634615 336.403846 12.634615 338.855769 12.634615 341.307692 12.634615 343.759615 12.634615 346.211538 12.634615 348.663462 12.634615 351.115385 12.634615 353.567308 12.634615 356.019231 12.634615 358.471154 12.634615 360.923077 12.634615 363.375000 12.634615 365.826923 12.634615 368.278846 12.634615 370.730769 12.634615 373.182692 12.634615 375.634615 12.634615 378.086538 12.634615 380.538462 12.634615 382.990385 12.634615 385.442308 12.634615 387.894231 12.634615 390.346154 12.634615 392.798077 12.634615 395.250000 12.634615 397.701923 12.634615 400.153846 12.634615 402.605769 12.634615 405.057692 12.634615 407.509615 12.634615 409.961538 12.634615 412.413462 12.634615 414.865385 12.634615 417.317308 12.634615 419.769231 12.634615 422.221154 12.634615 424.673077 12.634615 427.125000 12.634615 429.576923 12.634615 432.028846 12.634615 434.480769 12.634615 436.932692 12.634615 439.384615 12.634615 441.836538 12.634615 444.288462 12.634615 446.740385 12.634615 449.192308 12.634615 451.644231 12.634615 454.096154 12.634615 456.548077 12.634615 459.000000 12.634615 461.451923 12.634615 463.903846 12.634615 466.355769 12.634615 468.807692 12.634615 471.259615 12.634615 473.711538 12.634615 476.163462 12.634615 478.615385 12.634615 481.067308 12.634615 483.519231 12.634615 485.971154 12.634615 488.423077 12.634615 490.875000 12.634615 493.326923 12.634615 495.778846 12.634615 498.230769 12.634615 500.682692 12.634615 503.134615 12.634615 505.586538 12.634615 508.038462 12.634615 510.490385 12.634615 512.942308 12.634615 515.394231 12.634615 517.846154 12.634615 520.298077 12.634615 522.750000 12.634615 525.201923 12.634615 527.653846 12.634615 530.105769 12.634615 532.557692 12.634615 535.009615 12.634615 537.461538 12.634615 539.913462 12.634615 542.365385 12.634615 544.817308 12.634615 547.269231 12.634615 549.721154 12.634615 552.173077 12.634615 554.625000 12.634615 557.076923 12.634615 559.528846 12.634615 561.980769 12.634615 564.432692 12.634615 566.884615 12.634615 569.336538 12.634615 571.788462 12.634615 574.240385 12.634615 576.692308 12.634615 579.144231 12.634615 581.596154 12.634615 584.048077 12.634615 586.500000 12.634615 588.951923 12.634615 591.403846 12.634615 593.855769 12.634615 596.307692 12.634615 598.759615 12.634615 601.211538 12.634615 603.663462 12.634615 606.115385 12.634615 608.567308 12.634615 611.019231 12.634615 613.471154 12.634615 615.923077 12.634615 618.375000 12.634615 620.826923 12.634615 623.278846 12.634615 625.730769 12.634615 628.182692 12.634615 630.634615 12.634615 633.086538 12.634615 635.538462 12.634615 637.990385 12.634615 640.442308 12.634615 642.894231 12.634615 645.346154 12.634615 647.798077 12.634615 650.250000 12.634615 652.701923 12.634615 655.153846 12.634615 657.605769 12.634615 660.057692 12.634615 662.509615 12.634615 664.961538 12.634615 667.413462 12.634615 669.865385 12.634615 672.317308 12.634615 674.769231 12.634615 677.221154 12.634615 679.673077 12.634615 682.125000 12.634615 684.576923 12.634615 687.028846 12.634615 689.480769 12.634615 691.932692 12.634615 694.384615 12.634615 696.836538 12.634615 699.288462 12.634615 701.740385 12.634615 704.192308 12.634615 706.644231 12.634615 709.096154 12.634615 711.548077 12.634615 714.000000 12.634615 716.451923 12.634615 718.903846 12.634615 721.355769 12.634615 723.807692 12.634615 726.259615 12.634615 728.711538 12.634615 731.163462 12.634615 733.615385 12.634615 736.067308 12.634615 738.519231 12.634615 740.971154 12.634615 743.423077 12.634615 745.875000 12.634615 748.326923 12.634615 750.778846 12.634615 753.230769 12.634615 755.682692 12.634615 758.134615 12.634615 760.586538 12.634615 763.038462 12.634615 765.490385 12.634615 767.942308 12.634615 770.394231 12.634615 772.846154 12.634615 775.298077 12.634615 777.750000 12.634615 780.201923 12.634615 782.653846 12.634615 785.105769 12.634615 787.557692 12.634615 790.009615 12.634615 792.461538 12.634615 794.913462 12.634615 797.365385 12.634615 799.817308 12.634615 802.269231 12.634615 804.721154 12.634615 807.173077 12.634615 809.625000 12.634615 812.076923 12.634615 814.528846 12.634615 816.980769 12.634615 819.432692 12.634615 821.884615 12.634615 824.336538 12.634615 826.788462 12.634615 829.240385 12.634615 831.692308 12.634615 834.144231 12.634615 836.596154 12.634615 839.048077 12.634615 841.500000 12.634615 843.951923 12.634615 846.403846 12.634615 848.855769 12.634615 851.307692 12.634615 853.759615 12.634615 856.211538 12.634615 858.663462 12.634615 861.115385 12.634615 863.567308 12.634615 866.019231 12.634615 868.471154 12.634615 870.923077 12.634615 873.375000 12.634615 875.826923 12.634615 878.278846 12.634615 880.730769 12.634615 883.182692 12.634615 885.634615 12.634615 888.086538 12.634615 890.538462 12.634615 892.990385 12.634615 895.442308 12.634615 897.894231 12.634615 900.346154 12.634615" /></g></g><g class="titles"><text class="title plot_title" x="512.0" y="26">Election 7 Participation</text><text class="title" transform="rotate(-90 0.000000 374.500000)" x="0" y="400.5">Users</text></g><g class="plot overlay" transform="translate(86, 46)"><g class="series serie-0 color-0" /><g class="series serie-1 color-1" /></g><g class="plot text-overlay" transform="translate(86, 46)"><g class="series serie-0 color-0" /><g class="series serie-1 color-1" /></g><g class="plot tooltip-overlay" transform="translate(86, 46)"><g class="tooltip" style="opacity: 0" transform="translate(0 0)"><a><rect class="tooltip-box" height="0" rx="0" ry="0" width="0" /><text class="text"><tspan class="label" /><tspan class="value" /></text></a></g></g><g class="legends" transform="translate(96, 713)"><g class="legend reactive activate-serie" id="activate-serie-0"><rect class="color-0 reactive" height="12" width="12" x="0.0" y="1.0" /><text x="17.0" y="11.2">constituents</text></g><g class="legend reactive activate-serie" id="activate-serie-1"><rect class="color-1 reactive" height="12" width="12" x="459.0" y="1.0" /><text x="476.0" y="11.2">caucus</text></g></g></g></svg>