<?xml version='1.0' encoding='utf-8'?>
<svg xmlns:xlink="http://www.w3.org/1999/xlink" class="pygal-chart" id="chart-76c88b12-3ecf-470e-88e0-db38afd26075" viewBox="0 0 1024 768" xmlns="http://www.w3.org/2000/svg"><!--Generated with pygal 1.7.0 (etree) ©Kozea 2011-2014 on 2018-03-27--><!--http://pygal.org--><!--http://github.com/Kozea/pygal--><defs><style type="text/css">#chart-76c88b12-3ecf-470e-88e0-db38afd26075 .title{font-family:"monospace";font-size:16px}#chart-76c88b12-3ecf-470e-88e0-db38afd26075 .legends .legend text{font-family:"monospace";font-size:14px}#chart-76c88b12-3ecf-470e-88e0-db38afd26075 .axis text{font-family:"monospace";font-size:10px}#chart-76c88b12-3ecf-470e-88e0-db38afd26075 .axis text.major{font-family:"monospace";font-size:10px}#chart-76c88b12-3ecf-470e-88e0-db38afd26075 .series text{font-family:"monospace";font-size:8px}#chart-76c88b12-3ecf-470e-88e0-db38afd26075 .tooltip text{font-family:"monospace";font-size:16px}#chart-76c88b12-3ecf-470e-88e0-db38afd26075 text.no_data{font-size:64px}
#chart-76c88b12-3ecf-470e-88e0-db38afd26075{background-color:black}#chart-76c88b12-3ecf-470e-88e0-db38afd26075 path,#chart-76c88b12-3ecf-470e-88e0-db38afd26075 line,#chart-76c88b12-3ecf-470e-88e0-db38afd26075 rect,#chart-76c88b12-3ecf-470e-88e0-db38afd26075 circle{-webkit-transition:250ms;-moz-transition:250ms;transition:250ms}#chart-76c88b12-3ecf-470e-88e0-db38afd26075 .graph &gt; .background{fill:black}#chart-76c88b12-3ecf-470e-88e0-db38afd26075 .plot &gt; .background{fill:#111}#chart-76c88b12-3ecf-470e-88e0-db38afd26075 .graph{fill:#999}#chart-76c88b12-3ecf-470e-88e0-db38afd26075 text.no_data{fill:#eee}#chart-76c88b12-3ecf-470e-88e0-db38afd26075 .title{fill:#eee}#chart-76c88b12-3ecf-470e-88e0-db38afd26075 .legends .legend text{fill:#999}#chart-76c88b12-3ecf-470e-88e0-db38afd26075 .legends .legend:hover text{fill:#eee}#chart-76c88b12-3ecf-470e-88e0-db38afd26075 .axis .line{stroke:#eee}#chart-76c88b12-3ecf-470e-88e0-db38afd26075 .axis .guide.line{stroke:#555}#chart-76c88b12-3ecf-470e-88e0-db38afd26075 .axis .major.line{stroke:#999}#chart-76c88b12-3ecf-470e-88e0-db38afd26075 .axis text.major{stroke:#eee;fill:#eee}#chart-76c88b12-3ecf-470e-88e0-db38afd26075 .axis.y .guides:hover .guide.line,#chart-76c88b12-3ecf-470e-88e0-db38afd26075 .line-graph .axis.x .guides:hover .guide.line,#chart-76c88b12-3ecf-470e-88e0-db38afd26075 .stackedline-graph .axis.x .guides:hover .guide.line,#chart-76c88b12-3ecf-470e-88e0-db38afd26075 .xy-graph .axis.x .guides:hover .guide.line{stroke:#eee}#chart-76c88b12-3ecf-470e-88e0-db38afd26075 .axis .guides:hover text{fill:#eee}#chart-76c88b12-3ecf-470e-88e0-db38afd26075 .reactive{fill-opacity:.8}#chart-76c88b12-3ecf-470e-88e0-db38afd26075 .reactive.active,#chart-76c88b12-3ecf-470e-88e0-db38afd26075 .active .reactive{fill-opacity:.4}#chart-76c88b12-3ecf-470e-88e0-db38afd26075 .series{stroke-width:1.0;stroke-linejoin:round;stroke-linecap:round;stroke-dasharray:0,0}#chart-76c88b12-3ecf-470e-88e0-db38afd26075 .series text{fill:#eee}#chart-76c88b12-3ecf-470e-88e0-db38afd26075 .tooltip rect{fill:#111;stroke:#eee}#chart-76c88b12-3ecf-470e-88e0-db38afd26075 .tooltip text{fill:#eee}#chart-76c88b12-3ecf-470e-88e0-db38afd26075 .map-element{fill:#999;stroke:#555 !important;opacity:.9;stroke-width:3;-webkit-transition:250ms;-moz-transition:250ms;-o-transition:250ms;transition:250ms}#chart-76c88b12-3ecf-470e-88e0-db38afd26075 .map-element:hover{opacity:1;stroke-width:10}#chart-76c88b12-3ecf-470e-88e0-db38afd26075 .color-0,#chart-76c88b12-3ecf-470e-88e0-db38afd26075 .color-0 a:visited{stroke:#ff5995;fill:#ff5995}#chart-76c88b12-3ecf-470e-88e0-db38afd26075 .color-1,#chart-76c88b12-3ecf-470e-88e0-db38afd26075 .color-1 a:visited{stroke:#b6e354;fill:#b6e354}#chart-76c88b12-3ecf-470e-88e0-db38afd26075 .color-2,#chart-76c88b12-3ecf-470e-88e0-db38afd26075 .color-2 a:visited{stroke:#feed6c;fill:#feed6c}#chart-76c88b12-3ecf-470e-88e0-db38afd26075 .color-3,#chart-76c88b12-3ecf-470e-88e0-db38afd26075 .color-3 a:visited{stroke:#8cedff;fill:#8cedff}#chart-76c88b12-3ecf-470e-88e0-db38afd26075 .color-4,#chart-76c88b12-3ecf-470e-88e0-db38afd26075 .color-4 a:visited{stroke:#9e6ffe;fill:#9e6ffe}#chart-76c88b12-3ecf-470e-88e0-db38afd26075 .color-5,#chart-76c88b12-3ecf-470e-88e0-db38afd26075 .color-5 a:visited{stroke:#899ca1;fill:#899ca1}#chart-76c88b12-3ecf-470e-88e0-db38afd26075 .color-6,#chart-76c88b12-3ecf-470e-88e0-db38afd26075 .color-6 a:visited{stroke:#f8f8f2;fill:#f8f8f2}#chart-76c88b12-3ecf-470e-88e0-db38afd26075 .color-7,#chart-76c88b12-3ecf-470e-88e0-db38afd26075 .color-7 a:visited{stroke:#bf4646;fill:#bf4646}#chart-76c88b12-3ecf-470e-88e0-db38afd26075 .color-8,#chart-76c88b12-3ecf-470e-88e0-db38afd26075 .color-8 a:visited{stroke:#516083;fill:#516083}#chart-76c88b12-3ecf-470e-88e0-db38afd26075 .color-9,#chart-76c88b12-3ecf-470e-88e0-db38afd26075 .color-9 a:visited{stroke:#f92672;fill:#f92672}#chart-76c88b12-3ecf-470e-88e0-db38afd26075 .color-10,#chart-76c88b12-3ecf-470e-88e0-db38afd26075 .color-10 a:visited{stroke:#82b414;fill:#82b414}#chart-76c88b12-3ecf-470e-88e0-db38afd26075 .color-11,#chart-76c88b12-3ecf-470e-88e0-db38afd26075 .color-11 a:visited{stroke:#fd971f;fill:#fd971f}#chart-76c88b12-3ecf-470e-88e0-db38afd26075 .color-12,#chart-76c88b12-3ecf-470e-88e0-db38afd26075 .color-12 a:visited{stroke:#56c2d6;fill:#56c2d6}#chart-76c88b12-3ecf-470e-88e0-db38afd26075 .color-13,#chart-76c88b12-3ecf-470e-88e0-db38afd26075 .color-13 a:visited{stroke:#808384;fill:#808384}#chart-76c88b12-3ecf-470e-88e0-db38afd26075 .color-14,#chart-76c88b12-3ecf-470e-88e0-db38afd26075 .color-14 a:visited{stroke:#8c54fe;fill:#8c54fe}#chart-76c88b12-3ecf-470e-88e0-db38afd26075 .color-15,#chart-76c88b12-3ecf-470e-88e0-db38afd26075 .color-15 a:visited{stroke:#465457;fill:#465457}
#chart-76c88b12-3ecf-470e-88e0-db38afd26075 text.no_data{text-anchor:middle}#chart-76c88b12-3ecf-470e-88e0-db38afd26075 .guide.line{fill-opacity:0}#chart-76c88b12-3ecf-470e-88e0-db38afd26075 .centered{text-anchor:middle}#chart-76c88b12-3ecf-470e-88e0-db38afd26075 .title{text-anchor:middle}#chart-76c88b12-3ecf-470e-88e0-db38afd26075 .legends .legend text{fill-opacity:1}#chart-76c88b12-3ecf-470e-88e0-db38afd26075 .axis.x text{text-anchor:middle}#chart-76c88b12-3ecf-470e-88e0-db38afd26075 .axis.x:not(.web) text[transform]{text-anchor:start}#chart-76c88b12-3ecf-470e-88e0-db38afd26075 .axis.y text{text-anchor:end}#chart-76c88b12-3ecf-470e-88e0-db38afd26075 .axis.y2 text{text-anchor:start}#chart-76c88b12-3ecf-470e-88e0-db38afd26075 .axis.y .logarithmic text:not(.major),#chart-76c88b12-3ecf-470e-88e0-db38afd26075 .axis.y2 .logarithmic text:not(.major){font-size:50%}#chart-76c88b12-3ecf-470e-88e0-db38afd26075 .axis .guide.line{stroke-dasharray:4,4}#chart-76c88b12-3ecf-470e-88e0-db38afd26075 .axis .major.guide.line{stroke-dasharray:6,6}#chart-76c88b12-3ecf-470e-88e0-db38afd26075 .axis text.major{stroke-width:0.5px}#chart-76c88b12-3ecf-470e-88e0-db38afd26075 .horizontal .axis.y .guide.line,#chart-76c88b12-3ecf-470e-88e0-db38afd26075 .horizontal .axis.y2 .guide.line,#chart-76c88b12-3ecf-470e-88e0-db38afd26075 .vertical .axis.x .guide.line{opacity:0}#chart-76c88b12-3ecf-470e-88e0-db38afd26075 .horizontal .axis.always_show .guide.line,#chart-76c88b12-3ecf-470e-88e0-db38afd26075 .vertical .axis.always_show .guide.line{opacity:1 !important}#chart-76c88b12-3ecf-470e-88e0-db38afd26075 .axis.y .guides:hover .guide.line,#chart-76c88b12-3ecf-470e-88e0-db38afd26075 .axis.y2 .guides:hover .guide.line,#chart-76c88b12-3ecf-470e-88e0-db38afd26075 .axis.x .guides:hover .guide.line{opacity:1}#chart-76c88b12-3ecf-470e-88e0-db38afd26075 .axis .guides:hover text{opacity:1}#chart-76c88b12-3ecf-470e-88e0-db38afd26075 .nofill{fill:none}#chart-76c88b12-3ecf-470e-88e0-db38afd26075 .subtle-fill{fill-opacity:.2}#chart-76c88b12-3ecf-470e-88e0-db38afd26075 .dot{stroke-width:1px;fill-opacity:1}#chart-76c88b12-3ecf-470e-88e0-db38afd26075 .dot.active{stroke-width:5px}#chart-76c88b12-3ecf-470e-88e0-db38afd26075 .series text{stroke:none}#chart-76c88b12-3ecf-470e-88e0-db38afd26075 .series text.active{opacity:1}#chart-76c88b12-3ecf-470e-88e0-db38afd26075 .tooltip rect{fill-opacity:0.8}#chart-76c88b12-3ecf-470e-88e0-db38afd26075 .tooltip text{fill-opacity:1}#chart-76c88b12-3ecf-470e-88e0-db38afd26075 .tooltip text tspan.label{fill-opacity:.8}</style><script type="text/javascript">window.config = {"css": ["style.css", "graph.css"], "disable_xml_declaration": false, "dots_size": 2.5, "explicit_size": false, "fill": false, "half_pie": false, "height": 768, "human_readable": false, "include_x_axis": false, "inner_radius": 0, "interpolate": null, "interpolation_parameters": {}, "interpolation_precision": 250, "js": ["http://kozea.github.io/pygal.js/javascripts/svg.jquery.js", "http://kozea.github.io/pygal.js/javascripts/pygal-tooltips.js"], "label_font_size": 10, "legend_at_bottom": true, "legend_at_bottom_columns": null, "legend_box_size": 12, "legend_font_size": 14, "logarithmic": false, "major_label_font_size": 10, "margin": 20, "margin_bottom": null, "margin_left": null, "margin_right": null, "margin_top": null, "missing_value_fill_truncation": "x", "mode": null, "no_data_font_size": 64, "no_data_text": "No data", "no_prefix": false, "order_min": null, "pretty_print": false, "print_values": false, "print_zeroes": false, "range": null, "rounded_bars": null, "show_dots": false, "show_legend": true, "show_minor_x_labels": true, "show_minor_y_labels": true, "show_only_major_dots": false, "show_x_guides": false, "show_x_labels": true, "show_y_guides": true, "show_y_labels": true, "spacing": 10, "stack_from_top": false, "strict": false, "stroke": true, "style": {"background": "black", "colors": ["#ff5995", "#b6e354", "#feed6c", "#8cedff", "#9e6ffe", "#899ca1", "#f8f8f2", "#bf4646", "#516083", "#f92672", "#82b414", "#fd971f", "#56c2d6", "#808384", "#8c54fe", "#465457"], "font_family": "monospace", "foreground": "#999", "foreground_dark": "#555", "foreground_light": "#eee", "opacity": ".8", "opacity_hover": ".4", "plot_background": "#111", "stroke_dasharray": "0,0", "stroke_style": "round", "stroke_width": 1.0, "transition": "250ms"}, "title": "Election 10 Participation", "title_font_size": 16, "tooltip_border_radius": 0, "tooltip_font_size": 16, "truncate_label": null, "truncate_legend": null, "value_font_size": 8, "width": 1024, "x_label_format": "%Y-%m-%d %H:%M:%S.%f", "x_label_rotation": 0, "x_labels": null, "x_labels_major": null, "x_labels_major_count": null, "x_labels_major_every": null, "x_title": null, "x_value_formatter": null, "xrange": null, "y_label_rotation": 0, "y_labels": null, "y_labels_major": null, "y_labels_major_count": null, "y_labels_major_every": null, "y_title": "Users", "zero": 0}</script><script type="text/javascript" xlink:href="http://kozea.github.io/pygal.js/javascripts/svg.jquery.js" /><script type="text/javascript" xlink:href="http://kozea.github.io/pygal.js/javascripts/pygal-tooltips.js" /></defs><title>Election 10 Participation</title><g class="graph line-graph vertical"><rect class="background" height="768" width="1024" x="0" y="0" /><g class="plot" transform="translate(86, 46)"><rect class="background" height="657.0" width="918.0" x="0" y="0" /><g class="axis y"><g class="guides"><path class="axis major line" d="M0.000000 644.365385 h918.000000" /><text class="major" x="-5" y="647.8653846153846">0</text></g><g class="guides"><path class="guide line" d="M0.000000 572.858138 h918.000000" /><text class="" x="-5" y="576.3581381123828">10000</text></g><g class="guides"><path class="guide line" d="M0.000000 501.350892 h918.000000" /><text class="" x="-5" y="504.85089160938105">20000</text></g><g class="guides"><path class="guide line" d="M0.000000 429.843645 h918.000000" /><text class="" x="-5" y="433.3436451063792">30000</text></g><g class="guides"><path class="guide line" d="M0.000000 358.336399 h918.000000" /><text class="" x="-5" y="361.83639860337746">40000</text></g><g class="guides"><path class="major guide line" d="M0.000000 286.829152 h918.000000" /><text class="major" x="-5" y="290.3291521003756">50000</text></g><g class="guides"><path class="guide line" d="M0.000000 215.321906 h918.000000" /><text class="" x="-5" y="218.8219055973738">60000</text></g><g class="guides"><path class="guide line" d="M0.000000 143.814659 h918.000000" /><text class="" x="-5" y="147.31465909437213">70000</text></g><g class="guides"><path class="guide line" d="M0.000000 72.307413 h918.000000" /><text class="" x="-5" y="75.80741259137028">80000</text></g></g><g class="series serie-0 color-0"><path class="line reactive nofill" d="M17.653846 644.365385 L20.105769 644.365385 22.557692 644.365385 25.009615 644.365385 27.461538 644.365385 29.913462 644.365385 32.365385 644.365385 34.817308 644.365385 37.269231 644.365385 39.721154 644.365385 42.173077 644.365385 44.625000 644.365385 47.076923 644.365385 49.528846 644.365385 51.980769 644.365385 54.432692 644.365385 56.884615 644.365385 59.336538 644.365385 61.788462 644.365385 64.240385 644.365385 66.692308 644.365385 69.144231 644.365385 71.596154 644.365385 74.048077 644.365385 76.500000 644.365385 78.951923 644.365385 81.403846 644.365385 83.855769 644.365385 86.307692 644.365385 88.759615 644.365385 91.211538 644.365385 93.663462 644.365385 96.115385 644.365385 98.567308 644.365385 101.019231 644.365385 103.471154 644.365385 105.923077 644.365385 108.375000 644.365385 110.826923 644.365385 113.278846 644.365385 115.730769 644.365385 118.182692 644.365385 120.634615 644.365385 123.086538 644.365385 125.538462 644.365385 127.990385 644.365385 130.442308 644.365385 132.894231 644.365385 135.346154 644.365385 137.798077 644.365385 140.250000 644.365385 142.701923 644.365385 145.153846 644.365385 147.605769 644.365385 150.057692 644.365385 152.509615 644.365385 154.961538 644.365385 157.413462 644.365385 159.865385 644.365385 162.317308 644.365385 164.769231 644.365385 167.221154 644.365385 169.673077 644.365385 172.125000 644.365385 174.576923 644.365385 177.028846 644.365385 179.480769 644.365385 181.932692 644.365385 184.384615 644.365385 186.836538 644.365385 189.288462 644.365385 191.740385 644.365385 194.192308 644.365385 196.644231 644.365385 199.096154 644.365385 201.548077 644.365385 204.000000 644.365385 206.451923 644.365385 208.903846 644.365385 211.355769 644.365385 213.807692 644.365385 216.259615 644.365385 218.711538 644.365385 221.163462 644.365385 223.615385 644.365385 226.067308 644.365385 228.519231 644.365385 230.971154 644.365385 233.423077 644.365385 235.875000 644.365385 238.326923 644.365385 240.778846 644.365385 243.230769 644.365385 245.682692 644.365385 248.134615 644.365385 250.586538 644.365385 253.038462 644.365385 255.490385 644.365385 257.942308 644.365385 260.394231 644.365385 262.846154 644.365385 265.298077 644.365385 267.750000 644.365385 270.201923 644.365385 272.653846 644.365385 275.105769 644.365385 277.557692 644.365385 280.009615 644.365385 282.461538 644.365385 284.913462 644.365385 287.365385 644.365385 289.817308 644.365385 292.269231 644.365385 294.721154 644.365385 297.173077 644.365385 299.625000 644.365385 302.076923 644.365385 304.528846 644.365385 306.980769 644.365385 309.432692 644.365385 311.884615 644.365385 314.336538 644.365385 316.788462 644.365385 319.240385 644.365385 321.692308 644.365385 324.144231 644.365385 326.596154 644.365385 329.048077 644.365385 331.500000 644.365385 333.951923 644.365385 336.403846 644.365385 338.855769 644.365385 341.307692 644.365385 343.759615 644.365385 346.211538 644.365385 348.663462 644.365385 351.115385 644.365385 353.567308 644.365385 356.019231 644.365385 358.471154 644.365385 360.923077 644.365385 363.375000 644.365385 365.826923 644.365385 368.278846 644.365385 370.730769 644.365385 373.182692 644.365385 375.634615 644.365385 378.086538 644.365385 380.538462 644.365385 382.990385 644.365385 385.442308 644.365385 387.894231 644.365385 390.346154 644.365385 392.798077 644.365385 395.250000 644.365385 397.701923 644.365385 400.153846 644.365385 402.605769 644.365385 405.057692 644.365385 407.509615 644.365385 409.961538 644.365385 412.413462 644.365385 414.865385 644.365385 417.317308 644.365385 419.769231 644.365385 422.221154 644.365385 424.673077 644.365385 427.125000 644.365385 429.576923 644.365385 432.028846 644.365385 434.480769 644.365385 436.932692 644.365385 439.384615 644.365385 441.836538 644.365385 444.288462 644.365385 446.740385 644.365385 449.192308 644.365385 451.644231 644.365385 454.096154 644.365385 456.548077 644.365385 459.000000 644.365385 461.451923 644.365385 463.903846 644.365385 466.355769 644.365385 468.807692 644.365385 471.259615 644.365385 473.711538 644.365385 476.163462 644.365385 478.615385 644.365385 481.067308 644.365385 483.519231 644.365385 485.971154 644.365385 488.423077 644.365385 490.875000 644.365385 493.326923 644.365385 495.778846 644.365385 498.230769 644.365385 500.682692 644.365385 503.134615 644.365385 505.586538 644.365385 508.038462 644.365385 510.490385 644.365385 512.942308 644.365385 515.394231 644.365385 517.846154 644.365385 520.298077 644.365385 522.750000 644.365385 525.201923 644.365385 527.653846 644.365385 530.105769 644.365385 532.557692 644.365385 535.009615 644.365385 537.461538 644.365385 539.913462 644.365385 542.365385 644.365385 544.817308 644.365385 547.269231 644.365385 549.721154 644.365385 552.173077 644.365385 554.625000 644.365385 557.076923 644.365385 559.528846 644.365385 561.980769 644.365385 564.432692 644.365385 566.884615 644.365385 569.336538 644.365385 571.788462 644.365385 574.240385 644.365385 576.692308 644.365385 579.144231 644.365385 581.596154 644.365385 584.048077 644.365385 586.500000 644.365385 588.951923 644.365385 591.403846 644.365385 593.855769 644.365385 596.307692 644.365385 598.759615 644.365385 601.211538 644.365385 603.663462 644.365385 606.115385 644.365385 608.567308 644.365385 611.019231 644.365385 613.471154 644.365385 615.923077 644.365385 618.375000 644.365385 620.826923 644.365385 623.278846 644.365385 625.730769 644.365385 628.182692 644.365385 630.634615 644.365385 633.086538 644.365385 635.538462 644.365385 637.990385 644.365385 640.442308 644.365385 642.894231 644.365385 645.346154 644.365385 647.798077 644.365385 650.250000 644.365385 652.701923 644.365385 655.153846 644.365385 657.605769 644.365385 660.057692 644.365385 662.509615 643.621709 664.961538 624.135985 667.413462 614.868645 669.865385 608.676118 672.317308 604.807576 674.769231 602.126054 677.221154 599.752014 679.673077 597.585344 682.125000 595.096892 684.576923 592.115040 687.028846 589.097434 689.480769 586.001170 691.932692 582.382903 694.384615 578.950556 696.836538 575.646921 699.288462 571.942845 701.740385 568.789376 704.192308 565.793222 706.644231 562.982987 709.096154 560.272863 711.548077 557.634245 714.000000 555.145793 716.451923 552.971973 718.903846 550.941167 721.355769 549.046225 723.807692 547.508819 726.259615 546.121579 728.711538 545.048970 731.163462 544.198034 733.615385 543.447208 736.067308 542.839396 738.519231 542.224434 740.971154 541.530813 743.423077 540.787138 745.875000 539.943353 748.326923 538.877895 750.778846 537.755231 753.230769 536.489553 755.682692 535.159518 758.134615 533.836634 760.586538 532.399338 763.038462 531.112208 765.490385 530.061051 767.942308 528.659509 770.394231 527.422434 772.846154 526.092399 775.298077 524.976886 777.750000 523.611097 780.201923 522.352570 782.653846 521.272810 785.105769 520.336066 787.557692 519.392170 790.009615 518.669947 792.461538 517.847613 794.913462 516.832210 797.365385 515.730999 799.817308 514.415266 802.269231 511.819552 804.721154 508.337150 807.173077 503.009860 809.625000 496.831634 812.076923 490.917984 814.528846 485.855271 816.980769 481.893770 819.432692 478.354161 821.884615 474.321152 824.336538 470.524118 826.788462 467.084619 829.240385 464.310138 831.692308 462.436648 834.144231 460.842036 836.596154 459.383289 839.048077 458.003199 841.500000 456.437190 843.951923 455.514747 846.403846 454.799674 848.855769 454.299123 851.307692 453.891532 853.759615 453.541147 856.211538 453.062048 858.663462 452.561497 861.115385 451.810671 863.567308 450.852474 866.019231 449.379425 868.471154 447.634648 870.923077 445.596692 873.375000 443.580187 875.826923 441.828260 878.278846 440.154990 880.730769 438.496022 883.182692 438.496022 885.634615 438.496022 888.086538 438.496022 890.538462 438.496022 892.990385 438.496022 895.442308 438.496022 897.894231 438.496022 900.346154 438.496022" /></g><g class="series serie-1 color-1"><path class="line reactive nofill" d="M17.653846 630.435773 L20.105769 625.337306 22.557692 621.633231 25.009615 619.688234 27.461538 618.250938 29.913462 616.756437 32.365385 615.512211 34.817308 614.289437 37.269231 612.187124 39.721154 609.448396 42.173077 606.437941 44.625000 602.640906 47.076923 599.394477 49.528846 596.584243 51.980769 594.138695 54.432692 592.372466 56.884615 590.549031 59.336538 588.561129 61.788462 586.902161 64.240385 585.357605 66.692308 584.149132 69.144231 583.305347 71.596154 582.397205 74.048077 581.667831 76.500000 581.017115 78.951923 580.516564 81.403846 580.108973 83.855769 579.744286 86.307692 579.501161 88.759615 579.243735 91.211538 578.979158 93.663462 578.743184 96.115385 578.342744 98.567308 577.956605 101.019231 577.506109 103.471154 576.948353 105.923077 576.183225 108.375000 575.360892 110.826923 574.581463 113.278846 573.930747 115.730769 573.201373 118.182692 572.450547 120.634615 571.749776 123.086538 571.127663 125.538462 570.605660 127.990385 570.140863 130.442308 569.611709 132.894231 569.275625 135.346154 568.968144 137.798077 568.610608 140.250000 568.417538 142.701923 568.138660 145.153846 568.024248 147.605769 567.895535 150.057692 567.795425 152.509615 567.630958 154.961538 567.430738 157.413462 567.116106 159.865385 566.815776 162.317308 566.443938 164.769231 565.929086 167.221154 565.521495 169.673077 565.049547 172.125000 564.513242 174.576923 564.012692 177.028846 563.555045 179.480769 563.154605 181.932692 562.711260 184.384615 562.389477 186.836538 562.074845 189.288462 561.810269 191.740385 561.531390 194.192308 561.281115 196.644231 560.987935 199.096154 560.894976 201.548077 560.787715 204.000000 560.680454 206.451923 560.580344 208.903846 560.508837 211.355769 560.408726 213.807692 560.280013 216.259615 560.101245 218.711538 559.893874 221.163462 559.693654 223.615385 559.486283 226.067308 559.128747 228.519231 558.828416 230.971154 558.528086 233.423077 558.199153 235.875000 557.841616 238.326923 557.548437 240.778846 557.269558 243.230769 557.090790 245.682692 556.869118 248.134615 556.661747 250.586538 556.511582 253.038462 556.297060 255.490385 556.111141 257.942308 555.975277 260.394231 555.789358 262.846154 555.739303 265.298077 555.646344 267.750000 555.553384 270.201923 555.496179 272.653846 555.446124 275.105769 555.403219 277.557692 555.317411 280.009615 555.224451 282.461538 555.102889 284.913462 555.002779 287.365385 554.895518 289.817308 554.802558 292.269231 554.695298 294.721154 554.602338 297.173077 554.452173 299.625000 554.287706 302.076923 554.173295 304.528846 554.073184 306.980769 553.958773 309.432692 553.865813 311.884615 553.765703 314.336538 553.665593 316.788462 553.615538 319.240385 553.508277 321.692308 553.451071 324.144231 553.401016 326.596154 553.336660 329.048077 553.250851 331.500000 553.215097 333.951923 553.150741 336.403846 553.057782 338.855769 552.964822 341.307692 552.821808 343.759615 552.657341 346.211538 552.457121 348.663462 552.242599 351.115385 552.070982 353.567308 551.856460 356.019231 551.691993 358.471154 551.520376 360.923077 551.305854 363.375000 551.155689 365.826923 550.955469 368.278846 550.869660 370.730769 550.719495 373.182692 550.597932 375.634615 550.469219 378.086538 550.340506 380.538462 550.226095 382.990385 550.118834 385.442308 550.004422 387.894231 549.875709 390.346154 549.725544 392.798077 549.468118 395.250000 549.146335 397.701923 548.795950 400.153846 548.345454 402.605769 547.837753 405.057692 547.294297 407.509615 546.815199 409.961538 546.386155 412.413462 545.935660 414.865385 545.277793 417.317308 544.834448 419.769231 544.469761 422.221154 544.212335 424.673077 543.947758 427.125000 541.423553 429.576923 509.853103 432.028846 493.649561 434.480769 483.273860 436.932692 476.301903 439.384615 470.953161 441.836538 465.289787 444.288462 459.755126 446.740385 452.883280 449.192308 443.494378 451.644231 431.860149 454.096154 418.373883 456.548077 401.762749 459.000000 383.163715 461.451923 364.264349 463.903846 350.456300 466.355769 338.042642 468.807692 325.564628 471.259615 313.801685 473.711538 302.882529 476.163462 294.723552 478.615385 286.729042 481.067308 280.658077 483.519231 275.266430 485.971154 271.304929 488.423077 267.271920 490.875000 264.332972 493.326923 262.059042 495.778846 260.414375 498.230769 259.127245 500.682692 257.697100 503.134615 256.173996 505.586538 254.457822 508.038462 252.484222 510.490385 250.324703 512.942308 247.171233 515.394231 243.567268 517.846154 239.548561 520.298077 234.886288 522.750000 230.374181 525.201923 225.840622 527.653846 221.707503 530.105769 217.331259 532.557692 213.262497 535.009615 209.372503 537.461538 206.319143 539.913462 203.809239 542.365385 201.349390 544.817308 199.104062 547.269231 197.037503 549.721154 195.478645 552.173077 194.148610 554.625000 193.261920 557.076923 192.396682 559.528846 191.602952 561.980769 190.945085 564.432692 190.029793 566.884615 189.000088 569.336538 187.798766 571.788462 186.204155 574.240385 184.173349 576.692308 181.756404 579.144231 179.174992 581.596154 176.522074 584.048077 174.226691 586.500000 172.088624 588.951923 169.828995 591.403846 167.247584 593.855769 164.973653 596.307692 163.135917 598.759615 161.398291 601.211538 159.896639 603.663462 158.545152 606.115385 157.458242 608.567308 156.306975 611.019231 155.348778 613.471154 154.633705 615.923077 154.197511 618.375000 153.589700 620.826923 153.132053 623.278846 152.610050 625.730769 152.095198 628.182692 151.401578 630.634615 150.543491 633.086538 149.427978 635.538462 148.233807 637.990385 146.660648 640.442308 145.037433 642.894231 143.693097 645.346154 142.370213 647.798077 140.711245 650.250000 139.123784 652.701923 137.772297 655.153846 136.556674 657.605769 135.519819 660.057692 134.590224 662.509615 133.224436 664.961538 125.523105 667.413462 121.368534 669.865385 118.629807 672.317308 116.584700 674.769231 115.354775 677.221154 114.089097 679.673077 113.016488 682.125000 111.936729 684.576923 110.649598 687.028846 109.484030 689.480769 108.032433 691.932692 106.373465 694.384615 104.857511 696.836538 103.398763 699.288462 101.639685 701.740385 100.016471 704.192308 98.421859 706.644231 96.727137 709.096154 95.304143 711.548077 93.802491 714.000000 92.286537 716.451923 90.870694 718.903846 89.640769 721.355769 88.596763 723.807692 87.688621 726.259615 86.744726 728.711538 85.993900 731.163462 85.414691 733.615385 84.921291 736.067308 84.399288 738.519231 83.955943 740.971154 83.426789 743.423077 82.883334 745.875000 82.289824 748.326923 81.674862 750.778846 80.852529 753.230769 79.894331 755.682692 78.993340 758.134615 78.120952 760.586538 77.169905 763.038462 76.240311 765.490385 75.425129 767.942308 74.516987 770.394231 73.608844 772.846154 72.772210 775.298077 72.042836 777.750000 71.120392 780.201923 70.262305 782.653846 69.497178 785.105769 68.853613 787.557692 68.195746 790.009615 67.587934 792.461538 67.108836 794.913462 66.529627 797.365385 65.757349 799.817308 64.992221 802.269231 63.848105 804.721154 62.253494 807.173077 59.650630 809.625000 56.361297 812.076923 52.764482 814.528846 49.382189 816.980769 46.607708 819.432692 44.169311 821.884615 41.301871 824.336538 38.699007 826.788462 36.053239 829.240385 34.000981 831.692308 32.485027 834.144231 31.240801 836.596154 30.161042 839.048077 28.773801 841.500000 27.493821 843.951923 26.728694 846.403846 26.113731 848.855769 25.670386 851.307692 25.198439 853.759615 24.848053 856.211538 24.347502 858.663462 23.925610 861.115385 23.367853 863.567308 22.588424 866.019231 21.401404 868.471154 20.178630 870.923077 18.584018 873.375000 17.075215 875.826923 15.602166 878.278846 14.050459 880.730769 12.634615 883.182692 12.634615 885.634615 12.634615 888.086538 12.634615 890.538462 12.634615 892.990385 12.634615 895.442308 12.634615 897.894231 12.634615 900.346154 12.634615" /></g></g><g class="titles"><text class="title plot_title" x="512.0" y="26">Election 10 Participation</text><text class="title" transform="rotate(-90 0.000000 374.500000)" x="0" y="400.5">Users</text></g><g class="plot overlay" transform="translate(86, 46)"><g class="series serie-0 color-0" /><g class="series serie-1 color-1" /></g><g class="plot text-overlay" transform="translate(86, 46)"><g class="series serie-0 color-0" /><g class="series serie-1 color-1" /></g><g class="plot tooltip-overlay" transform="translate(86, 46)"><g class="tooltip" style="opacity: 0" transform="translate(0 0)"><a><rect class="tooltip-box" height="0" rx="0" ry="0" width="0" /><text class="text"><tspan class="label" /><tspan class="value" /></text></a></g></g><g class="legends" transform="translate(96, 713)"><g class="legend reactive activate-serie" id="activate-serie-0"><rect class="color-0 reactive" height="12" width="12" x="0.0" y="1.0" /><text x="17.0" y="11.2">constituents</text></g><g class="legend reactive activate-serie" id="activate-serie-1"><rect class="color-1 reactive" height="12" width="12" x="459.0" y="1.0" /><text x="476.0" y="11.2">caucus</text></g></g></g></svg>