<?xml version='1.0' encoding='utf-8'?>
<svg xmlns:xlink="http://www.w3.org/1999/xlink" class="pygal-chart" id="chart-6df4aa79-ad43-4a8a-a79d-28c0ba41c80d" viewBox="0 0 1024 768" xmlns="http://www.w3.org/2000/svg"><!--Generated with pygal 1.7.0 (etree) ©Kozea 2011-2014 on 2018-03-25--><!--http://pygal.org--><!--http://github.com/Kozea/pygal--><defs><style type="text/css">#chart-6df4aa79-ad43-4a8a-a79d-28c0ba41c80d .title{font-family:"monospace";font-size:16px}#chart-6df4aa79-ad43-4a8a-a79d-28c0ba41c80d .legends .legend text{font-family:"monospace";font-size:14px}#chart-6df4aa79-ad43-4a8a-a79d-28c0ba41c80d .axis text{font-family:"monospace";font-size:10px}#chart-6df4aa79-ad43-4a8a-a79d-28c0ba41c80d .axis text.major{font-family:"monospace";font-size:10px}#chart-6df4aa79-ad43-4a8a-a79d-28c0ba41c80d .series text{font-family:"monospace";font-size:8px}#chart-6df4aa79-ad43-4a8a-a79d-28c0ba41c80d .tooltip text{font-family:"monospace";font-size:16px}#chart-6df4aa79-ad43-4a8a-a79d-28c0ba41c80d text.no_data{font-size:64px}
#chart-6df4aa79-ad43-4a8a-a79d-28c0ba41c80d{background-color:black}#chart-6df4aa79-ad43-4a8a-a79d-28c0ba41c80d path,#chart-6df4aa79-ad43-4a8a-a79d-28c0ba41c80d line,#chart-6df4aa79-ad43-4a8a-a79d-28c0ba41c80d rect,#chart-6df4aa79-ad43-4a8a-a79d-28c0ba41c80d circle{-webkit-transition:250ms;-moz-transition:250ms;transition:250ms}#chart-6df4aa79-ad43-4a8a-a79d-28c0ba41c80d .graph &gt; .background{fill:black}#chart-6df4aa79-ad43-4a8a-a79d-28c0ba41c80d .plot &gt; .background{fill:#111}#chart-6df4aa79-ad43-4a8a-a79d-28c0ba41c80d .graph{fill:#999}#chart-6df4aa79-ad43-4a8a-a79d-28c0ba41c80d text.no_data{fill:#eee}#chart-6df4aa79-ad43-4a8a-a79d-28c0ba41c80d .title{fill:#eee}#chart-6df4aa79-ad43-4a8a-a79d-28c0ba41c80d .legends .legend text{fill:#999}#chart-6df4aa79-ad43-4a8a-a79d-28c0ba41c80d .legends .legend:hover text{fill:#eee}#chart-6df4aa79-ad43-4a8a-a79d-28c0ba41c80d .axis .line{stroke:#eee}#chart-6df4aa79-ad43-4a8a-a79d-28c0ba41c80d .axis .guide.line{stroke:#555}#chart-6df4aa79-ad43-4a8a-a79d-28c0ba41c80d .axis .major.line{stroke:#999}#chart-6df4aa79-ad43-4a8a-a79d-28c0ba41c80d .axis text.major{stroke:#eee;fill:#eee}#chart-6df4aa79-ad43-4a8a-a79d-28c0ba41c80d .axis.y .guides:hover .guide.line,#chart-6df4aa79-ad43-4a8a-a79d-28c0ba41c80d .line-graph .axis.x .guides:hover .guide.line,#chart-6df4aa79-ad43-4a8a-a79d-28c0ba41c80d .stackedline-graph .axis.x .guides:hover .guide.line,#chart-6df4aa79-ad43-4a8a-a79d-28c0ba41c80d .xy-graph .axis.x .guides:hover .guide.line{stroke:#eee}#chart-6df4aa79-ad43-4a8a-a79d-28c0ba41c80d .axis .guides:hover text{fill:#eee}#chart-6df4aa79-ad43-4a8a-a79d-28c0ba41c80d .reactive{fill-opacity:.8}#chart-6df4aa79-ad43-4a8a-a79d-28c0ba41c80d .reactive.active,#chart-6df4aa79-ad43-4a8a-a79d-28c0ba41c80d .active .reactive{fill-opacity:.4}#chart-6df4aa79-ad43-4a8a-a79d-28c0ba41c80d .series{stroke-width:1.0;stroke-linejoin:round;stroke-linecap:round;stroke-dasharray:0,0}#chart-6df4aa79-ad43-4a8a-a79d-28c0ba41c80d .series text{fill:#eee}#chart-6df4aa79-ad43-4a8a-a79d-28c0ba41c80d .tooltip rect{fill:#111;stroke:#eee}#chart-6df4aa79-ad43-4a8a-a79d-28c0ba41c80d .tooltip text{fill:#eee}#chart-6df4aa79-ad43-4a8a-a79d-28c0ba41c80d .map-element{fill:#999;stroke:#555 !important;opacity:.9;stroke-width:3;-webkit-transition:250ms;-moz-transition:250ms;-o-transition:250ms;transition:250ms}#chart-6df4aa79-ad43-4a8a-a79d-28c0ba41c80d .map-element:hover{opacity:1;stroke-width:10}#chart-6df4aa79-ad43-4a8a-a79d-28c0ba41c80d .color-0,#chart-6df4aa79-ad43-4a8a-a79d-28c0ba41c80d .color-0 a:visited{stroke:#ff5995;fill:#ff5995}#chart-6df4aa79-ad43-4a8a-a79d-28c0ba41c80d .color-1,#chart-6df4aa79-ad43-4a8a-a79d-28c0ba41c80d .color-1 a:visited{stroke:#b6e354;fill:#b6e354}#chart-6df4aa79-ad43-4a8a-a79d-28c0ba41c80d .color-2,#chart-6df4aa79-ad43-4a8a-a79d-28c0ba41c80d .color-2 a:visited{stroke:#feed6c;fill:#feed6c}#chart-6df4aa79-ad43-4a8a-a79d-28c0ba41c80d .color-3,#chart-6df4aa79-ad43-4a8a-a79d-28c0ba41c80d .color-3 a:visited{stroke:#8cedff;fill:#8cedff}#chart-6df4aa79-ad43-4a8a-a79d-28c0ba41c80d .color-4,#chart-6df4aa79-ad43-4a8a-a79d-28c0ba41c80d .color-4 a:visited{stroke:#9e6ffe;fill:#9e6ffe}#chart-6df4aa79-ad43-4a8a-a79d-28c0ba41c80d .color-5,#chart-6df4aa79-ad43-4a8a-a79d-28c0ba41c80d .color-5 a:visited{stroke:#899ca1;fill:#899ca1}#chart-6df4aa79-ad43-4a8a-a79d-28c0ba41c80d .color-6,#chart-6df4aa79-ad43-4a8a-a79d-28c0ba41c80d .color-6 a:visited{stroke:#f8f8f2;fill:#f8f8f2}#chart-6df4aa79-ad43-4a8a-a79d-28c0ba41c80d .color-7,#chart-6df4aa79-ad43-4a8a-a79d-28c0ba41c80d .color-7 a:visited{stroke:#bf4646;fill:#bf4646}#chart-6df4aa79-ad43-4a8a-a79d-28c0ba41c80d .color-8,#chart-6df4aa79-ad43-4a8a-a79d-28c0ba41c80d .color-8 a:visited{stroke:#516083;fill:#516083}#chart-6df4aa79-ad43-4a8a-a79d-28c0ba41c80d .color-9,#chart-6df4aa79-ad43-4a8a-a79d-28c0ba41c80d .color-9 a:visited{stroke:#f92672;fill:#f92672}#chart-6df4aa79-ad43-4a8a-a79d-28c0ba41c80d .color-10,#chart-6df4aa79-ad43-4a8a-a79d-28c0ba41c80d .color-10 a:visited{stroke:#82b414;fill:#82b414}#chart-6df4aa79-ad43-4a8a-a79d-28c0ba41c80d .color-11,#chart-6df4aa79-ad43-4a8a-a79d-28c0ba41c80d .color-11 a:visited{stroke:#fd971f;fill:#fd971f}#chart-6df4aa79-ad43-4a8a-a79d-28c0ba41c80d .color-12,#chart-6df4aa79-ad43-4a8a-a79d-28c0ba41c80d .color-12 a:visited{stroke:#56c2d6;fill:#56c2d6}#chart-6df4aa79-ad43-4a8a-a79d-28c0ba41c80d .color-13,#chart-6df4aa79-ad43-4a8a-a79d-28c0ba41c80d .color-13 a:visited{stroke:#808384;fill:#808384}#chart-6df4aa79-ad43-4a8a-a79d-28c0ba41c80d .color-14,#chart-6df4aa79-ad43-4a8a-a79d-28c0ba41c80d .color-14 a:visited{stroke:#8c54fe;fill:#8c54fe}#chart-6df4aa79-ad43-4a8a-a79d-28c0ba41c80d .color-15,#chart-6df4aa79-ad43-4a8a-a79d-28c0ba41c80d .color-15 a:visited{stroke:#465457;fill:#465457}
#chart-6df4aa79-ad43-4a8a-a79d-28c0ba41c80d text.no_data{text-anchor:middle}#chart-6df4aa79-ad43-4a8a-a79d-28c0ba41c80d .guide.line{fill-opacity:0}#chart-6df4aa79-ad43-4a8a-a79d-28c0ba41c80d .centered{text-anchor:middle}#chart-6df4aa79-ad43-4a8a-a79d-28c0ba41c80d .title{text-anchor:middle}#chart-6df4aa79-ad43-4a8a-a79d-28c0ba41c80d .legends .legend text{fill-opacity:1}#chart-6df4aa79-ad43-4a8a-a79d-28c0ba41c80d .axis.x text{text-anchor:middle}#chart-6df4aa79-ad43-4a8a-a79d-28c0ba41c80d .axis.x:not(.web) text[transform]{text-anchor:start}#chart-6df4aa79-ad43-4a8a-a79d-28c0ba41c80d .axis.y text{text-anchor:end}#chart-6df4aa79-ad43-4a8a-a79d-28c0ba41c80d .axis.y2 text{text-anchor:start}#chart-6df4aa79-ad43-4a8a-a79d-28c0ba41c80d .axis.y .logarithmic text:not(.major),#chart-6df4aa79-ad43-4a8a-a79d-28c0ba41c80d .axis.y2 .logarithmic text:not(.major){font-size:50%}#chart-6df4aa79-ad43-4a8a-a79d-28c0ba41c80d .axis .guide.line{stroke-dasharray:4,4}#chart-6df4aa79-ad43-4a8a-a79d-28c0ba41c80d .axis .major.guide.line{stroke-dasharray:6,6}#chart-6df4aa79-ad43-4a8a-a79d-28c0ba41c80d .axis text.major{stroke-width:0.5px}#chart-6df4aa79-ad43-4a8a-a79d-28c0ba41c80d .horizontal .axis.y .guide.line,#chart-6df4aa79-ad43-4a8a-a79d-28c0ba41c80d .horizontal .axis.y2 .guide.line,#chart-6df4aa79-ad43-4a8a-a79d-28c0ba41c80d .vertical .axis.x .guide.line{opacity:0}#chart-6df4aa79-ad43-4a8a-a79d-28c0ba41c80d .horizontal .axis.always_show .guide.line,#chart-6df4aa79-ad43-4a8a-a79d-28c0ba41c80d .vertical .axis.always_show .guide.line{opacity:1 !important}#chart-6df4aa79-ad43-4a8a-a79d-28c0ba41c80d .axis.y .guides:hover .guide.line,#chart-6df4aa79-ad43-4a8a-a79d-28c0ba41c80d .axis.y2 .guides:hover .guide.line,#chart-6df4aa79-ad43-4a8a-a79d-28c0ba41c80d .axis.x .guides:hover .guide.line{opacity:1}#chart-6df4aa79-ad43-4a8a-a79d-28c0ba41c80d .axis .guides:hover text{opacity:1}#chart-6df4aa79-ad43-4a8a-a79d-28c0ba41c80d .nofill{fill:none}#chart-6df4aa79-ad43-4a8a-a79d-28c0ba41c80d .subtle-fill{fill-opacity:.2}#chart-6df4aa79-ad43-4a8a-a79d-28c0ba41c80d .dot{stroke-width:1px;fill-opacity:1}#chart-6df4aa79-ad43-4a8a-a79d-28c0ba41c80d .dot.active{stroke-width:5px}#chart-6df4aa79-ad43-4a8a-a79d-28c0ba41c80d .series text{stroke:none}#chart-6df4aa79-ad43-4a8a-a79d-28c0ba41c80d .series text.active{opacity:1}#chart-6df4aa79-ad43-4a8a-a79d-28c0ba41c80d .tooltip rect{fill-opacity:0.8}#chart-6df4aa79-ad43-4a8a-a79d-28c0ba41c80d .tooltip text{fill-opacity:1}#chart-6df4aa79-ad43-4a8a-a79d-28c0ba41c80d .tooltip text tspan.label{fill-opacity:.8}</style><script type="text/javascript">window.config = {"css": ["style.css", "graph.css"], "disable_xml_declaration": false, "dots_size": 2.5, "explicit_size": false, "fill": false, "half_pie": false, "height": 768, "human_readable": false, "include_x_axis": false, "inner_radius": 0, "interpolate": null, "interpolation_parameters": {}, "interpolation_precision": 250, "js": ["http://kozea.github.io/pygal.js/javascripts/svg.jquery.js", "http://kozea.github.io/pygal.js/javascripts/pygal-tooltips.js"], "label_font_size": 10, "legend_at_bottom": true, "legend_at_bottom_columns": null, "legend_box_size": 12, "legend_font_size": 14, "logarithmic": false, "major_label_font_size": 10, "margin": 20, "margin_bottom": null, "margin_left": null, "margin_right": null, "margin_top": null, "missing_value_fill_truncation": "x", "mode": null, "no_data_font_size": 64, "no_data_text": "No data", "no_prefix": false, "order_min": null, "pretty_print": false, "print_values": false, "print_zeroes": false, "range": null, "rounded_bars": null, "show_dots": false, "show_legend": true, "show_minor_x_labels": true, "show_minor_y_labels": true, "show_only_major_dots": false, "show_x_guides": false, "show_x_labels": true, "show_y_guides": true, "show_y_labels": true, "spacing": 10, "stack_from_top": false, "strict": false, "stroke": true, "style": {"background": "black", "colors": ["#ff5995", "#b6e354", "#feed6c", "#8cedff", "#9e6ffe", "#899ca1", "#f8f8f2", "#bf4646", "#516083", "#f92672", "#82b414", "#fd971f", "#56c2d6", "#808384", "#8c54fe", "#465457"], "font_family": "monospace", "foreground": "#999", "foreground_dark": "#555", "foreground_light": "#eee", "opacity": ".8", "opacity_hover": ".4", "plot_background": "#111", "stroke_dasharray": "0,0", "stroke_style": "round", "stroke_width": 1.0, "transition": "250ms"}, "title": "Election Constituents", "title_font_size": 16, "tooltip_border_radius": 0, "tooltip_font_size": 16, "truncate_label": null, "truncate_legend": null, "value_font_size": 8, "width": 1024, "x_label_format": "%Y-%m-%d %H:%M:%S.%f", "x_label_rotation": 0, "x_labels": null, "x_labels_major": null, "x_labels_major_count": null, "x_labels_major_every": null, "x_title": "Hours(?)", "x_value_formatter": null, "xrange": null, "y_label_rotation": 0, "y_labels": null, "y_labels_major": null, "y_labels_major_count": null, "y_labels_major_every": null, "y_title": "Voters", "zero": 0}</script><script type="text/javascript" xlink:href="http://kozea.github.io/pygal.js/javascripts/svg.jquery.js" /><script type="text/javascript" xlink:href="http://kozea.github.io/pygal.js/javascripts/pygal-tooltips.js" /></defs><title>Election Constituents</title><g class="graph line-graph vertical"><rect class="background" height="768" width="1024" x="0" y="0" /><g class="plot" transform="translate(86, 46)"><rect class="background" height="610.0" width="918.0" x="0" y="0" /><g class="axis y"><g class="guides"><path class="axis major line" d="M0.000000 598.269231 h918.000000" /><text class="major" x="-5" y="601.7692307692307">0</text></g><g class="guides"><path class="guide line" d="M0.000000 559.776141 h918.000000" /><text class="" x="-5" y="563.2761405944343">2000</text></g><g class="guides"><path class="guide line" d="M0.000000 521.283050 h918.000000" /><text class="" x="-5" y="524.7830504196378">4000</text></g><g class="guides"><path class="guide line" d="M0.000000 482.789960 h918.000000" /><text class="" x="-5" y="486.28996024484127">6000</text></g><g class="guides"><path class="guide line" d="M0.000000 444.296870 h918.000000" /><text class="" x="-5" y="447.7968700700448">8000</text></g><g class="guides"><path class="major guide line" d="M0.000000 405.803780 h918.000000" /><text class="major" x="-5" y="409.30377989524834">10000</text></g><g class="guides"><path class="guide line" d="M0.000000 367.310690 h918.000000" /><text class="" x="-5" y="370.8106897204518">12000</text></g><g class="guides"><path class="guide line" d="M0.000000 328.817600 h918.000000" /><text class="" x="-5" y="332.31759954565536">14000</text></g><g class="guides"><path class="guide line" d="M0.000000 290.324509 h918.000000" /><text class="" x="-5" y="293.82450937085883">16000</text></g><g class="guides"><path class="guide line" d="M0.000000 251.831419 h918.000000" /><text class="" x="-5" y="255.33141919606237">18000</text></g><g class="guides"><path class="major guide line" d="M0.000000 213.338329 h918.000000" /><text class="major" x="-5" y="216.83832902126585">20000</text></g><g class="guides"><path class="guide line" d="M0.000000 174.845239 h918.000000" /><text class="" x="-5" y="178.34523884646939">22000</text></g><g class="guides"><path class="guide line" d="M0.000000 136.352149 h918.000000" /><text class="" x="-5" y="139.85214867167286">24000</text></g><g class="guides"><path class="guide line" d="M0.000000 97.859058 h918.000000" /><text class="" x="-5" y="101.3590584968764">26000</text></g><g class="guides"><path class="guide line" d="M0.000000 59.365968 h918.000000" /><text class="" x="-5" y="62.86596832207988">28000</text></g><g class="guides"><path class="major guide line" d="M0.000000 20.872878 h918.000000" /><text class="major" x="-5" y="24.37287814728336">30000</text></g></g><g class="series serie-0 color-0"><path class="line reactive nofill" d="M17.653846 598.269231 L20.105769 598.269231 22.557692 598.269231 25.009615 598.269231 27.461538 598.269231 29.913462 598.269231 32.365385 598.269231 34.817308 598.269231 37.269231 598.269231 39.721154 598.269231 42.173077 598.269231 44.625000 598.269231 47.076923 598.269231 49.528846 598.269231 51.980769 598.269231 54.432692 598.269231 56.884615 598.269231 59.336538 598.269231 61.788462 598.269231 64.240385 598.269231 66.692308 598.269231 69.144231 598.269231 71.596154 598.269231 74.048077 598.269231 76.500000 598.269231 78.951923 598.269231 81.403846 598.269231 83.855769 598.269231 86.307692 598.269231 88.759615 598.269231 91.211538 598.269231 93.663462 598.269231 96.115385 598.269231 98.567308 598.269231 101.019231 598.269231 103.471154 598.269231 105.923077 598.269231 108.375000 598.269231 110.826923 598.269231 113.278846 598.269231 115.730769 598.269231 118.182692 598.269231 120.634615 598.269231 123.086538 598.269231 125.538462 598.269231 127.990385 598.269231 130.442308 598.269231 132.894231 598.269231 135.346154 598.269231 137.798077 598.269231 140.250000 598.269231 142.701923 598.269231 145.153846 598.269231 147.605769 598.269231 150.057692 598.269231 152.509615 598.269231 154.961538 598.269231 157.413462 598.269231 159.865385 598.269231 162.317308 598.269231 164.769231 598.269231 167.221154 598.269231 169.673077 598.269231 172.125000 598.269231 174.576923 598.269231 177.028846 598.269231 179.480769 598.269231 181.932692 598.269231 184.384615 598.269231 186.836538 598.269231 189.288462 598.269231 191.740385 598.269231 194.192308 598.269231 196.644231 598.269231 199.096154 598.269231 201.548077 598.269231 204.000000 598.269231 206.451923 598.269231 208.903846 598.269231 211.355769 598.269231 213.807692 598.269231 216.259615 598.269231 218.711538 598.269231 221.163462 598.269231 223.615385 598.269231 226.067308 598.269231 228.519231 598.269231 230.971154 598.269231 233.423077 598.269231 235.875000 598.269231 238.326923 598.269231 240.778846 598.269231 243.230769 598.269231 245.682692 598.269231 248.134615 598.269231 250.586538 598.269231 253.038462 598.269231 255.490385 598.269231 257.942308 598.269231 260.394231 598.269231 262.846154 598.269231 265.298077 598.269231 267.750000 598.269231 270.201923 598.269231 272.653846 598.269231 275.105769 598.269231 277.557692 598.269231 280.009615 598.269231 282.461538 598.269231 284.913462 598.269231 287.365385 598.269231 289.817308 598.269231 292.269231 598.269231 294.721154 598.269231 297.173077 598.269231 299.625000 598.269231 302.076923 598.269231 304.528846 598.269231 306.980769 598.269231 309.432692 598.269231 311.884615 598.269231 314.336538 598.269231 316.788462 598.269231 319.240385 598.269231 321.692308 598.269231 324.144231 598.269231 326.596154 598.269231 329.048077 598.269231 331.500000 598.269231 333.951923 598.269231 336.403846 598.269231 338.855769 598.269231 341.307692 598.269231 343.759615 598.269231 346.211538 598.269231 348.663462 598.269231 351.115385 598.269231 353.567308 598.269231 356.019231 598.269231 358.471154 598.269231 360.923077 598.269231 363.375000 598.269231 365.826923 598.269231 368.278846 598.269231 370.730769 598.269231 373.182692 598.269231 375.634615 598.269231 378.086538 598.269231 380.538462 598.269231 382.990385 598.269231 385.442308 598.269231 387.894231 598.269231 390.346154 598.269231 392.798077 598.269231 395.250000 598.269231 397.701923 598.269231 400.153846 598.269231 402.605769 598.269231 405.057692 598.269231 407.509615 598.269231 409.961538 598.269231 412.413462 598.269231 414.865385 598.269231 417.317308 598.269231 419.769231 598.269231 422.221154 598.269231 424.673077 598.269231 427.125000 598.269231 429.576923 598.269231 432.028846 598.269231 434.480769 598.269231 436.932692 598.269231 439.384615 598.269231 441.836538 598.269231 444.288462 598.269231 446.740385 598.269231 449.192308 598.269231 451.644231 598.269231 454.096154 598.269231 456.548077 598.269231 459.000000 598.269231 461.451923 598.269231 463.903846 598.269231 466.355769 598.269231 468.807692 598.269231 471.259615 598.269231 473.711538 598.269231 476.163462 598.269231 478.615385 598.269231 481.067308 598.269231 483.519231 598.269231 485.971154 598.269231 488.423077 598.269231 490.875000 598.269231 493.326923 598.269231 495.778846 598.269231 498.230769 598.269231 500.682692 598.269231 503.134615 598.269231 505.586538 598.269231 508.038462 598.269231 510.490385 598.269231 512.942308 598.269231 515.394231 598.269231 517.846154 598.269231 520.298077 598.269231 522.750000 598.269231 525.201923 598.269231 527.653846 598.269231 530.105769 598.269231 532.557692 598.269231 535.009615 598.269231 537.461538 598.269231 539.913462 598.269231 542.365385 598.269231 544.817308 598.269231 547.269231 598.269231 549.721154 598.269231 552.173077 598.269231 554.625000 598.269231 557.076923 598.269231 559.528846 598.269231 561.980769 598.269231 564.432692 598.269231 566.884615 598.269231 569.336538 598.269231 571.788462 598.269231 574.240385 598.269231 576.692308 598.269231 579.144231 598.269231 581.596154 598.269231 584.048077 598.269231 586.500000 598.269231 588.951923 598.269231 591.403846 598.269231 593.855769 598.269231 596.307692 598.269231 598.759615 598.269231 601.211538 598.269231 603.663462 598.269231 606.115385 598.269231 608.567308 598.269231 611.019231 598.269231 613.471154 598.269231 615.923077 598.269231 618.375000 598.269231 620.826923 598.269231 623.278846 598.269231 625.730769 598.269231 628.182692 598.269231 630.634615 598.269231 633.086538 598.269231 635.538462 598.269231 637.990385 598.269231 640.442308 598.269231 642.894231 598.269231 645.346154 598.269231 647.798077 598.269231 650.250000 598.269231 652.701923 598.269231 655.153846 598.269231 657.605769 598.269231 660.057692 598.269231 662.509615 596.344576 664.961538 537.392409 667.413462 510.909163 669.865385 494.607339 672.317308 483.867767 674.769231 476.496340 677.221154 471.184294 679.673077 466.526630 682.125000 461.310816 684.576923 454.266580 687.028846 448.434877 689.480769 442.564681 691.932692 436.117088 694.384615 429.015113 696.836538 422.201836 699.288462 415.138354 701.740385 409.152679 704.192308 403.070770 706.644231 397.951189 709.096154 392.889348 711.548077 388.212438 714.000000 383.516281 716.451923 378.877863 718.903846 375.355746 721.355769 371.795135 723.807692 368.234524 726.259615 365.616994 728.711538 363.345901 731.163462 361.113302 733.615385 359.515839 736.067308 358.303307 738.519231 356.898309 740.971154 355.839749 743.423077 354.530984 745.875000 352.972014 748.326923 351.413043 750.778846 349.815580 753.230769 347.679214 755.682692 345.754559 758.134615 343.483467 760.586538 341.193128 763.038462 338.883543 765.490385 336.997381 767.942308 335.149713 770.394231 332.840127 772.846154 330.665268 775.298077 328.394176 777.750000 325.930618 780.201923 324.082949 782.653846 322.254528 785.105769 319.848710 787.557692 318.155014 790.009615 316.730769 792.461538 315.498990 794.913462 313.824541 797.365385 312.284817 799.817308 310.013725 802.269231 305.375308 804.721154 300.409699 807.173077 295.521077 809.625000 288.399855 812.076923 279.392472 814.528846 269.230296 816.980769 262.032088 819.432692 256.200385 821.884615 251.042311 824.336538 245.749511 826.788462 240.475958 829.240385 235.529596 831.692308 232.161450 834.144231 229.428441 836.596154 227.138102 839.048077 225.040228 841.500000 223.404272 843.951923 221.518111 846.403846 220.170853 848.855769 219.112293 851.307692 218.246198 853.759615 217.206885 856.211538 216.283050 858.663462 215.551682 861.115385 214.339149 863.567308 213.396069 866.019231 211.740866 868.471154 209.950937 870.923077 207.121695 873.375000 204.561904 875.826923 202.098347 878.278846 200.019720 880.730769 198.056572 883.182692 195.650754 885.634615 193.110210 888.086538 190.973844 890.538462 188.760491 892.990385 187.259260 895.442308 185.912002 897.894231 184.853442 900.346154 184.853442" /></g><g class="series serie-1 color-1"><path class="line reactive nofill" d="M17.653846 598.269231 L20.105769 598.269231 22.557692 598.269231 25.009615 598.269231 27.461538 598.269231 29.913462 598.269231 32.365385 598.269231 34.817308 598.269231 37.269231 598.269231 39.721154 598.269231 42.173077 598.269231 44.625000 598.269231 47.076923 598.269231 49.528846 598.269231 51.980769 598.269231 54.432692 598.269231 56.884615 598.269231 59.336538 598.269231 61.788462 598.269231 64.240385 598.269231 66.692308 598.269231 69.144231 598.269231 71.596154 598.269231 74.048077 598.269231 76.500000 598.269231 78.951923 598.269231 81.403846 598.269231 83.855769 598.269231 86.307692 598.269231 88.759615 598.269231 91.211538 598.269231 93.663462 598.269231 96.115385 598.269231 98.567308 598.269231 101.019231 598.269231 103.471154 598.269231 105.923077 598.269231 108.375000 598.269231 110.826923 598.269231 113.278846 598.269231 115.730769 598.269231 118.182692 598.269231 120.634615 598.269231 123.086538 598.269231 125.538462 598.269231 127.990385 598.269231 130.442308 598.269231 132.894231 598.269231 135.346154 598.269231 137.798077 598.269231 140.250000 598.269231 142.701923 598.269231 145.153846 598.269231 147.605769 598.269231 150.057692 598.269231 152.509615 598.269231 154.961538 598.269231 157.413462 598.269231 159.865385 598.269231 162.317308 598.269231 164.769231 598.269231 167.221154 598.269231 169.673077 598.269231 172.125000 598.269231 174.576923 598.269231 177.028846 598.269231 179.480769 598.269231 181.932692 598.269231 184.384615 598.269231 186.836538 598.269231 189.288462 598.269231 191.740385 598.269231 194.192308 598.269231 196.644231 598.269231 199.096154 598.269231 201.548077 598.269231 204.000000 598.269231 206.451923 598.269231 208.903846 598.269231 211.355769 598.269231 213.807692 598.269231 216.259615 598.269231 218.711538 598.269231 221.163462 598.269231 223.615385 598.269231 226.067308 598.269231 228.519231 598.269231 230.971154 598.269231 233.423077 598.269231 235.875000 598.269231 238.326923 598.269231 240.778846 598.269231 243.230769 598.269231 245.682692 598.269231 248.134615 598.269231 250.586538 598.269231 253.038462 598.269231 255.490385 598.269231 257.942308 598.269231 260.394231 598.269231 262.846154 598.269231 265.298077 598.269231 267.750000 598.269231 270.201923 598.269231 272.653846 598.269231 275.105769 598.269231 277.557692 598.269231 280.009615 598.269231 282.461538 598.269231 284.913462 598.269231 287.365385 598.269231 289.817308 598.269231 292.269231 598.269231 294.721154 598.269231 297.173077 598.269231 299.625000 598.269231 302.076923 598.269231 304.528846 598.269231 306.980769 598.269231 309.432692 598.269231 311.884615 598.269231 314.336538 598.269231 316.788462 598.269231 319.240385 598.269231 321.692308 598.269231 324.144231 598.269231 326.596154 598.269231 329.048077 598.269231 331.500000 598.269231 333.951923 598.269231 336.403846 598.269231 338.855769 598.269231 341.307692 598.269231 343.759615 598.269231 346.211538 598.269231 348.663462 598.269231 351.115385 598.269231 353.567308 598.269231 356.019231 598.269231 358.471154 598.269231 360.923077 598.269231 363.375000 598.269231 365.826923 598.269231 368.278846 598.269231 370.730769 598.269231 373.182692 598.269231 375.634615 598.269231 378.086538 598.269231 380.538462 598.269231 382.990385 598.269231 385.442308 598.269231 387.894231 598.269231 390.346154 598.269231 392.798077 598.269231 395.250000 598.269231 397.701923 598.269231 400.153846 598.269231 402.605769 598.269231 405.057692 598.269231 407.509615 598.269231 409.961538 598.269231 412.413462 598.269231 414.865385 598.269231 417.317308 598.269231 419.769231 598.269231 422.221154 598.269231 424.673077 598.269231 427.125000 598.269231 429.576923 598.269231 432.028846 598.269231 434.480769 598.269231 436.932692 598.269231 439.384615 598.269231 441.836538 598.269231 444.288462 598.269231 446.740385 598.269231 449.192308 598.269231 451.644231 598.269231 454.096154 598.269231 456.548077 598.269231 459.000000 598.269231 461.451923 598.269231 463.903846 598.269231 466.355769 598.269231 468.807692 598.269231 471.259615 598.269231 473.711538 598.269231 476.163462 598.269231 478.615385 598.269231 481.067308 598.269231 483.519231 598.269231 485.971154 598.269231 488.423077 598.269231 490.875000 598.269231 493.326923 598.269231 495.778846 598.269231 498.230769 598.269231 500.682692 598.269231 503.134615 598.269231 505.586538 598.269231 508.038462 598.269231 510.490385 598.269231 512.942308 598.269231 515.394231 598.269231 517.846154 598.269231 520.298077 598.269231 522.750000 598.269231 525.201923 598.269231 527.653846 598.269231 530.105769 598.269231 532.557692 598.269231 535.009615 598.269231 537.461538 598.269231 539.913462 598.269231 542.365385 598.269231 544.817308 598.269231 547.269231 598.269231 549.721154 598.269231 552.173077 598.269231 554.625000 598.269231 557.076923 598.269231 559.528846 598.269231 561.980769 598.269231 564.432692 598.269231 566.884615 598.269231 569.336538 598.269231 571.788462 598.269231 574.240385 598.269231 576.692308 598.269231 579.144231 598.269231 581.596154 598.269231 584.048077 598.269231 586.500000 598.269231 588.951923 598.269231 591.403846 598.269231 593.855769 598.269231 596.307692 598.269231 598.759615 598.269231 601.211538 598.269231 603.663462 598.269231 606.115385 598.269231 608.567308 598.269231 611.019231 598.269231 613.471154 598.269231 615.923077 598.269231 618.375000 598.269231 620.826923 598.269231 623.278846 598.269231 625.730769 598.269231 628.182692 598.269231 630.634615 598.269231 633.086538 598.269231 635.538462 598.269231 637.990385 598.269231 640.442308 598.269231 642.894231 598.269231 645.346154 598.269231 647.798077 598.269231 650.250000 598.269231 652.701923 598.269231 655.153846 598.269231 657.605769 598.269231 660.057692 598.269231 662.509615 598.269231 664.961538 536.603300 667.413462 508.214646 669.865385 492.470972 672.317308 483.155645 674.769231 475.899697 677.221154 469.490598 679.673077 463.716634 682.125000 457.038083 684.576923 448.165426 687.028846 439.465987 689.480769 430.862782 691.932692 420.989304 694.384615 412.309112 696.836538 402.474128 699.288462 393.562977 701.740385 386.364769 704.192308 379.474506 706.644231 372.718969 709.096154 366.290623 711.548077 360.381933 714.000000 355.320092 716.451923 349.546129 718.903846 345.100177 721.355769 339.865116 723.807692 336.285259 726.259615 333.340538 728.711538 331.050199 731.163462 329.106298 733.615385 327.701300 736.067308 326.161576 738.519231 324.737332 740.971154 323.447813 743.423077 322.062062 745.875000 320.041175 748.326923 317.231179 750.778846 314.652142 753.230769 311.264750 755.682692 308.531741 758.134615 305.279075 760.586538 302.045655 763.038462 299.197167 765.490385 296.271692 767.942308 293.885120 770.394231 290.863413 772.846154 287.918691 775.298077 285.070203 777.750000 282.279454 780.201923 279.661923 782.653846 277.390831 785.105769 275.004259 787.557692 273.252824 790.009615 271.077964 792.461538 268.980091 794.913462 266.593519 797.365385 264.014482 799.817308 261.204487 802.269231 255.661482 804.721154 247.847384 807.173077 236.896100 809.625000 222.634410 812.076923 209.585253 814.528846 197.325204 816.980769 189.357134 819.432692 182.332145 821.884615 173.805925 824.336538 165.010254 826.788462 156.734240 829.240385 150.382880 831.692308 145.936928 834.144231 142.761248 836.596154 139.258377 839.048077 135.947971 841.500000 133.426674 843.951923 130.809144 846.403846 129.461886 848.855769 128.480312 851.307692 127.152300 853.759615 126.228466 856.211538 125.285385 858.663462 124.207579 861.115385 122.744841 863.567308 120.762447 866.019231 117.663753 868.471154 113.641225 870.923077 109.849656 873.375000 106.327538 875.826923 103.074872 878.278846 99.995425 880.730769 96.954471 883.182692 93.239888 885.634615 90.160440 888.086538 86.984761 890.538462 84.540449 892.990385 82.307850 895.442308 80.306209 897.894231 78.208336 900.346154 78.208336" /></g><g class="series serie-2 color-2"><path class="line reactive nofill" d="M17.653846 598.269231 L20.105769 598.269231 22.557692 598.269231 25.009615 598.269231 27.461538 598.269231 29.913462 598.269231 32.365385 598.269231 34.817308 598.269231 37.269231 598.269231 39.721154 598.269231 42.173077 598.269231 44.625000 598.269231 47.076923 598.269231 49.528846 598.269231 51.980769 598.269231 54.432692 598.269231 56.884615 598.269231 59.336538 598.269231 61.788462 598.269231 64.240385 598.269231 66.692308 598.269231 69.144231 598.269231 71.596154 598.269231 74.048077 598.269231 76.500000 598.269231 78.951923 598.269231 81.403846 598.269231 83.855769 598.269231 86.307692 598.269231 88.759615 598.269231 91.211538 598.269231 93.663462 598.269231 96.115385 598.269231 98.567308 598.269231 101.019231 598.269231 103.471154 598.269231 105.923077 598.269231 108.375000 598.269231 110.826923 598.269231 113.278846 598.269231 115.730769 598.269231 118.182692 598.269231 120.634615 598.269231 123.086538 598.269231 125.538462 598.269231 127.990385 598.269231 130.442308 598.269231 132.894231 598.269231 135.346154 598.269231 137.798077 598.269231 140.250000 598.269231 142.701923 598.269231 145.153846 598.269231 147.605769 598.269231 150.057692 598.269231 152.509615 598.269231 154.961538 598.269231 157.413462 598.269231 159.865385 598.269231 162.317308 598.269231 164.769231 598.269231 167.221154 598.269231 169.673077 598.269231 172.125000 598.269231 174.576923 598.269231 177.028846 598.269231 179.480769 598.269231 181.932692 598.269231 184.384615 598.269231 186.836538 598.269231 189.288462 598.269231 191.740385 598.269231 194.192308 598.269231 196.644231 598.269231 199.096154 598.269231 201.548077 598.269231 204.000000 598.269231 206.451923 598.269231 208.903846 598.269231 211.355769 598.269231 213.807692 598.269231 216.259615 598.269231 218.711538 598.269231 221.163462 598.269231 223.615385 598.269231 226.067308 598.269231 228.519231 598.269231 230.971154 598.269231 233.423077 598.269231 235.875000 598.269231 238.326923 598.269231 240.778846 598.269231 243.230769 598.269231 245.682692 598.269231 248.134615 598.269231 250.586538 598.269231 253.038462 598.269231 255.490385 598.269231 257.942308 598.269231 260.394231 598.269231 262.846154 598.269231 265.298077 598.269231 267.750000 598.269231 270.201923 598.269231 272.653846 598.269231 275.105769 598.269231 277.557692 598.269231 280.009615 598.269231 282.461538 598.269231 284.913462 598.269231 287.365385 598.269231 289.817308 598.269231 292.269231 598.269231 294.721154 598.269231 297.173077 598.269231 299.625000 598.269231 302.076923 598.269231 304.528846 598.269231 306.980769 598.269231 309.432692 598.269231 311.884615 598.269231 314.336538 598.269231 316.788462 598.269231 319.240385 598.269231 321.692308 598.269231 324.144231 598.269231 326.596154 598.269231 329.048077 598.269231 331.500000 598.269231 333.951923 598.269231 336.403846 598.269231 338.855769 598.269231 341.307692 598.269231 343.759615 598.269231 346.211538 598.269231 348.663462 598.269231 351.115385 598.269231 353.567308 598.269231 356.019231 598.269231 358.471154 598.269231 360.923077 598.269231 363.375000 598.269231 365.826923 598.269231 368.278846 598.269231 370.730769 598.269231 373.182692 598.269231 375.634615 598.269231 378.086538 598.269231 380.538462 598.269231 382.990385 598.269231 385.442308 598.269231 387.894231 598.269231 390.346154 598.269231 392.798077 598.269231 395.250000 598.269231 397.701923 598.269231 400.153846 598.269231 402.605769 598.269231 405.057692 598.269231 407.509615 598.269231 409.961538 598.269231 412.413462 598.269231 414.865385 598.269231 417.317308 598.269231 419.769231 598.269231 422.221154 598.269231 424.673077 598.269231 427.125000 598.269231 429.576923 598.269231 432.028846 598.269231 434.480769 598.269231 436.932692 598.269231 439.384615 598.269231 441.836538 598.269231 444.288462 598.269231 446.740385 598.269231 449.192308 598.269231 451.644231 598.269231 454.096154 598.269231 456.548077 598.269231 459.000000 598.269231 461.451923 598.269231 463.903846 598.269231 466.355769 598.269231 468.807692 598.269231 471.259615 598.269231 473.711538 598.269231 476.163462 598.269231 478.615385 598.269231 481.067308 598.269231 483.519231 598.269231 485.971154 598.269231 488.423077 598.269231 490.875000 598.269231 493.326923 598.269231 495.778846 598.269231 498.230769 598.269231 500.682692 598.269231 503.134615 598.269231 505.586538 598.269231 508.038462 598.269231 510.490385 598.269231 512.942308 598.269231 515.394231 598.269231 517.846154 598.269231 520.298077 598.269231 522.750000 598.269231 525.201923 598.269231 527.653846 598.269231 530.105769 598.269231 532.557692 598.269231 535.009615 598.269231 537.461538 598.269231 539.913462 598.269231 542.365385 598.269231 544.817308 598.269231 547.269231 598.269231 549.721154 598.269231 552.173077 598.269231 554.625000 598.269231 557.076923 598.269231 559.528846 598.269231 561.980769 598.269231 564.432692 598.269231 566.884615 598.269231 569.336538 598.269231 571.788462 598.269231 574.240385 598.269231 576.692308 598.269231 579.144231 598.269231 581.596154 598.269231 584.048077 598.269231 586.500000 598.269231 588.951923 598.269231 591.403846 598.269231 593.855769 598.269231 596.307692 598.269231 598.759615 598.269231 601.211538 598.269231 603.663462 598.269231 606.115385 598.269231 608.567308 598.269231 611.019231 598.269231 613.471154 598.269231 615.923077 598.269231 618.375000 598.269231 620.826923 598.269231 623.278846 598.269231 625.730769 598.269231 628.182692 598.269231 630.634615 598.269231 633.086538 598.269231 635.538462 598.269231 637.990385 598.269231 640.442308 598.269231 642.894231 598.269231 645.346154 598.269231 647.798077 598.269231 650.250000 598.269231 652.701923 598.269231 655.153846 598.269231 657.605769 598.269231 660.057692 598.269231 662.509615 598.269231 664.961538 541.241718 667.413462 509.638891 669.865385 492.143781 672.317308 480.461128 674.769231 472.897236 677.221154 466.314918 679.673077 461.118350 682.125000 454.920963 684.576923 446.933647 687.028846 438.927084 689.480769 431.170726 691.932692 423.452862 694.384615 415.561778 696.836538 407.574462 699.288462 398.490093 701.740385 390.425790 704.192308 382.534707 706.644231 375.952388 709.096154 370.370890 711.548077 363.827065 714.000000 358.303307 716.451923 352.991260 718.903846 348.198870 721.355769 343.329495 723.807692 339.807377 726.259615 335.611630 728.711538 332.878621 731.163462 330.376570 733.615385 328.471162 736.067308 326.892945 738.519231 325.180003 740.971154 323.755758 743.423077 322.543226 745.875000 320.811037 748.326923 318.924875 750.778846 316.788509 753.230769 313.920774 755.682692 311.014545 758.134615 307.896605 760.586538 304.624692 763.038462 301.737711 765.490385 298.138607 767.942308 295.732789 770.394231 292.403136 772.846154 289.323689 775.298077 286.321228 777.750000 283.261027 780.201923 280.605004 782.653846 277.833502 785.105769 275.523916 787.557692 272.790907 790.009615 270.962485 792.461538 268.633653 794.913462 266.593519 797.365385 263.899003 799.817308 261.627911 802.269231 256.874014 804.721154 250.368682 807.173077 242.400612 809.625000 233.181517 812.076923 217.938253 814.528846 204.446425 816.980769 192.301855 819.432692 182.389885 821.884615 174.152363 824.336538 165.895595 826.788462 158.697388 829.240385 151.422193 831.692308 145.859942 834.144231 141.587209 836.596154 138.430776 839.048077 135.216603 841.500000 131.906197 843.951923 129.230927 846.403846 126.825109 848.855769 125.112166 851.307692 123.995867 853.759615 122.744841 856.211538 121.243611 858.663462 119.896353 861.115385 118.279643 863.567308 116.124030 866.019231 114.199375 868.471154 110.946709 870.923077 107.386098 873.375000 103.729255 875.826923 99.341042 878.278846 96.550293 880.730769 93.143655 883.182692 89.486811 885.634615 86.542090 888.086538 83.154698 890.538462 80.248470 892.990385 78.150596 895.442308 75.802518 897.894231 74.051082 900.346154 73.877863" /></g><g class="series serie-3 color-3"><path class="line reactive nofill" d="M17.653846 598.269231 L20.105769 598.269231 22.557692 598.269231 25.009615 598.269231 27.461538 598.269231 29.913462 598.269231 32.365385 598.269231 34.817308 598.269231 37.269231 598.269231 39.721154 598.269231 42.173077 598.269231 44.625000 598.269231 47.076923 598.269231 49.528846 598.269231 51.980769 598.269231 54.432692 598.269231 56.884615 598.269231 59.336538 598.269231 61.788462 598.269231 64.240385 598.269231 66.692308 598.269231 69.144231 598.269231 71.596154 598.269231 74.048077 598.269231 76.500000 598.269231 78.951923 598.269231 81.403846 598.269231 83.855769 598.269231 86.307692 598.269231 88.759615 598.269231 91.211538 598.269231 93.663462 598.269231 96.115385 598.269231 98.567308 598.269231 101.019231 598.269231 103.471154 598.269231 105.923077 598.269231 108.375000 598.269231 110.826923 598.269231 113.278846 598.269231 115.730769 598.269231 118.182692 598.269231 120.634615 598.269231 123.086538 598.269231 125.538462 598.269231 127.990385 598.269231 130.442308 598.269231 132.894231 598.269231 135.346154 598.269231 137.798077 598.269231 140.250000 598.269231 142.701923 598.269231 145.153846 598.269231 147.605769 598.269231 150.057692 598.269231 152.509615 598.269231 154.961538 598.269231 157.413462 598.269231 159.865385 598.269231 162.317308 598.269231 164.769231 598.269231 167.221154 598.269231 169.673077 598.269231 172.125000 598.269231 174.576923 598.269231 177.028846 598.269231 179.480769 598.269231 181.932692 598.269231 184.384615 598.269231 186.836538 598.269231 189.288462 598.269231 191.740385 598.269231 194.192308 598.269231 196.644231 598.269231 199.096154 598.269231 201.548077 598.269231 204.000000 598.269231 206.451923 598.269231 208.903846 598.269231 211.355769 598.269231 213.807692 598.269231 216.259615 598.269231 218.711538 598.269231 221.163462 598.269231 223.615385 598.269231 226.067308 598.269231 228.519231 598.269231 230.971154 598.269231 233.423077 598.269231 235.875000 598.269231 238.326923 598.269231 240.778846 598.269231 243.230769 598.269231 245.682692 598.269231 248.134615 598.269231 250.586538 598.269231 253.038462 598.269231 255.490385 598.269231 257.942308 598.269231 260.394231 598.269231 262.846154 598.269231 265.298077 598.269231 267.750000 598.269231 270.201923 598.269231 272.653846 598.269231 275.105769 598.269231 277.557692 598.269231 280.009615 598.269231 282.461538 598.269231 284.913462 598.269231 287.365385 598.269231 289.817308 598.269231 292.269231 598.269231 294.721154 598.269231 297.173077 598.269231 299.625000 598.269231 302.076923 598.269231 304.528846 598.269231 306.980769 598.269231 309.432692 598.269231 311.884615 598.269231 314.336538 598.269231 316.788462 598.269231 319.240385 598.269231 321.692308 598.269231 324.144231 598.269231 326.596154 598.269231 329.048077 598.269231 331.500000 598.269231 333.951923 598.269231 336.403846 598.269231 338.855769 598.269231 341.307692 598.269231 343.759615 598.269231 346.211538 598.269231 348.663462 598.269231 351.115385 598.269231 353.567308 598.269231 356.019231 598.269231 358.471154 598.269231 360.923077 598.269231 363.375000 598.269231 365.826923 598.269231 368.278846 598.269231 370.730769 598.269231 373.182692 598.269231 375.634615 598.269231 378.086538 598.269231 380.538462 598.269231 382.990385 598.269231 385.442308 598.269231 387.894231 598.269231 390.346154 598.269231 392.798077 598.269231 395.250000 598.269231 397.701923 598.269231 400.153846 598.269231 402.605769 598.269231 405.057692 598.269231 407.509615 598.269231 409.961538 598.269231 412.413462 598.269231 414.865385 598.269231 417.317308 598.269231 419.769231 598.269231 422.221154 598.269231 424.673077 598.269231 427.125000 598.269231 429.576923 598.269231 432.028846 598.269231 434.480769 598.269231 436.932692 598.269231 439.384615 598.269231 441.836538 598.269231 444.288462 598.269231 446.740385 598.269231 449.192308 598.269231 451.644231 598.269231 454.096154 598.269231 456.548077 598.269231 459.000000 598.269231 461.451923 598.269231 463.903846 598.269231 466.355769 598.269231 468.807692 598.269231 471.259615 598.269231 473.711538 598.269231 476.163462 598.269231 478.615385 598.269231 481.067308 598.269231 483.519231 598.269231 485.971154 598.269231 488.423077 598.269231 490.875000 598.269231 493.326923 598.269231 495.778846 598.269231 498.230769 598.269231 500.682692 598.269231 503.134615 598.269231 505.586538 598.269231 508.038462 598.269231 510.490385 598.269231 512.942308 598.269231 515.394231 598.269231 517.846154 598.269231 520.298077 598.269231 522.750000 598.269231 525.201923 598.269231 527.653846 598.269231 530.105769 598.269231 532.557692 598.269231 535.009615 598.269231 537.461538 598.269231 539.913462 598.269231 542.365385 598.269231 544.817308 598.269231 547.269231 598.269231 549.721154 598.269231 552.173077 598.269231 554.625000 598.269231 557.076923 598.269231 559.528846 598.269231 561.980769 598.269231 564.432692 598.269231 566.884615 598.269231 569.336538 598.269231 571.788462 598.269231 574.240385 598.269231 576.692308 598.269231 579.144231 598.269231 581.596154 598.269231 584.048077 598.269231 586.500000 598.269231 588.951923 598.269231 591.403846 598.269231 593.855769 598.269231 596.307692 598.269231 598.759615 598.269231 601.211538 598.269231 603.663462 598.269231 606.115385 598.269231 608.567308 598.269231 611.019231 598.269231 613.471154 598.269231 615.923077 598.269231 618.375000 598.269231 620.826923 598.269231 623.278846 598.269231 625.730769 598.269231 628.182692 598.269231 630.634615 598.269231 633.086538 598.269231 635.538462 598.269231 637.990385 598.269231 640.442308 598.269231 642.894231 598.269231 645.346154 598.269231 647.798077 598.269231 650.250000 598.269231 652.701923 598.269231 655.153846 598.269231 657.605769 598.269231 660.057692 598.269231 662.509615 598.269231 664.961538 539.451789 667.413462 509.080741 669.865385 488.429198 672.317308 475.072096 674.769231 466.719095 677.221154 459.443901 679.673077 454.401306 682.125000 447.645769 684.576923 439.427494 687.028846 430.708809 689.480769 422.317316 691.932692 413.637124 694.384615 404.572001 696.836538 394.063387 699.288462 385.325456 701.740385 376.760743 704.192308 368.754181 706.644231 360.401180 709.096154 353.664889 711.548077 347.159557 714.000000 339.537925 716.451923 334.341358 718.903846 329.298763 721.355769 324.390894 723.807692 320.175901 726.259615 316.037894 728.711538 313.247145 731.163462 310.937559 733.615385 308.839686 736.067308 307.088250 738.519231 305.721745 740.971154 304.220515 743.423077 302.372847 745.875000 300.448192 748.326923 298.273332 750.778846 295.444090 753.230769 292.403136 755.682692 289.073484 758.134615 285.224175 760.586538 281.817536 763.038462 279.084527 765.490385 275.292958 767.942308 271.905566 770.394231 268.575913 772.846154 265.304001 775.298077 261.704897 777.750000 259.125860 780.201923 256.277371 782.653846 253.236417 785.105769 249.849025 787.557692 247.250741 790.009615 244.825677 792.461538 242.362119 794.913462 239.590617 797.365385 236.626649 799.817308 234.047612 802.269231 227.253581 804.721154 219.324005 807.173077 210.393608 809.625000 198.345270 812.076923 182.505364 814.528846 164.875528 816.980769 150.267401 819.432692 140.143718 821.884615 130.866883 824.336538 121.051145 826.788462 111.466366 829.240385 103.536789 831.692308 97.666593 834.144231 93.066669 836.596154 89.371332 839.048077 86.195652 841.500000 83.308670 843.951923 80.594908 846.403846 78.593267 848.855769 76.995804 851.307692 75.821764 853.759615 74.570739 856.211538 73.377453 858.663462 72.203414 861.115385 70.817663 863.567308 68.488831 866.019231 65.351644 868.471154 62.195210 870.923077 58.249669 873.375000 53.438032 875.826923 49.973654 878.278846 45.469963 880.730769 41.774626 883.182692 38.060043 885.634615 33.286900 888.086538 29.187386 890.538462 26.646842 892.990385 23.066984 895.442308 20.853632 897.894231 18.293841 900.346154 18.197608" /></g><g class="series serie-4 color-4"><path class="line reactive nofill" d="M17.653846 598.269231 L20.105769 598.269231 22.557692 598.269231 25.009615 598.269231 27.461538 598.269231 29.913462 598.269231 32.365385 598.269231 34.817308 598.269231 37.269231 598.269231 39.721154 598.269231 42.173077 598.269231 44.625000 598.269231 47.076923 598.269231 49.528846 598.269231 51.980769 598.269231 54.432692 598.269231 56.884615 598.269231 59.336538 598.269231 61.788462 598.269231 64.240385 598.269231 66.692308 598.269231 69.144231 598.269231 71.596154 598.269231 74.048077 598.269231 76.500000 598.269231 78.951923 598.269231 81.403846 598.269231 83.855769 598.269231 86.307692 598.269231 88.759615 598.269231 91.211538 598.269231 93.663462 598.269231 96.115385 598.269231 98.567308 598.269231 101.019231 598.269231 103.471154 598.269231 105.923077 598.269231 108.375000 598.269231 110.826923 598.269231 113.278846 598.269231 115.730769 598.269231 118.182692 598.269231 120.634615 598.269231 123.086538 598.269231 125.538462 598.269231 127.990385 598.269231 130.442308 598.269231 132.894231 598.269231 135.346154 598.269231 137.798077 598.269231 140.250000 598.269231 142.701923 598.269231 145.153846 598.269231 147.605769 598.269231 150.057692 598.269231 152.509615 598.269231 154.961538 598.269231 157.413462 598.269231 159.865385 598.269231 162.317308 598.269231 164.769231 598.269231 167.221154 598.269231 169.673077 598.269231 172.125000 598.269231 174.576923 598.269231 177.028846 598.269231 179.480769 598.269231 181.932692 598.269231 184.384615 598.269231 186.836538 598.269231 189.288462 598.269231 191.740385 598.269231 194.192308 598.269231 196.644231 598.269231 199.096154 598.269231 201.548077 598.269231 204.000000 598.269231 206.451923 598.269231 208.903846 598.269231 211.355769 598.269231 213.807692 598.269231 216.259615 598.269231 218.711538 598.269231 221.163462 598.269231 223.615385 598.269231 226.067308 598.269231 228.519231 598.269231 230.971154 598.269231 233.423077 598.269231 235.875000 598.269231 238.326923 598.269231 240.778846 598.269231 243.230769 598.269231 245.682692 598.269231 248.134615 598.269231 250.586538 598.269231 253.038462 598.269231 255.490385 598.269231 257.942308 598.269231 260.394231 598.269231 262.846154 598.269231 265.298077 598.269231 267.750000 598.269231 270.201923 598.269231 272.653846 598.269231 275.105769 598.269231 277.557692 598.269231 280.009615 598.269231 282.461538 598.269231 284.913462 598.269231 287.365385 598.269231 289.817308 598.269231 292.269231 598.269231 294.721154 598.269231 297.173077 598.269231 299.625000 598.269231 302.076923 598.269231 304.528846 598.269231 306.980769 598.269231 309.432692 598.269231 311.884615 598.269231 314.336538 598.269231 316.788462 598.269231 319.240385 598.269231 321.692308 598.269231 324.144231 598.269231 326.596154 598.269231 329.048077 598.269231 331.500000 598.269231 333.951923 598.269231 336.403846 598.269231 338.855769 598.269231 341.307692 598.269231 343.759615 598.269231 346.211538 598.269231 348.663462 598.269231 351.115385 598.269231 353.567308 598.269231 356.019231 598.269231 358.471154 598.269231 360.923077 598.269231 363.375000 598.269231 365.826923 598.269231 368.278846 598.269231 370.730769 598.269231 373.182692 598.269231 375.634615 598.269231 378.086538 598.269231 380.538462 598.269231 382.990385 598.269231 385.442308 598.269231 387.894231 598.269231 390.346154 598.269231 392.798077 598.269231 395.250000 598.269231 397.701923 598.269231 400.153846 598.269231 402.605769 598.269231 405.057692 598.269231 407.509615 598.269231 409.961538 598.269231 412.413462 598.269231 414.865385 598.269231 417.317308 598.269231 419.769231 598.269231 422.221154 598.269231 424.673077 598.269231 427.125000 598.269231 429.576923 598.269231 432.028846 598.269231 434.480769 598.269231 436.932692 598.269231 439.384615 598.269231 441.836538 598.269231 444.288462 598.269231 446.740385 598.269231 449.192308 598.269231 451.644231 598.269231 454.096154 598.269231 456.548077 598.269231 459.000000 598.269231 461.451923 598.269231 463.903846 598.269231 466.355769 598.269231 468.807692 598.269231 471.259615 598.269231 473.711538 598.269231 476.163462 598.269231 478.615385 598.269231 481.067308 598.269231 483.519231 598.269231 485.971154 598.269231 488.423077 598.269231 490.875000 598.269231 493.326923 598.269231 495.778846 598.269231 498.230769 598.269231 500.682692 598.269231 503.134615 598.269231 505.586538 598.269231 508.038462 598.269231 510.490385 598.269231 512.942308 598.269231 515.394231 598.269231 517.846154 598.269231 520.298077 598.269231 522.750000 598.269231 525.201923 598.269231 527.653846 598.269231 530.105769 598.269231 532.557692 598.269231 535.009615 598.269231 537.461538 598.269231 539.913462 598.269231 542.365385 598.269231 544.817308 598.269231 547.269231 598.269231 549.721154 598.269231 552.173077 598.269231 554.625000 598.269231 557.076923 598.269231 559.528846 598.269231 561.980769 598.269231 564.432692 598.269231 566.884615 598.269231 569.336538 598.269231 571.788462 598.269231 574.240385 598.269231 576.692308 598.269231 579.144231 598.269231 581.596154 598.269231 584.048077 598.269231 586.500000 598.269231 588.951923 598.269231 591.403846 598.269231 593.855769 598.269231 596.307692 598.269231 598.759615 598.269231 601.211538 598.269231 603.663462 598.269231 606.115385 598.269231 608.567308 598.269231 611.019231 598.269231 613.471154 598.269231 615.923077 598.269231 618.375000 598.269231 620.826923 598.269231 623.278846 598.269231 625.730769 598.269231 628.182692 598.269231 630.634615 598.269231 633.086538 598.269231 635.538462 598.269231 637.990385 598.269231 640.442308 598.269231 642.894231 598.269231 645.346154 598.269231 647.798077 598.269231 650.250000 598.269231 652.701923 598.269231 655.153846 598.269231 657.605769 598.269231 660.057692 598.269231 662.509615 595.978892 664.961538 540.799047 667.413462 516.567647 669.865385 501.593835 672.317308 492.278507 674.769231 485.792421 677.221154 480.711333 679.673077 473.493879 682.125000 465.545056 684.576923 455.094182 687.028846 442.968858 689.480769 431.959835 691.932692 421.008551 694.384615 410.769389 696.836538 401.280842 699.288462 393.216539 701.740385 384.440115 704.192308 377.164921 706.644231 369.678015 709.096154 362.345081 711.548077 357.340979 714.000000 350.450716 716.451923 344.349561 718.903846 339.807377 721.355769 334.476084 723.807692 330.530542 726.259615 327.393355 728.711538 324.852811 731.163462 322.851171 733.615385 321.176721 736.067308 319.790970 738.519231 318.578438 740.971154 316.980974 743.423077 314.709882 745.875000 312.015366 748.326923 309.109137 750.778846 305.548527 753.230769 301.891683 755.682692 297.849909 758.134615 293.846627 760.586538 290.863413 763.038462 287.899445 765.490385 284.184861 767.942308 281.182400 770.394231 277.891241 772.846154 275.081246 775.298077 271.751593 777.750000 268.922351 780.201923 265.746671 782.653846 262.975169 785.105769 260.627090 787.557692 258.067300 790.009615 256.123399 792.461538 253.736827 794.913462 251.003818 797.365385 247.808891 799.817308 244.498486 802.269231 237.665962 804.721154 227.850224 807.173077 212.337509 809.625000 193.976305 812.076923 177.828453 814.528846 165.260459 816.980769 151.460687 819.432692 142.010633 821.884615 131.155581 824.336538 120.416009 826.788462 110.946709 829.240385 103.767748 831.692308 98.417208 834.144231 93.201395 836.596154 88.947908 839.048077 85.214078 841.500000 81.441756 843.951923 79.055184 846.403846 77.034297 848.855769 75.571559 851.307692 74.512999 853.759615 73.281220 856.211538 71.933962 858.663462 70.317252 861.115385 68.739036 863.567308 65.736575 866.019231 61.771786 868.471154 56.729192 870.923077 52.225500 873.375000 46.855714 875.826923 42.390516 878.278846 38.502713 880.730769 34.306967 883.182692 29.610810 885.634615 25.607528 888.086538 21.661986 890.538462 19.352401 892.990385 16.696378 895.442308 14.213574 897.894231 11.730769 900.346154 11.730769" /></g><g class="series serie-5 color-5"><path class="line reactive nofill" d="M17.653846 598.269231 L20.105769 598.269231 22.557692 598.269231 25.009615 598.269231 27.461538 598.269231 29.913462 598.269231 32.365385 598.269231 34.817308 598.269231 37.269231 598.269231 39.721154 598.269231 42.173077 598.269231 44.625000 598.269231 47.076923 598.269231 49.528846 598.269231 51.980769 598.269231 54.432692 598.269231 56.884615 598.269231 59.336538 598.269231 61.788462 598.269231 64.240385 598.269231 66.692308 598.269231 69.144231 598.269231 71.596154 598.269231 74.048077 598.269231 76.500000 598.269231 78.951923 598.269231 81.403846 598.269231 83.855769 598.269231 86.307692 598.269231 88.759615 598.269231 91.211538 598.269231 93.663462 598.269231 96.115385 598.269231 98.567308 598.269231 101.019231 598.269231 103.471154 598.269231 105.923077 598.269231 108.375000 598.269231 110.826923 598.269231 113.278846 598.269231 115.730769 598.269231 118.182692 598.269231 120.634615 598.269231 123.086538 598.269231 125.538462 598.269231 127.990385 598.269231 130.442308 598.269231 132.894231 598.269231 135.346154 598.269231 137.798077 598.269231 140.250000 598.269231 142.701923 598.269231 145.153846 598.269231 147.605769 598.269231 150.057692 598.269231 152.509615 598.269231 154.961538 598.269231 157.413462 598.269231 159.865385 598.269231 162.317308 598.269231 164.769231 598.269231 167.221154 598.269231 169.673077 598.269231 172.125000 598.269231 174.576923 598.269231 177.028846 598.269231 179.480769 598.269231 181.932692 598.269231 184.384615 598.269231 186.836538 598.269231 189.288462 598.269231 191.740385 598.269231 194.192308 598.269231 196.644231 598.269231 199.096154 598.269231 201.548077 598.269231 204.000000 598.269231 206.451923 598.269231 208.903846 598.269231 211.355769 598.269231 213.807692 598.269231 216.259615 598.269231 218.711538 598.269231 221.163462 598.269231 223.615385 598.269231 226.067308 598.269231 228.519231 598.269231 230.971154 598.269231 233.423077 598.269231 235.875000 598.269231 238.326923 598.269231 240.778846 598.269231 243.230769 598.269231 245.682692 598.269231 248.134615 598.269231 250.586538 598.269231 253.038462 598.269231 255.490385 598.269231 257.942308 598.269231 260.394231 598.269231 262.846154 598.269231 265.298077 598.269231 267.750000 598.269231 270.201923 598.269231 272.653846 598.269231 275.105769 598.269231 277.557692 598.269231 280.009615 598.269231 282.461538 598.269231 284.913462 598.269231 287.365385 598.269231 289.817308 598.269231 292.269231 598.269231 294.721154 598.269231 297.173077 598.269231 299.625000 598.269231 302.076923 598.269231 304.528846 598.269231 306.980769 598.269231 309.432692 598.269231 311.884615 598.269231 314.336538 598.269231 316.788462 598.269231 319.240385 598.269231 321.692308 598.269231 324.144231 598.269231 326.596154 598.269231 329.048077 598.269231 331.500000 598.269231 333.951923 598.269231 336.403846 598.269231 338.855769 598.269231 341.307692 598.269231 343.759615 598.269231 346.211538 598.269231 348.663462 598.269231 351.115385 598.269231 353.567308 598.269231 356.019231 598.269231 358.471154 598.269231 360.923077 598.269231 363.375000 598.269231 365.826923 598.269231 368.278846 598.269231 370.730769 598.269231 373.182692 598.269231 375.634615 598.269231 378.086538 598.269231 380.538462 598.269231 382.990385 598.269231 385.442308 598.269231 387.894231 598.269231 390.346154 598.269231 392.798077 598.269231 395.250000 598.269231 397.701923 598.269231 400.153846 598.269231 402.605769 598.269231 405.057692 598.269231 407.509615 598.269231 409.961538 598.269231 412.413462 598.269231 414.865385 598.269231 417.317308 598.269231 419.769231 598.269231 422.221154 598.269231 424.673077 598.269231 427.125000 598.269231 429.576923 598.269231 432.028846 598.269231 434.480769 598.269231 436.932692 598.269231 439.384615 598.269231 441.836538 598.269231 444.288462 598.269231 446.740385 598.269231 449.192308 598.269231 451.644231 598.269231 454.096154 598.269231 456.548077 598.269231 459.000000 598.269231 461.451923 598.269231 463.903846 598.269231 466.355769 598.269231 468.807692 598.269231 471.259615 598.269231 473.711538 598.269231 476.163462 598.269231 478.615385 598.269231 481.067308 598.269231 483.519231 598.269231 485.971154 598.269231 488.423077 598.269231 490.875000 598.269231 493.326923 598.269231 495.778846 598.269231 498.230769 598.269231 500.682692 598.269231 503.134615 598.269231 505.586538 598.269231 508.038462 598.269231 510.490385 598.269231 512.942308 598.269231 515.394231 598.269231 517.846154 598.269231 520.298077 598.269231 522.750000 598.269231 525.201923 598.269231 527.653846 598.269231 530.105769 598.269231 532.557692 598.269231 535.009615 598.269231 537.461538 598.269231 539.913462 598.269231 542.365385 598.269231 544.817308 598.269231 547.269231 598.269231 549.721154 598.269231 552.173077 598.269231 554.625000 598.269231 557.076923 598.269231 559.528846 598.269231 561.980769 598.269231 564.432692 598.269231 566.884615 598.269231 569.336538 598.269231 571.788462 598.269231 574.240385 598.269231 576.692308 598.269231 579.144231 598.269231 581.596154 598.269231 584.048077 598.269231 586.500000 598.269231 588.951923 598.269231 591.403846 598.269231 593.855769 598.269231 596.307692 598.269231 598.759615 598.269231 601.211538 598.269231 603.663462 598.269231 606.115385 598.269231 608.567308 598.269231 611.019231 598.269231 613.471154 598.269231 615.923077 598.269231 618.375000 598.269231 620.826923 598.269231 623.278846 598.269231 625.730769 598.269231 628.182692 598.269231 630.634615 598.269231 633.086538 598.269231 635.538462 598.269231 637.990385 598.269231 640.442308 598.269231 642.894231 598.269231 645.346154 598.269231 647.798077 598.269231 650.250000 598.269231 652.701923 598.269231 655.153846 598.269231 657.605769 598.269231 660.057692 598.269231 662.509615 596.267590 664.961538 543.820755 667.413462 518.877232 669.865385 502.209724 672.317308 491.797343 674.769231 484.579889 677.221154 478.190036 679.673077 472.358333 682.125000 465.660535 684.576923 457.634726 687.028846 449.512684 689.480769 441.178930 691.932692 431.440178 694.384615 422.201836 696.836538 413.309932 699.288462 403.340222 701.740385 394.852496 704.192308 386.788193 706.644231 379.224301 709.096154 371.929861 711.548077 364.827885 714.000000 358.130088 716.451923 352.279138 718.903846 346.813119 721.355769 341.712785 723.807692 337.574778 726.259615 333.840948 728.711538 330.953966 731.163462 328.663627 733.615385 326.642740 736.067308 325.006784 738.519231 323.351581 740.971154 321.484666 743.423077 319.483025 745.875000 317.211933 748.326923 314.344198 750.778846 311.322490 753.230769 307.915852 755.682692 304.335994 758.134615 300.775383 760.586538 296.906828 763.038462 293.442450 765.490385 290.613208 767.942308 286.840885 770.394231 283.511232 772.846154 279.931375 775.298077 276.928914 777.750000 273.252824 780.201923 269.865432 782.653846 266.959204 785.105769 264.437906 787.557692 261.897362 790.009615 261.608664 792.461538 261.608664 794.913462 261.608664 797.365385 261.608664 799.817308 261.608664 802.269231 261.608664 804.721154 261.608664 807.173077 261.608664 809.625000 261.608664 812.076923 261.608664 814.528846 261.608664 816.980769 261.608664 819.432692 261.608664 821.884615 261.608664 824.336538 261.608664 826.788462 261.608664 829.240385 261.608664 831.692308 261.608664 834.144231 261.608664 836.596154 261.608664 839.048077 261.608664 841.500000 261.608664 843.951923 261.608664 846.403846 261.608664 848.855769 261.608664 851.307692 261.608664 853.759615 261.608664 856.211538 261.608664 858.663462 261.608664 861.115385 261.608664 863.567308 261.608664 866.019231 261.608664 868.471154 261.608664 870.923077 261.608664 873.375000 261.608664 875.826923 261.608664 878.278846 261.608664 880.730769 261.608664 883.182692 261.608664 885.634615 261.608664 888.086538 261.608664 890.538462 261.608664 892.990385 261.608664 895.442308 261.608664 897.894231 261.608664 900.346154 261.608664" /></g></g><g class="titles"><text class="title plot_title" x="512.0" y="26">Election Constituents</text><text class="title" x="545.0" y="682.0">Hours(?)</text><text class="title" transform="rotate(-90 0.000000 351.000000)" x="0" y="377.0">Voters</text></g><g class="plot overlay" transform="translate(86, 46)"><g class="series serie-0 color-0" /><g class="series serie-1 color-1" /><g class="series serie-2 color-2" /><g class="series serie-3 color-3" /><g class="series serie-4 color-4" /><g class="series serie-5 color-5" /></g><g class="plot text-overlay" transform="translate(86, 46)"><g class="series serie-0 color-0" /><g class="series serie-1 color-1" /><g class="series serie-2 color-2" /><g class="series serie-3 color-3" /><g class="series serie-4 color-4" /><g class="series serie-5 color-5" /></g><g class="plot tooltip-overlay" transform="translate(86, 46)"><g class="tooltip" style="opacity: 0" transform="translate(0 0)"><a><rect class="tooltip-box" height="0" rx="0" ry="0" width="0" /><text class="text"><tspan class="label" /><tspan class="value" /></text></a></g></g><g class="legends" transform="translate(96, 702)"><g class="legend reactive activate-serie" id="activate-serie-0"><rect class="color-0 reactive" height="12" width="12" x="0.0" y="1.0" /><text x="17.0" y="11.2">election 5</text></g><g class="legend reactive activate-serie" id="activate-serie-1"><rect class="color-1 reactive" height="12" width="12" x="306.0" y="1.0" /><text x="323.0" y="11.2">election 6</text></g><g class="legend reactive activate-serie" id="activate-serie-2"><rect class="color-2 reactive" height="12" width="12" x="612.0" y="1.0" /><text x="629.0" y="11.2">election 7</text></g><g class="legend reactive activate-serie" id="activate-serie-3"><rect class="color-3 reactive" height="12" width="12" x="0.0" y="22.0" /><text x="17.0" y="32.2">election 8</text></g><g class="legend reactive activate-serie" id="activate-serie-4"><rect class="color-4 reactive" height="12" width="12" x="306.0" y="22.0" /><text x="323.0" y="32.2">election 9</text></g><g class="legend reactive activate-serie" id="activate-serie-5"><rect class="color-5 reactive" height="12" width="12" x="612.0" y="22.0" /><text x="629.0" y="32.2">election 10</text></g></g></g></svg>