<?xml version='1.0' encoding='utf-8'?>
<svg xmlns:xlink="http://www.w3.org/1999/xlink" class="pygal-chart" id="chart-c0ed969f-8d94-452a-9de4-bfea85093883" viewBox="0 0 1024 768" xmlns="http://www.w3.org/2000/svg"><!--Generated with pygal 1.7.0 (etree) ©Kozea 2011-2014 on 2015-11-17--><!--http://pygal.org--><!--http://github.com/Kozea/pygal--><defs><style type="text/css">#chart-c0ed969f-8d94-452a-9de4-bfea85093883 .title{font-family:"monospace";font-size:16px}#chart-c0ed969f-8d94-452a-9de4-bfea85093883 .legends .legend text{font-family:"monospace";font-size:14px}#chart-c0ed969f-8d94-452a-9de4-bfea85093883 .axis text{font-family:"monospace";font-size:10px}#chart-c0ed969f-8d94-452a-9de4-bfea85093883 .axis text.major{font-family:"monospace";font-size:10px}#chart-c0ed969f-8d94-452a-9de4-bfea85093883 .series text{font-family:"monospace";font-size:8px}#chart-c0ed969f-8d94-452a-9de4-bfea85093883 .tooltip text{font-family:"monospace";font-size:16px}#chart-c0ed969f-8d94-452a-9de4-bfea85093883 text.no_data{font-size:64px}
#chart-c0ed969f-8d94-452a-9de4-bfea85093883{background-color:black}#chart-c0ed969f-8d94-452a-9de4-bfea85093883 path,#chart-c0ed969f-8d94-452a-9de4-bfea85093883 line,#chart-c0ed969f-8d94-452a-9de4-bfea85093883 rect,#chart-c0ed969f-8d94-452a-9de4-bfea85093883 circle{-webkit-transition:250ms;-moz-transition:250ms;transition:250ms}#chart-c0ed969f-8d94-452a-9de4-bfea85093883 .graph &gt; .background{fill:black}#chart-c0ed969f-8d94-452a-9de4-bfea85093883 .plot &gt; .background{fill:#111}#chart-c0ed969f-8d94-452a-9de4-bfea85093883 .graph{fill:#999}#chart-c0ed969f-8d94-452a-9de4-bfea85093883 text.no_data{fill:#eee}#chart-c0ed969f-8d94-452a-9de4-bfea85093883 .title{fill:#eee}#chart-c0ed969f-8d94-452a-9de4-bfea85093883 .legends .legend text{fill:#999}#chart-c0ed969f-8d94-452a-9de4-bfea85093883 .legends .legend:hover text{fill:#eee}#chart-c0ed969f-8d94-452a-9de4-bfea85093883 .axis .line{stroke:#eee}#chart-c0ed969f-8d94-452a-9de4-bfea85093883 .axis .guide.line{stroke:#555}#chart-c0ed969f-8d94-452a-9de4-bfea85093883 .axis .major.line{stroke:#999}#chart-c0ed969f-8d94-452a-9de4-bfea85093883 .axis text.major{stroke:#eee;fill:#eee}#chart-c0ed969f-8d94-452a-9de4-bfea85093883 .axis.y .guides:hover .guide.line,#chart-c0ed969f-8d94-452a-9de4-bfea85093883 .line-graph .axis.x .guides:hover .guide.line,#chart-c0ed969f-8d94-452a-9de4-bfea85093883 .stackedline-graph .axis.x .guides:hover .guide.line,#chart-c0ed969f-8d94-452a-9de4-bfea85093883 .xy-graph .axis.x .guides:hover .guide.line{stroke:#eee}#chart-c0ed969f-8d94-452a-9de4-bfea85093883 .axis .guides:hover text{fill:#eee}#chart-c0ed969f-8d94-452a-9de4-bfea85093883 .reactive{fill-opacity:.8}#chart-c0ed969f-8d94-452a-9de4-bfea85093883 .reactive.active,#chart-c0ed969f-8d94-452a-9de4-bfea85093883 .active .reactive{fill-opacity:.4}#chart-c0ed969f-8d94-452a-9de4-bfea85093883 .series{stroke-width:1.0;stroke-linejoin:round;stroke-linecap:round;stroke-dasharray:0,0}#chart-c0ed969f-8d94-452a-9de4-bfea85093883 .series text{fill:#eee}#chart-c0ed969f-8d94-452a-9de4-bfea85093883 .tooltip rect{fill:#111;stroke:#eee}#chart-c0ed969f-8d94-452a-9de4-bfea85093883 .tooltip text{fill:#eee}#chart-c0ed969f-8d94-452a-9de4-bfea85093883 .map-element{fill:#999;stroke:#555 !important;opacity:.9;stroke-width:3;-webkit-transition:250ms;-moz-transition:250ms;-o-transition:250ms;transition:250ms}#chart-c0ed969f-8d94-452a-9de4-bfea85093883 .map-element:hover{opacity:1;stroke-width:10}#chart-c0ed969f-8d94-452a-9de4-bfea85093883 .color-0,#chart-c0ed969f-8d94-452a-9de4-bfea85093883 .color-0 a:visited{stroke:#ff5995;fill:#ff5995}#chart-c0ed969f-8d94-452a-9de4-bfea85093883 .color-1,#chart-c0ed969f-8d94-452a-9de4-bfea85093883 .color-1 a:visited{stroke:#b6e354;fill:#b6e354}#chart-c0ed969f-8d94-452a-9de4-bfea85093883 .color-2,#chart-c0ed969f-8d94-452a-9de4-bfea85093883 .color-2 a:visited{stroke:#feed6c;fill:#feed6c}#chart-c0ed969f-8d94-452a-9de4-bfea85093883 .color-3,#chart-c0ed969f-8d94-452a-9de4-bfea85093883 .color-3 a:visited{stroke:#8cedff;fill:#8cedff}#chart-c0ed969f-8d94-452a-9de4-bfea85093883 .color-4,#chart-c0ed969f-8d94-452a-9de4-bfea85093883 .color-4 a:visited{stroke:#9e6ffe;fill:#9e6ffe}#chart-c0ed969f-8d94-452a-9de4-bfea85093883 .color-5,#chart-c0ed969f-8d94-452a-9de4-bfea85093883 .color-5 a:visited{stroke:#899ca1;fill:#899ca1}#chart-c0ed969f-8d94-452a-9de4-bfea85093883 .color-6,#chart-c0ed969f-8d94-452a-9de4-bfea85093883 .color-6 a:visited{stroke:#f8f8f2;fill:#f8f8f2}#chart-c0ed969f-8d94-452a-9de4-bfea85093883 .color-7,#chart-c0ed969f-8d94-452a-9de4-bfea85093883 .color-7 a:visited{stroke:#bf4646;fill:#bf4646}#chart-c0ed969f-8d94-452a-9de4-bfea85093883 .color-8,#chart-c0ed969f-8d94-452a-9de4-bfea85093883 .color-8 a:visited{stroke:#516083;fill:#516083}#chart-c0ed969f-8d94-452a-9de4-bfea85093883 .color-9,#chart-c0ed969f-8d94-452a-9de4-bfea85093883 .color-9 a:visited{stroke:#f92672;fill:#f92672}#chart-c0ed969f-8d94-452a-9de4-bfea85093883 .color-10,#chart-c0ed969f-8d94-452a-9de4-bfea85093883 .color-10 a:visited{stroke:#82b414;fill:#82b414}#chart-c0ed969f-8d94-452a-9de4-bfea85093883 .color-11,#chart-c0ed969f-8d94-452a-9de4-bfea85093883 .color-11 a:visited{stroke:#fd971f;fill:#fd971f}#chart-c0ed969f-8d94-452a-9de4-bfea85093883 .color-12,#chart-c0ed969f-8d94-452a-9de4-bfea85093883 .color-12 a:visited{stroke:#56c2d6;fill:#56c2d6}#chart-c0ed969f-8d94-452a-9de4-bfea85093883 .color-13,#chart-c0ed969f-8d94-452a-9de4-bfea85093883 .color-13 a:visited{stroke:#808384;fill:#808384}#chart-c0ed969f-8d94-452a-9de4-bfea85093883 .color-14,#chart-c0ed969f-8d94-452a-9de4-bfea85093883 .color-14 a:visited{stroke:#8c54fe;fill:#8c54fe}#chart-c0ed969f-8d94-452a-9de4-bfea85093883 .color-15,#chart-c0ed969f-8d94-452a-9de4-bfea85093883 .color-15 a:visited{stroke:#465457;fill:#465457}
#chart-c0ed969f-8d94-452a-9de4-bfea85093883 text.no_data{text-anchor:middle}#chart-c0ed969f-8d94-452a-9de4-bfea85093883 .guide.line{fill-opacity:0}#chart-c0ed969f-8d94-452a-9de4-bfea85093883 .centered{text-anchor:middle}#chart-c0ed969f-8d94-452a-9de4-bfea85093883 .title{text-anchor:middle}#chart-c0ed969f-8d94-452a-9de4-bfea85093883 .legends .legend text{fill-opacity:1}#chart-c0ed969f-8d94-452a-9de4-bfea85093883 .axis.x text{text-anchor:middle}#chart-c0ed969f-8d94-452a-9de4-bfea85093883 .axis.x:not(.web) text[transform]{text-anchor:start}#chart-c0ed969f-8d94-452a-9de4-bfea85093883 .axis.y text{text-anchor:end}#chart-c0ed969f-8d94-452a-9de4-bfea85093883 .axis.y2 text{text-anchor:start}#chart-c0ed969f-8d94-452a-9de4-bfea85093883 .axis.y .logarithmic text:not(.major),#chart-c0ed969f-8d94-452a-9de4-bfea85093883 .axis.y2 .logarithmic text:not(.major){font-size:50%}#chart-c0ed969f-8d94-452a-9de4-bfea85093883 .axis .guide.line{stroke-dasharray:4,4}#chart-c0ed969f-8d94-452a-9de4-bfea85093883 .axis .major.guide.line{stroke-dasharray:6,6}#chart-c0ed969f-8d94-452a-9de4-bfea85093883 .axis text.major{stroke-width:0.5px}#chart-c0ed969f-8d94-452a-9de4-bfea85093883 .horizontal .axis.y .guide.line,#chart-c0ed969f-8d94-452a-9de4-bfea85093883 .horizontal .axis.y2 .guide.line,#chart-c0ed969f-8d94-452a-9de4-bfea85093883 .vertical .axis.x .guide.line{opacity:0}#chart-c0ed969f-8d94-452a-9de4-bfea85093883 .horizontal .axis.always_show .guide.line,#chart-c0ed969f-8d94-452a-9de4-bfea85093883 .vertical .axis.always_show .guide.line{opacity:1 !important}#chart-c0ed969f-8d94-452a-9de4-bfea85093883 .axis.y .guides:hover .guide.line,#chart-c0ed969f-8d94-452a-9de4-bfea85093883 .axis.y2 .guides:hover .guide.line,#chart-c0ed969f-8d94-452a-9de4-bfea85093883 .axis.x .guides:hover .guide.line{opacity:1}#chart-c0ed969f-8d94-452a-9de4-bfea85093883 .axis .guides:hover text{opacity:1}#chart-c0ed969f-8d94-452a-9de4-bfea85093883 .nofill{fill:none}#chart-c0ed969f-8d94-452a-9de4-bfea85093883 .subtle-fill{fill-opacity:.2}#chart-c0ed969f-8d94-452a-9de4-bfea85093883 .dot{stroke-width:1px;fill-opacity:1}#chart-c0ed969f-8d94-452a-9de4-bfea85093883 .dot.active{stroke-width:5px}#chart-c0ed969f-8d94-452a-9de4-bfea85093883 .series text{stroke:none}#chart-c0ed969f-8d94-452a-9de4-bfea85093883 .series text.active{opacity:1}#chart-c0ed969f-8d94-452a-9de4-bfea85093883 .tooltip rect{fill-opacity:0.8}#chart-c0ed969f-8d94-452a-9de4-bfea85093883 .tooltip text{fill-opacity:1}#chart-c0ed969f-8d94-452a-9de4-bfea85093883 .tooltip text tspan.label{fill-opacity:.8}</style><script type="text/javascript">window.config = {"title": "Election 7 Participation", "rounded_bars": null, "style": {"foreground_light": "#eee", "stroke_width": 1.0, "plot_background": "#111", "background": "black", "font_family": "monospace", "transition": "250ms", "opacity": ".8", "stroke_dasharray": "0,0", "foreground": "#999", "stroke_style": "round", "opacity_hover": ".4", "colors": ["#ff5995", "#b6e354", "#feed6c", "#8cedff", "#9e6ffe", "#899ca1", "#f8f8f2", "#bf4646", "#516083", "#f92672", "#82b414", "#fd971f", "#56c2d6", "#808384", "#8c54fe", "#465457"], "foreground_dark": "#555"}, "value_font_size": 8, "x_labels_major": null, "width": 1024, "show_y_labels": true, "show_legend": true, "legend_at_bottom_columns": null, "xrange": null, "pretty_print": false, "mode": null, "dots_size": 2.5, "legend_box_size": 12, "explicit_size": false, "show_only_major_dots": false, "interpolation_precision": 250, "print_values": false, "order_min": null, "major_label_font_size": 10, "no_prefix": false, "title_font_size": 16, "truncate_legend": null, "x_label_format": "%Y-%m-%d %H:%M:%S.%f", "show_dots": false, "x_title": null, "show_y_guides": true, "logarithmic": false, "x_labels_major_every": null, "legend_font_size": 14, "disable_xml_declaration": false, "interpolate": null, "margin_left": null, "show_x_labels": true, "missing_value_fill_truncation": "x", "y_title": "Users", "range": null, "no_data_font_size": 64, "margin_right": null, "zero": 0, "x_value_formatter": null, "human_readable": false, "stroke": true, "x_label_rotation": 0, "x_labels_major_count": null, "js": ["http://kozea.github.io/pygal.js/javascripts/svg.jquery.js", "http://kozea.github.io/pygal.js/javascripts/pygal-tooltips.js"], "y_labels": null, "label_font_size": 10, "y_labels_major": null, "stack_from_top": false, "y_labels_major_every": null, "margin_top": null, "css": ["style.css", "graph.css"], "interpolation_parameters": {}, "show_minor_x_labels": true, "y_labels_major_count": null, "margin_bottom": null, "half_pie": false, "tooltip_font_size": 16, "tooltip_border_radius": 0, "no_data_text": "No data", "x_labels": null, "y_label_rotation": 0, "margin": 20, "height": 768, "show_minor_y_labels": true, "show_x_guides": false, "truncate_label": null, "strict": false, "include_x_axis": false, "inner_radius": 0, "print_zeroes": false, "legend_at_bottom": true, "fill": false, "spacing": 10}</script><script type="text/javascript" xlink:href="http://kozea.github.io/pygal.js/javascripts/svg.jquery.js" /><script type="text/javascript" xlink:href="http://kozea.github.io/pygal.js/javascripts/pygal-tooltips.js" /></defs><title>Election 7 Participation</title><g class="graph line-graph vertical"><rect class="background" height="768" width="1024" x="0" y="0" /><g class="plot" transform="translate(86, 46)"><rect class="background" height="657.0" width="918.0" x="0" y="0" /><g class="axis y"><g class="guides"><path class="axis major line" d="M0.000000 644.365385 h918.000000" /><text class="major" x="-5" y="647.8653846153846">0</text></g><g class="guides"><path class="guide line" d="M0.000000 510.117394 h918.000000" /><text class="" x="-5" y="513.6173940442116">10000</text></g><g class="guides"><path class="guide line" d="M0.000000 375.869403 h918.000000" /><text class="" x="-5" y="379.3694034730384">20000</text></g><g class="guides"><path class="guide line" d="M0.000000 241.621413 h918.000000" /><text class="" x="-5" y="245.1214129018653">30000</text></g><g class="guides"><path class="guide line" d="M0.000000 107.373422 h918.000000" /><text class="" x="-5" y="110.87342233069216">40000</text></g></g><g class="series serie-0 color-0"><path class="line reactive nofill" d="M17.653846 644.365385 L20.105769 644.365385 22.557692 644.365385 25.009615 644.365385 27.461538 644.365385 29.913462 644.365385 32.365385 644.365385 34.817308 644.365385 37.269231 644.365385 39.721154 644.365385 42.173077 644.365385 44.625000 644.365385 47.076923 644.365385 49.528846 644.365385 51.980769 644.365385 54.432692 644.365385 56.884615 644.365385 59.336538 644.365385 61.788462 644.365385 64.240385 644.365385 66.692308 644.365385 69.144231 644.365385 71.596154 644.365385 74.048077 644.365385 76.500000 644.365385 78.951923 644.365385 81.403846 644.365385 83.855769 644.365385 86.307692 644.365385 88.759615 644.365385 91.211538 644.365385 93.663462 644.365385 96.115385 644.365385 98.567308 644.365385 101.019231 644.365385 103.471154 644.365385 105.923077 644.365385 108.375000 644.365385 110.826923 644.365385 113.278846 644.365385 115.730769 644.365385 118.182692 644.365385 120.634615 644.365385 123.086538 644.365385 125.538462 644.365385 127.990385 644.365385 130.442308 644.365385 132.894231 644.365385 135.346154 644.365385 137.798077 644.365385 140.250000 644.365385 142.701923 644.365385 145.153846 644.365385 147.605769 644.365385 150.057692 644.365385 152.509615 644.365385 154.961538 644.365385 157.413462 644.365385 159.865385 644.365385 162.317308 644.365385 164.769231 644.365385 167.221154 644.365385 169.673077 644.365385 172.125000 644.365385 174.576923 644.365385 177.028846 644.365385 179.480769 644.365385 181.932692 644.365385 184.384615 644.365385 186.836538 644.365385 189.288462 644.365385 191.740385 644.365385 194.192308 644.365385 196.644231 644.365385 199.096154 644.365385 201.548077 644.365385 204.000000 644.365385 206.451923 644.365385 208.903846 644.365385 211.355769 644.365385 213.807692 644.365385 216.259615 644.365385 218.711538 644.365385 221.163462 644.365385 223.615385 644.365385 226.067308 644.365385 228.519231 644.365385 230.971154 644.365385 233.423077 644.365385 235.875000 644.365385 238.326923 644.365385 240.778846 644.365385 243.230769 644.365385 245.682692 644.365385 248.134615 644.365385 250.586538 644.365385 253.038462 644.365385 255.490385 644.365385 257.942308 644.365385 260.394231 644.365385 262.846154 644.365385 265.298077 644.365385 267.750000 644.365385 270.201923 644.365385 272.653846 644.365385 275.105769 644.365385 277.557692 644.365385 280.009615 644.365385 282.461538 644.365385 284.913462 644.365385 287.365385 644.365385 289.817308 644.365385 292.269231 644.365385 294.721154 644.365385 297.173077 644.365385 299.625000 644.365385 302.076923 644.365385 304.528846 644.365385 306.980769 644.365385 309.432692 644.365385 311.884615 644.365385 314.336538 644.365385 316.788462 644.365385 319.240385 644.365385 321.692308 644.365385 324.144231 644.365385 326.596154 644.365385 329.048077 644.365385 331.500000 644.365385 333.951923 644.365385 336.403846 644.365385 338.855769 644.365385 341.307692 644.365385 343.759615 644.365385 346.211538 644.365385 348.663462 644.365385 351.115385 644.365385 353.567308 644.365385 356.019231 644.365385 358.471154 644.365385 360.923077 644.365385 363.375000 644.365385 365.826923 644.365385 368.278846 644.365385 370.730769 644.365385 373.182692 644.365385 375.634615 644.365385 378.086538 644.365385 380.538462 644.365385 382.990385 644.365385 385.442308 644.365385 387.894231 644.365385 390.346154 644.365385 392.798077 644.365385 395.250000 644.365385 397.701923 644.365385 400.153846 644.365385 402.605769 644.365385 405.057692 644.365385 407.509615 644.365385 409.961538 644.365385 412.413462 644.365385 414.865385 644.365385 417.317308 644.365385 419.769231 644.365385 422.221154 644.365385 424.673077 644.365385 427.125000 644.365385 429.576923 644.365385 432.028846 644.365385 434.480769 644.365385 436.932692 644.365385 439.384615 644.365385 441.836538 644.365385 444.288462 644.365385 446.740385 644.365385 449.192308 644.365385 451.644231 644.365385 454.096154 644.365385 456.548077 644.365385 459.000000 644.365385 461.451923 644.365385 463.903846 644.365385 466.355769 644.365385 468.807692 644.365385 471.259615 644.365385 473.711538 644.365385 476.163462 644.365385 478.615385 644.365385 481.067308 644.365385 483.519231 644.365385 485.971154 644.365385 488.423077 644.365385 490.875000 644.365385 493.326923 644.365385 495.778846 644.365385 498.230769 644.365385 500.682692 644.365385 503.134615 644.365385 505.586538 644.365385 508.038462 644.365385 510.490385 644.365385 512.942308 644.365385 515.394231 644.365385 517.846154 644.365385 520.298077 644.365385 522.750000 644.365385 525.201923 644.365385 527.653846 644.365385 530.105769 644.365385 532.557692 644.365385 535.009615 644.365385 537.461538 644.365385 539.913462 644.365385 542.365385 644.365385 544.817308 644.365385 547.269231 644.365385 549.721154 644.365385 552.173077 644.365385 554.625000 644.365385 557.076923 644.365385 559.528846 644.365385 561.980769 644.365385 564.432692 644.365385 566.884615 644.365385 569.336538 644.365385 571.788462 644.365385 574.240385 644.365385 576.692308 644.365385 579.144231 644.365385 581.596154 644.365385 584.048077 644.365385 586.500000 644.365385 588.951923 644.365385 591.403846 644.365385 593.855769 644.365385 596.307692 644.365385 598.759615 644.365385 601.211538 644.365385 603.663462 644.365385 606.115385 644.365385 608.567308 644.365385 611.019231 644.365385 613.471154 644.365385 615.923077 644.365385 618.375000 644.365385 620.826923 644.365385 623.278846 644.365385 625.730769 644.365385 628.182692 644.365385 630.634615 644.365385 633.086538 644.365385 635.538462 644.365385 637.990385 644.365385 640.442308 644.365385 642.894231 644.365385 645.346154 644.365385 647.798077 644.365385 650.250000 644.365385 652.701923 644.365385 655.153846 644.365385 657.605769 644.365385 660.057692 644.365385 662.509615 644.365385 664.961538 644.365385 667.413462 644.365385 669.865385 644.365385 672.317308 644.365385 674.769231 644.365385 677.221154 644.365385 679.673077 644.365385 682.125000 644.365385 684.576923 644.365385 687.028846 644.365385 689.480769 644.365385 691.932692 644.365385 694.384615 644.365385 696.836538 644.365385 699.288462 644.365385 701.740385 644.365385 704.192308 644.365385 706.644231 644.365385 709.096154 644.365385 711.548077 644.365385 714.000000 644.365385 716.451923 644.365385 718.903846 644.365385 721.355769 644.365385 723.807692 644.365385 726.259615 644.365385 728.711538 644.365385 731.163462 644.365385 733.615385 644.365385 736.067308 644.365385 738.519231 644.365385 740.971154 644.365385 743.423077 644.365385 745.875000 644.365385 748.326923 644.365385 750.778846 644.365385 753.230769 644.365385 755.682692 644.365385 758.134615 644.365385 760.586538 644.365385 763.038462 644.365385 765.490385 644.365385 767.942308 644.365385 770.394231 644.365385 772.846154 644.365385 775.298077 644.365385 777.750000 644.365385 780.201923 644.365385 782.653846 644.365385 785.105769 644.365385 787.557692 644.365385 790.009615 644.365385 792.461538 644.365385 794.913462 644.365385 797.365385 644.365385 799.817308 644.365385 802.269231 644.365385 804.721154 644.365385 807.173077 644.365385 809.625000 644.365385 812.076923 644.365385 814.528846 644.365385 816.980769 644.365385 819.432692 644.365385 821.884615 644.365385 824.336538 644.365385 826.788462 644.365385 829.240385 644.365385 831.692308 644.365385 834.144231 644.365385 836.596154 644.365385 839.048077 644.365385 841.500000 644.365385 843.951923 644.365385 846.403846 644.365385 848.855769 644.365385 851.307692 644.365385 853.759615 644.365385 856.211538 644.365385 858.663462 644.365385 861.115385 644.365385 863.567308 644.365385 866.019231 644.365385 868.471154 644.365385 870.923077 644.365385 873.375000 644.365385 875.826923 644.365385 878.278846 644.365385 880.730769 644.365385 883.182692 644.365385 885.634615 644.365385 888.086538 644.365385 890.538462 644.365385 892.990385 644.365385 895.442308 644.365385 897.894231 644.365385 900.346154 644.365385" /></g><g class="series serie-1 color-1"><path class="line reactive nofill" d="M17.653846 616.978795 L20.105769 604.493731 22.557692 597.324889 25.009615 593.136351 27.461538 589.968099 29.913462 587.323413 32.365385 585.027773 34.817308 582.114591 37.269231 579.671278 39.721154 575.939184 42.173077 571.482151 44.625000 566.608948 47.076923 560.285868 49.528846 553.627168 51.980769 548.995612 54.432692 545.907908 56.884615 542.873904 59.336538 539.839899 61.788462 536.483699 64.240385 533.557093 66.692308 530.912408 69.144231 529.086635 71.596154 527.515934 74.048077 525.904958 76.500000 524.347681 78.951923 523.058900 81.403846 521.796969 83.855769 521.166004 86.307692 520.602162 88.759615 519.998046 91.211538 519.461054 93.663462 518.816664 96.115385 518.239397 98.567308 517.501034 101.019231 516.816369 103.471154 515.809509 105.923077 514.413330 108.375000 513.111124 110.826923 512.050565 113.278846 511.137679 115.730769 509.835473 118.182692 508.560117 120.634615 507.553257 123.086538 506.251052 125.538462 505.391865 127.990385 504.344730 130.442308 503.566092 132.894231 502.800879 135.346154 501.914842 137.798077 501.069079 140.250000 500.330716 142.701923 499.901122 145.153846 499.578927 147.605769 499.270156 150.057692 498.974811 152.509615 498.639191 154.961538 498.343845 157.413462 497.873977 159.865385 497.189313 162.317308 496.585197 164.769231 495.793133 167.221154 494.692300 169.673077 493.873387 172.125000 492.960501 174.576923 492.007340 177.028846 491.040755 179.480769 490.141293 181.932692 489.322380 184.384615 488.463193 186.836538 487.697980 189.288462 487.107288 191.740385 486.409199 194.192308 485.791658 196.644231 485.241241 199.096154 484.623701 201.548077 484.180682 204.000000 483.845062 206.451923 483.563142 208.903846 483.321495 211.355769 483.120123 213.807692 482.932176 216.259615 482.556282 218.711538 482.260936 221.163462 481.871617 223.615385 481.576271 226.067308 480.730509 228.519231 480.099543 230.971154 479.495427 233.423077 478.904736 235.875000 478.206647 238.326923 477.548832 240.778846 477.011840 243.230769 476.434573 245.682692 475.884156 248.134615 475.400864 250.586538 474.890721 253.038462 474.555101 255.490385 474.152357 257.942308 473.950985 260.394231 473.736189 262.846154 473.548241 265.298077 473.413993 267.750000 473.199197 270.201923 473.145497 272.653846 473.064949 275.105769 472.944125 277.557692 472.742753 280.009615 472.474257 282.461538 472.272886 284.913462 472.111788 287.365385 471.829867 289.817308 471.601646 292.269231 471.494247 294.721154 471.279450 297.173077 471.037804 299.625000 470.863282 302.076923 470.594786 304.528846 470.299440 306.980769 470.151767 309.432692 469.990670 311.884615 469.695324 314.336538 469.507377 316.788462 469.265731 319.240385 469.024084 321.692308 468.889836 324.144231 468.715314 326.596154 468.527367 329.048077 468.433393 331.500000 468.339419 333.951923 468.124623 336.403846 467.923251 338.855769 467.789003 341.307692 467.466807 343.759615 467.225161 346.211538 467.010364 348.663462 466.782143 351.115385 466.527072 353.567308 466.272000 356.019231 465.896106 358.471154 465.735008 360.923077 465.493362 363.375000 465.157742 365.826923 464.714724 368.278846 464.432803 370.730769 464.164307 373.182692 463.828687 375.634615 463.613890 378.086538 463.372244 380.538462 463.278270 382.990385 463.117173 385.442308 462.902376 387.894231 462.674154 390.346154 462.096888 392.798077 461.398798 395.250000 460.714134 397.701923 459.854946 400.153846 459.089733 402.605769 458.149997 405.057692 457.116287 407.509615 456.257100 409.961538 455.532161 412.413462 454.699824 414.865385 453.692964 417.317308 453.008299 419.769231 452.283360 422.221154 451.894041 424.673077 451.316774 427.125000 450.564985 429.576923 387.642952 432.028846 351.275172 434.480769 329.647820 436.932692 311.390094 439.384615 300.636830 441.836538 289.964114 444.288462 281.009773 446.740385 269.383897 449.192308 253.126466 451.644231 234.828465 454.096154 215.013461 456.548077 189.251272 459.000000 158.092313 461.451923 126.745407 463.903846 100.446226 466.355769 83.087961 468.807692 65.179279 471.259615 49.123219 473.711538 32.932912 476.163462 19.937706 478.615385 12.634615 481.067308 12.634615 483.519231 12.634615 485.971154 12.634615 488.423077 12.634615 490.875000 12.634615 493.326923 12.634615 495.778846 12.634615 498.230769 12.634615 500.682692 12.634615 503.134615 12.634615 505.586538 12.634615 508.038462 12.634615 510.490385 12.634615 512.942308 12.634615 515.394231 12.634615 517.846154 12.634615 520.298077 12.634615 522.750000 12.634615 525.201923 12.634615 527.653846 12.634615 530.105769 12.634615 532.557692 12.634615 535.009615 12.634615 537.461538 12.634615 539.913462 12.634615 542.365385 12.634615 544.817308 12.634615 547.269231 12.634615 549.721154 12.634615 552.173077 12.634615 554.625000 12.634615 557.076923 12.634615 559.528846 12.634615 561.980769 12.634615 564.432692 12.634615 566.884615 12.634615 569.336538 12.634615 571.788462 12.634615 574.240385 12.634615 576.692308 12.634615 579.144231 12.634615 581.596154 12.634615 584.048077 12.634615 586.500000 12.634615 588.951923 12.634615 591.403846 12.634615 593.855769 12.634615 596.307692 12.634615 598.759615 12.634615 601.211538 12.634615 603.663462 12.634615 606.115385 12.634615 608.567308 12.634615 611.019231 12.634615 613.471154 12.634615 615.923077 12.634615 618.375000 12.634615 620.826923 12.634615 623.278846 12.634615 625.730769 12.634615 628.182692 12.634615 630.634615 12.634615 633.086538 12.634615 635.538462 12.634615 637.990385 12.634615 640.442308 12.634615 642.894231 12.634615 645.346154 12.634615 647.798077 12.634615 650.250000 12.634615 652.701923 12.634615 655.153846 12.634615 657.605769 12.634615 660.057692 12.634615 662.509615 12.634615 664.961538 12.634615 667.413462 12.634615 669.865385 12.634615 672.317308 12.634615 674.769231 12.634615 677.221154 12.634615 679.673077 12.634615 682.125000 12.634615 684.576923 12.634615 687.028846 12.634615 689.480769 12.634615 691.932692 12.634615 694.384615 12.634615 696.836538 12.634615 699.288462 12.634615 701.740385 12.634615 704.192308 12.634615 706.644231 12.634615 709.096154 12.634615 711.548077 12.634615 714.000000 12.634615 716.451923 12.634615 718.903846 12.634615 721.355769 12.634615 723.807692 12.634615 726.259615 12.634615 728.711538 12.634615 731.163462 12.634615 733.615385 12.634615 736.067308 12.634615 738.519231 12.634615 740.971154 12.634615 743.423077 12.634615 745.875000 12.634615 748.326923 12.634615 750.778846 12.634615 753.230769 12.634615 755.682692 12.634615 758.134615 12.634615 760.586538 12.634615 763.038462 12.634615 765.490385 12.634615 767.942308 12.634615 770.394231 12.634615 772.846154 12.634615 775.298077 12.634615 777.750000 12.634615 780.201923 12.634615 782.653846 12.634615 785.105769 12.634615 787.557692 12.634615 790.009615 12.634615 792.461538 12.634615 794.913462 12.634615 797.365385 12.634615 799.817308 12.634615 802.269231 12.634615 804.721154 12.634615 807.173077 12.634615 809.625000 12.634615 812.076923 12.634615 814.528846 12.634615 816.980769 12.634615 819.432692 12.634615 821.884615 12.634615 824.336538 12.634615 826.788462 12.634615 829.240385 12.634615 831.692308 12.634615 834.144231 12.634615 836.596154 12.634615 839.048077 12.634615 841.500000 12.634615 843.951923 12.634615 846.403846 12.634615 848.855769 12.634615 851.307692 12.634615 853.759615 12.634615 856.211538 12.634615 858.663462 12.634615 861.115385 12.634615 863.567308 12.634615 866.019231 12.634615 868.471154 12.634615 870.923077 12.634615 873.375000 12.634615 875.826923 12.634615 878.278846 12.634615 880.730769 12.634615 883.182692 12.634615 885.634615 12.634615 888.086538 12.634615 890.538462 12.634615 892.990385 12.634615 895.442308 12.634615 897.894231 12.634615 900.346154 12.634615" /></g></g><g class="titles"><text class="title plot_title" x="512.0" y="26">Election 7 Participation</text><text class="title" transform="rotate(-90 0.000000 374.500000)" x="0" y="400.5">Users</text></g><g class="plot overlay" transform="translate(86, 46)"><g class="series serie-0 color-0" /><g class="series serie-1 color-1" /></g><g class="plot text-overlay" transform="translate(86, 46)"><g class="series serie-0 color-0" /><g class="series serie-1 color-1" /></g><g class="plot tooltip-overlay" transform="translate(86, 46)"><g class="tooltip" style="opacity: 0" transform="translate(0 0)"><a><rect class="tooltip-box" height="0" rx="0" ry="0" width="0" /><text class="text"><tspan class="label" /><tspan class="value" /></text></a></g></g><g class="legends" transform="translate(96, 713)"><g class="legend reactive activate-serie" id="activate-serie-0"><rect class="color-0 reactive" height="12" width="12" x="0.0" y="1.0" /><text x="17.0" y="11.2">constituents</text></g><g class="legend reactive activate-serie" id="activate-serie-1"><rect class="color-1 reactive" height="12" width="12" x="459.0" y="1.0" /><text x="476.0" y="11.2">caucus</text></g></g></g></svg>