<?xml version='1.0' encoding='utf-8'?>
<svg xmlns:xlink="http://www.w3.org/1999/xlink" class="pygal-chart" id="chart-76214405-96a9-41cf-8e43-bb228123d5eb" viewBox="0 0 1024 768" xmlns="http://www.w3.org/2000/svg"><!--Generated with pygal 1.7.0 (etree) ©Kozea 2011-2014 on 2018-03-27--><!--http://pygal.org--><!--http://github.com/Kozea/pygal--><defs><style type="text/css">#chart-76214405-96a9-41cf-8e43-bb228123d5eb .title{font-family:"monospace";font-size:16px}#chart-76214405-96a9-41cf-8e43-bb228123d5eb .legends .legend text{font-family:"monospace";font-size:14px}#chart-76214405-96a9-41cf-8e43-bb228123d5eb .axis text{font-family:"monospace";font-size:10px}#chart-76214405-96a9-41cf-8e43-bb228123d5eb .axis text.major{font-family:"monospace";font-size:10px}#chart-76214405-96a9-41cf-8e43-bb228123d5eb .series text{font-family:"monospace";font-size:8px}#chart-76214405-96a9-41cf-8e43-bb228123d5eb .tooltip text{font-family:"monospace";font-size:16px}#chart-76214405-96a9-41cf-8e43-bb228123d5eb text.no_data{font-size:64px}
#chart-76214405-96a9-41cf-8e43-bb228123d5eb{background-color:black}#chart-76214405-96a9-41cf-8e43-bb228123d5eb path,#chart-76214405-96a9-41cf-8e43-bb228123d5eb line,#chart-76214405-96a9-41cf-8e43-bb228123d5eb rect,#chart-76214405-96a9-41cf-8e43-bb228123d5eb circle{-webkit-transition:250ms;-moz-transition:250ms;transition:250ms}#chart-76214405-96a9-41cf-8e43-bb228123d5eb .graph &gt; .background{fill:black}#chart-76214405-96a9-41cf-8e43-bb228123d5eb .plot &gt; .background{fill:#111}#chart-76214405-96a9-41cf-8e43-bb228123d5eb .graph{fill:#999}#chart-76214405-96a9-41cf-8e43-bb228123d5eb text.no_data{fill:#eee}#chart-76214405-96a9-41cf-8e43-bb228123d5eb .title{fill:#eee}#chart-76214405-96a9-41cf-8e43-bb228123d5eb .legends .legend text{fill:#999}#chart-76214405-96a9-41cf-8e43-bb228123d5eb .legends .legend:hover text{fill:#eee}#chart-76214405-96a9-41cf-8e43-bb228123d5eb .axis .line{stroke:#eee}#chart-76214405-96a9-41cf-8e43-bb228123d5eb .axis .guide.line{stroke:#555}#chart-76214405-96a9-41cf-8e43-bb228123d5eb .axis .major.line{stroke:#999}#chart-76214405-96a9-41cf-8e43-bb228123d5eb .axis text.major{stroke:#eee;fill:#eee}#chart-76214405-96a9-41cf-8e43-bb228123d5eb .axis.y .guides:hover .guide.line,#chart-76214405-96a9-41cf-8e43-bb228123d5eb .line-graph .axis.x .guides:hover .guide.line,#chart-76214405-96a9-41cf-8e43-bb228123d5eb .stackedline-graph .axis.x .guides:hover .guide.line,#chart-76214405-96a9-41cf-8e43-bb228123d5eb .xy-graph .axis.x .guides:hover .guide.line{stroke:#eee}#chart-76214405-96a9-41cf-8e43-bb228123d5eb .axis .guides:hover text{fill:#eee}#chart-76214405-96a9-41cf-8e43-bb228123d5eb .reactive{fill-opacity:.8}#chart-76214405-96a9-41cf-8e43-bb228123d5eb .reactive.active,#chart-76214405-96a9-41cf-8e43-bb228123d5eb .active .reactive{fill-opacity:.4}#chart-76214405-96a9-41cf-8e43-bb228123d5eb .series{stroke-width:1.0;stroke-linejoin:round;stroke-linecap:round;stroke-dasharray:0,0}#chart-76214405-96a9-41cf-8e43-bb228123d5eb .series text{fill:#eee}#chart-76214405-96a9-41cf-8e43-bb228123d5eb .tooltip rect{fill:#111;stroke:#eee}#chart-76214405-96a9-41cf-8e43-bb228123d5eb .tooltip text{fill:#eee}#chart-76214405-96a9-41cf-8e43-bb228123d5eb .map-element{fill:#999;stroke:#555 !important;opacity:.9;stroke-width:3;-webkit-transition:250ms;-moz-transition:250ms;-o-transition:250ms;transition:250ms}#chart-76214405-96a9-41cf-8e43-bb228123d5eb .map-element:hover{opacity:1;stroke-width:10}#chart-76214405-96a9-41cf-8e43-bb228123d5eb .color-0,#chart-76214405-96a9-41cf-8e43-bb228123d5eb .color-0 a:visited{stroke:#ff5995;fill:#ff5995}#chart-76214405-96a9-41cf-8e43-bb228123d5eb .color-1,#chart-76214405-96a9-41cf-8e43-bb228123d5eb .color-1 a:visited{stroke:#b6e354;fill:#b6e354}#chart-76214405-96a9-41cf-8e43-bb228123d5eb .color-2,#chart-76214405-96a9-41cf-8e43-bb228123d5eb .color-2 a:visited{stroke:#feed6c;fill:#feed6c}#chart-76214405-96a9-41cf-8e43-bb228123d5eb .color-3,#chart-76214405-96a9-41cf-8e43-bb228123d5eb .color-3 a:visited{stroke:#8cedff;fill:#8cedff}#chart-76214405-96a9-41cf-8e43-bb228123d5eb .color-4,#chart-76214405-96a9-41cf-8e43-bb228123d5eb .color-4 a:visited{stroke:#9e6ffe;fill:#9e6ffe}#chart-76214405-96a9-41cf-8e43-bb228123d5eb .color-5,#chart-76214405-96a9-41cf-8e43-bb228123d5eb .color-5 a:visited{stroke:#899ca1;fill:#899ca1}#chart-76214405-96a9-41cf-8e43-bb228123d5eb .color-6,#chart-76214405-96a9-41cf-8e43-bb228123d5eb .color-6 a:visited{stroke:#f8f8f2;fill:#f8f8f2}#chart-76214405-96a9-41cf-8e43-bb228123d5eb .color-7,#chart-76214405-96a9-41cf-8e43-bb228123d5eb .color-7 a:visited{stroke:#bf4646;fill:#bf4646}#chart-76214405-96a9-41cf-8e43-bb228123d5eb .color-8,#chart-76214405-96a9-41cf-8e43-bb228123d5eb .color-8 a:visited{stroke:#516083;fill:#516083}#chart-76214405-96a9-41cf-8e43-bb228123d5eb .color-9,#chart-76214405-96a9-41cf-8e43-bb228123d5eb .color-9 a:visited{stroke:#f92672;fill:#f92672}#chart-76214405-96a9-41cf-8e43-bb228123d5eb .color-10,#chart-76214405-96a9-41cf-8e43-bb228123d5eb .color-10 a:visited{stroke:#82b414;fill:#82b414}#chart-76214405-96a9-41cf-8e43-bb228123d5eb .color-11,#chart-76214405-96a9-41cf-8e43-bb228123d5eb .color-11 a:visited{stroke:#fd971f;fill:#fd971f}#chart-76214405-96a9-41cf-8e43-bb228123d5eb .color-12,#chart-76214405-96a9-41cf-8e43-bb228123d5eb .color-12 a:visited{stroke:#56c2d6;fill:#56c2d6}#chart-76214405-96a9-41cf-8e43-bb228123d5eb .color-13,#chart-76214405-96a9-41cf-8e43-bb228123d5eb .color-13 a:visited{stroke:#808384;fill:#808384}#chart-76214405-96a9-41cf-8e43-bb228123d5eb .color-14,#chart-76214405-96a9-41cf-8e43-bb228123d5eb .color-14 a:visited{stroke:#8c54fe;fill:#8c54fe}#chart-76214405-96a9-41cf-8e43-bb228123d5eb .color-15,#chart-76214405-96a9-41cf-8e43-bb228123d5eb .color-15 a:visited{stroke:#465457;fill:#465457}
#chart-76214405-96a9-41cf-8e43-bb228123d5eb text.no_data{text-anchor:middle}#chart-76214405-96a9-41cf-8e43-bb228123d5eb .guide.line{fill-opacity:0}#chart-76214405-96a9-41cf-8e43-bb228123d5eb .centered{text-anchor:middle}#chart-76214405-96a9-41cf-8e43-bb228123d5eb .title{text-anchor:middle}#chart-76214405-96a9-41cf-8e43-bb228123d5eb .legends .legend text{fill-opacity:1}#chart-76214405-96a9-41cf-8e43-bb228123d5eb .axis.x text{text-anchor:middle}#chart-76214405-96a9-41cf-8e43-bb228123d5eb .axis.x:not(.web) text[transform]{text-anchor:start}#chart-76214405-96a9-41cf-8e43-bb228123d5eb .axis.y text{text-anchor:end}#chart-76214405-96a9-41cf-8e43-bb228123d5eb .axis.y2 text{text-anchor:start}#chart-76214405-96a9-41cf-8e43-bb228123d5eb .axis.y .logarithmic text:not(.major),#chart-76214405-96a9-41cf-8e43-bb228123d5eb .axis.y2 .logarithmic text:not(.major){font-size:50%}#chart-76214405-96a9-41cf-8e43-bb228123d5eb .axis .guide.line{stroke-dasharray:4,4}#chart-76214405-96a9-41cf-8e43-bb228123d5eb .axis .major.guide.line{stroke-dasharray:6,6}#chart-76214405-96a9-41cf-8e43-bb228123d5eb .axis text.major{stroke-width:0.5px}#chart-76214405-96a9-41cf-8e43-bb228123d5eb .horizontal .axis.y .guide.line,#chart-76214405-96a9-41cf-8e43-bb228123d5eb .horizontal .axis.y2 .guide.line,#chart-76214405-96a9-41cf-8e43-bb228123d5eb .vertical .axis.x .guide.line{opacity:0}#chart-76214405-96a9-41cf-8e43-bb228123d5eb .horizontal .axis.always_show .guide.line,#chart-76214405-96a9-41cf-8e43-bb228123d5eb .vertical .axis.always_show .guide.line{opacity:1 !important}#chart-76214405-96a9-41cf-8e43-bb228123d5eb .axis.y .guides:hover .guide.line,#chart-76214405-96a9-41cf-8e43-bb228123d5eb .axis.y2 .guides:hover .guide.line,#chart-76214405-96a9-41cf-8e43-bb228123d5eb .axis.x .guides:hover .guide.line{opacity:1}#chart-76214405-96a9-41cf-8e43-bb228123d5eb .axis .guides:hover text{opacity:1}#chart-76214405-96a9-41cf-8e43-bb228123d5eb .nofill{fill:none}#chart-76214405-96a9-41cf-8e43-bb228123d5eb .subtle-fill{fill-opacity:.2}#chart-76214405-96a9-41cf-8e43-bb228123d5eb .dot{stroke-width:1px;fill-opacity:1}#chart-76214405-96a9-41cf-8e43-bb228123d5eb .dot.active{stroke-width:5px}#chart-76214405-96a9-41cf-8e43-bb228123d5eb .series text{stroke:none}#chart-76214405-96a9-41cf-8e43-bb228123d5eb .series text.active{opacity:1}#chart-76214405-96a9-41cf-8e43-bb228123d5eb .tooltip rect{fill-opacity:0.8}#chart-76214405-96a9-41cf-8e43-bb228123d5eb .tooltip text{fill-opacity:1}#chart-76214405-96a9-41cf-8e43-bb228123d5eb .tooltip text tspan.label{fill-opacity:.8}</style><script type="text/javascript">window.config = {"css": ["style.css", "graph.css"], "disable_xml_declaration": false, "dots_size": 2.5, "explicit_size": false, "fill": false, "half_pie": false, "height": 768, "human_readable": false, "include_x_axis": false, "inner_radius": 0, "interpolate": null, "interpolation_parameters": {}, "interpolation_precision": 250, "js": ["http://kozea.github.io/pygal.js/javascripts/svg.jquery.js", "http://kozea.github.io/pygal.js/javascripts/pygal-tooltips.js"], "label_font_size": 10, "legend_at_bottom": true, "legend_at_bottom_columns": null, "legend_box_size": 12, "legend_font_size": 14, "logarithmic": false, "major_label_font_size": 10, "margin": 20, "margin_bottom": null, "margin_left": null, "margin_right": null, "margin_top": null, "missing_value_fill_truncation": "x", "mode": null, "no_data_font_size": 64, "no_data_text": "No data", "no_prefix": false, "order_min": null, "pretty_print": false, "print_values": false, "print_zeroes": false, "range": null, "rounded_bars": null, "show_dots": false, "show_legend": true, "show_minor_x_labels": true, "show_minor_y_labels": true, "show_only_major_dots": false, "show_x_guides": false, "show_x_labels": true, "show_y_guides": true, "show_y_labels": true, "spacing": 10, "stack_from_top": false, "strict": false, "stroke": true, "style": {"background": "black", "colors": ["#ff5995", "#b6e354", "#feed6c", "#8cedff", "#9e6ffe", "#899ca1", "#f8f8f2", "#bf4646", "#516083", "#f92672", "#82b414", "#fd971f", "#56c2d6", "#808384", "#8c54fe", "#465457"], "font_family": "monospace", "foreground": "#999", "foreground_dark": "#555", "foreground_light": "#eee", "opacity": ".8", "opacity_hover": ".4", "plot_background": "#111", "stroke_dasharray": "0,0", "stroke_style": "round", "stroke_width": 1.0, "transition": "250ms"}, "title": "Election 8 and 9 and 10 Caucus", "title_font_size": 16, "tooltip_border_radius": 0, "tooltip_font_size": 16, "truncate_label": null, "truncate_legend": null, "value_font_size": 8, "width": 1024, "x_label_format": "%Y-%m-%d %H:%M:%S.%f", "x_label_rotation": 0, "x_labels": null, "x_labels_major": null, "x_labels_major_count": null, "x_labels_major_every": null, "x_title": null, "x_value_formatter": null, "xrange": null, "y_label_rotation": 0, "y_labels": null, "y_labels_major": null, "y_labels_major_count": null, "y_labels_major_every": null, "y_title": "Users", "zero": 0}</script><script type="text/javascript" xlink:href="http://kozea.github.io/pygal.js/javascripts/svg.jquery.js" /><script type="text/javascript" xlink:href="http://kozea.github.io/pygal.js/javascripts/pygal-tooltips.js" /></defs><title>Election 8 and 9 and 10 Caucus</title><g class="graph line-graph vertical"><rect class="background" height="768" width="1024" x="0" y="0" /><g class="plot" transform="translate(86, 46)"><rect class="background" height="657.0" width="918.0" x="0" y="0" /><g class="axis y"><path class="line" d="M0.000000 657.000000 h918.000000" /><g class="guides"><path class="guide line" d="M0.000000 586.167980 h918.000000" /><text class="" x="-5" y="589.6679801663956">10000</text></g><g class="guides"><path class="guide line" d="M0.000000 514.025419 h918.000000" /><text class="" x="-5" y="517.5254185586246">20000</text></g><g class="guides"><path class="guide line" d="M0.000000 441.882857 h918.000000" /><text class="" x="-5" y="445.38285695085347">30000</text></g><g class="guides"><path class="guide line" d="M0.000000 369.740295 h918.000000" /><text class="" x="-5" y="373.2402953430823">40000</text></g><g class="guides"><path class="major guide line" d="M0.000000 297.597734 h918.000000" /><text class="major" x="-5" y="301.09773373531124">50000</text></g><g class="guides"><path class="guide line" d="M0.000000 225.455172 h918.000000" /><text class="" x="-5" y="228.95517212754015">60000</text></g><g class="guides"><path class="guide line" d="M0.000000 153.312611 h918.000000" /><text class="" x="-5" y="156.81261051976907">70000</text></g><g class="guides"><path class="guide line" d="M0.000000 81.170049 h918.000000" /><text class="" x="-5" y="84.67004891199792">80000</text></g></g><g class="series serie-0 color-0"><path class="line reactive nofill" d="M17.653846 643.001890 L20.105769 637.374770 22.557692 633.089502 25.009615 630.809797 27.461538 629.251518 29.913462 627.642739 32.365385 626.445172 34.817308 624.987893 37.269231 622.859687 39.721154 619.757557 42.173077 617.196496 44.625000 613.683153 47.076923 609.924526 49.528846 606.389540 51.980769 603.568766 54.432692 601.325132 56.884615 599.348426 59.336538 597.415006 61.788462 595.589799 64.240385 594.053162 66.692308 592.588668 69.144231 591.181888 71.596154 590.323392 74.048077 589.443252 76.500000 588.736255 78.951923 588.137472 81.403846 587.646903 83.855769 587.250119 86.307692 586.867763 88.759615 586.535907 91.211538 586.341122 93.663462 586.110266 96.115385 585.879410 98.567308 585.403269 101.019231 584.912700 103.471154 584.580844 105.923077 583.563634 108.375000 582.596923 110.826923 581.824998 113.278846 581.240643 115.730769 580.497575 118.182692 579.595793 120.634615 578.831082 123.086538 578.102442 125.538462 577.503659 127.990385 577.056375 130.442308 576.551377 132.894231 576.075236 135.346154 575.635166 137.798077 575.209525 140.250000 574.971455 142.701923 574.718956 145.153846 574.560242 147.605769 574.415957 150.057692 574.250029 152.509615 574.076887 154.961538 573.831602 157.413462 573.607960 159.865385 573.232819 162.317308 572.872106 164.769231 572.388751 167.221154 571.869324 169.673077 571.277755 172.125000 570.801615 174.576923 570.224474 177.028846 569.726690 179.480769 569.279406 181.932692 568.774409 184.384615 568.298268 186.836538 567.850984 189.288462 567.562414 191.740385 567.230558 194.192308 566.927559 196.644231 566.660632 199.096154 566.429775 201.548077 566.177276 204.000000 566.054634 206.451923 565.924777 208.903846 565.794921 211.355769 565.693921 213.807692 565.484708 216.259615 565.282709 218.711538 565.059067 221.163462 564.777711 223.615385 564.517997 226.067308 564.178927 228.519231 563.854286 230.971154 563.486359 233.423077 563.176146 235.875000 562.858719 238.326923 562.425863 240.778846 562.094007 243.230769 561.668366 245.682692 561.430296 248.134615 561.257154 250.586538 560.983012 253.038462 560.788227 255.490385 560.586228 257.942308 560.405871 260.394231 560.254372 262.846154 560.124515 265.298077 560.081230 267.750000 560.030730 270.201923 559.951373 272.653846 559.864802 275.105769 559.785445 277.557692 559.713303 280.009615 559.597875 282.461538 559.468018 284.913462 559.316519 287.365385 559.172234 289.817308 559.049591 292.269231 558.919735 294.721154 558.753807 297.173077 558.652807 299.625000 558.522951 302.076923 558.342594 304.528846 558.205523 306.980769 558.097309 309.432692 557.909739 311.884615 557.787096 314.336538 557.606740 316.788462 557.520169 319.240385 557.440812 321.692308 557.354241 324.144231 557.282098 326.596154 557.202742 329.048077 557.123385 331.500000 557.044028 333.951923 556.971885 336.403846 556.892529 338.855769 556.762672 341.307692 556.625601 343.759615 556.517387 346.211538 556.315388 348.663462 556.185532 351.115385 556.034032 353.567308 555.875319 356.019231 555.781533 358.471154 555.601177 360.923077 555.420820 363.375000 555.218821 365.826923 555.125036 368.278846 554.951894 370.730769 554.829251 373.182692 554.634466 375.634615 554.533467 378.086538 554.381968 380.538462 554.273754 382.990385 554.165540 385.442308 554.021255 387.894231 553.869755 390.346154 553.718256 392.798077 553.545114 395.250000 553.299829 397.701923 552.960759 400.153846 552.614475 402.605769 552.095048 405.057692 551.719907 407.509615 551.214909 409.961538 550.818125 412.413462 550.341984 414.865385 549.808129 417.317308 549.375274 419.769231 548.978490 422.221154 548.603348 424.673077 548.285921 427.125000 548.098350 429.576923 510.555361 432.028846 491.278869 434.480769 477.340926 436.932692 468.712676 439.384615 461.916846 441.836538 455.871300 444.288462 449.804110 446.740385 443.109280 449.192308 433.449391 451.644231 421.170728 454.096154 407.413141 456.548077 391.801491 459.000000 372.048857 461.451923 353.457719 463.903846 338.257281 466.355769 326.036332 468.807692 314.948020 471.259615 305.612772 473.711538 296.212597 476.163462 287.620417 478.615385 280.557661 481.067308 274.728542 483.519231 270.096989 485.971154 265.097510 488.423077 261.439882 490.875000 257.724540 493.326923 254.983123 495.778846 253.013631 498.230769 251.246138 500.682692 250.135142 503.134615 248.576863 505.586538 247.191726 508.038462 245.539661 510.490385 243.274385 512.942308 240.266040 515.394231 237.178338 517.846154 233.455782 520.298077 229.055086 522.750000 224.257606 525.201923 220.672120 527.653846 217.245349 530.105769 213.212579 532.557692 209.836308 535.009615 206.546607 537.461538 203.884546 539.913462 201.792412 542.365385 199.707492 544.817308 197.889499 547.269231 196.085935 549.721154 194.390585 552.173077 193.171376 554.625000 192.204665 557.076923 191.375026 559.528846 190.732957 561.980769 190.018746 564.432692 189.254035 566.884615 188.301753 569.336538 187.436042 571.788462 185.906620 574.240385 184.341126 576.692308 182.732347 579.144231 180.488713 581.596154 178.396579 584.048077 176.412659 586.500000 174.558595 588.951923 172.733388 591.403846 170.720611 593.855769 168.902618 596.307692 167.084626 598.759615 165.814916 601.211538 164.372065 603.663462 163.051856 606.115385 162.178931 608.567308 161.039079 611.019231 160.267153 613.471154 159.682799 615.923077 159.156158 618.375000 158.788231 620.826923 158.225519 623.278846 157.763807 625.730769 157.208309 628.182692 156.696097 630.634615 155.823172 633.086538 154.971889 635.538462 154.034036 637.990385 152.785970 640.442308 151.617260 642.894231 150.455765 645.346154 149.546769 647.798077 148.305917 650.250000 147.202136 652.701923 146.083926 655.153846 145.225429 657.605769 144.338076 660.057692 143.609436 662.509615 142.837511 664.961538 134.230903 667.413462 129.404566 669.865385 125.963365 672.317308 123.784660 674.769231 122.392309 677.221154 121.028814 679.673077 120.090961 682.125000 119.066537 684.576923 117.876184 687.028846 116.858974 689.480769 115.668622 691.932692 114.471055 694.384615 112.970490 696.836538 111.282354 699.288462 109.666361 701.740385 108.194652 704.192308 106.780658 706.644231 105.359450 709.096154 103.952670 711.548077 102.589175 714.000000 101.081396 716.451923 99.963186 718.903846 98.866619 721.355769 97.661838 723.807692 96.666271 726.259615 95.750061 728.711538 95.115206 731.163462 94.545280 733.615385 94.076353 736.067308 93.686783 738.519231 93.369356 740.971154 93.008643 743.423077 92.525288 745.875000 92.056361 748.326923 91.544149 750.778846 90.894866 753.230769 90.187869 755.682692 89.343801 758.134615 88.413162 760.586538 87.619594 763.038462 86.948668 765.490385 85.989172 767.942308 85.166747 770.394231 84.409250 772.846154 83.557968 775.298077 82.699471 777.750000 81.884260 780.201923 81.119549 782.653846 80.448623 785.105769 79.705555 787.557692 78.948058 790.009615 78.385346 792.461538 77.714420 794.913462 77.079566 797.365385 76.386997 799.817308 75.759357 802.269231 74.850361 804.721154 73.450795 807.173077 71.510160 809.625000 69.331455 812.076923 66.467395 814.528846 63.127194 816.980769 60.097207 819.432692 57.795859 821.884615 55.292512 824.336538 53.041664 826.788462 50.329104 829.240385 48.309112 831.692308 46.707547 834.144231 45.358481 836.596154 44.168129 839.048077 43.172562 841.500000 42.140923 843.951923 41.058785 846.403846 40.301288 848.855769 39.753004 851.307692 39.269649 853.759615 38.865651 856.211538 38.411153 858.663462 38.057654 861.115385 37.668084 863.567308 37.090944 866.019231 36.218019 868.471154 35.496593 870.923077 34.479383 873.375000 32.942746 875.826923 31.947179 878.278846 30.771255 880.730769 29.530403 883.182692 28.433836 885.634615 26.825057 888.086538 25.641919 890.538462 24.704066 892.990385 23.593070 895.442308 22.828359 897.894231 22.150219 900.346154 22.106934" /></g><g class="series serie-1 color-1"><path class="line reactive nofill" d="M17.653846 644.365385 L20.105769 639.596761 22.557692 636.545131 25.009615 634.748781 27.461538 633.125574 29.913462 631.668294 32.365385 630.211014 34.817308 628.349736 37.269231 626.055602 39.721154 622.838044 42.173077 618.747561 44.625000 614.231437 47.076923 610.299667 49.528846 607.464464 51.980769 604.521048 54.432692 602.327914 56.884615 600.134780 59.336538 597.898361 61.788462 595.741298 64.240385 594.125305 66.692308 592.898881 69.144231 591.946599 71.596154 590.756247 74.048077 589.832822 76.500000 589.068111 78.951923 588.288971 81.403846 587.827259 83.855769 587.423261 86.307692 587.141905 88.759615 586.874977 91.211538 586.622478 93.663462 586.283408 96.115385 585.807267 98.567308 585.129127 101.019231 584.393273 103.471154 583.527562 105.923077 582.640209 108.375000 581.586928 110.826923 580.634646 113.278846 579.689578 115.730769 578.758939 118.182692 577.979799 120.634615 577.005875 123.086538 576.089664 125.538462 575.483667 127.990385 574.978669 130.442308 574.473671 132.894231 573.903745 135.346154 573.456461 137.798077 573.196748 140.250000 572.850463 142.701923 572.662893 145.153846 572.482536 147.605769 572.251680 150.057692 572.028038 152.509615 571.847682 154.961538 571.573540 157.413462 571.263327 159.865385 570.852114 162.317308 570.311045 164.769231 569.798833 167.221154 569.589620 169.673077 569.048550 172.125000 568.442553 174.576923 567.771627 177.028846 567.230558 179.480769 566.545203 181.932692 565.989706 184.384615 565.665064 186.836538 565.282709 189.288462 564.864282 191.740385 564.503569 194.192308 564.113999 196.644231 563.832643 199.096154 563.601787 201.548077 563.486359 204.000000 563.363716 206.451923 563.306002 208.903846 563.168932 211.355769 563.060718 213.807692 562.829861 216.259615 562.635077 218.711538 562.202221 221.163462 561.812651 223.615385 561.307653 226.067308 560.874798 228.519231 560.564585 230.971154 560.167801 233.423077 559.771017 235.875000 559.367019 238.326923 559.064020 240.778846 558.797092 243.230769 558.566236 245.682692 558.349808 248.134615 558.097309 250.586538 557.873668 253.038462 557.592312 255.490385 557.433598 257.942308 557.246027 260.394231 557.116171 262.846154 557.094528 265.298077 557.094528 267.750000 557.094528 270.201923 557.094528 272.653846 557.094528 275.105769 557.094528 277.557692 557.094528 280.009615 557.094528 282.461538 557.094528 284.913462 557.094528 287.365385 557.094528 289.817308 557.094528 292.269231 557.094528 294.721154 557.094528 297.173077 557.094528 299.625000 557.094528 302.076923 557.094528 304.528846 557.094528 306.980769 557.094528 309.432692 554.858108 311.884615 554.721038 314.336538 554.591181 316.788462 554.475753 319.240385 554.425253 321.692308 554.381968 324.144231 554.295396 326.596154 554.194397 329.048077 554.093397 331.500000 553.999612 333.951923 553.905827 336.403846 553.790399 338.855769 553.718256 341.307692 553.595614 343.759615 553.451328 346.211538 553.371972 348.663462 553.227687 351.115385 553.054544 353.567308 552.910259 356.019231 552.773188 358.471154 552.592832 360.923077 552.419690 363.375000 552.217691 365.826923 552.037334 368.278846 551.871406 370.730769 551.792050 373.182692 551.633336 375.634615 551.489051 378.086538 551.402480 380.538462 551.344766 382.990385 551.272623 385.442308 551.113909 387.894231 551.041767 390.346154 550.883053 392.798077 550.659411 395.250000 550.421341 397.701923 550.031771 400.153846 549.591701 402.605769 549.086704 405.057692 548.516777 407.509615 548.026208 409.961538 547.427425 412.413462 546.965712 414.865385 546.489571 417.317308 546.013430 419.769231 545.717646 422.221154 545.364147 424.673077 545.039506 427.125000 543.798654 429.576923 511.767356 432.028846 495.015854 434.480769 486.748316 436.932692 480.623413 439.384615 475.046793 441.836538 469.470173 444.288462 463.424626 446.740385 455.820800 449.192308 444.277990 451.644231 428.954910 454.096154 410.702842 456.548077 388.634432 459.000000 370.973933 461.451923 354.590357 463.903846 341.431554 466.355769 329.441460 468.807692 318.021293 471.259615 307.272051 473.711538 297.633805 476.163462 289.532195 478.615385 284.056575 481.067308 278.407812 483.519231 274.115330 485.971154 269.714634 488.423077 265.782864 490.875000 263.091947 493.326923 261.180169 495.778846 259.463176 498.230769 258.179038 500.682692 256.815544 503.134615 255.567477 505.586538 253.965912 508.038462 252.126277 510.490385 249.536359 512.942308 245.871517 515.394231 241.506892 517.846154 236.471341 520.298077 232.236573 522.750000 228.045090 525.201923 224.300891 527.653846 220.022837 530.105769 216.148782 532.557692 212.245869 535.009615 209.028311 537.461538 206.214751 539.913462 204.064903 542.365385 202.030482 544.817308 199.736349 547.269231 197.968856 549.721154 196.504362 552.173077 195.429438 554.625000 194.570942 557.076923 193.719659 559.528846 193.019876 561.980769 192.284022 564.432692 191.555382 566.884615 190.516530 569.336538 189.282892 571.788462 187.472113 574.240385 185.416050 576.692308 183.121917 579.144231 180.697927 581.596154 178.526436 584.048077 176.492016 586.500000 174.421524 588.951923 172.192319 591.403846 170.287755 593.855769 168.397620 596.307692 167.012483 598.759615 165.454204 601.211538 164.069066 603.663462 162.849857 606.115385 161.695576 608.567308 160.764937 611.019231 160.101226 613.471154 159.560156 615.923077 159.242729 618.375000 158.781017 620.826923 158.348161 623.278846 157.835949 625.730769 157.338165 628.182692 156.537383 630.634615 155.556244 633.086538 154.387535 635.538462 153.132254 637.990385 151.494618 640.442308 150.217695 642.894231 148.688272 645.346154 147.526777 647.798077 145.961283 650.250000 144.756503 652.701923 143.696007 655.153846 142.729297 657.605769 141.697658 660.057692 140.860804 662.509615 139.706523 664.961538 131.532771 667.413462 127.290789 669.865385 124.917298 672.317308 123.250805 674.769231 122.183095 677.221154 121.418384 679.673077 120.242460 682.125000 119.066537 684.576923 117.746328 687.028846 116.238548 689.480769 114.543198 691.932692 112.638634 694.384615 110.892784 696.836538 109.370576 699.288462 108.057582 701.740385 106.427160 704.192308 105.070880 706.644231 103.534243 709.096154 102.026463 711.548077 100.749540 714.000000 99.133547 716.451923 97.914337 718.903846 97.026984 721.355769 95.923203 723.807692 95.021421 726.259615 94.292781 728.711538 93.629069 731.163462 93.066357 733.615385 92.590216 736.067308 92.243932 738.519231 91.818291 740.971154 91.500864 743.423077 91.003080 745.875000 90.317726 748.326923 89.589086 750.778846 88.708947 753.230769 88.001949 755.682692 87.042453 758.134615 86.198385 760.586538 85.426460 763.038462 84.575178 765.490385 83.651753 767.942308 82.829328 770.394231 81.920332 772.846154 81.162835 775.298077 80.333195 777.750000 79.546841 780.201923 78.904772 782.653846 78.089562 785.105769 77.497993 787.557692 76.920852 790.009615 76.372569 792.461538 75.881999 794.913462 75.348144 797.365385 74.540148 799.817308 73.847579 802.269231 72.512942 804.721154 70.774306 807.173077 68.206031 809.625000 64.728759 812.076923 61.085560 814.528846 58.062786 816.980769 55.083299 819.432692 52.587166 821.884615 49.737535 824.336538 46.844618 826.788462 44.290771 829.240385 42.299637 831.692308 40.539358 834.144231 38.988293 836.596154 37.552656 839.048077 36.282947 841.500000 35.078166 843.951923 34.226884 846.403846 33.433316 848.855769 32.949961 851.307692 32.473820 853.759615 32.214107 856.211538 31.817323 858.663462 31.427753 861.115385 30.980469 863.567308 30.316757 866.019231 29.140833 868.471154 27.640268 870.923077 26.320059 873.375000 24.833923 875.826923 23.456000 878.278846 22.121362 880.730769 20.671297 883.182692 19.221231 885.634615 17.814451 888.086538 16.342743 890.538462 15.303890 892.990385 14.358823 895.442308 13.594111 897.894231 12.713972 900.346154 12.713972" /></g><g class="series serie-2 color-2"><path class="line reactive nofill" d="M17.653846 644.257171 L20.105769 639.113406 22.557692 635.376421 25.009615 633.414144 27.461538 631.964078 29.913462 630.456299 32.365385 629.201018 34.817308 627.967380 37.269231 625.846389 39.721154 623.083329 42.173077 620.046127 44.625000 616.215357 47.076923 612.940085 49.528846 610.104882 51.980769 607.637607 54.432692 605.855685 56.884615 604.016050 59.336538 602.010487 61.788462 600.336779 64.240385 598.778500 66.692308 597.559291 69.144231 596.708008 71.596154 595.791798 74.048077 595.055944 76.500000 594.399446 78.951923 593.894449 81.403846 593.483236 83.855769 593.115309 86.307692 592.870024 88.759615 592.610311 91.211538 592.343383 93.663462 592.105313 96.115385 591.701315 98.567308 591.311745 101.019231 590.857247 103.471154 590.294535 105.923077 589.522609 108.375000 588.692970 110.826923 587.906616 113.278846 587.250119 115.730769 586.514264 118.182692 585.756768 120.634615 585.049770 123.086538 584.422130 125.538462 583.895489 127.990385 583.426563 130.442308 582.892708 132.894231 582.553638 135.346154 582.243425 137.798077 581.882712 140.250000 581.687927 142.701923 581.406571 145.153846 581.291143 147.605769 581.161286 150.057692 581.060287 152.509615 580.894359 154.961538 580.692360 157.413462 580.374932 159.865385 580.071934 162.317308 579.696792 164.769231 579.177366 167.221154 578.766153 169.673077 578.290012 172.125000 577.748943 174.576923 577.243945 177.028846 576.782233 179.480769 576.378235 181.932692 575.930951 184.384615 575.606309 186.836538 575.288882 189.288462 575.021954 191.740385 574.740598 194.192308 574.488099 196.644231 574.192315 199.096154 574.098530 201.548077 573.990316 204.000000 573.882102 206.451923 573.781102 208.903846 573.708960 211.355769 573.607960 213.807692 573.478104 216.259615 573.297747 218.711538 573.088534 221.163462 572.886535 223.615385 572.677321 226.067308 572.316608 228.519231 572.013610 230.971154 571.710611 233.423077 571.378755 235.875000 571.018042 238.326923 570.722258 240.778846 570.440902 243.230769 570.260545 245.682692 570.036903 248.134615 569.827690 250.586538 569.676191 253.038462 569.459763 255.490385 569.272192 257.942308 569.135121 260.394231 568.947551 262.846154 568.897051 265.298077 568.803266 267.750000 568.709480 270.201923 568.651766 272.653846 568.601266 275.105769 568.557981 277.557692 568.471410 280.009615 568.377624 282.461538 568.254982 284.913462 568.153983 287.365385 568.045769 289.817308 567.951983 292.269231 567.843770 294.721154 567.749984 297.173077 567.598485 299.625000 567.432557 302.076923 567.317129 304.528846 567.216129 306.980769 567.100701 309.432692 567.006916 311.884615 566.905916 314.336538 566.804917 316.788462 566.754417 319.240385 566.646203 321.692308 566.588489 324.144231 566.537989 326.596154 566.473061 329.048077 566.386490 331.500000 566.350418 333.951923 566.285490 336.403846 566.191705 338.855769 566.097920 341.307692 565.953634 343.759615 565.787707 346.211538 565.585707 348.663462 565.369280 351.115385 565.196138 353.567308 564.979710 356.019231 564.813782 358.471154 564.640640 360.923077 564.424212 363.375000 564.272713 365.826923 564.070714 368.278846 563.984142 370.730769 563.832643 373.182692 563.710001 375.634615 563.580144 378.086538 563.450288 380.538462 563.334859 382.990385 563.226646 385.442308 563.111217 387.894231 562.981361 390.346154 562.829861 392.798077 562.570148 395.250000 562.245507 397.701923 561.892008 400.153846 561.437510 402.605769 560.925298 405.057692 560.377014 407.509615 559.893659 409.961538 559.460804 412.413462 559.006306 414.865385 558.342594 417.317308 557.895310 419.769231 557.527383 422.221154 557.267670 424.673077 557.000743 427.125000 554.454110 429.576923 522.603169 432.028846 506.255665 434.480769 495.787779 436.932692 488.753879 439.384615 483.357616 441.836538 477.643925 444.288462 472.060090 446.740385 465.127190 449.192308 455.654872 451.644231 443.917277 454.096154 430.311190 456.548077 413.552473 459.000000 394.788193 461.451923 375.720914 463.903846 361.790185 466.355769 349.266236 468.807692 336.677359 471.259615 324.809908 473.711538 313.793739 476.163462 305.562273 478.615385 297.496734 481.067308 291.371831 483.519231 285.932282 485.971154 281.935584 488.423077 277.866743 490.875000 274.901684 493.326923 272.607550 495.778846 270.948271 498.230769 269.649705 500.682692 268.206854 503.134615 266.670218 505.586538 264.938796 508.038462 262.947661 510.490385 260.768956 512.942308 257.587469 515.394231 253.951484 517.846154 249.897072 520.298077 245.193377 522.750000 240.641181 525.201923 236.067343 527.653846 231.897503 530.105769 227.482378 532.557692 223.377466 535.009615 219.452911 537.461538 216.372424 539.913462 213.840220 542.365385 211.358516 544.817308 209.093239 547.269231 207.008319 549.721154 205.435611 552.173077 204.093760 554.625000 203.199192 557.076923 202.326267 559.528846 201.525484 561.980769 200.861773 564.432692 199.938348 566.884615 198.899495 569.336538 197.687500 571.788462 196.078721 574.240385 194.029872 576.692308 191.591454 579.144231 188.987107 581.596154 186.310618 584.048077 183.994842 586.500000 181.837779 588.951923 179.558074 591.403846 176.953728 593.855769 174.659594 596.307692 172.805531 598.759615 171.052466 601.211538 169.537473 603.663462 168.173978 606.115385 167.077411 608.567308 165.915916 611.019231 164.949206 613.471154 164.227780 615.923077 163.787710 618.375000 163.174499 620.826923 162.712786 623.278846 162.186146 625.730769 161.666719 628.182692 160.966936 630.634615 160.101226 633.086538 158.975802 635.538462 157.771021 637.990385 156.183884 640.442308 154.546248 642.894231 153.189968 645.346154 151.855331 647.798077 150.181623 650.250000 148.580058 652.701923 147.216564 655.153846 145.990141 657.605769 144.944073 660.057692 144.006220 662.509615 142.628297 664.961538 134.858543 667.413462 130.667060 669.865385 127.904000 672.317308 125.840723 674.769231 124.599871 677.221154 123.322948 679.673077 122.240809 682.125000 121.151457 684.576923 119.852890 687.028846 118.676967 689.480769 117.212473 691.932692 115.538765 694.384615 114.009343 696.836538 112.537635 699.288462 110.762928 701.740385 109.125292 704.192308 107.516512 706.644231 105.806734 709.096154 104.371097 711.548077 102.856103 714.000000 101.326681 716.451923 99.898258 718.903846 98.657406 721.355769 97.604124 723.807692 96.687914 726.259615 95.735632 728.711538 94.978135 731.163462 94.393780 733.615385 93.895997 736.067308 93.369356 738.519231 92.922072 740.971154 92.388217 743.423077 91.839934 745.875000 91.241151 748.326923 90.620724 750.778846 89.791085 753.230769 88.824375 755.682692 87.915378 758.134615 87.035239 760.586538 86.075743 763.038462 85.137890 765.490385 84.315465 767.942308 83.399254 770.394231 82.483044 772.846154 81.638976 775.298077 80.903121 777.750000 79.972482 780.201923 79.106772 782.653846 78.334846 785.105769 77.685563 787.557692 77.021852 790.009615 76.408640 792.461538 75.925285 794.913462 75.340930 797.365385 74.561790 799.817308 73.789865 802.269231 72.635584 804.721154 71.026805 807.173077 68.400816 809.625000 65.082258 812.076923 61.453487 814.528846 58.041144 816.980769 55.242012 819.432692 52.781951 821.884615 49.889034 824.336538 47.263045 826.788462 44.593770 829.240385 42.523279 831.692308 40.993856 834.144231 39.738576 836.596154 38.649223 839.048077 37.249657 841.500000 35.958306 843.951923 35.186380 846.403846 34.565954 848.855769 34.118670 851.307692 33.642529 853.759615 33.289031 856.211538 32.784033 858.663462 32.358392 861.115385 31.795680 863.567308 31.009326 866.019231 29.811759 868.471154 28.578121 870.923077 26.969342 873.375000 25.447134 875.826923 23.960998 878.278846 22.395504 880.730769 20.707368 883.182692 19.019232 885.634615 17.598024 888.086538 16.292243 890.538462 15.289462 892.990385 14.524750 895.442308 13.601326 897.894231 12.634615 900.346154 12.634615" /></g></g><g class="titles"><text class="title plot_title" x="512.0" y="26">Election 8 and 9 and 10 Caucus</text><text class="title" transform="rotate(-90 0.000000 374.500000)" x="0" y="400.5">Users</text></g><g class="plot overlay" transform="translate(86, 46)"><g class="series serie-0 color-0" /><g class="series serie-1 color-1" /><g class="series serie-2 color-2" /></g><g class="plot text-overlay" transform="translate(86, 46)"><g class="series serie-0 color-0" /><g class="series serie-1 color-1" /><g class="series serie-2 color-2" /></g><g class="plot tooltip-overlay" transform="translate(86, 46)"><g class="tooltip" style="opacity: 0" transform="translate(0 0)"><a><rect class="tooltip-box" height="0" rx="0" ry="0" width="0" /><text class="text"><tspan class="label" /><tspan class="value" /></text></a></g></g><g class="legends" transform="translate(96, 713)"><g class="legend reactive activate-serie" id="activate-serie-0"><rect class="color-0 reactive" height="12" width="12" x="0.0" y="1.0" /><text x="17.0" y="11.2">8 caucus</text></g><g class="legend reactive activate-serie" id="activate-serie-1"><rect class="color-1 reactive" height="12" width="12" x="459.0" y="1.0" /><text x="476.0" y="11.2">9 caucus</text></g><g class="legend reactive activate-serie" id="activate-serie-2"><rect class="color-2 reactive" height="12" width="12" x="0.0" y="22.0" /><text x="17.0" y="32.2">10 caucus</text></g></g></g></svg>