<?xml version='1.0' encoding='utf-8'?>
<svg xmlns:xlink="http://www.w3.org/1999/xlink" class="pygal-chart" id="chart-11e613ea-31ac-44e2-801f-f927da3e0433" viewBox="0 0 1024 768" xmlns="http://www.w3.org/2000/svg"><!--Generated with pygal 1.7.0 (etree) ©Kozea 2011-2014 on 2015-11-15--><!--http://pygal.org--><!--http://github.com/Kozea/pygal--><defs><style type="text/css">#chart-11e613ea-31ac-44e2-801f-f927da3e0433 .title{font-family:"monospace";font-size:16px}#chart-11e613ea-31ac-44e2-801f-f927da3e0433 .legends .legend text{font-family:"monospace";font-size:14px}#chart-11e613ea-31ac-44e2-801f-f927da3e0433 .axis text{font-family:"monospace";font-size:10px}#chart-11e613ea-31ac-44e2-801f-f927da3e0433 .axis text.major{font-family:"monospace";font-size:10px}#chart-11e613ea-31ac-44e2-801f-f927da3e0433 .series text{font-family:"monospace";font-size:8px}#chart-11e613ea-31ac-44e2-801f-f927da3e0433 .tooltip text{font-family:"monospace";font-size:16px}#chart-11e613ea-31ac-44e2-801f-f927da3e0433 text.no_data{font-size:64px}
#chart-11e613ea-31ac-44e2-801f-f927da3e0433{background-color:black}#chart-11e613ea-31ac-44e2-801f-f927da3e0433 path,#chart-11e613ea-31ac-44e2-801f-f927da3e0433 line,#chart-11e613ea-31ac-44e2-801f-f927da3e0433 rect,#chart-11e613ea-31ac-44e2-801f-f927da3e0433 circle{-webkit-transition:250ms;-moz-transition:250ms;transition:250ms}#chart-11e613ea-31ac-44e2-801f-f927da3e0433 .graph &gt; .background{fill:black}#chart-11e613ea-31ac-44e2-801f-f927da3e0433 .plot &gt; .background{fill:#111}#chart-11e613ea-31ac-44e2-801f-f927da3e0433 .graph{fill:#999}#chart-11e613ea-31ac-44e2-801f-f927da3e0433 text.no_data{fill:#eee}#chart-11e613ea-31ac-44e2-801f-f927da3e0433 .title{fill:#eee}#chart-11e613ea-31ac-44e2-801f-f927da3e0433 .legends .legend text{fill:#999}#chart-11e613ea-31ac-44e2-801f-f927da3e0433 .legends .legend:hover text{fill:#eee}#chart-11e613ea-31ac-44e2-801f-f927da3e0433 .axis .line{stroke:#eee}#chart-11e613ea-31ac-44e2-801f-f927da3e0433 .axis .guide.line{stroke:#555}#chart-11e613ea-31ac-44e2-801f-f927da3e0433 .axis .major.line{stroke:#999}#chart-11e613ea-31ac-44e2-801f-f927da3e0433 .axis text.major{stroke:#eee;fill:#eee}#chart-11e613ea-31ac-44e2-801f-f927da3e0433 .axis.y .guides:hover .guide.line,#chart-11e613ea-31ac-44e2-801f-f927da3e0433 .line-graph .axis.x .guides:hover .guide.line,#chart-11e613ea-31ac-44e2-801f-f927da3e0433 .stackedline-graph .axis.x .guides:hover .guide.line,#chart-11e613ea-31ac-44e2-801f-f927da3e0433 .xy-graph .axis.x .guides:hover .guide.line{stroke:#eee}#chart-11e613ea-31ac-44e2-801f-f927da3e0433 .axis .guides:hover text{fill:#eee}#chart-11e613ea-31ac-44e2-801f-f927da3e0433 .reactive{fill-opacity:.8}#chart-11e613ea-31ac-44e2-801f-f927da3e0433 .reactive.active,#chart-11e613ea-31ac-44e2-801f-f927da3e0433 .active .reactive{fill-opacity:.4}#chart-11e613ea-31ac-44e2-801f-f927da3e0433 .series{stroke-width:1.0;stroke-linejoin:round;stroke-linecap:round;stroke-dasharray:0,0}#chart-11e613ea-31ac-44e2-801f-f927da3e0433 .series text{fill:#eee}#chart-11e613ea-31ac-44e2-801f-f927da3e0433 .tooltip rect{fill:#111;stroke:#eee}#chart-11e613ea-31ac-44e2-801f-f927da3e0433 .tooltip text{fill:#eee}#chart-11e613ea-31ac-44e2-801f-f927da3e0433 .map-element{fill:#999;stroke:#555 !important;opacity:.9;stroke-width:3;-webkit-transition:250ms;-moz-transition:250ms;-o-transition:250ms;transition:250ms}#chart-11e613ea-31ac-44e2-801f-f927da3e0433 .map-element:hover{opacity:1;stroke-width:10}#chart-11e613ea-31ac-44e2-801f-f927da3e0433 .color-0,#chart-11e613ea-31ac-44e2-801f-f927da3e0433 .color-0 a:visited{stroke:#ff5995;fill:#ff5995}#chart-11e613ea-31ac-44e2-801f-f927da3e0433 .color-1,#chart-11e613ea-31ac-44e2-801f-f927da3e0433 .color-1 a:visited{stroke:#b6e354;fill:#b6e354}#chart-11e613ea-31ac-44e2-801f-f927da3e0433 .color-2,#chart-11e613ea-31ac-44e2-801f-f927da3e0433 .color-2 a:visited{stroke:#feed6c;fill:#feed6c}#chart-11e613ea-31ac-44e2-801f-f927da3e0433 .color-3,#chart-11e613ea-31ac-44e2-801f-f927da3e0433 .color-3 a:visited{stroke:#8cedff;fill:#8cedff}#chart-11e613ea-31ac-44e2-801f-f927da3e0433 .color-4,#chart-11e613ea-31ac-44e2-801f-f927da3e0433 .color-4 a:visited{stroke:#9e6ffe;fill:#9e6ffe}#chart-11e613ea-31ac-44e2-801f-f927da3e0433 .color-5,#chart-11e613ea-31ac-44e2-801f-f927da3e0433 .color-5 a:visited{stroke:#899ca1;fill:#899ca1}#chart-11e613ea-31ac-44e2-801f-f927da3e0433 .color-6,#chart-11e613ea-31ac-44e2-801f-f927da3e0433 .color-6 a:visited{stroke:#f8f8f2;fill:#f8f8f2}#chart-11e613ea-31ac-44e2-801f-f927da3e0433 .color-7,#chart-11e613ea-31ac-44e2-801f-f927da3e0433 .color-7 a:visited{stroke:#bf4646;fill:#bf4646}#chart-11e613ea-31ac-44e2-801f-f927da3e0433 .color-8,#chart-11e613ea-31ac-44e2-801f-f927da3e0433 .color-8 a:visited{stroke:#516083;fill:#516083}#chart-11e613ea-31ac-44e2-801f-f927da3e0433 .color-9,#chart-11e613ea-31ac-44e2-801f-f927da3e0433 .color-9 a:visited{stroke:#f92672;fill:#f92672}#chart-11e613ea-31ac-44e2-801f-f927da3e0433 .color-10,#chart-11e613ea-31ac-44e2-801f-f927da3e0433 .color-10 a:visited{stroke:#82b414;fill:#82b414}#chart-11e613ea-31ac-44e2-801f-f927da3e0433 .color-11,#chart-11e613ea-31ac-44e2-801f-f927da3e0433 .color-11 a:visited{stroke:#fd971f;fill:#fd971f}#chart-11e613ea-31ac-44e2-801f-f927da3e0433 .color-12,#chart-11e613ea-31ac-44e2-801f-f927da3e0433 .color-12 a:visited{stroke:#56c2d6;fill:#56c2d6}#chart-11e613ea-31ac-44e2-801f-f927da3e0433 .color-13,#chart-11e613ea-31ac-44e2-801f-f927da3e0433 .color-13 a:visited{stroke:#808384;fill:#808384}#chart-11e613ea-31ac-44e2-801f-f927da3e0433 .color-14,#chart-11e613ea-31ac-44e2-801f-f927da3e0433 .color-14 a:visited{stroke:#8c54fe;fill:#8c54fe}#chart-11e613ea-31ac-44e2-801f-f927da3e0433 .color-15,#chart-11e613ea-31ac-44e2-801f-f927da3e0433 .color-15 a:visited{stroke:#465457;fill:#465457}
#chart-11e613ea-31ac-44e2-801f-f927da3e0433 text.no_data{text-anchor:middle}#chart-11e613ea-31ac-44e2-801f-f927da3e0433 .guide.line{fill-opacity:0}#chart-11e613ea-31ac-44e2-801f-f927da3e0433 .centered{text-anchor:middle}#chart-11e613ea-31ac-44e2-801f-f927da3e0433 .title{text-anchor:middle}#chart-11e613ea-31ac-44e2-801f-f927da3e0433 .legends .legend text{fill-opacity:1}#chart-11e613ea-31ac-44e2-801f-f927da3e0433 .axis.x text{text-anchor:middle}#chart-11e613ea-31ac-44e2-801f-f927da3e0433 .axis.x:not(.web) text[transform]{text-anchor:start}#chart-11e613ea-31ac-44e2-801f-f927da3e0433 .axis.y text{text-anchor:end}#chart-11e613ea-31ac-44e2-801f-f927da3e0433 .axis.y2 text{text-anchor:start}#chart-11e613ea-31ac-44e2-801f-f927da3e0433 .axis.y .logarithmic text:not(.major),#chart-11e613ea-31ac-44e2-801f-f927da3e0433 .axis.y2 .logarithmic text:not(.major){font-size:50%}#chart-11e613ea-31ac-44e2-801f-f927da3e0433 .axis .guide.line{stroke-dasharray:4,4}#chart-11e613ea-31ac-44e2-801f-f927da3e0433 .axis .major.guide.line{stroke-dasharray:6,6}#chart-11e613ea-31ac-44e2-801f-f927da3e0433 .axis text.major{stroke-width:0.5px}#chart-11e613ea-31ac-44e2-801f-f927da3e0433 .horizontal .axis.y .guide.line,#chart-11e613ea-31ac-44e2-801f-f927da3e0433 .horizontal .axis.y2 .guide.line,#chart-11e613ea-31ac-44e2-801f-f927da3e0433 .vertical .axis.x .guide.line{opacity:0}#chart-11e613ea-31ac-44e2-801f-f927da3e0433 .horizontal .axis.always_show .guide.line,#chart-11e613ea-31ac-44e2-801f-f927da3e0433 .vertical .axis.always_show .guide.line{opacity:1 !important}#chart-11e613ea-31ac-44e2-801f-f927da3e0433 .axis.y .guides:hover .guide.line,#chart-11e613ea-31ac-44e2-801f-f927da3e0433 .axis.y2 .guides:hover .guide.line,#chart-11e613ea-31ac-44e2-801f-f927da3e0433 .axis.x .guides:hover .guide.line{opacity:1}#chart-11e613ea-31ac-44e2-801f-f927da3e0433 .axis .guides:hover text{opacity:1}#chart-11e613ea-31ac-44e2-801f-f927da3e0433 .nofill{fill:none}#chart-11e613ea-31ac-44e2-801f-f927da3e0433 .subtle-fill{fill-opacity:.2}#chart-11e613ea-31ac-44e2-801f-f927da3e0433 .dot{stroke-width:1px;fill-opacity:1}#chart-11e613ea-31ac-44e2-801f-f927da3e0433 .dot.active{stroke-width:5px}#chart-11e613ea-31ac-44e2-801f-f927da3e0433 .series text{stroke:none}#chart-11e613ea-31ac-44e2-801f-f927da3e0433 .series text.active{opacity:1}#chart-11e613ea-31ac-44e2-801f-f927da3e0433 .tooltip rect{fill-opacity:0.8}#chart-11e613ea-31ac-44e2-801f-f927da3e0433 .tooltip text{fill-opacity:1}#chart-11e613ea-31ac-44e2-801f-f927da3e0433 .tooltip text tspan.label{fill-opacity:.8}</style><script type="text/javascript">window.config = {"show_legend": true, "interpolation_parameters": {}, "margin": 20, "strict": false, "y_labels_major": null, "xrange": null, "legend_box_size": 12, "show_only_major_dots": false, "height": 768, "logarithmic": false, "tooltip_border_radius": 0, "stack_from_top": false, "x_label_rotation": 0, "y_label_rotation": 0, "js": ["http://kozea.github.io/pygal.js/javascripts/svg.jquery.js", "http://kozea.github.io/pygal.js/javascripts/pygal-tooltips.js"], "no_data_text": "No data", "mode": null, "x_labels_major_every": null, "legend_at_bottom": true, "show_minor_x_labels": true, "explicit_size": false, "show_dots": false, "interpolation_precision": 250, "include_x_axis": false, "spacing": 10, "no_prefix": false, "major_label_font_size": 10, "dots_size": 2.5, "value_font_size": 8, "legend_at_bottom_columns": null, "truncate_legend": null, "y_labels_major_count": null, "show_minor_y_labels": true, "legend_font_size": 14, "x_value_formatter": null, "margin_right": null, "truncate_label": null, "inner_radius": 0, "rounded_bars": null, "stroke": true, "x_labels_major_count": null, "show_y_labels": true, "y_title": "Users", "show_x_guides": false, "x_label_format": "%Y-%m-%d %H:%M:%S.%f", "show_y_guides": true, "margin_left": null, "tooltip_font_size": 16, "label_font_size": 10, "human_readable": false, "range": null, "width": 1024, "zero": 0, "margin_bottom": null, "style": {"font_family": "monospace", "foreground_dark": "#555", "plot_background": "#111", "stroke_width": 1.0, "stroke_dasharray": "0,0", "opacity": ".8", "opacity_hover": ".4", "stroke_style": "round", "colors": ["#ff5995", "#b6e354", "#feed6c", "#8cedff", "#9e6ffe", "#899ca1", "#f8f8f2", "#bf4646", "#516083", "#f92672", "#82b414", "#fd971f", "#56c2d6", "#808384", "#8c54fe", "#465457"], "foreground_light": "#eee", "foreground": "#999", "transition": "250ms", "background": "black"}, "pretty_print": false, "title_font_size": 16, "margin_top": null, "show_x_labels": true, "x_title": null, "x_labels": null, "missing_value_fill_truncation": "x", "css": ["style.css", "graph.css"], "no_data_font_size": 64, "interpolate": null, "title": "Election 3 Participation", "order_min": null, "print_zeroes": false, "half_pie": false, "fill": false, "y_labels_major_every": null, "print_values": false, "y_labels": null, "disable_xml_declaration": false, "x_labels_major": null}</script><script type="text/javascript" xlink:href="http://kozea.github.io/pygal.js/javascripts/svg.jquery.js" /><script type="text/javascript" xlink:href="http://kozea.github.io/pygal.js/javascripts/pygal-tooltips.js" /></defs><title>Election 3 Participation</title><g class="graph line-graph vertical"><rect class="background" height="768" width="1024" x="0" y="0" /><g class="plot" transform="translate(74, 46)"><rect class="background" height="657.0" width="930.0" x="0" y="0" /><g class="axis y"><path class="line" d="M0.000000 657.000000 h930.000000" /><g class="guides"><path class="guide line" d="M0.000000 623.839836 h930.000000" /><text class="" x="-5" y="627.3398361566232">380</text></g><g class="guides"><path class="major guide line" d="M0.000000 578.227506 h930.000000" /><text class="major" x="-5" y="581.7275062482643">400</text></g><g class="guides"><path class="guide line" d="M0.000000 532.615176 h930.000000" /><text class="" x="-5" y="536.1151763399055">420</text></g><g class="guides"><path class="guide line" d="M0.000000 487.002846 h930.000000" /><text class="" x="-5" y="490.50284643154674">440</text></g><g class="guides"><path class="guide line" d="M0.000000 441.390517 h930.000000" /><text class="" x="-5" y="444.89051652318796">460</text></g><g class="guides"><path class="guide line" d="M0.000000 395.778187 h930.000000" /><text class="" x="-5" y="399.27818661482917">480</text></g><g class="guides"><path class="major guide line" d="M0.000000 350.165857 h930.000000" /><text class="major" x="-5" y="353.6658567064704">500</text></g><g class="guides"><path class="guide line" d="M0.000000 304.553527 h930.000000" /><text class="" x="-5" y="308.0535267981116">520</text></g><g class="guides"><path class="guide line" d="M0.000000 258.941197 h930.000000" /><text class="" x="-5" y="262.4411968897528">540</text></g><g class="guides"><path class="guide line" d="M0.000000 213.328867 h930.000000" /><text class="" x="-5" y="216.82886698139401">560</text></g><g class="guides"><path class="guide line" d="M0.000000 167.716537 h930.000000" /><text class="" x="-5" y="171.21653707303517">580</text></g><g class="guides"><path class="major guide line" d="M0.000000 122.104207 h930.000000" /><text class="major" x="-5" y="125.60420716467638">600</text></g><g class="guides"><path class="guide line" d="M0.000000 76.491877 h930.000000" /><text class="" x="-5" y="79.9918772563176">620</text></g><g class="guides"><path class="guide line" d="M0.000000 30.879547 h930.000000" /><text class="" x="-5" y="34.379547347958805">640</text></g></g><g class="series serie-0 color-0"><path class="line reactive nofill" d="M17.884615 644.365385 L20.368590 644.365385 22.852564 644.365385 25.336538 644.365385 27.820513 644.365385 30.304487 644.365385 32.788462 644.365385 35.272436 644.365385 37.756410 644.365385 40.240385 644.365385 42.724359 644.365385 45.208333 644.365385 47.692308 644.365385 50.176282 644.365385 52.660256 644.365385 55.144231 644.365385 57.628205 644.365385 60.112179 644.365385 62.596154 644.365385 65.080128 644.365385 67.564103 644.365385 70.048077 644.365385 72.532051 644.365385 75.016026 644.365385 77.500000 644.365385 79.983974 644.365385 82.467949 644.365385 84.951923 644.365385 87.435897 644.365385 89.919872 644.365385 92.403846 644.365385 94.887821 644.365385 97.371795 644.365385 99.855769 644.365385 102.339744 644.365385 104.823718 644.365385 107.307692 644.365385 109.791667 644.365385 112.275641 644.365385 114.759615 644.365385 117.243590 644.365385 119.727564 644.365385 122.211538 644.365385 124.695513 644.365385 127.179487 644.365385 129.663462 644.365385 132.147436 644.365385 134.631410 644.365385 137.115385 644.365385 139.599359 644.365385 142.083333 644.365385 144.567308 644.365385 147.051282 644.365385 149.535256 644.365385 152.019231 644.365385 154.503205 644.365385 156.987179 644.365385 159.471154 644.365385 161.955128 644.365385 164.439103 644.365385 166.923077 644.365385 169.407051 644.365385 171.891026 644.365385 174.375000 644.365385 176.858974 644.365385 179.342949 644.365385 181.826923 644.365385 184.310897 644.365385 186.794872 644.365385 189.278846 644.365385 191.762821 644.365385 194.246795 644.365385 196.730769 644.365385 199.214744 644.365385 201.698718 644.365385 204.182692 644.365385 206.666667 644.365385 209.150641 644.365385 211.634615 644.365385 214.118590 644.365385 216.602564 644.365385 219.086538 644.365385 221.570513 644.365385 224.054487 644.365385 226.538462 644.365385 229.022436 644.365385 231.506410 644.365385 233.990385 644.365385 236.474359 644.365385 238.958333 644.365385 241.442308 644.365385 243.926282 644.365385 246.410256 644.365385 248.894231 644.365385 251.378205 644.365385 253.862179 644.365385 256.346154 644.365385 258.830128 644.365385 261.314103 644.365385 263.798077 644.365385 266.282051 644.365385 268.766026 644.365385 271.250000 644.365385 273.733974 644.365385 276.217949 644.365385 278.701923 644.365385 281.185897 644.365385 283.669872 644.365385 286.153846 644.365385 288.637821 644.365385 291.121795 644.365385 293.605769 644.365385 296.089744 644.365385 298.573718 644.365385 301.057692 644.365385 303.541667 644.365385 306.025641 644.365385 308.509615 644.365385 310.993590 644.365385 313.477564 644.365385 315.961538 644.365385 318.445513 644.365385 320.929487 644.365385 323.413462 644.365385 325.897436 644.365385 328.381410 644.365385 330.865385 644.365385 333.349359 644.365385 335.833333 644.365385 338.317308 644.365385 340.801282 644.365385 343.285256 644.365385 345.769231 644.365385 348.253205 644.365385 350.737179 644.365385 353.221154 644.365385 355.705128 644.365385 358.189103 644.365385 360.673077 644.365385 363.157051 644.365385 365.641026 644.365385 368.125000 644.365385 370.608974 644.365385 373.092949 644.365385 375.576923 644.365385 378.060897 644.365385 380.544872 644.365385 383.028846 644.365385 385.512821 644.365385 387.996795 644.365385 390.480769 644.365385 392.964744 644.365385 395.448718 644.365385 397.932692 644.365385 400.416667 644.365385 402.900641 644.365385 405.384615 644.365385 407.868590 644.365385 410.352564 644.365385 412.836538 644.365385 415.320513 644.365385 417.804487 644.365385 420.288462 644.365385 422.772436 644.365385 425.256410 644.365385 427.740385 644.365385 430.224359 644.365385 432.708333 644.365385 435.192308 644.365385 437.676282 644.365385 440.160256 644.365385 442.644231 644.365385 445.128205 644.365385 447.612179 644.365385 450.096154 644.365385 452.580128 644.365385 455.064103 644.365385 457.548077 644.365385 460.032051 644.365385 462.516026 644.365385 465.000000 644.365385 467.483974 644.365385 469.967949 644.365385 472.451923 644.365385 474.935897 644.365385 477.419872 644.365385 479.903846 644.365385 482.387821 644.365385 484.871795 644.365385 487.355769 644.365385 489.839744 644.365385 492.323718 644.365385 494.807692 644.365385 497.291667 644.365385 499.775641 644.365385 502.259615 644.365385 504.743590 644.365385 507.227564 644.365385 509.711538 644.365385 512.195513 644.365385 514.679487 644.365385 517.163462 644.365385 519.647436 644.365385 522.131410 644.365385 524.615385 644.365385 527.099359 644.365385 529.583333 644.365385 532.067308 644.365385 534.551282 644.365385 537.035256 644.365385 539.519231 644.365385 542.003205 644.365385 544.487179 644.365385 546.971154 644.365385 549.455128 644.365385 551.939103 644.365385 554.423077 644.365385 556.907051 644.365385 559.391026 644.365385 561.875000 644.365385 564.358974 644.365385 566.842949 644.365385 569.326923 644.365385 571.810897 644.365385 574.294872 644.365385 576.778846 644.365385 579.262821 644.365385 581.746795 644.365385 584.230769 644.365385 586.714744 644.365385 589.198718 644.365385 591.682692 644.365385 594.166667 644.365385 596.650641 644.365385 599.134615 644.365385 601.618590 644.365385 604.102564 644.365385 606.586538 644.365385 609.070513 644.365385 611.554487 644.365385 614.038462 644.365385 616.522436 644.365385 619.006410 644.365385 621.490385 644.365385 623.974359 644.365385 626.458333 644.365385 628.942308 644.365385 631.426282 644.365385 633.910256 644.365385 636.394231 644.365385 638.878205 644.365385 641.362179 644.365385 643.846154 644.365385 646.330128 644.365385 648.814103 644.365385 651.298077 644.365385 653.782051 644.365385 656.266026 644.365385 658.750000 644.365385 661.233974 644.365385 663.717949 644.365385 666.201923 644.365385 668.685897 644.365385 671.169872 644.365385 673.653846 644.365385 676.137821 644.365385 678.621795 644.365385 681.105769 644.365385 683.589744 644.365385 686.073718 644.365385 688.557692 644.365385 691.041667 644.365385 693.525641 644.365385 696.009615 644.365385 698.493590 644.365385 700.977564 644.365385 703.461538 644.365385 705.945513 644.365385 708.429487 644.365385 710.913462 644.365385 713.397436 644.365385 715.881410 644.365385 718.365385 644.365385 720.849359 644.365385 723.333333 644.365385 725.817308 644.365385 728.301282 644.365385 730.785256 644.365385 733.269231 644.365385 735.753205 644.365385 738.237179 644.365385 740.721154 644.365385 743.205128 644.365385 745.689103 644.365385 748.173077 644.365385 750.657051 644.365385 753.141026 644.365385 755.625000 644.365385 758.108974 644.365385 760.592949 644.365385 763.076923 644.365385 765.560897 644.365385 768.044872 644.365385 770.528846 644.365385 773.012821 644.365385 775.496795 644.365385 777.980769 644.365385 780.464744 644.365385 782.948718 644.365385 785.432692 644.365385 787.916667 644.365385 790.400641 644.365385 792.884615 644.365385 795.368590 644.365385 797.852564 644.365385 800.336538 644.365385 802.820513 644.365385 805.304487 644.365385 807.788462 644.365385 810.272436 644.365385 812.756410 644.365385 815.240385 644.365385 817.724359 644.365385 820.208333 644.365385 822.692308 644.365385 825.176282 644.365385 827.660256 644.365385 830.144231 644.365385 832.628205 644.365385 835.112179 644.365385 837.596154 644.365385 840.080128 644.365385 842.564103 644.365385 845.048077 644.365385 847.532051 644.365385 850.016026 644.365385 852.500000 644.365385 854.983974 644.365385 857.467949 644.365385 859.951923 644.365385 862.435897 644.365385 864.919872 644.365385 867.403846 644.365385 869.887821 644.365385 872.371795 644.365385 874.855769 644.365385 877.339744 644.365385 879.823718 644.365385 882.307692 644.365385 884.791667 644.365385 887.275641 644.365385 889.759615 644.365385 892.243590 644.365385 894.727564 644.365385 897.211538 644.365385 899.695513 644.365385 902.179487 644.365385 904.663462 644.365385 907.147436 644.365385 909.631410 644.365385 912.115385 644.365385" /></g><g class="series serie-1 color-1"><path class="line reactive nofill" d="M17.884615 12.634615 L20.368590 12.634615 22.852564 12.634615 25.336538 12.634615 27.820513 12.634615 30.304487 12.634615 32.788462 12.634615 35.272436 12.634615 37.756410 12.634615 40.240385 12.634615 42.724359 12.634615 45.208333 12.634615 47.692308 12.634615 50.176282 12.634615 52.660256 12.634615 55.144231 12.634615 57.628205 12.634615 60.112179 12.634615 62.596154 12.634615 65.080128 12.634615 67.564103 12.634615 70.048077 12.634615 72.532051 12.634615 75.016026 12.634615 77.500000 12.634615 79.983974 12.634615 82.467949 12.634615 84.951923 12.634615 87.435897 12.634615 89.919872 12.634615 92.403846 12.634615 94.887821 12.634615 97.371795 12.634615 99.855769 12.634615 102.339744 12.634615 104.823718 12.634615 107.307692 12.634615 109.791667 12.634615 112.275641 12.634615 114.759615 12.634615 117.243590 12.634615 119.727564 12.634615 122.211538 12.634615 124.695513 12.634615 127.179487 12.634615 129.663462 12.634615 132.147436 12.634615 134.631410 12.634615 137.115385 12.634615 139.599359 12.634615 142.083333 12.634615 144.567308 12.634615 147.051282 12.634615 149.535256 12.634615 152.019231 12.634615 154.503205 12.634615 156.987179 12.634615 159.471154 12.634615 161.955128 12.634615 164.439103 12.634615 166.923077 12.634615 169.407051 12.634615 171.891026 12.634615 174.375000 12.634615 176.858974 12.634615 179.342949 12.634615 181.826923 12.634615 184.310897 12.634615 186.794872 12.634615 189.278846 12.634615 191.762821 12.634615 194.246795 12.634615 196.730769 12.634615 199.214744 12.634615 201.698718 12.634615 204.182692 12.634615 206.666667 12.634615 209.150641 12.634615 211.634615 12.634615 214.118590 12.634615 216.602564 12.634615 219.086538 12.634615 221.570513 12.634615 224.054487 12.634615 226.538462 12.634615 229.022436 12.634615 231.506410 12.634615 233.990385 12.634615 236.474359 12.634615 238.958333 12.634615 241.442308 12.634615 243.926282 12.634615 246.410256 12.634615 248.894231 12.634615 251.378205 12.634615 253.862179 12.634615 256.346154 12.634615 258.830128 12.634615 261.314103 12.634615 263.798077 12.634615 266.282051 12.634615 268.766026 12.634615 271.250000 12.634615 273.733974 12.634615 276.217949 12.634615 278.701923 12.634615 281.185897 12.634615 283.669872 12.634615 286.153846 12.634615 288.637821 12.634615 291.121795 12.634615 293.605769 12.634615 296.089744 12.634615 298.573718 12.634615 301.057692 12.634615 303.541667 12.634615 306.025641 12.634615 308.509615 12.634615 310.993590 12.634615 313.477564 12.634615 315.961538 12.634615 318.445513 12.634615 320.929487 12.634615 323.413462 12.634615 325.897436 12.634615 328.381410 12.634615 330.865385 12.634615 333.349359 12.634615 335.833333 12.634615 338.317308 12.634615 340.801282 12.634615 343.285256 12.634615 345.769231 12.634615 348.253205 12.634615 350.737179 12.634615 353.221154 12.634615 355.705128 12.634615 358.189103 12.634615 360.673077 12.634615 363.157051 12.634615 365.641026 12.634615 368.125000 12.634615 370.608974 12.634615 373.092949 12.634615 375.576923 12.634615 378.060897 12.634615 380.544872 12.634615 383.028846 12.634615 385.512821 12.634615 387.996795 12.634615 390.480769 12.634615 392.964744 12.634615 395.448718 12.634615 397.932692 12.634615 400.416667 12.634615 402.900641 12.634615 405.384615 12.634615 407.868590 12.634615 410.352564 12.634615 412.836538 12.634615 415.320513 12.634615 417.804487 12.634615 420.288462 12.634615 422.772436 12.634615 425.256410 12.634615 427.740385 12.634615 430.224359 12.634615 432.708333 12.634615 435.192308 12.634615 437.676282 12.634615 440.160256 12.634615 442.644231 12.634615 445.128205 12.634615 447.612179 12.634615 450.096154 12.634615 452.580128 12.634615 455.064103 12.634615 457.548077 12.634615 460.032051 12.634615 462.516026 12.634615 465.000000 12.634615 467.483974 12.634615 469.967949 12.634615 472.451923 12.634615 474.935897 12.634615 477.419872 12.634615 479.903846 12.634615 482.387821 12.634615 484.871795 12.634615 487.355769 12.634615 489.839744 12.634615 492.323718 12.634615 494.807692 12.634615 497.291667 12.634615 499.775641 12.634615 502.259615 12.634615 504.743590 12.634615 507.227564 12.634615 509.711538 12.634615 512.195513 12.634615 514.679487 12.634615 517.163462 12.634615 519.647436 12.634615 522.131410 12.634615 524.615385 12.634615 527.099359 12.634615 529.583333 12.634615 532.067308 12.634615 534.551282 12.634615 537.035256 12.634615 539.519231 12.634615 542.003205 12.634615 544.487179 12.634615 546.971154 12.634615 549.455128 12.634615 551.939103 12.634615 554.423077 12.634615 556.907051 12.634615 559.391026 12.634615 561.875000 12.634615 564.358974 12.634615 566.842949 12.634615 569.326923 12.634615 571.810897 12.634615 574.294872 12.634615 576.778846 12.634615 579.262821 12.634615 581.746795 12.634615 584.230769 12.634615 586.714744 12.634615 589.198718 12.634615 591.682692 12.634615 594.166667 12.634615 596.650641 12.634615 599.134615 12.634615 601.618590 12.634615 604.102564 12.634615 606.586538 12.634615 609.070513 12.634615 611.554487 12.634615 614.038462 12.634615 616.522436 12.634615 619.006410 12.634615 621.490385 12.634615 623.974359 12.634615 626.458333 12.634615 628.942308 12.634615 631.426282 12.634615 633.910256 12.634615 636.394231 12.634615 638.878205 12.634615 641.362179 12.634615 643.846154 12.634615 646.330128 12.634615 648.814103 12.634615 651.298077 12.634615 653.782051 12.634615 656.266026 12.634615 658.750000 12.634615 661.233974 12.634615 663.717949 12.634615 666.201923 12.634615 668.685897 12.634615 671.169872 12.634615 673.653846 12.634615 676.137821 12.634615 678.621795 12.634615 681.105769 12.634615 683.589744 12.634615 686.073718 12.634615 688.557692 12.634615 691.041667 12.634615 693.525641 12.634615 696.009615 12.634615 698.493590 12.634615 700.977564 12.634615 703.461538 12.634615 705.945513 12.634615 708.429487 12.634615 710.913462 12.634615 713.397436 12.634615 715.881410 12.634615 718.365385 12.634615 720.849359 12.634615 723.333333 12.634615 725.817308 12.634615 728.301282 12.634615 730.785256 12.634615 733.269231 12.634615 735.753205 12.634615 738.237179 12.634615 740.721154 12.634615 743.205128 12.634615 745.689103 12.634615 748.173077 12.634615 750.657051 12.634615 753.141026 12.634615 755.625000 12.634615 758.108974 12.634615 760.592949 12.634615 763.076923 12.634615 765.560897 12.634615 768.044872 12.634615 770.528846 12.634615 773.012821 12.634615 775.496795 12.634615 777.980769 12.634615 780.464744 12.634615 782.948718 12.634615 785.432692 12.634615 787.916667 12.634615 790.400641 12.634615 792.884615 12.634615 795.368590 12.634615 797.852564 12.634615 800.336538 12.634615 802.820513 12.634615 805.304487 12.634615 807.788462 12.634615 810.272436 12.634615 812.756410 12.634615 815.240385 12.634615 817.724359 12.634615 820.208333 12.634615 822.692308 12.634615 825.176282 12.634615 827.660256 12.634615 830.144231 12.634615 832.628205 12.634615 835.112179 12.634615 837.596154 12.634615 840.080128 12.634615 842.564103 12.634615 845.048077 12.634615 847.532051 12.634615 850.016026 12.634615 852.500000 12.634615 854.983974 12.634615 857.467949 12.634615 859.951923 12.634615 862.435897 12.634615 864.919872 12.634615 867.403846 12.634615 869.887821 12.634615 872.371795 12.634615 874.855769 12.634615 877.339744 12.634615 879.823718 12.634615 882.307692 12.634615 884.791667 12.634615 887.275641 12.634615 889.759615 12.634615 892.243590 12.634615 894.727564 12.634615 897.211538 12.634615 899.695513 12.634615 902.179487 12.634615 904.663462 12.634615 907.147436 12.634615 909.631410 12.634615 912.115385 12.634615" /></g></g><g class="titles"><text class="title plot_title" x="512.0" y="26">Election 3 Participation</text><text class="title" transform="rotate(-90 0.000000 374.500000)" x="0" y="400.5">Users</text></g><g class="plot overlay" transform="translate(74, 46)"><g class="series serie-0 color-0" /><g class="series serie-1 color-1" /></g><g class="plot text-overlay" transform="translate(74, 46)"><g class="series serie-0 color-0" /><g class="series serie-1 color-1" /></g><g class="plot tooltip-overlay" transform="translate(74, 46)"><g class="tooltip" style="opacity: 0" transform="translate(0 0)"><a><rect class="tooltip-box" height="0" rx="0" ry="0" width="0" /><text class="text"><tspan class="label" /><tspan class="value" /></text></a></g></g><g class="legends" transform="translate(84, 713)"><g class="legend reactive activate-serie" id="activate-serie-0"><rect class="color-0 reactive" height="12" width="12" x="0.0" y="1.0" /><text x="17.0" y="11.2">constituents</text></g><g class="legend reactive activate-serie" id="activate-serie-1"><rect class="color-1 reactive" height="12" width="12" x="465.0" y="1.0" /><text x="482.0" y="11.2">caucus</text></g></g></g></svg>