<?xml version='1.0' encoding='utf-8'?>
<svg xmlns:xlink="http://www.w3.org/1999/xlink" class="pygal-chart" id="chart-77f736c5-24a6-4402-94d4-4ca9d13b5641" viewBox="0 0 1024 768" xmlns="http://www.w3.org/2000/svg"><!--Generated with pygal 1.7.0 (etree) ©Kozea 2011-2014 on 2015-11-15--><!--http://pygal.org--><!--http://github.com/Kozea/pygal--><defs><style type="text/css">#chart-77f736c5-24a6-4402-94d4-4ca9d13b5641 .title{font-family:"monospace";font-size:16px}#chart-77f736c5-24a6-4402-94d4-4ca9d13b5641 .legends .legend text{font-family:"monospace";font-size:14px}#chart-77f736c5-24a6-4402-94d4-4ca9d13b5641 .axis text{font-family:"monospace";font-size:10px}#chart-77f736c5-24a6-4402-94d4-4ca9d13b5641 .axis text.major{font-family:"monospace";font-size:10px}#chart-77f736c5-24a6-4402-94d4-4ca9d13b5641 .series text{font-family:"monospace";font-size:8px}#chart-77f736c5-24a6-4402-94d4-4ca9d13b5641 .tooltip text{font-family:"monospace";font-size:16px}#chart-77f736c5-24a6-4402-94d4-4ca9d13b5641 text.no_data{font-size:64px}
#chart-77f736c5-24a6-4402-94d4-4ca9d13b5641{background-color:black}#chart-77f736c5-24a6-4402-94d4-4ca9d13b5641 path,#chart-77f736c5-24a6-4402-94d4-4ca9d13b5641 line,#chart-77f736c5-24a6-4402-94d4-4ca9d13b5641 rect,#chart-77f736c5-24a6-4402-94d4-4ca9d13b5641 circle{-webkit-transition:250ms;-moz-transition:250ms;transition:250ms}#chart-77f736c5-24a6-4402-94d4-4ca9d13b5641 .graph &gt; .background{fill:black}#chart-77f736c5-24a6-4402-94d4-4ca9d13b5641 .plot &gt; .background{fill:#111}#chart-77f736c5-24a6-4402-94d4-4ca9d13b5641 .graph{fill:#999}#chart-77f736c5-24a6-4402-94d4-4ca9d13b5641 text.no_data{fill:#eee}#chart-77f736c5-24a6-4402-94d4-4ca9d13b5641 .title{fill:#eee}#chart-77f736c5-24a6-4402-94d4-4ca9d13b5641 .legends .legend text{fill:#999}#chart-77f736c5-24a6-4402-94d4-4ca9d13b5641 .legends .legend:hover text{fill:#eee}#chart-77f736c5-24a6-4402-94d4-4ca9d13b5641 .axis .line{stroke:#eee}#chart-77f736c5-24a6-4402-94d4-4ca9d13b5641 .axis .guide.line{stroke:#555}#chart-77f736c5-24a6-4402-94d4-4ca9d13b5641 .axis .major.line{stroke:#999}#chart-77f736c5-24a6-4402-94d4-4ca9d13b5641 .axis text.major{stroke:#eee;fill:#eee}#chart-77f736c5-24a6-4402-94d4-4ca9d13b5641 .axis.y .guides:hover .guide.line,#chart-77f736c5-24a6-4402-94d4-4ca9d13b5641 .line-graph .axis.x .guides:hover .guide.line,#chart-77f736c5-24a6-4402-94d4-4ca9d13b5641 .stackedline-graph .axis.x .guides:hover .guide.line,#chart-77f736c5-24a6-4402-94d4-4ca9d13b5641 .xy-graph .axis.x .guides:hover .guide.line{stroke:#eee}#chart-77f736c5-24a6-4402-94d4-4ca9d13b5641 .axis .guides:hover text{fill:#eee}#chart-77f736c5-24a6-4402-94d4-4ca9d13b5641 .reactive{fill-opacity:.8}#chart-77f736c5-24a6-4402-94d4-4ca9d13b5641 .reactive.active,#chart-77f736c5-24a6-4402-94d4-4ca9d13b5641 .active .reactive{fill-opacity:.4}#chart-77f736c5-24a6-4402-94d4-4ca9d13b5641 .series{stroke-width:1.0;stroke-linejoin:round;stroke-linecap:round;stroke-dasharray:0,0}#chart-77f736c5-24a6-4402-94d4-4ca9d13b5641 .series text{fill:#eee}#chart-77f736c5-24a6-4402-94d4-4ca9d13b5641 .tooltip rect{fill:#111;stroke:#eee}#chart-77f736c5-24a6-4402-94d4-4ca9d13b5641 .tooltip text{fill:#eee}#chart-77f736c5-24a6-4402-94d4-4ca9d13b5641 .map-element{fill:#999;stroke:#555 !important;opacity:.9;stroke-width:3;-webkit-transition:250ms;-moz-transition:250ms;-o-transition:250ms;transition:250ms}#chart-77f736c5-24a6-4402-94d4-4ca9d13b5641 .map-element:hover{opacity:1;stroke-width:10}#chart-77f736c5-24a6-4402-94d4-4ca9d13b5641 .color-0,#chart-77f736c5-24a6-4402-94d4-4ca9d13b5641 .color-0 a:visited{stroke:#ff5995;fill:#ff5995}#chart-77f736c5-24a6-4402-94d4-4ca9d13b5641 .color-1,#chart-77f736c5-24a6-4402-94d4-4ca9d13b5641 .color-1 a:visited{stroke:#b6e354;fill:#b6e354}#chart-77f736c5-24a6-4402-94d4-4ca9d13b5641 .color-2,#chart-77f736c5-24a6-4402-94d4-4ca9d13b5641 .color-2 a:visited{stroke:#feed6c;fill:#feed6c}#chart-77f736c5-24a6-4402-94d4-4ca9d13b5641 .color-3,#chart-77f736c5-24a6-4402-94d4-4ca9d13b5641 .color-3 a:visited{stroke:#8cedff;fill:#8cedff}#chart-77f736c5-24a6-4402-94d4-4ca9d13b5641 .color-4,#chart-77f736c5-24a6-4402-94d4-4ca9d13b5641 .color-4 a:visited{stroke:#9e6ffe;fill:#9e6ffe}#chart-77f736c5-24a6-4402-94d4-4ca9d13b5641 .color-5,#chart-77f736c5-24a6-4402-94d4-4ca9d13b5641 .color-5 a:visited{stroke:#899ca1;fill:#899ca1}#chart-77f736c5-24a6-4402-94d4-4ca9d13b5641 .color-6,#chart-77f736c5-24a6-4402-94d4-4ca9d13b5641 .color-6 a:visited{stroke:#f8f8f2;fill:#f8f8f2}#chart-77f736c5-24a6-4402-94d4-4ca9d13b5641 .color-7,#chart-77f736c5-24a6-4402-94d4-4ca9d13b5641 .color-7 a:visited{stroke:#bf4646;fill:#bf4646}#chart-77f736c5-24a6-4402-94d4-4ca9d13b5641 .color-8,#chart-77f736c5-24a6-4402-94d4-4ca9d13b5641 .color-8 a:visited{stroke:#516083;fill:#516083}#chart-77f736c5-24a6-4402-94d4-4ca9d13b5641 .color-9,#chart-77f736c5-24a6-4402-94d4-4ca9d13b5641 .color-9 a:visited{stroke:#f92672;fill:#f92672}#chart-77f736c5-24a6-4402-94d4-4ca9d13b5641 .color-10,#chart-77f736c5-24a6-4402-94d4-4ca9d13b5641 .color-10 a:visited{stroke:#82b414;fill:#82b414}#chart-77f736c5-24a6-4402-94d4-4ca9d13b5641 .color-11,#chart-77f736c5-24a6-4402-94d4-4ca9d13b5641 .color-11 a:visited{stroke:#fd971f;fill:#fd971f}#chart-77f736c5-24a6-4402-94d4-4ca9d13b5641 .color-12,#chart-77f736c5-24a6-4402-94d4-4ca9d13b5641 .color-12 a:visited{stroke:#56c2d6;fill:#56c2d6}#chart-77f736c5-24a6-4402-94d4-4ca9d13b5641 .color-13,#chart-77f736c5-24a6-4402-94d4-4ca9d13b5641 .color-13 a:visited{stroke:#808384;fill:#808384}#chart-77f736c5-24a6-4402-94d4-4ca9d13b5641 .color-14,#chart-77f736c5-24a6-4402-94d4-4ca9d13b5641 .color-14 a:visited{stroke:#8c54fe;fill:#8c54fe}#chart-77f736c5-24a6-4402-94d4-4ca9d13b5641 .color-15,#chart-77f736c5-24a6-4402-94d4-4ca9d13b5641 .color-15 a:visited{stroke:#465457;fill:#465457}
#chart-77f736c5-24a6-4402-94d4-4ca9d13b5641 text.no_data{text-anchor:middle}#chart-77f736c5-24a6-4402-94d4-4ca9d13b5641 .guide.line{fill-opacity:0}#chart-77f736c5-24a6-4402-94d4-4ca9d13b5641 .centered{text-anchor:middle}#chart-77f736c5-24a6-4402-94d4-4ca9d13b5641 .title{text-anchor:middle}#chart-77f736c5-24a6-4402-94d4-4ca9d13b5641 .legends .legend text{fill-opacity:1}#chart-77f736c5-24a6-4402-94d4-4ca9d13b5641 .axis.x text{text-anchor:middle}#chart-77f736c5-24a6-4402-94d4-4ca9d13b5641 .axis.x:not(.web) text[transform]{text-anchor:start}#chart-77f736c5-24a6-4402-94d4-4ca9d13b5641 .axis.y text{text-anchor:end}#chart-77f736c5-24a6-4402-94d4-4ca9d13b5641 .axis.y2 text{text-anchor:start}#chart-77f736c5-24a6-4402-94d4-4ca9d13b5641 .axis.y .logarithmic text:not(.major),#chart-77f736c5-24a6-4402-94d4-4ca9d13b5641 .axis.y2 .logarithmic text:not(.major){font-size:50%}#chart-77f736c5-24a6-4402-94d4-4ca9d13b5641 .axis .guide.line{stroke-dasharray:4,4}#chart-77f736c5-24a6-4402-94d4-4ca9d13b5641 .axis .major.guide.line{stroke-dasharray:6,6}#chart-77f736c5-24a6-4402-94d4-4ca9d13b5641 .axis text.major{stroke-width:0.5px}#chart-77f736c5-24a6-4402-94d4-4ca9d13b5641 .horizontal .axis.y .guide.line,#chart-77f736c5-24a6-4402-94d4-4ca9d13b5641 .horizontal .axis.y2 .guide.line,#chart-77f736c5-24a6-4402-94d4-4ca9d13b5641 .vertical .axis.x .guide.line{opacity:0}#chart-77f736c5-24a6-4402-94d4-4ca9d13b5641 .horizontal .axis.always_show .guide.line,#chart-77f736c5-24a6-4402-94d4-4ca9d13b5641 .vertical .axis.always_show .guide.line{opacity:1 !important}#chart-77f736c5-24a6-4402-94d4-4ca9d13b5641 .axis.y .guides:hover .guide.line,#chart-77f736c5-24a6-4402-94d4-4ca9d13b5641 .axis.y2 .guides:hover .guide.line,#chart-77f736c5-24a6-4402-94d4-4ca9d13b5641 .axis.x .guides:hover .guide.line{opacity:1}#chart-77f736c5-24a6-4402-94d4-4ca9d13b5641 .axis .guides:hover text{opacity:1}#chart-77f736c5-24a6-4402-94d4-4ca9d13b5641 .nofill{fill:none}#chart-77f736c5-24a6-4402-94d4-4ca9d13b5641 .subtle-fill{fill-opacity:.2}#chart-77f736c5-24a6-4402-94d4-4ca9d13b5641 .dot{stroke-width:1px;fill-opacity:1}#chart-77f736c5-24a6-4402-94d4-4ca9d13b5641 .dot.active{stroke-width:5px}#chart-77f736c5-24a6-4402-94d4-4ca9d13b5641 .series text{stroke:none}#chart-77f736c5-24a6-4402-94d4-4ca9d13b5641 .series text.active{opacity:1}#chart-77f736c5-24a6-4402-94d4-4ca9d13b5641 .tooltip rect{fill-opacity:0.8}#chart-77f736c5-24a6-4402-94d4-4ca9d13b5641 .tooltip text{fill-opacity:1}#chart-77f736c5-24a6-4402-94d4-4ca9d13b5641 .tooltip text tspan.label{fill-opacity:.8}</style><script type="text/javascript">window.config = {"x_labels": null, "show_x_labels": true, "x_label_format": "%Y-%m-%d %H:%M:%S.%f", "interpolate": null, "rounded_bars": null, "title_font_size": 16, "y_labels_major_count": null, "tooltip_border_radius": 0, "include_x_axis": false, "legend_at_bottom": true, "x_label_rotation": 0, "half_pie": false, "range": null, "dots_size": 2.5, "x_labels_major": null, "legend_box_size": 12, "margin_right": null, "y_labels_major_every": null, "legend_font_size": 14, "logarithmic": false, "css": ["style.css", "graph.css"], "show_y_guides": true, "truncate_legend": null, "tooltip_font_size": 16, "y_label_rotation": 0, "show_y_labels": true, "x_labels_major_count": null, "strict": false, "height": 768, "no_data_font_size": 64, "margin_bottom": null, "spacing": 10, "value_font_size": 8, "show_minor_x_labels": true, "margin": 20, "zero": 0, "order_min": null, "interpolation_parameters": {}, "human_readable": false, "truncate_label": null, "show_dots": false, "missing_value_fill_truncation": "x", "legend_at_bottom_columns": null, "y_labels_major": null, "js": ["http://kozea.github.io/pygal.js/javascripts/svg.jquery.js", "http://kozea.github.io/pygal.js/javascripts/pygal-tooltips.js"], "label_font_size": 10, "show_x_guides": false, "stroke": true, "print_values": false, "inner_radius": 0, "no_data_text": "No data", "print_zeroes": false, "stack_from_top": false, "major_label_font_size": 10, "mode": null, "fill": false, "interpolation_precision": 250, "y_labels": null, "pretty_print": false, "show_legend": true, "x_title": null, "width": 1024, "show_only_major_dots": false, "margin_left": null, "x_value_formatter": null, "y_title": "Users", "x_labels_major_every": null, "xrange": null, "show_minor_y_labels": true, "explicit_size": false, "title": "Election 2 Participation", "disable_xml_declaration": false, "style": {"opacity_hover": ".4", "stroke_width": 1.0, "foreground": "#999", "foreground_light": "#eee", "colors": ["#ff5995", "#b6e354", "#feed6c", "#8cedff", "#9e6ffe", "#899ca1", "#f8f8f2", "#bf4646", "#516083", "#f92672", "#82b414", "#fd971f", "#56c2d6", "#808384", "#8c54fe", "#465457"], "stroke_style": "round", "foreground_dark": "#555", "opacity": ".8", "background": "black", "transition": "250ms", "stroke_dasharray": "0,0", "font_family": "monospace", "plot_background": "#111"}, "margin_top": null, "no_prefix": false}</script><script type="text/javascript" xlink:href="http://kozea.github.io/pygal.js/javascripts/svg.jquery.js" /><script type="text/javascript" xlink:href="http://kozea.github.io/pygal.js/javascripts/pygal-tooltips.js" /></defs><title>Election 2 Participation</title><g class="graph line-graph vertical"><rect class="background" height="768" width="1024" x="0" y="0" /><g class="plot" transform="translate(86, 46)"><rect class="background" height="657.0" width="918.0" x="0" y="0" /><g class="axis y"><path class="line" d="M0.000000 657.000000 h918.000000" /><g class="guides"><path class="major guide line" d="M0.000000 637.303606 h918.000000" /><text class="major" x="-5" y="640.8036063558578">5000</text></g><g class="guides"><path class="guide line" d="M0.000000 587.572774 h918.000000" /><text class="" x="-5" y="591.0727735422886">6000</text></g><g class="guides"><path class="guide line" d="M0.000000 537.841941 h918.000000" /><text class="" x="-5" y="541.3419407287195">7000</text></g><g class="guides"><path class="guide line" d="M0.000000 488.111108 h918.000000" /><text class="" x="-5" y="491.6111079151503">8000</text></g><g class="guides"><path class="guide line" d="M0.000000 438.380275 h918.000000" /><text class="" x="-5" y="441.8802751015811">9000</text></g><g class="guides"><path class="major guide line" d="M0.000000 388.649442 h918.000000" /><text class="major" x="-5" y="392.1494422880119">10000</text></g><g class="guides"><path class="guide line" d="M0.000000 338.918609 h918.000000" /><text class="" x="-5" y="342.4186094744428">11000</text></g><g class="guides"><path class="guide line" d="M0.000000 289.187777 h918.000000" /><text class="" x="-5" y="292.6877766608736">12000</text></g><g class="guides"><path class="guide line" d="M0.000000 239.456944 h918.000000" /><text class="" x="-5" y="242.9569438473044">13000</text></g><g class="guides"><path class="guide line" d="M0.000000 189.726111 h918.000000" /><text class="" x="-5" y="193.22611103373526">14000</text></g><g class="guides"><path class="major guide line" d="M0.000000 139.995278 h918.000000" /><text class="major" x="-5" y="143.49527822016603">15000</text></g><g class="guides"><path class="guide line" d="M0.000000 90.264445 h918.000000" /><text class="" x="-5" y="93.7644454065969">16000</text></g><g class="guides"><path class="guide line" d="M0.000000 40.533613 h918.000000" /><text class="" x="-5" y="44.03361259302778">17000</text></g></g><g class="series serie-0 color-0"><path class="line reactive nofill" d="M17.653846 644.365385 L20.105769 644.365385 22.557692 644.365385 25.009615 644.365385 27.461538 644.365385 29.913462 644.365385 32.365385 644.365385 34.817308 644.365385 37.269231 644.365385 39.721154 644.365385 42.173077 644.365385 44.625000 644.365385 47.076923 644.365385 49.528846 644.365385 51.980769 644.365385 54.432692 644.365385 56.884615 644.365385 59.336538 644.365385 61.788462 644.365385 64.240385 644.365385 66.692308 644.365385 69.144231 644.365385 71.596154 644.365385 74.048077 644.365385 76.500000 644.365385 78.951923 644.365385 81.403846 644.365385 83.855769 644.365385 86.307692 644.365385 88.759615 644.365385 91.211538 644.365385 93.663462 644.365385 96.115385 644.365385 98.567308 644.365385 101.019231 644.365385 103.471154 644.365385 105.923077 644.365385 108.375000 644.365385 110.826923 644.365385 113.278846 644.365385 115.730769 644.365385 118.182692 644.365385 120.634615 644.365385 123.086538 644.365385 125.538462 644.365385 127.990385 644.365385 130.442308 644.365385 132.894231 644.365385 135.346154 644.365385 137.798077 644.365385 140.250000 644.365385 142.701923 644.365385 145.153846 644.365385 147.605769 644.365385 150.057692 644.365385 152.509615 644.365385 154.961538 644.365385 157.413462 644.365385 159.865385 644.365385 162.317308 644.365385 164.769231 644.365385 167.221154 644.365385 169.673077 644.365385 172.125000 644.365385 174.576923 644.365385 177.028846 644.365385 179.480769 644.365385 181.932692 644.365385 184.384615 644.365385 186.836538 644.365385 189.288462 644.365385 191.740385 644.365385 194.192308 644.365385 196.644231 644.365385 199.096154 644.365385 201.548077 644.365385 204.000000 644.365385 206.451923 644.365385 208.903846 644.365385 211.355769 644.365385 213.807692 644.365385 216.259615 644.365385 218.711538 644.365385 221.163462 644.365385 223.615385 644.365385 226.067308 644.365385 228.519231 644.365385 230.971154 644.365385 233.423077 644.365385 235.875000 644.365385 238.326923 644.365385 240.778846 644.365385 243.230769 644.365385 245.682692 644.365385 248.134615 644.365385 250.586538 644.365385 253.038462 644.365385 255.490385 644.365385 257.942308 644.365385 260.394231 644.365385 262.846154 644.365385 265.298077 644.365385 267.750000 644.365385 270.201923 644.365385 272.653846 644.365385 275.105769 644.365385 277.557692 644.365385 280.009615 644.365385 282.461538 644.365385 284.913462 644.365385 287.365385 644.365385 289.817308 644.365385 292.269231 644.365385 294.721154 644.365385 297.173077 644.365385 299.625000 644.365385 302.076923 644.365385 304.528846 644.365385 306.980769 644.365385 309.432692 644.365385 311.884615 644.365385 314.336538 644.365385 316.788462 644.365385 319.240385 644.365385 321.692308 644.365385 324.144231 644.365385 326.596154 644.365385 329.048077 644.365385 331.500000 644.365385 333.951923 644.365385 336.403846 644.365385 338.855769 644.365385 341.307692 644.365385 343.759615 644.365385 346.211538 644.365385 348.663462 644.365385 351.115385 644.365385 353.567308 644.365385 356.019231 644.365385 358.471154 644.365385 360.923077 644.365385 363.375000 644.365385 365.826923 644.365385 368.278846 644.365385 370.730769 644.365385 373.182692 644.365385 375.634615 644.365385 378.086538 644.365385 380.538462 644.365385 382.990385 644.365385 385.442308 644.365385 387.894231 644.365385 390.346154 644.365385 392.798077 644.365385 395.250000 644.365385 397.701923 644.365385 400.153846 644.365385 402.605769 644.365385 405.057692 644.365385 407.509615 644.365385 409.961538 644.365385 412.413462 644.365385 414.865385 644.365385 417.317308 644.365385 419.769231 644.365385 422.221154 644.365385 424.673077 644.365385 427.125000 644.365385 429.576923 644.365385 432.028846 644.365385 434.480769 644.365385 436.932692 644.365385 439.384615 644.365385 441.836538 644.365385 444.288462 644.365385 446.740385 644.365385 449.192308 644.365385 451.644231 644.365385 454.096154 644.365385 456.548077 644.365385 459.000000 644.365385 461.451923 644.365385 463.903846 644.365385 466.355769 644.365385 468.807692 644.365385 471.259615 644.365385 473.711538 644.365385 476.163462 644.365385 478.615385 644.365385 481.067308 644.365385 483.519231 644.365385 485.971154 644.365385 488.423077 644.365385 490.875000 644.365385 493.326923 644.365385 495.778846 644.365385 498.230769 644.365385 500.682692 644.365385 503.134615 644.365385 505.586538 644.365385 508.038462 644.365385 510.490385 644.365385 512.942308 644.365385 515.394231 644.365385 517.846154 644.365385 520.298077 644.365385 522.750000 644.365385 525.201923 644.365385 527.653846 644.365385 530.105769 644.365385 532.557692 644.365385 535.009615 644.365385 537.461538 644.365385 539.913462 644.365385 542.365385 644.365385 544.817308 644.365385 547.269231 644.365385 549.721154 644.365385 552.173077 644.365385 554.625000 644.365385 557.076923 644.365385 559.528846 644.365385 561.980769 644.365385 564.432692 644.365385 566.884615 644.365385 569.336538 644.365385 571.788462 644.365385 574.240385 644.365385 576.692308 644.365385 579.144231 644.365385 581.596154 644.365385 584.048077 644.365385 586.500000 644.365385 588.951923 644.365385 591.403846 644.365385 593.855769 644.365385 596.307692 644.365385 598.759615 644.365385 601.211538 644.365385 603.663462 644.365385 606.115385 644.365385 608.567308 644.365385 611.019231 644.365385 613.471154 644.365385 615.923077 644.365385 618.375000 644.365385 620.826923 644.365385 623.278846 644.365385 625.730769 644.365385 628.182692 644.365385 630.634615 644.365385 633.086538 644.365385 635.538462 644.365385 637.990385 644.365385 640.442308 644.365385 642.894231 644.365385 645.346154 644.365385 647.798077 644.365385 650.250000 644.365385 652.701923 644.365385 655.153846 644.365385 657.605769 644.365385 660.057692 644.365385 662.509615 644.365385 664.961538 644.365385 667.413462 644.365385 669.865385 644.365385 672.317308 644.365385 674.769231 644.365385 677.221154 644.365385 679.673077 644.365385 682.125000 644.365385 684.576923 644.365385 687.028846 644.365385 689.480769 644.365385 691.932692 644.365385 694.384615 644.365385 696.836538 644.365385 699.288462 644.365385 701.740385 644.365385 704.192308 644.365385 706.644231 644.365385 709.096154 644.365385 711.548077 644.365385 714.000000 644.365385 716.451923 644.365385 718.903846 644.365385 721.355769 644.365385 723.807692 644.365385 726.259615 644.365385 728.711538 644.365385 731.163462 644.365385 733.615385 644.365385 736.067308 644.365385 738.519231 644.365385 740.971154 644.365385 743.423077 644.365385 745.875000 644.365385 748.326923 644.365385 750.778846 644.365385 753.230769 644.365385 755.682692 644.365385 758.134615 644.365385 760.586538 644.365385 763.038462 644.365385 765.490385 644.365385 767.942308 644.365385 770.394231 644.365385 772.846154 644.365385 775.298077 644.365385 777.750000 644.365385 780.201923 644.365385 782.653846 644.365385 785.105769 644.365385 787.557692 644.365385 790.009615 644.365385 792.461538 644.365385 794.913462 644.365385 797.365385 644.365385 799.817308 644.365385 802.269231 644.365385 804.721154 644.365385 807.173077 644.365385 809.625000 644.365385 812.076923 644.365385 814.528846 644.365385 816.980769 644.365385 819.432692 644.365385 821.884615 644.365385 824.336538 644.365385 826.788462 644.365385 829.240385 644.365385 831.692308 644.365385 834.144231 644.365385 836.596154 644.365385 839.048077 644.365385 841.500000 644.365385 843.951923 644.365385 846.403846 644.365385 848.855769 644.365385 851.307692 644.365385 853.759615 644.365385 856.211538 644.365385 858.663462 644.365385 861.115385 644.365385 863.567308 644.365385 866.019231 644.365385 868.471154 644.365385 870.923077 644.365385 873.375000 644.365385 875.826923 644.365385 878.278846 644.365385 880.730769 644.365385 883.182692 644.365385 885.634615 644.365385 888.086538 644.365385 890.538462 644.365385 892.990385 644.365385 895.442308 644.365385 897.894231 644.365385 900.346154 644.365385" /></g><g class="series serie-1 color-1"><path class="line reactive nofill" d="M17.653846 12.734077 L20.105769 12.734077 22.557692 12.734077 25.009615 12.734077 27.461538 12.734077 29.913462 12.734077 32.365385 12.734077 34.817308 12.734077 37.269231 12.734077 39.721154 12.734077 42.173077 12.734077 44.625000 12.734077 47.076923 12.734077 49.528846 12.734077 51.980769 12.734077 54.432692 12.734077 56.884615 12.734077 59.336538 12.734077 61.788462 12.734077 64.240385 12.734077 66.692308 12.734077 69.144231 12.734077 71.596154 12.734077 74.048077 12.734077 76.500000 12.734077 78.951923 12.734077 81.403846 12.734077 83.855769 12.734077 86.307692 12.734077 88.759615 12.734077 91.211538 12.734077 93.663462 12.734077 96.115385 12.734077 98.567308 12.734077 101.019231 12.734077 103.471154 12.734077 105.923077 12.734077 108.375000 12.734077 110.826923 12.734077 113.278846 12.734077 115.730769 12.734077 118.182692 12.734077 120.634615 12.734077 123.086538 12.734077 125.538462 12.734077 127.990385 12.734077 130.442308 12.734077 132.894231 12.734077 135.346154 12.734077 137.798077 12.734077 140.250000 12.734077 142.701923 12.734077 145.153846 12.734077 147.605769 12.734077 150.057692 12.734077 152.509615 12.734077 154.961538 12.734077 157.413462 12.734077 159.865385 12.734077 162.317308 12.734077 164.769231 12.734077 167.221154 12.734077 169.673077 12.734077 172.125000 12.734077 174.576923 12.734077 177.028846 12.734077 179.480769 12.734077 181.932692 12.734077 184.384615 12.734077 186.836538 12.734077 189.288462 12.734077 191.740385 12.684346 194.192308 12.684346 196.644231 12.684346 199.096154 12.684346 201.548077 12.684346 204.000000 12.684346 206.451923 12.684346 208.903846 12.684346 211.355769 12.684346 213.807692 12.684346 216.259615 12.684346 218.711538 12.684346 221.163462 12.684346 223.615385 12.684346 226.067308 12.684346 228.519231 12.684346 230.971154 12.684346 233.423077 12.684346 235.875000 12.684346 238.326923 12.684346 240.778846 12.684346 243.230769 12.684346 245.682692 12.684346 248.134615 12.684346 250.586538 12.684346 253.038462 12.684346 255.490385 12.684346 257.942308 12.684346 260.394231 12.684346 262.846154 12.684346 265.298077 12.684346 267.750000 12.684346 270.201923 12.684346 272.653846 12.684346 275.105769 12.684346 277.557692 12.684346 280.009615 12.684346 282.461538 12.684346 284.913462 12.684346 287.365385 12.684346 289.817308 12.684346 292.269231 12.684346 294.721154 12.684346 297.173077 12.684346 299.625000 12.684346 302.076923 12.684346 304.528846 12.684346 306.980769 12.684346 309.432692 12.684346 311.884615 12.684346 314.336538 12.684346 316.788462 12.684346 319.240385 12.684346 321.692308 12.684346 324.144231 12.684346 326.596154 12.684346 329.048077 12.684346 331.500000 12.684346 333.951923 12.684346 336.403846 12.684346 338.855769 12.684346 341.307692 12.684346 343.759615 12.684346 346.211538 12.684346 348.663462 12.684346 351.115385 12.684346 353.567308 12.684346 356.019231 12.684346 358.471154 12.684346 360.923077 12.684346 363.375000 12.684346 365.826923 12.684346 368.278846 12.684346 370.730769 12.684346 373.182692 12.684346 375.634615 12.684346 378.086538 12.684346 380.538462 12.684346 382.990385 12.684346 385.442308 12.684346 387.894231 12.684346 390.346154 12.684346 392.798077 12.684346 395.250000 12.684346 397.701923 12.684346 400.153846 12.684346 402.605769 12.684346 405.057692 12.684346 407.509615 12.684346 409.961538 12.684346 412.413462 12.684346 414.865385 12.684346 417.317308 12.684346 419.769231 12.684346 422.221154 12.684346 424.673077 12.684346 427.125000 12.684346 429.576923 12.684346 432.028846 12.684346 434.480769 12.684346 436.932692 12.684346 439.384615 12.684346 441.836538 12.684346 444.288462 12.684346 446.740385 12.684346 449.192308 12.684346 451.644231 12.684346 454.096154 12.684346 456.548077 12.684346 459.000000 12.684346 461.451923 12.684346 463.903846 12.684346 466.355769 12.684346 468.807692 12.684346 471.259615 12.684346 473.711538 12.684346 476.163462 12.684346 478.615385 12.684346 481.067308 12.684346 483.519231 12.684346 485.971154 12.684346 488.423077 12.684346 490.875000 12.684346 493.326923 12.684346 495.778846 12.684346 498.230769 12.684346 500.682692 12.684346 503.134615 12.684346 505.586538 12.684346 508.038462 12.684346 510.490385 12.684346 512.942308 12.684346 515.394231 12.684346 517.846154 12.684346 520.298077 12.684346 522.750000 12.684346 525.201923 12.684346 527.653846 12.684346 530.105769 12.684346 532.557692 12.684346 535.009615 12.684346 537.461538 12.684346 539.913462 12.684346 542.365385 12.684346 544.817308 12.684346 547.269231 12.684346 549.721154 12.684346 552.173077 12.684346 554.625000 12.684346 557.076923 12.684346 559.528846 12.684346 561.980769 12.684346 564.432692 12.684346 566.884615 12.684346 569.336538 12.684346 571.788462 12.684346 574.240385 12.684346 576.692308 12.634615 579.144231 12.634615 581.596154 12.634615 584.048077 12.634615 586.500000 12.634615 588.951923 12.634615 591.403846 12.634615 593.855769 12.634615 596.307692 12.634615 598.759615 12.634615 601.211538 12.634615 603.663462 12.634615 606.115385 12.634615 608.567308 12.634615 611.019231 12.634615 613.471154 12.634615 615.923077 12.634615 618.375000 12.634615 620.826923 12.634615 623.278846 12.634615 625.730769 12.634615 628.182692 12.634615 630.634615 12.634615 633.086538 12.634615 635.538462 12.634615 637.990385 12.634615 640.442308 12.634615 642.894231 12.634615 645.346154 12.634615 647.798077 12.634615 650.250000 12.634615 652.701923 12.634615 655.153846 12.634615 657.605769 12.634615 660.057692 12.634615 662.509615 12.634615 664.961538 12.634615 667.413462 12.634615 669.865385 12.634615 672.317308 12.634615 674.769231 12.634615 677.221154 12.634615 679.673077 12.634615 682.125000 12.634615 684.576923 12.634615 687.028846 12.634615 689.480769 12.634615 691.932692 12.634615 694.384615 12.634615 696.836538 12.634615 699.288462 12.634615 701.740385 12.634615 704.192308 12.634615 706.644231 12.634615 709.096154 12.634615 711.548077 12.634615 714.000000 12.634615 716.451923 12.634615 718.903846 12.634615 721.355769 12.634615 723.807692 12.634615 726.259615 12.634615 728.711538 12.634615 731.163462 12.634615 733.615385 12.634615 736.067308 12.634615 738.519231 12.634615 740.971154 12.634615 743.423077 12.634615 745.875000 12.634615 748.326923 12.634615 750.778846 12.634615 753.230769 12.634615 755.682692 12.634615 758.134615 12.634615 760.586538 12.634615 763.038462 12.634615 765.490385 12.634615 767.942308 12.634615 770.394231 12.634615 772.846154 12.634615 775.298077 12.634615 777.750000 12.634615 780.201923 12.634615 782.653846 12.634615 785.105769 12.634615 787.557692 12.634615 790.009615 12.634615 792.461538 12.634615 794.913462 12.634615 797.365385 12.634615 799.817308 12.634615 802.269231 12.634615 804.721154 12.634615 807.173077 12.634615 809.625000 12.634615 812.076923 12.634615 814.528846 12.634615 816.980769 12.634615 819.432692 12.634615 821.884615 12.634615 824.336538 12.634615 826.788462 12.634615 829.240385 12.634615 831.692308 12.634615 834.144231 12.634615 836.596154 12.634615 839.048077 12.634615 841.500000 12.634615 843.951923 12.634615 846.403846 12.634615 848.855769 12.634615 851.307692 12.634615 853.759615 12.634615 856.211538 12.634615 858.663462 12.634615 861.115385 12.634615 863.567308 12.634615 866.019231 12.634615 868.471154 12.634615 870.923077 12.634615 873.375000 12.634615 875.826923 12.634615 878.278846 12.634615 880.730769 12.634615 883.182692 12.634615 885.634615 12.634615 888.086538 12.634615 890.538462 12.634615 892.990385 12.634615 895.442308 12.634615 897.894231 12.634615 900.346154 12.634615" /></g></g><g class="titles"><text class="title plot_title" x="512.0" y="26">Election 2 Participation</text><text class="title" transform="rotate(-90 0.000000 374.500000)" x="0" y="400.5">Users</text></g><g class="plot overlay" transform="translate(86, 46)"><g class="series serie-0 color-0" /><g class="series serie-1 color-1" /></g><g class="plot text-overlay" transform="translate(86, 46)"><g class="series serie-0 color-0" /><g class="series serie-1 color-1" /></g><g class="plot tooltip-overlay" transform="translate(86, 46)"><g class="tooltip" style="opacity: 0" transform="translate(0 0)"><a><rect class="tooltip-box" height="0" rx="0" ry="0" width="0" /><text class="text"><tspan class="label" /><tspan class="value" /></text></a></g></g><g class="legends" transform="translate(96, 713)"><g class="legend reactive activate-serie" id="activate-serie-0"><rect class="color-0 reactive" height="12" width="12" x="0.0" y="1.0" /><text x="17.0" y="11.2">constituents</text></g><g class="legend reactive activate-serie" id="activate-serie-1"><rect class="color-1 reactive" height="12" width="12" x="459.0" y="1.0" /><text x="476.0" y="11.2">caucus</text></g></g></g></svg>