<?xml version='1.0' encoding='utf-8'?>
<svg xmlns:xlink="http://www.w3.org/1999/xlink" class="pygal-chart" id="chart-3eff55c1-01b6-4a19-bc7e-5e359e994d73" viewBox="0 0 1024 768" xmlns="http://www.w3.org/2000/svg"><!--Generated with pygal 1.7.0 (etree) ©Kozea 2011-2014 on 2018-03-25--><!--http://pygal.org--><!--http://github.com/Kozea/pygal--><defs><style type="text/css">#chart-3eff55c1-01b6-4a19-bc7e-5e359e994d73 .title{font-family:"monospace";font-size:16px}#chart-3eff55c1-01b6-4a19-bc7e-5e359e994d73 .legends .legend text{font-family:"monospace";font-size:14px}#chart-3eff55c1-01b6-4a19-bc7e-5e359e994d73 .axis text{font-family:"monospace";font-size:10px}#chart-3eff55c1-01b6-4a19-bc7e-5e359e994d73 .axis text.major{font-family:"monospace";font-size:10px}#chart-3eff55c1-01b6-4a19-bc7e-5e359e994d73 .series text{font-family:"monospace";font-size:8px}#chart-3eff55c1-01b6-4a19-bc7e-5e359e994d73 .tooltip text{font-family:"monospace";font-size:16px}#chart-3eff55c1-01b6-4a19-bc7e-5e359e994d73 text.no_data{font-size:64px}
#chart-3eff55c1-01b6-4a19-bc7e-5e359e994d73{background-color:black}#chart-3eff55c1-01b6-4a19-bc7e-5e359e994d73 path,#chart-3eff55c1-01b6-4a19-bc7e-5e359e994d73 line,#chart-3eff55c1-01b6-4a19-bc7e-5e359e994d73 rect,#chart-3eff55c1-01b6-4a19-bc7e-5e359e994d73 circle{-webkit-transition:250ms;-moz-transition:250ms;transition:250ms}#chart-3eff55c1-01b6-4a19-bc7e-5e359e994d73 .graph &gt; .background{fill:black}#chart-3eff55c1-01b6-4a19-bc7e-5e359e994d73 .plot &gt; .background{fill:#111}#chart-3eff55c1-01b6-4a19-bc7e-5e359e994d73 .graph{fill:#999}#chart-3eff55c1-01b6-4a19-bc7e-5e359e994d73 text.no_data{fill:#eee}#chart-3eff55c1-01b6-4a19-bc7e-5e359e994d73 .title{fill:#eee}#chart-3eff55c1-01b6-4a19-bc7e-5e359e994d73 .legends .legend text{fill:#999}#chart-3eff55c1-01b6-4a19-bc7e-5e359e994d73 .legends .legend:hover text{fill:#eee}#chart-3eff55c1-01b6-4a19-bc7e-5e359e994d73 .axis .line{stroke:#eee}#chart-3eff55c1-01b6-4a19-bc7e-5e359e994d73 .axis .guide.line{stroke:#555}#chart-3eff55c1-01b6-4a19-bc7e-5e359e994d73 .axis .major.line{stroke:#999}#chart-3eff55c1-01b6-4a19-bc7e-5e359e994d73 .axis text.major{stroke:#eee;fill:#eee}#chart-3eff55c1-01b6-4a19-bc7e-5e359e994d73 .axis.y .guides:hover .guide.line,#chart-3eff55c1-01b6-4a19-bc7e-5e359e994d73 .line-graph .axis.x .guides:hover .guide.line,#chart-3eff55c1-01b6-4a19-bc7e-5e359e994d73 .stackedline-graph .axis.x .guides:hover .guide.line,#chart-3eff55c1-01b6-4a19-bc7e-5e359e994d73 .xy-graph .axis.x .guides:hover .guide.line{stroke:#eee}#chart-3eff55c1-01b6-4a19-bc7e-5e359e994d73 .axis .guides:hover text{fill:#eee}#chart-3eff55c1-01b6-4a19-bc7e-5e359e994d73 .reactive{fill-opacity:.8}#chart-3eff55c1-01b6-4a19-bc7e-5e359e994d73 .reactive.active,#chart-3eff55c1-01b6-4a19-bc7e-5e359e994d73 .active .reactive{fill-opacity:.4}#chart-3eff55c1-01b6-4a19-bc7e-5e359e994d73 .series{stroke-width:1.0;stroke-linejoin:round;stroke-linecap:round;stroke-dasharray:0,0}#chart-3eff55c1-01b6-4a19-bc7e-5e359e994d73 .series text{fill:#eee}#chart-3eff55c1-01b6-4a19-bc7e-5e359e994d73 .tooltip rect{fill:#111;stroke:#eee}#chart-3eff55c1-01b6-4a19-bc7e-5e359e994d73 .tooltip text{fill:#eee}#chart-3eff55c1-01b6-4a19-bc7e-5e359e994d73 .map-element{fill:#999;stroke:#555 !important;opacity:.9;stroke-width:3;-webkit-transition:250ms;-moz-transition:250ms;-o-transition:250ms;transition:250ms}#chart-3eff55c1-01b6-4a19-bc7e-5e359e994d73 .map-element:hover{opacity:1;stroke-width:10}#chart-3eff55c1-01b6-4a19-bc7e-5e359e994d73 .color-0,#chart-3eff55c1-01b6-4a19-bc7e-5e359e994d73 .color-0 a:visited{stroke:#ff5995;fill:#ff5995}#chart-3eff55c1-01b6-4a19-bc7e-5e359e994d73 .color-1,#chart-3eff55c1-01b6-4a19-bc7e-5e359e994d73 .color-1 a:visited{stroke:#b6e354;fill:#b6e354}#chart-3eff55c1-01b6-4a19-bc7e-5e359e994d73 .color-2,#chart-3eff55c1-01b6-4a19-bc7e-5e359e994d73 .color-2 a:visited{stroke:#feed6c;fill:#feed6c}#chart-3eff55c1-01b6-4a19-bc7e-5e359e994d73 .color-3,#chart-3eff55c1-01b6-4a19-bc7e-5e359e994d73 .color-3 a:visited{stroke:#8cedff;fill:#8cedff}#chart-3eff55c1-01b6-4a19-bc7e-5e359e994d73 .color-4,#chart-3eff55c1-01b6-4a19-bc7e-5e359e994d73 .color-4 a:visited{stroke:#9e6ffe;fill:#9e6ffe}#chart-3eff55c1-01b6-4a19-bc7e-5e359e994d73 .color-5,#chart-3eff55c1-01b6-4a19-bc7e-5e359e994d73 .color-5 a:visited{stroke:#899ca1;fill:#899ca1}#chart-3eff55c1-01b6-4a19-bc7e-5e359e994d73 .color-6,#chart-3eff55c1-01b6-4a19-bc7e-5e359e994d73 .color-6 a:visited{stroke:#f8f8f2;fill:#f8f8f2}#chart-3eff55c1-01b6-4a19-bc7e-5e359e994d73 .color-7,#chart-3eff55c1-01b6-4a19-bc7e-5e359e994d73 .color-7 a:visited{stroke:#bf4646;fill:#bf4646}#chart-3eff55c1-01b6-4a19-bc7e-5e359e994d73 .color-8,#chart-3eff55c1-01b6-4a19-bc7e-5e359e994d73 .color-8 a:visited{stroke:#516083;fill:#516083}#chart-3eff55c1-01b6-4a19-bc7e-5e359e994d73 .color-9,#chart-3eff55c1-01b6-4a19-bc7e-5e359e994d73 .color-9 a:visited{stroke:#f92672;fill:#f92672}#chart-3eff55c1-01b6-4a19-bc7e-5e359e994d73 .color-10,#chart-3eff55c1-01b6-4a19-bc7e-5e359e994d73 .color-10 a:visited{stroke:#82b414;fill:#82b414}#chart-3eff55c1-01b6-4a19-bc7e-5e359e994d73 .color-11,#chart-3eff55c1-01b6-4a19-bc7e-5e359e994d73 .color-11 a:visited{stroke:#fd971f;fill:#fd971f}#chart-3eff55c1-01b6-4a19-bc7e-5e359e994d73 .color-12,#chart-3eff55c1-01b6-4a19-bc7e-5e359e994d73 .color-12 a:visited{stroke:#56c2d6;fill:#56c2d6}#chart-3eff55c1-01b6-4a19-bc7e-5e359e994d73 .color-13,#chart-3eff55c1-01b6-4a19-bc7e-5e359e994d73 .color-13 a:visited{stroke:#808384;fill:#808384}#chart-3eff55c1-01b6-4a19-bc7e-5e359e994d73 .color-14,#chart-3eff55c1-01b6-4a19-bc7e-5e359e994d73 .color-14 a:visited{stroke:#8c54fe;fill:#8c54fe}#chart-3eff55c1-01b6-4a19-bc7e-5e359e994d73 .color-15,#chart-3eff55c1-01b6-4a19-bc7e-5e359e994d73 .color-15 a:visited{stroke:#465457;fill:#465457}
#chart-3eff55c1-01b6-4a19-bc7e-5e359e994d73 text.no_data{text-anchor:middle}#chart-3eff55c1-01b6-4a19-bc7e-5e359e994d73 .guide.line{fill-opacity:0}#chart-3eff55c1-01b6-4a19-bc7e-5e359e994d73 .centered{text-anchor:middle}#chart-3eff55c1-01b6-4a19-bc7e-5e359e994d73 .title{text-anchor:middle}#chart-3eff55c1-01b6-4a19-bc7e-5e359e994d73 .legends .legend text{fill-opacity:1}#chart-3eff55c1-01b6-4a19-bc7e-5e359e994d73 .axis.x text{text-anchor:middle}#chart-3eff55c1-01b6-4a19-bc7e-5e359e994d73 .axis.x:not(.web) text[transform]{text-anchor:start}#chart-3eff55c1-01b6-4a19-bc7e-5e359e994d73 .axis.y text{text-anchor:end}#chart-3eff55c1-01b6-4a19-bc7e-5e359e994d73 .axis.y2 text{text-anchor:start}#chart-3eff55c1-01b6-4a19-bc7e-5e359e994d73 .axis.y .logarithmic text:not(.major),#chart-3eff55c1-01b6-4a19-bc7e-5e359e994d73 .axis.y2 .logarithmic text:not(.major){font-size:50%}#chart-3eff55c1-01b6-4a19-bc7e-5e359e994d73 .axis .guide.line{stroke-dasharray:4,4}#chart-3eff55c1-01b6-4a19-bc7e-5e359e994d73 .axis .major.guide.line{stroke-dasharray:6,6}#chart-3eff55c1-01b6-4a19-bc7e-5e359e994d73 .axis text.major{stroke-width:0.5px}#chart-3eff55c1-01b6-4a19-bc7e-5e359e994d73 .horizontal .axis.y .guide.line,#chart-3eff55c1-01b6-4a19-bc7e-5e359e994d73 .horizontal .axis.y2 .guide.line,#chart-3eff55c1-01b6-4a19-bc7e-5e359e994d73 .vertical .axis.x .guide.line{opacity:0}#chart-3eff55c1-01b6-4a19-bc7e-5e359e994d73 .horizontal .axis.always_show .guide.line,#chart-3eff55c1-01b6-4a19-bc7e-5e359e994d73 .vertical .axis.always_show .guide.line{opacity:1 !important}#chart-3eff55c1-01b6-4a19-bc7e-5e359e994d73 .axis.y .guides:hover .guide.line,#chart-3eff55c1-01b6-4a19-bc7e-5e359e994d73 .axis.y2 .guides:hover .guide.line,#chart-3eff55c1-01b6-4a19-bc7e-5e359e994d73 .axis.x .guides:hover .guide.line{opacity:1}#chart-3eff55c1-01b6-4a19-bc7e-5e359e994d73 .axis .guides:hover text{opacity:1}#chart-3eff55c1-01b6-4a19-bc7e-5e359e994d73 .nofill{fill:none}#chart-3eff55c1-01b6-4a19-bc7e-5e359e994d73 .subtle-fill{fill-opacity:.2}#chart-3eff55c1-01b6-4a19-bc7e-5e359e994d73 .dot{stroke-width:1px;fill-opacity:1}#chart-3eff55c1-01b6-4a19-bc7e-5e359e994d73 .dot.active{stroke-width:5px}#chart-3eff55c1-01b6-4a19-bc7e-5e359e994d73 .series text{stroke:none}#chart-3eff55c1-01b6-4a19-bc7e-5e359e994d73 .series text.active{opacity:1}#chart-3eff55c1-01b6-4a19-bc7e-5e359e994d73 .tooltip rect{fill-opacity:0.8}#chart-3eff55c1-01b6-4a19-bc7e-5e359e994d73 .tooltip text{fill-opacity:1}#chart-3eff55c1-01b6-4a19-bc7e-5e359e994d73 .tooltip text tspan.label{fill-opacity:.8}</style><script type="text/javascript">window.config = {"css": ["style.css", "graph.css"], "disable_xml_declaration": false, "dots_size": 2.5, "explicit_size": false, "fill": false, "half_pie": false, "height": 768, "human_readable": false, "include_x_axis": false, "inner_radius": 0, "interpolate": null, "interpolation_parameters": {}, "interpolation_precision": 250, "js": ["http://kozea.github.io/pygal.js/javascripts/svg.jquery.js", "http://kozea.github.io/pygal.js/javascripts/pygal-tooltips.js"], "label_font_size": 10, "legend_at_bottom": true, "legend_at_bottom_columns": null, "legend_box_size": 12, "legend_font_size": 14, "logarithmic": false, "major_label_font_size": 10, "margin": 20, "margin_bottom": null, "margin_left": null, "margin_right": null, "margin_top": null, "missing_value_fill_truncation": "x", "mode": null, "no_data_font_size": 64, "no_data_text": "No data", "no_prefix": false, "order_min": null, "pretty_print": false, "print_values": false, "print_zeroes": false, "range": null, "rounded_bars": null, "show_dots": false, "show_legend": true, "show_minor_x_labels": true, "show_minor_y_labels": true, "show_only_major_dots": false, "show_x_guides": false, "show_x_labels": true, "show_y_guides": true, "show_y_labels": true, "spacing": 10, "stack_from_top": false, "strict": false, "stroke": true, "style": {"background": "black", "colors": ["#ff5995", "#b6e354", "#feed6c", "#8cedff", "#9e6ffe", "#899ca1", "#f8f8f2", "#bf4646", "#516083", "#f92672", "#82b414", "#fd971f", "#56c2d6", "#808384", "#8c54fe", "#465457"], "font_family": "monospace", "foreground": "#999", "foreground_dark": "#555", "foreground_light": "#eee", "opacity": ".8", "opacity_hover": ".4", "plot_background": "#111", "stroke_dasharray": "0,0", "stroke_style": "round", "stroke_width": 1.0, "transition": "250ms"}, "title": "Election 10 Participation", "title_font_size": 16, "tooltip_border_radius": 0, "tooltip_font_size": 16, "truncate_label": null, "truncate_legend": null, "value_font_size": 8, "width": 1024, "x_label_format": "%Y-%m-%d %H:%M:%S.%f", "x_label_rotation": 0, "x_labels": null, "x_labels_major": null, "x_labels_major_count": null, "x_labels_major_every": null, "x_title": null, "x_value_formatter": null, "xrange": null, "y_label_rotation": 0, "y_labels": null, "y_labels_major": null, "y_labels_major_count": null, "y_labels_major_every": null, "y_title": "Users", "zero": 0}</script><script type="text/javascript" xlink:href="http://kozea.github.io/pygal.js/javascripts/svg.jquery.js" /><script type="text/javascript" xlink:href="http://kozea.github.io/pygal.js/javascripts/pygal-tooltips.js" /></defs><title>Election 10 Participation</title><g class="graph line-graph vertical"><rect class="background" height="768" width="1024" x="0" y="0" /><g class="plot" transform="translate(86, 46)"><rect class="background" height="657.0" width="918.0" x="0" y="0" /><g class="axis y"><g class="guides"><path class="axis major line" d="M0.000000 644.365385 h918.000000" /><text class="major" x="-5" y="647.8653846153846">0</text></g><g class="guides"><path class="guide line" d="M0.000000 565.972288 h918.000000" /><text class="" x="-5" y="569.4722879806798">10000</text></g><g class="guides"><path class="guide line" d="M0.000000 487.579191 h918.000000" /><text class="" x="-5" y="491.0791913459749">20000</text></g><g class="guides"><path class="guide line" d="M0.000000 409.186095 h918.000000" /><text class="" x="-5" y="412.68609471126996">30000</text></g><g class="guides"><path class="guide line" d="M0.000000 330.792998 h918.000000" /><text class="" x="-5" y="334.29299807656514">40000</text></g><g class="guides"><path class="major guide line" d="M0.000000 252.399901 h918.000000" /><text class="major" x="-5" y="255.8999014418602">50000</text></g><g class="guides"><path class="guide line" d="M0.000000 174.006805 h918.000000" /><text class="" x="-5" y="177.50680480715533">60000</text></g><g class="guides"><path class="guide line" d="M0.000000 95.613708 h918.000000" /><text class="" x="-5" y="99.11370817245052">70000</text></g><g class="guides"><path class="guide line" d="M0.000000 17.220612 h918.000000" /><text class="" x="-5" y="20.72061153774564">80000</text></g></g><g class="series serie-0 color-0"><path class="line reactive nofill" d="M17.653846 644.365385 L20.105769 644.365385 22.557692 644.365385 25.009615 644.365385 27.461538 644.365385 29.913462 644.365385 32.365385 644.365385 34.817308 644.365385 37.269231 644.365385 39.721154 644.365385 42.173077 644.365385 44.625000 644.365385 47.076923 644.365385 49.528846 644.365385 51.980769 644.365385 54.432692 644.365385 56.884615 644.365385 59.336538 644.365385 61.788462 644.365385 64.240385 644.365385 66.692308 644.365385 69.144231 644.365385 71.596154 644.365385 74.048077 644.365385 76.500000 644.365385 78.951923 644.365385 81.403846 644.365385 83.855769 644.365385 86.307692 644.365385 88.759615 644.365385 91.211538 644.365385 93.663462 644.365385 96.115385 644.365385 98.567308 644.365385 101.019231 644.365385 103.471154 644.365385 105.923077 644.365385 108.375000 644.365385 110.826923 644.365385 113.278846 644.365385 115.730769 644.365385 118.182692 644.365385 120.634615 644.365385 123.086538 644.365385 125.538462 644.365385 127.990385 644.365385 130.442308 644.365385 132.894231 644.365385 135.346154 644.365385 137.798077 644.365385 140.250000 644.365385 142.701923 644.365385 145.153846 644.365385 147.605769 644.365385 150.057692 644.365385 152.509615 644.365385 154.961538 644.365385 157.413462 644.365385 159.865385 644.365385 162.317308 644.365385 164.769231 644.365385 167.221154 644.365385 169.673077 644.365385 172.125000 644.365385 174.576923 644.365385 177.028846 644.365385 179.480769 644.365385 181.932692 644.365385 184.384615 644.365385 186.836538 644.365385 189.288462 644.365385 191.740385 644.365385 194.192308 644.365385 196.644231 644.365385 199.096154 644.365385 201.548077 644.365385 204.000000 644.365385 206.451923 644.365385 208.903846 644.365385 211.355769 644.365385 213.807692 644.365385 216.259615 644.365385 218.711538 644.365385 221.163462 644.365385 223.615385 644.365385 226.067308 644.365385 228.519231 644.365385 230.971154 644.365385 233.423077 644.365385 235.875000 644.365385 238.326923 644.365385 240.778846 644.365385 243.230769 644.365385 245.682692 644.365385 248.134615 644.365385 250.586538 644.365385 253.038462 644.365385 255.490385 644.365385 257.942308 644.365385 260.394231 644.365385 262.846154 644.365385 265.298077 644.365385 267.750000 644.365385 270.201923 644.365385 272.653846 644.365385 275.105769 644.365385 277.557692 644.365385 280.009615 644.365385 282.461538 644.365385 284.913462 644.365385 287.365385 644.365385 289.817308 644.365385 292.269231 644.365385 294.721154 644.365385 297.173077 644.365385 299.625000 644.365385 302.076923 644.365385 304.528846 644.365385 306.980769 644.365385 309.432692 644.365385 311.884615 644.365385 314.336538 644.365385 316.788462 644.365385 319.240385 644.365385 321.692308 644.365385 324.144231 644.365385 326.596154 644.365385 329.048077 644.365385 331.500000 644.365385 333.951923 644.365385 336.403846 644.365385 338.855769 644.365385 341.307692 644.365385 343.759615 644.365385 346.211538 644.365385 348.663462 644.365385 351.115385 644.365385 353.567308 644.365385 356.019231 644.365385 358.471154 644.365385 360.923077 644.365385 363.375000 644.365385 365.826923 644.365385 368.278846 644.365385 370.730769 644.365385 373.182692 644.365385 375.634615 644.365385 378.086538 644.365385 380.538462 644.365385 382.990385 644.365385 385.442308 644.365385 387.894231 644.365385 390.346154 644.365385 392.798077 644.365385 395.250000 644.365385 397.701923 644.365385 400.153846 644.365385 402.605769 644.365385 405.057692 644.365385 407.509615 644.365385 409.961538 644.365385 412.413462 644.365385 414.865385 644.365385 417.317308 644.365385 419.769231 644.365385 422.221154 644.365385 424.673077 644.365385 427.125000 644.365385 429.576923 644.365385 432.028846 644.365385 434.480769 644.365385 436.932692 644.365385 439.384615 644.365385 441.836538 644.365385 444.288462 644.365385 446.740385 644.365385 449.192308 644.365385 451.644231 644.365385 454.096154 644.365385 456.548077 644.365385 459.000000 644.365385 461.451923 644.365385 463.903846 644.365385 466.355769 644.365385 468.807692 644.365385 471.259615 644.365385 473.711538 644.365385 476.163462 644.365385 478.615385 644.365385 481.067308 644.365385 483.519231 644.365385 485.971154 644.365385 488.423077 644.365385 490.875000 644.365385 493.326923 644.365385 495.778846 644.365385 498.230769 644.365385 500.682692 644.365385 503.134615 644.365385 505.586538 644.365385 508.038462 644.365385 510.490385 644.365385 512.942308 644.365385 515.394231 644.365385 517.846154 644.365385 520.298077 644.365385 522.750000 644.365385 525.201923 644.365385 527.653846 644.365385 530.105769 644.365385 532.557692 644.365385 535.009615 644.365385 537.461538 644.365385 539.913462 644.365385 542.365385 644.365385 544.817308 644.365385 547.269231 644.365385 549.721154 644.365385 552.173077 644.365385 554.625000 644.365385 557.076923 644.365385 559.528846 644.365385 561.980769 644.365385 564.432692 644.365385 566.884615 644.365385 569.336538 644.365385 571.788462 644.365385 574.240385 644.365385 576.692308 644.365385 579.144231 644.365385 581.596154 644.365385 584.048077 644.365385 586.500000 644.365385 588.951923 644.365385 591.403846 644.365385 593.855769 644.365385 596.307692 644.365385 598.759615 644.365385 601.211538 644.365385 603.663462 644.365385 606.115385 644.365385 608.567308 644.365385 611.019231 644.365385 613.471154 644.365385 615.923077 644.365385 618.375000 644.365385 620.826923 644.365385 623.278846 644.365385 625.730769 644.365385 628.182692 644.365385 630.634615 644.365385 633.086538 644.365385 635.538462 644.365385 637.990385 644.365385 640.442308 644.365385 642.894231 644.365385 645.346154 644.365385 647.798077 644.365385 650.250000 644.365385 652.701923 644.365385 655.153846 644.365385 657.605769 644.365385 660.057692 644.365385 662.509615 643.550096 664.961538 622.187978 667.413462 612.028232 669.865385 605.239390 672.317308 600.998324 674.769231 598.058582 677.221154 595.455932 679.673077 593.080621 682.125000 590.352541 684.576923 587.083549 687.028846 583.775360 689.480769 580.380939 691.932692 576.414248 694.384615 572.651380 696.836538 569.029619 699.288462 564.968856 701.740385 561.511721 704.192308 558.227050 706.644231 555.146201 709.096154 552.175103 711.548077 549.282398 714.000000 546.554318 716.451923 544.171168 718.903846 541.944804 721.355769 539.867387 723.807692 538.181935 726.259615 536.661109 728.711538 535.485213 731.163462 534.552335 733.615385 533.729207 736.067308 533.062866 738.519231 532.388685 740.971154 531.628272 743.423077 530.812984 745.875000 529.887946 748.326923 528.719888 750.778846 527.489117 753.230769 526.101559 755.682692 524.643447 758.134615 523.193175 760.586538 521.617474 763.038462 520.206398 765.490385 519.054020 767.942308 517.517515 770.394231 516.161314 772.846154 514.703203 775.298077 513.480270 777.750000 511.982962 780.201923 510.603244 782.653846 509.419508 785.105769 508.392559 787.557692 507.357770 790.009615 507.240180 792.461538 507.240180 794.913462 507.240180 797.365385 507.240180 799.817308 507.240180 802.269231 507.240180 804.721154 507.240180 807.173077 507.240180 809.625000 507.240180 812.076923 507.240180 814.528846 507.240180 816.980769 507.240180 819.432692 507.240180 821.884615 507.240180 824.336538 507.240180 826.788462 507.240180 829.240385 507.240180 831.692308 507.240180 834.144231 507.240180 836.596154 507.240180 839.048077 507.240180 841.500000 507.240180 843.951923 507.240180 846.403846 507.240180 848.855769 507.240180 851.307692 507.240180 853.759615 507.240180 856.211538 507.240180 858.663462 507.240180 861.115385 507.240180 863.567308 507.240180 866.019231 507.240180 868.471154 507.240180 870.923077 507.240180 873.375000 507.240180 875.826923 507.240180 878.278846 507.240180 880.730769 507.240180 883.182692 507.240180 885.634615 507.240180 888.086538 507.240180 890.538462 507.240180 892.990385 507.240180 895.442308 507.240180 897.894231 507.240180 900.346154 507.240180" /></g><g class="series serie-1 color-1"><path class="line reactive nofill" d="M17.653846 629.094409 L20.105769 623.504982 22.557692 619.444219 25.009615 617.311927 27.461538 615.736226 29.913462 614.097810 32.365385 612.733770 34.817308 611.393248 37.269231 609.088491 39.721154 606.086036 42.173077 602.785686 44.625000 598.623013 47.076923 595.063966 49.528846 591.983117 51.980769 589.302074 54.432692 587.365764 56.884615 585.366740 59.336538 583.187412 61.788462 581.368692 64.240385 579.675401 66.692308 578.350558 69.144231 577.425519 71.596154 576.429927 74.048077 575.630317 76.500000 574.916940 78.951923 574.368189 81.403846 573.921348 83.855769 573.521543 86.307692 573.255007 88.759615 572.972792 91.211538 572.682737 93.663462 572.424040 96.115385 571.985038 98.567308 571.561716 101.019231 571.067839 103.471154 570.456373 105.923077 569.617567 108.375000 568.716046 110.826923 567.861562 113.278846 567.148184 115.730769 566.348575 118.182692 565.525447 120.634615 564.757195 123.086538 564.075175 125.538462 563.502905 127.990385 562.993350 130.442308 562.413241 132.894231 562.044794 135.346154 561.707704 137.798077 561.315738 140.250000 561.104077 142.701923 560.798344 145.153846 560.672915 147.605769 560.531807 150.057692 560.422057 152.509615 560.241753 154.961538 560.022252 157.413462 559.677322 159.865385 559.348071 162.317308 558.940427 164.769231 558.375997 167.221154 557.929156 169.673077 557.411762 172.125000 556.823814 174.576923 556.275062 177.028846 555.773346 179.480769 555.334345 181.932692 554.848308 184.384615 554.495539 186.836538 554.150609 189.288462 553.860555 191.740385 553.554821 194.192308 553.280446 196.644231 552.959034 199.096154 552.857123 201.548077 552.739533 204.000000 552.621944 206.451923 552.512193 208.903846 552.433800 211.355769 552.324050 213.807692 552.182942 216.259615 551.986960 218.711538 551.759620 221.163462 551.540119 223.615385 551.312779 226.067308 550.920813 228.519231 550.591562 230.971154 550.262311 233.423077 549.901703 235.875000 549.509738 238.326923 549.188326 240.778846 548.882593 243.230769 548.686610 245.682692 548.443592 248.134615 548.216252 250.586538 548.051626 253.038462 547.816447 255.490385 547.612625 257.942308 547.463678 260.394231 547.259856 262.846154 547.204981 265.298077 547.103070 267.750000 547.001159 270.201923 546.938444 272.653846 546.883569 275.105769 546.836533 277.557692 546.742461 280.009615 546.640550 282.461538 546.507282 284.913462 546.397532 287.365385 546.279942 289.817308 546.178031 292.269231 546.060441 294.721154 545.958530 297.173077 545.793905 299.625000 545.613601 302.076923 545.488172 304.528846 545.378421 306.980769 545.252993 309.432692 545.151082 311.884615 545.041331 314.336538 544.931581 316.788462 544.876706 319.240385 544.759116 321.692308 544.696402 324.144231 544.641526 326.596154 544.570973 329.048077 544.476901 331.500000 544.437704 333.951923 544.367151 336.403846 544.265240 338.855769 544.163328 341.307692 544.006542 343.759615 543.826238 346.211538 543.606738 348.663462 543.371558 351.115385 543.183415 353.567308 542.948235 356.019231 542.767931 358.471154 542.579788 360.923077 542.344609 363.375000 542.179983 365.826923 541.960482 368.278846 541.866411 370.730769 541.701785 373.182692 541.568517 375.634615 541.427409 378.086538 541.286302 380.538462 541.160873 382.990385 541.043283 385.442308 540.917854 387.894231 540.776747 390.346154 540.612121 392.798077 540.329906 395.250000 539.977137 397.701923 539.593011 400.153846 539.099134 402.605769 538.542543 405.057692 537.946756 407.509615 537.421522 409.961538 536.951164 412.413462 536.457287 414.865385 535.736071 417.317308 535.250033 419.769231 534.850229 422.221154 534.568013 424.673077 534.277959 427.125000 531.510683 429.576923 496.900131 432.028846 479.136255 434.480769 467.761417 436.932692 460.118090 439.384615 454.254286 441.836538 448.045553 444.288462 441.977927 446.740385 434.444350 449.192308 424.151337 451.644231 411.396780 454.096154 396.611842 456.548077 378.401126 459.000000 358.011081 461.451923 337.291786 463.903846 322.154079 466.355769 308.545037 468.807692 294.865442 471.259615 281.969777 473.711538 269.999152 476.163462 261.054499 478.615385 252.290151 481.067308 245.634577 483.519231 239.723738 485.971154 235.380760 488.423077 230.959390 490.875000 227.737433 493.326923 225.244533 495.778846 223.441492 498.230769 222.030416 500.682692 220.462554 503.134615 218.792781 505.586538 216.911347 508.038462 214.747697 510.490385 212.380226 512.942308 208.923090 515.394231 204.972078 517.846154 200.566386 520.298077 195.455156 522.750000 190.508552 525.201923 185.538429 527.653846 181.007308 530.105769 176.209651 532.557692 171.749084 535.009615 167.484499 537.461538 164.137114 539.913462 161.385516 542.365385 158.688794 544.817308 156.227250 547.269231 153.961690 549.721154 152.252720 552.173077 150.794609 554.625000 149.822534 557.076923 148.873978 559.528846 148.003815 561.980769 147.282598 564.432692 146.279167 566.884615 145.150306 569.336538 143.833302 571.788462 142.085136 574.240385 139.858772 576.692308 137.209085 579.144231 134.379094 581.596154 131.470711 584.048077 128.954292 586.500000 126.610339 588.951923 124.133117 591.403846 121.303126 593.855769 118.810225 596.307692 116.795523 598.759615 114.890571 601.211538 113.244316 603.663462 111.762686 606.115385 110.571111 608.567308 109.308982 611.019231 108.258515 613.471154 107.474584 615.923077 106.996386 618.375000 106.330044 620.826923 105.828329 623.278846 105.256059 625.730769 104.691629 628.182692 103.931216 630.634615 102.990499 633.086538 101.767566 635.538462 100.458402 637.990385 98.733753 640.442308 96.954230 642.894231 95.480440 645.346154 94.030168 647.798077 92.211448 650.250000 90.471121 652.701923 88.989492 655.153846 87.656809 657.605769 86.520109 660.057692 85.500999 662.509615 84.003691 664.961538 75.560754 667.413462 71.006115 669.865385 68.003660 672.317308 65.761617 674.769231 64.413256 677.221154 63.025698 679.673077 61.849801 682.125000 60.666066 684.576923 59.254990 687.028846 57.977182 689.480769 56.385803 691.932692 54.567083 694.384615 52.905149 696.836538 51.305930 699.288462 49.377460 701.740385 47.597936 704.192308 45.849770 706.644231 43.991854 709.096154 42.431831 711.548077 40.785576 714.000000 39.123643 716.451923 37.571459 718.903846 36.223098 721.355769 35.078559 723.807692 34.082967 726.259615 33.048178 728.711538 32.225050 731.163462 31.590066 733.615385 31.049154 736.067308 30.476884 738.519231 29.990847 740.971154 29.410738 743.423077 28.814951 745.875000 28.164288 748.326923 27.490107 750.778846 26.588587 753.230769 25.538119 755.682692 24.550366 758.134615 23.593970 760.586538 22.551342 763.038462 21.532232 765.490385 20.638551 767.942308 19.642958 770.394231 18.647366 772.846154 17.730167 775.298077 16.930557 777.750000 15.919286 780.201923 14.978569 782.653846 14.139763 785.105769 13.434225 787.557692 12.713008 790.009615 12.634615 792.461538 12.634615 794.913462 12.634615 797.365385 12.634615 799.817308 12.634615 802.269231 12.634615 804.721154 12.634615 807.173077 12.634615 809.625000 12.634615 812.076923 12.634615 814.528846 12.634615 816.980769 12.634615 819.432692 12.634615 821.884615 12.634615 824.336538 12.634615 826.788462 12.634615 829.240385 12.634615 831.692308 12.634615 834.144231 12.634615 836.596154 12.634615 839.048077 12.634615 841.500000 12.634615 843.951923 12.634615 846.403846 12.634615 848.855769 12.634615 851.307692 12.634615 853.759615 12.634615 856.211538 12.634615 858.663462 12.634615 861.115385 12.634615 863.567308 12.634615 866.019231 12.634615 868.471154 12.634615 870.923077 12.634615 873.375000 12.634615 875.826923 12.634615 878.278846 12.634615 880.730769 12.634615 883.182692 12.634615 885.634615 12.634615 888.086538 12.634615 890.538462 12.634615 892.990385 12.634615 895.442308 12.634615 897.894231 12.634615 900.346154 12.634615" /></g></g><g class="titles"><text class="title plot_title" x="512.0" y="26">Election 10 Participation</text><text class="title" transform="rotate(-90 0.000000 374.500000)" x="0" y="400.5">Users</text></g><g class="plot overlay" transform="translate(86, 46)"><g class="series serie-0 color-0" /><g class="series serie-1 color-1" /></g><g class="plot text-overlay" transform="translate(86, 46)"><g class="series serie-0 color-0" /><g class="series serie-1 color-1" /></g><g class="plot tooltip-overlay" transform="translate(86, 46)"><g class="tooltip" style="opacity: 0" transform="translate(0 0)"><a><rect class="tooltip-box" height="0" rx="0" ry="0" width="0" /><text class="text"><tspan class="label" /><tspan class="value" /></text></a></g></g><g class="legends" transform="translate(96, 713)"><g class="legend reactive activate-serie" id="activate-serie-0"><rect class="color-0 reactive" height="12" width="12" x="0.0" y="1.0" /><text x="17.0" y="11.2">constituents</text></g><g class="legend reactive activate-serie" id="activate-serie-1"><rect class="color-1 reactive" height="12" width="12" x="459.0" y="1.0" /><text x="476.0" y="11.2">caucus</text></g></g></g></svg>