<?xml version='1.0' encoding='utf-8'?>
<svg xmlns:xlink="http://www.w3.org/1999/xlink" class="pygal-chart" id="chart-3a36b840-7134-4cb1-8f7f-c13a0fa5831b" viewBox="0 0 1024 768" xmlns="http://www.w3.org/2000/svg"><!--Generated with pygal 1.7.0 (etree) ©Kozea 2011-2014 on 2018-03-27--><!--http://pygal.org--><!--http://github.com/Kozea/pygal--><defs><style type="text/css">#chart-3a36b840-7134-4cb1-8f7f-c13a0fa5831b .title{font-family:"monospace";font-size:16px}#chart-3a36b840-7134-4cb1-8f7f-c13a0fa5831b .legends .legend text{font-family:"monospace";font-size:14px}#chart-3a36b840-7134-4cb1-8f7f-c13a0fa5831b .axis text{font-family:"monospace";font-size:10px}#chart-3a36b840-7134-4cb1-8f7f-c13a0fa5831b .axis text.major{font-family:"monospace";font-size:10px}#chart-3a36b840-7134-4cb1-8f7f-c13a0fa5831b .series text{font-family:"monospace";font-size:8px}#chart-3a36b840-7134-4cb1-8f7f-c13a0fa5831b .tooltip text{font-family:"monospace";font-size:16px}#chart-3a36b840-7134-4cb1-8f7f-c13a0fa5831b text.no_data{font-size:64px}
#chart-3a36b840-7134-4cb1-8f7f-c13a0fa5831b{background-color:black}#chart-3a36b840-7134-4cb1-8f7f-c13a0fa5831b path,#chart-3a36b840-7134-4cb1-8f7f-c13a0fa5831b line,#chart-3a36b840-7134-4cb1-8f7f-c13a0fa5831b rect,#chart-3a36b840-7134-4cb1-8f7f-c13a0fa5831b circle{-webkit-transition:250ms;-moz-transition:250ms;transition:250ms}#chart-3a36b840-7134-4cb1-8f7f-c13a0fa5831b .graph &gt; .background{fill:black}#chart-3a36b840-7134-4cb1-8f7f-c13a0fa5831b .plot &gt; .background{fill:#111}#chart-3a36b840-7134-4cb1-8f7f-c13a0fa5831b .graph{fill:#999}#chart-3a36b840-7134-4cb1-8f7f-c13a0fa5831b text.no_data{fill:#eee}#chart-3a36b840-7134-4cb1-8f7f-c13a0fa5831b .title{fill:#eee}#chart-3a36b840-7134-4cb1-8f7f-c13a0fa5831b .legends .legend text{fill:#999}#chart-3a36b840-7134-4cb1-8f7f-c13a0fa5831b .legends .legend:hover text{fill:#eee}#chart-3a36b840-7134-4cb1-8f7f-c13a0fa5831b .axis .line{stroke:#eee}#chart-3a36b840-7134-4cb1-8f7f-c13a0fa5831b .axis .guide.line{stroke:#555}#chart-3a36b840-7134-4cb1-8f7f-c13a0fa5831b .axis .major.line{stroke:#999}#chart-3a36b840-7134-4cb1-8f7f-c13a0fa5831b .axis text.major{stroke:#eee;fill:#eee}#chart-3a36b840-7134-4cb1-8f7f-c13a0fa5831b .axis.y .guides:hover .guide.line,#chart-3a36b840-7134-4cb1-8f7f-c13a0fa5831b .line-graph .axis.x .guides:hover .guide.line,#chart-3a36b840-7134-4cb1-8f7f-c13a0fa5831b .stackedline-graph .axis.x .guides:hover .guide.line,#chart-3a36b840-7134-4cb1-8f7f-c13a0fa5831b .xy-graph .axis.x .guides:hover .guide.line{stroke:#eee}#chart-3a36b840-7134-4cb1-8f7f-c13a0fa5831b .axis .guides:hover text{fill:#eee}#chart-3a36b840-7134-4cb1-8f7f-c13a0fa5831b .reactive{fill-opacity:.8}#chart-3a36b840-7134-4cb1-8f7f-c13a0fa5831b .reactive.active,#chart-3a36b840-7134-4cb1-8f7f-c13a0fa5831b .active .reactive{fill-opacity:.4}#chart-3a36b840-7134-4cb1-8f7f-c13a0fa5831b .series{stroke-width:1.0;stroke-linejoin:round;stroke-linecap:round;stroke-dasharray:0,0}#chart-3a36b840-7134-4cb1-8f7f-c13a0fa5831b .series text{fill:#eee}#chart-3a36b840-7134-4cb1-8f7f-c13a0fa5831b .tooltip rect{fill:#111;stroke:#eee}#chart-3a36b840-7134-4cb1-8f7f-c13a0fa5831b .tooltip text{fill:#eee}#chart-3a36b840-7134-4cb1-8f7f-c13a0fa5831b .map-element{fill:#999;stroke:#555 !important;opacity:.9;stroke-width:3;-webkit-transition:250ms;-moz-transition:250ms;-o-transition:250ms;transition:250ms}#chart-3a36b840-7134-4cb1-8f7f-c13a0fa5831b .map-element:hover{opacity:1;stroke-width:10}#chart-3a36b840-7134-4cb1-8f7f-c13a0fa5831b .color-0,#chart-3a36b840-7134-4cb1-8f7f-c13a0fa5831b .color-0 a:visited{stroke:#ff5995;fill:#ff5995}#chart-3a36b840-7134-4cb1-8f7f-c13a0fa5831b .color-1,#chart-3a36b840-7134-4cb1-8f7f-c13a0fa5831b .color-1 a:visited{stroke:#b6e354;fill:#b6e354}#chart-3a36b840-7134-4cb1-8f7f-c13a0fa5831b .color-2,#chart-3a36b840-7134-4cb1-8f7f-c13a0fa5831b .color-2 a:visited{stroke:#feed6c;fill:#feed6c}#chart-3a36b840-7134-4cb1-8f7f-c13a0fa5831b .color-3,#chart-3a36b840-7134-4cb1-8f7f-c13a0fa5831b .color-3 a:visited{stroke:#8cedff;fill:#8cedff}#chart-3a36b840-7134-4cb1-8f7f-c13a0fa5831b .color-4,#chart-3a36b840-7134-4cb1-8f7f-c13a0fa5831b .color-4 a:visited{stroke:#9e6ffe;fill:#9e6ffe}#chart-3a36b840-7134-4cb1-8f7f-c13a0fa5831b .color-5,#chart-3a36b840-7134-4cb1-8f7f-c13a0fa5831b .color-5 a:visited{stroke:#899ca1;fill:#899ca1}#chart-3a36b840-7134-4cb1-8f7f-c13a0fa5831b .color-6,#chart-3a36b840-7134-4cb1-8f7f-c13a0fa5831b .color-6 a:visited{stroke:#f8f8f2;fill:#f8f8f2}#chart-3a36b840-7134-4cb1-8f7f-c13a0fa5831b .color-7,#chart-3a36b840-7134-4cb1-8f7f-c13a0fa5831b .color-7 a:visited{stroke:#bf4646;fill:#bf4646}#chart-3a36b840-7134-4cb1-8f7f-c13a0fa5831b .color-8,#chart-3a36b840-7134-4cb1-8f7f-c13a0fa5831b .color-8 a:visited{stroke:#516083;fill:#516083}#chart-3a36b840-7134-4cb1-8f7f-c13a0fa5831b .color-9,#chart-3a36b840-7134-4cb1-8f7f-c13a0fa5831b .color-9 a:visited{stroke:#f92672;fill:#f92672}#chart-3a36b840-7134-4cb1-8f7f-c13a0fa5831b .color-10,#chart-3a36b840-7134-4cb1-8f7f-c13a0fa5831b .color-10 a:visited{stroke:#82b414;fill:#82b414}#chart-3a36b840-7134-4cb1-8f7f-c13a0fa5831b .color-11,#chart-3a36b840-7134-4cb1-8f7f-c13a0fa5831b .color-11 a:visited{stroke:#fd971f;fill:#fd971f}#chart-3a36b840-7134-4cb1-8f7f-c13a0fa5831b .color-12,#chart-3a36b840-7134-4cb1-8f7f-c13a0fa5831b .color-12 a:visited{stroke:#56c2d6;fill:#56c2d6}#chart-3a36b840-7134-4cb1-8f7f-c13a0fa5831b .color-13,#chart-3a36b840-7134-4cb1-8f7f-c13a0fa5831b .color-13 a:visited{stroke:#808384;fill:#808384}#chart-3a36b840-7134-4cb1-8f7f-c13a0fa5831b .color-14,#chart-3a36b840-7134-4cb1-8f7f-c13a0fa5831b .color-14 a:visited{stroke:#8c54fe;fill:#8c54fe}#chart-3a36b840-7134-4cb1-8f7f-c13a0fa5831b .color-15,#chart-3a36b840-7134-4cb1-8f7f-c13a0fa5831b .color-15 a:visited{stroke:#465457;fill:#465457}
#chart-3a36b840-7134-4cb1-8f7f-c13a0fa5831b text.no_data{text-anchor:middle}#chart-3a36b840-7134-4cb1-8f7f-c13a0fa5831b .guide.line{fill-opacity:0}#chart-3a36b840-7134-4cb1-8f7f-c13a0fa5831b .centered{text-anchor:middle}#chart-3a36b840-7134-4cb1-8f7f-c13a0fa5831b .title{text-anchor:middle}#chart-3a36b840-7134-4cb1-8f7f-c13a0fa5831b .legends .legend text{fill-opacity:1}#chart-3a36b840-7134-4cb1-8f7f-c13a0fa5831b .axis.x text{text-anchor:middle}#chart-3a36b840-7134-4cb1-8f7f-c13a0fa5831b .axis.x:not(.web) text[transform]{text-anchor:start}#chart-3a36b840-7134-4cb1-8f7f-c13a0fa5831b .axis.y text{text-anchor:end}#chart-3a36b840-7134-4cb1-8f7f-c13a0fa5831b .axis.y2 text{text-anchor:start}#chart-3a36b840-7134-4cb1-8f7f-c13a0fa5831b .axis.y .logarithmic text:not(.major),#chart-3a36b840-7134-4cb1-8f7f-c13a0fa5831b .axis.y2 .logarithmic text:not(.major){font-size:50%}#chart-3a36b840-7134-4cb1-8f7f-c13a0fa5831b .axis .guide.line{stroke-dasharray:4,4}#chart-3a36b840-7134-4cb1-8f7f-c13a0fa5831b .axis .major.guide.line{stroke-dasharray:6,6}#chart-3a36b840-7134-4cb1-8f7f-c13a0fa5831b .axis text.major{stroke-width:0.5px}#chart-3a36b840-7134-4cb1-8f7f-c13a0fa5831b .horizontal .axis.y .guide.line,#chart-3a36b840-7134-4cb1-8f7f-c13a0fa5831b .horizontal .axis.y2 .guide.line,#chart-3a36b840-7134-4cb1-8f7f-c13a0fa5831b .vertical .axis.x .guide.line{opacity:0}#chart-3a36b840-7134-4cb1-8f7f-c13a0fa5831b .horizontal .axis.always_show .guide.line,#chart-3a36b840-7134-4cb1-8f7f-c13a0fa5831b .vertical .axis.always_show .guide.line{opacity:1 !important}#chart-3a36b840-7134-4cb1-8f7f-c13a0fa5831b .axis.y .guides:hover .guide.line,#chart-3a36b840-7134-4cb1-8f7f-c13a0fa5831b .axis.y2 .guides:hover .guide.line,#chart-3a36b840-7134-4cb1-8f7f-c13a0fa5831b .axis.x .guides:hover .guide.line{opacity:1}#chart-3a36b840-7134-4cb1-8f7f-c13a0fa5831b .axis .guides:hover text{opacity:1}#chart-3a36b840-7134-4cb1-8f7f-c13a0fa5831b .nofill{fill:none}#chart-3a36b840-7134-4cb1-8f7f-c13a0fa5831b .subtle-fill{fill-opacity:.2}#chart-3a36b840-7134-4cb1-8f7f-c13a0fa5831b .dot{stroke-width:1px;fill-opacity:1}#chart-3a36b840-7134-4cb1-8f7f-c13a0fa5831b .dot.active{stroke-width:5px}#chart-3a36b840-7134-4cb1-8f7f-c13a0fa5831b .series text{stroke:none}#chart-3a36b840-7134-4cb1-8f7f-c13a0fa5831b .series text.active{opacity:1}#chart-3a36b840-7134-4cb1-8f7f-c13a0fa5831b .tooltip rect{fill-opacity:0.8}#chart-3a36b840-7134-4cb1-8f7f-c13a0fa5831b .tooltip text{fill-opacity:1}#chart-3a36b840-7134-4cb1-8f7f-c13a0fa5831b .tooltip text tspan.label{fill-opacity:.8}</style><script type="text/javascript">window.config = {"css": ["style.css", "graph.css"], "disable_xml_declaration": false, "dots_size": 2.5, "explicit_size": false, "fill": false, "half_pie": false, "height": 768, "human_readable": false, "include_x_axis": false, "inner_radius": 0, "interpolate": null, "interpolation_parameters": {}, "interpolation_precision": 250, "js": ["http://kozea.github.io/pygal.js/javascripts/svg.jquery.js", "http://kozea.github.io/pygal.js/javascripts/pygal-tooltips.js"], "label_font_size": 10, "legend_at_bottom": true, "legend_at_bottom_columns": null, "legend_box_size": 12, "legend_font_size": 14, "logarithmic": false, "major_label_font_size": 10, "margin": 20, "margin_bottom": null, "margin_left": null, "margin_right": null, "margin_top": null, "missing_value_fill_truncation": "x", "mode": null, "no_data_font_size": 64, "no_data_text": "No data", "no_prefix": false, "order_min": null, "pretty_print": false, "print_values": false, "print_zeroes": false, "range": [0, 1000], "rounded_bars": null, "show_dots": false, "show_legend": true, "show_minor_x_labels": true, "show_minor_y_labels": true, "show_only_major_dots": false, "show_x_guides": false, "show_x_labels": true, "show_y_guides": true, "show_y_labels": true, "spacing": 10, "stack_from_top": false, "strict": false, "stroke": true, "style": {"background": "black", "colors": ["#ff5995", "#b6e354", "#feed6c", "#8cedff", "#9e6ffe", "#899ca1", "#f8f8f2", "#bf4646", "#516083", "#f92672", "#82b414", "#fd971f", "#56c2d6", "#808384", "#8c54fe", "#465457"], "font_family": "monospace", "foreground": "#999", "foreground_dark": "#555", "foreground_light": "#eee", "opacity": ".8", "opacity_hover": ".4", "plot_background": "#111", "stroke_dasharray": "0,0", "stroke_style": "round", "stroke_width": 1.0, "transition": "250ms"}, "title": "Election stackoverflow.com-9 Participation Per Hour", "title_font_size": 16, "tooltip_border_radius": 0, "tooltip_font_size": 16, "truncate_label": null, "truncate_legend": null, "value_font_size": 8, "width": 1024, "x_label_format": "%Y-%m-%d %H:%M:%S.%f", "x_label_rotation": 0, "x_labels": null, "x_labels_major": null, "x_labels_major_count": null, "x_labels_major_every": null, "x_title": null, "x_value_formatter": null, "xrange": null, "y_label_rotation": 0, "y_labels": null, "y_labels_major": null, "y_labels_major_count": null, "y_labels_major_every": null, "y_title": "Users", "zero": 0}</script><script type="text/javascript" xlink:href="http://kozea.github.io/pygal.js/javascripts/svg.jquery.js" /><script type="text/javascript" xlink:href="http://kozea.github.io/pygal.js/javascripts/pygal-tooltips.js" /></defs><title>Election stackoverflow.com-9 Participation Per Hour</title><g class="graph line-graph vertical"><rect class="background" height="768" width="1024" x="0" y="0" /><g class="plot" transform="translate(80, 46)"><rect class="background" height="657.0" width="924.0" x="0" y="0" /><g class="axis y"><g class="guides"><path class="axis major line" d="M0.000000 644.365385 h924.000000" /><text class="major" x="-5" y="647.8653846153846">0</text></g><g class="guides"><path class="guide line" d="M0.000000 581.192308 h924.000000" /><text class="" x="-5" y="584.6923076923077">100</text></g><g class="guides"><path class="guide line" d="M0.000000 518.019231 h924.000000" /><text class="" x="-5" y="521.5192307692307">200</text></g><g class="guides"><path class="guide line" d="M0.000000 454.846154 h924.000000" /><text class="" x="-5" y="458.3461538461538">300</text></g><g class="guides"><path class="guide line" d="M0.000000 391.673077 h924.000000" /><text class="" x="-5" y="395.1730769230769">400</text></g><g class="guides"><path class="major guide line" d="M0.000000 328.500000 h924.000000" /><text class="major" x="-5" y="332.0">500</text></g><g class="guides"><path class="guide line" d="M0.000000 265.326923 h924.000000" /><text class="" x="-5" y="268.8269230769231">600</text></g><g class="guides"><path class="guide line" d="M0.000000 202.153846 h924.000000" /><text class="" x="-5" y="205.65384615384613">700</text></g><g class="guides"><path class="guide line" d="M0.000000 138.980769 h924.000000" /><text class="" x="-5" y="142.48076923076928">800</text></g><g class="guides"><path class="guide line" d="M0.000000 75.807692 h924.000000" /><text class="" x="-5" y="79.30769230769226">900</text></g><g class="guides"><path class="major guide line" d="M0.000000 12.634615 h924.000000" /><text class="major" x="-5" y="16.13461538461536">1000</text></g></g><g class="series serie-0 color-0"><path class="line reactive nofill" d="M17.769231 644.365385 L20.237179 644.365385 22.705128 644.365385 25.173077 644.365385 27.641026 644.365385 30.108974 644.365385 32.576923 644.365385 35.044872 644.365385 37.512821 644.365385 39.980769 644.365385 42.448718 644.365385 44.916667 644.365385 47.384615 644.365385 49.852564 644.365385 52.320513 644.365385 54.788462 644.365385 57.256410 644.365385 59.724359 644.365385 62.192308 644.365385 64.660256 644.365385 67.128205 644.365385 69.596154 644.365385 72.064103 644.365385 74.532051 644.365385 77.000000 644.365385 79.467949 644.365385 81.935897 644.365385 84.403846 644.365385 86.871795 644.365385 89.339744 644.365385 91.807692 644.365385 94.275641 644.365385 96.743590 644.365385 99.211538 644.365385 101.679487 644.365385 104.147436 644.365385 106.615385 644.365385 109.083333 644.365385 111.551282 644.365385 114.019231 644.365385 116.487179 644.365385 118.955128 644.365385 121.423077 644.365385 123.891026 644.365385 126.358974 644.365385 128.826923 644.365385 131.294872 644.365385 133.762821 644.365385 136.230769 644.365385 138.698718 644.365385 141.166667 644.365385 143.634615 644.365385 146.102564 644.365385 148.570513 644.365385 151.038462 644.365385 153.506410 644.365385 155.974359 644.365385 158.442308 644.365385 160.910256 644.365385 163.378205 644.365385 165.846154 644.365385 168.314103 644.365385 170.782051 644.365385 173.250000 644.365385 175.717949 644.365385 178.185897 644.365385 180.653846 644.365385 183.121795 644.365385 185.589744 644.365385 188.057692 644.365385 190.525641 644.365385 192.993590 644.365385 195.461538 644.365385 197.929487 644.365385 200.397436 644.365385 202.865385 644.365385 205.333333 644.365385 207.801282 644.365385 210.269231 644.365385 212.737179 644.365385 215.205128 644.365385 217.673077 644.365385 220.141026 644.365385 222.608974 644.365385 225.076923 644.365385 227.544872 644.365385 230.012821 644.365385 232.480769 644.365385 234.948718 644.365385 237.416667 644.365385 239.884615 644.365385 242.352564 644.365385 244.820513 644.365385 247.288462 644.365385 249.756410 644.365385 252.224359 644.365385 254.692308 644.365385 257.160256 644.365385 259.628205 644.365385 262.096154 644.365385 264.564103 644.365385 267.032051 644.365385 269.500000 644.365385 271.967949 644.365385 274.435897 644.365385 276.903846 644.365385 279.371795 644.365385 281.839744 644.365385 284.307692 644.365385 286.775641 644.365385 289.243590 644.365385 291.711538 644.365385 294.179487 644.365385 296.647436 644.365385 299.115385 644.365385 301.583333 644.365385 304.051282 644.365385 306.519231 644.365385 308.987179 644.365385 311.455128 644.365385 313.923077 644.365385 316.391026 644.365385 318.858974 644.365385 321.326923 644.365385 323.794872 644.365385 326.262821 644.365385 328.730769 644.365385 331.198718 644.365385 333.666667 644.365385 336.134615 644.365385 338.602564 644.365385 341.070513 644.365385 343.538462 644.365385 346.006410 644.365385 348.474359 644.365385 350.942308 644.365385 353.410256 644.365385 355.878205 644.365385 358.346154 644.365385 360.814103 644.365385 363.282051 644.365385 365.750000 644.365385 368.217949 644.365385 370.685897 644.365385 373.153846 644.365385 375.621795 644.365385 378.089744 644.365385 380.557692 644.365385 383.025641 644.365385 385.493590 644.365385 387.961538 644.365385 390.429487 644.365385 392.897436 644.365385 395.365385 644.365385 397.833333 644.365385 400.301282 644.365385 402.769231 644.365385 405.237179 644.365385 407.705128 644.365385 410.173077 644.365385 412.641026 644.365385 415.108974 644.365385 417.576923 644.365385 420.044872 644.365385 422.512821 644.365385 424.980769 644.365385 427.448718 644.365385 429.916667 644.365385 432.384615 644.365385 434.852564 644.365385 437.320513 644.365385 439.788462 644.365385 442.256410 644.365385 444.724359 644.365385 447.192308 644.365385 449.660256 644.365385 452.128205 644.365385 454.596154 644.365385 457.064103 644.365385 459.532051 644.365385 462.000000 644.365385 464.467949 644.365385 466.935897 644.365385 469.403846 644.365385 471.871795 644.365385 474.339744 644.365385 476.807692 644.365385 479.275641 644.365385 481.743590 644.365385 484.211538 644.365385 486.679487 644.365385 489.147436 644.365385 491.615385 644.365385 494.083333 644.365385 496.551282 644.365385 499.019231 644.365385 501.487179 644.365385 503.955128 644.365385 506.423077 644.365385 508.891026 644.365385 511.358974 644.365385 513.826923 644.365385 516.294872 644.365385 518.762821 644.365385 521.230769 644.365385 523.698718 644.365385 526.166667 644.365385 528.634615 644.365385 531.102564 644.365385 533.570513 644.365385 536.038462 644.365385 538.506410 644.365385 540.974359 644.365385 543.442308 644.365385 545.910256 644.365385 548.378205 644.365385 550.846154 644.365385 553.314103 644.365385 555.782051 644.365385 558.250000 644.365385 560.717949 644.365385 563.185897 644.365385 565.653846 644.365385 568.121795 644.365385 570.589744 644.365385 573.057692 644.365385 575.525641 644.365385 577.993590 644.365385 580.461538 644.365385 582.929487 644.365385 585.397436 644.365385 587.865385 644.365385 590.333333 644.365385 592.801282 644.365385 595.269231 644.365385 597.737179 644.365385 600.205128 644.365385 602.673077 644.365385 605.141026 644.365385 607.608974 644.365385 610.076923 644.365385 612.544872 644.365385 615.012821 644.365385 617.480769 644.365385 619.948718 644.365385 622.416667 644.365385 624.884615 644.365385 627.352564 644.365385 629.820513 644.365385 632.288462 644.365385 634.756410 644.365385 637.224359 644.365385 639.692308 644.365385 642.160256 644.365385 644.628205 644.365385 647.096154 644.365385 649.564103 644.365385 652.032051 644.365385 654.500000 644.365385 656.967949 644.365385 659.435897 644.365385 661.903846 644.365385 664.371795 644.365385 666.839744 569.189423 669.307692 -1166.806731 671.775641 -150.983654 674.243590 152.878846 676.711538 338.607692 679.179487 431.472115 681.647436 477.588462 684.115385 407.466346 686.583333 383.460577 689.051282 301.335577 691.519231 246.375000 693.987179 283.015385 696.455128 284.910577 698.923077 308.284615 701.391026 332.922115 703.858974 379.670192 706.326923 356.296154 708.794872 405.571154 711.262821 398.622115 713.730769 403.675962 716.198718 480.115385 718.666667 418.205769 721.134615 444.106731 723.602564 495.276923 726.070513 469.375962 728.538462 514.860577 731.006410 541.393269 733.474359 560.976923 735.942308 578.665385 738.410256 589.404808 740.878205 598.880769 743.346154 604.566346 745.814103 591.931731 748.282051 569.821154 750.750000 555.923077 753.217949 548.974038 755.685897 527.495192 758.153846 524.336538 760.621795 511.701923 763.089744 512.965385 765.557692 546.447115 768.025641 547.078846 770.493590 522.441346 772.961538 545.815385 775.429487 536.339423 777.897436 552.132692 780.365385 535.075962 782.833333 551.500962 785.301282 540.129808 787.769231 553.396154 790.237179 567.294231 792.705128 560.345192 795.173077 580.560577 797.641026 566.030769 800.108974 554.659615 802.576923 539.498077 805.044872 535.707692 807.512821 420.100962 809.980769 322.182692 812.448718 135.190385 814.916667 41.694231 817.384615 114.343269 819.852564 231.845192 822.320513 191.414423 824.788462 334.185577 827.256410 288.069231 829.724359 291.859615 832.192308 333.553846 834.660256 408.729808 837.128205 468.744231 839.596154 473.166346 842.064103 504.752885 844.532051 521.809615 847.000000 520.546154 849.467949 566.030769 851.935897 578.033654 854.403846 596.353846 856.871795 609.620192 859.339744 603.934615 861.807692 600.144231 864.275641 591.300000 866.743590 592.563462 869.211538 545.815385 871.679487 514.228846 874.147436 478.851923 876.615385 496.540385 879.083333 468.112500 881.551282 497.803846 884.019231 516.755769 886.487179 506.648077 888.955128 490.223077 891.423077 512.965385 893.891026 514.860577 896.358974 568.557692 898.826923 557.186538 901.294872 562.872115 903.762821 562.872115 906.230769 644.365385" /></g><g class="series serie-1 color-1"><path class="line reactive nofill" d="M17.769231 -576.770192 L20.237179 226.791346 22.705128 377.143269 25.173077 487.064423 27.641026 502.225962 30.108974 516.755769 32.576923 516.755769 35.044872 481.378846 37.512821 443.475000 39.980769 362.613462 42.448718 286.174038 44.916667 248.901923 47.384615 300.072115 49.852564 396.095192 52.320513 386.619231 54.788462 452.319231 57.256410 452.319231 59.724359 448.528846 62.192308 455.477885 64.660256 502.857692 67.128205 536.971154 69.596154 560.976923 72.064103 540.129808 74.532051 563.503846 77.000000 577.401923 79.467949 576.138462 81.935897 603.934615 84.403846 608.988462 86.871795 619.727885 89.339744 620.991346 91.807692 622.254808 94.275641 614.674038 96.743590 602.671154 99.211538 584.982692 101.679487 579.928846 104.147436 568.557692 106.615385 566.662500 109.083333 552.132692 111.551282 560.976923 114.019231 561.608654 116.487179 562.872115 118.955128 576.138462 121.423077 559.081731 123.891026 564.135577 126.358974 591.300000 128.826923 600.144231 131.294872 600.144231 133.762821 594.458654 136.230769 605.198077 138.698718 621.623077 141.166667 614.042308 143.634615 627.940385 146.102564 628.572115 148.570513 624.150000 151.038462 624.781731 153.506410 628.572115 155.974359 620.359615 158.442308 617.200962 160.910256 608.356731 163.378205 596.985577 165.846154 599.512500 168.314103 626.045192 170.782051 596.985577 173.250000 591.300000 175.717949 585.614423 178.185897 596.985577 180.653846 584.350962 183.121795 595.722115 185.589744 615.937500 188.057692 610.883654 190.525641 607.725000 192.993590 612.778846 195.461538 610.251923 197.929487 619.727885 200.397436 624.150000 202.865385 634.257692 205.333333 633.625962 207.801282 639.311538 210.269231 632.362500 212.737179 634.889423 215.205128 624.150000 217.673077 627.308654 220.141026 606.461538 222.608974 610.251923 225.076923 600.144231 227.544872 606.461538 230.012821 617.200962 232.480769 609.620192 234.948718 609.620192 237.416667 608.988462 239.884615 617.832692 242.352564 620.991346 244.820513 624.150000 247.288462 625.413462 249.756410 622.254808 252.224359 624.781731 254.692308 619.727885 257.160256 630.467308 259.628205 627.940385 262.096154 632.994231 264.564103 642.470192 267.032051 644.365385 269.500000 644.365385 271.967949 644.365385 274.435897 644.365385 276.903846 644.365385 279.371795 644.365385 281.839744 644.365385 284.307692 644.365385 286.775641 644.365385 289.243590 644.365385 291.711538 644.365385 294.179487 644.365385 296.647436 644.365385 299.115385 644.365385 301.583333 644.365385 304.051282 644.365385 306.519231 644.365385 308.987179 644.365385 311.455128 448.528846 313.923077 632.362500 316.391026 632.994231 318.858974 634.257692 321.326923 639.943269 323.794872 640.575000 326.262821 636.784615 328.730769 635.521154 331.198718 635.521154 333.666667 636.152885 336.134615 636.152885 338.602564 634.257692 341.070513 638.048077 343.538462 633.625962 346.006410 631.730769 348.474359 637.416346 350.942308 631.730769 353.410256 629.203846 355.878205 631.730769 358.346154 632.362500 360.814103 628.572115 363.282051 629.203846 365.750000 626.676923 368.217949 628.572115 370.685897 629.835577 373.153846 637.416346 375.621795 630.467308 378.089744 631.730769 380.557692 636.784615 383.025641 639.311538 385.493590 638.048077 387.961538 630.467308 390.429487 638.048077 392.897436 630.467308 395.365385 624.781731 397.833333 623.518269 400.301282 610.251923 402.769231 605.829808 405.237179 600.144231 407.705128 594.458654 410.173077 601.407692 412.641026 591.931731 415.108974 603.934615 417.576923 602.671154 420.044872 602.671154 422.512821 618.464423 424.980769 613.410577 427.448718 615.937500 429.916667 535.707692 432.384615 -2160.519231 434.852564 -822.513462 437.320513 -79.598077 439.788462 108.025962 442.256410 156.037500 444.724359 156.037500 447.192308 114.975000 449.660256 -21.478846 452.128205 -366.403846 454.596154 -697.430769 457.064103 -953.913462 459.532051 -1288.099038 462.000000 -902.111538 464.467949 -790.295192 466.935897 -507.911538 469.403846 -405.571154 471.871795 -355.664423 474.339744 -296.913462 476.807692 -199.626923 479.275641 -65.068269 481.743590 164.881731 484.211538 149.720192 486.679487 268.485577 489.147436 259.009615 491.615385 300.072115 494.083333 408.729808 496.551282 476.956731 499.019231 494.013462 501.487179 531.917308 503.955128 524.968269 506.423077 535.075962 508.891026 504.121154 511.358974 483.274038 513.826923 417.574038 516.294872 323.446154 518.762821 262.168269 521.230769 203.417308 523.698718 273.539423 526.166667 277.329808 528.634615 316.497115 531.102564 269.749038 533.570513 305.125962 536.038462 302.599038 538.506410 362.613462 540.974359 397.990385 543.442308 456.109615 545.910256 466.217308 548.378205 443.475000 550.846154 489.591346 553.314103 516.124038 555.782051 550.237500 558.250000 569.189423 560.717949 569.821154 563.185897 583.087500 565.653846 579.928846 568.121795 580.560577 570.589744 553.396154 573.057692 536.339423 575.525641 485.800962 577.993590 464.322115 580.461538 443.475000 582.929487 432.103846 585.397436 454.214423 587.865385 466.217308 590.333333 463.058654 592.801282 449.160577 595.269231 477.588462 597.737179 478.851923 600.205128 523.073077 602.673077 507.911538 605.141026 523.073077 607.608974 537.602885 610.076923 543.288462 612.544872 562.872115 615.012821 586.246154 617.480769 596.985577 619.948718 616.569231 622.416667 603.934615 624.884615 606.461538 627.352564 599.512500 629.820513 600.775962 632.288462 574.243269 634.756410 558.450000 637.224359 542.025000 639.692308 534.444231 642.160256 500.962500 644.628205 532.549038 647.096154 510.438462 649.564103 542.656731 652.032051 507.279808 654.500000 538.866346 656.967949 551.500962 659.435897 559.713462 661.903846 554.027885 664.371795 571.084615 666.839744 543.288462 669.307692 -71.385577 671.775641 272.907692 674.243590 436.525962 676.711538 498.435577 679.179487 550.869231 681.647436 577.401923 684.115385 541.393269 686.583333 541.393269 689.051282 528.758654 691.519231 512.333654 693.987179 495.908654 696.455128 477.588462 698.923077 491.486538 701.391026 511.070192 703.858974 529.390385 706.326923 501.594231 708.794872 525.600000 711.262821 509.806731 713.730769 512.333654 716.198718 532.549038 718.666667 502.857692 721.134615 537.602885 723.602564 566.662500 726.070513 547.710577 728.538462 565.399038 731.006410 580.560577 733.474359 586.246154 735.942308 595.090385 738.410256 602.671154 740.878205 614.042308 743.346154 607.093269 745.814103 616.569231 748.282051 600.775962 750.750000 584.350962 753.217949 580.560577 755.685897 567.294231 758.153846 582.455769 760.621795 560.345192 763.089744 570.452885 765.557692 576.770192 768.025641 569.821154 770.493590 563.503846 772.961538 572.348077 775.429487 564.767308 777.897436 578.033654 780.365385 571.716346 782.833333 575.506731 785.301282 588.141346 787.769231 572.979808 790.237179 592.563462 792.705128 593.826923 795.173077 596.353846 797.641026 601.407692 800.108974 597.617308 802.576923 573.611538 805.044872 583.719231 807.512821 527.495192 809.980769 492.118269 812.448718 419.469231 814.916667 339.871154 817.384615 325.341346 819.852564 379.670192 822.320513 383.460577 824.788462 425.786538 827.256410 394.831731 829.724359 391.041346 832.192308 420.732692 834.660256 470.007692 837.128205 490.223077 839.596154 508.543269 842.064103 518.650962 844.532051 533.180769 847.000000 538.866346 849.467949 569.821154 851.935897 574.875000 854.403846 602.039423 856.871795 602.671154 859.339744 621.623077 861.807692 609.620192 864.275641 610.251923 866.743590 605.198077 869.211538 586.246154 871.679487 541.393269 874.147436 512.965385 876.615385 528.758654 879.083333 514.228846 881.551282 523.704808 884.019231 527.495192 886.487179 517.387500 888.955128 517.387500 891.423077 521.177885 893.891026 515.492308 896.358974 553.396154 898.826923 561.608654 901.294872 577.401923 903.762821 567.294231 906.230769 644.365385" /></g></g><g class="titles"><text class="title plot_title" x="512.0" y="26">Election stackoverflow.com-9 Participation Per Hour</text><text class="title" transform="rotate(-90 0.000000 374.500000)" x="0" y="400.5">Users</text></g><g class="plot overlay" transform="translate(80, 46)"><g class="series serie-0 color-0" /><g class="series serie-1 color-1" /></g><g class="plot text-overlay" transform="translate(80, 46)"><g class="series serie-0 color-0" /><g class="series serie-1 color-1" /></g><g class="plot tooltip-overlay" transform="translate(80, 46)"><g class="tooltip" style="opacity: 0" transform="translate(0 0)"><a><rect class="tooltip-box" height="0" rx="0" ry="0" width="0" /><text class="text"><tspan class="label" /><tspan class="value" /></text></a></g></g><g class="legends" transform="translate(90, 713)"><g class="legend reactive activate-serie" id="activate-serie-0"><rect class="color-0 reactive" height="12" width="12" x="0.0" y="1.0" /><text x="17.0" y="11.2">constituents</text></g><g class="legend reactive activate-serie" id="activate-serie-1"><rect class="color-1 reactive" height="12" width="12" x="462.0" y="1.0" /><text x="479.0" y="11.2">caucus</text></g></g></g></svg>