<?xml version='1.0' encoding='utf-8'?>
<svg xmlns:xlink="http://www.w3.org/1999/xlink" class="pygal-chart" id="chart-32e6680d-e992-49f5-b54a-472151f5d013" viewBox="0 0 1024 768" xmlns="http://www.w3.org/2000/svg"><!--Generated with pygal 1.7.0 (etree) ©Kozea 2011-2014 on 2018-03-25--><!--http://pygal.org--><!--http://github.com/Kozea/pygal--><defs><style type="text/css">#chart-32e6680d-e992-49f5-b54a-472151f5d013 .title{font-family:"monospace";font-size:16px}#chart-32e6680d-e992-49f5-b54a-472151f5d013 .legends .legend text{font-family:"monospace";font-size:14px}#chart-32e6680d-e992-49f5-b54a-472151f5d013 .axis text{font-family:"monospace";font-size:10px}#chart-32e6680d-e992-49f5-b54a-472151f5d013 .axis text.major{font-family:"monospace";font-size:10px}#chart-32e6680d-e992-49f5-b54a-472151f5d013 .series text{font-family:"monospace";font-size:8px}#chart-32e6680d-e992-49f5-b54a-472151f5d013 .tooltip text{font-family:"monospace";font-size:16px}#chart-32e6680d-e992-49f5-b54a-472151f5d013 text.no_data{font-size:64px}
#chart-32e6680d-e992-49f5-b54a-472151f5d013{background-color:black}#chart-32e6680d-e992-49f5-b54a-472151f5d013 path,#chart-32e6680d-e992-49f5-b54a-472151f5d013 line,#chart-32e6680d-e992-49f5-b54a-472151f5d013 rect,#chart-32e6680d-e992-49f5-b54a-472151f5d013 circle{-webkit-transition:250ms;-moz-transition:250ms;transition:250ms}#chart-32e6680d-e992-49f5-b54a-472151f5d013 .graph &gt; .background{fill:black}#chart-32e6680d-e992-49f5-b54a-472151f5d013 .plot &gt; .background{fill:#111}#chart-32e6680d-e992-49f5-b54a-472151f5d013 .graph{fill:#999}#chart-32e6680d-e992-49f5-b54a-472151f5d013 text.no_data{fill:#eee}#chart-32e6680d-e992-49f5-b54a-472151f5d013 .title{fill:#eee}#chart-32e6680d-e992-49f5-b54a-472151f5d013 .legends .legend text{fill:#999}#chart-32e6680d-e992-49f5-b54a-472151f5d013 .legends .legend:hover text{fill:#eee}#chart-32e6680d-e992-49f5-b54a-472151f5d013 .axis .line{stroke:#eee}#chart-32e6680d-e992-49f5-b54a-472151f5d013 .axis .guide.line{stroke:#555}#chart-32e6680d-e992-49f5-b54a-472151f5d013 .axis .major.line{stroke:#999}#chart-32e6680d-e992-49f5-b54a-472151f5d013 .axis text.major{stroke:#eee;fill:#eee}#chart-32e6680d-e992-49f5-b54a-472151f5d013 .axis.y .guides:hover .guide.line,#chart-32e6680d-e992-49f5-b54a-472151f5d013 .line-graph .axis.x .guides:hover .guide.line,#chart-32e6680d-e992-49f5-b54a-472151f5d013 .stackedline-graph .axis.x .guides:hover .guide.line,#chart-32e6680d-e992-49f5-b54a-472151f5d013 .xy-graph .axis.x .guides:hover .guide.line{stroke:#eee}#chart-32e6680d-e992-49f5-b54a-472151f5d013 .axis .guides:hover text{fill:#eee}#chart-32e6680d-e992-49f5-b54a-472151f5d013 .reactive{fill-opacity:.8}#chart-32e6680d-e992-49f5-b54a-472151f5d013 .reactive.active,#chart-32e6680d-e992-49f5-b54a-472151f5d013 .active .reactive{fill-opacity:.4}#chart-32e6680d-e992-49f5-b54a-472151f5d013 .series{stroke-width:1.0;stroke-linejoin:round;stroke-linecap:round;stroke-dasharray:0,0}#chart-32e6680d-e992-49f5-b54a-472151f5d013 .series text{fill:#eee}#chart-32e6680d-e992-49f5-b54a-472151f5d013 .tooltip rect{fill:#111;stroke:#eee}#chart-32e6680d-e992-49f5-b54a-472151f5d013 .tooltip text{fill:#eee}#chart-32e6680d-e992-49f5-b54a-472151f5d013 .map-element{fill:#999;stroke:#555 !important;opacity:.9;stroke-width:3;-webkit-transition:250ms;-moz-transition:250ms;-o-transition:250ms;transition:250ms}#chart-32e6680d-e992-49f5-b54a-472151f5d013 .map-element:hover{opacity:1;stroke-width:10}#chart-32e6680d-e992-49f5-b54a-472151f5d013 .color-0,#chart-32e6680d-e992-49f5-b54a-472151f5d013 .color-0 a:visited{stroke:#ff5995;fill:#ff5995}#chart-32e6680d-e992-49f5-b54a-472151f5d013 .color-1,#chart-32e6680d-e992-49f5-b54a-472151f5d013 .color-1 a:visited{stroke:#b6e354;fill:#b6e354}#chart-32e6680d-e992-49f5-b54a-472151f5d013 .color-2,#chart-32e6680d-e992-49f5-b54a-472151f5d013 .color-2 a:visited{stroke:#feed6c;fill:#feed6c}#chart-32e6680d-e992-49f5-b54a-472151f5d013 .color-3,#chart-32e6680d-e992-49f5-b54a-472151f5d013 .color-3 a:visited{stroke:#8cedff;fill:#8cedff}#chart-32e6680d-e992-49f5-b54a-472151f5d013 .color-4,#chart-32e6680d-e992-49f5-b54a-472151f5d013 .color-4 a:visited{stroke:#9e6ffe;fill:#9e6ffe}#chart-32e6680d-e992-49f5-b54a-472151f5d013 .color-5,#chart-32e6680d-e992-49f5-b54a-472151f5d013 .color-5 a:visited{stroke:#899ca1;fill:#899ca1}#chart-32e6680d-e992-49f5-b54a-472151f5d013 .color-6,#chart-32e6680d-e992-49f5-b54a-472151f5d013 .color-6 a:visited{stroke:#f8f8f2;fill:#f8f8f2}#chart-32e6680d-e992-49f5-b54a-472151f5d013 .color-7,#chart-32e6680d-e992-49f5-b54a-472151f5d013 .color-7 a:visited{stroke:#bf4646;fill:#bf4646}#chart-32e6680d-e992-49f5-b54a-472151f5d013 .color-8,#chart-32e6680d-e992-49f5-b54a-472151f5d013 .color-8 a:visited{stroke:#516083;fill:#516083}#chart-32e6680d-e992-49f5-b54a-472151f5d013 .color-9,#chart-32e6680d-e992-49f5-b54a-472151f5d013 .color-9 a:visited{stroke:#f92672;fill:#f92672}#chart-32e6680d-e992-49f5-b54a-472151f5d013 .color-10,#chart-32e6680d-e992-49f5-b54a-472151f5d013 .color-10 a:visited{stroke:#82b414;fill:#82b414}#chart-32e6680d-e992-49f5-b54a-472151f5d013 .color-11,#chart-32e6680d-e992-49f5-b54a-472151f5d013 .color-11 a:visited{stroke:#fd971f;fill:#fd971f}#chart-32e6680d-e992-49f5-b54a-472151f5d013 .color-12,#chart-32e6680d-e992-49f5-b54a-472151f5d013 .color-12 a:visited{stroke:#56c2d6;fill:#56c2d6}#chart-32e6680d-e992-49f5-b54a-472151f5d013 .color-13,#chart-32e6680d-e992-49f5-b54a-472151f5d013 .color-13 a:visited{stroke:#808384;fill:#808384}#chart-32e6680d-e992-49f5-b54a-472151f5d013 .color-14,#chart-32e6680d-e992-49f5-b54a-472151f5d013 .color-14 a:visited{stroke:#8c54fe;fill:#8c54fe}#chart-32e6680d-e992-49f5-b54a-472151f5d013 .color-15,#chart-32e6680d-e992-49f5-b54a-472151f5d013 .color-15 a:visited{stroke:#465457;fill:#465457}
#chart-32e6680d-e992-49f5-b54a-472151f5d013 text.no_data{text-anchor:middle}#chart-32e6680d-e992-49f5-b54a-472151f5d013 .guide.line{fill-opacity:0}#chart-32e6680d-e992-49f5-b54a-472151f5d013 .centered{text-anchor:middle}#chart-32e6680d-e992-49f5-b54a-472151f5d013 .title{text-anchor:middle}#chart-32e6680d-e992-49f5-b54a-472151f5d013 .legends .legend text{fill-opacity:1}#chart-32e6680d-e992-49f5-b54a-472151f5d013 .axis.x text{text-anchor:middle}#chart-32e6680d-e992-49f5-b54a-472151f5d013 .axis.x:not(.web) text[transform]{text-anchor:start}#chart-32e6680d-e992-49f5-b54a-472151f5d013 .axis.y text{text-anchor:end}#chart-32e6680d-e992-49f5-b54a-472151f5d013 .axis.y2 text{text-anchor:start}#chart-32e6680d-e992-49f5-b54a-472151f5d013 .axis.y .logarithmic text:not(.major),#chart-32e6680d-e992-49f5-b54a-472151f5d013 .axis.y2 .logarithmic text:not(.major){font-size:50%}#chart-32e6680d-e992-49f5-b54a-472151f5d013 .axis .guide.line{stroke-dasharray:4,4}#chart-32e6680d-e992-49f5-b54a-472151f5d013 .axis .major.guide.line{stroke-dasharray:6,6}#chart-32e6680d-e992-49f5-b54a-472151f5d013 .axis text.major{stroke-width:0.5px}#chart-32e6680d-e992-49f5-b54a-472151f5d013 .horizontal .axis.y .guide.line,#chart-32e6680d-e992-49f5-b54a-472151f5d013 .horizontal .axis.y2 .guide.line,#chart-32e6680d-e992-49f5-b54a-472151f5d013 .vertical .axis.x .guide.line{opacity:0}#chart-32e6680d-e992-49f5-b54a-472151f5d013 .horizontal .axis.always_show .guide.line,#chart-32e6680d-e992-49f5-b54a-472151f5d013 .vertical .axis.always_show .guide.line{opacity:1 !important}#chart-32e6680d-e992-49f5-b54a-472151f5d013 .axis.y .guides:hover .guide.line,#chart-32e6680d-e992-49f5-b54a-472151f5d013 .axis.y2 .guides:hover .guide.line,#chart-32e6680d-e992-49f5-b54a-472151f5d013 .axis.x .guides:hover .guide.line{opacity:1}#chart-32e6680d-e992-49f5-b54a-472151f5d013 .axis .guides:hover text{opacity:1}#chart-32e6680d-e992-49f5-b54a-472151f5d013 .nofill{fill:none}#chart-32e6680d-e992-49f5-b54a-472151f5d013 .subtle-fill{fill-opacity:.2}#chart-32e6680d-e992-49f5-b54a-472151f5d013 .dot{stroke-width:1px;fill-opacity:1}#chart-32e6680d-e992-49f5-b54a-472151f5d013 .dot.active{stroke-width:5px}#chart-32e6680d-e992-49f5-b54a-472151f5d013 .series text{stroke:none}#chart-32e6680d-e992-49f5-b54a-472151f5d013 .series text.active{opacity:1}#chart-32e6680d-e992-49f5-b54a-472151f5d013 .tooltip rect{fill-opacity:0.8}#chart-32e6680d-e992-49f5-b54a-472151f5d013 .tooltip text{fill-opacity:1}#chart-32e6680d-e992-49f5-b54a-472151f5d013 .tooltip text tspan.label{fill-opacity:.8}</style><script type="text/javascript">window.config = {"css": ["style.css", "graph.css"], "disable_xml_declaration": false, "dots_size": 2.5, "explicit_size": false, "fill": false, "half_pie": false, "height": 768, "human_readable": false, "include_x_axis": false, "inner_radius": 0, "interpolate": null, "interpolation_parameters": {}, "interpolation_precision": 250, "js": ["http://kozea.github.io/pygal.js/javascripts/svg.jquery.js", "http://kozea.github.io/pygal.js/javascripts/pygal-tooltips.js"], "label_font_size": 10, "legend_at_bottom": true, "legend_at_bottom_columns": null, "legend_box_size": 12, "legend_font_size": 14, "logarithmic": false, "major_label_font_size": 10, "margin": 20, "margin_bottom": null, "margin_left": null, "margin_right": null, "margin_top": null, "missing_value_fill_truncation": "x", "mode": null, "no_data_font_size": 64, "no_data_text": "No data", "no_prefix": false, "order_min": null, "pretty_print": false, "print_values": false, "print_zeroes": false, "range": null, "rounded_bars": null, "show_dots": false, "show_legend": true, "show_minor_x_labels": true, "show_minor_y_labels": true, "show_only_major_dots": false, "show_x_guides": false, "show_x_labels": true, "show_y_guides": true, "show_y_labels": true, "spacing": 10, "stack_from_top": false, "strict": false, "stroke": true, "style": {"background": "black", "colors": ["#ff5995", "#b6e354", "#feed6c", "#8cedff", "#9e6ffe", "#899ca1", "#f8f8f2", "#bf4646", "#516083", "#f92672", "#82b414", "#fd971f", "#56c2d6", "#808384", "#8c54fe", "#465457"], "font_family": "monospace", "foreground": "#999", "foreground_dark": "#555", "foreground_light": "#eee", "opacity": ".8", "opacity_hover": ".4", "plot_background": "#111", "stroke_dasharray": "0,0", "stroke_style": "round", "stroke_width": 1.0, "transition": "250ms"}, "title": "Election Constituents", "title_font_size": 16, "tooltip_border_radius": 0, "tooltip_font_size": 16, "truncate_label": null, "truncate_legend": null, "value_font_size": 8, "width": 1024, "x_label_format": "%Y-%m-%d %H:%M:%S.%f", "x_label_rotation": 0, "x_labels": null, "x_labels_major": null, "x_labels_major_count": null, "x_labels_major_every": null, "x_title": null, "x_value_formatter": null, "xrange": null, "y_label_rotation": 0, "y_labels": null, "y_labels_major": null, "y_labels_major_count": null, "y_labels_major_every": null, "y_title": "Users", "zero": 0}</script><script type="text/javascript" xlink:href="http://kozea.github.io/pygal.js/javascripts/svg.jquery.js" /><script type="text/javascript" xlink:href="http://kozea.github.io/pygal.js/javascripts/pygal-tooltips.js" /></defs><title>Election Constituents</title><g class="graph line-graph vertical"><rect class="background" height="768" width="1024" x="0" y="0" /><g class="plot" transform="translate(86, 46)"><rect class="background" height="636.0" width="918.0" x="0" y="0" /><g class="axis y"><path class="line" d="M0.000000 636.000000 h918.000000" /><g class="guides"><path class="guide line" d="M0.000000 567.424939 h918.000000" /><text class="" x="-5" y="570.9249394673124">10000</text></g><g class="guides"><path class="guide line" d="M0.000000 497.579531 h918.000000" /><text class="" x="-5" y="501.0795306388527">20000</text></g><g class="guides"><path class="guide line" d="M0.000000 427.734122 h918.000000" /><text class="" x="-5" y="431.23412181039294">30000</text></g><g class="guides"><path class="guide line" d="M0.000000 357.888713 h918.000000" /><text class="" x="-5" y="361.3887129819333">40000</text></g><g class="guides"><path class="major guide line" d="M0.000000 288.043304 h918.000000" /><text class="major" x="-5" y="291.5433041534736">50000</text></g><g class="guides"><path class="guide line" d="M0.000000 218.197895 h918.000000" /><text class="" x="-5" y="221.69789532501392">60000</text></g><g class="guides"><path class="guide line" d="M0.000000 148.352486 h918.000000" /><text class="" x="-5" y="151.85248649655426">70000</text></g><g class="guides"><path class="guide line" d="M0.000000 78.507078 h918.000000" /><text class="" x="-5" y="82.00707766809455">80000</text></g></g><g class="series serie-0 color-0"><path class="line reactive nofill" d="M17.653846 620.374744 L20.105769 614.319147 22.557692 610.135407 25.009615 608.193705 27.461538 606.608214 29.913462 605.448780 32.365385 604.310300 34.817308 603.178804 37.269231 601.320916 39.721154 599.623673 42.173077 597.884522 44.625000 595.677407 47.076923 593.065189 49.528846 590.473924 51.980769 588.434438 54.432692 587.093407 56.884615 585.752375 59.336538 584.180853 61.788462 582.958558 64.240385 581.813094 66.692308 580.730490 69.144231 579.955206 71.596154 579.061185 74.048077 578.509406 76.500000 577.838890 78.951923 577.203297 81.403846 576.721363 83.855769 576.379121 86.307692 576.057832 88.759615 575.883218 91.211538 575.673682 93.663462 575.401285 96.115385 575.261594 98.567308 574.982213 101.019231 574.626001 103.471154 574.241851 105.923077 573.676104 108.375000 573.166232 110.826923 572.712237 113.278846 572.195381 115.730769 571.671540 118.182692 571.280406 120.634615 570.770535 123.086538 570.253679 125.538462 569.897467 127.990385 569.590147 130.442308 569.261874 132.894231 568.968523 135.346154 568.647234 137.798077 568.381822 140.250000 568.228162 142.701923 568.074502 145.153846 567.934811 147.605769 567.816074 150.057692 567.690352 152.509615 567.543677 154.961538 567.417955 157.413462 567.166511 159.865385 567.040790 162.317308 566.831253 164.769231 566.565841 167.221154 566.293444 169.673077 566.028031 172.125000 565.748650 174.576923 565.525144 177.028846 565.252747 179.480769 564.980350 181.932692 564.666046 184.384615 564.435556 186.836538 564.191097 189.288462 564.009499 191.740385 563.779009 194.192308 563.646303 196.644231 563.485658 199.096154 563.338983 201.548077 563.199292 204.000000 563.094524 206.451923 563.010710 208.903846 562.947849 211.355769 562.871019 213.807692 562.773235 216.259615 562.682436 218.711538 562.556714 221.163462 562.389085 223.615385 562.242410 226.067308 562.039858 228.519231 561.879214 230.971154 561.760477 233.423077 561.599832 235.875000 561.453157 238.326923 561.271559 240.778846 561.110915 243.230769 560.922332 245.682692 560.733749 248.134615 560.587074 250.586538 560.440399 253.038462 560.335630 255.490385 560.223878 257.942308 560.119110 260.394231 560.049264 262.846154 560.000373 265.298077 559.944496 267.750000 559.909573 270.201923 559.860682 272.653846 559.811790 275.105769 559.700037 277.557692 559.637176 280.009615 559.532408 282.461538 559.462563 284.913462 559.420656 287.365385 559.364779 289.817308 559.322872 292.269231 559.266996 294.721154 559.197150 297.173077 559.176197 299.625000 559.113336 302.076923 558.980630 304.528846 558.861892 306.980769 558.785062 309.432692 558.722202 311.884615 558.652356 314.336538 558.596480 316.788462 558.540603 319.240385 558.470758 321.692308 558.407897 324.144231 558.352021 326.596154 558.324083 329.048077 558.310114 331.500000 558.240268 333.951923 558.212330 336.403846 558.184392 338.855769 558.142485 341.307692 558.093593 343.759615 558.023747 346.211538 557.911995 348.663462 557.849134 351.115385 557.779289 353.567308 557.723412 356.019231 557.653567 358.471154 557.611660 360.923077 557.541814 363.375000 557.451015 365.826923 557.325293 368.278846 557.297355 370.730769 557.129726 373.182692 557.010989 375.634615 556.934159 378.086538 556.878283 380.538462 556.801453 382.990385 556.759546 385.442308 556.682716 387.894231 556.605886 390.346154 556.536040 392.798077 556.459210 395.250000 556.375396 397.701923 556.291581 400.153846 556.075061 402.605769 555.879493 405.057692 555.655988 407.509615 555.432483 409.961538 555.146117 412.413462 554.901658 414.865385 554.650214 417.317308 554.468616 419.769231 554.273049 422.221154 554.154312 424.673077 553.993667 427.125000 549.775005 429.576923 520.551686 432.028846 504.270721 434.480769 494.757776 436.932692 487.172565 439.384615 481.780499 441.836538 477.093872 444.288462 472.442168 446.740385 467.057087 449.192308 459.304247 451.644231 450.566586 454.096154 440.948873 456.548077 429.794561 459.000000 417.068728 461.451923 403.881915 463.903846 392.937139 466.355769 384.793164 468.807692 377.508288 471.259615 370.188489 473.711538 362.882660 476.163462 356.673403 478.615385 350.883218 481.067308 346.203576 483.519231 342.466847 485.971154 338.779009 488.423077 335.656919 490.875000 333.086608 493.326923 330.697895 495.778846 329.070497 498.230769 327.806295 500.682692 326.758614 503.134615 325.717918 505.586538 324.754051 508.038462 323.447942 510.490385 321.806575 512.942308 320.179177 515.394231 318.027938 517.846154 315.743993 520.298077 313.278450 522.750000 310.701155 525.201923 308.452133 527.653846 306.384709 530.105769 304.093779 532.557692 301.830788 535.009615 299.553828 537.461538 297.556249 539.913462 295.879959 542.365385 294.203669 544.817308 292.695008 547.269231 291.353977 549.721154 290.145651 552.173077 289.223692 554.625000 288.427454 557.076923 287.791861 559.528846 287.330881 561.980769 286.751164 564.432692 286.171447 566.884615 285.654591 569.336538 284.851369 571.788462 284.138946 574.240385 283.161110 576.692308 282.253120 579.144231 281.058763 581.596154 279.626932 584.048077 278.565282 586.500000 277.322034 588.951923 276.085770 591.403846 274.933321 593.855769 273.843733 596.307692 272.740175 598.759615 271.790278 601.211538 271.021978 603.663462 270.113988 606.115385 269.150121 608.567308 268.486590 611.019231 267.850996 613.471154 267.397001 615.923077 266.998882 618.375000 266.691563 620.826923 266.349320 623.278846 265.993109 625.730769 265.643882 628.182692 265.294654 630.634615 264.938443 633.086538 264.421587 635.538462 263.869808 637.990385 262.926895 640.442308 262.214472 642.894231 261.585863 645.346154 260.957255 647.798077 260.223878 650.250000 259.546377 652.701923 258.771093 655.153846 258.086608 657.605769 257.583721 660.057692 257.038927 662.509615 256.165860 664.961538 249.411809 667.413462 245.926523 669.865385 243.726392 672.317308 242.203762 674.769231 241.184019 677.221154 240.457627 679.673077 239.738219 682.125000 239.074688 684.576923 238.299404 687.028846 237.524120 689.480769 236.839635 691.932692 235.987521 694.384615 235.114453 696.836538 234.255355 699.288462 233.284504 701.740385 232.320637 704.192308 231.482492 706.644231 230.595455 709.096154 229.757310 711.548077 229.030918 714.000000 228.220711 716.451923 227.466381 718.903846 226.872695 721.355769 226.104396 723.807692 225.440864 726.259615 224.917024 728.711538 224.379214 731.163462 223.918234 733.615385 223.617899 736.067308 223.366456 738.519231 223.121997 740.971154 222.863569 743.423077 222.542280 745.875000 222.339728 748.326923 222.039393 750.778846 221.725088 753.230769 221.326970 755.682692 220.886944 758.134615 220.446917 760.586538 220.041814 763.038462 219.587819 765.490385 219.182716 767.942308 218.693798 770.394231 218.211864 772.846154 217.764854 775.298077 217.227044 777.750000 216.752095 780.201923 216.291116 782.653846 215.899981 785.105769 215.459955 787.557692 214.978022 790.009615 214.600857 792.461538 214.237661 794.913462 213.895418 797.365385 213.539207 799.817308 213.071242 802.269231 212.470572 804.721154 211.939747 807.173077 211.108586 809.625000 210.046936 812.076923 208.803688 814.528846 206.987707 816.980769 205.534923 819.432692 204.319613 821.884615 203.202086 824.336538 202.049637 826.788462 200.722574 829.240385 199.311697 831.692308 198.284969 834.144231 197.502701 836.596154 196.797262 839.048077 196.049916 841.500000 195.484168 843.951923 194.862544 846.403846 194.492364 848.855769 194.150121 851.307692 193.800894 853.759615 193.472621 856.211538 193.172285 858.663462 192.906873 861.115385 192.655429 863.567308 192.383032 866.019231 191.949991 868.471154 191.544887 870.923077 190.874371 873.375000 190.203855 875.826923 189.547309 878.278846 188.876793 880.730769 188.164370 883.182692 187.479885 885.634615 186.830322 888.086538 186.006146 890.538462 185.496275 892.990385 185.056249 895.442308 184.609238 897.894231 184.211119 900.346154 184.211119" /></g><g class="series serie-1 color-1"><path class="line reactive nofill" d="M17.653846 623.252375 L20.105769 618.006985 22.557692 615.080462 25.009615 613.131775 27.461538 611.294841 29.913462 610.072546 32.365385 608.843267 34.817308 607.411436 37.269231 605.274167 39.721154 602.522257 42.173077 599.644627 44.625000 595.705346 47.076923 592.101322 49.528846 589.649749 51.980769 587.393742 54.432692 585.521885 56.884615 583.580183 59.336538 581.680387 61.788462 579.766623 64.240385 578.097318 66.692308 576.784224 69.144231 575.617806 71.596154 574.584094 74.048077 573.606258 76.500000 572.837959 78.951923 571.895046 81.403846 571.448035 83.855769 571.126746 86.307692 570.735612 88.759615 570.365431 91.211538 570.120972 93.663462 569.890482 96.115385 569.422518 98.567308 568.877724 101.019231 568.284038 103.471154 567.480816 105.923077 566.677594 108.375000 565.888340 110.826923 565.140995 113.278846 564.519370 115.730769 563.806947 118.182692 563.073570 120.634615 562.437977 123.086538 561.886199 125.538462 561.425219 127.990385 560.873440 130.442308 560.377538 132.894231 559.965450 135.346154 559.546377 137.798077 559.211119 140.250000 558.882846 142.701923 558.757124 145.153846 558.610449 147.605769 558.456789 150.057692 558.261222 152.509615 558.107562 154.961538 557.814211 157.413462 557.444031 159.865385 557.129726 162.317308 556.640808 164.769231 556.144906 167.221154 555.725833 169.673077 555.299776 172.125000 554.810859 174.576923 554.398771 177.028846 553.888899 179.480769 553.365059 181.932692 552.869156 184.384615 552.485007 186.836538 552.219594 189.288462 551.912274 191.740385 551.590985 194.192308 551.192866 196.644231 550.941423 199.096154 550.780779 201.548077 550.627119 204.000000 550.522351 206.451923 550.403613 208.903846 550.270907 211.355769 550.173123 213.807692 549.963587 216.259615 549.719128 218.711538 549.404824 221.163462 549.125442 223.615385 548.832092 226.067308 548.454926 228.519231 548.084746 230.971154 547.791395 233.423077 547.435183 235.875000 547.106910 238.326923 546.757683 240.778846 546.485286 243.230769 546.303688 245.682692 546.087167 248.134615 545.891600 250.586538 545.710002 253.038462 545.465543 255.490385 545.318868 257.942308 545.193146 260.394231 545.095362 262.846154 544.976625 265.298077 544.885826 267.750000 544.829950 270.201923 544.774073 272.653846 544.662321 275.105769 544.599460 277.557692 544.480723 280.009615 544.361985 282.461538 544.292140 284.913462 544.208326 287.365385 544.145465 289.817308 543.998789 292.269231 543.866083 294.721154 543.782269 297.173077 543.614640 299.625000 543.474949 302.076923 543.349227 304.528846 543.202552 306.980769 543.020954 309.432692 542.909201 311.884615 542.825386 314.336538 542.762526 316.788462 542.629819 319.240385 542.532036 321.692308 542.455206 324.144231 542.364407 326.596154 542.287577 329.048077 542.231701 331.500000 542.133917 333.951923 542.043118 336.403846 541.952319 338.855769 541.875489 341.307692 541.805644 343.759615 541.644999 346.211538 541.526262 348.663462 541.386571 351.115385 541.267834 353.567308 541.156081 356.019231 541.044329 358.471154 540.925591 360.923077 540.841777 363.375000 540.737009 365.826923 540.618272 368.278846 540.450643 370.730769 540.331905 373.182692 540.199199 375.634615 540.122369 378.086538 540.045539 380.538462 539.968709 382.990385 539.877910 385.442308 539.752188 387.894231 539.689328 390.346154 539.598529 392.798077 539.423915 395.250000 539.249302 397.701923 538.921028 400.153846 538.557832 402.605769 538.138760 405.057692 537.803502 407.509615 537.419352 409.961538 537.077109 412.413462 536.567238 414.865385 536.155150 417.317308 535.931645 419.769231 535.680201 422.221154 535.407804 424.673077 535.114453 427.125000 534.800149 429.576923 500.017135 432.028846 483.491712 434.480769 474.558484 436.932692 467.965077 439.384615 462.307599 441.836538 457.565096 444.288462 452.214938 446.740385 446.983516 449.192308 439.405290 451.644231 428.362730 454.096154 413.827901 456.548077 395.325852 459.000000 379.429037 461.451923 365.425033 463.903846 354.612963 466.355769 345.100019 468.807692 335.370553 471.259615 326.192866 473.711538 317.434252 476.163462 310.379866 478.615385 305.008754 481.067308 300.343081 483.519231 296.026634 485.971154 292.108307 488.423077 288.790650 490.875000 285.871112 493.326923 283.929410 495.778846 282.686161 498.230769 281.659434 500.682692 280.527938 503.134615 279.452319 505.586538 278.104302 508.038462 276.295306 510.490385 273.934532 512.942308 270.770535 515.394231 267.187465 517.846154 263.597411 520.298077 259.825759 522.750000 256.480164 525.201923 253.246321 527.653846 250.019464 530.105769 246.715776 532.557692 243.321289 535.009615 240.632241 537.461538 238.089868 539.913462 236.120227 542.365385 234.087726 544.817308 232.306668 547.269231 230.553548 549.721154 229.359192 552.173077 228.318495 554.625000 227.480350 557.076923 226.872695 559.528846 226.076457 561.980769 225.468802 564.432692 224.693518 566.884615 223.771559 569.336538 222.814677 571.788462 221.082511 574.240385 219.315422 576.692308 217.513410 579.144231 215.494878 581.596154 213.671913 584.048077 211.946731 586.500000 209.900261 588.951923 208.042373 591.403846 206.282269 593.855769 204.983144 596.307692 203.467499 598.759615 202.133451 601.211538 201.141646 603.663462 200.156826 606.115385 199.116130 608.567308 198.264016 611.019231 197.670330 613.471154 197.216335 615.923077 196.804247 618.375000 196.475973 620.826923 196.042932 623.278846 195.595921 625.730769 195.100019 628.182692 194.471410 630.634615 193.752002 633.086538 192.892904 635.538462 191.768393 637.990385 190.622928 640.442308 189.728907 642.894231 188.876793 645.346154 187.654498 647.798077 186.460142 650.250000 185.188955 652.701923 184.260011 655.153846 183.589495 657.605769 182.765319 660.057692 181.969082 662.509615 181.326504 664.961538 174.076551 667.413462 170.193146 669.865385 167.727603 672.317308 166.156081 674.769231 165.157292 677.221154 164.270255 679.673077 163.585770 682.125000 162.775563 684.576923 161.769790 687.028846 160.617340 689.480769 159.457907 691.932692 158.158782 694.384615 157.041255 696.836538 155.588471 699.288462 154.401099 701.740385 153.395325 704.192308 152.096200 706.644231 151.034550 709.096154 149.944962 711.548077 148.869343 714.000000 148.017229 716.451923 147.053362 718.903846 146.243155 721.355769 145.209443 723.807692 144.455113 726.259615 143.763643 728.711538 143.330602 731.163462 142.813746 733.615385 142.499441 736.067308 142.178152 738.519231 141.926709 740.971154 141.647327 743.423077 141.360961 745.875000 141.025703 748.326923 140.550754 750.778846 140.047867 753.230769 139.286552 755.682692 138.567145 758.134615 137.840752 760.586538 137.330881 763.038462 136.632427 765.490385 136.052710 767.942308 135.507916 770.394231 134.802477 772.846154 134.173869 775.298077 133.496368 777.750000 133.028404 780.201923 132.504563 782.653846 131.903893 785.105769 131.394021 787.557692 131.037810 790.009615 130.646675 792.461538 130.262526 794.913462 129.731701 797.365385 129.249767 799.817308 128.670050 802.269231 127.852859 804.721154 126.637549 807.173077 124.898398 809.625000 122.782082 812.076923 120.337493 814.528846 117.725275 816.980769 116.000093 819.432692 114.316819 821.884615 112.354163 824.336538 110.377538 826.788462 108.491712 829.240385 106.843360 831.692308 105.725833 834.144231 104.678152 836.596154 103.644440 839.048077 102.554852 841.500000 101.709722 843.951923 101.018253 846.403846 100.431551 848.855769 100.068355 851.307692 99.788974 853.759615 99.425778 856.211538 99.111473 858.663462 98.804153 861.115385 98.447942 863.567308 98.014900 866.019231 97.106910 868.471154 96.170982 870.923077 95.137270 873.375000 94.215310 875.826923 93.265413 878.278846 92.559974 880.730769 91.763736 883.182692 90.764947 885.634615 89.947756 888.086538 88.948966 890.538462 88.278450 892.990385 87.705718 895.442308 87.042187 897.894231 86.378655 900.346154 86.378655" /></g><g class="series serie-2 color-2"><path class="line reactive nofill" d="M17.653846 623.021885 L20.105769 616.526262 22.557692 612.796517 25.009615 610.617340 27.461538 608.968989 29.913462 607.593034 32.365385 606.398678 34.817308 604.883032 37.269231 603.611846 39.721154 601.670143 42.173077 599.351276 44.625000 596.815888 47.076923 593.526169 49.528846 590.061836 51.980769 587.652170 54.432692 586.045725 56.884615 584.467219 59.336538 582.888713 61.788462 581.142578 64.240385 579.619948 66.692308 578.243993 69.144231 577.294096 71.596154 576.476904 74.048077 575.638760 76.500000 574.828553 78.951923 574.158037 81.403846 573.501490 83.855769 573.173217 86.307692 572.879866 88.759615 572.565562 91.211538 572.286180 93.663462 571.950922 96.115385 571.650587 98.567308 571.266437 101.019231 570.910225 103.471154 570.386385 105.923077 569.659993 108.375000 568.982492 110.826923 568.430713 113.278846 567.955765 115.730769 567.278264 118.182692 566.614733 120.634615 566.090892 123.086538 565.413392 125.538462 564.966381 127.990385 564.421587 130.442308 564.016484 132.894231 563.618365 135.346154 563.157385 137.798077 562.717359 140.250000 562.333209 142.701923 562.109704 145.153846 561.942075 147.605769 561.781430 150.057692 561.627771 152.509615 561.453157 154.961538 561.299497 157.413462 561.055038 159.865385 560.698827 162.317308 560.384522 164.769231 559.972434 167.221154 559.399702 169.673077 558.973645 172.125000 558.498696 174.576923 558.002794 177.028846 557.499907 179.480769 557.031943 181.932692 556.605886 184.384615 556.158875 186.836538 555.760756 189.288462 555.453436 191.740385 555.090240 194.192308 554.768951 196.644231 554.482585 199.096154 554.161296 201.548077 553.930806 204.000000 553.756193 206.451923 553.609518 208.903846 553.483796 211.355769 553.379028 213.807692 553.281244 216.259615 553.085677 218.711538 552.932017 221.163462 552.729465 223.615385 552.575806 226.067308 552.135779 228.519231 551.807506 230.971154 551.493202 233.423077 551.185882 235.875000 550.822686 238.326923 550.480443 240.778846 550.201062 243.230769 549.900726 245.682692 549.614360 248.134615 549.362917 250.586538 549.097504 253.038462 548.922891 255.490385 548.713354 257.942308 548.608586 260.394231 548.496834 262.846154 548.399050 265.298077 548.329205 267.750000 548.217452 270.201923 548.189514 272.653846 548.147607 275.105769 548.084746 277.557692 547.979978 280.009615 547.840287 282.461538 547.735519 284.913462 547.651704 287.365385 547.505029 289.817308 547.386292 292.269231 547.330415 294.721154 547.218663 297.173077 547.092941 299.625000 547.002142 302.076923 546.862451 304.528846 546.708791 306.980769 546.631961 309.432692 546.548147 311.884615 546.394487 314.336538 546.296703 316.788462 546.170982 319.240385 546.045260 321.692308 545.975414 324.144231 545.884615 326.596154 545.786832 329.048077 545.737940 331.500000 545.689048 333.951923 545.577296 336.403846 545.472527 338.855769 545.402682 341.307692 545.235053 343.759615 545.109331 346.211538 544.997579 348.663462 544.878841 351.115385 544.746135 353.567308 544.613429 356.019231 544.417862 358.471154 544.334047 360.923077 544.208326 363.375000 544.033712 365.826923 543.803222 368.278846 543.656547 370.730769 543.516856 373.182692 543.342243 375.634615 543.230490 378.086538 543.104768 380.538462 543.055876 382.990385 542.972062 385.442308 542.860309 387.894231 542.741572 390.346154 542.441237 392.798077 542.078041 395.250000 541.721829 397.701923 541.274818 400.153846 540.876700 402.605769 540.387782 405.057692 539.849972 407.509615 539.402961 409.961538 539.025796 412.413462 538.592755 414.865385 538.068914 417.317308 537.712703 419.769231 537.335537 422.221154 537.132986 424.673077 536.832650 427.125000 536.441516 429.576923 503.704973 432.028846 484.783852 434.480769 473.531756 436.932692 464.032781 439.384615 458.438164 441.836538 452.885454 444.288462 448.226765 446.740385 442.178152 449.192308 433.719873 451.644231 424.199944 454.096154 413.890762 456.548077 400.487428 459.000000 384.276308 461.451923 367.967405 463.903846 354.284690 466.355769 345.253679 468.807692 335.936301 471.259615 327.582790 473.711538 319.159434 476.163462 312.398398 478.615385 304.959862 481.067308 300.000838 483.519231 295.865990 485.971154 292.094338 488.423077 288.581114 490.875000 285.452039 493.326923 283.105234 495.778846 281.191470 498.230769 280.073943 500.682692 278.879587 503.134615 277.789998 505.586538 276.483889 508.038462 274.954275 510.490385 273.291954 512.942308 270.973086 515.394231 268.472621 517.846154 265.629912 520.298077 261.781430 522.750000 258.519650 525.201923 255.893462 527.653846 252.687558 530.105769 249.628329 532.557692 246.862451 535.009615 244.236264 537.461538 241.861520 539.913462 239.989663 542.365385 238.257497 544.817308 236.776774 547.269231 235.051592 549.721154 233.619762 552.173077 232.453343 554.625000 231.692028 557.076923 231.042466 559.528846 230.427826 561.980769 230.001769 564.432692 229.408083 566.884615 228.702645 569.336538 227.696871 571.788462 226.733004 574.240385 225.398957 576.692308 223.883312 579.144231 222.207022 581.596154 220.174520 584.048077 218.749674 586.500000 216.961632 588.951923 215.285342 591.403846 213.560160 593.855769 212.093407 596.307692 211.192401 598.759615 209.606910 601.211538 208.636059 603.663462 207.574409 606.115385 206.645465 608.567308 205.709536 611.019231 204.871391 613.471154 204.291674 615.923077 203.928478 618.375000 203.586236 620.826923 203.223040 623.278846 202.789998 625.730769 202.329018 628.182692 201.882008 630.634615 201.232446 633.086538 200.443192 635.538462 199.688862 637.990385 198.766903 640.442308 197.649376 642.894231 196.601695 645.346154 195.840380 647.798077 194.988266 650.250000 193.912647 652.701923 193.221177 655.153846 192.390017 657.605769 191.754424 660.057692 191.167722 662.509615 190.601974 664.961538 182.967871 667.413462 178.413950 669.865385 175.564258 672.317308 173.636524 674.769231 172.463122 677.221154 171.352580 679.673077 170.479512 682.125000 169.571522 684.576923 168.593686 687.028846 167.713634 689.480769 166.596107 691.932692 165.562395 694.384615 164.368039 696.836538 163.243528 699.288462 161.979326 701.740385 160.722108 704.192308 159.422984 706.644231 158.228627 709.096154 157.166977 711.548077 155.839914 714.000000 154.959862 716.451923 153.982026 718.903846 153.025144 721.355769 152.138108 723.807692 151.223133 726.259615 150.419911 728.711538 149.903055 731.163462 149.372229 733.615385 148.932203 736.067308 148.610915 738.519231 148.254703 740.971154 147.975321 743.423077 147.716893 745.875000 147.353697 748.326923 146.899702 750.778846 146.389831 753.230769 145.852021 755.682692 145.202459 758.134615 144.517974 760.586538 143.791581 763.038462 143.107096 765.490385 142.324828 767.942308 141.640343 770.394231 140.767275 772.846154 140.068821 775.298077 139.377351 777.750000 138.741758 780.201923 138.120134 782.653846 137.463587 785.105769 136.890855 787.557692 136.276215 790.009615 135.899050 792.461538 135.424101 794.913462 134.970106 797.365385 134.404358 799.817308 133.985286 802.269231 133.210002 804.721154 132.162321 807.173077 130.828273 809.625000 129.382473 812.076923 127.070590 814.528846 124.535202 816.980769 122.034736 819.432692 119.918421 821.884615 118.179270 824.336538 116.028031 826.788462 114.512386 829.240385 112.766251 831.692308 111.320451 834.144231 110.244831 836.596154 109.218104 839.048077 108.379959 841.500000 107.395139 843.951923 106.640808 846.403846 105.949339 848.855769 105.516297 851.307692 105.146117 853.759615 104.754982 856.211538 104.419724 858.663462 104.056528 861.115385 103.735239 863.567308 103.211399 866.019231 102.764388 868.471154 101.989104 870.923077 100.913485 873.375000 99.900726 875.826923 98.873999 878.278846 98.105699 880.730769 97.071987 883.182692 96.017322 885.634615 95.186161 888.086538 94.110542 890.538462 93.244459 892.990385 92.573943 895.442308 91.938350 897.894231 91.337679 900.346154 91.309741" /></g><g class="series serie-3 color-3"><path class="line reactive nofill" d="M17.653846 622.449153 L20.105769 617.001211 22.557692 612.852393 25.009615 610.645278 27.461538 609.136618 29.913462 607.579065 32.365385 606.419631 34.817308 605.008754 37.269231 602.948314 39.721154 599.944962 42.173077 597.465450 44.625000 594.063978 47.076923 590.425033 49.528846 587.002608 51.980769 584.271652 54.432692 582.099460 56.884615 580.185696 59.336538 578.313839 61.788462 576.546750 64.240385 575.059043 66.692308 573.641181 69.144231 572.279195 71.596154 571.448035 74.048077 570.595921 76.500000 569.911436 78.951923 569.331719 81.403846 568.856770 83.855769 568.472621 86.307692 568.102440 88.759615 567.781151 91.211538 567.592568 93.663462 567.369063 96.115385 567.145558 98.567308 566.684578 101.019231 566.209629 103.471154 565.888340 105.923077 564.903520 108.375000 563.967592 110.826923 563.220246 113.278846 562.654498 115.730769 561.935090 118.182692 561.062023 120.634615 560.321661 123.086538 559.616223 125.538462 559.036506 127.990385 558.603464 130.442308 558.114546 132.894231 557.653567 135.346154 557.227510 137.798077 556.815422 140.250000 556.584932 142.701923 556.340473 145.153846 556.186813 147.605769 556.047122 150.057692 555.886478 152.509615 555.718849 154.961538 555.481375 157.413462 555.264854 159.865385 554.901658 162.317308 554.552431 164.769231 554.084466 167.221154 553.581579 169.673077 553.008847 172.125000 552.547867 174.576923 551.989104 177.028846 551.507171 179.480769 551.074129 181.932692 550.585211 184.384615 550.124232 186.836538 549.691190 189.288462 549.411809 191.740385 549.090520 194.192308 548.797169 196.644231 548.538741 199.096154 548.315236 201.548077 548.070777 204.000000 547.952039 206.451923 547.826318 208.903846 547.700596 211.355769 547.602812 213.807692 547.400261 216.259615 547.204694 218.711538 546.988173 221.163462 546.715776 223.615385 546.464332 226.067308 546.136059 228.519231 545.821755 230.971154 545.465543 233.423077 545.165208 235.875000 544.857888 238.326923 544.438815 240.778846 544.117527 243.230769 543.705439 245.682692 543.474949 248.134615 543.307320 250.586538 543.041907 253.038462 542.853325 255.490385 542.657757 257.942308 542.483144 260.394231 542.336469 262.846154 542.210747 265.298077 542.168840 267.750000 542.119948 270.201923 542.043118 272.653846 541.959303 275.105769 541.882473 277.557692 541.812628 280.009615 541.700875 282.461538 541.575154 284.913462 541.428478 287.365385 541.288787 289.817308 541.170050 292.269231 541.044329 294.721154 540.883684 297.173077 540.785901 299.625000 540.660179 302.076923 540.485565 304.528846 540.352859 306.980769 540.248091 309.432692 540.066493 311.884615 539.947756 314.336538 539.773142 316.788462 539.689328 319.240385 539.612498 321.692308 539.528683 324.144231 539.458838 326.596154 539.382008 329.048077 539.305178 331.500000 539.228348 333.951923 539.158503 336.403846 539.081673 338.855769 538.955951 341.307692 538.823245 343.759615 538.718476 346.211538 538.522909 348.663462 538.397188 351.115385 538.250512 353.567308 538.096852 356.019231 538.006053 358.471154 537.831440 360.923077 537.656826 363.375000 537.461259 365.826923 537.370460 368.278846 537.202831 370.730769 537.084094 373.182692 536.895511 375.634615 536.797728 378.086538 536.651052 380.538462 536.546284 382.990385 536.441516 385.442308 536.301825 387.894231 536.155150 390.346154 536.008475 392.798077 535.840846 395.250000 535.603371 397.701923 535.275098 400.153846 534.939840 402.605769 534.436953 405.057692 534.073757 407.509615 533.584839 409.961538 533.200689 412.413462 532.739709 414.865385 532.222853 417.317308 531.803781 419.769231 531.419631 422.221154 531.056435 424.673077 530.749115 427.125000 530.567517 429.576923 494.219966 432.028846 475.557273 434.480769 462.063140 436.932692 453.709629 439.384615 447.130192 441.836538 441.277147 444.288462 435.403148 446.740385 428.921494 449.192308 419.569194 451.644231 407.681505 454.096154 394.361985 456.548077 379.247439 459.000000 360.123766 461.451923 342.124604 463.903846 327.408177 466.355769 315.576364 468.807692 304.841125 471.259615 295.803129 473.711538 286.702272 476.163462 278.383684 478.615385 271.545819 481.067308 265.902310 483.519231 261.418234 485.971154 256.577947 488.423077 253.036785 490.875000 249.439747 493.326923 246.785621 495.778846 244.878841 498.230769 243.167629 500.682692 242.092010 503.134615 240.583349 505.586538 239.242317 508.038462 237.642857 510.490385 235.449711 512.942308 232.537158 515.394231 229.547774 517.846154 225.943751 520.298077 221.683181 522.750000 217.038462 525.201923 213.567145 527.653846 210.249488 530.105769 206.345129 532.557692 203.076364 535.009615 199.891414 537.461538 197.314118 539.913462 195.288601 542.365385 193.270069 544.817308 191.509965 547.269231 189.763829 549.721154 188.122462 552.173077 186.942075 554.625000 186.006146 557.076923 185.202924 559.528846 184.581300 561.980769 183.889831 564.432692 183.149469 566.884615 182.227510 569.336538 181.389365 571.788462 179.908642 574.240385 178.392997 576.692308 176.835444 579.144231 174.663252 581.596154 172.637735 584.048077 170.716986 586.500000 168.921959 588.951923 167.154871 591.403846 165.206184 593.855769 163.446079 596.307692 161.685975 598.759615 160.456696 601.211538 159.059788 603.663462 157.781617 606.115385 156.936487 608.567308 155.832930 611.019231 155.085584 613.471154 154.519836 615.923077 154.009965 618.375000 153.653753 620.826923 153.108959 623.278846 152.661948 625.730769 152.124139 628.182692 151.628236 630.634615 150.783107 633.086538 149.958931 635.538462 149.050941 637.990385 147.842615 640.442308 146.711119 642.894231 145.586608 645.346154 144.706556 647.798077 143.505215 650.250000 142.436580 652.701923 141.353977 655.153846 140.522816 657.605769 139.663718 660.057692 138.958279 662.509615 138.210933 664.961538 129.878376 667.413462 125.205718 669.865385 121.874092 672.317308 119.764761 674.769231 118.416744 677.221154 117.096666 679.673077 116.188676 682.125000 115.196871 684.576923 114.044422 687.028846 113.059601 689.480769 111.907152 691.932692 110.747718 694.384615 109.294934 696.836538 107.660551 699.288462 106.096014 701.740385 104.671168 704.192308 103.302198 706.644231 101.926243 709.096154 100.564258 711.548077 99.244180 714.000000 97.784411 716.451923 96.701807 718.903846 95.640156 721.355769 94.473738 723.807692 93.509871 726.259615 92.622835 728.711538 92.008195 731.163462 91.456416 733.615385 91.002421 736.067308 90.625256 738.519231 90.317936 740.971154 89.968709 743.423077 89.500745 745.875000 89.046750 748.326923 88.550847 750.778846 87.922239 753.230769 87.237754 755.682692 86.420562 758.134615 85.519557 760.586538 84.751257 763.038462 84.101695 765.490385 83.172751 767.942308 82.376513 770.394231 81.643137 772.846154 80.818961 775.298077 79.987800 777.750000 79.198547 780.201923 78.458186 782.653846 77.808624 785.105769 77.089216 787.557692 76.355839 790.009615 75.811045 792.461538 75.161483 794.913462 74.546843 797.365385 73.876327 799.817308 73.268672 802.269231 72.388620 804.721154 71.033619 807.173077 69.154777 809.625000 67.045446 812.076923 64.272583 814.528846 61.038741 816.980769 58.105234 819.432692 55.877165 821.884615 53.453530 824.336538 51.274353 826.788462 48.648165 829.240385 46.692494 831.692308 45.141926 834.144231 43.835817 836.596154 42.683367 839.048077 41.719501 841.500000 40.720711 843.951923 39.673030 846.403846 38.939654 848.855769 38.408828 851.307692 37.940864 853.759615 37.549730 856.211538 37.109704 858.663462 36.767461 861.115385 36.390296 863.567308 35.831533 866.019231 34.986403 868.471154 34.287949 870.923077 33.303129 873.375000 31.815422 875.826923 30.851555 878.278846 29.713075 880.730769 28.511734 883.182692 27.450084 885.634615 25.892531 888.086538 24.747066 890.538462 23.839076 892.990385 22.763457 895.442308 22.023096 897.894231 21.366549 900.346154 21.324641" /></g><g class="series serie-4 color-4"><path class="line reactive nofill" d="M17.653846 623.769231 L20.105769 619.152449 22.557692 616.197988 25.009615 614.458838 27.461538 612.887316 29.913462 611.476439 32.365385 610.065562 34.817308 608.263550 37.269231 606.042466 39.721154 602.927361 42.173077 598.967126 44.625000 594.594804 47.076923 590.788229 49.528846 588.043304 51.980769 585.193611 54.432692 583.070311 56.884615 580.947011 59.336538 578.781803 61.788462 576.693425 64.240385 575.128888 66.692308 573.941516 69.144231 573.019557 71.596154 571.867107 74.048077 570.973086 76.500000 570.232725 78.951923 569.478394 81.403846 569.031384 83.855769 568.640250 86.307692 568.367852 88.759615 568.109424 91.211538 567.864966 93.663462 567.536692 96.115385 567.075712 98.567308 566.419166 101.019231 565.706742 103.471154 564.868598 105.923077 564.009499 108.375000 562.989756 110.826923 562.067797 113.278846 561.152822 115.730769 560.251816 118.182692 559.497486 120.634615 558.554573 123.086538 557.667536 125.538462 557.080834 127.990385 556.591917 130.442308 556.102999 132.894231 555.551220 135.346154 555.118178 137.798077 554.866735 140.250000 554.531477 142.701923 554.349879 145.153846 554.175265 147.605769 553.951760 150.057692 553.735239 152.509615 553.560626 154.961538 553.295213 157.413462 552.994878 159.865385 552.596759 162.317308 552.072919 164.769231 551.577016 167.221154 551.374465 169.673077 550.850624 172.125000 550.263923 174.576923 549.614360 177.028846 549.090520 179.480769 548.426988 181.932692 547.889179 184.384615 547.574874 186.836538 547.204694 189.288462 546.799590 191.740385 546.450363 194.192308 546.073198 196.644231 545.800801 199.096154 545.577296 201.548077 545.465543 204.000000 545.346806 206.451923 545.290929 208.903846 545.158223 211.355769 545.053455 213.807692 544.829950 216.259615 544.641367 218.711538 544.222295 221.163462 543.845129 223.615385 543.356212 226.067308 542.937139 228.519231 542.636804 230.971154 542.252654 233.423077 541.868504 235.875000 541.477370 238.326923 541.184019 240.778846 540.925591 243.230769 540.702086 245.682692 540.492550 248.134615 540.248091 250.586538 540.031570 253.038462 539.759173 255.490385 539.605513 257.942308 539.423915 260.394231 539.298193 262.846154 539.277240 265.298077 539.277240 267.750000 539.277240 270.201923 539.277240 272.653846 539.277240 275.105769 539.277240 277.557692 539.277240 280.009615 539.277240 282.461538 539.277240 284.913462 539.277240 287.365385 539.277240 289.817308 539.277240 292.269231 539.277240 294.721154 539.277240 297.173077 539.277240 299.625000 539.277240 302.076923 539.277240 304.528846 539.277240 306.980769 539.277240 309.432692 537.112032 311.884615 536.979326 314.336538 536.853604 316.788462 536.741851 319.240385 536.692960 321.692308 536.651052 324.144231 536.567238 326.596154 536.469454 329.048077 536.371671 331.500000 536.280872 333.951923 536.190073 336.403846 536.078320 338.855769 536.008475 341.307692 535.889737 343.759615 535.750047 346.211538 535.673217 348.663462 535.533526 351.115385 535.365897 353.567308 535.226206 356.019231 535.093500 358.471154 534.918886 360.923077 534.751257 363.375000 534.555690 365.826923 534.381077 368.278846 534.220432 370.730769 534.143602 373.182692 533.989942 375.634615 533.850251 378.086538 533.766437 380.538462 533.710561 382.990385 533.640715 385.442308 533.487055 387.894231 533.417210 390.346154 533.263550 392.798077 533.047029 395.250000 532.816539 397.701923 532.439374 400.153846 532.013317 402.605769 531.524399 405.057692 530.972621 407.509615 530.497672 409.961538 529.917955 412.413462 529.470944 414.865385 529.009965 417.317308 528.548985 419.769231 528.262619 422.221154 527.920376 424.673077 527.606072 427.125000 526.404731 429.576923 495.393369 432.028846 479.175265 434.480769 471.170982 436.932692 465.241106 439.384615 459.842056 441.836538 454.443006 444.288462 448.589961 446.740385 441.228255 449.192308 430.052989 451.644231 415.217825 454.096154 397.546936 456.548077 376.181226 459.000000 359.083069 461.451923 343.221177 463.903846 330.481375 466.355769 318.873068 468.807692 307.816539 471.259615 297.409573 473.711538 288.078227 476.163462 280.234587 478.615385 274.933321 481.067308 269.464425 483.519231 265.308624 485.971154 261.048054 488.423077 257.241479 490.875000 254.636245 493.326923 252.785342 495.778846 251.123021 498.230769 249.879773 500.682692 248.559695 503.134615 247.351369 505.586538 245.800801 508.038462 244.019743 510.490385 241.512293 512.942308 237.964146 515.394231 233.738499 517.846154 228.863289 520.298077 224.763364 522.750000 220.705346 525.201923 217.080369 527.653846 212.938536 530.105769 209.187838 532.557692 205.409201 535.009615 202.294096 537.461538 199.570125 539.913462 197.488732 542.365385 195.519091 544.817308 193.298007 547.269231 191.586795 549.721154 190.168933 552.173077 189.128236 554.625000 188.297076 557.076923 187.472900 559.528846 186.795400 561.980769 186.082976 564.432692 185.377538 566.884615 184.371764 569.336538 183.177407 571.788462 181.424288 574.240385 179.433693 576.692308 177.212609 579.144231 174.865804 581.596154 172.763457 584.048077 170.793816 586.500000 168.789253 588.951923 166.631030 591.403846 164.787111 593.855769 162.957161 596.307692 161.616130 598.759615 160.107469 601.211538 158.766437 603.663462 157.586050 606.115385 156.468523 608.567308 155.567517 611.019231 154.924939 613.471154 154.401099 615.923077 154.093779 618.375000 153.646768 620.826923 153.227696 623.278846 152.731794 625.730769 152.249860 628.182692 151.474576 630.634615 150.524679 633.086538 149.393183 635.538462 148.177873 637.990385 146.592382 640.442308 145.356118 642.894231 143.875396 645.346154 142.750885 647.798077 141.235239 650.250000 140.068821 652.701923 139.042093 655.153846 138.106165 657.605769 137.107376 660.057692 136.297169 662.509615 135.179642 664.961538 127.266158 667.413462 123.159248 669.865385 120.861334 672.317308 119.247905 674.769231 118.214193 677.221154 117.473831 679.673077 116.335351 682.125000 115.196871 684.576923 113.918700 687.028846 112.458931 689.480769 110.817564 691.932692 108.973645 694.384615 107.283386 696.836538 105.809648 699.288462 104.538462 701.740385 102.959955 704.192308 101.646862 706.644231 100.159154 709.096154 98.699385 711.548077 97.463122 714.000000 95.898584 716.451923 94.718197 718.903846 93.859099 721.355769 92.790464 723.807692 91.917396 726.259615 91.211958 728.711538 90.569380 731.163462 90.024586 733.615385 89.563606 736.067308 89.228348 738.519231 88.816260 740.971154 88.508940 743.423077 88.027007 745.875000 87.363476 748.326923 86.658037 750.778846 85.805923 753.230769 85.121438 755.682692 84.192494 758.134615 83.375303 760.586538 82.627957 763.038462 81.803781 765.490385 80.909760 767.942308 80.113522 770.394231 79.233470 772.846154 78.500093 775.298077 77.696871 777.750000 76.935556 780.201923 76.313932 782.653846 75.524679 785.105769 74.951946 787.557692 74.393183 790.009615 73.862358 792.461538 73.387409 794.913462 72.870553 797.365385 72.088285 799.817308 71.417769 802.269231 70.125629 804.721154 68.442354 807.173077 65.955858 809.625000 62.589309 812.076923 59.062116 814.528846 56.135593 816.980769 53.250978 819.432692 50.834327 821.884615 48.075433 824.336538 45.274632 826.788462 42.802105 829.240385 40.874371 831.692308 39.170143 834.144231 37.668467 836.596154 36.278543 839.048077 35.049264 841.500000 33.882846 843.951923 33.058670 846.403846 32.290371 848.855769 31.822406 851.307692 31.361427 853.759615 31.109983 856.211538 30.725833 858.663462 30.348668 861.115385 29.915627 863.567308 29.273049 866.019231 28.134569 868.471154 26.681784 870.923077 25.403613 873.375000 23.964798 875.826923 22.630751 878.278846 21.338611 880.730769 19.934718 883.182692 18.530825 885.634615 17.168840 888.086538 15.743993 890.538462 14.738219 892.990385 13.823245 895.442308 13.082883 897.894231 12.230769 900.346154 12.230769" /></g><g class="series serie-5 color-5"><path class="line reactive nofill" d="M17.653846 623.664463 L20.105769 618.684485 22.557692 615.066493 25.009615 613.166698 27.461538 611.762805 29.913462 610.303036 32.365385 609.087726 34.817308 607.893369 37.269231 605.839914 39.721154 603.164835 42.173077 600.224343 44.625000 596.515552 47.076923 593.344571 49.528846 590.599646 51.980769 588.210933 54.432692 586.485752 56.884615 584.704694 59.336538 582.762991 61.788462 581.142578 64.240385 579.633917 66.692308 578.453530 69.144231 577.629354 71.596154 576.742317 74.048077 576.029894 76.500000 575.394301 78.951923 574.905383 81.403846 574.507264 83.855769 574.151052 86.307692 573.913578 88.759615 573.662134 91.211538 573.403706 93.663462 573.173217 96.115385 572.782082 98.567308 572.404917 101.019231 571.964891 103.471154 571.420097 105.923077 570.672751 108.375000 569.869529 110.826923 569.108214 113.278846 568.472621 115.730769 567.760197 118.182692 567.026821 120.634615 566.342336 123.086538 565.734681 125.538462 565.224809 127.990385 564.770814 130.442308 564.253958 132.894231 563.925684 135.346154 563.625349 137.798077 563.276122 140.250000 563.087540 142.701923 562.815142 145.153846 562.703390 147.605769 562.577668 150.057692 562.479885 152.509615 562.319240 154.961538 562.123673 157.413462 561.816353 159.865385 561.523002 162.317308 561.159806 164.769231 560.656919 167.221154 560.258801 169.673077 559.797821 172.125000 559.273980 174.576923 558.785062 177.028846 558.338052 179.480769 557.946917 181.932692 557.513876 184.384615 557.199572 186.836538 556.892252 189.288462 556.633824 191.740385 556.361427 194.192308 556.116968 196.644231 555.830602 199.096154 555.739803 201.548077 555.635034 204.000000 555.530266 206.451923 555.432483 208.903846 555.362637 211.355769 555.264854 213.807692 555.139132 216.259615 554.964519 218.711538 554.761967 221.163462 554.566400 223.615385 554.363848 226.067308 554.014621 228.519231 553.721270 230.971154 553.427920 233.423077 553.106631 235.875000 552.757404 238.326923 552.471037 240.778846 552.198640 243.230769 552.024027 245.682692 551.807506 248.134615 551.604954 250.586538 551.458279 253.038462 551.248743 255.490385 551.067145 257.942308 550.934438 260.394231 550.752840 262.846154 550.703949 265.298077 550.613150 267.750000 550.522351 270.201923 550.466474 272.653846 550.417582 275.105769 550.375675 277.557692 550.291861 280.009615 550.201062 282.461538 550.082324 284.913462 549.984541 287.365385 549.879773 289.817308 549.788974 292.269231 549.684206 294.721154 549.593407 297.173077 549.446731 299.625000 549.286087 302.076923 549.174334 304.528846 549.076551 306.980769 548.964798 309.432692 548.873999 311.884615 548.776215 314.336538 548.678432 316.788462 548.629540 319.240385 548.524772 321.692308 548.468896 324.144231 548.420004 326.596154 548.357143 329.048077 548.273328 331.500000 548.238406 333.951923 548.175545 336.403846 548.084746 338.855769 547.993947 341.307692 547.854256 343.759615 547.693611 346.211538 547.498044 348.663462 547.288508 351.115385 547.120879 353.567308 546.911343 356.019231 546.750698 358.471154 546.583069 360.923077 546.373533 363.375000 546.226858 365.826923 546.031291 368.278846 545.947476 370.730769 545.800801 373.182692 545.682064 375.634615 545.556342 378.086538 545.430620 380.538462 545.318868 382.990385 545.214099 385.442308 545.102347 387.894231 544.976625 390.346154 544.829950 392.798077 544.578506 395.250000 544.264202 397.701923 543.921959 400.153846 543.481933 402.605769 542.986031 405.057692 542.455206 407.509615 541.987242 409.961538 541.568169 412.413462 541.128143 414.865385 540.485565 417.317308 540.052524 419.769231 539.696312 422.221154 539.444869 424.673077 539.186441 427.125000 536.720898 429.576923 505.884150 432.028846 490.057180 434.480769 479.922611 436.932692 473.112684 439.384615 467.888247 441.836538 462.356491 444.288462 456.950456 446.740385 450.238313 449.192308 441.067610 451.644231 429.703762 454.096154 416.530918 456.548077 400.305830 459.000000 382.139039 461.451923 363.678897 463.903846 350.191749 466.355769 338.066586 468.807692 325.878562 471.259615 314.388992 473.711538 303.723598 476.163462 295.754237 478.615385 287.945521 481.067308 282.015645 483.519231 276.749302 485.971154 272.879866 488.423077 268.940585 490.875000 266.069939 493.326923 263.848855 495.778846 262.242410 498.230769 260.985193 500.682692 259.588285 503.134615 258.100577 505.586538 256.424288 508.038462 254.496554 510.490385 252.387223 512.942308 249.307040 515.394231 245.786832 517.846154 241.861520 520.298077 237.307599 522.750000 232.900354 525.201923 228.472155 527.653846 224.435090 530.105769 220.160551 532.557692 216.186348 535.009615 212.386757 537.461538 209.404358 539.913462 206.952785 542.365385 204.550102 544.817308 202.356957 547.269231 200.338424 549.721154 198.815794 552.173077 197.516670 554.625000 196.650587 557.076923 195.805457 559.528846 195.030173 561.980769 194.387595 564.432692 193.493574 566.884615 192.487800 569.336538 191.314397 571.788462 189.756845 574.240385 187.773235 576.692308 185.412460 579.144231 182.891041 581.596154 180.299776 584.048077 178.057739 586.500000 175.969361 588.951923 173.762246 591.403846 171.240827 593.855769 169.019743 596.307692 167.224716 598.759615 165.527473 601.211538 164.060719 603.663462 162.740641 606.115385 161.678991 608.567308 160.554479 611.019231 159.618551 613.471154 158.920097 615.923077 158.494040 618.375000 157.900354 620.826923 157.453343 623.278846 156.943472 625.730769 156.440585 628.182692 155.763084 630.634615 154.924939 633.086538 153.835351 635.538462 152.668933 637.990385 151.132334 640.442308 149.546843 642.894231 148.233749 645.346154 146.941609 647.798077 145.321196 650.250000 143.770628 652.701923 142.450549 655.153846 141.263178 657.605769 140.250419 660.057692 139.342429 662.509615 138.008381 664.961538 130.486031 667.413462 126.428013 669.865385 123.752934 672.317308 121.755355 674.769231 120.554014 677.221154 119.317750 679.673077 118.270069 682.125000 117.215403 684.576923 115.958186 687.028846 114.819706 689.480769 113.401844 691.932692 111.781430 694.384615 110.300708 696.836538 108.875861 699.288462 107.157664 701.740385 105.572174 704.192308 104.014621 706.644231 102.359285 709.096154 100.969361 711.548077 99.502608 714.000000 98.021885 716.451923 96.638946 718.903846 95.437605 721.355769 94.417862 723.807692 93.530825 726.259615 92.608866 728.711538 91.875489 731.163462 91.309741 733.615385 90.827808 736.067308 90.317936 738.519231 89.884895 740.971154 89.368039 743.423077 88.837214 745.875000 88.257497 748.326923 87.656826 750.778846 86.853604 753.230769 85.917676 755.682692 85.037623 758.134615 84.185509 760.586538 83.256565 763.038462 82.348575 765.490385 81.552337 767.942308 80.665301 770.394231 79.778264 772.846154 78.961073 775.298077 78.248650 777.750000 77.347644 780.201923 76.509499 782.653846 75.762153 785.105769 75.133544 787.557692 74.525889 790.009615 74.525889 792.461538 74.525889 794.913462 74.525889 797.365385 74.525889 799.817308 74.525889 802.269231 74.525889 804.721154 74.525889 807.173077 74.525889 809.625000 74.525889 812.076923 74.525889 814.528846 74.525889 816.980769 74.525889 819.432692 74.525889 821.884615 74.525889 824.336538 74.525889 826.788462 74.525889 829.240385 74.525889 831.692308 74.525889 834.144231 74.525889 836.596154 74.525889 839.048077 74.525889 841.500000 74.525889 843.951923 74.525889 846.403846 74.525889 848.855769 74.525889 851.307692 74.525889 853.759615 74.525889 856.211538 74.525889 858.663462 74.525889 861.115385 74.525889 863.567308 74.525889 866.019231 74.525889 868.471154 74.525889 870.923077 74.525889 873.375000 74.525889 875.826923 74.525889 878.278846 74.525889 880.730769 74.525889 883.182692 74.525889 885.634615 74.525889 888.086538 74.525889 890.538462 74.525889 892.990385 74.525889 895.442308 74.525889 897.894231 74.525889 900.346154 74.525889" /></g></g><g class="titles"><text class="title plot_title" x="512.0" y="26">Election Constituents</text><text class="title" transform="rotate(-90 0.000000 364.000000)" x="0" y="390.0">Users</text></g><g class="plot overlay" transform="translate(86, 46)"><g class="series serie-0 color-0" /><g class="series serie-1 color-1" /><g class="series serie-2 color-2" /><g class="series serie-3 color-3" /><g class="series serie-4 color-4" /><g class="series serie-5 color-5" /></g><g class="plot text-overlay" transform="translate(86, 46)"><g class="series serie-0 color-0" /><g class="series serie-1 color-1" /><g class="series serie-2 color-2" /><g class="series serie-3 color-3" /><g class="series serie-4 color-4" /><g class="series serie-5 color-5" /></g><g class="plot tooltip-overlay" transform="translate(86, 46)"><g class="tooltip" style="opacity: 0" transform="translate(0 0)"><a><rect class="tooltip-box" height="0" rx="0" ry="0" width="0" /><text class="text"><tspan class="label" /><tspan class="value" /></text></a></g></g><g class="legends" transform="translate(96, 692)"><g class="legend reactive activate-serie" id="activate-serie-0"><rect class="color-0 reactive" height="12" width="12" x="0.0" y="1.0" /><text x="17.0" y="11.2">election 5</text></g><g class="legend reactive activate-serie" id="activate-serie-1"><rect class="color-1 reactive" height="12" width="12" x="306.0" y="1.0" /><text x="323.0" y="11.2">election 6</text></g><g class="legend reactive activate-serie" id="activate-serie-2"><rect class="color-2 reactive" height="12" width="12" x="612.0" y="1.0" /><text x="629.0" y="11.2">election 7</text></g><g class="legend reactive activate-serie" id="activate-serie-3"><rect class="color-3 reactive" height="12" width="12" x="0.0" y="22.0" /><text x="17.0" y="32.2">election 8</text></g><g class="legend reactive activate-serie" id="activate-serie-4"><rect class="color-4 reactive" height="12" width="12" x="306.0" y="22.0" /><text x="323.0" y="32.2">election 9</text></g><g class="legend reactive activate-serie" id="activate-serie-5"><rect class="color-5 reactive" height="12" width="12" x="612.0" y="22.0" /><text x="629.0" y="32.2">election 10</text></g></g></g></svg>