<?xml version='1.0' encoding='utf-8'?>
<svg xmlns:xlink="http://www.w3.org/1999/xlink" class="pygal-chart" id="chart-299a7881-e011-40c9-8c17-202824ff45b7" viewBox="0 0 1024 768" xmlns="http://www.w3.org/2000/svg"><!--Generated with pygal 1.7.0 (etree) ©Kozea 2011-2014 on 2015-04-20--><!--http://pygal.org--><!--http://github.com/Kozea/pygal--><defs><style type="text/css">#chart-299a7881-e011-40c9-8c17-202824ff45b7 .title{font-family:"monospace";font-size:16px}#chart-299a7881-e011-40c9-8c17-202824ff45b7 .legends .legend text{font-family:"monospace";font-size:14px}#chart-299a7881-e011-40c9-8c17-202824ff45b7 .axis text{font-family:"monospace";font-size:10px}#chart-299a7881-e011-40c9-8c17-202824ff45b7 .axis text.major{font-family:"monospace";font-size:10px}#chart-299a7881-e011-40c9-8c17-202824ff45b7 .series text{font-family:"monospace";font-size:8px}#chart-299a7881-e011-40c9-8c17-202824ff45b7 .tooltip text{font-family:"monospace";font-size:16px}#chart-299a7881-e011-40c9-8c17-202824ff45b7 text.no_data{font-size:64px}
#chart-299a7881-e011-40c9-8c17-202824ff45b7{background-color:black}#chart-299a7881-e011-40c9-8c17-202824ff45b7 path,#chart-299a7881-e011-40c9-8c17-202824ff45b7 line,#chart-299a7881-e011-40c9-8c17-202824ff45b7 rect,#chart-299a7881-e011-40c9-8c17-202824ff45b7 circle{-webkit-transition:250ms;-moz-transition:250ms;transition:250ms}#chart-299a7881-e011-40c9-8c17-202824ff45b7 .graph &gt; .background{fill:black}#chart-299a7881-e011-40c9-8c17-202824ff45b7 .plot &gt; .background{fill:#111}#chart-299a7881-e011-40c9-8c17-202824ff45b7 .graph{fill:#999}#chart-299a7881-e011-40c9-8c17-202824ff45b7 text.no_data{fill:#eee}#chart-299a7881-e011-40c9-8c17-202824ff45b7 .title{fill:#eee}#chart-299a7881-e011-40c9-8c17-202824ff45b7 .legends .legend text{fill:#999}#chart-299a7881-e011-40c9-8c17-202824ff45b7 .legends .legend:hover text{fill:#eee}#chart-299a7881-e011-40c9-8c17-202824ff45b7 .axis .line{stroke:#eee}#chart-299a7881-e011-40c9-8c17-202824ff45b7 .axis .guide.line{stroke:#555}#chart-299a7881-e011-40c9-8c17-202824ff45b7 .axis .major.line{stroke:#999}#chart-299a7881-e011-40c9-8c17-202824ff45b7 .axis text.major{stroke:#eee;fill:#eee}#chart-299a7881-e011-40c9-8c17-202824ff45b7 .axis.y .guides:hover .guide.line,#chart-299a7881-e011-40c9-8c17-202824ff45b7 .line-graph .axis.x .guides:hover .guide.line,#chart-299a7881-e011-40c9-8c17-202824ff45b7 .stackedline-graph .axis.x .guides:hover .guide.line,#chart-299a7881-e011-40c9-8c17-202824ff45b7 .xy-graph .axis.x .guides:hover .guide.line{stroke:#eee}#chart-299a7881-e011-40c9-8c17-202824ff45b7 .axis .guides:hover text{fill:#eee}#chart-299a7881-e011-40c9-8c17-202824ff45b7 .reactive{fill-opacity:.8}#chart-299a7881-e011-40c9-8c17-202824ff45b7 .reactive.active,#chart-299a7881-e011-40c9-8c17-202824ff45b7 .active .reactive{fill-opacity:.4}#chart-299a7881-e011-40c9-8c17-202824ff45b7 .series{stroke-width:1.0;stroke-linejoin:round;stroke-linecap:round;stroke-dasharray:0,0}#chart-299a7881-e011-40c9-8c17-202824ff45b7 .series text{fill:#eee}#chart-299a7881-e011-40c9-8c17-202824ff45b7 .tooltip rect{fill:#111;stroke:#eee}#chart-299a7881-e011-40c9-8c17-202824ff45b7 .tooltip text{fill:#eee}#chart-299a7881-e011-40c9-8c17-202824ff45b7 .map-element{fill:#999;stroke:#555 !important;opacity:.9;stroke-width:3;-webkit-transition:250ms;-moz-transition:250ms;-o-transition:250ms;transition:250ms}#chart-299a7881-e011-40c9-8c17-202824ff45b7 .map-element:hover{opacity:1;stroke-width:10}#chart-299a7881-e011-40c9-8c17-202824ff45b7 .color-0,#chart-299a7881-e011-40c9-8c17-202824ff45b7 .color-0 a:visited{stroke:#ff5995;fill:#ff5995}#chart-299a7881-e011-40c9-8c17-202824ff45b7 .color-1,#chart-299a7881-e011-40c9-8c17-202824ff45b7 .color-1 a:visited{stroke:#b6e354;fill:#b6e354}#chart-299a7881-e011-40c9-8c17-202824ff45b7 .color-2,#chart-299a7881-e011-40c9-8c17-202824ff45b7 .color-2 a:visited{stroke:#feed6c;fill:#feed6c}#chart-299a7881-e011-40c9-8c17-202824ff45b7 .color-3,#chart-299a7881-e011-40c9-8c17-202824ff45b7 .color-3 a:visited{stroke:#8cedff;fill:#8cedff}#chart-299a7881-e011-40c9-8c17-202824ff45b7 .color-4,#chart-299a7881-e011-40c9-8c17-202824ff45b7 .color-4 a:visited{stroke:#9e6ffe;fill:#9e6ffe}#chart-299a7881-e011-40c9-8c17-202824ff45b7 .color-5,#chart-299a7881-e011-40c9-8c17-202824ff45b7 .color-5 a:visited{stroke:#899ca1;fill:#899ca1}#chart-299a7881-e011-40c9-8c17-202824ff45b7 .color-6,#chart-299a7881-e011-40c9-8c17-202824ff45b7 .color-6 a:visited{stroke:#f8f8f2;fill:#f8f8f2}#chart-299a7881-e011-40c9-8c17-202824ff45b7 .color-7,#chart-299a7881-e011-40c9-8c17-202824ff45b7 .color-7 a:visited{stroke:#bf4646;fill:#bf4646}#chart-299a7881-e011-40c9-8c17-202824ff45b7 .color-8,#chart-299a7881-e011-40c9-8c17-202824ff45b7 .color-8 a:visited{stroke:#516083;fill:#516083}#chart-299a7881-e011-40c9-8c17-202824ff45b7 .color-9,#chart-299a7881-e011-40c9-8c17-202824ff45b7 .color-9 a:visited{stroke:#f92672;fill:#f92672}#chart-299a7881-e011-40c9-8c17-202824ff45b7 .color-10,#chart-299a7881-e011-40c9-8c17-202824ff45b7 .color-10 a:visited{stroke:#82b414;fill:#82b414}#chart-299a7881-e011-40c9-8c17-202824ff45b7 .color-11,#chart-299a7881-e011-40c9-8c17-202824ff45b7 .color-11 a:visited{stroke:#fd971f;fill:#fd971f}#chart-299a7881-e011-40c9-8c17-202824ff45b7 .color-12,#chart-299a7881-e011-40c9-8c17-202824ff45b7 .color-12 a:visited{stroke:#56c2d6;fill:#56c2d6}#chart-299a7881-e011-40c9-8c17-202824ff45b7 .color-13,#chart-299a7881-e011-40c9-8c17-202824ff45b7 .color-13 a:visited{stroke:#808384;fill:#808384}#chart-299a7881-e011-40c9-8c17-202824ff45b7 .color-14,#chart-299a7881-e011-40c9-8c17-202824ff45b7 .color-14 a:visited{stroke:#8c54fe;fill:#8c54fe}#chart-299a7881-e011-40c9-8c17-202824ff45b7 .color-15,#chart-299a7881-e011-40c9-8c17-202824ff45b7 .color-15 a:visited{stroke:#465457;fill:#465457}
#chart-299a7881-e011-40c9-8c17-202824ff45b7 text.no_data{text-anchor:middle}#chart-299a7881-e011-40c9-8c17-202824ff45b7 .guide.line{fill-opacity:0}#chart-299a7881-e011-40c9-8c17-202824ff45b7 .centered{text-anchor:middle}#chart-299a7881-e011-40c9-8c17-202824ff45b7 .title{text-anchor:middle}#chart-299a7881-e011-40c9-8c17-202824ff45b7 .legends .legend text{fill-opacity:1}#chart-299a7881-e011-40c9-8c17-202824ff45b7 .axis.x text{text-anchor:middle}#chart-299a7881-e011-40c9-8c17-202824ff45b7 .axis.x:not(.web) text[transform]{text-anchor:start}#chart-299a7881-e011-40c9-8c17-202824ff45b7 .axis.y text{text-anchor:end}#chart-299a7881-e011-40c9-8c17-202824ff45b7 .axis.y2 text{text-anchor:start}#chart-299a7881-e011-40c9-8c17-202824ff45b7 .axis.y .logarithmic text:not(.major),#chart-299a7881-e011-40c9-8c17-202824ff45b7 .axis.y2 .logarithmic text:not(.major){font-size:50%}#chart-299a7881-e011-40c9-8c17-202824ff45b7 .axis .guide.line{stroke-dasharray:4,4}#chart-299a7881-e011-40c9-8c17-202824ff45b7 .axis .major.guide.line{stroke-dasharray:6,6}#chart-299a7881-e011-40c9-8c17-202824ff45b7 .axis text.major{stroke-width:0.5px}#chart-299a7881-e011-40c9-8c17-202824ff45b7 .horizontal .axis.y .guide.line,#chart-299a7881-e011-40c9-8c17-202824ff45b7 .horizontal .axis.y2 .guide.line,#chart-299a7881-e011-40c9-8c17-202824ff45b7 .vertical .axis.x .guide.line{opacity:0}#chart-299a7881-e011-40c9-8c17-202824ff45b7 .horizontal .axis.always_show .guide.line,#chart-299a7881-e011-40c9-8c17-202824ff45b7 .vertical .axis.always_show .guide.line{opacity:1 !important}#chart-299a7881-e011-40c9-8c17-202824ff45b7 .axis.y .guides:hover .guide.line,#chart-299a7881-e011-40c9-8c17-202824ff45b7 .axis.y2 .guides:hover .guide.line,#chart-299a7881-e011-40c9-8c17-202824ff45b7 .axis.x .guides:hover .guide.line{opacity:1}#chart-299a7881-e011-40c9-8c17-202824ff45b7 .axis .guides:hover text{opacity:1}#chart-299a7881-e011-40c9-8c17-202824ff45b7 .nofill{fill:none}#chart-299a7881-e011-40c9-8c17-202824ff45b7 .subtle-fill{fill-opacity:.2}#chart-299a7881-e011-40c9-8c17-202824ff45b7 .dot{stroke-width:1px;fill-opacity:1}#chart-299a7881-e011-40c9-8c17-202824ff45b7 .dot.active{stroke-width:5px}#chart-299a7881-e011-40c9-8c17-202824ff45b7 .series text{stroke:none}#chart-299a7881-e011-40c9-8c17-202824ff45b7 .series text.active{opacity:1}#chart-299a7881-e011-40c9-8c17-202824ff45b7 .tooltip rect{fill-opacity:0.8}#chart-299a7881-e011-40c9-8c17-202824ff45b7 .tooltip text{fill-opacity:1}#chart-299a7881-e011-40c9-8c17-202824ff45b7 .tooltip text tspan.label{fill-opacity:.8}</style><script type="text/javascript">window.config = {"include_x_axis": false, "pretty_print": false, "show_y_labels": true, "stack_from_top": false, "order_min": null, "human_readable": false, "rounded_bars": null, "disable_xml_declaration": false, "no_data_text": "No data", "height": 768, "title_font_size": 16, "show_y_guides": true, "interpolation_parameters": {}, "truncate_label": null, "tooltip_border_radius": 0, "x_label_format": "%Y-%m-%d %H:%M:%S.%f", "no_prefix": false, "y_labels_major_every": null, "show_only_major_dots": false, "show_minor_y_labels": true, "interpolate": null, "title": "Election 5 Participation", "legend_at_bottom": true, "xrange": null, "y_labels_major": null, "x_labels_major": null, "zero": 0, "x_labels_major_every": null, "print_values": false, "explicit_size": false, "y_title": "Users", "x_title": null, "interpolation_precision": 250, "x_value_formatter": null, "width": 1024, "half_pie": false, "no_data_font_size": 64, "fill": false, "show_legend": true, "x_label_rotation": 0, "legend_box_size": 12, "js": ["http://kozea.github.io/pygal.js/javascripts/svg.jquery.js", "http://kozea.github.io/pygal.js/javascripts/pygal-tooltips.js"], "logarithmic": false, "show_dots": false, "show_x_labels": true, "print_zeroes": false, "truncate_legend": null, "missing_value_fill_truncation": "x", "tooltip_font_size": 16, "margin_right": null, "style": {"stroke_style": "round", "transition": "250ms", "colors": ["#ff5995", "#b6e354", "#feed6c", "#8cedff", "#9e6ffe", "#899ca1", "#f8f8f2", "#bf4646", "#516083", "#f92672", "#82b414", "#fd971f", "#56c2d6", "#808384", "#8c54fe", "#465457"], "stroke_dasharray": "0,0", "foreground": "#999", "foreground_light": "#eee", "font_family": "monospace", "opacity": ".8", "opacity_hover": ".4", "background": "black", "plot_background": "#111", "foreground_dark": "#555", "stroke_width": 1.0}, "value_font_size": 8, "legend_at_bottom_columns": null, "margin_bottom": null, "margin_left": null, "mode": null, "spacing": 10, "legend_font_size": 14, "css": ["style.css", "graph.css"], "y_labels_major_count": null, "y_label_rotation": 0, "label_font_size": 10, "range": null, "show_x_guides": false, "inner_radius": 0, "major_label_font_size": 10, "stroke": true, "margin_top": null, "show_minor_x_labels": true, "x_labels": null, "margin": 20, "x_labels_major_count": null, "strict": false, "y_labels": null, "dots_size": 2.5}</script><script type="text/javascript" xlink:href="http://kozea.github.io/pygal.js/javascripts/svg.jquery.js" /><script type="text/javascript" xlink:href="http://kozea.github.io/pygal.js/javascripts/pygal-tooltips.js" /></defs><title>Election 5 Participation</title><g class="graph line-graph vertical"><rect class="background" height="768" width="1024" x="0" y="0" /><g class="plot" transform="translate(86, 46)"><rect class="background" height="657.0" width="918.0" x="0" y="0" /><g class="axis y"><g class="guides"><path class="axis major line" d="M0.000000 644.365385 h918.000000" /><text class="major" x="-5" y="647.8653846153846">0</text></g><g class="guides"><path class="guide line" d="M0.000000 544.490160 h918.000000" /><text class="" x="-5" y="547.9901602381682">10000</text></g><g class="guides"><path class="guide line" d="M0.000000 444.614936 h918.000000" /><text class="" x="-5" y="448.1149358609518">20000</text></g><g class="guides"><path class="guide line" d="M0.000000 344.739711 h918.000000" /><text class="" x="-5" y="348.2397114837354">30000</text></g><g class="guides"><path class="guide line" d="M0.000000 244.864487 h918.000000" /><text class="" x="-5" y="248.364487106519">40000</text></g><g class="guides"><path class="major guide line" d="M0.000000 144.989263 h918.000000" /><text class="major" x="-5" y="148.4892627293026">50000</text></g><g class="guides"><path class="guide line" d="M0.000000 45.114038 h918.000000" /><text class="" x="-5" y="48.61403835208614">60000</text></g></g><g class="series serie-0 color-0"><path class="line reactive nofill" d="M17.653846 644.365385 L20.280907 644.365385 22.907967 644.365385 25.535027 644.365385 28.162088 644.365385 30.789148 644.365385 33.416209 644.365385 36.043269 644.365385 38.670330 644.365385 41.297390 644.365385 43.924451 644.365385 46.551511 644.365385 49.178571 644.365385 51.805632 644.365385 54.432692 644.365385 57.059753 644.365385 59.686813 644.365385 62.313874 644.365385 64.940934 644.365385 67.567995 644.365385 70.195055 644.365385 72.822115 644.365385 75.449176 644.365385 78.076236 644.365385 80.703297 644.365385 83.330357 644.365385 85.957418 644.365385 88.584478 644.365385 91.211538 644.365385 93.838599 644.365385 96.465659 644.365385 99.092720 644.365385 101.719780 644.365385 104.346841 644.365385 106.973901 644.365385 109.600962 644.365385 112.228022 644.365385 114.855082 644.365385 117.482143 644.365385 120.109203 644.365385 122.736264 644.365385 125.363324 644.365385 127.990385 644.365385 130.617445 644.365385 133.244505 644.365385 135.871566 644.365385 138.498626 644.365385 141.125687 644.365385 143.752747 644.365385 146.379808 644.365385 149.006868 644.365385 151.633929 644.365385 154.260989 644.365385 156.888049 644.365385 159.515110 644.365385 162.142170 644.365385 164.769231 644.365385 167.396291 644.365385 170.023352 644.365385 172.650412 644.365385 175.277473 644.365385 177.904533 644.365385 180.531593 644.365385 183.158654 644.365385 185.785714 644.365385 188.412775 644.365385 191.039835 644.365385 193.666896 644.365385 196.293956 644.365385 198.921016 644.365385 201.548077 644.365385 204.175137 644.365385 206.802198 644.365385 209.429258 644.365385 212.056319 644.365385 214.683379 644.365385 217.310440 644.365385 219.937500 644.365385 222.564560 644.365385 225.191621 644.365385 227.818681 644.365385 230.445742 644.365385 233.072802 644.365385 235.699863 644.365385 238.326923 644.365385 240.953984 644.365385 243.581044 644.365385 246.208104 644.365385 248.835165 644.365385 251.462225 644.365385 254.089286 644.365385 256.716346 644.365385 259.343407 644.365385 261.970467 644.365385 264.597527 644.365385 267.224588 644.365385 269.851648 644.365385 272.478709 644.365385 275.105769 644.365385 277.732830 644.365385 280.359890 644.365385 282.986951 644.365385 285.614011 644.365385 288.241071 644.365385 290.868132 644.365385 293.495192 644.365385 296.122253 644.365385 298.749313 644.365385 301.376374 644.365385 304.003434 644.365385 306.630495 644.365385 309.257555 644.365385 311.884615 644.365385 314.511676 644.365385 317.138736 644.365385 319.765797 644.365385 322.392857 644.365385 325.019918 644.365385 327.646978 644.365385 330.274038 644.365385 332.901099 644.365385 335.528159 644.365385 338.155220 644.365385 340.782280 644.365385 343.409341 644.365385 346.036401 644.365385 348.663462 644.365385 351.290522 644.365385 353.917582 644.365385 356.544643 644.365385 359.171703 644.365385 361.798764 644.365385 364.425824 644.365385 367.052885 644.365385 369.679945 644.365385 372.307005 644.365385 374.934066 644.365385 377.561126 644.365385 380.188187 644.365385 382.815247 644.365385 385.442308 644.365385 388.069368 644.365385 390.696429 644.365385 393.323489 644.365385 395.950549 644.365385 398.577610 644.365385 401.204670 644.365385 403.831731 644.365385 406.458791 644.365385 409.085852 644.365385 411.712912 644.365385 414.339973 644.365385 416.967033 644.365385 419.594093 644.365385 422.221154 644.365385 424.848214 644.365385 427.475275 644.365385 430.102335 644.365385 432.729396 644.365385 435.356456 644.365385 437.983516 644.365385 440.610577 644.365385 443.237637 644.365385 445.864698 644.365385 448.491758 644.365385 451.118819 644.365385 453.745879 644.365385 456.372940 644.365385 459.000000 644.365385 461.627060 644.365385 464.254121 644.365385 466.881181 644.365385 469.508242 644.365385 472.135302 644.365385 474.762363 644.365385 477.389423 644.365385 480.016484 644.365385 482.643544 644.365385 485.270604 644.365385 487.897665 644.365385 490.524725 644.365385 493.151786 644.365385 495.778846 644.365385 498.405907 644.365385 501.032967 644.365385 503.660027 644.365385 506.287088 644.365385 508.914148 644.365385 511.541209 644.365385 514.168269 644.365385 516.795330 644.365385 519.422390 644.365385 522.049451 644.365385 524.676511 644.365385 527.303571 644.365385 529.930632 644.365385 532.557692 644.365385 535.184753 644.365385 537.811813 644.365385 540.438874 644.365385 543.065934 644.365385 545.692995 644.365385 548.320055 644.365385 550.947115 644.365385 553.574176 644.365385 556.201236 644.365385 558.828297 644.365385 561.455357 644.365385 564.082418 644.365385 566.709478 644.365385 569.336538 644.365385 571.963599 644.365385 574.590659 644.365385 577.217720 644.365385 579.844780 644.365385 582.471841 644.365385 585.098901 644.365385 587.725962 644.365385 590.353022 644.365385 592.980082 644.365385 595.607143 644.365385 598.234203 644.365385 600.861264 644.365385 603.488324 644.365385 606.115385 644.365385 608.742445 644.365385 611.369505 644.365385 613.996566 644.365385 616.623626 644.365385 619.250687 644.365385 621.877747 644.365385 624.504808 644.365385 627.131868 644.365385 629.758929 644.365385 632.385989 644.365385 635.013049 644.365385 637.640110 644.365385 640.267170 644.365385 642.894231 644.365385 645.521291 644.365385 648.148352 644.365385 650.775412 644.365385 653.402473 644.365385 656.029533 644.365385 658.656593 644.365385 661.283654 644.365385 663.910714 644.365385 666.537775 644.365385 669.164835 644.365385 671.791896 644.365385 674.418956 644.365385 677.046016 644.365385 679.673077 644.365385 682.300137 644.365385 684.927198 644.365385 687.554258 644.365385 690.181319 644.365385 692.808379 644.365385 695.435440 644.365385 698.062500 644.365385 700.689560 644.365385 703.316621 644.365385 705.943681 644.365385 708.570742 643.366632 711.197802 612.774851 713.824863 599.032020 716.451923 590.572589 719.078984 584.999551 721.706044 581.174330 724.333104 578.417774 726.960165 576.000794 729.587225 573.294175 732.214286 569.638742 734.841346 566.612522 737.468407 563.566328 740.095467 560.220508 742.722527 556.535112 745.349588 552.999529 747.976648 549.334109 750.603709 546.227989 753.230769 543.071932 755.857830 540.415251 758.484890 537.788533 761.111951 535.361565 763.739011 532.924609 766.366071 530.517616 768.993132 528.689900 771.620192 526.842208 774.247253 524.994516 776.874313 523.636213 779.501374 522.457686 782.128434 521.299133 784.755495 520.470169 787.382555 519.840955 790.009615 519.111866 792.636676 518.562552 795.263736 517.883400 797.890797 517.074411 800.517857 516.265422 803.144918 515.436457 805.771978 514.327842 808.399038 513.329090 811.026099 512.150563 813.653159 510.962047 816.280220 509.763545 818.907280 508.784768 821.534341 507.825965 824.161401 506.627463 826.788462 505.498873 829.415522 504.320345 832.042582 503.041942 834.669643 502.083140 837.296703 501.134325 839.923764 499.885885 842.550824 499.006983 845.177885 498.267906 847.804945 497.628705 850.432005 496.759791 853.059066 495.960789 855.686126 494.782261 858.313187 492.375268 860.940247 489.798487 863.567308 487.261657 866.194368 483.566273 868.821429 478.892113 871.448489 473.618701 874.075549 469.883368 876.702610 466.857148 879.329670 464.180492 881.956731 461.433924 884.583791 458.697342 887.210852 456.130549 889.837912 454.382733 892.464973 452.964505 895.092033 451.775989 897.719093 450.687350 900.346154 449.838410" /></g><g class="series serie-1 color-1"><path class="line reactive nofill" d="M17.653846 620.205568 L20.280907 611.546386 22.907967 605.563860 25.535027 602.787329 28.162088 600.520161 30.789148 598.862232 33.416209 597.234266 36.043269 595.616288 38.670330 592.959607 41.297390 590.532639 43.924451 588.045746 46.551511 584.889688 49.178571 581.154355 51.805632 577.448984 54.432692 574.532628 57.059753 572.615023 59.686813 570.697419 62.313874 568.450227 64.940934 566.702410 67.567995 565.064456 70.195055 563.516390 72.822115 562.407775 75.449176 561.129373 78.076236 560.340358 80.703297 559.381556 83.330357 558.472692 85.957418 557.783553 88.584478 557.294164 91.211538 556.834738 93.838599 556.585050 96.465659 556.285424 99.092720 555.895911 101.719780 555.696160 104.346841 555.296660 106.973901 554.787296 109.600962 554.237982 112.228022 553.428993 114.855082 552.699904 117.482143 552.050715 120.109203 551.311638 122.736264 550.562574 125.363324 550.003273 127.990385 549.274183 130.617445 548.535107 133.244505 548.025743 135.871566 547.586292 138.498626 547.116879 141.125687 546.697403 143.752747 546.237977 146.379808 545.858451 149.006868 545.638725 151.633929 545.419000 154.260989 545.219249 156.888049 545.049461 159.515110 544.869686 162.142170 544.659948 164.769231 544.480173 167.396291 544.120622 170.023352 543.940847 172.650412 543.641221 175.277473 543.261695 177.904533 542.872182 180.531593 542.492656 183.158654 542.093155 185.785714 541.773554 188.412775 541.384041 191.039835 540.994527 193.666896 540.545089 196.293956 540.215501 198.921016 539.865937 201.548077 539.606262 204.175137 539.276674 206.802198 539.086911 209.429258 538.857198 212.056319 538.647460 214.683379 538.447709 217.310440 538.297896 219.937500 538.178046 222.564560 538.088158 225.191621 537.978296 227.818681 537.838470 230.445742 537.708633 233.072802 537.528857 235.699863 537.289157 238.326923 537.079419 240.953984 536.789780 243.581044 536.560067 246.208104 536.390280 248.835165 536.160567 251.462225 535.950829 254.089286 535.691153 256.716346 535.461440 259.343407 535.191777 261.970467 534.922114 264.597527 534.712376 267.224588 534.502638 269.851648 534.352825 272.478709 534.193025 275.105769 534.043212 277.732830 533.943337 280.359890 533.873424 282.986951 533.793524 285.614011 533.743586 288.241071 533.673673 290.868132 533.603761 293.495192 533.443960 296.122253 533.354073 298.749313 533.204260 301.376374 533.104385 304.003434 533.044460 306.630495 532.964559 309.257555 532.904634 311.884615 532.824734 314.511676 532.724859 317.138736 532.694896 319.765797 532.605009 322.392857 532.415246 325.019918 532.245458 327.646978 532.135595 330.274038 532.045707 332.901099 531.945832 335.528159 531.865932 338.155220 531.786032 340.782280 531.686156 343.409341 531.596269 346.036401 531.516369 348.663462 531.476419 351.290522 531.456443 353.917582 531.356568 356.544643 531.316618 359.171703 531.276668 361.798764 531.216743 364.425824 531.146830 367.052885 531.046955 369.679945 530.887155 372.307005 530.797267 374.934066 530.697392 377.561126 530.617492 380.188187 530.517616 382.815247 530.457691 385.442308 530.357816 388.069368 530.227978 390.696429 530.048203 393.323489 530.008253 395.950549 529.768552 398.577610 529.598764 401.204670 529.488902 403.831731 529.409001 406.458791 529.299139 409.085852 529.239213 411.712912 529.129351 414.339973 529.019488 416.967033 528.919613 419.594093 528.809750 422.221154 528.689900 424.848214 528.570049 427.475275 528.260436 430.102335 527.980786 432.729396 527.661185 435.356456 527.341584 437.983516 526.932096 440.610577 526.582533 443.237637 526.222982 445.864698 525.963306 448.491758 525.683655 451.118819 525.513868 453.745879 525.284155 456.372940 519.251691 459.000000 477.463897 461.627060 454.182982 464.254121 440.579977 466.881181 429.733527 469.508242 422.023160 472.135302 415.321533 474.762363 408.669843 477.389423 400.969463 480.016484 389.883313 482.643544 377.388922 485.270604 363.636104 487.897665 347.686031 490.524725 329.488765 493.151786 310.632322 495.778846 294.981875 498.405907 283.336424 501.032967 272.919438 503.660027 262.452514 506.287088 252.005566 508.914148 243.126658 511.541209 234.847002 514.168269 228.155362 516.795330 222.812038 519.422390 217.538626 522.049451 213.074203 524.676511 209.398795 527.303571 205.983062 529.930632 203.655970 532.557692 201.848228 535.184753 200.350100 537.811813 198.861959 540.438874 197.483681 543.065934 195.616014 545.692995 193.268946 548.320055 190.941853 550.947115 187.865697 553.574176 184.599777 556.201236 181.074181 558.828297 177.388786 561.455357 174.172803 564.082418 171.216497 566.709478 167.940589 569.336538 164.704632 571.963599 161.448700 574.590659 158.592268 577.217720 156.195263 579.844780 153.798258 582.471841 151.640953 585.098901 149.723348 587.725962 147.995507 590.353022 146.677154 592.980082 145.538576 595.607143 144.629712 598.234203 143.970535 600.861264 143.141571 603.488324 142.312607 606.115385 141.573530 608.742445 140.424965 611.369505 139.406238 613.996566 138.007985 616.623626 136.709607 619.250687 135.001740 621.877747 132.954298 624.504808 131.436195 627.131868 129.658416 629.758929 127.890624 632.385989 126.242683 635.013049 124.684630 637.640110 123.106601 640.267170 121.748298 642.894231 120.649671 645.521291 119.351293 648.148352 117.973015 650.775412 117.024200 653.402473 116.115335 656.029533 115.466146 658.656593 114.896858 661.283654 114.457407 663.910714 113.968018 666.537775 113.458654 669.164835 112.959278 671.791896 112.459902 674.418956 111.950539 677.046016 111.211462 679.673077 110.422448 682.300137 109.074132 684.927198 108.055405 687.554258 107.156528 690.181319 106.257651 692.808379 105.208961 695.435440 104.240171 698.062500 103.131556 700.689560 102.152779 703.316621 101.433677 705.943681 100.654651 708.570742 99.406210 711.197802 89.748276 713.824863 84.764502 716.451923 81.618433 719.078984 79.441153 721.706044 77.982975 724.333104 76.944272 726.960165 75.915558 729.587225 74.966743 732.214286 73.858128 734.841346 72.749513 737.468407 71.770736 740.095467 70.552258 742.722527 69.303818 745.349588 68.075352 747.976648 66.687087 750.603709 65.308809 753.230769 64.110306 755.857830 62.841891 758.484890 61.643388 761.111951 60.604686 763.739011 59.446133 766.366071 58.367481 768.993132 57.518541 771.620192 56.419914 774.247253 55.471099 776.874313 54.722035 779.501374 53.952996 782.128434 53.293819 784.755495 52.864356 787.382555 52.504805 790.009615 52.155242 792.636676 51.785703 795.263736 51.326277 797.890797 51.036639 800.517857 50.607176 803.144918 50.157737 805.771978 49.588448 808.399038 48.959234 811.026099 48.330021 813.653159 47.750744 816.280220 47.101555 818.907280 46.522279 821.534341 45.823152 824.161401 45.134013 826.788462 44.494812 829.415522 43.725773 832.042582 43.046621 834.669643 42.387445 837.296703 41.828143 839.923764 41.198930 842.550824 40.509791 845.177885 39.970464 847.804945 39.451113 850.432005 38.961725 853.059066 38.452361 855.686126 37.783197 858.313187 36.924270 860.940247 36.165218 863.567308 34.976703 866.194368 33.458600 868.821429 31.680821 871.448489 29.084065 874.075549 27.006660 876.702610 25.268831 879.329670 23.670828 881.956731 22.022886 884.583791 20.125257 887.210852 18.107778 889.837912 16.639612 892.464973 15.521009 895.092033 14.512270 897.719093 13.443605 900.346154 12.634615" /></g></g><g class="titles"><text class="title plot_title" x="512.0" y="26">Election 5 Participation</text><text class="title" transform="rotate(-90 0.000000 374.500000)" x="0" y="400.5">Users</text></g><g class="plot overlay" transform="translate(86, 46)"><g class="series serie-0 color-0" /><g class="series serie-1 color-1" /></g><g class="plot text-overlay" transform="translate(86, 46)"><g class="series serie-0 color-0" /><g class="series serie-1 color-1" /></g><g class="plot tooltip-overlay" transform="translate(86, 46)"><g class="tooltip" style="opacity: 0" transform="translate(0 0)"><a><rect class="tooltip-box" height="0" rx="0" ry="0" width="0" /><text class="text"><tspan class="label" /><tspan class="value" /></text></a></g></g><g class="legends" transform="translate(96, 713)"><g class="legend reactive activate-serie" id="activate-serie-0"><rect class="color-0 reactive" height="12" width="12" x="0.0" y="1.0" /><text x="17.0" y="11.2">constituents</text></g><g class="legend reactive activate-serie" id="activate-serie-1"><rect class="color-1 reactive" height="12" width="12" x="459.0" y="1.0" /><text x="476.0" y="11.2">caucus</text></g></g></g></svg>