<?xml version='1.0' encoding='utf-8'?>
<svg xmlns:xlink="http://www.w3.org/1999/xlink" class="pygal-chart" id="chart-02f37cc9-e763-4089-b77a-a2c23dabe8fa" viewBox="0 0 1024 768" xmlns="http://www.w3.org/2000/svg"><!--Generated with pygal 1.7.0 (etree) ©Kozea 2011-2014 on 2015-04-21--><!--http://pygal.org--><!--http://github.com/Kozea/pygal--><defs><style type="text/css">#chart-02f37cc9-e763-4089-b77a-a2c23dabe8fa .title{font-family:"monospace";font-size:16px}#chart-02f37cc9-e763-4089-b77a-a2c23dabe8fa .legends .legend text{font-family:"monospace";font-size:14px}#chart-02f37cc9-e763-4089-b77a-a2c23dabe8fa .axis text{font-family:"monospace";font-size:10px}#chart-02f37cc9-e763-4089-b77a-a2c23dabe8fa .axis text.major{font-family:"monospace";font-size:10px}#chart-02f37cc9-e763-4089-b77a-a2c23dabe8fa .series text{font-family:"monospace";font-size:8px}#chart-02f37cc9-e763-4089-b77a-a2c23dabe8fa .tooltip text{font-family:"monospace";font-size:16px}#chart-02f37cc9-e763-4089-b77a-a2c23dabe8fa text.no_data{font-size:64px}
#chart-02f37cc9-e763-4089-b77a-a2c23dabe8fa{background-color:black}#chart-02f37cc9-e763-4089-b77a-a2c23dabe8fa path,#chart-02f37cc9-e763-4089-b77a-a2c23dabe8fa line,#chart-02f37cc9-e763-4089-b77a-a2c23dabe8fa rect,#chart-02f37cc9-e763-4089-b77a-a2c23dabe8fa circle{-webkit-transition:250ms;-moz-transition:250ms;transition:250ms}#chart-02f37cc9-e763-4089-b77a-a2c23dabe8fa .graph &gt; .background{fill:black}#chart-02f37cc9-e763-4089-b77a-a2c23dabe8fa .plot &gt; .background{fill:#111}#chart-02f37cc9-e763-4089-b77a-a2c23dabe8fa .graph{fill:#999}#chart-02f37cc9-e763-4089-b77a-a2c23dabe8fa text.no_data{fill:#eee}#chart-02f37cc9-e763-4089-b77a-a2c23dabe8fa .title{fill:#eee}#chart-02f37cc9-e763-4089-b77a-a2c23dabe8fa .legends .legend text{fill:#999}#chart-02f37cc9-e763-4089-b77a-a2c23dabe8fa .legends .legend:hover text{fill:#eee}#chart-02f37cc9-e763-4089-b77a-a2c23dabe8fa .axis .line{stroke:#eee}#chart-02f37cc9-e763-4089-b77a-a2c23dabe8fa .axis .guide.line{stroke:#555}#chart-02f37cc9-e763-4089-b77a-a2c23dabe8fa .axis .major.line{stroke:#999}#chart-02f37cc9-e763-4089-b77a-a2c23dabe8fa .axis text.major{stroke:#eee;fill:#eee}#chart-02f37cc9-e763-4089-b77a-a2c23dabe8fa .axis.y .guides:hover .guide.line,#chart-02f37cc9-e763-4089-b77a-a2c23dabe8fa .line-graph .axis.x .guides:hover .guide.line,#chart-02f37cc9-e763-4089-b77a-a2c23dabe8fa .stackedline-graph .axis.x .guides:hover .guide.line,#chart-02f37cc9-e763-4089-b77a-a2c23dabe8fa .xy-graph .axis.x .guides:hover .guide.line{stroke:#eee}#chart-02f37cc9-e763-4089-b77a-a2c23dabe8fa .axis .guides:hover text{fill:#eee}#chart-02f37cc9-e763-4089-b77a-a2c23dabe8fa .reactive{fill-opacity:.8}#chart-02f37cc9-e763-4089-b77a-a2c23dabe8fa .reactive.active,#chart-02f37cc9-e763-4089-b77a-a2c23dabe8fa .active .reactive{fill-opacity:.4}#chart-02f37cc9-e763-4089-b77a-a2c23dabe8fa .series{stroke-width:1.0;stroke-linejoin:round;stroke-linecap:round;stroke-dasharray:0,0}#chart-02f37cc9-e763-4089-b77a-a2c23dabe8fa .series text{fill:#eee}#chart-02f37cc9-e763-4089-b77a-a2c23dabe8fa .tooltip rect{fill:#111;stroke:#eee}#chart-02f37cc9-e763-4089-b77a-a2c23dabe8fa .tooltip text{fill:#eee}#chart-02f37cc9-e763-4089-b77a-a2c23dabe8fa .map-element{fill:#999;stroke:#555 !important;opacity:.9;stroke-width:3;-webkit-transition:250ms;-moz-transition:250ms;-o-transition:250ms;transition:250ms}#chart-02f37cc9-e763-4089-b77a-a2c23dabe8fa .map-element:hover{opacity:1;stroke-width:10}#chart-02f37cc9-e763-4089-b77a-a2c23dabe8fa .color-0,#chart-02f37cc9-e763-4089-b77a-a2c23dabe8fa .color-0 a:visited{stroke:#ff5995;fill:#ff5995}#chart-02f37cc9-e763-4089-b77a-a2c23dabe8fa .color-1,#chart-02f37cc9-e763-4089-b77a-a2c23dabe8fa .color-1 a:visited{stroke:#b6e354;fill:#b6e354}#chart-02f37cc9-e763-4089-b77a-a2c23dabe8fa .color-2,#chart-02f37cc9-e763-4089-b77a-a2c23dabe8fa .color-2 a:visited{stroke:#feed6c;fill:#feed6c}#chart-02f37cc9-e763-4089-b77a-a2c23dabe8fa .color-3,#chart-02f37cc9-e763-4089-b77a-a2c23dabe8fa .color-3 a:visited{stroke:#8cedff;fill:#8cedff}#chart-02f37cc9-e763-4089-b77a-a2c23dabe8fa .color-4,#chart-02f37cc9-e763-4089-b77a-a2c23dabe8fa .color-4 a:visited{stroke:#9e6ffe;fill:#9e6ffe}#chart-02f37cc9-e763-4089-b77a-a2c23dabe8fa .color-5,#chart-02f37cc9-e763-4089-b77a-a2c23dabe8fa .color-5 a:visited{stroke:#899ca1;fill:#899ca1}#chart-02f37cc9-e763-4089-b77a-a2c23dabe8fa .color-6,#chart-02f37cc9-e763-4089-b77a-a2c23dabe8fa .color-6 a:visited{stroke:#f8f8f2;fill:#f8f8f2}#chart-02f37cc9-e763-4089-b77a-a2c23dabe8fa .color-7,#chart-02f37cc9-e763-4089-b77a-a2c23dabe8fa .color-7 a:visited{stroke:#bf4646;fill:#bf4646}#chart-02f37cc9-e763-4089-b77a-a2c23dabe8fa .color-8,#chart-02f37cc9-e763-4089-b77a-a2c23dabe8fa .color-8 a:visited{stroke:#516083;fill:#516083}#chart-02f37cc9-e763-4089-b77a-a2c23dabe8fa .color-9,#chart-02f37cc9-e763-4089-b77a-a2c23dabe8fa .color-9 a:visited{stroke:#f92672;fill:#f92672}#chart-02f37cc9-e763-4089-b77a-a2c23dabe8fa .color-10,#chart-02f37cc9-e763-4089-b77a-a2c23dabe8fa .color-10 a:visited{stroke:#82b414;fill:#82b414}#chart-02f37cc9-e763-4089-b77a-a2c23dabe8fa .color-11,#chart-02f37cc9-e763-4089-b77a-a2c23dabe8fa .color-11 a:visited{stroke:#fd971f;fill:#fd971f}#chart-02f37cc9-e763-4089-b77a-a2c23dabe8fa .color-12,#chart-02f37cc9-e763-4089-b77a-a2c23dabe8fa .color-12 a:visited{stroke:#56c2d6;fill:#56c2d6}#chart-02f37cc9-e763-4089-b77a-a2c23dabe8fa .color-13,#chart-02f37cc9-e763-4089-b77a-a2c23dabe8fa .color-13 a:visited{stroke:#808384;fill:#808384}#chart-02f37cc9-e763-4089-b77a-a2c23dabe8fa .color-14,#chart-02f37cc9-e763-4089-b77a-a2c23dabe8fa .color-14 a:visited{stroke:#8c54fe;fill:#8c54fe}#chart-02f37cc9-e763-4089-b77a-a2c23dabe8fa .color-15,#chart-02f37cc9-e763-4089-b77a-a2c23dabe8fa .color-15 a:visited{stroke:#465457;fill:#465457}
#chart-02f37cc9-e763-4089-b77a-a2c23dabe8fa text.no_data{text-anchor:middle}#chart-02f37cc9-e763-4089-b77a-a2c23dabe8fa .guide.line{fill-opacity:0}#chart-02f37cc9-e763-4089-b77a-a2c23dabe8fa .centered{text-anchor:middle}#chart-02f37cc9-e763-4089-b77a-a2c23dabe8fa .title{text-anchor:middle}#chart-02f37cc9-e763-4089-b77a-a2c23dabe8fa .legends .legend text{fill-opacity:1}#chart-02f37cc9-e763-4089-b77a-a2c23dabe8fa .axis.x text{text-anchor:middle}#chart-02f37cc9-e763-4089-b77a-a2c23dabe8fa .axis.x:not(.web) text[transform]{text-anchor:start}#chart-02f37cc9-e763-4089-b77a-a2c23dabe8fa .axis.y text{text-anchor:end}#chart-02f37cc9-e763-4089-b77a-a2c23dabe8fa .axis.y2 text{text-anchor:start}#chart-02f37cc9-e763-4089-b77a-a2c23dabe8fa .axis.y .logarithmic text:not(.major),#chart-02f37cc9-e763-4089-b77a-a2c23dabe8fa .axis.y2 .logarithmic text:not(.major){font-size:50%}#chart-02f37cc9-e763-4089-b77a-a2c23dabe8fa .axis .guide.line{stroke-dasharray:4,4}#chart-02f37cc9-e763-4089-b77a-a2c23dabe8fa .axis .major.guide.line{stroke-dasharray:6,6}#chart-02f37cc9-e763-4089-b77a-a2c23dabe8fa .axis text.major{stroke-width:0.5px}#chart-02f37cc9-e763-4089-b77a-a2c23dabe8fa .horizontal .axis.y .guide.line,#chart-02f37cc9-e763-4089-b77a-a2c23dabe8fa .horizontal .axis.y2 .guide.line,#chart-02f37cc9-e763-4089-b77a-a2c23dabe8fa .vertical .axis.x .guide.line{opacity:0}#chart-02f37cc9-e763-4089-b77a-a2c23dabe8fa .horizontal .axis.always_show .guide.line,#chart-02f37cc9-e763-4089-b77a-a2c23dabe8fa .vertical .axis.always_show .guide.line{opacity:1 !important}#chart-02f37cc9-e763-4089-b77a-a2c23dabe8fa .axis.y .guides:hover .guide.line,#chart-02f37cc9-e763-4089-b77a-a2c23dabe8fa .axis.y2 .guides:hover .guide.line,#chart-02f37cc9-e763-4089-b77a-a2c23dabe8fa .axis.x .guides:hover .guide.line{opacity:1}#chart-02f37cc9-e763-4089-b77a-a2c23dabe8fa .axis .guides:hover text{opacity:1}#chart-02f37cc9-e763-4089-b77a-a2c23dabe8fa .nofill{fill:none}#chart-02f37cc9-e763-4089-b77a-a2c23dabe8fa .subtle-fill{fill-opacity:.2}#chart-02f37cc9-e763-4089-b77a-a2c23dabe8fa .dot{stroke-width:1px;fill-opacity:1}#chart-02f37cc9-e763-4089-b77a-a2c23dabe8fa .dot.active{stroke-width:5px}#chart-02f37cc9-e763-4089-b77a-a2c23dabe8fa .series text{stroke:none}#chart-02f37cc9-e763-4089-b77a-a2c23dabe8fa .series text.active{opacity:1}#chart-02f37cc9-e763-4089-b77a-a2c23dabe8fa .tooltip rect{fill-opacity:0.8}#chart-02f37cc9-e763-4089-b77a-a2c23dabe8fa .tooltip text{fill-opacity:1}#chart-02f37cc9-e763-4089-b77a-a2c23dabe8fa .tooltip text tspan.label{fill-opacity:.8}</style><script type="text/javascript">window.config = {"half_pie": false, "logarithmic": false, "order_min": null, "show_y_labels": true, "js": ["http://kozea.github.io/pygal.js/javascripts/svg.jquery.js", "http://kozea.github.io/pygal.js/javascripts/pygal-tooltips.js"], "interpolation_parameters": {}, "margin_left": null, "range": null, "x_labels_major_count": null, "x_labels_major": null, "show_x_labels": true, "x_labels": null, "margin_right": null, "value_font_size": 8, "y_labels": null, "legend_at_bottom_columns": null, "spacing": 10, "zero": 0, "title_font_size": 16, "no_data_font_size": 64, "xrange": null, "x_value_formatter": null, "x_title": null, "pretty_print": false, "x_labels_major_every": null, "dots_size": 2.5, "legend_at_bottom": true, "show_legend": true, "y_labels_major": null, "y_title": "Users", "show_dots": false, "margin_top": null, "no_data_text": "No data", "y_labels_major_every": null, "mode": null, "width": 1024, "rounded_bars": null, "margin_bottom": null, "disable_xml_declaration": false, "no_prefix": false, "truncate_label": null, "human_readable": false, "title": "Election 5 and 6 Participation", "stroke": true, "stack_from_top": false, "margin": 20, "interpolate": null, "x_label_rotation": 0, "missing_value_fill_truncation": "x", "legend_font_size": 14, "fill": false, "include_x_axis": false, "x_label_format": "%Y-%m-%d %H:%M:%S.%f", "style": {"font_family": "monospace", "stroke_dasharray": "0,0", "background": "black", "foreground_light": "#eee", "stroke_width": 1.0, "plot_background": "#111", "stroke_style": "round", "colors": ["#ff5995", "#b6e354", "#feed6c", "#8cedff", "#9e6ffe", "#899ca1", "#f8f8f2", "#bf4646", "#516083", "#f92672", "#82b414", "#fd971f", "#56c2d6", "#808384", "#8c54fe", "#465457"], "opacity": ".8", "foreground_dark": "#555", "transition": "250ms", "opacity_hover": ".4", "foreground": "#999"}, "interpolation_precision": 250, "show_y_guides": true, "show_only_major_dots": false, "show_minor_y_labels": true, "height": 768, "legend_box_size": 12, "explicit_size": false, "print_zeroes": false, "truncate_legend": null, "strict": false, "label_font_size": 10, "show_minor_x_labels": true, "y_labels_major_count": null, "tooltip_font_size": 16, "print_values": false, "show_x_guides": false, "major_label_font_size": 10, "css": ["style.css", "graph.css"], "inner_radius": 0, "tooltip_border_radius": 0, "y_label_rotation": 0}</script><script type="text/javascript" xlink:href="http://kozea.github.io/pygal.js/javascripts/svg.jquery.js" /><script type="text/javascript" xlink:href="http://kozea.github.io/pygal.js/javascripts/pygal-tooltips.js" /></defs><title>Election 5 and 6 Participation</title><g class="graph line-graph vertical"><rect class="background" height="768" width="1024" x="0" y="0" /><g class="plot" transform="translate(86, 46)"><rect class="background" height="657.0" width="918.0" x="0" y="0" /><g class="axis y"><g class="guides"><path class="axis major line" d="M0.000000 644.365385 h918.000000" /><text class="major" x="-5" y="647.8653846153846">0</text></g><g class="guides"><path class="guide line" d="M0.000000 563.844995 h918.000000" /><text class="" x="-5" y="567.3449949408193">10000</text></g><g class="guides"><path class="guide line" d="M0.000000 483.324605 h918.000000" /><text class="" x="-5" y="486.8246052662541">20000</text></g><g class="guides"><path class="guide line" d="M0.000000 402.804216 h918.000000" /><text class="" x="-5" y="406.30421559168883">30000</text></g><g class="guides"><path class="guide line" d="M0.000000 322.283826 h918.000000" /><text class="" x="-5" y="325.78382591712347">40000</text></g><g class="guides"><path class="major guide line" d="M0.000000 241.763436 h918.000000" /><text class="major" x="-5" y="245.2634362425582">50000</text></g><g class="guides"><path class="guide line" d="M0.000000 161.243047 h918.000000" /><text class="" x="-5" y="164.74304656799296">60000</text></g><g class="guides"><path class="guide line" d="M0.000000 80.722657 h918.000000" /><text class="" x="-5" y="84.22265689342771">70000</text></g></g><g class="series serie-0 color-0"><path class="line reactive nofill" d="M17.653846 644.365385 L20.105769 644.365385 22.557692 644.365385 25.009615 644.365385 27.461538 644.365385 29.913462 644.365385 32.365385 644.365385 34.817308 644.365385 37.269231 644.365385 39.721154 644.365385 42.173077 644.365385 44.625000 644.365385 47.076923 644.365385 49.528846 644.365385 51.980769 644.365385 54.432692 644.365385 56.884615 644.365385 59.336538 644.365385 61.788462 644.365385 64.240385 644.365385 66.692308 644.365385 69.144231 644.365385 71.596154 644.365385 74.048077 644.365385 76.500000 644.365385 78.951923 644.365385 81.403846 644.365385 83.855769 644.365385 86.307692 644.365385 88.759615 644.365385 91.211538 644.365385 93.663462 644.365385 96.115385 644.365385 98.567308 644.365385 101.019231 644.365385 103.471154 644.365385 105.923077 644.365385 108.375000 644.365385 110.826923 644.365385 113.278846 644.365385 115.730769 644.365385 118.182692 644.365385 120.634615 644.365385 123.086538 644.365385 125.538462 644.365385 127.990385 644.365385 130.442308 644.365385 132.894231 644.365385 135.346154 644.365385 137.798077 644.365385 140.250000 644.365385 142.701923 644.365385 145.153846 644.365385 147.605769 644.365385 150.057692 644.365385 152.509615 644.365385 154.961538 644.365385 157.413462 644.365385 159.865385 644.365385 162.317308 644.365385 164.769231 644.365385 167.221154 644.365385 169.673077 644.365385 172.125000 644.365385 174.576923 644.365385 177.028846 644.365385 179.480769 644.365385 181.932692 644.365385 184.384615 644.365385 186.836538 644.365385 189.288462 644.365385 191.740385 644.365385 194.192308 644.365385 196.644231 644.365385 199.096154 644.365385 201.548077 644.365385 204.000000 644.365385 206.451923 644.365385 208.903846 644.365385 211.355769 644.365385 213.807692 644.365385 216.259615 644.365385 218.711538 644.365385 221.163462 644.365385 223.615385 644.365385 226.067308 644.365385 228.519231 644.365385 230.971154 644.365385 233.423077 644.365385 235.875000 644.365385 238.326923 644.365385 240.778846 644.365385 243.230769 644.365385 245.682692 644.365385 248.134615 644.365385 250.586538 644.365385 253.038462 644.365385 255.490385 644.365385 257.942308 644.365385 260.394231 644.365385 262.846154 644.365385 265.298077 644.365385 267.750000 644.365385 270.201923 644.365385 272.653846 644.365385 275.105769 644.365385 277.557692 644.365385 280.009615 644.365385 282.461538 644.365385 284.913462 644.365385 287.365385 644.365385 289.817308 644.365385 292.269231 644.365385 294.721154 644.365385 297.173077 644.365385 299.625000 644.365385 302.076923 644.365385 304.528846 644.365385 306.980769 644.365385 309.432692 644.365385 311.884615 644.365385 314.336538 644.365385 316.788462 644.365385 319.240385 644.365385 321.692308 644.365385 324.144231 644.365385 326.596154 644.365385 329.048077 644.365385 331.500000 644.365385 333.951923 644.365385 336.403846 644.365385 338.855769 644.365385 341.307692 644.365385 343.759615 644.365385 346.211538 644.365385 348.663462 644.365385 351.115385 644.365385 353.567308 644.365385 356.019231 644.365385 358.471154 644.365385 360.923077 644.365385 363.375000 644.365385 365.826923 644.365385 368.278846 644.365385 370.730769 644.365385 373.182692 644.365385 375.634615 644.365385 378.086538 644.365385 380.538462 644.365385 382.990385 644.365385 385.442308 644.365385 387.894231 644.365385 390.346154 644.365385 392.798077 644.365385 395.250000 644.365385 397.701923 644.365385 400.153846 644.365385 402.605769 644.365385 405.057692 644.365385 407.509615 644.365385 409.961538 644.365385 412.413462 644.365385 414.865385 644.365385 417.317308 644.365385 419.769231 644.365385 422.221154 644.365385 424.673077 644.365385 427.125000 644.365385 429.576923 644.365385 432.028846 644.365385 434.480769 644.365385 436.932692 644.365385 439.384615 644.365385 441.836538 644.365385 444.288462 644.365385 446.740385 644.365385 449.192308 644.365385 451.644231 644.365385 454.096154 644.365385 456.548077 644.365385 459.000000 644.365385 461.451923 644.365385 463.903846 644.365385 466.355769 644.365385 468.807692 644.365385 471.259615 644.365385 473.711538 644.365385 476.163462 644.365385 478.615385 644.365385 481.067308 644.365385 483.519231 644.365385 485.971154 644.365385 488.423077 644.365385 490.875000 644.365385 493.326923 644.365385 495.778846 644.365385 498.230769 644.365385 500.682692 644.365385 503.134615 644.365385 505.586538 644.365385 508.038462 644.365385 510.490385 644.365385 512.942308 644.365385 515.394231 644.365385 517.846154 644.365385 520.298077 644.365385 522.750000 644.365385 525.201923 644.365385 527.653846 644.365385 530.105769 644.365385 532.557692 644.365385 535.009615 644.365385 537.461538 644.365385 539.913462 644.365385 542.365385 644.365385 544.817308 644.365385 547.269231 644.365385 549.721154 644.365385 552.173077 644.365385 554.625000 644.365385 557.076923 644.365385 559.528846 644.365385 561.980769 644.365385 564.432692 644.365385 566.884615 644.365385 569.336538 644.365385 571.788462 644.365385 574.240385 644.365385 576.692308 644.365385 579.144231 644.365385 581.596154 644.365385 584.048077 644.365385 586.500000 644.365385 588.951923 644.365385 591.403846 644.365385 593.855769 644.365385 596.307692 644.365385 598.759615 644.365385 601.211538 644.365385 603.663462 644.365385 606.115385 644.365385 608.567308 644.365385 611.019231 644.365385 613.471154 644.365385 615.923077 644.365385 618.375000 644.365385 620.826923 644.365385 623.278846 644.365385 625.730769 644.365385 628.182692 644.365385 630.634615 644.365385 633.086538 644.365385 635.538462 644.365385 637.990385 644.365385 640.442308 644.365385 642.894231 644.365385 645.346154 644.365385 647.798077 644.365385 650.250000 644.365385 652.701923 644.365385 655.153846 644.365385 657.605769 644.365385 660.057692 644.365385 662.509615 643.560181 664.961538 618.896785 667.413462 607.817180 669.865385 600.997103 672.317308 596.504065 674.769231 593.420134 677.221154 591.197771 679.673077 589.249178 682.125000 587.067075 684.576923 584.120029 687.028846 581.680261 689.480769 579.224389 691.932692 576.526956 694.384615 573.555754 696.836538 570.705332 699.288462 567.750234 701.740385 565.246050 704.192308 562.701605 706.644231 560.559763 709.096154 558.442077 711.548077 556.485431 714.000000 554.520734 716.451923 552.580192 718.903846 551.106669 721.355769 549.617042 723.807692 548.127415 726.259615 547.032338 728.711538 546.082197 731.163462 545.148160 733.615385 544.479841 736.067308 543.972563 738.519231 543.384764 740.971154 542.941902 743.423077 542.394363 745.875000 541.742148 748.326923 541.089933 750.778846 540.421614 753.230769 539.527837 755.682692 538.722633 758.134615 537.772493 760.586538 536.814300 763.038462 535.848055 765.490385 535.058956 767.942308 534.285960 770.394231 533.319715 772.846154 532.409835 775.298077 531.459694 777.750000 530.429033 780.201923 529.656037 782.653846 528.891094 785.105769 527.884589 787.557692 527.176009 790.009615 526.580159 792.461538 526.064828 794.913462 525.364301 797.365385 524.720138 799.817308 523.769997 802.269231 521.829456 804.721154 519.752030 807.173077 517.706812 809.625000 514.727557 812.076923 510.959203 814.528846 506.707726 816.980769 503.696264 819.432692 501.256496 821.884615 499.098550 824.336538 496.884239 826.788462 494.677980 829.240385 492.608606 831.692308 491.199499 834.144231 490.056110 836.596154 489.097917 839.048077 488.220245 841.500000 487.535822 843.951923 486.746722 846.403846 486.183079 848.855769 485.740217 851.307692 485.377875 853.759615 484.943065 856.211538 484.556567 858.663462 484.250590 861.115385 483.743311 863.567308 483.348761 866.019231 482.656286 868.471154 481.907446 870.923077 480.723797 873.375000 479.652875 875.826923 478.622215 878.278846 477.752594 880.730769 476.931286 883.182692 475.924781 885.634615 474.861912 888.086538 473.968136 890.538462 473.042152 892.990385 472.414092 895.442308 471.850450 897.894231 471.407588 900.346154 471.407588" /></g><g class="series serie-1 color-1"><path class="line reactive nofill" d="M17.653846 624.887502 L20.105769 617.906385 22.557692 613.083213 25.009615 610.844746 27.461538 609.016934 29.913462 607.680295 32.365385 606.367813 34.817308 605.063382 37.269231 602.921540 39.721154 600.964895 42.173077 598.959937 44.625000 596.415493 47.076923 593.404030 49.528846 590.416724 51.980769 588.065528 54.432692 586.519537 56.884615 584.973545 59.336538 583.161836 61.788462 581.752730 64.240385 580.432195 66.692308 579.184129 69.144231 578.290353 71.596154 577.259692 74.048077 576.623581 76.500000 575.850585 78.951923 575.117849 81.403846 574.562259 83.855769 574.167709 86.307692 573.797315 88.759615 573.596014 91.211538 573.354453 93.663462 573.040423 96.115385 572.879383 98.567308 572.557301 101.019231 572.146647 103.471154 571.703785 105.923077 571.051570 108.375000 570.463771 110.826923 569.940388 113.278846 569.344538 115.730769 568.740635 118.182692 568.289720 120.634615 567.701922 123.086538 567.106071 125.538462 566.695417 127.990385 566.341127 130.442308 565.962681 132.894231 565.624496 135.346154 565.254102 137.798077 564.948124 140.250000 564.770979 142.701923 564.593835 145.153846 564.432794 147.605769 564.295909 150.057692 564.150972 152.509615 563.981880 154.961538 563.836943 157.413462 563.547069 159.865385 563.402133 162.317308 563.160572 164.769231 562.854594 167.221154 562.540565 169.673077 562.234587 172.125000 561.912506 174.576923 561.654840 177.028846 561.340811 179.480769 561.026781 181.932692 560.664440 184.384615 560.398722 186.836538 560.116901 189.288462 559.907548 191.740385 559.641831 194.192308 559.488842 196.644231 559.303645 199.096154 559.134552 201.548077 558.973511 204.000000 558.852731 206.451923 558.756106 208.903846 558.683638 211.355769 558.595066 213.807692 558.482337 216.259615 558.377660 218.711538 558.232724 221.163462 558.039475 223.615385 557.870382 226.067308 557.636873 228.519231 557.451676 230.971154 557.314791 233.423077 557.129594 235.875000 556.960502 238.326923 556.751149 240.778846 556.565952 243.230769 556.348547 245.682692 556.131142 248.134615 555.962049 250.586538 555.792956 253.038462 555.672175 255.490385 555.543343 257.942308 555.422562 260.394231 555.342042 262.846154 555.285678 265.298077 555.221261 267.750000 555.181001 270.201923 555.124637 272.653846 555.068272 275.105769 554.939440 277.557692 554.866971 280.009615 554.746191 282.461538 554.665671 284.913462 554.617358 287.365385 554.552942 289.817308 554.504630 292.269231 554.440213 294.721154 554.359693 297.173077 554.335537 299.625000 554.263069 302.076923 554.110080 304.528846 553.973195 306.980769 553.884623 309.432692 553.812154 311.884615 553.731634 314.336538 553.667218 316.788462 553.602801 319.240385 553.522281 321.692308 553.449813 324.144231 553.385396 326.596154 553.353188 329.048077 553.337084 331.500000 553.256564 333.951923 553.224356 336.403846 553.192147 338.855769 553.143835 341.307692 553.087471 343.759615 553.006950 346.211538 552.878118 348.663462 552.805650 351.115385 552.725129 353.567308 552.660713 356.019231 552.580192 358.471154 552.531880 360.923077 552.451360 363.375000 552.346683 365.826923 552.201747 368.278846 552.169538 370.730769 551.976290 373.182692 551.839405 375.634615 551.750832 378.086538 551.686416 380.538462 551.597844 382.990385 551.549531 385.442308 551.460959 387.894231 551.372387 390.346154 551.291866 392.798077 551.203294 395.250000 551.106669 397.701923 551.010045 400.153846 550.760432 402.605769 550.534975 405.057692 550.277309 407.509615 550.019644 409.961538 549.689510 412.413462 549.407689 414.865385 549.117816 417.317308 548.908463 419.769231 548.683006 422.221154 548.546121 424.673077 548.360924 427.125000 543.497492 429.576923 509.807761 432.028846 491.038459 434.480769 480.071582 436.932692 471.327067 439.384615 465.110893 441.836538 459.707975 444.288462 454.345317 446.740385 448.137195 449.192308 439.199432 451.644231 429.126331 454.096154 418.038673 456.548077 405.179567 459.000000 390.508752 461.451923 375.306503 463.903846 362.688957 466.355769 353.300280 468.807692 344.902003 471.259615 336.463467 473.711538 328.041034 476.163462 320.882771 478.615385 314.207631 481.067308 308.812765 483.519231 304.504924 485.971154 300.253447 488.423077 296.654186 490.875000 293.691036 493.326923 290.937238 495.778846 289.061113 498.230769 287.603694 500.682692 286.395888 503.134615 285.196134 505.586538 284.084953 508.038462 282.579222 510.490385 280.686993 512.942308 278.810868 515.394231 276.330840 517.846154 273.697823 520.298077 270.855453 522.750000 267.884251 525.201923 265.291494 527.653846 262.908091 530.105769 260.267022 532.557692 257.658161 535.009615 255.033196 537.461538 252.730313 539.913462 250.797824 542.365385 248.865335 544.817308 247.126094 547.269231 245.580103 549.721154 244.187100 552.173077 243.124231 554.625000 242.206298 557.076923 241.473563 559.528846 240.942128 561.980769 240.273809 564.432692 239.605490 566.884615 239.009639 569.336538 238.083654 571.788462 237.262346 574.240385 236.135061 576.692308 235.088296 579.144231 233.711397 581.596154 232.060729 584.048077 230.836819 586.500000 229.403556 588.951923 227.978346 591.403846 226.649759 593.855769 225.393641 596.307692 224.121419 598.759615 223.026342 601.211538 222.140617 603.663462 221.093852 606.115385 219.982671 608.567308 219.217727 611.019231 218.484992 613.471154 217.961609 615.923077 217.502643 618.375000 217.148353 620.826923 216.753803 623.278846 216.343149 625.730769 215.940547 628.182692 215.537945 630.634615 215.127291 633.086538 214.531440 635.538462 213.895329 637.990385 212.808304 640.442308 211.986996 642.894231 211.262313 645.346154 210.537629 647.798077 209.692165 650.250000 208.911117 652.701923 208.017341 655.153846 207.228241 657.605769 206.648494 660.057692 206.020435 662.509615 205.013930 664.961538 197.227609 667.413462 193.209641 669.865385 190.673249 672.317308 188.917904 674.769231 187.742307 677.221154 186.904895 679.673077 186.075535 682.125000 185.310591 684.576923 184.416815 687.028846 183.523038 689.480769 182.733939 691.932692 181.751590 694.384615 180.745085 696.836538 179.754684 699.288462 178.635451 701.740385 177.524269 704.192308 176.558025 706.644231 175.535416 709.096154 174.569171 711.548077 173.731759 714.000000 172.797722 716.451923 171.928102 718.903846 171.243679 721.355769 170.357955 723.807692 169.593011 726.259615 168.989108 728.711538 168.369101 731.163462 167.837666 733.615385 167.491429 736.067308 167.201555 738.519231 166.919734 740.971154 166.621809 743.423077 166.251415 745.875000 166.017906 748.326923 165.671668 750.778846 165.309326 753.230769 164.850360 755.682692 164.343082 758.134615 163.835803 760.586538 163.368785 763.038462 162.845402 765.490385 162.378384 767.942308 161.814741 770.394231 161.259151 772.846154 160.743820 775.298077 160.123813 777.750000 159.576275 780.201923 159.044840 782.653846 158.593926 785.105769 158.086647 787.557692 157.531057 790.009615 157.096246 792.461538 156.677540 794.913462 156.282991 797.365385 155.872337 799.817308 155.332850 802.269231 154.640375 804.721154 154.028420 807.173077 153.070227 809.625000 151.846317 812.076923 150.413054 814.528846 148.319524 816.980769 146.644700 819.432692 145.243645 821.884615 143.955319 824.336538 142.626732 826.788462 141.096845 829.240385 139.470333 831.692308 138.286683 834.144231 137.384855 836.596154 136.571599 839.048077 135.710031 841.500000 135.057816 843.951923 134.341184 846.403846 133.914426 848.855769 133.519876 851.307692 133.117274 853.759615 132.738829 856.211538 132.392591 858.663462 132.086613 861.115385 131.796740 863.567308 131.482711 866.019231 130.983484 868.471154 130.516466 870.923077 129.743470 873.375000 128.970474 875.826923 128.213583 878.278846 127.440587 880.730769 126.619279 883.182692 125.830179 885.634615 125.081340 888.086538 124.131199 890.538462 123.543400 892.990385 123.036122 895.442308 122.520791 897.894231 122.061825 900.346154 122.061825" /></g><g class="series serie-2 color-2"><path class="line reactive nofill" d="M17.653846 644.365385 L20.105769 644.365385 22.557692 644.365385 25.009615 644.365385 27.461538 644.365385 29.913462 644.365385 32.365385 644.365385 34.817308 644.365385 37.269231 644.365385 39.721154 644.365385 42.173077 644.365385 44.625000 644.365385 47.076923 644.365385 49.528846 644.365385 51.980769 644.365385 54.432692 644.365385 56.884615 644.365385 59.336538 644.365385 61.788462 644.365385 64.240385 644.365385 66.692308 644.365385 69.144231 644.365385 71.596154 644.365385 74.048077 644.365385 76.500000 644.365385 78.951923 644.365385 81.403846 644.365385 83.855769 644.365385 86.307692 644.365385 88.759615 644.365385 91.211538 644.365385 93.663462 644.365385 96.115385 644.365385 98.567308 644.365385 101.019231 644.365385 103.471154 644.365385 105.923077 644.365385 108.375000 644.365385 110.826923 644.365385 113.278846 644.365385 115.730769 644.365385 118.182692 644.365385 120.634615 644.365385 123.086538 644.365385 125.538462 644.365385 127.990385 644.365385 130.442308 644.365385 132.894231 644.365385 135.346154 644.365385 137.798077 644.365385 140.250000 644.365385 142.701923 644.365385 145.153846 644.365385 147.605769 644.365385 150.057692 644.365385 152.509615 644.365385 154.961538 644.365385 157.413462 644.365385 159.865385 644.365385 162.317308 644.365385 164.769231 644.365385 167.221154 644.365385 169.673077 644.365385 172.125000 644.365385 174.576923 644.365385 177.028846 644.365385 179.480769 644.365385 181.932692 644.365385 184.384615 644.365385 186.836538 644.365385 189.288462 644.365385 191.740385 644.365385 194.192308 644.365385 196.644231 644.365385 199.096154 644.365385 201.548077 644.365385 204.000000 644.365385 206.451923 644.365385 208.903846 644.365385 211.355769 644.365385 213.807692 644.365385 216.259615 644.365385 218.711538 644.365385 221.163462 644.365385 223.615385 644.365385 226.067308 644.365385 228.519231 644.365385 230.971154 644.365385 233.423077 644.365385 235.875000 644.365385 238.326923 644.365385 240.778846 644.365385 243.230769 644.365385 245.682692 644.365385 248.134615 644.365385 250.586538 644.365385 253.038462 644.365385 255.490385 644.365385 257.942308 644.365385 260.394231 644.365385 262.846154 644.365385 265.298077 644.365385 267.750000 644.365385 270.201923 644.365385 272.653846 644.365385 275.105769 644.365385 277.557692 644.365385 280.009615 644.365385 282.461538 644.365385 284.913462 644.365385 287.365385 644.365385 289.817308 644.365385 292.269231 644.365385 294.721154 644.365385 297.173077 644.365385 299.625000 644.365385 302.076923 644.365385 304.528846 644.365385 306.980769 644.365385 309.432692 644.365385 311.884615 644.365385 314.336538 644.365385 316.788462 644.365385 319.240385 644.365385 321.692308 644.365385 324.144231 644.365385 326.596154 644.365385 329.048077 644.365385 331.500000 644.365385 333.951923 644.365385 336.403846 644.365385 338.855769 644.365385 341.307692 644.365385 343.759615 644.365385 346.211538 644.365385 348.663462 644.365385 351.115385 644.365385 353.567308 644.365385 356.019231 644.365385 358.471154 644.365385 360.923077 644.365385 363.375000 644.365385 365.826923 644.365385 368.278846 644.365385 370.730769 644.365385 373.182692 644.365385 375.634615 644.365385 378.086538 644.365385 380.538462 644.365385 382.990385 644.365385 385.442308 644.365385 387.894231 644.365385 390.346154 644.365385 392.798077 644.365385 395.250000 644.365385 397.701923 644.365385 400.153846 644.365385 402.605769 644.365385 405.057692 644.365385 407.509615 644.365385 409.961538 644.365385 412.413462 644.365385 414.865385 644.365385 417.317308 644.365385 419.769231 644.365385 422.221154 644.365385 424.673077 644.365385 427.125000 644.365385 429.576923 644.365385 432.028846 644.365385 434.480769 644.365385 436.932692 644.365385 439.384615 644.365385 441.836538 644.365385 444.288462 644.365385 446.740385 644.365385 449.192308 644.365385 451.644231 644.365385 454.096154 644.365385 456.548077 644.365385 459.000000 644.365385 461.451923 644.365385 463.903846 644.365385 466.355769 644.365385 468.807692 644.365385 471.259615 644.365385 473.711538 644.365385 476.163462 644.365385 478.615385 644.365385 481.067308 644.365385 483.519231 644.365385 485.971154 644.365385 488.423077 644.365385 490.875000 644.365385 493.326923 644.365385 495.778846 644.365385 498.230769 644.365385 500.682692 644.365385 503.134615 644.365385 505.586538 644.365385 508.038462 644.365385 510.490385 644.365385 512.942308 644.365385 515.394231 644.365385 517.846154 644.365385 520.298077 644.365385 522.750000 644.365385 525.201923 644.365385 527.653846 644.365385 530.105769 644.365385 532.557692 644.365385 535.009615 644.365385 537.461538 644.365385 539.913462 644.365385 542.365385 644.365385 544.817308 644.365385 547.269231 644.365385 549.721154 644.365385 552.173077 644.365385 554.625000 644.365385 557.076923 644.365385 559.528846 644.365385 561.980769 644.365385 564.432692 644.365385 566.884615 644.365385 569.336538 644.365385 571.788462 644.365385 574.240385 644.365385 576.692308 644.365385 579.144231 644.365385 581.596154 644.365385 584.048077 644.365385 586.500000 644.365385 588.951923 644.365385 591.403846 644.365385 593.855769 644.365385 596.307692 644.365385 598.759615 644.365385 601.211538 644.365385 603.663462 644.365385 606.115385 644.365385 608.567308 644.365385 611.019231 644.365385 613.471154 644.365385 615.923077 644.365385 618.375000 644.365385 620.826923 644.365385 623.278846 644.365385 625.730769 644.365385 628.182692 644.365385 630.634615 644.365385 633.086538 644.365385 635.538462 644.365385 637.990385 644.365385 640.442308 644.365385 642.894231 644.365385 645.346154 644.365385 647.798077 644.365385 650.250000 644.365385 652.701923 644.365385 655.153846 644.365385 657.605769 644.365385 660.057692 644.365385 662.509615 644.365385 664.961538 618.566652 667.413462 606.689894 669.865385 600.103326 672.317308 596.206140 674.769231 593.170521 677.221154 590.489192 679.673077 588.073580 682.125000 585.279523 684.576923 581.567533 687.028846 577.928011 689.480769 574.328750 691.932692 570.198054 694.384615 566.566584 696.836538 562.451992 699.288462 558.723898 701.740385 555.712436 704.192308 552.829806 706.644231 550.003540 709.096154 547.314159 711.548077 544.842183 714.000000 542.724497 716.451923 540.308885 718.903846 538.448864 721.355769 536.258709 723.807692 534.761030 726.259615 533.529068 728.711538 532.570876 731.163462 531.757620 733.615385 531.169821 736.067308 530.525658 738.519231 529.929807 740.971154 529.390320 743.423077 528.810573 745.875000 527.965109 748.326923 526.789512 750.778846 525.710538 753.230769 524.293380 755.682692 523.149990 758.134615 521.789195 760.586538 520.436453 763.038462 519.244751 765.490385 518.020841 767.942308 517.022388 770.394231 515.758218 772.846154 514.526256 775.298077 513.334554 777.750000 512.167009 780.201923 511.071932 782.653846 510.121791 785.105769 509.123338 787.557692 508.390603 790.009615 507.480722 792.461538 506.603050 794.913462 505.604597 797.365385 504.525624 799.817308 503.350026 802.269231 501.031039 804.721154 497.761911 807.173077 493.180301 809.625000 487.213740 812.076923 481.754458 814.528846 476.625309 816.980769 473.291765 819.432692 470.352770 821.884615 466.785717 824.336538 463.105935 826.788462 459.643559 829.240385 456.986386 831.692308 455.126365 834.144231 453.797778 836.596154 452.332307 839.048077 450.947357 841.500000 449.892539 843.951923 448.797462 846.403846 448.233819 848.855769 447.823165 851.307692 447.267575 853.759615 446.881077 856.211538 446.486527 858.663462 446.035613 861.115385 445.423658 863.567308 444.594298 866.019231 443.297920 868.471154 441.615043 870.923077 440.028792 873.375000 438.555269 875.826923 437.194474 878.278846 435.906148 880.730769 434.633926 883.182692 433.079882 885.634615 431.791556 888.086538 430.881675 890.538462 430.881675 892.990385 430.881675 895.442308 430.881675 897.894231 430.881675 900.346154 430.881675" /></g><g class="series serie-3 color-3"><path class="line reactive nofill" d="M17.653846 628.204942 L20.105769 622.157861 22.557692 618.784057 25.009615 616.537538 27.461538 614.419852 29.913462 613.010745 32.365385 611.593586 34.817308 609.942918 37.269231 607.478994 39.721154 604.306491 42.173077 600.989051 44.625000 596.447701 47.076923 592.292849 49.528846 589.466583 51.980769 586.865774 54.432692 584.707828 56.884615 582.469361 59.336538 580.279206 61.788462 578.072948 64.240385 576.148510 66.692308 574.634727 69.144231 573.290037 71.596154 572.098335 74.048077 570.971049 76.500000 570.085325 78.951923 568.998300 81.403846 568.482969 83.855769 568.112576 86.307692 567.661661 88.759615 567.234903 91.211538 566.953082 93.663462 566.687365 96.115385 566.147878 98.567308 565.519819 101.019231 564.835396 103.471154 563.909411 105.923077 562.983427 108.375000 562.073546 110.826923 561.211978 113.278846 560.495347 115.730769 559.674039 118.182692 558.828575 120.634615 558.095839 123.086538 557.459728 125.538462 556.928293 127.990385 556.292182 130.442308 555.720488 132.894231 555.245417 135.346154 554.762295 137.798077 554.375797 140.250000 553.997351 142.701923 553.852415 145.153846 553.683322 147.605769 553.506177 150.057692 553.280720 152.509615 553.103575 154.961538 552.765389 157.413462 552.338631 159.865385 551.976290 162.317308 551.412647 164.769231 550.840952 167.221154 550.357830 169.673077 549.866655 172.125000 549.303013 174.576923 548.827942 177.028846 548.240143 179.480769 547.636240 181.932692 547.064546 184.384615 546.621684 186.836538 546.315706 189.288462 545.961416 191.740385 545.591023 194.192308 545.132056 196.644231 544.842183 199.096154 544.656986 201.548077 544.479841 204.000000 544.359061 206.451923 544.222176 208.903846 544.069187 211.355769 543.956459 213.807692 543.714898 216.259615 543.433076 218.711538 543.070734 221.163462 542.748653 223.615385 542.410467 226.067308 541.975657 228.519231 541.548899 230.971154 541.210713 233.423077 540.800059 235.875000 540.421614 238.326923 540.019012 240.778846 539.704982 243.230769 539.495629 245.682692 539.246016 248.134615 539.020559 250.586538 538.811206 253.038462 538.529384 255.490385 538.360292 257.942308 538.215355 260.394231 538.102626 262.846154 537.965742 265.298077 537.861065 267.750000 537.796649 270.201923 537.732233 272.653846 537.603400 275.105769 537.530932 277.557692 537.394047 280.009615 537.257162 282.461538 537.176642 284.913462 537.080017 287.365385 537.007549 289.817308 536.838456 292.269231 536.685468 294.721154 536.588843 297.173077 536.395594 299.625000 536.234553 302.076923 536.089617 304.528846 535.920524 306.980769 535.711171 309.432692 535.582338 311.884615 535.485714 314.336538 535.413245 316.788462 535.260257 319.240385 535.147528 321.692308 535.058956 324.144231 534.954279 326.596154 534.865707 329.048077 534.801290 331.500000 534.688562 333.951923 534.583885 336.403846 534.479209 338.855769 534.390636 341.307692 534.310116 343.759615 534.124919 346.211538 533.988034 348.663462 533.826994 351.115385 533.690109 353.567308 533.561276 356.019231 533.432444 358.471154 533.295559 360.923077 533.198935 363.375000 533.078154 365.826923 532.941269 368.278846 532.748020 370.730769 532.611136 373.182692 532.458147 375.634615 532.369575 378.086538 532.281002 380.538462 532.192430 382.990385 532.087753 385.442308 531.942817 387.894231 531.870348 390.346154 531.765672 392.798077 531.564371 395.250000 531.363070 397.701923 530.984624 400.153846 530.565918 402.605769 530.082796 405.057692 529.696298 407.509615 529.253436 409.961538 528.858886 412.413462 528.271087 414.865385 527.796016 417.317308 527.538351 419.769231 527.248478 422.221154 526.934448 424.673077 526.596263 427.125000 526.233921 429.576923 486.134767 432.028846 467.083643 434.480769 456.785085 436.932692 449.183960 439.384615 442.661808 441.836538 437.194474 444.288462 431.026612 446.740385 424.995635 449.192308 416.259173 451.644231 403.528899 454.096154 386.772606 456.548077 365.442755 459.000000 347.116314 461.451923 330.971976 463.903846 318.507420 466.355769 307.540543 468.807692 296.324052 471.259615 285.743673 473.711538 275.646416 476.163462 267.513857 478.615385 261.321839 481.067308 255.943077 483.519231 250.966917 485.971154 246.449723 488.423077 242.625004 490.875000 239.259252 493.326923 237.020785 495.778846 235.587522 498.230769 234.403873 500.682692 233.099442 503.134615 231.859428 505.586538 230.305385 508.038462 228.219907 510.490385 225.498318 512.942308 221.850744 515.394231 217.720048 517.846154 213.581300 520.298077 209.233199 522.750000 205.376272 525.201923 201.648178 527.653846 197.928136 530.105769 194.119522 532.557692 190.206231 535.009615 187.106196 537.461538 184.175254 539.913462 181.904579 542.365385 179.561435 544.817308 177.508165 547.269231 175.487104 549.721154 174.110205 552.173077 172.910451 554.625000 171.944206 557.076923 171.243679 559.528846 170.325747 561.980769 169.625219 564.432692 168.731443 566.884615 167.668574 569.336538 166.565444 571.788462 164.568539 574.240385 162.531373 576.692308 160.453947 579.144231 158.126907 581.596154 156.025325 584.048077 154.036472 586.500000 151.677224 588.951923 149.535382 591.403846 147.506268 593.855769 146.008589 596.307692 144.261296 598.759615 142.723357 601.211538 141.579967 603.663462 140.444630 606.115385 139.244876 608.567308 138.262527 611.019231 137.578104 613.471154 137.054722 615.923077 136.579651 618.375000 136.201205 620.826923 135.701979 623.278846 135.186648 625.730769 134.614954 628.182692 133.890270 630.634615 133.060910 633.086538 132.070509 635.538462 130.774131 637.990385 129.453597 640.442308 128.422936 642.894231 127.440587 645.346154 126.031480 647.798077 124.654581 650.250000 123.189110 652.701923 122.118189 655.153846 121.345193 657.605769 120.395053 660.057692 119.477120 662.509615 118.736333 664.961538 110.378316 667.413462 105.901383 669.865385 103.059013 672.317308 101.247304 674.769231 100.095863 677.221154 99.073254 679.673077 98.284154 682.125000 97.350117 684.576923 96.190624 687.028846 94.862037 689.480769 93.525399 691.932692 92.027720 694.384615 90.739393 696.836538 89.064569 699.288462 87.695723 701.740385 86.536229 704.192308 85.038550 706.644231 83.814640 709.096154 82.558522 711.548077 81.318508 714.000000 80.336159 716.451923 79.224978 718.903846 78.290941 721.355769 77.099239 723.807692 76.229619 726.259615 75.432467 728.711538 74.933241 731.163462 74.337390 733.615385 73.975048 736.067308 73.604654 738.519231 73.314781 740.971154 72.992699 743.423077 72.662566 745.875000 72.276068 748.326923 71.728529 750.778846 71.148783 753.230769 70.271110 755.682692 69.441750 758.134615 68.604338 760.586538 68.016539 763.038462 67.211336 765.490385 66.543016 767.942308 65.914957 770.394231 65.101701 772.846154 64.377018 775.298077 63.595970 777.750000 63.056483 780.201923 62.452580 782.653846 61.760105 785.105769 61.172306 787.557692 60.761652 790.009615 60.310738 792.461538 59.867876 794.913462 59.255921 797.365385 58.700330 799.817308 58.032011 802.269231 57.089923 804.721154 55.688868 807.173077 53.683910 809.625000 51.244142 812.076923 48.425929 814.528846 45.414466 816.980769 43.425612 819.432692 41.485071 821.884615 39.222448 824.336538 36.943721 826.788462 34.769671 829.240385 32.869389 831.692308 31.581063 834.144231 30.373257 836.596154 29.181555 839.048077 27.925437 841.500000 26.951141 843.951923 26.153989 846.403846 25.477618 848.855769 25.058912 851.307692 24.736830 853.759615 24.318124 856.211538 23.955782 858.663462 23.601492 861.115385 23.190838 863.567308 22.691612 866.019231 21.644847 868.471154 20.565874 870.923077 19.374172 873.375000 18.311303 875.826923 17.216226 878.278846 16.402970 880.730769 15.485037 883.182692 14.333596 885.634615 13.391507 888.086538 12.634615 890.538462 12.634615 892.990385 12.634615 895.442308 12.634615 897.894231 12.634615 900.346154 12.634615" /></g></g><g class="titles"><text class="title plot_title" x="512.0" y="26">Election 5 and 6 Participation</text><text class="title" transform="rotate(-90 0.000000 374.500000)" x="0" y="400.5">Users</text></g><g class="plot overlay" transform="translate(86, 46)"><g class="series serie-0 color-0" /><g class="series serie-1 color-1" /><g class="series serie-2 color-2" /><g class="series serie-3 color-3" /></g><g class="plot text-overlay" transform="translate(86, 46)"><g class="series serie-0 color-0" /><g class="series serie-1 color-1" /><g class="series serie-2 color-2" /><g class="series serie-3 color-3" /></g><g class="plot tooltip-overlay" transform="translate(86, 46)"><g class="tooltip" style="opacity: 0" transform="translate(0 0)"><a><rect class="tooltip-box" height="0" rx="0" ry="0" width="0" /><text class="text"><tspan class="label" /><tspan class="value" /></text></a></g></g><g class="legends" transform="translate(96, 713)"><g class="legend reactive activate-serie" id="activate-serie-0"><rect class="color-0 reactive" height="12" width="12" x="0.0" y="1.0" /><text x="17.0" y="11.2">5 constituents</text></g><g class="legend reactive activate-serie" id="activate-serie-1"><rect class="color-1 reactive" height="12" width="12" x="459.0" y="1.0" /><text x="476.0" y="11.2">5 caucus</text></g><g class="legend reactive activate-serie" id="activate-serie-2"><rect class="color-2 reactive" height="12" width="12" x="0.0" y="22.0" /><text x="17.0" y="32.2">6 constituents</text></g><g class="legend reactive activate-serie" id="activate-serie-3"><rect class="color-3 reactive" height="12" width="12" x="459.0" y="22.0" /><text x="476.0" y="32.2">6 caucus</text></g></g></g></svg>