<?xml version='1.0' encoding='utf-8'?>
<svg xmlns:xlink="http://www.w3.org/1999/xlink" class="pygal-chart" id="chart-f08566ff-886d-45c6-8478-1236f5519ab8" viewBox="0 0 1024 768" xmlns="http://www.w3.org/2000/svg"><!--Generated with pygal 1.7.0 (etree) ©Kozea 2011-2014 on 2015-11-15--><!--http://pygal.org--><!--http://github.com/Kozea/pygal--><defs><style type="text/css">#chart-f08566ff-886d-45c6-8478-1236f5519ab8 .title{font-family:"monospace";font-size:16px}#chart-f08566ff-886d-45c6-8478-1236f5519ab8 .legends .legend text{font-family:"monospace";font-size:14px}#chart-f08566ff-886d-45c6-8478-1236f5519ab8 .axis text{font-family:"monospace";font-size:10px}#chart-f08566ff-886d-45c6-8478-1236f5519ab8 .axis text.major{font-family:"monospace";font-size:10px}#chart-f08566ff-886d-45c6-8478-1236f5519ab8 .series text{font-family:"monospace";font-size:8px}#chart-f08566ff-886d-45c6-8478-1236f5519ab8 .tooltip text{font-family:"monospace";font-size:16px}#chart-f08566ff-886d-45c6-8478-1236f5519ab8 text.no_data{font-size:64px}
#chart-f08566ff-886d-45c6-8478-1236f5519ab8{background-color:black}#chart-f08566ff-886d-45c6-8478-1236f5519ab8 path,#chart-f08566ff-886d-45c6-8478-1236f5519ab8 line,#chart-f08566ff-886d-45c6-8478-1236f5519ab8 rect,#chart-f08566ff-886d-45c6-8478-1236f5519ab8 circle{-webkit-transition:250ms;-moz-transition:250ms;transition:250ms}#chart-f08566ff-886d-45c6-8478-1236f5519ab8 .graph &gt; .background{fill:black}#chart-f08566ff-886d-45c6-8478-1236f5519ab8 .plot &gt; .background{fill:#111}#chart-f08566ff-886d-45c6-8478-1236f5519ab8 .graph{fill:#999}#chart-f08566ff-886d-45c6-8478-1236f5519ab8 text.no_data{fill:#eee}#chart-f08566ff-886d-45c6-8478-1236f5519ab8 .title{fill:#eee}#chart-f08566ff-886d-45c6-8478-1236f5519ab8 .legends .legend text{fill:#999}#chart-f08566ff-886d-45c6-8478-1236f5519ab8 .legends .legend:hover text{fill:#eee}#chart-f08566ff-886d-45c6-8478-1236f5519ab8 .axis .line{stroke:#eee}#chart-f08566ff-886d-45c6-8478-1236f5519ab8 .axis .guide.line{stroke:#555}#chart-f08566ff-886d-45c6-8478-1236f5519ab8 .axis .major.line{stroke:#999}#chart-f08566ff-886d-45c6-8478-1236f5519ab8 .axis text.major{stroke:#eee;fill:#eee}#chart-f08566ff-886d-45c6-8478-1236f5519ab8 .axis.y .guides:hover .guide.line,#chart-f08566ff-886d-45c6-8478-1236f5519ab8 .line-graph .axis.x .guides:hover .guide.line,#chart-f08566ff-886d-45c6-8478-1236f5519ab8 .stackedline-graph .axis.x .guides:hover .guide.line,#chart-f08566ff-886d-45c6-8478-1236f5519ab8 .xy-graph .axis.x .guides:hover .guide.line{stroke:#eee}#chart-f08566ff-886d-45c6-8478-1236f5519ab8 .axis .guides:hover text{fill:#eee}#chart-f08566ff-886d-45c6-8478-1236f5519ab8 .reactive{fill-opacity:.8}#chart-f08566ff-886d-45c6-8478-1236f5519ab8 .reactive.active,#chart-f08566ff-886d-45c6-8478-1236f5519ab8 .active .reactive{fill-opacity:.4}#chart-f08566ff-886d-45c6-8478-1236f5519ab8 .series{stroke-width:1.0;stroke-linejoin:round;stroke-linecap:round;stroke-dasharray:0,0}#chart-f08566ff-886d-45c6-8478-1236f5519ab8 .series text{fill:#eee}#chart-f08566ff-886d-45c6-8478-1236f5519ab8 .tooltip rect{fill:#111;stroke:#eee}#chart-f08566ff-886d-45c6-8478-1236f5519ab8 .tooltip text{fill:#eee}#chart-f08566ff-886d-45c6-8478-1236f5519ab8 .map-element{fill:#999;stroke:#555 !important;opacity:.9;stroke-width:3;-webkit-transition:250ms;-moz-transition:250ms;-o-transition:250ms;transition:250ms}#chart-f08566ff-886d-45c6-8478-1236f5519ab8 .map-element:hover{opacity:1;stroke-width:10}#chart-f08566ff-886d-45c6-8478-1236f5519ab8 .color-0,#chart-f08566ff-886d-45c6-8478-1236f5519ab8 .color-0 a:visited{stroke:#ff5995;fill:#ff5995}#chart-f08566ff-886d-45c6-8478-1236f5519ab8 .color-1,#chart-f08566ff-886d-45c6-8478-1236f5519ab8 .color-1 a:visited{stroke:#b6e354;fill:#b6e354}#chart-f08566ff-886d-45c6-8478-1236f5519ab8 .color-2,#chart-f08566ff-886d-45c6-8478-1236f5519ab8 .color-2 a:visited{stroke:#feed6c;fill:#feed6c}#chart-f08566ff-886d-45c6-8478-1236f5519ab8 .color-3,#chart-f08566ff-886d-45c6-8478-1236f5519ab8 .color-3 a:visited{stroke:#8cedff;fill:#8cedff}#chart-f08566ff-886d-45c6-8478-1236f5519ab8 .color-4,#chart-f08566ff-886d-45c6-8478-1236f5519ab8 .color-4 a:visited{stroke:#9e6ffe;fill:#9e6ffe}#chart-f08566ff-886d-45c6-8478-1236f5519ab8 .color-5,#chart-f08566ff-886d-45c6-8478-1236f5519ab8 .color-5 a:visited{stroke:#899ca1;fill:#899ca1}#chart-f08566ff-886d-45c6-8478-1236f5519ab8 .color-6,#chart-f08566ff-886d-45c6-8478-1236f5519ab8 .color-6 a:visited{stroke:#f8f8f2;fill:#f8f8f2}#chart-f08566ff-886d-45c6-8478-1236f5519ab8 .color-7,#chart-f08566ff-886d-45c6-8478-1236f5519ab8 .color-7 a:visited{stroke:#bf4646;fill:#bf4646}#chart-f08566ff-886d-45c6-8478-1236f5519ab8 .color-8,#chart-f08566ff-886d-45c6-8478-1236f5519ab8 .color-8 a:visited{stroke:#516083;fill:#516083}#chart-f08566ff-886d-45c6-8478-1236f5519ab8 .color-9,#chart-f08566ff-886d-45c6-8478-1236f5519ab8 .color-9 a:visited{stroke:#f92672;fill:#f92672}#chart-f08566ff-886d-45c6-8478-1236f5519ab8 .color-10,#chart-f08566ff-886d-45c6-8478-1236f5519ab8 .color-10 a:visited{stroke:#82b414;fill:#82b414}#chart-f08566ff-886d-45c6-8478-1236f5519ab8 .color-11,#chart-f08566ff-886d-45c6-8478-1236f5519ab8 .color-11 a:visited{stroke:#fd971f;fill:#fd971f}#chart-f08566ff-886d-45c6-8478-1236f5519ab8 .color-12,#chart-f08566ff-886d-45c6-8478-1236f5519ab8 .color-12 a:visited{stroke:#56c2d6;fill:#56c2d6}#chart-f08566ff-886d-45c6-8478-1236f5519ab8 .color-13,#chart-f08566ff-886d-45c6-8478-1236f5519ab8 .color-13 a:visited{stroke:#808384;fill:#808384}#chart-f08566ff-886d-45c6-8478-1236f5519ab8 .color-14,#chart-f08566ff-886d-45c6-8478-1236f5519ab8 .color-14 a:visited{stroke:#8c54fe;fill:#8c54fe}#chart-f08566ff-886d-45c6-8478-1236f5519ab8 .color-15,#chart-f08566ff-886d-45c6-8478-1236f5519ab8 .color-15 a:visited{stroke:#465457;fill:#465457}
#chart-f08566ff-886d-45c6-8478-1236f5519ab8 text.no_data{text-anchor:middle}#chart-f08566ff-886d-45c6-8478-1236f5519ab8 .guide.line{fill-opacity:0}#chart-f08566ff-886d-45c6-8478-1236f5519ab8 .centered{text-anchor:middle}#chart-f08566ff-886d-45c6-8478-1236f5519ab8 .title{text-anchor:middle}#chart-f08566ff-886d-45c6-8478-1236f5519ab8 .legends .legend text{fill-opacity:1}#chart-f08566ff-886d-45c6-8478-1236f5519ab8 .axis.x text{text-anchor:middle}#chart-f08566ff-886d-45c6-8478-1236f5519ab8 .axis.x:not(.web) text[transform]{text-anchor:start}#chart-f08566ff-886d-45c6-8478-1236f5519ab8 .axis.y text{text-anchor:end}#chart-f08566ff-886d-45c6-8478-1236f5519ab8 .axis.y2 text{text-anchor:start}#chart-f08566ff-886d-45c6-8478-1236f5519ab8 .axis.y .logarithmic text:not(.major),#chart-f08566ff-886d-45c6-8478-1236f5519ab8 .axis.y2 .logarithmic text:not(.major){font-size:50%}#chart-f08566ff-886d-45c6-8478-1236f5519ab8 .axis .guide.line{stroke-dasharray:4,4}#chart-f08566ff-886d-45c6-8478-1236f5519ab8 .axis .major.guide.line{stroke-dasharray:6,6}#chart-f08566ff-886d-45c6-8478-1236f5519ab8 .axis text.major{stroke-width:0.5px}#chart-f08566ff-886d-45c6-8478-1236f5519ab8 .horizontal .axis.y .guide.line,#chart-f08566ff-886d-45c6-8478-1236f5519ab8 .horizontal .axis.y2 .guide.line,#chart-f08566ff-886d-45c6-8478-1236f5519ab8 .vertical .axis.x .guide.line{opacity:0}#chart-f08566ff-886d-45c6-8478-1236f5519ab8 .horizontal .axis.always_show .guide.line,#chart-f08566ff-886d-45c6-8478-1236f5519ab8 .vertical .axis.always_show .guide.line{opacity:1 !important}#chart-f08566ff-886d-45c6-8478-1236f5519ab8 .axis.y .guides:hover .guide.line,#chart-f08566ff-886d-45c6-8478-1236f5519ab8 .axis.y2 .guides:hover .guide.line,#chart-f08566ff-886d-45c6-8478-1236f5519ab8 .axis.x .guides:hover .guide.line{opacity:1}#chart-f08566ff-886d-45c6-8478-1236f5519ab8 .axis .guides:hover text{opacity:1}#chart-f08566ff-886d-45c6-8478-1236f5519ab8 .nofill{fill:none}#chart-f08566ff-886d-45c6-8478-1236f5519ab8 .subtle-fill{fill-opacity:.2}#chart-f08566ff-886d-45c6-8478-1236f5519ab8 .dot{stroke-width:1px;fill-opacity:1}#chart-f08566ff-886d-45c6-8478-1236f5519ab8 .dot.active{stroke-width:5px}#chart-f08566ff-886d-45c6-8478-1236f5519ab8 .series text{stroke:none}#chart-f08566ff-886d-45c6-8478-1236f5519ab8 .series text.active{opacity:1}#chart-f08566ff-886d-45c6-8478-1236f5519ab8 .tooltip rect{fill-opacity:0.8}#chart-f08566ff-886d-45c6-8478-1236f5519ab8 .tooltip text{fill-opacity:1}#chart-f08566ff-886d-45c6-8478-1236f5519ab8 .tooltip text tspan.label{fill-opacity:.8}</style><script type="text/javascript">window.config = {"x_labels": null, "show_x_labels": true, "x_label_format": "%Y-%m-%d %H:%M:%S.%f", "interpolate": null, "rounded_bars": null, "title_font_size": 16, "y_labels_major_count": null, "tooltip_border_radius": 0, "include_x_axis": false, "legend_at_bottom": true, "x_label_rotation": 0, "half_pie": false, "range": null, "dots_size": 2.5, "x_labels_major": null, "legend_box_size": 12, "margin_right": null, "y_labels_major_every": null, "legend_font_size": 14, "logarithmic": false, "css": ["style.css", "graph.css"], "show_y_guides": true, "truncate_legend": null, "tooltip_font_size": 16, "y_label_rotation": 0, "show_y_labels": true, "x_labels_major_count": null, "strict": false, "height": 768, "no_data_font_size": 64, "margin_bottom": null, "spacing": 10, "value_font_size": 8, "show_minor_x_labels": true, "margin": 20, "zero": 0, "order_min": null, "interpolation_parameters": {}, "human_readable": false, "truncate_label": null, "show_dots": false, "missing_value_fill_truncation": "x", "legend_at_bottom_columns": null, "y_labels_major": null, "js": ["http://kozea.github.io/pygal.js/javascripts/svg.jquery.js", "http://kozea.github.io/pygal.js/javascripts/pygal-tooltips.js"], "label_font_size": 10, "show_x_guides": false, "stroke": true, "print_values": false, "inner_radius": 0, "no_data_text": "No data", "print_zeroes": false, "stack_from_top": false, "major_label_font_size": 10, "mode": null, "fill": false, "interpolation_precision": 250, "y_labels": null, "pretty_print": false, "show_legend": true, "x_title": null, "width": 1024, "show_only_major_dots": false, "margin_left": null, "x_value_formatter": null, "y_title": "Users", "x_labels_major_every": null, "xrange": null, "show_minor_y_labels": true, "explicit_size": false, "title": "Election 3 Participation", "disable_xml_declaration": false, "style": {"opacity_hover": ".4", "stroke_width": 1.0, "foreground": "#999", "foreground_light": "#eee", "colors": ["#ff5995", "#b6e354", "#feed6c", "#8cedff", "#9e6ffe", "#899ca1", "#f8f8f2", "#bf4646", "#516083", "#f92672", "#82b414", "#fd971f", "#56c2d6", "#808384", "#8c54fe", "#465457"], "stroke_style": "round", "foreground_dark": "#555", "opacity": ".8", "background": "black", "transition": "250ms", "stroke_dasharray": "0,0", "font_family": "monospace", "plot_background": "#111"}, "margin_top": null, "no_prefix": false}</script><script type="text/javascript" xlink:href="http://kozea.github.io/pygal.js/javascripts/svg.jquery.js" /><script type="text/javascript" xlink:href="http://kozea.github.io/pygal.js/javascripts/pygal-tooltips.js" /></defs><title>Election 3 Participation</title><g class="graph line-graph vertical"><rect class="background" height="768" width="1024" x="0" y="0" /><g class="plot" transform="translate(86, 46)"><rect class="background" height="657.0" width="918.0" x="0" y="0" /><g class="axis y"><g class="guides"><path class="axis major line" d="M0.000000 644.365385 h918.000000" /><text class="major" x="-5" y="647.8653846153846">0</text></g><g class="guides"><path class="guide line" d="M0.000000 611.490136 h918.000000" /><text class="" x="-5" y="614.9901364247743">1000</text></g><g class="guides"><path class="guide line" d="M0.000000 578.614888 h918.000000" /><text class="" x="-5" y="582.1148882341638">2000</text></g><g class="guides"><path class="guide line" d="M0.000000 545.739640 h918.000000" /><text class="" x="-5" y="549.2396400435534">3000</text></g><g class="guides"><path class="guide line" d="M0.000000 512.864392 h918.000000" /><text class="" x="-5" y="516.3643918529431">4000</text></g><g class="guides"><path class="major guide line" d="M0.000000 479.989144 h918.000000" /><text class="major" x="-5" y="483.4891436623327">5000</text></g><g class="guides"><path class="guide line" d="M0.000000 447.113895 h918.000000" /><text class="" x="-5" y="450.61389547172223">6000</text></g><g class="guides"><path class="guide line" d="M0.000000 414.238647 h918.000000" /><text class="" x="-5" y="417.73864728111187">7000</text></g><g class="guides"><path class="guide line" d="M0.000000 381.363399 h918.000000" /><text class="" x="-5" y="384.8633990905015">8000</text></g><g class="guides"><path class="guide line" d="M0.000000 348.488151 h918.000000" /><text class="" x="-5" y="351.9881508998911">9000</text></g><g class="guides"><path class="major guide line" d="M0.000000 315.612903 h918.000000" /><text class="major" x="-5" y="319.1129027092807">10000</text></g><g class="guides"><path class="guide line" d="M0.000000 282.737655 h918.000000" /><text class="" x="-5" y="286.2376545186703">11000</text></g><g class="guides"><path class="guide line" d="M0.000000 249.862406 h918.000000" /><text class="" x="-5" y="253.36240632805993">12000</text></g><g class="guides"><path class="guide line" d="M0.000000 216.987158 h918.000000" /><text class="" x="-5" y="220.4871581374495">13000</text></g><g class="guides"><path class="guide line" d="M0.000000 184.111910 h918.000000" /><text class="" x="-5" y="187.61190994683915">14000</text></g><g class="guides"><path class="major guide line" d="M0.000000 151.236662 h918.000000" /><text class="major" x="-5" y="154.73666175622878">15000</text></g><g class="guides"><path class="guide line" d="M0.000000 118.361414 h918.000000" /><text class="" x="-5" y="121.86141356561836">16000</text></g><g class="guides"><path class="guide line" d="M0.000000 85.486165 h918.000000" /><text class="" x="-5" y="88.986165375008">17000</text></g><g class="guides"><path class="guide line" d="M0.000000 52.610917 h918.000000" /><text class="" x="-5" y="56.110917184397636">18000</text></g><g class="guides"><path class="guide line" d="M0.000000 19.735669 h918.000000" /><text class="" x="-5" y="23.235668993787158">19000</text></g></g><g class="series serie-0 color-0"><path class="line reactive nofill" d="M17.653846 644.365385 L20.105769 644.365385 22.557692 644.365385 25.009615 644.365385 27.461538 644.365385 29.913462 644.365385 32.365385 644.365385 34.817308 644.365385 37.269231 644.365385 39.721154 644.365385 42.173077 644.365385 44.625000 644.365385 47.076923 644.365385 49.528846 644.365385 51.980769 644.365385 54.432692 644.365385 56.884615 644.365385 59.336538 644.365385 61.788462 644.365385 64.240385 644.365385 66.692308 644.365385 69.144231 644.365385 71.596154 644.365385 74.048077 644.365385 76.500000 644.365385 78.951923 644.365385 81.403846 644.365385 83.855769 644.365385 86.307692 644.365385 88.759615 644.365385 91.211538 644.365385 93.663462 644.365385 96.115385 644.365385 98.567308 644.365385 101.019231 644.365385 103.471154 644.365385 105.923077 644.365385 108.375000 644.365385 110.826923 644.365385 113.278846 644.365385 115.730769 644.365385 118.182692 644.365385 120.634615 644.365385 123.086538 644.365385 125.538462 644.365385 127.990385 644.365385 130.442308 644.365385 132.894231 644.365385 135.346154 644.365385 137.798077 644.365385 140.250000 644.365385 142.701923 644.365385 145.153846 644.365385 147.605769 644.365385 150.057692 644.365385 152.509615 644.365385 154.961538 644.365385 157.413462 644.365385 159.865385 644.365385 162.317308 644.365385 164.769231 644.365385 167.221154 644.365385 169.673077 644.365385 172.125000 644.365385 174.576923 644.365385 177.028846 644.365385 179.480769 644.365385 181.932692 644.365385 184.384615 644.365385 186.836538 644.365385 189.288462 644.365385 191.740385 644.365385 194.192308 644.365385 196.644231 644.365385 199.096154 644.365385 201.548077 644.365385 204.000000 644.365385 206.451923 644.365385 208.903846 644.365385 211.355769 644.365385 213.807692 644.365385 216.259615 644.365385 218.711538 644.365385 221.163462 644.365385 223.615385 644.365385 226.067308 644.365385 228.519231 644.365385 230.971154 644.365385 233.423077 644.365385 235.875000 644.365385 238.326923 644.365385 240.778846 644.365385 243.230769 644.365385 245.682692 644.365385 248.134615 644.365385 250.586538 644.365385 253.038462 644.365385 255.490385 644.365385 257.942308 644.365385 260.394231 644.365385 262.846154 644.365385 265.298077 644.365385 267.750000 644.365385 270.201923 644.365385 272.653846 644.365385 275.105769 644.365385 277.557692 644.365385 280.009615 644.365385 282.461538 644.365385 284.913462 644.365385 287.365385 644.365385 289.817308 644.365385 292.269231 644.365385 294.721154 644.365385 297.173077 644.365385 299.625000 644.365385 302.076923 644.365385 304.528846 644.365385 306.980769 644.365385 309.432692 644.365385 311.884615 644.365385 314.336538 644.365385 316.788462 644.365385 319.240385 644.365385 321.692308 644.365385 324.144231 644.365385 326.596154 644.365385 329.048077 644.365385 331.500000 644.365385 333.951923 644.365385 336.403846 644.365385 338.855769 644.365385 341.307692 644.365385 343.759615 644.365385 346.211538 644.365385 348.663462 644.365385 351.115385 644.365385 353.567308 644.365385 356.019231 644.365385 358.471154 644.365385 360.923077 644.365385 363.375000 644.365385 365.826923 644.365385 368.278846 644.365385 370.730769 644.365385 373.182692 644.365385 375.634615 644.365385 378.086538 644.365385 380.538462 644.365385 382.990385 644.365385 385.442308 644.365385 387.894231 644.365385 390.346154 644.365385 392.798077 644.365385 395.250000 644.365385 397.701923 644.365385 400.153846 644.365385 402.605769 644.365385 405.057692 644.365385 407.509615 644.365385 409.961538 644.365385 412.413462 644.365385 414.865385 644.365385 417.317308 644.365385 419.769231 641.472363 422.221154 630.097527 424.673077 625.264865 427.125000 622.634846 429.576923 620.826707 432.028846 619.610323 434.480769 618.295313 436.932692 617.243305 439.384615 616.092671 441.836538 614.679035 444.288462 613.594152 446.740385 611.983265 449.192308 610.339503 451.644231 608.892992 454.096154 607.051978 456.548077 605.309590 459.000000 604.060330 461.451923 602.317942 463.903846 600.739930 466.355769 599.523546 468.807692 597.912659 471.259615 596.433273 473.711538 594.986762 476.163462 594.099130 478.615385 592.619744 481.067308 591.436235 483.519231 590.285601 485.971154 589.036342 488.423077 588.510338 490.875000 587.918583 493.326923 587.622706 495.778846 587.162453 498.230769 586.406322 500.682692 585.913193 503.134615 585.189938 505.586538 584.433807 508.038462 583.480425 510.490385 582.592793 512.942308 581.540785 515.394231 580.620278 517.846154 579.929898 520.298077 579.108017 522.750000 577.990259 525.201923 577.069752 527.653846 576.182120 530.105769 574.899985 532.557692 573.847977 535.009615 573.157597 537.461538 572.467217 539.913462 571.776837 542.365385 570.659078 544.817308 570.067324 547.269231 569.442694 549.721154 568.883815 552.173077 568.259185 554.625000 567.634555 557.076923 566.911300 559.528846 565.957918 561.980769 564.215530 564.432692 562.538892 566.884615 560.730753 569.336538 557.903482 571.788462 555.635090 574.240385 553.070820 576.692308 550.407925 579.144231 547.547779 581.596154 544.753383 584.048077 541.794610 586.500000 539.953596 588.951923 537.948206 591.403846 536.304444 593.855769 535.055184 596.307692 533.608673 598.759615 531.932036 601.211538 530.518400 603.663462 529.532143 606.115385 528.578760 608.567308 528.052757 611.019231 527.625378 613.471154 527.198000 615.923077 526.671996 618.375000 525.915865 620.826923 525.093984 623.278846 523.614598 625.730769 522.496840 628.182692 520.820202 630.634615 518.847687 633.086538 517.269675 635.538462 515.790289 637.990385 514.080776 640.442308 512.305513 642.894231 510.793251 645.346154 508.952237 647.798077 507.209849 650.250000 505.368835 652.701923 503.330570 655.153846 501.160803 657.605769 501.160803 660.057692 501.160803 662.509615 501.160803 664.961538 501.160803 667.413462 501.160803 669.865385 501.160803 672.317308 501.160803 674.769231 501.160803 677.221154 501.160803 679.673077 501.160803 682.125000 501.160803 684.576923 501.160803 687.028846 501.160803 689.480769 501.160803 691.932692 501.160803 694.384615 501.160803 696.836538 501.160803 699.288462 501.160803 701.740385 501.160803 704.192308 501.160803 706.644231 501.160803 709.096154 501.160803 711.548077 501.160803 714.000000 501.160803 716.451923 501.160803 718.903846 501.160803 721.355769 501.160803 723.807692 501.160803 726.259615 501.160803 728.711538 501.160803 731.163462 501.160803 733.615385 501.160803 736.067308 501.160803 738.519231 501.160803 740.971154 501.160803 743.423077 501.160803 745.875000 501.160803 748.326923 501.160803 750.778846 501.160803 753.230769 501.160803 755.682692 501.160803 758.134615 501.160803 760.586538 501.160803 763.038462 501.160803 765.490385 501.160803 767.942308 501.160803 770.394231 501.160803 772.846154 501.160803 775.298077 501.160803 777.750000 501.160803 780.201923 501.160803 782.653846 501.160803 785.105769 501.160803 787.557692 501.160803 790.009615 501.160803 792.461538 501.160803 794.913462 501.160803 797.365385 501.160803 799.817308 501.160803 802.269231 501.160803 804.721154 501.160803 807.173077 501.160803 809.625000 501.160803 812.076923 501.160803 814.528846 501.160803 816.980769 501.160803 819.432692 501.160803 821.884615 501.160803 824.336538 501.160803 826.788462 501.160803 829.240385 501.160803 831.692308 501.160803 834.144231 501.160803 836.596154 501.160803 839.048077 501.160803 841.500000 501.160803 843.951923 501.160803 846.403846 501.160803 848.855769 501.160803 851.307692 501.160803 853.759615 501.160803 856.211538 501.160803 858.663462 501.160803 861.115385 501.160803 863.567308 501.160803 866.019231 501.160803 868.471154 501.160803 870.923077 501.160803 873.375000 501.160803 875.826923 501.160803 878.278846 501.160803 880.730769 501.160803 883.182692 501.160803 885.634615 501.160803 888.086538 501.160803 890.538462 501.160803 892.990385 501.160803 895.442308 501.160803 897.894231 501.160803 900.346154 501.160803" /></g><g class="series serie-1 color-1"><path class="line reactive nofill" d="M17.653846 515.823164 L20.105769 513.587647 22.557692 511.976760 25.009615 510.694625 27.461538 509.017988 29.913462 507.571477 32.365385 506.223592 34.817308 505.040083 37.269231 503.231944 39.721154 501.390930 42.173077 499.714293 44.625000 497.347275 47.076923 495.407635 49.528846 493.829623 51.980769 492.152985 54.432692 490.509223 56.884615 488.602459 59.336538 486.662819 61.788462 485.150558 64.240385 483.736922 66.692308 482.421912 69.144231 481.074027 71.596154 479.693266 74.048077 478.575508 76.500000 477.556375 78.951923 476.865995 81.403846 476.307116 83.855769 475.485235 86.307692 474.761979 88.759615 473.940098 91.211538 473.446969 93.663462 472.460712 96.115385 471.310078 98.567308 470.258070 101.019231 469.304688 103.471154 468.219805 105.923077 467.102046 108.375000 466.050038 110.826923 464.965155 113.278846 463.847397 115.730769 462.729638 118.182692 461.743381 120.634615 460.428371 123.086538 458.981860 125.538462 457.864102 127.990385 456.483341 130.442308 454.938205 132.894231 453.919072 135.346154 453.064315 137.798077 452.110933 140.250000 451.519179 142.701923 450.664422 145.153846 449.546664 147.605769 448.626157 150.057692 447.278272 152.509615 445.996137 154.961538 443.661994 157.413462 441.262101 159.865385 439.453963 162.317308 437.415697 164.769231 434.752802 167.221154 432.221408 169.673077 428.901008 172.125000 425.777859 174.576923 422.884838 177.028846 420.846572 179.480769 418.874057 181.932692 417.263170 184.384615 414.271523 186.836538 383.500290 189.288462 367.917423 191.740385 360.027363 194.192308 354.570072 196.644231 349.573034 199.096154 345.628004 201.548077 341.551474 204.000000 337.409192 206.451923 330.242388 208.903846 322.681081 211.355769 312.161002 213.807692 301.871049 216.259615 291.318094 218.711538 282.376027 221.163462 274.091464 223.615385 267.154787 226.067308 258.935975 228.519231 250.651412 230.971154 243.846236 233.423077 237.534188 235.875000 232.504275 238.326923 227.178485 240.778846 222.707451 243.230769 218.762422 245.682692 215.047518 248.134615 211.759994 250.586538 209.392976 253.038462 207.979340 255.490385 206.467079 257.942308 205.217819 260.394231 203.902809 262.846154 202.357673 265.298077 200.582409 267.750000 198.248267 270.201923 195.026492 272.653846 191.508841 275.105769 187.563811 277.557692 184.144785 280.009615 180.955886 282.461538 177.832738 284.913462 173.460330 287.365385 169.712551 289.817308 166.556527 292.269231 163.466254 294.721154 161.526614 297.173077 159.323973 299.625000 156.562452 302.076923 153.866682 304.528846 151.631165 306.980769 149.527149 309.432692 147.916262 311.884615 146.667002 314.336538 145.976622 316.788462 145.187616 319.240385 144.562986 321.692308 143.872606 324.144231 142.590471 326.596154 140.880959 329.048077 139.039945 331.500000 137.034555 333.951923 135.292166 336.403846 132.760772 338.855769 130.755382 341.307692 128.651366 343.759615 126.251473 346.211538 124.213208 348.663462 121.320186 351.115385 119.512047 353.567308 117.506657 356.019231 115.928645 358.471154 114.580760 360.923077 112.969873 363.375000 111.589112 365.826923 110.274103 368.278846 109.090594 370.730769 108.465964 373.182692 108.104336 375.634615 107.512582 378.086538 107.118079 380.538462 106.559199 382.990385 105.901695 385.442308 104.948312 387.894231 103.501801 390.346154 102.252542 392.798077 100.904657 395.250000 99.359520 397.701923 97.945884 400.153846 96.663750 402.605769 94.855611 405.057692 93.573476 407.509615 91.995465 409.961538 90.516078 412.413462 89.398320 414.865385 87.918934 417.317308 87.294304 419.769231 85.519041 422.221154 80.653504 424.673077 78.680989 427.125000 77.596106 429.576923 76.971476 432.028846 76.379722 434.480769 75.787967 436.932692 75.064712 439.384615 74.407207 441.836538 74.045579 444.288462 73.585326 446.740385 72.927821 449.192308 72.434692 451.644231 71.810062 454.096154 71.284058 456.548077 70.495052 459.000000 69.903298 461.451923 68.982791 463.903846 68.391036 466.355769 67.667781 468.807692 67.141777 471.259615 66.550022 473.711538 65.925393 476.163462 65.235012 478.615385 64.610383 481.067308 64.084379 483.519231 63.295373 485.971154 62.802244 488.423077 62.407741 490.875000 62.078989 493.326923 61.783111 495.778846 61.520109 498.230769 61.224232 500.682692 60.928355 503.134615 60.698228 505.586538 60.402351 508.038462 60.007848 510.490385 59.711971 512.942308 59.185967 515.394231 58.692838 517.846154 58.331210 520.298077 57.772331 522.750000 57.180577 525.201923 56.753198 527.653846 56.128569 530.105769 55.306688 532.557692 54.846434 535.009615 54.419056 537.461538 53.893052 539.913462 53.465674 542.365385 53.038295 544.817308 52.676668 547.269231 52.479416 549.721154 51.986287 552.173077 51.624660 554.625000 51.230157 557.076923 50.835654 559.528846 50.342525 561.980769 49.454893 564.432692 48.698763 566.884615 47.515254 569.336538 46.035868 571.788462 44.950984 574.240385 43.635974 576.692308 42.222339 579.144231 40.578576 581.596154 39.066315 584.048077 37.784180 586.500000 36.502046 588.951923 35.482913 591.403846 34.463780 593.855769 33.477523 596.307692 32.557016 598.759615 31.570758 601.211538 30.880378 603.663462 30.189998 606.115385 29.762620 608.567308 29.466742 611.019231 29.105115 613.471154 28.940738 615.923077 28.513360 618.375000 28.020232 620.826923 27.625729 623.278846 26.606596 625.730769 25.916216 628.182692 24.962833 630.634615 23.910826 633.086538 23.023194 635.538462 21.872560 637.990385 20.590425 640.442308 19.571293 642.894231 18.322033 645.346154 17.105649 647.798077 15.922140 650.250000 14.903008 652.701923 13.818124 655.153846 12.700366 657.605769 12.700366 660.057692 12.700366 662.509615 12.700366 664.961538 12.700366 667.413462 12.700366 669.865385 12.700366 672.317308 12.700366 674.769231 12.700366 677.221154 12.700366 679.673077 12.700366 682.125000 12.700366 684.576923 12.700366 687.028846 12.700366 689.480769 12.700366 691.932692 12.700366 694.384615 12.700366 696.836538 12.700366 699.288462 12.700366 701.740385 12.700366 704.192308 12.700366 706.644231 12.700366 709.096154 12.700366 711.548077 12.700366 714.000000 12.700366 716.451923 12.700366 718.903846 12.700366 721.355769 12.700366 723.807692 12.700366 726.259615 12.700366 728.711538 12.700366 731.163462 12.700366 733.615385 12.700366 736.067308 12.700366 738.519231 12.700366 740.971154 12.700366 743.423077 12.700366 745.875000 12.700366 748.326923 12.700366 750.778846 12.700366 753.230769 12.700366 755.682692 12.700366 758.134615 12.700366 760.586538 12.700366 763.038462 12.700366 765.490385 12.700366 767.942308 12.700366 770.394231 12.700366 772.846154 12.667491 775.298077 12.667491 777.750000 12.667491 780.201923 12.667491 782.653846 12.667491 785.105769 12.667491 787.557692 12.667491 790.009615 12.667491 792.461538 12.667491 794.913462 12.667491 797.365385 12.667491 799.817308 12.667491 802.269231 12.667491 804.721154 12.667491 807.173077 12.667491 809.625000 12.667491 812.076923 12.667491 814.528846 12.634615 816.980769 12.634615 819.432692 12.634615 821.884615 12.634615 824.336538 12.634615 826.788462 12.634615 829.240385 12.634615 831.692308 12.634615 834.144231 12.634615 836.596154 12.634615 839.048077 12.634615 841.500000 12.634615 843.951923 12.634615 846.403846 12.634615 848.855769 12.634615 851.307692 12.634615 853.759615 12.634615 856.211538 12.634615 858.663462 12.634615 861.115385 12.634615 863.567308 12.634615 866.019231 12.634615 868.471154 12.634615 870.923077 12.634615 873.375000 12.634615 875.826923 12.634615 878.278846 12.634615 880.730769 12.634615 883.182692 12.634615 885.634615 12.634615 888.086538 12.634615 890.538462 12.634615 892.990385 12.634615 895.442308 12.634615 897.894231 12.634615 900.346154 12.634615" /></g></g><g class="titles"><text class="title plot_title" x="512.0" y="26">Election 3 Participation</text><text class="title" transform="rotate(-90 0.000000 374.500000)" x="0" y="400.5">Users</text></g><g class="plot overlay" transform="translate(86, 46)"><g class="series serie-0 color-0" /><g class="series serie-1 color-1" /></g><g class="plot text-overlay" transform="translate(86, 46)"><g class="series serie-0 color-0" /><g class="series serie-1 color-1" /></g><g class="plot tooltip-overlay" transform="translate(86, 46)"><g class="tooltip" style="opacity: 0" transform="translate(0 0)"><a><rect class="tooltip-box" height="0" rx="0" ry="0" width="0" /><text class="text"><tspan class="label" /><tspan class="value" /></text></a></g></g><g class="legends" transform="translate(96, 713)"><g class="legend reactive activate-serie" id="activate-serie-0"><rect class="color-0 reactive" height="12" width="12" x="0.0" y="1.0" /><text x="17.0" y="11.2">constituents</text></g><g class="legend reactive activate-serie" id="activate-serie-1"><rect class="color-1 reactive" height="12" width="12" x="459.0" y="1.0" /><text x="476.0" y="11.2">caucus</text></g></g></g></svg>