<?xml version='1.0' encoding='utf-8'?>
<svg xmlns:xlink="http://www.w3.org/1999/xlink" class="pygal-chart" id="chart-dc680146-725d-4023-a448-fe5eee09018b" viewBox="0 0 1024 768" xmlns="http://www.w3.org/2000/svg"><!--Generated with pygal 1.7.0 (etree) ©Kozea 2011-2014 on 2015-04-20--><!--http://pygal.org--><!--http://github.com/Kozea/pygal--><defs><style type="text/css">#chart-dc680146-725d-4023-a448-fe5eee09018b .title{font-family:"monospace";font-size:16px}#chart-dc680146-725d-4023-a448-fe5eee09018b .legends .legend text{font-family:"monospace";font-size:14px}#chart-dc680146-725d-4023-a448-fe5eee09018b .axis text{font-family:"monospace";font-size:10px}#chart-dc680146-725d-4023-a448-fe5eee09018b .axis text.major{font-family:"monospace";font-size:10px}#chart-dc680146-725d-4023-a448-fe5eee09018b .series text{font-family:"monospace";font-size:8px}#chart-dc680146-725d-4023-a448-fe5eee09018b .tooltip text{font-family:"monospace";font-size:16px}#chart-dc680146-725d-4023-a448-fe5eee09018b text.no_data{font-size:64px}
#chart-dc680146-725d-4023-a448-fe5eee09018b{background-color:black}#chart-dc680146-725d-4023-a448-fe5eee09018b path,#chart-dc680146-725d-4023-a448-fe5eee09018b line,#chart-dc680146-725d-4023-a448-fe5eee09018b rect,#chart-dc680146-725d-4023-a448-fe5eee09018b circle{-webkit-transition:250ms;-moz-transition:250ms;transition:250ms}#chart-dc680146-725d-4023-a448-fe5eee09018b .graph &gt; .background{fill:black}#chart-dc680146-725d-4023-a448-fe5eee09018b .plot &gt; .background{fill:#111}#chart-dc680146-725d-4023-a448-fe5eee09018b .graph{fill:#999}#chart-dc680146-725d-4023-a448-fe5eee09018b text.no_data{fill:#eee}#chart-dc680146-725d-4023-a448-fe5eee09018b .title{fill:#eee}#chart-dc680146-725d-4023-a448-fe5eee09018b .legends .legend text{fill:#999}#chart-dc680146-725d-4023-a448-fe5eee09018b .legends .legend:hover text{fill:#eee}#chart-dc680146-725d-4023-a448-fe5eee09018b .axis .line{stroke:#eee}#chart-dc680146-725d-4023-a448-fe5eee09018b .axis .guide.line{stroke:#555}#chart-dc680146-725d-4023-a448-fe5eee09018b .axis .major.line{stroke:#999}#chart-dc680146-725d-4023-a448-fe5eee09018b .axis text.major{stroke:#eee;fill:#eee}#chart-dc680146-725d-4023-a448-fe5eee09018b .axis.y .guides:hover .guide.line,#chart-dc680146-725d-4023-a448-fe5eee09018b .line-graph .axis.x .guides:hover .guide.line,#chart-dc680146-725d-4023-a448-fe5eee09018b .stackedline-graph .axis.x .guides:hover .guide.line,#chart-dc680146-725d-4023-a448-fe5eee09018b .xy-graph .axis.x .guides:hover .guide.line{stroke:#eee}#chart-dc680146-725d-4023-a448-fe5eee09018b .axis .guides:hover text{fill:#eee}#chart-dc680146-725d-4023-a448-fe5eee09018b .reactive{fill-opacity:.8}#chart-dc680146-725d-4023-a448-fe5eee09018b .reactive.active,#chart-dc680146-725d-4023-a448-fe5eee09018b .active .reactive{fill-opacity:.4}#chart-dc680146-725d-4023-a448-fe5eee09018b .series{stroke-width:1.0;stroke-linejoin:round;stroke-linecap:round;stroke-dasharray:0,0}#chart-dc680146-725d-4023-a448-fe5eee09018b .series text{fill:#eee}#chart-dc680146-725d-4023-a448-fe5eee09018b .tooltip rect{fill:#111;stroke:#eee}#chart-dc680146-725d-4023-a448-fe5eee09018b .tooltip text{fill:#eee}#chart-dc680146-725d-4023-a448-fe5eee09018b .map-element{fill:#999;stroke:#555 !important;opacity:.9;stroke-width:3;-webkit-transition:250ms;-moz-transition:250ms;-o-transition:250ms;transition:250ms}#chart-dc680146-725d-4023-a448-fe5eee09018b .map-element:hover{opacity:1;stroke-width:10}#chart-dc680146-725d-4023-a448-fe5eee09018b .color-0,#chart-dc680146-725d-4023-a448-fe5eee09018b .color-0 a:visited{stroke:#ff5995;fill:#ff5995}#chart-dc680146-725d-4023-a448-fe5eee09018b .color-1,#chart-dc680146-725d-4023-a448-fe5eee09018b .color-1 a:visited{stroke:#b6e354;fill:#b6e354}#chart-dc680146-725d-4023-a448-fe5eee09018b .color-2,#chart-dc680146-725d-4023-a448-fe5eee09018b .color-2 a:visited{stroke:#feed6c;fill:#feed6c}#chart-dc680146-725d-4023-a448-fe5eee09018b .color-3,#chart-dc680146-725d-4023-a448-fe5eee09018b .color-3 a:visited{stroke:#8cedff;fill:#8cedff}#chart-dc680146-725d-4023-a448-fe5eee09018b .color-4,#chart-dc680146-725d-4023-a448-fe5eee09018b .color-4 a:visited{stroke:#9e6ffe;fill:#9e6ffe}#chart-dc680146-725d-4023-a448-fe5eee09018b .color-5,#chart-dc680146-725d-4023-a448-fe5eee09018b .color-5 a:visited{stroke:#899ca1;fill:#899ca1}#chart-dc680146-725d-4023-a448-fe5eee09018b .color-6,#chart-dc680146-725d-4023-a448-fe5eee09018b .color-6 a:visited{stroke:#f8f8f2;fill:#f8f8f2}#chart-dc680146-725d-4023-a448-fe5eee09018b .color-7,#chart-dc680146-725d-4023-a448-fe5eee09018b .color-7 a:visited{stroke:#bf4646;fill:#bf4646}#chart-dc680146-725d-4023-a448-fe5eee09018b .color-8,#chart-dc680146-725d-4023-a448-fe5eee09018b .color-8 a:visited{stroke:#516083;fill:#516083}#chart-dc680146-725d-4023-a448-fe5eee09018b .color-9,#chart-dc680146-725d-4023-a448-fe5eee09018b .color-9 a:visited{stroke:#f92672;fill:#f92672}#chart-dc680146-725d-4023-a448-fe5eee09018b .color-10,#chart-dc680146-725d-4023-a448-fe5eee09018b .color-10 a:visited{stroke:#82b414;fill:#82b414}#chart-dc680146-725d-4023-a448-fe5eee09018b .color-11,#chart-dc680146-725d-4023-a448-fe5eee09018b .color-11 a:visited{stroke:#fd971f;fill:#fd971f}#chart-dc680146-725d-4023-a448-fe5eee09018b .color-12,#chart-dc680146-725d-4023-a448-fe5eee09018b .color-12 a:visited{stroke:#56c2d6;fill:#56c2d6}#chart-dc680146-725d-4023-a448-fe5eee09018b .color-13,#chart-dc680146-725d-4023-a448-fe5eee09018b .color-13 a:visited{stroke:#808384;fill:#808384}#chart-dc680146-725d-4023-a448-fe5eee09018b .color-14,#chart-dc680146-725d-4023-a448-fe5eee09018b .color-14 a:visited{stroke:#8c54fe;fill:#8c54fe}#chart-dc680146-725d-4023-a448-fe5eee09018b .color-15,#chart-dc680146-725d-4023-a448-fe5eee09018b .color-15 a:visited{stroke:#465457;fill:#465457}
#chart-dc680146-725d-4023-a448-fe5eee09018b text.no_data{text-anchor:middle}#chart-dc680146-725d-4023-a448-fe5eee09018b .guide.line{fill-opacity:0}#chart-dc680146-725d-4023-a448-fe5eee09018b .centered{text-anchor:middle}#chart-dc680146-725d-4023-a448-fe5eee09018b .title{text-anchor:middle}#chart-dc680146-725d-4023-a448-fe5eee09018b .legends .legend text{fill-opacity:1}#chart-dc680146-725d-4023-a448-fe5eee09018b .axis.x text{text-anchor:middle}#chart-dc680146-725d-4023-a448-fe5eee09018b .axis.x:not(.web) text[transform]{text-anchor:start}#chart-dc680146-725d-4023-a448-fe5eee09018b .axis.y text{text-anchor:end}#chart-dc680146-725d-4023-a448-fe5eee09018b .axis.y2 text{text-anchor:start}#chart-dc680146-725d-4023-a448-fe5eee09018b .axis.y .logarithmic text:not(.major),#chart-dc680146-725d-4023-a448-fe5eee09018b .axis.y2 .logarithmic text:not(.major){font-size:50%}#chart-dc680146-725d-4023-a448-fe5eee09018b .axis .guide.line{stroke-dasharray:4,4}#chart-dc680146-725d-4023-a448-fe5eee09018b .axis .major.guide.line{stroke-dasharray:6,6}#chart-dc680146-725d-4023-a448-fe5eee09018b .axis text.major{stroke-width:0.5px}#chart-dc680146-725d-4023-a448-fe5eee09018b .horizontal .axis.y .guide.line,#chart-dc680146-725d-4023-a448-fe5eee09018b .horizontal .axis.y2 .guide.line,#chart-dc680146-725d-4023-a448-fe5eee09018b .vertical .axis.x .guide.line{opacity:0}#chart-dc680146-725d-4023-a448-fe5eee09018b .horizontal .axis.always_show .guide.line,#chart-dc680146-725d-4023-a448-fe5eee09018b .vertical .axis.always_show .guide.line{opacity:1 !important}#chart-dc680146-725d-4023-a448-fe5eee09018b .axis.y .guides:hover .guide.line,#chart-dc680146-725d-4023-a448-fe5eee09018b .axis.y2 .guides:hover .guide.line,#chart-dc680146-725d-4023-a448-fe5eee09018b .axis.x .guides:hover .guide.line{opacity:1}#chart-dc680146-725d-4023-a448-fe5eee09018b .axis .guides:hover text{opacity:1}#chart-dc680146-725d-4023-a448-fe5eee09018b .nofill{fill:none}#chart-dc680146-725d-4023-a448-fe5eee09018b .subtle-fill{fill-opacity:.2}#chart-dc680146-725d-4023-a448-fe5eee09018b .dot{stroke-width:1px;fill-opacity:1}#chart-dc680146-725d-4023-a448-fe5eee09018b .dot.active{stroke-width:5px}#chart-dc680146-725d-4023-a448-fe5eee09018b .series text{stroke:none}#chart-dc680146-725d-4023-a448-fe5eee09018b .series text.active{opacity:1}#chart-dc680146-725d-4023-a448-fe5eee09018b .tooltip rect{fill-opacity:0.8}#chart-dc680146-725d-4023-a448-fe5eee09018b .tooltip text{fill-opacity:1}#chart-dc680146-725d-4023-a448-fe5eee09018b .tooltip text tspan.label{fill-opacity:.8}</style><script type="text/javascript">window.config = {"include_x_axis": false, "pretty_print": false, "show_y_labels": true, "stack_from_top": false, "order_min": null, "human_readable": false, "rounded_bars": null, "disable_xml_declaration": false, "no_data_text": "No data", "height": 768, "title_font_size": 16, "show_y_guides": true, "interpolation_parameters": {}, "truncate_label": null, "tooltip_border_radius": 0, "x_label_format": "%Y-%m-%d %H:%M:%S.%f", "no_prefix": false, "y_labels_major_every": null, "show_only_major_dots": false, "show_minor_y_labels": true, "interpolate": null, "title": "Election 3 Participation Per Hour", "legend_at_bottom": true, "xrange": null, "y_labels_major": null, "x_labels_major": null, "zero": 0, "x_labels_major_every": null, "print_values": false, "explicit_size": false, "y_title": "Users", "x_title": null, "interpolation_precision": 250, "x_value_formatter": null, "width": 1024, "half_pie": false, "no_data_font_size": 64, "fill": false, "show_legend": true, "x_label_rotation": 0, "legend_box_size": 12, "js": ["http://kozea.github.io/pygal.js/javascripts/svg.jquery.js", "http://kozea.github.io/pygal.js/javascripts/pygal-tooltips.js"], "logarithmic": false, "show_dots": false, "show_x_labels": true, "print_zeroes": false, "truncate_legend": null, "missing_value_fill_truncation": "x", "tooltip_font_size": 16, "margin_right": null, "style": {"stroke_style": "round", "transition": "250ms", "colors": ["#ff5995", "#b6e354", "#feed6c", "#8cedff", "#9e6ffe", "#899ca1", "#f8f8f2", "#bf4646", "#516083", "#f92672", "#82b414", "#fd971f", "#56c2d6", "#808384", "#8c54fe", "#465457"], "stroke_dasharray": "0,0", "foreground": "#999", "foreground_light": "#eee", "font_family": "monospace", "opacity": ".8", "opacity_hover": ".4", "background": "black", "plot_background": "#111", "foreground_dark": "#555", "stroke_width": 1.0}, "value_font_size": 8, "legend_at_bottom_columns": null, "margin_bottom": null, "margin_left": null, "mode": null, "spacing": 10, "legend_font_size": 14, "css": ["style.css", "graph.css"], "y_labels_major_count": null, "y_label_rotation": 0, "label_font_size": 10, "range": [0, 1000], "show_x_guides": false, "inner_radius": 0, "major_label_font_size": 10, "stroke": true, "margin_top": null, "show_minor_x_labels": true, "x_labels": null, "margin": 20, "x_labels_major_count": null, "strict": false, "y_labels": null, "dots_size": 2.5}</script><script type="text/javascript" xlink:href="http://kozea.github.io/pygal.js/javascripts/svg.jquery.js" /><script type="text/javascript" xlink:href="http://kozea.github.io/pygal.js/javascripts/pygal-tooltips.js" /></defs><title>Election 3 Participation Per Hour</title><g class="graph line-graph vertical"><rect class="background" height="768" width="1024" x="0" y="0" /><g class="plot" transform="translate(80, 46)"><rect class="background" height="657.0" width="924.0" x="0" y="0" /><g class="axis y"><g class="guides"><path class="axis major line" d="M0.000000 644.365385 h924.000000" /><text class="major" x="-5" y="647.8653846153846">0</text></g><g class="guides"><path class="guide line" d="M0.000000 581.192308 h924.000000" /><text class="" x="-5" y="584.6923076923077">100</text></g><g class="guides"><path class="guide line" d="M0.000000 518.019231 h924.000000" /><text class="" x="-5" y="521.5192307692307">200</text></g><g class="guides"><path class="guide line" d="M0.000000 454.846154 h924.000000" /><text class="" x="-5" y="458.3461538461538">300</text></g><g class="guides"><path class="guide line" d="M0.000000 391.673077 h924.000000" /><text class="" x="-5" y="395.1730769230769">400</text></g><g class="guides"><path class="major guide line" d="M0.000000 328.500000 h924.000000" /><text class="major" x="-5" y="332.0">500</text></g><g class="guides"><path class="guide line" d="M0.000000 265.326923 h924.000000" /><text class="" x="-5" y="268.8269230769231">600</text></g><g class="guides"><path class="guide line" d="M0.000000 202.153846 h924.000000" /><text class="" x="-5" y="205.65384615384613">700</text></g><g class="guides"><path class="guide line" d="M0.000000 138.980769 h924.000000" /><text class="" x="-5" y="142.48076923076928">800</text></g><g class="guides"><path class="guide line" d="M0.000000 75.807692 h924.000000" /><text class="" x="-5" y="79.30769230769226">900</text></g><g class="guides"><path class="major guide line" d="M0.000000 12.634615 h924.000000" /><text class="major" x="-5" y="16.13461538461536">1000</text></g></g><g class="series serie-0 color-0"><path class="line reactive nofill" d="M17.769231 644.365385 L20.413462 644.365385 23.057692 644.365385 25.701923 644.365385 28.346154 644.365385 30.990385 644.365385 33.634615 644.365385 36.278846 644.365385 38.923077 644.365385 41.567308 644.365385 44.211538 644.365385 46.855769 644.365385 49.500000 644.365385 52.144231 644.365385 54.788462 644.365385 57.432692 644.365385 60.076923 644.365385 62.721154 644.365385 65.365385 644.365385 68.009615 644.365385 70.653846 644.365385 73.298077 644.365385 75.942308 644.365385 78.586538 644.365385 81.230769 644.365385 83.875000 644.365385 86.519231 644.365385 89.163462 644.365385 91.807692 644.365385 94.451923 644.365385 97.096154 644.365385 99.740385 644.365385 102.384615 644.365385 105.028846 644.365385 107.673077 644.365385 110.317308 644.365385 112.961538 644.365385 115.605769 644.365385 118.250000 644.365385 120.894231 644.365385 123.538462 644.365385 126.182692 644.365385 128.826923 644.365385 131.471154 644.365385 134.115385 644.365385 136.759615 644.365385 139.403846 644.365385 142.048077 644.365385 144.692308 644.365385 147.336538 644.365385 149.980769 644.365385 152.625000 644.365385 155.269231 644.365385 157.913462 644.365385 160.557692 644.365385 163.201923 644.365385 165.846154 644.365385 168.490385 644.365385 171.134615 644.365385 173.778846 644.365385 176.423077 644.365385 179.067308 644.365385 181.711538 644.365385 184.355769 644.365385 187.000000 644.365385 189.644231 644.365385 192.288462 644.365385 194.932692 644.365385 197.576923 644.365385 200.221154 644.365385 202.865385 644.365385 205.509615 644.365385 208.153846 644.365385 210.798077 644.365385 213.442308 644.365385 216.086538 644.365385 218.730769 644.365385 221.375000 644.365385 224.019231 644.365385 226.663462 644.365385 229.307692 644.365385 231.951923 644.365385 234.596154 644.365385 237.240385 644.365385 239.884615 644.365385 242.528846 644.365385 245.173077 644.365385 247.817308 644.365385 250.461538 644.365385 253.105769 644.365385 255.750000 644.365385 258.394231 644.365385 261.038462 644.365385 263.682692 644.365385 266.326923 644.365385 268.971154 644.365385 271.615385 644.365385 274.259615 644.365385 276.903846 644.365385 279.548077 644.365385 282.192308 644.365385 284.836538 644.365385 287.480769 644.365385 290.125000 644.365385 292.769231 644.365385 295.413462 644.365385 298.057692 644.365385 300.701923 644.365385 303.346154 644.365385 305.990385 644.365385 308.634615 644.365385 311.278846 644.365385 313.923077 644.365385 316.567308 644.365385 319.211538 644.365385 321.855769 644.365385 324.500000 644.365385 327.144231 644.365385 329.788462 644.365385 332.432692 644.365385 335.076923 644.365385 337.721154 644.365385 340.365385 644.365385 343.009615 644.365385 345.653846 644.365385 348.298077 644.365385 350.942308 644.365385 353.586538 644.365385 356.230769 644.365385 358.875000 644.365385 361.519231 644.365385 364.163462 644.365385 366.807692 644.365385 369.451923 644.365385 372.096154 644.365385 374.740385 644.365385 377.384615 644.365385 380.028846 644.365385 382.673077 644.365385 385.317308 644.365385 387.961538 644.365385 390.605769 644.365385 393.250000 644.365385 395.894231 644.365385 398.538462 644.365385 401.182692 644.365385 403.826923 644.365385 406.471154 644.365385 409.115385 644.365385 411.759615 644.365385 414.403846 644.365385 417.048077 644.365385 419.692308 644.365385 422.336538 644.365385 424.980769 644.365385 427.625000 644.365385 430.269231 644.365385 432.913462 644.365385 435.557692 644.365385 438.201923 644.365385 440.846154 644.365385 443.490385 644.365385 446.134615 644.365385 448.778846 644.365385 451.423077 588.773077 454.067308 425.786538 456.711538 551.500962 459.355769 593.826923 462.000000 609.620192 464.644231 620.991346 467.288462 619.096154 469.932692 624.150000 472.576923 622.254808 475.221154 617.200962 477.865385 623.518269 480.509615 613.410577 483.153846 612.778846 485.798077 616.569231 488.442308 608.988462 491.086538 610.883654 493.730769 620.359615 496.375000 610.883654 499.019231 614.042308 501.663462 620.991346 504.307692 613.410577 506.951923 615.937500 509.596154 616.569231 512.240385 627.308654 514.884615 615.937500 517.528846 621.623077 520.173077 622.254808 522.817308 620.359615 525.461538 634.257692 528.105769 632.994231 530.750000 638.679808 533.394231 635.521154 536.038462 629.835577 538.682692 634.889423 541.326923 630.467308 543.971154 629.835577 546.615385 626.045192 549.259615 627.308654 551.903846 624.150000 554.548077 626.676923 557.192308 631.099038 559.836538 628.572115 562.480769 622.886538 565.125000 626.676923 567.769231 627.308654 570.413462 619.727885 573.057692 624.150000 575.701923 631.099038 578.346154 631.099038 580.990385 631.099038 583.634615 622.886538 586.278846 632.994231 588.923077 632.362500 591.567308 633.625962 594.211538 632.362500 596.855769 632.362500 599.500000 630.467308 602.144231 626.045192 604.788462 610.883654 607.432692 612.147115 610.076923 609.620192 612.721154 590.036538 615.365385 600.775962 618.009615 595.090385 620.653846 593.195192 623.298077 589.404808 625.942308 590.668269 628.586538 587.509615 631.230769 608.988462 633.875000 605.829808 636.519231 612.778846 639.163462 620.359615 641.807692 616.569231 644.451923 612.147115 647.096154 617.200962 649.740385 625.413462 652.384615 626.045192 655.028846 634.257692 657.673077 636.152885 660.317308 636.152885 662.961538 634.257692 665.605769 629.835577 668.250000 628.572115 670.894231 615.937500 673.538462 622.886538 676.182692 612.147115 678.826923 606.461538 681.471154 614.042308 684.115385 615.937500 686.759615 611.515385 689.403846 610.251923 692.048077 615.305769 694.692308 608.988462 697.336538 610.883654 699.980769 608.988462 702.625000 605.198077 705.269231 602.671154 707.913462 644.365385 710.557692 644.365385 713.201923 644.365385 715.846154 644.365385 718.490385 644.365385 721.134615 644.365385 723.778846 644.365385 726.423077 644.365385 729.067308 644.365385 731.711538 644.365385 734.355769 644.365385 737.000000 644.365385 739.644231 644.365385 742.288462 644.365385 744.932692 644.365385 747.576923 644.365385 750.221154 644.365385 752.865385 644.365385 755.509615 644.365385 758.153846 644.365385 760.798077 644.365385 763.442308 644.365385 766.086538 644.365385 768.730769 644.365385 771.375000 644.365385 774.019231 644.365385 776.663462 644.365385 779.307692 644.365385 781.951923 644.365385 784.596154 644.365385 787.240385 644.365385 789.884615 644.365385 792.528846 644.365385 795.173077 644.365385 797.817308 644.365385 800.461538 644.365385 803.105769 644.365385 805.750000 644.365385 808.394231 644.365385 811.038462 644.365385 813.682692 644.365385 816.326923 644.365385 818.971154 644.365385 821.615385 644.365385 824.259615 644.365385 826.903846 644.365385 829.548077 644.365385 832.192308 644.365385 834.836538 644.365385 837.480769 644.365385 840.125000 644.365385 842.769231 644.365385 845.413462 644.365385 848.057692 644.365385 850.701923 644.365385 853.346154 644.365385 855.990385 644.365385 858.634615 644.365385 861.278846 644.365385 863.923077 644.365385 866.567308 644.365385 869.211538 644.365385 871.855769 644.365385 874.500000 644.365385 877.144231 644.365385 879.788462 644.365385 882.432692 644.365385 885.076923 644.365385 887.721154 644.365385 890.365385 644.365385 893.009615 644.365385 895.653846 644.365385 898.298077 644.365385 900.942308 644.365385 903.586538 644.365385 906.230769 644.365385" /></g><g class="series serie-1 color-1"><path class="line reactive nofill" d="M17.769231 -1825.701923 L20.413462 601.407692 23.057692 613.410577 25.701923 619.727885 28.346154 612.147115 30.990385 616.569231 33.634615 618.464423 36.278846 621.623077 38.923077 609.620192 41.567308 608.988462 44.211538 612.147115 46.855769 598.880769 49.500000 607.093269 52.144231 614.042308 54.788462 612.147115 57.432692 612.778846 60.076923 607.725000 62.721154 607.093269 65.365385 615.305769 68.009615 617.200962 70.653846 619.096154 73.298077 618.464423 75.942308 617.832692 78.586538 622.886538 81.230769 624.781731 83.875000 631.099038 86.519231 633.625962 89.163462 628.572115 91.807692 630.467308 94.451923 628.572115 97.096154 634.889423 99.740385 625.413462 102.384615 622.254808 105.028846 624.150000 107.673077 626.045192 110.317308 623.518269 112.961538 622.886538 115.605769 624.150000 118.250000 623.518269 120.894231 622.886538 123.538462 622.886538 126.182692 625.413462 128.826923 619.096154 131.471154 616.569231 134.115385 622.886538 136.759615 617.832692 139.403846 614.674038 142.048077 624.781731 144.692308 627.940385 147.336538 626.045192 149.980769 632.994231 152.625000 627.940385 155.269231 622.886538 157.913462 626.676923 160.557692 618.464423 163.201923 619.727885 165.846154 599.512500 168.490385 598.249038 171.134615 609.620192 173.778846 605.198077 176.423077 593.195192 179.067308 595.722115 181.711538 580.560577 184.355769 584.350962 187.000000 588.773077 189.644231 605.198077 192.288462 606.461538 194.932692 613.410577 197.576923 586.877885 200.221154 53.065385 202.865385 344.925000 205.509615 492.750000 208.153846 539.498077 210.798077 548.342308 213.442308 568.557692 216.086538 566.030769 218.730769 564.767308 221.375000 506.648077 224.019231 499.067308 226.663462 442.211538 229.307692 446.633654 231.951923 441.579808 234.596154 472.534615 237.240385 485.169231 239.884615 511.070192 242.528846 486.432692 245.173077 485.169231 247.817308 513.597115 250.461538 523.073077 253.105769 547.710577 255.750000 542.025000 258.394231 558.450000 261.038462 568.557692 263.682692 572.979808 266.326923 581.192308 268.971154 598.880769 271.615385 617.200962 274.259615 615.305769 276.903846 620.359615 279.548077 619.096154 282.192308 614.674038 284.836538 610.251923 287.480769 599.512500 290.125000 582.455769 292.769231 576.770192 295.413462 568.557692 298.057692 578.665385 300.701923 583.087500 303.346154 584.350962 305.990385 560.345192 308.634615 572.348077 311.278846 583.719231 313.923077 584.982692 316.567308 607.093269 319.211538 602.039423 321.855769 591.300000 324.500000 592.563462 327.144231 601.407692 329.788462 603.934615 332.432692 613.410577 335.076923 620.359615 337.721154 631.099038 340.365385 629.203846 343.009615 632.362500 345.653846 631.099038 348.298077 619.727885 350.942308 611.515385 353.586538 608.988462 356.230769 605.829808 358.875000 610.883654 361.519231 595.722115 364.163462 605.829808 366.807692 603.934615 369.451923 598.249038 372.096154 605.198077 374.740385 588.773077 377.384615 609.620192 380.028846 605.829808 382.673077 614.042308 385.317308 618.464423 387.961538 613.410577 390.605769 617.832692 393.250000 619.096154 395.894231 621.623077 398.538462 632.362500 401.182692 637.416346 403.826923 632.994231 406.471154 636.784615 409.115385 633.625962 411.759615 631.730769 414.403846 626.045192 417.048077 616.569231 419.692308 620.359615 422.336538 618.464423 424.980769 614.674038 427.625000 617.200962 430.269231 619.727885 432.913462 609.620192 435.557692 619.727885 438.201923 614.042308 440.846154 615.937500 443.490385 622.886538 446.134615 615.937500 448.778846 632.362500 451.423077 610.251923 454.067308 550.869231 456.711538 606.461538 459.355769 623.518269 462.000000 632.362500 464.644231 632.994231 467.288462 632.994231 469.932692 630.467308 472.576923 631.730769 475.221154 637.416346 477.865385 635.521154 480.509615 631.730769 483.153846 634.889423 485.798077 632.362500 488.442308 634.257692 491.086538 629.203846 493.730769 632.994231 496.375000 626.676923 499.019231 632.994231 501.663462 630.467308 504.307692 634.257692 506.951923 632.994231 509.596154 632.362500 512.240385 631.099038 514.884615 632.362500 517.528846 634.257692 520.173077 629.203846 522.817308 634.889423 525.461538 636.784615 528.105769 638.048077 530.750000 638.679808 533.394231 639.311538 536.038462 638.679808 538.682692 638.679808 541.326923 639.943269 543.971154 638.679808 546.615385 636.784615 549.259615 638.679808 551.903846 634.257692 554.548077 634.889423 557.192308 637.416346 559.836538 633.625962 562.480769 632.994231 565.125000 636.152885 567.769231 632.362500 570.413462 628.572115 573.057692 635.521154 575.701923 636.152885 578.346154 634.257692 580.990385 636.152885 583.634615 636.152885 586.278846 637.416346 588.923077 640.575000 591.567308 634.889423 594.211538 637.416346 596.855769 636.784615 599.500000 636.784615 602.144231 634.889423 604.788462 627.308654 607.432692 629.835577 610.076923 621.623077 612.721154 615.937500 615.365385 623.518269 618.009615 619.096154 620.653846 617.200962 623.298077 612.778846 625.942308 615.305769 628.586538 619.727885 631.230769 619.727885 633.875000 624.781731 636.519231 624.781731 639.163462 625.413462 641.807692 626.676923 644.451923 625.413462 647.096154 631.099038 649.740385 631.099038 652.384615 636.152885 655.028846 638.679808 657.673077 637.416346 660.317308 641.206731 662.961538 636.152885 665.605769 634.889423 668.250000 636.784615 670.894231 624.781731 673.538462 631.099038 676.182692 626.045192 678.826923 624.150000 681.471154 627.308654 684.115385 622.254808 686.759615 619.727885 689.403846 624.781731 692.048077 620.359615 694.692308 620.991346 697.336538 621.623077 699.980769 624.781731 702.625000 623.518269 705.269231 622.886538 707.913462 644.365385 710.557692 644.365385 713.201923 644.365385 715.846154 644.365385 718.490385 644.365385 721.134615 644.365385 723.778846 644.365385 726.423077 644.365385 729.067308 644.365385 731.711538 644.365385 734.355769 644.365385 737.000000 644.365385 739.644231 644.365385 742.288462 644.365385 744.932692 644.365385 747.576923 644.365385 750.221154 644.365385 752.865385 644.365385 755.509615 644.365385 758.153846 644.365385 760.798077 644.365385 763.442308 644.365385 766.086538 644.365385 768.730769 644.365385 771.375000 644.365385 774.019231 644.365385 776.663462 644.365385 779.307692 644.365385 781.951923 644.365385 784.596154 644.365385 787.240385 644.365385 789.884615 644.365385 792.528846 644.365385 795.173077 644.365385 797.817308 644.365385 800.461538 644.365385 803.105769 644.365385 805.750000 644.365385 808.394231 644.365385 811.038462 644.365385 813.682692 644.365385 816.326923 644.365385 818.971154 644.365385 821.615385 644.365385 824.259615 644.365385 826.903846 644.365385 829.548077 644.365385 832.192308 643.733654 834.836538 644.365385 837.480769 644.365385 840.125000 644.365385 842.769231 644.365385 845.413462 644.365385 848.057692 644.365385 850.701923 644.365385 853.346154 644.365385 855.990385 644.365385 858.634615 644.365385 861.278846 644.365385 863.923077 644.365385 866.567308 644.365385 869.211538 644.365385 871.855769 644.365385 874.500000 644.365385 877.144231 643.733654 879.788462 644.365385 882.432692 644.365385 885.076923 644.365385 887.721154 644.365385 890.365385 644.365385 893.009615 644.365385 895.653846 644.365385 898.298077 644.365385 900.942308 644.365385 903.586538 644.365385 906.230769 644.365385" /></g></g><g class="titles"><text class="title plot_title" x="512.0" y="26">Election 3 Participation Per Hour</text><text class="title" transform="rotate(-90 0.000000 374.500000)" x="0" y="400.5">Users</text></g><g class="plot overlay" transform="translate(80, 46)"><g class="series serie-0 color-0" /><g class="series serie-1 color-1" /></g><g class="plot text-overlay" transform="translate(80, 46)"><g class="series serie-0 color-0" /><g class="series serie-1 color-1" /></g><g class="plot tooltip-overlay" transform="translate(80, 46)"><g class="tooltip" style="opacity: 0" transform="translate(0 0)"><a><rect class="tooltip-box" height="0" rx="0" ry="0" width="0" /><text class="text"><tspan class="label" /><tspan class="value" /></text></a></g></g><g class="legends" transform="translate(90, 713)"><g class="legend reactive activate-serie" id="activate-serie-0"><rect class="color-0 reactive" height="12" width="12" x="0.0" y="1.0" /><text x="17.0" y="11.2">constituents</text></g><g class="legend reactive activate-serie" id="activate-serie-1"><rect class="color-1 reactive" height="12" width="12" x="462.0" y="1.0" /><text x="479.0" y="11.2">caucus</text></g></g></g></svg>