<?xml version='1.0' encoding='utf-8'?>
<svg xmlns:xlink="http://www.w3.org/1999/xlink" class="pygal-chart" id="chart-61f8e3b6-ccf9-4b7a-b723-976fd01558b5" viewBox="0 0 1024 768" xmlns="http://www.w3.org/2000/svg"><!--Generated with pygal 1.7.0 (etree) ©Kozea 2011-2014 on 2015-04-21--><!--http://pygal.org--><!--http://github.com/Kozea/pygal--><defs><style type="text/css">#chart-61f8e3b6-ccf9-4b7a-b723-976fd01558b5 .title{font-family:"monospace";font-size:16px}#chart-61f8e3b6-ccf9-4b7a-b723-976fd01558b5 .legends .legend text{font-family:"monospace";font-size:14px}#chart-61f8e3b6-ccf9-4b7a-b723-976fd01558b5 .axis text{font-family:"monospace";font-size:10px}#chart-61f8e3b6-ccf9-4b7a-b723-976fd01558b5 .axis text.major{font-family:"monospace";font-size:10px}#chart-61f8e3b6-ccf9-4b7a-b723-976fd01558b5 .series text{font-family:"monospace";font-size:8px}#chart-61f8e3b6-ccf9-4b7a-b723-976fd01558b5 .tooltip text{font-family:"monospace";font-size:16px}#chart-61f8e3b6-ccf9-4b7a-b723-976fd01558b5 text.no_data{font-size:64px}
#chart-61f8e3b6-ccf9-4b7a-b723-976fd01558b5{background-color:black}#chart-61f8e3b6-ccf9-4b7a-b723-976fd01558b5 path,#chart-61f8e3b6-ccf9-4b7a-b723-976fd01558b5 line,#chart-61f8e3b6-ccf9-4b7a-b723-976fd01558b5 rect,#chart-61f8e3b6-ccf9-4b7a-b723-976fd01558b5 circle{-webkit-transition:250ms;-moz-transition:250ms;transition:250ms}#chart-61f8e3b6-ccf9-4b7a-b723-976fd01558b5 .graph &gt; .background{fill:black}#chart-61f8e3b6-ccf9-4b7a-b723-976fd01558b5 .plot &gt; .background{fill:#111}#chart-61f8e3b6-ccf9-4b7a-b723-976fd01558b5 .graph{fill:#999}#chart-61f8e3b6-ccf9-4b7a-b723-976fd01558b5 text.no_data{fill:#eee}#chart-61f8e3b6-ccf9-4b7a-b723-976fd01558b5 .title{fill:#eee}#chart-61f8e3b6-ccf9-4b7a-b723-976fd01558b5 .legends .legend text{fill:#999}#chart-61f8e3b6-ccf9-4b7a-b723-976fd01558b5 .legends .legend:hover text{fill:#eee}#chart-61f8e3b6-ccf9-4b7a-b723-976fd01558b5 .axis .line{stroke:#eee}#chart-61f8e3b6-ccf9-4b7a-b723-976fd01558b5 .axis .guide.line{stroke:#555}#chart-61f8e3b6-ccf9-4b7a-b723-976fd01558b5 .axis .major.line{stroke:#999}#chart-61f8e3b6-ccf9-4b7a-b723-976fd01558b5 .axis text.major{stroke:#eee;fill:#eee}#chart-61f8e3b6-ccf9-4b7a-b723-976fd01558b5 .axis.y .guides:hover .guide.line,#chart-61f8e3b6-ccf9-4b7a-b723-976fd01558b5 .line-graph .axis.x .guides:hover .guide.line,#chart-61f8e3b6-ccf9-4b7a-b723-976fd01558b5 .stackedline-graph .axis.x .guides:hover .guide.line,#chart-61f8e3b6-ccf9-4b7a-b723-976fd01558b5 .xy-graph .axis.x .guides:hover .guide.line{stroke:#eee}#chart-61f8e3b6-ccf9-4b7a-b723-976fd01558b5 .axis .guides:hover text{fill:#eee}#chart-61f8e3b6-ccf9-4b7a-b723-976fd01558b5 .reactive{fill-opacity:.8}#chart-61f8e3b6-ccf9-4b7a-b723-976fd01558b5 .reactive.active,#chart-61f8e3b6-ccf9-4b7a-b723-976fd01558b5 .active .reactive{fill-opacity:.4}#chart-61f8e3b6-ccf9-4b7a-b723-976fd01558b5 .series{stroke-width:1.0;stroke-linejoin:round;stroke-linecap:round;stroke-dasharray:0,0}#chart-61f8e3b6-ccf9-4b7a-b723-976fd01558b5 .series text{fill:#eee}#chart-61f8e3b6-ccf9-4b7a-b723-976fd01558b5 .tooltip rect{fill:#111;stroke:#eee}#chart-61f8e3b6-ccf9-4b7a-b723-976fd01558b5 .tooltip text{fill:#eee}#chart-61f8e3b6-ccf9-4b7a-b723-976fd01558b5 .map-element{fill:#999;stroke:#555 !important;opacity:.9;stroke-width:3;-webkit-transition:250ms;-moz-transition:250ms;-o-transition:250ms;transition:250ms}#chart-61f8e3b6-ccf9-4b7a-b723-976fd01558b5 .map-element:hover{opacity:1;stroke-width:10}#chart-61f8e3b6-ccf9-4b7a-b723-976fd01558b5 .color-0,#chart-61f8e3b6-ccf9-4b7a-b723-976fd01558b5 .color-0 a:visited{stroke:#ff5995;fill:#ff5995}#chart-61f8e3b6-ccf9-4b7a-b723-976fd01558b5 .color-1,#chart-61f8e3b6-ccf9-4b7a-b723-976fd01558b5 .color-1 a:visited{stroke:#b6e354;fill:#b6e354}#chart-61f8e3b6-ccf9-4b7a-b723-976fd01558b5 .color-2,#chart-61f8e3b6-ccf9-4b7a-b723-976fd01558b5 .color-2 a:visited{stroke:#feed6c;fill:#feed6c}#chart-61f8e3b6-ccf9-4b7a-b723-976fd01558b5 .color-3,#chart-61f8e3b6-ccf9-4b7a-b723-976fd01558b5 .color-3 a:visited{stroke:#8cedff;fill:#8cedff}#chart-61f8e3b6-ccf9-4b7a-b723-976fd01558b5 .color-4,#chart-61f8e3b6-ccf9-4b7a-b723-976fd01558b5 .color-4 a:visited{stroke:#9e6ffe;fill:#9e6ffe}#chart-61f8e3b6-ccf9-4b7a-b723-976fd01558b5 .color-5,#chart-61f8e3b6-ccf9-4b7a-b723-976fd01558b5 .color-5 a:visited{stroke:#899ca1;fill:#899ca1}#chart-61f8e3b6-ccf9-4b7a-b723-976fd01558b5 .color-6,#chart-61f8e3b6-ccf9-4b7a-b723-976fd01558b5 .color-6 a:visited{stroke:#f8f8f2;fill:#f8f8f2}#chart-61f8e3b6-ccf9-4b7a-b723-976fd01558b5 .color-7,#chart-61f8e3b6-ccf9-4b7a-b723-976fd01558b5 .color-7 a:visited{stroke:#bf4646;fill:#bf4646}#chart-61f8e3b6-ccf9-4b7a-b723-976fd01558b5 .color-8,#chart-61f8e3b6-ccf9-4b7a-b723-976fd01558b5 .color-8 a:visited{stroke:#516083;fill:#516083}#chart-61f8e3b6-ccf9-4b7a-b723-976fd01558b5 .color-9,#chart-61f8e3b6-ccf9-4b7a-b723-976fd01558b5 .color-9 a:visited{stroke:#f92672;fill:#f92672}#chart-61f8e3b6-ccf9-4b7a-b723-976fd01558b5 .color-10,#chart-61f8e3b6-ccf9-4b7a-b723-976fd01558b5 .color-10 a:visited{stroke:#82b414;fill:#82b414}#chart-61f8e3b6-ccf9-4b7a-b723-976fd01558b5 .color-11,#chart-61f8e3b6-ccf9-4b7a-b723-976fd01558b5 .color-11 a:visited{stroke:#fd971f;fill:#fd971f}#chart-61f8e3b6-ccf9-4b7a-b723-976fd01558b5 .color-12,#chart-61f8e3b6-ccf9-4b7a-b723-976fd01558b5 .color-12 a:visited{stroke:#56c2d6;fill:#56c2d6}#chart-61f8e3b6-ccf9-4b7a-b723-976fd01558b5 .color-13,#chart-61f8e3b6-ccf9-4b7a-b723-976fd01558b5 .color-13 a:visited{stroke:#808384;fill:#808384}#chart-61f8e3b6-ccf9-4b7a-b723-976fd01558b5 .color-14,#chart-61f8e3b6-ccf9-4b7a-b723-976fd01558b5 .color-14 a:visited{stroke:#8c54fe;fill:#8c54fe}#chart-61f8e3b6-ccf9-4b7a-b723-976fd01558b5 .color-15,#chart-61f8e3b6-ccf9-4b7a-b723-976fd01558b5 .color-15 a:visited{stroke:#465457;fill:#465457}
#chart-61f8e3b6-ccf9-4b7a-b723-976fd01558b5 text.no_data{text-anchor:middle}#chart-61f8e3b6-ccf9-4b7a-b723-976fd01558b5 .guide.line{fill-opacity:0}#chart-61f8e3b6-ccf9-4b7a-b723-976fd01558b5 .centered{text-anchor:middle}#chart-61f8e3b6-ccf9-4b7a-b723-976fd01558b5 .title{text-anchor:middle}#chart-61f8e3b6-ccf9-4b7a-b723-976fd01558b5 .legends .legend text{fill-opacity:1}#chart-61f8e3b6-ccf9-4b7a-b723-976fd01558b5 .axis.x text{text-anchor:middle}#chart-61f8e3b6-ccf9-4b7a-b723-976fd01558b5 .axis.x:not(.web) text[transform]{text-anchor:start}#chart-61f8e3b6-ccf9-4b7a-b723-976fd01558b5 .axis.y text{text-anchor:end}#chart-61f8e3b6-ccf9-4b7a-b723-976fd01558b5 .axis.y2 text{text-anchor:start}#chart-61f8e3b6-ccf9-4b7a-b723-976fd01558b5 .axis.y .logarithmic text:not(.major),#chart-61f8e3b6-ccf9-4b7a-b723-976fd01558b5 .axis.y2 .logarithmic text:not(.major){font-size:50%}#chart-61f8e3b6-ccf9-4b7a-b723-976fd01558b5 .axis .guide.line{stroke-dasharray:4,4}#chart-61f8e3b6-ccf9-4b7a-b723-976fd01558b5 .axis .major.guide.line{stroke-dasharray:6,6}#chart-61f8e3b6-ccf9-4b7a-b723-976fd01558b5 .axis text.major{stroke-width:0.5px}#chart-61f8e3b6-ccf9-4b7a-b723-976fd01558b5 .horizontal .axis.y .guide.line,#chart-61f8e3b6-ccf9-4b7a-b723-976fd01558b5 .horizontal .axis.y2 .guide.line,#chart-61f8e3b6-ccf9-4b7a-b723-976fd01558b5 .vertical .axis.x .guide.line{opacity:0}#chart-61f8e3b6-ccf9-4b7a-b723-976fd01558b5 .horizontal .axis.always_show .guide.line,#chart-61f8e3b6-ccf9-4b7a-b723-976fd01558b5 .vertical .axis.always_show .guide.line{opacity:1 !important}#chart-61f8e3b6-ccf9-4b7a-b723-976fd01558b5 .axis.y .guides:hover .guide.line,#chart-61f8e3b6-ccf9-4b7a-b723-976fd01558b5 .axis.y2 .guides:hover .guide.line,#chart-61f8e3b6-ccf9-4b7a-b723-976fd01558b5 .axis.x .guides:hover .guide.line{opacity:1}#chart-61f8e3b6-ccf9-4b7a-b723-976fd01558b5 .axis .guides:hover text{opacity:1}#chart-61f8e3b6-ccf9-4b7a-b723-976fd01558b5 .nofill{fill:none}#chart-61f8e3b6-ccf9-4b7a-b723-976fd01558b5 .subtle-fill{fill-opacity:.2}#chart-61f8e3b6-ccf9-4b7a-b723-976fd01558b5 .dot{stroke-width:1px;fill-opacity:1}#chart-61f8e3b6-ccf9-4b7a-b723-976fd01558b5 .dot.active{stroke-width:5px}#chart-61f8e3b6-ccf9-4b7a-b723-976fd01558b5 .series text{stroke:none}#chart-61f8e3b6-ccf9-4b7a-b723-976fd01558b5 .series text.active{opacity:1}#chart-61f8e3b6-ccf9-4b7a-b723-976fd01558b5 .tooltip rect{fill-opacity:0.8}#chart-61f8e3b6-ccf9-4b7a-b723-976fd01558b5 .tooltip text{fill-opacity:1}#chart-61f8e3b6-ccf9-4b7a-b723-976fd01558b5 .tooltip text tspan.label{fill-opacity:.8}</style><script type="text/javascript">window.config = {"half_pie": false, "logarithmic": false, "order_min": null, "show_y_labels": true, "js": ["http://kozea.github.io/pygal.js/javascripts/svg.jquery.js", "http://kozea.github.io/pygal.js/javascripts/pygal-tooltips.js"], "interpolation_parameters": {}, "margin_left": null, "range": null, "x_labels_major_count": null, "x_labels_major": null, "show_x_labels": true, "x_labels": null, "margin_right": null, "value_font_size": 8, "y_labels": null, "legend_at_bottom_columns": null, "spacing": 10, "zero": 0, "title_font_size": 16, "no_data_font_size": 64, "xrange": null, "x_value_formatter": null, "x_title": null, "pretty_print": false, "x_labels_major_every": null, "dots_size": 2.5, "legend_at_bottom": true, "show_legend": true, "y_labels_major": null, "y_title": "Users", "show_dots": false, "margin_top": null, "no_data_text": "No data", "y_labels_major_every": null, "mode": null, "width": 1024, "rounded_bars": null, "margin_bottom": null, "disable_xml_declaration": false, "no_prefix": false, "truncate_label": null, "human_readable": false, "title": "SO 6 and Math.SE 5 Participation", "stroke": true, "stack_from_top": false, "margin": 20, "interpolate": null, "x_label_rotation": 0, "missing_value_fill_truncation": "x", "legend_font_size": 14, "fill": false, "include_x_axis": false, "x_label_format": "%Y-%m-%d %H:%M:%S.%f", "style": {"font_family": "monospace", "stroke_dasharray": "0,0", "background": "black", "foreground_light": "#eee", "stroke_width": 1.0, "plot_background": "#111", "stroke_style": "round", "colors": ["#ff5995", "#b6e354", "#feed6c", "#8cedff", "#9e6ffe", "#899ca1", "#f8f8f2", "#bf4646", "#516083", "#f92672", "#82b414", "#fd971f", "#56c2d6", "#808384", "#8c54fe", "#465457"], "opacity": ".8", "foreground_dark": "#555", "transition": "250ms", "opacity_hover": ".4", "foreground": "#999"}, "interpolation_precision": 250, "show_y_guides": true, "show_only_major_dots": false, "show_minor_y_labels": true, "height": 768, "legend_box_size": 12, "explicit_size": false, "print_zeroes": false, "truncate_legend": null, "strict": false, "label_font_size": 10, "show_minor_x_labels": true, "y_labels_major_count": null, "tooltip_font_size": 16, "print_values": false, "show_x_guides": false, "major_label_font_size": 10, "css": ["style.css", "graph.css"], "inner_radius": 0, "tooltip_border_radius": 0, "y_label_rotation": 0}</script><script type="text/javascript" xlink:href="http://kozea.github.io/pygal.js/javascripts/svg.jquery.js" /><script type="text/javascript" xlink:href="http://kozea.github.io/pygal.js/javascripts/pygal-tooltips.js" /></defs><title>SO 6 and Math.SE 5 Participation</title><g class="graph line-graph vertical"><rect class="background" height="768" width="1024" x="0" y="0" /><g class="plot" transform="translate(86, 46)"><rect class="background" height="657.0" width="918.0" x="0" y="0" /><g class="axis y"><g class="guides"><path class="axis major line" d="M0.000000 644.365385 h918.000000" /><text class="major" x="-5" y="647.8653846153846">0</text></g><g class="guides"><path class="guide line" d="M0.000000 563.844995 h918.000000" /><text class="" x="-5" y="567.3449949408193">10000</text></g><g class="guides"><path class="guide line" d="M0.000000 483.324605 h918.000000" /><text class="" x="-5" y="486.8246052662541">20000</text></g><g class="guides"><path class="guide line" d="M0.000000 402.804216 h918.000000" /><text class="" x="-5" y="406.30421559168883">30000</text></g><g class="guides"><path class="guide line" d="M0.000000 322.283826 h918.000000" /><text class="" x="-5" y="325.78382591712347">40000</text></g><g class="guides"><path class="major guide line" d="M0.000000 241.763436 h918.000000" /><text class="major" x="-5" y="245.2634362425582">50000</text></g><g class="guides"><path class="guide line" d="M0.000000 161.243047 h918.000000" /><text class="" x="-5" y="164.74304656799296">60000</text></g><g class="guides"><path class="guide line" d="M0.000000 80.722657 h918.000000" /><text class="" x="-5" y="84.22265689342771">70000</text></g></g><g class="series serie-0 color-0"><path class="line reactive nofill" d="M17.653846 644.365385 L20.105769 644.365385 22.557692 644.365385 25.009615 644.365385 27.461538 644.365385 29.913462 644.365385 32.365385 644.365385 34.817308 644.365385 37.269231 644.365385 39.721154 644.365385 42.173077 644.365385 44.625000 644.365385 47.076923 644.365385 49.528846 644.365385 51.980769 644.365385 54.432692 644.365385 56.884615 644.365385 59.336538 644.365385 61.788462 644.365385 64.240385 644.365385 66.692308 644.365385 69.144231 644.365385 71.596154 644.365385 74.048077 644.365385 76.500000 644.365385 78.951923 644.365385 81.403846 644.365385 83.855769 644.365385 86.307692 644.365385 88.759615 644.365385 91.211538 644.365385 93.663462 644.365385 96.115385 644.365385 98.567308 644.365385 101.019231 644.365385 103.471154 644.365385 105.923077 644.365385 108.375000 644.365385 110.826923 644.365385 113.278846 644.365385 115.730769 644.365385 118.182692 644.365385 120.634615 644.365385 123.086538 644.365385 125.538462 644.365385 127.990385 644.365385 130.442308 644.365385 132.894231 644.365385 135.346154 644.365385 137.798077 644.365385 140.250000 644.365385 142.701923 644.365385 145.153846 644.365385 147.605769 644.365385 150.057692 644.365385 152.509615 644.365385 154.961538 644.365385 157.413462 644.365385 159.865385 644.365385 162.317308 644.365385 164.769231 644.365385 167.221154 644.365385 169.673077 644.365385 172.125000 644.365385 174.576923 644.365385 177.028846 644.365385 179.480769 644.365385 181.932692 644.365385 184.384615 644.365385 186.836538 644.365385 189.288462 644.365385 191.740385 644.365385 194.192308 644.365385 196.644231 644.365385 199.096154 644.365385 201.548077 644.365385 204.000000 644.365385 206.451923 644.365385 208.903846 644.365385 211.355769 644.365385 213.807692 644.365385 216.259615 644.365385 218.711538 644.365385 221.163462 644.365385 223.615385 644.365385 226.067308 644.365385 228.519231 644.365385 230.971154 644.365385 233.423077 644.365385 235.875000 644.365385 238.326923 644.365385 240.778846 644.365385 243.230769 644.365385 245.682692 644.365385 248.134615 644.365385 250.586538 644.365385 253.038462 644.365385 255.490385 644.365385 257.942308 644.365385 260.394231 644.365385 262.846154 644.365385 265.298077 644.365385 267.750000 644.365385 270.201923 644.365385 272.653846 644.365385 275.105769 644.365385 277.557692 644.365385 280.009615 644.365385 282.461538 644.365385 284.913462 644.365385 287.365385 644.365385 289.817308 644.365385 292.269231 644.365385 294.721154 644.365385 297.173077 644.365385 299.625000 644.365385 302.076923 644.365385 304.528846 644.365385 306.980769 644.365385 309.432692 644.365385 311.884615 644.365385 314.336538 644.365385 316.788462 644.365385 319.240385 644.365385 321.692308 644.365385 324.144231 644.365385 326.596154 644.365385 329.048077 644.365385 331.500000 644.365385 333.951923 644.365385 336.403846 644.365385 338.855769 644.365385 341.307692 644.365385 343.759615 644.365385 346.211538 644.365385 348.663462 644.365385 351.115385 644.365385 353.567308 644.365385 356.019231 644.365385 358.471154 644.365385 360.923077 644.365385 363.375000 644.365385 365.826923 644.365385 368.278846 644.365385 370.730769 644.365385 373.182692 644.365385 375.634615 644.365385 378.086538 644.365385 380.538462 644.365385 382.990385 644.365385 385.442308 644.365385 387.894231 644.365385 390.346154 644.365385 392.798077 644.365385 395.250000 644.365385 397.701923 644.365385 400.153846 644.365385 402.605769 644.365385 405.057692 644.365385 407.509615 644.365385 409.961538 644.365385 412.413462 644.365385 414.865385 644.365385 417.317308 644.365385 419.769231 644.365385 422.221154 644.365385 424.673077 644.365385 427.125000 644.365385 429.576923 644.365385 432.028846 644.365385 434.480769 644.365385 436.932692 644.365385 439.384615 644.365385 441.836538 644.365385 444.288462 644.365385 446.740385 644.365385 449.192308 644.365385 451.644231 644.365385 454.096154 644.365385 456.548077 644.365385 459.000000 644.365385 461.451923 644.365385 463.903846 644.365385 466.355769 644.365385 468.807692 644.365385 471.259615 644.365385 473.711538 644.365385 476.163462 644.365385 478.615385 644.365385 481.067308 644.365385 483.519231 644.365385 485.971154 644.365385 488.423077 644.365385 490.875000 644.365385 493.326923 644.365385 495.778846 644.365385 498.230769 644.365385 500.682692 644.365385 503.134615 644.365385 505.586538 644.365385 508.038462 644.365385 510.490385 644.365385 512.942308 644.365385 515.394231 644.365385 517.846154 644.365385 520.298077 644.365385 522.750000 644.365385 525.201923 644.365385 527.653846 644.365385 530.105769 644.365385 532.557692 644.365385 535.009615 644.365385 537.461538 644.365385 539.913462 644.365385 542.365385 644.365385 544.817308 644.365385 547.269231 644.365385 549.721154 644.365385 552.173077 644.365385 554.625000 644.365385 557.076923 644.365385 559.528846 644.365385 561.980769 644.365385 564.432692 644.365385 566.884615 644.365385 569.336538 644.365385 571.788462 644.365385 574.240385 644.365385 576.692308 644.365385 579.144231 644.365385 581.596154 644.365385 584.048077 644.365385 586.500000 644.365385 588.951923 644.365385 591.403846 644.365385 593.855769 644.365385 596.307692 644.365385 598.759615 644.365385 601.211538 644.365385 603.663462 644.365385 606.115385 644.365385 608.567308 644.365385 611.019231 644.365385 613.471154 644.365385 615.923077 644.365385 618.375000 644.365385 620.826923 644.365385 623.278846 644.365385 625.730769 644.365385 628.182692 644.365385 630.634615 644.365385 633.086538 644.365385 635.538462 644.365385 637.990385 644.365385 640.442308 644.365385 642.894231 644.365385 645.346154 644.365385 647.798077 644.365385 650.250000 644.365385 652.701923 644.365385 655.153846 644.365385 657.605769 644.365385 660.057692 644.365385 662.509615 643.882262 664.961538 641.837044 667.413462 640.919112 669.865385 640.210533 672.317308 639.654942 674.769231 639.373120 677.221154 639.034935 679.673077 638.801426 682.125000 638.608177 684.576923 638.422980 687.028846 638.253887 689.480769 638.108950 691.932692 637.964014 694.384615 637.770765 696.836538 637.505047 699.288462 637.319851 701.740385 637.207122 704.192308 637.038029 706.644231 636.836728 709.096154 636.635427 711.548077 636.466334 714.000000 636.385814 716.451923 636.281137 718.903846 636.176461 721.355769 636.079837 723.807692 635.983212 726.259615 635.878536 728.711538 635.822171 731.163462 635.757755 733.615385 635.685287 736.067308 635.636974 738.519231 635.572558 740.971154 635.548402 743.423077 635.492038 745.875000 635.443725 748.326923 635.371257 750.778846 635.298789 753.230769 635.242424 755.682692 635.186060 758.134615 635.153852 760.586538 635.121644 763.038462 635.089436 765.490385 635.025019 767.942308 634.928395 770.394231 634.904239 772.846154 634.815666 775.298077 634.767354 777.750000 634.686834 780.201923 634.630470 782.653846 634.566053 785.105769 634.533845 787.557692 634.469429 790.009615 634.429169 792.461538 634.405012 794.913462 634.396960 797.365385 634.340596 799.817308 634.316440 802.269231 634.276180 804.721154 634.252024 807.173077 634.235920 809.625000 634.195659 812.076923 634.155399 814.528846 634.090983 816.980769 634.026567 819.432692 633.970202 821.884615 633.937994 824.336538 633.905786 826.788462 633.881630 829.240385 633.841370 831.692308 633.817214 834.144231 633.785005 836.596154 633.728641 839.048077 633.712537 841.500000 633.664225 843.951923 633.640069 846.403846 633.599809 848.855769 633.575652 851.307692 633.559548 853.759615 633.511236 856.211538 633.503184 858.663462 633.487080 861.115385 633.446820 863.567308 633.430716 866.019231 633.422664 868.471154 633.422664 870.923077 633.398508 873.375000 633.374351 875.826923 633.334091 878.278846 633.326039 880.730769 633.326039 883.182692 633.269675 885.634615 633.245519 888.086538 633.164998 890.538462 633.132790 892.990385 633.084478 895.442308 633.036166 897.894231 632.963697 900.346154 632.963697" /></g><g class="series serie-1 color-1"><path class="line reactive nofill" d="M17.653846 640.500406 L20.105769 638.970519 22.557692 637.947910 25.009615 637.408423 27.461538 636.860884 29.913462 636.506595 32.365385 636.112045 34.817308 635.781911 37.269231 635.427621 39.721154 635.137748 42.173077 634.912291 44.625000 634.638522 47.076923 634.308388 49.528846 633.978254 51.980769 633.640069 54.432692 633.446820 56.884615 633.197207 59.336538 632.947593 61.788462 632.754344 64.240385 632.504731 66.692308 632.287326 69.144231 632.110181 71.596154 631.941088 74.048077 631.812256 76.500000 631.610955 78.951923 631.506278 81.403846 631.417706 83.855769 631.337186 86.307692 631.216405 88.759615 631.143937 91.211538 631.095624 93.663462 631.031208 96.115385 630.950688 98.567308 630.894323 101.019231 630.821855 103.471154 630.781595 105.923077 630.684970 108.375000 630.612502 110.826923 630.523930 113.278846 630.475617 115.730769 630.427305 118.182692 630.338733 120.634615 630.217952 123.086538 630.153536 125.538462 630.113276 127.990385 630.032755 130.442308 629.976391 132.894231 629.895871 135.346154 629.855610 137.798077 629.807298 140.250000 629.742882 142.701923 629.694570 145.153846 629.654309 147.605769 629.614049 150.057692 629.541581 152.509615 629.501321 154.961538 629.485217 157.413462 629.453008 159.865385 629.420800 162.317308 629.412748 164.769231 629.372488 167.221154 629.364436 169.673077 629.340280 172.125000 629.324176 174.576923 629.267812 177.028846 629.227551 179.480769 629.179239 181.932692 629.114823 184.384615 629.050406 186.836538 629.010146 189.288462 628.969886 191.740385 628.953782 194.192308 628.905470 196.644231 628.865210 199.096154 628.857158 201.548077 628.833001 204.000000 628.784689 206.451923 628.776637 208.903846 628.776637 211.355769 628.760533 213.807692 628.744429 216.259615 628.720273 218.711538 628.696117 221.163462 628.696117 223.615385 628.696117 226.067308 628.680013 228.519231 628.655857 230.971154 628.647805 233.423077 628.631700 235.875000 628.599492 238.326923 628.583388 240.778846 628.567284 243.230769 628.543128 245.682692 628.518972 248.134615 628.494816 250.586538 628.478712 253.038462 628.462608 255.490385 628.446504 257.942308 628.430399 260.394231 628.414295 262.846154 628.398191 265.298077 628.374035 267.750000 628.365983 270.201923 628.357931 272.653846 628.341827 275.105769 628.333775 277.557692 628.333775 280.009615 628.325723 282.461538 628.317671 284.913462 628.309619 287.365385 628.285463 289.817308 628.285463 292.269231 628.277411 294.721154 628.253255 297.173077 628.253255 299.625000 628.212994 302.076923 628.204942 304.528846 628.180786 306.980769 628.156630 309.432692 628.140526 311.884615 628.108318 314.336538 628.084162 316.788462 628.068058 319.240385 628.060006 321.692308 628.043902 324.144231 628.019746 326.596154 628.019746 329.048077 628.011693 331.500000 628.011693 333.951923 628.003641 336.403846 628.003641 338.855769 628.003641 341.307692 627.995589 343.759615 627.979485 346.211538 627.971433 348.663462 627.971433 351.115385 627.971433 353.567308 627.971433 356.019231 627.939225 358.471154 627.923121 360.923077 627.898965 363.375000 627.858705 365.826923 627.850653 368.278846 627.842601 370.730769 627.834549 373.182692 627.810392 375.634615 627.786236 378.086538 627.786236 380.538462 627.778184 382.990385 627.762080 385.442308 627.745976 387.894231 627.729872 390.346154 627.721820 392.798077 627.713768 395.250000 627.697664 397.701923 627.697664 400.153846 627.689612 402.605769 627.673508 405.057692 627.657404 407.509615 627.649352 409.961538 627.641300 412.413462 627.641300 414.865385 627.625196 417.317308 627.617144 419.769231 627.601039 422.221154 627.584935 424.673077 627.576883 427.125000 627.077657 429.576923 625.716862 432.028846 624.855294 434.480769 624.291651 436.932692 623.945414 439.384615 623.655540 441.836538 623.422031 444.288462 623.301251 446.740385 623.116054 449.192308 622.987221 451.644231 622.866441 454.096154 622.640983 456.548077 622.431630 459.000000 622.109549 461.451923 621.867988 463.903846 621.674739 466.355769 621.505646 468.807692 621.392917 471.259615 621.280189 473.711538 621.014472 476.163462 620.893691 478.615385 620.772910 481.067308 620.627974 483.519231 620.515245 485.971154 620.426673 488.423077 620.370308 490.875000 620.297840 493.326923 620.209268 495.778846 620.160955 498.230769 620.096539 500.682692 620.048227 503.134615 620.048227 505.586538 620.024071 508.038462 619.999915 510.490385 619.943550 512.942308 619.903290 515.394231 619.854978 517.846154 619.774458 520.298077 619.734197 522.750000 619.629521 525.201923 619.605365 527.653846 619.557053 530.105769 619.524844 532.557692 619.476532 535.009615 619.428220 537.461538 619.347700 539.913462 619.275231 542.365385 619.234971 544.817308 619.194711 547.269231 619.130294 549.721154 619.090034 552.173077 619.065878 554.625000 619.017566 557.076923 618.985358 559.528846 618.937046 561.980769 618.912889 564.432692 618.888733 566.884615 618.872629 569.336538 618.864577 571.788462 618.816265 574.240385 618.800161 576.692308 618.759901 579.144231 618.719641 581.596154 618.703536 584.048077 618.687432 586.500000 618.679380 588.951923 618.671328 591.403846 618.623016 593.855769 618.606912 596.307692 618.582756 598.759615 618.558600 601.211538 618.542496 603.663462 618.502235 606.115385 618.453923 608.567308 618.429767 611.019231 618.389507 613.471154 618.373403 615.923077 618.365351 618.375000 618.357299 620.826923 618.333143 623.278846 618.325091 625.730769 618.300934 628.182692 618.284830 630.634615 618.268726 633.086538 618.244570 635.538462 618.244570 637.990385 618.228466 640.442308 618.212362 642.894231 618.188206 645.346154 618.188206 647.798077 618.147946 650.250000 618.107686 652.701923 618.067425 655.153846 618.035217 657.605769 618.019113 660.057692 617.994957 662.509615 617.882228 664.961538 617.423262 667.413462 617.205857 669.865385 617.052868 672.317308 616.940140 674.769231 616.851567 677.221154 616.754943 679.673077 616.714683 682.125000 616.666371 684.576923 616.593902 687.028846 616.577798 689.480769 616.537538 691.932692 616.497278 694.384615 616.440913 696.836538 616.368445 699.288462 616.312081 701.740385 616.255717 704.192308 616.215456 706.644231 616.142988 709.096154 616.078572 711.548077 616.038312 714.000000 616.022207 716.451923 615.981947 718.903846 615.949739 721.355769 615.893375 723.807692 615.861167 726.259615 615.845063 728.711538 615.812854 731.163462 615.780646 733.615385 615.756490 736.067308 615.748438 738.519231 615.716230 740.971154 615.692074 743.423077 615.675970 745.875000 615.651814 748.326923 615.635710 750.778846 615.603501 753.230769 615.587397 755.682692 615.579345 758.134615 615.571293 760.586538 615.539085 763.038462 615.531033 765.490385 615.514929 767.942308 615.490773 770.394231 615.450513 772.846154 615.426357 775.298077 615.410252 777.750000 615.394148 780.201923 615.394148 782.653846 615.337784 785.105769 615.281420 787.557692 615.249212 790.009615 615.241160 792.461538 615.225056 794.913462 615.217004 797.365385 615.192847 799.817308 615.176743 802.269231 615.160639 804.721154 615.136483 807.173077 615.128431 809.625000 615.088171 812.076923 615.064015 814.528846 615.015703 816.980769 614.967390 819.432692 614.959338 821.884615 614.927130 824.336538 614.902974 826.788462 614.886870 829.240385 614.862714 831.692308 614.846610 834.144231 614.838558 836.596154 614.806350 839.048077 614.782193 841.500000 614.766089 843.951923 614.758037 846.403846 614.749985 848.855769 614.741933 851.307692 614.733881 853.759615 614.701673 856.211538 614.693621 858.663462 614.677517 861.115385 614.669465 863.567308 614.669465 866.019231 614.653361 868.471154 614.653361 870.923077 614.629205 873.375000 614.613101 875.826923 614.605049 878.278846 614.588945 880.730769 614.588945 883.182692 614.580892 885.634615 614.580892 888.086538 614.572840 890.538462 614.548684 892.990385 614.524528 895.442308 614.508424 897.894231 614.476216 900.346154 614.476216" /></g><g class="series serie-2 color-2"><path class="line reactive nofill" d="M17.653846 644.365385 L20.105769 644.365385 22.557692 644.365385 25.009615 644.365385 27.461538 644.365385 29.913462 644.365385 32.365385 644.365385 34.817308 644.365385 37.269231 644.365385 39.721154 644.365385 42.173077 644.365385 44.625000 644.365385 47.076923 644.365385 49.528846 644.365385 51.980769 644.365385 54.432692 644.365385 56.884615 644.365385 59.336538 644.365385 61.788462 644.365385 64.240385 644.365385 66.692308 644.365385 69.144231 644.365385 71.596154 644.365385 74.048077 644.365385 76.500000 644.365385 78.951923 644.365385 81.403846 644.365385 83.855769 644.365385 86.307692 644.365385 88.759615 644.365385 91.211538 644.365385 93.663462 644.365385 96.115385 644.365385 98.567308 644.365385 101.019231 644.365385 103.471154 644.365385 105.923077 644.365385 108.375000 644.365385 110.826923 644.365385 113.278846 644.365385 115.730769 644.365385 118.182692 644.365385 120.634615 644.365385 123.086538 644.365385 125.538462 644.365385 127.990385 644.365385 130.442308 644.365385 132.894231 644.365385 135.346154 644.365385 137.798077 644.365385 140.250000 644.365385 142.701923 644.365385 145.153846 644.365385 147.605769 644.365385 150.057692 644.365385 152.509615 644.365385 154.961538 644.365385 157.413462 644.365385 159.865385 644.365385 162.317308 644.365385 164.769231 644.365385 167.221154 644.365385 169.673077 644.365385 172.125000 644.365385 174.576923 644.365385 177.028846 644.365385 179.480769 644.365385 181.932692 644.365385 184.384615 644.365385 186.836538 644.365385 189.288462 644.365385 191.740385 644.365385 194.192308 644.365385 196.644231 644.365385 199.096154 644.365385 201.548077 644.365385 204.000000 644.365385 206.451923 644.365385 208.903846 644.365385 211.355769 644.365385 213.807692 644.365385 216.259615 644.365385 218.711538 644.365385 221.163462 644.365385 223.615385 644.365385 226.067308 644.365385 228.519231 644.365385 230.971154 644.365385 233.423077 644.365385 235.875000 644.365385 238.326923 644.365385 240.778846 644.365385 243.230769 644.365385 245.682692 644.365385 248.134615 644.365385 250.586538 644.365385 253.038462 644.365385 255.490385 644.365385 257.942308 644.365385 260.394231 644.365385 262.846154 644.365385 265.298077 644.365385 267.750000 644.365385 270.201923 644.365385 272.653846 644.365385 275.105769 644.365385 277.557692 644.365385 280.009615 644.365385 282.461538 644.365385 284.913462 644.365385 287.365385 644.365385 289.817308 644.365385 292.269231 644.365385 294.721154 644.365385 297.173077 644.365385 299.625000 644.365385 302.076923 644.365385 304.528846 644.365385 306.980769 644.365385 309.432692 644.365385 311.884615 644.365385 314.336538 644.365385 316.788462 644.365385 319.240385 644.365385 321.692308 644.365385 324.144231 644.365385 326.596154 644.365385 329.048077 644.365385 331.500000 644.365385 333.951923 644.365385 336.403846 644.365385 338.855769 644.365385 341.307692 644.365385 343.759615 644.365385 346.211538 644.365385 348.663462 644.365385 351.115385 644.365385 353.567308 644.365385 356.019231 644.365385 358.471154 644.365385 360.923077 644.365385 363.375000 644.365385 365.826923 644.365385 368.278846 644.365385 370.730769 644.365385 373.182692 644.365385 375.634615 644.365385 378.086538 644.365385 380.538462 644.365385 382.990385 644.365385 385.442308 644.365385 387.894231 644.365385 390.346154 644.365385 392.798077 644.365385 395.250000 644.365385 397.701923 644.365385 400.153846 644.365385 402.605769 644.365385 405.057692 644.365385 407.509615 644.365385 409.961538 644.365385 412.413462 644.365385 414.865385 644.365385 417.317308 644.365385 419.769231 644.365385 422.221154 644.365385 424.673077 644.365385 427.125000 644.365385 429.576923 644.365385 432.028846 644.365385 434.480769 644.365385 436.932692 644.365385 439.384615 644.365385 441.836538 644.365385 444.288462 644.365385 446.740385 644.365385 449.192308 644.365385 451.644231 644.365385 454.096154 644.365385 456.548077 644.365385 459.000000 644.365385 461.451923 644.365385 463.903846 644.365385 466.355769 644.365385 468.807692 644.365385 471.259615 644.365385 473.711538 644.365385 476.163462 644.365385 478.615385 644.365385 481.067308 644.365385 483.519231 644.365385 485.971154 644.365385 488.423077 644.365385 490.875000 644.365385 493.326923 644.365385 495.778846 644.365385 498.230769 644.365385 500.682692 644.365385 503.134615 644.365385 505.586538 644.365385 508.038462 644.365385 510.490385 644.365385 512.942308 644.365385 515.394231 644.365385 517.846154 644.365385 520.298077 644.365385 522.750000 644.365385 525.201923 644.365385 527.653846 644.365385 530.105769 644.365385 532.557692 644.365385 535.009615 644.365385 537.461538 644.365385 539.913462 644.365385 542.365385 644.365385 544.817308 644.365385 547.269231 644.365385 549.721154 644.365385 552.173077 644.365385 554.625000 644.365385 557.076923 644.365385 559.528846 644.365385 561.980769 644.365385 564.432692 644.365385 566.884615 644.365385 569.336538 644.365385 571.788462 644.365385 574.240385 644.365385 576.692308 644.365385 579.144231 644.365385 581.596154 644.365385 584.048077 644.365385 586.500000 644.365385 588.951923 644.365385 591.403846 644.365385 593.855769 644.365385 596.307692 644.365385 598.759615 644.365385 601.211538 644.365385 603.663462 644.365385 606.115385 644.365385 608.567308 644.365385 611.019231 644.365385 613.471154 644.365385 615.923077 644.365385 618.375000 644.365385 620.826923 644.365385 623.278846 644.365385 625.730769 644.365385 628.182692 644.365385 630.634615 644.365385 633.086538 644.365385 635.538462 644.365385 637.990385 644.365385 640.442308 644.365385 642.894231 644.365385 645.346154 644.365385 647.798077 644.365385 650.250000 644.365385 652.701923 644.365385 655.153846 644.365385 657.605769 644.365385 660.057692 644.365385 662.509615 644.365385 664.961538 618.566652 667.413462 606.689894 669.865385 600.103326 672.317308 596.206140 674.769231 593.170521 677.221154 590.489192 679.673077 588.073580 682.125000 585.279523 684.576923 581.567533 687.028846 577.928011 689.480769 574.328750 691.932692 570.198054 694.384615 566.566584 696.836538 562.451992 699.288462 558.723898 701.740385 555.712436 704.192308 552.829806 706.644231 550.003540 709.096154 547.314159 711.548077 544.842183 714.000000 542.724497 716.451923 540.308885 718.903846 538.448864 721.355769 536.258709 723.807692 534.761030 726.259615 533.529068 728.711538 532.570876 731.163462 531.757620 733.615385 531.169821 736.067308 530.525658 738.519231 529.929807 740.971154 529.390320 743.423077 528.810573 745.875000 527.965109 748.326923 526.789512 750.778846 525.710538 753.230769 524.293380 755.682692 523.149990 758.134615 521.789195 760.586538 520.436453 763.038462 519.244751 765.490385 518.020841 767.942308 517.022388 770.394231 515.758218 772.846154 514.526256 775.298077 513.334554 777.750000 512.167009 780.201923 511.071932 782.653846 510.121791 785.105769 509.123338 787.557692 508.390603 790.009615 507.480722 792.461538 506.603050 794.913462 505.604597 797.365385 504.525624 799.817308 503.350026 802.269231 501.031039 804.721154 497.761911 807.173077 493.180301 809.625000 487.213740 812.076923 481.754458 814.528846 476.625309 816.980769 473.291765 819.432692 470.352770 821.884615 466.785717 824.336538 463.105935 826.788462 459.643559 829.240385 456.986386 831.692308 455.126365 834.144231 453.797778 836.596154 452.332307 839.048077 450.947357 841.500000 449.892539 843.951923 448.797462 846.403846 448.233819 848.855769 447.823165 851.307692 447.267575 853.759615 446.881077 856.211538 446.486527 858.663462 446.035613 861.115385 445.423658 863.567308 444.594298 866.019231 443.297920 868.471154 441.615043 870.923077 440.028792 873.375000 438.555269 875.826923 437.194474 878.278846 435.906148 880.730769 434.633926 883.182692 433.079882 885.634615 431.791556 888.086538 430.881675 890.538462 430.881675 892.990385 430.881675 895.442308 430.881675 897.894231 430.881675 900.346154 430.881675" /></g><g class="series serie-3 color-3"><path class="line reactive nofill" d="M17.653846 628.204942 L20.105769 622.157861 22.557692 618.784057 25.009615 616.537538 27.461538 614.419852 29.913462 613.010745 32.365385 611.593586 34.817308 609.942918 37.269231 607.478994 39.721154 604.306491 42.173077 600.989051 44.625000 596.447701 47.076923 592.292849 49.528846 589.466583 51.980769 586.865774 54.432692 584.707828 56.884615 582.469361 59.336538 580.279206 61.788462 578.072948 64.240385 576.148510 66.692308 574.634727 69.144231 573.290037 71.596154 572.098335 74.048077 570.971049 76.500000 570.085325 78.951923 568.998300 81.403846 568.482969 83.855769 568.112576 86.307692 567.661661 88.759615 567.234903 91.211538 566.953082 93.663462 566.687365 96.115385 566.147878 98.567308 565.519819 101.019231 564.835396 103.471154 563.909411 105.923077 562.983427 108.375000 562.073546 110.826923 561.211978 113.278846 560.495347 115.730769 559.674039 118.182692 558.828575 120.634615 558.095839 123.086538 557.459728 125.538462 556.928293 127.990385 556.292182 130.442308 555.720488 132.894231 555.245417 135.346154 554.762295 137.798077 554.375797 140.250000 553.997351 142.701923 553.852415 145.153846 553.683322 147.605769 553.506177 150.057692 553.280720 152.509615 553.103575 154.961538 552.765389 157.413462 552.338631 159.865385 551.976290 162.317308 551.412647 164.769231 550.840952 167.221154 550.357830 169.673077 549.866655 172.125000 549.303013 174.576923 548.827942 177.028846 548.240143 179.480769 547.636240 181.932692 547.064546 184.384615 546.621684 186.836538 546.315706 189.288462 545.961416 191.740385 545.591023 194.192308 545.132056 196.644231 544.842183 199.096154 544.656986 201.548077 544.479841 204.000000 544.359061 206.451923 544.222176 208.903846 544.069187 211.355769 543.956459 213.807692 543.714898 216.259615 543.433076 218.711538 543.070734 221.163462 542.748653 223.615385 542.410467 226.067308 541.975657 228.519231 541.548899 230.971154 541.210713 233.423077 540.800059 235.875000 540.421614 238.326923 540.019012 240.778846 539.704982 243.230769 539.495629 245.682692 539.246016 248.134615 539.020559 250.586538 538.811206 253.038462 538.529384 255.490385 538.360292 257.942308 538.215355 260.394231 538.102626 262.846154 537.965742 265.298077 537.861065 267.750000 537.796649 270.201923 537.732233 272.653846 537.603400 275.105769 537.530932 277.557692 537.394047 280.009615 537.257162 282.461538 537.176642 284.913462 537.080017 287.365385 537.007549 289.817308 536.838456 292.269231 536.685468 294.721154 536.588843 297.173077 536.395594 299.625000 536.234553 302.076923 536.089617 304.528846 535.920524 306.980769 535.711171 309.432692 535.582338 311.884615 535.485714 314.336538 535.413245 316.788462 535.260257 319.240385 535.147528 321.692308 535.058956 324.144231 534.954279 326.596154 534.865707 329.048077 534.801290 331.500000 534.688562 333.951923 534.583885 336.403846 534.479209 338.855769 534.390636 341.307692 534.310116 343.759615 534.124919 346.211538 533.988034 348.663462 533.826994 351.115385 533.690109 353.567308 533.561276 356.019231 533.432444 358.471154 533.295559 360.923077 533.198935 363.375000 533.078154 365.826923 532.941269 368.278846 532.748020 370.730769 532.611136 373.182692 532.458147 375.634615 532.369575 378.086538 532.281002 380.538462 532.192430 382.990385 532.087753 385.442308 531.942817 387.894231 531.870348 390.346154 531.765672 392.798077 531.564371 395.250000 531.363070 397.701923 530.984624 400.153846 530.565918 402.605769 530.082796 405.057692 529.696298 407.509615 529.253436 409.961538 528.858886 412.413462 528.271087 414.865385 527.796016 417.317308 527.538351 419.769231 527.248478 422.221154 526.934448 424.673077 526.596263 427.125000 526.233921 429.576923 486.134767 432.028846 467.083643 434.480769 456.785085 436.932692 449.183960 439.384615 442.661808 441.836538 437.194474 444.288462 431.026612 446.740385 424.995635 449.192308 416.259173 451.644231 403.528899 454.096154 386.772606 456.548077 365.442755 459.000000 347.116314 461.451923 330.971976 463.903846 318.507420 466.355769 307.540543 468.807692 296.324052 471.259615 285.743673 473.711538 275.646416 476.163462 267.513857 478.615385 261.321839 481.067308 255.943077 483.519231 250.966917 485.971154 246.449723 488.423077 242.625004 490.875000 239.259252 493.326923 237.020785 495.778846 235.587522 498.230769 234.403873 500.682692 233.099442 503.134615 231.859428 505.586538 230.305385 508.038462 228.219907 510.490385 225.498318 512.942308 221.850744 515.394231 217.720048 517.846154 213.581300 520.298077 209.233199 522.750000 205.376272 525.201923 201.648178 527.653846 197.928136 530.105769 194.119522 532.557692 190.206231 535.009615 187.106196 537.461538 184.175254 539.913462 181.904579 542.365385 179.561435 544.817308 177.508165 547.269231 175.487104 549.721154 174.110205 552.173077 172.910451 554.625000 171.944206 557.076923 171.243679 559.528846 170.325747 561.980769 169.625219 564.432692 168.731443 566.884615 167.668574 569.336538 166.565444 571.788462 164.568539 574.240385 162.531373 576.692308 160.453947 579.144231 158.126907 581.596154 156.025325 584.048077 154.036472 586.500000 151.677224 588.951923 149.535382 591.403846 147.506268 593.855769 146.008589 596.307692 144.261296 598.759615 142.723357 601.211538 141.579967 603.663462 140.444630 606.115385 139.244876 608.567308 138.262527 611.019231 137.578104 613.471154 137.054722 615.923077 136.579651 618.375000 136.201205 620.826923 135.701979 623.278846 135.186648 625.730769 134.614954 628.182692 133.890270 630.634615 133.060910 633.086538 132.070509 635.538462 130.774131 637.990385 129.453597 640.442308 128.422936 642.894231 127.440587 645.346154 126.031480 647.798077 124.654581 650.250000 123.189110 652.701923 122.118189 655.153846 121.345193 657.605769 120.395053 660.057692 119.477120 662.509615 118.736333 664.961538 110.378316 667.413462 105.901383 669.865385 103.059013 672.317308 101.247304 674.769231 100.095863 677.221154 99.073254 679.673077 98.284154 682.125000 97.350117 684.576923 96.190624 687.028846 94.862037 689.480769 93.525399 691.932692 92.027720 694.384615 90.739393 696.836538 89.064569 699.288462 87.695723 701.740385 86.536229 704.192308 85.038550 706.644231 83.814640 709.096154 82.558522 711.548077 81.318508 714.000000 80.336159 716.451923 79.224978 718.903846 78.290941 721.355769 77.099239 723.807692 76.229619 726.259615 75.432467 728.711538 74.933241 731.163462 74.337390 733.615385 73.975048 736.067308 73.604654 738.519231 73.314781 740.971154 72.992699 743.423077 72.662566 745.875000 72.276068 748.326923 71.728529 750.778846 71.148783 753.230769 70.271110 755.682692 69.441750 758.134615 68.604338 760.586538 68.016539 763.038462 67.211336 765.490385 66.543016 767.942308 65.914957 770.394231 65.101701 772.846154 64.377018 775.298077 63.595970 777.750000 63.056483 780.201923 62.452580 782.653846 61.760105 785.105769 61.172306 787.557692 60.761652 790.009615 60.310738 792.461538 59.867876 794.913462 59.255921 797.365385 58.700330 799.817308 58.032011 802.269231 57.089923 804.721154 55.688868 807.173077 53.683910 809.625000 51.244142 812.076923 48.425929 814.528846 45.414466 816.980769 43.425612 819.432692 41.485071 821.884615 39.222448 824.336538 36.943721 826.788462 34.769671 829.240385 32.869389 831.692308 31.581063 834.144231 30.373257 836.596154 29.181555 839.048077 27.925437 841.500000 26.951141 843.951923 26.153989 846.403846 25.477618 848.855769 25.058912 851.307692 24.736830 853.759615 24.318124 856.211538 23.955782 858.663462 23.601492 861.115385 23.190838 863.567308 22.691612 866.019231 21.644847 868.471154 20.565874 870.923077 19.374172 873.375000 18.311303 875.826923 17.216226 878.278846 16.402970 880.730769 15.485037 883.182692 14.333596 885.634615 13.391507 888.086538 12.634615 890.538462 12.634615 892.990385 12.634615 895.442308 12.634615 897.894231 12.634615 900.346154 12.634615" /></g></g><g class="titles"><text class="title plot_title" x="512.0" y="26">SO 6 and Math.SE 5 Participation</text><text class="title" transform="rotate(-90 0.000000 374.500000)" x="0" y="400.5">Users</text></g><g class="plot overlay" transform="translate(86, 46)"><g class="series serie-0 color-0" /><g class="series serie-1 color-1" /><g class="series serie-2 color-2" /><g class="series serie-3 color-3" /></g><g class="plot text-overlay" transform="translate(86, 46)"><g class="series serie-0 color-0" /><g class="series serie-1 color-1" /><g class="series serie-2 color-2" /><g class="series serie-3 color-3" /></g><g class="plot tooltip-overlay" transform="translate(86, 46)"><g class="tooltip" style="opacity: 0" transform="translate(0 0)"><a><rect class="tooltip-box" height="0" rx="0" ry="0" width="0" /><text class="text"><tspan class="label" /><tspan class="value" /></text></a></g></g><g class="legends" transform="translate(96, 713)"><g class="legend reactive activate-serie" id="activate-serie-0"><rect class="color-0 reactive" height="12" width="12" x="0.0" y="1.0" /><text x="17.0" y="11.2">Math.SE 5 Constituents</text></g><g class="legend reactive activate-serie" id="activate-serie-1"><rect class="color-1 reactive" height="12" width="12" x="459.0" y="1.0" /><text x="476.0" y="11.2">Math.SE 5 Caucus</text></g><g class="legend reactive activate-serie" id="activate-serie-2"><rect class="color-2 reactive" height="12" width="12" x="0.0" y="22.0" /><text x="17.0" y="32.2">SO 6 Constituents</text></g><g class="legend reactive activate-serie" id="activate-serie-3"><rect class="color-3 reactive" height="12" width="12" x="459.0" y="22.0" /><text x="476.0" y="32.2">SO 6 Caucus</text></g></g></g></svg>