<?xml version='1.0' encoding='utf-8'?>
<svg xmlns:xlink="http://www.w3.org/1999/xlink" class="pygal-chart" id="chart-b430a544-579e-4239-9674-004d48e217d1" viewBox="0 0 1024 768" xmlns="http://www.w3.org/2000/svg"><!--Generated with pygal 1.7.0 (etree) ©Kozea 2011-2014 on 2018-03-25--><!--http://pygal.org--><!--http://github.com/Kozea/pygal--><defs><style type="text/css">#chart-b430a544-579e-4239-9674-004d48e217d1 .title{font-family:"monospace";font-size:16px}#chart-b430a544-579e-4239-9674-004d48e217d1 .legends .legend text{font-family:"monospace";font-size:14px}#chart-b430a544-579e-4239-9674-004d48e217d1 .axis text{font-family:"monospace";font-size:10px}#chart-b430a544-579e-4239-9674-004d48e217d1 .axis text.major{font-family:"monospace";font-size:10px}#chart-b430a544-579e-4239-9674-004d48e217d1 .series text{font-family:"monospace";font-size:8px}#chart-b430a544-579e-4239-9674-004d48e217d1 .tooltip text{font-family:"monospace";font-size:16px}#chart-b430a544-579e-4239-9674-004d48e217d1 text.no_data{font-size:64px}
#chart-b430a544-579e-4239-9674-004d48e217d1{background-color:black}#chart-b430a544-579e-4239-9674-004d48e217d1 path,#chart-b430a544-579e-4239-9674-004d48e217d1 line,#chart-b430a544-579e-4239-9674-004d48e217d1 rect,#chart-b430a544-579e-4239-9674-004d48e217d1 circle{-webkit-transition:250ms;-moz-transition:250ms;transition:250ms}#chart-b430a544-579e-4239-9674-004d48e217d1 .graph &gt; .background{fill:black}#chart-b430a544-579e-4239-9674-004d48e217d1 .plot &gt; .background{fill:#111}#chart-b430a544-579e-4239-9674-004d48e217d1 .graph{fill:#999}#chart-b430a544-579e-4239-9674-004d48e217d1 text.no_data{fill:#eee}#chart-b430a544-579e-4239-9674-004d48e217d1 .title{fill:#eee}#chart-b430a544-579e-4239-9674-004d48e217d1 .legends .legend text{fill:#999}#chart-b430a544-579e-4239-9674-004d48e217d1 .legends .legend:hover text{fill:#eee}#chart-b430a544-579e-4239-9674-004d48e217d1 .axis .line{stroke:#eee}#chart-b430a544-579e-4239-9674-004d48e217d1 .axis .guide.line{stroke:#555}#chart-b430a544-579e-4239-9674-004d48e217d1 .axis .major.line{stroke:#999}#chart-b430a544-579e-4239-9674-004d48e217d1 .axis text.major{stroke:#eee;fill:#eee}#chart-b430a544-579e-4239-9674-004d48e217d1 .axis.y .guides:hover .guide.line,#chart-b430a544-579e-4239-9674-004d48e217d1 .line-graph .axis.x .guides:hover .guide.line,#chart-b430a544-579e-4239-9674-004d48e217d1 .stackedline-graph .axis.x .guides:hover .guide.line,#chart-b430a544-579e-4239-9674-004d48e217d1 .xy-graph .axis.x .guides:hover .guide.line{stroke:#eee}#chart-b430a544-579e-4239-9674-004d48e217d1 .axis .guides:hover text{fill:#eee}#chart-b430a544-579e-4239-9674-004d48e217d1 .reactive{fill-opacity:.8}#chart-b430a544-579e-4239-9674-004d48e217d1 .reactive.active,#chart-b430a544-579e-4239-9674-004d48e217d1 .active .reactive{fill-opacity:.4}#chart-b430a544-579e-4239-9674-004d48e217d1 .series{stroke-width:1.0;stroke-linejoin:round;stroke-linecap:round;stroke-dasharray:0,0}#chart-b430a544-579e-4239-9674-004d48e217d1 .series text{fill:#eee}#chart-b430a544-579e-4239-9674-004d48e217d1 .tooltip rect{fill:#111;stroke:#eee}#chart-b430a544-579e-4239-9674-004d48e217d1 .tooltip text{fill:#eee}#chart-b430a544-579e-4239-9674-004d48e217d1 .map-element{fill:#999;stroke:#555 !important;opacity:.9;stroke-width:3;-webkit-transition:250ms;-moz-transition:250ms;-o-transition:250ms;transition:250ms}#chart-b430a544-579e-4239-9674-004d48e217d1 .map-element:hover{opacity:1;stroke-width:10}#chart-b430a544-579e-4239-9674-004d48e217d1 .color-0,#chart-b430a544-579e-4239-9674-004d48e217d1 .color-0 a:visited{stroke:#ff5995;fill:#ff5995}#chart-b430a544-579e-4239-9674-004d48e217d1 .color-1,#chart-b430a544-579e-4239-9674-004d48e217d1 .color-1 a:visited{stroke:#b6e354;fill:#b6e354}#chart-b430a544-579e-4239-9674-004d48e217d1 .color-2,#chart-b430a544-579e-4239-9674-004d48e217d1 .color-2 a:visited{stroke:#feed6c;fill:#feed6c}#chart-b430a544-579e-4239-9674-004d48e217d1 .color-3,#chart-b430a544-579e-4239-9674-004d48e217d1 .color-3 a:visited{stroke:#8cedff;fill:#8cedff}#chart-b430a544-579e-4239-9674-004d48e217d1 .color-4,#chart-b430a544-579e-4239-9674-004d48e217d1 .color-4 a:visited{stroke:#9e6ffe;fill:#9e6ffe}#chart-b430a544-579e-4239-9674-004d48e217d1 .color-5,#chart-b430a544-579e-4239-9674-004d48e217d1 .color-5 a:visited{stroke:#899ca1;fill:#899ca1}#chart-b430a544-579e-4239-9674-004d48e217d1 .color-6,#chart-b430a544-579e-4239-9674-004d48e217d1 .color-6 a:visited{stroke:#f8f8f2;fill:#f8f8f2}#chart-b430a544-579e-4239-9674-004d48e217d1 .color-7,#chart-b430a544-579e-4239-9674-004d48e217d1 .color-7 a:visited{stroke:#bf4646;fill:#bf4646}#chart-b430a544-579e-4239-9674-004d48e217d1 .color-8,#chart-b430a544-579e-4239-9674-004d48e217d1 .color-8 a:visited{stroke:#516083;fill:#516083}#chart-b430a544-579e-4239-9674-004d48e217d1 .color-9,#chart-b430a544-579e-4239-9674-004d48e217d1 .color-9 a:visited{stroke:#f92672;fill:#f92672}#chart-b430a544-579e-4239-9674-004d48e217d1 .color-10,#chart-b430a544-579e-4239-9674-004d48e217d1 .color-10 a:visited{stroke:#82b414;fill:#82b414}#chart-b430a544-579e-4239-9674-004d48e217d1 .color-11,#chart-b430a544-579e-4239-9674-004d48e217d1 .color-11 a:visited{stroke:#fd971f;fill:#fd971f}#chart-b430a544-579e-4239-9674-004d48e217d1 .color-12,#chart-b430a544-579e-4239-9674-004d48e217d1 .color-12 a:visited{stroke:#56c2d6;fill:#56c2d6}#chart-b430a544-579e-4239-9674-004d48e217d1 .color-13,#chart-b430a544-579e-4239-9674-004d48e217d1 .color-13 a:visited{stroke:#808384;fill:#808384}#chart-b430a544-579e-4239-9674-004d48e217d1 .color-14,#chart-b430a544-579e-4239-9674-004d48e217d1 .color-14 a:visited{stroke:#8c54fe;fill:#8c54fe}#chart-b430a544-579e-4239-9674-004d48e217d1 .color-15,#chart-b430a544-579e-4239-9674-004d48e217d1 .color-15 a:visited{stroke:#465457;fill:#465457}
#chart-b430a544-579e-4239-9674-004d48e217d1 text.no_data{text-anchor:middle}#chart-b430a544-579e-4239-9674-004d48e217d1 .guide.line{fill-opacity:0}#chart-b430a544-579e-4239-9674-004d48e217d1 .centered{text-anchor:middle}#chart-b430a544-579e-4239-9674-004d48e217d1 .title{text-anchor:middle}#chart-b430a544-579e-4239-9674-004d48e217d1 .legends .legend text{fill-opacity:1}#chart-b430a544-579e-4239-9674-004d48e217d1 .axis.x text{text-anchor:middle}#chart-b430a544-579e-4239-9674-004d48e217d1 .axis.x:not(.web) text[transform]{text-anchor:start}#chart-b430a544-579e-4239-9674-004d48e217d1 .axis.y text{text-anchor:end}#chart-b430a544-579e-4239-9674-004d48e217d1 .axis.y2 text{text-anchor:start}#chart-b430a544-579e-4239-9674-004d48e217d1 .axis.y .logarithmic text:not(.major),#chart-b430a544-579e-4239-9674-004d48e217d1 .axis.y2 .logarithmic text:not(.major){font-size:50%}#chart-b430a544-579e-4239-9674-004d48e217d1 .axis .guide.line{stroke-dasharray:4,4}#chart-b430a544-579e-4239-9674-004d48e217d1 .axis .major.guide.line{stroke-dasharray:6,6}#chart-b430a544-579e-4239-9674-004d48e217d1 .axis text.major{stroke-width:0.5px}#chart-b430a544-579e-4239-9674-004d48e217d1 .horizontal .axis.y .guide.line,#chart-b430a544-579e-4239-9674-004d48e217d1 .horizontal .axis.y2 .guide.line,#chart-b430a544-579e-4239-9674-004d48e217d1 .vertical .axis.x .guide.line{opacity:0}#chart-b430a544-579e-4239-9674-004d48e217d1 .horizontal .axis.always_show .guide.line,#chart-b430a544-579e-4239-9674-004d48e217d1 .vertical .axis.always_show .guide.line{opacity:1 !important}#chart-b430a544-579e-4239-9674-004d48e217d1 .axis.y .guides:hover .guide.line,#chart-b430a544-579e-4239-9674-004d48e217d1 .axis.y2 .guides:hover .guide.line,#chart-b430a544-579e-4239-9674-004d48e217d1 .axis.x .guides:hover .guide.line{opacity:1}#chart-b430a544-579e-4239-9674-004d48e217d1 .axis .guides:hover text{opacity:1}#chart-b430a544-579e-4239-9674-004d48e217d1 .nofill{fill:none}#chart-b430a544-579e-4239-9674-004d48e217d1 .subtle-fill{fill-opacity:.2}#chart-b430a544-579e-4239-9674-004d48e217d1 .dot{stroke-width:1px;fill-opacity:1}#chart-b430a544-579e-4239-9674-004d48e217d1 .dot.active{stroke-width:5px}#chart-b430a544-579e-4239-9674-004d48e217d1 .series text{stroke:none}#chart-b430a544-579e-4239-9674-004d48e217d1 .series text.active{opacity:1}#chart-b430a544-579e-4239-9674-004d48e217d1 .tooltip rect{fill-opacity:0.8}#chart-b430a544-579e-4239-9674-004d48e217d1 .tooltip text{fill-opacity:1}#chart-b430a544-579e-4239-9674-004d48e217d1 .tooltip text tspan.label{fill-opacity:.8}</style><script type="text/javascript">window.config = {"css": ["style.css", "graph.css"], "disable_xml_declaration": false, "dots_size": 2.5, "explicit_size": false, "fill": false, "half_pie": false, "height": 768, "human_readable": false, "include_x_axis": false, "inner_radius": 0, "interpolate": null, "interpolation_parameters": {}, "interpolation_precision": 250, "js": ["http://kozea.github.io/pygal.js/javascripts/svg.jquery.js", "http://kozea.github.io/pygal.js/javascripts/pygal-tooltips.js"], "label_font_size": 10, "legend_at_bottom": true, "legend_at_bottom_columns": null, "legend_box_size": 12, "legend_font_size": 14, "logarithmic": false, "major_label_font_size": 10, "margin": 20, "margin_bottom": null, "margin_left": null, "margin_right": null, "margin_top": null, "missing_value_fill_truncation": "x", "mode": null, "no_data_font_size": 64, "no_data_text": "No data", "no_prefix": false, "order_min": null, "pretty_print": false, "print_values": false, "print_zeroes": false, "range": null, "rounded_bars": null, "show_dots": false, "show_legend": true, "show_minor_x_labels": true, "show_minor_y_labels": true, "show_only_major_dots": false, "show_x_guides": false, "show_x_labels": true, "show_y_guides": true, "show_y_labels": true, "spacing": 10, "stack_from_top": false, "strict": false, "stroke": true, "style": {"background": "black", "colors": ["#ff5995", "#b6e354", "#feed6c", "#8cedff", "#9e6ffe", "#899ca1", "#f8f8f2", "#bf4646", "#516083", "#f92672", "#82b414", "#fd971f", "#56c2d6", "#808384", "#8c54fe", "#465457"], "font_family": "monospace", "foreground": "#999", "foreground_dark": "#555", "foreground_light": "#eee", "opacity": ".8", "opacity_hover": ".4", "plot_background": "#111", "stroke_dasharray": "0,0", "stroke_style": "round", "stroke_width": 1.0, "transition": "250ms"}, "title": "SO 6 and Math.SE 5 Participation", "title_font_size": 16, "tooltip_border_radius": 0, "tooltip_font_size": 16, "truncate_label": null, "truncate_legend": null, "value_font_size": 8, "width": 1024, "x_label_format": "%Y-%m-%d %H:%M:%S.%f", "x_label_rotation": 0, "x_labels": null, "x_labels_major": null, "x_labels_major_count": null, "x_labels_major_every": null, "x_title": null, "x_value_formatter": null, "xrange": null, "y_label_rotation": 0, "y_labels": null, "y_labels_major": null, "y_labels_major_count": null, "y_labels_major_every": null, "y_title": "Users", "zero": 0}</script><script type="text/javascript" xlink:href="http://kozea.github.io/pygal.js/javascripts/svg.jquery.js" /><script type="text/javascript" xlink:href="http://kozea.github.io/pygal.js/javascripts/pygal-tooltips.js" /></defs><title>SO 6 and Math.SE 5 Participation</title><g class="graph line-graph vertical"><rect class="background" height="768" width="1024" x="0" y="0" /><g class="plot" transform="translate(86, 46)"><rect class="background" height="657.0" width="918.0" x="0" y="0" /><g class="axis y"><g class="guides"><path class="axis major line" d="M0.000000 644.365385 h918.000000" /><text class="major" x="-5" y="647.8653846153846">0</text></g><g class="guides"><path class="guide line" d="M0.000000 564.270705 h918.000000" /><text class="" x="-5" y="567.7707046576337">10000</text></g><g class="guides"><path class="guide line" d="M0.000000 484.176025 h918.000000" /><text class="" x="-5" y="487.6760246998827">20000</text></g><g class="guides"><path class="guide line" d="M0.000000 404.081345 h918.000000" /><text class="" x="-5" y="407.58134474213176">30000</text></g><g class="guides"><path class="guide line" d="M0.000000 323.986665 h918.000000" /><text class="" x="-5" y="327.4866647843808">40000</text></g><g class="guides"><path class="major guide line" d="M0.000000 243.891985 h918.000000" /><text class="major" x="-5" y="247.39198482662982">50000</text></g><g class="guides"><path class="guide line" d="M0.000000 163.797305 h918.000000" /><text class="" x="-5" y="167.29730486887888">60000</text></g><g class="guides"><path class="guide line" d="M0.000000 83.702625 h918.000000" /><text class="" x="-5" y="87.20262491112783">70000</text></g></g><g class="series serie-0 color-0"><path class="line reactive nofill" d="M17.653846 644.365385 L20.105769 644.365385 22.557692 644.365385 25.009615 644.365385 27.461538 644.365385 29.913462 644.365385 32.365385 644.365385 34.817308 644.365385 37.269231 644.365385 39.721154 644.365385 42.173077 644.365385 44.625000 644.365385 47.076923 644.365385 49.528846 644.365385 51.980769 644.365385 54.432692 644.365385 56.884615 644.365385 59.336538 644.365385 61.788462 644.365385 64.240385 644.365385 66.692308 644.365385 69.144231 644.365385 71.596154 644.365385 74.048077 644.365385 76.500000 644.365385 78.951923 644.365385 81.403846 644.365385 83.855769 644.365385 86.307692 644.365385 88.759615 644.365385 91.211538 644.365385 93.663462 644.365385 96.115385 644.365385 98.567308 644.365385 101.019231 644.365385 103.471154 644.365385 105.923077 644.365385 108.375000 644.365385 110.826923 644.365385 113.278846 644.365385 115.730769 644.365385 118.182692 644.365385 120.634615 644.365385 123.086538 644.365385 125.538462 644.365385 127.990385 644.365385 130.442308 644.365385 132.894231 644.365385 135.346154 644.365385 137.798077 644.365385 140.250000 644.365385 142.701923 644.365385 145.153846 644.365385 147.605769 644.365385 150.057692 644.365385 152.509615 644.365385 154.961538 644.365385 157.413462 644.365385 159.865385 644.365385 162.317308 644.365385 164.769231 644.365385 167.221154 644.365385 169.673077 644.365385 172.125000 644.365385 174.576923 644.365385 177.028846 644.365385 179.480769 644.365385 181.932692 644.365385 184.384615 644.365385 186.836538 644.365385 189.288462 644.365385 191.740385 644.365385 194.192308 644.365385 196.644231 644.365385 199.096154 644.365385 201.548077 644.365385 204.000000 644.365385 206.451923 644.365385 208.903846 644.365385 211.355769 644.365385 213.807692 644.365385 216.259615 644.365385 218.711538 644.365385 221.163462 644.365385 223.615385 644.365385 226.067308 644.365385 228.519231 644.365385 230.971154 644.365385 233.423077 644.365385 235.875000 644.365385 238.326923 644.365385 240.778846 644.365385 243.230769 644.365385 245.682692 644.365385 248.134615 644.365385 250.586538 644.365385 253.038462 644.365385 255.490385 644.365385 257.942308 644.365385 260.394231 644.365385 262.846154 644.365385 265.298077 644.365385 267.750000 644.365385 270.201923 644.365385 272.653846 644.365385 275.105769 644.365385 277.557692 644.365385 280.009615 644.365385 282.461538 644.365385 284.913462 644.365385 287.365385 644.365385 289.817308 644.365385 292.269231 644.365385 294.721154 644.365385 297.173077 644.365385 299.625000 644.365385 302.076923 644.365385 304.528846 644.365385 306.980769 644.365385 309.432692 644.365385 311.884615 644.365385 314.336538 644.365385 316.788462 644.365385 319.240385 644.365385 321.692308 644.365385 324.144231 644.365385 326.596154 644.365385 329.048077 644.365385 331.500000 644.365385 333.951923 644.365385 336.403846 644.365385 338.855769 644.365385 341.307692 644.365385 343.759615 644.365385 346.211538 644.365385 348.663462 644.365385 351.115385 644.365385 353.567308 644.365385 356.019231 644.365385 358.471154 644.365385 360.923077 644.365385 363.375000 644.365385 365.826923 644.365385 368.278846 644.365385 370.730769 644.365385 373.182692 644.365385 375.634615 644.365385 378.086538 644.365385 380.538462 644.365385 382.990385 644.365385 385.442308 644.365385 387.894231 644.365385 390.346154 644.365385 392.798077 644.365385 395.250000 644.365385 397.701923 644.365385 400.153846 644.365385 402.605769 644.365385 405.057692 644.365385 407.509615 644.365385 409.961538 644.365385 412.413462 644.365385 414.865385 644.365385 417.317308 644.365385 419.769231 644.365385 422.221154 644.365385 424.673077 644.365385 427.125000 644.365385 429.576923 644.365385 432.028846 644.365385 434.480769 644.365385 436.932692 644.365385 439.384615 644.365385 441.836538 644.365385 444.288462 644.365385 446.740385 644.365385 449.192308 644.365385 451.644231 644.365385 454.096154 644.365385 456.548077 644.365385 459.000000 644.365385 461.451923 644.365385 463.903846 644.365385 466.355769 644.365385 468.807692 644.365385 471.259615 644.365385 473.711538 644.365385 476.163462 644.365385 478.615385 644.365385 481.067308 644.365385 483.519231 644.365385 485.971154 644.365385 488.423077 644.365385 490.875000 644.365385 493.326923 644.365385 495.778846 644.365385 498.230769 644.365385 500.682692 644.365385 503.134615 644.365385 505.586538 644.365385 508.038462 644.365385 510.490385 644.365385 512.942308 644.365385 515.394231 644.365385 517.846154 644.365385 520.298077 644.365385 522.750000 644.365385 525.201923 644.365385 527.653846 644.365385 530.105769 644.365385 532.557692 644.365385 535.009615 644.365385 537.461538 644.365385 539.913462 644.365385 542.365385 644.365385 544.817308 644.365385 547.269231 644.365385 549.721154 644.365385 552.173077 644.365385 554.625000 644.365385 557.076923 644.365385 559.528846 644.365385 561.980769 644.365385 564.432692 644.365385 566.884615 644.365385 569.336538 644.365385 571.788462 644.365385 574.240385 644.365385 576.692308 644.365385 579.144231 644.365385 581.596154 644.365385 584.048077 644.365385 586.500000 644.365385 588.951923 644.365385 591.403846 644.365385 593.855769 644.365385 596.307692 644.365385 598.759615 644.365385 601.211538 644.365385 603.663462 644.365385 606.115385 644.365385 608.567308 644.365385 611.019231 644.365385 613.471154 644.365385 615.923077 644.365385 618.375000 644.365385 620.826923 644.365385 623.278846 644.365385 625.730769 644.365385 628.182692 644.365385 630.634615 644.365385 633.086538 644.365385 635.538462 644.365385 637.990385 644.365385 640.442308 644.365385 642.894231 644.365385 645.346154 644.365385 647.798077 644.365385 650.250000 644.365385 652.701923 644.365385 655.153846 644.365385 657.605769 644.365385 660.057692 644.365385 662.509615 643.884817 664.961538 641.850412 667.413462 640.937332 669.865385 640.232499 672.317308 639.679846 674.769231 639.399514 677.221154 639.063117 679.673077 638.830842 682.125000 638.638615 684.576923 638.454397 687.028846 638.286198 689.480769 638.142028 691.932692 637.997858 694.384615 637.805630 696.836538 637.541318 699.288462 637.357100 701.740385 637.244968 704.192308 637.076769 706.644231 636.876532 709.096154 636.676295 711.548077 636.508097 714.000000 636.428002 716.451923 636.323879 718.903846 636.219756 721.355769 636.123642 723.807692 636.027528 726.259615 635.923405 728.711538 635.867339 731.163462 635.803263 733.615385 635.731178 736.067308 635.683121 738.519231 635.619046 740.971154 635.595017 743.423077 635.538951 745.875000 635.490894 748.326923 635.418809 750.778846 635.346724 753.230769 635.290657 755.682692 635.234591 758.134615 635.202553 760.586538 635.170515 763.038462 635.138477 765.490385 635.074402 767.942308 634.978288 770.394231 634.954260 772.846154 634.866156 775.298077 634.818099 777.750000 634.738004 780.201923 634.681938 782.653846 634.617862 785.105769 634.585824 787.557692 634.521748 790.009615 634.481701 792.461538 634.457673 794.913462 634.449663 797.365385 634.393597 799.817308 634.369569 802.269231 634.329521 804.721154 634.305493 807.173077 634.289474 809.625000 634.249427 812.076923 634.209379 814.528846 634.145303 816.980769 634.081228 819.432692 634.025161 821.884615 633.993124 824.336538 633.961086 826.788462 633.937057 829.240385 633.897010 831.692308 633.872982 834.144231 633.840944 836.596154 633.784877 839.048077 633.768858 841.500000 633.720802 843.951923 633.696773 846.403846 633.656726 848.855769 633.632698 851.307692 633.616679 853.759615 633.568622 856.211538 633.560612 858.663462 633.544593 861.115385 633.504546 863.567308 633.488527 866.019231 633.480518 868.471154 633.480518 870.923077 633.456489 873.375000 633.432461 875.826923 633.392413 878.278846 633.384404 880.730769 633.384404 883.182692 633.328338 885.634615 633.304309 888.086538 633.224215 890.538462 633.192177 892.990385 633.144120 895.442308 633.096063 897.894231 633.023978 900.346154 633.023978" /></g><g class="series serie-1 color-1"><path class="line reactive nofill" d="M17.653846 640.520840 L20.105769 638.999041 22.557692 637.981839 25.009615 637.445204 27.461538 636.900560 29.913462 636.548144 32.365385 636.155680 34.817308 635.827292 37.269231 635.474875 39.721154 635.186534 42.173077 634.962269 44.625000 634.689947 47.076923 634.361559 49.528846 634.033171 51.980769 633.696773 54.432692 633.504546 56.884615 633.256253 59.336538 633.007959 61.788462 632.815732 64.240385 632.567438 66.692308 632.351183 69.144231 632.174974 71.596154 632.006775 74.048077 631.878624 76.500000 631.678387 78.951923 631.574264 81.403846 631.486160 83.855769 631.406065 86.307692 631.285923 88.759615 631.213838 91.211538 631.165781 93.663462 631.101706 96.115385 631.021611 98.567308 630.965545 101.019231 630.893459 103.471154 630.853412 105.923077 630.757298 108.375000 630.685213 110.826923 630.597109 113.278846 630.549052 115.730769 630.500996 118.182692 630.412891 120.634615 630.292749 123.086538 630.228674 125.538462 630.188626 127.990385 630.108532 130.442308 630.052465 132.894231 629.972371 135.346154 629.932323 137.798077 629.884266 140.250000 629.820191 142.701923 629.772134 145.153846 629.732087 147.605769 629.692039 150.057692 629.619954 152.509615 629.579907 154.961538 629.563888 157.413462 629.531850 159.865385 629.499812 162.317308 629.491803 164.769231 629.451755 167.221154 629.443746 169.673077 629.419717 172.125000 629.403698 174.576923 629.347632 177.028846 629.307585 179.480769 629.259528 181.932692 629.195452 184.384615 629.131376 186.836538 629.091329 189.288462 629.051282 191.740385 629.035263 194.192308 628.987206 196.644231 628.947159 199.096154 628.939149 201.548077 628.915121 204.000000 628.867064 206.451923 628.859055 208.903846 628.859055 211.355769 628.843036 213.807692 628.827017 216.259615 628.802988 218.711538 628.778960 221.163462 628.778960 223.615385 628.778960 226.067308 628.762941 228.519231 628.738913 230.971154 628.730903 233.423077 628.714884 235.875000 628.682846 238.326923 628.666827 240.778846 628.650808 243.230769 628.626780 245.682692 628.602752 248.134615 628.578723 250.586538 628.562704 253.038462 628.546685 255.490385 628.530666 257.942308 628.514647 260.394231 628.498629 262.846154 628.482610 265.298077 628.458581 267.750000 628.450572 270.201923 628.442562 272.653846 628.426543 275.105769 628.418534 277.557692 628.418534 280.009615 628.410524 282.461538 628.402515 284.913462 628.394505 287.365385 628.370477 289.817308 628.370477 292.269231 628.362468 294.721154 628.338439 297.173077 628.338439 299.625000 628.298392 302.076923 628.290382 304.528846 628.266354 306.980769 628.242326 309.432692 628.226307 311.884615 628.194269 314.336538 628.170240 316.788462 628.154221 319.240385 628.146212 321.692308 628.130193 324.144231 628.106165 326.596154 628.106165 329.048077 628.098155 331.500000 628.098155 333.951923 628.090146 336.403846 628.090146 338.855769 628.090146 341.307692 628.082136 343.759615 628.066117 346.211538 628.058108 348.663462 628.058108 351.115385 628.058108 353.567308 628.058108 356.019231 628.026070 358.471154 628.010051 360.923077 627.986023 363.375000 627.945975 365.826923 627.937966 368.278846 627.929956 370.730769 627.921947 373.182692 627.897918 375.634615 627.873890 378.086538 627.873890 380.538462 627.865881 382.990385 627.849862 385.442308 627.833843 387.894231 627.817824 390.346154 627.809814 392.798077 627.801805 395.250000 627.785786 397.701923 627.785786 400.153846 627.777776 402.605769 627.761757 405.057692 627.745739 407.509615 627.737729 409.961538 627.729720 412.413462 627.729720 414.865385 627.713701 417.317308 627.705691 419.769231 627.689672 422.221154 627.673653 424.673077 627.665644 427.125000 627.169057 429.576923 625.815457 432.028846 624.958444 434.480769 624.397781 436.932692 624.053374 439.384615 623.765033 441.836538 623.532758 444.288462 623.412616 446.740385 623.228399 449.192308 623.100247 451.644231 622.980105 454.096154 622.755840 456.548077 622.547594 459.000000 622.227215 461.451923 621.986931 463.903846 621.794704 466.355769 621.626505 468.807692 621.514372 471.259615 621.402240 473.711538 621.137927 476.163462 621.017785 478.615385 620.897643 481.067308 620.753473 483.519231 620.641340 485.971154 620.553236 488.423077 620.497170 490.875000 620.425085 493.326923 620.336981 495.778846 620.288924 498.230769 620.224848 500.682692 620.176791 503.134615 620.176791 505.586538 620.152763 508.038462 620.128734 510.490385 620.072668 512.942308 620.032621 515.394231 619.984564 517.846154 619.904469 520.298077 619.864422 522.750000 619.760299 525.201923 619.736271 527.653846 619.688214 530.105769 619.656176 532.557692 619.608119 535.009615 619.560062 537.461538 619.479968 539.913462 619.407882 542.365385 619.367835 544.817308 619.327788 547.269231 619.263712 549.721154 619.223665 552.173077 619.199636 554.625000 619.151579 557.076923 619.119541 559.528846 619.071485 561.980769 619.047456 564.432692 619.023428 566.884615 619.007409 569.336538 618.999399 571.788462 618.951343 574.240385 618.935324 576.692308 618.895276 579.144231 618.855229 581.596154 618.839210 584.048077 618.823191 586.500000 618.815182 588.951923 618.807172 591.403846 618.759115 593.855769 618.743096 596.307692 618.719068 598.759615 618.695040 601.211538 618.679021 603.663462 618.638973 606.115385 618.590917 608.567308 618.566888 611.019231 618.526841 613.471154 618.510822 615.923077 618.502812 618.375000 618.494803 620.826923 618.470775 623.278846 618.462765 625.730769 618.438737 628.182692 618.422718 630.634615 618.406699 633.086538 618.382670 635.538462 618.382670 637.990385 618.366652 640.442308 618.350633 642.894231 618.326604 645.346154 618.326604 647.798077 618.286557 650.250000 618.246509 652.701923 618.206462 655.153846 618.174424 657.605769 618.158405 660.057692 618.134377 662.509615 618.022244 664.961538 617.565705 667.413462 617.349449 669.865385 617.197269 672.317308 617.085137 674.769231 616.997032 677.221154 616.900919 679.673077 616.860872 682.125000 616.812815 684.576923 616.740729 687.028846 616.724711 689.480769 616.684663 691.932692 616.644616 694.384615 616.588550 696.836538 616.516464 699.288462 616.460398 701.740385 616.404332 704.192308 616.364285 706.644231 616.292199 709.096154 616.228124 711.548077 616.188076 714.000000 616.172057 716.451923 616.132010 718.903846 616.099972 721.355769 616.043906 723.807692 616.011868 726.259615 615.995849 728.711538 615.963811 731.163462 615.931773 733.615385 615.907745 736.067308 615.899735 738.519231 615.867697 740.971154 615.843669 743.423077 615.827650 745.875000 615.803622 748.326923 615.787603 750.778846 615.755565 753.230769 615.739546 755.682692 615.731537 758.134615 615.723527 760.586538 615.691489 763.038462 615.683480 765.490385 615.667461 767.942308 615.643432 770.394231 615.603385 772.846154 615.579357 775.298077 615.563338 777.750000 615.547319 780.201923 615.547319 782.653846 615.491252 785.105769 615.435186 787.557692 615.403148 790.009615 615.395139 792.461538 615.379120 794.913462 615.371110 797.365385 615.347082 799.817308 615.331063 802.269231 615.315044 804.721154 615.291016 807.173077 615.283006 809.625000 615.242959 812.076923 615.218931 814.528846 615.170874 816.980769 615.122817 819.432692 615.114807 821.884615 615.082770 824.336538 615.058741 826.788462 615.042722 829.240385 615.018694 831.692308 615.002675 834.144231 614.994665 836.596154 614.962628 839.048077 614.938599 841.500000 614.922580 843.951923 614.914571 846.403846 614.906561 848.855769 614.898552 851.307692 614.890542 853.759615 614.858505 856.211538 614.850495 858.663462 614.834476 861.115385 614.826467 863.567308 614.826467 866.019231 614.810448 868.471154 614.810448 870.923077 614.786419 873.375000 614.770400 875.826923 614.762391 878.278846 614.746372 880.730769 614.746372 883.182692 614.738362 885.634615 614.738362 888.086538 614.730353 890.538462 614.706325 892.990385 614.682296 895.442308 614.666277 897.894231 614.634239 900.346154 614.634239" /></g><g class="series serie-2 color-2"><path class="line reactive nofill" d="M17.653846 644.365385 L20.105769 644.365385 22.557692 644.365385 25.009615 644.365385 27.461538 644.365385 29.913462 644.365385 32.365385 644.365385 34.817308 644.365385 37.269231 644.365385 39.721154 644.365385 42.173077 644.365385 44.625000 644.365385 47.076923 644.365385 49.528846 644.365385 51.980769 644.365385 54.432692 644.365385 56.884615 644.365385 59.336538 644.365385 61.788462 644.365385 64.240385 644.365385 66.692308 644.365385 69.144231 644.365385 71.596154 644.365385 74.048077 644.365385 76.500000 644.365385 78.951923 644.365385 81.403846 644.365385 83.855769 644.365385 86.307692 644.365385 88.759615 644.365385 91.211538 644.365385 93.663462 644.365385 96.115385 644.365385 98.567308 644.365385 101.019231 644.365385 103.471154 644.365385 105.923077 644.365385 108.375000 644.365385 110.826923 644.365385 113.278846 644.365385 115.730769 644.365385 118.182692 644.365385 120.634615 644.365385 123.086538 644.365385 125.538462 644.365385 127.990385 644.365385 130.442308 644.365385 132.894231 644.365385 135.346154 644.365385 137.798077 644.365385 140.250000 644.365385 142.701923 644.365385 145.153846 644.365385 147.605769 644.365385 150.057692 644.365385 152.509615 644.365385 154.961538 644.365385 157.413462 644.365385 159.865385 644.365385 162.317308 644.365385 164.769231 644.365385 167.221154 644.365385 169.673077 644.365385 172.125000 644.365385 174.576923 644.365385 177.028846 644.365385 179.480769 644.365385 181.932692 644.365385 184.384615 644.365385 186.836538 644.365385 189.288462 644.365385 191.740385 644.365385 194.192308 644.365385 196.644231 644.365385 199.096154 644.365385 201.548077 644.365385 204.000000 644.365385 206.451923 644.365385 208.903846 644.365385 211.355769 644.365385 213.807692 644.365385 216.259615 644.365385 218.711538 644.365385 221.163462 644.365385 223.615385 644.365385 226.067308 644.365385 228.519231 644.365385 230.971154 644.365385 233.423077 644.365385 235.875000 644.365385 238.326923 644.365385 240.778846 644.365385 243.230769 644.365385 245.682692 644.365385 248.134615 644.365385 250.586538 644.365385 253.038462 644.365385 255.490385 644.365385 257.942308 644.365385 260.394231 644.365385 262.846154 644.365385 265.298077 644.365385 267.750000 644.365385 270.201923 644.365385 272.653846 644.365385 275.105769 644.365385 277.557692 644.365385 280.009615 644.365385 282.461538 644.365385 284.913462 644.365385 287.365385 644.365385 289.817308 644.365385 292.269231 644.365385 294.721154 644.365385 297.173077 644.365385 299.625000 644.365385 302.076923 644.365385 304.528846 644.365385 306.980769 644.365385 309.432692 644.365385 311.884615 644.365385 314.336538 644.365385 316.788462 644.365385 319.240385 644.365385 321.692308 644.365385 324.144231 644.365385 326.596154 644.365385 329.048077 644.365385 331.500000 644.365385 333.951923 644.365385 336.403846 644.365385 338.855769 644.365385 341.307692 644.365385 343.759615 644.365385 346.211538 644.365385 348.663462 644.365385 351.115385 644.365385 353.567308 644.365385 356.019231 644.365385 358.471154 644.365385 360.923077 644.365385 363.375000 644.365385 365.826923 644.365385 368.278846 644.365385 370.730769 644.365385 373.182692 644.365385 375.634615 644.365385 378.086538 644.365385 380.538462 644.365385 382.990385 644.365385 385.442308 644.365385 387.894231 644.365385 390.346154 644.365385 392.798077 644.365385 395.250000 644.365385 397.701923 644.365385 400.153846 644.365385 402.605769 644.365385 405.057692 644.365385 407.509615 644.365385 409.961538 644.365385 412.413462 644.365385 414.865385 644.365385 417.317308 644.365385 419.769231 644.365385 422.221154 644.365385 424.673077 644.365385 427.125000 644.365385 429.576923 644.365385 432.028846 644.365385 434.480769 644.365385 436.932692 644.365385 439.384615 644.365385 441.836538 644.365385 444.288462 644.365385 446.740385 644.365385 449.192308 644.365385 451.644231 644.365385 454.096154 644.365385 456.548077 644.365385 459.000000 644.365385 461.451923 644.365385 463.903846 644.365385 466.355769 644.365385 468.807692 644.365385 471.259615 644.365385 473.711538 644.365385 476.163462 644.365385 478.615385 644.365385 481.067308 644.365385 483.519231 644.365385 485.971154 644.365385 488.423077 644.365385 490.875000 644.365385 493.326923 644.365385 495.778846 644.365385 498.230769 644.365385 500.682692 644.365385 503.134615 644.365385 505.586538 644.365385 508.038462 644.365385 510.490385 644.365385 512.942308 644.365385 515.394231 644.365385 517.846154 644.365385 520.298077 644.365385 522.750000 644.365385 525.201923 644.365385 527.653846 644.365385 530.105769 644.365385 532.557692 644.365385 535.009615 644.365385 537.461538 644.365385 539.913462 644.365385 542.365385 644.365385 544.817308 644.365385 547.269231 644.365385 549.721154 644.365385 552.173077 644.365385 554.625000 644.365385 557.076923 644.365385 559.528846 644.365385 561.980769 644.365385 564.432692 644.365385 566.884615 644.365385 569.336538 644.365385 571.788462 644.365385 574.240385 644.365385 576.692308 644.365385 579.144231 644.365385 581.596154 644.365385 584.048077 644.365385 586.500000 644.365385 588.951923 644.365385 591.403846 644.365385 593.855769 644.365385 596.307692 644.365385 598.759615 644.365385 601.211538 644.365385 603.663462 644.365385 606.115385 644.365385 608.567308 644.365385 611.019231 644.365385 613.471154 644.365385 615.923077 644.365385 618.375000 644.365385 620.826923 644.365385 623.278846 644.365385 625.730769 644.365385 628.182692 644.365385 630.634615 644.365385 633.086538 644.365385 635.538462 644.365385 637.990385 644.365385 640.442308 644.365385 642.894231 644.365385 645.346154 644.365385 647.798077 644.365385 650.250000 644.365385 652.701923 644.365385 655.153846 644.365385 657.605769 644.365385 660.057692 644.365385 662.509615 644.365385 664.961538 618.703049 667.413462 606.889084 669.865385 600.337339 672.317308 596.460757 674.769231 593.441187 677.221154 590.774034 679.673077 588.371194 682.125000 585.591908 684.576923 581.899544 687.028846 578.279264 689.480769 574.699032 691.932692 570.590175 694.384615 566.977905 696.836538 562.885067 699.288462 559.176683 701.740385 556.181142 704.192308 553.313752 706.644231 550.502429 709.096154 547.827267 711.548077 545.368360 714.000000 543.261870 716.451923 540.859030 718.903846 539.008843 721.355769 536.830267 723.807692 535.340506 726.259615 534.115058 728.711538 533.161931 731.163462 532.352975 733.615385 531.768284 736.067308 531.127526 738.519231 530.534825 740.971154 529.998191 743.423077 529.421509 745.875000 528.580515 748.326923 527.411133 750.778846 526.337864 753.230769 524.928198 755.682692 523.790853 758.134615 522.437253 760.586538 521.091663 763.038462 519.906261 765.490385 518.688822 767.942308 517.695648 770.394231 516.438162 772.846154 515.212713 775.298077 514.027312 777.750000 512.865939 780.201923 511.776651 782.653846 510.831534 785.105769 509.838360 787.557692 509.109499 790.009615 508.204429 792.461538 507.331397 794.913462 506.338223 797.365385 505.264954 799.817308 504.095572 802.269231 501.788845 804.721154 498.537001 807.173077 493.979614 809.625000 488.044598 812.076923 482.614178 814.528846 477.512147 816.980769 474.196228 819.432692 471.272772 821.884615 467.724577 824.336538 464.064251 826.788462 460.620179 829.240385 457.977055 831.692308 456.126868 834.144231 454.805306 836.596154 453.347582 839.048077 451.969954 841.500000 450.920714 843.951923 449.831426 846.403846 449.270763 848.855769 448.862280 851.307692 448.309627 853.759615 447.925173 856.211538 447.532709 858.663462 447.084178 861.115385 446.475459 863.567308 445.650484 866.019231 444.360959 868.471154 442.686980 870.923077 441.109115 873.375000 439.643383 875.826923 438.289783 878.278846 437.008268 880.730769 435.742772 883.182692 434.196944 885.634615 432.915430 888.086538 431.593867 890.538462 430.576665 892.990385 429.647567 895.442308 428.814582 897.894231 427.941550 900.346154 427.941550" /></g><g class="series serie-3 color-3"><path class="line reactive nofill" d="M17.653846 628.290382 L20.105769 622.275272 22.557692 618.919305 25.009615 616.684663 27.461538 614.578173 29.913462 613.176516 32.365385 611.766850 34.817308 610.124909 37.269231 607.674012 39.721154 604.518281 42.173077 601.218381 44.625000 596.701041 47.076923 592.568155 49.528846 589.756832 51.980769 587.169774 54.432692 585.023236 56.884615 582.796604 59.336538 580.618029 61.788462 578.423435 64.240385 576.509172 66.692308 575.003392 69.144231 573.665811 71.596154 572.480409 74.048077 571.359084 76.500000 570.478042 78.951923 569.396764 81.403846 568.884158 83.855769 568.515723 86.307692 568.067192 88.759615 567.642691 91.211538 567.362359 93.663462 567.098047 96.115385 566.561413 98.567308 565.936674 101.019231 565.255869 103.471154 564.334780 105.923077 563.413692 108.375000 562.508622 110.826923 561.651609 113.278846 560.938766 115.730769 560.121800 118.182692 559.280806 120.634615 558.551945 123.086538 557.919197 125.538462 557.390572 127.990385 556.757824 130.442308 556.189151 132.894231 555.716593 135.346154 555.236025 137.798077 554.851570 140.250000 554.475125 142.701923 554.330955 145.153846 554.162756 147.605769 553.986548 150.057692 553.762283 152.509615 553.586074 154.961538 553.249677 157.413462 552.825175 159.865385 552.464749 162.317308 551.904086 164.769231 551.335414 167.221154 550.854846 169.673077 550.366268 172.125000 549.805605 174.576923 549.333047 177.028846 548.748356 179.480769 548.147646 181.932692 547.578973 184.384615 547.138453 186.836538 546.834093 189.288462 546.481676 191.740385 546.113241 194.192308 545.656701 196.644231 545.368360 199.096154 545.184142 201.548077 545.007934 204.000000 544.887792 206.451923 544.751631 208.903846 544.599451 211.355769 544.487319 213.807692 544.247035 216.259615 543.966703 218.711538 543.606277 221.163462 543.285899 223.615385 542.949501 226.067308 542.516990 228.519231 542.092488 230.971154 541.756090 233.423077 541.347607 235.875000 540.971162 238.326923 540.570689 240.778846 540.258320 243.230769 540.050073 245.682692 539.801780 248.134615 539.577515 250.586538 539.369269 253.038462 539.088937 255.490385 538.920738 257.942308 538.776568 260.394231 538.664435 262.846154 538.528275 265.298077 538.424151 267.750000 538.360076 270.201923 538.296000 272.653846 538.167848 275.105769 538.095763 277.557692 537.959602 280.009615 537.823441 282.461538 537.743347 284.913462 537.647233 287.365385 537.575148 289.817308 537.406949 292.269231 537.254769 294.721154 537.158655 297.173077 536.966428 299.625000 536.806239 302.076923 536.662068 304.528846 536.493870 306.980769 536.285623 309.432692 536.157472 311.884615 536.061358 314.336538 535.989273 316.788462 535.837093 319.240385 535.724961 321.692308 535.636857 324.144231 535.532733 326.596154 535.444629 329.048077 535.380554 331.500000 535.268421 333.951923 535.164298 336.403846 535.060175 338.855769 534.972071 341.307692 534.891976 343.759615 534.707758 346.211538 534.571597 348.663462 534.411408 351.115385 534.275247 353.567308 534.147096 356.019231 534.018944 358.471154 533.882783 360.923077 533.786669 363.375000 533.666527 365.826923 533.530366 368.278846 533.338139 370.730769 533.201978 373.182692 533.049798 375.634615 532.961694 378.086538 532.873590 380.538462 532.785486 382.990385 532.681363 385.442308 532.537192 387.894231 532.465107 390.346154 532.360984 392.798077 532.160747 395.250000 531.960511 397.701923 531.584066 400.153846 531.167573 402.605769 530.687005 405.057692 530.302551 407.509615 529.862030 409.961538 529.469566 412.413462 528.884875 414.865385 528.412316 417.317308 528.156013 419.769231 527.867673 422.221154 527.555303 424.673077 527.218906 427.125000 526.858480 429.576923 486.971329 432.028846 468.020928 434.480769 457.776818 436.932692 450.215880 439.384615 443.728211 441.836538 438.289783 444.288462 432.154530 446.740385 426.155439 449.192308 417.465166 451.644231 404.802197 454.096154 388.134494 456.548077 366.917413 459.000000 348.687864 461.451923 332.628881 463.903846 320.230224 466.355769 309.321329 468.807692 298.164140 471.259615 287.639699 473.711538 277.595826 476.163462 269.506263 478.615385 263.346983 481.067308 257.996658 483.519231 253.046807 485.971154 248.553495 488.423077 244.748998 490.875000 241.401040 493.326923 239.174408 495.778846 237.748723 498.230769 236.571331 500.682692 235.273797 503.134615 234.040339 505.586538 232.494512 508.038462 230.420060 510.490385 227.712859 512.942308 224.084570 515.394231 219.975713 517.846154 215.858847 520.298077 211.533734 522.750000 207.697199 525.201923 203.988815 527.653846 200.288441 530.105769 196.499963 532.557692 192.607361 535.009615 189.523716 537.461538 186.608270 539.913462 184.349600 542.365385 182.018845 544.817308 179.976430 547.269231 177.966054 549.721154 176.596435 552.173077 175.403024 554.625000 174.441888 557.076923 173.745064 559.528846 172.831985 561.980769 172.135161 564.432692 171.246110 566.884615 170.188860 569.336538 169.091563 571.788462 167.105215 574.240385 165.078820 576.692308 163.012377 579.144231 160.697641 581.596154 158.607170 584.048077 156.628831 586.500000 154.282057 588.951923 152.151538 591.403846 150.133152 593.855769 148.643391 596.307692 146.905337 598.759615 145.375528 601.211538 144.238184 603.663462 143.108849 606.115385 141.915438 608.567308 140.938283 611.019231 140.257478 613.471154 139.736863 615.923077 139.264304 618.375000 138.887859 620.826923 138.391272 623.278846 137.878666 625.730769 137.309994 628.182692 136.589142 630.634615 135.764167 633.086538 134.779002 635.538462 133.489478 637.990385 132.175925 640.442308 131.150713 642.894231 130.173558 645.346154 128.771901 647.798077 127.402282 650.250000 125.944559 652.701923 124.879300 655.153846 124.110391 657.605769 123.165274 660.057692 122.252194 662.509615 121.515323 664.961538 113.201496 667.413462 108.748231 669.865385 105.920889 672.317308 104.118759 674.769231 102.973405 677.221154 101.956202 679.673077 101.171275 682.125000 100.242176 684.576923 99.088813 687.028846 97.767251 689.480769 96.437679 691.932692 94.947918 694.384615 93.666403 696.836538 92.000434 699.288462 90.638824 701.740385 89.485461 704.192308 87.995700 706.644231 86.778261 709.096154 85.528784 711.548077 84.295326 714.000000 83.318170 716.451923 82.212864 718.903846 81.283766 721.355769 80.098364 723.807692 79.233342 726.259615 78.440404 728.711538 77.943817 731.163462 77.351117 733.615385 76.990691 736.067308 76.622255 738.519231 76.333914 740.971154 76.013536 743.423077 75.685147 745.875000 75.300693 748.326923 74.756049 750.778846 74.179367 753.230769 73.306335 755.682692 72.481360 758.134615 71.648376 760.586538 71.063684 763.038462 70.262738 765.490385 69.597952 767.942308 68.973213 770.394231 68.164257 772.846154 67.443405 775.298077 66.666486 777.750000 66.129852 780.201923 65.529142 782.653846 64.840328 785.105769 64.255637 787.557692 63.847154 790.009615 63.398624 792.461538 62.958103 794.913462 62.349383 797.365385 61.796730 799.817308 61.131944 802.269231 60.194836 804.721154 58.801189 807.173077 56.806831 809.625000 54.379963 812.076923 51.576649 814.528846 48.581108 816.980769 46.602769 819.432692 44.672487 821.884615 42.421827 824.336538 40.155147 826.788462 37.992591 829.240385 36.102357 831.692308 34.820842 834.144231 33.619422 836.596154 32.434020 839.048077 31.184543 841.500000 30.215398 843.951923 29.422460 846.403846 28.749665 848.855769 28.333173 851.307692 28.012794 853.759615 27.596302 856.211538 27.235876 858.663462 26.883459 861.115385 26.474976 863.567308 25.978389 866.019231 24.937158 868.471154 23.863890 870.923077 22.678488 873.375000 21.621238 875.826923 20.531951 878.278846 19.722995 880.730769 18.809915 883.182692 17.664561 885.634615 16.727454 888.086538 15.582100 890.538462 14.813191 892.990385 14.156414 895.442308 13.395515 897.894231 12.634615 900.346154 12.634615" /></g></g><g class="titles"><text class="title plot_title" x="512.0" y="26">SO 6 and Math.SE 5 Participation</text><text class="title" transform="rotate(-90 0.000000 374.500000)" x="0" y="400.5">Users</text></g><g class="plot overlay" transform="translate(86, 46)"><g class="series serie-0 color-0" /><g class="series serie-1 color-1" /><g class="series serie-2 color-2" /><g class="series serie-3 color-3" /></g><g class="plot text-overlay" transform="translate(86, 46)"><g class="series serie-0 color-0" /><g class="series serie-1 color-1" /><g class="series serie-2 color-2" /><g class="series serie-3 color-3" /></g><g class="plot tooltip-overlay" transform="translate(86, 46)"><g class="tooltip" style="opacity: 0" transform="translate(0 0)"><a><rect class="tooltip-box" height="0" rx="0" ry="0" width="0" /><text class="text"><tspan class="label" /><tspan class="value" /></text></a></g></g><g class="legends" transform="translate(96, 713)"><g class="legend reactive activate-serie" id="activate-serie-0"><rect class="color-0 reactive" height="12" width="12" x="0.0" y="1.0" /><text x="17.0" y="11.2">Math.SE 5 Constituents</text></g><g class="legend reactive activate-serie" id="activate-serie-1"><rect class="color-1 reactive" height="12" width="12" x="459.0" y="1.0" /><text x="476.0" y="11.2">Math.SE 5 Caucus</text></g><g class="legend reactive activate-serie" id="activate-serie-2"><rect class="color-2 reactive" height="12" width="12" x="0.0" y="22.0" /><text x="17.0" y="32.2">SO 6 Constituents</text></g><g class="legend reactive activate-serie" id="activate-serie-3"><rect class="color-3 reactive" height="12" width="12" x="459.0" y="22.0" /><text x="476.0" y="32.2">SO 6 Caucus</text></g></g></g></svg>