<?xml version='1.0' encoding='utf-8'?>
<svg xmlns:xlink="http://www.w3.org/1999/xlink" class="pygal-chart" id="chart-3b2f5ede-043c-4fb3-bdf0-d1fad81fe260" viewBox="0 0 1024 768" xmlns="http://www.w3.org/2000/svg"><!--Generated with pygal 1.7.0 (etree) ©Kozea 2011-2014 on 2015-04-20--><!--http://pygal.org--><!--http://github.com/Kozea/pygal--><defs><style type="text/css">#chart-3b2f5ede-043c-4fb3-bdf0-d1fad81fe260 .title{font-family:"monospace";font-size:16px}#chart-3b2f5ede-043c-4fb3-bdf0-d1fad81fe260 .legends .legend text{font-family:"monospace";font-size:14px}#chart-3b2f5ede-043c-4fb3-bdf0-d1fad81fe260 .axis text{font-family:"monospace";font-size:10px}#chart-3b2f5ede-043c-4fb3-bdf0-d1fad81fe260 .axis text.major{font-family:"monospace";font-size:10px}#chart-3b2f5ede-043c-4fb3-bdf0-d1fad81fe260 .series text{font-family:"monospace";font-size:8px}#chart-3b2f5ede-043c-4fb3-bdf0-d1fad81fe260 .tooltip text{font-family:"monospace";font-size:16px}#chart-3b2f5ede-043c-4fb3-bdf0-d1fad81fe260 text.no_data{font-size:64px}
#chart-3b2f5ede-043c-4fb3-bdf0-d1fad81fe260{background-color:black}#chart-3b2f5ede-043c-4fb3-bdf0-d1fad81fe260 path,#chart-3b2f5ede-043c-4fb3-bdf0-d1fad81fe260 line,#chart-3b2f5ede-043c-4fb3-bdf0-d1fad81fe260 rect,#chart-3b2f5ede-043c-4fb3-bdf0-d1fad81fe260 circle{-webkit-transition:250ms;-moz-transition:250ms;transition:250ms}#chart-3b2f5ede-043c-4fb3-bdf0-d1fad81fe260 .graph &gt; .background{fill:black}#chart-3b2f5ede-043c-4fb3-bdf0-d1fad81fe260 .plot &gt; .background{fill:#111}#chart-3b2f5ede-043c-4fb3-bdf0-d1fad81fe260 .graph{fill:#999}#chart-3b2f5ede-043c-4fb3-bdf0-d1fad81fe260 text.no_data{fill:#eee}#chart-3b2f5ede-043c-4fb3-bdf0-d1fad81fe260 .title{fill:#eee}#chart-3b2f5ede-043c-4fb3-bdf0-d1fad81fe260 .legends .legend text{fill:#999}#chart-3b2f5ede-043c-4fb3-bdf0-d1fad81fe260 .legends .legend:hover text{fill:#eee}#chart-3b2f5ede-043c-4fb3-bdf0-d1fad81fe260 .axis .line{stroke:#eee}#chart-3b2f5ede-043c-4fb3-bdf0-d1fad81fe260 .axis .guide.line{stroke:#555}#chart-3b2f5ede-043c-4fb3-bdf0-d1fad81fe260 .axis .major.line{stroke:#999}#chart-3b2f5ede-043c-4fb3-bdf0-d1fad81fe260 .axis text.major{stroke:#eee;fill:#eee}#chart-3b2f5ede-043c-4fb3-bdf0-d1fad81fe260 .axis.y .guides:hover .guide.line,#chart-3b2f5ede-043c-4fb3-bdf0-d1fad81fe260 .line-graph .axis.x .guides:hover .guide.line,#chart-3b2f5ede-043c-4fb3-bdf0-d1fad81fe260 .stackedline-graph .axis.x .guides:hover .guide.line,#chart-3b2f5ede-043c-4fb3-bdf0-d1fad81fe260 .xy-graph .axis.x .guides:hover .guide.line{stroke:#eee}#chart-3b2f5ede-043c-4fb3-bdf0-d1fad81fe260 .axis .guides:hover text{fill:#eee}#chart-3b2f5ede-043c-4fb3-bdf0-d1fad81fe260 .reactive{fill-opacity:.8}#chart-3b2f5ede-043c-4fb3-bdf0-d1fad81fe260 .reactive.active,#chart-3b2f5ede-043c-4fb3-bdf0-d1fad81fe260 .active .reactive{fill-opacity:.4}#chart-3b2f5ede-043c-4fb3-bdf0-d1fad81fe260 .series{stroke-width:1.0;stroke-linejoin:round;stroke-linecap:round;stroke-dasharray:0,0}#chart-3b2f5ede-043c-4fb3-bdf0-d1fad81fe260 .series text{fill:#eee}#chart-3b2f5ede-043c-4fb3-bdf0-d1fad81fe260 .tooltip rect{fill:#111;stroke:#eee}#chart-3b2f5ede-043c-4fb3-bdf0-d1fad81fe260 .tooltip text{fill:#eee}#chart-3b2f5ede-043c-4fb3-bdf0-d1fad81fe260 .map-element{fill:#999;stroke:#555 !important;opacity:.9;stroke-width:3;-webkit-transition:250ms;-moz-transition:250ms;-o-transition:250ms;transition:250ms}#chart-3b2f5ede-043c-4fb3-bdf0-d1fad81fe260 .map-element:hover{opacity:1;stroke-width:10}#chart-3b2f5ede-043c-4fb3-bdf0-d1fad81fe260 .color-0,#chart-3b2f5ede-043c-4fb3-bdf0-d1fad81fe260 .color-0 a:visited{stroke:#ff5995;fill:#ff5995}#chart-3b2f5ede-043c-4fb3-bdf0-d1fad81fe260 .color-1,#chart-3b2f5ede-043c-4fb3-bdf0-d1fad81fe260 .color-1 a:visited{stroke:#b6e354;fill:#b6e354}#chart-3b2f5ede-043c-4fb3-bdf0-d1fad81fe260 .color-2,#chart-3b2f5ede-043c-4fb3-bdf0-d1fad81fe260 .color-2 a:visited{stroke:#feed6c;fill:#feed6c}#chart-3b2f5ede-043c-4fb3-bdf0-d1fad81fe260 .color-3,#chart-3b2f5ede-043c-4fb3-bdf0-d1fad81fe260 .color-3 a:visited{stroke:#8cedff;fill:#8cedff}#chart-3b2f5ede-043c-4fb3-bdf0-d1fad81fe260 .color-4,#chart-3b2f5ede-043c-4fb3-bdf0-d1fad81fe260 .color-4 a:visited{stroke:#9e6ffe;fill:#9e6ffe}#chart-3b2f5ede-043c-4fb3-bdf0-d1fad81fe260 .color-5,#chart-3b2f5ede-043c-4fb3-bdf0-d1fad81fe260 .color-5 a:visited{stroke:#899ca1;fill:#899ca1}#chart-3b2f5ede-043c-4fb3-bdf0-d1fad81fe260 .color-6,#chart-3b2f5ede-043c-4fb3-bdf0-d1fad81fe260 .color-6 a:visited{stroke:#f8f8f2;fill:#f8f8f2}#chart-3b2f5ede-043c-4fb3-bdf0-d1fad81fe260 .color-7,#chart-3b2f5ede-043c-4fb3-bdf0-d1fad81fe260 .color-7 a:visited{stroke:#bf4646;fill:#bf4646}#chart-3b2f5ede-043c-4fb3-bdf0-d1fad81fe260 .color-8,#chart-3b2f5ede-043c-4fb3-bdf0-d1fad81fe260 .color-8 a:visited{stroke:#516083;fill:#516083}#chart-3b2f5ede-043c-4fb3-bdf0-d1fad81fe260 .color-9,#chart-3b2f5ede-043c-4fb3-bdf0-d1fad81fe260 .color-9 a:visited{stroke:#f92672;fill:#f92672}#chart-3b2f5ede-043c-4fb3-bdf0-d1fad81fe260 .color-10,#chart-3b2f5ede-043c-4fb3-bdf0-d1fad81fe260 .color-10 a:visited{stroke:#82b414;fill:#82b414}#chart-3b2f5ede-043c-4fb3-bdf0-d1fad81fe260 .color-11,#chart-3b2f5ede-043c-4fb3-bdf0-d1fad81fe260 .color-11 a:visited{stroke:#fd971f;fill:#fd971f}#chart-3b2f5ede-043c-4fb3-bdf0-d1fad81fe260 .color-12,#chart-3b2f5ede-043c-4fb3-bdf0-d1fad81fe260 .color-12 a:visited{stroke:#56c2d6;fill:#56c2d6}#chart-3b2f5ede-043c-4fb3-bdf0-d1fad81fe260 .color-13,#chart-3b2f5ede-043c-4fb3-bdf0-d1fad81fe260 .color-13 a:visited{stroke:#808384;fill:#808384}#chart-3b2f5ede-043c-4fb3-bdf0-d1fad81fe260 .color-14,#chart-3b2f5ede-043c-4fb3-bdf0-d1fad81fe260 .color-14 a:visited{stroke:#8c54fe;fill:#8c54fe}#chart-3b2f5ede-043c-4fb3-bdf0-d1fad81fe260 .color-15,#chart-3b2f5ede-043c-4fb3-bdf0-d1fad81fe260 .color-15 a:visited{stroke:#465457;fill:#465457}
#chart-3b2f5ede-043c-4fb3-bdf0-d1fad81fe260 text.no_data{text-anchor:middle}#chart-3b2f5ede-043c-4fb3-bdf0-d1fad81fe260 .guide.line{fill-opacity:0}#chart-3b2f5ede-043c-4fb3-bdf0-d1fad81fe260 .centered{text-anchor:middle}#chart-3b2f5ede-043c-4fb3-bdf0-d1fad81fe260 .title{text-anchor:middle}#chart-3b2f5ede-043c-4fb3-bdf0-d1fad81fe260 .legends .legend text{fill-opacity:1}#chart-3b2f5ede-043c-4fb3-bdf0-d1fad81fe260 .axis.x text{text-anchor:middle}#chart-3b2f5ede-043c-4fb3-bdf0-d1fad81fe260 .axis.x:not(.web) text[transform]{text-anchor:start}#chart-3b2f5ede-043c-4fb3-bdf0-d1fad81fe260 .axis.y text{text-anchor:end}#chart-3b2f5ede-043c-4fb3-bdf0-d1fad81fe260 .axis.y2 text{text-anchor:start}#chart-3b2f5ede-043c-4fb3-bdf0-d1fad81fe260 .axis.y .logarithmic text:not(.major),#chart-3b2f5ede-043c-4fb3-bdf0-d1fad81fe260 .axis.y2 .logarithmic text:not(.major){font-size:50%}#chart-3b2f5ede-043c-4fb3-bdf0-d1fad81fe260 .axis .guide.line{stroke-dasharray:4,4}#chart-3b2f5ede-043c-4fb3-bdf0-d1fad81fe260 .axis .major.guide.line{stroke-dasharray:6,6}#chart-3b2f5ede-043c-4fb3-bdf0-d1fad81fe260 .axis text.major{stroke-width:0.5px}#chart-3b2f5ede-043c-4fb3-bdf0-d1fad81fe260 .horizontal .axis.y .guide.line,#chart-3b2f5ede-043c-4fb3-bdf0-d1fad81fe260 .horizontal .axis.y2 .guide.line,#chart-3b2f5ede-043c-4fb3-bdf0-d1fad81fe260 .vertical .axis.x .guide.line{opacity:0}#chart-3b2f5ede-043c-4fb3-bdf0-d1fad81fe260 .horizontal .axis.always_show .guide.line,#chart-3b2f5ede-043c-4fb3-bdf0-d1fad81fe260 .vertical .axis.always_show .guide.line{opacity:1 !important}#chart-3b2f5ede-043c-4fb3-bdf0-d1fad81fe260 .axis.y .guides:hover .guide.line,#chart-3b2f5ede-043c-4fb3-bdf0-d1fad81fe260 .axis.y2 .guides:hover .guide.line,#chart-3b2f5ede-043c-4fb3-bdf0-d1fad81fe260 .axis.x .guides:hover .guide.line{opacity:1}#chart-3b2f5ede-043c-4fb3-bdf0-d1fad81fe260 .axis .guides:hover text{opacity:1}#chart-3b2f5ede-043c-4fb3-bdf0-d1fad81fe260 .nofill{fill:none}#chart-3b2f5ede-043c-4fb3-bdf0-d1fad81fe260 .subtle-fill{fill-opacity:.2}#chart-3b2f5ede-043c-4fb3-bdf0-d1fad81fe260 .dot{stroke-width:1px;fill-opacity:1}#chart-3b2f5ede-043c-4fb3-bdf0-d1fad81fe260 .dot.active{stroke-width:5px}#chart-3b2f5ede-043c-4fb3-bdf0-d1fad81fe260 .series text{stroke:none}#chart-3b2f5ede-043c-4fb3-bdf0-d1fad81fe260 .series text.active{opacity:1}#chart-3b2f5ede-043c-4fb3-bdf0-d1fad81fe260 .tooltip rect{fill-opacity:0.8}#chart-3b2f5ede-043c-4fb3-bdf0-d1fad81fe260 .tooltip text{fill-opacity:1}#chart-3b2f5ede-043c-4fb3-bdf0-d1fad81fe260 .tooltip text tspan.label{fill-opacity:.8}</style><script type="text/javascript">window.config = {"no_prefix": false, "print_zeroes": false, "dots_size": 2.5, "range": null, "show_minor_x_labels": true, "missing_value_fill_truncation": "x", "js": ["http://kozea.github.io/pygal.js/javascripts/svg.jquery.js", "http://kozea.github.io/pygal.js/javascripts/pygal-tooltips.js"], "human_readable": false, "logarithmic": false, "x_label_rotation": 0, "disable_xml_declaration": false, "no_data_text": "No data", "legend_box_size": 12, "height": 768, "half_pie": false, "major_label_font_size": 10, "x_labels_major_every": null, "interpolation_parameters": {}, "rounded_bars": null, "css": ["style.css", "graph.css"], "spacing": 10, "tooltip_font_size": 16, "show_y_labels": true, "show_x_guides": false, "fill": false, "margin_left": null, "margin": 20, "truncate_legend": null, "legend_at_bottom_columns": null, "y_labels": null, "legend_font_size": 14, "show_x_labels": true, "x_label_format": "%Y-%m-%d %H:%M:%S.%f", "x_title": null, "x_labels": null, "y_title": "Users", "y_labels_major_count": null, "include_x_axis": false, "print_values": false, "order_min": null, "inner_radius": 0, "x_labels_major": null, "pretty_print": false, "show_dots": false, "truncate_label": null, "tooltip_border_radius": 0, "explicit_size": false, "legend_at_bottom": true, "width": 1024, "label_font_size": 10, "interpolate": null, "margin_right": null, "zero": 0, "x_value_formatter": null, "show_y_guides": true, "title": "SO 6 and Math.SE 5 Participation", "margin_bottom": null, "stroke": true, "style": {"font_family": "monospace", "colors": ["#ff5995", "#b6e354", "#feed6c", "#8cedff", "#9e6ffe", "#899ca1", "#f8f8f2", "#bf4646", "#516083", "#f92672", "#82b414", "#fd971f", "#56c2d6", "#808384", "#8c54fe", "#465457"], "transition": "250ms", "stroke_width": 1.0, "foreground": "#999", "background": "black", "stroke_dasharray": "0,0", "plot_background": "#111", "foreground_light": "#eee", "opacity_hover": ".4", "opacity": ".8", "foreground_dark": "#555", "stroke_style": "round"}, "value_font_size": 8, "show_minor_y_labels": true, "mode": null, "show_legend": true, "y_label_rotation": 0, "stack_from_top": false, "no_data_font_size": 64, "margin_top": null, "interpolation_precision": 250, "strict": false, "y_labels_major": null, "title_font_size": 16, "show_only_major_dots": false, "xrange": null, "y_labels_major_every": null, "x_labels_major_count": null}</script><script type="text/javascript" xlink:href="http://kozea.github.io/pygal.js/javascripts/svg.jquery.js" /><script type="text/javascript" xlink:href="http://kozea.github.io/pygal.js/javascripts/pygal-tooltips.js" /></defs><title>SO 6 and Math.SE 5 Participation</title><g class="graph line-graph vertical"><rect class="background" height="768" width="1024" x="0" y="0" /><g class="plot" transform="translate(86, 46)"><rect class="background" height="657.0" width="918.0" x="0" y="0" /><g class="axis y"><g class="guides"><path class="axis major line" d="M0.000000 644.365385 h918.000000" /><text class="major" x="-5" y="647.8653846153846">0</text></g><g class="guides"><path class="guide line" d="M0.000000 562.536034 h918.000000" /><text class="" x="-5" y="566.036034058945">10000</text></g><g class="guides"><path class="guide line" d="M0.000000 480.706684 h918.000000" /><text class="" x="-5" y="484.2066835025055">20000</text></g><g class="guides"><path class="guide line" d="M0.000000 398.877333 h918.000000" /><text class="" x="-5" y="402.3773329460659">30000</text></g><g class="guides"><path class="guide line" d="M0.000000 317.047982 h918.000000" /><text class="" x="-5" y="320.5479823896263">40000</text></g><g class="guides"><path class="major guide line" d="M0.000000 235.218632 h918.000000" /><text class="major" x="-5" y="238.71863183318675">50000</text></g><g class="guides"><path class="guide line" d="M0.000000 153.389281 h918.000000" /><text class="" x="-5" y="156.88928127674717">60000</text></g><g class="guides"><path class="guide line" d="M0.000000 71.559931 h918.000000" /><text class="" x="-5" y="75.05993072030753">70000</text></g></g><g class="series serie-0 color-0"><path class="line reactive nofill" d="M17.653846 644.365385 L20.105769 644.365385 22.557692 644.365385 25.009615 644.365385 27.461538 644.365385 29.913462 644.365385 32.365385 644.365385 34.817308 644.365385 37.269231 644.365385 39.721154 644.365385 42.173077 644.365385 44.625000 644.365385 47.076923 644.365385 49.528846 644.365385 51.980769 644.365385 54.432692 644.365385 56.884615 644.365385 59.336538 644.365385 61.788462 644.365385 64.240385 644.365385 66.692308 644.365385 69.144231 644.365385 71.596154 644.365385 74.048077 644.365385 76.500000 644.365385 78.951923 644.365385 81.403846 644.365385 83.855769 644.365385 86.307692 644.365385 88.759615 644.365385 91.211538 644.365385 93.663462 644.365385 96.115385 644.365385 98.567308 644.365385 101.019231 644.365385 103.471154 644.365385 105.923077 644.365385 108.375000 644.365385 110.826923 644.365385 113.278846 644.365385 115.730769 644.365385 118.182692 644.365385 120.634615 644.365385 123.086538 644.365385 125.538462 644.365385 127.990385 644.365385 130.442308 644.365385 132.894231 644.365385 135.346154 644.365385 137.798077 644.365385 140.250000 644.365385 142.701923 644.365385 145.153846 644.365385 147.605769 644.365385 150.057692 644.365385 152.509615 644.365385 154.961538 644.365385 157.413462 644.365385 159.865385 644.365385 162.317308 644.365385 164.769231 644.365385 167.221154 644.365385 169.673077 644.365385 172.125000 644.365385 174.576923 644.365385 177.028846 644.365385 179.480769 644.365385 181.932692 644.365385 184.384615 644.365385 186.836538 644.365385 189.288462 644.365385 191.740385 644.365385 194.192308 644.365385 196.644231 644.365385 199.096154 644.365385 201.548077 644.365385 204.000000 644.365385 206.451923 644.365385 208.903846 644.365385 211.355769 644.365385 213.807692 644.365385 216.259615 644.365385 218.711538 644.365385 221.163462 644.365385 223.615385 644.365385 226.067308 644.365385 228.519231 644.365385 230.971154 644.365385 233.423077 644.365385 235.875000 644.365385 238.326923 644.365385 240.778846 644.365385 243.230769 644.365385 245.682692 644.365385 248.134615 644.365385 250.586538 644.365385 253.038462 644.365385 255.490385 644.365385 257.942308 644.365385 260.394231 644.365385 262.846154 644.365385 265.298077 644.365385 267.750000 644.365385 270.201923 644.365385 272.653846 644.365385 275.105769 644.365385 277.557692 644.365385 280.009615 644.365385 282.461538 644.365385 284.913462 644.365385 287.365385 644.365385 289.817308 644.365385 292.269231 644.365385 294.721154 644.365385 297.173077 644.365385 299.625000 644.365385 302.076923 644.365385 304.528846 644.365385 306.980769 644.365385 309.432692 644.365385 311.884615 644.365385 314.336538 644.365385 316.788462 644.365385 319.240385 644.365385 321.692308 644.365385 324.144231 644.365385 326.596154 644.365385 329.048077 644.365385 331.500000 644.365385 333.951923 644.365385 336.403846 644.365385 338.855769 644.365385 341.307692 644.365385 343.759615 644.365385 346.211538 644.365385 348.663462 644.365385 351.115385 644.365385 353.567308 644.365385 356.019231 644.365385 358.471154 644.365385 360.923077 644.365385 363.375000 644.365385 365.826923 644.365385 368.278846 644.365385 370.730769 644.365385 373.182692 644.365385 375.634615 644.365385 378.086538 644.365385 380.538462 644.365385 382.990385 644.365385 385.442308 644.365385 387.894231 644.365385 390.346154 644.365385 392.798077 644.365385 395.250000 644.365385 397.701923 644.365385 400.153846 644.365385 402.605769 644.365385 405.057692 644.365385 407.509615 644.365385 409.961538 644.365385 412.413462 644.365385 414.865385 644.365385 417.317308 644.365385 419.769231 644.365385 422.221154 644.365385 424.673077 644.365385 427.125000 644.365385 429.576923 644.365385 432.028846 644.365385 434.480769 644.365385 436.932692 644.365385 439.384615 644.365385 441.836538 644.365385 444.288462 644.365385 446.740385 644.365385 449.192308 644.365385 451.644231 644.365385 454.096154 644.365385 456.548077 644.365385 459.000000 644.365385 461.451923 644.365385 463.903846 644.365385 466.355769 644.365385 468.807692 644.365385 471.259615 644.365385 473.711538 644.365385 476.163462 644.365385 478.615385 644.365385 481.067308 644.365385 483.519231 644.365385 485.971154 644.365385 488.423077 644.365385 490.875000 644.365385 493.326923 644.365385 495.778846 644.365385 498.230769 644.365385 500.682692 644.365385 503.134615 644.365385 505.586538 644.365385 508.038462 644.365385 510.490385 644.365385 512.942308 644.365385 515.394231 644.365385 517.846154 644.365385 520.298077 644.365385 522.750000 644.365385 525.201923 644.365385 527.653846 644.365385 530.105769 644.365385 532.557692 644.365385 535.009615 644.365385 537.461538 644.365385 539.913462 644.365385 542.365385 644.365385 544.817308 644.365385 547.269231 644.365385 549.721154 644.365385 552.173077 644.365385 554.625000 644.365385 557.076923 644.365385 559.528846 644.365385 561.980769 644.365385 564.432692 644.365385 566.884615 644.365385 569.336538 644.365385 571.788462 644.365385 574.240385 644.365385 576.692308 644.365385 579.144231 644.365385 581.596154 644.365385 584.048077 644.365385 586.500000 644.365385 588.951923 644.365385 591.403846 644.365385 593.855769 644.365385 596.307692 644.365385 598.759615 644.365385 601.211538 644.365385 603.663462 644.365385 606.115385 644.365385 608.567308 644.365385 611.019231 644.365385 613.471154 644.365385 615.923077 644.365385 618.375000 644.365385 620.826923 644.365385 623.278846 644.365385 625.730769 644.365385 628.182692 644.365385 630.634615 644.365385 633.086538 644.365385 635.538462 644.365385 637.990385 644.365385 640.442308 644.365385 642.894231 644.365385 645.346154 644.365385 647.798077 644.365385 650.250000 644.365385 652.701923 644.365385 655.153846 644.365385 657.605769 644.365385 660.057692 644.365385 662.509615 643.874409 664.961538 641.795943 667.413462 640.863088 669.865385 640.142990 672.317308 639.578368 674.769231 639.291965 677.221154 638.948282 679.673077 638.710976 682.125000 638.514586 684.576923 638.326379 687.028846 638.154537 689.480769 638.007244 691.932692 637.859951 694.384615 637.663561 696.836538 637.393524 699.288462 637.205316 701.740385 637.090755 704.192308 636.918914 706.644231 636.714340 709.096154 636.509767 711.548077 636.337925 714.000000 636.256096 716.451923 636.149718 718.903846 636.043340 721.355769 635.945144 723.807692 635.846949 726.259615 635.740571 728.711538 635.683291 731.163462 635.617827 733.615385 635.544181 736.067308 635.495083 738.519231 635.429620 740.971154 635.405071 743.423077 635.347790 745.875000 635.298693 748.326923 635.225046 750.778846 635.151400 753.230769 635.094119 755.682692 635.036839 758.134615 635.004107 760.586538 634.971375 763.038462 634.938643 765.490385 634.873180 767.942308 634.774985 770.394231 634.750436 772.846154 634.660424 775.298077 634.611326 777.750000 634.529497 780.201923 634.472216 782.653846 634.406753 785.105769 634.374021 787.557692 634.308557 790.009615 634.267643 792.461538 634.243094 794.913462 634.234911 797.365385 634.177630 799.817308 634.153082 802.269231 634.112167 804.721154 634.087618 807.173077 634.071252 809.625000 634.030338 812.076923 633.989423 814.528846 633.923959 816.980769 633.858496 819.432692 633.801215 821.884615 633.768484 824.336538 633.735752 826.788462 633.711203 829.240385 633.670288 831.692308 633.645740 834.144231 633.613008 836.596154 633.555727 839.048077 633.539362 841.500000 633.490264 843.951923 633.465715 846.403846 633.424800 848.855769 633.400252 851.307692 633.383886 853.759615 633.334788 856.211538 633.326605 858.663462 633.310239 861.115385 633.269325 863.567308 633.252959 866.019231 633.244776 868.471154 633.244776 870.923077 633.220227 873.375000 633.195678 875.826923 633.154764 878.278846 633.146581 880.730769 633.146581 883.182692 633.089300 885.634615 633.064751 888.086538 632.982922 890.538462 632.950190 892.990385 632.901093 895.442308 632.851995 897.894231 632.778349 900.346154 632.778349" /></g><g class="series serie-1 color-1"><path class="line reactive nofill" d="M17.653846 640.437576 L20.105769 638.882818 22.557692 637.843585 25.009615 637.295329 27.461538 636.738889 29.913462 636.378840 32.365385 635.977876 34.817308 635.642376 37.269231 635.282327 39.721154 634.987741 42.173077 634.758619 44.625000 634.480399 47.076923 634.144899 49.528846 633.809398 51.980769 633.465715 54.432692 633.269325 56.884615 633.015654 59.336538 632.761983 61.788462 632.565592 64.240385 632.311921 66.692308 632.090982 69.144231 631.910957 71.596154 631.739116 74.048077 631.608189 76.500000 631.403615 78.951923 631.297237 81.403846 631.207225 83.855769 631.125396 86.307692 631.002652 88.759615 630.929005 91.211538 630.879908 93.663462 630.814444 96.115385 630.732615 98.567308 630.675334 101.019231 630.601688 103.471154 630.560773 105.923077 630.462578 108.375000 630.388932 110.826923 630.298919 113.278846 630.249822 115.730769 630.200724 118.182692 630.110712 120.634615 629.987968 123.086538 629.922504 125.538462 629.881590 127.990385 629.799760 130.442308 629.742480 132.894231 629.660650 135.346154 629.619736 137.798077 629.570638 140.250000 629.505175 142.701923 629.456077 145.153846 629.415162 147.605769 629.374248 150.057692 629.300601 152.509615 629.259687 154.961538 629.243321 157.413462 629.210589 159.865385 629.177857 162.317308 629.169674 164.769231 629.128760 167.221154 629.120577 169.673077 629.096028 172.125000 629.079662 174.576923 629.022381 177.028846 628.981467 179.480769 628.932369 181.932692 628.866906 184.384615 628.801442 186.836538 628.760527 189.288462 628.719613 191.740385 628.703247 194.192308 628.654149 196.644231 628.613235 199.096154 628.605052 201.548077 628.580503 204.000000 628.531405 206.451923 628.523222 208.903846 628.523222 211.355769 628.506856 213.807692 628.490491 216.259615 628.465942 218.711538 628.441393 221.163462 628.441393 223.615385 628.441393 226.067308 628.425027 228.519231 628.400478 230.971154 628.392295 233.423077 628.375930 235.875000 628.343198 238.326923 628.326832 240.778846 628.310466 243.230769 628.285917 245.682692 628.261368 248.134615 628.236820 250.586538 628.220454 253.038462 628.204088 255.490385 628.187722 257.942308 628.171356 260.394231 628.154990 262.846154 628.138624 265.298077 628.114076 267.750000 628.105893 270.201923 628.097710 272.653846 628.081344 275.105769 628.073161 277.557692 628.073161 280.009615 628.064978 282.461538 628.056795 284.913462 628.048612 287.365385 628.024063 289.817308 628.024063 292.269231 628.015880 294.721154 627.991332 297.173077 627.991332 299.625000 627.950417 302.076923 627.942234 304.528846 627.917685 306.980769 627.893136 309.432692 627.876770 311.884615 627.844039 314.336538 627.819490 316.788462 627.803124 319.240385 627.794941 321.692308 627.778575 324.144231 627.754026 326.596154 627.754026 329.048077 627.745844 331.500000 627.745844 333.951923 627.737661 336.403846 627.737661 338.855769 627.737661 341.307692 627.729478 343.759615 627.713112 346.211538 627.704929 348.663462 627.704929 351.115385 627.704929 353.567308 627.704929 356.019231 627.672197 358.471154 627.655831 360.923077 627.631282 363.375000 627.590368 365.826923 627.582185 368.278846 627.574002 370.730769 627.565819 373.182692 627.541270 375.634615 627.516721 378.086538 627.516721 380.538462 627.508538 382.990385 627.492173 385.442308 627.475807 387.894231 627.459441 390.346154 627.451258 392.798077 627.443075 395.250000 627.426709 397.701923 627.426709 400.153846 627.418526 402.605769 627.402160 405.057692 627.385794 407.509615 627.377611 409.961538 627.369429 412.413462 627.369429 414.865385 627.353063 417.317308 627.344880 419.769231 627.328514 422.221154 627.312148 424.673077 627.303965 427.125000 626.796623 429.576923 625.413707 432.028846 624.538133 434.480769 623.965328 436.932692 623.613461 439.384615 623.318876 441.836538 623.081571 444.288462 622.958827 446.740385 622.770619 449.192308 622.639692 451.644231 622.516948 454.096154 622.287826 456.548077 622.075070 459.000000 621.747752 461.451923 621.502264 463.903846 621.305874 466.355769 621.134032 468.807692 621.019471 471.259615 620.904910 473.711538 620.634873 476.163462 620.512129 478.615385 620.389385 481.067308 620.242092 483.519231 620.127531 485.971154 620.037519 488.423077 619.980238 490.875000 619.906592 493.326923 619.816579 495.778846 619.767482 498.230769 619.702018 500.682692 619.652921 503.134615 619.652921 505.586538 619.628372 508.038462 619.603823 510.490385 619.546543 512.942308 619.505628 515.394231 619.456530 517.846154 619.374701 520.298077 619.333786 522.750000 619.227408 525.201923 619.202859 527.653846 619.153762 530.105769 619.121030 532.557692 619.071932 535.009615 619.022835 537.461538 618.941005 539.913462 618.867359 542.365385 618.826444 544.817308 618.785530 547.269231 618.720066 549.721154 618.679151 552.173077 618.654603 554.625000 618.605505 557.076923 618.572773 559.528846 618.523676 561.980769 618.499127 564.432692 618.474578 566.884615 618.458212 569.336538 618.450029 571.788462 618.400932 574.240385 618.384566 576.692308 618.343651 579.144231 618.302736 581.596154 618.286371 584.048077 618.270005 586.500000 618.261822 588.951923 618.253639 591.403846 618.204541 593.855769 618.188175 596.307692 618.163627 598.759615 618.139078 601.211538 618.122712 603.663462 618.081797 606.115385 618.032700 608.567308 618.008151 611.019231 617.967236 613.471154 617.950870 615.923077 617.942687 618.375000 617.934504 620.826923 617.909956 623.278846 617.901773 625.730769 617.877224 628.182692 617.860858 630.634615 617.844492 633.086538 617.819943 635.538462 617.819943 637.990385 617.803577 640.442308 617.787212 642.894231 617.762663 645.346154 617.762663 647.798077 617.721748 650.250000 617.680833 652.701923 617.639919 655.153846 617.607187 657.605769 617.590821 660.057692 617.566272 662.509615 617.451711 664.961538 616.985284 667.413462 616.764345 669.865385 616.608869 672.317308 616.494308 674.769231 616.404296 677.221154 616.306100 679.673077 616.265186 682.125000 616.216088 684.576923 616.142442 687.028846 616.126076 689.480769 616.085161 691.932692 616.044246 694.384615 615.986966 696.836538 615.913319 699.288462 615.856039 701.740385 615.798758 704.192308 615.757844 706.644231 615.684197 709.096154 615.618734 711.548077 615.577819 714.000000 615.561453 716.451923 615.520539 718.903846 615.487807 721.355769 615.430526 723.807692 615.397795 726.259615 615.381429 728.711538 615.348697 731.163462 615.315965 733.615385 615.291416 736.067308 615.283233 738.519231 615.250502 740.971154 615.225953 743.423077 615.209587 745.875000 615.185038 748.326923 615.168672 750.778846 615.135941 753.230769 615.119575 755.682692 615.111392 758.134615 615.103209 760.586538 615.070477 763.038462 615.062294 765.490385 615.045928 767.942308 615.021380 770.394231 614.980465 772.846154 614.955916 775.298077 614.939550 777.750000 614.923184 780.201923 614.923184 782.653846 614.865904 785.105769 614.808623 787.557692 614.775891 790.009615 614.767709 792.461538 614.751343 794.913462 614.743160 797.365385 614.718611 799.817308 614.702245 802.269231 614.685879 804.721154 614.661330 807.173077 614.653147 809.625000 614.612233 812.076923 614.587684 814.528846 614.538586 816.980769 614.489489 819.432692 614.481306 821.884615 614.448574 824.336538 614.424025 826.788462 614.407659 829.240385 614.383111 831.692308 614.366745 834.144231 614.358562 836.596154 614.325830 839.048077 614.301281 841.500000 614.284915 843.951923 614.276732 846.403846 614.268549 848.855769 614.260367 851.307692 614.252184 853.759615 614.219452 856.211538 614.211269 858.663462 614.194903 861.115385 614.186720 863.567308 614.186720 866.019231 614.170354 868.471154 614.170354 870.923077 614.145805 873.375000 614.129440 875.826923 614.121257 878.278846 614.104891 880.730769 614.104891 883.182692 614.096708 885.634615 614.096708 888.086538 614.088525 890.538462 614.063976 892.990385 614.039427 895.442308 614.023061 897.894231 613.990330 900.346154 613.990330" /></g><g class="series serie-2 color-2"><path class="line reactive nofill" d="M17.653846 644.365385 L20.105769 644.365385 22.557692 644.365385 25.009615 644.365385 27.461538 644.365385 29.913462 644.365385 32.365385 644.365385 34.817308 644.365385 37.269231 644.365385 39.721154 644.365385 42.173077 644.365385 44.625000 644.365385 47.076923 644.365385 49.528846 644.365385 51.980769 644.365385 54.432692 644.365385 56.884615 644.365385 59.336538 644.365385 61.788462 644.365385 64.240385 644.365385 66.692308 644.365385 69.144231 644.365385 71.596154 644.365385 74.048077 644.365385 76.500000 644.365385 78.951923 644.365385 81.403846 644.365385 83.855769 644.365385 86.307692 644.365385 88.759615 644.365385 91.211538 644.365385 93.663462 644.365385 96.115385 644.365385 98.567308 644.365385 101.019231 644.365385 103.471154 644.365385 105.923077 644.365385 108.375000 644.365385 110.826923 644.365385 113.278846 644.365385 115.730769 644.365385 118.182692 644.365385 120.634615 644.365385 123.086538 644.365385 125.538462 644.365385 127.990385 644.365385 130.442308 644.365385 132.894231 644.365385 135.346154 644.365385 137.798077 644.365385 140.250000 644.365385 142.701923 644.365385 145.153846 644.365385 147.605769 644.365385 150.057692 644.365385 152.509615 644.365385 154.961538 644.365385 157.413462 644.365385 159.865385 644.365385 162.317308 644.365385 164.769231 644.365385 167.221154 644.365385 169.673077 644.365385 172.125000 644.365385 174.576923 644.365385 177.028846 644.365385 179.480769 644.365385 181.932692 644.365385 184.384615 644.365385 186.836538 644.365385 189.288462 644.365385 191.740385 644.365385 194.192308 644.365385 196.644231 644.365385 199.096154 644.365385 201.548077 644.365385 204.000000 644.365385 206.451923 644.365385 208.903846 644.365385 211.355769 644.365385 213.807692 644.365385 216.259615 644.365385 218.711538 644.365385 221.163462 644.365385 223.615385 644.365385 226.067308 644.365385 228.519231 644.365385 230.971154 644.365385 233.423077 644.365385 235.875000 644.365385 238.326923 644.365385 240.778846 644.365385 243.230769 644.365385 245.682692 644.365385 248.134615 644.365385 250.586538 644.365385 253.038462 644.365385 255.490385 644.365385 257.942308 644.365385 260.394231 644.365385 262.846154 644.365385 265.298077 644.365385 267.750000 644.365385 270.201923 644.365385 272.653846 644.365385 275.105769 644.365385 277.557692 644.365385 280.009615 644.365385 282.461538 644.365385 284.913462 644.365385 287.365385 644.365385 289.817308 644.365385 292.269231 644.365385 294.721154 644.365385 297.173077 644.365385 299.625000 644.365385 302.076923 644.365385 304.528846 644.365385 306.980769 644.365385 309.432692 644.365385 311.884615 644.365385 314.336538 644.365385 316.788462 644.365385 319.240385 644.365385 321.692308 644.365385 324.144231 644.365385 326.596154 644.365385 329.048077 644.365385 331.500000 644.365385 333.951923 644.365385 336.403846 644.365385 338.855769 644.365385 341.307692 644.365385 343.759615 644.365385 346.211538 644.365385 348.663462 644.365385 351.115385 644.365385 353.567308 644.365385 356.019231 644.365385 358.471154 644.365385 360.923077 644.365385 363.375000 644.365385 365.826923 644.365385 368.278846 644.365385 370.730769 644.365385 373.182692 644.365385 375.634615 644.365385 378.086538 644.365385 380.538462 644.365385 382.990385 644.365385 385.442308 644.365385 387.894231 644.365385 390.346154 644.365385 392.798077 644.365385 395.250000 644.365385 397.701923 644.365385 400.153846 644.365385 402.605769 644.365385 405.057692 644.365385 407.509615 644.365385 409.961538 644.365385 412.413462 644.365385 414.865385 644.365385 417.317308 644.365385 419.769231 644.365385 422.221154 644.365385 424.673077 644.365385 427.125000 644.365385 429.576923 644.365385 432.028846 644.365385 434.480769 644.365385 436.932692 644.365385 439.384615 644.365385 441.836538 644.365385 444.288462 644.365385 446.740385 644.365385 449.192308 644.365385 451.644231 644.365385 454.096154 644.365385 456.548077 644.365385 459.000000 644.365385 461.451923 644.365385 463.903846 644.365385 466.355769 644.365385 468.807692 644.365385 471.259615 644.365385 473.711538 644.365385 476.163462 644.365385 478.615385 644.365385 481.067308 644.365385 483.519231 644.365385 485.971154 644.365385 488.423077 644.365385 490.875000 644.365385 493.326923 644.365385 495.778846 644.365385 498.230769 644.365385 500.682692 644.365385 503.134615 644.365385 505.586538 644.365385 508.038462 644.365385 510.490385 644.365385 512.942308 644.365385 515.394231 644.365385 517.846154 644.365385 520.298077 644.365385 522.750000 644.365385 525.201923 644.365385 527.653846 644.365385 530.105769 644.365385 532.557692 644.365385 535.009615 644.365385 537.461538 644.365385 539.913462 644.365385 542.365385 644.365385 544.817308 644.365385 547.269231 644.365385 549.721154 644.365385 552.173077 644.365385 554.625000 644.365385 557.076923 644.365385 559.528846 644.365385 561.980769 644.365385 564.432692 644.365385 566.884615 644.365385 569.336538 644.365385 571.788462 644.365385 574.240385 644.365385 576.692308 644.365385 579.144231 644.365385 581.596154 644.365385 584.048077 644.365385 586.500000 644.365385 588.951923 644.365385 591.403846 644.365385 593.855769 644.365385 596.307692 644.365385 598.759615 644.365385 601.211538 644.365385 603.663462 644.365385 606.115385 644.365385 608.567308 644.365385 611.019231 644.365385 613.471154 644.365385 615.923077 644.365385 618.375000 644.365385 620.826923 644.365385 623.278846 644.365385 625.730769 644.365385 628.182692 644.365385 630.634615 644.365385 633.086538 644.365385 635.538462 644.365385 637.990385 644.365385 640.442308 644.365385 642.894231 644.365385 645.346154 644.365385 647.798077 644.365385 650.250000 644.365385 652.701923 644.365385 655.153846 644.365385 657.605769 644.365385 660.057692 644.365385 662.509615 644.365385 664.961538 618.147261 667.413462 606.077431 669.865385 599.383791 672.317308 595.423250 674.769231 592.338284 677.221154 589.613366 679.673077 587.158486 682.125000 584.319007 684.576923 580.546674 687.028846 576.847987 689.480769 573.190216 691.932692 568.992370 694.384615 565.301866 696.836538 561.120386 699.288462 557.331687 701.740385 554.271270 704.192308 551.341779 706.644231 548.469569 709.096154 545.736468 711.548077 543.224307 714.000000 541.072195 716.451923 538.617315 718.903846 536.727057 721.355769 534.501299 723.807692 532.979273 726.259615 531.727284 728.711538 530.753514 731.163462 529.927038 733.615385 529.329684 736.067308 528.675049 738.519231 528.069512 740.971154 527.521255 743.423077 526.932084 745.875000 526.072875 748.326923 524.878167 750.778846 523.781654 753.230769 522.341457 755.682692 521.179480 758.134615 519.796564 760.586538 518.421831 763.038462 517.210757 765.490385 515.966951 767.942308 514.952267 770.394231 513.667546 772.846154 512.415557 775.298077 511.204482 777.750000 510.017957 780.201923 508.905078 782.653846 507.939491 785.105769 506.924807 787.557692 506.180160 790.009615 505.255489 792.461538 504.363549 794.913462 503.348865 797.365385 502.252352 799.817308 501.057643 802.269231 498.700958 804.721154 495.378686 807.173077 490.722596 809.625000 484.659041 812.076923 479.111011 814.528846 473.898482 816.980769 470.510746 819.432692 467.523975 821.884615 463.898935 824.336538 460.159334 826.788462 456.640672 829.240385 453.940303 831.692308 452.050045 834.144231 450.699861 836.596154 449.210566 839.048077 447.803102 841.500000 446.731137 843.951923 445.618258 846.403846 445.045453 848.855769 444.628123 851.307692 444.063500 853.759615 443.670719 856.211538 443.269756 858.663462 442.811511 861.115385 442.189608 863.567308 441.469510 866.019231 441.469510 868.471154 441.469510 870.923077 441.469510 873.375000 441.469510 875.826923 441.469510 878.278846 441.469510 880.730769 441.469510 883.182692 441.469510 885.634615 441.469510 888.086538 441.469510 890.538462 441.469510 892.990385 441.469510 895.442308 441.469510 897.894231 441.469510 900.346154 441.469510" /></g><g class="series serie-3 color-3"><path class="line reactive nofill" d="M17.653846 627.942234 L20.105769 621.796850 22.557692 618.368200 25.009615 616.085161 27.461538 613.933049 29.913462 612.501036 32.365385 611.060839 34.817308 609.383337 37.269231 606.879359 39.721154 603.655283 42.173077 600.283913 44.625000 595.668738 47.076923 591.446344 49.528846 588.574133 51.980769 585.931045 54.432692 583.738019 56.884615 581.463163 59.336538 579.237405 61.788462 576.995280 64.240385 575.039559 66.692308 573.501167 69.144231 572.134617 71.596154 570.923542 74.048077 569.777932 76.500000 568.877809 78.951923 567.773112 81.403846 567.249405 83.855769 566.872990 86.307692 566.414745 88.759615 565.981050 91.211538 565.694647 93.663462 565.424610 96.115385 564.876353 98.567308 564.238085 101.019231 563.542535 103.471154 562.601498 105.923077 561.660460 108.375000 560.735788 110.826923 559.860214 113.278846 559.131933 115.730769 558.297274 118.182692 557.438066 120.634615 556.693418 123.086538 556.046967 125.538462 555.506893 127.990385 554.860441 130.442308 554.279453 132.894231 553.796659 135.346154 553.305683 137.798077 552.912902 140.250000 552.528304 142.701923 552.381012 145.153846 552.209170 147.605769 552.029145 150.057692 551.800023 152.509615 551.619999 154.961538 551.276315 157.413462 550.842620 159.865385 550.474388 162.317308 549.901582 164.769231 549.320594 167.221154 548.829618 169.673077 548.330459 172.125000 547.757653 174.576923 547.274860 177.028846 546.677506 179.480769 546.063786 181.932692 545.482797 184.384615 545.032736 186.836538 544.721784 189.288462 544.361735 191.740385 543.985320 194.192308 543.518893 196.644231 543.224307 199.096154 543.036100 201.548077 542.856075 204.000000 542.733331 206.451923 542.594221 208.903846 542.438746 211.355769 542.324184 213.807692 542.078696 216.259615 541.792294 218.711538 541.424062 221.163462 541.096744 223.615385 540.753061 226.067308 540.311182 228.519231 539.877487 230.971154 539.533804 233.423077 539.116474 235.875000 538.731876 238.326923 538.322729 240.778846 538.003595 243.230769 537.790838 245.682692 537.537167 248.134615 537.308045 250.586538 537.095289 253.038462 536.808886 255.490385 536.637045 257.942308 536.489752 260.394231 536.375191 262.846154 536.236081 265.298077 536.129703 267.750000 536.064239 270.201923 535.998776 272.653846 535.867849 275.105769 535.794202 277.557692 535.655092 280.009615 535.515983 282.461538 535.434153 284.913462 535.335958 287.365385 535.262312 289.817308 535.090470 292.269231 534.934994 294.721154 534.836799 297.173077 534.640408 299.625000 534.476750 302.076923 534.329457 304.528846 534.157615 306.980769 533.944859 309.432692 533.813932 311.884615 533.715737 314.336538 533.642090 316.788462 533.486615 319.240385 533.372054 321.692308 533.282041 324.144231 533.175663 326.596154 533.085651 329.048077 533.020187 331.500000 532.905626 333.951923 532.799248 336.403846 532.692870 338.855769 532.602858 341.307692 532.521028 343.759615 532.332821 346.211538 532.193711 348.663462 532.030052 351.115385 531.890942 353.567308 531.760015 356.019231 531.629088 358.471154 531.489978 360.923077 531.391783 363.375000 531.269039 365.826923 531.129929 368.278846 530.933539 370.730769 530.794429 373.182692 530.638953 375.634615 530.548941 378.086538 530.458929 380.538462 530.368916 382.990385 530.262538 385.442308 530.115245 387.894231 530.041599 390.346154 529.935221 392.798077 529.730647 395.250000 529.526074 397.701923 529.141476 400.153846 528.715963 402.605769 528.224987 405.057692 527.832206 407.509615 527.382145 409.961538 526.981181 412.413462 526.383827 414.865385 525.901034 417.317308 525.639180 419.769231 525.344594 422.221154 525.025460 424.673077 524.681776 427.125000 524.313544 429.576923 483.562528 432.028846 464.201703 434.480769 453.735730 436.932692 446.011039 439.384615 439.382861 441.836538 433.826649 444.288462 427.558520 446.740385 421.429502 449.192308 412.551017 451.644231 399.613797 454.096154 382.585109 456.548077 360.908514 459.000000 342.284154 461.451923 325.877369 463.903846 313.210186 466.355769 302.065028 468.807692 290.666200 471.259615 279.913823 473.711538 269.652423 476.163462 261.387658 478.615385 255.094981 481.067308 249.628780 483.519231 244.571727 485.971154 239.981100 488.423077 236.094206 490.875000 232.673739 493.326923 230.398883 495.778846 228.942321 498.230769 227.739429 500.682692 226.413794 503.134615 225.153622 505.586538 223.574315 508.038462 221.454935 510.490385 218.689103 512.942308 214.982233 515.394231 210.784388 517.846154 206.578359 520.298077 202.159574 522.750000 198.239948 525.201923 194.451249 527.653846 190.670733 530.105769 186.800205 532.557692 182.823299 535.009615 179.672869 537.461538 176.694280 539.913462 174.386693 542.365385 172.005459 544.817308 169.918810 547.269231 167.864893 549.721154 166.465611 552.173077 165.246354 554.625000 164.264402 557.076923 163.552487 559.528846 162.619632 561.980769 161.907717 564.432692 160.999411 566.884615 159.919263 569.336538 158.798201 571.788462 156.768833 574.240385 154.698551 576.692308 152.587354 579.144231 150.222485 581.596154 148.086739 584.048077 146.065554 586.500000 143.667954 588.951923 141.491294 591.403846 139.429194 593.855769 137.907168 596.307692 136.131471 598.759615 134.568531 601.211538 133.406554 603.663462 132.252760 606.115385 131.033503 608.567308 130.035185 611.019231 129.339635 613.471154 128.807744 615.923077 128.324951 618.375000 127.940353 620.826923 127.433011 623.278846 126.909303 625.730769 126.328315 628.182692 125.591851 630.634615 124.749009 633.086538 123.742508 635.538462 122.425055 637.990385 121.083054 640.442308 120.035638 642.894231 119.037320 645.346154 117.605306 647.798077 116.206024 650.250000 114.716730 652.701923 113.628400 655.153846 112.842838 657.605769 111.877252 660.057692 110.944397 662.509615 110.191567 664.961538 101.697681 667.413462 97.147969 669.865385 94.259393 672.317308 92.418232 674.769231 91.248072 677.221154 90.208840 679.673077 89.406912 682.125000 88.457692 684.576923 87.279349 687.028846 85.929165 689.480769 84.570797 691.932692 83.048772 694.384615 81.739502 696.836538 80.037451 699.288462 78.646352 701.740385 77.468010 704.192308 75.945984 706.644231 74.702178 709.096154 73.425640 711.548077 72.165468 714.000000 71.167150 716.451923 70.037905 718.903846 69.088684 721.355769 67.877610 723.807692 66.993853 726.259615 66.183742 728.711538 65.676400 731.163462 65.070863 733.615385 64.702631 736.067308 64.326216 738.519231 64.031630 740.971154 63.704313 743.423077 63.368813 745.875000 62.976032 748.326923 62.419592 750.778846 61.830421 753.230769 60.938481 755.682692 60.095639 758.134615 59.244613 760.586538 58.647259 763.038462 57.828966 765.490385 57.149782 767.942308 56.511513 770.394231 55.685037 772.846154 54.948573 775.298077 54.154828 777.750000 53.606571 780.201923 52.992851 782.653846 52.289119 785.105769 51.691764 787.557692 51.274435 790.009615 50.816190 792.461538 50.366129 794.913462 49.744226 797.365385 49.179603 799.817308 48.500420 802.269231 47.543016 804.721154 46.119186 807.173077 44.081635 809.625000 41.602205 812.076923 38.738178 814.528846 35.677761 816.980769 33.656576 819.432692 31.684488 821.884615 29.385083 824.336538 27.069313 826.788462 24.859920 829.240385 22.928748 831.692308 21.619478 834.144231 20.392038 836.596154 19.180963 839.048077 17.904426 841.500000 16.914290 843.951923 16.104180 846.403846 15.416813 848.855769 14.991301 851.307692 14.663983 853.759615 14.238471 856.211538 13.870239 858.663462 13.510189 861.115385 13.092860 863.567308 12.634615 866.019231 12.634615 868.471154 12.634615 870.923077 12.634615 873.375000 12.634615 875.826923 12.634615 878.278846 12.634615 880.730769 12.634615 883.182692 12.634615 885.634615 12.634615 888.086538 12.634615 890.538462 12.634615 892.990385 12.634615 895.442308 12.634615 897.894231 12.634615 900.346154 12.634615" /></g></g><g class="titles"><text class="title plot_title" x="512.0" y="26">SO 6 and Math.SE 5 Participation</text><text class="title" transform="rotate(-90 0.000000 374.500000)" x="0" y="400.5">Users</text></g><g class="plot overlay" transform="translate(86, 46)"><g class="series serie-0 color-0" /><g class="series serie-1 color-1" /><g class="series serie-2 color-2" /><g class="series serie-3 color-3" /></g><g class="plot text-overlay" transform="translate(86, 46)"><g class="series serie-0 color-0" /><g class="series serie-1 color-1" /><g class="series serie-2 color-2" /><g class="series serie-3 color-3" /></g><g class="plot tooltip-overlay" transform="translate(86, 46)"><g class="tooltip" style="opacity: 0" transform="translate(0 0)"><a><rect class="tooltip-box" height="0" rx="0" ry="0" width="0" /><text class="text"><tspan class="label" /><tspan class="value" /></text></a></g></g><g class="legends" transform="translate(96, 713)"><g class="legend reactive activate-serie" id="activate-serie-0"><rect class="color-0 reactive" height="12" width="12" x="0.0" y="1.0" /><text x="17.0" y="11.2">Math.SE 5 Constituents</text></g><g class="legend reactive activate-serie" id="activate-serie-1"><rect class="color-1 reactive" height="12" width="12" x="459.0" y="1.0" /><text x="476.0" y="11.2">Math.SE 5 Caucus</text></g><g class="legend reactive activate-serie" id="activate-serie-2"><rect class="color-2 reactive" height="12" width="12" x="0.0" y="22.0" /><text x="17.0" y="32.2">SO 6 Constituents</text></g><g class="legend reactive activate-serie" id="activate-serie-3"><rect class="color-3 reactive" height="12" width="12" x="459.0" y="22.0" /><text x="476.0" y="32.2">SO 6 Caucus</text></g></g></g></svg>