<?xml version='1.0' encoding='utf-8'?>
<svg xmlns:xlink="http://www.w3.org/1999/xlink" class="pygal-chart" id="chart-7e6fbf76-92f8-4f04-8fdd-998a5f8d3331" viewBox="0 0 1024 768" xmlns="http://www.w3.org/2000/svg"><!--Generated with pygal 1.7.0 (etree) ©Kozea 2011-2014 on 2015-04-20--><!--http://pygal.org--><!--http://github.com/Kozea/pygal--><defs><style type="text/css">#chart-7e6fbf76-92f8-4f04-8fdd-998a5f8d3331 .title{font-family:"monospace";font-size:16px}#chart-7e6fbf76-92f8-4f04-8fdd-998a5f8d3331 .legends .legend text{font-family:"monospace";font-size:14px}#chart-7e6fbf76-92f8-4f04-8fdd-998a5f8d3331 .axis text{font-family:"monospace";font-size:10px}#chart-7e6fbf76-92f8-4f04-8fdd-998a5f8d3331 .axis text.major{font-family:"monospace";font-size:10px}#chart-7e6fbf76-92f8-4f04-8fdd-998a5f8d3331 .series text{font-family:"monospace";font-size:8px}#chart-7e6fbf76-92f8-4f04-8fdd-998a5f8d3331 .tooltip text{font-family:"monospace";font-size:16px}#chart-7e6fbf76-92f8-4f04-8fdd-998a5f8d3331 text.no_data{font-size:64px}
#chart-7e6fbf76-92f8-4f04-8fdd-998a5f8d3331{background-color:black}#chart-7e6fbf76-92f8-4f04-8fdd-998a5f8d3331 path,#chart-7e6fbf76-92f8-4f04-8fdd-998a5f8d3331 line,#chart-7e6fbf76-92f8-4f04-8fdd-998a5f8d3331 rect,#chart-7e6fbf76-92f8-4f04-8fdd-998a5f8d3331 circle{-webkit-transition:250ms;-moz-transition:250ms;transition:250ms}#chart-7e6fbf76-92f8-4f04-8fdd-998a5f8d3331 .graph &gt; .background{fill:black}#chart-7e6fbf76-92f8-4f04-8fdd-998a5f8d3331 .plot &gt; .background{fill:#111}#chart-7e6fbf76-92f8-4f04-8fdd-998a5f8d3331 .graph{fill:#999}#chart-7e6fbf76-92f8-4f04-8fdd-998a5f8d3331 text.no_data{fill:#eee}#chart-7e6fbf76-92f8-4f04-8fdd-998a5f8d3331 .title{fill:#eee}#chart-7e6fbf76-92f8-4f04-8fdd-998a5f8d3331 .legends .legend text{fill:#999}#chart-7e6fbf76-92f8-4f04-8fdd-998a5f8d3331 .legends .legend:hover text{fill:#eee}#chart-7e6fbf76-92f8-4f04-8fdd-998a5f8d3331 .axis .line{stroke:#eee}#chart-7e6fbf76-92f8-4f04-8fdd-998a5f8d3331 .axis .guide.line{stroke:#555}#chart-7e6fbf76-92f8-4f04-8fdd-998a5f8d3331 .axis .major.line{stroke:#999}#chart-7e6fbf76-92f8-4f04-8fdd-998a5f8d3331 .axis text.major{stroke:#eee;fill:#eee}#chart-7e6fbf76-92f8-4f04-8fdd-998a5f8d3331 .axis.y .guides:hover .guide.line,#chart-7e6fbf76-92f8-4f04-8fdd-998a5f8d3331 .line-graph .axis.x .guides:hover .guide.line,#chart-7e6fbf76-92f8-4f04-8fdd-998a5f8d3331 .stackedline-graph .axis.x .guides:hover .guide.line,#chart-7e6fbf76-92f8-4f04-8fdd-998a5f8d3331 .xy-graph .axis.x .guides:hover .guide.line{stroke:#eee}#chart-7e6fbf76-92f8-4f04-8fdd-998a5f8d3331 .axis .guides:hover text{fill:#eee}#chart-7e6fbf76-92f8-4f04-8fdd-998a5f8d3331 .reactive{fill-opacity:.8}#chart-7e6fbf76-92f8-4f04-8fdd-998a5f8d3331 .reactive.active,#chart-7e6fbf76-92f8-4f04-8fdd-998a5f8d3331 .active .reactive{fill-opacity:.4}#chart-7e6fbf76-92f8-4f04-8fdd-998a5f8d3331 .series{stroke-width:1.0;stroke-linejoin:round;stroke-linecap:round;stroke-dasharray:0,0}#chart-7e6fbf76-92f8-4f04-8fdd-998a5f8d3331 .series text{fill:#eee}#chart-7e6fbf76-92f8-4f04-8fdd-998a5f8d3331 .tooltip rect{fill:#111;stroke:#eee}#chart-7e6fbf76-92f8-4f04-8fdd-998a5f8d3331 .tooltip text{fill:#eee}#chart-7e6fbf76-92f8-4f04-8fdd-998a5f8d3331 .map-element{fill:#999;stroke:#555 !important;opacity:.9;stroke-width:3;-webkit-transition:250ms;-moz-transition:250ms;-o-transition:250ms;transition:250ms}#chart-7e6fbf76-92f8-4f04-8fdd-998a5f8d3331 .map-element:hover{opacity:1;stroke-width:10}#chart-7e6fbf76-92f8-4f04-8fdd-998a5f8d3331 .color-0,#chart-7e6fbf76-92f8-4f04-8fdd-998a5f8d3331 .color-0 a:visited{stroke:#ff5995;fill:#ff5995}#chart-7e6fbf76-92f8-4f04-8fdd-998a5f8d3331 .color-1,#chart-7e6fbf76-92f8-4f04-8fdd-998a5f8d3331 .color-1 a:visited{stroke:#b6e354;fill:#b6e354}#chart-7e6fbf76-92f8-4f04-8fdd-998a5f8d3331 .color-2,#chart-7e6fbf76-92f8-4f04-8fdd-998a5f8d3331 .color-2 a:visited{stroke:#feed6c;fill:#feed6c}#chart-7e6fbf76-92f8-4f04-8fdd-998a5f8d3331 .color-3,#chart-7e6fbf76-92f8-4f04-8fdd-998a5f8d3331 .color-3 a:visited{stroke:#8cedff;fill:#8cedff}#chart-7e6fbf76-92f8-4f04-8fdd-998a5f8d3331 .color-4,#chart-7e6fbf76-92f8-4f04-8fdd-998a5f8d3331 .color-4 a:visited{stroke:#9e6ffe;fill:#9e6ffe}#chart-7e6fbf76-92f8-4f04-8fdd-998a5f8d3331 .color-5,#chart-7e6fbf76-92f8-4f04-8fdd-998a5f8d3331 .color-5 a:visited{stroke:#899ca1;fill:#899ca1}#chart-7e6fbf76-92f8-4f04-8fdd-998a5f8d3331 .color-6,#chart-7e6fbf76-92f8-4f04-8fdd-998a5f8d3331 .color-6 a:visited{stroke:#f8f8f2;fill:#f8f8f2}#chart-7e6fbf76-92f8-4f04-8fdd-998a5f8d3331 .color-7,#chart-7e6fbf76-92f8-4f04-8fdd-998a5f8d3331 .color-7 a:visited{stroke:#bf4646;fill:#bf4646}#chart-7e6fbf76-92f8-4f04-8fdd-998a5f8d3331 .color-8,#chart-7e6fbf76-92f8-4f04-8fdd-998a5f8d3331 .color-8 a:visited{stroke:#516083;fill:#516083}#chart-7e6fbf76-92f8-4f04-8fdd-998a5f8d3331 .color-9,#chart-7e6fbf76-92f8-4f04-8fdd-998a5f8d3331 .color-9 a:visited{stroke:#f92672;fill:#f92672}#chart-7e6fbf76-92f8-4f04-8fdd-998a5f8d3331 .color-10,#chart-7e6fbf76-92f8-4f04-8fdd-998a5f8d3331 .color-10 a:visited{stroke:#82b414;fill:#82b414}#chart-7e6fbf76-92f8-4f04-8fdd-998a5f8d3331 .color-11,#chart-7e6fbf76-92f8-4f04-8fdd-998a5f8d3331 .color-11 a:visited{stroke:#fd971f;fill:#fd971f}#chart-7e6fbf76-92f8-4f04-8fdd-998a5f8d3331 .color-12,#chart-7e6fbf76-92f8-4f04-8fdd-998a5f8d3331 .color-12 a:visited{stroke:#56c2d6;fill:#56c2d6}#chart-7e6fbf76-92f8-4f04-8fdd-998a5f8d3331 .color-13,#chart-7e6fbf76-92f8-4f04-8fdd-998a5f8d3331 .color-13 a:visited{stroke:#808384;fill:#808384}#chart-7e6fbf76-92f8-4f04-8fdd-998a5f8d3331 .color-14,#chart-7e6fbf76-92f8-4f04-8fdd-998a5f8d3331 .color-14 a:visited{stroke:#8c54fe;fill:#8c54fe}#chart-7e6fbf76-92f8-4f04-8fdd-998a5f8d3331 .color-15,#chart-7e6fbf76-92f8-4f04-8fdd-998a5f8d3331 .color-15 a:visited{stroke:#465457;fill:#465457}
#chart-7e6fbf76-92f8-4f04-8fdd-998a5f8d3331 text.no_data{text-anchor:middle}#chart-7e6fbf76-92f8-4f04-8fdd-998a5f8d3331 .guide.line{fill-opacity:0}#chart-7e6fbf76-92f8-4f04-8fdd-998a5f8d3331 .centered{text-anchor:middle}#chart-7e6fbf76-92f8-4f04-8fdd-998a5f8d3331 .title{text-anchor:middle}#chart-7e6fbf76-92f8-4f04-8fdd-998a5f8d3331 .legends .legend text{fill-opacity:1}#chart-7e6fbf76-92f8-4f04-8fdd-998a5f8d3331 .axis.x text{text-anchor:middle}#chart-7e6fbf76-92f8-4f04-8fdd-998a5f8d3331 .axis.x:not(.web) text[transform]{text-anchor:start}#chart-7e6fbf76-92f8-4f04-8fdd-998a5f8d3331 .axis.y text{text-anchor:end}#chart-7e6fbf76-92f8-4f04-8fdd-998a5f8d3331 .axis.y2 text{text-anchor:start}#chart-7e6fbf76-92f8-4f04-8fdd-998a5f8d3331 .axis.y .logarithmic text:not(.major),#chart-7e6fbf76-92f8-4f04-8fdd-998a5f8d3331 .axis.y2 .logarithmic text:not(.major){font-size:50%}#chart-7e6fbf76-92f8-4f04-8fdd-998a5f8d3331 .axis .guide.line{stroke-dasharray:4,4}#chart-7e6fbf76-92f8-4f04-8fdd-998a5f8d3331 .axis .major.guide.line{stroke-dasharray:6,6}#chart-7e6fbf76-92f8-4f04-8fdd-998a5f8d3331 .axis text.major{stroke-width:0.5px}#chart-7e6fbf76-92f8-4f04-8fdd-998a5f8d3331 .horizontal .axis.y .guide.line,#chart-7e6fbf76-92f8-4f04-8fdd-998a5f8d3331 .horizontal .axis.y2 .guide.line,#chart-7e6fbf76-92f8-4f04-8fdd-998a5f8d3331 .vertical .axis.x .guide.line{opacity:0}#chart-7e6fbf76-92f8-4f04-8fdd-998a5f8d3331 .horizontal .axis.always_show .guide.line,#chart-7e6fbf76-92f8-4f04-8fdd-998a5f8d3331 .vertical .axis.always_show .guide.line{opacity:1 !important}#chart-7e6fbf76-92f8-4f04-8fdd-998a5f8d3331 .axis.y .guides:hover .guide.line,#chart-7e6fbf76-92f8-4f04-8fdd-998a5f8d3331 .axis.y2 .guides:hover .guide.line,#chart-7e6fbf76-92f8-4f04-8fdd-998a5f8d3331 .axis.x .guides:hover .guide.line{opacity:1}#chart-7e6fbf76-92f8-4f04-8fdd-998a5f8d3331 .axis .guides:hover text{opacity:1}#chart-7e6fbf76-92f8-4f04-8fdd-998a5f8d3331 .nofill{fill:none}#chart-7e6fbf76-92f8-4f04-8fdd-998a5f8d3331 .subtle-fill{fill-opacity:.2}#chart-7e6fbf76-92f8-4f04-8fdd-998a5f8d3331 .dot{stroke-width:1px;fill-opacity:1}#chart-7e6fbf76-92f8-4f04-8fdd-998a5f8d3331 .dot.active{stroke-width:5px}#chart-7e6fbf76-92f8-4f04-8fdd-998a5f8d3331 .series text{stroke:none}#chart-7e6fbf76-92f8-4f04-8fdd-998a5f8d3331 .series text.active{opacity:1}#chart-7e6fbf76-92f8-4f04-8fdd-998a5f8d3331 .tooltip rect{fill-opacity:0.8}#chart-7e6fbf76-92f8-4f04-8fdd-998a5f8d3331 .tooltip text{fill-opacity:1}#chart-7e6fbf76-92f8-4f04-8fdd-998a5f8d3331 .tooltip text tspan.label{fill-opacity:.8}</style><script type="text/javascript">window.config = {"half_pie": false, "logarithmic": false, "order_min": null, "show_y_labels": true, "js": ["http://kozea.github.io/pygal.js/javascripts/svg.jquery.js", "http://kozea.github.io/pygal.js/javascripts/pygal-tooltips.js"], "interpolation_parameters": {}, "margin_left": null, "range": null, "x_labels_major_count": null, "x_labels_major": null, "show_x_labels": true, "x_labels": null, "margin_right": null, "value_font_size": 8, "y_labels": null, "legend_at_bottom_columns": null, "spacing": 10, "zero": 0, "title_font_size": 16, "no_data_font_size": 64, "xrange": null, "x_value_formatter": null, "x_title": null, "pretty_print": false, "x_labels_major_every": null, "dots_size": 2.5, "legend_at_bottom": true, "show_legend": true, "y_labels_major": null, "y_title": "Users", "show_dots": false, "margin_top": null, "no_data_text": "No data", "y_labels_major_every": null, "mode": null, "width": 1024, "rounded_bars": null, "margin_bottom": null, "disable_xml_declaration": false, "no_prefix": false, "truncate_label": null, "human_readable": false, "title": "SO 6 and Math.SE 5 Participation", "stroke": true, "stack_from_top": false, "margin": 20, "interpolate": null, "x_label_rotation": 0, "missing_value_fill_truncation": "x", "legend_font_size": 14, "fill": false, "include_x_axis": false, "x_label_format": "%Y-%m-%d %H:%M:%S.%f", "style": {"font_family": "monospace", "stroke_dasharray": "0,0", "background": "black", "foreground_light": "#eee", "stroke_width": 1.0, "plot_background": "#111", "stroke_style": "round", "colors": ["#ff5995", "#b6e354", "#feed6c", "#8cedff", "#9e6ffe", "#899ca1", "#f8f8f2", "#bf4646", "#516083", "#f92672", "#82b414", "#fd971f", "#56c2d6", "#808384", "#8c54fe", "#465457"], "opacity": ".8", "foreground_dark": "#555", "transition": "250ms", "opacity_hover": ".4", "foreground": "#999"}, "interpolation_precision": 250, "show_y_guides": true, "show_only_major_dots": false, "show_minor_y_labels": true, "height": 768, "legend_box_size": 12, "explicit_size": false, "print_zeroes": false, "truncate_legend": null, "strict": false, "label_font_size": 10, "show_minor_x_labels": true, "y_labels_major_count": null, "tooltip_font_size": 16, "print_values": false, "show_x_guides": false, "major_label_font_size": 10, "css": ["style.css", "graph.css"], "inner_radius": 0, "tooltip_border_radius": 0, "y_label_rotation": 0}</script><script type="text/javascript" xlink:href="http://kozea.github.io/pygal.js/javascripts/svg.jquery.js" /><script type="text/javascript" xlink:href="http://kozea.github.io/pygal.js/javascripts/pygal-tooltips.js" /></defs><title>SO 6 and Math.SE 5 Participation</title><g class="graph line-graph vertical"><rect class="background" height="768" width="1024" x="0" y="0" /><g class="plot" transform="translate(86, 46)"><rect class="background" height="657.0" width="918.0" x="0" y="0" /><g class="axis y"><g class="guides"><path class="axis major line" d="M0.000000 644.365385 h918.000000" /><text class="major" x="-5" y="647.8653846153846">0</text></g><g class="guides"><path class="guide line" d="M0.000000 562.562524 h918.000000" /><text class="" x="-5" y="566.0625242793877">10000</text></g><g class="guides"><path class="guide line" d="M0.000000 480.759664 h918.000000" /><text class="" x="-5" y="484.25966394339093">20000</text></g><g class="guides"><path class="guide line" d="M0.000000 398.956804 h918.000000" /><text class="" x="-5" y="402.4568036073941">30000</text></g><g class="guides"><path class="guide line" d="M0.000000 317.153943 h918.000000" /><text class="" x="-5" y="320.65394327139734">40000</text></g><g class="guides"><path class="major guide line" d="M0.000000 235.351083 h918.000000" /><text class="major" x="-5" y="238.85108293540043">50000</text></g><g class="guides"><path class="guide line" d="M0.000000 153.548223 h918.000000" /><text class="" x="-5" y="157.04822259940357">60000</text></g><g class="guides"><path class="guide line" d="M0.000000 71.745362 h918.000000" /><text class="" x="-5" y="75.24536226340672">70000</text></g></g><g class="series serie-0 color-0"><path class="line reactive nofill" d="M17.653846 644.365385 L20.105769 644.365385 22.557692 644.365385 25.009615 644.365385 27.461538 644.365385 29.913462 644.365385 32.365385 644.365385 34.817308 644.365385 37.269231 644.365385 39.721154 644.365385 42.173077 644.365385 44.625000 644.365385 47.076923 644.365385 49.528846 644.365385 51.980769 644.365385 54.432692 644.365385 56.884615 644.365385 59.336538 644.365385 61.788462 644.365385 64.240385 644.365385 66.692308 644.365385 69.144231 644.365385 71.596154 644.365385 74.048077 644.365385 76.500000 644.365385 78.951923 644.365385 81.403846 644.365385 83.855769 644.365385 86.307692 644.365385 88.759615 644.365385 91.211538 644.365385 93.663462 644.365385 96.115385 644.365385 98.567308 644.365385 101.019231 644.365385 103.471154 644.365385 105.923077 644.365385 108.375000 644.365385 110.826923 644.365385 113.278846 644.365385 115.730769 644.365385 118.182692 644.365385 120.634615 644.365385 123.086538 644.365385 125.538462 644.365385 127.990385 644.365385 130.442308 644.365385 132.894231 644.365385 135.346154 644.365385 137.798077 644.365385 140.250000 644.365385 142.701923 644.365385 145.153846 644.365385 147.605769 644.365385 150.057692 644.365385 152.509615 644.365385 154.961538 644.365385 157.413462 644.365385 159.865385 644.365385 162.317308 644.365385 164.769231 644.365385 167.221154 644.365385 169.673077 644.365385 172.125000 644.365385 174.576923 644.365385 177.028846 644.365385 179.480769 644.365385 181.932692 644.365385 184.384615 644.365385 186.836538 644.365385 189.288462 644.365385 191.740385 644.365385 194.192308 644.365385 196.644231 644.365385 199.096154 644.365385 201.548077 644.365385 204.000000 644.365385 206.451923 644.365385 208.903846 644.365385 211.355769 644.365385 213.807692 644.365385 216.259615 644.365385 218.711538 644.365385 221.163462 644.365385 223.615385 644.365385 226.067308 644.365385 228.519231 644.365385 230.971154 644.365385 233.423077 644.365385 235.875000 644.365385 238.326923 644.365385 240.778846 644.365385 243.230769 644.365385 245.682692 644.365385 248.134615 644.365385 250.586538 644.365385 253.038462 644.365385 255.490385 644.365385 257.942308 644.365385 260.394231 644.365385 262.846154 644.365385 265.298077 644.365385 267.750000 644.365385 270.201923 644.365385 272.653846 644.365385 275.105769 644.365385 277.557692 644.365385 280.009615 644.365385 282.461538 644.365385 284.913462 644.365385 287.365385 644.365385 289.817308 644.365385 292.269231 644.365385 294.721154 644.365385 297.173077 644.365385 299.625000 644.365385 302.076923 644.365385 304.528846 644.365385 306.980769 644.365385 309.432692 644.365385 311.884615 644.365385 314.336538 644.365385 316.788462 644.365385 319.240385 644.365385 321.692308 644.365385 324.144231 644.365385 326.596154 644.365385 329.048077 644.365385 331.500000 644.365385 333.951923 644.365385 336.403846 644.365385 338.855769 644.365385 341.307692 644.365385 343.759615 644.365385 346.211538 644.365385 348.663462 644.365385 351.115385 644.365385 353.567308 644.365385 356.019231 644.365385 358.471154 644.365385 360.923077 644.365385 363.375000 644.365385 365.826923 644.365385 368.278846 644.365385 370.730769 644.365385 373.182692 644.365385 375.634615 644.365385 378.086538 644.365385 380.538462 644.365385 382.990385 644.365385 385.442308 644.365385 387.894231 644.365385 390.346154 644.365385 392.798077 644.365385 395.250000 644.365385 397.701923 644.365385 400.153846 644.365385 402.605769 644.365385 405.057692 644.365385 407.509615 644.365385 409.961538 644.365385 412.413462 644.365385 414.865385 644.365385 417.317308 644.365385 419.769231 644.365385 422.221154 644.365385 424.673077 644.365385 427.125000 644.365385 429.576923 644.365385 432.028846 644.365385 434.480769 644.365385 436.932692 644.365385 439.384615 644.365385 441.836538 644.365385 444.288462 644.365385 446.740385 644.365385 449.192308 644.365385 451.644231 644.365385 454.096154 644.365385 456.548077 644.365385 459.000000 644.365385 461.451923 644.365385 463.903846 644.365385 466.355769 644.365385 468.807692 644.365385 471.259615 644.365385 473.711538 644.365385 476.163462 644.365385 478.615385 644.365385 481.067308 644.365385 483.519231 644.365385 485.971154 644.365385 488.423077 644.365385 490.875000 644.365385 493.326923 644.365385 495.778846 644.365385 498.230769 644.365385 500.682692 644.365385 503.134615 644.365385 505.586538 644.365385 508.038462 644.365385 510.490385 644.365385 512.942308 644.365385 515.394231 644.365385 517.846154 644.365385 520.298077 644.365385 522.750000 644.365385 525.201923 644.365385 527.653846 644.365385 530.105769 644.365385 532.557692 644.365385 535.009615 644.365385 537.461538 644.365385 539.913462 644.365385 542.365385 644.365385 544.817308 644.365385 547.269231 644.365385 549.721154 644.365385 552.173077 644.365385 554.625000 644.365385 557.076923 644.365385 559.528846 644.365385 561.980769 644.365385 564.432692 644.365385 566.884615 644.365385 569.336538 644.365385 571.788462 644.365385 574.240385 644.365385 576.692308 644.365385 579.144231 644.365385 581.596154 644.365385 584.048077 644.365385 586.500000 644.365385 588.951923 644.365385 591.403846 644.365385 593.855769 644.365385 596.307692 644.365385 598.759615 644.365385 601.211538 644.365385 603.663462 644.365385 606.115385 644.365385 608.567308 644.365385 611.019231 644.365385 613.471154 644.365385 615.923077 644.365385 618.375000 644.365385 620.826923 644.365385 623.278846 644.365385 625.730769 644.365385 628.182692 644.365385 630.634615 644.365385 633.086538 644.365385 635.538462 644.365385 637.990385 644.365385 640.442308 644.365385 642.894231 644.365385 645.346154 644.365385 647.798077 644.365385 650.250000 644.365385 652.701923 644.365385 655.153846 644.365385 657.605769 644.365385 660.057692 644.365385 662.509615 643.874567 664.961538 641.796775 667.413462 640.864222 669.865385 640.144357 672.317308 639.579917 674.769231 639.293607 677.221154 638.950035 679.673077 638.712807 682.125000 638.516480 684.576923 638.328334 687.028846 638.156548 689.480769 638.009302 691.932692 637.862057 694.384615 637.665730 696.836538 637.395781 699.288462 637.207634 701.740385 637.093110 704.192308 636.921324 706.644231 636.716817 709.096154 636.512310 711.548077 636.340524 714.000000 636.258721 716.451923 636.152377 718.903846 636.046034 721.355769 635.947870 723.807692 635.849707 726.259615 635.743363 728.711538 635.686101 731.163462 635.620659 733.615385 635.547036 736.067308 635.497955 738.519231 635.432512 740.971154 635.407971 743.423077 635.350709 745.875000 635.301628 748.326923 635.228005 750.778846 635.154383 753.230769 635.097121 755.682692 635.039859 758.134615 635.007137 760.586538 634.974416 763.038462 634.941695 765.490385 634.876253 767.942308 634.778089 770.394231 634.753549 772.846154 634.663565 775.298077 634.614484 777.750000 634.532681 780.201923 634.475419 782.653846 634.409977 785.105769 634.377255 787.557692 634.311813 790.009615 634.270912 792.461538 634.246371 794.913462 634.238191 797.365385 634.180929 799.817308 634.156388 802.269231 634.115486 804.721154 634.090945 807.173077 634.074585 809.625000 634.033683 812.076923 633.992782 814.528846 633.927340 816.980769 633.861897 819.432692 633.804635 821.884615 633.771914 824.336538 633.739193 826.788462 633.714652 829.240385 633.673751 831.692308 633.649210 834.144231 633.616489 836.596154 633.559227 839.048077 633.542866 841.500000 633.493784 843.951923 633.469244 846.403846 633.428342 848.855769 633.403801 851.307692 633.387441 853.759615 633.338359 856.211538 633.330179 858.663462 633.313818 861.115385 633.272917 863.567308 633.256556 866.019231 633.248376 868.471154 633.248376 870.923077 633.223835 873.375000 633.199294 875.826923 633.158393 878.278846 633.150212 880.730769 633.150212 883.182692 633.092950 885.634615 633.068410 888.086538 632.986607 890.538462 632.953886 892.990385 632.904804 895.442308 632.855722 897.894231 632.782100 900.346154 632.782100" /></g><g class="series serie-1 color-1"><path class="line reactive nofill" d="M17.653846 640.438847 L20.105769 638.884593 22.557692 637.845697 25.009615 637.297617 27.461538 636.741358 29.913462 636.381425 32.365385 635.980591 34.817308 635.645200 37.269231 635.285267 39.721154 634.990777 42.173077 634.761729 44.625000 634.483599 47.076923 634.148207 49.528846 633.812816 51.980769 633.469244 54.432692 633.272917 56.884615 633.019328 59.336538 632.765739 61.788462 632.569412 64.240385 632.315823 66.692308 632.094956 69.144231 631.914989 71.596154 631.743203 74.048077 631.612319 76.500000 631.407812 78.951923 631.301468 81.403846 631.211485 83.855769 631.129682 86.307692 631.006978 88.759615 630.933355 91.211538 630.884273 93.663462 630.818831 96.115385 630.737028 98.567308 630.679766 101.019231 630.606144 103.471154 630.565242 105.923077 630.467079 108.375000 630.393456 110.826923 630.303473 113.278846 630.254391 115.730769 630.205309 118.182692 630.115326 120.634615 629.992622 123.086538 629.927180 125.538462 629.886278 127.990385 629.804475 130.442308 629.747213 132.894231 629.665411 135.346154 629.624509 137.798077 629.575427 140.250000 629.509985 142.701923 629.460903 145.153846 629.420002 147.605769 629.379101 150.057692 629.305478 152.509615 629.264577 154.961538 629.248216 157.413462 629.215495 159.865385 629.182774 162.317308 629.174593 164.769231 629.133692 167.221154 629.125512 169.673077 629.100971 172.125000 629.084610 174.576923 629.027348 177.028846 628.986447 179.480769 628.937365 181.932692 628.871923 184.384615 628.806481 186.836538 628.765579 189.288462 628.724678 191.740385 628.708317 194.192308 628.659235 196.644231 628.618334 199.096154 628.610154 201.548077 628.585613 204.000000 628.536531 206.451923 628.528351 208.903846 628.528351 211.355769 628.511990 213.807692 628.495630 216.259615 628.471089 218.711538 628.446548 221.163462 628.446548 223.615385 628.446548 226.067308 628.430187 228.519231 628.405647 230.971154 628.397466 233.423077 628.381106 235.875000 628.348385 238.326923 628.332024 240.778846 628.315663 243.230769 628.291123 245.682692 628.266582 248.134615 628.242041 250.586538 628.225680 253.038462 628.209320 255.490385 628.192959 257.942308 628.176599 260.394231 628.160238 262.846154 628.143877 265.298077 628.119337 267.750000 628.111156 270.201923 628.102976 272.653846 628.086615 275.105769 628.078435 277.557692 628.078435 280.009615 628.070255 282.461538 628.062075 284.913462 628.053894 287.365385 628.029353 289.817308 628.029353 292.269231 628.021173 294.721154 627.996632 297.173077 627.996632 299.625000 627.955731 302.076923 627.947551 304.528846 627.923010 306.980769 627.898469 309.432692 627.882108 311.884615 627.849387 314.336538 627.824846 316.788462 627.808486 319.240385 627.800305 321.692308 627.783945 324.144231 627.759404 326.596154 627.759404 329.048077 627.751224 331.500000 627.751224 333.951923 627.743043 336.403846 627.743043 338.855769 627.743043 341.307692 627.734863 343.759615 627.718503 346.211538 627.710322 348.663462 627.710322 351.115385 627.710322 353.567308 627.710322 356.019231 627.677601 358.471154 627.661241 360.923077 627.636700 363.375000 627.595798 365.826923 627.587618 368.278846 627.579438 370.730769 627.571257 373.182692 627.546717 375.634615 627.522176 378.086538 627.522176 380.538462 627.513995 382.990385 627.497635 385.442308 627.481274 387.894231 627.464914 390.346154 627.456733 392.798077 627.448553 395.250000 627.432193 397.701923 627.432193 400.153846 627.424012 402.605769 627.407652 405.057692 627.391291 407.509615 627.383111 409.961538 627.374931 412.413462 627.374931 414.865385 627.358570 417.317308 627.350390 419.769231 627.334029 422.221154 627.317669 424.673077 627.309488 427.125000 626.802311 429.576923 625.419842 432.028846 624.544552 434.480769 623.971932 436.932692 623.620179 439.384615 623.325689 441.836538 623.088461 444.288462 622.965756 446.740385 622.777610 449.192308 622.646725 451.644231 622.524021 454.096154 622.294973 456.548077 622.082285 459.000000 621.755074 461.451923 621.509665 463.903846 621.313339 466.355769 621.141553 468.807692 621.027029 471.259615 620.912505 473.711538 620.642555 476.163462 620.519851 478.615385 620.397147 481.067308 620.249901 483.519231 620.135377 485.971154 620.045394 488.423077 619.988132 490.875000 619.914510 493.326923 619.824527 495.778846 619.775445 498.230769 619.710003 500.682692 619.660921 503.134615 619.660921 505.586538 619.636380 508.038462 619.611839 510.490385 619.554577 512.942308 619.513676 515.394231 619.464594 517.846154 619.382791 520.298077 619.341890 522.750000 619.235546 525.201923 619.211005 527.653846 619.161923 530.105769 619.129202 532.557692 619.080120 535.009615 619.031039 537.461538 618.949236 539.913462 618.875613 542.365385 618.834712 544.817308 618.793810 547.269231 618.728368 549.721154 618.687467 552.173077 618.662926 554.625000 618.613844 557.076923 618.581123 559.528846 618.532041 561.980769 618.507500 564.432692 618.482960 566.884615 618.466599 569.336538 618.458419 571.788462 618.409337 574.240385 618.392976 576.692308 618.352075 579.144231 618.311174 581.596154 618.294813 584.048077 618.278452 586.500000 618.270272 588.951923 618.262092 591.403846 618.213010 593.855769 618.196650 596.307692 618.172109 598.759615 618.147568 601.211538 618.131207 603.663462 618.090306 606.115385 618.041224 608.567308 618.016683 611.019231 617.975782 613.471154 617.959421 615.923077 617.951241 618.375000 617.943061 620.826923 617.918520 623.278846 617.910340 625.730769 617.885799 628.182692 617.869438 630.634615 617.853078 633.086538 617.828537 635.538462 617.828537 637.990385 617.812176 640.442308 617.795816 642.894231 617.771275 645.346154 617.771275 647.798077 617.730373 650.250000 617.689472 652.701923 617.648570 655.153846 617.615849 657.605769 617.599489 660.057692 617.574948 662.509615 617.460424 664.961538 616.994148 667.413462 616.773280 669.865385 616.617854 672.317308 616.503330 674.769231 616.413347 677.221154 616.315184 679.673077 616.274282 682.125000 616.225201 684.576923 616.151578 687.028846 616.135218 689.480769 616.094316 691.932692 616.053415 694.384615 615.996153 696.836538 615.922530 699.288462 615.865268 701.740385 615.808006 704.192308 615.767105 706.644231 615.693482 709.096154 615.628040 711.548077 615.587138 714.000000 615.570778 716.451923 615.529876 718.903846 615.497155 721.355769 615.439893 723.807692 615.407172 726.259615 615.390811 728.711538 615.358090 731.163462 615.325369 733.615385 615.300828 736.067308 615.292648 738.519231 615.259927 740.971154 615.235386 743.423077 615.219025 745.875000 615.194485 748.326923 615.178124 750.778846 615.145403 753.230769 615.129042 755.682692 615.120862 758.134615 615.112682 760.586538 615.079961 763.038462 615.071780 765.490385 615.055420 767.942308 615.030879 770.394231 614.989977 772.846154 614.965437 775.298077 614.949076 777.750000 614.932715 780.201923 614.932715 782.653846 614.875453 785.105769 614.818191 787.557692 614.785470 790.009615 614.777290 792.461538 614.760929 794.913462 614.752749 797.365385 614.728208 799.817308 614.711848 802.269231 614.695487 804.721154 614.670946 807.173077 614.662766 809.625000 614.621865 812.076923 614.597324 814.528846 614.548242 816.980769 614.499160 819.432692 614.490980 821.884615 614.458259 824.336538 614.433718 826.788462 614.417357 829.240385 614.392817 831.692308 614.376456 834.144231 614.368276 836.596154 614.335555 839.048077 614.311014 841.500000 614.294653 843.951923 614.286473 846.403846 614.278293 848.855769 614.270112 851.307692 614.261932 853.759615 614.229211 856.211538 614.221031 858.663462 614.204670 861.115385 614.196490 863.567308 614.196490 866.019231 614.180129 868.471154 614.180129 870.923077 614.155588 873.375000 614.139228 875.826923 614.131047 878.278846 614.114687 880.730769 614.114687 883.182692 614.106507 885.634615 614.106507 888.086538 614.098326 890.538462 614.073785 892.990385 614.049245 895.442308 614.032884 897.894231 614.000163 900.346154 614.000163" /></g><g class="series serie-2 color-2"><path class="line reactive nofill" d="M17.653846 644.365385 L20.105769 644.365385 22.557692 644.365385 25.009615 644.365385 27.461538 644.365385 29.913462 644.365385 32.365385 644.365385 34.817308 644.365385 37.269231 644.365385 39.721154 644.365385 42.173077 644.365385 44.625000 644.365385 47.076923 644.365385 49.528846 644.365385 51.980769 644.365385 54.432692 644.365385 56.884615 644.365385 59.336538 644.365385 61.788462 644.365385 64.240385 644.365385 66.692308 644.365385 69.144231 644.365385 71.596154 644.365385 74.048077 644.365385 76.500000 644.365385 78.951923 644.365385 81.403846 644.365385 83.855769 644.365385 86.307692 644.365385 88.759615 644.365385 91.211538 644.365385 93.663462 644.365385 96.115385 644.365385 98.567308 644.365385 101.019231 644.365385 103.471154 644.365385 105.923077 644.365385 108.375000 644.365385 110.826923 644.365385 113.278846 644.365385 115.730769 644.365385 118.182692 644.365385 120.634615 644.365385 123.086538 644.365385 125.538462 644.365385 127.990385 644.365385 130.442308 644.365385 132.894231 644.365385 135.346154 644.365385 137.798077 644.365385 140.250000 644.365385 142.701923 644.365385 145.153846 644.365385 147.605769 644.365385 150.057692 644.365385 152.509615 644.365385 154.961538 644.365385 157.413462 644.365385 159.865385 644.365385 162.317308 644.365385 164.769231 644.365385 167.221154 644.365385 169.673077 644.365385 172.125000 644.365385 174.576923 644.365385 177.028846 644.365385 179.480769 644.365385 181.932692 644.365385 184.384615 644.365385 186.836538 644.365385 189.288462 644.365385 191.740385 644.365385 194.192308 644.365385 196.644231 644.365385 199.096154 644.365385 201.548077 644.365385 204.000000 644.365385 206.451923 644.365385 208.903846 644.365385 211.355769 644.365385 213.807692 644.365385 216.259615 644.365385 218.711538 644.365385 221.163462 644.365385 223.615385 644.365385 226.067308 644.365385 228.519231 644.365385 230.971154 644.365385 233.423077 644.365385 235.875000 644.365385 238.326923 644.365385 240.778846 644.365385 243.230769 644.365385 245.682692 644.365385 248.134615 644.365385 250.586538 644.365385 253.038462 644.365385 255.490385 644.365385 257.942308 644.365385 260.394231 644.365385 262.846154 644.365385 265.298077 644.365385 267.750000 644.365385 270.201923 644.365385 272.653846 644.365385 275.105769 644.365385 277.557692 644.365385 280.009615 644.365385 282.461538 644.365385 284.913462 644.365385 287.365385 644.365385 289.817308 644.365385 292.269231 644.365385 294.721154 644.365385 297.173077 644.365385 299.625000 644.365385 302.076923 644.365385 304.528846 644.365385 306.980769 644.365385 309.432692 644.365385 311.884615 644.365385 314.336538 644.365385 316.788462 644.365385 319.240385 644.365385 321.692308 644.365385 324.144231 644.365385 326.596154 644.365385 329.048077 644.365385 331.500000 644.365385 333.951923 644.365385 336.403846 644.365385 338.855769 644.365385 341.307692 644.365385 343.759615 644.365385 346.211538 644.365385 348.663462 644.365385 351.115385 644.365385 353.567308 644.365385 356.019231 644.365385 358.471154 644.365385 360.923077 644.365385 363.375000 644.365385 365.826923 644.365385 368.278846 644.365385 370.730769 644.365385 373.182692 644.365385 375.634615 644.365385 378.086538 644.365385 380.538462 644.365385 382.990385 644.365385 385.442308 644.365385 387.894231 644.365385 390.346154 644.365385 392.798077 644.365385 395.250000 644.365385 397.701923 644.365385 400.153846 644.365385 402.605769 644.365385 405.057692 644.365385 407.509615 644.365385 409.961538 644.365385 412.413462 644.365385 414.865385 644.365385 417.317308 644.365385 419.769231 644.365385 422.221154 644.365385 424.673077 644.365385 427.125000 644.365385 429.576923 644.365385 432.028846 644.365385 434.480769 644.365385 436.932692 644.365385 439.384615 644.365385 441.836538 644.365385 444.288462 644.365385 446.740385 644.365385 449.192308 644.365385 451.644231 644.365385 454.096154 644.365385 456.548077 644.365385 459.000000 644.365385 461.451923 644.365385 463.903846 644.365385 466.355769 644.365385 468.807692 644.365385 471.259615 644.365385 473.711538 644.365385 476.163462 644.365385 478.615385 644.365385 481.067308 644.365385 483.519231 644.365385 485.971154 644.365385 488.423077 644.365385 490.875000 644.365385 493.326923 644.365385 495.778846 644.365385 498.230769 644.365385 500.682692 644.365385 503.134615 644.365385 505.586538 644.365385 508.038462 644.365385 510.490385 644.365385 512.942308 644.365385 515.394231 644.365385 517.846154 644.365385 520.298077 644.365385 522.750000 644.365385 525.201923 644.365385 527.653846 644.365385 530.105769 644.365385 532.557692 644.365385 535.009615 644.365385 537.461538 644.365385 539.913462 644.365385 542.365385 644.365385 544.817308 644.365385 547.269231 644.365385 549.721154 644.365385 552.173077 644.365385 554.625000 644.365385 557.076923 644.365385 559.528846 644.365385 561.980769 644.365385 564.432692 644.365385 566.884615 644.365385 569.336538 644.365385 571.788462 644.365385 574.240385 644.365385 576.692308 644.365385 579.144231 644.365385 581.596154 644.365385 584.048077 644.365385 586.500000 644.365385 588.951923 644.365385 591.403846 644.365385 593.855769 644.365385 596.307692 644.365385 598.759615 644.365385 601.211538 644.365385 603.663462 644.365385 606.115385 644.365385 608.567308 644.365385 611.019231 644.365385 613.471154 644.365385 615.923077 644.365385 618.375000 644.365385 620.826923 644.365385 623.278846 644.365385 625.730769 644.365385 628.182692 644.365385 630.634615 644.365385 633.086538 644.365385 635.538462 644.365385 637.990385 644.365385 640.442308 644.365385 642.894231 644.365385 645.346154 644.365385 647.798077 644.365385 650.250000 644.365385 652.701923 644.365385 655.153846 644.365385 657.605769 644.365385 660.057692 644.365385 662.509615 644.365385 664.961538 618.155748 667.413462 606.089826 669.865385 599.398352 672.317308 595.439094 674.769231 592.355126 677.221154 589.631091 679.673077 587.177005 682.125000 584.338446 684.576923 580.567334 687.028846 576.869845 689.480769 573.213257 691.932692 569.016770 694.384615 565.327461 696.836538 561.147335 699.288462 557.359862 701.740385 554.300435 704.192308 551.371893 706.644231 548.500613 709.096154 545.768397 711.548077 543.257049 714.000000 541.105634 716.451923 538.651548 718.903846 536.761902 721.355769 534.536864 723.807692 533.015331 726.259615 531.763747 728.711538 530.790293 731.163462 529.964084 733.615385 529.366924 736.067308 528.712501 738.519231 528.107160 740.971154 527.559080 743.423077 526.970100 745.875000 526.111170 748.326923 524.916848 750.778846 523.820690 753.230769 522.380959 755.682692 521.219359 758.134615 519.836890 760.586538 518.462602 763.038462 517.251920 765.490385 516.008516 767.942308 514.994161 770.394231 513.709856 772.846154 512.458272 775.298077 511.247590 777.750000 510.061449 780.201923 508.948930 782.653846 507.983656 785.105769 506.969300 787.557692 506.224894 790.009615 505.300522 792.461538 504.408871 794.913462 503.394515 797.365385 502.298357 799.817308 501.104035 802.269231 498.748113 804.721154 495.426917 807.173077 490.772334 809.625000 484.710742 812.076923 479.164508 814.528846 473.953666 816.980769 470.567028 819.432692 467.581223 821.884615 463.957356 824.336538 460.218966 826.788462 456.701443 829.240385 454.001948 831.692308 452.112302 834.144231 450.762555 836.596154 449.273743 839.048077 447.866734 841.500000 446.795116 843.951923 445.682597 846.403846 445.109977 848.855769 444.692783 851.307692 444.128343 853.759615 443.735689 856.211538 443.334855 858.663462 442.876759 861.115385 442.255058 863.567308 441.412488 866.019231 441.248882 868.471154 441.248882 870.923077 441.248882 873.375000 441.248882 875.826923 441.248882 878.278846 441.248882 880.730769 441.248882 883.182692 441.248882 885.634615 441.248882 888.086538 441.248882 890.538462 441.248882 892.990385 441.248882 895.442308 441.248882 897.894231 441.248882 900.346154 441.248882" /></g><g class="series serie-3 color-3"><path class="line reactive nofill" d="M17.653846 627.947551 L20.105769 621.804156 22.557692 618.376616 25.009615 616.094316 27.461538 613.942901 29.913462 612.511351 32.365385 611.071620 34.817308 609.394662 37.269231 606.891494 39.721154 603.668462 42.173077 600.298184 44.625000 595.684502 47.076923 591.463475 49.528846 588.592194 51.980769 585.949962 54.432692 583.757645 56.884615 581.483526 59.336538 579.258488 61.788462 577.017090 64.240385 575.062001 66.692308 573.524108 69.144231 572.158000 71.596154 570.947317 74.048077 569.802077 76.500000 568.902246 78.951923 567.797907 81.403846 567.274369 83.855769 566.898076 86.307692 566.439980 88.759615 566.006425 91.211538 565.720115 93.663462 565.450165 96.115385 564.902086 98.567308 564.264024 101.019231 563.568699 103.471154 562.627967 105.923077 561.687234 108.375000 560.762861 110.826923 559.887571 113.278846 559.159525 115.730769 558.325136 118.182692 557.466206 120.634615 556.721800 123.086538 556.075557 125.538462 555.535659 127.990385 554.889416 130.442308 554.308616 132.894231 553.825979 135.346154 553.335162 137.798077 552.942508 140.250000 552.558034 142.701923 552.410789 145.153846 552.239003 147.605769 552.059037 150.057692 551.829989 152.509615 551.650023 154.961538 551.306451 157.413462 550.872896 159.865385 550.504783 162.317308 549.932163 164.769231 549.351362 167.221154 548.860545 169.673077 548.361548 172.125000 547.788928 174.576923 547.306291 177.028846 546.709130 179.480769 546.095608 181.932692 545.514808 184.384615 545.064892 186.836538 544.754042 189.288462 544.394109 191.740385 544.017816 194.192308 543.551540 196.644231 543.257049 199.096154 543.068903 201.548077 542.888936 204.000000 542.766232 206.451923 542.627167 208.903846 542.471742 211.355769 542.357218 213.807692 542.111809 216.259615 541.825499 218.711538 541.457386 221.163462 541.130175 223.615385 540.786603 226.067308 540.344867 228.519231 539.911312 230.971154 539.567740 233.423077 539.150546 235.875000 538.766072 238.326923 538.357058 240.778846 538.038027 243.230769 537.825339 245.682692 537.571750 248.134615 537.342702 250.586538 537.130015 253.038462 536.843705 255.490385 536.671919 257.942308 536.524674 260.394231 536.410150 262.846154 536.271085 265.298077 536.164741 267.750000 536.099299 270.201923 536.033857 272.653846 535.902972 275.105769 535.829350 277.557692 535.690285 280.009615 535.551220 282.461538 535.469417 284.913462 535.371254 287.365385 535.297631 289.817308 535.125845 292.269231 534.970419 294.721154 534.872256 297.173077 534.675929 299.625000 534.512323 302.076923 534.365078 304.528846 534.193292 306.980769 533.980605 309.432692 533.849720 311.884615 533.751557 314.336538 533.677934 316.788462 533.522509 319.240385 533.407985 321.692308 533.318002 324.144231 533.211658 326.596154 533.121675 329.048077 533.056233 331.500000 532.941709 333.951923 532.835365 336.403846 532.729021 338.855769 532.639038 341.307692 532.557235 343.759615 532.369089 346.211538 532.230024 348.663462 532.066418 351.115385 531.927353 353.567308 531.796469 356.019231 531.665584 358.471154 531.526519 360.923077 531.428356 363.375000 531.305651 365.826923 531.166586 368.278846 530.970260 370.730769 530.831195 373.182692 530.675769 375.634615 530.585786 378.086538 530.495803 380.538462 530.405820 382.990385 530.299476 385.442308 530.152231 387.894231 530.078608 390.346154 529.972265 392.798077 529.767758 395.250000 529.563250 397.701923 529.178777 400.153846 528.753402 402.605769 528.262585 405.057692 527.869931 407.509615 527.420015 409.961538 527.019181 412.413462 526.422021 414.865385 525.939384 417.317308 525.677615 419.769231 525.383124 422.221154 525.064093 424.673077 524.720521 427.125000 524.352408 429.576923 483.614584 432.028846 464.260027 434.480769 453.797441 436.932692 446.075251 439.384615 439.449219 441.836538 433.894805 444.288462 427.628706 446.740385 421.501672 449.192308 412.626062 451.644231 399.693029 454.096154 382.669854 456.548077 361.000276 459.000000 342.381945 461.451923 325.980472 463.903846 313.317389 466.355769 302.175840 468.807692 290.780701 471.259615 280.031805 473.711538 269.773727 476.163462 261.511638 478.615385 255.220998 481.067308 249.756567 483.519231 244.701150 485.971154 240.112009 488.423077 236.226374 490.875000 232.807014 493.326923 230.532894 495.778846 229.076804 498.230769 227.874302 500.682692 226.549095 503.134615 225.289331 505.586538 223.710536 508.038462 221.591842 510.490385 218.826905 512.942308 215.121236 515.394231 210.924749 517.846154 206.720082 520.298077 202.302727 522.750000 198.384370 525.201923 194.596898 527.653846 190.817606 530.105769 186.948330 532.557692 182.972711 535.009615 179.823301 537.461538 176.845677 539.913462 174.538837 542.365385 172.158373 544.817308 170.072400 547.269231 168.019149 549.721154 166.620320 552.173077 165.401457 554.625000 164.419823 557.076923 163.708138 559.528846 162.775585 561.980769 162.063900 564.432692 161.155889 566.884615 160.076091 569.336538 158.955392 571.788462 156.926681 574.240385 154.857068 576.692308 152.746555 579.144231 150.382452 581.596154 148.247397 584.048077 146.226867 586.500000 143.830043 588.951923 141.654087 591.403846 139.592655 593.855769 138.071121 596.307692 136.295999 598.759615 134.733565 601.211538 133.571964 603.663462 132.418544 606.115385 131.199681 608.567308 130.201686 611.019231 129.506362 613.471154 128.974643 615.923077 128.492006 618.375000 128.107533 620.826923 127.600355 623.278846 127.076817 625.730769 126.496017 628.182692 125.759791 630.634615 124.917221 633.086538 123.911046 635.538462 122.594020 637.990385 121.252453 640.442308 120.205377 642.894231 119.207382 645.346154 117.775832 647.798077 116.377003 650.250000 114.888191 652.701923 113.800213 655.153846 113.014905 657.605769 112.049632 660.057692 111.117079 662.509615 110.364493 664.961538 101.873356 667.413462 97.325117 669.865385 94.437476 672.317308 92.596911 674.769231 91.427130 677.221154 90.388234 679.673077 89.586566 682.125000 88.637653 684.576923 87.459692 687.028846 86.109945 689.480769 84.752017 691.932692 83.230484 694.384615 81.921638 696.836538 80.220139 699.288462 78.829490 701.740385 77.651529 704.192308 76.129996 706.644231 74.886592 709.096154 73.610467 711.548077 72.350703 714.000000 71.352709 716.451923 70.223829 718.903846 69.274916 721.355769 68.064234 723.807692 67.180763 726.259615 66.370914 728.711538 65.863737 731.163462 65.258395 733.615385 64.890283 736.067308 64.513989 738.519231 64.219499 740.971154 63.892288 743.423077 63.556896 745.875000 63.164242 748.326923 62.607983 750.778846 62.019002 753.230769 61.127351 755.682692 60.284782 758.134615 59.434032 760.586538 58.836871 763.038462 58.018842 765.490385 57.339879 767.942308 56.701816 770.394231 55.875607 772.846154 55.139382 775.298077 54.345894 777.750000 53.797815 780.201923 53.184293 782.653846 52.480789 785.105769 51.883628 787.557692 51.466433 790.009615 51.008337 792.461538 50.558421 794.913462 49.936720 797.365385 49.372280 799.817308 48.693316 802.269231 47.736223 804.721154 46.312853 807.173077 44.275962 809.625000 41.797335 812.076923 38.934235 814.528846 35.874808 816.980769 33.854277 819.432692 31.882828 821.884615 29.584168 824.336538 27.269147 826.788462 25.060470 829.240385 23.129922 831.692308 21.821077 834.144231 20.594034 836.596154 19.383351 839.048077 18.107227 841.500000 17.117412 843.951923 16.307564 846.403846 15.620420 848.855769 15.195045 851.307692 14.867833 853.759615 14.442459 856.211538 14.074346 858.663462 13.714413 861.115385 13.297219 863.567308 12.790041 866.019231 12.634615 868.471154 12.634615 870.923077 12.634615 873.375000 12.634615 875.826923 12.634615 878.278846 12.634615 880.730769 12.634615 883.182692 12.634615 885.634615 12.634615 888.086538 12.634615 890.538462 12.634615 892.990385 12.634615 895.442308 12.634615 897.894231 12.634615 900.346154 12.634615" /></g></g><g class="titles"><text class="title plot_title" x="512.0" y="26">SO 6 and Math.SE 5 Participation</text><text class="title" transform="rotate(-90 0.000000 374.500000)" x="0" y="400.5">Users</text></g><g class="plot overlay" transform="translate(86, 46)"><g class="series serie-0 color-0" /><g class="series serie-1 color-1" /><g class="series serie-2 color-2" /><g class="series serie-3 color-3" /></g><g class="plot text-overlay" transform="translate(86, 46)"><g class="series serie-0 color-0" /><g class="series serie-1 color-1" /><g class="series serie-2 color-2" /><g class="series serie-3 color-3" /></g><g class="plot tooltip-overlay" transform="translate(86, 46)"><g class="tooltip" style="opacity: 0" transform="translate(0 0)"><a><rect class="tooltip-box" height="0" rx="0" ry="0" width="0" /><text class="text"><tspan class="label" /><tspan class="value" /></text></a></g></g><g class="legends" transform="translate(96, 713)"><g class="legend reactive activate-serie" id="activate-serie-0"><rect class="color-0 reactive" height="12" width="12" x="0.0" y="1.0" /><text x="17.0" y="11.2">Math.SE 5 Constituents</text></g><g class="legend reactive activate-serie" id="activate-serie-1"><rect class="color-1 reactive" height="12" width="12" x="459.0" y="1.0" /><text x="476.0" y="11.2">Math.SE 5 Caucus</text></g><g class="legend reactive activate-serie" id="activate-serie-2"><rect class="color-2 reactive" height="12" width="12" x="0.0" y="22.0" /><text x="17.0" y="32.2">SO 6 Constituents</text></g><g class="legend reactive activate-serie" id="activate-serie-3"><rect class="color-3 reactive" height="12" width="12" x="459.0" y="22.0" /><text x="476.0" y="32.2">SO 6 Caucus</text></g></g></g></svg>