<?xml version='1.0' encoding='utf-8'?>
<svg xmlns:xlink="http://www.w3.org/1999/xlink" class="pygal-chart" id="chart-14c8ea79-8bc8-4a2f-b425-3a23e27ccc29" viewBox="0 0 1024 768" xmlns="http://www.w3.org/2000/svg"><!--Generated with pygal 1.7.0 (etree) ©Kozea 2011-2014 on 2015-04-20--><!--http://pygal.org--><!--http://github.com/Kozea/pygal--><defs><style type="text/css">#chart-14c8ea79-8bc8-4a2f-b425-3a23e27ccc29 .title{font-family:"monospace";font-size:16px}#chart-14c8ea79-8bc8-4a2f-b425-3a23e27ccc29 .legends .legend text{font-family:"monospace";font-size:14px}#chart-14c8ea79-8bc8-4a2f-b425-3a23e27ccc29 .axis text{font-family:"monospace";font-size:10px}#chart-14c8ea79-8bc8-4a2f-b425-3a23e27ccc29 .axis text.major{font-family:"monospace";font-size:10px}#chart-14c8ea79-8bc8-4a2f-b425-3a23e27ccc29 .series text{font-family:"monospace";font-size:8px}#chart-14c8ea79-8bc8-4a2f-b425-3a23e27ccc29 .tooltip text{font-family:"monospace";font-size:16px}#chart-14c8ea79-8bc8-4a2f-b425-3a23e27ccc29 text.no_data{font-size:64px}
#chart-14c8ea79-8bc8-4a2f-b425-3a23e27ccc29{background-color:black}#chart-14c8ea79-8bc8-4a2f-b425-3a23e27ccc29 path,#chart-14c8ea79-8bc8-4a2f-b425-3a23e27ccc29 line,#chart-14c8ea79-8bc8-4a2f-b425-3a23e27ccc29 rect,#chart-14c8ea79-8bc8-4a2f-b425-3a23e27ccc29 circle{-webkit-transition:250ms;-moz-transition:250ms;transition:250ms}#chart-14c8ea79-8bc8-4a2f-b425-3a23e27ccc29 .graph &gt; .background{fill:black}#chart-14c8ea79-8bc8-4a2f-b425-3a23e27ccc29 .plot &gt; .background{fill:#111}#chart-14c8ea79-8bc8-4a2f-b425-3a23e27ccc29 .graph{fill:#999}#chart-14c8ea79-8bc8-4a2f-b425-3a23e27ccc29 text.no_data{fill:#eee}#chart-14c8ea79-8bc8-4a2f-b425-3a23e27ccc29 .title{fill:#eee}#chart-14c8ea79-8bc8-4a2f-b425-3a23e27ccc29 .legends .legend text{fill:#999}#chart-14c8ea79-8bc8-4a2f-b425-3a23e27ccc29 .legends .legend:hover text{fill:#eee}#chart-14c8ea79-8bc8-4a2f-b425-3a23e27ccc29 .axis .line{stroke:#eee}#chart-14c8ea79-8bc8-4a2f-b425-3a23e27ccc29 .axis .guide.line{stroke:#555}#chart-14c8ea79-8bc8-4a2f-b425-3a23e27ccc29 .axis .major.line{stroke:#999}#chart-14c8ea79-8bc8-4a2f-b425-3a23e27ccc29 .axis text.major{stroke:#eee;fill:#eee}#chart-14c8ea79-8bc8-4a2f-b425-3a23e27ccc29 .axis.y .guides:hover .guide.line,#chart-14c8ea79-8bc8-4a2f-b425-3a23e27ccc29 .line-graph .axis.x .guides:hover .guide.line,#chart-14c8ea79-8bc8-4a2f-b425-3a23e27ccc29 .stackedline-graph .axis.x .guides:hover .guide.line,#chart-14c8ea79-8bc8-4a2f-b425-3a23e27ccc29 .xy-graph .axis.x .guides:hover .guide.line{stroke:#eee}#chart-14c8ea79-8bc8-4a2f-b425-3a23e27ccc29 .axis .guides:hover text{fill:#eee}#chart-14c8ea79-8bc8-4a2f-b425-3a23e27ccc29 .reactive{fill-opacity:.8}#chart-14c8ea79-8bc8-4a2f-b425-3a23e27ccc29 .reactive.active,#chart-14c8ea79-8bc8-4a2f-b425-3a23e27ccc29 .active .reactive{fill-opacity:.4}#chart-14c8ea79-8bc8-4a2f-b425-3a23e27ccc29 .series{stroke-width:1.0;stroke-linejoin:round;stroke-linecap:round;stroke-dasharray:0,0}#chart-14c8ea79-8bc8-4a2f-b425-3a23e27ccc29 .series text{fill:#eee}#chart-14c8ea79-8bc8-4a2f-b425-3a23e27ccc29 .tooltip rect{fill:#111;stroke:#eee}#chart-14c8ea79-8bc8-4a2f-b425-3a23e27ccc29 .tooltip text{fill:#eee}#chart-14c8ea79-8bc8-4a2f-b425-3a23e27ccc29 .map-element{fill:#999;stroke:#555 !important;opacity:.9;stroke-width:3;-webkit-transition:250ms;-moz-transition:250ms;-o-transition:250ms;transition:250ms}#chart-14c8ea79-8bc8-4a2f-b425-3a23e27ccc29 .map-element:hover{opacity:1;stroke-width:10}#chart-14c8ea79-8bc8-4a2f-b425-3a23e27ccc29 .color-0,#chart-14c8ea79-8bc8-4a2f-b425-3a23e27ccc29 .color-0 a:visited{stroke:#ff5995;fill:#ff5995}#chart-14c8ea79-8bc8-4a2f-b425-3a23e27ccc29 .color-1,#chart-14c8ea79-8bc8-4a2f-b425-3a23e27ccc29 .color-1 a:visited{stroke:#b6e354;fill:#b6e354}#chart-14c8ea79-8bc8-4a2f-b425-3a23e27ccc29 .color-2,#chart-14c8ea79-8bc8-4a2f-b425-3a23e27ccc29 .color-2 a:visited{stroke:#feed6c;fill:#feed6c}#chart-14c8ea79-8bc8-4a2f-b425-3a23e27ccc29 .color-3,#chart-14c8ea79-8bc8-4a2f-b425-3a23e27ccc29 .color-3 a:visited{stroke:#8cedff;fill:#8cedff}#chart-14c8ea79-8bc8-4a2f-b425-3a23e27ccc29 .color-4,#chart-14c8ea79-8bc8-4a2f-b425-3a23e27ccc29 .color-4 a:visited{stroke:#9e6ffe;fill:#9e6ffe}#chart-14c8ea79-8bc8-4a2f-b425-3a23e27ccc29 .color-5,#chart-14c8ea79-8bc8-4a2f-b425-3a23e27ccc29 .color-5 a:visited{stroke:#899ca1;fill:#899ca1}#chart-14c8ea79-8bc8-4a2f-b425-3a23e27ccc29 .color-6,#chart-14c8ea79-8bc8-4a2f-b425-3a23e27ccc29 .color-6 a:visited{stroke:#f8f8f2;fill:#f8f8f2}#chart-14c8ea79-8bc8-4a2f-b425-3a23e27ccc29 .color-7,#chart-14c8ea79-8bc8-4a2f-b425-3a23e27ccc29 .color-7 a:visited{stroke:#bf4646;fill:#bf4646}#chart-14c8ea79-8bc8-4a2f-b425-3a23e27ccc29 .color-8,#chart-14c8ea79-8bc8-4a2f-b425-3a23e27ccc29 .color-8 a:visited{stroke:#516083;fill:#516083}#chart-14c8ea79-8bc8-4a2f-b425-3a23e27ccc29 .color-9,#chart-14c8ea79-8bc8-4a2f-b425-3a23e27ccc29 .color-9 a:visited{stroke:#f92672;fill:#f92672}#chart-14c8ea79-8bc8-4a2f-b425-3a23e27ccc29 .color-10,#chart-14c8ea79-8bc8-4a2f-b425-3a23e27ccc29 .color-10 a:visited{stroke:#82b414;fill:#82b414}#chart-14c8ea79-8bc8-4a2f-b425-3a23e27ccc29 .color-11,#chart-14c8ea79-8bc8-4a2f-b425-3a23e27ccc29 .color-11 a:visited{stroke:#fd971f;fill:#fd971f}#chart-14c8ea79-8bc8-4a2f-b425-3a23e27ccc29 .color-12,#chart-14c8ea79-8bc8-4a2f-b425-3a23e27ccc29 .color-12 a:visited{stroke:#56c2d6;fill:#56c2d6}#chart-14c8ea79-8bc8-4a2f-b425-3a23e27ccc29 .color-13,#chart-14c8ea79-8bc8-4a2f-b425-3a23e27ccc29 .color-13 a:visited{stroke:#808384;fill:#808384}#chart-14c8ea79-8bc8-4a2f-b425-3a23e27ccc29 .color-14,#chart-14c8ea79-8bc8-4a2f-b425-3a23e27ccc29 .color-14 a:visited{stroke:#8c54fe;fill:#8c54fe}#chart-14c8ea79-8bc8-4a2f-b425-3a23e27ccc29 .color-15,#chart-14c8ea79-8bc8-4a2f-b425-3a23e27ccc29 .color-15 a:visited{stroke:#465457;fill:#465457}
#chart-14c8ea79-8bc8-4a2f-b425-3a23e27ccc29 text.no_data{text-anchor:middle}#chart-14c8ea79-8bc8-4a2f-b425-3a23e27ccc29 .guide.line{fill-opacity:0}#chart-14c8ea79-8bc8-4a2f-b425-3a23e27ccc29 .centered{text-anchor:middle}#chart-14c8ea79-8bc8-4a2f-b425-3a23e27ccc29 .title{text-anchor:middle}#chart-14c8ea79-8bc8-4a2f-b425-3a23e27ccc29 .legends .legend text{fill-opacity:1}#chart-14c8ea79-8bc8-4a2f-b425-3a23e27ccc29 .axis.x text{text-anchor:middle}#chart-14c8ea79-8bc8-4a2f-b425-3a23e27ccc29 .axis.x:not(.web) text[transform]{text-anchor:start}#chart-14c8ea79-8bc8-4a2f-b425-3a23e27ccc29 .axis.y text{text-anchor:end}#chart-14c8ea79-8bc8-4a2f-b425-3a23e27ccc29 .axis.y2 text{text-anchor:start}#chart-14c8ea79-8bc8-4a2f-b425-3a23e27ccc29 .axis.y .logarithmic text:not(.major),#chart-14c8ea79-8bc8-4a2f-b425-3a23e27ccc29 .axis.y2 .logarithmic text:not(.major){font-size:50%}#chart-14c8ea79-8bc8-4a2f-b425-3a23e27ccc29 .axis .guide.line{stroke-dasharray:4,4}#chart-14c8ea79-8bc8-4a2f-b425-3a23e27ccc29 .axis .major.guide.line{stroke-dasharray:6,6}#chart-14c8ea79-8bc8-4a2f-b425-3a23e27ccc29 .axis text.major{stroke-width:0.5px}#chart-14c8ea79-8bc8-4a2f-b425-3a23e27ccc29 .horizontal .axis.y .guide.line,#chart-14c8ea79-8bc8-4a2f-b425-3a23e27ccc29 .horizontal .axis.y2 .guide.line,#chart-14c8ea79-8bc8-4a2f-b425-3a23e27ccc29 .vertical .axis.x .guide.line{opacity:0}#chart-14c8ea79-8bc8-4a2f-b425-3a23e27ccc29 .horizontal .axis.always_show .guide.line,#chart-14c8ea79-8bc8-4a2f-b425-3a23e27ccc29 .vertical .axis.always_show .guide.line{opacity:1 !important}#chart-14c8ea79-8bc8-4a2f-b425-3a23e27ccc29 .axis.y .guides:hover .guide.line,#chart-14c8ea79-8bc8-4a2f-b425-3a23e27ccc29 .axis.y2 .guides:hover .guide.line,#chart-14c8ea79-8bc8-4a2f-b425-3a23e27ccc29 .axis.x .guides:hover .guide.line{opacity:1}#chart-14c8ea79-8bc8-4a2f-b425-3a23e27ccc29 .axis .guides:hover text{opacity:1}#chart-14c8ea79-8bc8-4a2f-b425-3a23e27ccc29 .nofill{fill:none}#chart-14c8ea79-8bc8-4a2f-b425-3a23e27ccc29 .subtle-fill{fill-opacity:.2}#chart-14c8ea79-8bc8-4a2f-b425-3a23e27ccc29 .dot{stroke-width:1px;fill-opacity:1}#chart-14c8ea79-8bc8-4a2f-b425-3a23e27ccc29 .dot.active{stroke-width:5px}#chart-14c8ea79-8bc8-4a2f-b425-3a23e27ccc29 .series text{stroke:none}#chart-14c8ea79-8bc8-4a2f-b425-3a23e27ccc29 .series text.active{opacity:1}#chart-14c8ea79-8bc8-4a2f-b425-3a23e27ccc29 .tooltip rect{fill-opacity:0.8}#chart-14c8ea79-8bc8-4a2f-b425-3a23e27ccc29 .tooltip text{fill-opacity:1}#chart-14c8ea79-8bc8-4a2f-b425-3a23e27ccc29 .tooltip text tspan.label{fill-opacity:.8}</style><script type="text/javascript">window.config = {"interpolation_parameters": {}, "title": "Latest Election Participation", "legend_font_size": 14, "x_labels_major_count": null, "show_minor_y_labels": true, "rounded_bars": null, "margin_bottom": null, "tooltip_font_size": 16, "dots_size": 2.5, "margin_right": null, "show_y_labels": true, "interpolate": null, "range": null, "legend_at_bottom": true, "xrange": null, "css": ["style.css", "graph.css"], "truncate_label": null, "style": {"foreground": "#999", "background": "black", "plot_background": "#111", "font_family": "monospace", "opacity": ".8", "opacity_hover": ".4", "colors": ["#ff5995", "#b6e354", "#feed6c", "#8cedff", "#9e6ffe", "#899ca1", "#f8f8f2", "#bf4646", "#516083", "#f92672", "#82b414", "#fd971f", "#56c2d6", "#808384", "#8c54fe", "#465457"], "foreground_dark": "#555", "transition": "250ms", "stroke_style": "round", "foreground_light": "#eee", "stroke_dasharray": "0,0", "stroke_width": 1.0}, "half_pie": false, "strict": false, "truncate_legend": null, "print_values": false, "stack_from_top": false, "tooltip_border_radius": 0, "x_labels_major": null, "fill": false, "include_x_axis": false, "major_label_font_size": 10, "order_min": null, "show_y_guides": true, "margin_left": null, "x_title": null, "legend_box_size": 12, "y_labels_major_every": null, "show_legend": true, "show_only_major_dots": false, "height": 768, "disable_xml_declaration": false, "show_x_guides": false, "y_title": "Users", "margin_top": null, "missing_value_fill_truncation": "x", "human_readable": false, "value_font_size": 8, "x_label_rotation": 0, "spacing": 10, "y_labels_major": null, "title_font_size": 16, "print_zeroes": false, "x_labels": null, "x_label_format": "%Y-%m-%d %H:%M:%S.%f", "show_x_labels": true, "width": 1024, "inner_radius": 0, "mode": null, "legend_at_bottom_columns": null, "show_minor_x_labels": true, "label_font_size": 10, "explicit_size": false, "no_prefix": false, "pretty_print": false, "x_labels_major_every": null, "no_data_font_size": 64, "stroke": true, "y_label_rotation": 0, "x_value_formatter": null, "zero": 0, "interpolation_precision": 250, "show_dots": false, "margin": 20, "logarithmic": false, "no_data_text": "No data", "y_labels": null, "js": ["http://kozea.github.io/pygal.js/javascripts/svg.jquery.js", "http://kozea.github.io/pygal.js/javascripts/pygal-tooltips.js"], "y_labels_major_count": null}</script><script type="text/javascript" xlink:href="http://kozea.github.io/pygal.js/javascripts/svg.jquery.js" /><script type="text/javascript" xlink:href="http://kozea.github.io/pygal.js/javascripts/pygal-tooltips.js" /></defs><title>Latest Election Participation</title><g class="graph line-graph vertical"><rect class="background" height="768" width="1024" x="0" y="0" /><g class="plot" transform="translate(86, 46)"><rect class="background" height="657.0" width="918.0" x="0" y="0" /><g class="axis y"><g class="guides"><path class="axis major line" d="M0.000000 644.365385 h918.000000" /><text class="major" x="-5" y="647.8653846153846">0</text></g><g class="guides"><path class="guide line" d="M0.000000 561.210091 h918.000000" /><text class="" x="-5" y="564.7100905215622">10000</text></g><g class="guides"><path class="guide line" d="M0.000000 478.054796 h918.000000" /><text class="" x="-5" y="481.5547964277397">20000</text></g><g class="guides"><path class="guide line" d="M0.000000 394.899502 h918.000000" /><text class="" x="-5" y="398.3995023339172">30000</text></g><g class="guides"><path class="guide line" d="M0.000000 311.744208 h918.000000" /><text class="" x="-5" y="315.24420824009474">40000</text></g><g class="guides"><path class="major guide line" d="M0.000000 228.588914 h918.000000" /><text class="major" x="-5" y="232.0889141462722">50000</text></g><g class="guides"><path class="guide line" d="M0.000000 145.433620 h918.000000" /><text class="" x="-5" y="148.93362005244973">60000</text></g><g class="guides"><path class="guide line" d="M0.000000 62.278326 h918.000000" /><text class="" x="-5" y="65.7783259586273">70000</text></g></g><g class="series serie-0 color-0"><path class="line reactive nofill" d="M17.653846 644.365385 L20.312558 644.365385 22.971270 644.365385 25.629981 644.365385 28.288693 644.365385 30.947405 644.365385 33.606117 644.365385 36.264829 644.365385 38.923540 644.365385 41.582252 644.365385 44.240964 644.365385 46.899676 644.365385 49.558387 644.365385 52.217099 644.365385 54.875811 644.365385 57.534523 644.365385 60.193234 644.365385 62.851946 644.365385 65.510658 644.365385 68.169370 644.365385 70.828082 644.365385 73.486793 644.365385 76.145505 644.365385 78.804217 644.365385 81.462929 644.365385 84.121640 644.365385 86.780352 644.365385 89.439064 644.365385 92.097776 644.365385 94.756487 644.365385 97.415199 644.365385 100.073911 644.365385 102.732623 644.365385 105.391335 644.365385 108.050046 644.365385 110.708758 644.365385 113.367470 644.365385 116.026182 644.365385 118.684893 644.365385 121.343605 644.365385 124.002317 644.365385 126.661029 644.365385 129.319741 644.365385 131.978452 644.365385 134.637164 644.365385 137.295876 644.365385 139.954588 644.365385 142.613299 644.365385 145.272011 644.365385 147.930723 644.365385 150.589435 644.365385 153.248146 644.365385 155.906858 644.365385 158.565570 644.365385 161.224282 644.365385 163.882994 644.365385 166.541705 644.365385 169.200417 644.365385 171.859129 644.365385 174.517841 644.365385 177.176552 644.365385 179.835264 644.365385 182.493976 644.365385 185.152688 644.365385 187.811399 644.365385 190.470111 644.365385 193.128823 644.365385 195.787535 644.365385 198.446247 644.365385 201.104958 644.365385 203.763670 644.365385 206.422382 644.365385 209.081094 644.365385 211.739805 644.365385 214.398517 644.365385 217.057229 644.365385 219.715941 644.365385 222.374652 644.365385 225.033364 644.365385 227.692076 644.365385 230.350788 644.365385 233.009500 644.365385 235.668211 644.365385 238.326923 644.365385 240.985635 644.365385 243.644347 644.365385 246.303058 644.365385 248.961770 644.365385 251.620482 644.365385 254.279194 644.365385 256.937905 644.365385 259.596617 644.365385 262.255329 644.365385 264.914041 644.365385 267.572753 644.365385 270.231464 644.365385 272.890176 644.365385 275.548888 644.365385 278.207600 644.365385 280.866311 644.365385 283.525023 644.365385 286.183735 644.365385 288.842447 644.365385 291.501158 644.365385 294.159870 644.365385 296.818582 644.365385 299.477294 644.365385 302.136006 644.365385 304.794717 644.365385 307.453429 644.365385 310.112141 644.365385 312.770853 644.365385 315.429564 644.365385 318.088276 644.365385 320.746988 644.365385 323.405700 644.365385 326.064411 644.365385 328.723123 644.365385 331.381835 644.365385 334.040547 644.365385 336.699259 644.365385 339.357970 644.365385 342.016682 644.365385 344.675394 644.365385 347.334106 644.365385 349.992817 644.365385 352.651529 644.365385 355.310241 644.365385 357.968953 644.365385 360.627665 644.365385 363.286376 644.365385 365.945088 644.365385 368.603800 644.365385 371.262512 644.365385 373.921223 644.365385 376.579935 644.365385 379.238647 644.365385 381.897359 644.365385 384.556070 644.365385 387.214782 644.365385 389.873494 644.365385 392.532206 644.365385 395.190918 644.365385 397.849629 644.365385 400.508341 644.365385 403.167053 644.365385 405.825765 644.365385 408.484476 644.365385 411.143188 644.365385 413.801900 644.365385 416.460612 644.365385 419.119323 644.365385 421.778035 644.365385 424.436747 644.365385 427.095459 644.365385 429.754171 644.365385 432.412882 644.365385 435.071594 644.365385 437.730306 644.365385 440.389018 644.365385 443.047729 644.365385 445.706441 644.365385 448.365153 644.365385 451.023865 644.365385 453.682576 644.365385 456.341288 644.365385 459.000000 644.365385 461.658712 644.365385 464.317424 644.365385 466.976135 644.365385 469.634847 644.365385 472.293559 644.365385 474.952271 644.365385 477.610982 644.365385 480.269694 644.365385 482.928406 644.365385 485.587118 644.365385 488.245829 644.365385 490.904541 644.365385 493.563253 644.365385 496.221965 644.365385 498.880677 644.365385 501.539388 644.365385 504.198100 644.365385 506.856812 644.365385 509.515524 644.365385 512.174235 644.365385 514.832947 644.365385 517.491659 644.365385 520.150371 644.365385 522.809082 644.365385 525.467794 644.365385 528.126506 644.365385 530.785218 644.365385 533.443930 644.365385 536.102641 644.365385 538.761353 644.365385 541.420065 644.365385 544.078777 644.365385 546.737488 644.365385 549.396200 644.365385 552.054912 644.365385 554.713624 644.365385 557.372335 644.365385 560.031047 644.365385 562.689759 644.365385 565.348471 644.365385 568.007183 644.365385 570.665894 644.365385 573.324606 644.365385 575.983318 644.365385 578.642030 644.365385 581.300741 644.365385 583.959453 644.365385 586.618165 644.365385 589.276877 644.365385 591.935589 644.365385 594.594300 644.365385 597.253012 644.365385 599.911724 644.365385 602.570436 644.365385 605.229147 644.365385 607.887859 644.365385 610.546571 644.365385 613.205283 644.365385 615.863994 644.365385 618.522706 644.365385 621.181418 644.365385 623.840130 644.365385 626.498842 644.365385 629.157553 644.365385 631.816265 644.365385 634.474977 644.365385 637.133689 644.365385 639.792400 644.365385 642.451112 644.365385 645.109824 644.365385 647.768536 644.365385 650.427247 644.365385 653.085959 644.365385 655.744671 644.365385 658.403383 644.365385 661.062095 644.365385 663.720806 644.365385 666.379518 644.365385 669.038230 644.365385 671.696942 644.365385 674.355653 644.365385 677.014365 644.365385 679.673077 644.365385 682.331789 644.365385 684.990500 644.365385 687.649212 644.365385 690.307924 644.365385 692.966636 644.365385 695.625348 644.365385 698.284059 644.365385 700.942771 644.365385 703.601483 644.365385 706.260195 644.365385 708.918906 644.365385 711.577618 644.365385 714.236330 644.365385 716.895042 644.365385 719.553753 617.722428 722.212465 605.457023 724.871177 598.654919 727.529889 594.630203 730.188601 591.495249 732.847312 588.726177 735.506024 586.231519 738.164736 583.346030 740.823448 579.512571 743.482159 575.753951 746.140871 572.036910 748.799583 567.771043 751.458295 564.020739 754.117006 559.771504 756.775718 555.921414 759.434430 552.811406 762.093142 549.834446 764.751854 546.915695 767.410565 544.138309 770.069277 541.585441 772.727989 539.398457 775.386701 536.903798 778.045412 534.982911 780.704124 532.721087 783.362836 531.174398 786.021548 529.902122 788.680259 528.912574 791.338971 528.072706 793.997683 527.465672 796.656395 526.800430 799.315107 526.185081 801.973818 525.627940 804.632530 525.029222 807.291242 524.156091 809.949954 522.942024 812.608665 521.827743 815.267377 520.364210 817.926089 519.183405 820.584801 517.778080 823.243513 516.381071 825.902224 515.150373 828.560936 513.886413 831.219648 512.855287 833.878360 511.549749 836.537071 510.277473 839.195783 509.046775 841.854495 507.841023 844.513207 506.710111 847.171918 505.728878 849.830630 504.697753 852.489342 503.941039 855.148054 503.001385 857.806766 502.094992 860.465477 501.063866 863.124189 499.949585 865.782901 498.735518 868.441613 496.340646 871.100324 492.964541 873.759036 488.233004 876.417748 482.071197 879.076460 476.433268 881.735171 471.136276 884.393883 467.693647 887.052595 464.658479 889.711307 460.974699 892.370019 457.174502 895.028730 453.598824 897.687442 450.854700 900.346154 450.580287" /></g><g class="series serie-1 color-1"><path class="line reactive nofill" d="M17.653846 627.676117 L20.312558 621.431155 22.971270 617.946948 25.629981 615.626915 28.288693 613.439931 30.947405 611.984713 33.606117 610.521180 36.264829 608.816496 38.923540 606.271944 41.582252 602.995626 44.240964 599.569628 46.899676 594.879669 49.558387 590.588856 52.217099 587.670105 54.875811 584.984189 57.534523 582.755627 60.193234 580.443910 62.851946 578.182086 65.510658 575.903631 68.169370 573.916219 70.828082 572.352900 73.486793 570.964207 76.145505 569.733508 78.804217 568.569334 81.462929 567.654626 84.121640 566.532029 86.780352 565.999835 89.439064 565.617321 92.097776 565.151651 94.756487 564.710928 97.415199 564.419885 100.073911 564.145472 102.732623 563.588332 105.391335 562.939721 108.050046 562.232901 110.708758 561.276615 113.367470 560.320329 116.026182 559.380674 118.684893 558.490912 121.343605 557.750830 124.002317 556.902646 126.661029 556.029516 129.319741 555.272803 131.978452 554.615876 134.637164 554.067051 137.295876 553.410124 139.954588 552.819721 142.613299 552.329105 145.272011 551.830173 147.930723 551.431028 150.589435 551.040198 153.248146 550.890519 155.906858 550.715892 158.565570 550.532951 161.224282 550.300116 163.882994 550.117174 166.541705 549.767922 169.200417 549.327199 171.859129 548.953000 174.517841 548.370913 177.176552 547.780511 179.835264 547.281579 182.493976 546.774331 185.152688 546.192244 187.811399 545.701628 190.470111 545.094595 193.128823 544.470930 195.787535 543.880527 198.446247 543.423173 201.104958 543.107183 203.763670 542.741300 206.422382 542.358785 209.081094 541.884800 211.739805 541.585441 214.398517 541.394184 217.057229 541.211242 219.715941 541.086509 222.374652 540.945145 225.033364 540.787150 227.692076 540.670733 230.350788 540.421267 233.009500 540.130223 235.668211 539.756025 238.326923 539.423403 240.985635 539.074151 243.644347 538.625113 246.303058 538.184390 248.961770 537.835137 251.620482 537.411045 254.279194 537.020215 256.937905 536.604439 259.596617 536.280133 262.255329 536.063930 264.914041 535.806148 267.572753 535.573313 270.231464 535.357110 272.890176 535.066066 275.548888 534.891440 278.207600 534.741760 280.866311 534.625343 283.525023 534.483979 286.183735 534.375877 288.842447 534.309353 291.501158 534.242829 294.159870 534.109780 296.818582 534.034940 299.477294 533.893576 302.136006 533.752212 304.794717 533.669057 307.453429 533.569271 310.112141 533.494431 312.770853 533.319805 315.429564 533.161810 318.088276 533.062023 320.746988 532.862451 323.405700 532.696140 326.064411 532.546461 328.723123 532.371835 331.381835 532.155631 334.040547 532.022582 336.699259 531.922796 339.357970 531.847956 342.016682 531.689961 344.675394 531.573544 347.334106 531.482073 349.992817 531.373971 352.651529 531.282500 355.310241 531.215976 357.968953 531.099559 360.627665 530.991457 363.286376 530.883355 365.945088 530.791884 368.603800 530.708729 371.262512 530.517471 373.921223 530.376107 376.579935 530.209797 379.238647 530.068433 381.897359 529.935384 384.556070 529.802336 387.214782 529.660972 389.873494 529.561186 392.532206 529.436453 395.190918 529.295089 397.849629 529.095516 400.508341 528.954152 403.167053 528.796157 405.825765 528.704686 408.484476 528.613215 411.143188 528.521744 413.801900 528.413643 416.460612 528.263963 419.119323 528.189123 421.778035 528.081021 424.436747 527.873133 427.095459 527.665245 429.754171 527.274415 432.412882 526.842007 435.071594 526.343076 437.730306 525.943930 440.389018 525.486576 443.047729 525.079115 445.706441 524.472082 448.365153 523.981465 451.023865 523.715368 453.682576 523.416009 456.341288 523.091704 459.000000 522.742451 461.658712 522.368253 464.317424 480.956916 466.976135 461.282374 469.634847 450.646811 472.293559 442.796952 474.952271 436.061373 477.610982 430.415128 480.269694 424.045433 482.928406 417.817101 485.587118 408.794752 488.245829 395.647900 490.904541 378.343283 493.563253 356.315446 496.221965 337.389301 498.880677 320.716664 501.539388 307.844225 504.198100 296.518474 506.856812 284.934941 509.515524 274.008336 512.174235 263.580662 514.832947 255.181977 517.491659 248.787335 520.150371 243.232561 522.809082 238.093564 525.467794 233.428552 528.126506 229.478676 530.785218 226.002784 533.443930 223.691067 536.102641 222.210903 538.761353 220.988520 541.420065 219.641405 544.078777 218.360813 546.737488 216.755916 549.396200 214.602194 552.054912 211.791545 554.713624 208.024610 557.372335 203.758743 560.031047 199.484561 562.689759 194.994175 565.348471 191.011037 568.007183 187.160947 570.665894 183.319172 573.324606 179.385927 575.983318 175.344579 578.642030 172.143101 581.300741 169.116248 583.959453 166.771269 586.618165 164.351449 589.276877 162.230989 591.935589 160.143792 594.594300 158.721836 597.253012 157.482822 599.911724 156.484959 602.570436 155.761508 605.229147 154.813537 607.887859 154.090086 610.546571 153.167062 613.205283 152.069413 615.863994 150.930185 618.522706 148.867934 621.181418 146.764105 623.840130 144.618698 626.498842 142.215510 629.157553 140.045157 631.816265 137.991221 634.474977 135.554771 637.133689 133.342840 639.792400 131.247327 642.451112 129.700638 645.109824 127.896169 647.768536 126.307902 650.427247 125.127097 653.085959 123.954608 655.744671 122.715594 658.403383 121.701099 661.062095 120.994279 663.720806 120.453770 666.379518 119.963153 669.038230 119.572324 671.696942 119.056761 674.355653 118.524567 677.014365 117.934164 679.673077 117.185767 682.331789 116.329267 684.990500 115.306457 687.649212 113.967657 690.307924 112.603910 692.966636 111.539522 695.625348 110.525028 698.284059 109.069810 700.942771 107.647854 703.601483 106.134428 706.260195 105.028463 708.918906 104.230172 711.577618 103.248939 714.236330 102.300969 716.895042 101.535940 719.553753 92.904421 722.212465 88.280986 724.871177 85.345605 727.529889 83.474610 730.188601 82.285490 732.847312 81.229417 735.506024 80.414496 738.164736 79.449894 740.823448 78.252458 743.482159 76.880396 746.140871 75.500018 748.799583 73.953329 751.458295 72.622845 754.117006 70.893214 756.775718 69.479574 759.434430 68.282138 762.093142 66.735450 764.751854 65.471489 767.410565 64.174267 770.069277 62.893675 772.727989 61.879181 775.386701 60.731637 778.045412 59.767036 780.704124 58.536338 783.362836 57.638261 786.021548 56.815023 788.680259 56.299460 791.338971 55.684111 793.997683 55.309912 796.656395 54.927398 799.315107 54.628039 801.973818 54.295418 804.632530 53.954481 807.291242 53.555336 809.949954 52.989880 812.608665 52.391161 815.267377 51.484769 817.926089 50.628269 820.584801 49.763454 823.243513 49.156421 825.902224 48.324868 828.560936 47.634679 831.219648 46.986067 833.878360 46.146199 836.537071 45.397801 839.195783 44.591195 841.854495 44.034054 844.513207 43.410390 847.171918 42.695254 849.830630 42.088221 852.489342 41.664129 855.148054 41.198459 857.806766 40.741105 860.465477 40.109125 863.124189 39.535353 865.782901 38.845164 868.441613 37.872247 871.100324 36.425345 873.759036 34.354778 876.417748 31.835173 879.076460 28.924737 881.735171 25.814729 884.393883 23.760794 887.052595 21.756751 889.711307 19.420087 892.370019 17.066793 895.028730 14.821600 897.687442 12.859135 900.346154 12.634615" /></g></g><g class="titles"><text class="title plot_title" x="512.0" y="26">Latest Election Participation</text><text class="title" transform="rotate(-90 0.000000 374.500000)" x="0" y="400.5">Users</text></g><g class="plot overlay" transform="translate(86, 46)"><g class="series serie-0 color-0" /><g class="series serie-1 color-1" /></g><g class="plot text-overlay" transform="translate(86, 46)"><g class="series serie-0 color-0" /><g class="series serie-1 color-1" /></g><g class="plot tooltip-overlay" transform="translate(86, 46)"><g class="tooltip" style="opacity: 0" transform="translate(0 0)"><a><rect class="tooltip-box" height="0" rx="0" ry="0" width="0" /><text class="text"><tspan class="label" /><tspan class="value" /></text></a></g></g><g class="legends" transform="translate(96, 713)"><g class="legend reactive activate-serie" id="activate-serie-0"><rect class="color-0 reactive" height="12" width="12" x="0.0" y="1.0" /><text x="17.0" y="11.2">constituents</text></g><g class="legend reactive activate-serie" id="activate-serie-1"><rect class="color-1 reactive" height="12" width="12" x="459.0" y="1.0" /><text x="476.0" y="11.2">caucus</text></g></g></g></svg>