<?xml version='1.0' encoding='utf-8'?>
<svg xmlns:xlink="http://www.w3.org/1999/xlink" xmlns="http://www.w3.org/2000/svg" id="chart-ca3d358f-9f37-44b2-aece-d561144de442" class="pygal-chart" viewBox="0 0 1024 768"><!--Generated with pygal 1.7.0 (lxml) ©Kozea 2011-2014 on 2015-04-20--><!--http://pygal.org--><!--http://github.com/Kozea/pygal--><defs><style type="text/css">#chart-ca3d358f-9f37-44b2-aece-d561144de442 .title{font-family:"monospace";font-size:16px}#chart-ca3d358f-9f37-44b2-aece-d561144de442 .legends .legend text{font-family:"monospace";font-size:14px}#chart-ca3d358f-9f37-44b2-aece-d561144de442 .axis text{font-family:"monospace";font-size:10px}#chart-ca3d358f-9f37-44b2-aece-d561144de442 .axis text.major{font-family:"monospace";font-size:10px}#chart-ca3d358f-9f37-44b2-aece-d561144de442 .series text{font-family:"monospace";font-size:8px}#chart-ca3d358f-9f37-44b2-aece-d561144de442 .tooltip text{font-family:"monospace";font-size:16px}#chart-ca3d358f-9f37-44b2-aece-d561144de442 text.no_data{font-size:64px}
#chart-ca3d358f-9f37-44b2-aece-d561144de442{background-color:black}#chart-ca3d358f-9f37-44b2-aece-d561144de442 path,#chart-ca3d358f-9f37-44b2-aece-d561144de442 line,#chart-ca3d358f-9f37-44b2-aece-d561144de442 rect,#chart-ca3d358f-9f37-44b2-aece-d561144de442 circle{-webkit-transition:250ms;-moz-transition:250ms;transition:250ms}#chart-ca3d358f-9f37-44b2-aece-d561144de442 .graph &gt; .background{fill:black}#chart-ca3d358f-9f37-44b2-aece-d561144de442 .plot &gt; .background{fill:#111}#chart-ca3d358f-9f37-44b2-aece-d561144de442 .graph{fill:#999}#chart-ca3d358f-9f37-44b2-aece-d561144de442 text.no_data{fill:#eee}#chart-ca3d358f-9f37-44b2-aece-d561144de442 .title{fill:#eee}#chart-ca3d358f-9f37-44b2-aece-d561144de442 .legends .legend text{fill:#999}#chart-ca3d358f-9f37-44b2-aece-d561144de442 .legends .legend:hover text{fill:#eee}#chart-ca3d358f-9f37-44b2-aece-d561144de442 .axis .line{stroke:#eee}#chart-ca3d358f-9f37-44b2-aece-d561144de442 .axis .guide.line{stroke:#555}#chart-ca3d358f-9f37-44b2-aece-d561144de442 .axis .major.line{stroke:#999}#chart-ca3d358f-9f37-44b2-aece-d561144de442 .axis text.major{stroke:#eee;fill:#eee}#chart-ca3d358f-9f37-44b2-aece-d561144de442 .axis.y .guides:hover .guide.line,#chart-ca3d358f-9f37-44b2-aece-d561144de442 .line-graph .axis.x .guides:hover .guide.line,#chart-ca3d358f-9f37-44b2-aece-d561144de442 .stackedline-graph .axis.x .guides:hover .guide.line,#chart-ca3d358f-9f37-44b2-aece-d561144de442 .xy-graph .axis.x .guides:hover .guide.line{stroke:#eee}#chart-ca3d358f-9f37-44b2-aece-d561144de442 .axis .guides:hover text{fill:#eee}#chart-ca3d358f-9f37-44b2-aece-d561144de442 .reactive{fill-opacity:.8}#chart-ca3d358f-9f37-44b2-aece-d561144de442 .reactive.active,#chart-ca3d358f-9f37-44b2-aece-d561144de442 .active .reactive{fill-opacity:.4}#chart-ca3d358f-9f37-44b2-aece-d561144de442 .series{stroke-width:1.0;stroke-linejoin:round;stroke-linecap:round;stroke-dasharray:0,0}#chart-ca3d358f-9f37-44b2-aece-d561144de442 .series text{fill:#eee}#chart-ca3d358f-9f37-44b2-aece-d561144de442 .tooltip rect{fill:#111;stroke:#eee}#chart-ca3d358f-9f37-44b2-aece-d561144de442 .tooltip text{fill:#eee}#chart-ca3d358f-9f37-44b2-aece-d561144de442 .map-element{fill:#999;stroke:#555 !important;opacity:.9;stroke-width:3;-webkit-transition:250ms;-moz-transition:250ms;-o-transition:250ms;transition:250ms}#chart-ca3d358f-9f37-44b2-aece-d561144de442 .map-element:hover{opacity:1;stroke-width:10}#chart-ca3d358f-9f37-44b2-aece-d561144de442 .color-0,#chart-ca3d358f-9f37-44b2-aece-d561144de442 .color-0 a:visited{stroke:#ff5995;fill:#ff5995}#chart-ca3d358f-9f37-44b2-aece-d561144de442 .color-1,#chart-ca3d358f-9f37-44b2-aece-d561144de442 .color-1 a:visited{stroke:#b6e354;fill:#b6e354}#chart-ca3d358f-9f37-44b2-aece-d561144de442 .color-2,#chart-ca3d358f-9f37-44b2-aece-d561144de442 .color-2 a:visited{stroke:#feed6c;fill:#feed6c}#chart-ca3d358f-9f37-44b2-aece-d561144de442 .color-3,#chart-ca3d358f-9f37-44b2-aece-d561144de442 .color-3 a:visited{stroke:#8cedff;fill:#8cedff}#chart-ca3d358f-9f37-44b2-aece-d561144de442 .color-4,#chart-ca3d358f-9f37-44b2-aece-d561144de442 .color-4 a:visited{stroke:#9e6ffe;fill:#9e6ffe}#chart-ca3d358f-9f37-44b2-aece-d561144de442 .color-5,#chart-ca3d358f-9f37-44b2-aece-d561144de442 .color-5 a:visited{stroke:#899ca1;fill:#899ca1}#chart-ca3d358f-9f37-44b2-aece-d561144de442 .color-6,#chart-ca3d358f-9f37-44b2-aece-d561144de442 .color-6 a:visited{stroke:#f8f8f2;fill:#f8f8f2}#chart-ca3d358f-9f37-44b2-aece-d561144de442 .color-7,#chart-ca3d358f-9f37-44b2-aece-d561144de442 .color-7 a:visited{stroke:#bf4646;fill:#bf4646}#chart-ca3d358f-9f37-44b2-aece-d561144de442 .color-8,#chart-ca3d358f-9f37-44b2-aece-d561144de442 .color-8 a:visited{stroke:#516083;fill:#516083}#chart-ca3d358f-9f37-44b2-aece-d561144de442 .color-9,#chart-ca3d358f-9f37-44b2-aece-d561144de442 .color-9 a:visited{stroke:#f92672;fill:#f92672}#chart-ca3d358f-9f37-44b2-aece-d561144de442 .color-10,#chart-ca3d358f-9f37-44b2-aece-d561144de442 .color-10 a:visited{stroke:#82b414;fill:#82b414}#chart-ca3d358f-9f37-44b2-aece-d561144de442 .color-11,#chart-ca3d358f-9f37-44b2-aece-d561144de442 .color-11 a:visited{stroke:#fd971f;fill:#fd971f}#chart-ca3d358f-9f37-44b2-aece-d561144de442 .color-12,#chart-ca3d358f-9f37-44b2-aece-d561144de442 .color-12 a:visited{stroke:#56c2d6;fill:#56c2d6}#chart-ca3d358f-9f37-44b2-aece-d561144de442 .color-13,#chart-ca3d358f-9f37-44b2-aece-d561144de442 .color-13 a:visited{stroke:#808384;fill:#808384}#chart-ca3d358f-9f37-44b2-aece-d561144de442 .color-14,#chart-ca3d358f-9f37-44b2-aece-d561144de442 .color-14 a:visited{stroke:#8c54fe;fill:#8c54fe}#chart-ca3d358f-9f37-44b2-aece-d561144de442 .color-15,#chart-ca3d358f-9f37-44b2-aece-d561144de442 .color-15 a:visited{stroke:#465457;fill:#465457}
#chart-ca3d358f-9f37-44b2-aece-d561144de442 text.no_data{text-anchor:middle}#chart-ca3d358f-9f37-44b2-aece-d561144de442 .guide.line{fill-opacity:0}#chart-ca3d358f-9f37-44b2-aece-d561144de442 .centered{text-anchor:middle}#chart-ca3d358f-9f37-44b2-aece-d561144de442 .title{text-anchor:middle}#chart-ca3d358f-9f37-44b2-aece-d561144de442 .legends .legend text{fill-opacity:1}#chart-ca3d358f-9f37-44b2-aece-d561144de442 .axis.x text{text-anchor:middle}#chart-ca3d358f-9f37-44b2-aece-d561144de442 .axis.x:not(.web) text[transform]{text-anchor:start}#chart-ca3d358f-9f37-44b2-aece-d561144de442 .axis.y text{text-anchor:end}#chart-ca3d358f-9f37-44b2-aece-d561144de442 .axis.y2 text{text-anchor:start}#chart-ca3d358f-9f37-44b2-aece-d561144de442 .axis.y .logarithmic text:not(.major),#chart-ca3d358f-9f37-44b2-aece-d561144de442 .axis.y2 .logarithmic text:not(.major){font-size:50%}#chart-ca3d358f-9f37-44b2-aece-d561144de442 .axis .guide.line{stroke-dasharray:4,4}#chart-ca3d358f-9f37-44b2-aece-d561144de442 .axis .major.guide.line{stroke-dasharray:6,6}#chart-ca3d358f-9f37-44b2-aece-d561144de442 .axis text.major{stroke-width:0.5px}#chart-ca3d358f-9f37-44b2-aece-d561144de442 .horizontal .axis.y .guide.line,#chart-ca3d358f-9f37-44b2-aece-d561144de442 .horizontal .axis.y2 .guide.line,#chart-ca3d358f-9f37-44b2-aece-d561144de442 .vertical .axis.x .guide.line{opacity:0}#chart-ca3d358f-9f37-44b2-aece-d561144de442 .horizontal .axis.always_show .guide.line,#chart-ca3d358f-9f37-44b2-aece-d561144de442 .vertical .axis.always_show .guide.line{opacity:1 !important}#chart-ca3d358f-9f37-44b2-aece-d561144de442 .axis.y .guides:hover .guide.line,#chart-ca3d358f-9f37-44b2-aece-d561144de442 .axis.y2 .guides:hover .guide.line,#chart-ca3d358f-9f37-44b2-aece-d561144de442 .axis.x .guides:hover .guide.line{opacity:1}#chart-ca3d358f-9f37-44b2-aece-d561144de442 .axis .guides:hover text{opacity:1}#chart-ca3d358f-9f37-44b2-aece-d561144de442 .nofill{fill:none}#chart-ca3d358f-9f37-44b2-aece-d561144de442 .subtle-fill{fill-opacity:.2}#chart-ca3d358f-9f37-44b2-aece-d561144de442 .dot{stroke-width:1px;fill-opacity:1}#chart-ca3d358f-9f37-44b2-aece-d561144de442 .dot.active{stroke-width:5px}#chart-ca3d358f-9f37-44b2-aece-d561144de442 .series text{stroke:none}#chart-ca3d358f-9f37-44b2-aece-d561144de442 .series text.active{opacity:1}#chart-ca3d358f-9f37-44b2-aece-d561144de442 .tooltip rect{fill-opacity:0.8}#chart-ca3d358f-9f37-44b2-aece-d561144de442 .tooltip text{fill-opacity:1}#chart-ca3d358f-9f37-44b2-aece-d561144de442 .tooltip text tspan.label{fill-opacity:.8}</style><script type="text/javascript">window.config = {"print_zeroes": false, "disable_xml_declaration": false, "title_font_size": 16, "logarithmic": false, "truncate_label": null, "human_readable": false, "pretty_print": false, "title": "Latest Election Participation Per Hour", "legend_font_size": 14, "major_label_font_size": 10, "show_minor_y_labels": true, "no_data_font_size": 64, "no_data_text": "No data", "x_label_rotation": 0, "tooltip_font_size": 16, "stack_from_top": false, "rounded_bars": null, "zero": 0, "mode": null, "show_minor_x_labels": true, "x_labels_major": null, "legend_at_bottom": true, "legend_at_bottom_columns": null, "show_dots": false, "y_title": "Users", "value_font_size": 8, "x_title": null, "margin_right": null, "legend_box_size": 12, "y_labels_major_count": null, "show_x_labels": true, "spacing": 10, "half_pie": false, "dots_size": 2.5, "include_x_axis": false, "height": 768, "interpolation_precision": 250, "js": ["http://kozea.github.io/pygal.js/javascripts/svg.jquery.js", "http://kozea.github.io/pygal.js/javascripts/pygal-tooltips.js"], "margin_bottom": null, "y_labels_major": null, "fill": false, "xrange": null, "x_value_formatter": null, "x_labels_major_every": null, "show_y_labels": true, "style": {"foreground_light": "#eee", "colors": ["#ff5995", "#b6e354", "#feed6c", "#8cedff", "#9e6ffe", "#899ca1", "#f8f8f2", "#bf4646", "#516083", "#f92672", "#82b414", "#fd971f", "#56c2d6", "#808384", "#8c54fe", "#465457"], "stroke_style": "round", "plot_background": "#111", "transition": "250ms", "stroke_width": 1.0, "font_family": "monospace", "background": "black", "opacity": ".8", "opacity_hover": ".4", "foreground_dark": "#555", "foreground": "#999", "stroke_dasharray": "0,0"}, "y_labels": null, "x_label_format": "%Y-%m-%d %H:%M:%S.%f", "strict": false, "x_labels_major_count": null, "stroke": true, "range": null, "show_y_guides": true, "missing_value_fill_truncation": "x", "y_label_rotation": 0, "interpolation_parameters": {}, "tooltip_border_radius": 0, "label_font_size": 10, "interpolate": null, "show_only_major_dots": false, "print_values": false, "explicit_size": false, "show_x_guides": false, "margin": 20, "css": ["style.css", "graph.css"], "x_labels": null, "show_legend": true, "no_prefix": false, "inner_radius": 0, "y_labels_major_every": null, "truncate_legend": null, "width": 1024, "margin_left": null, "order_min": null, "margin_top": null}</script><script type="text/javascript" xlink:href="http://kozea.github.io/pygal.js/javascripts/svg.jquery.js"/><script type="text/javascript" xlink:href="http://kozea.github.io/pygal.js/javascripts/pygal-tooltips.js"/></defs><title>Latest Election Participation Per Hour</title><g class="graph line-graph vertical"><rect class="background" height="768" width="1024" x="0" y="0"/><g class="plot" transform="translate(80, 46)"><rect class="background" height="657.0" width="924.0" x="0" y="0"/><g class="axis y"><g class="guides"><path class="axis major line" d="M0.000000 644.365385 h924.000000"/><text class="major" x="-5" y="647.8653846153846">0</text></g><g class="guides"><path class="guide line" d="M0.000000 517.511816 h924.000000"/><text class="" x="-5" y="521.0118164967563">1000</text></g><g class="guides"><path class="guide line" d="M0.000000 390.658248 h924.000000"/><text class="" x="-5" y="394.15824837812795">2000</text></g><g class="guides"><path class="guide line" d="M0.000000 263.804680 h924.000000"/><text class="" x="-5" y="267.3046802594996">3000</text></g><g class="guides"><path class="guide line" d="M0.000000 136.951112 h924.000000"/><text class="" x="-5" y="140.45111214087126">4000</text></g></g><g class="series serie-0 color-0"><path class="line reactive nofill" d="M17.769231 644.365385 L20.374690 644.365385 22.980149 644.365385 25.585608 644.365385 28.191067 644.365385 30.796526 644.365385 33.401985 644.365385 36.007444 644.365385 38.612903 644.365385 41.218362 644.365385 43.823821 644.365385 46.429280 644.365385 49.034739 644.365385 51.640199 644.365385 54.245658 644.365385 56.851117 644.365385 59.456576 644.365385 62.062035 644.365385 64.667494 644.365385 67.272953 644.365385 69.878412 644.365385 72.483871 644.365385 75.089330 644.365385 77.694789 644.365385 80.300248 644.365385 82.905707 644.365385 85.511166 644.365385 88.116625 644.365385 90.722084 644.365385 93.327543 644.365385 95.933002 644.365385 98.538462 644.365385 101.143921 644.365385 103.749380 644.365385 106.354839 644.365385 108.960298 644.365385 111.565757 644.365385 114.171216 644.365385 116.776675 644.365385 119.382134 644.365385 121.987593 644.365385 124.593052 644.365385 127.198511 644.365385 129.803970 644.365385 132.409429 644.365385 135.014888 644.365385 137.620347 644.365385 140.225806 644.365385 142.831266 644.365385 145.436725 644.365385 148.042184 644.365385 150.647643 644.365385 153.253102 644.365385 155.858561 644.365385 158.464020 644.365385 161.069479 644.365385 163.674938 644.365385 166.280397 644.365385 168.885856 644.365385 171.491315 644.365385 174.096774 644.365385 176.702233 644.365385 179.307692 644.365385 181.913151 644.365385 184.518610 644.365385 187.124069 644.365385 189.729529 644.365385 192.334988 644.365385 194.940447 644.365385 197.545906 644.365385 200.151365 644.365385 202.756824 644.365385 205.362283 644.365385 207.967742 644.365385 210.573201 644.365385 213.178660 644.365385 215.784119 644.365385 218.389578 644.365385 220.995037 644.365385 223.600496 644.365385 226.205955 644.365385 228.811414 644.365385 231.416873 644.365385 234.022333 644.365385 236.627792 644.365385 239.233251 644.365385 241.838710 644.365385 244.444169 644.365385 247.049628 644.365385 249.655087 644.365385 252.260546 644.365385 254.866005 644.365385 257.471464 644.365385 260.076923 644.365385 262.682382 644.365385 265.287841 644.365385 267.893300 644.365385 270.498759 644.365385 273.104218 644.365385 275.709677 644.365385 278.315136 644.365385 280.920596 644.365385 283.526055 644.365385 286.131514 644.365385 288.736973 644.365385 291.342432 644.365385 293.947891 644.365385 296.553350 644.365385 299.158809 644.365385 301.764268 644.365385 304.369727 644.365385 306.975186 644.365385 309.580645 644.365385 312.186104 644.365385 314.791563 644.365385 317.397022 644.365385 320.002481 644.365385 322.607940 644.365385 325.213400 644.365385 327.818859 644.365385 330.424318 644.365385 333.029777 644.365385 335.635236 644.365385 338.240695 644.365385 340.846154 644.365385 343.451613 644.365385 346.057072 644.365385 348.662531 644.365385 351.267990 644.365385 353.873449 644.365385 356.478908 644.365385 359.084367 644.365385 361.689826 644.365385 364.295285 644.365385 366.900744 644.365385 369.506203 644.365385 372.111663 644.365385 374.717122 644.365385 377.322581 644.365385 379.928040 644.365385 382.533499 644.365385 385.138958 644.365385 387.744417 644.365385 390.349876 644.365385 392.955335 644.365385 395.560794 644.365385 398.166253 644.365385 400.771712 644.365385 403.377171 644.365385 405.982630 644.365385 408.588089 644.365385 411.193548 644.365385 413.799007 644.365385 416.404467 644.365385 419.009926 644.365385 421.615385 644.365385 424.220844 644.365385 426.826303 644.365385 429.431762 644.365385 432.037221 644.365385 434.642680 644.365385 437.248139 644.365385 439.853598 644.365385 442.459057 644.365385 445.064516 644.365385 447.669975 644.365385 450.275434 644.365385 452.880893 644.365385 455.486352 644.365385 458.091811 644.365385 460.697270 644.365385 463.302730 644.365385 465.908189 644.365385 468.513648 644.365385 471.119107 644.365385 473.724566 644.365385 476.330025 644.365385 478.935484 644.365385 481.540943 644.365385 484.146402 644.365385 486.751861 644.365385 489.357320 644.365385 491.962779 644.365385 494.568238 644.365385 497.173697 644.365385 499.779156 644.365385 502.384615 644.365385 504.990074 644.365385 507.595533 644.365385 510.200993 644.365385 512.806452 644.365385 515.411911 644.365385 518.017370 644.365385 520.622829 644.365385 523.228288 644.365385 525.833747 644.365385 528.439206 644.365385 531.044665 644.365385 533.650124 644.365385 536.255583 644.365385 538.861042 644.365385 541.466501 644.365385 544.071960 644.365385 546.677419 644.365385 549.282878 644.365385 551.888337 644.365385 554.493797 644.365385 557.099256 644.365385 559.704715 644.365385 562.310174 644.365385 564.915633 644.365385 567.521092 644.365385 570.126551 644.365385 572.732010 644.365385 575.337469 644.365385 577.942928 644.365385 580.548387 644.365385 583.153846 644.365385 585.759305 644.365385 588.364764 644.365385 590.970223 644.365385 593.575682 644.365385 596.181141 644.365385 598.786600 644.365385 601.392060 644.365385 603.997519 644.365385 606.602978 644.365385 609.208437 644.365385 611.813896 644.365385 614.419355 644.365385 617.024814 644.365385 619.630273 644.365385 622.235732 644.365385 624.841191 644.365385 627.446650 644.365385 630.052109 644.365385 632.657568 644.365385 635.263027 644.365385 637.868486 644.365385 640.473945 644.365385 643.079404 644.365385 645.684864 644.365385 648.290323 644.365385 650.895782 644.365385 653.501241 644.365385 656.106700 644.365385 658.712159 644.365385 661.317618 644.365385 663.923077 644.365385 666.528536 644.365385 669.133995 644.365385 671.739454 644.365385 674.344913 644.365385 676.950372 644.365385 679.555831 644.365385 682.161290 644.365385 684.766749 644.365385 687.372208 644.365385 689.977667 644.365385 692.583127 644.365385 695.188586 644.365385 697.794045 644.365385 700.399504 644.365385 703.004963 644.365385 705.610422 237.926552 708.215881 457.256372 710.821340 540.599166 713.426799 582.968258 716.032258 596.541589 718.637717 602.123146 721.243176 606.309314 723.848635 600.347196 726.454094 585.885890 729.059553 587.027572 731.665012 587.661840 734.270471 579.289504 736.875931 587.154425 739.481390 579.543211 742.086849 585.632183 744.692308 596.922150 747.297767 598.951807 749.903226 599.839782 752.508685 601.996293 755.114144 605.421339 757.719603 611.002896 760.325062 606.309314 762.930521 615.062210 765.535980 609.861214 768.141439 620.770621 770.746898 624.956789 773.352357 629.269810 775.957816 631.553174 778.563275 635.105074 781.168734 634.217099 783.774194 634.978221 786.379653 635.866196 788.985112 635.231928 791.590571 631.045760 794.196030 625.844764 796.801489 627.367006 799.406948 622.039157 802.012407 626.352178 804.617866 622.927132 807.223325 623.053985 809.828784 625.591057 812.434243 625.083642 815.039702 628.635542 817.645161 624.449374 820.250620 624.956789 822.856079 625.591057 825.461538 625.971617 828.066998 627.113299 830.672457 629.396664 833.277916 628.635542 835.883375 632.821710 838.488834 630.030931 841.094293 630.538346 843.699752 628.635542 846.305211 627.367006 848.910670 625.844764 851.516129 607.831557 854.121588 592.862836 856.727047 572.185704 859.332506 550.366891 861.937965 558.358665 864.543424 563.559662 867.148883 591.848007 869.754342 598.063832 872.359801 588.169254 874.965261 586.393304 877.570720 589.818350 880.176179 602.503707 882.781638 615.062210 885.387097 623.434546 887.992556 621.278035 890.598015 622.546571 893.203474 627.747567 895.808933 627.113299 898.414392 635.485635 901.019851 637.895853 903.625310 635.612488 906.230769 641.194045"/></g><g class="series serie-1 color-1"><path class="line reactive nofill" d="M17.769231 389.770273 L20.374690 549.098355 22.980149 591.213740 25.585608 608.973239 28.191067 611.002896 30.796526 622.166010 33.401985 622.039157 36.007444 618.360403 38.612903 605.548193 41.218362 594.385079 43.823821 592.101715 46.429280 572.819972 49.034739 578.908943 51.640199 599.839782 54.245658 603.391682 56.851117 610.368628 59.456576 609.100093 62.062035 609.861214 64.667494 609.607507 67.272953 614.047382 69.878412 620.516914 72.483871 623.180839 75.089330 625.591057 77.694789 626.605885 80.300248 630.411492 82.905707 627.240153 85.511166 636.246756 88.116625 638.530120 90.722084 637.261585 93.327543 637.642146 95.933002 639.925510 98.538462 640.179217 101.143921 635.866196 103.749380 634.470806 106.354839 633.582831 108.960298 629.777224 111.565757 629.777224 114.171216 630.030931 116.776675 630.792053 119.382134 633.075417 121.987593 631.426321 124.593052 631.045760 127.198511 632.821710 129.803970 634.343953 132.409429 635.993049 135.014888 634.343953 137.620347 635.358781 140.225806 636.881024 142.831266 636.754171 145.436725 638.276413 148.042184 638.403267 150.647643 642.082020 153.253102 641.701460 155.858561 641.574606 158.464020 640.813485 161.069479 641.574606 163.674938 639.037535 166.280397 637.642146 168.885856 638.656974 171.491315 635.485635 174.096774 635.358781 176.702233 636.754171 179.307692 636.627317 181.913151 635.485635 184.518610 636.881024 187.124069 635.105074 189.729529 634.851367 192.334988 635.358781 194.940447 637.388438 197.545906 639.544949 200.151365 638.783828 202.756824 638.530120 205.362283 637.134731 207.967742 639.798656 210.573201 641.447753 213.178660 641.574606 215.784119 642.462581 218.389578 642.208874 220.995037 641.955167 223.600496 642.589435 226.205955 640.559778 228.811414 639.925510 231.416873 638.656974 234.022333 639.291242 236.627792 639.037535 239.233251 637.515292 241.838710 637.642146 244.444169 639.037535 247.049628 637.895853 249.655087 638.403267 252.260546 638.022706 254.866005 639.418095 257.471464 641.067192 260.076923 640.432924 262.682382 640.813485 265.287841 641.067192 267.893300 639.925510 270.498759 641.701460 273.104218 642.082020 275.709677 642.589435 278.315136 642.208874 280.920596 642.716288 283.526055 643.350556 286.131514 643.350556 288.736973 642.335728 291.342432 643.223703 293.947891 642.208874 296.553350 642.208874 299.158809 643.096849 301.764268 642.843142 304.369727 643.223703 306.975186 641.701460 309.580645 641.955167 312.186104 642.843142 314.791563 641.320899 317.397022 641.828313 320.002481 642.082020 322.607940 641.701460 325.213400 641.067192 327.818859 642.335728 330.424318 642.843142 333.029777 643.223703 335.635236 641.955167 338.240695 642.589435 340.846154 642.969995 343.451613 642.716288 346.057072 642.969995 348.662531 643.350556 351.267990 642.589435 353.873449 642.716288 356.478908 642.716288 359.084367 642.969995 361.689826 643.096849 364.295285 641.447753 366.900744 642.208874 369.506203 641.828313 372.111663 642.208874 374.717122 642.335728 377.322581 642.335728 379.928040 642.208874 382.533499 642.843142 385.138958 642.462581 387.744417 642.208874 390.349876 641.320899 392.955335 642.208874 395.560794 641.955167 398.166253 642.969995 400.771712 642.969995 403.377171 642.969995 405.982630 642.716288 408.588089 642.082020 411.193548 643.223703 413.799007 642.716288 416.404467 641.194045 419.009926 641.194045 421.615385 638.403267 424.220844 637.768999 426.826303 636.754171 429.431762 638.276413 432.037221 637.388438 434.642680 638.149560 437.248139 635.105074 439.853598 636.881024 442.459057 640.306070 445.064516 639.798656 447.669975 639.418095 450.275434 639.037535 452.880893 638.656974 455.486352 12.634615 458.091811 344.229842 460.697270 482.119671 463.302730 524.615616 465.908189 541.613994 468.513648 558.231812 471.119107 547.195551 473.724566 549.352062 476.330025 506.729263 478.935484 443.809893 481.540943 380.383109 484.146402 308.330283 486.751861 355.646664 489.357320 390.023981 491.962779 447.996061 494.568238 471.590825 497.173697 467.658364 499.779156 477.679796 502.384615 485.291010 504.990074 516.243281 507.595533 546.814991 510.200993 559.627201 512.806452 565.969880 515.411911 573.200533 518.017370 584.109940 520.622829 591.340593 523.228288 609.100093 525.833747 621.785449 528.439206 625.717910 531.044665 623.815107 533.650124 624.829935 536.255583 619.882646 538.861042 611.510310 541.466501 601.488879 544.071960 586.900718 546.677419 579.289504 549.282878 579.162651 551.888337 575.864458 554.493797 583.602525 557.099256 585.632183 559.704715 585.759036 562.310174 584.363647 564.915633 582.714551 567.521092 595.526761 570.126551 598.190686 572.732010 608.592678 575.337469 607.450996 577.942928 612.017725 580.548387 612.525139 583.153846 622.673424 585.759305 625.464203 588.364764 629.142956 590.970223 633.329124 593.575682 629.904078 596.181141 633.329124 598.786600 630.284639 601.392060 627.620714 603.997519 626.986446 606.602978 612.905700 609.208437 612.271432 611.813896 611.637164 614.419355 607.704703 617.024814 611.256603 619.630273 613.032553 622.235732 607.197289 624.841191 610.622335 627.446650 612.398285 630.052109 620.770621 632.657568 616.838160 635.263027 620.136353 637.868486 626.352178 640.473945 626.479032 643.079404 625.464203 645.684864 628.889249 648.290323 633.582831 650.895782 636.119903 653.501241 636.881024 656.106700 638.403267 658.712159 636.500463 661.317618 636.246756 663.923077 635.358781 666.528536 632.948563 669.133995 631.299467 671.739454 628.762396 674.344913 623.941960 676.950372 623.561399 679.555831 628.128128 682.161290 628.889249 684.766749 622.166010 687.372208 622.673424 689.977667 621.278035 692.583127 627.493860 695.188586 632.187442 697.794045 629.396664 700.399504 629.904078 703.004963 632.694856 705.610422 512.691381 708.215881 573.834801 710.821340 599.586075 713.426799 615.823332 716.032258 626.225324 718.637717 628.254981 721.243176 631.933735 723.848635 629.650371 726.454094 626.098471 729.059553 623.434546 731.665012 623.307692 734.270471 620.770621 736.875931 624.068814 739.481390 617.979842 742.086849 622.800278 744.692308 626.098471 747.297767 620.770621 749.903226 625.083642 752.508685 624.576228 755.114144 624.829935 757.719603 628.889249 760.325062 626.859592 762.930521 629.650371 765.535980 625.591057 768.141439 630.665199 770.746898 631.806881 773.352357 636.500463 775.957816 634.978221 778.563275 638.656974 781.168734 638.530120 783.774194 639.798656 786.379653 639.291242 788.985112 639.164388 791.590571 638.276413 794.196030 635.739342 796.801489 635.231928 799.406948 630.538346 802.012407 631.299467 804.617866 631.172614 807.223325 635.105074 809.828784 631.680028 812.434243 633.836538 815.039702 634.470806 817.645161 631.553174 820.250620 632.948563 822.856079 632.060589 825.461538 635.866196 828.066998 634.851367 830.672457 633.455978 833.277916 635.105074 835.883375 637.895853 838.488834 637.261585 841.094293 637.388438 843.699752 634.724513 846.305211 635.612488 848.910670 633.836538 851.516129 629.523517 854.121588 622.292864 856.727047 612.778846 859.332506 605.928753 861.937965 599.966636 864.543424 596.922150 867.148883 613.032553 869.754342 613.793675 872.359801 608.719532 874.965261 608.465825 877.570720 610.114921 880.176179 614.427943 882.781638 624.068814 885.387097 625.337349 887.992556 625.591057 890.598015 624.576228 893.203474 629.016103 895.808933 631.806881 898.414392 633.709685 901.019851 637.768999 903.625310 639.291242 906.230769 641.574606"/></g></g><g class="titles"><text class="title plot_title" x="512.0" y="26">Latest Election Participation Per Hour</text><text class="title" x="0" y="400.5" transform="rotate(-90 0.000000 374.500000)">Users</text></g><g class="plot overlay" transform="translate(80, 46)"><g class="series serie-0 color-0"/><g class="series serie-1 color-1"/></g><g class="plot text-overlay" transform="translate(80, 46)"><g class="series serie-0 color-0"/><g class="series serie-1 color-1"/></g><g class="plot tooltip-overlay" transform="translate(80, 46)"><g class="tooltip" style="opacity: 0" transform="translate(0 0)"><a><rect class="tooltip-box" height="0" rx="0" ry="0" width="0"/><text class="text"><tspan class="label"/><tspan class="value"/></text></a></g></g><g class="legends" transform="translate(90, 713)"><g class="legend reactive activate-serie" id="activate-serie-0"><rect class="color-0 reactive" height="12" width="12" x="0.0" y="1.0"/><text x="17.0" y="11.2">constituents</text></g><g class="legend reactive activate-serie" id="activate-serie-1"><rect class="color-1 reactive" height="12" width="12" x="462.0" y="1.0"/><text x="479.0" y="11.2">caucus</text></g></g></g></svg>