<?xml version='1.0' encoding='utf-8'?>
<svg xmlns:xlink="http://www.w3.org/1999/xlink" class="pygal-chart" id="chart-aa2b90a5-89b4-44bd-8fd3-8b78deb48d75" viewBox="0 0 1024 768" xmlns="http://www.w3.org/2000/svg"><!--Generated with pygal 1.7.0 (etree) ©Kozea 2011-2014 on 2015-04-20--><!--http://pygal.org--><!--http://github.com/Kozea/pygal--><defs><style type="text/css">#chart-aa2b90a5-89b4-44bd-8fd3-8b78deb48d75 .title{font-family:"monospace";font-size:16px}#chart-aa2b90a5-89b4-44bd-8fd3-8b78deb48d75 .legends .legend text{font-family:"monospace";font-size:14px}#chart-aa2b90a5-89b4-44bd-8fd3-8b78deb48d75 .axis text{font-family:"monospace";font-size:10px}#chart-aa2b90a5-89b4-44bd-8fd3-8b78deb48d75 .axis text.major{font-family:"monospace";font-size:10px}#chart-aa2b90a5-89b4-44bd-8fd3-8b78deb48d75 .series text{font-family:"monospace";font-size:8px}#chart-aa2b90a5-89b4-44bd-8fd3-8b78deb48d75 .tooltip text{font-family:"monospace";font-size:16px}#chart-aa2b90a5-89b4-44bd-8fd3-8b78deb48d75 text.no_data{font-size:64px}
#chart-aa2b90a5-89b4-44bd-8fd3-8b78deb48d75{background-color:black}#chart-aa2b90a5-89b4-44bd-8fd3-8b78deb48d75 path,#chart-aa2b90a5-89b4-44bd-8fd3-8b78deb48d75 line,#chart-aa2b90a5-89b4-44bd-8fd3-8b78deb48d75 rect,#chart-aa2b90a5-89b4-44bd-8fd3-8b78deb48d75 circle{-webkit-transition:250ms;-moz-transition:250ms;transition:250ms}#chart-aa2b90a5-89b4-44bd-8fd3-8b78deb48d75 .graph &gt; .background{fill:black}#chart-aa2b90a5-89b4-44bd-8fd3-8b78deb48d75 .plot &gt; .background{fill:#111}#chart-aa2b90a5-89b4-44bd-8fd3-8b78deb48d75 .graph{fill:#999}#chart-aa2b90a5-89b4-44bd-8fd3-8b78deb48d75 text.no_data{fill:#eee}#chart-aa2b90a5-89b4-44bd-8fd3-8b78deb48d75 .title{fill:#eee}#chart-aa2b90a5-89b4-44bd-8fd3-8b78deb48d75 .legends .legend text{fill:#999}#chart-aa2b90a5-89b4-44bd-8fd3-8b78deb48d75 .legends .legend:hover text{fill:#eee}#chart-aa2b90a5-89b4-44bd-8fd3-8b78deb48d75 .axis .line{stroke:#eee}#chart-aa2b90a5-89b4-44bd-8fd3-8b78deb48d75 .axis .guide.line{stroke:#555}#chart-aa2b90a5-89b4-44bd-8fd3-8b78deb48d75 .axis .major.line{stroke:#999}#chart-aa2b90a5-89b4-44bd-8fd3-8b78deb48d75 .axis text.major{stroke:#eee;fill:#eee}#chart-aa2b90a5-89b4-44bd-8fd3-8b78deb48d75 .axis.y .guides:hover .guide.line,#chart-aa2b90a5-89b4-44bd-8fd3-8b78deb48d75 .line-graph .axis.x .guides:hover .guide.line,#chart-aa2b90a5-89b4-44bd-8fd3-8b78deb48d75 .stackedline-graph .axis.x .guides:hover .guide.line,#chart-aa2b90a5-89b4-44bd-8fd3-8b78deb48d75 .xy-graph .axis.x .guides:hover .guide.line{stroke:#eee}#chart-aa2b90a5-89b4-44bd-8fd3-8b78deb48d75 .axis .guides:hover text{fill:#eee}#chart-aa2b90a5-89b4-44bd-8fd3-8b78deb48d75 .reactive{fill-opacity:.8}#chart-aa2b90a5-89b4-44bd-8fd3-8b78deb48d75 .reactive.active,#chart-aa2b90a5-89b4-44bd-8fd3-8b78deb48d75 .active .reactive{fill-opacity:.4}#chart-aa2b90a5-89b4-44bd-8fd3-8b78deb48d75 .series{stroke-width:1.0;stroke-linejoin:round;stroke-linecap:round;stroke-dasharray:0,0}#chart-aa2b90a5-89b4-44bd-8fd3-8b78deb48d75 .series text{fill:#eee}#chart-aa2b90a5-89b4-44bd-8fd3-8b78deb48d75 .tooltip rect{fill:#111;stroke:#eee}#chart-aa2b90a5-89b4-44bd-8fd3-8b78deb48d75 .tooltip text{fill:#eee}#chart-aa2b90a5-89b4-44bd-8fd3-8b78deb48d75 .map-element{fill:#999;stroke:#555 !important;opacity:.9;stroke-width:3;-webkit-transition:250ms;-moz-transition:250ms;-o-transition:250ms;transition:250ms}#chart-aa2b90a5-89b4-44bd-8fd3-8b78deb48d75 .map-element:hover{opacity:1;stroke-width:10}#chart-aa2b90a5-89b4-44bd-8fd3-8b78deb48d75 .color-0,#chart-aa2b90a5-89b4-44bd-8fd3-8b78deb48d75 .color-0 a:visited{stroke:#ff5995;fill:#ff5995}#chart-aa2b90a5-89b4-44bd-8fd3-8b78deb48d75 .color-1,#chart-aa2b90a5-89b4-44bd-8fd3-8b78deb48d75 .color-1 a:visited{stroke:#b6e354;fill:#b6e354}#chart-aa2b90a5-89b4-44bd-8fd3-8b78deb48d75 .color-2,#chart-aa2b90a5-89b4-44bd-8fd3-8b78deb48d75 .color-2 a:visited{stroke:#feed6c;fill:#feed6c}#chart-aa2b90a5-89b4-44bd-8fd3-8b78deb48d75 .color-3,#chart-aa2b90a5-89b4-44bd-8fd3-8b78deb48d75 .color-3 a:visited{stroke:#8cedff;fill:#8cedff}#chart-aa2b90a5-89b4-44bd-8fd3-8b78deb48d75 .color-4,#chart-aa2b90a5-89b4-44bd-8fd3-8b78deb48d75 .color-4 a:visited{stroke:#9e6ffe;fill:#9e6ffe}#chart-aa2b90a5-89b4-44bd-8fd3-8b78deb48d75 .color-5,#chart-aa2b90a5-89b4-44bd-8fd3-8b78deb48d75 .color-5 a:visited{stroke:#899ca1;fill:#899ca1}#chart-aa2b90a5-89b4-44bd-8fd3-8b78deb48d75 .color-6,#chart-aa2b90a5-89b4-44bd-8fd3-8b78deb48d75 .color-6 a:visited{stroke:#f8f8f2;fill:#f8f8f2}#chart-aa2b90a5-89b4-44bd-8fd3-8b78deb48d75 .color-7,#chart-aa2b90a5-89b4-44bd-8fd3-8b78deb48d75 .color-7 a:visited{stroke:#bf4646;fill:#bf4646}#chart-aa2b90a5-89b4-44bd-8fd3-8b78deb48d75 .color-8,#chart-aa2b90a5-89b4-44bd-8fd3-8b78deb48d75 .color-8 a:visited{stroke:#516083;fill:#516083}#chart-aa2b90a5-89b4-44bd-8fd3-8b78deb48d75 .color-9,#chart-aa2b90a5-89b4-44bd-8fd3-8b78deb48d75 .color-9 a:visited{stroke:#f92672;fill:#f92672}#chart-aa2b90a5-89b4-44bd-8fd3-8b78deb48d75 .color-10,#chart-aa2b90a5-89b4-44bd-8fd3-8b78deb48d75 .color-10 a:visited{stroke:#82b414;fill:#82b414}#chart-aa2b90a5-89b4-44bd-8fd3-8b78deb48d75 .color-11,#chart-aa2b90a5-89b4-44bd-8fd3-8b78deb48d75 .color-11 a:visited{stroke:#fd971f;fill:#fd971f}#chart-aa2b90a5-89b4-44bd-8fd3-8b78deb48d75 .color-12,#chart-aa2b90a5-89b4-44bd-8fd3-8b78deb48d75 .color-12 a:visited{stroke:#56c2d6;fill:#56c2d6}#chart-aa2b90a5-89b4-44bd-8fd3-8b78deb48d75 .color-13,#chart-aa2b90a5-89b4-44bd-8fd3-8b78deb48d75 .color-13 a:visited{stroke:#808384;fill:#808384}#chart-aa2b90a5-89b4-44bd-8fd3-8b78deb48d75 .color-14,#chart-aa2b90a5-89b4-44bd-8fd3-8b78deb48d75 .color-14 a:visited{stroke:#8c54fe;fill:#8c54fe}#chart-aa2b90a5-89b4-44bd-8fd3-8b78deb48d75 .color-15,#chart-aa2b90a5-89b4-44bd-8fd3-8b78deb48d75 .color-15 a:visited{stroke:#465457;fill:#465457}
#chart-aa2b90a5-89b4-44bd-8fd3-8b78deb48d75 text.no_data{text-anchor:middle}#chart-aa2b90a5-89b4-44bd-8fd3-8b78deb48d75 .guide.line{fill-opacity:0}#chart-aa2b90a5-89b4-44bd-8fd3-8b78deb48d75 .centered{text-anchor:middle}#chart-aa2b90a5-89b4-44bd-8fd3-8b78deb48d75 .title{text-anchor:middle}#chart-aa2b90a5-89b4-44bd-8fd3-8b78deb48d75 .legends .legend text{fill-opacity:1}#chart-aa2b90a5-89b4-44bd-8fd3-8b78deb48d75 .axis.x text{text-anchor:middle}#chart-aa2b90a5-89b4-44bd-8fd3-8b78deb48d75 .axis.x:not(.web) text[transform]{text-anchor:start}#chart-aa2b90a5-89b4-44bd-8fd3-8b78deb48d75 .axis.y text{text-anchor:end}#chart-aa2b90a5-89b4-44bd-8fd3-8b78deb48d75 .axis.y2 text{text-anchor:start}#chart-aa2b90a5-89b4-44bd-8fd3-8b78deb48d75 .axis.y .logarithmic text:not(.major),#chart-aa2b90a5-89b4-44bd-8fd3-8b78deb48d75 .axis.y2 .logarithmic text:not(.major){font-size:50%}#chart-aa2b90a5-89b4-44bd-8fd3-8b78deb48d75 .axis .guide.line{stroke-dasharray:4,4}#chart-aa2b90a5-89b4-44bd-8fd3-8b78deb48d75 .axis .major.guide.line{stroke-dasharray:6,6}#chart-aa2b90a5-89b4-44bd-8fd3-8b78deb48d75 .axis text.major{stroke-width:0.5px}#chart-aa2b90a5-89b4-44bd-8fd3-8b78deb48d75 .horizontal .axis.y .guide.line,#chart-aa2b90a5-89b4-44bd-8fd3-8b78deb48d75 .horizontal .axis.y2 .guide.line,#chart-aa2b90a5-89b4-44bd-8fd3-8b78deb48d75 .vertical .axis.x .guide.line{opacity:0}#chart-aa2b90a5-89b4-44bd-8fd3-8b78deb48d75 .horizontal .axis.always_show .guide.line,#chart-aa2b90a5-89b4-44bd-8fd3-8b78deb48d75 .vertical .axis.always_show .guide.line{opacity:1 !important}#chart-aa2b90a5-89b4-44bd-8fd3-8b78deb48d75 .axis.y .guides:hover .guide.line,#chart-aa2b90a5-89b4-44bd-8fd3-8b78deb48d75 .axis.y2 .guides:hover .guide.line,#chart-aa2b90a5-89b4-44bd-8fd3-8b78deb48d75 .axis.x .guides:hover .guide.line{opacity:1}#chart-aa2b90a5-89b4-44bd-8fd3-8b78deb48d75 .axis .guides:hover text{opacity:1}#chart-aa2b90a5-89b4-44bd-8fd3-8b78deb48d75 .nofill{fill:none}#chart-aa2b90a5-89b4-44bd-8fd3-8b78deb48d75 .subtle-fill{fill-opacity:.2}#chart-aa2b90a5-89b4-44bd-8fd3-8b78deb48d75 .dot{stroke-width:1px;fill-opacity:1}#chart-aa2b90a5-89b4-44bd-8fd3-8b78deb48d75 .dot.active{stroke-width:5px}#chart-aa2b90a5-89b4-44bd-8fd3-8b78deb48d75 .series text{stroke:none}#chart-aa2b90a5-89b4-44bd-8fd3-8b78deb48d75 .series text.active{opacity:1}#chart-aa2b90a5-89b4-44bd-8fd3-8b78deb48d75 .tooltip rect{fill-opacity:0.8}#chart-aa2b90a5-89b4-44bd-8fd3-8b78deb48d75 .tooltip text{fill-opacity:1}#chart-aa2b90a5-89b4-44bd-8fd3-8b78deb48d75 .tooltip text tspan.label{fill-opacity:.8}</style><script type="text/javascript">window.config = {"interpolation_parameters": {}, "title": "Latest Election Participation Per Hour", "legend_font_size": 14, "x_labels_major_count": null, "show_minor_y_labels": true, "rounded_bars": null, "margin_bottom": null, "tooltip_font_size": 16, "dots_size": 2.5, "margin_right": null, "show_y_labels": true, "interpolate": null, "range": [0, 512], "legend_at_bottom": true, "xrange": null, "css": ["style.css", "graph.css"], "truncate_label": null, "style": {"foreground": "#999", "background": "black", "plot_background": "#111", "font_family": "monospace", "opacity": ".8", "opacity_hover": ".4", "colors": ["#ff5995", "#b6e354", "#feed6c", "#8cedff", "#9e6ffe", "#899ca1", "#f8f8f2", "#bf4646", "#516083", "#f92672", "#82b414", "#fd971f", "#56c2d6", "#808384", "#8c54fe", "#465457"], "foreground_dark": "#555", "transition": "250ms", "stroke_style": "round", "foreground_light": "#eee", "stroke_dasharray": "0,0", "stroke_width": 1.0}, "half_pie": false, "strict": false, "truncate_legend": null, "print_values": false, "stack_from_top": false, "tooltip_border_radius": 0, "x_labels_major": null, "fill": false, "include_x_axis": false, "major_label_font_size": 10, "order_min": null, "show_y_guides": true, "margin_left": null, "x_title": null, "legend_box_size": 12, "y_labels_major_every": null, "show_legend": true, "show_only_major_dots": false, "height": 768, "disable_xml_declaration": false, "show_x_guides": false, "y_title": "Users", "margin_top": null, "missing_value_fill_truncation": "x", "human_readable": false, "value_font_size": 8, "x_label_rotation": 0, "spacing": 10, "y_labels_major": null, "title_font_size": 16, "print_zeroes": false, "x_labels": null, "x_label_format": "%Y-%m-%d %H:%M:%S.%f", "show_x_labels": true, "width": 1024, "inner_radius": 0, "mode": null, "legend_at_bottom_columns": null, "show_minor_x_labels": true, "label_font_size": 10, "explicit_size": false, "no_prefix": false, "pretty_print": false, "x_labels_major_every": null, "no_data_font_size": 64, "stroke": true, "y_label_rotation": 0, "x_value_formatter": null, "zero": 0, "interpolation_precision": 250, "show_dots": false, "margin": 20, "logarithmic": false, "no_data_text": "No data", "y_labels": null, "js": ["http://kozea.github.io/pygal.js/javascripts/svg.jquery.js", "http://kozea.github.io/pygal.js/javascripts/pygal-tooltips.js"], "y_labels_major_count": null}</script><script type="text/javascript" xlink:href="http://kozea.github.io/pygal.js/javascripts/svg.jquery.js" /><script type="text/javascript" xlink:href="http://kozea.github.io/pygal.js/javascripts/pygal-tooltips.js" /></defs><title>Latest Election Participation Per Hour</title><g class="graph line-graph vertical"><rect class="background" height="768" width="1024" x="0" y="0" /><g class="plot" transform="translate(74, 46)"><rect class="background" height="657.0" width="930.0" x="0" y="0" /><g class="axis y"><g class="guides"><path class="axis major line" d="M0.000000 644.365385 h930.000000" /><text class="major" x="-5" y="647.8653846153846">0</text></g><g class="guides"><path class="guide line" d="M0.000000 520.980469 h930.000000" /><text class="" x="-5" y="524.48046875">100</text></g><g class="guides"><path class="guide line" d="M0.000000 397.595553 h930.000000" /><text class="" x="-5" y="401.0955528846154">200</text></g><g class="guides"><path class="guide line" d="M0.000000 274.210637 h930.000000" /><text class="" x="-5" y="277.7106370192308">300</text></g><g class="guides"><path class="guide line" d="M0.000000 150.825721 h930.000000" /><text class="" x="-5" y="154.3257211538462">400</text></g><g class="guides"><path class="major guide line" d="M0.000000 27.440805 h930.000000" /><text class="major" x="-5" y="30.940805288461547">500</text></g></g><g class="series serie-0 color-0"><path class="line reactive nofill" d="M17.884615 644.365385 L20.578082 644.365385 23.271548 644.365385 25.965014 644.365385 28.658480 644.365385 31.351946 644.365385 34.045412 644.365385 36.738879 644.365385 39.432345 644.365385 42.125811 644.365385 44.819277 644.365385 47.512743 644.365385 50.206209 644.365385 52.899676 644.365385 55.593142 644.365385 58.286608 644.365385 60.980074 644.365385 63.673540 644.365385 66.367006 644.365385 69.060473 644.365385 71.753939 644.365385 74.447405 644.365385 77.140871 644.365385 79.834337 644.365385 82.527804 644.365385 85.221270 644.365385 87.914736 644.365385 90.608202 644.365385 93.301668 644.365385 95.995134 644.365385 98.688601 644.365385 101.382067 644.365385 104.075533 644.365385 106.768999 644.365385 109.462465 644.365385 112.155931 644.365385 114.849398 644.365385 117.542864 644.365385 120.236330 644.365385 122.929796 644.365385 125.623262 644.365385 128.316728 644.365385 131.010195 644.365385 133.703661 644.365385 136.397127 644.365385 139.090593 644.365385 141.784059 644.365385 144.477525 644.365385 147.170992 644.365385 149.864458 644.365385 152.557924 644.365385 155.251390 644.365385 157.944856 644.365385 160.638323 644.365385 163.331789 644.365385 166.025255 644.365385 168.718721 644.365385 171.412187 644.365385 174.105653 644.365385 176.799120 644.365385 179.492586 644.365385 182.186052 644.365385 184.879518 644.365385 187.572984 644.365385 190.266450 644.365385 192.959917 644.365385 195.653383 644.365385 198.346849 644.365385 201.040315 644.365385 203.733781 644.365385 206.427247 644.365385 209.120714 644.365385 211.814180 644.365385 214.507646 644.365385 217.201112 644.365385 219.894578 644.365385 222.588044 644.365385 225.281511 644.365385 227.974977 644.365385 230.668443 644.365385 233.361909 644.365385 236.055375 644.365385 238.748842 644.365385 241.442308 644.365385 244.135774 644.365385 246.829240 644.365385 249.522706 644.365385 252.216172 644.365385 254.909639 644.365385 257.603105 644.365385 260.296571 644.365385 262.990037 644.365385 265.683503 644.365385 268.376969 644.365385 271.070436 644.365385 273.763902 644.365385 276.457368 644.365385 279.150834 644.365385 281.844300 644.365385 284.537766 644.365385 287.231233 644.365385 289.924699 644.365385 292.618165 644.365385 295.311631 644.365385 298.005097 644.365385 300.698563 644.365385 303.392030 644.365385 306.085496 644.365385 308.778962 644.365385 311.472428 644.365385 314.165894 644.365385 316.859361 644.365385 319.552827 644.365385 322.246293 644.365385 324.939759 644.365385 327.633225 644.365385 330.326691 644.365385 333.020158 644.365385 335.713624 644.365385 338.407090 644.365385 341.100556 644.365385 343.794022 644.365385 346.487488 644.365385 349.180955 644.365385 351.874421 644.365385 354.567887 644.365385 357.261353 644.365385 359.954819 644.365385 362.648285 644.365385 365.341752 644.365385 368.035218 644.365385 370.728684 644.365385 373.422150 644.365385 376.115616 644.365385 378.809082 644.365385 381.502549 644.365385 384.196015 644.365385 386.889481 644.365385 389.582947 644.365385 392.276413 644.365385 394.969880 644.365385 397.663346 644.365385 400.356812 644.365385 403.050278 644.365385 405.743744 644.365385 408.437210 644.365385 411.130677 644.365385 413.824143 644.365385 416.517609 644.365385 419.211075 644.365385 421.904541 644.365385 424.598007 644.365385 427.291474 644.365385 429.984940 644.365385 432.678406 644.365385 435.371872 644.365385 438.065338 644.365385 440.758804 644.365385 443.452271 644.365385 446.145737 644.365385 448.839203 644.365385 451.532669 644.365385 454.226135 644.365385 456.919601 644.365385 459.613068 644.365385 462.306534 644.365385 465.000000 644.365385 467.693466 644.365385 470.386932 644.365385 473.080399 644.365385 475.773865 644.365385 478.467331 644.365385 481.160797 644.365385 483.854263 644.365385 486.547729 644.365385 489.241196 644.365385 491.934662 644.365385 494.628128 644.365385 497.321594 644.365385 500.015060 644.365385 502.708526 644.365385 505.401993 644.365385 508.095459 644.365385 510.788925 644.365385 513.482391 644.365385 516.175857 644.365385 518.869323 644.365385 521.562790 644.365385 524.256256 644.365385 526.949722 644.365385 529.643188 644.365385 532.336654 644.365385 535.030120 644.365385 537.723587 644.365385 540.417053 644.365385 543.110519 644.365385 545.803985 644.365385 548.497451 644.365385 551.190918 644.365385 553.884384 644.365385 556.577850 644.365385 559.271316 644.365385 561.964782 644.365385 564.658248 644.365385 567.351715 644.365385 570.045181 644.365385 572.738647 644.365385 575.432113 644.365385 578.125579 644.365385 580.819045 644.365385 583.512512 644.365385 586.205978 644.365385 588.899444 644.365385 591.592910 644.365385 594.286376 644.365385 596.979842 644.365385 599.673309 644.365385 602.366775 644.365385 605.060241 644.365385 607.753707 644.365385 610.447173 644.365385 613.140639 644.365385 615.834106 644.365385 618.527572 644.365385 621.221038 644.365385 623.914504 644.365385 626.607970 644.365385 629.301437 644.365385 631.994903 644.365385 634.688369 644.365385 637.381835 644.365385 640.075301 644.365385 642.768767 644.365385 645.462234 644.365385 648.155700 644.365385 650.849166 644.365385 653.542632 644.365385 656.236098 644.365385 658.929564 644.365385 661.623031 644.365385 664.316497 644.365385 667.009963 644.365385 669.703429 644.365385 672.396895 644.365385 675.090361 644.365385 677.783828 644.365385 680.477294 644.365385 683.170760 644.365385 685.864226 644.365385 688.557692 644.365385 691.251158 644.365385 693.944625 644.365385 696.638091 644.365385 699.331557 644.365385 702.025023 644.365385 704.718489 644.365385 707.411956 644.365385 710.105422 644.365385 712.798888 644.365385 715.492354 644.365385 718.185820 644.365385 720.879286 644.365385 723.572753 644.365385 726.266219 644.365385 728.959685 -3308.887320 731.653151 -1175.562124 734.346617 -364.923227 737.040083 47.182392 739.733550 179.204252 742.427016 233.493615 745.120482 274.210637 747.813948 216.219727 750.507414 75.560922 753.200880 86.665565 755.894347 92.834811 758.587813 11.400766 761.281279 87.899414 763.974745 13.868465 766.668211 73.093224 769.361677 182.905799 772.055144 202.647386 774.748610 211.284330 777.442076 232.259766 780.135542 265.573693 782.829008 319.863056 785.522475 274.210637 788.215941 359.346229 790.909407 308.758413 793.602873 414.869441 796.296339 455.586463 798.989805 497.537335 801.683272 519.746620 804.376738 554.294396 807.070204 545.657452 809.763670 553.060547 812.457136 561.697491 815.150602 555.528245 817.844069 514.811223 820.537535 464.223407 823.231001 479.029597 825.924467 427.207933 828.617933 469.158804 831.311399 435.844877 834.004866 437.078726 836.698332 461.755709 839.391798 456.820312 842.085264 491.368089 844.778730 450.651067 847.472196 455.586463 850.165663 461.755709 852.859129 465.457257 855.552595 476.561899 858.246061 498.771184 860.939527 491.368089 863.632994 532.085111 866.326460 504.940430 869.019926 509.875826 871.713392 491.368089 874.406858 479.029597 877.100324 464.223407 879.793791 289.016827 882.487257 143.422626 885.180723 -57.694787 887.874189 -269.916842 890.567655 -192.184345 893.261121 -141.596529 895.954588 133.551833 898.648054 194.010442 901.341520 97.770207 904.034986 80.496319 906.728452 113.810246 909.421918 237.195162 912.115385 603.648362" /></g><g class="series serie-1 color-1"><path class="line reactive nofill" d="M17.884615 -1831.969877 L20.578082 -282.255334 23.271548 127.382587 25.965014 300.121469 28.658480 319.863056 31.351946 428.441782 34.045412 427.207933 36.738879 391.426307 39.432345 266.807542 42.125811 158.228816 44.819277 136.019531 47.512743 -51.525541 50.206209 7.699219 52.899676 211.284330 55.593142 245.832106 58.286608 313.693810 60.980074 301.355319 63.673540 308.758413 66.367006 306.290715 69.060473 349.475436 71.753939 412.401743 74.447405 438.312575 77.140871 461.755709 79.834337 471.626502 82.527804 508.641977 85.221270 477.795748 87.914736 565.399038 90.608202 587.608323 93.301668 575.269832 95.995134 578.971379 98.688601 601.180664 101.382067 603.648362 104.075533 561.697491 106.768999 548.125150 109.462465 539.488206 112.155931 502.472731 114.849398 502.472731 117.542864 504.940430 120.236330 512.343525 122.929796 534.552809 125.623262 518.512770 128.316728 514.811223 131.010195 532.085111 133.703661 546.891301 136.397127 562.931340 139.090593 546.891301 141.784059 556.762094 144.477525 571.568284 147.170992 570.334435 149.864458 585.140625 152.557924 586.374474 155.251390 622.156100 157.944856 618.454552 160.638323 617.220703 163.331789 609.817608 166.025255 617.220703 168.718721 592.543720 171.412187 578.971379 174.105653 588.842172 176.799120 557.995944 179.492586 556.762094 182.186052 570.334435 184.879518 569.100586 187.572984 557.995944 190.266450 571.568284 192.959917 554.294396 195.653383 551.826698 198.346849 556.762094 201.040315 576.503681 203.733781 597.479117 206.427247 590.076022 209.120714 587.608323 211.814180 574.035983 214.507646 599.946815 217.201112 615.986854 219.894578 617.220703 222.588044 625.857647 225.281511 623.389949 227.974977 620.922251 230.668443 627.091496 233.361909 607.349910 236.055375 601.180664 238.748842 588.842172 241.442308 595.011418 244.135774 592.543720 246.829240 577.737530 249.522706 578.971379 252.216172 592.543720 254.909639 581.439078 257.603105 586.374474 260.296571 582.672927 262.990037 596.245267 265.683503 612.285306 268.376969 606.116061 271.070436 609.817608 273.763902 612.285306 276.457368 601.180664 279.150834 618.454552 281.844300 622.156100 284.537766 627.091496 287.231233 623.389949 289.924699 628.325346 292.618165 634.494591 295.311631 634.494591 298.005097 624.623798 300.698563 633.260742 303.392030 623.389949 306.085496 623.389949 308.778962 632.026893 311.472428 629.559195 314.165894 633.260742 316.859361 618.454552 319.552827 620.922251 322.246293 629.559195 324.939759 614.753005 327.633225 619.688401 330.326691 622.156100 333.020158 618.454552 335.713624 612.285306 338.407090 624.623798 341.100556 629.559195 343.794022 633.260742 346.487488 620.922251 349.180955 627.091496 351.874421 630.793044 354.567887 628.325346 357.261353 630.793044 359.954819 634.494591 362.648285 627.091496 365.341752 628.325346 368.035218 628.325346 370.728684 630.793044 373.422150 632.026893 376.115616 615.986854 378.809082 623.389949 381.502549 619.688401 384.196015 623.389949 386.889481 624.623798 389.582947 624.623798 392.276413 623.389949 394.969880 629.559195 397.663346 625.857647 400.356812 623.389949 403.050278 614.753005 405.743744 623.389949 408.437210 620.922251 411.130677 630.793044 413.824143 630.793044 416.517609 630.793044 419.211075 628.325346 421.904541 622.156100 424.598007 633.260742 427.291474 628.325346 429.984940 613.519156 432.678406 613.519156 435.371872 586.374474 438.065338 580.205228 440.758804 570.334435 443.452271 585.140625 446.145737 576.503681 448.839203 583.906776 451.532669 554.294396 454.226135 571.568284 456.919601 604.882212 459.613068 599.946815 462.306534 596.245267 465.000000 592.543720 467.693466 588.842172 470.386932 -5500.203425 473.080399 -2274.921725 475.773865 -933.727689 478.467331 -520.388221 481.160797 -355.052434 483.854263 -193.418194 486.547729 -300.763071 489.241196 -279.787635 491.934662 -694.360953 494.628128 -1306.350135 497.321594 -1923.274715 500.015060 -2624.101037 502.708526 -2163.875300 505.401993 -1829.502178 508.095459 -1265.633113 510.788925 -1036.137169 513.482391 -1074.386493 516.175857 -976.912410 518.869323 -902.881460 521.562790 -601.822266 524.256256 -304.464618 526.949722 -179.845853 529.643188 -118.153395 532.336654 -47.823993 535.030120 58.287034 537.723587 128.616436 540.417053 301.355319 543.110519 424.740234 545.803985 462.989558 548.497451 444.481821 551.190918 454.352614 553.884384 406.232497 556.577850 324.798453 559.271316 227.324369 561.964782 85.431716 564.658248 11.400766 567.351715 10.166917 570.045181 -21.913161 572.738647 53.351638 575.432113 73.093224 578.125579 74.327073 580.819045 60.754733 583.512512 44.714694 586.205978 169.333459 588.899444 195.244291 591.592910 296.419922 594.286376 285.315279 596.979842 329.733849 599.673309 334.669246 602.366775 433.377178 605.060241 460.521860 607.753707 496.303486 610.447173 537.020508 613.140639 503.706581 615.834106 537.020508 618.527572 507.408128 621.221038 481.497296 623.914504 475.328050 626.607970 338.370793 629.301437 332.201547 631.994903 326.032302 634.688369 287.782978 637.381835 322.330754 640.075301 339.604642 642.768767 282.847581 645.462234 316.161508 648.155700 333.435397 650.849166 414.869441 653.542632 376.620117 656.236098 408.700195 658.929564 469.158804 661.623031 470.392653 664.316497 460.521860 667.009963 493.835787 669.703429 539.488206 672.396895 564.165189 675.090361 571.568284 677.783828 586.374474 680.477294 567.866737 683.170760 565.399038 685.864226 556.762094 688.557692 533.318960 691.251158 517.278921 693.944625 492.601938 696.638091 445.715670 699.331557 442.014123 702.025023 486.432692 704.718489 493.835787 707.411956 428.441782 710.105422 433.377178 712.798888 419.804838 715.492354 480.263447 718.185820 525.915865 720.879286 498.771184 723.572753 503.706581 726.266219 530.851262 728.959685 -636.370042 731.653151 -41.654748 734.346617 208.816632 737.040083 366.749324 739.733550 467.924955 742.427016 487.666541 745.120482 523.448167 747.813948 501.238882 750.507414 466.691106 753.200880 440.780273 755.894347 439.546424 758.587813 414.869441 761.281279 446.949519 763.974745 387.724760 766.668211 434.611028 769.361677 466.691106 772.055144 414.869441 774.748610 456.820312 777.442076 451.884916 780.135542 454.352614 782.829008 493.835787 785.522475 474.094201 788.215941 501.238882 790.909407 461.755709 793.602873 511.109675 796.296339 522.214318 798.989805 567.866737 801.683272 553.060547 804.376738 588.842172 807.070204 587.608323 809.763670 599.946815 812.457136 595.011418 815.150602 593.777569 817.844069 585.140625 820.537535 560.463642 823.231001 555.528245 825.924467 509.875826 828.617933 517.278921 831.311399 516.045072 834.004866 554.294396 836.698332 520.980469 839.391798 541.955904 842.085264 548.125150 844.778730 519.746620 847.472196 533.318960 850.165663 524.682016 852.859129 561.697491 855.552595 551.826698 858.246061 538.254357 860.939527 554.294396 863.632994 581.439078 866.326460 575.269832 869.019926 576.503681 871.713392 550.592849 874.406858 559.229793 877.100324 541.955904 879.793791 500.005033 882.487257 429.675631 885.180723 337.136944 887.874189 270.509090 890.567655 212.518179 893.261121 182.905799 895.954588 339.604642 898.648054 347.007737 901.341520 297.653771 904.034986 295.186073 906.728452 311.226112 909.421918 353.176983 912.115385 611.051457" /></g></g><g class="titles"><text class="title plot_title" x="512.0" y="26">Latest Election Participation Per Hour</text><text class="title" transform="rotate(-90 0.000000 374.500000)" x="0" y="400.5">Users</text></g><g class="plot overlay" transform="translate(74, 46)"><g class="series serie-0 color-0" /><g class="series serie-1 color-1" /></g><g class="plot text-overlay" transform="translate(74, 46)"><g class="series serie-0 color-0" /><g class="series serie-1 color-1" /></g><g class="plot tooltip-overlay" transform="translate(74, 46)"><g class="tooltip" style="opacity: 0" transform="translate(0 0)"><a><rect class="tooltip-box" height="0" rx="0" ry="0" width="0" /><text class="text"><tspan class="label" /><tspan class="value" /></text></a></g></g><g class="legends" transform="translate(84, 713)"><g class="legend reactive activate-serie" id="activate-serie-0"><rect class="color-0 reactive" height="12" width="12" x="0.0" y="1.0" /><text x="17.0" y="11.2">constituents</text></g><g class="legend reactive activate-serie" id="activate-serie-1"><rect class="color-1 reactive" height="12" width="12" x="465.0" y="1.0" /><text x="482.0" y="11.2">caucus</text></g></g></g></svg>