<?xml version='1.0' encoding='utf-8'?>
<svg xmlns:xlink="http://www.w3.org/1999/xlink" class="pygal-chart" id="chart-b4789794-4377-4c99-ba8b-fc2ff6558b4b" viewBox="0 0 1024 768" xmlns="http://www.w3.org/2000/svg"><!--Generated with pygal 1.7.0 (etree) ©Kozea 2011-2014 on 2015-04-20--><!--http://pygal.org--><!--http://github.com/Kozea/pygal--><defs><style type="text/css">#chart-b4789794-4377-4c99-ba8b-fc2ff6558b4b .title{font-family:"monospace";font-size:16px}#chart-b4789794-4377-4c99-ba8b-fc2ff6558b4b .legends .legend text{font-family:"monospace";font-size:14px}#chart-b4789794-4377-4c99-ba8b-fc2ff6558b4b .axis text{font-family:"monospace";font-size:10px}#chart-b4789794-4377-4c99-ba8b-fc2ff6558b4b .axis text.major{font-family:"monospace";font-size:10px}#chart-b4789794-4377-4c99-ba8b-fc2ff6558b4b .series text{font-family:"monospace";font-size:8px}#chart-b4789794-4377-4c99-ba8b-fc2ff6558b4b .tooltip text{font-family:"monospace";font-size:16px}#chart-b4789794-4377-4c99-ba8b-fc2ff6558b4b text.no_data{font-size:64px}
#chart-b4789794-4377-4c99-ba8b-fc2ff6558b4b{background-color:black}#chart-b4789794-4377-4c99-ba8b-fc2ff6558b4b path,#chart-b4789794-4377-4c99-ba8b-fc2ff6558b4b line,#chart-b4789794-4377-4c99-ba8b-fc2ff6558b4b rect,#chart-b4789794-4377-4c99-ba8b-fc2ff6558b4b circle{-webkit-transition:250ms;-moz-transition:250ms;transition:250ms}#chart-b4789794-4377-4c99-ba8b-fc2ff6558b4b .graph &gt; .background{fill:black}#chart-b4789794-4377-4c99-ba8b-fc2ff6558b4b .plot &gt; .background{fill:#111}#chart-b4789794-4377-4c99-ba8b-fc2ff6558b4b .graph{fill:#999}#chart-b4789794-4377-4c99-ba8b-fc2ff6558b4b text.no_data{fill:#eee}#chart-b4789794-4377-4c99-ba8b-fc2ff6558b4b .title{fill:#eee}#chart-b4789794-4377-4c99-ba8b-fc2ff6558b4b .legends .legend text{fill:#999}#chart-b4789794-4377-4c99-ba8b-fc2ff6558b4b .legends .legend:hover text{fill:#eee}#chart-b4789794-4377-4c99-ba8b-fc2ff6558b4b .axis .line{stroke:#eee}#chart-b4789794-4377-4c99-ba8b-fc2ff6558b4b .axis .guide.line{stroke:#555}#chart-b4789794-4377-4c99-ba8b-fc2ff6558b4b .axis .major.line{stroke:#999}#chart-b4789794-4377-4c99-ba8b-fc2ff6558b4b .axis text.major{stroke:#eee;fill:#eee}#chart-b4789794-4377-4c99-ba8b-fc2ff6558b4b .axis.y .guides:hover .guide.line,#chart-b4789794-4377-4c99-ba8b-fc2ff6558b4b .line-graph .axis.x .guides:hover .guide.line,#chart-b4789794-4377-4c99-ba8b-fc2ff6558b4b .stackedline-graph .axis.x .guides:hover .guide.line,#chart-b4789794-4377-4c99-ba8b-fc2ff6558b4b .xy-graph .axis.x .guides:hover .guide.line{stroke:#eee}#chart-b4789794-4377-4c99-ba8b-fc2ff6558b4b .axis .guides:hover text{fill:#eee}#chart-b4789794-4377-4c99-ba8b-fc2ff6558b4b .reactive{fill-opacity:.8}#chart-b4789794-4377-4c99-ba8b-fc2ff6558b4b .reactive.active,#chart-b4789794-4377-4c99-ba8b-fc2ff6558b4b .active .reactive{fill-opacity:.4}#chart-b4789794-4377-4c99-ba8b-fc2ff6558b4b .series{stroke-width:1.0;stroke-linejoin:round;stroke-linecap:round;stroke-dasharray:0,0}#chart-b4789794-4377-4c99-ba8b-fc2ff6558b4b .series text{fill:#eee}#chart-b4789794-4377-4c99-ba8b-fc2ff6558b4b .tooltip rect{fill:#111;stroke:#eee}#chart-b4789794-4377-4c99-ba8b-fc2ff6558b4b .tooltip text{fill:#eee}#chart-b4789794-4377-4c99-ba8b-fc2ff6558b4b .map-element{fill:#999;stroke:#555 !important;opacity:.9;stroke-width:3;-webkit-transition:250ms;-moz-transition:250ms;-o-transition:250ms;transition:250ms}#chart-b4789794-4377-4c99-ba8b-fc2ff6558b4b .map-element:hover{opacity:1;stroke-width:10}#chart-b4789794-4377-4c99-ba8b-fc2ff6558b4b .color-0,#chart-b4789794-4377-4c99-ba8b-fc2ff6558b4b .color-0 a:visited{stroke:#ff5995;fill:#ff5995}#chart-b4789794-4377-4c99-ba8b-fc2ff6558b4b .color-1,#chart-b4789794-4377-4c99-ba8b-fc2ff6558b4b .color-1 a:visited{stroke:#b6e354;fill:#b6e354}#chart-b4789794-4377-4c99-ba8b-fc2ff6558b4b .color-2,#chart-b4789794-4377-4c99-ba8b-fc2ff6558b4b .color-2 a:visited{stroke:#feed6c;fill:#feed6c}#chart-b4789794-4377-4c99-ba8b-fc2ff6558b4b .color-3,#chart-b4789794-4377-4c99-ba8b-fc2ff6558b4b .color-3 a:visited{stroke:#8cedff;fill:#8cedff}#chart-b4789794-4377-4c99-ba8b-fc2ff6558b4b .color-4,#chart-b4789794-4377-4c99-ba8b-fc2ff6558b4b .color-4 a:visited{stroke:#9e6ffe;fill:#9e6ffe}#chart-b4789794-4377-4c99-ba8b-fc2ff6558b4b .color-5,#chart-b4789794-4377-4c99-ba8b-fc2ff6558b4b .color-5 a:visited{stroke:#899ca1;fill:#899ca1}#chart-b4789794-4377-4c99-ba8b-fc2ff6558b4b .color-6,#chart-b4789794-4377-4c99-ba8b-fc2ff6558b4b .color-6 a:visited{stroke:#f8f8f2;fill:#f8f8f2}#chart-b4789794-4377-4c99-ba8b-fc2ff6558b4b .color-7,#chart-b4789794-4377-4c99-ba8b-fc2ff6558b4b .color-7 a:visited{stroke:#bf4646;fill:#bf4646}#chart-b4789794-4377-4c99-ba8b-fc2ff6558b4b .color-8,#chart-b4789794-4377-4c99-ba8b-fc2ff6558b4b .color-8 a:visited{stroke:#516083;fill:#516083}#chart-b4789794-4377-4c99-ba8b-fc2ff6558b4b .color-9,#chart-b4789794-4377-4c99-ba8b-fc2ff6558b4b .color-9 a:visited{stroke:#f92672;fill:#f92672}#chart-b4789794-4377-4c99-ba8b-fc2ff6558b4b .color-10,#chart-b4789794-4377-4c99-ba8b-fc2ff6558b4b .color-10 a:visited{stroke:#82b414;fill:#82b414}#chart-b4789794-4377-4c99-ba8b-fc2ff6558b4b .color-11,#chart-b4789794-4377-4c99-ba8b-fc2ff6558b4b .color-11 a:visited{stroke:#fd971f;fill:#fd971f}#chart-b4789794-4377-4c99-ba8b-fc2ff6558b4b .color-12,#chart-b4789794-4377-4c99-ba8b-fc2ff6558b4b .color-12 a:visited{stroke:#56c2d6;fill:#56c2d6}#chart-b4789794-4377-4c99-ba8b-fc2ff6558b4b .color-13,#chart-b4789794-4377-4c99-ba8b-fc2ff6558b4b .color-13 a:visited{stroke:#808384;fill:#808384}#chart-b4789794-4377-4c99-ba8b-fc2ff6558b4b .color-14,#chart-b4789794-4377-4c99-ba8b-fc2ff6558b4b .color-14 a:visited{stroke:#8c54fe;fill:#8c54fe}#chart-b4789794-4377-4c99-ba8b-fc2ff6558b4b .color-15,#chart-b4789794-4377-4c99-ba8b-fc2ff6558b4b .color-15 a:visited{stroke:#465457;fill:#465457}
#chart-b4789794-4377-4c99-ba8b-fc2ff6558b4b text.no_data{text-anchor:middle}#chart-b4789794-4377-4c99-ba8b-fc2ff6558b4b .guide.line{fill-opacity:0}#chart-b4789794-4377-4c99-ba8b-fc2ff6558b4b .centered{text-anchor:middle}#chart-b4789794-4377-4c99-ba8b-fc2ff6558b4b .title{text-anchor:middle}#chart-b4789794-4377-4c99-ba8b-fc2ff6558b4b .legends .legend text{fill-opacity:1}#chart-b4789794-4377-4c99-ba8b-fc2ff6558b4b .axis.x text{text-anchor:middle}#chart-b4789794-4377-4c99-ba8b-fc2ff6558b4b .axis.x:not(.web) text[transform]{text-anchor:start}#chart-b4789794-4377-4c99-ba8b-fc2ff6558b4b .axis.y text{text-anchor:end}#chart-b4789794-4377-4c99-ba8b-fc2ff6558b4b .axis.y2 text{text-anchor:start}#chart-b4789794-4377-4c99-ba8b-fc2ff6558b4b .axis.y .logarithmic text:not(.major),#chart-b4789794-4377-4c99-ba8b-fc2ff6558b4b .axis.y2 .logarithmic text:not(.major){font-size:50%}#chart-b4789794-4377-4c99-ba8b-fc2ff6558b4b .axis .guide.line{stroke-dasharray:4,4}#chart-b4789794-4377-4c99-ba8b-fc2ff6558b4b .axis .major.guide.line{stroke-dasharray:6,6}#chart-b4789794-4377-4c99-ba8b-fc2ff6558b4b .axis text.major{stroke-width:0.5px}#chart-b4789794-4377-4c99-ba8b-fc2ff6558b4b .horizontal .axis.y .guide.line,#chart-b4789794-4377-4c99-ba8b-fc2ff6558b4b .horizontal .axis.y2 .guide.line,#chart-b4789794-4377-4c99-ba8b-fc2ff6558b4b .vertical .axis.x .guide.line{opacity:0}#chart-b4789794-4377-4c99-ba8b-fc2ff6558b4b .horizontal .axis.always_show .guide.line,#chart-b4789794-4377-4c99-ba8b-fc2ff6558b4b .vertical .axis.always_show .guide.line{opacity:1 !important}#chart-b4789794-4377-4c99-ba8b-fc2ff6558b4b .axis.y .guides:hover .guide.line,#chart-b4789794-4377-4c99-ba8b-fc2ff6558b4b .axis.y2 .guides:hover .guide.line,#chart-b4789794-4377-4c99-ba8b-fc2ff6558b4b .axis.x .guides:hover .guide.line{opacity:1}#chart-b4789794-4377-4c99-ba8b-fc2ff6558b4b .axis .guides:hover text{opacity:1}#chart-b4789794-4377-4c99-ba8b-fc2ff6558b4b .nofill{fill:none}#chart-b4789794-4377-4c99-ba8b-fc2ff6558b4b .subtle-fill{fill-opacity:.2}#chart-b4789794-4377-4c99-ba8b-fc2ff6558b4b .dot{stroke-width:1px;fill-opacity:1}#chart-b4789794-4377-4c99-ba8b-fc2ff6558b4b .dot.active{stroke-width:5px}#chart-b4789794-4377-4c99-ba8b-fc2ff6558b4b .series text{stroke:none}#chart-b4789794-4377-4c99-ba8b-fc2ff6558b4b .series text.active{opacity:1}#chart-b4789794-4377-4c99-ba8b-fc2ff6558b4b .tooltip rect{fill-opacity:0.8}#chart-b4789794-4377-4c99-ba8b-fc2ff6558b4b .tooltip text{fill-opacity:1}#chart-b4789794-4377-4c99-ba8b-fc2ff6558b4b .tooltip text tspan.label{fill-opacity:.8}</style><script type="text/javascript">window.config = {"x_labels_major_every": null, "interpolate": null, "include_x_axis": false, "mode": null, "margin_bottom": null, "legend_at_bottom": true, "margin_left": null, "xrange": null, "y_label_rotation": 0, "margin": 20, "no_prefix": false, "show_x_labels": true, "missing_value_fill_truncation": "x", "js": ["http://kozea.github.io/pygal.js/javascripts/svg.jquery.js", "http://kozea.github.io/pygal.js/javascripts/pygal-tooltips.js"], "half_pie": false, "show_x_guides": false, "x_label_format": "%Y-%m-%d %H:%M:%S.%f", "order_min": null, "fill": false, "range": null, "legend_at_bottom_columns": null, "human_readable": false, "spacing": 10, "show_legend": true, "tooltip_font_size": 16, "x_labels": null, "print_values": false, "x_labels_major_count": null, "interpolation_precision": 250, "show_y_labels": true, "pretty_print": false, "show_dots": false, "x_title": null, "title_font_size": 16, "legend_box_size": 12, "dots_size": 2.5, "print_zeroes": false, "y_labels_major": null, "title": "Latest Election Participation", "style": {"opacity": ".8", "stroke_width": 1.0, "foreground_dark": "#555", "opacity_hover": ".4", "plot_background": "#111", "font_family": "monospace", "stroke_style": "round", "colors": ["#ff5995", "#b6e354", "#feed6c", "#8cedff", "#9e6ffe", "#899ca1", "#f8f8f2", "#bf4646", "#516083", "#f92672", "#82b414", "#fd971f", "#56c2d6", "#808384", "#8c54fe", "#465457"], "stroke_dasharray": "0,0", "foreground": "#999", "foreground_light": "#eee", "background": "black", "transition": "250ms"}, "stroke": true, "logarithmic": false, "major_label_font_size": 10, "explicit_size": false, "x_value_formatter": null, "disable_xml_declaration": false, "height": 768, "show_y_guides": true, "value_font_size": 8, "show_only_major_dots": false, "margin_top": null, "width": 1024, "y_title": "Users", "x_labels_major": null, "stack_from_top": false, "legend_font_size": 14, "rounded_bars": null, "strict": false, "margin_right": null, "inner_radius": 0, "label_font_size": 10, "interpolation_parameters": {}, "no_data_text": "No data", "truncate_legend": null, "css": ["style.css", "graph.css"], "show_minor_x_labels": true, "truncate_label": null, "y_labels": null, "y_labels_major_count": null, "no_data_font_size": 64, "zero": 0, "x_label_rotation": 0, "tooltip_border_radius": 0, "show_minor_y_labels": true, "y_labels_major_every": null}</script><script type="text/javascript" xlink:href="http://kozea.github.io/pygal.js/javascripts/svg.jquery.js" /><script type="text/javascript" xlink:href="http://kozea.github.io/pygal.js/javascripts/pygal-tooltips.js" /></defs><title>Latest Election Participation</title><g class="graph line-graph vertical"><rect class="background" height="768" width="1024" x="0" y="0" /><g class="plot" transform="translate(86, 46)"><rect class="background" height="657.0" width="918.0" x="0" y="0" /><g class="axis y"><g class="guides"><path class="axis major line" d="M0.000000 644.365385 h918.000000" /><text class="major" x="-5" y="647.8653846153846">0</text></g><g class="guides"><path class="guide line" d="M0.000000 559.115021 h918.000000" /><text class="" x="-5" y="562.6150210362084">10000</text></g><g class="guides"><path class="guide line" d="M0.000000 473.864657 h918.000000" /><text class="" x="-5" y="477.3646574570322">20000</text></g><g class="guides"><path class="guide line" d="M0.000000 388.614294 h918.000000" /><text class="" x="-5" y="392.114293877856">30000</text></g><g class="guides"><path class="guide line" d="M0.000000 303.363930 h918.000000" /><text class="" x="-5" y="306.8639302986799">40000</text></g><g class="guides"><path class="major guide line" d="M0.000000 218.113567 h918.000000" /><text class="major" x="-5" y="221.6135667195037">50000</text></g><g class="guides"><path class="guide line" d="M0.000000 132.863203 h918.000000" /><text class="" x="-5" y="136.36320314032753">60000</text></g><g class="guides"><path class="guide line" d="M0.000000 47.612840 h918.000000" /><text class="" x="-5" y="51.112839561151304">70000</text></g></g><g class="series serie-0 color-0"><path class="line reactive nofill" d="M17.653846 644.365385 L20.369822 644.365385 23.085799 644.365385 25.801775 644.365385 28.517751 644.365385 31.233728 644.365385 33.949704 644.365385 36.665680 644.365385 39.381657 644.365385 42.097633 644.365385 44.813609 644.365385 47.529586 644.365385 50.245562 644.365385 52.961538 644.365385 55.677515 644.365385 58.393491 644.365385 61.109467 644.365385 63.825444 644.365385 66.541420 644.365385 69.257396 644.365385 71.973373 644.365385 74.689349 644.365385 77.405325 644.365385 80.121302 644.365385 82.837278 644.365385 85.553254 644.365385 88.269231 644.365385 90.985207 644.365385 93.701183 644.365385 96.417160 644.365385 99.133136 644.365385 101.849112 644.365385 104.565089 644.365385 107.281065 644.365385 109.997041 644.365385 112.713018 644.365385 115.428994 644.365385 118.144970 644.365385 120.860947 644.365385 123.576923 644.365385 126.292899 644.365385 129.008876 644.365385 131.724852 644.365385 134.440828 644.365385 137.156805 644.365385 139.872781 644.365385 142.588757 644.365385 145.304734 644.365385 148.020710 644.365385 150.736686 644.365385 153.452663 644.365385 156.168639 644.365385 158.884615 644.365385 161.600592 644.365385 164.316568 644.365385 167.032544 644.365385 169.748521 644.365385 172.464497 644.365385 175.180473 644.365385 177.896450 644.365385 180.612426 644.365385 183.328402 644.365385 186.044379 644.365385 188.760355 644.365385 191.476331 644.365385 194.192308 644.365385 196.908284 644.365385 199.624260 644.365385 202.340237 644.365385 205.056213 644.365385 207.772189 644.365385 210.488166 644.365385 213.204142 644.365385 215.920118 644.365385 218.636095 644.365385 221.352071 644.365385 224.068047 644.365385 226.784024 644.365385 229.500000 644.365385 232.215976 644.365385 234.931953 644.365385 237.647929 644.365385 240.363905 644.365385 243.079882 644.365385 245.795858 644.365385 248.511834 644.365385 251.227811 644.365385 253.943787 644.365385 256.659763 644.365385 259.375740 644.365385 262.091716 644.365385 264.807692 644.365385 267.523669 644.365385 270.239645 644.365385 272.955621 644.365385 275.671598 644.365385 278.387574 644.365385 281.103550 644.365385 283.819527 644.365385 286.535503 644.365385 289.251479 644.365385 291.967456 644.365385 294.683432 644.365385 297.399408 644.365385 300.115385 644.365385 302.831361 644.365385 305.547337 644.365385 308.263314 644.365385 310.979290 644.365385 313.695266 644.365385 316.411243 644.365385 319.127219 644.365385 321.843195 644.365385 324.559172 644.365385 327.275148 644.365385 329.991124 644.365385 332.707101 644.365385 335.423077 644.365385 338.139053 644.365385 340.855030 644.365385 343.571006 644.365385 346.286982 644.365385 349.002959 644.365385 351.718935 644.365385 354.434911 644.365385 357.150888 644.365385 359.866864 644.365385 362.582840 644.365385 365.298817 644.365385 368.014793 644.365385 370.730769 644.365385 373.446746 644.365385 376.162722 644.365385 378.878698 644.365385 381.594675 644.365385 384.310651 644.365385 387.026627 644.365385 389.742604 644.365385 392.458580 644.365385 395.174556 644.365385 397.890533 644.365385 400.606509 644.365385 403.322485 644.365385 406.038462 644.365385 408.754438 644.365385 411.470414 644.365385 414.186391 644.365385 416.902367 644.365385 419.618343 644.365385 422.334320 644.365385 425.050296 644.365385 427.766272 644.365385 430.482249 644.365385 433.198225 644.365385 435.914201 644.365385 438.630178 644.365385 441.346154 644.365385 444.062130 644.365385 446.778107 644.365385 449.494083 644.365385 452.210059 644.365385 454.926036 644.365385 457.642012 644.365385 460.357988 644.365385 463.073964 644.365385 465.789941 644.365385 468.505917 644.365385 471.221893 644.365385 473.937870 644.365385 476.653846 644.365385 479.369822 644.365385 482.085799 644.365385 484.801775 644.365385 487.517751 644.365385 490.233728 644.365385 492.949704 644.365385 495.665680 644.365385 498.381657 644.365385 501.097633 644.365385 503.813609 644.365385 506.529586 644.365385 509.245562 644.365385 511.961538 644.365385 514.677515 644.365385 517.393491 644.365385 520.109467 644.365385 522.825444 644.365385 525.541420 644.365385 528.257396 644.365385 530.973373 644.365385 533.689349 644.365385 536.405325 644.365385 539.121302 644.365385 541.837278 644.365385 544.553254 644.365385 547.269231 644.365385 549.985207 644.365385 552.701183 644.365385 555.417160 644.365385 558.133136 644.365385 560.849112 644.365385 563.565089 644.365385 566.281065 644.365385 568.997041 644.365385 571.713018 644.365385 574.428994 644.365385 577.144970 644.365385 579.860947 644.365385 582.576923 644.365385 585.292899 644.365385 588.008876 644.365385 590.724852 644.365385 593.440828 644.365385 596.156805 644.365385 598.872781 644.365385 601.588757 644.365385 604.304734 644.365385 607.020710 644.365385 609.736686 644.365385 612.452663 644.365385 615.168639 644.365385 617.884615 644.365385 620.600592 644.365385 623.316568 644.365385 626.032544 644.365385 628.748521 644.365385 631.464497 644.365385 634.180473 644.365385 636.896450 644.365385 639.612426 644.365385 642.328402 644.365385 645.044379 644.365385 647.760355 644.365385 650.476331 644.365385 653.192308 644.365385 655.908284 644.365385 658.624260 644.365385 661.340237 644.365385 664.056213 644.365385 666.772189 644.365385 669.488166 644.365385 672.204142 644.365385 674.920118 644.365385 677.636095 644.365385 680.352071 644.365385 683.068047 644.365385 685.784024 644.365385 688.500000 644.365385 691.215976 644.365385 693.931953 644.365385 696.647929 644.365385 699.363905 644.365385 702.079882 644.365385 704.795858 644.365385 707.511834 644.365385 710.227811 644.365385 712.943787 644.365385 715.659763 644.365385 718.375740 644.365385 721.091716 644.365385 723.807692 644.365385 726.523669 644.365385 729.239645 644.365385 731.955621 644.365385 734.671598 617.051168 737.387574 604.476739 740.103550 597.503260 742.819527 593.377142 745.535503 590.163203 748.251479 587.324366 750.967456 584.766855 753.683432 581.808668 756.399408 577.878626 759.115385 574.025310 761.831361 570.214618 764.547337 565.841275 767.263314 561.996483 769.979290 557.640190 772.695266 553.693098 775.411243 550.504734 778.127219 547.452771 780.843195 544.460484 783.559172 541.613121 786.275148 538.995935 788.991124 536.753851 791.707101 534.196340 794.423077 532.227056 797.139053 529.908246 799.855030 528.322590 802.571006 527.018259 805.286982 526.003780 808.002959 525.142751 810.718935 524.520423 813.434911 523.838421 816.150888 523.207568 818.866864 522.636390 821.582840 522.022588 824.298817 521.127459 827.014793 519.882804 829.730769 518.740449 832.446746 517.240042 835.162722 516.029487 837.878698 514.588756 840.594675 513.156550 843.310651 511.894845 846.026627 510.599039 848.742604 509.541935 851.458580 508.203504 854.174556 506.899173 856.890533 505.637468 859.606509 504.401338 862.322485 503.241933 865.038462 502.235978 867.754438 501.178874 870.470414 500.403096 873.186391 499.439767 875.902367 498.510538 878.618343 497.453433 881.334320 496.311078 884.050296 495.066423 886.766272 492.611212 889.482249 489.150048 892.198225 484.299302 894.914201 477.982250 897.630178 472.202275 900.346154 470.659244" /></g><g class="series serie-1 color-1"><path class="line reactive nofill" d="M17.653846 627.255637 L20.369822 620.853334 23.085799 617.281344 25.801775 614.902859 28.517751 612.660774 31.233728 611.168893 33.949704 609.668487 36.665680 607.920854 39.381657 605.312193 42.097633 601.953329 44.813609 598.441014 47.529586 593.632893 50.245562 589.233974 52.961538 586.241687 55.677515 583.488100 58.393491 581.203390 61.109467 578.833430 63.825444 576.514620 66.541420 574.178760 69.257396 572.141277 71.973373 570.538570 74.689349 569.114889 77.405325 567.853183 80.121302 566.659678 82.837278 565.721924 85.553254 564.571044 88.269231 564.025442 90.985207 563.633290 93.701183 563.155888 96.417160 562.704061 99.133136 562.405685 101.849112 562.124359 104.565089 561.553181 107.281065 560.888229 109.997041 560.163601 112.713018 559.183221 115.428994 558.202842 118.144970 557.239513 120.860947 556.327334 123.576923 555.568606 126.292899 554.699052 129.008876 553.803923 131.724852 553.028145 134.440828 552.354667 137.156805 551.792015 139.872781 551.118537 142.588757 550.513259 145.304734 550.010282 148.020710 549.498780 150.736686 549.089578 153.452663 548.688902 156.168639 548.535451 158.884615 548.356425 161.600592 548.168874 164.316568 547.930173 167.032544 547.742623 169.748521 547.384571 172.464497 546.932744 175.180473 546.549117 177.896450 545.952365 180.612426 545.347087 183.328402 544.835585 186.044379 544.315558 188.760355 543.718805 191.476331 543.215828 194.192308 542.593501 196.908284 541.954123 199.624260 541.348845 202.340237 540.879968 205.056213 540.556017 207.772189 540.180915 210.488166 539.788764 213.204142 539.302837 215.920118 538.995935 218.636095 538.799859 221.352071 538.612309 224.068047 538.484433 226.784024 538.339507 229.500000 538.177532 232.215976 538.058181 234.931953 537.802430 237.647929 537.504054 240.363905 537.120427 243.079882 536.779426 245.795858 536.421374 248.511834 535.961022 251.227811 535.509195 253.943787 535.151144 256.659763 534.716367 259.375740 534.315690 262.091716 533.889438 264.807692 533.556962 267.523669 533.335311 270.239645 533.071035 272.955621 532.832334 275.671598 532.610683 278.387574 532.312307 281.103550 532.133281 283.819527 531.979830 286.535503 531.860480 289.251479 531.715554 291.967456 531.604729 294.683432 531.536528 297.399408 531.468328 300.115385 531.331928 302.831361 531.255202 305.547337 531.110277 308.263314 530.965351 310.979290 530.880101 313.695266 530.777800 316.411243 530.701075 319.127219 530.522049 321.843195 530.360073 324.559172 530.257773 327.275148 530.053172 329.991124 529.882671 332.707101 529.729221 335.423077 529.550195 338.139053 529.328544 340.855030 529.192143 343.571006 529.089843 346.286982 529.013118 349.002959 528.851142 351.718935 528.731791 354.434911 528.638016 357.150888 528.527191 359.866864 528.433415 362.582840 528.365215 365.298817 528.245864 368.014793 528.135039 370.730769 528.024213 373.446746 527.930438 376.162722 527.845188 378.878698 527.649112 381.594675 527.504186 384.310651 527.333685 387.026627 527.188760 389.742604 527.052359 392.458580 526.915959 395.174556 526.771033 397.890533 526.668733 400.606509 526.540857 403.322485 526.395931 406.038462 526.191331 408.754438 526.046405 411.470414 525.884429 414.186391 525.790654 416.902367 525.696879 419.618343 525.603103 422.334320 525.492278 425.050296 525.338827 427.766272 525.262102 430.482249 525.151276 433.198225 524.938150 435.914201 524.725024 438.630178 524.324348 441.346154 523.881046 444.062130 523.369544 446.778107 522.960342 449.494083 522.491465 452.210059 522.073738 454.926036 521.451410 457.642012 520.948433 460.357988 520.675632 463.073964 520.368731 465.789941 520.036254 468.505917 519.678203 471.221893 519.294576 473.937870 476.839895 476.653846 456.669659 479.369822 445.766138 482.085799 437.718503 484.801775 430.813224 487.517751 425.024724 490.233728 418.494546 492.949704 412.109294 495.665680 402.859630 498.381657 389.381547 501.097633 371.640946 503.813609 349.058125 506.529586 329.655142 509.245562 312.562445 511.961538 299.365688 514.677515 287.754589 517.393491 275.879213 520.109467 264.677315 522.825444 253.986920 525.541420 245.376633 528.257396 238.820880 530.973373 233.126156 533.689349 227.857683 536.405325 223.075138 539.121302 219.025746 541.837278 215.462280 544.553254 213.092320 547.269231 211.574864 549.985207 210.321683 552.701183 208.940628 555.417160 207.627772 558.133136 205.982440 560.849112 203.774456 563.565089 200.892993 566.281065 197.031152 568.997041 192.657808 571.713018 188.275939 574.428994 183.672420 577.144970 179.588927 579.860947 175.641836 582.576923 171.703269 585.292899 167.670927 588.008876 163.527759 590.724852 160.245620 593.440828 157.142507 596.156805 154.738446 598.872781 152.257661 601.588757 150.083777 604.304734 147.943992 607.020710 146.486211 609.736686 145.215981 612.452663 144.192976 615.168639 143.451298 617.884615 142.479444 620.600592 141.737766 623.316568 140.791487 626.032544 139.666182 628.748521 138.498252 631.464497 136.384043 634.180473 134.227209 636.896450 132.027750 639.612426 129.564014 642.328402 127.338980 645.044379 125.233296 647.760355 122.735460 650.476331 120.467800 653.192308 118.319491 655.908284 116.733834 658.624260 114.883901 661.340237 113.255620 664.056213 112.045064 666.772189 110.843034 669.488166 109.572804 672.204142 108.532749 674.920118 107.808121 677.636095 107.253994 680.352071 106.751017 683.068047 106.350340 685.784024 105.821788 688.500000 105.276185 691.215976 104.670908 693.931953 103.903655 696.647929 103.025576 699.363905 101.976996 702.079882 100.604466 704.795858 99.206360 707.511834 98.115155 710.227811 97.075101 712.943787 95.583219 715.659763 94.125438 718.375740 92.573881 721.091716 91.440051 723.807692 90.621648 726.523669 89.615694 729.239645 88.643840 731.955621 87.859536 734.671598 79.010548 737.387574 74.270628 740.103550 71.261290 742.819527 69.343157 745.535503 68.124077 748.251479 67.041397 750.967456 66.205944 753.683432 65.217040 756.399408 63.989434 759.115385 62.582803 761.831361 61.167647 764.547337 59.581991 767.263314 58.217985 769.979290 56.444777 772.695266 54.995521 775.411243 53.767916 778.127219 52.182259 780.843195 50.886454 783.559172 49.556548 786.275148 48.243692 788.991124 47.203638 791.707101 46.027183 794.423077 45.038279 797.139053 43.776573 799.855030 42.855869 802.571006 42.011891 805.286982 41.483338 808.002959 40.852486 810.718935 40.468859 813.434911 40.076707 816.150888 39.769806 818.866864 39.428805 821.582840 39.079278 824.298817 38.670076 827.014793 38.090374 829.730769 37.476571 832.446746 36.547342 835.162722 35.669264 837.878698 34.782660 840.594675 34.160332 843.310651 33.307829 846.026627 32.600251 848.742604 31.935298 851.458580 31.074269 854.174556 30.307016 856.890533 29.480087 859.606509 28.908910 862.322485 28.269532 865.038462 27.536379 867.754438 26.914051 870.470414 26.479274 873.186391 26.001872 875.902367 25.532995 878.618343 24.885093 881.334320 24.296865 884.050296 23.589287 886.766272 22.591858 889.482249 21.108502 892.198225 18.985767 894.914201 16.402681 897.630178 13.418919 900.346154 12.634615" /></g></g><g class="titles"><text class="title plot_title" x="512.0" y="26">Latest Election Participation</text><text class="title" transform="rotate(-90 0.000000 374.500000)" x="0" y="400.5">Users</text></g><g class="plot overlay" transform="translate(86, 46)"><g class="series serie-0 color-0" /><g class="series serie-1 color-1" /></g><g class="plot text-overlay" transform="translate(86, 46)"><g class="series serie-0 color-0" /><g class="series serie-1 color-1" /></g><g class="plot tooltip-overlay" transform="translate(86, 46)"><g class="tooltip" style="opacity: 0" transform="translate(0 0)"><a><rect class="tooltip-box" height="0" rx="0" ry="0" width="0" /><text class="text"><tspan class="label" /><tspan class="value" /></text></a></g></g><g class="legends" transform="translate(96, 713)"><g class="legend reactive activate-serie" id="activate-serie-0"><rect class="color-0 reactive" height="12" width="12" x="0.0" y="1.0" /><text x="17.0" y="11.2">constituents</text></g><g class="legend reactive activate-serie" id="activate-serie-1"><rect class="color-1 reactive" height="12" width="12" x="459.0" y="1.0" /><text x="476.0" y="11.2">caucus</text></g></g></g></svg>