<?xml version='1.0' encoding='utf-8'?>
<svg xmlns:xlink="http://www.w3.org/1999/xlink" class="pygal-chart" id="chart-172f76e6-f5d0-4c42-a485-9b8e77ec8387" viewBox="0 0 1024 768" xmlns="http://www.w3.org/2000/svg"><!--Generated with pygal 1.7.0 (etree) ©Kozea 2011-2014 on 2015-04-20--><!--http://pygal.org--><!--http://github.com/Kozea/pygal--><defs><style type="text/css">#chart-172f76e6-f5d0-4c42-a485-9b8e77ec8387 .title{font-family:"monospace";font-size:16px}#chart-172f76e6-f5d0-4c42-a485-9b8e77ec8387 .legends .legend text{font-family:"monospace";font-size:14px}#chart-172f76e6-f5d0-4c42-a485-9b8e77ec8387 .axis text{font-family:"monospace";font-size:10px}#chart-172f76e6-f5d0-4c42-a485-9b8e77ec8387 .axis text.major{font-family:"monospace";font-size:10px}#chart-172f76e6-f5d0-4c42-a485-9b8e77ec8387 .series text{font-family:"monospace";font-size:8px}#chart-172f76e6-f5d0-4c42-a485-9b8e77ec8387 .tooltip text{font-family:"monospace";font-size:16px}#chart-172f76e6-f5d0-4c42-a485-9b8e77ec8387 text.no_data{font-size:64px}
#chart-172f76e6-f5d0-4c42-a485-9b8e77ec8387{background-color:black}#chart-172f76e6-f5d0-4c42-a485-9b8e77ec8387 path,#chart-172f76e6-f5d0-4c42-a485-9b8e77ec8387 line,#chart-172f76e6-f5d0-4c42-a485-9b8e77ec8387 rect,#chart-172f76e6-f5d0-4c42-a485-9b8e77ec8387 circle{-webkit-transition:250ms;-moz-transition:250ms;transition:250ms}#chart-172f76e6-f5d0-4c42-a485-9b8e77ec8387 .graph &gt; .background{fill:black}#chart-172f76e6-f5d0-4c42-a485-9b8e77ec8387 .plot &gt; .background{fill:#111}#chart-172f76e6-f5d0-4c42-a485-9b8e77ec8387 .graph{fill:#999}#chart-172f76e6-f5d0-4c42-a485-9b8e77ec8387 text.no_data{fill:#eee}#chart-172f76e6-f5d0-4c42-a485-9b8e77ec8387 .title{fill:#eee}#chart-172f76e6-f5d0-4c42-a485-9b8e77ec8387 .legends .legend text{fill:#999}#chart-172f76e6-f5d0-4c42-a485-9b8e77ec8387 .legends .legend:hover text{fill:#eee}#chart-172f76e6-f5d0-4c42-a485-9b8e77ec8387 .axis .line{stroke:#eee}#chart-172f76e6-f5d0-4c42-a485-9b8e77ec8387 .axis .guide.line{stroke:#555}#chart-172f76e6-f5d0-4c42-a485-9b8e77ec8387 .axis .major.line{stroke:#999}#chart-172f76e6-f5d0-4c42-a485-9b8e77ec8387 .axis text.major{stroke:#eee;fill:#eee}#chart-172f76e6-f5d0-4c42-a485-9b8e77ec8387 .axis.y .guides:hover .guide.line,#chart-172f76e6-f5d0-4c42-a485-9b8e77ec8387 .line-graph .axis.x .guides:hover .guide.line,#chart-172f76e6-f5d0-4c42-a485-9b8e77ec8387 .stackedline-graph .axis.x .guides:hover .guide.line,#chart-172f76e6-f5d0-4c42-a485-9b8e77ec8387 .xy-graph .axis.x .guides:hover .guide.line{stroke:#eee}#chart-172f76e6-f5d0-4c42-a485-9b8e77ec8387 .axis .guides:hover text{fill:#eee}#chart-172f76e6-f5d0-4c42-a485-9b8e77ec8387 .reactive{fill-opacity:.8}#chart-172f76e6-f5d0-4c42-a485-9b8e77ec8387 .reactive.active,#chart-172f76e6-f5d0-4c42-a485-9b8e77ec8387 .active .reactive{fill-opacity:.4}#chart-172f76e6-f5d0-4c42-a485-9b8e77ec8387 .series{stroke-width:1.0;stroke-linejoin:round;stroke-linecap:round;stroke-dasharray:0,0}#chart-172f76e6-f5d0-4c42-a485-9b8e77ec8387 .series text{fill:#eee}#chart-172f76e6-f5d0-4c42-a485-9b8e77ec8387 .tooltip rect{fill:#111;stroke:#eee}#chart-172f76e6-f5d0-4c42-a485-9b8e77ec8387 .tooltip text{fill:#eee}#chart-172f76e6-f5d0-4c42-a485-9b8e77ec8387 .map-element{fill:#999;stroke:#555 !important;opacity:.9;stroke-width:3;-webkit-transition:250ms;-moz-transition:250ms;-o-transition:250ms;transition:250ms}#chart-172f76e6-f5d0-4c42-a485-9b8e77ec8387 .map-element:hover{opacity:1;stroke-width:10}#chart-172f76e6-f5d0-4c42-a485-9b8e77ec8387 .color-0,#chart-172f76e6-f5d0-4c42-a485-9b8e77ec8387 .color-0 a:visited{stroke:#ff5995;fill:#ff5995}#chart-172f76e6-f5d0-4c42-a485-9b8e77ec8387 .color-1,#chart-172f76e6-f5d0-4c42-a485-9b8e77ec8387 .color-1 a:visited{stroke:#b6e354;fill:#b6e354}#chart-172f76e6-f5d0-4c42-a485-9b8e77ec8387 .color-2,#chart-172f76e6-f5d0-4c42-a485-9b8e77ec8387 .color-2 a:visited{stroke:#feed6c;fill:#feed6c}#chart-172f76e6-f5d0-4c42-a485-9b8e77ec8387 .color-3,#chart-172f76e6-f5d0-4c42-a485-9b8e77ec8387 .color-3 a:visited{stroke:#8cedff;fill:#8cedff}#chart-172f76e6-f5d0-4c42-a485-9b8e77ec8387 .color-4,#chart-172f76e6-f5d0-4c42-a485-9b8e77ec8387 .color-4 a:visited{stroke:#9e6ffe;fill:#9e6ffe}#chart-172f76e6-f5d0-4c42-a485-9b8e77ec8387 .color-5,#chart-172f76e6-f5d0-4c42-a485-9b8e77ec8387 .color-5 a:visited{stroke:#899ca1;fill:#899ca1}#chart-172f76e6-f5d0-4c42-a485-9b8e77ec8387 .color-6,#chart-172f76e6-f5d0-4c42-a485-9b8e77ec8387 .color-6 a:visited{stroke:#f8f8f2;fill:#f8f8f2}#chart-172f76e6-f5d0-4c42-a485-9b8e77ec8387 .color-7,#chart-172f76e6-f5d0-4c42-a485-9b8e77ec8387 .color-7 a:visited{stroke:#bf4646;fill:#bf4646}#chart-172f76e6-f5d0-4c42-a485-9b8e77ec8387 .color-8,#chart-172f76e6-f5d0-4c42-a485-9b8e77ec8387 .color-8 a:visited{stroke:#516083;fill:#516083}#chart-172f76e6-f5d0-4c42-a485-9b8e77ec8387 .color-9,#chart-172f76e6-f5d0-4c42-a485-9b8e77ec8387 .color-9 a:visited{stroke:#f92672;fill:#f92672}#chart-172f76e6-f5d0-4c42-a485-9b8e77ec8387 .color-10,#chart-172f76e6-f5d0-4c42-a485-9b8e77ec8387 .color-10 a:visited{stroke:#82b414;fill:#82b414}#chart-172f76e6-f5d0-4c42-a485-9b8e77ec8387 .color-11,#chart-172f76e6-f5d0-4c42-a485-9b8e77ec8387 .color-11 a:visited{stroke:#fd971f;fill:#fd971f}#chart-172f76e6-f5d0-4c42-a485-9b8e77ec8387 .color-12,#chart-172f76e6-f5d0-4c42-a485-9b8e77ec8387 .color-12 a:visited{stroke:#56c2d6;fill:#56c2d6}#chart-172f76e6-f5d0-4c42-a485-9b8e77ec8387 .color-13,#chart-172f76e6-f5d0-4c42-a485-9b8e77ec8387 .color-13 a:visited{stroke:#808384;fill:#808384}#chart-172f76e6-f5d0-4c42-a485-9b8e77ec8387 .color-14,#chart-172f76e6-f5d0-4c42-a485-9b8e77ec8387 .color-14 a:visited{stroke:#8c54fe;fill:#8c54fe}#chart-172f76e6-f5d0-4c42-a485-9b8e77ec8387 .color-15,#chart-172f76e6-f5d0-4c42-a485-9b8e77ec8387 .color-15 a:visited{stroke:#465457;fill:#465457}
#chart-172f76e6-f5d0-4c42-a485-9b8e77ec8387 text.no_data{text-anchor:middle}#chart-172f76e6-f5d0-4c42-a485-9b8e77ec8387 .guide.line{fill-opacity:0}#chart-172f76e6-f5d0-4c42-a485-9b8e77ec8387 .centered{text-anchor:middle}#chart-172f76e6-f5d0-4c42-a485-9b8e77ec8387 .title{text-anchor:middle}#chart-172f76e6-f5d0-4c42-a485-9b8e77ec8387 .legends .legend text{fill-opacity:1}#chart-172f76e6-f5d0-4c42-a485-9b8e77ec8387 .axis.x text{text-anchor:middle}#chart-172f76e6-f5d0-4c42-a485-9b8e77ec8387 .axis.x:not(.web) text[transform]{text-anchor:start}#chart-172f76e6-f5d0-4c42-a485-9b8e77ec8387 .axis.y text{text-anchor:end}#chart-172f76e6-f5d0-4c42-a485-9b8e77ec8387 .axis.y2 text{text-anchor:start}#chart-172f76e6-f5d0-4c42-a485-9b8e77ec8387 .axis.y .logarithmic text:not(.major),#chart-172f76e6-f5d0-4c42-a485-9b8e77ec8387 .axis.y2 .logarithmic text:not(.major){font-size:50%}#chart-172f76e6-f5d0-4c42-a485-9b8e77ec8387 .axis .guide.line{stroke-dasharray:4,4}#chart-172f76e6-f5d0-4c42-a485-9b8e77ec8387 .axis .major.guide.line{stroke-dasharray:6,6}#chart-172f76e6-f5d0-4c42-a485-9b8e77ec8387 .axis text.major{stroke-width:0.5px}#chart-172f76e6-f5d0-4c42-a485-9b8e77ec8387 .horizontal .axis.y .guide.line,#chart-172f76e6-f5d0-4c42-a485-9b8e77ec8387 .horizontal .axis.y2 .guide.line,#chart-172f76e6-f5d0-4c42-a485-9b8e77ec8387 .vertical .axis.x .guide.line{opacity:0}#chart-172f76e6-f5d0-4c42-a485-9b8e77ec8387 .horizontal .axis.always_show .guide.line,#chart-172f76e6-f5d0-4c42-a485-9b8e77ec8387 .vertical .axis.always_show .guide.line{opacity:1 !important}#chart-172f76e6-f5d0-4c42-a485-9b8e77ec8387 .axis.y .guides:hover .guide.line,#chart-172f76e6-f5d0-4c42-a485-9b8e77ec8387 .axis.y2 .guides:hover .guide.line,#chart-172f76e6-f5d0-4c42-a485-9b8e77ec8387 .axis.x .guides:hover .guide.line{opacity:1}#chart-172f76e6-f5d0-4c42-a485-9b8e77ec8387 .axis .guides:hover text{opacity:1}#chart-172f76e6-f5d0-4c42-a485-9b8e77ec8387 .nofill{fill:none}#chart-172f76e6-f5d0-4c42-a485-9b8e77ec8387 .subtle-fill{fill-opacity:.2}#chart-172f76e6-f5d0-4c42-a485-9b8e77ec8387 .dot{stroke-width:1px;fill-opacity:1}#chart-172f76e6-f5d0-4c42-a485-9b8e77ec8387 .dot.active{stroke-width:5px}#chart-172f76e6-f5d0-4c42-a485-9b8e77ec8387 .series text{stroke:none}#chart-172f76e6-f5d0-4c42-a485-9b8e77ec8387 .series text.active{opacity:1}#chart-172f76e6-f5d0-4c42-a485-9b8e77ec8387 .tooltip rect{fill-opacity:0.8}#chart-172f76e6-f5d0-4c42-a485-9b8e77ec8387 .tooltip text{fill-opacity:1}#chart-172f76e6-f5d0-4c42-a485-9b8e77ec8387 .tooltip text tspan.label{fill-opacity:.8}</style><script type="text/javascript">window.config = {"stroke": true, "zero": 0, "show_y_guides": true, "y_label_rotation": 0, "y_labels_major": null, "dots_size": 2.5, "margin": 20, "disable_xml_declaration": false, "half_pie": false, "legend_font_size": 14, "x_labels_major_count": null, "interpolate": null, "x_title": null, "y_labels": null, "js": ["http://kozea.github.io/pygal.js/javascripts/svg.jquery.js", "http://kozea.github.io/pygal.js/javascripts/pygal-tooltips.js"], "x_labels_major_every": null, "css": ["style.css", "graph.css"], "truncate_label": null, "rounded_bars": null, "major_label_font_size": 10, "mode": null, "show_x_labels": true, "width": 1024, "margin_right": null, "margin_bottom": null, "no_prefix": false, "show_dots": false, "tooltip_font_size": 16, "interpolation_parameters": {}, "stack_from_top": false, "style": {"colors": ["#ff5995", "#b6e354", "#feed6c", "#8cedff", "#9e6ffe", "#899ca1", "#f8f8f2", "#bf4646", "#516083", "#f92672", "#82b414", "#fd971f", "#56c2d6", "#808384", "#8c54fe", "#465457"], "stroke_dasharray": "0,0", "foreground": "#999", "font_family": "monospace", "transition": "250ms", "opacity": ".8", "stroke_width": 1.0, "background": "black", "foreground_dark": "#555", "opacity_hover": ".4", "plot_background": "#111", "foreground_light": "#eee", "stroke_style": "round"}, "no_data_text": "No data", "legend_at_bottom": true, "height": 768, "logarithmic": false, "show_minor_x_labels": true, "legend_box_size": 12, "label_font_size": 10, "range": null, "print_zeroes": false, "x_labels_major": null, "human_readable": false, "include_x_axis": false, "inner_radius": 0, "x_labels": null, "x_label_rotation": 0, "show_y_labels": true, "strict": false, "value_font_size": 8, "show_only_major_dots": false, "truncate_legend": null, "x_label_format": "%Y-%m-%d %H:%M:%S.%f", "fill": false, "y_labels_major_count": null, "y_labels_major_every": null, "explicit_size": false, "tooltip_border_radius": 0, "missing_value_fill_truncation": "x", "x_value_formatter": null, "margin_left": null, "title_font_size": 16, "spacing": 10, "y_title": "Users", "order_min": null, "margin_top": null, "no_data_font_size": 64, "pretty_print": false, "xrange": null, "title": "Latest Election Participation", "show_x_guides": false, "show_legend": true, "legend_at_bottom_columns": null, "interpolation_precision": 250, "show_minor_y_labels": true, "print_values": false}</script><script type="text/javascript" xlink:href="http://kozea.github.io/pygal.js/javascripts/svg.jquery.js" /><script type="text/javascript" xlink:href="http://kozea.github.io/pygal.js/javascripts/pygal-tooltips.js" /></defs><title>Latest Election Participation</title><g class="graph line-graph vertical"><rect class="background" height="768" width="1024" x="0" y="0" /><g class="plot" transform="translate(86, 46)"><rect class="background" height="657.0" width="918.0" x="0" y="0" /><g class="axis y"><g class="guides"><path class="axis major line" d="M0.000000 644.365385 h918.000000" /><text class="major" x="-5" y="647.8653846153846">0</text></g><g class="guides"><path class="guide line" d="M0.000000 559.438213 h918.000000" /><text class="" x="-5" y="562.938212573875">10000</text></g><g class="guides"><path class="guide line" d="M0.000000 474.511041 h918.000000" /><text class="" x="-5" y="478.01104053236537">20000</text></g><g class="guides"><path class="guide line" d="M0.000000 389.583868 h918.000000" /><text class="" x="-5" y="393.08386849085576">30000</text></g><g class="guides"><path class="guide line" d="M0.000000 304.656696 h918.000000" /><text class="" x="-5" y="308.15669644934616">40000</text></g><g class="guides"><path class="major guide line" d="M0.000000 219.729524 h918.000000" /><text class="major" x="-5" y="223.22952440783655">50000</text></g><g class="guides"><path class="guide line" d="M0.000000 134.802352 h918.000000" /><text class="" x="-5" y="138.3023523663269">60000</text></g><g class="guides"><path class="guide line" d="M0.000000 49.875180 h918.000000" /><text class="" x="-5" y="53.37518032481728">70000</text></g></g><g class="series serie-0 color-0"><path class="line reactive nofill" d="M17.653846 644.365385 L20.369822 644.365385 23.085799 644.365385 25.801775 644.365385 28.517751 644.365385 31.233728 644.365385 33.949704 644.365385 36.665680 644.365385 39.381657 644.365385 42.097633 644.365385 44.813609 644.365385 47.529586 644.365385 50.245562 644.365385 52.961538 644.365385 55.677515 644.365385 58.393491 644.365385 61.109467 644.365385 63.825444 644.365385 66.541420 644.365385 69.257396 644.365385 71.973373 644.365385 74.689349 644.365385 77.405325 644.365385 80.121302 644.365385 82.837278 644.365385 85.553254 644.365385 88.269231 644.365385 90.985207 644.365385 93.701183 644.365385 96.417160 644.365385 99.133136 644.365385 101.849112 644.365385 104.565089 644.365385 107.281065 644.365385 109.997041 644.365385 112.713018 644.365385 115.428994 644.365385 118.144970 644.365385 120.860947 644.365385 123.576923 644.365385 126.292899 644.365385 129.008876 644.365385 131.724852 644.365385 134.440828 644.365385 137.156805 644.365385 139.872781 644.365385 142.588757 644.365385 145.304734 644.365385 148.020710 644.365385 150.736686 644.365385 153.452663 644.365385 156.168639 644.365385 158.884615 644.365385 161.600592 644.365385 164.316568 644.365385 167.032544 644.365385 169.748521 644.365385 172.464497 644.365385 175.180473 644.365385 177.896450 644.365385 180.612426 644.365385 183.328402 644.365385 186.044379 644.365385 188.760355 644.365385 191.476331 644.365385 194.192308 644.365385 196.908284 644.365385 199.624260 644.365385 202.340237 644.365385 205.056213 644.365385 207.772189 644.365385 210.488166 644.365385 213.204142 644.365385 215.920118 644.365385 218.636095 644.365385 221.352071 644.365385 224.068047 644.365385 226.784024 644.365385 229.500000 644.365385 232.215976 644.365385 234.931953 644.365385 237.647929 644.365385 240.363905 644.365385 243.079882 644.365385 245.795858 644.365385 248.511834 644.365385 251.227811 644.365385 253.943787 644.365385 256.659763 644.365385 259.375740 644.365385 262.091716 644.365385 264.807692 644.365385 267.523669 644.365385 270.239645 644.365385 272.955621 644.365385 275.671598 644.365385 278.387574 644.365385 281.103550 644.365385 283.819527 644.365385 286.535503 644.365385 289.251479 644.365385 291.967456 644.365385 294.683432 644.365385 297.399408 644.365385 300.115385 644.365385 302.831361 644.365385 305.547337 644.365385 308.263314 644.365385 310.979290 644.365385 313.695266 644.365385 316.411243 644.365385 319.127219 644.365385 321.843195 644.365385 324.559172 644.365385 327.275148 644.365385 329.991124 644.365385 332.707101 644.365385 335.423077 644.365385 338.139053 644.365385 340.855030 644.365385 343.571006 644.365385 346.286982 644.365385 349.002959 644.365385 351.718935 644.365385 354.434911 644.365385 357.150888 644.365385 359.866864 644.365385 362.582840 644.365385 365.298817 644.365385 368.014793 644.365385 370.730769 644.365385 373.446746 644.365385 376.162722 644.365385 378.878698 644.365385 381.594675 644.365385 384.310651 644.365385 387.026627 644.365385 389.742604 644.365385 392.458580 644.365385 395.174556 644.365385 397.890533 644.365385 400.606509 644.365385 403.322485 644.365385 406.038462 644.365385 408.754438 644.365385 411.470414 644.365385 414.186391 644.365385 416.902367 644.365385 419.618343 644.365385 422.334320 644.365385 425.050296 644.365385 427.766272 644.365385 430.482249 644.365385 433.198225 644.365385 435.914201 644.365385 438.630178 644.365385 441.346154 644.365385 444.062130 644.365385 446.778107 644.365385 449.494083 644.365385 452.210059 644.365385 454.926036 644.365385 457.642012 644.365385 460.357988 644.365385 463.073964 644.365385 465.789941 644.365385 468.505917 644.365385 471.221893 644.365385 473.937870 644.365385 476.653846 644.365385 479.369822 644.365385 482.085799 644.365385 484.801775 644.365385 487.517751 644.365385 490.233728 644.365385 492.949704 644.365385 495.665680 644.365385 498.381657 644.365385 501.097633 644.365385 503.813609 644.365385 506.529586 644.365385 509.245562 644.365385 511.961538 644.365385 514.677515 644.365385 517.393491 644.365385 520.109467 644.365385 522.825444 644.365385 525.541420 644.365385 528.257396 644.365385 530.973373 644.365385 533.689349 644.365385 536.405325 644.365385 539.121302 644.365385 541.837278 644.365385 544.553254 644.365385 547.269231 644.365385 549.985207 644.365385 552.701183 644.365385 555.417160 644.365385 558.133136 644.365385 560.849112 644.365385 563.565089 644.365385 566.281065 644.365385 568.997041 644.365385 571.713018 644.365385 574.428994 644.365385 577.144970 644.365385 579.860947 644.365385 582.576923 644.365385 585.292899 644.365385 588.008876 644.365385 590.724852 644.365385 593.440828 644.365385 596.156805 644.365385 598.872781 644.365385 601.588757 644.365385 604.304734 644.365385 607.020710 644.365385 609.736686 644.365385 612.452663 644.365385 615.168639 644.365385 617.884615 644.365385 620.600592 644.365385 623.316568 644.365385 626.032544 644.365385 628.748521 644.365385 631.464497 644.365385 634.180473 644.365385 636.896450 644.365385 639.612426 644.365385 642.328402 644.365385 645.044379 644.365385 647.760355 644.365385 650.476331 644.365385 653.192308 644.365385 655.908284 644.365385 658.624260 644.365385 661.340237 644.365385 664.056213 644.365385 666.772189 644.365385 669.488166 644.365385 672.204142 644.365385 674.920118 644.365385 677.636095 644.365385 680.352071 644.365385 683.068047 644.365385 685.784024 644.365385 688.500000 644.365385 691.215976 644.365385 693.931953 644.365385 696.647929 644.365385 699.363905 644.365385 702.079882 644.365385 704.795858 644.365385 707.511834 644.365385 710.227811 644.365385 712.943787 644.365385 715.659763 644.365385 718.375740 644.365385 721.091716 644.365385 723.807692 644.365385 726.523669 644.365385 729.239645 644.365385 731.955621 644.365385 734.671598 617.154719 737.387574 604.627961 740.103550 597.680918 742.819527 593.570443 745.535503 590.368689 748.251479 587.540614 750.967456 584.992799 753.683432 582.045826 756.399408 578.130683 759.115385 574.291975 761.831361 570.495730 764.547337 566.138966 767.263314 562.308751 769.979290 557.968972 772.695266 554.036844 775.411243 550.860568 778.127219 547.820175 780.843195 544.839232 783.559172 542.002664 786.275148 539.395400 788.991124 537.161815 791.707101 534.614000 794.423077 532.652183 797.139053 530.342163 799.855030 528.762518 802.571006 527.463132 805.286982 526.452499 808.002959 525.594735 810.718935 524.974766 813.434911 524.295349 816.150888 523.666888 818.866864 523.097876 821.582840 522.486400 824.298817 521.594665 827.014793 520.354728 829.730769 519.216704 832.446746 517.721986 835.162722 516.516020 837.878698 515.080751 840.594675 513.653974 843.310651 512.397052 846.026627 511.106159 848.742604 510.053062 851.458580 508.719705 854.174556 507.420320 856.890533 506.163398 859.606509 504.931954 862.322485 503.776944 865.038462 502.774803 867.754438 501.721706 870.470414 500.948869 873.186391 499.989192 875.902367 499.063486 878.618343 498.010389 881.334320 496.872365 884.050296 495.632428 886.766272 493.186526 889.482249 489.738482 892.198225 484.906126 894.914201 478.613023 897.630178 472.854961 900.346154 468.786949" /></g><g class="series serie-1 color-1"><path class="line reactive nofill" d="M17.653846 627.320501 L20.369822 620.942471 23.085799 617.384022 25.801775 615.014554 28.517751 612.780969 31.233728 611.294744 33.949704 609.800026 36.665680 608.059019 39.381657 605.460247 42.097633 602.114117 44.813609 598.615117 47.529586 593.825225 50.245562 589.442982 52.961538 586.462039 55.677515 583.718891 58.393491 581.442843 61.109467 579.081867 63.825444 576.771848 66.541420 574.444844 69.257396 572.415084 71.973373 570.818454 74.689349 569.400170 77.405325 568.143248 80.121302 566.954267 82.837278 566.020068 85.553254 564.873552 88.269231 564.330018 90.985207 563.939353 93.701183 563.463761 96.417160 563.013647 99.133136 562.716401 101.849112 562.436142 104.565089 561.867130 107.281065 561.204698 109.997041 560.482817 112.713018 559.506154 115.428994 558.529492 118.144970 557.569815 120.860947 556.661094 123.576923 555.905242 126.292899 555.038985 129.008876 554.147250 131.724852 553.374412 134.440828 552.703488 137.156805 552.142968 139.872781 551.472044 142.588757 550.869061 145.304734 550.367991 148.020710 549.858428 150.736686 549.450777 153.452663 549.051619 156.168639 548.898751 158.884615 548.720403 161.600592 548.533564 164.316568 548.295768 167.032544 548.108928 169.748521 547.752234 172.464497 547.302120 175.180473 546.919947 177.896450 546.325457 180.612426 545.722474 183.328402 545.212911 186.044379 544.694856 188.760355 544.100365 191.476331 543.599295 194.192308 542.979327 196.908284 542.342373 199.624260 541.739390 202.340237 541.272290 205.056213 540.949567 207.772189 540.575888 210.488166 540.185223 213.204142 539.701138 215.920118 539.395400 218.636095 539.200067 221.352071 539.013228 224.068047 538.885837 226.784024 538.741461 229.500000 538.580099 232.215976 538.461201 234.931953 538.206420 237.647929 537.909174 240.363905 537.527002 243.079882 537.187293 245.795858 536.830599 248.511834 536.371993 251.227811 535.921879 253.943787 535.565185 256.659763 535.132056 259.375740 534.732898 262.091716 534.308262 264.807692 533.977046 267.523669 533.756236 270.239645 533.492962 272.955621 533.255165 275.671598 533.034355 278.387574 532.737110 281.103550 532.558763 283.819527 532.405894 286.535503 532.286996 289.251479 532.142619 291.967456 532.032214 294.683432 531.964272 297.399408 531.896331 300.115385 531.760447 302.831361 531.684013 305.547337 531.539637 308.263314 531.395260 310.979290 531.310333 313.695266 531.208421 316.411243 531.131986 319.127219 530.953639 321.843195 530.792277 324.559172 530.690365 327.275148 530.486540 329.991124 530.316685 332.707101 530.163816 335.423077 529.985469 338.139053 529.764659 340.855030 529.628775 343.571006 529.526863 346.286982 529.450428 349.002959 529.289066 351.718935 529.170168 354.434911 529.076749 357.150888 528.966343 359.866864 528.872923 362.582840 528.804982 365.298817 528.686084 368.014793 528.575678 370.730769 528.465273 373.446746 528.371853 376.162722 528.286926 378.878698 528.091593 381.594675 527.947217 384.310651 527.777363 387.026627 527.632987 389.742604 527.497103 392.458580 527.361220 395.174556 527.216844 397.890533 527.114931 400.606509 526.987540 403.322485 526.843164 406.038462 526.639339 408.754438 526.494963 411.470414 526.333601 414.186391 526.240181 416.902367 526.146761 419.618343 526.053341 422.334320 525.942936 425.050296 525.790067 427.766272 525.713633 430.482249 525.603227 433.198225 525.390909 435.914201 525.178591 438.630178 524.779434 441.346154 524.337812 444.062130 523.828249 446.778107 523.420599 449.494083 522.953499 452.210059 522.537356 454.926036 521.917388 457.642012 521.416318 460.357988 521.144551 463.073964 520.838813 465.789941 520.507597 468.505917 520.150903 471.221893 519.768731 473.937870 477.474999 476.653846 457.381230 479.369822 446.519045 482.085799 438.501920 484.801775 431.622819 487.517751 425.856264 490.233728 419.350842 492.949704 412.989797 495.665680 403.775199 498.381657 390.348213 501.097633 372.674869 503.813609 350.177661 506.529586 330.848236 509.245562 313.820338 511.961538 300.673612 514.677515 289.106531 517.393491 277.276176 520.109467 266.116746 522.825444 255.466878 525.541420 246.889234 528.257396 240.358334 530.973373 234.685199 533.689349 229.436700 536.405325 224.672286 539.121302 220.638245 541.837278 217.088289 544.553254 214.727314 547.269231 213.215610 549.985207 211.967181 552.701183 210.591361 555.417160 209.283482 558.133136 207.644388 560.849112 205.444774 563.565089 202.574236 566.281065 198.727035 568.997041 194.370271 571.713018 190.005014 574.428994 185.418947 577.144970 181.350935 579.860947 177.418807 582.576923 173.495172 585.292899 169.478117 588.008876 165.350656 590.724852 162.080960 593.440828 158.989611 596.156805 156.594665 598.872781 154.123284 601.588757 151.957641 604.304734 149.825969 607.020710 148.373714 609.736686 147.108300 612.452663 146.089174 615.168639 145.350307 617.884615 144.382137 620.600592 143.643271 623.316568 142.700579 626.032544 141.579541 628.748521 140.416038 631.464497 138.309845 634.180473 136.161187 636.896450 133.970066 639.612426 131.515671 642.328402 129.299072 645.044379 127.201370 647.760355 124.713004 650.476331 122.453942 653.192308 120.313777 655.908284 118.734131 658.624260 116.891212 661.340237 115.269103 664.056213 114.063137 666.772189 112.865664 669.488166 111.600249 672.204142 110.564137 674.920118 109.842257 677.636095 109.290230 680.352071 108.789160 683.068047 108.390002 685.784024 107.863453 688.500000 107.319919 691.215976 106.716937 693.931953 105.952592 696.647929 105.077842 699.363905 104.033238 702.079882 102.665910 704.795858 101.273105 707.511834 100.186037 710.227811 99.149926 712.943787 97.663700 715.659763 96.211445 718.375740 94.665771 721.091716 93.536239 723.807692 92.720939 726.523669 91.718798 729.239645 90.750628 731.955621 89.969298 734.671598 81.153858 737.387574 76.431907 740.103550 73.433978 742.819527 71.523116 745.535503 70.308658 748.251479 69.230083 750.967456 68.397797 753.683432 67.412641 756.399408 66.189690 759.115385 64.788392 761.831361 63.378601 764.547337 61.798955 767.263314 60.440121 769.979290 58.673635 772.695266 57.229873 775.411243 56.006922 778.127219 54.427277 780.843195 53.136384 783.559172 51.811520 786.275148 50.503641 788.991124 49.467530 791.707101 48.295535 794.423077 47.310380 797.139053 46.053458 799.855030 45.136244 802.571006 44.295465 805.286982 43.768917 808.002959 43.140456 810.718935 42.758283 813.434911 42.367618 816.150888 42.061880 818.866864 41.722172 821.582840 41.373970 824.298817 40.966320 827.014793 40.388815 829.730769 39.777340 832.446746 38.851633 835.162722 37.976884 837.878698 37.093641 840.594675 36.473673 843.310651 35.624401 846.026627 34.919505 848.742604 34.257073 851.458580 33.399309 854.174556 32.634964 856.890533 31.811171 859.606509 31.242159 862.322485 30.605205 865.038462 29.874831 867.754438 29.254863 870.470414 28.821734 873.186391 28.346142 875.902367 27.879043 878.618343 27.233596 881.334320 26.647599 884.050296 25.942703 886.766272 24.949055 889.482249 23.471323 892.198225 21.356636 894.914201 18.783343 897.630178 15.810892 900.346154 12.634615" /></g></g><g class="titles"><text class="title plot_title" x="512.0" y="26">Latest Election Participation</text><text class="title" transform="rotate(-90 0.000000 374.500000)" x="0" y="400.5">Users</text></g><g class="plot overlay" transform="translate(86, 46)"><g class="series serie-0 color-0" /><g class="series serie-1 color-1" /></g><g class="plot text-overlay" transform="translate(86, 46)"><g class="series serie-0 color-0" /><g class="series serie-1 color-1" /></g><g class="plot tooltip-overlay" transform="translate(86, 46)"><g class="tooltip" style="opacity: 0" transform="translate(0 0)"><a><rect class="tooltip-box" height="0" rx="0" ry="0" width="0" /><text class="text"><tspan class="label" /><tspan class="value" /></text></a></g></g><g class="legends" transform="translate(96, 713)"><g class="legend reactive activate-serie" id="activate-serie-0"><rect class="color-0 reactive" height="12" width="12" x="0.0" y="1.0" /><text x="17.0" y="11.2">constituents</text></g><g class="legend reactive activate-serie" id="activate-serie-1"><rect class="color-1 reactive" height="12" width="12" x="459.0" y="1.0" /><text x="476.0" y="11.2">caucus</text></g></g></g></svg>