<?xml version='1.0' encoding='utf-8'?>
<svg xmlns:xlink="http://www.w3.org/1999/xlink" xmlns="http://www.w3.org/2000/svg" id="chart-7e3a268b-7502-4e6e-a57b-b4b939ac83ae" class="pygal-chart" viewBox="0 0 1024 768"><!--Generated with pygal 1.7.0 (lxml) ©Kozea 2011-2014 on 2015-04-20--><!--http://pygal.org--><!--http://github.com/Kozea/pygal--><defs><style type="text/css">#chart-7e3a268b-7502-4e6e-a57b-b4b939ac83ae .title{font-family:"monospace";font-size:16px}#chart-7e3a268b-7502-4e6e-a57b-b4b939ac83ae .legends .legend text{font-family:"monospace";font-size:14px}#chart-7e3a268b-7502-4e6e-a57b-b4b939ac83ae .axis text{font-family:"monospace";font-size:10px}#chart-7e3a268b-7502-4e6e-a57b-b4b939ac83ae .axis text.major{font-family:"monospace";font-size:10px}#chart-7e3a268b-7502-4e6e-a57b-b4b939ac83ae .series text{font-family:"monospace";font-size:8px}#chart-7e3a268b-7502-4e6e-a57b-b4b939ac83ae .tooltip text{font-family:"monospace";font-size:16px}#chart-7e3a268b-7502-4e6e-a57b-b4b939ac83ae text.no_data{font-size:64px}
#chart-7e3a268b-7502-4e6e-a57b-b4b939ac83ae{background-color:black}#chart-7e3a268b-7502-4e6e-a57b-b4b939ac83ae path,#chart-7e3a268b-7502-4e6e-a57b-b4b939ac83ae line,#chart-7e3a268b-7502-4e6e-a57b-b4b939ac83ae rect,#chart-7e3a268b-7502-4e6e-a57b-b4b939ac83ae circle{-webkit-transition:250ms;-moz-transition:250ms;transition:250ms}#chart-7e3a268b-7502-4e6e-a57b-b4b939ac83ae .graph &gt; .background{fill:black}#chart-7e3a268b-7502-4e6e-a57b-b4b939ac83ae .plot &gt; .background{fill:#111}#chart-7e3a268b-7502-4e6e-a57b-b4b939ac83ae .graph{fill:#999}#chart-7e3a268b-7502-4e6e-a57b-b4b939ac83ae text.no_data{fill:#eee}#chart-7e3a268b-7502-4e6e-a57b-b4b939ac83ae .title{fill:#eee}#chart-7e3a268b-7502-4e6e-a57b-b4b939ac83ae .legends .legend text{fill:#999}#chart-7e3a268b-7502-4e6e-a57b-b4b939ac83ae .legends .legend:hover text{fill:#eee}#chart-7e3a268b-7502-4e6e-a57b-b4b939ac83ae .axis .line{stroke:#eee}#chart-7e3a268b-7502-4e6e-a57b-b4b939ac83ae .axis .guide.line{stroke:#555}#chart-7e3a268b-7502-4e6e-a57b-b4b939ac83ae .axis .major.line{stroke:#999}#chart-7e3a268b-7502-4e6e-a57b-b4b939ac83ae .axis text.major{stroke:#eee;fill:#eee}#chart-7e3a268b-7502-4e6e-a57b-b4b939ac83ae .axis.y .guides:hover .guide.line,#chart-7e3a268b-7502-4e6e-a57b-b4b939ac83ae .line-graph .axis.x .guides:hover .guide.line,#chart-7e3a268b-7502-4e6e-a57b-b4b939ac83ae .stackedline-graph .axis.x .guides:hover .guide.line,#chart-7e3a268b-7502-4e6e-a57b-b4b939ac83ae .xy-graph .axis.x .guides:hover .guide.line{stroke:#eee}#chart-7e3a268b-7502-4e6e-a57b-b4b939ac83ae .axis .guides:hover text{fill:#eee}#chart-7e3a268b-7502-4e6e-a57b-b4b939ac83ae .reactive{fill-opacity:.8}#chart-7e3a268b-7502-4e6e-a57b-b4b939ac83ae .reactive.active,#chart-7e3a268b-7502-4e6e-a57b-b4b939ac83ae .active .reactive{fill-opacity:.4}#chart-7e3a268b-7502-4e6e-a57b-b4b939ac83ae .series{stroke-width:1.0;stroke-linejoin:round;stroke-linecap:round;stroke-dasharray:0,0}#chart-7e3a268b-7502-4e6e-a57b-b4b939ac83ae .series text{fill:#eee}#chart-7e3a268b-7502-4e6e-a57b-b4b939ac83ae .tooltip rect{fill:#111;stroke:#eee}#chart-7e3a268b-7502-4e6e-a57b-b4b939ac83ae .tooltip text{fill:#eee}#chart-7e3a268b-7502-4e6e-a57b-b4b939ac83ae .map-element{fill:#999;stroke:#555 !important;opacity:.9;stroke-width:3;-webkit-transition:250ms;-moz-transition:250ms;-o-transition:250ms;transition:250ms}#chart-7e3a268b-7502-4e6e-a57b-b4b939ac83ae .map-element:hover{opacity:1;stroke-width:10}#chart-7e3a268b-7502-4e6e-a57b-b4b939ac83ae .color-0,#chart-7e3a268b-7502-4e6e-a57b-b4b939ac83ae .color-0 a:visited{stroke:#ff5995;fill:#ff5995}#chart-7e3a268b-7502-4e6e-a57b-b4b939ac83ae .color-1,#chart-7e3a268b-7502-4e6e-a57b-b4b939ac83ae .color-1 a:visited{stroke:#b6e354;fill:#b6e354}#chart-7e3a268b-7502-4e6e-a57b-b4b939ac83ae .color-2,#chart-7e3a268b-7502-4e6e-a57b-b4b939ac83ae .color-2 a:visited{stroke:#feed6c;fill:#feed6c}#chart-7e3a268b-7502-4e6e-a57b-b4b939ac83ae .color-3,#chart-7e3a268b-7502-4e6e-a57b-b4b939ac83ae .color-3 a:visited{stroke:#8cedff;fill:#8cedff}#chart-7e3a268b-7502-4e6e-a57b-b4b939ac83ae .color-4,#chart-7e3a268b-7502-4e6e-a57b-b4b939ac83ae .color-4 a:visited{stroke:#9e6ffe;fill:#9e6ffe}#chart-7e3a268b-7502-4e6e-a57b-b4b939ac83ae .color-5,#chart-7e3a268b-7502-4e6e-a57b-b4b939ac83ae .color-5 a:visited{stroke:#899ca1;fill:#899ca1}#chart-7e3a268b-7502-4e6e-a57b-b4b939ac83ae .color-6,#chart-7e3a268b-7502-4e6e-a57b-b4b939ac83ae .color-6 a:visited{stroke:#f8f8f2;fill:#f8f8f2}#chart-7e3a268b-7502-4e6e-a57b-b4b939ac83ae .color-7,#chart-7e3a268b-7502-4e6e-a57b-b4b939ac83ae .color-7 a:visited{stroke:#bf4646;fill:#bf4646}#chart-7e3a268b-7502-4e6e-a57b-b4b939ac83ae .color-8,#chart-7e3a268b-7502-4e6e-a57b-b4b939ac83ae .color-8 a:visited{stroke:#516083;fill:#516083}#chart-7e3a268b-7502-4e6e-a57b-b4b939ac83ae .color-9,#chart-7e3a268b-7502-4e6e-a57b-b4b939ac83ae .color-9 a:visited{stroke:#f92672;fill:#f92672}#chart-7e3a268b-7502-4e6e-a57b-b4b939ac83ae .color-10,#chart-7e3a268b-7502-4e6e-a57b-b4b939ac83ae .color-10 a:visited{stroke:#82b414;fill:#82b414}#chart-7e3a268b-7502-4e6e-a57b-b4b939ac83ae .color-11,#chart-7e3a268b-7502-4e6e-a57b-b4b939ac83ae .color-11 a:visited{stroke:#fd971f;fill:#fd971f}#chart-7e3a268b-7502-4e6e-a57b-b4b939ac83ae .color-12,#chart-7e3a268b-7502-4e6e-a57b-b4b939ac83ae .color-12 a:visited{stroke:#56c2d6;fill:#56c2d6}#chart-7e3a268b-7502-4e6e-a57b-b4b939ac83ae .color-13,#chart-7e3a268b-7502-4e6e-a57b-b4b939ac83ae .color-13 a:visited{stroke:#808384;fill:#808384}#chart-7e3a268b-7502-4e6e-a57b-b4b939ac83ae .color-14,#chart-7e3a268b-7502-4e6e-a57b-b4b939ac83ae .color-14 a:visited{stroke:#8c54fe;fill:#8c54fe}#chart-7e3a268b-7502-4e6e-a57b-b4b939ac83ae .color-15,#chart-7e3a268b-7502-4e6e-a57b-b4b939ac83ae .color-15 a:visited{stroke:#465457;fill:#465457}
#chart-7e3a268b-7502-4e6e-a57b-b4b939ac83ae text.no_data{text-anchor:middle}#chart-7e3a268b-7502-4e6e-a57b-b4b939ac83ae .guide.line{fill-opacity:0}#chart-7e3a268b-7502-4e6e-a57b-b4b939ac83ae .centered{text-anchor:middle}#chart-7e3a268b-7502-4e6e-a57b-b4b939ac83ae .title{text-anchor:middle}#chart-7e3a268b-7502-4e6e-a57b-b4b939ac83ae .legends .legend text{fill-opacity:1}#chart-7e3a268b-7502-4e6e-a57b-b4b939ac83ae .axis.x text{text-anchor:middle}#chart-7e3a268b-7502-4e6e-a57b-b4b939ac83ae .axis.x:not(.web) text[transform]{text-anchor:start}#chart-7e3a268b-7502-4e6e-a57b-b4b939ac83ae .axis.y text{text-anchor:end}#chart-7e3a268b-7502-4e6e-a57b-b4b939ac83ae .axis.y2 text{text-anchor:start}#chart-7e3a268b-7502-4e6e-a57b-b4b939ac83ae .axis.y .logarithmic text:not(.major),#chart-7e3a268b-7502-4e6e-a57b-b4b939ac83ae .axis.y2 .logarithmic text:not(.major){font-size:50%}#chart-7e3a268b-7502-4e6e-a57b-b4b939ac83ae .axis .guide.line{stroke-dasharray:4,4}#chart-7e3a268b-7502-4e6e-a57b-b4b939ac83ae .axis .major.guide.line{stroke-dasharray:6,6}#chart-7e3a268b-7502-4e6e-a57b-b4b939ac83ae .axis text.major{stroke-width:0.5px}#chart-7e3a268b-7502-4e6e-a57b-b4b939ac83ae .horizontal .axis.y .guide.line,#chart-7e3a268b-7502-4e6e-a57b-b4b939ac83ae .horizontal .axis.y2 .guide.line,#chart-7e3a268b-7502-4e6e-a57b-b4b939ac83ae .vertical .axis.x .guide.line{opacity:0}#chart-7e3a268b-7502-4e6e-a57b-b4b939ac83ae .horizontal .axis.always_show .guide.line,#chart-7e3a268b-7502-4e6e-a57b-b4b939ac83ae .vertical .axis.always_show .guide.line{opacity:1 !important}#chart-7e3a268b-7502-4e6e-a57b-b4b939ac83ae .axis.y .guides:hover .guide.line,#chart-7e3a268b-7502-4e6e-a57b-b4b939ac83ae .axis.y2 .guides:hover .guide.line,#chart-7e3a268b-7502-4e6e-a57b-b4b939ac83ae .axis.x .guides:hover .guide.line{opacity:1}#chart-7e3a268b-7502-4e6e-a57b-b4b939ac83ae .axis .guides:hover text{opacity:1}#chart-7e3a268b-7502-4e6e-a57b-b4b939ac83ae .nofill{fill:none}#chart-7e3a268b-7502-4e6e-a57b-b4b939ac83ae .subtle-fill{fill-opacity:.2}#chart-7e3a268b-7502-4e6e-a57b-b4b939ac83ae .dot{stroke-width:1px;fill-opacity:1}#chart-7e3a268b-7502-4e6e-a57b-b4b939ac83ae .dot.active{stroke-width:5px}#chart-7e3a268b-7502-4e6e-a57b-b4b939ac83ae .series text{stroke:none}#chart-7e3a268b-7502-4e6e-a57b-b4b939ac83ae .series text.active{opacity:1}#chart-7e3a268b-7502-4e6e-a57b-b4b939ac83ae .tooltip rect{fill-opacity:0.8}#chart-7e3a268b-7502-4e6e-a57b-b4b939ac83ae .tooltip text{fill-opacity:1}#chart-7e3a268b-7502-4e6e-a57b-b4b939ac83ae .tooltip text tspan.label{fill-opacity:.8}</style><script type="text/javascript">window.config = {"tooltip_font_size": 16, "x_labels_major_every": null, "style": {"foreground": "#999", "foreground_dark": "#555", "opacity": ".8", "stroke_width": 1.0, "foreground_light": "#eee", "stroke_dasharray": "0,0", "stroke_style": "round", "opacity_hover": ".4", "plot_background": "#111", "background": "black", "font_family": "monospace", "transition": "250ms", "colors": ["#ff5995", "#b6e354", "#feed6c", "#8cedff", "#9e6ffe", "#899ca1", "#f8f8f2", "#bf4646", "#516083", "#f92672", "#82b414", "#fd971f", "#56c2d6", "#808384", "#8c54fe", "#465457"]}, "strict": false, "y_labels_major_count": null, "y_labels": null, "y_label_rotation": 0, "show_only_major_dots": false, "explicit_size": false, "height": 768, "stroke": true, "legend_at_bottom_columns": null, "show_y_labels": true, "show_dots": false, "margin": 20, "legend_font_size": 14, "logarithmic": false, "title_font_size": 16, "human_readable": false, "margin_left": null, "show_x_guides": false, "show_x_labels": true, "js": ["http://kozea.github.io/pygal.js/javascripts/svg.jquery.js", "http://kozea.github.io/pygal.js/javascripts/pygal-tooltips.js"], "label_font_size": 10, "truncate_label": null, "print_zeroes": false, "legend_at_bottom": true, "range": [0, 768], "truncate_legend": null, "y_title": "Users", "x_labels": null, "zero": 0, "interpolate": null, "stack_from_top": false, "show_legend": true, "no_prefix": false, "rounded_bars": null, "include_x_axis": false, "value_font_size": 8, "show_minor_y_labels": true, "x_value_formatter": null, "mode": null, "spacing": 10, "show_minor_x_labels": true, "x_label_format": "%Y-%m-%d %H:%M:%S.%f", "title": "Latest Election Participation Per Hour", "missing_value_fill_truncation": "x", "order_min": null, "x_labels_major_count": null, "css": ["style.css", "graph.css"], "major_label_font_size": 10, "half_pie": false, "xrange": null, "x_labels_major": null, "fill": false, "tooltip_border_radius": 0, "legend_box_size": 12, "inner_radius": 0, "margin_top": null, "x_title": null, "width": 1024, "margin_bottom": null, "show_y_guides": true, "x_label_rotation": 0, "interpolation_precision": 250, "interpolation_parameters": {}, "dots_size": 2.5, "pretty_print": false, "print_values": false, "y_labels_major": null, "no_data_text": "No data", "y_labels_major_every": null, "margin_right": null, "no_data_font_size": 64, "disable_xml_declaration": false}</script><script type="text/javascript" xlink:href="http://kozea.github.io/pygal.js/javascripts/svg.jquery.js"/><script type="text/javascript" xlink:href="http://kozea.github.io/pygal.js/javascripts/pygal-tooltips.js"/></defs><title>Latest Election Participation Per Hour</title><g class="graph line-graph vertical"><rect class="background" height="768" width="1024" x="0" y="0"/><g class="plot" transform="translate(74, 46)"><rect class="background" height="657.0" width="930.0" x="0" y="0"/><g class="axis y"><g class="guides"><path class="axis major line" d="M0.000000 644.365385 h930.000000"/><text class="major" x="-5" y="647.8653846153846">0</text></g><g class="guides"><path class="guide line" d="M0.000000 562.108774 h930.000000"/><text class="" x="-5" y="565.6087740384615">100</text></g><g class="guides"><path class="guide line" d="M0.000000 479.852163 h930.000000"/><text class="" x="-5" y="483.35216346153845">200</text></g><g class="guides"><path class="guide line" d="M0.000000 397.595553 h930.000000"/><text class="" x="-5" y="401.09555288461536">300</text></g><g class="guides"><path class="guide line" d="M0.000000 315.338942 h930.000000"/><text class="" x="-5" y="318.8389423076923">400</text></g><g class="guides"><path class="major guide line" d="M0.000000 233.082332 h930.000000"/><text class="major" x="-5" y="236.58233173076923">500</text></g><g class="guides"><path class="guide line" d="M0.000000 150.825721 h930.000000"/><text class="" x="-5" y="154.32572115384613">600</text></g><g class="guides"><path class="guide line" d="M0.000000 68.569111 h930.000000"/><text class="" x="-5" y="72.0691105769231">700</text></g></g><g class="series serie-0 color-0"><path class="line reactive nofill" d="M17.884615 644.365385 L20.561953 644.365385 23.239291 644.365385 25.916628 644.365385 28.593966 644.365385 31.271304 644.365385 33.948641 644.365385 36.625979 644.365385 39.303316 644.365385 41.980654 644.365385 44.657992 644.365385 47.335329 644.365385 50.012667 644.365385 52.690005 644.365385 55.367342 644.365385 58.044680 644.365385 60.722018 644.365385 63.399355 644.365385 66.076693 644.365385 68.754030 644.365385 71.431368 644.365385 74.108706 644.365385 76.786043 644.365385 79.463381 644.365385 82.140719 644.365385 84.818056 644.365385 87.495394 644.365385 90.172731 644.365385 92.850069 644.365385 95.527407 644.365385 98.204744 644.365385 100.882082 644.365385 103.559420 644.365385 106.236757 644.365385 108.914095 644.365385 111.591433 644.365385 114.268770 644.365385 116.946108 644.365385 119.623445 644.365385 122.300783 644.365385 124.978121 644.365385 127.655458 644.365385 130.332796 644.365385 133.010134 644.365385 135.687471 644.365385 138.364809 644.365385 141.042146 644.365385 143.719484 644.365385 146.396822 644.365385 149.074159 644.365385 151.751497 644.365385 154.428835 644.365385 157.106172 644.365385 159.783510 644.365385 162.460848 644.365385 165.138185 644.365385 167.815523 644.365385 170.492860 644.365385 173.170198 644.365385 175.847536 644.365385 178.524873 644.365385 181.202211 644.365385 183.879549 644.365385 186.556886 644.365385 189.234224 644.365385 191.911561 644.365385 194.588899 644.365385 197.266237 644.365385 199.943574 644.365385 202.620912 644.365385 205.298250 644.365385 207.975587 644.365385 210.652925 644.365385 213.330263 644.365385 216.007600 644.365385 218.684938 644.365385 221.362275 644.365385 224.039613 644.365385 226.716951 644.365385 229.394288 644.365385 232.071626 644.365385 234.748964 644.365385 237.426301 644.365385 240.103639 644.365385 242.780977 644.365385 245.458314 644.365385 248.135652 644.365385 250.812989 644.365385 253.490327 644.365385 256.167665 644.365385 258.845002 644.365385 261.522340 644.365385 264.199678 644.365385 266.877015 644.365385 269.554353 644.365385 272.231690 644.365385 274.909028 644.365385 277.586366 644.365385 280.263703 644.365385 282.941041 644.365385 285.618379 644.365385 288.295716 644.365385 290.973054 644.365385 293.650392 644.365385 296.327729 644.365385 299.005067 644.365385 301.682404 644.365385 304.359742 644.365385 307.037080 644.365385 309.714417 644.365385 312.391755 644.365385 315.069093 644.365385 317.746430 644.365385 320.423768 644.365385 323.101105 644.365385 325.778443 644.365385 328.455781 644.365385 331.133118 644.365385 333.810456 644.365385 336.487794 644.365385 339.165131 644.365385 341.842469 644.365385 344.519807 644.365385 347.197144 644.365385 349.874482 644.365385 352.551819 644.365385 355.229157 644.365385 357.906495 644.365385 360.583832 644.365385 363.261170 644.365385 365.938508 644.365385 368.615845 644.365385 371.293183 644.365385 373.970520 644.365385 376.647858 644.365385 379.325196 644.365385 382.002533 644.365385 384.679871 644.365385 387.357209 644.365385 390.034546 644.365385 392.711884 644.365385 395.389222 644.365385 398.066559 644.365385 400.743897 644.365385 403.421234 644.365385 406.098572 644.365385 408.775910 644.365385 411.453247 644.365385 414.130585 644.365385 416.807923 644.365385 419.485260 644.365385 422.162598 644.365385 424.839936 644.365385 427.517273 644.365385 430.194611 644.365385 432.871948 644.365385 435.549286 644.365385 438.226624 644.365385 440.903961 644.365385 443.581299 644.365385 446.258637 644.365385 448.935974 644.365385 451.613312 644.365385 454.290649 644.365385 456.967987 644.365385 459.645325 644.365385 462.322662 644.365385 465.000000 644.365385 467.677338 644.365385 470.354675 644.365385 473.032013 644.365385 475.709351 644.365385 478.386688 644.365385 481.064026 644.365385 483.741363 644.365385 486.418701 644.365385 489.096039 644.365385 491.773376 644.365385 494.450714 644.365385 497.128052 644.365385 499.805389 644.365385 502.482727 644.365385 505.160064 644.365385 507.837402 644.365385 510.514740 644.365385 513.192077 644.365385 515.869415 644.365385 518.546753 644.365385 521.224090 644.365385 523.901428 644.365385 526.578766 644.365385 529.256103 644.365385 531.933441 644.365385 534.610778 644.365385 537.288116 644.365385 539.965454 644.365385 542.642791 644.365385 545.320129 644.365385 547.997467 644.365385 550.674804 644.365385 553.352142 644.365385 556.029480 644.365385 558.706817 644.365385 561.384155 644.365385 564.061492 644.365385 566.738830 644.365385 569.416168 644.365385 572.093505 644.365385 574.770843 644.365385 577.448181 644.365385 580.125518 644.365385 582.802856 644.365385 585.480193 644.365385 588.157531 644.365385 590.834869 644.365385 593.512206 644.365385 596.189544 644.365385 598.866882 644.365385 601.544219 644.365385 604.221557 644.365385 606.898895 644.365385 609.576232 644.365385 612.253570 644.365385 614.930907 644.365385 617.608245 644.365385 620.285583 644.365385 622.962920 644.365385 625.640258 644.365385 628.317596 644.365385 630.994933 644.365385 633.672271 644.365385 636.349608 644.365385 639.026946 644.365385 641.704284 644.365385 644.381621 644.365385 647.058959 644.365385 649.736297 644.365385 652.413634 644.365385 655.090972 644.365385 657.768310 644.365385 660.445647 644.365385 663.122985 644.365385 665.800322 644.365385 668.477660 644.365385 671.154998 644.365385 673.832335 644.365385 676.509673 644.365385 679.187011 644.365385 681.864348 644.365385 684.541686 644.365385 687.219023 644.365385 689.896361 644.365385 692.573699 644.365385 695.251036 644.365385 697.928374 644.365385 700.605712 644.365385 703.283049 644.365385 705.960387 644.365385 708.637725 644.365385 711.315062 644.365385 713.992400 644.365385 716.669737 644.365385 719.347075 644.365385 722.024413 644.365385 724.701750 -1991.136418 727.379088 -568.919621 730.056426 -28.493690 732.733763 246.243389 735.411101 334.257963 738.088439 370.450871 740.765776 397.595553 743.443114 358.934946 746.120451 265.162410 748.797789 272.565505 751.475127 276.678335 754.152464 222.388972 756.829802 273.388071 759.507140 224.034105 762.184477 263.517278 764.861815 336.725661 767.539152 349.886719 770.216490 355.644681 772.893828 369.628305 775.571165 391.837590 778.248503 428.030499 780.925841 397.595553 783.603178 454.352614 786.280516 420.627404 788.957854 491.368089 791.635191 518.512770 794.312529 546.480018 796.989866 561.286208 799.667204 584.318059 802.344542 578.560096 805.021879 583.495493 807.699217 589.253456 810.376555 585.140625 813.053892 557.995944 815.731230 524.270733 818.408567 534.141526 821.085905 499.593750 823.763243 527.560998 826.440580 505.351713 829.117918 506.174279 831.795256 522.625601 834.472593 519.335337 837.149931 542.367188 839.827269 515.222506 842.504606 518.512770 845.181944 522.625601 847.859281 525.093299 850.536619 532.496394 853.213957 547.302584 855.891294 542.367188 858.568632 569.511869 861.245970 551.415415 863.923307 554.705679 866.600645 542.367188 869.277982 534.141526 871.955320 524.270733 874.632658 407.466346 877.309995 310.403546 879.987333 176.325270 882.664671 34.843900 885.342008 86.665565 888.019346 120.390775 890.696684 303.823017 893.374021 344.128756 896.051359 279.968600 898.728696 268.452674 901.406034 290.661959 904.083372 372.918570 906.760709 454.352614 909.438047 508.641977 912.115385 562.108774"/></g><g class="series serie-1 color-1"><path class="line reactive nofill" d="M17.884615 -1006.524790 L20.561953 26.618239 23.239291 299.710186 25.916628 414.869441 28.593966 428.030499 31.271304 500.416316 33.948641 499.593750 36.625979 475.739333 39.303316 392.660156 41.980654 320.274339 44.657992 305.468149 47.335329 180.438101 50.012667 219.921274 52.690005 355.644681 55.367342 378.676532 58.044680 423.917668 60.722018 415.692007 63.399355 420.627404 66.076693 418.982272 68.754030 447.772085 71.431368 489.722957 74.108706 506.996845 76.786043 522.625601 79.463381 529.206130 82.140719 553.883113 84.818056 533.318960 87.495394 591.721154 90.172731 606.527344 92.850069 598.301683 95.527407 600.769381 98.204744 615.575571 100.882082 617.220703 103.559420 589.253456 106.236757 580.205228 108.914095 574.447266 111.591433 549.770282 114.268770 549.770282 116.946108 551.415415 119.623445 556.350811 122.300783 571.157001 124.978121 560.463642 127.655458 557.995944 130.332796 569.511869 133.010134 579.382662 135.687471 590.076022 138.364809 579.382662 141.042146 585.963191 143.719484 595.833984 146.396822 595.011418 149.074159 604.882212 151.751497 605.704778 154.428835 629.559195 157.106172 627.091496 159.783510 626.268930 162.460848 621.333534 165.138185 626.268930 167.815523 609.817608 170.492860 600.769381 173.170198 607.349910 175.847536 586.785757 178.524873 585.963191 181.202211 595.011418 183.879549 594.188852 186.556886 586.785757 189.234224 595.833984 191.911561 584.318059 194.588899 582.672927 197.266237 585.963191 199.943574 599.124249 202.620912 613.107873 205.298250 608.172476 207.975587 606.527344 210.652925 597.479117 213.330263 614.753005 216.007600 625.446364 218.684938 626.268930 221.362275 632.026893 224.039613 630.381761 226.716951 628.736629 229.394288 632.849459 232.071626 619.688401 234.748964 615.575571 237.426301 607.349910 240.103639 611.462740 242.780977 609.817608 245.458314 599.946815 248.135652 600.769381 250.812989 609.817608 253.490327 602.414513 256.167665 605.704778 258.845002 603.237079 261.522340 612.285306 264.199678 622.978666 266.877015 618.865835 269.554353 621.333534 272.231690 622.978666 274.909028 615.575571 277.586366 627.091496 280.263703 629.559195 282.941041 632.849459 285.618379 630.381761 288.295716 633.672025 290.973054 637.784856 293.650392 637.784856 296.327729 631.204327 299.005067 636.962290 301.682404 630.381761 304.359742 630.381761 307.037080 636.139724 309.714417 634.494591 312.391755 636.962290 315.069093 627.091496 317.746430 628.736629 320.423768 634.494591 323.101105 624.623798 325.778443 627.914062 328.455781 629.559195 331.133118 627.091496 333.810456 622.978666 336.487794 631.204327 339.165131 634.494591 341.842469 636.962290 344.519807 628.736629 347.197144 632.849459 349.874482 635.317157 352.551819 633.672025 355.229157 635.317157 357.906495 637.784856 360.583832 632.849459 363.261170 633.672025 365.938508 633.672025 368.615845 635.317157 371.293183 636.139724 373.970520 625.446364 376.647858 630.381761 379.325196 627.914062 382.002533 630.381761 384.679871 631.204327 387.357209 631.204327 390.034546 630.381761 392.711884 634.494591 395.389222 632.026893 398.066559 630.381761 400.743897 624.623798 403.421234 630.381761 406.098572 628.736629 408.775910 635.317157 411.453247 635.317157 414.130585 635.317157 416.807923 633.672025 419.485260 629.559195 422.162598 636.962290 424.839936 633.672025 427.517273 623.801232 430.194611 623.801232 432.871948 605.704778 435.549286 601.591947 438.226624 595.011418 440.903961 604.882212 443.581299 599.124249 446.258637 604.059645 448.935974 584.318059 451.613312 595.833984 454.290649 618.043269 456.967987 614.753005 459.645325 612.285306 462.322662 609.817608 465.000000 607.349910 467.677338 -3452.013822 470.354675 -1301.826022 473.032013 -407.696665 475.709351 -132.137019 478.386688 -21.913161 481.064026 85.842999 483.741363 14.279748 486.418701 28.263371 489.096039 -248.118840 491.773376 -656.111629 494.450714 -1067.394681 497.128052 -1534.612230 499.805389 -1227.795072 502.482727 -1004.879657 505.160064 -628.966947 507.837402 -475.969651 510.514740 -501.469201 513.192077 -436.486478 515.869415 -387.132512 518.546753 -186.426382 521.224090 11.812049 523.901428 94.891226 526.578766 136.019531 529.256103 182.905799 531.933441 253.646484 534.610778 300.532752 537.288116 415.692007 539.965454 497.948618 542.642791 523.448167 545.320129 511.109675 547.997467 517.690204 550.674804 485.610126 553.352142 431.320763 556.029480 366.338041 558.706817 271.742939 561.384155 222.388972 564.061492 221.566406 566.738830 200.179688 569.416168 250.356220 572.093505 263.517278 574.770843 264.339844 577.448181 255.291617 580.125518 244.598257 582.802856 327.677434 585.480193 344.951322 588.157531 412.401743 590.834869 404.998648 593.512206 434.611028 596.189544 437.901292 598.866882 503.706581 601.544219 521.803035 604.221557 545.657452 606.898895 572.802133 609.576232 550.592849 612.253570 572.802133 614.930907 553.060547 617.608245 535.786659 620.285583 531.673828 622.962920 440.368990 625.640258 436.256160 628.317596 432.143329 630.994933 406.643780 633.672271 429.675631 636.349608 441.191556 639.026946 403.353516 641.704284 425.562800 644.381621 437.078726 647.058959 491.368089 649.736297 465.868540 652.413634 487.255258 655.090972 527.560998 657.768310 528.383564 660.445647 521.803035 663.122985 544.012320 665.800322 574.447266 668.477660 590.898588 671.154998 595.833984 673.832335 605.704778 676.509673 593.366286 679.187011 591.721154 681.864348 585.963191 684.541686 570.334435 687.219023 559.641076 689.896361 543.189754 692.573699 511.932242 695.251036 509.464543 697.928374 539.076923 700.605712 544.012320 703.283049 500.416316 705.960387 503.706581 708.637725 494.658353 711.315062 534.964093 713.992400 565.399038 716.669737 547.302584 719.347075 550.592849 722.024413 568.689303 724.701750 -209.458233 727.379088 187.018630 730.056426 353.999549 732.733763 459.288011 735.411101 526.738431 738.088439 539.899489 740.765776 563.753906 743.443114 548.947716 746.120451 525.915865 748.797789 508.641977 751.475127 507.819411 754.152464 491.368089 756.829802 512.754808 759.507140 473.271635 762.184477 504.529147 764.861815 525.915865 767.539152 491.368089 770.216490 519.335337 772.893828 516.045072 775.571165 517.690204 778.248503 544.012320 780.925841 530.851262 783.603178 548.947716 786.280516 522.625601 788.957854 555.528245 791.635191 562.931340 794.312529 593.366286 796.989866 583.495493 799.667204 607.349910 802.344542 606.527344 805.021879 614.753005 807.699217 611.462740 810.376555 610.640174 813.053892 604.882212 815.731230 588.430889 818.408567 585.140625 821.085905 554.705679 823.763243 559.641076 826.440580 558.818510 829.117918 584.318059 831.795256 562.108774 834.472593 576.092398 837.149931 580.205228 839.827269 561.286208 842.504606 570.334435 845.181944 564.576472 847.859281 589.253456 850.536619 582.672927 853.213957 573.624700 855.891294 584.318059 858.568632 602.414513 861.245970 598.301683 863.923307 599.124249 866.600645 581.850361 869.277982 587.608323 871.955320 576.092398 874.632658 548.125150 877.309995 501.238882 879.987333 439.546424 882.664671 395.127855 885.342008 356.467248 888.019346 336.725661 890.696684 441.191556 893.374021 446.126953 896.051359 413.224309 898.728696 411.579177 901.406034 422.272536 904.083372 450.239784 906.760709 512.754808 909.438047 520.980469 912.115385 568.689303"/></g></g><g class="titles"><text class="title plot_title" x="512.0" y="26">Latest Election Participation Per Hour</text><text class="title" x="0" y="400.5" transform="rotate(-90 0.000000 374.500000)">Users</text></g><g class="plot overlay" transform="translate(74, 46)"><g class="series serie-0 color-0"/><g class="series serie-1 color-1"/></g><g class="plot text-overlay" transform="translate(74, 46)"><g class="series serie-0 color-0"/><g class="series serie-1 color-1"/></g><g class="plot tooltip-overlay" transform="translate(74, 46)"><g class="tooltip" style="opacity: 0" transform="translate(0 0)"><a><rect class="tooltip-box" height="0" rx="0" ry="0" width="0"/><text class="text"><tspan class="label"/><tspan class="value"/></text></a></g></g><g class="legends" transform="translate(84, 713)"><g class="legend reactive activate-serie" id="activate-serie-0"><rect class="color-0 reactive" height="12" width="12" x="0.0" y="1.0"/><text x="17.0" y="11.2">constituents</text></g><g class="legend reactive activate-serie" id="activate-serie-1"><rect class="color-1 reactive" height="12" width="12" x="465.0" y="1.0"/><text x="482.0" y="11.2">caucus</text></g></g></g></svg>