<?xml version='1.0' encoding='utf-8'?>
<svg xmlns:xlink="http://www.w3.org/1999/xlink" class="pygal-chart" id="chart-4b974f91-eb24-49ef-83e3-b7d89d1445df" viewBox="0 0 1024 768" xmlns="http://www.w3.org/2000/svg"><!--Generated with pygal 1.7.0 (etree) ©Kozea 2011-2014 on 2015-04-20--><!--http://pygal.org--><!--http://github.com/Kozea/pygal--><defs><style type="text/css">#chart-4b974f91-eb24-49ef-83e3-b7d89d1445df .title{font-family:"monospace";font-size:16px}#chart-4b974f91-eb24-49ef-83e3-b7d89d1445df .legends .legend text{font-family:"monospace";font-size:14px}#chart-4b974f91-eb24-49ef-83e3-b7d89d1445df .axis text{font-family:"monospace";font-size:10px}#chart-4b974f91-eb24-49ef-83e3-b7d89d1445df .axis text.major{font-family:"monospace";font-size:10px}#chart-4b974f91-eb24-49ef-83e3-b7d89d1445df .series text{font-family:"monospace";font-size:8px}#chart-4b974f91-eb24-49ef-83e3-b7d89d1445df .tooltip text{font-family:"monospace";font-size:16px}#chart-4b974f91-eb24-49ef-83e3-b7d89d1445df text.no_data{font-size:64px}
#chart-4b974f91-eb24-49ef-83e3-b7d89d1445df{background-color:black}#chart-4b974f91-eb24-49ef-83e3-b7d89d1445df path,#chart-4b974f91-eb24-49ef-83e3-b7d89d1445df line,#chart-4b974f91-eb24-49ef-83e3-b7d89d1445df rect,#chart-4b974f91-eb24-49ef-83e3-b7d89d1445df circle{-webkit-transition:250ms;-moz-transition:250ms;transition:250ms}#chart-4b974f91-eb24-49ef-83e3-b7d89d1445df .graph &gt; .background{fill:black}#chart-4b974f91-eb24-49ef-83e3-b7d89d1445df .plot &gt; .background{fill:#111}#chart-4b974f91-eb24-49ef-83e3-b7d89d1445df .graph{fill:#999}#chart-4b974f91-eb24-49ef-83e3-b7d89d1445df text.no_data{fill:#eee}#chart-4b974f91-eb24-49ef-83e3-b7d89d1445df .title{fill:#eee}#chart-4b974f91-eb24-49ef-83e3-b7d89d1445df .legends .legend text{fill:#999}#chart-4b974f91-eb24-49ef-83e3-b7d89d1445df .legends .legend:hover text{fill:#eee}#chart-4b974f91-eb24-49ef-83e3-b7d89d1445df .axis .line{stroke:#eee}#chart-4b974f91-eb24-49ef-83e3-b7d89d1445df .axis .guide.line{stroke:#555}#chart-4b974f91-eb24-49ef-83e3-b7d89d1445df .axis .major.line{stroke:#999}#chart-4b974f91-eb24-49ef-83e3-b7d89d1445df .axis text.major{stroke:#eee;fill:#eee}#chart-4b974f91-eb24-49ef-83e3-b7d89d1445df .axis.y .guides:hover .guide.line,#chart-4b974f91-eb24-49ef-83e3-b7d89d1445df .line-graph .axis.x .guides:hover .guide.line,#chart-4b974f91-eb24-49ef-83e3-b7d89d1445df .stackedline-graph .axis.x .guides:hover .guide.line,#chart-4b974f91-eb24-49ef-83e3-b7d89d1445df .xy-graph .axis.x .guides:hover .guide.line{stroke:#eee}#chart-4b974f91-eb24-49ef-83e3-b7d89d1445df .axis .guides:hover text{fill:#eee}#chart-4b974f91-eb24-49ef-83e3-b7d89d1445df .reactive{fill-opacity:.8}#chart-4b974f91-eb24-49ef-83e3-b7d89d1445df .reactive.active,#chart-4b974f91-eb24-49ef-83e3-b7d89d1445df .active .reactive{fill-opacity:.4}#chart-4b974f91-eb24-49ef-83e3-b7d89d1445df .series{stroke-width:1.0;stroke-linejoin:round;stroke-linecap:round;stroke-dasharray:0,0}#chart-4b974f91-eb24-49ef-83e3-b7d89d1445df .series text{fill:#eee}#chart-4b974f91-eb24-49ef-83e3-b7d89d1445df .tooltip rect{fill:#111;stroke:#eee}#chart-4b974f91-eb24-49ef-83e3-b7d89d1445df .tooltip text{fill:#eee}#chart-4b974f91-eb24-49ef-83e3-b7d89d1445df .map-element{fill:#999;stroke:#555 !important;opacity:.9;stroke-width:3;-webkit-transition:250ms;-moz-transition:250ms;-o-transition:250ms;transition:250ms}#chart-4b974f91-eb24-49ef-83e3-b7d89d1445df .map-element:hover{opacity:1;stroke-width:10}#chart-4b974f91-eb24-49ef-83e3-b7d89d1445df .color-0,#chart-4b974f91-eb24-49ef-83e3-b7d89d1445df .color-0 a:visited{stroke:#ff5995;fill:#ff5995}#chart-4b974f91-eb24-49ef-83e3-b7d89d1445df .color-1,#chart-4b974f91-eb24-49ef-83e3-b7d89d1445df .color-1 a:visited{stroke:#b6e354;fill:#b6e354}#chart-4b974f91-eb24-49ef-83e3-b7d89d1445df .color-2,#chart-4b974f91-eb24-49ef-83e3-b7d89d1445df .color-2 a:visited{stroke:#feed6c;fill:#feed6c}#chart-4b974f91-eb24-49ef-83e3-b7d89d1445df .color-3,#chart-4b974f91-eb24-49ef-83e3-b7d89d1445df .color-3 a:visited{stroke:#8cedff;fill:#8cedff}#chart-4b974f91-eb24-49ef-83e3-b7d89d1445df .color-4,#chart-4b974f91-eb24-49ef-83e3-b7d89d1445df .color-4 a:visited{stroke:#9e6ffe;fill:#9e6ffe}#chart-4b974f91-eb24-49ef-83e3-b7d89d1445df .color-5,#chart-4b974f91-eb24-49ef-83e3-b7d89d1445df .color-5 a:visited{stroke:#899ca1;fill:#899ca1}#chart-4b974f91-eb24-49ef-83e3-b7d89d1445df .color-6,#chart-4b974f91-eb24-49ef-83e3-b7d89d1445df .color-6 a:visited{stroke:#f8f8f2;fill:#f8f8f2}#chart-4b974f91-eb24-49ef-83e3-b7d89d1445df .color-7,#chart-4b974f91-eb24-49ef-83e3-b7d89d1445df .color-7 a:visited{stroke:#bf4646;fill:#bf4646}#chart-4b974f91-eb24-49ef-83e3-b7d89d1445df .color-8,#chart-4b974f91-eb24-49ef-83e3-b7d89d1445df .color-8 a:visited{stroke:#516083;fill:#516083}#chart-4b974f91-eb24-49ef-83e3-b7d89d1445df .color-9,#chart-4b974f91-eb24-49ef-83e3-b7d89d1445df .color-9 a:visited{stroke:#f92672;fill:#f92672}#chart-4b974f91-eb24-49ef-83e3-b7d89d1445df .color-10,#chart-4b974f91-eb24-49ef-83e3-b7d89d1445df .color-10 a:visited{stroke:#82b414;fill:#82b414}#chart-4b974f91-eb24-49ef-83e3-b7d89d1445df .color-11,#chart-4b974f91-eb24-49ef-83e3-b7d89d1445df .color-11 a:visited{stroke:#fd971f;fill:#fd971f}#chart-4b974f91-eb24-49ef-83e3-b7d89d1445df .color-12,#chart-4b974f91-eb24-49ef-83e3-b7d89d1445df .color-12 a:visited{stroke:#56c2d6;fill:#56c2d6}#chart-4b974f91-eb24-49ef-83e3-b7d89d1445df .color-13,#chart-4b974f91-eb24-49ef-83e3-b7d89d1445df .color-13 a:visited{stroke:#808384;fill:#808384}#chart-4b974f91-eb24-49ef-83e3-b7d89d1445df .color-14,#chart-4b974f91-eb24-49ef-83e3-b7d89d1445df .color-14 a:visited{stroke:#8c54fe;fill:#8c54fe}#chart-4b974f91-eb24-49ef-83e3-b7d89d1445df .color-15,#chart-4b974f91-eb24-49ef-83e3-b7d89d1445df .color-15 a:visited{stroke:#465457;fill:#465457}
#chart-4b974f91-eb24-49ef-83e3-b7d89d1445df text.no_data{text-anchor:middle}#chart-4b974f91-eb24-49ef-83e3-b7d89d1445df .guide.line{fill-opacity:0}#chart-4b974f91-eb24-49ef-83e3-b7d89d1445df .centered{text-anchor:middle}#chart-4b974f91-eb24-49ef-83e3-b7d89d1445df .title{text-anchor:middle}#chart-4b974f91-eb24-49ef-83e3-b7d89d1445df .legends .legend text{fill-opacity:1}#chart-4b974f91-eb24-49ef-83e3-b7d89d1445df .axis.x text{text-anchor:middle}#chart-4b974f91-eb24-49ef-83e3-b7d89d1445df .axis.x:not(.web) text[transform]{text-anchor:start}#chart-4b974f91-eb24-49ef-83e3-b7d89d1445df .axis.y text{text-anchor:end}#chart-4b974f91-eb24-49ef-83e3-b7d89d1445df .axis.y2 text{text-anchor:start}#chart-4b974f91-eb24-49ef-83e3-b7d89d1445df .axis.y .logarithmic text:not(.major),#chart-4b974f91-eb24-49ef-83e3-b7d89d1445df .axis.y2 .logarithmic text:not(.major){font-size:50%}#chart-4b974f91-eb24-49ef-83e3-b7d89d1445df .axis .guide.line{stroke-dasharray:4,4}#chart-4b974f91-eb24-49ef-83e3-b7d89d1445df .axis .major.guide.line{stroke-dasharray:6,6}#chart-4b974f91-eb24-49ef-83e3-b7d89d1445df .axis text.major{stroke-width:0.5px}#chart-4b974f91-eb24-49ef-83e3-b7d89d1445df .horizontal .axis.y .guide.line,#chart-4b974f91-eb24-49ef-83e3-b7d89d1445df .horizontal .axis.y2 .guide.line,#chart-4b974f91-eb24-49ef-83e3-b7d89d1445df .vertical .axis.x .guide.line{opacity:0}#chart-4b974f91-eb24-49ef-83e3-b7d89d1445df .horizontal .axis.always_show .guide.line,#chart-4b974f91-eb24-49ef-83e3-b7d89d1445df .vertical .axis.always_show .guide.line{opacity:1 !important}#chart-4b974f91-eb24-49ef-83e3-b7d89d1445df .axis.y .guides:hover .guide.line,#chart-4b974f91-eb24-49ef-83e3-b7d89d1445df .axis.y2 .guides:hover .guide.line,#chart-4b974f91-eb24-49ef-83e3-b7d89d1445df .axis.x .guides:hover .guide.line{opacity:1}#chart-4b974f91-eb24-49ef-83e3-b7d89d1445df .axis .guides:hover text{opacity:1}#chart-4b974f91-eb24-49ef-83e3-b7d89d1445df .nofill{fill:none}#chart-4b974f91-eb24-49ef-83e3-b7d89d1445df .subtle-fill{fill-opacity:.2}#chart-4b974f91-eb24-49ef-83e3-b7d89d1445df .dot{stroke-width:1px;fill-opacity:1}#chart-4b974f91-eb24-49ef-83e3-b7d89d1445df .dot.active{stroke-width:5px}#chart-4b974f91-eb24-49ef-83e3-b7d89d1445df .series text{stroke:none}#chart-4b974f91-eb24-49ef-83e3-b7d89d1445df .series text.active{opacity:1}#chart-4b974f91-eb24-49ef-83e3-b7d89d1445df .tooltip rect{fill-opacity:0.8}#chart-4b974f91-eb24-49ef-83e3-b7d89d1445df .tooltip text{fill-opacity:1}#chart-4b974f91-eb24-49ef-83e3-b7d89d1445df .tooltip text tspan.label{fill-opacity:.8}</style><script type="text/javascript">window.config = {"margin_right": null, "interpolation_parameters": {}, "x_labels_major_every": null, "human_readable": false, "no_data_text": "No data", "y_labels_major_count": null, "half_pie": false, "x_labels": null, "js": ["http://kozea.github.io/pygal.js/javascripts/svg.jquery.js", "http://kozea.github.io/pygal.js/javascripts/pygal-tooltips.js"], "show_only_major_dots": false, "show_y_labels": true, "y_title": "Users", "legend_at_bottom_columns": null, "strict": false, "zero": 0, "margin_left": null, "x_value_formatter": null, "show_dots": false, "y_label_rotation": 0, "legend_font_size": 14, "pretty_print": false, "stroke": true, "show_legend": true, "range": null, "rounded_bars": null, "tooltip_border_radius": 0, "legend_box_size": 12, "css": ["style.css", "graph.css"], "value_font_size": 8, "print_values": false, "label_font_size": 10, "x_labels_major_count": null, "missing_value_fill_truncation": "x", "show_minor_y_labels": true, "spacing": 10, "truncate_label": null, "order_min": null, "truncate_legend": null, "explicit_size": false, "x_title": null, "mode": null, "disable_xml_declaration": false, "title": "Latest Election Participation", "major_label_font_size": 10, "inner_radius": 0, "x_label_format": "%Y-%m-%d %H:%M:%S.%f", "x_label_rotation": 0, "stack_from_top": false, "x_labels_major": null, "style": {"foreground": "#999", "stroke_width": 1.0, "plot_background": "#111", "font_family": "monospace", "background": "black", "foreground_dark": "#555", "stroke_style": "round", "opacity": ".8", "colors": ["#ff5995", "#b6e354", "#feed6c", "#8cedff", "#9e6ffe", "#899ca1", "#f8f8f2", "#bf4646", "#516083", "#f92672", "#82b414", "#fd971f", "#56c2d6", "#808384", "#8c54fe", "#465457"], "foreground_light": "#eee", "opacity_hover": ".4", "transition": "250ms", "stroke_dasharray": "0,0"}, "show_y_guides": true, "margin": 20, "tooltip_font_size": 16, "margin_bottom": null, "show_minor_x_labels": true, "print_zeroes": false, "y_labels_major_every": null, "width": 1024, "xrange": null, "margin_top": null, "height": 768, "title_font_size": 16, "y_labels_major": null, "logarithmic": false, "dots_size": 2.5, "interpolate": null, "no_prefix": false, "fill": false, "y_labels": null, "interpolation_precision": 250, "include_x_axis": false, "show_x_labels": true, "no_data_font_size": 64, "legend_at_bottom": true, "show_x_guides": false}</script><script type="text/javascript" xlink:href="http://kozea.github.io/pygal.js/javascripts/svg.jquery.js" /><script type="text/javascript" xlink:href="http://kozea.github.io/pygal.js/javascripts/pygal-tooltips.js" /></defs><title>Latest Election Participation</title><g class="graph line-graph vertical"><rect class="background" height="768" width="1024" x="0" y="0" /><g class="plot" transform="translate(86, 46)"><rect class="background" height="657.0" width="918.0" x="0" y="0" /><g class="axis y"><g class="guides"><path class="axis major line" d="M0.000000 644.365385 h918.000000" /><text class="major" x="-5" y="647.8653846153846">0</text></g><g class="guides"><path class="guide line" d="M0.000000 562.380988 h918.000000" /><text class="" x="-5" y="565.8809878558272">10000</text></g><g class="guides"><path class="guide line" d="M0.000000 480.396591 h918.000000" /><text class="" x="-5" y="483.89659109626996">20000</text></g><g class="guides"><path class="guide line" d="M0.000000 398.412194 h918.000000" /><text class="" x="-5" y="401.91219433671256">30000</text></g><g class="guides"><path class="guide line" d="M0.000000 316.427798 h918.000000" /><text class="" x="-5" y="319.9277975771552">40000</text></g><g class="guides"><path class="major guide line" d="M0.000000 234.443401 h918.000000" /><text class="major" x="-5" y="237.94340081759793">50000</text></g><g class="guides"><path class="guide line" d="M0.000000 152.459004 h918.000000" /><text class="" x="-5" y="155.9590040580406">60000</text></g><g class="guides"><path class="guide line" d="M0.000000 70.474607 h918.000000" /><text class="" x="-5" y="73.97460729848319">70000</text></g></g><g class="series serie-0 color-0"><path class="line reactive nofill" d="M17.653846 644.365385 L20.227293 644.365385 22.800740 644.365385 25.374187 644.365385 27.947634 644.365385 30.521081 644.365385 33.094528 644.365385 35.667975 644.365385 38.241422 644.365385 40.814869 644.365385 43.388316 644.365385 45.961763 644.365385 48.535210 644.365385 51.108657 644.365385 53.682104 644.365385 56.255551 644.365385 58.828998 644.365385 61.402444 644.365385 63.975891 644.365385 66.549338 644.365385 69.122785 644.365385 71.696232 644.365385 74.269679 644.365385 76.843126 644.365385 79.416573 644.365385 81.990020 644.365385 84.563467 644.365385 87.136914 644.365385 89.710361 644.365385 92.283808 644.365385 94.857255 644.365385 97.430702 644.365385 100.004149 644.365385 102.577596 644.365385 105.151043 644.365385 107.724490 644.365385 110.297937 644.365385 112.871384 644.365385 115.444831 644.365385 118.018278 644.365385 120.591725 644.365385 123.165172 644.365385 125.738619 644.365385 128.312065 644.365385 130.885512 644.365385 133.458959 644.365385 136.032406 644.365385 138.605853 644.365385 141.179300 644.365385 143.752747 644.365385 146.326194 644.365385 148.899641 644.365385 151.473088 644.365385 154.046535 644.365385 156.619982 644.365385 159.193429 644.365385 161.766876 644.365385 164.340323 644.365385 166.913770 644.365385 169.487217 644.365385 172.060664 644.365385 174.634111 644.365385 177.207558 644.365385 179.781005 644.365385 182.354452 644.365385 184.927899 644.365385 187.501346 644.365385 190.074793 644.365385 192.648240 644.365385 195.221686 644.365385 197.795133 644.365385 200.368580 644.365385 202.942027 644.365385 205.515474 644.365385 208.088921 644.365385 210.662368 644.365385 213.235815 644.365385 215.809262 644.365385 218.382709 644.365385 220.956156 644.365385 223.529603 644.365385 226.103050 644.365385 228.676497 644.365385 231.249944 644.365385 233.823391 644.365385 236.396838 644.365385 238.970285 644.365385 241.543732 644.365385 244.117179 644.365385 246.690626 644.365385 249.264073 644.365385 251.837520 644.365385 254.410967 644.365385 256.984414 644.365385 259.557861 644.365385 262.131307 644.365385 264.704754 644.365385 267.278201 644.365385 269.851648 644.365385 272.425095 644.365385 274.998542 644.365385 277.571989 644.365385 280.145436 644.365385 282.718883 644.365385 285.292330 644.365385 287.865777 644.365385 290.439224 644.365385 293.012671 644.365385 295.586118 644.365385 298.159565 644.365385 300.733012 644.365385 303.306459 644.365385 305.879906 644.365385 308.453353 644.365385 311.026800 644.365385 313.600247 644.365385 316.173694 644.365385 318.747141 644.365385 321.320588 644.365385 323.894035 644.365385 326.467481 644.365385 329.040928 644.365385 331.614375 644.365385 334.187822 644.365385 336.761269 644.365385 339.334716 644.365385 341.908163 644.365385 344.481610 644.365385 347.055057 644.365385 349.628504 644.365385 352.201951 644.365385 354.775398 644.365385 357.348845 644.365385 359.922292 644.365385 362.495739 644.365385 365.069186 644.365385 367.642633 644.365385 370.216080 644.365385 372.789527 644.365385 375.362974 644.365385 377.936421 644.365385 380.509868 644.365385 383.083315 644.365385 385.656762 644.365385 388.230209 644.365385 390.803656 644.365385 393.377102 644.365385 395.950549 644.365385 398.523996 644.365385 401.097443 644.365385 403.670890 644.365385 406.244337 644.365385 408.817784 644.365385 411.391231 644.365385 413.964678 644.365385 416.538125 644.365385 419.111572 644.365385 421.685019 644.365385 424.258466 644.365385 426.831913 644.365385 429.405360 644.365385 431.978807 644.365385 434.552254 644.365385 437.125701 644.365385 439.699148 644.365385 442.272595 644.365385 444.846042 644.365385 447.419489 644.365385 449.992936 644.365385 452.566383 644.365385 455.139830 644.365385 457.713277 644.365385 460.286723 644.365385 462.860170 644.365385 465.433617 644.365385 468.007064 644.365385 470.580511 644.365385 473.153958 644.365385 475.727405 644.365385 478.300852 644.365385 480.874299 644.365385 483.447746 644.365385 486.021193 644.365385 488.594640 644.365385 491.168087 644.365385 493.741534 644.365385 496.314981 644.365385 498.888428 644.365385 501.461875 644.365385 504.035322 644.365385 506.608769 644.365385 509.182216 644.365385 511.755663 644.365385 514.329110 644.365385 516.902557 644.365385 519.476004 644.365385 522.049451 644.365385 524.622898 644.365385 527.196344 644.365385 529.769791 644.365385 532.343238 644.365385 534.916685 644.365385 537.490132 644.365385 540.063579 644.365385 542.637026 644.365385 545.210473 644.365385 547.783920 644.365385 550.357367 644.365385 552.930814 644.365385 555.504261 644.365385 558.077708 644.365385 560.651155 644.365385 563.224602 644.365385 565.798049 644.365385 568.371496 644.365385 570.944943 644.365385 573.518390 644.365385 576.091837 644.365385 578.665284 644.365385 581.238731 644.365385 583.812178 644.365385 586.385625 644.365385 588.959072 644.365385 591.532519 644.365385 594.105965 644.365385 596.679412 644.365385 599.252859 644.365385 601.826306 644.365385 604.399753 644.365385 606.973200 644.365385 609.546647 644.365385 612.120094 644.365385 614.693541 644.365385 617.266988 644.365385 619.840435 644.365385 622.413882 644.365385 624.987329 644.365385 627.560776 644.365385 630.134223 644.365385 632.707670 644.365385 635.281117 644.365385 637.854564 644.365385 640.428011 644.365385 643.001458 644.365385 645.574905 644.365385 648.148352 644.365385 650.721799 644.365385 653.295246 644.365385 655.868693 644.365385 658.442139 644.365385 661.015586 644.365385 663.589033 644.365385 666.162480 644.365385 668.735927 644.365385 671.309374 644.365385 673.882821 644.365385 676.456268 644.365385 679.029715 644.365385 681.603162 644.365385 684.176609 644.365385 686.750056 644.365385 689.323503 644.365385 691.896950 644.365385 694.470397 644.365385 697.043844 618.097584 699.617291 606.004885 702.190738 599.298562 704.764185 595.330517 707.337632 592.239705 709.911079 589.509625 712.484526 587.050093 715.057973 584.205234 717.631420 580.425754 720.204867 576.720059 722.778314 573.055356 725.351760 568.849557 727.925207 565.152060 730.498654 560.962658 733.072101 557.166780 735.645548 554.100564 738.218995 551.165522 740.792442 548.287870 743.365889 545.549591 745.939336 543.032670 748.512783 540.876481 751.086230 538.416949 753.659677 536.523109 756.233124 534.293134 758.806571 532.768224 761.380018 531.513862 763.953465 530.538248 766.526912 529.710206 769.100359 529.111720 771.673806 528.455844 774.247253 527.849160 776.820700 527.299864 779.394147 526.709577 781.967594 525.848741 784.541041 524.651768 787.114488 523.553178 789.687935 522.110252 792.261381 520.946074 794.834828 519.560537 797.408275 518.183200 799.981722 516.969830 802.555169 515.723668 805.128616 514.707061 807.702063 513.419906 810.275510 512.165545 812.848957 510.952176 815.422404 509.763402 817.995851 508.648414 820.569298 507.680998 823.142745 506.664392 825.716192 505.918334 828.289639 504.991910 830.863086 504.098280 833.436533 503.081674 836.009980 501.983083 838.583427 500.786111 841.156874 498.424960 843.730321 495.096393 846.303768 490.431481 848.877215 484.356437 851.450662 478.797895 854.024109 473.575489 856.597556 470.181335 859.171002 467.188905 861.744449 463.556996 864.317896 459.810309 866.891343 456.284980 869.464790 453.579495 872.038237 451.685655 874.611684 450.332913 877.185131 448.840797 879.758578 447.430665 882.332025 446.356670 884.905472 445.241682 887.478919 444.667791 890.052366 444.249671 892.625813 443.683978 895.199260 443.290453 897.772707 442.888730 900.346154 442.855936" /></g><g class="series serie-1 color-1"><path class="line reactive nofill" d="M17.653846 627.911116 L20.227293 621.754088 22.800740 618.318942 25.374187 616.031577 27.947634 613.875387 30.521081 612.440661 33.094528 610.997735 35.667975 609.317055 38.241422 606.808332 40.814869 603.578147 43.388316 600.200390 45.961763 595.576470 48.535210 591.346075 51.108657 588.468423 53.682104 585.820327 56.255551 583.623145 58.828998 581.343979 61.402444 579.114003 63.975891 576.867631 66.549338 574.908204 69.122785 573.366897 71.696232 571.997758 74.269679 570.784389 76.843126 569.636607 79.416573 568.734779 81.990020 567.627989 84.563467 567.103289 87.136914 566.726161 89.710361 566.267048 92.283808 565.832531 94.857255 565.545586 97.430702 565.275037 100.004149 564.725742 102.577596 564.086263 105.151043 563.389396 107.724490 562.446575 110.297937 561.503755 112.871384 560.577331 115.444831 559.700098 118.018278 558.970437 120.591725 558.134196 123.165172 557.273360 125.738619 556.527302 128.312065 555.879625 130.885512 555.338528 133.458959 554.690851 136.032406 554.108762 138.605853 553.625054 141.179300 553.133148 143.752747 552.739623 146.326194 552.354296 148.899641 552.206724 151.473088 552.034557 154.046535 551.854191 156.619982 551.624635 159.193429 551.444269 161.766876 551.099935 164.340323 550.665418 166.913770 550.296488 169.487217 549.722597 172.060664 549.140508 174.634111 548.648601 177.207558 548.148497 179.781005 547.574606 182.354452 547.090898 184.927899 546.492412 187.501346 545.877529 190.074793 545.295440 192.648240 544.844525 195.221686 544.532985 197.795133 544.172253 200.368580 543.795125 202.942027 543.327814 205.515474 543.032670 208.088921 542.844106 210.662368 542.663740 213.235815 542.540764 215.809262 542.401390 218.382709 542.245620 220.956156 542.130842 223.529603 541.884889 226.103050 541.597943 228.676497 541.229013 231.249944 540.901076 233.823391 540.556741 236.396838 540.114026 238.970285 539.679508 241.543732 539.335174 244.117179 538.917054 246.690626 538.531727 249.264073 538.121805 251.837520 537.802066 254.410967 537.588906 256.984414 537.334755 259.557861 537.105198 262.131307 536.892039 264.704754 536.605094 267.278201 536.432926 269.851648 536.285354 272.425095 536.170576 274.998542 536.031203 277.571989 535.924623 280.145436 535.859036 282.718883 535.793448 285.292330 535.662273 287.865777 535.588487 290.439224 535.449114 293.012671 535.309740 295.586118 535.227756 298.159565 535.129374 300.733012 535.055588 303.306459 534.883421 305.879906 534.727651 308.453353 534.629270 311.026800 534.432507 313.600247 534.268538 316.173694 534.120966 318.747141 533.948799 321.320588 533.735640 323.894035 533.604465 326.467481 533.506083 329.040928 533.432297 331.614375 533.276527 334.187822 533.161749 336.761269 533.071566 339.334716 532.964986 341.908163 532.874803 344.481610 532.809216 347.055057 532.694438 349.628504 532.587858 352.201951 532.481278 354.775398 532.391096 357.348845 532.309111 359.922292 532.120547 362.495739 531.981174 365.069186 531.817205 367.642633 531.677831 370.216080 531.546656 372.789527 531.415481 375.362974 531.276108 377.936421 531.177726 380.509868 531.054750 383.083315 530.915376 385.656762 530.718614 388.230209 530.579240 390.803656 530.423470 393.377102 530.333287 395.950549 530.243104 398.523996 530.152921 401.097443 530.046342 403.670890 529.898770 406.244337 529.824984 408.817784 529.718404 411.391231 529.513443 413.964678 529.308482 416.538125 528.923156 419.111572 528.496837 421.685019 528.004930 424.258466 527.611405 426.831913 527.160491 429.405360 526.758767 431.978807 526.160281 434.552254 525.676573 437.125701 525.414223 439.699148 525.119080 442.272595 524.799340 444.846042 524.455006 447.419489 524.086076 449.992936 483.257847 452.566383 463.860338 455.139830 453.374534 457.713277 445.635207 460.286723 438.994471 462.860170 433.427730 465.433617 427.147725 468.007064 421.007094 470.580511 412.111787 473.153958 399.150054 475.727405 382.089101 478.300852 360.371434 480.874299 341.711786 483.447746 325.273914 486.021193 312.582729 488.594640 301.416455 491.168087 289.996028 493.741534 279.223278 496.314981 268.942435 498.888428 260.662011 501.461875 254.357411 504.035322 248.880853 506.608769 243.814217 509.182216 239.214893 511.755663 235.320634 514.329110 231.893686 516.902557 229.614520 519.476004 228.155198 522.049451 226.950027 524.622898 225.621880 527.196344 224.359320 529.769791 222.777021 532.343238 220.653625 534.916685 217.882553 537.490132 214.168659 540.063579 209.962860 542.637026 205.748862 545.210473 201.321705 547.783920 197.394652 550.357367 193.598774 552.930814 189.811095 555.504261 185.933233 558.077708 181.948792 560.651155 178.792392 563.224602 175.808160 565.798049 173.496200 568.371496 171.110454 570.944943 169.019852 573.518390 166.962044 576.091837 165.560111 578.665284 164.338543 581.238731 163.354730 583.812178 162.641466 586.385625 161.706844 588.959072 160.993580 591.532519 160.083553 594.105965 159.001359 596.679412 157.878173 599.252859 155.844960 601.826306 153.770754 604.399753 151.655557 606.973200 149.286208 609.546647 147.146415 612.120094 145.121401 614.693541 142.719258 617.266988 140.538473 619.840435 138.472466 622.413882 136.947556 624.987329 135.168495 627.560776 133.602593 630.134223 132.438414 632.707670 131.282434 635.281117 130.060867 637.854564 129.060657 640.428011 128.363790 643.001458 127.830891 645.574905 127.347183 648.148352 126.961857 650.721799 126.453553 653.295246 125.928853 655.868693 125.346764 658.442139 124.608904 661.015586 123.764465 663.589033 122.756057 666.162480 121.436108 668.735927 120.091564 671.309374 119.042164 673.882821 118.041954 676.456268 116.607227 679.029715 115.205294 681.603162 113.713178 684.176609 112.622786 686.750056 111.835735 689.323503 110.868320 691.896950 109.933697 694.470397 109.179441 697.043844 100.669461 699.617291 96.111128 702.190738 93.217079 704.764185 91.372430 707.337632 90.200053 709.911079 89.158851 712.484526 88.355404 715.057973 87.404385 717.631420 86.223810 720.204867 84.871067 722.778314 83.510126 725.351760 81.985217 727.925207 80.673466 730.498654 78.968191 733.072101 77.574456 735.645548 76.393881 738.218995 74.868971 740.792442 73.622808 743.365889 72.343852 745.939336 71.081292 748.512783 70.081082 751.086230 68.949698 753.659677 67.998679 756.233124 66.785309 758.806571 65.899878 761.380018 65.088232 763.953465 64.579929 766.526912 63.973245 769.100359 63.604315 771.673806 63.227187 774.247253 62.932043 776.820700 62.604105 779.394147 62.267969 781.967594 61.874444 784.541041 61.316950 787.114488 60.726663 789.687935 59.833033 792.261381 58.988593 794.834828 58.135956 797.408275 57.537469 799.981722 56.717626 802.555169 56.037155 805.128616 55.397677 807.702063 54.569634 810.275510 53.831775 812.848957 53.036526 815.422404 52.487231 817.995851 51.872348 820.569298 51.167282 823.142745 50.568796 825.716192 50.150675 828.289639 49.691563 830.863086 49.240649 833.436533 48.617567 836.009980 48.051875 838.583427 47.371404 841.156874 46.412187 843.730321 44.985658 846.303768 42.944247 848.877215 40.460120 851.450662 37.590666 854.024109 34.524449 856.597556 32.499435 859.171002 30.523611 861.744449 28.219849 864.317896 25.899691 866.891343 23.686112 869.464790 21.751280 872.038237 20.439530 874.611684 19.209764 877.185131 17.996395 879.758578 16.717438 882.332025 15.725427 884.905472 14.913782 887.478919 14.225113 890.052366 13.798794 892.625813 13.470856 895.199260 13.044537 897.772707 12.675608 900.346154 12.634615" /></g></g><g class="titles"><text class="title plot_title" x="512.0" y="26">Latest Election Participation</text><text class="title" transform="rotate(-90 0.000000 374.500000)" x="0" y="400.5">Users</text></g><g class="plot overlay" transform="translate(86, 46)"><g class="series serie-0 color-0" /><g class="series serie-1 color-1" /></g><g class="plot text-overlay" transform="translate(86, 46)"><g class="series serie-0 color-0" /><g class="series serie-1 color-1" /></g><g class="plot tooltip-overlay" transform="translate(86, 46)"><g class="tooltip" style="opacity: 0" transform="translate(0 0)"><a><rect class="tooltip-box" height="0" rx="0" ry="0" width="0" /><text class="text"><tspan class="label" /><tspan class="value" /></text></a></g></g><g class="legends" transform="translate(96, 713)"><g class="legend reactive activate-serie" id="activate-serie-0"><rect class="color-0 reactive" height="12" width="12" x="0.0" y="1.0" /><text x="17.0" y="11.2">constituents</text></g><g class="legend reactive activate-serie" id="activate-serie-1"><rect class="color-1 reactive" height="12" width="12" x="459.0" y="1.0" /><text x="476.0" y="11.2">caucus</text></g></g></g></svg>