<?xml version='1.0' encoding='utf-8'?>
<svg xmlns:xlink="http://www.w3.org/1999/xlink" class="pygal-chart" id="chart-51a6b4cf-3208-4118-a2c5-69854d00a056" viewBox="0 0 1024 768" xmlns="http://www.w3.org/2000/svg"><!--Generated with pygal 1.7.0 (etree) ©Kozea 2011-2014 on 2015-04-20--><!--http://pygal.org--><!--http://github.com/Kozea/pygal--><defs><style type="text/css">#chart-51a6b4cf-3208-4118-a2c5-69854d00a056 .title{font-family:"monospace";font-size:16px}#chart-51a6b4cf-3208-4118-a2c5-69854d00a056 .legends .legend text{font-family:"monospace";font-size:14px}#chart-51a6b4cf-3208-4118-a2c5-69854d00a056 .axis text{font-family:"monospace";font-size:10px}#chart-51a6b4cf-3208-4118-a2c5-69854d00a056 .axis text.major{font-family:"monospace";font-size:10px}#chart-51a6b4cf-3208-4118-a2c5-69854d00a056 .series text{font-family:"monospace";font-size:8px}#chart-51a6b4cf-3208-4118-a2c5-69854d00a056 .tooltip text{font-family:"monospace";font-size:16px}#chart-51a6b4cf-3208-4118-a2c5-69854d00a056 text.no_data{font-size:64px}
#chart-51a6b4cf-3208-4118-a2c5-69854d00a056{background-color:black}#chart-51a6b4cf-3208-4118-a2c5-69854d00a056 path,#chart-51a6b4cf-3208-4118-a2c5-69854d00a056 line,#chart-51a6b4cf-3208-4118-a2c5-69854d00a056 rect,#chart-51a6b4cf-3208-4118-a2c5-69854d00a056 circle{-webkit-transition:250ms;-moz-transition:250ms;transition:250ms}#chart-51a6b4cf-3208-4118-a2c5-69854d00a056 .graph &gt; .background{fill:black}#chart-51a6b4cf-3208-4118-a2c5-69854d00a056 .plot &gt; .background{fill:#111}#chart-51a6b4cf-3208-4118-a2c5-69854d00a056 .graph{fill:#999}#chart-51a6b4cf-3208-4118-a2c5-69854d00a056 text.no_data{fill:#eee}#chart-51a6b4cf-3208-4118-a2c5-69854d00a056 .title{fill:#eee}#chart-51a6b4cf-3208-4118-a2c5-69854d00a056 .legends .legend text{fill:#999}#chart-51a6b4cf-3208-4118-a2c5-69854d00a056 .legends .legend:hover text{fill:#eee}#chart-51a6b4cf-3208-4118-a2c5-69854d00a056 .axis .line{stroke:#eee}#chart-51a6b4cf-3208-4118-a2c5-69854d00a056 .axis .guide.line{stroke:#555}#chart-51a6b4cf-3208-4118-a2c5-69854d00a056 .axis .major.line{stroke:#999}#chart-51a6b4cf-3208-4118-a2c5-69854d00a056 .axis text.major{stroke:#eee;fill:#eee}#chart-51a6b4cf-3208-4118-a2c5-69854d00a056 .axis.y .guides:hover .guide.line,#chart-51a6b4cf-3208-4118-a2c5-69854d00a056 .line-graph .axis.x .guides:hover .guide.line,#chart-51a6b4cf-3208-4118-a2c5-69854d00a056 .stackedline-graph .axis.x .guides:hover .guide.line,#chart-51a6b4cf-3208-4118-a2c5-69854d00a056 .xy-graph .axis.x .guides:hover .guide.line{stroke:#eee}#chart-51a6b4cf-3208-4118-a2c5-69854d00a056 .axis .guides:hover text{fill:#eee}#chart-51a6b4cf-3208-4118-a2c5-69854d00a056 .reactive{fill-opacity:.8}#chart-51a6b4cf-3208-4118-a2c5-69854d00a056 .reactive.active,#chart-51a6b4cf-3208-4118-a2c5-69854d00a056 .active .reactive{fill-opacity:.4}#chart-51a6b4cf-3208-4118-a2c5-69854d00a056 .series{stroke-width:1.0;stroke-linejoin:round;stroke-linecap:round;stroke-dasharray:0,0}#chart-51a6b4cf-3208-4118-a2c5-69854d00a056 .series text{fill:#eee}#chart-51a6b4cf-3208-4118-a2c5-69854d00a056 .tooltip rect{fill:#111;stroke:#eee}#chart-51a6b4cf-3208-4118-a2c5-69854d00a056 .tooltip text{fill:#eee}#chart-51a6b4cf-3208-4118-a2c5-69854d00a056 .map-element{fill:#999;stroke:#555 !important;opacity:.9;stroke-width:3;-webkit-transition:250ms;-moz-transition:250ms;-o-transition:250ms;transition:250ms}#chart-51a6b4cf-3208-4118-a2c5-69854d00a056 .map-element:hover{opacity:1;stroke-width:10}#chart-51a6b4cf-3208-4118-a2c5-69854d00a056 .color-0,#chart-51a6b4cf-3208-4118-a2c5-69854d00a056 .color-0 a:visited{stroke:#ff5995;fill:#ff5995}#chart-51a6b4cf-3208-4118-a2c5-69854d00a056 .color-1,#chart-51a6b4cf-3208-4118-a2c5-69854d00a056 .color-1 a:visited{stroke:#b6e354;fill:#b6e354}#chart-51a6b4cf-3208-4118-a2c5-69854d00a056 .color-2,#chart-51a6b4cf-3208-4118-a2c5-69854d00a056 .color-2 a:visited{stroke:#feed6c;fill:#feed6c}#chart-51a6b4cf-3208-4118-a2c5-69854d00a056 .color-3,#chart-51a6b4cf-3208-4118-a2c5-69854d00a056 .color-3 a:visited{stroke:#8cedff;fill:#8cedff}#chart-51a6b4cf-3208-4118-a2c5-69854d00a056 .color-4,#chart-51a6b4cf-3208-4118-a2c5-69854d00a056 .color-4 a:visited{stroke:#9e6ffe;fill:#9e6ffe}#chart-51a6b4cf-3208-4118-a2c5-69854d00a056 .color-5,#chart-51a6b4cf-3208-4118-a2c5-69854d00a056 .color-5 a:visited{stroke:#899ca1;fill:#899ca1}#chart-51a6b4cf-3208-4118-a2c5-69854d00a056 .color-6,#chart-51a6b4cf-3208-4118-a2c5-69854d00a056 .color-6 a:visited{stroke:#f8f8f2;fill:#f8f8f2}#chart-51a6b4cf-3208-4118-a2c5-69854d00a056 .color-7,#chart-51a6b4cf-3208-4118-a2c5-69854d00a056 .color-7 a:visited{stroke:#bf4646;fill:#bf4646}#chart-51a6b4cf-3208-4118-a2c5-69854d00a056 .color-8,#chart-51a6b4cf-3208-4118-a2c5-69854d00a056 .color-8 a:visited{stroke:#516083;fill:#516083}#chart-51a6b4cf-3208-4118-a2c5-69854d00a056 .color-9,#chart-51a6b4cf-3208-4118-a2c5-69854d00a056 .color-9 a:visited{stroke:#f92672;fill:#f92672}#chart-51a6b4cf-3208-4118-a2c5-69854d00a056 .color-10,#chart-51a6b4cf-3208-4118-a2c5-69854d00a056 .color-10 a:visited{stroke:#82b414;fill:#82b414}#chart-51a6b4cf-3208-4118-a2c5-69854d00a056 .color-11,#chart-51a6b4cf-3208-4118-a2c5-69854d00a056 .color-11 a:visited{stroke:#fd971f;fill:#fd971f}#chart-51a6b4cf-3208-4118-a2c5-69854d00a056 .color-12,#chart-51a6b4cf-3208-4118-a2c5-69854d00a056 .color-12 a:visited{stroke:#56c2d6;fill:#56c2d6}#chart-51a6b4cf-3208-4118-a2c5-69854d00a056 .color-13,#chart-51a6b4cf-3208-4118-a2c5-69854d00a056 .color-13 a:visited{stroke:#808384;fill:#808384}#chart-51a6b4cf-3208-4118-a2c5-69854d00a056 .color-14,#chart-51a6b4cf-3208-4118-a2c5-69854d00a056 .color-14 a:visited{stroke:#8c54fe;fill:#8c54fe}#chart-51a6b4cf-3208-4118-a2c5-69854d00a056 .color-15,#chart-51a6b4cf-3208-4118-a2c5-69854d00a056 .color-15 a:visited{stroke:#465457;fill:#465457}
#chart-51a6b4cf-3208-4118-a2c5-69854d00a056 text.no_data{text-anchor:middle}#chart-51a6b4cf-3208-4118-a2c5-69854d00a056 .guide.line{fill-opacity:0}#chart-51a6b4cf-3208-4118-a2c5-69854d00a056 .centered{text-anchor:middle}#chart-51a6b4cf-3208-4118-a2c5-69854d00a056 .title{text-anchor:middle}#chart-51a6b4cf-3208-4118-a2c5-69854d00a056 .legends .legend text{fill-opacity:1}#chart-51a6b4cf-3208-4118-a2c5-69854d00a056 .axis.x text{text-anchor:middle}#chart-51a6b4cf-3208-4118-a2c5-69854d00a056 .axis.x:not(.web) text[transform]{text-anchor:start}#chart-51a6b4cf-3208-4118-a2c5-69854d00a056 .axis.y text{text-anchor:end}#chart-51a6b4cf-3208-4118-a2c5-69854d00a056 .axis.y2 text{text-anchor:start}#chart-51a6b4cf-3208-4118-a2c5-69854d00a056 .axis.y .logarithmic text:not(.major),#chart-51a6b4cf-3208-4118-a2c5-69854d00a056 .axis.y2 .logarithmic text:not(.major){font-size:50%}#chart-51a6b4cf-3208-4118-a2c5-69854d00a056 .axis .guide.line{stroke-dasharray:4,4}#chart-51a6b4cf-3208-4118-a2c5-69854d00a056 .axis .major.guide.line{stroke-dasharray:6,6}#chart-51a6b4cf-3208-4118-a2c5-69854d00a056 .axis text.major{stroke-width:0.5px}#chart-51a6b4cf-3208-4118-a2c5-69854d00a056 .horizontal .axis.y .guide.line,#chart-51a6b4cf-3208-4118-a2c5-69854d00a056 .horizontal .axis.y2 .guide.line,#chart-51a6b4cf-3208-4118-a2c5-69854d00a056 .vertical .axis.x .guide.line{opacity:0}#chart-51a6b4cf-3208-4118-a2c5-69854d00a056 .horizontal .axis.always_show .guide.line,#chart-51a6b4cf-3208-4118-a2c5-69854d00a056 .vertical .axis.always_show .guide.line{opacity:1 !important}#chart-51a6b4cf-3208-4118-a2c5-69854d00a056 .axis.y .guides:hover .guide.line,#chart-51a6b4cf-3208-4118-a2c5-69854d00a056 .axis.y2 .guides:hover .guide.line,#chart-51a6b4cf-3208-4118-a2c5-69854d00a056 .axis.x .guides:hover .guide.line{opacity:1}#chart-51a6b4cf-3208-4118-a2c5-69854d00a056 .axis .guides:hover text{opacity:1}#chart-51a6b4cf-3208-4118-a2c5-69854d00a056 .nofill{fill:none}#chart-51a6b4cf-3208-4118-a2c5-69854d00a056 .subtle-fill{fill-opacity:.2}#chart-51a6b4cf-3208-4118-a2c5-69854d00a056 .dot{stroke-width:1px;fill-opacity:1}#chart-51a6b4cf-3208-4118-a2c5-69854d00a056 .dot.active{stroke-width:5px}#chart-51a6b4cf-3208-4118-a2c5-69854d00a056 .series text{stroke:none}#chart-51a6b4cf-3208-4118-a2c5-69854d00a056 .series text.active{opacity:1}#chart-51a6b4cf-3208-4118-a2c5-69854d00a056 .tooltip rect{fill-opacity:0.8}#chart-51a6b4cf-3208-4118-a2c5-69854d00a056 .tooltip text{fill-opacity:1}#chart-51a6b4cf-3208-4118-a2c5-69854d00a056 .tooltip text tspan.label{fill-opacity:.8}</style><script type="text/javascript">window.config = {"x_labels_major": null, "tooltip_font_size": 16, "dots_size": 2.5, "explicit_size": false, "no_data_font_size": 64, "x_labels_major_every": null, "order_min": null, "missing_value_fill_truncation": "x", "margin": 20, "no_prefix": false, "margin_right": null, "stack_from_top": false, "margin_bottom": null, "truncate_legend": null, "strict": false, "y_label_rotation": 0, "legend_box_size": 12, "mode": null, "x_labels": null, "show_dots": false, "show_y_labels": true, "x_value_formatter": null, "pretty_print": false, "x_labels_major_count": null, "x_title": null, "major_label_font_size": 10, "js": ["http://kozea.github.io/pygal.js/javascripts/svg.jquery.js", "http://kozea.github.io/pygal.js/javascripts/pygal-tooltips.js"], "interpolate": null, "logarithmic": false, "show_minor_y_labels": true, "y_labels": null, "label_font_size": 10, "legend_font_size": 14, "spacing": 10, "interpolation_parameters": {}, "show_x_guides": false, "x_label_format": "%Y-%m-%d %H:%M:%S.%f", "no_data_text": "No data", "style": {"foreground_light": "#eee", "foreground": "#999", "stroke_style": "round", "stroke_dasharray": "0,0", "background": "black", "plot_background": "#111", "font_family": "monospace", "foreground_dark": "#555", "stroke_width": 1.0, "transition": "250ms", "colors": ["#ff5995", "#b6e354", "#feed6c", "#8cedff", "#9e6ffe", "#899ca1", "#f8f8f2", "#bf4646", "#516083", "#f92672", "#82b414", "#fd971f", "#56c2d6", "#808384", "#8c54fe", "#465457"], "opacity": ".8", "opacity_hover": ".4"}, "title": "Latest Election Participation", "zero": 0, "disable_xml_declaration": false, "legend_at_bottom": true, "half_pie": false, "y_title": "Users", "truncate_label": null, "y_labels_major_every": null, "interpolation_precision": 250, "xrange": null, "y_labels_major": null, "x_label_rotation": 0, "title_font_size": 16, "value_font_size": 8, "show_only_major_dots": false, "legend_at_bottom_columns": null, "y_labels_major_count": null, "fill": false, "human_readable": false, "rounded_bars": null, "tooltip_border_radius": 0, "show_minor_x_labels": true, "margin_top": null, "margin_left": null, "print_values": false, "inner_radius": 0, "show_legend": true, "show_y_guides": true, "css": ["style.css", "graph.css"], "print_zeroes": false, "stroke": true, "include_x_axis": false, "width": 1024, "show_x_labels": true, "height": 768, "range": null}</script><script type="text/javascript" xlink:href="http://kozea.github.io/pygal.js/javascripts/svg.jquery.js" /><script type="text/javascript" xlink:href="http://kozea.github.io/pygal.js/javascripts/pygal-tooltips.js" /></defs><title>Latest Election Participation</title><g class="graph line-graph vertical"><rect class="background" height="768" width="1024" x="0" y="0" /><g class="plot" transform="translate(86, 46)"><rect class="background" height="657.0" width="918.0" x="0" y="0" /><g class="axis y"><g class="guides"><path class="axis major line" d="M0.000000 644.365385 h918.000000" /><text class="major" x="-5" y="647.8653846153846">0</text></g><g class="guides"><path class="guide line" d="M0.000000 558.162289 h918.000000" /><text class="" x="-5" y="561.6622885465607">10000</text></g><g class="guides"><path class="guide line" d="M0.000000 471.959192 h918.000000" /><text class="" x="-5" y="475.45919247773674">20000</text></g><g class="guides"><path class="guide line" d="M0.000000 385.756096 h918.000000" /><text class="" x="-5" y="389.25609640891275">30000</text></g><g class="guides"><path class="guide line" d="M0.000000 299.553000 h918.000000" /><text class="" x="-5" y="303.05300034008883">40000</text></g><g class="guides"><path class="major guide line" d="M0.000000 213.349904 h918.000000" /><text class="major" x="-5" y="216.84990427126496">50000</text></g><g class="guides"><path class="guide line" d="M0.000000 127.146808 h918.000000" /><text class="" x="-5" y="130.64680820244098">60000</text></g><g class="guides"><path class="guide line" d="M0.000000 40.943712 h918.000000" /><text class="" x="-5" y="44.443712133617055">70000</text></g></g><g class="series serie-0 color-0"><path class="line reactive nofill" d="M17.653846 644.365385 L20.395127 644.365385 23.136407 644.365385 25.877688 644.365385 28.618968 644.365385 31.360248 644.365385 34.101529 644.365385 36.842809 644.365385 39.584090 644.365385 42.325370 644.365385 45.066651 644.365385 47.807931 644.365385 50.549212 644.365385 53.290492 644.365385 56.031773 644.365385 58.773053 644.365385 61.514333 644.365385 64.255614 644.365385 66.996894 644.365385 69.738175 644.365385 72.479455 644.365385 75.220736 644.365385 77.962016 644.365385 80.703297 644.365385 83.444577 644.365385 86.185858 644.365385 88.927138 644.365385 91.668419 644.365385 94.409699 644.365385 97.150979 644.365385 99.892260 644.365385 102.633540 644.365385 105.374821 644.365385 108.116101 644.365385 110.857382 644.365385 113.598662 644.365385 116.339943 644.365385 119.081223 644.365385 121.822504 644.365385 124.563784 644.365385 127.305065 644.365385 130.046345 644.365385 132.787625 644.365385 135.528906 644.365385 138.270186 644.365385 141.011467 644.365385 143.752747 644.365385 146.494028 644.365385 149.235308 644.365385 151.976589 644.365385 154.717869 644.365385 157.459150 644.365385 160.200430 644.365385 162.941710 644.365385 165.682991 644.365385 168.424271 644.365385 171.165552 644.365385 173.906832 644.365385 176.648113 644.365385 179.389393 644.365385 182.130674 644.365385 184.871954 644.365385 187.613235 644.365385 190.354515 644.365385 193.095796 644.365385 195.837076 644.365385 198.578356 644.365385 201.319637 644.365385 204.060917 644.365385 206.802198 644.365385 209.543478 644.365385 212.284759 644.365385 215.026039 644.365385 217.767320 644.365385 220.508600 644.365385 223.249881 644.365385 225.991161 644.365385 228.732441 644.365385 231.473722 644.365385 234.215002 644.365385 236.956283 644.365385 239.697563 644.365385 242.438844 644.365385 245.180124 644.365385 247.921405 644.365385 250.662685 644.365385 253.403966 644.365385 256.145246 644.365385 258.886527 644.365385 261.627807 644.365385 264.369087 644.365385 267.110368 644.365385 269.851648 644.365385 272.592929 644.365385 275.334209 644.365385 278.075490 644.365385 280.816770 644.365385 283.558051 644.365385 286.299331 644.365385 289.040612 644.365385 291.781892 644.365385 294.523172 644.365385 297.264453 644.365385 300.005733 644.365385 302.747014 644.365385 305.488294 644.365385 308.229575 644.365385 310.970855 644.365385 313.712136 644.365385 316.453416 644.365385 319.194697 644.365385 321.935977 644.365385 324.677258 644.365385 327.418538 644.365385 330.159818 644.365385 332.901099 644.365385 335.642379 644.365385 338.383660 644.365385 341.124940 644.365385 343.866221 644.365385 346.607501 644.365385 349.348782 644.365385 352.090062 644.365385 354.831343 644.365385 357.572623 644.365385 360.313903 644.365385 363.055184 644.365385 365.796464 644.365385 368.537745 644.365385 371.279025 644.365385 374.020306 644.365385 376.761586 644.365385 379.502867 644.365385 382.244147 644.365385 384.985428 644.365385 387.726708 644.365385 390.467989 644.365385 393.209269 644.365385 395.950549 644.365385 398.691830 644.365385 401.433110 644.365385 404.174391 644.365385 406.915671 644.365385 409.656952 644.365385 412.398232 644.365385 415.139513 644.365385 417.880793 644.365385 420.622074 644.365385 423.363354 644.365385 426.104634 644.365385 428.845915 644.365385 431.587195 644.365385 434.328476 644.365385 437.069756 644.365385 439.811037 644.365385 442.552317 644.365385 445.293598 644.365385 448.034878 644.365385 450.776159 644.365385 453.517439 644.365385 456.258720 644.365385 459.000000 644.365385 461.741280 644.365385 464.482561 644.365385 467.223841 644.365385 469.965122 644.365385 472.706402 644.365385 475.447683 644.365385 478.188963 644.365385 480.930244 644.365385 483.671524 644.365385 486.412805 644.365385 489.154085 644.365385 491.895366 644.365385 494.636646 644.365385 497.377926 644.365385 500.119207 644.365385 502.860487 644.365385 505.601768 644.365385 508.343048 644.365385 511.084329 644.365385 513.825609 644.365385 516.566890 644.365385 519.308170 644.365385 522.049451 644.365385 524.790731 644.365385 527.532011 644.365385 530.273292 644.365385 533.014572 644.365385 535.755853 644.365385 538.497133 644.365385 541.238414 644.365385 543.979694 644.365385 546.720975 644.365385 549.462255 644.365385 552.203536 644.365385 554.944816 644.365385 557.686097 644.365385 560.427377 644.365385 563.168657 644.365385 565.909938 644.365385 568.651218 644.365385 571.392499 644.365385 574.133779 644.365385 576.875060 644.365385 579.616340 644.365385 582.357621 644.365385 585.098901 644.365385 587.840182 644.365385 590.581462 644.365385 593.322742 644.365385 596.064023 644.365385 598.805303 644.365385 601.546584 644.365385 604.287864 644.365385 607.029145 644.365385 609.770425 644.365385 612.511706 644.365385 615.252986 644.365385 617.994267 644.365385 620.735547 644.365385 623.476828 644.365385 626.218108 644.365385 628.959388 644.365385 631.700669 644.365385 634.441949 644.365385 637.183230 644.365385 639.924510 644.365385 642.665791 644.365385 645.407071 644.365385 648.148352 644.365385 650.889632 644.365385 653.630913 644.365385 656.372193 644.365385 659.113473 644.365385 661.854754 644.365385 664.596034 644.365385 667.337315 644.365385 670.078595 644.365385 672.819876 644.365385 675.561156 644.365385 678.302437 644.365385 681.043717 644.365385 683.784998 644.365385 686.526278 644.365385 689.267559 644.365385 692.008839 644.365385 694.750119 644.365385 697.491400 644.365385 700.232680 644.365385 702.973961 644.365385 705.715241 644.365385 708.456522 644.365385 711.197802 644.365385 713.939083 644.365385 716.680363 644.365385 719.421644 644.365385 722.162924 644.365385 724.904204 644.365385 727.645485 644.365385 730.386765 644.365385 733.128046 644.365385 735.869326 644.365385 738.610607 644.365385 741.351887 616.745913 744.093168 604.030956 746.834448 596.979543 749.575729 592.807313 752.317009 589.557456 755.058290 586.686893 757.799570 584.100800 760.540850 581.109553 763.282131 577.135590 766.023411 573.239210 768.764692 569.385932 771.505972 564.963713 774.247253 561.075953 776.988533 556.670975 779.729814 552.679772 782.471094 549.455776 785.212375 546.369705 787.953655 543.343976 790.694935 540.464793 793.436216 537.818358 796.177496 535.551216 798.918777 532.965124 801.660057 530.973832 804.401338 528.629108 807.142618 527.025730 809.883899 525.706823 812.625179 524.681006 815.366460 523.810355 818.107740 523.181072 820.849021 522.491447 823.590301 521.853544 826.331581 521.275984 829.072862 520.655321 831.814142 519.750189 834.555423 518.491624 837.296703 517.336502 840.037984 515.819328 842.779264 514.595244 845.520545 513.138411 848.261825 511.690199 851.003106 510.414394 853.744386 509.104107 856.485667 508.035188 859.226947 506.681800 861.968227 505.362892 864.709508 504.087086 867.450788 502.837141 870.192069 501.664779 872.933349 500.647583 875.674630 499.578664 878.415910 498.794216 881.157191 497.820121 883.898471 496.880508 886.639752 495.811589 889.381032 494.656468 892.122312 493.397902 894.863593 490.915253 897.604873 487.415408 900.346154 483.967284" /></g><g class="series serie-1 color-1"><path class="line reactive nofill" d="M17.653846 627.064423 L20.395127 620.590571 23.136407 616.978661 25.877688 614.573595 28.618968 612.306453 31.360248 610.797899 34.101529 609.280725 36.842809 607.513561 39.584090 604.875746 42.325370 601.479344 45.066651 597.927777 47.807931 593.065922 50.549212 588.617842 53.290492 585.592114 56.031773 582.807754 58.773053 580.497511 61.514333 578.101065 64.255614 575.756340 66.996894 573.394376 69.738175 571.334122 72.479455 569.713503 75.220736 568.273912 77.962016 566.998106 80.703297 565.791263 83.444577 564.843028 86.185858 563.679287 88.927138 563.127587 91.668419 562.731053 94.409699 562.248315 97.150979 561.791439 99.892260 561.489728 102.633540 561.205258 105.374821 560.627697 108.116101 559.955313 110.857382 559.222587 113.598662 558.231251 116.339943 557.239915 119.081223 556.265820 121.822504 555.343447 124.563784 554.576240 127.305065 553.696968 130.046345 552.791836 132.787625 552.007387 135.528906 551.326383 138.270186 550.757443 141.011467 550.076438 143.752747 549.464396 146.494028 548.955798 149.235308 548.438579 151.976589 548.024804 154.717869 547.619650 157.459150 547.464484 160.200430 547.283458 162.941710 547.093811 165.682991 546.852442 168.424271 546.662796 171.165552 546.300743 173.906832 545.843866 176.648113 545.455952 179.389393 544.852531 182.130674 544.240489 184.871954 543.723270 187.613235 543.197431 190.354515 542.594009 193.095796 542.085411 195.837076 541.456129 198.578356 540.809605 201.319637 540.197563 204.060917 539.723446 206.802198 539.395875 209.543478 539.016581 212.284759 538.620047 215.026039 538.128689 217.767320 537.818358 220.508600 537.620091 223.249881 537.430444 225.991161 537.301139 228.732441 537.154594 231.473722 536.990808 234.215002 536.870124 236.956283 536.611515 239.697563 536.309804 242.438844 535.921890 245.180124 535.577077 247.921405 535.215024 250.662685 534.749528 253.403966 534.292651 256.145246 533.930598 258.886527 533.490962 261.627807 533.085808 264.369087 532.654792 267.110368 532.318600 269.851648 532.094472 272.592929 531.827243 275.334209 531.585874 278.075490 531.361746 280.816770 531.060035 283.558051 530.879009 286.299331 530.723843 289.040612 530.603159 291.781892 530.456613 294.523172 530.344549 297.264453 530.275587 300.005733 530.206624 302.747014 530.068700 305.488294 529.991117 308.229575 529.844571 310.970855 529.698026 313.712136 529.611823 316.453416 529.508379 319.194697 529.430797 321.935977 529.249770 324.677258 529.085984 327.418538 528.982541 330.159818 528.775653 332.901099 528.603247 335.642379 528.448081 338.383660 528.267055 341.124940 528.042927 343.866221 527.905002 346.607501 527.801558 349.348782 527.723975 352.090062 527.560189 354.831343 527.439505 357.572623 527.344682 360.313903 527.232618 363.055184 527.137794 365.796464 527.068832 368.537745 526.948147 371.279025 526.836083 374.020306 526.724019 376.761586 526.629196 379.502867 526.542993 382.244147 526.344726 384.985428 526.198181 387.726708 526.025774 390.467989 525.879229 393.209269 525.741304 395.950549 525.603379 398.691830 525.456834 401.433110 525.353390 404.174391 525.224086 406.915671 525.077540 409.656952 524.870653 412.398232 524.724108 415.139513 524.560322 417.880793 524.465498 420.622074 524.370675 423.363354 524.275851 426.104634 524.163787 428.845915 524.008622 431.587195 523.931039 434.328476 523.818975 437.069756 523.603467 439.811037 523.387960 442.552317 522.982805 445.293598 522.534549 448.034878 522.017330 450.776159 521.603556 453.517439 521.129438 456.258720 520.707043 459.000000 520.077761 461.741280 519.569162 464.482561 519.293313 467.223841 518.982981 469.965122 518.646789 472.706402 518.284736 475.447683 517.896822 478.188963 474.967681 480.930244 454.572028 483.671524 443.546652 486.412805 435.409080 489.154085 428.426629 491.895366 422.573439 494.636646 415.970282 497.377926 409.513670 500.119207 400.160634 502.860487 386.531924 505.601768 368.593060 508.343048 345.757860 511.084329 326.138035 513.825609 308.854314 516.566890 295.510075 519.308170 283.769213 522.049451 271.761122 524.790731 260.434035 527.532011 249.624167 530.273292 240.917654 533.014572 234.288636 535.755853 228.530269 538.497133 223.202918 541.238414 218.366924 543.979694 214.272277 546.720975 210.668988 549.462255 208.272542 552.203536 206.738127 554.944816 205.470941 557.686097 204.074451 560.427377 202.746923 563.168657 201.083204 565.909938 198.850544 568.651218 195.936879 571.392499 192.031879 574.133779 187.609660 576.875060 183.178821 579.616340 178.523853 582.357621 174.394725 585.098901 170.403522 587.840182 166.420939 590.581462 162.343532 593.322742 158.154062 596.064023 154.835243 598.805303 151.697450 601.546584 149.266523 604.287864 146.758013 607.029145 144.559834 609.770425 142.396136 612.511706 140.922063 615.252986 139.637637 617.994267 138.603200 620.735547 137.853233 623.476828 136.870517 626.218108 136.120551 628.959388 135.163696 631.700669 134.025815 634.441949 132.844833 637.183230 130.706996 639.924510 128.526058 642.665791 126.302018 645.407071 123.810748 648.148352 121.560848 650.889632 119.431631 653.630913 116.905880 656.372193 114.612878 659.113473 112.440560 661.854754 110.837182 664.596034 108.966575 667.337315 107.320096 670.078595 106.096012 672.819876 104.880548 675.561156 103.596122 678.302437 102.544445 681.043717 101.811718 683.784998 101.251398 686.526278 100.742800 689.267559 100.337645 692.008839 99.803186 694.750119 99.251486 697.491400 98.639444 700.232680 97.863616 702.973961 96.975725 705.715241 95.915426 708.456522 94.527557 711.197802 93.113826 713.939083 92.010426 716.680363 90.958748 719.421644 89.450194 722.162924 87.976121 724.904204 86.407225 727.645485 85.260724 730.386765 84.433174 733.128046 83.415978 735.869326 82.433262 738.610607 81.640194 741.351887 72.692312 744.093168 67.899420 746.834448 64.856451 749.575729 62.916881 752.317009 61.684177 755.058290 60.589398 757.799570 59.744607 760.540850 58.744651 763.282131 57.503327 766.023411 56.080976 768.764692 54.650004 771.505972 53.046627 774.247253 51.667377 776.988533 49.874353 779.729814 48.408900 782.471094 47.167576 785.212375 45.564198 787.953655 44.253911 790.694935 42.909143 793.436216 41.581615 796.177496 40.529937 798.918777 39.340335 801.660057 38.340379 804.401338 37.064573 807.142618 36.133579 809.883899 35.280169 812.625179 34.745710 815.366460 34.107807 818.107740 33.719893 820.849021 33.323358 823.590301 33.013027 826.331581 32.668215 829.072862 32.314782 831.814142 31.901007 834.555423 31.314826 837.296703 30.694164 840.037984 29.754550 842.779264 28.866658 845.520545 27.970146 848.261825 27.340864 851.003106 26.478833 853.744386 25.763347 856.485667 25.090963 859.226947 24.220311 861.968227 23.444484 864.709508 22.608314 867.450788 22.030753 870.192069 21.384230 872.933349 20.642883 875.674630 20.013600 878.415910 19.573965 881.157191 19.091227 883.898471 18.617110 886.639752 17.961967 889.381032 17.367165 892.122312 16.651680 894.863593 15.643103 897.604873 14.143170 900.346154 12.634615" /></g></g><g class="titles"><text class="title plot_title" x="512.0" y="26">Latest Election Participation</text><text class="title" transform="rotate(-90 0.000000 374.500000)" x="0" y="400.5">Users</text></g><g class="plot overlay" transform="translate(86, 46)"><g class="series serie-0 color-0" /><g class="series serie-1 color-1" /></g><g class="plot text-overlay" transform="translate(86, 46)"><g class="series serie-0 color-0" /><g class="series serie-1 color-1" /></g><g class="plot tooltip-overlay" transform="translate(86, 46)"><g class="tooltip" style="opacity: 0" transform="translate(0 0)"><a><rect class="tooltip-box" height="0" rx="0" ry="0" width="0" /><text class="text"><tspan class="label" /><tspan class="value" /></text></a></g></g><g class="legends" transform="translate(96, 713)"><g class="legend reactive activate-serie" id="activate-serie-0"><rect class="color-0 reactive" height="12" width="12" x="0.0" y="1.0" /><text x="17.0" y="11.2">constituents</text></g><g class="legend reactive activate-serie" id="activate-serie-1"><rect class="color-1 reactive" height="12" width="12" x="459.0" y="1.0" /><text x="476.0" y="11.2">caucus</text></g></g></g></svg>