<?xml version='1.0' encoding='utf-8'?>
<svg xmlns:xlink="http://www.w3.org/1999/xlink" class="pygal-chart" id="chart-51da6963-36b0-442d-86e6-00e07466122e" viewBox="0 0 1024 768" xmlns="http://www.w3.org/2000/svg"><!--Generated with pygal 1.7.0 (etree) ©Kozea 2011-2014 on 2015-04-20--><!--http://pygal.org--><!--http://github.com/Kozea/pygal--><defs><style type="text/css">#chart-51da6963-36b0-442d-86e6-00e07466122e .title{font-family:"monospace";font-size:16px}#chart-51da6963-36b0-442d-86e6-00e07466122e .legends .legend text{font-family:"monospace";font-size:14px}#chart-51da6963-36b0-442d-86e6-00e07466122e .axis text{font-family:"monospace";font-size:10px}#chart-51da6963-36b0-442d-86e6-00e07466122e .axis text.major{font-family:"monospace";font-size:10px}#chart-51da6963-36b0-442d-86e6-00e07466122e .series text{font-family:"monospace";font-size:8px}#chart-51da6963-36b0-442d-86e6-00e07466122e .tooltip text{font-family:"monospace";font-size:16px}#chart-51da6963-36b0-442d-86e6-00e07466122e text.no_data{font-size:64px}
#chart-51da6963-36b0-442d-86e6-00e07466122e{background-color:black}#chart-51da6963-36b0-442d-86e6-00e07466122e path,#chart-51da6963-36b0-442d-86e6-00e07466122e line,#chart-51da6963-36b0-442d-86e6-00e07466122e rect,#chart-51da6963-36b0-442d-86e6-00e07466122e circle{-webkit-transition:250ms;-moz-transition:250ms;transition:250ms}#chart-51da6963-36b0-442d-86e6-00e07466122e .graph &gt; .background{fill:black}#chart-51da6963-36b0-442d-86e6-00e07466122e .plot &gt; .background{fill:#111}#chart-51da6963-36b0-442d-86e6-00e07466122e .graph{fill:#999}#chart-51da6963-36b0-442d-86e6-00e07466122e text.no_data{fill:#eee}#chart-51da6963-36b0-442d-86e6-00e07466122e .title{fill:#eee}#chart-51da6963-36b0-442d-86e6-00e07466122e .legends .legend text{fill:#999}#chart-51da6963-36b0-442d-86e6-00e07466122e .legends .legend:hover text{fill:#eee}#chart-51da6963-36b0-442d-86e6-00e07466122e .axis .line{stroke:#eee}#chart-51da6963-36b0-442d-86e6-00e07466122e .axis .guide.line{stroke:#555}#chart-51da6963-36b0-442d-86e6-00e07466122e .axis .major.line{stroke:#999}#chart-51da6963-36b0-442d-86e6-00e07466122e .axis text.major{stroke:#eee;fill:#eee}#chart-51da6963-36b0-442d-86e6-00e07466122e .axis.y .guides:hover .guide.line,#chart-51da6963-36b0-442d-86e6-00e07466122e .line-graph .axis.x .guides:hover .guide.line,#chart-51da6963-36b0-442d-86e6-00e07466122e .stackedline-graph .axis.x .guides:hover .guide.line,#chart-51da6963-36b0-442d-86e6-00e07466122e .xy-graph .axis.x .guides:hover .guide.line{stroke:#eee}#chart-51da6963-36b0-442d-86e6-00e07466122e .axis .guides:hover text{fill:#eee}#chart-51da6963-36b0-442d-86e6-00e07466122e .reactive{fill-opacity:.8}#chart-51da6963-36b0-442d-86e6-00e07466122e .reactive.active,#chart-51da6963-36b0-442d-86e6-00e07466122e .active .reactive{fill-opacity:.4}#chart-51da6963-36b0-442d-86e6-00e07466122e .series{stroke-width:1.0;stroke-linejoin:round;stroke-linecap:round;stroke-dasharray:0,0}#chart-51da6963-36b0-442d-86e6-00e07466122e .series text{fill:#eee}#chart-51da6963-36b0-442d-86e6-00e07466122e .tooltip rect{fill:#111;stroke:#eee}#chart-51da6963-36b0-442d-86e6-00e07466122e .tooltip text{fill:#eee}#chart-51da6963-36b0-442d-86e6-00e07466122e .map-element{fill:#999;stroke:#555 !important;opacity:.9;stroke-width:3;-webkit-transition:250ms;-moz-transition:250ms;-o-transition:250ms;transition:250ms}#chart-51da6963-36b0-442d-86e6-00e07466122e .map-element:hover{opacity:1;stroke-width:10}#chart-51da6963-36b0-442d-86e6-00e07466122e .color-0,#chart-51da6963-36b0-442d-86e6-00e07466122e .color-0 a:visited{stroke:#ff5995;fill:#ff5995}#chart-51da6963-36b0-442d-86e6-00e07466122e .color-1,#chart-51da6963-36b0-442d-86e6-00e07466122e .color-1 a:visited{stroke:#b6e354;fill:#b6e354}#chart-51da6963-36b0-442d-86e6-00e07466122e .color-2,#chart-51da6963-36b0-442d-86e6-00e07466122e .color-2 a:visited{stroke:#feed6c;fill:#feed6c}#chart-51da6963-36b0-442d-86e6-00e07466122e .color-3,#chart-51da6963-36b0-442d-86e6-00e07466122e .color-3 a:visited{stroke:#8cedff;fill:#8cedff}#chart-51da6963-36b0-442d-86e6-00e07466122e .color-4,#chart-51da6963-36b0-442d-86e6-00e07466122e .color-4 a:visited{stroke:#9e6ffe;fill:#9e6ffe}#chart-51da6963-36b0-442d-86e6-00e07466122e .color-5,#chart-51da6963-36b0-442d-86e6-00e07466122e .color-5 a:visited{stroke:#899ca1;fill:#899ca1}#chart-51da6963-36b0-442d-86e6-00e07466122e .color-6,#chart-51da6963-36b0-442d-86e6-00e07466122e .color-6 a:visited{stroke:#f8f8f2;fill:#f8f8f2}#chart-51da6963-36b0-442d-86e6-00e07466122e .color-7,#chart-51da6963-36b0-442d-86e6-00e07466122e .color-7 a:visited{stroke:#bf4646;fill:#bf4646}#chart-51da6963-36b0-442d-86e6-00e07466122e .color-8,#chart-51da6963-36b0-442d-86e6-00e07466122e .color-8 a:visited{stroke:#516083;fill:#516083}#chart-51da6963-36b0-442d-86e6-00e07466122e .color-9,#chart-51da6963-36b0-442d-86e6-00e07466122e .color-9 a:visited{stroke:#f92672;fill:#f92672}#chart-51da6963-36b0-442d-86e6-00e07466122e .color-10,#chart-51da6963-36b0-442d-86e6-00e07466122e .color-10 a:visited{stroke:#82b414;fill:#82b414}#chart-51da6963-36b0-442d-86e6-00e07466122e .color-11,#chart-51da6963-36b0-442d-86e6-00e07466122e .color-11 a:visited{stroke:#fd971f;fill:#fd971f}#chart-51da6963-36b0-442d-86e6-00e07466122e .color-12,#chart-51da6963-36b0-442d-86e6-00e07466122e .color-12 a:visited{stroke:#56c2d6;fill:#56c2d6}#chart-51da6963-36b0-442d-86e6-00e07466122e .color-13,#chart-51da6963-36b0-442d-86e6-00e07466122e .color-13 a:visited{stroke:#808384;fill:#808384}#chart-51da6963-36b0-442d-86e6-00e07466122e .color-14,#chart-51da6963-36b0-442d-86e6-00e07466122e .color-14 a:visited{stroke:#8c54fe;fill:#8c54fe}#chart-51da6963-36b0-442d-86e6-00e07466122e .color-15,#chart-51da6963-36b0-442d-86e6-00e07466122e .color-15 a:visited{stroke:#465457;fill:#465457}
#chart-51da6963-36b0-442d-86e6-00e07466122e text.no_data{text-anchor:middle}#chart-51da6963-36b0-442d-86e6-00e07466122e .guide.line{fill-opacity:0}#chart-51da6963-36b0-442d-86e6-00e07466122e .centered{text-anchor:middle}#chart-51da6963-36b0-442d-86e6-00e07466122e .title{text-anchor:middle}#chart-51da6963-36b0-442d-86e6-00e07466122e .legends .legend text{fill-opacity:1}#chart-51da6963-36b0-442d-86e6-00e07466122e .axis.x text{text-anchor:middle}#chart-51da6963-36b0-442d-86e6-00e07466122e .axis.x:not(.web) text[transform]{text-anchor:start}#chart-51da6963-36b0-442d-86e6-00e07466122e .axis.y text{text-anchor:end}#chart-51da6963-36b0-442d-86e6-00e07466122e .axis.y2 text{text-anchor:start}#chart-51da6963-36b0-442d-86e6-00e07466122e .axis.y .logarithmic text:not(.major),#chart-51da6963-36b0-442d-86e6-00e07466122e .axis.y2 .logarithmic text:not(.major){font-size:50%}#chart-51da6963-36b0-442d-86e6-00e07466122e .axis .guide.line{stroke-dasharray:4,4}#chart-51da6963-36b0-442d-86e6-00e07466122e .axis .major.guide.line{stroke-dasharray:6,6}#chart-51da6963-36b0-442d-86e6-00e07466122e .axis text.major{stroke-width:0.5px}#chart-51da6963-36b0-442d-86e6-00e07466122e .horizontal .axis.y .guide.line,#chart-51da6963-36b0-442d-86e6-00e07466122e .horizontal .axis.y2 .guide.line,#chart-51da6963-36b0-442d-86e6-00e07466122e .vertical .axis.x .guide.line{opacity:0}#chart-51da6963-36b0-442d-86e6-00e07466122e .horizontal .axis.always_show .guide.line,#chart-51da6963-36b0-442d-86e6-00e07466122e .vertical .axis.always_show .guide.line{opacity:1 !important}#chart-51da6963-36b0-442d-86e6-00e07466122e .axis.y .guides:hover .guide.line,#chart-51da6963-36b0-442d-86e6-00e07466122e .axis.y2 .guides:hover .guide.line,#chart-51da6963-36b0-442d-86e6-00e07466122e .axis.x .guides:hover .guide.line{opacity:1}#chart-51da6963-36b0-442d-86e6-00e07466122e .axis .guides:hover text{opacity:1}#chart-51da6963-36b0-442d-86e6-00e07466122e .nofill{fill:none}#chart-51da6963-36b0-442d-86e6-00e07466122e .subtle-fill{fill-opacity:.2}#chart-51da6963-36b0-442d-86e6-00e07466122e .dot{stroke-width:1px;fill-opacity:1}#chart-51da6963-36b0-442d-86e6-00e07466122e .dot.active{stroke-width:5px}#chart-51da6963-36b0-442d-86e6-00e07466122e .series text{stroke:none}#chart-51da6963-36b0-442d-86e6-00e07466122e .series text.active{opacity:1}#chart-51da6963-36b0-442d-86e6-00e07466122e .tooltip rect{fill-opacity:0.8}#chart-51da6963-36b0-442d-86e6-00e07466122e .tooltip text{fill-opacity:1}#chart-51da6963-36b0-442d-86e6-00e07466122e .tooltip text tspan.label{fill-opacity:.8}</style><script type="text/javascript">window.config = {"x_labels_major": null, "tooltip_font_size": 16, "dots_size": 2.5, "explicit_size": false, "no_data_font_size": 64, "x_labels_major_every": null, "order_min": null, "missing_value_fill_truncation": "x", "margin": 20, "no_prefix": false, "margin_right": null, "stack_from_top": false, "margin_bottom": null, "truncate_legend": null, "strict": false, "y_label_rotation": 0, "legend_box_size": 12, "mode": null, "x_labels": null, "show_dots": false, "show_y_labels": true, "x_value_formatter": null, "pretty_print": false, "x_labels_major_count": null, "x_title": null, "major_label_font_size": 10, "js": ["http://kozea.github.io/pygal.js/javascripts/svg.jquery.js", "http://kozea.github.io/pygal.js/javascripts/pygal-tooltips.js"], "interpolate": null, "logarithmic": false, "show_minor_y_labels": true, "y_labels": null, "label_font_size": 10, "legend_font_size": 14, "spacing": 10, "interpolation_parameters": {}, "show_x_guides": false, "x_label_format": "%Y-%m-%d %H:%M:%S.%f", "no_data_text": "No data", "style": {"foreground_light": "#eee", "foreground": "#999", "stroke_style": "round", "stroke_dasharray": "0,0", "background": "black", "plot_background": "#111", "font_family": "monospace", "foreground_dark": "#555", "stroke_width": 1.0, "transition": "250ms", "colors": ["#ff5995", "#b6e354", "#feed6c", "#8cedff", "#9e6ffe", "#899ca1", "#f8f8f2", "#bf4646", "#516083", "#f92672", "#82b414", "#fd971f", "#56c2d6", "#808384", "#8c54fe", "#465457"], "opacity": ".8", "opacity_hover": ".4"}, "title": "Latest Election Participation Per Hour", "zero": 0, "disable_xml_declaration": false, "legend_at_bottom": true, "half_pie": false, "y_title": "Users", "truncate_label": null, "y_labels_major_every": null, "interpolation_precision": 250, "xrange": null, "y_labels_major": null, "x_label_rotation": 0, "title_font_size": 16, "value_font_size": 8, "show_only_major_dots": false, "legend_at_bottom_columns": null, "y_labels_major_count": null, "fill": false, "human_readable": false, "rounded_bars": null, "tooltip_border_radius": 0, "show_minor_x_labels": true, "margin_top": null, "margin_left": null, "print_values": false, "inner_radius": 0, "show_legend": true, "show_y_guides": true, "css": ["style.css", "graph.css"], "print_zeroes": false, "stroke": true, "include_x_axis": false, "width": 1024, "show_x_labels": true, "height": 768, "range": [0, 512]}</script><script type="text/javascript" xlink:href="http://kozea.github.io/pygal.js/javascripts/svg.jquery.js" /><script type="text/javascript" xlink:href="http://kozea.github.io/pygal.js/javascripts/pygal-tooltips.js" /></defs><title>Latest Election Participation Per Hour</title><g class="graph line-graph vertical"><rect class="background" height="768" width="1024" x="0" y="0" /><g class="plot" transform="translate(74, 46)"><rect class="background" height="657.0" width="930.0" x="0" y="0" /><g class="axis y"><g class="guides"><path class="axis major line" d="M0.000000 644.365385 h930.000000" /><text class="major" x="-5" y="647.8653846153846">0</text></g><g class="guides"><path class="guide line" d="M0.000000 520.980469 h930.000000" /><text class="" x="-5" y="524.48046875">100</text></g><g class="guides"><path class="guide line" d="M0.000000 397.595553 h930.000000" /><text class="" x="-5" y="401.0955528846154">200</text></g><g class="guides"><path class="guide line" d="M0.000000 274.210637 h930.000000" /><text class="" x="-5" y="277.7106370192308">300</text></g><g class="guides"><path class="guide line" d="M0.000000 150.825721 h930.000000" /><text class="" x="-5" y="154.3257211538462">400</text></g><g class="guides"><path class="major guide line" d="M0.000000 27.440805 h930.000000" /><text class="major" x="-5" y="30.940805288461547">500</text></g></g><g class="series serie-0 color-0"><path class="line reactive nofill" d="M17.884615 644.365385 L20.661730 644.365385 23.438844 644.365385 26.215958 644.365385 28.993072 644.365385 31.770186 644.365385 34.547301 644.365385 37.324415 644.365385 40.101529 644.365385 42.878643 644.365385 45.655757 644.365385 48.432871 644.365385 51.209986 644.365385 53.987100 644.365385 56.764214 644.365385 59.541328 644.365385 62.318442 644.365385 65.095557 644.365385 67.872671 644.365385 70.649785 644.365385 73.426899 644.365385 76.204013 644.365385 78.981128 644.365385 81.758242 644.365385 84.535356 644.365385 87.312470 644.365385 90.089584 644.365385 92.866699 644.365385 95.643813 644.365385 98.420927 644.365385 101.198041 644.365385 103.975155 644.365385 106.752269 644.365385 109.529384 644.365385 112.306498 644.365385 115.083612 644.365385 117.860726 644.365385 120.637840 644.365385 123.414955 644.365385 126.192069 644.365385 128.969183 644.365385 131.746297 644.365385 134.523411 644.365385 137.300526 644.365385 140.077640 644.365385 142.854754 644.365385 145.631868 644.365385 148.408982 644.365385 151.186097 644.365385 153.963211 644.365385 156.740325 644.365385 159.517439 644.365385 162.294553 644.365385 165.071667 644.365385 167.848782 644.365385 170.625896 644.365385 173.403010 644.365385 176.180124 644.365385 178.957238 644.365385 181.734353 644.365385 184.511467 644.365385 187.288581 644.365385 190.065695 644.365385 192.842809 644.365385 195.619924 644.365385 198.397038 644.365385 201.174152 644.365385 203.951266 644.365385 206.728380 644.365385 209.505495 644.365385 212.282609 644.365385 215.059723 644.365385 217.836837 644.365385 220.613951 644.365385 223.391065 644.365385 226.168180 644.365385 228.945294 644.365385 231.722408 644.365385 234.499522 644.365385 237.276636 644.365385 240.053751 644.365385 242.830865 644.365385 245.607979 644.365385 248.385093 644.365385 251.162207 644.365385 253.939322 644.365385 256.716436 644.365385 259.493550 644.365385 262.270664 644.365385 265.047778 644.365385 267.824892 644.365385 270.602007 644.365385 273.379121 644.365385 276.156235 644.365385 278.933349 644.365385 281.710463 644.365385 284.487578 644.365385 287.264692 644.365385 290.041806 644.365385 292.818920 644.365385 295.596034 644.365385 298.373149 644.365385 301.150263 644.365385 303.927377 644.365385 306.704491 644.365385 309.481605 644.365385 312.258720 644.365385 315.035834 644.365385 317.812948 644.365385 320.590062 644.365385 323.367176 644.365385 326.144290 644.365385 328.921405 644.365385 331.698519 644.365385 334.475633 644.365385 337.252747 644.365385 340.029861 644.365385 342.806976 644.365385 345.584090 644.365385 348.361204 644.365385 351.138318 644.365385 353.915432 644.365385 356.692547 644.365385 359.469661 644.365385 362.246775 644.365385 365.023889 644.365385 367.801003 644.365385 370.578118 644.365385 373.355232 644.365385 376.132346 644.365385 378.909460 644.365385 381.686574 644.365385 384.463688 644.365385 387.240803 644.365385 390.017917 644.365385 392.795031 644.365385 395.572145 644.365385 398.349259 644.365385 401.126374 644.365385 403.903488 644.365385 406.680602 644.365385 409.457716 644.365385 412.234830 644.365385 415.011945 644.365385 417.789059 644.365385 420.566173 644.365385 423.343287 644.365385 426.120401 644.365385 428.897516 644.365385 431.674630 644.365385 434.451744 644.365385 437.228858 644.365385 440.005972 644.365385 442.783086 644.365385 445.560201 644.365385 448.337315 644.365385 451.114429 644.365385 453.891543 644.365385 456.668657 644.365385 459.445772 644.365385 462.222886 644.365385 465.000000 644.365385 467.777114 644.365385 470.554228 644.365385 473.331343 644.365385 476.108457 644.365385 478.885571 644.365385 481.662685 644.365385 484.439799 644.365385 487.216914 644.365385 489.994028 644.365385 492.771142 644.365385 495.548256 644.365385 498.325370 644.365385 501.102484 644.365385 503.879599 644.365385 506.656713 644.365385 509.433827 644.365385 512.210941 644.365385 514.988055 644.365385 517.765170 644.365385 520.542284 644.365385 523.319398 644.365385 526.096512 644.365385 528.873626 644.365385 531.650741 644.365385 534.427855 644.365385 537.204969 644.365385 539.982083 644.365385 542.759197 644.365385 545.536312 644.365385 548.313426 644.365385 551.090540 644.365385 553.867654 644.365385 556.644768 644.365385 559.421882 644.365385 562.198997 644.365385 564.976111 644.365385 567.753225 644.365385 570.530339 644.365385 573.307453 644.365385 576.084568 644.365385 578.861682 644.365385 581.638796 644.365385 584.415910 644.365385 587.193024 644.365385 589.970139 644.365385 592.747253 644.365385 595.524367 644.365385 598.301481 644.365385 601.078595 644.365385 603.855710 644.365385 606.632824 644.365385 609.409938 644.365385 612.187052 644.365385 614.964166 644.365385 617.741280 644.365385 620.518395 644.365385 623.295509 644.365385 626.072623 644.365385 628.849737 644.365385 631.626851 644.365385 634.403966 644.365385 637.181080 644.365385 639.958194 644.365385 642.735308 644.365385 645.512422 644.365385 648.289537 644.365385 651.066651 644.365385 653.843765 644.365385 656.620879 644.365385 659.397993 644.365385 662.175108 644.365385 664.952222 644.365385 667.729336 644.365385 670.506450 644.365385 673.283564 644.365385 676.060678 644.365385 678.837793 644.365385 681.614907 644.365385 684.392021 644.365385 687.169135 644.365385 689.946249 644.365385 692.723364 644.365385 695.500478 644.365385 698.277592 644.365385 701.054706 644.365385 703.831820 644.365385 706.608935 644.365385 709.386049 644.365385 712.163163 644.365385 714.940277 644.365385 717.717391 644.365385 720.494505 644.365385 723.271620 644.365385 726.048734 644.365385 728.825848 644.365385 731.602962 644.365385 734.380076 644.365385 737.157191 644.365385 739.934305 644.365385 742.711419 644.365385 745.488533 644.365385 748.265647 644.365385 751.042762 -3308.887320 753.819876 -1175.562124 756.596990 -364.923227 759.374104 47.182392 762.151218 179.204252 764.928333 233.493615 767.705447 274.210637 770.482561 216.219727 773.259675 75.560922 776.036789 86.665565 778.813903 92.834811 781.591018 11.400766 784.368132 87.899414 787.145246 13.868465 789.922360 73.093224 792.699474 182.905799 795.476589 202.647386 798.253703 211.284330 801.030817 232.259766 803.807931 265.573693 806.585045 319.863056 809.362160 274.210637 812.139274 359.346229 814.916388 308.758413 817.693502 414.869441 820.470616 455.586463 823.247731 497.537335 826.024845 519.746620 828.801959 554.294396 831.579073 545.657452 834.356187 553.060547 837.133301 561.697491 839.910416 555.528245 842.687530 514.811223 845.464644 464.223407 848.241758 479.029597 851.018872 427.207933 853.795987 469.158804 856.573101 435.844877 859.350215 437.078726 862.127329 461.755709 864.904443 456.820312 867.681558 491.368089 870.458672 450.651067 873.235786 455.586463 876.012900 461.755709 878.790014 465.457257 881.567129 476.561899 884.344243 498.771184 887.121357 491.368089 889.898471 532.085111 892.675585 504.940430 895.452699 509.875826 898.229814 491.368089 901.006928 479.029597 903.784042 464.223407 906.561156 289.016827 909.338270 143.422626 912.115385 150.825721" /></g><g class="series serie-1 color-1"><path class="line reactive nofill" d="M17.884615 -1831.969877 L20.661730 -282.255334 23.438844 127.382587 26.215958 300.121469 28.993072 319.863056 31.770186 428.441782 34.547301 427.207933 37.324415 391.426307 40.101529 266.807542 42.878643 158.228816 45.655757 136.019531 48.432871 -51.525541 51.209986 7.699219 53.987100 211.284330 56.764214 245.832106 59.541328 313.693810 62.318442 301.355319 65.095557 308.758413 67.872671 306.290715 70.649785 349.475436 73.426899 412.401743 76.204013 438.312575 78.981128 461.755709 81.758242 471.626502 84.535356 508.641977 87.312470 477.795748 90.089584 565.399038 92.866699 587.608323 95.643813 575.269832 98.420927 578.971379 101.198041 601.180664 103.975155 603.648362 106.752269 561.697491 109.529384 548.125150 112.306498 539.488206 115.083612 502.472731 117.860726 502.472731 120.637840 504.940430 123.414955 512.343525 126.192069 534.552809 128.969183 518.512770 131.746297 514.811223 134.523411 532.085111 137.300526 546.891301 140.077640 562.931340 142.854754 546.891301 145.631868 556.762094 148.408982 571.568284 151.186097 570.334435 153.963211 585.140625 156.740325 586.374474 159.517439 622.156100 162.294553 618.454552 165.071667 617.220703 167.848782 609.817608 170.625896 617.220703 173.403010 592.543720 176.180124 578.971379 178.957238 588.842172 181.734353 557.995944 184.511467 556.762094 187.288581 570.334435 190.065695 569.100586 192.842809 557.995944 195.619924 571.568284 198.397038 554.294396 201.174152 551.826698 203.951266 556.762094 206.728380 576.503681 209.505495 597.479117 212.282609 590.076022 215.059723 587.608323 217.836837 574.035983 220.613951 599.946815 223.391065 615.986854 226.168180 617.220703 228.945294 625.857647 231.722408 623.389949 234.499522 620.922251 237.276636 627.091496 240.053751 607.349910 242.830865 601.180664 245.607979 588.842172 248.385093 595.011418 251.162207 592.543720 253.939322 577.737530 256.716436 578.971379 259.493550 592.543720 262.270664 581.439078 265.047778 586.374474 267.824892 582.672927 270.602007 596.245267 273.379121 612.285306 276.156235 606.116061 278.933349 609.817608 281.710463 612.285306 284.487578 601.180664 287.264692 618.454552 290.041806 622.156100 292.818920 627.091496 295.596034 623.389949 298.373149 628.325346 301.150263 634.494591 303.927377 634.494591 306.704491 624.623798 309.481605 633.260742 312.258720 623.389949 315.035834 623.389949 317.812948 632.026893 320.590062 629.559195 323.367176 633.260742 326.144290 618.454552 328.921405 620.922251 331.698519 629.559195 334.475633 614.753005 337.252747 619.688401 340.029861 622.156100 342.806976 618.454552 345.584090 612.285306 348.361204 624.623798 351.138318 629.559195 353.915432 633.260742 356.692547 620.922251 359.469661 627.091496 362.246775 630.793044 365.023889 628.325346 367.801003 630.793044 370.578118 634.494591 373.355232 627.091496 376.132346 628.325346 378.909460 628.325346 381.686574 630.793044 384.463688 632.026893 387.240803 615.986854 390.017917 623.389949 392.795031 619.688401 395.572145 623.389949 398.349259 624.623798 401.126374 624.623798 403.903488 623.389949 406.680602 629.559195 409.457716 625.857647 412.234830 623.389949 415.011945 614.753005 417.789059 623.389949 420.566173 620.922251 423.343287 630.793044 426.120401 630.793044 428.897516 630.793044 431.674630 628.325346 434.451744 622.156100 437.228858 633.260742 440.005972 628.325346 442.783086 613.519156 445.560201 613.519156 448.337315 586.374474 451.114429 580.205228 453.891543 570.334435 456.668657 585.140625 459.445772 576.503681 462.222886 583.906776 465.000000 554.294396 467.777114 571.568284 470.554228 604.882212 473.331343 599.946815 476.108457 596.245267 478.885571 592.543720 481.662685 588.842172 484.439799 -5500.203425 487.216914 -2274.921725 489.994028 -933.727689 492.771142 -520.388221 495.548256 -355.052434 498.325370 -193.418194 501.102484 -300.763071 503.879599 -279.787635 506.656713 -694.360953 509.433827 -1306.350135 512.210941 -1923.274715 514.988055 -2624.101037 517.765170 -2163.875300 520.542284 -1829.502178 523.319398 -1265.633113 526.096512 -1036.137169 528.873626 -1074.386493 531.650741 -976.912410 534.427855 -902.881460 537.204969 -601.822266 539.982083 -304.464618 542.759197 -179.845853 545.536312 -118.153395 548.313426 -47.823993 551.090540 58.287034 553.867654 128.616436 556.644768 301.355319 559.421882 424.740234 562.198997 462.989558 564.976111 444.481821 567.753225 454.352614 570.530339 406.232497 573.307453 324.798453 576.084568 227.324369 578.861682 85.431716 581.638796 11.400766 584.415910 10.166917 587.193024 -21.913161 589.970139 53.351638 592.747253 73.093224 595.524367 74.327073 598.301481 60.754733 601.078595 44.714694 603.855710 169.333459 606.632824 195.244291 609.409938 296.419922 612.187052 285.315279 614.964166 329.733849 617.741280 334.669246 620.518395 433.377178 623.295509 460.521860 626.072623 496.303486 628.849737 537.020508 631.626851 503.706581 634.403966 537.020508 637.181080 507.408128 639.958194 481.497296 642.735308 475.328050 645.512422 338.370793 648.289537 332.201547 651.066651 326.032302 653.843765 287.782978 656.620879 322.330754 659.397993 339.604642 662.175108 282.847581 664.952222 316.161508 667.729336 333.435397 670.506450 414.869441 673.283564 376.620117 676.060678 408.700195 678.837793 469.158804 681.614907 470.392653 684.392021 460.521860 687.169135 493.835787 689.946249 539.488206 692.723364 564.165189 695.500478 571.568284 698.277592 586.374474 701.054706 567.866737 703.831820 565.399038 706.608935 556.762094 709.386049 533.318960 712.163163 517.278921 714.940277 492.601938 717.717391 445.715670 720.494505 442.014123 723.271620 486.432692 726.048734 493.835787 728.825848 428.441782 731.602962 433.377178 734.380076 419.804838 737.157191 480.263447 739.934305 525.915865 742.711419 498.771184 745.488533 503.706581 748.265647 530.851262 751.042762 -636.370042 753.819876 -41.654748 756.596990 208.816632 759.374104 366.749324 762.151218 467.924955 764.928333 487.666541 767.705447 523.448167 770.482561 501.238882 773.259675 466.691106 776.036789 440.780273 778.813903 439.546424 781.591018 414.869441 784.368132 446.949519 787.145246 387.724760 789.922360 434.611028 792.699474 466.691106 795.476589 414.869441 798.253703 456.820312 801.030817 451.884916 803.807931 454.352614 806.585045 493.835787 809.362160 474.094201 812.139274 501.238882 814.916388 461.755709 817.693502 511.109675 820.470616 522.214318 823.247731 567.866737 826.024845 553.060547 828.801959 588.842172 831.579073 587.608323 834.356187 599.946815 837.133301 595.011418 839.910416 593.777569 842.687530 585.140625 845.464644 560.463642 848.241758 555.528245 851.018872 509.875826 853.795987 517.278921 856.573101 516.045072 859.350215 554.294396 862.127329 520.980469 864.904443 541.955904 867.681558 548.125150 870.458672 519.746620 873.235786 533.318960 876.012900 524.682016 878.790014 561.697491 881.567129 551.826698 884.344243 538.254357 887.121357 554.294396 889.898471 581.439078 892.675585 575.269832 895.452699 576.503681 898.229814 550.592849 901.006928 559.229793 903.784042 541.955904 906.561156 500.005033 909.338270 429.675631 912.115385 428.441782" /></g></g><g class="titles"><text class="title plot_title" x="512.0" y="26">Latest Election Participation Per Hour</text><text class="title" transform="rotate(-90 0.000000 374.500000)" x="0" y="400.5">Users</text></g><g class="plot overlay" transform="translate(74, 46)"><g class="series serie-0 color-0" /><g class="series serie-1 color-1" /></g><g class="plot text-overlay" transform="translate(74, 46)"><g class="series serie-0 color-0" /><g class="series serie-1 color-1" /></g><g class="plot tooltip-overlay" transform="translate(74, 46)"><g class="tooltip" style="opacity: 0" transform="translate(0 0)"><a><rect class="tooltip-box" height="0" rx="0" ry="0" width="0" /><text class="text"><tspan class="label" /><tspan class="value" /></text></a></g></g><g class="legends" transform="translate(84, 713)"><g class="legend reactive activate-serie" id="activate-serie-0"><rect class="color-0 reactive" height="12" width="12" x="0.0" y="1.0" /><text x="17.0" y="11.2">constituents</text></g><g class="legend reactive activate-serie" id="activate-serie-1"><rect class="color-1 reactive" height="12" width="12" x="465.0" y="1.0" /><text x="482.0" y="11.2">caucus</text></g></g></g></svg>