<?xml version='1.0' encoding='utf-8'?>
<svg xmlns:xlink="http://www.w3.org/1999/xlink" class="pygal-chart" id="chart-aa98591c-65a3-4fef-9f17-5ae556b46eb3" viewBox="0 0 1024 768" xmlns="http://www.w3.org/2000/svg"><!--Generated with pygal 1.7.0 (etree) ©Kozea 2011-2014 on 2015-04-20--><!--http://pygal.org--><!--http://github.com/Kozea/pygal--><defs><style type="text/css">#chart-aa98591c-65a3-4fef-9f17-5ae556b46eb3 .title{font-family:"monospace";font-size:16px}#chart-aa98591c-65a3-4fef-9f17-5ae556b46eb3 .legends .legend text{font-family:"monospace";font-size:14px}#chart-aa98591c-65a3-4fef-9f17-5ae556b46eb3 .axis text{font-family:"monospace";font-size:10px}#chart-aa98591c-65a3-4fef-9f17-5ae556b46eb3 .axis text.major{font-family:"monospace";font-size:10px}#chart-aa98591c-65a3-4fef-9f17-5ae556b46eb3 .series text{font-family:"monospace";font-size:8px}#chart-aa98591c-65a3-4fef-9f17-5ae556b46eb3 .tooltip text{font-family:"monospace";font-size:16px}#chart-aa98591c-65a3-4fef-9f17-5ae556b46eb3 text.no_data{font-size:64px}
#chart-aa98591c-65a3-4fef-9f17-5ae556b46eb3{background-color:black}#chart-aa98591c-65a3-4fef-9f17-5ae556b46eb3 path,#chart-aa98591c-65a3-4fef-9f17-5ae556b46eb3 line,#chart-aa98591c-65a3-4fef-9f17-5ae556b46eb3 rect,#chart-aa98591c-65a3-4fef-9f17-5ae556b46eb3 circle{-webkit-transition:250ms;-moz-transition:250ms;transition:250ms}#chart-aa98591c-65a3-4fef-9f17-5ae556b46eb3 .graph &gt; .background{fill:black}#chart-aa98591c-65a3-4fef-9f17-5ae556b46eb3 .plot &gt; .background{fill:#111}#chart-aa98591c-65a3-4fef-9f17-5ae556b46eb3 .graph{fill:#999}#chart-aa98591c-65a3-4fef-9f17-5ae556b46eb3 text.no_data{fill:#eee}#chart-aa98591c-65a3-4fef-9f17-5ae556b46eb3 .title{fill:#eee}#chart-aa98591c-65a3-4fef-9f17-5ae556b46eb3 .legends .legend text{fill:#999}#chart-aa98591c-65a3-4fef-9f17-5ae556b46eb3 .legends .legend:hover text{fill:#eee}#chart-aa98591c-65a3-4fef-9f17-5ae556b46eb3 .axis .line{stroke:#eee}#chart-aa98591c-65a3-4fef-9f17-5ae556b46eb3 .axis .guide.line{stroke:#555}#chart-aa98591c-65a3-4fef-9f17-5ae556b46eb3 .axis .major.line{stroke:#999}#chart-aa98591c-65a3-4fef-9f17-5ae556b46eb3 .axis text.major{stroke:#eee;fill:#eee}#chart-aa98591c-65a3-4fef-9f17-5ae556b46eb3 .axis.y .guides:hover .guide.line,#chart-aa98591c-65a3-4fef-9f17-5ae556b46eb3 .line-graph .axis.x .guides:hover .guide.line,#chart-aa98591c-65a3-4fef-9f17-5ae556b46eb3 .stackedline-graph .axis.x .guides:hover .guide.line,#chart-aa98591c-65a3-4fef-9f17-5ae556b46eb3 .xy-graph .axis.x .guides:hover .guide.line{stroke:#eee}#chart-aa98591c-65a3-4fef-9f17-5ae556b46eb3 .axis .guides:hover text{fill:#eee}#chart-aa98591c-65a3-4fef-9f17-5ae556b46eb3 .reactive{fill-opacity:.8}#chart-aa98591c-65a3-4fef-9f17-5ae556b46eb3 .reactive.active,#chart-aa98591c-65a3-4fef-9f17-5ae556b46eb3 .active .reactive{fill-opacity:.4}#chart-aa98591c-65a3-4fef-9f17-5ae556b46eb3 .series{stroke-width:1.0;stroke-linejoin:round;stroke-linecap:round;stroke-dasharray:0,0}#chart-aa98591c-65a3-4fef-9f17-5ae556b46eb3 .series text{fill:#eee}#chart-aa98591c-65a3-4fef-9f17-5ae556b46eb3 .tooltip rect{fill:#111;stroke:#eee}#chart-aa98591c-65a3-4fef-9f17-5ae556b46eb3 .tooltip text{fill:#eee}#chart-aa98591c-65a3-4fef-9f17-5ae556b46eb3 .map-element{fill:#999;stroke:#555 !important;opacity:.9;stroke-width:3;-webkit-transition:250ms;-moz-transition:250ms;-o-transition:250ms;transition:250ms}#chart-aa98591c-65a3-4fef-9f17-5ae556b46eb3 .map-element:hover{opacity:1;stroke-width:10}#chart-aa98591c-65a3-4fef-9f17-5ae556b46eb3 .color-0,#chart-aa98591c-65a3-4fef-9f17-5ae556b46eb3 .color-0 a:visited{stroke:#ff5995;fill:#ff5995}#chart-aa98591c-65a3-4fef-9f17-5ae556b46eb3 .color-1,#chart-aa98591c-65a3-4fef-9f17-5ae556b46eb3 .color-1 a:visited{stroke:#b6e354;fill:#b6e354}#chart-aa98591c-65a3-4fef-9f17-5ae556b46eb3 .color-2,#chart-aa98591c-65a3-4fef-9f17-5ae556b46eb3 .color-2 a:visited{stroke:#feed6c;fill:#feed6c}#chart-aa98591c-65a3-4fef-9f17-5ae556b46eb3 .color-3,#chart-aa98591c-65a3-4fef-9f17-5ae556b46eb3 .color-3 a:visited{stroke:#8cedff;fill:#8cedff}#chart-aa98591c-65a3-4fef-9f17-5ae556b46eb3 .color-4,#chart-aa98591c-65a3-4fef-9f17-5ae556b46eb3 .color-4 a:visited{stroke:#9e6ffe;fill:#9e6ffe}#chart-aa98591c-65a3-4fef-9f17-5ae556b46eb3 .color-5,#chart-aa98591c-65a3-4fef-9f17-5ae556b46eb3 .color-5 a:visited{stroke:#899ca1;fill:#899ca1}#chart-aa98591c-65a3-4fef-9f17-5ae556b46eb3 .color-6,#chart-aa98591c-65a3-4fef-9f17-5ae556b46eb3 .color-6 a:visited{stroke:#f8f8f2;fill:#f8f8f2}#chart-aa98591c-65a3-4fef-9f17-5ae556b46eb3 .color-7,#chart-aa98591c-65a3-4fef-9f17-5ae556b46eb3 .color-7 a:visited{stroke:#bf4646;fill:#bf4646}#chart-aa98591c-65a3-4fef-9f17-5ae556b46eb3 .color-8,#chart-aa98591c-65a3-4fef-9f17-5ae556b46eb3 .color-8 a:visited{stroke:#516083;fill:#516083}#chart-aa98591c-65a3-4fef-9f17-5ae556b46eb3 .color-9,#chart-aa98591c-65a3-4fef-9f17-5ae556b46eb3 .color-9 a:visited{stroke:#f92672;fill:#f92672}#chart-aa98591c-65a3-4fef-9f17-5ae556b46eb3 .color-10,#chart-aa98591c-65a3-4fef-9f17-5ae556b46eb3 .color-10 a:visited{stroke:#82b414;fill:#82b414}#chart-aa98591c-65a3-4fef-9f17-5ae556b46eb3 .color-11,#chart-aa98591c-65a3-4fef-9f17-5ae556b46eb3 .color-11 a:visited{stroke:#fd971f;fill:#fd971f}#chart-aa98591c-65a3-4fef-9f17-5ae556b46eb3 .color-12,#chart-aa98591c-65a3-4fef-9f17-5ae556b46eb3 .color-12 a:visited{stroke:#56c2d6;fill:#56c2d6}#chart-aa98591c-65a3-4fef-9f17-5ae556b46eb3 .color-13,#chart-aa98591c-65a3-4fef-9f17-5ae556b46eb3 .color-13 a:visited{stroke:#808384;fill:#808384}#chart-aa98591c-65a3-4fef-9f17-5ae556b46eb3 .color-14,#chart-aa98591c-65a3-4fef-9f17-5ae556b46eb3 .color-14 a:visited{stroke:#8c54fe;fill:#8c54fe}#chart-aa98591c-65a3-4fef-9f17-5ae556b46eb3 .color-15,#chart-aa98591c-65a3-4fef-9f17-5ae556b46eb3 .color-15 a:visited{stroke:#465457;fill:#465457}
#chart-aa98591c-65a3-4fef-9f17-5ae556b46eb3 text.no_data{text-anchor:middle}#chart-aa98591c-65a3-4fef-9f17-5ae556b46eb3 .guide.line{fill-opacity:0}#chart-aa98591c-65a3-4fef-9f17-5ae556b46eb3 .centered{text-anchor:middle}#chart-aa98591c-65a3-4fef-9f17-5ae556b46eb3 .title{text-anchor:middle}#chart-aa98591c-65a3-4fef-9f17-5ae556b46eb3 .legends .legend text{fill-opacity:1}#chart-aa98591c-65a3-4fef-9f17-5ae556b46eb3 .axis.x text{text-anchor:middle}#chart-aa98591c-65a3-4fef-9f17-5ae556b46eb3 .axis.x:not(.web) text[transform]{text-anchor:start}#chart-aa98591c-65a3-4fef-9f17-5ae556b46eb3 .axis.y text{text-anchor:end}#chart-aa98591c-65a3-4fef-9f17-5ae556b46eb3 .axis.y2 text{text-anchor:start}#chart-aa98591c-65a3-4fef-9f17-5ae556b46eb3 .axis.y .logarithmic text:not(.major),#chart-aa98591c-65a3-4fef-9f17-5ae556b46eb3 .axis.y2 .logarithmic text:not(.major){font-size:50%}#chart-aa98591c-65a3-4fef-9f17-5ae556b46eb3 .axis .guide.line{stroke-dasharray:4,4}#chart-aa98591c-65a3-4fef-9f17-5ae556b46eb3 .axis .major.guide.line{stroke-dasharray:6,6}#chart-aa98591c-65a3-4fef-9f17-5ae556b46eb3 .axis text.major{stroke-width:0.5px}#chart-aa98591c-65a3-4fef-9f17-5ae556b46eb3 .horizontal .axis.y .guide.line,#chart-aa98591c-65a3-4fef-9f17-5ae556b46eb3 .horizontal .axis.y2 .guide.line,#chart-aa98591c-65a3-4fef-9f17-5ae556b46eb3 .vertical .axis.x .guide.line{opacity:0}#chart-aa98591c-65a3-4fef-9f17-5ae556b46eb3 .horizontal .axis.always_show .guide.line,#chart-aa98591c-65a3-4fef-9f17-5ae556b46eb3 .vertical .axis.always_show .guide.line{opacity:1 !important}#chart-aa98591c-65a3-4fef-9f17-5ae556b46eb3 .axis.y .guides:hover .guide.line,#chart-aa98591c-65a3-4fef-9f17-5ae556b46eb3 .axis.y2 .guides:hover .guide.line,#chart-aa98591c-65a3-4fef-9f17-5ae556b46eb3 .axis.x .guides:hover .guide.line{opacity:1}#chart-aa98591c-65a3-4fef-9f17-5ae556b46eb3 .axis .guides:hover text{opacity:1}#chart-aa98591c-65a3-4fef-9f17-5ae556b46eb3 .nofill{fill:none}#chart-aa98591c-65a3-4fef-9f17-5ae556b46eb3 .subtle-fill{fill-opacity:.2}#chart-aa98591c-65a3-4fef-9f17-5ae556b46eb3 .dot{stroke-width:1px;fill-opacity:1}#chart-aa98591c-65a3-4fef-9f17-5ae556b46eb3 .dot.active{stroke-width:5px}#chart-aa98591c-65a3-4fef-9f17-5ae556b46eb3 .series text{stroke:none}#chart-aa98591c-65a3-4fef-9f17-5ae556b46eb3 .series text.active{opacity:1}#chart-aa98591c-65a3-4fef-9f17-5ae556b46eb3 .tooltip rect{fill-opacity:0.8}#chart-aa98591c-65a3-4fef-9f17-5ae556b46eb3 .tooltip text{fill-opacity:1}#chart-aa98591c-65a3-4fef-9f17-5ae556b46eb3 .tooltip text tspan.label{fill-opacity:.8}</style><script type="text/javascript">window.config = {"show_dots": false, "x_value_formatter": null, "no_data_font_size": 64, "interpolation_parameters": {}, "margin": 20, "show_x_labels": true, "x_labels_major_every": null, "disable_xml_declaration": false, "label_font_size": 10, "pretty_print": false, "margin_bottom": null, "dots_size": 2.5, "y_labels_major_every": null, "show_y_labels": true, "no_data_text": "No data", "y_label_rotation": 0, "legend_font_size": 14, "interpolation_precision": 250, "logarithmic": false, "margin_top": null, "x_label_format": "%Y-%m-%d %H:%M:%S.%f", "title_font_size": 16, "margin_right": null, "rounded_bars": null, "human_readable": false, "style": {"foreground": "#999", "plot_background": "#111", "background": "black", "opacity_hover": ".4", "font_family": "monospace", "stroke_width": 1.0, "opacity": ".8", "stroke_style": "round", "colors": ["#ff5995", "#b6e354", "#feed6c", "#8cedff", "#9e6ffe", "#899ca1", "#f8f8f2", "#bf4646", "#516083", "#f92672", "#82b414", "#fd971f", "#56c2d6", "#808384", "#8c54fe", "#465457"], "transition": "250ms", "foreground_dark": "#555", "stroke_dasharray": "0,0", "foreground_light": "#eee"}, "x_label_rotation": 0, "explicit_size": false, "spacing": 10, "half_pie": false, "include_x_axis": false, "inner_radius": 0, "mode": null, "x_labels_major": null, "title": "Latest Election Participation", "legend_at_bottom": true, "print_values": false, "y_labels_major": null, "js": ["http://kozea.github.io/pygal.js/javascripts/svg.jquery.js", "http://kozea.github.io/pygal.js/javascripts/pygal-tooltips.js"], "show_only_major_dots": false, "truncate_legend": null, "x_labels": null, "stack_from_top": false, "tooltip_border_radius": 0, "x_title": null, "width": 1024, "strict": false, "no_prefix": false, "value_font_size": 8, "y_title": "Users", "legend_box_size": 12, "height": 768, "x_labels_major_count": null, "show_minor_y_labels": true, "truncate_label": null, "range": null, "css": ["style.css", "graph.css"], "interpolate": null, "show_x_guides": false, "margin_left": null, "y_labels_major_count": null, "show_y_guides": true, "zero": 0, "order_min": null, "tooltip_font_size": 16, "print_zeroes": false, "xrange": null, "missing_value_fill_truncation": "x", "major_label_font_size": 10, "legend_at_bottom_columns": null, "fill": false, "stroke": true, "show_minor_x_labels": true, "show_legend": true, "y_labels": null}</script><script type="text/javascript" xlink:href="http://kozea.github.io/pygal.js/javascripts/svg.jquery.js" /><script type="text/javascript" xlink:href="http://kozea.github.io/pygal.js/javascripts/pygal-tooltips.js" /></defs><title>Latest Election Participation</title><g class="graph line-graph vertical"><rect class="background" height="768" width="1024" x="0" y="0" /><g class="plot" transform="translate(86, 46)"><rect class="background" height="657.0" width="918.0" x="0" y="0" /><g class="axis y"><g class="guides"><path class="axis major line" d="M0.000000 644.365385 h918.000000" /><text class="major" x="-5" y="647.8653846153846">0</text></g><g class="guides"><path class="guide line" d="M0.000000 561.249477 h918.000000" /><text class="" x="-5" y="564.749476761956">10000</text></g><g class="guides"><path class="guide line" d="M0.000000 478.133569 h918.000000" /><text class="" x="-5" y="481.6335689085274">20000</text></g><g class="guides"><path class="guide line" d="M0.000000 395.017661 h918.000000" /><text class="" x="-5" y="398.51766105509887">30000</text></g><g class="guides"><path class="guide line" d="M0.000000 311.901753 h918.000000" /><text class="" x="-5" y="315.4017532016702">40000</text></g><g class="guides"><path class="major guide line" d="M0.000000 228.785845 h918.000000" /><text class="major" x="-5" y="232.28584534824165">50000</text></g><g class="guides"><path class="guide line" d="M0.000000 145.669937 h918.000000" /><text class="" x="-5" y="149.16993749481304">60000</text></g><g class="guides"><path class="guide line" d="M0.000000 62.554030 h918.000000" /><text class="" x="-5" y="66.05402964138455">70000</text></g></g><g class="series serie-0 color-0"><path class="line reactive nofill" d="M17.653846 644.365385 L20.312558 644.365385 22.971270 644.365385 25.629981 644.365385 28.288693 644.365385 30.947405 644.365385 33.606117 644.365385 36.264829 644.365385 38.923540 644.365385 41.582252 644.365385 44.240964 644.365385 46.899676 644.365385 49.558387 644.365385 52.217099 644.365385 54.875811 644.365385 57.534523 644.365385 60.193234 644.365385 62.851946 644.365385 65.510658 644.365385 68.169370 644.365385 70.828082 644.365385 73.486793 644.365385 76.145505 644.365385 78.804217 644.365385 81.462929 644.365385 84.121640 644.365385 86.780352 644.365385 89.439064 644.365385 92.097776 644.365385 94.756487 644.365385 97.415199 644.365385 100.073911 644.365385 102.732623 644.365385 105.391335 644.365385 108.050046 644.365385 110.708758 644.365385 113.367470 644.365385 116.026182 644.365385 118.684893 644.365385 121.343605 644.365385 124.002317 644.365385 126.661029 644.365385 129.319741 644.365385 131.978452 644.365385 134.637164 644.365385 137.295876 644.365385 139.954588 644.365385 142.613299 644.365385 145.272011 644.365385 147.930723 644.365385 150.589435 644.365385 153.248146 644.365385 155.906858 644.365385 158.565570 644.365385 161.224282 644.365385 163.882994 644.365385 166.541705 644.365385 169.200417 644.365385 171.859129 644.365385 174.517841 644.365385 177.176552 644.365385 179.835264 644.365385 182.493976 644.365385 185.152688 644.365385 187.811399 644.365385 190.470111 644.365385 193.128823 644.365385 195.787535 644.365385 198.446247 644.365385 201.104958 644.365385 203.763670 644.365385 206.422382 644.365385 209.081094 644.365385 211.739805 644.365385 214.398517 644.365385 217.057229 644.365385 219.715941 644.365385 222.374652 644.365385 225.033364 644.365385 227.692076 644.365385 230.350788 644.365385 233.009500 644.365385 235.668211 644.365385 238.326923 644.365385 240.985635 644.365385 243.644347 644.365385 246.303058 644.365385 248.961770 644.365385 251.620482 644.365385 254.279194 644.365385 256.937905 644.365385 259.596617 644.365385 262.255329 644.365385 264.914041 644.365385 267.572753 644.365385 270.231464 644.365385 272.890176 644.365385 275.548888 644.365385 278.207600 644.365385 280.866311 644.365385 283.525023 644.365385 286.183735 644.365385 288.842447 644.365385 291.501158 644.365385 294.159870 644.365385 296.818582 644.365385 299.477294 644.365385 302.136006 644.365385 304.794717 644.365385 307.453429 644.365385 310.112141 644.365385 312.770853 644.365385 315.429564 644.365385 318.088276 644.365385 320.746988 644.365385 323.405700 644.365385 326.064411 644.365385 328.723123 644.365385 331.381835 644.365385 334.040547 644.365385 336.699259 644.365385 339.357970 644.365385 342.016682 644.365385 344.675394 644.365385 347.334106 644.365385 349.992817 644.365385 352.651529 644.365385 355.310241 644.365385 357.968953 644.365385 360.627665 644.365385 363.286376 644.365385 365.945088 644.365385 368.603800 644.365385 371.262512 644.365385 373.921223 644.365385 376.579935 644.365385 379.238647 644.365385 381.897359 644.365385 384.556070 644.365385 387.214782 644.365385 389.873494 644.365385 392.532206 644.365385 395.190918 644.365385 397.849629 644.365385 400.508341 644.365385 403.167053 644.365385 405.825765 644.365385 408.484476 644.365385 411.143188 644.365385 413.801900 644.365385 416.460612 644.365385 419.119323 644.365385 421.778035 644.365385 424.436747 644.365385 427.095459 644.365385 429.754171 644.365385 432.412882 644.365385 435.071594 644.365385 437.730306 644.365385 440.389018 644.365385 443.047729 644.365385 445.706441 644.365385 448.365153 644.365385 451.023865 644.365385 453.682576 644.365385 456.341288 644.365385 459.000000 644.365385 461.658712 644.365385 464.317424 644.365385 466.976135 644.365385 469.634847 644.365385 472.293559 644.365385 474.952271 644.365385 477.610982 644.365385 480.269694 644.365385 482.928406 644.365385 485.587118 644.365385 488.245829 644.365385 490.904541 644.365385 493.563253 644.365385 496.221965 644.365385 498.880677 644.365385 501.539388 644.365385 504.198100 644.365385 506.856812 644.365385 509.515524 644.365385 512.174235 644.365385 514.832947 644.365385 517.491659 644.365385 520.150371 644.365385 522.809082 644.365385 525.467794 644.365385 528.126506 644.365385 530.785218 644.365385 533.443930 644.365385 536.102641 644.365385 538.761353 644.365385 541.420065 644.365385 544.078777 644.365385 546.737488 644.365385 549.396200 644.365385 552.054912 644.365385 554.713624 644.365385 557.372335 644.365385 560.031047 644.365385 562.689759 644.365385 565.348471 644.365385 568.007183 644.365385 570.665894 644.365385 573.324606 644.365385 575.983318 644.365385 578.642030 644.365385 581.300741 644.365385 583.959453 644.365385 586.618165 644.365385 589.276877 644.365385 591.935589 644.365385 594.594300 644.365385 597.253012 644.365385 599.911724 644.365385 602.570436 644.365385 605.229147 644.365385 607.887859 644.365385 610.546571 644.365385 613.205283 644.365385 615.863994 644.365385 618.522706 644.365385 621.181418 644.365385 623.840130 644.365385 626.498842 644.365385 629.157553 644.365385 631.816265 644.365385 634.474977 644.365385 637.133689 644.365385 639.792400 644.365385 642.451112 644.365385 645.109824 644.365385 647.768536 644.365385 650.427247 644.365385 653.085959 644.365385 655.744671 644.365385 658.403383 644.365385 661.062095 644.365385 663.720806 644.365385 666.379518 644.365385 669.038230 644.365385 671.696942 644.365385 674.355653 644.365385 677.014365 644.365385 679.673077 644.365385 682.331789 644.365385 684.990500 644.365385 687.649212 644.365385 690.307924 644.365385 692.966636 644.365385 695.625348 644.365385 698.284059 644.365385 700.942771 644.365385 703.601483 644.365385 706.260195 644.365385 708.918906 644.365385 711.577618 644.365385 714.236330 644.365385 716.895042 644.365385 719.553753 617.735048 722.212465 605.475451 724.871177 598.676570 727.529889 594.653760 730.188601 591.520290 732.847312 588.752531 735.506024 586.259053 738.164736 583.374931 740.823448 579.543288 743.482159 575.786449 746.140871 572.071168 748.799583 567.807322 751.458295 564.058794 754.117006 559.811572 756.775718 555.963305 759.434430 552.854770 762.093142 549.879221 764.751854 546.961852 767.410565 544.185781 770.069277 541.634123 772.727989 539.448174 775.386701 536.954697 778.045412 535.034719 780.704124 532.773967 783.362836 531.228011 786.021548 529.956337 788.680259 528.967258 791.338971 528.127787 793.997683 527.521041 796.656395 526.856114 799.315107 526.241056 801.973818 525.684180 804.632530 525.085745 807.291242 524.213028 809.949954 522.999536 812.608665 521.885783 815.267377 520.422943 817.926089 519.242697 820.584801 517.838038 823.243513 516.441691 825.902224 515.211575 828.560936 513.948214 831.219648 512.917576 833.878360 511.612657 836.537071 510.340983 839.195783 509.110868 841.854495 507.905687 844.513207 506.775311 847.171918 505.794543 849.830630 504.763906 852.489342 504.007551 855.148054 503.068341 857.806766 502.162378 860.465477 501.131741 863.124189 500.017987 865.782901 498.804495 868.441613 496.410757 871.100324 493.036251 873.759036 488.306956 876.417748 482.148067 879.076460 476.512809 881.735171 471.218325 884.393883 467.777327 887.052595 464.743596 889.711307 461.061561 892.370019 457.263164 895.028730 453.689180 897.687442 450.946355 900.346154 450.140131" /></g><g class="series serie-1 color-1"><path class="line reactive nofill" d="M17.653846 627.684022 L20.312558 621.442017 22.971270 617.959461 25.629981 615.640527 28.288693 613.454578 30.947405 612.000050 33.606117 610.537210 36.264829 608.833334 38.923540 606.289987 41.582252 603.015220 44.240964 599.590845 46.899676 594.903108 49.558387 590.614327 52.217099 587.696959 54.875811 585.012315 57.534523 582.784808 60.193234 580.474186 62.851946 578.213434 65.510658 575.936058 68.169370 573.949587 70.828082 572.387008 73.486793 570.998973 76.145505 569.768857 78.804217 568.605235 81.462929 567.690960 84.121640 566.568895 86.780352 566.036953 89.439064 565.654620 92.097776 565.189171 94.756487 564.748656 97.415199 564.457751 100.073911 564.183468 102.732623 563.626592 105.391335 562.978288 108.050046 562.271802 110.708758 561.315969 113.367470 560.360137 116.026182 559.420927 118.684893 558.531587 121.343605 557.791855 124.002317 556.944073 126.661029 556.071356 129.319741 555.315001 131.978452 554.658385 134.637164 554.109820 137.295876 553.453205 139.954588 552.863082 142.613299 552.372698 145.272011 551.874002 147.930723 551.475046 150.589435 551.084401 153.248146 550.934793 155.906858 550.760249 158.565570 550.577394 161.224282 550.344670 163.882994 550.161815 166.541705 549.812728 169.200417 549.372214 171.859129 548.998192 174.517841 548.416381 177.176552 547.826258 179.835264 547.327562 182.493976 546.820555 185.152688 546.238744 187.811399 545.748360 190.470111 545.141614 193.128823 544.518245 195.787535 543.928122 198.446247 543.470984 201.104958 543.155144 203.763670 542.789434 206.422382 542.407100 209.081094 541.933340 211.739805 541.634123 214.398517 541.442956 217.057229 541.260101 219.715941 541.135427 222.374652 540.994130 225.033364 540.836210 227.692076 540.719848 230.350788 540.470500 233.009500 540.179594 235.668211 539.805573 238.326923 539.473109 240.985635 539.124022 243.644347 538.675196 246.303058 538.234682 248.961770 537.885595 251.620482 537.461704 254.279194 537.071059 256.937905 536.655480 259.596617 536.331328 262.255329 536.115226 264.914041 535.857567 267.572753 535.624842 270.231464 535.408741 272.890176 535.117835 275.548888 534.943292 278.207600 534.793683 280.866311 534.677321 283.525023 534.536024 286.183735 534.427973 288.842447 534.361481 291.501158 534.294988 294.159870 534.162002 296.818582 534.087198 299.477294 533.945901 302.136006 533.804604 304.794717 533.721488 307.453429 533.621749 310.112141 533.546945 312.770853 533.372401 315.429564 533.214481 318.088276 533.114742 320.746988 532.915264 323.405700 532.749032 326.064411 532.599423 328.723123 532.424880 331.381835 532.208779 334.040547 532.075793 336.699259 531.976054 339.357970 531.901250 342.016682 531.743329 344.675394 531.626967 347.334106 531.535540 349.992817 531.427489 352.651529 531.336062 355.310241 531.269569 357.968953 531.153207 360.627665 531.045156 363.286376 530.937105 365.945088 530.845678 368.603800 530.762562 371.262512 530.571395 373.921223 530.430098 376.579935 530.263866 379.238647 530.122569 381.897359 529.989584 384.556070 529.856598 387.214782 529.715301 389.873494 529.615562 392.532206 529.490888 395.190918 529.349591 397.849629 529.150113 400.508341 529.008816 403.167053 528.850896 405.825765 528.759468 408.484476 528.668041 411.143188 528.576613 413.801900 528.468563 416.460612 528.318954 419.119323 528.244150 421.778035 528.136099 424.436747 527.928309 427.095459 527.720520 429.754171 527.329875 432.412882 526.897672 435.071594 526.398977 437.730306 526.000020 440.389018 525.542883 443.047729 525.135615 445.706441 524.528869 448.365153 524.038485 451.023865 523.772514 453.682576 523.473297 456.341288 523.149145 459.000000 522.800058 461.658712 522.426036 464.317424 481.034314 466.976135 461.369090 469.634847 450.738566 472.293559 442.892424 474.952271 436.160035 477.610982 430.516465 480.269694 424.149787 482.928406 417.924405 485.587118 408.906329 488.245829 395.765704 490.904541 378.469284 493.563253 356.451880 496.221965 337.534699 498.880677 320.869960 501.539388 308.003617 504.198100 296.683230 506.856812 285.105185 509.515524 274.183754 512.174235 263.761019 514.832947 255.366313 517.491659 248.974699 520.150371 243.422557 522.809082 238.285994 525.467794 233.623191 528.126506 229.675186 530.785218 226.200941 533.443930 223.890318 536.102641 222.410855 538.761353 221.189051 541.420065 219.842574 544.078777 218.562589 546.737488 216.958452 549.396200 214.805750 552.054912 211.996432 554.713624 208.231281 557.372335 203.967435 560.031047 199.695278 562.689759 195.207019 565.348471 191.225767 568.007183 187.377500 570.665894 183.537545 573.324606 179.606163 575.983318 175.566730 578.642030 172.366767 581.300741 169.341348 583.959453 166.997479 586.618165 164.578807 589.276877 162.459351 591.935589 160.373142 594.594300 158.951860 597.253012 157.713433 599.911724 156.716042 602.570436 155.992933 605.229147 155.045412 607.887859 154.322304 610.546571 153.399717 613.205283 152.302587 615.863994 151.163899 618.522706 149.102624 621.181418 146.999792 623.840130 144.855402 626.498842 142.453352 629.157553 140.284027 631.816265 138.231064 634.474977 135.795768 637.133689 133.584884 639.792400 131.490364 642.451112 129.944408 645.109824 128.140793 647.768536 126.553279 650.427247 125.373033 653.085959 124.201098 655.744671 122.962671 658.403383 121.948657 661.062095 121.242172 663.720806 120.701919 666.379518 120.211535 669.038230 119.820890 671.696942 119.305572 674.355653 118.773630 677.014365 118.183507 679.673077 117.435464 682.331789 116.579370 684.990500 115.557044 687.649212 114.218878 690.307924 112.855777 692.966636 111.791893 695.625348 110.777879 698.284059 109.323351 700.942771 107.902069 703.601483 106.389359 706.260195 105.283918 708.918906 104.486005 711.577618 103.505237 714.236330 102.557716 716.895042 101.793050 719.553753 93.165619 722.212465 88.544374 724.871177 85.610382 727.529889 83.740275 730.188601 82.551717 732.847312 81.496145 735.506024 80.681609 738.164736 79.717465 740.823448 78.520596 743.482159 77.149183 746.140871 75.769459 748.799583 74.223503 751.458295 72.893649 754.117006 71.164838 756.775718 69.751867 759.434430 68.554998 762.093142 67.009042 764.751854 65.745681 767.410565 64.449072 770.069277 63.169087 772.727989 62.155073 775.386701 61.008074 778.045412 60.043929 780.704124 58.813814 783.362836 57.916162 786.021548 57.093314 788.680259 56.577996 791.338971 55.962938 793.997683 55.588917 796.656395 55.206583 799.315107 54.907366 801.973818 54.574902 804.632530 54.234127 807.291242 53.835171 809.949954 53.269983 812.608665 52.671548 815.267377 51.765585 817.926089 50.909491 820.584801 50.045086 823.243513 49.438339 825.902224 48.607180 828.560936 47.917318 831.219648 47.269014 833.878360 46.429544 836.537071 45.681500 839.195783 44.875276 841.854495 44.318399 844.513207 43.695030 847.171918 42.980233 849.830630 42.373487 852.489342 41.949596 855.148054 41.484147 857.806766 41.027010 860.465477 40.395329 863.124189 39.821829 865.782901 39.131967 868.441613 38.159511 871.100324 36.713294 873.759036 34.643708 876.417748 32.125296 879.076460 29.216239 881.735171 26.107704 884.393883 24.054741 887.052595 22.051648 889.711307 19.716091 892.370019 17.363911 895.028730 15.119781 897.687442 13.158246 900.346154 12.634615" /></g></g><g class="titles"><text class="title plot_title" x="512.0" y="26">Latest Election Participation</text><text class="title" transform="rotate(-90 0.000000 374.500000)" x="0" y="400.5">Users</text></g><g class="plot overlay" transform="translate(86, 46)"><g class="series serie-0 color-0" /><g class="series serie-1 color-1" /></g><g class="plot text-overlay" transform="translate(86, 46)"><g class="series serie-0 color-0" /><g class="series serie-1 color-1" /></g><g class="plot tooltip-overlay" transform="translate(86, 46)"><g class="tooltip" style="opacity: 0" transform="translate(0 0)"><a><rect class="tooltip-box" height="0" rx="0" ry="0" width="0" /><text class="text"><tspan class="label" /><tspan class="value" /></text></a></g></g><g class="legends" transform="translate(96, 713)"><g class="legend reactive activate-serie" id="activate-serie-0"><rect class="color-0 reactive" height="12" width="12" x="0.0" y="1.0" /><text x="17.0" y="11.2">constituents</text></g><g class="legend reactive activate-serie" id="activate-serie-1"><rect class="color-1 reactive" height="12" width="12" x="459.0" y="1.0" /><text x="476.0" y="11.2">caucus</text></g></g></g></svg>