<?xml version='1.0' encoding='utf-8'?>
<svg xmlns:xlink="http://www.w3.org/1999/xlink" class="pygal-chart" id="chart-96cf4a1d-7589-4a51-be71-851390c89fc7" viewBox="0 0 1024 768" xmlns="http://www.w3.org/2000/svg"><!--Generated with pygal 1.7.0 (etree) ©Kozea 2011-2014 on 2015-04-20--><!--http://pygal.org--><!--http://github.com/Kozea/pygal--><defs><style type="text/css">#chart-96cf4a1d-7589-4a51-be71-851390c89fc7 .title{font-family:"monospace";font-size:16px}#chart-96cf4a1d-7589-4a51-be71-851390c89fc7 .legends .legend text{font-family:"monospace";font-size:14px}#chart-96cf4a1d-7589-4a51-be71-851390c89fc7 .axis text{font-family:"monospace";font-size:10px}#chart-96cf4a1d-7589-4a51-be71-851390c89fc7 .axis text.major{font-family:"monospace";font-size:10px}#chart-96cf4a1d-7589-4a51-be71-851390c89fc7 .series text{font-family:"monospace";font-size:8px}#chart-96cf4a1d-7589-4a51-be71-851390c89fc7 .tooltip text{font-family:"monospace";font-size:16px}#chart-96cf4a1d-7589-4a51-be71-851390c89fc7 text.no_data{font-size:64px}
#chart-96cf4a1d-7589-4a51-be71-851390c89fc7{background-color:black}#chart-96cf4a1d-7589-4a51-be71-851390c89fc7 path,#chart-96cf4a1d-7589-4a51-be71-851390c89fc7 line,#chart-96cf4a1d-7589-4a51-be71-851390c89fc7 rect,#chart-96cf4a1d-7589-4a51-be71-851390c89fc7 circle{-webkit-transition:250ms;-moz-transition:250ms;transition:250ms}#chart-96cf4a1d-7589-4a51-be71-851390c89fc7 .graph &gt; .background{fill:black}#chart-96cf4a1d-7589-4a51-be71-851390c89fc7 .plot &gt; .background{fill:#111}#chart-96cf4a1d-7589-4a51-be71-851390c89fc7 .graph{fill:#999}#chart-96cf4a1d-7589-4a51-be71-851390c89fc7 text.no_data{fill:#eee}#chart-96cf4a1d-7589-4a51-be71-851390c89fc7 .title{fill:#eee}#chart-96cf4a1d-7589-4a51-be71-851390c89fc7 .legends .legend text{fill:#999}#chart-96cf4a1d-7589-4a51-be71-851390c89fc7 .legends .legend:hover text{fill:#eee}#chart-96cf4a1d-7589-4a51-be71-851390c89fc7 .axis .line{stroke:#eee}#chart-96cf4a1d-7589-4a51-be71-851390c89fc7 .axis .guide.line{stroke:#555}#chart-96cf4a1d-7589-4a51-be71-851390c89fc7 .axis .major.line{stroke:#999}#chart-96cf4a1d-7589-4a51-be71-851390c89fc7 .axis text.major{stroke:#eee;fill:#eee}#chart-96cf4a1d-7589-4a51-be71-851390c89fc7 .axis.y .guides:hover .guide.line,#chart-96cf4a1d-7589-4a51-be71-851390c89fc7 .line-graph .axis.x .guides:hover .guide.line,#chart-96cf4a1d-7589-4a51-be71-851390c89fc7 .stackedline-graph .axis.x .guides:hover .guide.line,#chart-96cf4a1d-7589-4a51-be71-851390c89fc7 .xy-graph .axis.x .guides:hover .guide.line{stroke:#eee}#chart-96cf4a1d-7589-4a51-be71-851390c89fc7 .axis .guides:hover text{fill:#eee}#chart-96cf4a1d-7589-4a51-be71-851390c89fc7 .reactive{fill-opacity:.8}#chart-96cf4a1d-7589-4a51-be71-851390c89fc7 .reactive.active,#chart-96cf4a1d-7589-4a51-be71-851390c89fc7 .active .reactive{fill-opacity:.4}#chart-96cf4a1d-7589-4a51-be71-851390c89fc7 .series{stroke-width:1.0;stroke-linejoin:round;stroke-linecap:round;stroke-dasharray:0,0}#chart-96cf4a1d-7589-4a51-be71-851390c89fc7 .series text{fill:#eee}#chart-96cf4a1d-7589-4a51-be71-851390c89fc7 .tooltip rect{fill:#111;stroke:#eee}#chart-96cf4a1d-7589-4a51-be71-851390c89fc7 .tooltip text{fill:#eee}#chart-96cf4a1d-7589-4a51-be71-851390c89fc7 .map-element{fill:#999;stroke:#555 !important;opacity:.9;stroke-width:3;-webkit-transition:250ms;-moz-transition:250ms;-o-transition:250ms;transition:250ms}#chart-96cf4a1d-7589-4a51-be71-851390c89fc7 .map-element:hover{opacity:1;stroke-width:10}#chart-96cf4a1d-7589-4a51-be71-851390c89fc7 .color-0,#chart-96cf4a1d-7589-4a51-be71-851390c89fc7 .color-0 a:visited{stroke:#ff5995;fill:#ff5995}#chart-96cf4a1d-7589-4a51-be71-851390c89fc7 .color-1,#chart-96cf4a1d-7589-4a51-be71-851390c89fc7 .color-1 a:visited{stroke:#b6e354;fill:#b6e354}#chart-96cf4a1d-7589-4a51-be71-851390c89fc7 .color-2,#chart-96cf4a1d-7589-4a51-be71-851390c89fc7 .color-2 a:visited{stroke:#feed6c;fill:#feed6c}#chart-96cf4a1d-7589-4a51-be71-851390c89fc7 .color-3,#chart-96cf4a1d-7589-4a51-be71-851390c89fc7 .color-3 a:visited{stroke:#8cedff;fill:#8cedff}#chart-96cf4a1d-7589-4a51-be71-851390c89fc7 .color-4,#chart-96cf4a1d-7589-4a51-be71-851390c89fc7 .color-4 a:visited{stroke:#9e6ffe;fill:#9e6ffe}#chart-96cf4a1d-7589-4a51-be71-851390c89fc7 .color-5,#chart-96cf4a1d-7589-4a51-be71-851390c89fc7 .color-5 a:visited{stroke:#899ca1;fill:#899ca1}#chart-96cf4a1d-7589-4a51-be71-851390c89fc7 .color-6,#chart-96cf4a1d-7589-4a51-be71-851390c89fc7 .color-6 a:visited{stroke:#f8f8f2;fill:#f8f8f2}#chart-96cf4a1d-7589-4a51-be71-851390c89fc7 .color-7,#chart-96cf4a1d-7589-4a51-be71-851390c89fc7 .color-7 a:visited{stroke:#bf4646;fill:#bf4646}#chart-96cf4a1d-7589-4a51-be71-851390c89fc7 .color-8,#chart-96cf4a1d-7589-4a51-be71-851390c89fc7 .color-8 a:visited{stroke:#516083;fill:#516083}#chart-96cf4a1d-7589-4a51-be71-851390c89fc7 .color-9,#chart-96cf4a1d-7589-4a51-be71-851390c89fc7 .color-9 a:visited{stroke:#f92672;fill:#f92672}#chart-96cf4a1d-7589-4a51-be71-851390c89fc7 .color-10,#chart-96cf4a1d-7589-4a51-be71-851390c89fc7 .color-10 a:visited{stroke:#82b414;fill:#82b414}#chart-96cf4a1d-7589-4a51-be71-851390c89fc7 .color-11,#chart-96cf4a1d-7589-4a51-be71-851390c89fc7 .color-11 a:visited{stroke:#fd971f;fill:#fd971f}#chart-96cf4a1d-7589-4a51-be71-851390c89fc7 .color-12,#chart-96cf4a1d-7589-4a51-be71-851390c89fc7 .color-12 a:visited{stroke:#56c2d6;fill:#56c2d6}#chart-96cf4a1d-7589-4a51-be71-851390c89fc7 .color-13,#chart-96cf4a1d-7589-4a51-be71-851390c89fc7 .color-13 a:visited{stroke:#808384;fill:#808384}#chart-96cf4a1d-7589-4a51-be71-851390c89fc7 .color-14,#chart-96cf4a1d-7589-4a51-be71-851390c89fc7 .color-14 a:visited{stroke:#8c54fe;fill:#8c54fe}#chart-96cf4a1d-7589-4a51-be71-851390c89fc7 .color-15,#chart-96cf4a1d-7589-4a51-be71-851390c89fc7 .color-15 a:visited{stroke:#465457;fill:#465457}
#chart-96cf4a1d-7589-4a51-be71-851390c89fc7 text.no_data{text-anchor:middle}#chart-96cf4a1d-7589-4a51-be71-851390c89fc7 .guide.line{fill-opacity:0}#chart-96cf4a1d-7589-4a51-be71-851390c89fc7 .centered{text-anchor:middle}#chart-96cf4a1d-7589-4a51-be71-851390c89fc7 .title{text-anchor:middle}#chart-96cf4a1d-7589-4a51-be71-851390c89fc7 .legends .legend text{fill-opacity:1}#chart-96cf4a1d-7589-4a51-be71-851390c89fc7 .axis.x text{text-anchor:middle}#chart-96cf4a1d-7589-4a51-be71-851390c89fc7 .axis.x:not(.web) text[transform]{text-anchor:start}#chart-96cf4a1d-7589-4a51-be71-851390c89fc7 .axis.y text{text-anchor:end}#chart-96cf4a1d-7589-4a51-be71-851390c89fc7 .axis.y2 text{text-anchor:start}#chart-96cf4a1d-7589-4a51-be71-851390c89fc7 .axis.y .logarithmic text:not(.major),#chart-96cf4a1d-7589-4a51-be71-851390c89fc7 .axis.y2 .logarithmic text:not(.major){font-size:50%}#chart-96cf4a1d-7589-4a51-be71-851390c89fc7 .axis .guide.line{stroke-dasharray:4,4}#chart-96cf4a1d-7589-4a51-be71-851390c89fc7 .axis .major.guide.line{stroke-dasharray:6,6}#chart-96cf4a1d-7589-4a51-be71-851390c89fc7 .axis text.major{stroke-width:0.5px}#chart-96cf4a1d-7589-4a51-be71-851390c89fc7 .horizontal .axis.y .guide.line,#chart-96cf4a1d-7589-4a51-be71-851390c89fc7 .horizontal .axis.y2 .guide.line,#chart-96cf4a1d-7589-4a51-be71-851390c89fc7 .vertical .axis.x .guide.line{opacity:0}#chart-96cf4a1d-7589-4a51-be71-851390c89fc7 .horizontal .axis.always_show .guide.line,#chart-96cf4a1d-7589-4a51-be71-851390c89fc7 .vertical .axis.always_show .guide.line{opacity:1 !important}#chart-96cf4a1d-7589-4a51-be71-851390c89fc7 .axis.y .guides:hover .guide.line,#chart-96cf4a1d-7589-4a51-be71-851390c89fc7 .axis.y2 .guides:hover .guide.line,#chart-96cf4a1d-7589-4a51-be71-851390c89fc7 .axis.x .guides:hover .guide.line{opacity:1}#chart-96cf4a1d-7589-4a51-be71-851390c89fc7 .axis .guides:hover text{opacity:1}#chart-96cf4a1d-7589-4a51-be71-851390c89fc7 .nofill{fill:none}#chart-96cf4a1d-7589-4a51-be71-851390c89fc7 .subtle-fill{fill-opacity:.2}#chart-96cf4a1d-7589-4a51-be71-851390c89fc7 .dot{stroke-width:1px;fill-opacity:1}#chart-96cf4a1d-7589-4a51-be71-851390c89fc7 .dot.active{stroke-width:5px}#chart-96cf4a1d-7589-4a51-be71-851390c89fc7 .series text{stroke:none}#chart-96cf4a1d-7589-4a51-be71-851390c89fc7 .series text.active{opacity:1}#chart-96cf4a1d-7589-4a51-be71-851390c89fc7 .tooltip rect{fill-opacity:0.8}#chart-96cf4a1d-7589-4a51-be71-851390c89fc7 .tooltip text{fill-opacity:1}#chart-96cf4a1d-7589-4a51-be71-851390c89fc7 .tooltip text tspan.label{fill-opacity:.8}</style><script type="text/javascript">window.config = {"y_label_rotation": 0, "title": "Latest Election Activity by chunk", "margin_top": null, "y_labels_major": null, "y_labels": null, "show_x_labels": true, "logarithmic": false, "truncate_legend": null, "order_min": null, "show_dots": false, "spacing": 10, "x_label_format": "%Y-%m-%d %H:%M:%S.%f", "x_value_formatter": null, "style": {"foreground_light": "#eee", "plot_background": "#111", "font_family": "monospace", "stroke_width": 1.0, "foreground": "#999", "colors": ["#ff5995", "#b6e354", "#feed6c", "#8cedff", "#9e6ffe", "#899ca1", "#f8f8f2", "#bf4646", "#516083", "#f92672", "#82b414", "#fd971f", "#56c2d6", "#808384", "#8c54fe", "#465457"], "background": "black", "foreground_dark": "#555", "transition": "250ms", "opacity": ".8", "stroke_dasharray": "0,0", "stroke_style": "round", "opacity_hover": ".4"}, "pretty_print": false, "mode": null, "margin_bottom": null, "fill": false, "y_labels_major_every": null, "js": ["http://kozea.github.io/pygal.js/javascripts/svg.jquery.js", "http://kozea.github.io/pygal.js/javascripts/pygal-tooltips.js"], "legend_box_size": 12, "legend_at_bottom": true, "margin_left": null, "major_label_font_size": 10, "rounded_bars": null, "y_labels_major_count": null, "y_title": "Users", "show_minor_y_labels": true, "margin_right": null, "no_data_text": "No data", "half_pie": false, "tooltip_font_size": 16, "interpolation_precision": 250, "show_only_major_dots": false, "value_font_size": 8, "truncate_label": null, "stack_from_top": false, "width": 1024, "x_label_rotation": 0, "no_data_font_size": 64, "show_y_labels": true, "include_x_axis": false, "human_readable": false, "print_zeroes": false, "height": 768, "legend_font_size": 14, "css": ["style.css", "graph.css"], "stroke": true, "x_labels_major_count": null, "missing_value_fill_truncation": "x", "no_prefix": false, "x_title": "Quarter-hours", "print_values": false, "inner_radius": 0, "x_labels": null, "explicit_size": false, "zero": 0, "range": [0, 512], "title_font_size": 16, "x_labels_major_every": null, "margin": 20, "interpolation_parameters": {}, "interpolate": null, "x_labels_major": null, "show_x_guides": false, "show_legend": true, "legend_at_bottom_columns": null, "strict": false, "disable_xml_declaration": false, "tooltip_border_radius": 0, "dots_size": 2.5, "xrange": null, "label_font_size": 10, "show_y_guides": true, "show_minor_x_labels": true}</script><script type="text/javascript" xlink:href="http://kozea.github.io/pygal.js/javascripts/svg.jquery.js" /><script type="text/javascript" xlink:href="http://kozea.github.io/pygal.js/javascripts/pygal-tooltips.js" /></defs><title>Latest Election Activity by chunk</title><g class="graph line-graph vertical"><rect class="background" height="768" width="1024" x="0" y="0" /><g class="plot" transform="translate(74, 46)"><rect class="background" height="631.0" width="930.0" x="0" y="0" /><g class="axis y"><g class="guides"><path class="axis major line" d="M0.000000 618.865385 h930.000000" /><text class="major" x="-5" y="622.3653846153846">0</text></g><g class="guides"><path class="guide line" d="M0.000000 500.363281 h930.000000" /><text class="" x="-5" y="503.86328125">100</text></g><g class="guides"><path class="guide line" d="M0.000000 381.861178 h930.000000" /><text class="" x="-5" y="385.36117788461536">200</text></g><g class="guides"><path class="guide line" d="M0.000000 263.359075 h930.000000" /><text class="" x="-5" y="266.8590745192308">300</text></g><g class="guides"><path class="guide line" d="M0.000000 144.856971 h930.000000" /><text class="" x="-5" y="148.3569711538462">400</text></g><g class="guides"><path class="major guide line" d="M0.000000 26.354868 h930.000000" /><text class="major" x="-5" y="29.854867788461547">500</text></g></g><g class="series serie-0 color-0"><path class="line reactive nofill" d="M17.884615 618.865385 L18.577818 618.865385 19.271020 618.865385 19.964222 618.865385 20.657424 618.865385 21.350626 618.865385 22.043828 618.865385 22.737030 618.865385 23.430233 618.865385 24.123435 618.865385 24.816637 618.865385 25.509839 618.865385 26.203041 618.865385 26.896243 618.865385 27.589445 618.865385 28.282648 618.865385 28.975850 618.865385 29.669052 618.865385 30.362254 618.865385 31.055456 618.865385 31.748658 618.865385 32.441860 618.865385 33.135063 618.865385 33.828265 618.865385 34.521467 618.865385 35.214669 618.865385 35.907871 618.865385 36.601073 618.865385 37.294275 618.865385 37.987478 618.865385 38.680680 618.865385 39.373882 618.865385 40.067084 618.865385 40.760286 618.865385 41.453488 618.865385 42.146691 618.865385 42.839893 618.865385 43.533095 618.865385 44.226297 618.865385 44.919499 618.865385 45.612701 618.865385 46.305903 618.865385 46.999106 618.865385 47.692308 618.865385 48.385510 618.865385 49.078712 618.865385 49.771914 618.865385 50.465116 618.865385 51.158318 618.865385 51.851521 618.865385 52.544723 618.865385 53.237925 618.865385 53.931127 618.865385 54.624329 618.865385 55.317531 618.865385 56.010733 618.865385 56.703936 618.865385 57.397138 618.865385 58.090340 618.865385 58.783542 618.865385 59.476744 618.865385 60.169946 618.865385 60.863148 618.865385 61.556351 618.865385 62.249553 618.865385 62.942755 618.865385 63.635957 618.865385 64.329159 618.865385 65.022361 618.865385 65.715564 618.865385 66.408766 618.865385 67.101968 618.865385 67.795170 618.865385 68.488372 618.865385 69.181574 618.865385 69.874776 618.865385 70.567979 618.865385 71.261181 618.865385 71.954383 618.865385 72.647585 618.865385 73.340787 618.865385 74.033989 618.865385 74.727191 618.865385 75.420394 618.865385 76.113596 618.865385 76.806798 618.865385 77.500000 618.865385 78.193202 618.865385 78.886404 618.865385 79.579606 618.865385 80.272809 618.865385 80.966011 618.865385 81.659213 618.865385 82.352415 618.865385 83.045617 618.865385 83.738819 618.865385 84.432021 618.865385 85.125224 618.865385 85.818426 618.865385 86.511628 618.865385 87.204830 618.865385 87.898032 618.865385 88.591234 618.865385 89.284436 618.865385 89.977639 618.865385 90.670841 618.865385 91.364043 618.865385 92.057245 618.865385 92.750447 618.865385 93.443649 618.865385 94.136852 618.865385 94.830054 618.865385 95.523256 618.865385 96.216458 618.865385 96.909660 618.865385 97.602862 618.865385 98.296064 618.865385 98.989267 618.865385 99.682469 618.865385 100.375671 618.865385 101.068873 618.865385 101.762075 618.865385 102.455277 618.865385 103.148479 618.865385 103.841682 618.865385 104.534884 618.865385 105.228086 618.865385 105.921288 618.865385 106.614490 618.865385 107.307692 618.865385 108.000894 618.865385 108.694097 618.865385 109.387299 618.865385 110.080501 618.865385 110.773703 618.865385 111.466905 618.865385 112.160107 618.865385 112.853309 618.865385 113.546512 618.865385 114.239714 618.865385 114.932916 618.865385 115.626118 618.865385 116.319320 618.865385 117.012522 618.865385 117.705725 618.865385 118.398927 618.865385 119.092129 618.865385 119.785331 618.865385 120.478533 618.865385 121.171735 618.865385 121.864937 618.865385 122.558140 618.865385 123.251342 618.865385 123.944544 618.865385 124.637746 618.865385 125.330948 618.865385 126.024150 618.865385 126.717352 618.865385 127.410555 618.865385 128.103757 618.865385 128.796959 618.865385 129.490161 618.865385 130.183363 618.865385 130.876565 618.865385 131.569767 618.865385 132.262970 618.865385 132.956172 618.865385 133.649374 618.865385 134.342576 618.865385 135.035778 618.865385 135.728980 618.865385 136.422182 618.865385 137.115385 618.865385 137.808587 618.865385 138.501789 618.865385 139.194991 618.865385 139.888193 618.865385 140.581395 618.865385 141.274597 618.865385 141.967800 618.865385 142.661002 618.865385 143.354204 618.865385 144.047406 618.865385 144.740608 618.865385 145.433810 618.865385 146.127013 618.865385 146.820215 618.865385 147.513417 618.865385 148.206619 618.865385 148.899821 618.865385 149.593023 618.865385 150.286225 618.865385 150.979428 618.865385 151.672630 618.865385 152.365832 618.865385 153.059034 618.865385 153.752236 618.865385 154.445438 618.865385 155.138640 618.865385 155.831843 618.865385 156.525045 618.865385 157.218247 618.865385 157.911449 618.865385 158.604651 618.865385 159.297853 618.865385 159.991055 618.865385 160.684258 618.865385 161.377460 618.865385 162.070662 618.865385 162.763864 618.865385 163.457066 618.865385 164.150268 618.865385 164.843470 618.865385 165.536673 618.865385 166.229875 618.865385 166.923077 618.865385 167.616279 618.865385 168.309481 618.865385 169.002683 618.865385 169.695886 618.865385 170.389088 618.865385 171.082290 618.865385 171.775492 618.865385 172.468694 618.865385 173.161896 618.865385 173.855098 618.865385 174.548301 618.865385 175.241503 618.865385 175.934705 618.865385 176.627907 618.865385 177.321109 618.865385 178.014311 618.865385 178.707513 618.865385 179.400716 618.865385 180.093918 618.865385 180.787120 618.865385 181.480322 618.865385 182.173524 618.865385 182.866726 618.865385 183.559928 618.865385 184.253131 618.865385 184.946333 618.865385 185.639535 618.865385 186.332737 618.865385 187.025939 618.865385 187.719141 618.865385 188.412343 618.865385 189.105546 618.865385 189.798748 618.865385 190.491950 618.865385 191.185152 618.865385 191.878354 618.865385 192.571556 618.865385 193.264758 618.865385 193.957961 618.865385 194.651163 618.865385 195.344365 618.865385 196.037567 618.865385 196.730769 618.865385 197.423971 618.865385 198.117174 618.865385 198.810376 618.865385 199.503578 618.865385 200.196780 618.865385 200.889982 618.865385 201.583184 618.865385 202.276386 618.865385 202.969589 618.865385 203.662791 618.865385 204.355993 618.865385 205.049195 618.865385 205.742397 618.865385 206.435599 618.865385 207.128801 618.865385 207.822004 618.865385 208.515206 618.865385 209.208408 618.865385 209.901610 618.865385 210.594812 618.865385 211.288014 618.865385 211.981216 618.865385 212.674419 618.865385 213.367621 618.865385 214.060823 618.865385 214.754025 618.865385 215.447227 618.865385 216.140429 618.865385 216.833631 618.865385 217.526834 618.865385 218.220036 618.865385 218.913238 618.865385 219.606440 618.865385 220.299642 618.865385 220.992844 618.865385 221.686047 618.865385 222.379249 618.865385 223.072451 618.865385 223.765653 618.865385 224.458855 618.865385 225.152057 618.865385 225.845259 618.865385 226.538462 618.865385 227.231664 618.865385 227.924866 618.865385 228.618068 618.865385 229.311270 618.865385 230.004472 618.865385 230.697674 618.865385 231.390877 618.865385 232.084079 618.865385 232.777281 618.865385 233.470483 618.865385 234.163685 618.865385 234.856887 618.865385 235.550089 618.865385 236.243292 618.865385 236.936494 618.865385 237.629696 618.865385 238.322898 618.865385 239.016100 618.865385 239.709302 618.865385 240.402504 618.865385 241.095707 618.865385 241.788909 618.865385 242.482111 618.865385 243.175313 618.865385 243.868515 618.865385 244.561717 618.865385 245.254919 618.865385 245.948122 618.865385 246.641324 618.865385 247.334526 618.865385 248.027728 618.865385 248.720930 618.865385 249.414132 618.865385 250.107335 618.865385 250.800537 618.865385 251.493739 618.865385 252.186941 618.865385 252.880143 618.865385 253.573345 618.865385 254.266547 618.865385 254.959750 618.865385 255.652952 618.865385 256.346154 618.865385 257.039356 618.865385 257.732558 618.865385 258.425760 618.865385 259.118962 618.865385 259.812165 618.865385 260.505367 618.865385 261.198569 618.865385 261.891771 618.865385 262.584973 618.865385 263.278175 618.865385 263.971377 618.865385 264.664580 618.865385 265.357782 618.865385 266.050984 618.865385 266.744186 618.865385 267.437388 618.865385 268.130590 618.865385 268.823792 618.865385 269.516995 618.865385 270.210197 618.865385 270.903399 618.865385 271.596601 618.865385 272.289803 618.865385 272.983005 618.865385 273.676208 618.865385 274.369410 618.865385 275.062612 618.865385 275.755814 618.865385 276.449016 618.865385 277.142218 618.865385 277.835420 618.865385 278.528623 618.865385 279.221825 618.865385 279.915027 618.865385 280.608229 618.865385 281.301431 618.865385 281.994633 618.865385 282.687835 618.865385 283.381038 618.865385 284.074240 618.865385 284.767442 618.865385 285.460644 618.865385 286.153846 618.865385 286.847048 618.865385 287.540250 618.865385 288.233453 618.865385 288.926655 618.865385 289.619857 618.865385 290.313059 618.865385 291.006261 618.865385 291.699463 618.865385 292.392665 618.865385 293.085868 618.865385 293.779070 618.865385 294.472272 618.865385 295.165474 618.865385 295.858676 618.865385 296.551878 618.865385 297.245081 618.865385 297.938283 618.865385 298.631485 618.865385 299.324687 618.865385 300.017889 618.865385 300.711091 618.865385 301.404293 618.865385 302.097496 618.865385 302.790698 618.865385 303.483900 618.865385 304.177102 618.865385 304.870304 618.865385 305.563506 618.865385 306.256708 618.865385 306.949911 618.865385 307.643113 618.865385 308.336315 618.865385 309.029517 618.865385 309.722719 618.865385 310.415921 618.865385 311.109123 618.865385 311.802326 618.865385 312.495528 618.865385 313.188730 618.865385 313.881932 618.865385 314.575134 618.865385 315.268336 618.865385 315.961538 618.865385 316.654741 618.865385 317.347943 618.865385 318.041145 618.865385 318.734347 618.865385 319.427549 618.865385 320.120751 618.865385 320.813953 618.865385 321.507156 618.865385 322.200358 618.865385 322.893560 618.865385 323.586762 618.865385 324.279964 618.865385 324.973166 618.865385 325.666369 618.865385 326.359571 618.865385 327.052773 618.865385 327.745975 618.865385 328.439177 618.865385 329.132379 618.865385 329.825581 618.865385 330.518784 618.865385 331.211986 618.865385 331.905188 618.865385 332.598390 618.865385 333.291592 618.865385 333.984794 618.865385 334.677996 618.865385 335.371199 618.865385 336.064401 618.865385 336.757603 618.865385 337.450805 618.865385 338.144007 618.865385 338.837209 618.865385 339.530411 618.865385 340.223614 618.865385 340.916816 618.865385 341.610018 618.865385 342.303220 618.865385 342.996422 618.865385 343.689624 618.865385 344.382826 618.865385 345.076029 618.865385 345.769231 618.865385 346.462433 618.865385 347.155635 618.865385 347.848837 618.865385 348.542039 618.865385 349.235242 618.865385 349.928444 618.865385 350.621646 618.865385 351.314848 618.865385 352.008050 618.865385 352.701252 618.865385 353.394454 618.865385 354.087657 618.865385 354.780859 618.865385 355.474061 618.865385 356.167263 618.865385 356.860465 618.865385 357.553667 618.865385 358.246869 618.865385 358.940072 618.865385 359.633274 618.865385 360.326476 618.865385 361.019678 618.865385 361.712880 618.865385 362.406082 618.865385 363.099284 618.865385 363.792487 618.865385 364.485689 618.865385 365.178891 618.865385 365.872093 618.865385 366.565295 618.865385 367.258497 618.865385 367.951699 618.865385 368.644902 618.865385 369.338104 618.865385 370.031306 618.865385 370.724508 618.865385 371.417710 618.865385 372.110912 618.865385 372.804114 618.865385 373.497317 618.865385 374.190519 618.865385 374.883721 618.865385 375.576923 618.865385 376.270125 618.865385 376.963327 618.865385 377.656530 618.865385 378.349732 618.865385 379.042934 618.865385 379.736136 618.865385 380.429338 618.865385 381.122540 618.865385 381.815742 618.865385 382.508945 618.865385 383.202147 618.865385 383.895349 618.865385 384.588551 618.865385 385.281753 618.865385 385.974955 618.865385 386.668157 618.865385 387.361360 618.865385 388.054562 618.865385 388.747764 618.865385 389.440966 618.865385 390.134168 618.865385 390.827370 618.865385 391.520572 618.865385 392.213775 618.865385 392.906977 618.865385 393.600179 618.865385 394.293381 618.865385 394.986583 618.865385 395.679785 618.865385 396.372987 618.865385 397.066190 618.865385 397.759392 618.865385 398.452594 618.865385 399.145796 618.865385 399.838998 618.865385 400.532200 618.865385 401.225403 618.865385 401.918605 618.865385 402.611807 618.865385 403.305009 618.865385 403.998211 618.865385 404.691413 618.865385 405.384615 618.865385 406.077818 618.865385 406.771020 618.865385 407.464222 618.865385 408.157424 618.865385 408.850626 618.865385 409.543828 618.865385 410.237030 618.865385 410.930233 618.865385 411.623435 618.865385 412.316637 618.865385 413.009839 618.865385 413.703041 618.865385 414.396243 618.865385 415.089445 618.865385 415.782648 618.865385 416.475850 618.865385 417.169052 618.865385 417.862254 618.865385 418.555456 618.865385 419.248658 618.865385 419.941860 618.865385 420.635063 618.865385 421.328265 618.865385 422.021467 618.865385 422.714669 618.865385 423.407871 618.865385 424.101073 618.865385 424.794275 618.865385 425.487478 618.865385 426.180680 618.865385 426.873882 618.865385 427.567084 618.865385 428.260286 618.865385 428.953488 618.865385 429.646691 618.865385 430.339893 618.865385 431.033095 618.865385 431.726297 618.865385 432.419499 618.865385 433.112701 618.865385 433.805903 618.865385 434.499106 618.865385 435.192308 618.865385 435.885510 618.865385 436.578712 618.865385 437.271914 618.865385 437.965116 618.865385 438.658318 618.865385 439.351521 618.865385 440.044723 618.865385 440.737925 618.865385 441.431127 618.865385 442.124329 618.865385 442.817531 618.865385 443.510733 618.865385 444.203936 618.865385 444.897138 618.865385 445.590340 618.865385 446.283542 618.865385 446.976744 618.865385 447.669946 618.865385 448.363148 618.865385 449.056351 618.865385 449.749553 618.865385 450.442755 618.865385 451.135957 618.865385 451.829159 618.865385 452.522361 618.865385 453.215564 618.865385 453.908766 618.865385 454.601968 618.865385 455.295170 618.865385 455.988372 618.865385 456.681574 618.865385 457.374776 618.865385 458.067979 618.865385 458.761181 618.865385 459.454383 618.865385 460.147585 618.865385 460.840787 618.865385 461.533989 618.865385 462.227191 618.865385 462.920394 618.865385 463.613596 618.865385 464.306798 618.865385 465.000000 618.865385 465.693202 618.865385 466.386404 618.865385 467.079606 618.865385 467.772809 618.865385 468.466011 618.865385 469.159213 618.865385 469.852415 618.865385 470.545617 618.865385 471.238819 618.865385 471.932021 618.865385 472.625224 618.865385 473.318426 618.865385 474.011628 618.865385 474.704830 618.865385 475.398032 618.865385 476.091234 618.865385 476.784436 618.865385 477.477639 618.865385 478.170841 618.865385 478.864043 618.865385 479.557245 618.865385 480.250447 618.865385 480.943649 618.865385 481.636852 618.865385 482.330054 618.865385 483.023256 618.865385 483.716458 618.865385 484.409660 618.865385 485.102862 618.865385 485.796064 618.865385 486.489267 618.865385 487.182469 618.865385 487.875671 618.865385 488.568873 618.865385 489.262075 618.865385 489.955277 618.865385 490.648479 618.865385 491.341682 618.865385 492.034884 618.865385 492.728086 618.865385 493.421288 618.865385 494.114490 618.865385 494.807692 618.865385 495.500894 618.865385 496.194097 618.865385 496.887299 618.865385 497.580501 618.865385 498.273703 618.865385 498.966905 618.865385 499.660107 618.865385 500.353309 618.865385 501.046512 618.865385 501.739714 618.865385 502.432916 618.865385 503.126118 618.865385 503.819320 618.865385 504.512522 618.865385 505.205725 618.865385 505.898927 618.865385 506.592129 618.865385 507.285331 618.865385 507.978533 618.865385 508.671735 618.865385 509.364937 618.865385 510.058140 618.865385 510.751342 618.865385 511.444544 618.865385 512.137746 618.865385 512.830948 618.865385 513.524150 618.865385 514.217352 618.865385 514.910555 618.865385 515.603757 618.865385 516.296959 618.865385 516.990161 618.865385 517.683363 618.865385 518.376565 618.865385 519.069767 618.865385 519.762970 618.865385 520.456172 618.865385 521.149374 618.865385 521.842576 618.865385 522.535778 618.865385 523.228980 618.865385 523.922182 618.865385 524.615385 618.865385 525.308587 618.865385 526.001789 618.865385 526.694991 618.865385 527.388193 618.865385 528.081395 618.865385 528.774597 618.865385 529.467800 618.865385 530.161002 618.865385 530.854204 618.865385 531.547406 618.865385 532.240608 618.865385 532.933810 618.865385 533.627013 618.865385 534.320215 618.865385 535.013417 618.865385 535.706619 618.865385 536.399821 618.865385 537.093023 618.865385 537.786225 618.865385 538.479428 618.865385 539.172630 618.865385 539.865832 618.865385 540.559034 618.865385 541.252236 618.865385 541.945438 618.865385 542.638640 618.865385 543.331843 618.865385 544.025045 618.865385 544.718247 618.865385 545.411449 618.865385 546.104651 618.865385 546.797853 618.865385 547.491055 618.865385 548.184258 618.865385 548.877460 618.865385 549.570662 618.865385 550.263864 618.865385 550.957066 618.865385 551.650268 618.865385 552.343470 618.865385 553.036673 618.865385 553.729875 618.865385 554.423077 618.865385 555.116279 618.865385 555.809481 618.865385 556.502683 618.865385 557.195886 618.865385 557.889088 618.865385 558.582290 618.865385 559.275492 618.865385 559.968694 618.865385 560.661896 618.865385 561.355098 618.865385 562.048301 618.865385 562.741503 618.865385 563.434705 618.865385 564.127907 618.865385 564.821109 618.865385 565.514311 618.865385 566.207513 618.865385 566.900716 618.865385 567.593918 618.865385 568.287120 618.865385 568.980322 618.865385 569.673524 618.865385 570.366726 618.865385 571.059928 618.865385 571.753131 618.865385 572.446333 618.865385 573.139535 618.865385 573.832737 618.865385 574.525939 618.865385 575.219141 618.865385 575.912343 618.865385 576.605546 618.865385 577.298748 618.865385 577.991950 618.865385 578.685152 618.865385 579.378354 618.865385 580.071556 618.865385 580.764758 618.865385 581.457961 618.865385 582.151163 618.865385 582.844365 618.865385 583.537567 618.865385 584.230769 618.865385 584.923971 618.865385 585.617174 618.865385 586.310376 618.865385 587.003578 618.865385 587.696780 618.865385 588.389982 618.865385 589.083184 618.865385 589.776386 618.865385 590.469589 618.865385 591.162791 618.865385 591.855993 618.865385 592.549195 618.865385 593.242397 618.865385 593.935599 618.865385 594.628801 618.865385 595.322004 618.865385 596.015206 618.865385 596.708408 618.865385 597.401610 618.865385 598.094812 618.865385 598.788014 618.865385 599.481216 618.865385 600.174419 618.865385 600.867621 618.865385 601.560823 618.865385 602.254025 618.865385 602.947227 618.865385 603.640429 618.865385 604.333631 618.865385 605.026834 618.865385 605.720036 618.865385 606.413238 618.865385 607.106440 618.865385 607.799642 618.865385 608.492844 618.865385 609.186047 618.865385 609.879249 618.865385 610.572451 618.865385 611.265653 618.865385 611.958855 618.865385 612.652057 618.865385 613.345259 618.865385 614.038462 618.865385 614.731664 618.865385 615.424866 618.865385 616.118068 618.865385 616.811270 618.865385 617.504472 618.865385 618.197674 618.865385 618.890877 618.865385 619.584079 618.865385 620.277281 618.865385 620.970483 618.865385 621.663685 618.865385 622.356887 618.865385 623.050089 618.865385 623.743292 618.865385 624.436494 618.865385 625.129696 618.865385 625.822898 618.865385 626.516100 618.865385 627.209302 618.865385 627.902504 618.865385 628.595707 618.865385 629.288909 618.865385 629.982111 618.865385 630.675313 618.865385 631.368515 618.865385 632.061717 618.865385 632.754919 618.865385 633.448122 618.865385 634.141324 618.865385 634.834526 618.865385 635.527728 618.865385 636.220930 618.865385 636.914132 618.865385 637.607335 618.865385 638.300537 618.865385 638.993739 618.865385 639.686941 618.865385 640.380143 618.865385 641.073345 618.865385 641.766547 618.865385 642.459750 618.865385 643.152952 618.865385 643.846154 618.865385 644.539356 618.865385 645.232558 618.865385 645.925760 618.865385 646.618962 618.865385 647.312165 618.865385 648.005367 618.865385 648.698569 618.865385 649.391771 618.865385 650.084973 618.865385 650.778175 618.865385 651.471377 618.865385 652.164580 618.865385 652.857782 618.865385 653.550984 618.865385 654.244186 618.865385 654.937388 618.865385 655.630590 618.865385 656.323792 618.865385 657.016995 618.865385 657.710197 618.865385 658.403399 618.865385 659.096601 618.865385 659.789803 618.865385 660.483005 618.865385 661.176208 618.865385 661.869410 618.865385 662.562612 618.865385 663.255814 618.865385 663.949016 618.865385 664.642218 618.865385 665.335420 618.865385 666.028623 618.865385 666.721825 618.865385 667.415027 618.865385 668.108229 618.865385 668.801431 618.865385 669.494633 618.865385 670.187835 618.865385 670.881038 618.865385 671.574240 618.865385 672.267442 618.865385 672.960644 618.865385 673.653846 618.865385 674.347048 618.865385 675.040250 618.865385 675.733453 618.865385 676.426655 618.865385 677.119857 618.865385 677.813059 618.865385 678.506261 618.865385 679.199463 618.865385 679.892665 618.865385 680.585868 618.865385 681.279070 618.865385 681.972272 618.865385 682.665474 618.865385 683.358676 618.865385 684.051878 618.865385 684.745081 618.865385 685.438283 618.865385 686.131485 618.865385 686.824687 618.865385 687.517889 618.865385 688.211091 618.865385 688.904293 618.865385 689.597496 618.865385 690.290698 618.865385 690.983900 618.865385 691.677102 618.865385 692.370304 618.865385 693.063506 618.865385 693.756708 618.865385 694.449911 618.865385 695.143113 618.865385 695.836315 618.865385 696.529517 618.865385 697.222719 618.865385 697.915921 618.865385 698.609123 618.865385 699.302326 618.865385 699.995528 618.865385 700.688730 618.865385 701.381932 618.865385 702.075134 618.865385 702.768336 618.865385 703.461538 618.865385 704.154741 618.865385 704.847943 618.865385 705.541145 618.865385 706.234347 618.865385 706.927549 618.865385 707.620751 618.865385 708.313953 618.865385 709.007156 618.865385 709.700358 618.865385 710.393560 618.865385 711.086762 618.865385 711.779964 618.865385 712.473166 618.865385 713.166369 618.865385 713.859571 618.865385 714.552773 618.865385 715.245975 618.865385 715.939177 618.865385 716.632379 618.865385 717.325581 618.865385 718.018784 618.865385 718.711986 618.865385 719.405188 618.865385 720.098390 618.865385 720.791592 618.865385 721.484794 618.865385 722.177996 618.865385 722.871199 618.865385 723.564401 618.865385 724.257603 618.865385 724.950805 618.865385 725.644007 618.865385 726.337209 618.865385 727.030411 618.865385 727.723614 618.865385 728.416816 618.865385 729.110018 618.865385 729.803220 618.865385 730.496422 618.865385 731.189624 618.865385 731.882826 618.865385 732.576029 618.865385 733.269231 618.865385 733.962433 618.865385 734.655635 618.865385 735.348837 618.865385 736.042039 618.865385 736.735242 618.865385 737.428444 618.865385 738.121646 618.865385 738.814848 618.865385 739.508050 618.865385 740.201252 618.865385 740.894454 618.865385 741.587657 618.865385 742.280859 618.865385 742.974061 618.865385 743.667263 618.865385 744.360465 618.865385 745.053667 618.865385 745.746869 618.865385 746.440072 618.865385 747.133274 618.865385 747.826476 618.865385 748.519678 618.865385 749.212880 618.865385 749.906082 -858.855844 750.599284 -436.988356 751.292487 78.495793 751.985689 -103.997446 752.678891 79.680814 753.372093 172.112455 754.065295 206.478065 754.758497 269.284180 755.451699 356.975736 756.144902 354.605694 756.838104 392.526367 757.531306 402.006535 758.224508 445.852314 758.917710 501.548302 759.610912 477.847882 760.304114 476.662861 760.997317 488.513071 761.690519 516.953576 762.383721 507.473407 763.076923 515.768555 763.770125 525.248723 764.463327 539.468975 765.156530 501.548302 765.849732 514.583534 766.542934 556.059270 767.236136 516.953576 767.929338 512.213492 768.622540 534.728891 769.315742 571.464543 770.008945 496.808218 770.702147 518.138597 771.395349 477.847882 772.088551 495.623197 772.781753 496.808218 773.474955 474.292819 774.168157 462.442608 774.861360 495.623197 775.554562 533.543870 776.247764 462.442608 776.940966 448.222356 777.634168 486.143029 778.327370 500.363281 779.020572 479.032903 779.713775 480.217924 780.406977 501.548302 781.100179 460.072566 781.793381 445.852314 782.486583 460.072566 783.179785 463.627629 783.872987 489.698092 784.566190 503.918344 785.259392 483.772987 785.952594 438.742188 786.645796 457.702524 787.338998 512.213492 788.032200 461.257587 788.725403 487.328050 789.418605 420.966872 790.111807 495.623197 790.805009 522.878681 791.498211 496.808218 792.191413 492.068134 792.884615 511.028471 793.577818 532.358849 794.271020 507.473407 794.964222 552.504207 795.657424 480.217924 796.350626 511.028471 797.043828 512.213492 797.737030 513.398513 798.430233 524.063702 799.123435 509.843450 799.816637 515.768555 800.509839 521.693660 801.203041 521.693660 801.896243 520.508639 802.589445 592.794922 803.282648 480.217924 803.975850 534.728891 804.669052 503.918344 805.362254 539.468975 806.055456 554.874249 806.748658 537.098933 807.441860 532.358849 808.135063 526.433744 808.828265 551.319186 809.521467 539.468975 810.214669 502.733323 810.907871 531.173828 811.601073 548.949144 812.294275 554.874249 812.987478 566.724459 813.680680 518.138597 814.373882 545.394081 815.067084 535.913912 815.760286 553.689228 816.453488 559.614333 817.146691 563.169396 817.839893 583.314754 818.533095 548.949144 819.226297 565.539438 819.919499 572.649564 820.612701 584.499775 821.305903 571.464543 821.999106 573.834585 822.692308 591.609901 823.385510 579.759691 824.078712 589.239859 824.771914 589.239859 825.465116 586.869817 826.158318 586.869817 826.851521 592.794922 827.544723 597.535006 828.237925 592.794922 828.931127 601.090069 829.624329 597.535006 830.317531 596.349985 831.010733 593.979943 831.703936 605.830153 832.397138 584.499775 833.090340 601.090069 833.783542 593.979943 834.476744 599.905048 835.169946 592.794922 835.863148 612.940279 836.556351 592.794922 837.249553 593.979943 837.942755 596.349985 838.635957 597.535006 839.329159 595.164964 840.022361 598.720027 840.715564 598.720027 841.408766 584.499775 842.101968 595.164964 842.795170 576.204627 843.488372 595.164964 844.181574 573.834585 844.874776 591.609901 845.567979 579.759691 846.261181 557.244291 846.954383 589.239859 847.647585 575.019606 848.340787 592.794922 849.033989 559.614333 849.727191 573.834585 850.420394 554.874249 851.113596 573.834585 851.806798 564.354417 852.500000 572.649564 853.193202 583.314754 853.886404 579.759691 854.579606 571.464543 855.272809 560.799354 855.966011 585.684796 856.659213 556.059270 857.352415 572.649564 858.045617 564.354417 858.738819 569.094501 859.432021 579.759691 860.125224 563.169396 860.818426 571.464543 861.511628 571.464543 862.204830 595.164964 862.898032 561.984375 863.591234 580.944712 864.284436 570.279522 864.977639 571.464543 865.670841 572.649564 866.364043 572.649564 867.057245 590.424880 867.750447 592.794922 868.443649 572.649564 869.136852 567.909480 869.830054 560.799354 870.523256 582.129733 871.216458 578.574669 871.909660 564.354417 872.602862 579.759691 873.296064 573.834585 873.989267 576.204627 874.682469 577.389648 875.375671 573.834585 876.068873 577.389648 876.762075 571.464543 877.455277 572.649564 878.148479 569.094501 878.841682 582.129733 879.534884 579.759691 880.228086 582.129733 880.921288 578.574669 881.614490 589.239859 882.307692 564.354417 883.000894 580.944712 883.694097 585.684796 884.387299 589.239859 885.080501 579.759691 885.773703 588.054838 886.466905 579.759691 887.160107 573.834585 887.853309 586.869817 888.546512 589.239859 889.239714 585.684796 889.932916 590.424880 890.626118 602.275090 891.319320 575.019606 892.012522 585.684796 892.705725 590.424880 893.398927 590.424880 894.092129 588.054838 894.785331 595.164964 895.478533 583.314754 896.171735 579.759691 896.864937 580.944712 897.558140 583.314754 898.251342 582.129733 898.944544 582.129733 899.637746 596.349985 900.330948 564.354417 901.024150 577.389648 901.717352 578.574669 902.410555 593.979943 903.103757 567.909480 903.796959 561.984375 904.490161 578.574669 905.183363 548.949144 905.876565 540.653996 906.569767 522.878681 907.262970 521.693660 907.956172 520.508639 908.649374 501.548302 909.342576 492.068134 910.035778 480.217924 910.728980 512.213492 911.422182 438.742188 912.115385 431.632061" /></g><g class="series serie-1 color-1"><path class="line reactive nofill" d="M17.884615 -319.671274 L18.577818 -17.490910 19.271020 187.517728 19.964222 246.768780 20.657424 340.385442 21.350626 383.046199 22.043828 411.486704 22.737030 450.592398 23.430233 477.847882 24.123435 486.143029 24.816637 505.103365 25.509839 509.843450 26.203041 521.693660 26.896243 554.874249 27.589445 541.839017 28.282648 526.433744 28.975850 545.394081 29.669052 551.319186 30.362254 538.283954 31.055456 528.803786 31.748658 582.129733 32.441860 545.394081 33.135063 571.464543 33.828265 569.094501 34.521467 560.799354 35.214669 569.094501 35.907871 571.464543 36.601073 565.539438 37.294275 554.874249 37.987478 567.909480 38.680680 553.689228 39.373882 556.059270 40.067084 537.098933 40.760286 534.728891 41.453488 499.178260 42.146691 541.839017 42.839893 520.508639 43.533095 489.698092 44.226297 512.213492 44.919499 486.143029 45.612701 494.438176 46.305903 586.869817 46.999106 424.521935 47.692308 481.402945 48.385510 443.482272 49.078712 455.332482 49.771914 449.407377 50.465116 458.887545 51.158318 467.182692 51.851521 467.182692 52.544723 468.367713 53.237925 461.257587 53.931127 512.213492 54.624329 499.178260 55.317531 546.579102 56.010733 501.548302 56.703936 506.288386 57.397138 520.508639 58.090340 525.248723 58.783542 540.653996 59.476744 546.579102 60.169946 547.764123 60.863148 539.468975 61.556351 524.063702 62.249553 540.653996 62.942755 550.134165 63.635957 618.865385 64.329159 436.372145 65.022361 541.839017 65.715564 531.173828 66.408766 545.394081 67.101968 534.728891 67.795170 534.728891 68.488372 558.429312 69.181574 539.468975 69.874776 518.138597 70.567979 554.874249 71.261181 556.059270 71.954383 554.874249 72.647585 526.433744 73.340787 553.689228 74.033989 564.354417 74.727191 569.094501 75.420394 565.539438 76.113596 569.094501 76.806798 577.389648 77.500000 570.279522 78.193202 560.799354 78.886404 580.944712 79.579606 563.169396 80.272809 583.314754 80.966011 572.649564 81.659213 580.944712 82.352415 569.094501 83.045617 573.834585 83.738819 585.684796 84.432021 580.944712 85.125224 582.129733 85.818426 599.905048 86.511628 582.129733 87.204830 580.944712 87.898032 579.759691 88.591234 580.944712 89.284436 573.834585 89.977639 596.349985 90.670841 598.720027 91.364043 595.164964 92.057245 609.385216 92.750447 595.164964 93.443649 603.460111 94.136852 608.200195 94.830054 614.125300 95.523256 603.460111 96.216458 604.645132 96.909660 597.535006 97.602862 603.460111 98.296064 604.645132 98.989267 605.830153 99.682469 597.535006 100.375671 604.645132 101.068873 612.940279 101.762075 607.015174 102.455277 608.200195 103.148479 605.830153 103.841682 608.200195 104.534884 614.125300 105.228086 604.645132 105.921288 609.385216 106.614490 603.460111 107.307692 599.905048 108.000894 597.535006 108.694097 595.164964 109.387299 592.794922 110.080501 599.905048 110.773703 597.535006 111.466905 592.794922 112.160107 584.499775 112.853309 595.164964 113.546512 593.979943 114.239714 601.090069 114.932916 586.869817 115.626118 582.129733 116.319320 590.424880 117.012522 579.759691 117.705725 590.424880 118.398927 591.609901 119.092129 578.574669 119.785331 578.574669 120.478533 597.535006 121.171735 569.094501 121.864937 590.424880 122.558140 584.499775 123.251342 584.499775 123.944544 588.054838 124.637746 590.424880 125.330948 585.684796 126.024150 601.090069 126.717352 588.054838 127.410555 580.944712 128.103757 599.905048 128.796959 593.979943 129.490161 588.054838 130.183363 589.239859 130.876565 583.314754 131.569767 582.129733 132.262970 582.129733 132.956172 602.275090 133.649374 584.499775 134.342576 583.314754 135.035778 592.794922 135.728980 596.349985 136.422182 595.164964 137.115385 591.609901 137.808587 593.979943 138.501789 598.720027 139.194991 597.535006 139.888193 601.090069 140.581395 599.905048 141.274597 591.609901 141.967800 604.645132 142.661002 598.720027 143.354204 598.720027 144.047406 595.164964 144.740608 589.239859 145.433810 590.424880 146.127013 604.645132 146.820215 599.905048 147.513417 596.349985 148.206619 596.349985 148.899821 599.905048 149.593023 598.720027 150.286225 610.570237 150.979428 608.200195 151.672630 598.720027 152.365832 598.720027 153.059034 598.720027 153.752236 597.535006 154.445438 610.570237 155.138640 603.460111 155.831843 607.015174 156.525045 605.830153 157.218247 603.460111 157.911449 604.645132 158.604651 605.830153 159.297853 615.310322 159.991055 610.570237 160.684258 615.310322 161.377460 612.940279 162.070662 609.385216 162.763864 614.125300 163.457066 616.495343 164.150268 610.570237 164.843470 610.570237 165.536673 609.385216 166.229875 615.310322 166.923077 614.125300 167.616279 611.755258 168.309481 612.940279 169.002683 601.090069 169.695886 616.495343 170.389088 610.570237 171.082290 611.755258 171.775492 615.310322 172.468694 611.755258 173.161896 608.200195 173.855098 603.460111 174.548301 609.385216 175.241503 604.645132 175.934705 612.940279 176.627907 596.349985 177.321109 601.090069 178.014311 602.275090 178.707513 605.830153 179.400716 604.645132 180.093918 607.015174 180.787120 604.645132 181.480322 596.349985 182.173524 598.720027 182.866726 601.090069 183.559928 596.349985 184.253131 605.830153 184.946333 601.090069 185.639535 599.905048 186.332737 584.499775 187.025939 602.275090 187.719141 610.570237 188.412343 592.794922 189.105546 598.720027 189.798748 603.460111 190.491950 609.385216 191.185152 588.054838 191.878354 602.275090 192.571556 590.424880 193.264758 601.090069 193.957961 603.460111 194.651163 597.535006 195.344365 603.460111 196.037567 605.830153 196.730769 598.720027 197.423971 597.535006 198.117174 595.164964 198.810376 596.349985 199.503578 596.349985 200.196780 601.090069 200.889982 595.164964 201.583184 597.535006 202.276386 597.535006 202.969589 596.349985 203.662791 603.460111 204.355993 590.424880 205.049195 599.905048 205.742397 597.535006 206.435599 601.090069 207.128801 598.720027 207.822004 605.830153 208.515206 604.645132 209.208408 611.755258 209.901610 614.125300 210.594812 603.460111 211.288014 601.090069 211.981216 608.200195 212.674419 605.830153 213.367621 607.015174 214.060823 602.275090 214.754025 605.830153 215.447227 601.090069 216.140429 601.090069 216.833631 612.940279 217.526834 601.090069 218.220036 603.460111 218.913238 601.090069 219.606440 602.275090 220.299642 607.015174 220.992844 609.385216 221.686047 611.755258 222.379249 604.645132 223.072451 608.200195 223.765653 610.570237 224.458855 615.310322 225.152057 614.125300 225.845259 610.570237 226.538462 616.495343 227.231664 612.940279 227.924866 609.385216 228.618068 612.940279 229.311270 612.940279 230.004472 614.125300 230.697674 617.680364 231.390877 615.310322 232.084079 612.940279 232.777281 612.940279 233.470483 614.125300 234.163685 612.940279 234.856887 614.125300 235.550089 614.125300 236.243292 611.755258 236.936494 614.125300 237.629696 614.125300 238.322898 615.310322 239.016100 615.310322 239.709302 610.570237 240.402504 615.310322 241.095707 609.385216 241.788909 604.645132 242.482111 615.310322 243.175313 608.200195 243.868515 602.275090 244.561717 608.200195 245.254919 610.570237 245.948122 597.535006 246.641324 607.015174 247.334526 607.015174 248.027728 601.090069 248.720930 603.460111 249.414132 610.570237 250.107335 612.940279 250.800537 607.015174 251.493739 611.755258 252.186941 604.645132 252.880143 602.275090 253.573345 608.200195 254.266547 596.349985 254.959750 597.535006 255.652952 609.385216 256.346154 609.385216 257.039356 603.460111 257.732558 607.015174 258.425760 592.794922 259.118962 604.645132 259.812165 602.275090 260.505367 608.200195 261.198569 610.570237 261.891771 605.830153 262.584973 602.275090 263.278175 602.275090 263.971377 604.645132 264.664580 609.385216 265.357782 599.905048 266.050984 607.015174 266.744186 603.460111 267.437388 603.460111 268.130590 602.275090 268.823792 603.460111 269.516995 607.015174 270.210197 601.090069 270.903399 611.755258 271.596601 607.015174 272.289803 609.385216 272.983005 615.310322 273.676208 609.385216 274.369410 609.385216 275.062612 610.570237 275.755814 610.570237 276.449016 615.310322 277.142218 607.015174 277.835420 605.830153 278.528623 610.570237 279.221825 609.385216 279.915027 609.385216 280.608229 612.940279 281.301431 609.385216 281.994633 614.125300 282.687835 605.830153 283.381038 615.310322 284.074240 604.645132 284.767442 614.125300 285.460644 608.200195 286.153846 607.015174 286.847048 608.200195 287.540250 614.125300 288.233453 614.125300 288.926655 614.125300 289.619857 608.200195 290.313059 611.755258 291.006261 615.310322 291.699463 618.865385 292.392665 612.940279 293.085868 615.310322 293.779070 616.495343 294.472272 614.125300 295.165474 611.755258 295.858676 609.385216 296.551878 618.865385 297.245081 615.310322 297.938283 615.310322 298.631485 614.125300 299.324687 616.495343 300.017889 614.125300 300.711091 616.495343 301.404293 615.310322 302.097496 617.680364 302.790698 616.495343 303.483900 618.865385 304.177102 616.495343 304.870304 616.495343 305.563506 614.125300 306.256708 612.940279 306.949911 614.125300 307.643113 614.125300 308.336315 615.310322 309.029517 617.680364 309.722719 618.865385 310.415921 615.310322 311.109123 612.940279 311.802326 612.940279 312.495528 612.940279 313.188730 616.495343 313.881932 612.940279 314.575134 614.125300 315.268336 616.495343 315.961538 611.755258 316.654741 612.940279 317.347943 617.680364 318.041145 615.310322 318.734347 616.495343 319.427549 614.125300 320.120751 615.310322 320.813953 612.940279 321.507156 614.125300 322.200358 618.865385 322.893560 616.495343 323.586762 616.495343 324.279964 614.125300 324.973166 617.680364 325.666369 615.310322 326.359571 611.755258 327.052773 610.570237 327.745975 612.940279 328.439177 612.940279 329.132379 614.125300 329.825581 614.125300 330.518784 611.755258 331.211986 618.865385 331.905188 615.310322 332.598390 611.755258 333.291592 615.310322 333.984794 617.680364 334.677996 609.385216 335.371199 608.200195 336.064401 611.755258 336.757603 611.755258 337.450805 610.570237 338.144007 615.310322 338.837209 614.125300 339.530411 612.940279 340.223614 611.755258 340.916816 614.125300 341.610018 615.310322 342.303220 612.940279 342.996422 614.125300 343.689624 614.125300 344.382826 609.385216 345.076029 609.385216 345.769231 608.200195 346.462433 615.310322 347.155635 611.755258 347.848837 614.125300 348.542039 612.940279 349.235242 616.495343 349.928444 612.940279 350.621646 616.495343 351.314848 616.495343 352.008050 614.125300 352.701252 614.125300 353.394454 615.310322 354.087657 618.865385 354.780859 614.125300 355.474061 616.495343 356.167263 614.125300 356.860465 609.385216 357.553667 615.310322 358.246869 614.125300 358.940072 615.310322 359.633274 614.125300 360.326476 616.495343 361.019678 612.940279 361.712880 616.495343 362.406082 615.310322 363.099284 615.310322 363.792487 615.310322 364.485689 612.940279 365.178891 617.680364 365.872093 616.495343 366.565295 612.940279 367.258497 617.680364 367.951699 617.680364 368.644902 611.755258 369.338104 615.310322 370.031306 617.680364 370.724508 614.125300 371.417710 617.680364 372.110912 616.495343 372.804114 616.495343 373.497317 614.125300 374.190519 612.940279 374.883721 615.310322 375.576923 612.940279 376.270125 618.865385 376.963327 614.125300 377.656530 614.125300 378.349732 617.680364 379.042934 610.570237 379.736136 615.310322 380.429338 616.495343 381.122540 618.865385 381.815742 612.940279 382.508945 614.125300 383.202147 616.495343 383.895349 615.310322 384.588551 616.495343 385.281753 615.310322 385.974955 616.495343 386.668157 611.755258 387.361360 616.495343 388.054562 609.385216 388.747764 610.570237 389.440966 611.755258 390.134168 614.125300 390.827370 614.125300 391.520572 615.310322 392.213775 617.680364 392.906977 605.830153 393.600179 615.310322 394.293381 612.940279 394.986583 612.940279 395.679785 616.495343 396.372987 612.940279 397.066190 612.940279 397.759392 616.495343 398.452594 616.495343 399.145796 608.200195 399.838998 615.310322 400.532200 616.495343 401.225403 607.015174 401.918605 614.125300 402.611807 618.865385 403.305009 612.940279 403.998211 617.680364 404.691413 612.940279 405.384615 611.755258 406.077818 610.570237 406.771020 617.680364 407.464222 614.125300 408.157424 618.865385 408.850626 615.310322 409.543828 612.940279 410.237030 615.310322 410.930233 614.125300 411.623435 611.755258 412.316637 611.755258 413.009839 616.495343 413.703041 615.310322 414.396243 614.125300 415.089445 611.755258 415.782648 612.940279 416.475850 608.200195 417.169052 615.310322 417.862254 610.570237 418.555456 614.125300 419.248658 615.310322 419.941860 615.310322 420.635063 612.940279 421.328265 610.570237 422.021467 614.125300 422.714669 614.125300 423.407871 616.495343 424.101073 616.495343 424.794275 615.310322 425.487478 616.495343 426.180680 614.125300 426.873882 614.125300 427.567084 617.680364 428.260286 618.865385 428.953488 616.495343 429.646691 611.755258 430.339893 615.310322 431.033095 616.495343 431.726297 614.125300 432.419499 616.495343 433.112701 612.940279 433.805903 608.200195 434.499106 610.570237 435.192308 616.495343 435.885510 618.865385 436.578712 617.680364 437.271914 615.310322 437.965116 614.125300 438.658318 617.680364 439.351521 614.125300 440.044723 617.680364 440.737925 616.495343 441.431127 611.755258 442.124329 614.125300 442.817531 611.755258 443.510733 614.125300 444.203936 605.830153 444.897138 607.015174 445.590340 610.570237 446.283542 611.755258 446.976744 616.495343 447.669946 596.349985 448.363148 605.830153 449.056351 607.015174 449.749553 610.570237 450.442755 604.645132 451.135957 605.830153 451.829159 604.645132 452.522361 598.720027 453.215564 602.275090 453.908766 607.015174 454.601968 598.720027 455.295170 596.349985 455.988372 611.755258 456.681574 599.905048 457.374776 604.645132 458.067979 602.275090 458.761181 602.275090 459.454383 597.535006 460.147585 602.275090 460.840787 608.200195 461.533989 605.830153 462.227191 603.460111 462.920394 602.275090 463.613596 605.830153 464.306798 590.424880 465.000000 601.090069 465.693202 598.720027 466.386404 598.720027 467.079606 599.905048 467.772809 592.794922 468.466011 608.200195 469.159213 604.645132 469.852415 610.570237 470.545617 603.460111 471.238819 611.755258 471.932021 611.755258 472.625224 607.015174 473.318426 596.349985 474.011628 611.755258 474.704830 617.680364 475.398032 605.830153 476.091234 609.385216 476.784436 608.200195 477.477639 605.830153 478.170841 608.200195 478.864043 601.090069 479.557245 608.200195 480.250447 608.200195 480.943649 603.460111 481.636852 599.905048 482.330054 611.755258 483.023256 607.015174 483.716458 -1138.520808 484.409660 -1121.930514 485.102862 -659.772311 485.796064 -505.719576 486.489267 -226.054612 487.182469 -147.843224 487.875671 -23.416016 488.568873 69.015625 489.262075 124.711614 489.955277 252.693885 490.648479 227.808444 491.341682 354.605694 492.034884 270.469201 492.728086 420.966872 493.421288 284.689453 494.114490 380.676157 494.807692 326.165189 495.500894 411.486704 496.194097 477.847882 496.887299 300.094727 497.580501 402.006535 498.273703 399.636493 498.966905 406.746620 499.660107 462.442608 500.353309 399.636493 501.046512 444.667293 501.739714 314.314979 502.432916 409.116662 503.126118 407.931641 503.819320 423.336914 504.512522 371.195989 505.205725 385.416241 505.898927 278.764348 506.592129 309.574895 507.285331 367.640925 507.978533 233.733549 508.671735 199.367939 509.364937 183.962665 510.058140 289.429537 510.751342 -70.816857 511.444544 29.909931 512.137746 -50.671499 512.830948 -36.451247 513.524150 66.645583 514.217352 -108.737530 514.910555 -305.451022 515.603757 -108.737530 516.296959 -140.733098 516.990161 -56.596605 517.683363 163.817308 518.376565 -301.895959 519.069767 -26.971079 519.762970 -28.156100 520.456172 -10.380784 521.149374 47.685246 521.842576 90.346004 522.535778 121.156550 523.228980 160.262245 523.922182 193.442834 524.615385 166.187350 525.308587 279.949369 526.001789 221.883338 526.694991 140.116887 527.388193 219.513296 528.081395 211.218149 528.774597 200.552960 529.467800 238.473633 530.161002 174.482497 530.854204 330.905273 531.547406 125.896635 532.240608 207.663086 532.933810 253.878906 533.627013 259.804011 534.320215 201.737981 535.013417 215.958233 535.706619 311.944937 536.399821 270.469201 537.093023 323.795147 537.786225 324.980168 538.479428 359.345778 539.172630 367.640925 539.865832 403.191556 540.559034 399.636493 541.252236 393.711388 541.945438 384.231220 542.638640 484.958008 543.331843 392.526367 544.025045 422.151893 544.718247 384.231220 545.411449 437.557166 546.104651 499.178260 546.797853 422.151893 547.491055 449.407377 548.184258 463.627629 548.877460 464.812650 549.570662 432.817082 550.263864 454.147461 550.957066 488.513071 551.650268 486.143029 552.343470 483.772987 553.036673 515.768555 553.729875 473.107797 554.423077 486.143029 555.116279 505.103365 555.809481 511.028471 556.502683 569.094501 557.195886 551.319186 557.889088 514.583534 558.582290 556.059270 559.275492 550.134165 559.968694 569.094501 560.661896 589.239859 561.355098 553.689228 562.048301 575.019606 562.741503 582.129733 563.434705 590.424880 564.127907 559.614333 564.821109 578.574669 565.514311 571.464543 566.207513 573.834585 566.900716 576.204627 567.593918 577.389648 568.287120 561.984375 568.980322 577.389648 569.673524 560.799354 570.366726 576.204627 571.059928 556.059270 571.753131 553.689228 572.446333 557.244291 573.139535 564.354417 573.832737 522.878681 574.525939 524.063702 575.219141 529.988807 575.912343 531.173828 576.605546 522.878681 577.298748 490.883113 577.991950 518.138597 578.685152 505.103365 579.378354 469.552734 580.071556 445.852314 580.764758 524.063702 581.457961 419.781851 582.151163 469.552734 582.844365 454.147461 583.537567 468.367713 584.230769 496.808218 584.923971 457.702524 585.617174 443.482272 586.310376 445.852314 587.003578 430.447040 587.696780 448.222356 588.389982 511.028471 589.083184 450.592398 589.776386 473.107797 590.469589 488.513071 591.162791 495.623197 591.855993 475.477840 592.549195 473.107797 593.242397 479.032903 593.935599 499.178260 594.628801 495.623197 595.322004 474.292819 596.015206 490.883113 596.708408 467.182692 597.401610 537.098933 598.094812 425.706956 598.788014 488.513071 599.481216 463.627629 600.174419 480.217924 600.867621 512.213492 601.560823 430.447040 602.254025 476.662861 602.947227 489.698092 603.640429 500.363281 604.333631 541.839017 605.026834 487.328050 605.720036 500.363281 606.413238 508.658428 607.106440 508.658428 607.799642 526.433744 608.492844 539.468975 609.186047 546.579102 609.879249 538.283954 610.572451 516.953576 611.265653 529.988807 611.958855 534.728891 612.652057 538.283954 613.345259 527.618765 614.038462 564.354417 614.731664 529.988807 615.424866 531.173828 616.118068 547.764123 616.811270 545.394081 617.504472 528.803786 618.197674 546.579102 618.890877 557.244291 619.584079 558.429312 620.277281 551.319186 620.970483 573.834585 621.663685 589.239859 622.356887 559.614333 623.050089 573.834585 623.743292 578.574669 624.436494 586.869817 625.129696 583.314754 625.822898 573.834585 626.516100 588.054838 627.209302 588.054838 627.902504 585.684796 628.595707 592.794922 629.288909 591.609901 629.982111 602.275090 630.675313 593.979943 631.368515 576.204627 632.061717 579.759691 632.754919 590.424880 633.448122 590.424880 634.141324 593.979943 634.834526 602.275090 635.527728 585.684796 636.220930 580.944712 636.914132 585.684796 637.607335 585.684796 638.300537 591.609901 638.993739 589.239859 639.686941 573.834585 640.380143 588.054838 641.073345 567.909480 641.766547 576.204627 642.459750 583.314754 643.152952 567.909480 643.846154 585.684796 644.539356 547.764123 645.232558 538.283954 645.925760 554.874249 646.618962 540.653996 647.312165 546.579102 648.005367 548.949144 648.698569 537.098933 649.391771 543.024038 650.084973 546.579102 650.778175 539.468975 651.471377 560.799354 652.164580 522.878681 652.857782 533.543870 653.550984 515.768555 654.244186 535.913912 654.937388 547.764123 655.630590 533.543870 656.323792 545.394081 657.016995 538.283954 657.710197 548.949144 658.403399 557.244291 659.096601 540.653996 659.789803 546.579102 660.483005 538.283954 661.176208 528.803786 661.869410 518.138597 662.562612 547.764123 663.255814 533.543870 663.949016 527.618765 664.642218 543.024038 665.335420 558.429312 666.028623 531.173828 666.721825 564.354417 667.415027 503.918344 668.108229 550.134165 668.801431 558.429312 669.494633 557.244291 670.187835 561.984375 670.881038 552.504207 671.574240 583.314754 672.267442 534.728891 672.960644 565.539438 673.653846 546.579102 674.347048 571.464543 675.040250 551.319186 675.733453 558.429312 676.426655 559.614333 677.119857 579.759691 677.813059 578.574669 678.506261 571.464543 679.199463 570.279522 679.892665 586.869817 680.585868 564.354417 681.279070 575.019606 681.972272 593.979943 682.665474 575.019606 683.358676 570.279522 684.051878 573.834585 684.745081 577.389648 685.438283 577.389648 686.131485 571.464543 686.824687 583.314754 687.517889 593.979943 688.211091 582.129733 688.904293 593.979943 689.597496 597.535006 690.290698 592.794922 690.983900 590.424880 691.677102 590.424880 692.370304 601.090069 693.063506 603.460111 693.756708 603.460111 694.449911 603.460111 695.143113 597.535006 695.836315 598.720027 696.529517 605.830153 697.222719 603.460111 697.915921 604.645132 698.609123 605.830153 699.302326 605.830153 699.995528 596.349985 700.688730 604.645132 701.381932 596.349985 702.075134 604.645132 702.768336 597.535006 703.461538 599.905048 704.154741 601.090069 704.847943 601.090069 705.541145 592.794922 706.234347 596.349985 706.927549 607.015174 707.620751 595.164964 708.313953 598.720027 709.007156 602.275090 709.700358 591.609901 710.393560 576.204627 711.086762 584.499775 711.779964 590.424880 712.473166 588.054838 713.166369 590.424880 713.859571 585.684796 714.552773 592.794922 715.245975 570.279522 715.939177 580.944712 716.632379 575.019606 717.325581 569.094501 718.018784 564.354417 718.711986 576.204627 719.405188 560.799354 720.098390 579.759691 720.791592 575.019606 721.484794 565.539438 722.177996 589.239859 722.871199 573.834585 723.564401 578.574669 724.257603 582.129733 724.950805 590.424880 725.644007 575.019606 726.337209 580.944712 727.030411 584.499775 727.723614 570.279522 728.416816 576.204627 729.110018 560.799354 729.803220 560.799354 730.496422 566.724459 731.189624 560.799354 731.882826 570.279522 732.576029 575.019606 733.269231 565.539438 733.962433 567.909480 734.655635 566.724459 735.348837 559.614333 736.042039 571.464543 736.735242 576.204627 737.428444 589.239859 738.121646 580.944712 738.814848 582.129733 739.508050 584.499775 740.201252 603.460111 740.894454 591.609901 741.587657 584.499775 742.280859 592.794922 742.974061 580.944712 743.667263 577.389648 744.360465 585.684796 745.053667 579.759691 745.746869 593.979943 746.440072 580.944712 747.133274 583.314754 747.826476 593.979943 748.519678 592.794922 749.212880 596.349985 749.906082 161.447266 750.599284 289.429537 751.292487 428.076998 751.985689 366.455904 752.678891 431.632061 753.372093 452.962440 754.065295 461.257587 754.758497 470.737755 755.451699 481.402945 756.144902 519.323618 756.838104 541.839017 757.531306 514.583534 758.224508 531.173828 758.917710 570.279522 759.610912 567.909480 760.304114 539.468975 760.997317 559.614333 761.690519 580.944712 762.383721 582.129733 763.076923 583.314754 763.770125 584.499775 764.463327 585.684796 765.156530 566.724459 765.849732 588.054838 766.542934 599.905048 767.236136 590.424880 767.929338 584.499775 768.622540 584.499775 769.315742 603.460111 770.008945 569.094501 770.702147 585.684796 771.395349 579.759691 772.088551 577.389648 772.781753 582.129733 773.474955 579.759691 774.168157 565.539438 774.861360 571.464543 775.554562 597.535006 776.247764 567.909480 776.940966 543.024038 777.634168 575.019606 778.327370 569.094501 779.020572 572.649564 779.713775 561.984375 780.406977 567.909480 781.100179 558.429312 781.793381 560.799354 782.486583 567.909480 783.179785 573.834585 783.872987 560.799354 784.566190 580.944712 785.259392 570.279522 785.952594 540.653996 786.645796 550.134165 787.338998 585.684796 788.032200 552.504207 788.725403 576.204627 789.418605 546.579102 790.111807 566.724459 790.805009 584.499775 791.498211 558.429312 792.191413 571.464543 792.884615 591.609901 793.577818 583.314754 794.271020 565.539438 794.964222 586.869817 795.657424 529.988807 796.350626 572.649564 797.043828 576.204627 797.737030 578.574669 798.430233 567.909480 799.123435 572.649564 799.816637 565.539438 800.509839 567.909480 801.203041 579.759691 801.896243 577.389648 802.589445 603.460111 803.282648 545.394081 803.975850 576.204627 804.669052 567.909480 805.362254 576.204627 806.055456 591.609901 806.748658 577.389648 807.441860 585.684796 808.135063 579.759691 808.828265 576.204627 809.521467 585.684796 810.214669 570.279522 810.907871 583.314754 811.601073 582.129733 812.294275 584.499775 812.987478 588.054838 813.680680 554.874249 814.373882 582.129733 815.067084 576.204627 815.760286 586.869817 816.453488 588.054838 817.146691 588.054838 817.839893 596.349985 818.533095 575.019606 819.226297 591.609901 819.919499 591.609901 820.612701 588.054838 821.305903 586.869817 821.999106 603.460111 822.692308 601.090069 823.385510 593.979943 824.078712 603.460111 824.771914 593.979943 825.465116 591.609901 826.158318 601.090069 826.851521 601.090069 827.544723 603.460111 828.237925 605.830153 828.931127 607.015174 829.624329 605.830153 830.317531 603.460111 831.010733 603.460111 831.703936 608.200195 832.397138 605.830153 833.090340 611.755258 833.783542 607.015174 834.476744 607.015174 835.169946 607.015174 835.863148 615.310322 836.556351 603.460111 837.249553 602.275090 837.942755 607.015174 838.635957 605.830153 839.329159 601.090069 840.022361 609.385216 840.715564 610.570237 841.408766 603.460111 842.101968 609.385216 842.795170 604.645132 843.488372 601.090069 844.181574 601.090069 844.874776 593.979943 845.567979 604.645132 846.261181 595.164964 846.954383 605.830153 847.647585 598.720027 848.340787 599.905048 849.033989 585.684796 849.727191 585.684796 850.420394 588.054838 851.113596 575.019606 851.806798 597.535006 852.500000 584.499775 853.193202 592.794922 853.886404 593.979943 854.579606 582.129733 855.272809 584.499775 855.966011 598.720027 856.659213 592.794922 857.352415 576.204627 858.045617 598.720027 858.738819 590.424880 859.432021 607.015174 860.125224 592.794922 860.818426 583.314754 861.511628 593.979943 862.204830 597.535006 862.898032 582.129733 863.591234 593.979943 864.284436 588.054838 864.977639 597.535006 865.670841 597.535006 866.364043 591.609901 867.057245 607.015174 867.750447 591.609901 868.443649 592.794922 869.136852 586.869817 869.830054 586.869817 870.523256 588.054838 871.216458 593.979943 871.909660 589.239859 872.602862 589.239859 873.296064 596.349985 873.989267 593.979943 874.682469 584.499775 875.375671 596.349985 876.068873 590.424880 876.762075 589.239859 877.455277 599.905048 878.148479 586.869817 878.841682 604.645132 879.534884 604.645132 880.228086 602.275090 880.921288 601.090069 881.614490 602.275090 882.307692 580.944712 883.000894 589.239859 883.694097 598.720027 884.387299 591.609901 885.080501 593.979943 885.773703 596.349985 886.466905 588.054838 887.160107 608.200195 887.853309 596.349985 888.546512 601.090069 889.239714 607.015174 889.932916 599.905048 890.626118 607.015174 891.319320 597.535006 892.012522 596.349985 892.705725 605.830153 893.398927 609.385216 894.092129 610.570237 894.785331 602.275090 895.478533 599.905048 896.171735 597.535006 896.864937 595.164964 897.558140 596.349985 898.251342 591.609901 898.944544 602.275090 899.637746 611.755258 900.330948 593.979943 901.024150 590.424880 901.717352 597.535006 902.410555 597.535006 903.103757 586.869817 903.796959 589.239859 904.490161 603.460111 905.183363 590.424880 905.876565 590.424880 906.569767 572.649564 907.262970 583.314754 907.956172 583.314754 908.649374 566.724459 909.342576 557.244291 910.035778 561.984375 910.728980 563.169396 911.422182 546.579102 912.115385 539.468975" /></g></g><g class="titles"><text class="title plot_title" x="512.0" y="26">Latest Election Activity by chunk</text><text class="title" x="539.0" y="703.0">Quarter-hours</text><text class="title" transform="rotate(-90 0.000000 361.500000)" x="0" y="387.5">Users</text></g><g class="plot overlay" transform="translate(74, 46)"><g class="series serie-0 color-0" /><g class="series serie-1 color-1" /></g><g class="plot text-overlay" transform="translate(74, 46)"><g class="series serie-0 color-0" /><g class="series serie-1 color-1" /></g><g class="plot tooltip-overlay" transform="translate(74, 46)"><g class="tooltip" style="opacity: 0" transform="translate(0 0)"><a><rect class="tooltip-box" height="0" rx="0" ry="0" width="0" /><text class="text"><tspan class="label" /><tspan class="value" /></text></a></g></g><g class="legends" transform="translate(84, 723)"><g class="legend reactive activate-serie" id="activate-serie-0"><rect class="color-0 reactive" height="12" width="12" x="0.0" y="1.0" /><text x="17.0" y="11.2">constituents</text></g><g class="legend reactive activate-serie" id="activate-serie-1"><rect class="color-1 reactive" height="12" width="12" x="465.0" y="1.0" /><text x="482.0" y="11.2">caucus</text></g></g></g></svg>