<?xml version='1.0' encoding='utf-8'?>
<svg xmlns:xlink="http://www.w3.org/1999/xlink" class="pygal-chart" id="chart-283a4f8a-5222-4b93-ba1f-0ded9fc91200" viewBox="0 0 1024 768" xmlns="http://www.w3.org/2000/svg"><!--Generated with pygal 1.7.0 (etree) ©Kozea 2011-2014 on 2015-04-20--><!--http://pygal.org--><!--http://github.com/Kozea/pygal--><defs><style type="text/css">#chart-283a4f8a-5222-4b93-ba1f-0ded9fc91200 .title{font-family:"monospace";font-size:16px}#chart-283a4f8a-5222-4b93-ba1f-0ded9fc91200 .legends .legend text{font-family:"monospace";font-size:14px}#chart-283a4f8a-5222-4b93-ba1f-0ded9fc91200 .axis text{font-family:"monospace";font-size:10px}#chart-283a4f8a-5222-4b93-ba1f-0ded9fc91200 .axis text.major{font-family:"monospace";font-size:10px}#chart-283a4f8a-5222-4b93-ba1f-0ded9fc91200 .series text{font-family:"monospace";font-size:8px}#chart-283a4f8a-5222-4b93-ba1f-0ded9fc91200 .tooltip text{font-family:"monospace";font-size:16px}#chart-283a4f8a-5222-4b93-ba1f-0ded9fc91200 text.no_data{font-size:64px}
#chart-283a4f8a-5222-4b93-ba1f-0ded9fc91200{background-color:black}#chart-283a4f8a-5222-4b93-ba1f-0ded9fc91200 path,#chart-283a4f8a-5222-4b93-ba1f-0ded9fc91200 line,#chart-283a4f8a-5222-4b93-ba1f-0ded9fc91200 rect,#chart-283a4f8a-5222-4b93-ba1f-0ded9fc91200 circle{-webkit-transition:250ms;-moz-transition:250ms;transition:250ms}#chart-283a4f8a-5222-4b93-ba1f-0ded9fc91200 .graph &gt; .background{fill:black}#chart-283a4f8a-5222-4b93-ba1f-0ded9fc91200 .plot &gt; .background{fill:#111}#chart-283a4f8a-5222-4b93-ba1f-0ded9fc91200 .graph{fill:#999}#chart-283a4f8a-5222-4b93-ba1f-0ded9fc91200 text.no_data{fill:#eee}#chart-283a4f8a-5222-4b93-ba1f-0ded9fc91200 .title{fill:#eee}#chart-283a4f8a-5222-4b93-ba1f-0ded9fc91200 .legends .legend text{fill:#999}#chart-283a4f8a-5222-4b93-ba1f-0ded9fc91200 .legends .legend:hover text{fill:#eee}#chart-283a4f8a-5222-4b93-ba1f-0ded9fc91200 .axis .line{stroke:#eee}#chart-283a4f8a-5222-4b93-ba1f-0ded9fc91200 .axis .guide.line{stroke:#555}#chart-283a4f8a-5222-4b93-ba1f-0ded9fc91200 .axis .major.line{stroke:#999}#chart-283a4f8a-5222-4b93-ba1f-0ded9fc91200 .axis text.major{stroke:#eee;fill:#eee}#chart-283a4f8a-5222-4b93-ba1f-0ded9fc91200 .axis.y .guides:hover .guide.line,#chart-283a4f8a-5222-4b93-ba1f-0ded9fc91200 .line-graph .axis.x .guides:hover .guide.line,#chart-283a4f8a-5222-4b93-ba1f-0ded9fc91200 .stackedline-graph .axis.x .guides:hover .guide.line,#chart-283a4f8a-5222-4b93-ba1f-0ded9fc91200 .xy-graph .axis.x .guides:hover .guide.line{stroke:#eee}#chart-283a4f8a-5222-4b93-ba1f-0ded9fc91200 .axis .guides:hover text{fill:#eee}#chart-283a4f8a-5222-4b93-ba1f-0ded9fc91200 .reactive{fill-opacity:.8}#chart-283a4f8a-5222-4b93-ba1f-0ded9fc91200 .reactive.active,#chart-283a4f8a-5222-4b93-ba1f-0ded9fc91200 .active .reactive{fill-opacity:.4}#chart-283a4f8a-5222-4b93-ba1f-0ded9fc91200 .series{stroke-width:1.0;stroke-linejoin:round;stroke-linecap:round;stroke-dasharray:0,0}#chart-283a4f8a-5222-4b93-ba1f-0ded9fc91200 .series text{fill:#eee}#chart-283a4f8a-5222-4b93-ba1f-0ded9fc91200 .tooltip rect{fill:#111;stroke:#eee}#chart-283a4f8a-5222-4b93-ba1f-0ded9fc91200 .tooltip text{fill:#eee}#chart-283a4f8a-5222-4b93-ba1f-0ded9fc91200 .map-element{fill:#999;stroke:#555 !important;opacity:.9;stroke-width:3;-webkit-transition:250ms;-moz-transition:250ms;-o-transition:250ms;transition:250ms}#chart-283a4f8a-5222-4b93-ba1f-0ded9fc91200 .map-element:hover{opacity:1;stroke-width:10}#chart-283a4f8a-5222-4b93-ba1f-0ded9fc91200 .color-0,#chart-283a4f8a-5222-4b93-ba1f-0ded9fc91200 .color-0 a:visited{stroke:#ff5995;fill:#ff5995}#chart-283a4f8a-5222-4b93-ba1f-0ded9fc91200 .color-1,#chart-283a4f8a-5222-4b93-ba1f-0ded9fc91200 .color-1 a:visited{stroke:#b6e354;fill:#b6e354}#chart-283a4f8a-5222-4b93-ba1f-0ded9fc91200 .color-2,#chart-283a4f8a-5222-4b93-ba1f-0ded9fc91200 .color-2 a:visited{stroke:#feed6c;fill:#feed6c}#chart-283a4f8a-5222-4b93-ba1f-0ded9fc91200 .color-3,#chart-283a4f8a-5222-4b93-ba1f-0ded9fc91200 .color-3 a:visited{stroke:#8cedff;fill:#8cedff}#chart-283a4f8a-5222-4b93-ba1f-0ded9fc91200 .color-4,#chart-283a4f8a-5222-4b93-ba1f-0ded9fc91200 .color-4 a:visited{stroke:#9e6ffe;fill:#9e6ffe}#chart-283a4f8a-5222-4b93-ba1f-0ded9fc91200 .color-5,#chart-283a4f8a-5222-4b93-ba1f-0ded9fc91200 .color-5 a:visited{stroke:#899ca1;fill:#899ca1}#chart-283a4f8a-5222-4b93-ba1f-0ded9fc91200 .color-6,#chart-283a4f8a-5222-4b93-ba1f-0ded9fc91200 .color-6 a:visited{stroke:#f8f8f2;fill:#f8f8f2}#chart-283a4f8a-5222-4b93-ba1f-0ded9fc91200 .color-7,#chart-283a4f8a-5222-4b93-ba1f-0ded9fc91200 .color-7 a:visited{stroke:#bf4646;fill:#bf4646}#chart-283a4f8a-5222-4b93-ba1f-0ded9fc91200 .color-8,#chart-283a4f8a-5222-4b93-ba1f-0ded9fc91200 .color-8 a:visited{stroke:#516083;fill:#516083}#chart-283a4f8a-5222-4b93-ba1f-0ded9fc91200 .color-9,#chart-283a4f8a-5222-4b93-ba1f-0ded9fc91200 .color-9 a:visited{stroke:#f92672;fill:#f92672}#chart-283a4f8a-5222-4b93-ba1f-0ded9fc91200 .color-10,#chart-283a4f8a-5222-4b93-ba1f-0ded9fc91200 .color-10 a:visited{stroke:#82b414;fill:#82b414}#chart-283a4f8a-5222-4b93-ba1f-0ded9fc91200 .color-11,#chart-283a4f8a-5222-4b93-ba1f-0ded9fc91200 .color-11 a:visited{stroke:#fd971f;fill:#fd971f}#chart-283a4f8a-5222-4b93-ba1f-0ded9fc91200 .color-12,#chart-283a4f8a-5222-4b93-ba1f-0ded9fc91200 .color-12 a:visited{stroke:#56c2d6;fill:#56c2d6}#chart-283a4f8a-5222-4b93-ba1f-0ded9fc91200 .color-13,#chart-283a4f8a-5222-4b93-ba1f-0ded9fc91200 .color-13 a:visited{stroke:#808384;fill:#808384}#chart-283a4f8a-5222-4b93-ba1f-0ded9fc91200 .color-14,#chart-283a4f8a-5222-4b93-ba1f-0ded9fc91200 .color-14 a:visited{stroke:#8c54fe;fill:#8c54fe}#chart-283a4f8a-5222-4b93-ba1f-0ded9fc91200 .color-15,#chart-283a4f8a-5222-4b93-ba1f-0ded9fc91200 .color-15 a:visited{stroke:#465457;fill:#465457}
#chart-283a4f8a-5222-4b93-ba1f-0ded9fc91200 text.no_data{text-anchor:middle}#chart-283a4f8a-5222-4b93-ba1f-0ded9fc91200 .guide.line{fill-opacity:0}#chart-283a4f8a-5222-4b93-ba1f-0ded9fc91200 .centered{text-anchor:middle}#chart-283a4f8a-5222-4b93-ba1f-0ded9fc91200 .title{text-anchor:middle}#chart-283a4f8a-5222-4b93-ba1f-0ded9fc91200 .legends .legend text{fill-opacity:1}#chart-283a4f8a-5222-4b93-ba1f-0ded9fc91200 .axis.x text{text-anchor:middle}#chart-283a4f8a-5222-4b93-ba1f-0ded9fc91200 .axis.x:not(.web) text[transform]{text-anchor:start}#chart-283a4f8a-5222-4b93-ba1f-0ded9fc91200 .axis.y text{text-anchor:end}#chart-283a4f8a-5222-4b93-ba1f-0ded9fc91200 .axis.y2 text{text-anchor:start}#chart-283a4f8a-5222-4b93-ba1f-0ded9fc91200 .axis.y .logarithmic text:not(.major),#chart-283a4f8a-5222-4b93-ba1f-0ded9fc91200 .axis.y2 .logarithmic text:not(.major){font-size:50%}#chart-283a4f8a-5222-4b93-ba1f-0ded9fc91200 .axis .guide.line{stroke-dasharray:4,4}#chart-283a4f8a-5222-4b93-ba1f-0ded9fc91200 .axis .major.guide.line{stroke-dasharray:6,6}#chart-283a4f8a-5222-4b93-ba1f-0ded9fc91200 .axis text.major{stroke-width:0.5px}#chart-283a4f8a-5222-4b93-ba1f-0ded9fc91200 .horizontal .axis.y .guide.line,#chart-283a4f8a-5222-4b93-ba1f-0ded9fc91200 .horizontal .axis.y2 .guide.line,#chart-283a4f8a-5222-4b93-ba1f-0ded9fc91200 .vertical .axis.x .guide.line{opacity:0}#chart-283a4f8a-5222-4b93-ba1f-0ded9fc91200 .horizontal .axis.always_show .guide.line,#chart-283a4f8a-5222-4b93-ba1f-0ded9fc91200 .vertical .axis.always_show .guide.line{opacity:1 !important}#chart-283a4f8a-5222-4b93-ba1f-0ded9fc91200 .axis.y .guides:hover .guide.line,#chart-283a4f8a-5222-4b93-ba1f-0ded9fc91200 .axis.y2 .guides:hover .guide.line,#chart-283a4f8a-5222-4b93-ba1f-0ded9fc91200 .axis.x .guides:hover .guide.line{opacity:1}#chart-283a4f8a-5222-4b93-ba1f-0ded9fc91200 .axis .guides:hover text{opacity:1}#chart-283a4f8a-5222-4b93-ba1f-0ded9fc91200 .nofill{fill:none}#chart-283a4f8a-5222-4b93-ba1f-0ded9fc91200 .subtle-fill{fill-opacity:.2}#chart-283a4f8a-5222-4b93-ba1f-0ded9fc91200 .dot{stroke-width:1px;fill-opacity:1}#chart-283a4f8a-5222-4b93-ba1f-0ded9fc91200 .dot.active{stroke-width:5px}#chart-283a4f8a-5222-4b93-ba1f-0ded9fc91200 .series text{stroke:none}#chart-283a4f8a-5222-4b93-ba1f-0ded9fc91200 .series text.active{opacity:1}#chart-283a4f8a-5222-4b93-ba1f-0ded9fc91200 .tooltip rect{fill-opacity:0.8}#chart-283a4f8a-5222-4b93-ba1f-0ded9fc91200 .tooltip text{fill-opacity:1}#chart-283a4f8a-5222-4b93-ba1f-0ded9fc91200 .tooltip text tspan.label{fill-opacity:.8}</style><script type="text/javascript">window.config = {"stroke": true, "zero": 0, "show_y_guides": true, "y_label_rotation": 0, "y_labels_major": null, "dots_size": 2.5, "margin": 20, "disable_xml_declaration": false, "half_pie": false, "legend_font_size": 14, "x_labels_major_count": null, "interpolate": null, "x_title": null, "y_labels": null, "js": ["http://kozea.github.io/pygal.js/javascripts/svg.jquery.js", "http://kozea.github.io/pygal.js/javascripts/pygal-tooltips.js"], "x_labels_major_every": null, "css": ["style.css", "graph.css"], "truncate_label": null, "rounded_bars": null, "major_label_font_size": 10, "mode": null, "show_x_labels": true, "width": 1024, "margin_right": null, "margin_bottom": null, "no_prefix": false, "show_dots": false, "tooltip_font_size": 16, "interpolation_parameters": {}, "stack_from_top": false, "style": {"colors": ["#ff5995", "#b6e354", "#feed6c", "#8cedff", "#9e6ffe", "#899ca1", "#f8f8f2", "#bf4646", "#516083", "#f92672", "#82b414", "#fd971f", "#56c2d6", "#808384", "#8c54fe", "#465457"], "stroke_dasharray": "0,0", "foreground": "#999", "font_family": "monospace", "transition": "250ms", "opacity": ".8", "stroke_width": 1.0, "background": "black", "foreground_dark": "#555", "opacity_hover": ".4", "plot_background": "#111", "foreground_light": "#eee", "stroke_style": "round"}, "no_data_text": "No data", "legend_at_bottom": true, "height": 768, "logarithmic": false, "show_minor_x_labels": true, "legend_box_size": 12, "label_font_size": 10, "range": [0, 512], "print_zeroes": false, "x_labels_major": null, "human_readable": false, "include_x_axis": false, "inner_radius": 0, "x_labels": null, "x_label_rotation": 0, "show_y_labels": true, "strict": false, "value_font_size": 8, "show_only_major_dots": false, "truncate_legend": null, "x_label_format": "%Y-%m-%d %H:%M:%S.%f", "fill": false, "y_labels_major_count": null, "y_labels_major_every": null, "explicit_size": false, "tooltip_border_radius": 0, "missing_value_fill_truncation": "x", "x_value_formatter": null, "margin_left": null, "title_font_size": 16, "spacing": 10, "y_title": "Users", "order_min": null, "margin_top": null, "no_data_font_size": 64, "pretty_print": false, "xrange": null, "title": "Latest Election Participation Per Hour", "show_x_guides": false, "show_legend": true, "legend_at_bottom_columns": null, "interpolation_precision": 250, "show_minor_y_labels": true, "print_values": false}</script><script type="text/javascript" xlink:href="http://kozea.github.io/pygal.js/javascripts/svg.jquery.js" /><script type="text/javascript" xlink:href="http://kozea.github.io/pygal.js/javascripts/pygal-tooltips.js" /></defs><title>Latest Election Participation Per Hour</title><g class="graph line-graph vertical"><rect class="background" height="768" width="1024" x="0" y="0" /><g class="plot" transform="translate(74, 46)"><rect class="background" height="657.0" width="930.0" x="0" y="0" /><g class="axis y"><g class="guides"><path class="axis major line" d="M0.000000 644.365385 h930.000000" /><text class="major" x="-5" y="647.8653846153846">0</text></g><g class="guides"><path class="guide line" d="M0.000000 520.980469 h930.000000" /><text class="" x="-5" y="524.48046875">100</text></g><g class="guides"><path class="guide line" d="M0.000000 397.595553 h930.000000" /><text class="" x="-5" y="401.0955528846154">200</text></g><g class="guides"><path class="guide line" d="M0.000000 274.210637 h930.000000" /><text class="" x="-5" y="277.7106370192308">300</text></g><g class="guides"><path class="guide line" d="M0.000000 150.825721 h930.000000" /><text class="" x="-5" y="154.3257211538462">400</text></g><g class="guides"><path class="major guide line" d="M0.000000 27.440805 h930.000000" /><text class="major" x="-5" y="30.940805288461547">500</text></g></g><g class="series serie-0 color-0"><path class="line reactive nofill" d="M17.884615 644.365385 L20.636095 644.365385 23.387574 644.365385 26.139053 644.365385 28.890533 644.365385 31.642012 644.365385 34.393491 644.365385 37.144970 644.365385 39.896450 644.365385 42.647929 644.365385 45.399408 644.365385 48.150888 644.365385 50.902367 644.365385 53.653846 644.365385 56.405325 644.365385 59.156805 644.365385 61.908284 644.365385 64.659763 644.365385 67.411243 644.365385 70.162722 644.365385 72.914201 644.365385 75.665680 644.365385 78.417160 644.365385 81.168639 644.365385 83.920118 644.365385 86.671598 644.365385 89.423077 644.365385 92.174556 644.365385 94.926036 644.365385 97.677515 644.365385 100.428994 644.365385 103.180473 644.365385 105.931953 644.365385 108.683432 644.365385 111.434911 644.365385 114.186391 644.365385 116.937870 644.365385 119.689349 644.365385 122.440828 644.365385 125.192308 644.365385 127.943787 644.365385 130.695266 644.365385 133.446746 644.365385 136.198225 644.365385 138.949704 644.365385 141.701183 644.365385 144.452663 644.365385 147.204142 644.365385 149.955621 644.365385 152.707101 644.365385 155.458580 644.365385 158.210059 644.365385 160.961538 644.365385 163.713018 644.365385 166.464497 644.365385 169.215976 644.365385 171.967456 644.365385 174.718935 644.365385 177.470414 644.365385 180.221893 644.365385 182.973373 644.365385 185.724852 644.365385 188.476331 644.365385 191.227811 644.365385 193.979290 644.365385 196.730769 644.365385 199.482249 644.365385 202.233728 644.365385 204.985207 644.365385 207.736686 644.365385 210.488166 644.365385 213.239645 644.365385 215.991124 644.365385 218.742604 644.365385 221.494083 644.365385 224.245562 644.365385 226.997041 644.365385 229.748521 644.365385 232.500000 644.365385 235.251479 644.365385 238.002959 644.365385 240.754438 644.365385 243.505917 644.365385 246.257396 644.365385 249.008876 644.365385 251.760355 644.365385 254.511834 644.365385 257.263314 644.365385 260.014793 644.365385 262.766272 644.365385 265.517751 644.365385 268.269231 644.365385 271.020710 644.365385 273.772189 644.365385 276.523669 644.365385 279.275148 644.365385 282.026627 644.365385 284.778107 644.365385 287.529586 644.365385 290.281065 644.365385 293.032544 644.365385 295.784024 644.365385 298.535503 644.365385 301.286982 644.365385 304.038462 644.365385 306.789941 644.365385 309.541420 644.365385 312.292899 644.365385 315.044379 644.365385 317.795858 644.365385 320.547337 644.365385 323.298817 644.365385 326.050296 644.365385 328.801775 644.365385 331.553254 644.365385 334.304734 644.365385 337.056213 644.365385 339.807692 644.365385 342.559172 644.365385 345.310651 644.365385 348.062130 644.365385 350.813609 644.365385 353.565089 644.365385 356.316568 644.365385 359.068047 644.365385 361.819527 644.365385 364.571006 644.365385 367.322485 644.365385 370.073964 644.365385 372.825444 644.365385 375.576923 644.365385 378.328402 644.365385 381.079882 644.365385 383.831361 644.365385 386.582840 644.365385 389.334320 644.365385 392.085799 644.365385 394.837278 644.365385 397.588757 644.365385 400.340237 644.365385 403.091716 644.365385 405.843195 644.365385 408.594675 644.365385 411.346154 644.365385 414.097633 644.365385 416.849112 644.365385 419.600592 644.365385 422.352071 644.365385 425.103550 644.365385 427.855030 644.365385 430.606509 644.365385 433.357988 644.365385 436.109467 644.365385 438.860947 644.365385 441.612426 644.365385 444.363905 644.365385 447.115385 644.365385 449.866864 644.365385 452.618343 644.365385 455.369822 644.365385 458.121302 644.365385 460.872781 644.365385 463.624260 644.365385 466.375740 644.365385 469.127219 644.365385 471.878698 644.365385 474.630178 644.365385 477.381657 644.365385 480.133136 644.365385 482.884615 644.365385 485.636095 644.365385 488.387574 644.365385 491.139053 644.365385 493.890533 644.365385 496.642012 644.365385 499.393491 644.365385 502.144970 644.365385 504.896450 644.365385 507.647929 644.365385 510.399408 644.365385 513.150888 644.365385 515.902367 644.365385 518.653846 644.365385 521.405325 644.365385 524.156805 644.365385 526.908284 644.365385 529.659763 644.365385 532.411243 644.365385 535.162722 644.365385 537.914201 644.365385 540.665680 644.365385 543.417160 644.365385 546.168639 644.365385 548.920118 644.365385 551.671598 644.365385 554.423077 644.365385 557.174556 644.365385 559.926036 644.365385 562.677515 644.365385 565.428994 644.365385 568.180473 644.365385 570.931953 644.365385 573.683432 644.365385 576.434911 644.365385 579.186391 644.365385 581.937870 644.365385 584.689349 644.365385 587.440828 644.365385 590.192308 644.365385 592.943787 644.365385 595.695266 644.365385 598.446746 644.365385 601.198225 644.365385 603.949704 644.365385 606.701183 644.365385 609.452663 644.365385 612.204142 644.365385 614.955621 644.365385 617.707101 644.365385 620.458580 644.365385 623.210059 644.365385 625.961538 644.365385 628.713018 644.365385 631.464497 644.365385 634.215976 644.365385 636.967456 644.365385 639.718935 644.365385 642.470414 644.365385 645.221893 644.365385 647.973373 644.365385 650.724852 644.365385 653.476331 644.365385 656.227811 644.365385 658.979290 644.365385 661.730769 644.365385 664.482249 644.365385 667.233728 644.365385 669.985207 644.365385 672.736686 644.365385 675.488166 644.365385 678.239645 644.365385 680.991124 644.365385 683.742604 644.365385 686.494083 644.365385 689.245562 644.365385 691.997041 644.365385 694.748521 644.365385 697.500000 644.365385 700.251479 644.365385 703.002959 644.365385 705.754438 644.365385 708.505917 644.365385 711.257396 644.365385 714.008876 644.365385 716.760355 644.365385 719.511834 644.365385 722.263314 644.365385 725.014793 644.365385 727.766272 644.365385 730.517751 644.365385 733.269231 644.365385 736.020710 644.365385 738.772189 644.365385 741.523669 644.365385 744.275148 -3308.887320 747.026627 -1175.562124 749.778107 -364.923227 752.529586 47.182392 755.281065 179.204252 758.032544 233.493615 760.784024 274.210637 763.535503 216.219727 766.286982 75.560922 769.038462 86.665565 771.789941 92.834811 774.541420 11.400766 777.292899 87.899414 780.044379 13.868465 782.795858 73.093224 785.547337 182.905799 788.298817 202.647386 791.050296 211.284330 793.801775 232.259766 796.553254 265.573693 799.304734 319.863056 802.056213 274.210637 804.807692 359.346229 807.559172 308.758413 810.310651 414.869441 813.062130 455.586463 815.813609 497.537335 818.565089 519.746620 821.316568 554.294396 824.068047 545.657452 826.819527 553.060547 829.571006 561.697491 832.322485 555.528245 835.073964 514.811223 837.825444 464.223407 840.576923 479.029597 843.328402 427.207933 846.079882 469.158804 848.831361 435.844877 851.582840 437.078726 854.334320 461.755709 857.085799 456.820312 859.837278 491.368089 862.588757 450.651067 865.340237 455.586463 868.091716 461.755709 870.843195 465.457257 873.594675 476.561899 876.346154 498.771184 879.097633 491.368089 881.849112 532.085111 884.600592 504.940430 887.352071 509.875826 890.103550 491.368089 892.855030 479.029597 895.606509 464.223407 898.357988 289.016827 901.109467 143.422626 903.860947 -57.694787 906.612426 -269.916842 909.363905 -192.184345 912.115385 53.351638" /></g><g class="series serie-1 color-1"><path class="line reactive nofill" d="M17.884615 -1831.969877 L20.636095 -282.255334 23.387574 127.382587 26.139053 300.121469 28.890533 319.863056 31.642012 428.441782 34.393491 427.207933 37.144970 391.426307 39.896450 266.807542 42.647929 158.228816 45.399408 136.019531 48.150888 -51.525541 50.902367 7.699219 53.653846 211.284330 56.405325 245.832106 59.156805 313.693810 61.908284 301.355319 64.659763 308.758413 67.411243 306.290715 70.162722 349.475436 72.914201 412.401743 75.665680 438.312575 78.417160 461.755709 81.168639 471.626502 83.920118 508.641977 86.671598 477.795748 89.423077 565.399038 92.174556 587.608323 94.926036 575.269832 97.677515 578.971379 100.428994 601.180664 103.180473 603.648362 105.931953 561.697491 108.683432 548.125150 111.434911 539.488206 114.186391 502.472731 116.937870 502.472731 119.689349 504.940430 122.440828 512.343525 125.192308 534.552809 127.943787 518.512770 130.695266 514.811223 133.446746 532.085111 136.198225 546.891301 138.949704 562.931340 141.701183 546.891301 144.452663 556.762094 147.204142 571.568284 149.955621 570.334435 152.707101 585.140625 155.458580 586.374474 158.210059 622.156100 160.961538 618.454552 163.713018 617.220703 166.464497 609.817608 169.215976 617.220703 171.967456 592.543720 174.718935 578.971379 177.470414 588.842172 180.221893 557.995944 182.973373 556.762094 185.724852 570.334435 188.476331 569.100586 191.227811 557.995944 193.979290 571.568284 196.730769 554.294396 199.482249 551.826698 202.233728 556.762094 204.985207 576.503681 207.736686 597.479117 210.488166 590.076022 213.239645 587.608323 215.991124 574.035983 218.742604 599.946815 221.494083 615.986854 224.245562 617.220703 226.997041 625.857647 229.748521 623.389949 232.500000 620.922251 235.251479 627.091496 238.002959 607.349910 240.754438 601.180664 243.505917 588.842172 246.257396 595.011418 249.008876 592.543720 251.760355 577.737530 254.511834 578.971379 257.263314 592.543720 260.014793 581.439078 262.766272 586.374474 265.517751 582.672927 268.269231 596.245267 271.020710 612.285306 273.772189 606.116061 276.523669 609.817608 279.275148 612.285306 282.026627 601.180664 284.778107 618.454552 287.529586 622.156100 290.281065 627.091496 293.032544 623.389949 295.784024 628.325346 298.535503 634.494591 301.286982 634.494591 304.038462 624.623798 306.789941 633.260742 309.541420 623.389949 312.292899 623.389949 315.044379 632.026893 317.795858 629.559195 320.547337 633.260742 323.298817 618.454552 326.050296 620.922251 328.801775 629.559195 331.553254 614.753005 334.304734 619.688401 337.056213 622.156100 339.807692 618.454552 342.559172 612.285306 345.310651 624.623798 348.062130 629.559195 350.813609 633.260742 353.565089 620.922251 356.316568 627.091496 359.068047 630.793044 361.819527 628.325346 364.571006 630.793044 367.322485 634.494591 370.073964 627.091496 372.825444 628.325346 375.576923 628.325346 378.328402 630.793044 381.079882 632.026893 383.831361 615.986854 386.582840 623.389949 389.334320 619.688401 392.085799 623.389949 394.837278 624.623798 397.588757 624.623798 400.340237 623.389949 403.091716 629.559195 405.843195 625.857647 408.594675 623.389949 411.346154 614.753005 414.097633 623.389949 416.849112 620.922251 419.600592 630.793044 422.352071 630.793044 425.103550 630.793044 427.855030 628.325346 430.606509 622.156100 433.357988 633.260742 436.109467 628.325346 438.860947 613.519156 441.612426 613.519156 444.363905 586.374474 447.115385 580.205228 449.866864 570.334435 452.618343 585.140625 455.369822 576.503681 458.121302 583.906776 460.872781 554.294396 463.624260 571.568284 466.375740 604.882212 469.127219 599.946815 471.878698 596.245267 474.630178 592.543720 477.381657 588.842172 480.133136 -5500.203425 482.884615 -2274.921725 485.636095 -933.727689 488.387574 -520.388221 491.139053 -355.052434 493.890533 -193.418194 496.642012 -300.763071 499.393491 -279.787635 502.144970 -694.360953 504.896450 -1306.350135 507.647929 -1923.274715 510.399408 -2624.101037 513.150888 -2163.875300 515.902367 -1829.502178 518.653846 -1265.633113 521.405325 -1036.137169 524.156805 -1074.386493 526.908284 -976.912410 529.659763 -902.881460 532.411243 -601.822266 535.162722 -304.464618 537.914201 -179.845853 540.665680 -118.153395 543.417160 -47.823993 546.168639 58.287034 548.920118 128.616436 551.671598 301.355319 554.423077 424.740234 557.174556 462.989558 559.926036 444.481821 562.677515 454.352614 565.428994 406.232497 568.180473 324.798453 570.931953 227.324369 573.683432 85.431716 576.434911 11.400766 579.186391 10.166917 581.937870 -21.913161 584.689349 53.351638 587.440828 73.093224 590.192308 74.327073 592.943787 60.754733 595.695266 44.714694 598.446746 169.333459 601.198225 195.244291 603.949704 296.419922 606.701183 285.315279 609.452663 329.733849 612.204142 334.669246 614.955621 433.377178 617.707101 460.521860 620.458580 496.303486 623.210059 537.020508 625.961538 503.706581 628.713018 537.020508 631.464497 507.408128 634.215976 481.497296 636.967456 475.328050 639.718935 338.370793 642.470414 332.201547 645.221893 326.032302 647.973373 287.782978 650.724852 322.330754 653.476331 339.604642 656.227811 282.847581 658.979290 316.161508 661.730769 333.435397 664.482249 414.869441 667.233728 376.620117 669.985207 408.700195 672.736686 469.158804 675.488166 470.392653 678.239645 460.521860 680.991124 493.835787 683.742604 539.488206 686.494083 564.165189 689.245562 571.568284 691.997041 586.374474 694.748521 567.866737 697.500000 565.399038 700.251479 556.762094 703.002959 533.318960 705.754438 517.278921 708.505917 492.601938 711.257396 445.715670 714.008876 442.014123 716.760355 486.432692 719.511834 493.835787 722.263314 428.441782 725.014793 433.377178 727.766272 419.804838 730.517751 480.263447 733.269231 525.915865 736.020710 498.771184 738.772189 503.706581 741.523669 530.851262 744.275148 -636.370042 747.026627 -41.654748 749.778107 208.816632 752.529586 366.749324 755.281065 467.924955 758.032544 487.666541 760.784024 523.448167 763.535503 501.238882 766.286982 466.691106 769.038462 440.780273 771.789941 439.546424 774.541420 414.869441 777.292899 446.949519 780.044379 387.724760 782.795858 434.611028 785.547337 466.691106 788.298817 414.869441 791.050296 456.820312 793.801775 451.884916 796.553254 454.352614 799.304734 493.835787 802.056213 474.094201 804.807692 501.238882 807.559172 461.755709 810.310651 511.109675 813.062130 522.214318 815.813609 567.866737 818.565089 553.060547 821.316568 588.842172 824.068047 587.608323 826.819527 599.946815 829.571006 595.011418 832.322485 593.777569 835.073964 585.140625 837.825444 560.463642 840.576923 555.528245 843.328402 509.875826 846.079882 517.278921 848.831361 516.045072 851.582840 554.294396 854.334320 520.980469 857.085799 541.955904 859.837278 548.125150 862.588757 519.746620 865.340237 533.318960 868.091716 524.682016 870.843195 561.697491 873.594675 551.826698 876.346154 538.254357 879.097633 554.294396 881.849112 581.439078 884.600592 575.269832 887.352071 576.503681 890.103550 550.592849 892.855030 559.229793 895.606509 541.955904 898.357988 500.005033 901.109467 429.675631 903.860947 337.136944 906.612426 270.509090 909.363905 212.518179 912.115385 182.905799" /></g></g><g class="titles"><text class="title plot_title" x="512.0" y="26">Latest Election Participation Per Hour</text><text class="title" transform="rotate(-90 0.000000 374.500000)" x="0" y="400.5">Users</text></g><g class="plot overlay" transform="translate(74, 46)"><g class="series serie-0 color-0" /><g class="series serie-1 color-1" /></g><g class="plot text-overlay" transform="translate(74, 46)"><g class="series serie-0 color-0" /><g class="series serie-1 color-1" /></g><g class="plot tooltip-overlay" transform="translate(74, 46)"><g class="tooltip" style="opacity: 0" transform="translate(0 0)"><a><rect class="tooltip-box" height="0" rx="0" ry="0" width="0" /><text class="text"><tspan class="label" /><tspan class="value" /></text></a></g></g><g class="legends" transform="translate(84, 713)"><g class="legend reactive activate-serie" id="activate-serie-0"><rect class="color-0 reactive" height="12" width="12" x="0.0" y="1.0" /><text x="17.0" y="11.2">constituents</text></g><g class="legend reactive activate-serie" id="activate-serie-1"><rect class="color-1 reactive" height="12" width="12" x="465.0" y="1.0" /><text x="482.0" y="11.2">caucus</text></g></g></g></svg>