<?xml version='1.0' encoding='utf-8'?>
<svg xmlns:xlink="http://www.w3.org/1999/xlink" class="pygal-chart" id="chart-f06adcb2-09e0-4fca-86de-c50f682f1d88" viewBox="0 0 1024 768" xmlns="http://www.w3.org/2000/svg"><!--Generated with pygal 1.7.0 (etree) ©Kozea 2011-2014 on 2015-04-20--><!--http://pygal.org--><!--http://github.com/Kozea/pygal--><defs><style type="text/css">#chart-f06adcb2-09e0-4fca-86de-c50f682f1d88 .title{font-family:"monospace";font-size:16px}#chart-f06adcb2-09e0-4fca-86de-c50f682f1d88 .legends .legend text{font-family:"monospace";font-size:14px}#chart-f06adcb2-09e0-4fca-86de-c50f682f1d88 .axis text{font-family:"monospace";font-size:10px}#chart-f06adcb2-09e0-4fca-86de-c50f682f1d88 .axis text.major{font-family:"monospace";font-size:10px}#chart-f06adcb2-09e0-4fca-86de-c50f682f1d88 .series text{font-family:"monospace";font-size:8px}#chart-f06adcb2-09e0-4fca-86de-c50f682f1d88 .tooltip text{font-family:"monospace";font-size:16px}#chart-f06adcb2-09e0-4fca-86de-c50f682f1d88 text.no_data{font-size:64px}
#chart-f06adcb2-09e0-4fca-86de-c50f682f1d88{background-color:black}#chart-f06adcb2-09e0-4fca-86de-c50f682f1d88 path,#chart-f06adcb2-09e0-4fca-86de-c50f682f1d88 line,#chart-f06adcb2-09e0-4fca-86de-c50f682f1d88 rect,#chart-f06adcb2-09e0-4fca-86de-c50f682f1d88 circle{-webkit-transition:250ms;-moz-transition:250ms;transition:250ms}#chart-f06adcb2-09e0-4fca-86de-c50f682f1d88 .graph &gt; .background{fill:black}#chart-f06adcb2-09e0-4fca-86de-c50f682f1d88 .plot &gt; .background{fill:#111}#chart-f06adcb2-09e0-4fca-86de-c50f682f1d88 .graph{fill:#999}#chart-f06adcb2-09e0-4fca-86de-c50f682f1d88 text.no_data{fill:#eee}#chart-f06adcb2-09e0-4fca-86de-c50f682f1d88 .title{fill:#eee}#chart-f06adcb2-09e0-4fca-86de-c50f682f1d88 .legends .legend text{fill:#999}#chart-f06adcb2-09e0-4fca-86de-c50f682f1d88 .legends .legend:hover text{fill:#eee}#chart-f06adcb2-09e0-4fca-86de-c50f682f1d88 .axis .line{stroke:#eee}#chart-f06adcb2-09e0-4fca-86de-c50f682f1d88 .axis .guide.line{stroke:#555}#chart-f06adcb2-09e0-4fca-86de-c50f682f1d88 .axis .major.line{stroke:#999}#chart-f06adcb2-09e0-4fca-86de-c50f682f1d88 .axis text.major{stroke:#eee;fill:#eee}#chart-f06adcb2-09e0-4fca-86de-c50f682f1d88 .axis.y .guides:hover .guide.line,#chart-f06adcb2-09e0-4fca-86de-c50f682f1d88 .line-graph .axis.x .guides:hover .guide.line,#chart-f06adcb2-09e0-4fca-86de-c50f682f1d88 .stackedline-graph .axis.x .guides:hover .guide.line,#chart-f06adcb2-09e0-4fca-86de-c50f682f1d88 .xy-graph .axis.x .guides:hover .guide.line{stroke:#eee}#chart-f06adcb2-09e0-4fca-86de-c50f682f1d88 .axis .guides:hover text{fill:#eee}#chart-f06adcb2-09e0-4fca-86de-c50f682f1d88 .reactive{fill-opacity:.8}#chart-f06adcb2-09e0-4fca-86de-c50f682f1d88 .reactive.active,#chart-f06adcb2-09e0-4fca-86de-c50f682f1d88 .active .reactive{fill-opacity:.4}#chart-f06adcb2-09e0-4fca-86de-c50f682f1d88 .series{stroke-width:1.0;stroke-linejoin:round;stroke-linecap:round;stroke-dasharray:0,0}#chart-f06adcb2-09e0-4fca-86de-c50f682f1d88 .series text{fill:#eee}#chart-f06adcb2-09e0-4fca-86de-c50f682f1d88 .tooltip rect{fill:#111;stroke:#eee}#chart-f06adcb2-09e0-4fca-86de-c50f682f1d88 .tooltip text{fill:#eee}#chart-f06adcb2-09e0-4fca-86de-c50f682f1d88 .map-element{fill:#999;stroke:#555 !important;opacity:.9;stroke-width:3;-webkit-transition:250ms;-moz-transition:250ms;-o-transition:250ms;transition:250ms}#chart-f06adcb2-09e0-4fca-86de-c50f682f1d88 .map-element:hover{opacity:1;stroke-width:10}#chart-f06adcb2-09e0-4fca-86de-c50f682f1d88 .color-0,#chart-f06adcb2-09e0-4fca-86de-c50f682f1d88 .color-0 a:visited{stroke:#ff5995;fill:#ff5995}#chart-f06adcb2-09e0-4fca-86de-c50f682f1d88 .color-1,#chart-f06adcb2-09e0-4fca-86de-c50f682f1d88 .color-1 a:visited{stroke:#b6e354;fill:#b6e354}#chart-f06adcb2-09e0-4fca-86de-c50f682f1d88 .color-2,#chart-f06adcb2-09e0-4fca-86de-c50f682f1d88 .color-2 a:visited{stroke:#feed6c;fill:#feed6c}#chart-f06adcb2-09e0-4fca-86de-c50f682f1d88 .color-3,#chart-f06adcb2-09e0-4fca-86de-c50f682f1d88 .color-3 a:visited{stroke:#8cedff;fill:#8cedff}#chart-f06adcb2-09e0-4fca-86de-c50f682f1d88 .color-4,#chart-f06adcb2-09e0-4fca-86de-c50f682f1d88 .color-4 a:visited{stroke:#9e6ffe;fill:#9e6ffe}#chart-f06adcb2-09e0-4fca-86de-c50f682f1d88 .color-5,#chart-f06adcb2-09e0-4fca-86de-c50f682f1d88 .color-5 a:visited{stroke:#899ca1;fill:#899ca1}#chart-f06adcb2-09e0-4fca-86de-c50f682f1d88 .color-6,#chart-f06adcb2-09e0-4fca-86de-c50f682f1d88 .color-6 a:visited{stroke:#f8f8f2;fill:#f8f8f2}#chart-f06adcb2-09e0-4fca-86de-c50f682f1d88 .color-7,#chart-f06adcb2-09e0-4fca-86de-c50f682f1d88 .color-7 a:visited{stroke:#bf4646;fill:#bf4646}#chart-f06adcb2-09e0-4fca-86de-c50f682f1d88 .color-8,#chart-f06adcb2-09e0-4fca-86de-c50f682f1d88 .color-8 a:visited{stroke:#516083;fill:#516083}#chart-f06adcb2-09e0-4fca-86de-c50f682f1d88 .color-9,#chart-f06adcb2-09e0-4fca-86de-c50f682f1d88 .color-9 a:visited{stroke:#f92672;fill:#f92672}#chart-f06adcb2-09e0-4fca-86de-c50f682f1d88 .color-10,#chart-f06adcb2-09e0-4fca-86de-c50f682f1d88 .color-10 a:visited{stroke:#82b414;fill:#82b414}#chart-f06adcb2-09e0-4fca-86de-c50f682f1d88 .color-11,#chart-f06adcb2-09e0-4fca-86de-c50f682f1d88 .color-11 a:visited{stroke:#fd971f;fill:#fd971f}#chart-f06adcb2-09e0-4fca-86de-c50f682f1d88 .color-12,#chart-f06adcb2-09e0-4fca-86de-c50f682f1d88 .color-12 a:visited{stroke:#56c2d6;fill:#56c2d6}#chart-f06adcb2-09e0-4fca-86de-c50f682f1d88 .color-13,#chart-f06adcb2-09e0-4fca-86de-c50f682f1d88 .color-13 a:visited{stroke:#808384;fill:#808384}#chart-f06adcb2-09e0-4fca-86de-c50f682f1d88 .color-14,#chart-f06adcb2-09e0-4fca-86de-c50f682f1d88 .color-14 a:visited{stroke:#8c54fe;fill:#8c54fe}#chart-f06adcb2-09e0-4fca-86de-c50f682f1d88 .color-15,#chart-f06adcb2-09e0-4fca-86de-c50f682f1d88 .color-15 a:visited{stroke:#465457;fill:#465457}
#chart-f06adcb2-09e0-4fca-86de-c50f682f1d88 text.no_data{text-anchor:middle}#chart-f06adcb2-09e0-4fca-86de-c50f682f1d88 .guide.line{fill-opacity:0}#chart-f06adcb2-09e0-4fca-86de-c50f682f1d88 .centered{text-anchor:middle}#chart-f06adcb2-09e0-4fca-86de-c50f682f1d88 .title{text-anchor:middle}#chart-f06adcb2-09e0-4fca-86de-c50f682f1d88 .legends .legend text{fill-opacity:1}#chart-f06adcb2-09e0-4fca-86de-c50f682f1d88 .axis.x text{text-anchor:middle}#chart-f06adcb2-09e0-4fca-86de-c50f682f1d88 .axis.x:not(.web) text[transform]{text-anchor:start}#chart-f06adcb2-09e0-4fca-86de-c50f682f1d88 .axis.y text{text-anchor:end}#chart-f06adcb2-09e0-4fca-86de-c50f682f1d88 .axis.y2 text{text-anchor:start}#chart-f06adcb2-09e0-4fca-86de-c50f682f1d88 .axis.y .logarithmic text:not(.major),#chart-f06adcb2-09e0-4fca-86de-c50f682f1d88 .axis.y2 .logarithmic text:not(.major){font-size:50%}#chart-f06adcb2-09e0-4fca-86de-c50f682f1d88 .axis .guide.line{stroke-dasharray:4,4}#chart-f06adcb2-09e0-4fca-86de-c50f682f1d88 .axis .major.guide.line{stroke-dasharray:6,6}#chart-f06adcb2-09e0-4fca-86de-c50f682f1d88 .axis text.major{stroke-width:0.5px}#chart-f06adcb2-09e0-4fca-86de-c50f682f1d88 .horizontal .axis.y .guide.line,#chart-f06adcb2-09e0-4fca-86de-c50f682f1d88 .horizontal .axis.y2 .guide.line,#chart-f06adcb2-09e0-4fca-86de-c50f682f1d88 .vertical .axis.x .guide.line{opacity:0}#chart-f06adcb2-09e0-4fca-86de-c50f682f1d88 .horizontal .axis.always_show .guide.line,#chart-f06adcb2-09e0-4fca-86de-c50f682f1d88 .vertical .axis.always_show .guide.line{opacity:1 !important}#chart-f06adcb2-09e0-4fca-86de-c50f682f1d88 .axis.y .guides:hover .guide.line,#chart-f06adcb2-09e0-4fca-86de-c50f682f1d88 .axis.y2 .guides:hover .guide.line,#chart-f06adcb2-09e0-4fca-86de-c50f682f1d88 .axis.x .guides:hover .guide.line{opacity:1}#chart-f06adcb2-09e0-4fca-86de-c50f682f1d88 .axis .guides:hover text{opacity:1}#chart-f06adcb2-09e0-4fca-86de-c50f682f1d88 .nofill{fill:none}#chart-f06adcb2-09e0-4fca-86de-c50f682f1d88 .subtle-fill{fill-opacity:.2}#chart-f06adcb2-09e0-4fca-86de-c50f682f1d88 .dot{stroke-width:1px;fill-opacity:1}#chart-f06adcb2-09e0-4fca-86de-c50f682f1d88 .dot.active{stroke-width:5px}#chart-f06adcb2-09e0-4fca-86de-c50f682f1d88 .series text{stroke:none}#chart-f06adcb2-09e0-4fca-86de-c50f682f1d88 .series text.active{opacity:1}#chart-f06adcb2-09e0-4fca-86de-c50f682f1d88 .tooltip rect{fill-opacity:0.8}#chart-f06adcb2-09e0-4fca-86de-c50f682f1d88 .tooltip text{fill-opacity:1}#chart-f06adcb2-09e0-4fca-86de-c50f682f1d88 .tooltip text tspan.label{fill-opacity:.8}</style><script type="text/javascript">window.config = {"x_value_formatter": null, "mode": null, "include_x_axis": false, "print_zeroes": false, "legend_at_bottom": true, "spacing": 10, "show_minor_y_labels": true, "y_labels_major_every": null, "half_pie": false, "y_label_rotation": 0, "show_minor_x_labels": true, "js": ["http://kozea.github.io/pygal.js/javascripts/svg.jquery.js", "http://kozea.github.io/pygal.js/javascripts/pygal-tooltips.js"], "zero": 0, "no_data_text": "No data", "truncate_label": null, "value_font_size": 8, "margin_left": null, "x_labels_major_count": null, "y_labels": null, "show_dots": false, "x_labels_major": null, "human_readable": false, "margin_right": null, "strict": false, "tooltip_border_radius": 0, "tooltip_font_size": 16, "show_x_guides": false, "x_labels": null, "fill": false, "x_label_rotation": 0, "interpolation_parameters": {}, "y_title": "Users", "logarithmic": false, "stack_from_top": false, "y_labels_major_count": null, "margin_bottom": null, "order_min": null, "margin_top": null, "title": "Latest Election Participation", "style": {"plot_background": "#111", "background": "black", "font_family": "monospace", "colors": ["#ff5995", "#b6e354", "#feed6c", "#8cedff", "#9e6ffe", "#899ca1", "#f8f8f2", "#bf4646", "#516083", "#f92672", "#82b414", "#fd971f", "#56c2d6", "#808384", "#8c54fe", "#465457"], "stroke_width": 1.0, "foreground_light": "#eee", "stroke_style": "round", "opacity": ".8", "foreground": "#999", "foreground_dark": "#555", "stroke_dasharray": "0,0", "opacity_hover": ".4", "transition": "250ms"}, "legend_at_bottom_columns": null, "title_font_size": 16, "stroke": true, "interpolate": null, "range": null, "label_font_size": 10, "legend_box_size": 12, "css": ["style.css", "graph.css"], "x_title": null, "x_label_format": "%Y-%m-%d %H:%M:%S.%f", "dots_size": 2.5, "show_legend": true, "y_labels_major": null, "xrange": null, "show_y_guides": true, "show_only_major_dots": false, "disable_xml_declaration": false, "margin": 20, "width": 1024, "height": 768, "legend_font_size": 14, "show_y_labels": true, "explicit_size": false, "print_values": false, "no_data_font_size": 64, "x_labels_major_every": null, "major_label_font_size": 10, "inner_radius": 0, "truncate_legend": null, "pretty_print": false, "show_x_labels": true, "missing_value_fill_truncation": "x", "rounded_bars": null, "no_prefix": false, "interpolation_precision": 250}</script><script type="text/javascript" xlink:href="http://kozea.github.io/pygal.js/javascripts/svg.jquery.js" /><script type="text/javascript" xlink:href="http://kozea.github.io/pygal.js/javascripts/pygal-tooltips.js" /></defs><title>Latest Election Participation</title><g class="graph line-graph vertical"><rect class="background" height="768" width="1024" x="0" y="0" /><g class="plot" transform="translate(86, 46)"><rect class="background" height="657.0" width="918.0" x="0" y="0" /><g class="axis y"><g class="guides"><path class="axis major line" d="M0.000000 644.365385 h918.000000" /><text class="major" x="-5" y="647.8653846153846">0</text></g><g class="guides"><path class="guide line" d="M0.000000 562.375668 h918.000000" /><text class="" x="-5" y="565.8756676483802">10000</text></g><g class="guides"><path class="guide line" d="M0.000000 480.385951 h918.000000" /><text class="" x="-5" y="483.88595068137573">20000</text></g><g class="guides"><path class="guide line" d="M0.000000 398.396234 h918.000000" /><text class="" x="-5" y="401.8962337143713">30000</text></g><g class="guides"><path class="guide line" d="M0.000000 316.406517 h918.000000" /><text class="" x="-5" y="319.9065167473668">40000</text></g><g class="guides"><path class="major guide line" d="M0.000000 234.416800 h918.000000" /><text class="major" x="-5" y="237.9167997803624">50000</text></g><g class="guides"><path class="guide line" d="M0.000000 152.427083 h918.000000" /><text class="" x="-5" y="155.92708281335797">60000</text></g><g class="guides"><path class="guide line" d="M0.000000 70.437366 h918.000000" /><text class="" x="-5" y="73.93736584635349">70000</text></g></g><g class="series serie-0 color-0"><path class="line reactive nofill" d="M17.653846 644.365385 L20.234818 644.365385 22.815789 644.365385 25.396761 644.365385 27.977733 644.365385 30.558704 644.365385 33.139676 644.365385 35.720648 644.365385 38.301619 644.365385 40.882591 644.365385 43.463563 644.365385 46.044534 644.365385 48.625506 644.365385 51.206478 644.365385 53.787449 644.365385 56.368421 644.365385 58.949393 644.365385 61.530364 644.365385 64.111336 644.365385 66.692308 644.365385 69.273279 644.365385 71.854251 644.365385 74.435223 644.365385 77.016194 644.365385 79.597166 644.365385 82.178138 644.365385 84.759109 644.365385 87.340081 644.365385 89.921053 644.365385 92.502024 644.365385 95.082996 644.365385 97.663968 644.365385 100.244939 644.365385 102.825911 644.365385 105.406883 644.365385 107.987854 644.365385 110.568826 644.365385 113.149798 644.365385 115.730769 644.365385 118.311741 644.365385 120.892713 644.365385 123.473684 644.365385 126.054656 644.365385 128.635628 644.365385 131.216599 644.365385 133.797571 644.365385 136.378543 644.365385 138.959514 644.365385 141.540486 644.365385 144.121457 644.365385 146.702429 644.365385 149.283401 644.365385 151.864372 644.365385 154.445344 644.365385 157.026316 644.365385 159.607287 644.365385 162.188259 644.365385 164.769231 644.365385 167.350202 644.365385 169.931174 644.365385 172.512146 644.365385 175.093117 644.365385 177.674089 644.365385 180.255061 644.365385 182.836032 644.365385 185.417004 644.365385 187.997976 644.365385 190.578947 644.365385 193.159919 644.365385 195.740891 644.365385 198.321862 644.365385 200.902834 644.365385 203.483806 644.365385 206.064777 644.365385 208.645749 644.365385 211.226721 644.365385 213.807692 644.365385 216.388664 644.365385 218.969636 644.365385 221.550607 644.365385 224.131579 644.365385 226.712551 644.365385 229.293522 644.365385 231.874494 644.365385 234.455466 644.365385 237.036437 644.365385 239.617409 644.365385 242.198381 644.365385 244.779352 644.365385 247.360324 644.365385 249.941296 644.365385 252.522267 644.365385 255.103239 644.365385 257.684211 644.365385 260.265182 644.365385 262.846154 644.365385 265.427126 644.365385 268.008097 644.365385 270.589069 644.365385 273.170040 644.365385 275.751012 644.365385 278.331984 644.365385 280.912955 644.365385 283.493927 644.365385 286.074899 644.365385 288.655870 644.365385 291.236842 644.365385 293.817814 644.365385 296.398785 644.365385 298.979757 644.365385 301.560729 644.365385 304.141700 644.365385 306.722672 644.365385 309.303644 644.365385 311.884615 644.365385 314.465587 644.365385 317.046559 644.365385 319.627530 644.365385 322.208502 644.365385 324.789474 644.365385 327.370445 644.365385 329.951417 644.365385 332.532389 644.365385 335.113360 644.365385 337.694332 644.365385 340.275304 644.365385 342.856275 644.365385 345.437247 644.365385 348.018219 644.365385 350.599190 644.365385 353.180162 644.365385 355.761134 644.365385 358.342105 644.365385 360.923077 644.365385 363.504049 644.365385 366.085020 644.365385 368.665992 644.365385 371.246964 644.365385 373.827935 644.365385 376.408907 644.365385 378.989879 644.365385 381.570850 644.365385 384.151822 644.365385 386.732794 644.365385 389.313765 644.365385 391.894737 644.365385 394.475709 644.365385 397.056680 644.365385 399.637652 644.365385 402.218623 644.365385 404.799595 644.365385 407.380567 644.365385 409.961538 644.365385 412.542510 644.365385 415.123482 644.365385 417.704453 644.365385 420.285425 644.365385 422.866397 644.365385 425.447368 644.365385 428.028340 644.365385 430.609312 644.365385 433.190283 644.365385 435.771255 644.365385 438.352227 644.365385 440.933198 644.365385 443.514170 644.365385 446.095142 644.365385 448.676113 644.365385 451.257085 644.365385 453.838057 644.365385 456.419028 644.365385 459.000000 644.365385 461.580972 644.365385 464.161943 644.365385 466.742915 644.365385 469.323887 644.365385 471.904858 644.365385 474.485830 644.365385 477.066802 644.365385 479.647773 644.365385 482.228745 644.365385 484.809717 644.365385 487.390688 644.365385 489.971660 644.365385 492.552632 644.365385 495.133603 644.365385 497.714575 644.365385 500.295547 644.365385 502.876518 644.365385 505.457490 644.365385 508.038462 644.365385 510.619433 644.365385 513.200405 644.365385 515.781377 644.365385 518.362348 644.365385 520.943320 644.365385 523.524291 644.365385 526.105263 644.365385 528.686235 644.365385 531.267206 644.365385 533.848178 644.365385 536.429150 644.365385 539.010121 644.365385 541.591093 644.365385 544.172065 644.365385 546.753036 644.365385 549.334008 644.365385 551.914980 644.365385 554.495951 644.365385 557.076923 644.365385 559.657895 644.365385 562.238866 644.365385 564.819838 644.365385 567.400810 644.365385 569.981781 644.365385 572.562753 644.365385 575.143725 644.365385 577.724696 644.365385 580.305668 644.365385 582.886640 644.365385 585.467611 644.365385 588.048583 644.365385 590.629555 644.365385 593.210526 644.365385 595.791498 644.365385 598.372470 644.365385 600.953441 644.365385 603.534413 644.365385 606.115385 644.365385 608.696356 644.365385 611.277328 644.365385 613.858300 644.365385 616.439271 644.365385 619.020243 644.365385 621.601215 644.365385 624.182186 644.365385 626.763158 644.365385 629.344130 644.365385 631.925101 644.365385 634.506073 644.365385 637.087045 644.365385 639.668016 644.365385 642.248988 644.365385 644.829960 644.365385 647.410931 644.365385 649.991903 644.365385 652.572874 644.365385 655.153846 644.365385 657.734818 644.365385 660.315789 644.365385 662.896761 644.365385 665.477733 644.365385 668.058704 644.365385 670.639676 644.365385 673.220648 644.365385 675.801619 644.365385 678.382591 644.365385 680.963563 644.365385 683.544534 644.365385 686.125506 644.365385 688.706478 644.365385 691.287449 644.365385 693.868421 644.365385 696.449393 644.365385 699.030364 618.095879 701.611336 606.002396 704.192308 599.295637 706.773279 595.327335 709.354251 592.236323 711.935223 589.506065 714.516194 587.046373 717.097166 584.201330 719.678138 580.421604 722.259109 576.715669 724.840081 573.050729 727.421053 568.844656 730.002024 565.146920 732.582996 560.957246 735.163968 557.161122 737.744939 554.094706 740.325911 551.159474 742.906883 548.281635 745.487854 545.543179 748.068826 543.026094 750.649798 540.869765 753.230769 538.410073 755.811741 536.516111 758.392713 534.285991 760.973684 532.760982 763.554656 531.506539 766.135628 530.530862 768.716599 529.702765 771.297571 529.104241 773.878543 528.448323 776.459514 527.841599 779.040486 527.292268 781.621457 526.701942 784.202429 525.841050 786.783401 524.644000 789.364372 523.545338 791.945344 522.102319 794.526316 520.938065 797.107287 519.552438 799.688259 518.175011 802.269231 516.961563 804.850202 515.715320 807.431174 514.698647 810.012146 513.411409 812.593117 512.156966 815.174089 510.943518 817.755061 509.754667 820.336032 508.639607 822.917004 507.672128 825.497976 506.655456 828.078947 505.909350 830.659919 504.982866 833.240891 504.089178 835.821862 503.072505 838.402834 501.973843 840.983806 500.776793 843.564777 498.415489 846.145749 495.086707 848.726721 490.421492 851.307692 484.346054 853.888664 478.787151 856.469636 473.564406 859.050607 470.170032 861.631579 467.177407 864.212551 463.545263 866.793522 459.798333 869.374494 456.272775 871.955466 453.567114 874.536437 451.673152 877.117409 450.320321 879.698381 448.828109 882.279352 447.417885 884.860324 446.343820 887.441296 445.228760 890.022267 444.654832 892.603239 444.236684 895.184211 443.670955 897.765182 443.277405 900.346154 442.875655" /></g><g class="series serie-1 color-1"><path class="line reactive nofill" d="M17.653846 627.910048 L20.234818 621.752621 22.815789 618.317252 25.396761 616.029738 27.977733 613.873409 30.558704 612.438589 33.139676 610.995570 35.720648 609.314781 38.301619 606.805895 40.882591 603.575500 43.463563 600.197524 46.044534 595.573304 48.625506 591.342635 51.206478 588.464796 53.787449 585.816528 56.368421 583.619203 58.949393 581.339889 61.530364 579.109769 64.111336 576.863251 66.692308 574.903696 69.273279 573.362290 71.854251 571.993061 74.435223 570.779614 77.016194 569.631758 79.597166 568.729871 82.178138 567.623010 84.759109 567.098275 87.340081 566.721123 89.921053 566.261980 92.502024 565.827435 95.082996 565.540471 97.663968 565.269905 100.244939 564.720574 102.825911 564.081054 105.406883 563.384141 107.987854 562.441259 110.568826 561.498378 113.149798 560.571894 115.730769 559.694604 118.311741 558.964895 120.892713 558.128600 123.473684 557.267708 126.054656 556.521602 128.635628 555.873883 131.216599 555.332751 133.797571 554.685032 136.378543 554.102905 138.959514 553.619166 141.540486 553.127228 144.121457 552.733677 146.702429 552.348325 149.283401 552.200744 151.864372 552.028565 154.445344 551.848188 157.026316 551.618617 159.607287 551.438239 162.188259 551.093883 164.769231 550.659337 167.350202 550.290383 169.931174 549.716455 172.512146 549.134328 175.093117 548.642390 177.674089 548.142253 180.255061 547.568325 182.836032 547.084585 185.417004 546.486061 187.997976 545.871138 190.578947 545.289011 193.159919 544.838067 195.740891 544.526506 198.321862 544.165752 200.902834 543.788599 203.483806 543.321257 206.064777 543.026094 208.645749 542.837518 211.226721 542.657141 213.807692 542.534156 216.388664 542.394774 218.969636 542.238993 221.550607 542.124208 224.131579 541.878238 226.712551 541.591274 229.293522 541.222321 231.874494 540.894362 234.455466 540.550005 237.036437 540.107261 239.617409 539.672715 242.198381 539.328358 244.779352 538.910211 247.360324 538.524859 249.941296 538.114910 252.522267 537.795151 255.103239 537.581977 257.684211 537.327809 260.265182 537.098238 262.846154 536.885065 265.427126 536.598101 268.008097 536.425922 270.589069 536.278341 273.170040 536.163555 275.751012 536.024173 278.331984 535.917586 280.912955 535.851994 283.493927 535.786402 286.074899 535.655219 288.655870 535.581428 291.236842 535.442046 293.817814 535.302663 296.398785 535.220673 298.979757 535.122286 301.560729 535.048495 304.141700 534.876317 306.722672 534.720536 309.303644 534.622148 311.884615 534.425373 314.465587 534.261394 317.046559 534.113812 319.627530 533.941634 322.208502 533.728461 324.789474 533.597277 327.370445 533.498889 329.951417 533.425099 332.532389 533.269318 335.113360 533.154533 337.694332 533.064344 340.275304 532.957757 342.856275 532.867569 345.437247 532.801977 348.018219 532.687191 350.599190 532.580605 353.180162 532.474018 355.761134 532.383829 358.342105 532.301839 360.923077 532.113263 363.504049 531.973881 366.085020 531.809901 368.665992 531.670519 371.246964 531.539335 373.827935 531.408152 376.408907 531.268769 378.989879 531.170381 381.570850 531.047397 384.151822 530.908014 386.732794 530.711239 389.313765 530.571856 391.894737 530.416076 394.475709 530.325887 397.056680 530.235699 399.637652 530.145510 402.218623 530.038923 404.799595 529.891342 407.380567 529.817551 409.961538 529.710964 412.542510 529.505990 415.123482 529.301016 417.704453 528.915664 420.285425 528.489318 422.866397 527.997379 425.447368 527.603829 428.028340 527.152885 430.609312 526.751136 433.190283 526.152611 435.771255 525.668871 438.352227 525.406504 440.933198 525.111341 443.514170 524.791581 446.095142 524.447225 448.676113 524.078271 451.257085 483.247392 453.838057 463.848625 456.419028 453.362140 459.000000 445.622311 461.580972 438.981144 464.161943 433.414042 466.742915 427.133630 469.323887 420.992600 471.904858 412.096715 474.485830 399.134141 477.066802 382.072081 479.647773 360.353005 482.228745 341.692145 484.809717 325.253207 487.390688 312.561199 489.971660 301.394200 492.552632 289.973032 495.133603 279.199583 497.714575 268.918073 500.295547 260.637111 502.876518 254.332102 505.457490 248.855189 508.038462 243.788224 510.619433 239.188601 513.200405 235.294090 515.781377 231.866920 518.362348 229.587605 520.943320 228.128188 523.524291 226.922940 526.105263 225.594706 528.686235 224.332065 531.267206 222.749663 533.848178 220.626129 536.429150 217.854877 539.010121 214.140743 541.591093 209.934670 544.172065 205.720399 546.753036 201.292954 549.334008 197.365647 551.914980 193.569523 554.495951 189.781598 557.076923 185.903484 559.657895 181.918784 562.238866 178.762180 564.819838 175.777754 567.400810 173.465644 569.981781 171.079743 572.562753 168.989006 575.143725 166.931064 577.724696 165.529040 580.305668 164.307393 582.886640 163.323516 585.467611 162.610206 588.048583 161.675523 590.629555 160.962212 593.210526 160.052126 595.791498 158.969862 598.372470 157.846603 600.953441 155.813258 603.534413 153.738918 606.115385 151.623584 608.696356 149.254081 611.277328 147.114149 613.858300 145.089003 616.439271 142.686704 619.020243 140.505778 621.601215 138.439637 624.182186 136.914628 626.763158 135.135452 629.344130 133.569448 631.925101 132.405194 634.506073 131.249139 637.087045 130.027492 639.668016 129.027218 642.248988 128.330305 644.829960 127.797372 647.410931 127.313633 649.991903 126.928281 652.572874 126.419945 655.153846 125.895210 657.734818 125.313083 660.315789 124.575176 662.896761 123.730682 665.477733 122.722208 668.058704 121.402174 670.639676 120.057543 673.220648 119.008074 675.801619 118.007800 678.382591 116.572980 680.963563 115.170955 683.544534 113.678743 686.125506 112.588279 688.706478 111.801178 691.287449 110.833699 693.868421 109.899017 696.449393 109.144711 699.030364 100.634179 701.611336 96.075550 704.192308 93.181313 706.773279 91.336545 709.354251 90.164092 711.935223 89.122822 714.516194 88.319323 717.097166 87.368242 719.678138 86.187590 722.259109 84.834760 724.840081 83.473731 727.421053 81.948722 730.002024 80.636887 732.582996 78.931501 735.163968 77.537675 737.744939 76.357023 740.325911 74.832015 742.906883 73.585771 745.487854 72.306731 748.068826 71.044090 750.649798 70.043815 753.230769 68.912357 755.811741 67.961276 758.392713 66.747829 760.973684 65.862340 763.554656 65.050641 766.135628 64.542305 768.716599 63.935581 771.297571 63.566628 773.878543 63.189475 776.459514 62.894312 779.040486 62.566353 781.621457 62.230195 784.202429 61.836645 786.783401 61.279114 789.364372 60.688788 791.945344 59.795101 794.526316 58.950606 797.107287 58.097913 799.688259 57.499389 802.269231 56.679491 804.850202 55.998977 807.431174 55.359457 810.012146 54.531361 812.593117 53.793453 815.174089 52.998153 817.755061 52.448822 820.336032 51.833899 822.917004 51.128788 825.497976 50.530263 828.078947 50.112115 830.659919 49.652973 833.240891 49.202029 835.821862 48.578907 838.402834 48.013178 840.983806 47.332664 843.564777 46.373384 846.145749 44.946763 848.726721 42.905219 851.307692 40.420930 853.888664 37.551290 856.469636 34.484875 859.050607 32.459729 861.631579 30.483777 864.212551 28.179866 866.793522 25.859557 869.374494 23.645834 871.955466 21.710877 874.536437 20.399042 877.117409 19.169196 879.698381 17.955748 882.279352 16.676708 884.860324 15.684633 887.441296 14.872935 890.022267 14.184221 892.603239 13.757875 895.184211 13.429916 897.765182 13.003569 900.346154 12.634615" /></g></g><g class="titles"><text class="title plot_title" x="512.0" y="26">Latest Election Participation</text><text class="title" transform="rotate(-90 0.000000 374.500000)" x="0" y="400.5">Users</text></g><g class="plot overlay" transform="translate(86, 46)"><g class="series serie-0 color-0" /><g class="series serie-1 color-1" /></g><g class="plot text-overlay" transform="translate(86, 46)"><g class="series serie-0 color-0" /><g class="series serie-1 color-1" /></g><g class="plot tooltip-overlay" transform="translate(86, 46)"><g class="tooltip" style="opacity: 0" transform="translate(0 0)"><a><rect class="tooltip-box" height="0" rx="0" ry="0" width="0" /><text class="text"><tspan class="label" /><tspan class="value" /></text></a></g></g><g class="legends" transform="translate(96, 713)"><g class="legend reactive activate-serie" id="activate-serie-0"><rect class="color-0 reactive" height="12" width="12" x="0.0" y="1.0" /><text x="17.0" y="11.2">constituents</text></g><g class="legend reactive activate-serie" id="activate-serie-1"><rect class="color-1 reactive" height="12" width="12" x="459.0" y="1.0" /><text x="476.0" y="11.2">caucus</text></g></g></g></svg>