<?xml version='1.0' encoding='utf-8'?>
<svg xmlns:xlink="http://www.w3.org/1999/xlink" class="pygal-chart" id="chart-7691aaf6-dd06-464c-8905-361d154239ea" viewBox="0 0 1024 768" xmlns="http://www.w3.org/2000/svg"><!--Generated with pygal 1.7.0 (etree) ©Kozea 2011-2014 on 2015-04-20--><!--http://pygal.org--><!--http://github.com/Kozea/pygal--><defs><style type="text/css">#chart-7691aaf6-dd06-464c-8905-361d154239ea .title{font-family:"monospace";font-size:16px}#chart-7691aaf6-dd06-464c-8905-361d154239ea .legends .legend text{font-family:"monospace";font-size:14px}#chart-7691aaf6-dd06-464c-8905-361d154239ea .axis text{font-family:"monospace";font-size:10px}#chart-7691aaf6-dd06-464c-8905-361d154239ea .axis text.major{font-family:"monospace";font-size:10px}#chart-7691aaf6-dd06-464c-8905-361d154239ea .series text{font-family:"monospace";font-size:8px}#chart-7691aaf6-dd06-464c-8905-361d154239ea .tooltip text{font-family:"monospace";font-size:16px}#chart-7691aaf6-dd06-464c-8905-361d154239ea text.no_data{font-size:64px}
#chart-7691aaf6-dd06-464c-8905-361d154239ea{background-color:black}#chart-7691aaf6-dd06-464c-8905-361d154239ea path,#chart-7691aaf6-dd06-464c-8905-361d154239ea line,#chart-7691aaf6-dd06-464c-8905-361d154239ea rect,#chart-7691aaf6-dd06-464c-8905-361d154239ea circle{-webkit-transition:250ms;-moz-transition:250ms;transition:250ms}#chart-7691aaf6-dd06-464c-8905-361d154239ea .graph &gt; .background{fill:black}#chart-7691aaf6-dd06-464c-8905-361d154239ea .plot &gt; .background{fill:#111}#chart-7691aaf6-dd06-464c-8905-361d154239ea .graph{fill:#999}#chart-7691aaf6-dd06-464c-8905-361d154239ea text.no_data{fill:#eee}#chart-7691aaf6-dd06-464c-8905-361d154239ea .title{fill:#eee}#chart-7691aaf6-dd06-464c-8905-361d154239ea .legends .legend text{fill:#999}#chart-7691aaf6-dd06-464c-8905-361d154239ea .legends .legend:hover text{fill:#eee}#chart-7691aaf6-dd06-464c-8905-361d154239ea .axis .line{stroke:#eee}#chart-7691aaf6-dd06-464c-8905-361d154239ea .axis .guide.line{stroke:#555}#chart-7691aaf6-dd06-464c-8905-361d154239ea .axis .major.line{stroke:#999}#chart-7691aaf6-dd06-464c-8905-361d154239ea .axis text.major{stroke:#eee;fill:#eee}#chart-7691aaf6-dd06-464c-8905-361d154239ea .axis.y .guides:hover .guide.line,#chart-7691aaf6-dd06-464c-8905-361d154239ea .line-graph .axis.x .guides:hover .guide.line,#chart-7691aaf6-dd06-464c-8905-361d154239ea .stackedline-graph .axis.x .guides:hover .guide.line,#chart-7691aaf6-dd06-464c-8905-361d154239ea .xy-graph .axis.x .guides:hover .guide.line{stroke:#eee}#chart-7691aaf6-dd06-464c-8905-361d154239ea .axis .guides:hover text{fill:#eee}#chart-7691aaf6-dd06-464c-8905-361d154239ea .reactive{fill-opacity:.8}#chart-7691aaf6-dd06-464c-8905-361d154239ea .reactive.active,#chart-7691aaf6-dd06-464c-8905-361d154239ea .active .reactive{fill-opacity:.4}#chart-7691aaf6-dd06-464c-8905-361d154239ea .series{stroke-width:1.0;stroke-linejoin:round;stroke-linecap:round;stroke-dasharray:0,0}#chart-7691aaf6-dd06-464c-8905-361d154239ea .series text{fill:#eee}#chart-7691aaf6-dd06-464c-8905-361d154239ea .tooltip rect{fill:#111;stroke:#eee}#chart-7691aaf6-dd06-464c-8905-361d154239ea .tooltip text{fill:#eee}#chart-7691aaf6-dd06-464c-8905-361d154239ea .map-element{fill:#999;stroke:#555 !important;opacity:.9;stroke-width:3;-webkit-transition:250ms;-moz-transition:250ms;-o-transition:250ms;transition:250ms}#chart-7691aaf6-dd06-464c-8905-361d154239ea .map-element:hover{opacity:1;stroke-width:10}#chart-7691aaf6-dd06-464c-8905-361d154239ea .color-0,#chart-7691aaf6-dd06-464c-8905-361d154239ea .color-0 a:visited{stroke:#ff5995;fill:#ff5995}#chart-7691aaf6-dd06-464c-8905-361d154239ea .color-1,#chart-7691aaf6-dd06-464c-8905-361d154239ea .color-1 a:visited{stroke:#b6e354;fill:#b6e354}#chart-7691aaf6-dd06-464c-8905-361d154239ea .color-2,#chart-7691aaf6-dd06-464c-8905-361d154239ea .color-2 a:visited{stroke:#feed6c;fill:#feed6c}#chart-7691aaf6-dd06-464c-8905-361d154239ea .color-3,#chart-7691aaf6-dd06-464c-8905-361d154239ea .color-3 a:visited{stroke:#8cedff;fill:#8cedff}#chart-7691aaf6-dd06-464c-8905-361d154239ea .color-4,#chart-7691aaf6-dd06-464c-8905-361d154239ea .color-4 a:visited{stroke:#9e6ffe;fill:#9e6ffe}#chart-7691aaf6-dd06-464c-8905-361d154239ea .color-5,#chart-7691aaf6-dd06-464c-8905-361d154239ea .color-5 a:visited{stroke:#899ca1;fill:#899ca1}#chart-7691aaf6-dd06-464c-8905-361d154239ea .color-6,#chart-7691aaf6-dd06-464c-8905-361d154239ea .color-6 a:visited{stroke:#f8f8f2;fill:#f8f8f2}#chart-7691aaf6-dd06-464c-8905-361d154239ea .color-7,#chart-7691aaf6-dd06-464c-8905-361d154239ea .color-7 a:visited{stroke:#bf4646;fill:#bf4646}#chart-7691aaf6-dd06-464c-8905-361d154239ea .color-8,#chart-7691aaf6-dd06-464c-8905-361d154239ea .color-8 a:visited{stroke:#516083;fill:#516083}#chart-7691aaf6-dd06-464c-8905-361d154239ea .color-9,#chart-7691aaf6-dd06-464c-8905-361d154239ea .color-9 a:visited{stroke:#f92672;fill:#f92672}#chart-7691aaf6-dd06-464c-8905-361d154239ea .color-10,#chart-7691aaf6-dd06-464c-8905-361d154239ea .color-10 a:visited{stroke:#82b414;fill:#82b414}#chart-7691aaf6-dd06-464c-8905-361d154239ea .color-11,#chart-7691aaf6-dd06-464c-8905-361d154239ea .color-11 a:visited{stroke:#fd971f;fill:#fd971f}#chart-7691aaf6-dd06-464c-8905-361d154239ea .color-12,#chart-7691aaf6-dd06-464c-8905-361d154239ea .color-12 a:visited{stroke:#56c2d6;fill:#56c2d6}#chart-7691aaf6-dd06-464c-8905-361d154239ea .color-13,#chart-7691aaf6-dd06-464c-8905-361d154239ea .color-13 a:visited{stroke:#808384;fill:#808384}#chart-7691aaf6-dd06-464c-8905-361d154239ea .color-14,#chart-7691aaf6-dd06-464c-8905-361d154239ea .color-14 a:visited{stroke:#8c54fe;fill:#8c54fe}#chart-7691aaf6-dd06-464c-8905-361d154239ea .color-15,#chart-7691aaf6-dd06-464c-8905-361d154239ea .color-15 a:visited{stroke:#465457;fill:#465457}
#chart-7691aaf6-dd06-464c-8905-361d154239ea text.no_data{text-anchor:middle}#chart-7691aaf6-dd06-464c-8905-361d154239ea .guide.line{fill-opacity:0}#chart-7691aaf6-dd06-464c-8905-361d154239ea .centered{text-anchor:middle}#chart-7691aaf6-dd06-464c-8905-361d154239ea .title{text-anchor:middle}#chart-7691aaf6-dd06-464c-8905-361d154239ea .legends .legend text{fill-opacity:1}#chart-7691aaf6-dd06-464c-8905-361d154239ea .axis.x text{text-anchor:middle}#chart-7691aaf6-dd06-464c-8905-361d154239ea .axis.x:not(.web) text[transform]{text-anchor:start}#chart-7691aaf6-dd06-464c-8905-361d154239ea .axis.y text{text-anchor:end}#chart-7691aaf6-dd06-464c-8905-361d154239ea .axis.y2 text{text-anchor:start}#chart-7691aaf6-dd06-464c-8905-361d154239ea .axis.y .logarithmic text:not(.major),#chart-7691aaf6-dd06-464c-8905-361d154239ea .axis.y2 .logarithmic text:not(.major){font-size:50%}#chart-7691aaf6-dd06-464c-8905-361d154239ea .axis .guide.line{stroke-dasharray:4,4}#chart-7691aaf6-dd06-464c-8905-361d154239ea .axis .major.guide.line{stroke-dasharray:6,6}#chart-7691aaf6-dd06-464c-8905-361d154239ea .axis text.major{stroke-width:0.5px}#chart-7691aaf6-dd06-464c-8905-361d154239ea .horizontal .axis.y .guide.line,#chart-7691aaf6-dd06-464c-8905-361d154239ea .horizontal .axis.y2 .guide.line,#chart-7691aaf6-dd06-464c-8905-361d154239ea .vertical .axis.x .guide.line{opacity:0}#chart-7691aaf6-dd06-464c-8905-361d154239ea .horizontal .axis.always_show .guide.line,#chart-7691aaf6-dd06-464c-8905-361d154239ea .vertical .axis.always_show .guide.line{opacity:1 !important}#chart-7691aaf6-dd06-464c-8905-361d154239ea .axis.y .guides:hover .guide.line,#chart-7691aaf6-dd06-464c-8905-361d154239ea .axis.y2 .guides:hover .guide.line,#chart-7691aaf6-dd06-464c-8905-361d154239ea .axis.x .guides:hover .guide.line{opacity:1}#chart-7691aaf6-dd06-464c-8905-361d154239ea .axis .guides:hover text{opacity:1}#chart-7691aaf6-dd06-464c-8905-361d154239ea .nofill{fill:none}#chart-7691aaf6-dd06-464c-8905-361d154239ea .subtle-fill{fill-opacity:.2}#chart-7691aaf6-dd06-464c-8905-361d154239ea .dot{stroke-width:1px;fill-opacity:1}#chart-7691aaf6-dd06-464c-8905-361d154239ea .dot.active{stroke-width:5px}#chart-7691aaf6-dd06-464c-8905-361d154239ea .series text{stroke:none}#chart-7691aaf6-dd06-464c-8905-361d154239ea .series text.active{opacity:1}#chart-7691aaf6-dd06-464c-8905-361d154239ea .tooltip rect{fill-opacity:0.8}#chart-7691aaf6-dd06-464c-8905-361d154239ea .tooltip text{fill-opacity:1}#chart-7691aaf6-dd06-464c-8905-361d154239ea .tooltip text tspan.label{fill-opacity:.8}</style><script type="text/javascript">window.config = {"x_value_formatter": null, "mode": null, "include_x_axis": false, "print_zeroes": false, "legend_at_bottom": true, "spacing": 10, "show_minor_y_labels": true, "y_labels_major_every": null, "half_pie": false, "y_label_rotation": 0, "show_minor_x_labels": true, "js": ["http://kozea.github.io/pygal.js/javascripts/svg.jquery.js", "http://kozea.github.io/pygal.js/javascripts/pygal-tooltips.js"], "zero": 0, "no_data_text": "No data", "truncate_label": null, "value_font_size": 8, "margin_left": null, "x_labels_major_count": null, "y_labels": null, "show_dots": false, "x_labels_major": null, "human_readable": false, "margin_right": null, "strict": false, "tooltip_border_radius": 0, "tooltip_font_size": 16, "show_x_guides": false, "x_labels": null, "fill": false, "x_label_rotation": 0, "interpolation_parameters": {}, "y_title": "Users", "logarithmic": false, "stack_from_top": false, "y_labels_major_count": null, "margin_bottom": null, "order_min": null, "margin_top": null, "title": "Latest Election Participation Per Hour", "style": {"plot_background": "#111", "background": "black", "font_family": "monospace", "colors": ["#ff5995", "#b6e354", "#feed6c", "#8cedff", "#9e6ffe", "#899ca1", "#f8f8f2", "#bf4646", "#516083", "#f92672", "#82b414", "#fd971f", "#56c2d6", "#808384", "#8c54fe", "#465457"], "stroke_width": 1.0, "foreground_light": "#eee", "stroke_style": "round", "opacity": ".8", "foreground": "#999", "foreground_dark": "#555", "stroke_dasharray": "0,0", "opacity_hover": ".4", "transition": "250ms"}, "legend_at_bottom_columns": null, "title_font_size": 16, "stroke": true, "interpolate": null, "range": null, "label_font_size": 10, "legend_box_size": 12, "css": ["style.css", "graph.css"], "x_title": null, "x_label_format": "%Y-%m-%d %H:%M:%S.%f", "dots_size": 2.5, "show_legend": true, "y_labels_major": null, "xrange": null, "show_y_guides": true, "show_only_major_dots": false, "disable_xml_declaration": false, "margin": 20, "width": 1024, "height": 768, "legend_font_size": 14, "show_y_labels": true, "explicit_size": false, "print_values": false, "no_data_font_size": 64, "x_labels_major_every": null, "major_label_font_size": 10, "inner_radius": 0, "truncate_legend": null, "pretty_print": false, "show_x_labels": true, "missing_value_fill_truncation": "x", "rounded_bars": null, "no_prefix": false, "interpolation_precision": 250}</script><script type="text/javascript" xlink:href="http://kozea.github.io/pygal.js/javascripts/svg.jquery.js" /><script type="text/javascript" xlink:href="http://kozea.github.io/pygal.js/javascripts/pygal-tooltips.js" /></defs><title>Latest Election Participation Per Hour</title><g class="graph line-graph vertical"><rect class="background" height="768" width="1024" x="0" y="0" /><g class="plot" transform="translate(80, 46)"><rect class="background" height="657.0" width="924.0" x="0" y="0" /><g class="axis y"><g class="guides"><path class="axis major line" d="M0.000000 644.365385 h924.000000" /><text class="major" x="-5" y="647.8653846153846">0</text></g><g class="guides"><path class="guide line" d="M0.000000 517.511816 h924.000000" /><text class="" x="-5" y="521.0118164967563">1000</text></g><g class="guides"><path class="guide line" d="M0.000000 390.658248 h924.000000" /><text class="" x="-5" y="394.15824837812795">2000</text></g><g class="guides"><path class="guide line" d="M0.000000 263.804680 h924.000000" /><text class="" x="-5" y="267.3046802594996">3000</text></g><g class="guides"><path class="guide line" d="M0.000000 136.951112 h924.000000" /><text class="" x="-5" y="140.45111214087126">4000</text></g></g><g class="series serie-0 color-0"><path class="line reactive nofill" d="M17.769231 644.365385 L20.367072 644.365385 22.964912 644.365385 25.562753 644.365385 28.160594 644.365385 30.758435 644.365385 33.356275 644.365385 35.954116 644.365385 38.551957 644.365385 41.149798 644.365385 43.747638 644.365385 46.345479 644.365385 48.943320 644.365385 51.541161 644.365385 54.139001 644.365385 56.736842 644.365385 59.334683 644.365385 61.932524 644.365385 64.530364 644.365385 67.128205 644.365385 69.726046 644.365385 72.323887 644.365385 74.921727 644.365385 77.519568 644.365385 80.117409 644.365385 82.715250 644.365385 85.313090 644.365385 87.910931 644.365385 90.508772 644.365385 93.106613 644.365385 95.704453 644.365385 98.302294 644.365385 100.900135 644.365385 103.497976 644.365385 106.095816 644.365385 108.693657 644.365385 111.291498 644.365385 113.889339 644.365385 116.487179 644.365385 119.085020 644.365385 121.682861 644.365385 124.280702 644.365385 126.878543 644.365385 129.476383 644.365385 132.074224 644.365385 134.672065 644.365385 137.269906 644.365385 139.867746 644.365385 142.465587 644.365385 145.063428 644.365385 147.661269 644.365385 150.259109 644.365385 152.856950 644.365385 155.454791 644.365385 158.052632 644.365385 160.650472 644.365385 163.248313 644.365385 165.846154 644.365385 168.443995 644.365385 171.041835 644.365385 173.639676 644.365385 176.237517 644.365385 178.835358 644.365385 181.433198 644.365385 184.031039 644.365385 186.628880 644.365385 189.226721 644.365385 191.824561 644.365385 194.422402 644.365385 197.020243 644.365385 199.618084 644.365385 202.215924 644.365385 204.813765 644.365385 207.411606 644.365385 210.009447 644.365385 212.607287 644.365385 215.205128 644.365385 217.802969 644.365385 220.400810 644.365385 222.998650 644.365385 225.596491 644.365385 228.194332 644.365385 230.792173 644.365385 233.390013 644.365385 235.987854 644.365385 238.585695 644.365385 241.183536 644.365385 243.781377 644.365385 246.379217 644.365385 248.977058 644.365385 251.574899 644.365385 254.172740 644.365385 256.770580 644.365385 259.368421 644.365385 261.966262 644.365385 264.564103 644.365385 267.161943 644.365385 269.759784 644.365385 272.357625 644.365385 274.955466 644.365385 277.553306 644.365385 280.151147 644.365385 282.748988 644.365385 285.346829 644.365385 287.944669 644.365385 290.542510 644.365385 293.140351 644.365385 295.738192 644.365385 298.336032 644.365385 300.933873 644.365385 303.531714 644.365385 306.129555 644.365385 308.727395 644.365385 311.325236 644.365385 313.923077 644.365385 316.520918 644.365385 319.118758 644.365385 321.716599 644.365385 324.314440 644.365385 326.912281 644.365385 329.510121 644.365385 332.107962 644.365385 334.705803 644.365385 337.303644 644.365385 339.901484 644.365385 342.499325 644.365385 345.097166 644.365385 347.695007 644.365385 350.292848 644.365385 352.890688 644.365385 355.488529 644.365385 358.086370 644.365385 360.684211 644.365385 363.282051 644.365385 365.879892 644.365385 368.477733 644.365385 371.075574 644.365385 373.673414 644.365385 376.271255 644.365385 378.869096 644.365385 381.466937 644.365385 384.064777 644.365385 386.662618 644.365385 389.260459 644.365385 391.858300 644.365385 394.456140 644.365385 397.053981 644.365385 399.651822 644.365385 402.249663 644.365385 404.847503 644.365385 407.445344 644.365385 410.043185 644.365385 412.641026 644.365385 415.238866 644.365385 417.836707 644.365385 420.434548 644.365385 423.032389 644.365385 425.630229 644.365385 428.228070 644.365385 430.825911 644.365385 433.423752 644.365385 436.021592 644.365385 438.619433 644.365385 441.217274 644.365385 443.815115 644.365385 446.412955 644.365385 449.010796 644.365385 451.608637 644.365385 454.206478 644.365385 456.804318 644.365385 459.402159 644.365385 462.000000 644.365385 464.597841 644.365385 467.195682 644.365385 469.793522 644.365385 472.391363 644.365385 474.989204 644.365385 477.587045 644.365385 480.184885 644.365385 482.782726 644.365385 485.380567 644.365385 487.978408 644.365385 490.576248 644.365385 493.174089 644.365385 495.771930 644.365385 498.369771 644.365385 500.967611 644.365385 503.565452 644.365385 506.163293 644.365385 508.761134 644.365385 511.358974 644.365385 513.956815 644.365385 516.554656 644.365385 519.152497 644.365385 521.750337 644.365385 524.348178 644.365385 526.946019 644.365385 529.543860 644.365385 532.141700 644.365385 534.739541 644.365385 537.337382 644.365385 539.935223 644.365385 542.533063 644.365385 545.130904 644.365385 547.728745 644.365385 550.326586 644.365385 552.924426 644.365385 555.522267 644.365385 558.120108 644.365385 560.717949 644.365385 563.315789 644.365385 565.913630 644.365385 568.511471 644.365385 571.109312 644.365385 573.707152 644.365385 576.304993 644.365385 578.902834 644.365385 581.500675 644.365385 584.098516 644.365385 586.696356 644.365385 589.294197 644.365385 591.892038 644.365385 594.489879 644.365385 597.087719 644.365385 599.685560 644.365385 602.283401 644.365385 604.881242 644.365385 607.479082 644.365385 610.076923 644.365385 612.674764 644.365385 615.272605 644.365385 617.870445 644.365385 620.468286 644.365385 623.066127 644.365385 625.663968 644.365385 628.261808 644.365385 630.859649 644.365385 633.457490 644.365385 636.055331 644.365385 638.653171 644.365385 641.251012 644.365385 643.848853 644.365385 646.446694 644.365385 649.044534 644.365385 651.642375 644.365385 654.240216 644.365385 656.838057 644.365385 659.435897 644.365385 662.033738 644.365385 664.631579 644.365385 667.229420 644.365385 669.827260 644.365385 672.425101 644.365385 675.022942 644.365385 677.620783 644.365385 680.218623 644.365385 682.816464 644.365385 685.414305 644.365385 688.012146 644.365385 690.609987 644.365385 693.207827 644.365385 695.805668 644.365385 698.403509 644.365385 701.001350 644.365385 703.599190 237.926552 706.197031 457.256372 708.794872 540.599166 711.392713 582.968258 713.990553 596.541589 716.588394 602.123146 719.186235 606.309314 721.784076 600.347196 724.381916 585.885890 726.979757 587.027572 729.577598 587.661840 732.175439 579.289504 734.773279 587.154425 737.371120 579.543211 739.968961 585.632183 742.566802 596.922150 745.164642 598.951807 747.762483 599.839782 750.360324 601.996293 752.958165 605.421339 755.556005 611.002896 758.153846 606.309314 760.751687 615.062210 763.349528 609.861214 765.947368 620.770621 768.545209 624.956789 771.143050 629.269810 773.740891 631.553174 776.338731 635.105074 778.936572 634.217099 781.534413 634.978221 784.132254 635.866196 786.730094 635.231928 789.327935 631.045760 791.925776 625.844764 794.523617 627.367006 797.121457 622.039157 799.719298 626.352178 802.317139 622.927132 804.914980 623.053985 807.512821 625.591057 810.110661 625.083642 812.708502 628.635542 815.306343 624.449374 817.904184 624.956789 820.502024 625.591057 823.099865 625.971617 825.697706 627.113299 828.295547 629.396664 830.893387 628.635542 833.491228 632.821710 836.089069 630.030931 838.686910 630.538346 841.284750 628.635542 843.882591 627.367006 846.480432 625.844764 849.078273 607.831557 851.676113 592.862836 854.273954 572.185704 856.871795 550.366891 859.469636 558.358665 862.067476 563.559662 864.665317 591.848007 867.263158 598.063832 869.860999 588.169254 872.458839 586.393304 875.056680 589.818350 877.654521 602.503707 880.252362 615.062210 882.850202 623.434546 885.448043 621.278035 888.045884 622.546571 890.643725 627.747567 893.241565 627.113299 895.839406 635.485635 898.437247 637.895853 901.035088 635.612488 903.632928 638.276413 906.230769 638.149560" /></g><g class="series serie-1 color-1"><path class="line reactive nofill" d="M17.769231 389.770273 L20.367072 549.098355 22.964912 591.213740 25.562753 608.973239 28.160594 611.002896 30.758435 622.166010 33.356275 622.039157 35.954116 618.360403 38.551957 605.548193 41.149798 594.385079 43.747638 592.101715 46.345479 572.819972 48.943320 578.908943 51.541161 599.839782 54.139001 603.391682 56.736842 610.368628 59.334683 609.100093 61.932524 609.861214 64.530364 609.607507 67.128205 614.047382 69.726046 620.516914 72.323887 623.180839 74.921727 625.591057 77.519568 626.605885 80.117409 630.411492 82.715250 627.240153 85.313090 636.246756 87.910931 638.530120 90.508772 637.261585 93.106613 637.642146 95.704453 639.925510 98.302294 640.179217 100.900135 635.866196 103.497976 634.470806 106.095816 633.582831 108.693657 629.777224 111.291498 629.777224 113.889339 630.030931 116.487179 630.792053 119.085020 633.075417 121.682861 631.426321 124.280702 631.045760 126.878543 632.821710 129.476383 634.343953 132.074224 635.993049 134.672065 634.343953 137.269906 635.358781 139.867746 636.881024 142.465587 636.754171 145.063428 638.276413 147.661269 638.403267 150.259109 642.082020 152.856950 641.701460 155.454791 641.574606 158.052632 640.813485 160.650472 641.574606 163.248313 639.037535 165.846154 637.642146 168.443995 638.656974 171.041835 635.485635 173.639676 635.358781 176.237517 636.754171 178.835358 636.627317 181.433198 635.485635 184.031039 636.881024 186.628880 635.105074 189.226721 634.851367 191.824561 635.358781 194.422402 637.388438 197.020243 639.544949 199.618084 638.783828 202.215924 638.530120 204.813765 637.134731 207.411606 639.798656 210.009447 641.447753 212.607287 641.574606 215.205128 642.462581 217.802969 642.208874 220.400810 641.955167 222.998650 642.589435 225.596491 640.559778 228.194332 639.925510 230.792173 638.656974 233.390013 639.291242 235.987854 639.037535 238.585695 637.515292 241.183536 637.642146 243.781377 639.037535 246.379217 637.895853 248.977058 638.403267 251.574899 638.022706 254.172740 639.418095 256.770580 641.067192 259.368421 640.432924 261.966262 640.813485 264.564103 641.067192 267.161943 639.925510 269.759784 641.701460 272.357625 642.082020 274.955466 642.589435 277.553306 642.208874 280.151147 642.716288 282.748988 643.350556 285.346829 643.350556 287.944669 642.335728 290.542510 643.223703 293.140351 642.208874 295.738192 642.208874 298.336032 643.096849 300.933873 642.843142 303.531714 643.223703 306.129555 641.701460 308.727395 641.955167 311.325236 642.843142 313.923077 641.320899 316.520918 641.828313 319.118758 642.082020 321.716599 641.701460 324.314440 641.067192 326.912281 642.335728 329.510121 642.843142 332.107962 643.223703 334.705803 641.955167 337.303644 642.589435 339.901484 642.969995 342.499325 642.716288 345.097166 642.969995 347.695007 643.350556 350.292848 642.589435 352.890688 642.716288 355.488529 642.716288 358.086370 642.969995 360.684211 643.096849 363.282051 641.447753 365.879892 642.208874 368.477733 641.828313 371.075574 642.208874 373.673414 642.335728 376.271255 642.335728 378.869096 642.208874 381.466937 642.843142 384.064777 642.462581 386.662618 642.208874 389.260459 641.320899 391.858300 642.208874 394.456140 641.955167 397.053981 642.969995 399.651822 642.969995 402.249663 642.969995 404.847503 642.716288 407.445344 642.082020 410.043185 643.223703 412.641026 642.716288 415.238866 641.194045 417.836707 641.194045 420.434548 638.403267 423.032389 637.768999 425.630229 636.754171 428.228070 638.276413 430.825911 637.388438 433.423752 638.149560 436.021592 635.105074 438.619433 636.881024 441.217274 640.306070 443.815115 639.798656 446.412955 639.418095 449.010796 639.037535 451.608637 638.656974 454.206478 12.634615 456.804318 344.229842 459.402159 482.119671 462.000000 524.615616 464.597841 541.613994 467.195682 558.231812 469.793522 547.195551 472.391363 549.352062 474.989204 506.729263 477.587045 443.809893 480.184885 380.383109 482.782726 308.330283 485.380567 355.646664 487.978408 390.023981 490.576248 447.996061 493.174089 471.590825 495.771930 467.658364 498.369771 477.679796 500.967611 485.291010 503.565452 516.243281 506.163293 546.814991 508.761134 559.627201 511.358974 565.969880 513.956815 573.200533 516.554656 584.109940 519.152497 591.340593 521.750337 609.100093 524.348178 621.785449 526.946019 625.717910 529.543860 623.815107 532.141700 624.829935 534.739541 619.882646 537.337382 611.510310 539.935223 601.488879 542.533063 586.900718 545.130904 579.289504 547.728745 579.162651 550.326586 575.864458 552.924426 583.602525 555.522267 585.632183 558.120108 585.759036 560.717949 584.363647 563.315789 582.714551 565.913630 595.526761 568.511471 598.190686 571.109312 608.592678 573.707152 607.450996 576.304993 612.017725 578.902834 612.525139 581.500675 622.673424 584.098516 625.464203 586.696356 629.142956 589.294197 633.329124 591.892038 629.904078 594.489879 633.329124 597.087719 630.284639 599.685560 627.620714 602.283401 626.986446 604.881242 612.905700 607.479082 612.271432 610.076923 611.637164 612.674764 607.704703 615.272605 611.256603 617.870445 613.032553 620.468286 607.197289 623.066127 610.622335 625.663968 612.398285 628.261808 620.770621 630.859649 616.838160 633.457490 620.136353 636.055331 626.352178 638.653171 626.479032 641.251012 625.464203 643.848853 628.889249 646.446694 633.582831 649.044534 636.119903 651.642375 636.881024 654.240216 638.403267 656.838057 636.500463 659.435897 636.246756 662.033738 635.358781 664.631579 632.948563 667.229420 631.299467 669.827260 628.762396 672.425101 623.941960 675.022942 623.561399 677.620783 628.128128 680.218623 628.889249 682.816464 622.166010 685.414305 622.673424 688.012146 621.278035 690.609987 627.493860 693.207827 632.187442 695.805668 629.396664 698.403509 629.904078 701.001350 632.694856 703.599190 512.691381 706.197031 573.834801 708.794872 599.586075 711.392713 615.823332 713.990553 626.225324 716.588394 628.254981 719.186235 631.933735 721.784076 629.650371 724.381916 626.098471 726.979757 623.434546 729.577598 623.307692 732.175439 620.770621 734.773279 624.068814 737.371120 617.979842 739.968961 622.800278 742.566802 626.098471 745.164642 620.770621 747.762483 625.083642 750.360324 624.576228 752.958165 624.829935 755.556005 628.889249 758.153846 626.859592 760.751687 629.650371 763.349528 625.591057 765.947368 630.665199 768.545209 631.806881 771.143050 636.500463 773.740891 634.978221 776.338731 638.656974 778.936572 638.530120 781.534413 639.798656 784.132254 639.291242 786.730094 639.164388 789.327935 638.276413 791.925776 635.739342 794.523617 635.231928 797.121457 630.538346 799.719298 631.299467 802.317139 631.172614 804.914980 635.105074 807.512821 631.680028 810.110661 633.836538 812.708502 634.470806 815.306343 631.553174 817.904184 632.948563 820.502024 632.060589 823.099865 635.866196 825.697706 634.851367 828.295547 633.455978 830.893387 635.105074 833.491228 637.895853 836.089069 637.261585 838.686910 637.388438 841.284750 634.724513 843.882591 635.612488 846.480432 633.836538 849.078273 629.523517 851.676113 622.292864 854.273954 612.778846 856.871795 605.928753 859.469636 599.966636 862.067476 596.922150 864.665317 613.032553 867.263158 613.793675 869.860999 608.719532 872.458839 608.465825 875.056680 610.114921 877.654521 614.427943 880.252362 624.068814 882.850202 625.337349 885.448043 625.591057 888.045884 624.576228 890.643725 629.016103 893.241565 631.806881 895.839406 633.709685 898.437247 637.768999 901.035088 639.291242 903.632928 637.768999 906.230769 638.656974" /></g></g><g class="titles"><text class="title plot_title" x="512.0" y="26">Latest Election Participation Per Hour</text><text class="title" transform="rotate(-90 0.000000 374.500000)" x="0" y="400.5">Users</text></g><g class="plot overlay" transform="translate(80, 46)"><g class="series serie-0 color-0" /><g class="series serie-1 color-1" /></g><g class="plot text-overlay" transform="translate(80, 46)"><g class="series serie-0 color-0" /><g class="series serie-1 color-1" /></g><g class="plot tooltip-overlay" transform="translate(80, 46)"><g class="tooltip" style="opacity: 0" transform="translate(0 0)"><a><rect class="tooltip-box" height="0" rx="0" ry="0" width="0" /><text class="text"><tspan class="label" /><tspan class="value" /></text></a></g></g><g class="legends" transform="translate(90, 713)"><g class="legend reactive activate-serie" id="activate-serie-0"><rect class="color-0 reactive" height="12" width="12" x="0.0" y="1.0" /><text x="17.0" y="11.2">constituents</text></g><g class="legend reactive activate-serie" id="activate-serie-1"><rect class="color-1 reactive" height="12" width="12" x="462.0" y="1.0" /><text x="479.0" y="11.2">caucus</text></g></g></g></svg>