<?xml version='1.0' encoding='utf-8'?>
<svg xmlns:xlink="http://www.w3.org/1999/xlink" class="pygal-chart" id="chart-d68d5ac7-6b6a-4a86-aefb-2a039d591f59" viewBox="0 0 1024 768" xmlns="http://www.w3.org/2000/svg"><!--Generated with pygal 1.7.0 (etree) ©Kozea 2011-2014 on 2015-04-20--><!--http://pygal.org--><!--http://github.com/Kozea/pygal--><defs><style type="text/css">#chart-d68d5ac7-6b6a-4a86-aefb-2a039d591f59 .title{font-family:"monospace";font-size:16px}#chart-d68d5ac7-6b6a-4a86-aefb-2a039d591f59 .legends .legend text{font-family:"monospace";font-size:14px}#chart-d68d5ac7-6b6a-4a86-aefb-2a039d591f59 .axis text{font-family:"monospace";font-size:10px}#chart-d68d5ac7-6b6a-4a86-aefb-2a039d591f59 .axis text.major{font-family:"monospace";font-size:10px}#chart-d68d5ac7-6b6a-4a86-aefb-2a039d591f59 .series text{font-family:"monospace";font-size:8px}#chart-d68d5ac7-6b6a-4a86-aefb-2a039d591f59 .tooltip text{font-family:"monospace";font-size:16px}#chart-d68d5ac7-6b6a-4a86-aefb-2a039d591f59 text.no_data{font-size:64px}
#chart-d68d5ac7-6b6a-4a86-aefb-2a039d591f59{background-color:black}#chart-d68d5ac7-6b6a-4a86-aefb-2a039d591f59 path,#chart-d68d5ac7-6b6a-4a86-aefb-2a039d591f59 line,#chart-d68d5ac7-6b6a-4a86-aefb-2a039d591f59 rect,#chart-d68d5ac7-6b6a-4a86-aefb-2a039d591f59 circle{-webkit-transition:250ms;-moz-transition:250ms;transition:250ms}#chart-d68d5ac7-6b6a-4a86-aefb-2a039d591f59 .graph &gt; .background{fill:black}#chart-d68d5ac7-6b6a-4a86-aefb-2a039d591f59 .plot &gt; .background{fill:#111}#chart-d68d5ac7-6b6a-4a86-aefb-2a039d591f59 .graph{fill:#999}#chart-d68d5ac7-6b6a-4a86-aefb-2a039d591f59 text.no_data{fill:#eee}#chart-d68d5ac7-6b6a-4a86-aefb-2a039d591f59 .title{fill:#eee}#chart-d68d5ac7-6b6a-4a86-aefb-2a039d591f59 .legends .legend text{fill:#999}#chart-d68d5ac7-6b6a-4a86-aefb-2a039d591f59 .legends .legend:hover text{fill:#eee}#chart-d68d5ac7-6b6a-4a86-aefb-2a039d591f59 .axis .line{stroke:#eee}#chart-d68d5ac7-6b6a-4a86-aefb-2a039d591f59 .axis .guide.line{stroke:#555}#chart-d68d5ac7-6b6a-4a86-aefb-2a039d591f59 .axis .major.line{stroke:#999}#chart-d68d5ac7-6b6a-4a86-aefb-2a039d591f59 .axis text.major{stroke:#eee;fill:#eee}#chart-d68d5ac7-6b6a-4a86-aefb-2a039d591f59 .axis.y .guides:hover .guide.line,#chart-d68d5ac7-6b6a-4a86-aefb-2a039d591f59 .line-graph .axis.x .guides:hover .guide.line,#chart-d68d5ac7-6b6a-4a86-aefb-2a039d591f59 .stackedline-graph .axis.x .guides:hover .guide.line,#chart-d68d5ac7-6b6a-4a86-aefb-2a039d591f59 .xy-graph .axis.x .guides:hover .guide.line{stroke:#eee}#chart-d68d5ac7-6b6a-4a86-aefb-2a039d591f59 .axis .guides:hover text{fill:#eee}#chart-d68d5ac7-6b6a-4a86-aefb-2a039d591f59 .reactive{fill-opacity:.8}#chart-d68d5ac7-6b6a-4a86-aefb-2a039d591f59 .reactive.active,#chart-d68d5ac7-6b6a-4a86-aefb-2a039d591f59 .active .reactive{fill-opacity:.4}#chart-d68d5ac7-6b6a-4a86-aefb-2a039d591f59 .series{stroke-width:1.0;stroke-linejoin:round;stroke-linecap:round;stroke-dasharray:0,0}#chart-d68d5ac7-6b6a-4a86-aefb-2a039d591f59 .series text{fill:#eee}#chart-d68d5ac7-6b6a-4a86-aefb-2a039d591f59 .tooltip rect{fill:#111;stroke:#eee}#chart-d68d5ac7-6b6a-4a86-aefb-2a039d591f59 .tooltip text{fill:#eee}#chart-d68d5ac7-6b6a-4a86-aefb-2a039d591f59 .map-element{fill:#999;stroke:#555 !important;opacity:.9;stroke-width:3;-webkit-transition:250ms;-moz-transition:250ms;-o-transition:250ms;transition:250ms}#chart-d68d5ac7-6b6a-4a86-aefb-2a039d591f59 .map-element:hover{opacity:1;stroke-width:10}#chart-d68d5ac7-6b6a-4a86-aefb-2a039d591f59 .color-0,#chart-d68d5ac7-6b6a-4a86-aefb-2a039d591f59 .color-0 a:visited{stroke:#ff5995;fill:#ff5995}#chart-d68d5ac7-6b6a-4a86-aefb-2a039d591f59 .color-1,#chart-d68d5ac7-6b6a-4a86-aefb-2a039d591f59 .color-1 a:visited{stroke:#b6e354;fill:#b6e354}#chart-d68d5ac7-6b6a-4a86-aefb-2a039d591f59 .color-2,#chart-d68d5ac7-6b6a-4a86-aefb-2a039d591f59 .color-2 a:visited{stroke:#feed6c;fill:#feed6c}#chart-d68d5ac7-6b6a-4a86-aefb-2a039d591f59 .color-3,#chart-d68d5ac7-6b6a-4a86-aefb-2a039d591f59 .color-3 a:visited{stroke:#8cedff;fill:#8cedff}#chart-d68d5ac7-6b6a-4a86-aefb-2a039d591f59 .color-4,#chart-d68d5ac7-6b6a-4a86-aefb-2a039d591f59 .color-4 a:visited{stroke:#9e6ffe;fill:#9e6ffe}#chart-d68d5ac7-6b6a-4a86-aefb-2a039d591f59 .color-5,#chart-d68d5ac7-6b6a-4a86-aefb-2a039d591f59 .color-5 a:visited{stroke:#899ca1;fill:#899ca1}#chart-d68d5ac7-6b6a-4a86-aefb-2a039d591f59 .color-6,#chart-d68d5ac7-6b6a-4a86-aefb-2a039d591f59 .color-6 a:visited{stroke:#f8f8f2;fill:#f8f8f2}#chart-d68d5ac7-6b6a-4a86-aefb-2a039d591f59 .color-7,#chart-d68d5ac7-6b6a-4a86-aefb-2a039d591f59 .color-7 a:visited{stroke:#bf4646;fill:#bf4646}#chart-d68d5ac7-6b6a-4a86-aefb-2a039d591f59 .color-8,#chart-d68d5ac7-6b6a-4a86-aefb-2a039d591f59 .color-8 a:visited{stroke:#516083;fill:#516083}#chart-d68d5ac7-6b6a-4a86-aefb-2a039d591f59 .color-9,#chart-d68d5ac7-6b6a-4a86-aefb-2a039d591f59 .color-9 a:visited{stroke:#f92672;fill:#f92672}#chart-d68d5ac7-6b6a-4a86-aefb-2a039d591f59 .color-10,#chart-d68d5ac7-6b6a-4a86-aefb-2a039d591f59 .color-10 a:visited{stroke:#82b414;fill:#82b414}#chart-d68d5ac7-6b6a-4a86-aefb-2a039d591f59 .color-11,#chart-d68d5ac7-6b6a-4a86-aefb-2a039d591f59 .color-11 a:visited{stroke:#fd971f;fill:#fd971f}#chart-d68d5ac7-6b6a-4a86-aefb-2a039d591f59 .color-12,#chart-d68d5ac7-6b6a-4a86-aefb-2a039d591f59 .color-12 a:visited{stroke:#56c2d6;fill:#56c2d6}#chart-d68d5ac7-6b6a-4a86-aefb-2a039d591f59 .color-13,#chart-d68d5ac7-6b6a-4a86-aefb-2a039d591f59 .color-13 a:visited{stroke:#808384;fill:#808384}#chart-d68d5ac7-6b6a-4a86-aefb-2a039d591f59 .color-14,#chart-d68d5ac7-6b6a-4a86-aefb-2a039d591f59 .color-14 a:visited{stroke:#8c54fe;fill:#8c54fe}#chart-d68d5ac7-6b6a-4a86-aefb-2a039d591f59 .color-15,#chart-d68d5ac7-6b6a-4a86-aefb-2a039d591f59 .color-15 a:visited{stroke:#465457;fill:#465457}
#chart-d68d5ac7-6b6a-4a86-aefb-2a039d591f59 text.no_data{text-anchor:middle}#chart-d68d5ac7-6b6a-4a86-aefb-2a039d591f59 .guide.line{fill-opacity:0}#chart-d68d5ac7-6b6a-4a86-aefb-2a039d591f59 .centered{text-anchor:middle}#chart-d68d5ac7-6b6a-4a86-aefb-2a039d591f59 .title{text-anchor:middle}#chart-d68d5ac7-6b6a-4a86-aefb-2a039d591f59 .legends .legend text{fill-opacity:1}#chart-d68d5ac7-6b6a-4a86-aefb-2a039d591f59 .axis.x text{text-anchor:middle}#chart-d68d5ac7-6b6a-4a86-aefb-2a039d591f59 .axis.x:not(.web) text[transform]{text-anchor:start}#chart-d68d5ac7-6b6a-4a86-aefb-2a039d591f59 .axis.y text{text-anchor:end}#chart-d68d5ac7-6b6a-4a86-aefb-2a039d591f59 .axis.y2 text{text-anchor:start}#chart-d68d5ac7-6b6a-4a86-aefb-2a039d591f59 .axis.y .logarithmic text:not(.major),#chart-d68d5ac7-6b6a-4a86-aefb-2a039d591f59 .axis.y2 .logarithmic text:not(.major){font-size:50%}#chart-d68d5ac7-6b6a-4a86-aefb-2a039d591f59 .axis .guide.line{stroke-dasharray:4,4}#chart-d68d5ac7-6b6a-4a86-aefb-2a039d591f59 .axis .major.guide.line{stroke-dasharray:6,6}#chart-d68d5ac7-6b6a-4a86-aefb-2a039d591f59 .axis text.major{stroke-width:0.5px}#chart-d68d5ac7-6b6a-4a86-aefb-2a039d591f59 .horizontal .axis.y .guide.line,#chart-d68d5ac7-6b6a-4a86-aefb-2a039d591f59 .horizontal .axis.y2 .guide.line,#chart-d68d5ac7-6b6a-4a86-aefb-2a039d591f59 .vertical .axis.x .guide.line{opacity:0}#chart-d68d5ac7-6b6a-4a86-aefb-2a039d591f59 .horizontal .axis.always_show .guide.line,#chart-d68d5ac7-6b6a-4a86-aefb-2a039d591f59 .vertical .axis.always_show .guide.line{opacity:1 !important}#chart-d68d5ac7-6b6a-4a86-aefb-2a039d591f59 .axis.y .guides:hover .guide.line,#chart-d68d5ac7-6b6a-4a86-aefb-2a039d591f59 .axis.y2 .guides:hover .guide.line,#chart-d68d5ac7-6b6a-4a86-aefb-2a039d591f59 .axis.x .guides:hover .guide.line{opacity:1}#chart-d68d5ac7-6b6a-4a86-aefb-2a039d591f59 .axis .guides:hover text{opacity:1}#chart-d68d5ac7-6b6a-4a86-aefb-2a039d591f59 .nofill{fill:none}#chart-d68d5ac7-6b6a-4a86-aefb-2a039d591f59 .subtle-fill{fill-opacity:.2}#chart-d68d5ac7-6b6a-4a86-aefb-2a039d591f59 .dot{stroke-width:1px;fill-opacity:1}#chart-d68d5ac7-6b6a-4a86-aefb-2a039d591f59 .dot.active{stroke-width:5px}#chart-d68d5ac7-6b6a-4a86-aefb-2a039d591f59 .series text{stroke:none}#chart-d68d5ac7-6b6a-4a86-aefb-2a039d591f59 .series text.active{opacity:1}#chart-d68d5ac7-6b6a-4a86-aefb-2a039d591f59 .tooltip rect{fill-opacity:0.8}#chart-d68d5ac7-6b6a-4a86-aefb-2a039d591f59 .tooltip text{fill-opacity:1}#chart-d68d5ac7-6b6a-4a86-aefb-2a039d591f59 .tooltip text tspan.label{fill-opacity:.8}</style><script type="text/javascript">window.config = {"x_labels_major_every": null, "interpolate": null, "include_x_axis": false, "mode": null, "margin_bottom": null, "legend_at_bottom": true, "margin_left": null, "xrange": null, "y_label_rotation": 0, "margin": 20, "no_prefix": false, "show_x_labels": true, "missing_value_fill_truncation": "x", "js": ["http://kozea.github.io/pygal.js/javascripts/svg.jquery.js", "http://kozea.github.io/pygal.js/javascripts/pygal-tooltips.js"], "half_pie": false, "show_x_guides": false, "x_label_format": "%Y-%m-%d %H:%M:%S.%f", "order_min": null, "fill": false, "range": [0, 512], "legend_at_bottom_columns": null, "human_readable": false, "spacing": 10, "show_legend": true, "tooltip_font_size": 16, "x_labels": null, "print_values": false, "x_labels_major_count": null, "interpolation_precision": 250, "show_y_labels": true, "pretty_print": false, "show_dots": false, "x_title": null, "title_font_size": 16, "legend_box_size": 12, "dots_size": 2.5, "print_zeroes": false, "y_labels_major": null, "title": "Latest Election Constituents Per Hour", "style": {"opacity": ".8", "stroke_width": 1.0, "foreground_dark": "#555", "opacity_hover": ".4", "plot_background": "#111", "font_family": "monospace", "stroke_style": "round", "colors": ["#ff5995", "#b6e354", "#feed6c", "#8cedff", "#9e6ffe", "#899ca1", "#f8f8f2", "#bf4646", "#516083", "#f92672", "#82b414", "#fd971f", "#56c2d6", "#808384", "#8c54fe", "#465457"], "stroke_dasharray": "0,0", "foreground": "#999", "foreground_light": "#eee", "background": "black", "transition": "250ms"}, "stroke": true, "logarithmic": false, "major_label_font_size": 10, "explicit_size": false, "x_value_formatter": null, "disable_xml_declaration": false, "height": 768, "show_y_guides": true, "value_font_size": 8, "show_only_major_dots": false, "margin_top": null, "width": 1024, "y_title": "Users", "x_labels_major": null, "stack_from_top": false, "legend_font_size": 14, "rounded_bars": null, "strict": false, "margin_right": null, "inner_radius": 0, "label_font_size": 10, "interpolation_parameters": {}, "no_data_text": "No data", "truncate_legend": null, "css": ["style.css", "graph.css"], "show_minor_x_labels": true, "truncate_label": null, "y_labels": null, "y_labels_major_count": null, "no_data_font_size": 64, "zero": 0, "x_label_rotation": 0, "tooltip_border_radius": 0, "show_minor_y_labels": true, "y_labels_major_every": null}</script><script type="text/javascript" xlink:href="http://kozea.github.io/pygal.js/javascripts/svg.jquery.js" /><script type="text/javascript" xlink:href="http://kozea.github.io/pygal.js/javascripts/pygal-tooltips.js" /></defs><title>Latest Election Constituents Per Hour</title><g class="graph line-graph vertical"><rect class="background" height="768" width="1024" x="0" y="0" /><g class="plot" transform="translate(74, 46)"><rect class="background" height="678.0" width="930.0" x="0" y="0" /><g class="axis y"><g class="guides"><path class="axis major line" d="M0.000000 664.961538 h930.000000" /><text class="major" x="-5" y="668.4615384615385">0</text></g><g class="guides"><path class="guide line" d="M0.000000 537.632812 h930.000000" /><text class="" x="-5" y="541.1328125">100</text></g><g class="guides"><path class="guide line" d="M0.000000 410.304087 h930.000000" /><text class="" x="-5" y="413.80408653846155">200</text></g><g class="guides"><path class="guide line" d="M0.000000 282.975361 h930.000000" /><text class="" x="-5" y="286.4753605769231">300</text></g><g class="guides"><path class="guide line" d="M0.000000 155.646635 h930.000000" /><text class="" x="-5" y="159.14663461538453">400</text></g><g class="guides"><path class="major guide line" d="M0.000000 28.317909 h930.000000" /><text class="major" x="-5" y="31.817908653846075">500</text></g></g><g class="series serie-0 color-0"><path class="line reactive nofill" d="M17.884615 664.961538 L20.636095 664.961538 23.387574 664.961538 26.139053 664.961538 28.890533 664.961538 31.642012 664.961538 34.393491 664.961538 37.144970 664.961538 39.896450 664.961538 42.647929 664.961538 45.399408 664.961538 48.150888 664.961538 50.902367 664.961538 53.653846 664.961538 56.405325 664.961538 59.156805 664.961538 61.908284 664.961538 64.659763 664.961538 67.411243 664.961538 70.162722 664.961538 72.914201 664.961538 75.665680 664.961538 78.417160 664.961538 81.168639 664.961538 83.920118 664.961538 86.671598 664.961538 89.423077 664.961538 92.174556 664.961538 94.926036 664.961538 97.677515 664.961538 100.428994 664.961538 103.180473 664.961538 105.931953 664.961538 108.683432 664.961538 111.434911 664.961538 114.186391 664.961538 116.937870 664.961538 119.689349 664.961538 122.440828 664.961538 125.192308 664.961538 127.943787 664.961538 130.695266 664.961538 133.446746 664.961538 136.198225 664.961538 138.949704 664.961538 141.701183 664.961538 144.452663 664.961538 147.204142 664.961538 149.955621 664.961538 152.707101 664.961538 155.458580 664.961538 158.210059 664.961538 160.961538 664.961538 163.713018 664.961538 166.464497 664.961538 169.215976 664.961538 171.967456 664.961538 174.718935 664.961538 177.470414 664.961538 180.221893 664.961538 182.973373 664.961538 185.724852 664.961538 188.476331 664.961538 191.227811 664.961538 193.979290 664.961538 196.730769 664.961538 199.482249 664.961538 202.233728 664.961538 204.985207 664.961538 207.736686 664.961538 210.488166 664.961538 213.239645 664.961538 215.991124 664.961538 218.742604 664.961538 221.494083 664.961538 224.245562 664.961538 226.997041 664.961538 229.748521 664.961538 232.500000 664.961538 235.251479 664.961538 238.002959 664.961538 240.754438 664.961538 243.505917 664.961538 246.257396 664.961538 249.008876 664.961538 251.760355 664.961538 254.511834 664.961538 257.263314 664.961538 260.014793 664.961538 262.766272 664.961538 265.517751 664.961538 268.269231 664.961538 271.020710 664.961538 273.772189 664.961538 276.523669 664.961538 279.275148 664.961538 282.026627 664.961538 284.778107 664.961538 287.529586 664.961538 290.281065 664.961538 293.032544 664.961538 295.784024 664.961538 298.535503 664.961538 301.286982 664.961538 304.038462 664.961538 306.789941 664.961538 309.541420 664.961538 312.292899 664.961538 315.044379 664.961538 317.795858 664.961538 320.547337 664.961538 323.298817 664.961538 326.050296 664.961538 328.801775 664.961538 331.553254 664.961538 334.304734 664.961538 337.056213 664.961538 339.807692 664.961538 342.559172 664.961538 345.310651 664.961538 348.062130 664.961538 350.813609 664.961538 353.565089 664.961538 356.316568 664.961538 359.068047 664.961538 361.819527 664.961538 364.571006 664.961538 367.322485 664.961538 370.073964 664.961538 372.825444 664.961538 375.576923 664.961538 378.328402 664.961538 381.079882 664.961538 383.831361 664.961538 386.582840 664.961538 389.334320 664.961538 392.085799 664.961538 394.837278 664.961538 397.588757 664.961538 400.340237 664.961538 403.091716 664.961538 405.843195 664.961538 408.594675 664.961538 411.346154 664.961538 414.097633 664.961538 416.849112 664.961538 419.600592 664.961538 422.352071 664.961538 425.103550 664.961538 427.855030 664.961538 430.606509 664.961538 433.357988 664.961538 436.109467 664.961538 438.860947 664.961538 441.612426 664.961538 444.363905 664.961538 447.115385 664.961538 449.866864 664.961538 452.618343 664.961538 455.369822 664.961538 458.121302 664.961538 460.872781 664.961538 463.624260 664.961538 466.375740 664.961538 469.127219 664.961538 471.878698 664.961538 474.630178 664.961538 477.381657 664.961538 480.133136 664.961538 482.884615 664.961538 485.636095 664.961538 488.387574 664.961538 491.139053 664.961538 493.890533 664.961538 496.642012 664.961538 499.393491 664.961538 502.144970 664.961538 504.896450 664.961538 507.647929 664.961538 510.399408 664.961538 513.150888 664.961538 515.902367 664.961538 518.653846 664.961538 521.405325 664.961538 524.156805 664.961538 526.908284 664.961538 529.659763 664.961538 532.411243 664.961538 535.162722 664.961538 537.914201 664.961538 540.665680 664.961538 543.417160 664.961538 546.168639 664.961538 548.920118 664.961538 551.671598 664.961538 554.423077 664.961538 557.174556 664.961538 559.926036 664.961538 562.677515 664.961538 565.428994 664.961538 568.180473 664.961538 570.931953 664.961538 573.683432 664.961538 576.434911 664.961538 579.186391 664.961538 581.937870 664.961538 584.689349 664.961538 587.440828 664.961538 590.192308 664.961538 592.943787 664.961538 595.695266 664.961538 598.446746 664.961538 601.198225 664.961538 603.949704 664.961538 606.701183 664.961538 609.452663 664.961538 612.204142 664.961538 614.955621 664.961538 617.707101 664.961538 620.458580 664.961538 623.210059 664.961538 625.961538 664.961538 628.713018 664.961538 631.464497 664.961538 634.215976 664.961538 636.967456 664.961538 639.718935 664.961538 642.470414 664.961538 645.221893 664.961538 647.973373 664.961538 650.724852 664.961538 653.476331 664.961538 656.227811 664.961538 658.979290 664.961538 661.730769 664.961538 664.482249 664.961538 667.233728 664.961538 669.985207 664.961538 672.736686 664.961538 675.488166 664.961538 678.239645 664.961538 680.991124 664.961538 683.742604 664.961538 686.494083 664.961538 689.245562 664.961538 691.997041 664.961538 694.748521 664.961538 697.500000 664.961538 700.251479 664.961538 703.002959 664.961538 705.754438 664.961538 708.505917 664.961538 711.257396 664.961538 714.008876 664.961538 716.760355 664.961538 719.511834 664.961538 722.263314 664.961538 725.014793 664.961538 727.766272 664.961538 730.517751 664.961538 733.269231 664.961538 736.020710 664.961538 738.772189 664.961538 741.523669 664.961538 744.275148 -3414.650841 747.026627 -1213.137169 749.778107 -376.587440 752.529586 48.690505 755.281065 184.932242 758.032544 240.956881 760.784024 282.975361 763.535503 223.130859 766.286982 77.976112 769.038462 89.435697 771.789941 95.802133 774.541420 11.765174 777.292899 90.708984 780.044379 14.311749 782.795858 75.429537 785.547337 188.752103 788.298817 209.124700 791.050296 218.037710 793.801775 239.683594 796.553254 274.062350 799.304734 330.086989 802.056213 282.975361 804.807692 370.832181 807.559172 318.627404 810.310651 428.130108 813.062130 470.148588 815.813609 513.440355 818.565089 536.359525 821.316568 572.011569 824.068047 563.098558 826.819527 570.738281 829.571006 579.651292 832.322485 573.284856 835.073964 531.266376 837.825444 479.061599 840.576923 494.341046 843.328402 440.862981 846.079882 484.154748 848.831361 449.775992 851.582840 451.049279 854.334320 476.515024 857.085799 471.421875 859.837278 507.073918 862.588757 465.055439 865.340237 470.148588 868.091716 476.515024 870.843195 480.334886 873.594675 491.794471 876.346154 514.713642 879.097633 507.073918 881.849112 549.092398 884.600592 521.080078 887.352071 526.173227 890.103550 507.073918 892.855030 494.341046 895.606509 479.061599 898.357988 298.254808 901.109467 148.006911 903.860947 -59.538912 906.612426 -278.544321 909.363905 -198.327224 912.115385 434.496544" /></g></g><g class="titles"><text class="title plot_title" x="512.0" y="26">Latest Election Constituents Per Hour</text><text class="title" transform="rotate(-90 0.000000 385.000000)" x="0" y="411.0">Users</text></g><g class="plot overlay" transform="translate(74, 46)"><g class="series serie-0 color-0" /></g><g class="plot text-overlay" transform="translate(74, 46)"><g class="series serie-0 color-0" /></g><g class="plot tooltip-overlay" transform="translate(74, 46)"><g class="tooltip" style="opacity: 0" transform="translate(0 0)"><a><rect class="tooltip-box" height="0" rx="0" ry="0" width="0" /><text class="text"><tspan class="label" /><tspan class="value" /></text></a></g></g><g class="legends" transform="translate(84, 734)"><g class="legend reactive activate-serie" id="activate-serie-0"><rect class="color-0 reactive" height="12" width="12" x="0.0" y="1.0" /><text x="17.0" y="11.2">constituents</text></g></g></g></svg>