<?xml version='1.0' encoding='utf-8'?>
<svg xmlns:xlink="http://www.w3.org/1999/xlink" xmlns="http://www.w3.org/2000/svg" id="chart-839d25c1-38c1-41d5-85aa-e39b86ad4348" class="pygal-chart" viewBox="0 0 1024 768"><!--Generated with pygal 1.7.0 (lxml) ©Kozea 2011-2014 on 2015-04-20--><!--http://pygal.org--><!--http://github.com/Kozea/pygal--><defs><style type="text/css">#chart-839d25c1-38c1-41d5-85aa-e39b86ad4348 .title{font-family:"monospace";font-size:16px}#chart-839d25c1-38c1-41d5-85aa-e39b86ad4348 .legends .legend text{font-family:"monospace";font-size:14px}#chart-839d25c1-38c1-41d5-85aa-e39b86ad4348 .axis text{font-family:"monospace";font-size:10px}#chart-839d25c1-38c1-41d5-85aa-e39b86ad4348 .axis text.major{font-family:"monospace";font-size:10px}#chart-839d25c1-38c1-41d5-85aa-e39b86ad4348 .series text{font-family:"monospace";font-size:8px}#chart-839d25c1-38c1-41d5-85aa-e39b86ad4348 .tooltip text{font-family:"monospace";font-size:16px}#chart-839d25c1-38c1-41d5-85aa-e39b86ad4348 text.no_data{font-size:64px}
#chart-839d25c1-38c1-41d5-85aa-e39b86ad4348{background-color:black}#chart-839d25c1-38c1-41d5-85aa-e39b86ad4348 path,#chart-839d25c1-38c1-41d5-85aa-e39b86ad4348 line,#chart-839d25c1-38c1-41d5-85aa-e39b86ad4348 rect,#chart-839d25c1-38c1-41d5-85aa-e39b86ad4348 circle{-webkit-transition:250ms;-moz-transition:250ms;transition:250ms}#chart-839d25c1-38c1-41d5-85aa-e39b86ad4348 .graph &gt; .background{fill:black}#chart-839d25c1-38c1-41d5-85aa-e39b86ad4348 .plot &gt; .background{fill:#111}#chart-839d25c1-38c1-41d5-85aa-e39b86ad4348 .graph{fill:#999}#chart-839d25c1-38c1-41d5-85aa-e39b86ad4348 text.no_data{fill:#eee}#chart-839d25c1-38c1-41d5-85aa-e39b86ad4348 .title{fill:#eee}#chart-839d25c1-38c1-41d5-85aa-e39b86ad4348 .legends .legend text{fill:#999}#chart-839d25c1-38c1-41d5-85aa-e39b86ad4348 .legends .legend:hover text{fill:#eee}#chart-839d25c1-38c1-41d5-85aa-e39b86ad4348 .axis .line{stroke:#eee}#chart-839d25c1-38c1-41d5-85aa-e39b86ad4348 .axis .guide.line{stroke:#555}#chart-839d25c1-38c1-41d5-85aa-e39b86ad4348 .axis .major.line{stroke:#999}#chart-839d25c1-38c1-41d5-85aa-e39b86ad4348 .axis text.major{stroke:#eee;fill:#eee}#chart-839d25c1-38c1-41d5-85aa-e39b86ad4348 .axis.y .guides:hover .guide.line,#chart-839d25c1-38c1-41d5-85aa-e39b86ad4348 .line-graph .axis.x .guides:hover .guide.line,#chart-839d25c1-38c1-41d5-85aa-e39b86ad4348 .stackedline-graph .axis.x .guides:hover .guide.line,#chart-839d25c1-38c1-41d5-85aa-e39b86ad4348 .xy-graph .axis.x .guides:hover .guide.line{stroke:#eee}#chart-839d25c1-38c1-41d5-85aa-e39b86ad4348 .axis .guides:hover text{fill:#eee}#chart-839d25c1-38c1-41d5-85aa-e39b86ad4348 .reactive{fill-opacity:.8}#chart-839d25c1-38c1-41d5-85aa-e39b86ad4348 .reactive.active,#chart-839d25c1-38c1-41d5-85aa-e39b86ad4348 .active .reactive{fill-opacity:.4}#chart-839d25c1-38c1-41d5-85aa-e39b86ad4348 .series{stroke-width:1.0;stroke-linejoin:round;stroke-linecap:round;stroke-dasharray:0,0}#chart-839d25c1-38c1-41d5-85aa-e39b86ad4348 .series text{fill:#eee}#chart-839d25c1-38c1-41d5-85aa-e39b86ad4348 .tooltip rect{fill:#111;stroke:#eee}#chart-839d25c1-38c1-41d5-85aa-e39b86ad4348 .tooltip text{fill:#eee}#chart-839d25c1-38c1-41d5-85aa-e39b86ad4348 .map-element{fill:#999;stroke:#555 !important;opacity:.9;stroke-width:3;-webkit-transition:250ms;-moz-transition:250ms;-o-transition:250ms;transition:250ms}#chart-839d25c1-38c1-41d5-85aa-e39b86ad4348 .map-element:hover{opacity:1;stroke-width:10}#chart-839d25c1-38c1-41d5-85aa-e39b86ad4348 .color-0,#chart-839d25c1-38c1-41d5-85aa-e39b86ad4348 .color-0 a:visited{stroke:#ff5995;fill:#ff5995}#chart-839d25c1-38c1-41d5-85aa-e39b86ad4348 .color-1,#chart-839d25c1-38c1-41d5-85aa-e39b86ad4348 .color-1 a:visited{stroke:#b6e354;fill:#b6e354}#chart-839d25c1-38c1-41d5-85aa-e39b86ad4348 .color-2,#chart-839d25c1-38c1-41d5-85aa-e39b86ad4348 .color-2 a:visited{stroke:#feed6c;fill:#feed6c}#chart-839d25c1-38c1-41d5-85aa-e39b86ad4348 .color-3,#chart-839d25c1-38c1-41d5-85aa-e39b86ad4348 .color-3 a:visited{stroke:#8cedff;fill:#8cedff}#chart-839d25c1-38c1-41d5-85aa-e39b86ad4348 .color-4,#chart-839d25c1-38c1-41d5-85aa-e39b86ad4348 .color-4 a:visited{stroke:#9e6ffe;fill:#9e6ffe}#chart-839d25c1-38c1-41d5-85aa-e39b86ad4348 .color-5,#chart-839d25c1-38c1-41d5-85aa-e39b86ad4348 .color-5 a:visited{stroke:#899ca1;fill:#899ca1}#chart-839d25c1-38c1-41d5-85aa-e39b86ad4348 .color-6,#chart-839d25c1-38c1-41d5-85aa-e39b86ad4348 .color-6 a:visited{stroke:#f8f8f2;fill:#f8f8f2}#chart-839d25c1-38c1-41d5-85aa-e39b86ad4348 .color-7,#chart-839d25c1-38c1-41d5-85aa-e39b86ad4348 .color-7 a:visited{stroke:#bf4646;fill:#bf4646}#chart-839d25c1-38c1-41d5-85aa-e39b86ad4348 .color-8,#chart-839d25c1-38c1-41d5-85aa-e39b86ad4348 .color-8 a:visited{stroke:#516083;fill:#516083}#chart-839d25c1-38c1-41d5-85aa-e39b86ad4348 .color-9,#chart-839d25c1-38c1-41d5-85aa-e39b86ad4348 .color-9 a:visited{stroke:#f92672;fill:#f92672}#chart-839d25c1-38c1-41d5-85aa-e39b86ad4348 .color-10,#chart-839d25c1-38c1-41d5-85aa-e39b86ad4348 .color-10 a:visited{stroke:#82b414;fill:#82b414}#chart-839d25c1-38c1-41d5-85aa-e39b86ad4348 .color-11,#chart-839d25c1-38c1-41d5-85aa-e39b86ad4348 .color-11 a:visited{stroke:#fd971f;fill:#fd971f}#chart-839d25c1-38c1-41d5-85aa-e39b86ad4348 .color-12,#chart-839d25c1-38c1-41d5-85aa-e39b86ad4348 .color-12 a:visited{stroke:#56c2d6;fill:#56c2d6}#chart-839d25c1-38c1-41d5-85aa-e39b86ad4348 .color-13,#chart-839d25c1-38c1-41d5-85aa-e39b86ad4348 .color-13 a:visited{stroke:#808384;fill:#808384}#chart-839d25c1-38c1-41d5-85aa-e39b86ad4348 .color-14,#chart-839d25c1-38c1-41d5-85aa-e39b86ad4348 .color-14 a:visited{stroke:#8c54fe;fill:#8c54fe}#chart-839d25c1-38c1-41d5-85aa-e39b86ad4348 .color-15,#chart-839d25c1-38c1-41d5-85aa-e39b86ad4348 .color-15 a:visited{stroke:#465457;fill:#465457}
#chart-839d25c1-38c1-41d5-85aa-e39b86ad4348 text.no_data{text-anchor:middle}#chart-839d25c1-38c1-41d5-85aa-e39b86ad4348 .guide.line{fill-opacity:0}#chart-839d25c1-38c1-41d5-85aa-e39b86ad4348 .centered{text-anchor:middle}#chart-839d25c1-38c1-41d5-85aa-e39b86ad4348 .title{text-anchor:middle}#chart-839d25c1-38c1-41d5-85aa-e39b86ad4348 .legends .legend text{fill-opacity:1}#chart-839d25c1-38c1-41d5-85aa-e39b86ad4348 .axis.x text{text-anchor:middle}#chart-839d25c1-38c1-41d5-85aa-e39b86ad4348 .axis.x:not(.web) text[transform]{text-anchor:start}#chart-839d25c1-38c1-41d5-85aa-e39b86ad4348 .axis.y text{text-anchor:end}#chart-839d25c1-38c1-41d5-85aa-e39b86ad4348 .axis.y2 text{text-anchor:start}#chart-839d25c1-38c1-41d5-85aa-e39b86ad4348 .axis.y .logarithmic text:not(.major),#chart-839d25c1-38c1-41d5-85aa-e39b86ad4348 .axis.y2 .logarithmic text:not(.major){font-size:50%}#chart-839d25c1-38c1-41d5-85aa-e39b86ad4348 .axis .guide.line{stroke-dasharray:4,4}#chart-839d25c1-38c1-41d5-85aa-e39b86ad4348 .axis .major.guide.line{stroke-dasharray:6,6}#chart-839d25c1-38c1-41d5-85aa-e39b86ad4348 .axis text.major{stroke-width:0.5px}#chart-839d25c1-38c1-41d5-85aa-e39b86ad4348 .horizontal .axis.y .guide.line,#chart-839d25c1-38c1-41d5-85aa-e39b86ad4348 .horizontal .axis.y2 .guide.line,#chart-839d25c1-38c1-41d5-85aa-e39b86ad4348 .vertical .axis.x .guide.line{opacity:0}#chart-839d25c1-38c1-41d5-85aa-e39b86ad4348 .horizontal .axis.always_show .guide.line,#chart-839d25c1-38c1-41d5-85aa-e39b86ad4348 .vertical .axis.always_show .guide.line{opacity:1 !important}#chart-839d25c1-38c1-41d5-85aa-e39b86ad4348 .axis.y .guides:hover .guide.line,#chart-839d25c1-38c1-41d5-85aa-e39b86ad4348 .axis.y2 .guides:hover .guide.line,#chart-839d25c1-38c1-41d5-85aa-e39b86ad4348 .axis.x .guides:hover .guide.line{opacity:1}#chart-839d25c1-38c1-41d5-85aa-e39b86ad4348 .axis .guides:hover text{opacity:1}#chart-839d25c1-38c1-41d5-85aa-e39b86ad4348 .nofill{fill:none}#chart-839d25c1-38c1-41d5-85aa-e39b86ad4348 .subtle-fill{fill-opacity:.2}#chart-839d25c1-38c1-41d5-85aa-e39b86ad4348 .dot{stroke-width:1px;fill-opacity:1}#chart-839d25c1-38c1-41d5-85aa-e39b86ad4348 .dot.active{stroke-width:5px}#chart-839d25c1-38c1-41d5-85aa-e39b86ad4348 .series text{stroke:none}#chart-839d25c1-38c1-41d5-85aa-e39b86ad4348 .series text.active{opacity:1}#chart-839d25c1-38c1-41d5-85aa-e39b86ad4348 .tooltip rect{fill-opacity:0.8}#chart-839d25c1-38c1-41d5-85aa-e39b86ad4348 .tooltip text{fill-opacity:1}#chart-839d25c1-38c1-41d5-85aa-e39b86ad4348 .tooltip text tspan.label{fill-opacity:.8}</style><script type="text/javascript">window.config = {"print_zeroes": false, "disable_xml_declaration": false, "title_font_size": 16, "logarithmic": false, "truncate_label": null, "human_readable": false, "pretty_print": false, "title": "Latest Election Participation", "legend_font_size": 14, "major_label_font_size": 10, "show_minor_y_labels": true, "no_data_font_size": 64, "no_data_text": "No data", "x_label_rotation": 0, "tooltip_font_size": 16, "stack_from_top": false, "rounded_bars": null, "zero": 0, "mode": null, "show_minor_x_labels": true, "x_labels_major": null, "legend_at_bottom": true, "legend_at_bottom_columns": null, "show_dots": false, "y_title": "Users", "value_font_size": 8, "x_title": null, "margin_right": null, "legend_box_size": 12, "y_labels_major_count": null, "show_x_labels": true, "spacing": 10, "half_pie": false, "dots_size": 2.5, "include_x_axis": false, "height": 768, "interpolation_precision": 250, "js": ["http://kozea.github.io/pygal.js/javascripts/svg.jquery.js", "http://kozea.github.io/pygal.js/javascripts/pygal-tooltips.js"], "margin_bottom": null, "y_labels_major": null, "fill": false, "xrange": null, "x_value_formatter": null, "x_labels_major_every": null, "show_y_labels": true, "style": {"foreground_light": "#eee", "colors": ["#ff5995", "#b6e354", "#feed6c", "#8cedff", "#9e6ffe", "#899ca1", "#f8f8f2", "#bf4646", "#516083", "#f92672", "#82b414", "#fd971f", "#56c2d6", "#808384", "#8c54fe", "#465457"], "stroke_style": "round", "plot_background": "#111", "transition": "250ms", "stroke_width": 1.0, "font_family": "monospace", "background": "black", "opacity": ".8", "opacity_hover": ".4", "foreground_dark": "#555", "foreground": "#999", "stroke_dasharray": "0,0"}, "y_labels": null, "x_label_format": "%Y-%m-%d %H:%M:%S.%f", "strict": false, "x_labels_major_count": null, "stroke": true, "range": null, "show_y_guides": true, "missing_value_fill_truncation": "x", "y_label_rotation": 0, "interpolation_parameters": {}, "tooltip_border_radius": 0, "label_font_size": 10, "interpolate": null, "show_only_major_dots": false, "print_values": false, "explicit_size": false, "show_x_guides": false, "margin": 20, "css": ["style.css", "graph.css"], "x_labels": null, "show_legend": true, "no_prefix": false, "inner_radius": 0, "y_labels_major_every": null, "truncate_legend": null, "width": 1024, "margin_left": null, "order_min": null, "margin_top": null}</script><script type="text/javascript" xlink:href="http://kozea.github.io/pygal.js/javascripts/svg.jquery.js"/><script type="text/javascript" xlink:href="http://kozea.github.io/pygal.js/javascripts/pygal-tooltips.js"/></defs><title>Latest Election Participation</title><g class="graph line-graph vertical"><rect class="background" height="768" width="1024" x="0" y="0"/><g class="plot" transform="translate(86, 46)"><rect class="background" height="657.0" width="918.0" x="0" y="0"/><g class="axis y"><g class="guides"><path class="axis major line" d="M0.000000 644.365385 h918.000000"/><text class="major" x="-5" y="647.8653846153846">0</text></g><g class="guides"><path class="guide line" d="M0.000000 562.295782 h918.000000"/><text class="" x="-5" y="565.7957815974218">10000</text></g><g class="guides"><path class="guide line" d="M0.000000 480.226179 h918.000000"/><text class="" x="-5" y="483.72617857945886">20000</text></g><g class="guides"><path class="guide line" d="M0.000000 398.156576 h918.000000"/><text class="" x="-5" y="401.65657556149597">30000</text></g><g class="guides"><path class="guide line" d="M0.000000 316.086973 h918.000000"/><text class="" x="-5" y="319.58697254353314">40000</text></g><g class="guides"><path class="major guide line" d="M0.000000 234.017370 h918.000000"/><text class="major" x="-5" y="237.51736952557025">50000</text></g><g class="guides"><path class="guide line" d="M0.000000 151.947767 h918.000000"/><text class="" x="-5" y="155.44776650760735">60000</text></g><g class="guides"><path class="guide line" d="M0.000000 69.878163 h918.000000"/><text class="" x="-5" y="73.37816348964452">70000</text></g></g><g class="series serie-0 color-0"><path class="line reactive nofill" d="M17.653846 644.365385 L20.242387 644.365385 22.830927 644.365385 25.419468 644.365385 28.008008 644.365385 30.596549 644.365385 33.185089 644.365385 35.773630 644.365385 38.362170 644.365385 40.950711 644.365385 43.539251 644.365385 46.127792 644.365385 48.716332 644.365385 51.304873 644.365385 53.893413 644.365385 56.481954 644.365385 59.070494 644.365385 61.659035 644.365385 64.247575 644.365385 66.836115 644.365385 69.424656 644.365385 72.013196 644.365385 74.601737 644.365385 77.190277 644.365385 79.778818 644.365385 82.367358 644.365385 84.955899 644.365385 87.544439 644.365385 90.132980 644.365385 92.721520 644.365385 95.310061 644.365385 97.898601 644.365385 100.487142 644.365385 103.075682 644.365385 105.664223 644.365385 108.252763 644.365385 110.841304 644.365385 113.429844 644.365385 116.018385 644.365385 118.606925 644.365385 121.195466 644.365385 123.784006 644.365385 126.372547 644.365385 128.961087 644.365385 131.549628 644.365385 134.138168 644.365385 136.726709 644.365385 139.315249 644.365385 141.903790 644.365385 144.492330 644.365385 147.080871 644.365385 149.669411 644.365385 152.257952 644.365385 154.846492 644.365385 157.435033 644.365385 160.023573 644.365385 162.612114 644.365385 165.200654 644.365385 167.789195 644.365385 170.377735 644.365385 172.966276 644.365385 175.554816 644.365385 178.143357 644.365385 180.731897 644.365385 183.320438 644.365385 185.908978 644.365385 188.497519 644.365385 191.086059 644.365385 193.674600 644.365385 196.263140 644.365385 198.851681 644.365385 201.440221 644.365385 204.028762 644.365385 206.617302 644.365385 209.205843 644.365385 211.794383 644.365385 214.382924 644.365385 216.971464 644.365385 219.560005 644.365385 222.148545 644.365385 224.737085 644.365385 227.325626 644.365385 229.914166 644.365385 232.502707 644.365385 235.091247 644.365385 237.679788 644.365385 240.268328 644.365385 242.856869 644.365385 245.445409 644.365385 248.033950 644.365385 250.622490 644.365385 253.211031 644.365385 255.799571 644.365385 258.388112 644.365385 260.976652 644.365385 263.565193 644.365385 266.153733 644.365385 268.742274 644.365385 271.330814 644.365385 273.919355 644.365385 276.507895 644.365385 279.096436 644.365385 281.684976 644.365385 284.273517 644.365385 286.862057 644.365385 289.450598 644.365385 292.039138 644.365385 294.627679 644.365385 297.216219 644.365385 299.804760 644.365385 302.393300 644.365385 304.981841 644.365385 307.570381 644.365385 310.158922 644.365385 312.747462 644.365385 315.336003 644.365385 317.924543 644.365385 320.513084 644.365385 323.101624 644.365385 325.690165 644.365385 328.278705 644.365385 330.867246 644.365385 333.455786 644.365385 336.044327 644.365385 338.632867 644.365385 341.221408 644.365385 343.809948 644.365385 346.398489 644.365385 348.987029 644.365385 351.575570 644.365385 354.164110 644.365385 356.752651 644.365385 359.341191 644.365385 361.929732 644.365385 364.518272 644.365385 367.106813 644.365385 369.695353 644.365385 372.283894 644.365385 374.872434 644.365385 377.460975 644.365385 380.049515 644.365385 382.638055 644.365385 385.226596 644.365385 387.815136 644.365385 390.403677 644.365385 392.992217 644.365385 395.580758 644.365385 398.169298 644.365385 400.757839 644.365385 403.346379 644.365385 405.934920 644.365385 408.523460 644.365385 411.112001 644.365385 413.700541 644.365385 416.289082 644.365385 418.877622 644.365385 421.466163 644.365385 424.054703 644.365385 426.643244 644.365385 429.231784 644.365385 431.820325 644.365385 434.408865 644.365385 436.997406 644.365385 439.585946 644.365385 442.174487 644.365385 444.763027 644.365385 447.351568 644.365385 449.940108 644.365385 452.528649 644.365385 455.117189 644.365385 457.705730 644.365385 460.294270 644.365385 462.882811 644.365385 465.471351 644.365385 468.059892 644.365385 470.648432 644.365385 473.236973 644.365385 475.825513 644.365385 478.414054 644.365385 481.002594 644.365385 483.591135 644.365385 486.179675 644.365385 488.768216 644.365385 491.356756 644.365385 493.945297 644.365385 496.533837 644.365385 499.122378 644.365385 501.710918 644.365385 504.299459 644.365385 506.887999 644.365385 509.476540 644.365385 512.065080 644.365385 514.653621 644.365385 517.242161 644.365385 519.830702 644.365385 522.419242 644.365385 525.007783 644.365385 527.596323 644.365385 530.184864 644.365385 532.773404 644.365385 535.361945 644.365385 537.950485 644.365385 540.539025 644.365385 543.127566 644.365385 545.716106 644.365385 548.304647 644.365385 550.893187 644.365385 553.481728 644.365385 556.070268 644.365385 558.658809 644.365385 561.247349 644.365385 563.835890 644.365385 566.424430 644.365385 569.012971 644.365385 571.601511 644.365385 574.190052 644.365385 576.778592 644.365385 579.367133 644.365385 581.955673 644.365385 584.544214 644.365385 587.132754 644.365385 589.721295 644.365385 592.309835 644.365385 594.898376 644.365385 597.486916 644.365385 600.075457 644.365385 602.663997 644.365385 605.252538 644.365385 607.841078 644.365385 610.429619 644.365385 613.018159 644.365385 615.606700 644.365385 618.195240 644.365385 620.783781 644.365385 623.372321 644.365385 625.960862 644.365385 628.549402 644.365385 631.137943 644.365385 633.726483 644.365385 636.315024 644.365385 638.903564 644.365385 641.492105 644.365385 644.080645 644.365385 646.669186 644.365385 649.257726 644.365385 651.846267 644.365385 654.434807 644.365385 657.023348 644.365385 659.611888 644.365385 662.200429 644.365385 664.788969 644.365385 667.377510 644.365385 669.966050 644.365385 672.554591 644.365385 675.143131 644.365385 677.731672 644.365385 680.320212 644.365385 682.908753 644.365385 685.497293 644.365385 688.085834 644.365385 690.674374 644.365385 693.262915 644.365385 695.851455 644.365385 698.439995 644.365385 701.028536 618.070284 703.617076 605.965017 706.205617 599.251724 708.794157 595.279555 711.382698 592.185531 713.971238 589.452613 716.559779 586.990525 719.148319 584.142710 721.736860 580.359301 724.325400 576.649755 726.913941 572.981244 729.502481 568.771073 732.091022 565.069734 734.679562 560.875977 737.268103 557.076155 739.856643 554.006752 742.445184 551.068660 745.033724 548.188017 747.622265 545.446892 750.210805 542.927355 752.799346 540.768925 755.387886 538.306837 757.976427 536.411029 760.564967 534.178736 763.153508 532.652241 765.742048 531.396576 768.330589 530.419948 770.919129 529.591045 773.507670 528.991937 776.096210 528.335380 778.684751 527.728065 781.273291 527.178198 783.861832 526.587297 786.450372 525.725566 789.038913 524.527350 791.627453 523.427618 794.215994 521.983193 796.804534 520.817804 799.393075 519.430828 801.981615 518.052059 804.570156 516.837428 807.158696 515.589971 809.747237 514.572307 812.335777 513.283815 814.924318 512.028150 817.512858 510.813520 820.101399 509.623510 822.689939 508.507364 825.278480 507.538942 827.867020 506.521279 830.455561 505.774446 833.044101 504.847059 835.632642 503.952501 838.221182 502.934838 840.809723 501.835105 843.398263 500.636889 845.986804 498.273284 848.575344 494.941258 851.163885 490.271498 853.752425 484.190140 856.340965 478.625821 858.929506 473.397988 861.518046 470.000306 864.106587 467.004766 866.695127 463.369082 869.283668 459.618501 871.872208 456.089508 874.460749 453.381211 877.049289 451.485404 879.637830 450.131255 882.226370 448.637588 884.814911 447.225991 887.403451 446.150879 889.991992 445.034733 892.580532 444.460246 895.169073 444.041691 897.757613 443.475410 900.346154 443.270236"/></g><g class="series serie-1 color-1"><path class="line reactive nofill" d="M17.653846 627.894015 L20.242387 621.730588 22.830927 618.291872 25.419468 616.002130 28.008008 613.843699 30.596549 612.407481 33.185089 610.963056 35.773630 609.280629 38.362170 606.769299 40.950711 603.535757 43.539251 600.154489 46.127792 595.525764 48.716332 591.290972 51.304873 588.410329 53.893413 585.759481 56.481954 583.560016 59.070494 581.278481 61.659035 579.046188 64.247575 576.797480 66.836115 574.836017 69.424656 573.293108 72.013196 571.922546 74.601737 570.707916 77.190277 569.558941 79.778818 568.656176 82.367358 567.548236 84.955899 567.022991 87.544439 566.645471 90.132980 566.185881 92.721520 565.750912 95.310061 565.463668 97.898601 565.192839 100.487142 564.642972 103.075682 564.002829 105.664223 563.305238 108.252763 562.361437 110.841304 561.417637 113.429844 560.490250 116.018385 559.612106 118.606925 558.881686 121.195466 558.044576 123.784006 557.182845 126.372547 556.436012 128.961087 555.787662 131.549628 555.246003 134.138168 554.597653 136.726709 554.014959 139.315249 553.530748 141.903790 553.038330 144.492330 552.644396 147.080871 552.258669 149.669411 552.110944 152.257952 551.938598 154.846492 551.758045 157.435033 551.528250 160.023573 551.347697 162.612114 551.003004 165.200654 550.568035 167.789195 550.198722 170.377735 549.624235 172.966276 549.041541 175.554816 548.549123 178.143357 548.048499 180.731897 547.474011 183.320438 546.989801 185.908978 546.390693 188.497519 545.775171 191.086059 545.192476 193.674600 544.741094 196.263140 544.429229 198.851681 544.068123 201.440221 543.690603 204.028762 543.222806 206.617302 542.927355 209.205843 542.738595 211.794383 542.558042 214.382924 542.434938 216.971464 542.295419 219.560005 542.139487 222.148545 542.024590 224.737085 541.778381 227.325626 541.491137 229.914166 541.121824 232.502707 540.793546 235.091247 540.448853 237.679788 540.005677 240.268328 539.570709 242.856869 539.226016 245.445409 538.807461 248.033950 538.421734 250.622490 538.011386 253.211031 537.691315 255.799571 537.477934 258.388112 537.223518 260.976652 536.993723 263.565193 536.780342 266.153733 536.493098 268.742274 536.320752 271.330814 536.173027 273.919355 536.058130 276.507895 535.918611 279.096436 535.811921 281.684976 535.746265 284.273517 535.680609 286.862057 535.549298 289.450598 535.475435 292.039138 535.335917 294.627679 535.196399 297.216219 535.114329 299.804760 535.015846 302.393300 534.941983 304.981841 534.769637 307.570381 534.613704 310.158922 534.515221 312.747462 534.318254 315.336003 534.154115 317.924543 534.006389 320.513084 533.834043 323.101624 533.620662 325.690165 533.489351 328.278705 533.390867 330.867246 533.317005 333.455786 533.161073 336.044327 533.046175 338.632867 532.955899 341.221408 532.849208 343.809948 532.758931 346.398489 532.693276 348.987029 532.578378 351.575570 532.471688 354.164110 532.364997 356.752651 532.274721 359.341191 532.192651 361.929732 532.003891 364.518272 531.864373 367.106813 531.700234 369.695353 531.560715 372.283894 531.429404 374.872434 531.298093 377.460975 531.158574 380.049515 531.060091 382.638055 530.936986 385.226596 530.797468 387.815136 530.600501 390.403677 530.460983 392.992217 530.305050 395.580758 530.214774 398.169298 530.124497 400.757839 530.034221 403.346379 529.927530 405.934920 529.779805 408.523460 529.705942 411.112001 529.599252 413.700541 529.394078 416.289082 529.188904 418.877622 528.803177 421.466163 528.376415 424.054703 527.883997 426.643244 527.490063 429.231784 527.038680 431.820325 526.636539 434.408865 526.037431 436.997406 525.553220 439.585946 525.290598 442.174487 524.995147 444.763027 524.675076 447.351568 524.330383 449.940108 523.961070 452.528649 483.090408 455.117189 463.672740 457.705730 453.176037 460.294270 445.428667 462.882811 438.781029 465.471351 433.208503 468.059892 426.921971 470.648432 420.774958 473.236973 411.870406 475.825513 398.895202 478.414054 381.816518 481.002594 360.076280 483.591135 341.397238 486.179675 324.942283 488.768216 312.237908 491.356756 301.060028 493.945297 289.627733 496.533837 278.843787 499.122378 268.552258 501.710918 260.263229 504.299459 253.952076 506.887999 248.469827 509.476540 243.397925 512.065080 238.793820 514.653621 234.895514 517.242161 231.465005 519.830702 229.183470 522.419242 227.722631 525.007783 226.516208 527.596323 225.186680 530.184864 223.922808 532.773404 222.338865 535.361945 220.213262 537.950485 217.439310 540.539025 213.721557 543.127566 209.511386 545.716106 205.293008 548.304647 200.861250 550.893187 196.930116 553.481728 193.130293 556.070268 189.338678 558.658809 185.456785 561.247349 181.468203 563.835890 178.308523 566.424430 175.321189 569.012971 173.006827 571.601511 170.618601 574.190052 168.525826 576.778592 166.465879 579.367133 165.062489 581.955673 163.839652 584.544214 162.854817 587.132754 162.140811 589.721295 161.205218 592.309835 160.491212 594.898376 159.580240 597.486916 158.496921 600.075457 157.372567 602.663997 155.337241 605.252538 153.260880 607.841078 151.143484 610.429619 148.771673 613.018159 146.629656 615.606700 144.602537 618.195240 142.197898 620.783781 140.014846 623.372321 137.946692 625.960862 136.420198 628.549402 134.639287 631.137943 133.071758 633.726483 131.906369 636.315024 130.749188 638.903564 129.526351 641.492105 128.525102 644.080645 127.827510 646.669186 127.294058 649.257726 126.809847 651.846267 126.424120 654.434807 125.915288 657.023348 125.390043 659.611888 124.807349 662.200429 124.068722 664.788969 123.223405 667.377510 122.213949 669.966050 120.892629 672.554591 119.546687 675.143131 118.496196 677.731672 117.494947 680.320212 116.058729 682.908753 114.655339 685.497293 113.161672 688.085834 112.070146 690.674374 111.282278 693.262915 110.313857 695.851455 109.378263 698.439995 108.623223 701.028536 100.104398 703.617076 95.541328 706.205617 92.644271 708.794157 90.797705 711.382698 89.624110 713.971238 88.581826 716.559779 87.777544 719.148319 86.825537 721.736860 85.643734 724.325400 84.289586 726.913941 82.927230 729.502481 81.400736 732.091022 80.087622 734.679562 78.380574 737.268103 76.985391 739.856643 75.803589 742.445184 74.277094 745.033724 73.029636 747.622265 71.749350 750.210805 70.485479 752.799346 69.484229 755.387886 68.351669 757.976427 67.399661 760.564967 66.185031 763.153508 65.298680 765.742048 64.486191 768.330589 63.977359 770.919129 63.370044 773.507670 63.000731 776.096210 62.623211 778.684751 62.327760 781.273291 61.999482 783.861832 61.662996 786.450372 61.269062 789.038913 60.710989 791.627453 60.120088 794.215994 59.225529 796.804534 58.380212 799.393075 57.526688 801.981615 56.927580 804.570156 56.106884 807.158696 55.425706 809.747237 54.785563 812.335777 53.956661 814.924318 53.218034 817.512858 52.421959 820.101399 51.872093 822.689939 51.256571 825.278480 50.550772 827.867020 49.951664 830.455561 49.533109 833.044101 49.073519 835.632642 48.622136 838.221182 47.998407 840.809723 47.432127 843.398263 46.750949 845.986804 45.790735 848.575344 44.362724 851.163885 42.319191 853.752425 39.832482 856.340965 36.960046 858.929506 33.890643 861.518046 31.863523 864.106587 29.885646 866.695127 27.579490 869.283668 25.256920 871.872208 23.041041 874.460749 21.104198 877.049289 19.791085 879.637830 18.560041 882.226370 17.345411 884.814911 16.065125 887.403451 15.072083 889.991992 14.259594 892.580532 13.570209 895.169073 13.143447 897.757613 12.815169 900.346154 12.634615"/></g></g><g class="titles"><text class="title plot_title" x="512.0" y="26">Latest Election Participation</text><text class="title" x="0" y="400.5" transform="rotate(-90 0.000000 374.500000)">Users</text></g><g class="plot overlay" transform="translate(86, 46)"><g class="series serie-0 color-0"/><g class="series serie-1 color-1"/></g><g class="plot text-overlay" transform="translate(86, 46)"><g class="series serie-0 color-0"/><g class="series serie-1 color-1"/></g><g class="plot tooltip-overlay" transform="translate(86, 46)"><g class="tooltip" style="opacity: 0" transform="translate(0 0)"><a><rect class="tooltip-box" height="0" rx="0" ry="0" width="0"/><text class="text"><tspan class="label"/><tspan class="value"/></text></a></g></g><g class="legends" transform="translate(96, 713)"><g class="legend reactive activate-serie" id="activate-serie-0"><rect class="color-0 reactive" height="12" width="12" x="0.0" y="1.0"/><text x="17.0" y="11.2">constituents</text></g><g class="legend reactive activate-serie" id="activate-serie-1"><rect class="color-1 reactive" height="12" width="12" x="459.0" y="1.0"/><text x="476.0" y="11.2">caucus</text></g></g></g></svg>