<?xml version='1.0' encoding='utf-8'?>
<svg xmlns:xlink="http://www.w3.org/1999/xlink" xmlns="http://www.w3.org/2000/svg" id="chart-3da6a8cb-2a73-4310-897c-b82dbfee1ca8" class="pygal-chart" viewBox="0 0 1024 768"><!--Generated with pygal 1.7.0 (lxml) ©Kozea 2011-2014 on 2015-04-20--><!--http://pygal.org--><!--http://github.com/Kozea/pygal--><defs><style type="text/css">#chart-3da6a8cb-2a73-4310-897c-b82dbfee1ca8 .title{font-family:"monospace";font-size:16px}#chart-3da6a8cb-2a73-4310-897c-b82dbfee1ca8 .legends .legend text{font-family:"monospace";font-size:14px}#chart-3da6a8cb-2a73-4310-897c-b82dbfee1ca8 .axis text{font-family:"monospace";font-size:10px}#chart-3da6a8cb-2a73-4310-897c-b82dbfee1ca8 .axis text.major{font-family:"monospace";font-size:10px}#chart-3da6a8cb-2a73-4310-897c-b82dbfee1ca8 .series text{font-family:"monospace";font-size:8px}#chart-3da6a8cb-2a73-4310-897c-b82dbfee1ca8 .tooltip text{font-family:"monospace";font-size:16px}#chart-3da6a8cb-2a73-4310-897c-b82dbfee1ca8 text.no_data{font-size:64px}
#chart-3da6a8cb-2a73-4310-897c-b82dbfee1ca8{background-color:black}#chart-3da6a8cb-2a73-4310-897c-b82dbfee1ca8 path,#chart-3da6a8cb-2a73-4310-897c-b82dbfee1ca8 line,#chart-3da6a8cb-2a73-4310-897c-b82dbfee1ca8 rect,#chart-3da6a8cb-2a73-4310-897c-b82dbfee1ca8 circle{-webkit-transition:250ms;-moz-transition:250ms;transition:250ms}#chart-3da6a8cb-2a73-4310-897c-b82dbfee1ca8 .graph &gt; .background{fill:black}#chart-3da6a8cb-2a73-4310-897c-b82dbfee1ca8 .plot &gt; .background{fill:#111}#chart-3da6a8cb-2a73-4310-897c-b82dbfee1ca8 .graph{fill:#999}#chart-3da6a8cb-2a73-4310-897c-b82dbfee1ca8 text.no_data{fill:#eee}#chart-3da6a8cb-2a73-4310-897c-b82dbfee1ca8 .title{fill:#eee}#chart-3da6a8cb-2a73-4310-897c-b82dbfee1ca8 .legends .legend text{fill:#999}#chart-3da6a8cb-2a73-4310-897c-b82dbfee1ca8 .legends .legend:hover text{fill:#eee}#chart-3da6a8cb-2a73-4310-897c-b82dbfee1ca8 .axis .line{stroke:#eee}#chart-3da6a8cb-2a73-4310-897c-b82dbfee1ca8 .axis .guide.line{stroke:#555}#chart-3da6a8cb-2a73-4310-897c-b82dbfee1ca8 .axis .major.line{stroke:#999}#chart-3da6a8cb-2a73-4310-897c-b82dbfee1ca8 .axis text.major{stroke:#eee;fill:#eee}#chart-3da6a8cb-2a73-4310-897c-b82dbfee1ca8 .axis.y .guides:hover .guide.line,#chart-3da6a8cb-2a73-4310-897c-b82dbfee1ca8 .line-graph .axis.x .guides:hover .guide.line,#chart-3da6a8cb-2a73-4310-897c-b82dbfee1ca8 .stackedline-graph .axis.x .guides:hover .guide.line,#chart-3da6a8cb-2a73-4310-897c-b82dbfee1ca8 .xy-graph .axis.x .guides:hover .guide.line{stroke:#eee}#chart-3da6a8cb-2a73-4310-897c-b82dbfee1ca8 .axis .guides:hover text{fill:#eee}#chart-3da6a8cb-2a73-4310-897c-b82dbfee1ca8 .reactive{fill-opacity:.8}#chart-3da6a8cb-2a73-4310-897c-b82dbfee1ca8 .reactive.active,#chart-3da6a8cb-2a73-4310-897c-b82dbfee1ca8 .active .reactive{fill-opacity:.4}#chart-3da6a8cb-2a73-4310-897c-b82dbfee1ca8 .series{stroke-width:1.0;stroke-linejoin:round;stroke-linecap:round;stroke-dasharray:0,0}#chart-3da6a8cb-2a73-4310-897c-b82dbfee1ca8 .series text{fill:#eee}#chart-3da6a8cb-2a73-4310-897c-b82dbfee1ca8 .tooltip rect{fill:#111;stroke:#eee}#chart-3da6a8cb-2a73-4310-897c-b82dbfee1ca8 .tooltip text{fill:#eee}#chart-3da6a8cb-2a73-4310-897c-b82dbfee1ca8 .map-element{fill:#999;stroke:#555 !important;opacity:.9;stroke-width:3;-webkit-transition:250ms;-moz-transition:250ms;-o-transition:250ms;transition:250ms}#chart-3da6a8cb-2a73-4310-897c-b82dbfee1ca8 .map-element:hover{opacity:1;stroke-width:10}#chart-3da6a8cb-2a73-4310-897c-b82dbfee1ca8 .color-0,#chart-3da6a8cb-2a73-4310-897c-b82dbfee1ca8 .color-0 a:visited{stroke:#ff5995;fill:#ff5995}#chart-3da6a8cb-2a73-4310-897c-b82dbfee1ca8 .color-1,#chart-3da6a8cb-2a73-4310-897c-b82dbfee1ca8 .color-1 a:visited{stroke:#b6e354;fill:#b6e354}#chart-3da6a8cb-2a73-4310-897c-b82dbfee1ca8 .color-2,#chart-3da6a8cb-2a73-4310-897c-b82dbfee1ca8 .color-2 a:visited{stroke:#feed6c;fill:#feed6c}#chart-3da6a8cb-2a73-4310-897c-b82dbfee1ca8 .color-3,#chart-3da6a8cb-2a73-4310-897c-b82dbfee1ca8 .color-3 a:visited{stroke:#8cedff;fill:#8cedff}#chart-3da6a8cb-2a73-4310-897c-b82dbfee1ca8 .color-4,#chart-3da6a8cb-2a73-4310-897c-b82dbfee1ca8 .color-4 a:visited{stroke:#9e6ffe;fill:#9e6ffe}#chart-3da6a8cb-2a73-4310-897c-b82dbfee1ca8 .color-5,#chart-3da6a8cb-2a73-4310-897c-b82dbfee1ca8 .color-5 a:visited{stroke:#899ca1;fill:#899ca1}#chart-3da6a8cb-2a73-4310-897c-b82dbfee1ca8 .color-6,#chart-3da6a8cb-2a73-4310-897c-b82dbfee1ca8 .color-6 a:visited{stroke:#f8f8f2;fill:#f8f8f2}#chart-3da6a8cb-2a73-4310-897c-b82dbfee1ca8 .color-7,#chart-3da6a8cb-2a73-4310-897c-b82dbfee1ca8 .color-7 a:visited{stroke:#bf4646;fill:#bf4646}#chart-3da6a8cb-2a73-4310-897c-b82dbfee1ca8 .color-8,#chart-3da6a8cb-2a73-4310-897c-b82dbfee1ca8 .color-8 a:visited{stroke:#516083;fill:#516083}#chart-3da6a8cb-2a73-4310-897c-b82dbfee1ca8 .color-9,#chart-3da6a8cb-2a73-4310-897c-b82dbfee1ca8 .color-9 a:visited{stroke:#f92672;fill:#f92672}#chart-3da6a8cb-2a73-4310-897c-b82dbfee1ca8 .color-10,#chart-3da6a8cb-2a73-4310-897c-b82dbfee1ca8 .color-10 a:visited{stroke:#82b414;fill:#82b414}#chart-3da6a8cb-2a73-4310-897c-b82dbfee1ca8 .color-11,#chart-3da6a8cb-2a73-4310-897c-b82dbfee1ca8 .color-11 a:visited{stroke:#fd971f;fill:#fd971f}#chart-3da6a8cb-2a73-4310-897c-b82dbfee1ca8 .color-12,#chart-3da6a8cb-2a73-4310-897c-b82dbfee1ca8 .color-12 a:visited{stroke:#56c2d6;fill:#56c2d6}#chart-3da6a8cb-2a73-4310-897c-b82dbfee1ca8 .color-13,#chart-3da6a8cb-2a73-4310-897c-b82dbfee1ca8 .color-13 a:visited{stroke:#808384;fill:#808384}#chart-3da6a8cb-2a73-4310-897c-b82dbfee1ca8 .color-14,#chart-3da6a8cb-2a73-4310-897c-b82dbfee1ca8 .color-14 a:visited{stroke:#8c54fe;fill:#8c54fe}#chart-3da6a8cb-2a73-4310-897c-b82dbfee1ca8 .color-15,#chart-3da6a8cb-2a73-4310-897c-b82dbfee1ca8 .color-15 a:visited{stroke:#465457;fill:#465457}
#chart-3da6a8cb-2a73-4310-897c-b82dbfee1ca8 text.no_data{text-anchor:middle}#chart-3da6a8cb-2a73-4310-897c-b82dbfee1ca8 .guide.line{fill-opacity:0}#chart-3da6a8cb-2a73-4310-897c-b82dbfee1ca8 .centered{text-anchor:middle}#chart-3da6a8cb-2a73-4310-897c-b82dbfee1ca8 .title{text-anchor:middle}#chart-3da6a8cb-2a73-4310-897c-b82dbfee1ca8 .legends .legend text{fill-opacity:1}#chart-3da6a8cb-2a73-4310-897c-b82dbfee1ca8 .axis.x text{text-anchor:middle}#chart-3da6a8cb-2a73-4310-897c-b82dbfee1ca8 .axis.x:not(.web) text[transform]{text-anchor:start}#chart-3da6a8cb-2a73-4310-897c-b82dbfee1ca8 .axis.y text{text-anchor:end}#chart-3da6a8cb-2a73-4310-897c-b82dbfee1ca8 .axis.y2 text{text-anchor:start}#chart-3da6a8cb-2a73-4310-897c-b82dbfee1ca8 .axis.y .logarithmic text:not(.major),#chart-3da6a8cb-2a73-4310-897c-b82dbfee1ca8 .axis.y2 .logarithmic text:not(.major){font-size:50%}#chart-3da6a8cb-2a73-4310-897c-b82dbfee1ca8 .axis .guide.line{stroke-dasharray:4,4}#chart-3da6a8cb-2a73-4310-897c-b82dbfee1ca8 .axis .major.guide.line{stroke-dasharray:6,6}#chart-3da6a8cb-2a73-4310-897c-b82dbfee1ca8 .axis text.major{stroke-width:0.5px}#chart-3da6a8cb-2a73-4310-897c-b82dbfee1ca8 .horizontal .axis.y .guide.line,#chart-3da6a8cb-2a73-4310-897c-b82dbfee1ca8 .horizontal .axis.y2 .guide.line,#chart-3da6a8cb-2a73-4310-897c-b82dbfee1ca8 .vertical .axis.x .guide.line{opacity:0}#chart-3da6a8cb-2a73-4310-897c-b82dbfee1ca8 .horizontal .axis.always_show .guide.line,#chart-3da6a8cb-2a73-4310-897c-b82dbfee1ca8 .vertical .axis.always_show .guide.line{opacity:1 !important}#chart-3da6a8cb-2a73-4310-897c-b82dbfee1ca8 .axis.y .guides:hover .guide.line,#chart-3da6a8cb-2a73-4310-897c-b82dbfee1ca8 .axis.y2 .guides:hover .guide.line,#chart-3da6a8cb-2a73-4310-897c-b82dbfee1ca8 .axis.x .guides:hover .guide.line{opacity:1}#chart-3da6a8cb-2a73-4310-897c-b82dbfee1ca8 .axis .guides:hover text{opacity:1}#chart-3da6a8cb-2a73-4310-897c-b82dbfee1ca8 .nofill{fill:none}#chart-3da6a8cb-2a73-4310-897c-b82dbfee1ca8 .subtle-fill{fill-opacity:.2}#chart-3da6a8cb-2a73-4310-897c-b82dbfee1ca8 .dot{stroke-width:1px;fill-opacity:1}#chart-3da6a8cb-2a73-4310-897c-b82dbfee1ca8 .dot.active{stroke-width:5px}#chart-3da6a8cb-2a73-4310-897c-b82dbfee1ca8 .series text{stroke:none}#chart-3da6a8cb-2a73-4310-897c-b82dbfee1ca8 .series text.active{opacity:1}#chart-3da6a8cb-2a73-4310-897c-b82dbfee1ca8 .tooltip rect{fill-opacity:0.8}#chart-3da6a8cb-2a73-4310-897c-b82dbfee1ca8 .tooltip text{fill-opacity:1}#chart-3da6a8cb-2a73-4310-897c-b82dbfee1ca8 .tooltip text tspan.label{fill-opacity:.8}</style><script type="text/javascript">window.config = {"tooltip_font_size": 16, "x_labels_major_every": null, "style": {"foreground": "#999", "foreground_dark": "#555", "opacity": ".8", "stroke_width": 1.0, "foreground_light": "#eee", "stroke_dasharray": "0,0", "stroke_style": "round", "opacity_hover": ".4", "plot_background": "#111", "background": "black", "font_family": "monospace", "transition": "250ms", "colors": ["#ff5995", "#b6e354", "#feed6c", "#8cedff", "#9e6ffe", "#899ca1", "#f8f8f2", "#bf4646", "#516083", "#f92672", "#82b414", "#fd971f", "#56c2d6", "#808384", "#8c54fe", "#465457"]}, "strict": false, "y_labels_major_count": null, "y_labels": null, "y_label_rotation": 0, "show_only_major_dots": false, "explicit_size": false, "height": 768, "stroke": true, "legend_at_bottom_columns": null, "show_y_labels": true, "show_dots": false, "margin": 20, "legend_font_size": 14, "logarithmic": false, "title_font_size": 16, "human_readable": false, "margin_left": null, "show_x_guides": false, "show_x_labels": true, "js": ["http://kozea.github.io/pygal.js/javascripts/svg.jquery.js", "http://kozea.github.io/pygal.js/javascripts/pygal-tooltips.js"], "label_font_size": 10, "truncate_label": null, "print_zeroes": false, "legend_at_bottom": true, "range": null, "truncate_legend": null, "y_title": "Users", "x_labels": null, "zero": 0, "interpolate": null, "stack_from_top": false, "show_legend": true, "no_prefix": false, "rounded_bars": null, "include_x_axis": false, "value_font_size": 8, "show_minor_y_labels": true, "x_value_formatter": null, "mode": null, "spacing": 10, "show_minor_x_labels": true, "x_label_format": "%Y-%m-%d %H:%M:%S.%f", "title": "Latest Election Participation", "missing_value_fill_truncation": "x", "order_min": null, "x_labels_major_count": null, "css": ["style.css", "graph.css"], "major_label_font_size": 10, "half_pie": false, "xrange": null, "x_labels_major": null, "fill": false, "tooltip_border_radius": 0, "legend_box_size": 12, "inner_radius": 0, "margin_top": null, "x_title": null, "width": 1024, "margin_bottom": null, "show_y_guides": true, "x_label_rotation": 0, "interpolation_precision": 250, "interpolation_parameters": {}, "dots_size": 2.5, "pretty_print": false, "print_values": false, "y_labels_major": null, "no_data_text": "No data", "y_labels_major_every": null, "margin_right": null, "no_data_font_size": 64, "disable_xml_declaration": false}</script><script type="text/javascript" xlink:href="http://kozea.github.io/pygal.js/javascripts/svg.jquery.js"/><script type="text/javascript" xlink:href="http://kozea.github.io/pygal.js/javascripts/pygal-tooltips.js"/></defs><title>Latest Election Participation</title><g class="graph line-graph vertical"><rect class="background" height="768" width="1024" x="0" y="0"/><g class="plot" transform="translate(86, 46)"><rect class="background" height="657.0" width="918.0" x="0" y="0"/><g class="axis y"><g class="guides"><path class="axis major line" d="M0.000000 644.365385 h918.000000"/><text class="major" x="-5" y="647.8653846153846">0</text></g><g class="guides"><path class="guide line" d="M0.000000 561.618542 h918.000000"/><text class="" x="-5" y="565.1185420938351">10000</text></g><g class="guides"><path class="guide line" d="M0.000000 478.871700 h918.000000"/><text class="" x="-5" y="482.3716995722857">20000</text></g><g class="guides"><path class="guide line" d="M0.000000 396.124857 h918.000000"/><text class="" x="-5" y="399.62485705073624">30000</text></g><g class="guides"><path class="guide line" d="M0.000000 313.378015 h918.000000"/><text class="" x="-5" y="316.87801452918677">40000</text></g><g class="guides"><path class="major guide line" d="M0.000000 230.631172 h918.000000"/><text class="major" x="-5" y="234.1311720076373">50000</text></g><g class="guides"><path class="guide line" d="M0.000000 147.884329 h918.000000"/><text class="" x="-5" y="151.38432948608784">60000</text></g><g class="guides"><path class="guide line" d="M0.000000 65.137487 h918.000000"/><text class="" x="-5" y="68.63748696453843">70000</text></g></g><g class="series serie-0 color-0"><path class="line reactive nofill" d="M17.653846 644.365385 L20.296637 644.365385 22.939429 644.365385 25.582220 644.365385 28.225012 644.365385 30.867803 644.365385 33.510594 644.365385 36.153386 644.365385 38.796177 644.365385 41.438968 644.365385 44.081760 644.365385 46.724551 644.365385 49.367342 644.365385 52.010134 644.365385 54.652925 644.365385 57.295716 644.365385 59.938508 644.365385 62.581299 644.365385 65.224090 644.365385 67.866882 644.365385 70.509673 644.365385 73.152464 644.365385 75.795256 644.365385 78.438047 644.365385 81.080838 644.365385 83.723630 644.365385 86.366421 644.365385 89.009212 644.365385 91.652004 644.365385 94.294795 644.365385 96.937586 644.365385 99.580378 644.365385 102.223169 644.365385 104.865960 644.365385 107.508752 644.365385 110.151543 644.365385 112.794334 644.365385 115.437126 644.365385 118.079917 644.365385 120.722708 644.365385 123.365500 644.365385 126.008291 644.365385 128.651082 644.365385 131.293874 644.365385 133.936665 644.365385 136.579456 644.365385 139.222248 644.365385 141.865039 644.365385 144.507830 644.365385 147.150622 644.365385 149.793413 644.365385 152.436205 644.365385 155.078996 644.365385 157.721787 644.365385 160.364579 644.365385 163.007370 644.365385 165.650161 644.365385 168.292953 644.365385 170.935744 644.365385 173.578535 644.365385 176.221327 644.365385 178.864118 644.365385 181.506909 644.365385 184.149701 644.365385 186.792492 644.365385 189.435283 644.365385 192.078075 644.365385 194.720866 644.365385 197.363657 644.365385 200.006449 644.365385 202.649240 644.365385 205.292031 644.365385 207.934823 644.365385 210.577614 644.365385 213.220405 644.365385 215.863197 644.365385 218.505988 644.365385 221.148779 644.365385 223.791571 644.365385 226.434362 644.365385 229.077153 644.365385 231.719945 644.365385 234.362736 644.365385 237.005527 644.365385 239.648319 644.365385 242.291110 644.365385 244.933901 644.365385 247.576693 644.365385 250.219484 644.365385 252.862275 644.365385 255.505067 644.365385 258.147858 644.365385 260.790649 644.365385 263.433441 644.365385 266.076232 644.365385 268.719023 644.365385 271.361815 644.365385 274.004606 644.365385 276.647398 644.365385 279.290189 644.365385 281.932980 644.365385 284.575772 644.365385 287.218563 644.365385 289.861354 644.365385 292.504146 644.365385 295.146937 644.365385 297.789728 644.365385 300.432520 644.365385 303.075311 644.365385 305.718102 644.365385 308.360894 644.365385 311.003685 644.365385 313.646476 644.365385 316.289268 644.365385 318.932059 644.365385 321.574850 644.365385 324.217642 644.365385 326.860433 644.365385 329.503224 644.365385 332.146016 644.365385 334.788807 644.365385 337.431598 644.365385 340.074390 644.365385 342.717181 644.365385 345.359972 644.365385 348.002764 644.365385 350.645555 644.365385 353.288346 644.365385 355.931138 644.365385 358.573929 644.365385 361.216720 644.365385 363.859512 644.365385 366.502303 644.365385 369.145094 644.365385 371.787886 644.365385 374.430677 644.365385 377.073468 644.365385 379.716260 644.365385 382.359051 644.365385 385.001842 644.365385 387.644634 644.365385 390.287425 644.365385 392.930216 644.365385 395.573008 644.365385 398.215799 644.365385 400.858591 644.365385 403.501382 644.365385 406.144173 644.365385 408.786965 644.365385 411.429756 644.365385 414.072547 644.365385 416.715339 644.365385 419.358130 644.365385 422.000921 644.365385 424.643713 644.365385 427.286504 644.365385 429.929295 644.365385 432.572087 644.365385 435.214878 644.365385 437.857669 644.365385 440.500461 644.365385 443.143252 644.365385 445.786043 644.365385 448.428835 644.365385 451.071626 644.365385 453.714417 644.365385 456.357209 644.365385 459.000000 644.365385 461.642791 644.365385 464.285583 644.365385 466.928374 644.365385 469.571165 644.365385 472.213957 644.365385 474.856748 644.365385 477.499539 644.365385 480.142331 644.365385 482.785122 644.365385 485.427913 644.365385 488.070705 644.365385 490.713496 644.365385 493.356287 644.365385 495.999079 644.365385 498.641870 644.365385 501.284661 644.365385 503.927453 644.365385 506.570244 644.365385 509.213035 644.365385 511.855827 644.365385 514.498618 644.365385 517.141409 644.365385 519.784201 644.365385 522.426992 644.365385 525.069784 644.365385 527.712575 644.365385 530.355366 644.365385 532.998158 644.365385 535.640949 644.365385 538.283740 644.365385 540.926532 644.365385 543.569323 644.365385 546.212114 644.365385 548.854906 644.365385 551.497697 644.365385 554.140488 644.365385 556.783280 644.365385 559.426071 644.365385 562.068862 644.365385 564.711654 644.365385 567.354445 644.365385 569.997236 644.365385 572.640028 644.365385 575.282819 644.365385 577.925610 644.365385 580.568402 644.365385 583.211193 644.365385 585.853984 644.365385 588.496776 644.365385 591.139567 644.365385 593.782358 644.365385 596.425150 644.365385 599.067941 644.365385 601.710732 644.365385 604.353524 644.365385 606.996315 644.365385 609.639106 644.365385 612.281898 644.365385 614.924689 644.365385 617.567480 644.365385 620.210272 644.365385 622.853063 644.365385 625.495854 644.365385 628.138646 644.365385 630.781437 644.365385 633.424228 644.365385 636.067020 644.365385 638.709811 644.365385 641.352602 644.365385 643.995394 644.365385 646.638185 644.365385 649.280977 644.365385 651.923768 644.365385 654.566559 644.365385 657.209351 644.365385 659.852142 644.365385 662.494933 644.365385 665.137725 644.365385 667.780516 644.365385 670.423307 644.365385 673.066099 644.365385 675.708890 644.365385 678.351681 644.365385 680.994473 644.365385 683.637264 644.365385 686.280055 644.365385 688.922847 644.365385 691.565638 644.365385 694.208429 644.365385 696.851221 644.365385 699.494012 644.365385 702.136803 644.365385 704.779595 644.365385 707.422386 644.365385 710.065177 644.365385 712.707969 644.365385 715.350760 617.853296 717.993551 605.648137 720.636343 598.879445 723.279134 594.874498 725.921925 591.754942 728.564717 588.999472 731.207508 586.517067 733.850299 583.645752 736.493091 579.831122 739.135882 576.090965 741.778673 572.392181 744.421465 568.147268 747.064256 564.415385 749.707047 560.187022 752.349839 556.355843 754.992630 553.261111 757.635421 550.298774 760.278213 547.394360 762.921004 544.630615 765.563795 542.090287 768.206587 539.914045 770.849378 537.431640 773.492170 535.520188 776.134961 533.269474 778.777752 531.730383 781.420544 530.464356 784.063335 529.479668 786.706126 528.643925 789.348918 528.039873 791.991709 527.377899 794.634500 526.765572 797.277292 526.211168 799.920083 525.615391 802.562874 524.746549 805.205666 523.538445 807.848457 522.429637 810.491248 520.973293 813.134040 519.798288 815.776831 518.399866 818.419622 517.009719 821.062414 515.785066 823.705205 514.527314 826.347996 513.501253 828.990788 512.202128 831.633579 510.936101 834.276370 509.711448 836.919162 508.511619 839.561953 507.386262 842.204744 506.409849 844.847536 505.383788 847.490327 504.630792 850.133118 503.695752 852.775910 502.793812 855.418701 501.767751 858.061492 500.658943 860.704284 499.450839 863.347075 497.067730 865.989866 493.708208 868.632658 488.999913 871.275449 482.868372 873.918240 477.258136 876.561032 471.987162 879.203823 468.561443 881.846614 465.541183 884.489406 461.875498 887.132197 458.093967 889.774988 454.535853 892.417780 451.805207 895.060571 449.893755 897.703363 448.528432 900.346154 447.700964"/></g><g class="series serie-1 color-1"><path class="line reactive nofill" d="M17.653846 627.758093 L20.296637 621.543805 22.939429 618.076713 25.582220 615.768076 28.225012 613.591834 30.867803 612.143764 33.510594 610.687420 36.153386 608.991109 38.796177 606.459056 41.438968 603.198830 44.081760 599.789661 46.724551 595.122739 49.367342 590.853002 52.010134 587.948587 54.652925 585.275864 57.295716 583.058249 59.938508 580.757887 62.581299 578.507173 65.224090 576.239909 67.866882 574.262260 70.509673 572.706619 73.152464 571.324747 75.795256 570.100093 78.438047 568.941638 81.080838 568.031422 83.723630 566.914340 86.366421 566.384760 89.009212 566.004125 91.652004 565.540742 94.294795 565.102184 96.937586 564.812570 99.580378 564.539506 102.223169 563.985102 104.865960 563.339676 107.508752 562.636328 110.151543 561.684740 112.794334 560.733151 115.437126 559.798112 118.079917 558.912720 120.722708 558.176273 123.365500 557.332256 126.008291 556.463414 128.651082 555.710418 131.293874 555.056717 133.936665 554.510588 136.579456 553.856888 139.222248 553.269386 141.865039 552.781179 144.507830 552.284698 147.150622 551.887513 149.793413 551.498603 152.436205 551.349659 155.078996 551.175891 157.721787 550.993848 160.364579 550.762156 163.007370 550.580113 165.650161 550.232577 168.292953 549.794018 170.935744 549.421658 173.578535 548.842430 176.221327 548.254927 178.864118 547.758446 181.506909 547.253690 184.149701 546.674462 186.792492 546.186256 189.435283 545.582204 192.078075 544.961603 194.720866 544.374100 197.363657 543.918992 200.006449 543.604554 202.649240 543.240468 205.292031 542.859833 207.934823 542.388176 210.577614 542.090287 213.220405 541.899970 215.863197 541.717926 218.505988 541.593806 221.148779 541.453137 223.791571 541.295918 226.434362 541.180072 229.077153 540.931831 231.719945 540.642218 234.362736 540.269857 237.005527 539.938869 239.648319 539.591333 242.291110 539.144500 244.933901 538.705941 247.576693 538.358405 250.219484 537.936396 252.862275 537.547486 255.505067 537.133751 258.147858 536.811039 260.790649 536.595897 263.433441 536.339382 266.076232 536.107691 268.719023 535.892549 271.361815 535.602935 274.004606 535.429166 276.647398 535.280222 279.290189 535.164377 281.932980 535.023707 284.575772 534.916136 287.218563 534.849939 289.861354 534.783741 292.504146 534.651346 295.146937 534.576874 297.789728 534.436204 300.432520 534.295535 303.075311 534.212788 305.718102 534.113492 308.360894 534.039019 311.003685 533.865251 313.646476 533.708032 316.289268 533.608736 318.932059 533.410143 321.574850 533.244650 324.217642 533.095705 326.860433 532.921937 329.503224 532.706795 332.146016 532.574400 334.788807 532.475104 337.431598 532.400632 340.074390 532.243413 342.717181 532.127567 345.359972 532.036546 348.002764 531.928975 350.645555 531.837953 353.288346 531.771756 355.931138 531.655910 358.573929 531.548340 361.216720 531.440769 363.859512 531.349747 366.502303 531.267000 369.145094 531.076683 371.787886 530.936013 374.430677 530.770519 377.073468 530.629850 379.716260 530.497455 382.359051 530.365060 385.001842 530.224390 387.644634 530.125094 390.287425 530.000974 392.930216 529.860304 395.573008 529.661712 398.215799 529.521042 400.858591 529.363823 403.501382 529.272801 406.144173 529.181780 408.786965 529.090758 411.429756 528.983187 414.072547 528.834243 416.715339 528.759771 419.358130 528.652200 422.000921 528.445333 424.643713 528.238466 427.286504 527.849556 429.929295 527.419272 432.572087 526.922791 435.214878 526.525606 437.857669 526.070499 440.500461 525.665039 443.143252 525.060987 445.786043 524.572781 448.428835 524.307991 451.071626 524.010102 453.714417 523.687389 456.357209 523.339853 459.000000 522.967492 461.642791 481.759564 464.285583 462.181661 466.928374 451.598340 469.571165 443.787038 472.213957 437.084544 474.856748 431.466033 477.499539 425.127625 480.142331 418.929887 482.785122 409.951854 485.427913 396.869579 488.070705 379.649961 490.713496 357.730322 493.356287 338.897141 495.999079 322.306399 498.641870 309.497188 501.284661 298.227068 503.927453 286.700433 506.570244 275.827497 509.213035 265.451043 511.855827 257.093612 514.498618 250.730380 517.141409 245.202891 519.784201 240.089136 522.426992 235.447038 525.069784 231.516563 527.712575 228.057745 530.355366 225.757383 532.998158 224.284489 535.640949 223.068111 538.283740 221.727612 540.926532 220.453310 543.569323 218.856296 546.212114 216.713153 548.854906 213.916310 551.497697 210.167878 554.140488 205.922965 556.783280 201.669777 559.426071 197.201448 562.068862 193.237874 564.711654 189.406695 567.354445 185.583791 569.997236 181.669865 572.640028 177.648369 575.282819 174.462615 577.925610 171.450630 580.568402 169.117169 583.211193 166.709236 585.853984 164.599192 588.496776 162.522246 591.139567 161.107275 593.782358 159.874347 596.425150 158.881385 599.067941 158.161487 601.710732 157.218173 604.353524 156.498276 606.996315 155.579786 609.639106 154.487528 612.281898 153.353896 614.924689 151.301774 617.567480 149.208279 620.210272 147.073410 622.853063 144.682027 625.495854 142.522334 628.138646 140.478487 630.781437 138.054005 633.424228 135.852939 636.067020 133.767718 638.709811 132.228627 641.352602 130.433020 643.995394 128.852556 646.638185 127.677551 649.280977 126.510820 651.923768 125.277892 654.566559 124.268381 657.209351 123.565032 659.852142 123.027178 662.494933 122.538972 665.137725 122.150061 667.780516 121.637031 670.423307 121.107451 673.066099 120.519949 675.708890 119.775227 678.351681 118.922935 680.994473 117.905148 683.637264 116.572924 686.280055 115.215876 688.922847 114.156716 691.565638 113.147205 694.208429 111.699135 696.851221 110.284164 699.494012 108.778172 702.136803 107.677639 704.779595 106.883269 707.422386 105.906856 710.065177 104.963542 712.707969 104.202271 715.350760 95.613149 717.993551 91.012425 720.636343 88.091461 723.279134 86.229657 725.921925 85.046377 728.564717 83.995492 731.207508 83.184573 733.850299 82.224710 736.493091 81.033155 739.135882 79.667833 741.778673 78.294235 744.421465 76.755144 747.064256 75.431194 749.707047 73.710060 752.349839 72.303364 754.992630 71.111809 757.635421 69.572718 760.278213 68.314966 762.921004 67.024115 765.563795 65.749814 768.206587 64.740302 770.849378 63.598396 773.492170 62.638532 776.134961 61.413879 778.777752 60.520213 781.420544 59.701019 784.063335 59.187989 786.706126 58.575662 789.348918 58.203302 791.991709 57.822666 794.634500 57.524777 797.277292 57.193790 799.920083 56.854528 802.562874 56.457343 805.205666 55.894665 807.848457 55.298887 810.491248 54.396947 813.134040 53.544654 815.776831 52.684087 818.419622 52.080035 821.062414 51.252567 823.705205 50.565768 826.347996 49.920343 828.990788 49.084600 831.633579 48.339878 834.276370 47.537234 836.919162 46.982830 839.561953 46.362228 842.204744 45.650606 844.847536 45.046554 847.490327 44.624545 850.133118 44.161162 852.775910 43.706055 855.418701 43.077179 858.061492 42.506226 860.704284 41.819427 863.347075 40.851289 865.989866 39.411494 868.632658 37.351097 871.275449 34.843868 873.918240 31.947728 876.561032 28.852997 879.203823 26.809150 881.846614 24.814951 884.489406 22.489764 887.132197 20.148029 889.774988 17.913864 892.417780 15.961038 895.060571 14.637089 897.703363 13.395886 900.346154 12.634615"/></g></g><g class="titles"><text class="title plot_title" x="512.0" y="26">Latest Election Participation</text><text class="title" x="0" y="400.5" transform="rotate(-90 0.000000 374.500000)">Users</text></g><g class="plot overlay" transform="translate(86, 46)"><g class="series serie-0 color-0"/><g class="series serie-1 color-1"/></g><g class="plot text-overlay" transform="translate(86, 46)"><g class="series serie-0 color-0"/><g class="series serie-1 color-1"/></g><g class="plot tooltip-overlay" transform="translate(86, 46)"><g class="tooltip" style="opacity: 0" transform="translate(0 0)"><a><rect class="tooltip-box" height="0" rx="0" ry="0" width="0"/><text class="text"><tspan class="label"/><tspan class="value"/></text></a></g></g><g class="legends" transform="translate(96, 713)"><g class="legend reactive activate-serie" id="activate-serie-0"><rect class="color-0 reactive" height="12" width="12" x="0.0" y="1.0"/><text x="17.0" y="11.2">constituents</text></g><g class="legend reactive activate-serie" id="activate-serie-1"><rect class="color-1 reactive" height="12" width="12" x="459.0" y="1.0"/><text x="476.0" y="11.2">caucus</text></g></g></g></svg>