<?xml version='1.0' encoding='utf-8'?>
<svg xmlns:xlink="http://www.w3.org/1999/xlink" xmlns="http://www.w3.org/2000/svg" id="chart-ccde8525-be89-4c72-8ab8-27f40e645946" class="pygal-chart" viewBox="0 0 1024 768"><!--Generated with pygal 1.7.0 (lxml) ©Kozea 2011-2014 on 2015-04-20--><!--http://pygal.org--><!--http://github.com/Kozea/pygal--><defs><style type="text/css">#chart-ccde8525-be89-4c72-8ab8-27f40e645946 .title{font-family:"monospace";font-size:16px}#chart-ccde8525-be89-4c72-8ab8-27f40e645946 .legends .legend text{font-family:"monospace";font-size:14px}#chart-ccde8525-be89-4c72-8ab8-27f40e645946 .axis text{font-family:"monospace";font-size:10px}#chart-ccde8525-be89-4c72-8ab8-27f40e645946 .axis text.major{font-family:"monospace";font-size:10px}#chart-ccde8525-be89-4c72-8ab8-27f40e645946 .series text{font-family:"monospace";font-size:8px}#chart-ccde8525-be89-4c72-8ab8-27f40e645946 .tooltip text{font-family:"monospace";font-size:16px}#chart-ccde8525-be89-4c72-8ab8-27f40e645946 text.no_data{font-size:64px}
#chart-ccde8525-be89-4c72-8ab8-27f40e645946{background-color:black}#chart-ccde8525-be89-4c72-8ab8-27f40e645946 path,#chart-ccde8525-be89-4c72-8ab8-27f40e645946 line,#chart-ccde8525-be89-4c72-8ab8-27f40e645946 rect,#chart-ccde8525-be89-4c72-8ab8-27f40e645946 circle{-webkit-transition:250ms;-moz-transition:250ms;transition:250ms}#chart-ccde8525-be89-4c72-8ab8-27f40e645946 .graph &gt; .background{fill:black}#chart-ccde8525-be89-4c72-8ab8-27f40e645946 .plot &gt; .background{fill:#111}#chart-ccde8525-be89-4c72-8ab8-27f40e645946 .graph{fill:#999}#chart-ccde8525-be89-4c72-8ab8-27f40e645946 text.no_data{fill:#eee}#chart-ccde8525-be89-4c72-8ab8-27f40e645946 .title{fill:#eee}#chart-ccde8525-be89-4c72-8ab8-27f40e645946 .legends .legend text{fill:#999}#chart-ccde8525-be89-4c72-8ab8-27f40e645946 .legends .legend:hover text{fill:#eee}#chart-ccde8525-be89-4c72-8ab8-27f40e645946 .axis .line{stroke:#eee}#chart-ccde8525-be89-4c72-8ab8-27f40e645946 .axis .guide.line{stroke:#555}#chart-ccde8525-be89-4c72-8ab8-27f40e645946 .axis .major.line{stroke:#999}#chart-ccde8525-be89-4c72-8ab8-27f40e645946 .axis text.major{stroke:#eee;fill:#eee}#chart-ccde8525-be89-4c72-8ab8-27f40e645946 .axis.y .guides:hover .guide.line,#chart-ccde8525-be89-4c72-8ab8-27f40e645946 .line-graph .axis.x .guides:hover .guide.line,#chart-ccde8525-be89-4c72-8ab8-27f40e645946 .stackedline-graph .axis.x .guides:hover .guide.line,#chart-ccde8525-be89-4c72-8ab8-27f40e645946 .xy-graph .axis.x .guides:hover .guide.line{stroke:#eee}#chart-ccde8525-be89-4c72-8ab8-27f40e645946 .axis .guides:hover text{fill:#eee}#chart-ccde8525-be89-4c72-8ab8-27f40e645946 .reactive{fill-opacity:.8}#chart-ccde8525-be89-4c72-8ab8-27f40e645946 .reactive.active,#chart-ccde8525-be89-4c72-8ab8-27f40e645946 .active .reactive{fill-opacity:.4}#chart-ccde8525-be89-4c72-8ab8-27f40e645946 .series{stroke-width:1.0;stroke-linejoin:round;stroke-linecap:round;stroke-dasharray:0,0}#chart-ccde8525-be89-4c72-8ab8-27f40e645946 .series text{fill:#eee}#chart-ccde8525-be89-4c72-8ab8-27f40e645946 .tooltip rect{fill:#111;stroke:#eee}#chart-ccde8525-be89-4c72-8ab8-27f40e645946 .tooltip text{fill:#eee}#chart-ccde8525-be89-4c72-8ab8-27f40e645946 .map-element{fill:#999;stroke:#555 !important;opacity:.9;stroke-width:3;-webkit-transition:250ms;-moz-transition:250ms;-o-transition:250ms;transition:250ms}#chart-ccde8525-be89-4c72-8ab8-27f40e645946 .map-element:hover{opacity:1;stroke-width:10}#chart-ccde8525-be89-4c72-8ab8-27f40e645946 .color-0,#chart-ccde8525-be89-4c72-8ab8-27f40e645946 .color-0 a:visited{stroke:#ff5995;fill:#ff5995}#chart-ccde8525-be89-4c72-8ab8-27f40e645946 .color-1,#chart-ccde8525-be89-4c72-8ab8-27f40e645946 .color-1 a:visited{stroke:#b6e354;fill:#b6e354}#chart-ccde8525-be89-4c72-8ab8-27f40e645946 .color-2,#chart-ccde8525-be89-4c72-8ab8-27f40e645946 .color-2 a:visited{stroke:#feed6c;fill:#feed6c}#chart-ccde8525-be89-4c72-8ab8-27f40e645946 .color-3,#chart-ccde8525-be89-4c72-8ab8-27f40e645946 .color-3 a:visited{stroke:#8cedff;fill:#8cedff}#chart-ccde8525-be89-4c72-8ab8-27f40e645946 .color-4,#chart-ccde8525-be89-4c72-8ab8-27f40e645946 .color-4 a:visited{stroke:#9e6ffe;fill:#9e6ffe}#chart-ccde8525-be89-4c72-8ab8-27f40e645946 .color-5,#chart-ccde8525-be89-4c72-8ab8-27f40e645946 .color-5 a:visited{stroke:#899ca1;fill:#899ca1}#chart-ccde8525-be89-4c72-8ab8-27f40e645946 .color-6,#chart-ccde8525-be89-4c72-8ab8-27f40e645946 .color-6 a:visited{stroke:#f8f8f2;fill:#f8f8f2}#chart-ccde8525-be89-4c72-8ab8-27f40e645946 .color-7,#chart-ccde8525-be89-4c72-8ab8-27f40e645946 .color-7 a:visited{stroke:#bf4646;fill:#bf4646}#chart-ccde8525-be89-4c72-8ab8-27f40e645946 .color-8,#chart-ccde8525-be89-4c72-8ab8-27f40e645946 .color-8 a:visited{stroke:#516083;fill:#516083}#chart-ccde8525-be89-4c72-8ab8-27f40e645946 .color-9,#chart-ccde8525-be89-4c72-8ab8-27f40e645946 .color-9 a:visited{stroke:#f92672;fill:#f92672}#chart-ccde8525-be89-4c72-8ab8-27f40e645946 .color-10,#chart-ccde8525-be89-4c72-8ab8-27f40e645946 .color-10 a:visited{stroke:#82b414;fill:#82b414}#chart-ccde8525-be89-4c72-8ab8-27f40e645946 .color-11,#chart-ccde8525-be89-4c72-8ab8-27f40e645946 .color-11 a:visited{stroke:#fd971f;fill:#fd971f}#chart-ccde8525-be89-4c72-8ab8-27f40e645946 .color-12,#chart-ccde8525-be89-4c72-8ab8-27f40e645946 .color-12 a:visited{stroke:#56c2d6;fill:#56c2d6}#chart-ccde8525-be89-4c72-8ab8-27f40e645946 .color-13,#chart-ccde8525-be89-4c72-8ab8-27f40e645946 .color-13 a:visited{stroke:#808384;fill:#808384}#chart-ccde8525-be89-4c72-8ab8-27f40e645946 .color-14,#chart-ccde8525-be89-4c72-8ab8-27f40e645946 .color-14 a:visited{stroke:#8c54fe;fill:#8c54fe}#chart-ccde8525-be89-4c72-8ab8-27f40e645946 .color-15,#chart-ccde8525-be89-4c72-8ab8-27f40e645946 .color-15 a:visited{stroke:#465457;fill:#465457}
#chart-ccde8525-be89-4c72-8ab8-27f40e645946 text.no_data{text-anchor:middle}#chart-ccde8525-be89-4c72-8ab8-27f40e645946 .guide.line{fill-opacity:0}#chart-ccde8525-be89-4c72-8ab8-27f40e645946 .centered{text-anchor:middle}#chart-ccde8525-be89-4c72-8ab8-27f40e645946 .title{text-anchor:middle}#chart-ccde8525-be89-4c72-8ab8-27f40e645946 .legends .legend text{fill-opacity:1}#chart-ccde8525-be89-4c72-8ab8-27f40e645946 .axis.x text{text-anchor:middle}#chart-ccde8525-be89-4c72-8ab8-27f40e645946 .axis.x:not(.web) text[transform]{text-anchor:start}#chart-ccde8525-be89-4c72-8ab8-27f40e645946 .axis.y text{text-anchor:end}#chart-ccde8525-be89-4c72-8ab8-27f40e645946 .axis.y2 text{text-anchor:start}#chart-ccde8525-be89-4c72-8ab8-27f40e645946 .axis.y .logarithmic text:not(.major),#chart-ccde8525-be89-4c72-8ab8-27f40e645946 .axis.y2 .logarithmic text:not(.major){font-size:50%}#chart-ccde8525-be89-4c72-8ab8-27f40e645946 .axis .guide.line{stroke-dasharray:4,4}#chart-ccde8525-be89-4c72-8ab8-27f40e645946 .axis .major.guide.line{stroke-dasharray:6,6}#chart-ccde8525-be89-4c72-8ab8-27f40e645946 .axis text.major{stroke-width:0.5px}#chart-ccde8525-be89-4c72-8ab8-27f40e645946 .horizontal .axis.y .guide.line,#chart-ccde8525-be89-4c72-8ab8-27f40e645946 .horizontal .axis.y2 .guide.line,#chart-ccde8525-be89-4c72-8ab8-27f40e645946 .vertical .axis.x .guide.line{opacity:0}#chart-ccde8525-be89-4c72-8ab8-27f40e645946 .horizontal .axis.always_show .guide.line,#chart-ccde8525-be89-4c72-8ab8-27f40e645946 .vertical .axis.always_show .guide.line{opacity:1 !important}#chart-ccde8525-be89-4c72-8ab8-27f40e645946 .axis.y .guides:hover .guide.line,#chart-ccde8525-be89-4c72-8ab8-27f40e645946 .axis.y2 .guides:hover .guide.line,#chart-ccde8525-be89-4c72-8ab8-27f40e645946 .axis.x .guides:hover .guide.line{opacity:1}#chart-ccde8525-be89-4c72-8ab8-27f40e645946 .axis .guides:hover text{opacity:1}#chart-ccde8525-be89-4c72-8ab8-27f40e645946 .nofill{fill:none}#chart-ccde8525-be89-4c72-8ab8-27f40e645946 .subtle-fill{fill-opacity:.2}#chart-ccde8525-be89-4c72-8ab8-27f40e645946 .dot{stroke-width:1px;fill-opacity:1}#chart-ccde8525-be89-4c72-8ab8-27f40e645946 .dot.active{stroke-width:5px}#chart-ccde8525-be89-4c72-8ab8-27f40e645946 .series text{stroke:none}#chart-ccde8525-be89-4c72-8ab8-27f40e645946 .series text.active{opacity:1}#chart-ccde8525-be89-4c72-8ab8-27f40e645946 .tooltip rect{fill-opacity:0.8}#chart-ccde8525-be89-4c72-8ab8-27f40e645946 .tooltip text{fill-opacity:1}#chart-ccde8525-be89-4c72-8ab8-27f40e645946 .tooltip text tspan.label{fill-opacity:.8}</style><script type="text/javascript">window.config = {"no_prefix": false, "half_pie": false, "value_font_size": 8, "tooltip_font_size": 16, "stroke": true, "strict": false, "print_values": false, "zero": 0, "show_y_guides": true, "show_only_major_dots": false, "rounded_bars": null, "inner_radius": 0, "show_legend": true, "height": 768, "logarithmic": false, "xrange": null, "title": "Latest Election Participation", "width": 1024, "include_x_axis": false, "x_labels_major": null, "title_font_size": 16, "show_minor_y_labels": true, "label_font_size": 10, "margin_right": null, "human_readable": false, "y_labels": null, "y_labels_major_count": null, "no_data_font_size": 64, "x_title": null, "show_x_guides": false, "x_label_rotation": 0, "disable_xml_declaration": false, "truncate_legend": null, "fill": false, "interpolation_precision": 250, "legend_at_bottom": true, "spacing": 10, "show_y_labels": true, "style": {"opacity": ".8", "transition": "250ms", "opacity_hover": ".4", "foreground_light": "#eee", "stroke_style": "round", "font_family": "monospace", "stroke_dasharray": "0,0", "colors": ["#ff5995", "#b6e354", "#feed6c", "#8cedff", "#9e6ffe", "#899ca1", "#f8f8f2", "#bf4646", "#516083", "#f92672", "#82b414", "#fd971f", "#56c2d6", "#808384", "#8c54fe", "#465457"], "foreground_dark": "#555", "plot_background": "#111", "foreground": "#999", "background": "black", "stroke_width": 1.0}, "interpolation_parameters": {}, "dots_size": 2.5, "legend_font_size": 14, "major_label_font_size": 10, "x_labels": null, "margin_bottom": null, "y_labels_major_every": null, "print_zeroes": false, "y_label_rotation": 0, "margin_top": null, "stack_from_top": false, "css": ["style.css", "graph.css"], "x_labels_major_count": null, "range": null, "show_dots": false, "tooltip_border_radius": 0, "margin": 20, "y_title": "Users", "pretty_print": false, "missing_value_fill_truncation": "x", "no_data_text": "No data", "x_label_format": "%Y-%m-%d %H:%M:%S.%f", "legend_box_size": 12, "show_minor_x_labels": true, "show_x_labels": true, "x_labels_major_every": null, "y_labels_major": null, "mode": null, "interpolate": null, "legend_at_bottom_columns": null, "order_min": null, "js": ["http://kozea.github.io/pygal.js/javascripts/svg.jquery.js", "http://kozea.github.io/pygal.js/javascripts/pygal-tooltips.js"], "explicit_size": false, "truncate_label": null, "x_value_formatter": null, "margin_left": null}</script><script type="text/javascript" xlink:href="http://kozea.github.io/pygal.js/javascripts/svg.jquery.js"/><script type="text/javascript" xlink:href="http://kozea.github.io/pygal.js/javascripts/pygal-tooltips.js"/></defs><title>Latest Election Participation</title><g class="graph line-graph vertical"><rect class="background" height="768" width="1024" x="0" y="0"/><g class="plot" transform="translate(86, 46)"><rect class="background" height="657.0" width="918.0" x="0" y="0"/><g class="axis y"><g class="guides"><path class="axis major line" d="M0.000000 644.365385 h918.000000"/><text class="major" x="-5" y="647.8653846153846">0</text></g><g class="guides"><path class="guide line" d="M0.000000 561.649962 h918.000000"/><text class="" x="-5" y="565.1499619282438">10000</text></g><g class="guides"><path class="guide line" d="M0.000000 478.934539 h918.000000"/><text class="" x="-5" y="482.434539241103">20000</text></g><g class="guides"><path class="guide line" d="M0.000000 396.219117 h918.000000"/><text class="" x="-5" y="399.7191165539622">30000</text></g><g class="guides"><path class="guide line" d="M0.000000 313.503694 h918.000000"/><text class="" x="-5" y="317.0036938668213">40000</text></g><g class="guides"><path class="major guide line" d="M0.000000 230.788271 h918.000000"/><text class="major" x="-5" y="234.28827117968052">50000</text></g><g class="guides"><path class="guide line" d="M0.000000 148.072848 h918.000000"/><text class="" x="-5" y="151.57284849253972">60000</text></g><g class="guides"><path class="guide line" d="M0.000000 65.357426 h918.000000"/><text class="" x="-5" y="68.85742580539886">70000</text></g></g><g class="series serie-0 color-0"><path class="line reactive nofill" d="M17.653846 644.365385 L20.296637 644.365385 22.939429 644.365385 25.582220 644.365385 28.225012 644.365385 30.867803 644.365385 33.510594 644.365385 36.153386 644.365385 38.796177 644.365385 41.438968 644.365385 44.081760 644.365385 46.724551 644.365385 49.367342 644.365385 52.010134 644.365385 54.652925 644.365385 57.295716 644.365385 59.938508 644.365385 62.581299 644.365385 65.224090 644.365385 67.866882 644.365385 70.509673 644.365385 73.152464 644.365385 75.795256 644.365385 78.438047 644.365385 81.080838 644.365385 83.723630 644.365385 86.366421 644.365385 89.009212 644.365385 91.652004 644.365385 94.294795 644.365385 96.937586 644.365385 99.580378 644.365385 102.223169 644.365385 104.865960 644.365385 107.508752 644.365385 110.151543 644.365385 112.794334 644.365385 115.437126 644.365385 118.079917 644.365385 120.722708 644.365385 123.365500 644.365385 126.008291 644.365385 128.651082 644.365385 131.293874 644.365385 133.936665 644.365385 136.579456 644.365385 139.222248 644.365385 141.865039 644.365385 144.507830 644.365385 147.150622 644.365385 149.793413 644.365385 152.436205 644.365385 155.078996 644.365385 157.721787 644.365385 160.364579 644.365385 163.007370 644.365385 165.650161 644.365385 168.292953 644.365385 170.935744 644.365385 173.578535 644.365385 176.221327 644.365385 178.864118 644.365385 181.506909 644.365385 184.149701 644.365385 186.792492 644.365385 189.435283 644.365385 192.078075 644.365385 194.720866 644.365385 197.363657 644.365385 200.006449 644.365385 202.649240 644.365385 205.292031 644.365385 207.934823 644.365385 210.577614 644.365385 213.220405 644.365385 215.863197 644.365385 218.505988 644.365385 221.148779 644.365385 223.791571 644.365385 226.434362 644.365385 229.077153 644.365385 231.719945 644.365385 234.362736 644.365385 237.005527 644.365385 239.648319 644.365385 242.291110 644.365385 244.933901 644.365385 247.576693 644.365385 250.219484 644.365385 252.862275 644.365385 255.505067 644.365385 258.147858 644.365385 260.790649 644.365385 263.433441 644.365385 266.076232 644.365385 268.719023 644.365385 271.361815 644.365385 274.004606 644.365385 276.647398 644.365385 279.290189 644.365385 281.932980 644.365385 284.575772 644.365385 287.218563 644.365385 289.861354 644.365385 292.504146 644.365385 295.146937 644.365385 297.789728 644.365385 300.432520 644.365385 303.075311 644.365385 305.718102 644.365385 308.360894 644.365385 311.003685 644.365385 313.646476 644.365385 316.289268 644.365385 318.932059 644.365385 321.574850 644.365385 324.217642 644.365385 326.860433 644.365385 329.503224 644.365385 332.146016 644.365385 334.788807 644.365385 337.431598 644.365385 340.074390 644.365385 342.717181 644.365385 345.359972 644.365385 348.002764 644.365385 350.645555 644.365385 353.288346 644.365385 355.931138 644.365385 358.573929 644.365385 361.216720 644.365385 363.859512 644.365385 366.502303 644.365385 369.145094 644.365385 371.787886 644.365385 374.430677 644.365385 377.073468 644.365385 379.716260 644.365385 382.359051 644.365385 385.001842 644.365385 387.644634 644.365385 390.287425 644.365385 392.930216 644.365385 395.573008 644.365385 398.215799 644.365385 400.858591 644.365385 403.501382 644.365385 406.144173 644.365385 408.786965 644.365385 411.429756 644.365385 414.072547 644.365385 416.715339 644.365385 419.358130 644.365385 422.000921 644.365385 424.643713 644.365385 427.286504 644.365385 429.929295 644.365385 432.572087 644.365385 435.214878 644.365385 437.857669 644.365385 440.500461 644.365385 443.143252 644.365385 445.786043 644.365385 448.428835 644.365385 451.071626 644.365385 453.714417 644.365385 456.357209 644.365385 459.000000 644.365385 461.642791 644.365385 464.285583 644.365385 466.928374 644.365385 469.571165 644.365385 472.213957 644.365385 474.856748 644.365385 477.499539 644.365385 480.142331 644.365385 482.785122 644.365385 485.427913 644.365385 488.070705 644.365385 490.713496 644.365385 493.356287 644.365385 495.999079 644.365385 498.641870 644.365385 501.284661 644.365385 503.927453 644.365385 506.570244 644.365385 509.213035 644.365385 511.855827 644.365385 514.498618 644.365385 517.141409 644.365385 519.784201 644.365385 522.426992 644.365385 525.069784 644.365385 527.712575 644.365385 530.355366 644.365385 532.998158 644.365385 535.640949 644.365385 538.283740 644.365385 540.926532 644.365385 543.569323 644.365385 546.212114 644.365385 548.854906 644.365385 551.497697 644.365385 554.140488 644.365385 556.783280 644.365385 559.426071 644.365385 562.068862 644.365385 564.711654 644.365385 567.354445 644.365385 569.997236 644.365385 572.640028 644.365385 575.282819 644.365385 577.925610 644.365385 580.568402 644.365385 583.211193 644.365385 585.853984 644.365385 588.496776 644.365385 591.139567 644.365385 593.782358 644.365385 596.425150 644.365385 599.067941 644.365385 601.710732 644.365385 604.353524 644.365385 606.996315 644.365385 609.639106 644.365385 612.281898 644.365385 614.924689 644.365385 617.567480 644.365385 620.210272 644.365385 622.853063 644.365385 625.495854 644.365385 628.138646 644.365385 630.781437 644.365385 633.424228 644.365385 636.067020 644.365385 638.709811 644.365385 641.352602 644.365385 643.995394 644.365385 646.638185 644.365385 649.280977 644.365385 651.923768 644.365385 654.566559 644.365385 657.209351 644.365385 659.852142 644.365385 662.494933 644.365385 665.137725 644.365385 667.780516 644.365385 670.423307 644.365385 673.066099 644.365385 675.708890 644.365385 678.351681 644.365385 680.994473 644.365385 683.637264 644.365385 686.280055 644.365385 688.922847 644.365385 691.565638 644.365385 694.208429 644.365385 696.851221 644.365385 699.494012 644.365385 702.136803 644.365385 704.779595 644.365385 707.422386 644.365385 710.065177 644.365385 712.707969 644.365385 715.350760 617.863363 717.993551 605.662838 720.636343 598.896717 723.279134 594.893290 725.921925 591.774919 728.564717 589.020495 731.207508 586.539033 733.850299 583.668807 736.493091 579.855626 739.135882 576.116889 741.778673 572.419510 744.421465 568.176209 747.064256 564.445743 749.707047 560.218985 752.349839 556.389261 754.992630 553.295704 757.635421 550.334492 760.278213 547.431181 762.921004 544.668486 765.563795 542.129122 768.206587 539.953707 770.849378 537.472244 773.492170 535.561518 776.134961 533.311658 778.777752 531.773151 781.420544 530.507605 784.063335 529.523292 786.706126 528.687866 789.348918 528.084043 791.991709 527.422320 794.634500 526.810226 797.277292 526.256033 799.920083 525.660482 802.562874 524.791970 805.205666 523.584324 807.848457 522.475938 810.491248 521.020146 813.134040 519.845587 815.776831 518.447697 818.419622 517.058078 821.062414 515.833889 823.705205 514.576615 826.347996 513.550944 828.990788 512.252311 831.633579 510.986766 834.276370 509.762577 836.919162 508.563204 839.561953 507.438274 842.204744 506.462232 844.847536 505.436561 847.490327 504.683850 850.133118 503.749166 852.775910 502.847568 855.418701 501.821897 858.061492 500.713510 860.704284 499.505865 863.347075 497.123661 865.989866 493.765415 868.632658 489.058907 871.275449 482.929694 873.918240 477.321588 876.561032 472.052616 879.203823 468.628198 881.846614 465.609085 884.489406 461.944791 887.132197 458.164697 889.774988 454.607933 892.417780 451.878324 895.060571 449.967598 897.703363 448.602794 900.346154 447.378605"/></g><g class="series serie-1 color-1"><path class="line reactive nofill" d="M17.653846 627.764399 L20.296637 621.552471 22.939429 618.086695 25.582220 615.778935 28.225012 613.603519 30.867803 612.155999 33.510594 610.700208 36.153386 609.004541 38.796177 606.473449 41.438968 603.214462 44.081760 599.806586 46.724551 595.141437 49.367342 590.873321 52.010134 587.970009 54.652925 585.298301 57.295716 583.081528 59.938508 580.782039 62.581299 578.532180 65.224090 576.265777 67.866882 574.288879 70.509673 572.733829 73.152464 571.352481 75.795256 570.128293 78.438047 568.970277 81.080838 568.060407 83.723630 566.943749 86.366421 566.414370 89.009212 566.033879 91.652004 565.570673 94.294795 565.132281 96.937586 564.842777 99.580378 564.569816 102.223169 564.015623 104.865960 563.370443 107.508752 562.667362 110.151543 561.716134 112.794334 560.764907 115.437126 559.830223 118.079917 558.945168 120.722708 558.209000 123.365500 557.365303 126.008291 556.496791 128.651082 555.744081 131.293874 555.090629 133.936665 554.544707 136.579456 553.891255 139.222248 553.303976 141.865039 552.815955 144.507830 552.319662 147.150622 551.922628 149.793413 551.533866 152.436205 551.384978 155.078996 551.211276 157.721787 551.029302 160.364579 550.797698 163.007370 550.615725 165.650161 550.268320 168.292953 549.829928 170.935744 549.457709 173.578535 548.878701 176.221327 548.291421 178.864118 547.795129 181.506909 547.290565 184.149701 546.711557 186.792492 546.223536 189.435283 545.619713 192.078075 544.999347 194.720866 544.412068 197.363657 543.957133 200.006449 543.642814 202.649240 543.278867 205.292031 542.898376 207.934823 542.426898 210.577614 542.129122 213.220405 541.938877 215.863197 541.756903 218.505988 541.632830 221.148779 541.492213 223.791571 541.335054 226.434362 541.219253 229.077153 540.971106 231.719945 540.681602 234.362736 540.309383 237.005527 539.978521 239.648319 539.631116 242.291110 539.184453 244.933901 538.746061 247.576693 538.398657 250.219484 537.976808 252.862275 537.588045 255.505067 537.174468 258.147858 536.851878 260.790649 536.636818 263.433441 536.380400 266.076232 536.148797 268.719023 535.933737 271.361815 535.644233 274.004606 535.470531 276.647398 535.321643 279.290189 535.205841 281.932980 535.065225 284.575772 534.957695 287.218563 534.891523 289.861354 534.825350 292.504146 534.693006 295.146937 534.618562 297.789728 534.477946 300.432520 534.337329 303.075311 534.254614 305.718102 534.155355 308.360894 534.080912 311.003685 533.907209 313.646476 533.750050 316.289268 533.650791 318.932059 533.452274 321.574850 533.286843 324.217642 533.137956 326.860433 532.964253 329.503224 532.749193 332.146016 532.616849 334.788807 532.517590 337.431598 532.443146 340.074390 532.285987 342.717181 532.170185 345.359972 532.079198 348.002764 531.971668 350.645555 531.880681 353.288346 531.814509 355.931138 531.698707 358.573929 531.591177 361.216720 531.483647 363.859512 531.392660 366.502303 531.309945 369.145094 531.119699 371.787886 530.979083 374.430677 530.813652 377.073468 530.673036 379.716260 530.540691 382.359051 530.408347 385.001842 530.267731 387.644634 530.168472 390.287425 530.044399 392.930216 529.903783 395.573008 529.705266 398.215799 529.564649 400.858591 529.407490 403.501382 529.316503 406.144173 529.225516 408.786965 529.134529 411.429756 529.026999 414.072547 528.878111 416.715339 528.803668 419.358130 528.696138 422.000921 528.489349 424.643713 528.282560 427.286504 527.893798 429.929295 527.463678 432.572087 526.967385 435.214878 526.570351 437.857669 526.115416 440.500461 525.710111 443.143252 525.106288 445.786043 524.618267 448.428835 524.353578 451.071626 524.055802 453.714417 523.733212 456.357209 523.385807 459.000000 523.013588 461.642791 481.821307 464.285583 462.250838 466.928374 451.671536 469.571165 443.863200 472.213957 437.163251 474.856748 431.546874 477.499539 425.210872 480.142331 419.015487 482.785122 410.040864 485.427913 396.963555 488.070705 379.750476 490.713496 357.839160 493.356287 339.013130 495.999079 322.428688 498.641870 309.624341 501.284661 298.358500 503.927453 286.836242 506.570244 275.967435 509.213035 265.594921 511.855827 257.240663 514.498618 250.879847 517.141409 245.354457 519.784201 240.242644 522.426992 235.602309 525.069784 231.673326 527.712575 228.215822 530.355366 225.916333 532.998158 224.443998 535.640949 223.228082 538.283740 221.888092 540.926532 220.614274 543.569323 219.017867 546.212114 216.875537 548.854906 214.079756 551.497697 210.332747 554.140488 206.089446 556.783280 201.837873 559.426071 197.371240 562.068862 193.409172 564.711654 189.579448 567.354445 185.757995 569.997236 181.845556 572.640028 177.825586 575.282819 174.641042 577.925610 171.630201 580.568402 169.297626 583.211193 166.890607 585.853984 164.781364 588.496776 162.705207 591.139567 161.290773 593.782358 160.058313 596.425150 159.065728 599.067941 158.346104 601.710732 157.403148 604.353524 156.683524 606.996315 155.765383 609.639106 154.673539 612.281898 153.540338 614.924689 151.488995 617.567480 149.396295 620.210272 147.262237 622.853063 144.871762 625.495854 142.712889 628.138646 140.669818 630.781437 138.246256 633.424228 136.046026 636.067020 133.961597 638.709811 132.423091 641.352602 130.628166 643.995394 129.048301 646.638185 127.873742 649.280977 126.707455 651.923768 125.474995 654.566559 124.465867 657.209351 123.762786 659.852142 123.225136 662.494933 122.737115 665.137725 122.348352 667.780516 121.835516 670.423307 121.306138 673.066099 120.718858 675.708890 119.974419 678.351681 119.122451 680.994473 118.105051 683.637264 116.773333 686.280055 115.416800 688.922847 114.358042 691.565638 113.348914 694.208429 111.901394 696.851221 110.486960 699.494012 108.981540 702.136803 107.881425 704.779595 107.087357 707.422386 106.111315 710.065177 105.168359 712.707969 104.407377 715.350760 95.821516 717.993551 91.222538 720.636343 88.302684 723.279134 86.441587 725.921925 85.258757 728.564717 84.208271 731.207508 83.397659 733.850299 82.438161 736.493091 81.247059 739.135882 79.882254 741.778673 78.509178 744.421465 76.970671 747.064256 75.647224 749.707047 73.926744 752.349839 72.520581 754.992630 71.329479 757.635421 69.790972 760.278213 68.533698 762.921004 67.243337 765.563795 65.969520 768.206587 64.960392 770.849378 63.818919 773.492170 62.859420 776.134961 61.635232 778.777752 60.741905 781.420544 59.923023 784.063335 59.410187 786.706126 58.798093 789.348918 58.425873 791.991709 58.045382 794.634500 57.747607 797.277292 57.416745 799.920083 57.077612 802.562874 56.680578 805.205666 56.118113 807.848457 55.522562 810.491248 54.620964 813.134040 53.768995 815.776831 52.908755 818.419622 52.304932 821.062414 51.477778 823.705205 50.791240 826.347996 50.146060 828.990788 49.310634 831.633579 48.566195 834.276370 47.763855 836.919162 47.209662 839.561953 46.589296 842.204744 45.877944 844.847536 45.274121 847.490327 44.852273 850.133118 44.389066 852.775910 43.934131 855.418701 43.305494 858.061492 42.734758 860.704284 42.048220 863.347075 41.080449 865.989866 39.641201 868.632658 37.581587 871.275449 35.075310 873.918240 32.180270 876.561032 29.086713 879.203823 27.043642 881.846614 25.050200 884.489406 22.725897 887.132197 20.385050 889.774988 18.151734 892.417780 16.199650 895.060571 14.876203 897.703363 13.635472 900.346154 12.634615"/></g></g><g class="titles"><text class="title plot_title" x="512.0" y="26">Latest Election Participation</text><text class="title" x="0" y="400.5" transform="rotate(-90 0.000000 374.500000)">Users</text></g><g class="plot overlay" transform="translate(86, 46)"><g class="series serie-0 color-0"/><g class="series serie-1 color-1"/></g><g class="plot text-overlay" transform="translate(86, 46)"><g class="series serie-0 color-0"/><g class="series serie-1 color-1"/></g><g class="plot tooltip-overlay" transform="translate(86, 46)"><g class="tooltip" style="opacity: 0" transform="translate(0 0)"><a><rect class="tooltip-box" height="0" rx="0" ry="0" width="0"/><text class="text"><tspan class="label"/><tspan class="value"/></text></a></g></g><g class="legends" transform="translate(96, 713)"><g class="legend reactive activate-serie" id="activate-serie-0"><rect class="color-0 reactive" height="12" width="12" x="0.0" y="1.0"/><text x="17.0" y="11.2">constituents</text></g><g class="legend reactive activate-serie" id="activate-serie-1"><rect class="color-1 reactive" height="12" width="12" x="459.0" y="1.0"/><text x="476.0" y="11.2">caucus</text></g></g></g></svg>